<?xml version="1.0" encoding="UTF-8" standalone="no"?>
<!DOCTYPE svg PUBLIC "-//W3C//DTD SVG 1.1//EN"
 "http://www.w3.org/Graphics/SVG/1.1/DTD/svg11.dtd">
<!-- Generated by graphviz version 2.30.1 (20130303.0817)
 -->
<!-- Title: server::clsSettings Pages: 1 -->
<svg width="231pt" height="688pt"
 viewBox="0.00 0.00 231.00 688.00" xmlns="http://www.w3.org/2000/svg" xmlns:xlink="http://www.w3.org/1999/xlink">
<g id="graph0" class="graph" transform="scale(1 1) rotate(0) translate(4 684)">
<title>server::clsSettings</title>
<polygon fill="white" stroke="white" points="-4,5 -4,-684 228,-684 228,5 -4,5"/>
<!-- Node1 -->
<g id="node1" class="node"><title>Node1</title>
<polygon fill="#bfbfbf" stroke="black" points="72,-1 72,-201 174,-201 174,-1 72,-1"/>
<text text-anchor="middle" x="123" y="-189" font-family="Helvetica,sans-Serif" font-size="10.00">server::clsSettings</text>
<polyline fill="none" stroke="black" points="72,-182 174,-182 "/>
<text text-anchor="start" x="80" y="-170" font-family="Helvetica,sans-Serif" font-size="10.00">&#45; server</text>
<text text-anchor="start" x="80" y="-159" font-family="Helvetica,sans-Serif" font-size="10.00">&#45; channel</text>
<text text-anchor="start" x="80" y="-148" font-family="Helvetica,sans-Serif" font-size="10.00">&#45; listeningPort</text>
<text text-anchor="start" x="80" y="-137" font-family="Helvetica,sans-Serif" font-size="10.00">&#45; users</text>
<polyline fill="none" stroke="black" points="72,-130 174,-130 "/>
<text text-anchor="start" x="80" y="-118" font-family="Helvetica,sans-Serif" font-size="10.00">+ clsSettings()</text>
<text text-anchor="start" x="80" y="-107" font-family="Helvetica,sans-Serif" font-size="10.00">+ getListeningPort()</text>
<text text-anchor="start" x="80" y="-96" font-family="Helvetica,sans-Serif" font-size="10.00">+ getServer()</text>
<text text-anchor="start" x="80" y="-85" font-family="Helvetica,sans-Serif" font-size="10.00">+ getChannel()</text>
<text text-anchor="start" x="80" y="-74" font-family="Helvetica,sans-Serif" font-size="10.00">+ getUserName()</text>
<text text-anchor="start" x="80" y="-63" font-family="Helvetica,sans-Serif" font-size="10.00">+ getOwnUser()</text>
<text text-anchor="start" x="80" y="-52" font-family="Helvetica,sans-Serif" font-size="10.00">+ getUsers()</text>
<text text-anchor="start" x="80" y="-41" font-family="Helvetica,sans-Serif" font-size="10.00">&#45; readUiSettings()</text>
<text text-anchor="start" x="80" y="-30" font-family="Helvetica,sans-Serif" font-size="10.00">&#45; readServer()</text>
<text text-anchor="start" x="80" y="-19" font-family="Helvetica,sans-Serif" font-size="10.00">&#45; readUsers()</text>
<text text-anchor="start" x="80" y="-8" font-family="Helvetica,sans-Serif" font-size="10.00">&#45; readUserInfo()</text>
</g>
<!-- Node2 -->
<g id="node2" class="node"><title>Node2</title>
<g id="a_node2"><a xlink:href="../../d2/d29/classserver_1_1irc_user.html" target="_top" xlink:title="The ircUser class.">
<polygon fill="white" stroke="black" points="83,-251 83,-451 163,-451 163,-251 83,-251"/>
<text text-anchor="middle" x="123" y="-439" font-family="Helvetica,sans-Serif" font-size="10.00">server::ircUser</text>
<polyline fill="none" stroke="black" points="83,-432 163,-432 "/>
<text text-anchor="start" x="91" y="-420" font-family="Helvetica,sans-Serif" font-size="10.00">&#45; name</text>
<text text-anchor="start" x="91" y="-409" font-family="Helvetica,sans-Serif" font-size="10.00">&#45; ircId</text>
<text text-anchor="start" x="91" y="-398" font-family="Helvetica,sans-Serif" font-size="10.00">&#45; id</text>
<text text-anchor="start" x="91" y="-387" font-family="Helvetica,sans-Serif" font-size="10.00">&#45; status</text>
<text text-anchor="start" x="91" y="-376" font-family="Helvetica,sans-Serif" font-size="10.00">&#45; email</text>
<text text-anchor="start" x="91" y="-365" font-family="Helvetica,sans-Serif" font-size="10.00">&#45; online</text>
<text text-anchor="start" x="91" y="-354" font-family="Helvetica,sans-Serif" font-size="10.00">&#45; standard</text>
<polyline fill="none" stroke="black" points="83,-347 163,-347 "/>
<text text-anchor="start" x="91" y="-335" font-family="Helvetica,sans-Serif" font-size="10.00">+ ircUser()</text>
<text text-anchor="start" x="91" y="-324" font-family="Helvetica,sans-Serif" font-size="10.00">+ ircUser()</text>
<text text-anchor="start" x="91" y="-313" font-family="Helvetica,sans-Serif" font-size="10.00">+ ircUser()</text>
<text text-anchor="start" x="91" y="-302" font-family="Helvetica,sans-Serif" font-size="10.00">+ ircUser()</text>
<text text-anchor="start" x="91" y="-291" font-family="Helvetica,sans-Serif" font-size="10.00">+ getName()</text>
<text text-anchor="start" x="91" y="-280" font-family="Helvetica,sans-Serif" font-size="10.00">+ getOnline()</text>
<text text-anchor="start" x="91" y="-269" font-family="Helvetica,sans-Serif" font-size="10.00">+ getStatus()</text>
<text text-anchor="start" x="91" y="-258" font-family="Helvetica,sans-Serif" font-size="10.00">and 13 more...</text>
</a>
</g>
</g>
<!-- Node2&#45;&gt;Node1 -->
<g id="edge1" class="edge"><title>Node2&#45;&gt;Node1</title>
<path fill="none" stroke="#404040" d="M123,-250.915C123,-238.671 123,-226.089 123,-213.674"/>
<polygon fill="none" stroke="#404040" points="123,-213.333 119,-207.333 123,-201.333 127,-207.333 123,-213.333"/>
<text text-anchor="middle" x="145" y="-223.5" font-family="Helvetica,sans-Serif" font-size="10.00"> &#45;ownUser</text>
</g>
<!-- Node3 -->
<g id="node3" class="node"><title>Node3</title>
<g id="a_node3"><a xlink:href="../../db/d31/structserver_1_1irc_user_1_1user_color.html" target="_top" xlink:title="The userColor struct As a replacement for the QColor type.">
<polygon fill="white" stroke="black" points="0,-550.5 0,-629.5 126,-629.5 126,-550.5 0,-550.5"/>
<text text-anchor="middle" x="63" y="-617.5" font-family="Helvetica,sans-Serif" font-size="10.00">server::ircUser::userColor</text>
<polyline fill="none" stroke="black" points="0,-610.5 126,-610.5 "/>
<text text-anchor="start" x="8" y="-598.5" font-family="Helvetica,sans-Serif" font-size="10.00">+ r</text>
<text text-anchor="start" x="8" y="-587.5" font-family="Helvetica,sans-Serif" font-size="10.00">+ g</text>
<text text-anchor="start" x="8" y="-576.5" font-family="Helvetica,sans-Serif" font-size="10.00">+ b</text>
<polyline fill="none" stroke="black" points="0,-569.5 126,-569.5 "/>
<text text-anchor="middle" x="63" y="-557.5" font-family="Helvetica,sans-Serif" font-size="10.00"> </text>
</a>
</g>
</g>
<!-- Node3&#45;&gt;Node2 -->
<g id="edge2" class="edge"><title>Node3&#45;&gt;Node2</title>
<path fill="none" stroke="#404040" d="M72.7736,-550.394C78.8245,-526.493 86.9303,-494.475 94.8618,-463.146"/>
<polygon fill="none" stroke="#404040" points="94.9434,-462.823 92.5383,-456.025 97.8885,-451.19 100.294,-457.989 94.9434,-462.823"/>
<text text-anchor="middle" x="110" y="-473.5" font-family="Helvetica,sans-Serif" font-size="10.00"> &#45;uColor</text>
</g>
<!-- Node4 -->
<g id="node4" class="node"><title>Node4</title>
<g id="a_node4"><a xlink:href="../../da/d64/class_k4_u_1_1cls_log.html" target="_top" xlink:title="Custom logging class.">
<polygon fill="white" stroke="black" points="144.5,-501 144.5,-679 223.5,-679 223.5,-501 144.5,-501"/>
<text text-anchor="middle" x="184" y="-667" font-family="Helvetica,sans-Serif" font-size="10.00">K4U::clsLog</text>
<polyline fill="none" stroke="black" points="144.5,-660 223.5,-660 "/>
<text text-anchor="start" x="152.5" y="-648" font-family="Helvetica,sans-Serif" font-size="10.00">&#45; isFirst</text>
<text text-anchor="start" x="152.5" y="-637" font-family="Helvetica,sans-Serif" font-size="10.00">&#45; tag</text>
<text text-anchor="start" x="152.5" y="-626" font-family="Helvetica,sans-Serif" font-size="10.00">&#45; prf</text>
<polyline fill="none" stroke="black" points="144.5,-619 223.5,-619 "/>
<text text-anchor="start" x="152.5" y="-607" font-family="Helvetica,sans-Serif" font-size="10.00">+ clsLog()</text>
<text text-anchor="start" x="152.5" y="-596" font-family="Helvetica,sans-Serif" font-size="10.00">+ operator&lt;&lt;()</text>
<text text-anchor="start" x="152.5" y="-585" font-family="Helvetica,sans-Serif" font-size="10.00">+ operator&lt;&lt;()</text>
<text text-anchor="start" x="152.5" y="-574" font-family="Helvetica,sans-Serif" font-size="10.00">+ operator&lt;&lt;()</text>
<text text-anchor="start" x="152.5" y="-563" font-family="Helvetica,sans-Serif" font-size="10.00">+ operator&lt;&lt;()</text>
<text text-anchor="start" x="152.5" y="-552" font-family="Helvetica,sans-Serif" font-size="10.00">+ operator&lt;&lt;()</text>
<text text-anchor="start" x="152.5" y="-541" font-family="Helvetica,sans-Serif" font-size="10.00">+ operator&lt;&lt;()</text>
<text text-anchor="start" x="152.5" y="-530" font-family="Helvetica,sans-Serif" font-size="10.00">and 9 more...</text>
<text text-anchor="start" x="152.5" y="-519" font-family="Helvetica,sans-Serif" font-size="10.00">&#45; prefix()</text>
<text text-anchor="start" x="152.5" y="-508" font-family="Helvetica,sans-Serif" font-size="10.00">&#45; getTag()</text>
</a>
</g>
</g>
<!-- Node4&#45;&gt;Node2 -->
<g id="edge3" class="edge"><title>Node4&#45;&gt;Node2</title>
<path fill="none" stroke="#404040" d="M161.286,-500.75C158.096,-488.356 154.784,-475.49 151.503,-462.743"/>
<polygon fill="none" stroke="#404040" points="151.495,-462.709 146.125,-457.896 148.504,-451.088 153.873,-455.901 151.495,-462.709"/>
<text text-anchor="middle" x="165.5" y="-473.5" font-family="Helvetica,sans-Serif" font-size="10.00"> &#45;log</text>
</g>
</g>
</svg>
