<?xml version="1.0" encoding="UTF-8" standalone="no"?>
<!DOCTYPE svg PUBLIC "-//W3C//DTD SVG 1.1//EN"
 "http://www.w3.org/Graphics/SVG/1.1/DTD/svg11.dtd">
<!-- Generated by graphviz version 2.30.1 (20130303.0817)
 -->
<!-- Title: C++/customIrcServer/functions.h Pages: 1 -->
<svg width="289pt" height="96pt"
 viewBox="0.00 0.00 289.00 96.00" xmlns="http://www.w3.org/2000/svg" xmlns:xlink="http://www.w3.org/1999/xlink">
<g id="graph0" class="graph" transform="scale(1 1) rotate(0) translate(4 92)">
<title>C++/customIrcServer/functions.h</title>
<polygon fill="white" stroke="white" points="-4,5 -4,-92 286,-92 286,5 -4,5"/>
<!-- Node1 -->
<g id="node1" class="node"><title>Node1</title>
<polygon fill="#bfbfbf" stroke="black" points="68,-57 68,-87 176,-87 176,-57 68,-57"/>
<text text-anchor="start" x="76" y="-75" font-family="Helvetica,sans-Serif" font-size="10.00">C++/customIrcServer</text>
<text text-anchor="middle" x="122" y="-64" font-family="Helvetica,sans-Serif" font-size="10.00">/functions.h</text>
</g>
<!-- Node2 -->
<g id="node2" class="node"><title>Node2</title>
<polygon fill="white" stroke="#bfbfbf" points="-0.5,-0.5 -0.5,-19.5 40.5,-19.5 40.5,-0.5 -0.5,-0.5"/>
<text text-anchor="middle" x="20" y="-7.5" font-family="Helvetica,sans-Serif" font-size="10.00">string</text>
</g>
<!-- Node1&#45;&gt;Node2 -->
<g id="edge1" class="edge"><title>Node1&#45;&gt;Node2</title>
<path fill="none" stroke="midnightblue" d="M98.0855,-56.9327C81.6452,-47.2619 59.9148,-34.4793 43.5528,-24.8546"/>
<polygon fill="midnightblue" stroke="midnightblue" points="45.014,-21.6535 34.62,-19.6 41.4648,-27.6871 45.014,-21.6535"/>
</g>
<!-- Node3 -->
<g id="node3" class="node"><title>Node3</title>
<polygon fill="white" stroke="#bfbfbf" points="59,-0.5 59,-19.5 109,-19.5 109,-0.5 59,-0.5"/>
<text text-anchor="middle" x="84" y="-7.5" font-family="Helvetica,sans-Serif" font-size="10.00">QString</text>
</g>
<!-- Node1&#45;&gt;Node3 -->
<g id="edge2" class="edge"><title>Node1&#45;&gt;Node3</title>
<path fill="none" stroke="midnightblue" d="M112.995,-56.7808C107.587,-48.2419 100.668,-37.3184 94.9461,-28.2834"/>
<polygon fill="midnightblue" stroke="midnightblue" points="97.8368,-26.306 89.5293,-19.7305 91.923,-30.0514 97.8368,-26.306"/>
</g>
<!-- Node4 -->
<g id="node4" class="node"><title>Node4</title>
<polygon fill="white" stroke="#bfbfbf" points="127.5,-0.5 127.5,-19.5 192.5,-19.5 192.5,-0.5 127.5,-0.5"/>
<text text-anchor="middle" x="160" y="-7.5" font-family="Helvetica,sans-Serif" font-size="10.00">QStringList</text>
</g>
<!-- Node1&#45;&gt;Node4 -->
<g id="edge3" class="edge"><title>Node1&#45;&gt;Node4</title>
<path fill="none" stroke="midnightblue" d="M131.005,-56.7808C136.413,-48.2419 143.332,-37.3184 149.054,-28.2834"/>
<polygon fill="midnightblue" stroke="midnightblue" points="152.077,-30.0514 154.471,-19.7305 146.163,-26.306 152.077,-30.0514"/>
</g>
<!-- Node5 -->
<g id="node5" class="node"><title>Node5</title>
<polygon fill="white" stroke="#bfbfbf" points="210.5,-0.5 210.5,-19.5 281.5,-19.5 281.5,-0.5 210.5,-0.5"/>
<text text-anchor="middle" x="246" y="-7.5" font-family="Helvetica,sans-Serif" font-size="10.00">QVariantList</text>
</g>
<!-- Node1&#45;&gt;Node5 -->
<g id="edge4" class="edge"><title>Node1&#45;&gt;Node5</title>
<path fill="none" stroke="midnightblue" d="M151.072,-56.9327C171.619,-46.9907 198.963,-33.7601 219.025,-24.0526"/>
<polygon fill="midnightblue" stroke="midnightblue" points="220.749,-27.1063 228.227,-19.6 217.701,-20.8051 220.749,-27.1063"/>
</g>
</g>
</svg>
