<?xml version="1.0" encoding="UTF-8" standalone="no"?>
<!DOCTYPE svg PUBLIC "-//W3C//DTD SVG 1.1//EN"
 "http://www.w3.org/Graphics/SVG/1.1/DTD/svg11.dtd">
<!-- Generated by graphviz version 2.30.1 (20130303.0817)
 -->
<!-- Title: C++/customIrcClient/chatbox.h Pages: 1 -->
<!--zoomable 264 -->
<svg id="main" version="1.1" xmlns="http://www.w3.org/2000/svg" xmlns:xlink="http://www.w3.org/1999/xlink" xml:space="preserve" onload="init(evt)">
        <defs>
                <circle id="rim" cx="0" cy="0" r="7"/>
                <circle id="rim2" cx="0" cy="0" r="3.5"/>
                <g id="zoomPlus">
                        <use xlink:href="#rim" fill="#404040">
                                <set attributeName="fill" to="#808080" begin="zoomplus.mouseover" end="zoomplus.mouseout"/>
                        </use>
                        <path d="M-4,0h8M0,-4v8" fill="none" stroke="white" stroke-width="1.5" pointer-events="none"/>
                </g>
                <g id="zoomMin">
                        <use xlink:href="#rim" fill="#404040">
                                <set attributeName="fill" to="#808080" begin="zoomminus.mouseover" end="zoomminus.mouseout"/>
                        </use>
                        <path d="M-4,0h8" fill="none" stroke="white" stroke-width="1.5" pointer-events="none"/>
                </g>
                <g id="dirArrow">
                        <path fill="none" stroke="white" stroke-width="1.5" d="M0,-3.0v7 M-2.5,-0.5L0,-3.0L2.5,-0.5"/>
                </g>
               <g id="resetDef">
                       <use xlink:href="#rim2" fill="#404040">
                               <set attributeName="fill" to="#808080" begin="reset.mouseover" end="reset.mouseout"/>
                       </use>
               </g>
        </defs>

<script type="text/javascript">
var viewWidth = 846;
var viewHeight = 264;
var sectionId = 'dynsection-0';
</script>
<script xlink:href="../../svgpan.js"/>
<svg id="graph" class="graph">
<g id="viewport">
<title>C++/customIrcClient/chatbox.h</title>
<polygon fill="white" stroke="white" points="-4,5 -4,-260 843,-260 843,5 -4,5"/>
<!-- Node1 -->
<g id="node1" class="node"><title>Node1</title>
<polygon fill="#bfbfbf" stroke="black" points="349,-225 349,-255 455,-255 455,-225 349,-225"/>
<text text-anchor="start" x="357" y="-243" font-family="Helvetica,sans-Serif" font-size="10.00">C++/customIrcClient</text>
<text text-anchor="middle" x="402" y="-232" font-family="Helvetica,sans-Serif" font-size="10.00">/chatbox.h</text>
</g>
<!-- Node2 -->
<g id="node2" class="node"><title>Node2</title>
<polygon fill="white" stroke="#bfbfbf" points="170.5,-112.5 170.5,-131.5 225.5,-131.5 225.5,-112.5 170.5,-112.5"/>
<text text-anchor="middle" x="198" y="-119.5" font-family="Helvetica,sans-Serif" font-size="10.00">QWidget</text>
</g>
<!-- Node1&#45;&gt;Node2 -->
<g id="edge1" class="edge"><title>Node1&#45;&gt;Node2</title>
<path fill="none" stroke="midnightblue" d="M348.952,-238.579C306.731,-235.334 249.091,-223.927 214,-188 202.21,-175.929 198.647,-156.643 197.771,-142.208"/>
<polygon fill="midnightblue" stroke="midnightblue" points="201.264,-141.821 197.539,-131.902 194.265,-141.979 201.264,-141.821"/>
</g>
<!-- Node3 -->
<g id="node3" class="node"><title>Node3</title>
<polygon fill="white" stroke="#bfbfbf" points="529.5,-168.5 529.5,-187.5 582.5,-187.5 582.5,-168.5 529.5,-168.5"/>
<text text-anchor="middle" x="556" y="-175.5" font-family="Helvetica,sans-Serif" font-size="10.00">QVector</text>
</g>
<!-- Node1&#45;&gt;Node3 -->
<g id="edge2" class="edge"><title>Node1&#45;&gt;Node3</title>
<path fill="none" stroke="midnightblue" d="M438.106,-224.933C464.32,-214.72 499.441,-201.036 524.516,-191.266"/>
<polygon fill="midnightblue" stroke="midnightblue" points="525.879,-194.492 533.927,-187.6 523.338,-187.969 525.879,-194.492"/>
</g>
<!-- Node4 -->
<g id="node4" class="node"><title>Node4</title>
<polygon fill="white" stroke="#bfbfbf" points="245.5,-112.5 245.5,-131.5 290.5,-131.5 290.5,-112.5 245.5,-112.5"/>
<text text-anchor="middle" x="268" y="-119.5" font-family="Helvetica,sans-Serif" font-size="10.00">QTime</text>
</g>
<!-- Node1&#45;&gt;Node4 -->
<g id="edge3" class="edge"><title>Node1&#45;&gt;Node4</title>
<path fill="none" stroke="midnightblue" d="M386.491,-224.978C370.465,-210.551 344.667,-187.495 322,-168 310.173,-157.828 296.693,-146.595 286.16,-137.896"/>
<polygon fill="midnightblue" stroke="midnightblue" points="288.377,-135.187 278.433,-131.532 283.927,-140.591 288.377,-135.187"/>
</g>
<!-- Node5 -->
<g id="node5" class="node"><title>Node5</title>
<g id="a_node5"><a xlink:href="../../db/d97/clsevent_8h.html" target="_top" xlink:title="../resources/clsevent.h">
<polygon fill="white" stroke="black" points="601.5,-112.5 601.5,-131.5 716.5,-131.5 716.5,-112.5 601.5,-112.5"/>
<text text-anchor="middle" x="659" y="-119.5" font-family="Helvetica,sans-Serif" font-size="10.00">../resources/clsevent.h</text>
</a>
</g>
</g>
<!-- Node1&#45;&gt;Node5 -->
<g id="edge4" class="edge"><title>Node1&#45;&gt;Node5</title>
<path fill="none" stroke="midnightblue" d="M422.302,-224.971C445.401,-209.472 484.643,-184.524 521,-168 551.853,-153.978 588.374,-142.269 616.093,-134.314"/>
<polygon fill="midnightblue" stroke="midnightblue" points="617.205,-137.637 625.881,-131.555 615.306,-130.899 617.205,-137.637"/>
</g>
<!-- Node15 -->
<g id="node15" class="node"><title>Node15</title>
<g id="a_node15"><a xlink:href="../../d5/d98/custom_irc_client_2ircuser_8h.html" target="_top" xlink:title="ircuser.h">
<polygon fill="white" stroke="black" points="444,-112.5 444,-131.5 498,-131.5 498,-112.5 444,-112.5"/>
<text text-anchor="middle" x="471" y="-119.5" font-family="Helvetica,sans-Serif" font-size="10.00">ircuser.h</text>
</a>
</g>
</g>
<!-- Node1&#45;&gt;Node15 -->
<g id="edge15" class="edge"><title>Node1&#45;&gt;Node15</title>
<path fill="none" stroke="midnightblue" d="M415.327,-224.613C423.958,-214.803 435.031,-201.237 443,-188 452.002,-173.049 459.634,-154.68 464.645,-141.288"/>
<polygon fill="midnightblue" stroke="midnightblue" points="467.976,-142.369 468.078,-131.775 461.391,-139.993 467.976,-142.369"/>
</g>
<!-- Node21 -->
<g id="node21" class="node"><title>Node21</title>
<g id="a_node21"><a xlink:href="../../d4/d48/chatentry_8h.html" target="_top" xlink:title="chatentry.h">
<polygon fill="white" stroke="black" points="369.5,-168.5 369.5,-187.5 434.5,-187.5 434.5,-168.5 369.5,-168.5"/>
<text text-anchor="middle" x="402" y="-175.5" font-family="Helvetica,sans-Serif" font-size="10.00">chatentry.h</text>
</a>
</g>
</g>
<!-- Node1&#45;&gt;Node21 -->
<g id="edge24" class="edge"><title>Node1&#45;&gt;Node21</title>
<path fill="none" stroke="midnightblue" d="M402,-224.781C402,-216.781 402,-206.689 402,-198.017"/>
<polygon fill="midnightblue" stroke="midnightblue" points="405.5,-197.73 402,-187.731 398.5,-197.731 405.5,-197.73"/>
</g>
<!-- Node24 -->
<g id="node24" class="node"><title>Node24</title>
<g id="a_node24"><a xlink:href="../../d1/d3d/chatnotification_8h.html" target="_top" xlink:title="chatnotification.h">
<polygon fill="white" stroke="black" points="223,-168.5 223,-187.5 313,-187.5 313,-168.5 223,-168.5"/>
<text text-anchor="middle" x="268" y="-175.5" font-family="Helvetica,sans-Serif" font-size="10.00">chatnotification.h</text>
</a>
</g>
</g>
<!-- Node1&#45;&gt;Node24 -->
<g id="edge29" class="edge"><title>Node1&#45;&gt;Node24</title>
<path fill="none" stroke="midnightblue" d="M370.583,-224.933C348.177,-214.9 318.293,-201.519 296.562,-191.789"/>
<polygon fill="midnightblue" stroke="midnightblue" points="297.764,-188.492 287.207,-187.6 294.903,-194.881 297.764,-188.492"/>
</g>
<!-- Node6 -->
<g id="node6" class="node"><title>Node6</title>
<polygon fill="white" stroke="#bfbfbf" points="667.5,-56.5 667.5,-75.5 720.5,-75.5 720.5,-56.5 667.5,-56.5"/>
<text text-anchor="middle" x="694" y="-63.5" font-family="Helvetica,sans-Serif" font-size="10.00">QObject</text>
</g>
<!-- Node5&#45;&gt;Node6 -->
<g id="edge5" class="edge"><title>Node5&#45;&gt;Node6</title>
<path fill="none" stroke="midnightblue" d="M664.78,-112.083C669.672,-104.534 676.827,-93.4948 682.833,-84.2298"/>
<polygon fill="midnightblue" stroke="midnightblue" points="685.826,-86.0463 688.328,-75.7511 679.952,-82.239 685.826,-86.0463"/>
</g>
<!-- Node7 -->
<g id="node7" class="node"><title>Node7</title>
<polygon fill="white" stroke="#bfbfbf" points="531,-56.5 531,-75.5 581,-75.5 581,-56.5 531,-56.5"/>
<text text-anchor="middle" x="556" y="-63.5" font-family="Helvetica,sans-Serif" font-size="10.00">QString</text>
</g>
<!-- Node5&#45;&gt;Node7 -->
<g id="edge6" class="edge"><title>Node5&#45;&gt;Node7</title>
<path fill="none" stroke="midnightblue" d="M642.451,-112.324C626.008,-103.703 600.565,-90.3643 581.532,-80.3855"/>
<polygon fill="midnightblue" stroke="midnightblue" points="582.989,-77.198 572.508,-75.6545 579.739,-83.3977 582.989,-77.198"/>
</g>
<!-- Node8 -->
<g id="node8" class="node"><title>Node8</title>
<polygon fill="white" stroke="#bfbfbf" points="738.5,-56.5 738.5,-75.5 793.5,-75.5 793.5,-56.5 738.5,-56.5"/>
<text text-anchor="middle" x="766" y="-63.5" font-family="Helvetica,sans-Serif" font-size="10.00">QVariant</text>
</g>
<!-- Node5&#45;&gt;Node8 -->
<g id="edge7" class="edge"><title>Node5&#45;&gt;Node8</title>
<path fill="none" stroke="midnightblue" d="M676.191,-112.324C693.351,-103.664 719.946,-90.2424 739.747,-80.249"/>
<polygon fill="midnightblue" stroke="midnightblue" points="741.501,-83.2847 748.851,-75.6545 738.347,-77.0354 741.501,-83.2847"/>
</g>
<!-- Node9 -->
<g id="node9" class="node"><title>Node9</title>
<polygon fill="white" stroke="#bfbfbf" points="773.5,-0.5 773.5,-19.5 838.5,-19.5 838.5,-0.5 773.5,-0.5"/>
<text text-anchor="middle" x="806" y="-7.5" font-family="Helvetica,sans-Serif" font-size="10.00">QDateTime</text>
</g>
<!-- Node5&#45;&gt;Node9 -->
<g id="edge8" class="edge"><title>Node5&#45;&gt;Node9</title>
<path fill="none" stroke="midnightblue" d="M716.547,-117.957C746.841,-113.137 781.798,-101.832 802,-76 812.112,-63.0695 812.041,-43.8988 810.084,-29.725"/>
<polygon fill="midnightblue" stroke="midnightblue" points="813.486,-28.8657 808.27,-19.6439 806.597,-30.1058 813.486,-28.8657"/>
</g>
<!-- Node10 -->
<g id="node10" class="node"><title>Node10</title>
<g id="a_node10"><a xlink:href="../../d7/d62/clslog_8h.html" target="_top" xlink:title="clslog.h">
<polygon fill="white" stroke="black" points="599,-56.5 599,-75.5 649,-75.5 649,-56.5 599,-56.5"/>
<text text-anchor="middle" x="624" y="-63.5" font-family="Helvetica,sans-Serif" font-size="10.00">clslog.h</text>
</a>
</g>
</g>
<!-- Node5&#45;&gt;Node10 -->
<g id="edge9" class="edge"><title>Node5&#45;&gt;Node10</title>
<path fill="none" stroke="midnightblue" d="M653.22,-112.083C648.328,-104.534 641.173,-93.4948 635.167,-84.2298"/>
<polygon fill="midnightblue" stroke="midnightblue" points="638.048,-82.239 629.672,-75.7511 632.174,-86.0463 638.048,-82.239"/>
</g>
<!-- Node11 -->
<g id="node11" class="node"><title>Node11</title>
<polygon fill="white" stroke="#bfbfbf" points="613,-0.5 613,-19.5 665,-19.5 665,-0.5 613,-0.5"/>
<text text-anchor="middle" x="639" y="-7.5" font-family="Helvetica,sans-Serif" font-size="10.00">QDebug</text>
</g>
<!-- Node10&#45;&gt;Node11 -->
<g id="edge10" class="edge"><title>Node10&#45;&gt;Node11</title>
<path fill="none" stroke="midnightblue" d="M626.477,-56.083C628.486,-48.8486 631.386,-38.4087 633.89,-29.3968"/>
<polygon fill="midnightblue" stroke="midnightblue" points="637.265,-30.323 636.569,-19.7511 630.52,-28.4495 637.265,-30.323"/>
</g>
<!-- Node10&#45;&gt;Node9 -->
<g id="edge11" class="edge"><title>Node10&#45;&gt;Node9</title>
<path fill="none" stroke="midnightblue" d="M649.306,-57.4915C679.887,-48.4181 731.662,-33.0564 767.274,-22.49"/>
<polygon fill="midnightblue" stroke="midnightblue" points="768.721,-25.7117 777.312,-19.5118 766.73,-19.0009 768.721,-25.7117"/>
</g>
<!-- Node12 -->
<g id="node12" class="node"><title>Node12</title>
<polygon fill="white" stroke="#bfbfbf" points="683.5,-0.5 683.5,-19.5 724.5,-19.5 724.5,-0.5 683.5,-0.5"/>
<text text-anchor="middle" x="704" y="-7.5" font-family="Helvetica,sans-Serif" font-size="10.00">string</text>
</g>
<!-- Node10&#45;&gt;Node12 -->
<g id="edge12" class="edge"><title>Node10&#45;&gt;Node12</title>
<path fill="none" stroke="midnightblue" d="M636.853,-56.324C649.216,-47.979 668.13,-35.2122 682.737,-25.3524"/>
<polygon fill="midnightblue" stroke="midnightblue" points="684.848,-28.1503 691.179,-19.6545 680.932,-22.3483 684.848,-28.1503"/>
</g>
<!-- Node13 -->
<g id="node13" class="node"><title>Node13</title>
<polygon fill="white" stroke="#bfbfbf" points="457,-0.5 457,-19.5 511,-19.5 511,-0.5 457,-0.5"/>
<text text-anchor="middle" x="484" y="-7.5" font-family="Helvetica,sans-Serif" font-size="10.00">iostream</text>
</g>
<!-- Node10&#45;&gt;Node13 -->
<g id="edge13" class="edge"><title>Node10&#45;&gt;Node13</title>
<path fill="none" stroke="midnightblue" d="M601.817,-56.4435C578.572,-47.4776 541.851,-33.314 515.585,-23.1827"/>
<polygon fill="midnightblue" stroke="midnightblue" points="516.669,-19.8497 506.08,-19.5164 514.15,-26.3807 516.669,-19.8497"/>
</g>
<!-- Node14 -->
<g id="node14" class="node"><title>Node14</title>
<polygon fill="white" stroke="#bfbfbf" points="529.5,-0.5 529.5,-19.5 594.5,-19.5 594.5,-0.5 529.5,-0.5"/>
<text text-anchor="middle" x="562" y="-7.5" font-family="Helvetica,sans-Serif" font-size="10.00">QStringList</text>
</g>
<!-- Node10&#45;&gt;Node14 -->
<g id="edge14" class="edge"><title>Node10&#45;&gt;Node14</title>
<path fill="none" stroke="midnightblue" d="M614.039,-56.324C604.873,-48.3414 591.063,-36.3128 579.972,-26.6529"/>
<polygon fill="midnightblue" stroke="midnightblue" points="581.982,-23.7624 572.143,-19.8339 577.385,-29.041 581.982,-23.7624"/>
</g>
<!-- Node15&#45;&gt;Node6 -->
<g id="edge16" class="edge"><title>Node15&#45;&gt;Node6</title>
<path fill="none" stroke="midnightblue" d="M498.271,-114.517C532.851,-106.28 594.566,-91.5203 657.212,-76.1769"/>
<polygon fill="midnightblue" stroke="midnightblue" points="658.392,-79.4914 667.27,-73.7103 656.724,-72.6929 658.392,-79.4914"/>
</g>
<!-- Node15&#45;&gt;Node7 -->
<g id="edge17" class="edge"><title>Node15&#45;&gt;Node7</title>
<path fill="none" stroke="midnightblue" d="M484.657,-112.324C497.916,-103.9 518.268,-90.9709 533.846,-81.0741"/>
<polygon fill="midnightblue" stroke="midnightblue" points="535.813,-83.9711 542.377,-75.6545 532.06,-78.0626 535.813,-83.9711"/>
</g>
<!-- Node16 -->
<g id="node16" class="node"><title>Node16</title>
<polygon fill="white" stroke="#bfbfbf" points="-0.5,-56.5 -0.5,-75.5 46.5,-75.5 46.5,-56.5 -0.5,-56.5"/>
<text text-anchor="middle" x="23" y="-63.5" font-family="Helvetica,sans-Serif" font-size="10.00">QColor</text>
</g>
<!-- Node15&#45;&gt;Node16 -->
<g id="edge18" class="edge"><title>Node15&#45;&gt;Node16</title>
<path fill="none" stroke="midnightblue" d="M443.966,-113.779C440.954,-113.112 437.921,-112.501 435,-112 271.408,-83.9451 224.242,-105.516 56.5833,-75.7719"/>
<polygon fill="midnightblue" stroke="midnightblue" points="57.1446,-72.3167 46.6813,-73.9809 55.8987,-79.2049 57.1446,-72.3167"/>
</g>
<!-- Node17 -->
<g id="node17" class="node"><title>Node17</title>
<polygon fill="white" stroke="#bfbfbf" points="65,-56.5 65,-75.5 149,-75.5 149,-56.5 65,-56.5"/>
<text text-anchor="middle" x="107" y="-63.5" font-family="Helvetica,sans-Serif" font-size="10.00">QGraphicsView</text>
</g>
<!-- Node15&#45;&gt;Node17 -->
<g id="edge19" class="edge"><title>Node15&#45;&gt;Node17</title>
<path fill="none" stroke="midnightblue" d="M443.947,-113.88C440.939,-113.195 437.912,-112.551 435,-112 316.237,-89.5153 282.482,-94.502 159.47,-76.1558"/>
<polygon fill="midnightblue" stroke="midnightblue" points="159.688,-72.6489 149.276,-74.613 158.64,-79.5701 159.688,-72.6489"/>
</g>
<!-- Node18 -->
<g id="node18" class="node"><title>Node18</title>
<polygon fill="white" stroke="#bfbfbf" points="167,-56.5 167,-75.5 297,-75.5 297,-56.5 167,-56.5"/>
<text text-anchor="middle" x="232" y="-63.5" font-family="Helvetica,sans-Serif" font-size="10.00">QNetworkAccessManager</text>
</g>
<!-- Node15&#45;&gt;Node18 -->
<g id="edge20" class="edge"><title>Node15&#45;&gt;Node18</title>
<path fill="none" stroke="midnightblue" d="M443.892,-114.14C440.895,-113.406 437.884,-112.68 435,-112 382.904,-99.7161 323.055,-86.5657 281.911,-77.6734"/>
<polygon fill="midnightblue" stroke="midnightblue" points="282.644,-74.2509 272.13,-75.5635 281.167,-81.0935 282.644,-74.2509"/>
</g>
<!-- Node19 -->
<g id="node19" class="node"><title>Node19</title>
<polygon fill="white" stroke="#bfbfbf" points="315.5,-56.5 315.5,-75.5 410.5,-75.5 410.5,-56.5 315.5,-56.5"/>
<text text-anchor="middle" x="363" y="-63.5" font-family="Helvetica,sans-Serif" font-size="10.00">QNetworkRequest</text>
</g>
<!-- Node15&#45;&gt;Node19 -->
<g id="edge21" class="edge"><title>Node15&#45;&gt;Node19</title>
<path fill="none" stroke="midnightblue" d="M453.648,-112.324C436.328,-103.664 409.485,-90.2424 389.498,-80.249"/>
<polygon fill="midnightblue" stroke="midnightblue" points="390.819,-76.9962 380.309,-75.6545 387.688,-83.2572 390.819,-76.9962"/>
</g>
<!-- Node20 -->
<g id="node20" class="node"><title>Node20</title>
<polygon fill="white" stroke="#bfbfbf" points="429,-56.5 429,-75.5 513,-75.5 513,-56.5 429,-56.5"/>
<text text-anchor="middle" x="471" y="-63.5" font-family="Helvetica,sans-Serif" font-size="10.00">QNetworkReply</text>
</g>
<!-- Node15&#45;&gt;Node20 -->
<g id="edge22" class="edge"><title>Node15&#45;&gt;Node20</title>
<path fill="none" stroke="midnightblue" d="M471,-112.083C471,-105.006 471,-94.8611 471,-85.9865"/>
<polygon fill="midnightblue" stroke="midnightblue" points="474.5,-85.751 471,-75.7511 467.5,-85.7511 474.5,-85.751"/>
</g>
<!-- Node15&#45;&gt;Node10 -->
<g id="edge23" class="edge"><title>Node15&#45;&gt;Node10</title>
<path fill="none" stroke="midnightblue" d="M495.243,-112.444C520.871,-103.399 561.485,-89.064 590.238,-78.9158"/>
<polygon fill="midnightblue" stroke="midnightblue" points="591.605,-82.1452 599.87,-75.5164 589.275,-75.5442 591.605,-82.1452"/>
</g>
<!-- Node22 -->
<g id="node22" class="node"><title>Node22</title>
<polygon fill="white" stroke="#bfbfbf" points="374,-112.5 374,-131.5 426,-131.5 426,-112.5 374,-112.5"/>
<text text-anchor="middle" x="400" y="-119.5" font-family="Helvetica,sans-Serif" font-size="10.00">QFrame</text>
</g>
<!-- Node21&#45;&gt;Node22 -->
<g id="edge25" class="edge"><title>Node21&#45;&gt;Node22</title>
<path fill="none" stroke="midnightblue" d="M401.67,-168.083C401.408,-161.006 401.032,-150.861 400.703,-141.986"/>
<polygon fill="midnightblue" stroke="midnightblue" points="404.192,-141.615 400.324,-131.751 397.197,-141.874 404.192,-141.615"/>
</g>
<!-- Node23 -->
<g id="node23" class="node"><title>Node23</title>
<polygon fill="white" stroke="#bfbfbf" points="308.5,-112.5 308.5,-131.5 355.5,-131.5 355.5,-112.5 308.5,-112.5"/>
<text text-anchor="middle" x="332" y="-119.5" font-family="Helvetica,sans-Serif" font-size="10.00">QLabel</text>
</g>
<!-- Node21&#45;&gt;Node23 -->
<g id="edge26" class="edge"><title>Node21&#45;&gt;Node23</title>
<path fill="none" stroke="midnightblue" d="M390.753,-168.324C380.203,-160.185 364.199,-147.839 351.558,-138.087"/>
<polygon fill="midnightblue" stroke="midnightblue" points="353.507,-135.171 343.451,-131.834 349.231,-140.713 353.507,-135.171"/>
</g>
<!-- Node21&#45;&gt;Node4 -->
<g id="edge27" class="edge"><title>Node21&#45;&gt;Node4</title>
<path fill="none" stroke="midnightblue" d="M380.767,-168.444C358.616,-159.517 323.681,-145.439 298.564,-135.317"/>
<polygon fill="midnightblue" stroke="midnightblue" points="299.717,-132.008 289.133,-131.516 297.1,-138.501 299.717,-132.008"/>
</g>
<!-- Node21&#45;&gt;Node15 -->
<g id="edge28" class="edge"><title>Node21&#45;&gt;Node15</title>
<path fill="none" stroke="midnightblue" d="M413.086,-168.324C423.486,-160.185 439.261,-147.839 451.722,-138.087"/>
<polygon fill="midnightblue" stroke="midnightblue" points="453.994,-140.753 459.712,-131.834 449.68,-135.241 453.994,-140.753"/>
</g>
<!-- Node24&#45;&gt;Node2 -->
<g id="edge30" class="edge"><title>Node24&#45;&gt;Node2</title>
<path fill="none" stroke="midnightblue" d="M256.753,-168.324C246.203,-160.185 230.199,-147.839 217.558,-138.087"/>
<polygon fill="midnightblue" stroke="midnightblue" points="219.507,-135.171 209.451,-131.834 215.231,-140.713 219.507,-135.171"/>
</g>
<!-- Node24&#45;&gt;Node23 -->
<g id="edge31" class="edge"><title>Node24&#45;&gt;Node23</title>
<path fill="none" stroke="midnightblue" d="M278.283,-168.324C287.836,-160.263 302.28,-148.077 313.784,-138.369"/>
<polygon fill="midnightblue" stroke="midnightblue" points="316.144,-140.958 321.53,-131.834 311.63,-135.608 316.144,-140.958"/>
</g>
<!-- Node24&#45;&gt;Node4 -->
<g id="edge32" class="edge"><title>Node24&#45;&gt;Node4</title>
<path fill="none" stroke="midnightblue" d="M268,-168.083C268,-161.006 268,-150.861 268,-141.986"/>
<polygon fill="midnightblue" stroke="midnightblue" points="271.5,-141.751 268,-131.751 264.5,-141.751 271.5,-141.751"/>
</g>
</g>
</svg>
        <g id="navigator" transform="translate(0 0)" fill="#404254">
                <rect fill="#f2f5e9" fill-opacity="0.5" stroke="#606060" stroke-width=".5" x="0" y="0" width="60" height="60"/>
                <use id="zoomplus" xlink:href="#zoomPlus" x="17" y="9" onmousedown="handleZoom(evt,'in')"/>
                <use id="zoomminus" xlink:href="#zoomMin" x="42" y="9" onmousedown="handleZoom(evt,'out')"/>
                <use id="reset" xlink:href="#resetDef" x="30" y="36" onmousedown="handleReset()"/>
                <g id="arrowUp" xlink:href="#dirArrow" transform="translate(30 24)" onmousedown="handlePan(0,-1)">
                  <use xlink:href="#rim" fill="#404040">
                        <set attributeName="fill" to="#808080" begin="arrowUp.mouseover" end="arrowUp.mouseout"/>
                  </use>
                  <path fill="none" stroke="white" stroke-width="1.5" d="M0,-3.0v7 M-2.5,-0.5L0,-3.0L2.5,-0.5"/>
                </g>
                <g id="arrowRight" xlink:href="#dirArrow" transform="rotate(90) translate(36 -43)" onmousedown="handlePan(1,0)">
                  <use xlink:href="#rim" fill="#404040">
                        <set attributeName="fill" to="#808080" begin="arrowRight.mouseover" end="arrowRight.mouseout"/>
                  </use>
                  <path fill="none" stroke="white" stroke-width="1.5" d="M0,-3.0v7 M-2.5,-0.5L0,-3.0L2.5,-0.5"/>
                </g>
                <g id="arrowDown" xlink:href="#dirArrow" transform="rotate(180) translate(-30 -48)" onmousedown="handlePan(0,1)">
                  <use xlink:href="#rim" fill="#404040">
                        <set attributeName="fill" to="#808080" begin="arrowDown.mouseover" end="arrowDown.mouseout"/>
                  </use>
                  <path fill="none" stroke="white" stroke-width="1.5" d="M0,-3.0v7 M-2.5,-0.5L0,-3.0L2.5,-0.5"/>
                </g>
                <g id="arrowLeft" xlink:href="#dirArrow" transform="rotate(270) translate(-36 17)" onmousedown="handlePan(-1,0)">
                  <use xlink:href="#rim" fill="#404040">
                        <set attributeName="fill" to="#808080" begin="arrowLeft.mouseover" end="arrowLeft.mouseout"/>
                  </use>
                  <path fill="none" stroke="white" stroke-width="1.5" d="M0,-3.0v7 M-2.5,-0.5L0,-3.0L2.5,-0.5"/>
                </g>
        </g>
        <svg viewBox="0 0 15 15" width="100%" height="30px" preserveAspectRatio="xMaxYMin meet">
         <g id="arrow_out" transform="scale(0.3 0.3)">
          <a xlink:href="chatbox_8h__incl_org.svg" target="_base">
           <rect id="button" ry="5" rx="5" y="6" x="6" height="38" width="38"
                fill="#f2f5e9" fill-opacity="0.5" stroke="#606060" stroke-width="1.0"/>
           <path id="arrow"
             d="M 11.500037,31.436501 C 11.940474,20.09759 22.043105,11.32322 32.158766,21.979434 L 37.068811,17.246167 C 37.068811,17.246167 37.088388,32 37.088388,32 L 22.160133,31.978069 C 22.160133,31.978069 26.997745,27.140456 26.997745,27.140456 C 18.528582,18.264221 13.291696,25.230495 11.500037,31.436501 z"
             style="fill:#404040;"/>
          </a>
         </g>
        </svg>
</svg>
