<?xml version="1.0" encoding="UTF-8" standalone="no"?>
<!DOCTYPE svg PUBLIC "-//W3C//DTD SVG 1.1//EN"
 "http://www.w3.org/Graphics/SVG/1.1/DTD/svg11.dtd">
<!-- Generated by graphviz version 2.30.1 (20130303.0817)
 -->
<!-- Title: K4U::clsLog::getTag Pages: 1 -->
<svg width="564pt" height="66pt"
 viewBox="0.00 0.00 564.00 66.00" xmlns="http://www.w3.org/2000/svg" xmlns:xlink="http://www.w3.org/1999/xlink">
<g id="graph0" class="graph" transform="scale(1 1) rotate(0) translate(4 62)">
<title>K4U::clsLog::getTag</title>
<polygon fill="white" stroke="white" points="-4,5 -4,-62 561,-62 561,5 -4,5"/>
<!-- Node1 -->
<g id="node1" class="node"><title>Node1</title>
<polygon fill="#bfbfbf" stroke="black" points="0,-19.5 0,-38.5 104,-38.5 104,-19.5 0,-19.5"/>
<text text-anchor="middle" x="52" y="-26.5" font-family="Helvetica,sans-Serif" font-size="10.00">K4U::clsLog::getTag</text>
</g>
<!-- Node2 -->
<g id="node2" class="node"><title>Node2</title>
<g id="a_node2"><a xlink:href="../../da/d64/class_k4_u_1_1cls_log.html#add7e9e8581a8d558c15c5f194dea4e5a" target="_top" xlink:title="K4U::clsLog::prefix">
<polygon fill="white" stroke="black" points="140.5,-19.5 140.5,-38.5 239.5,-38.5 239.5,-19.5 140.5,-19.5"/>
<text text-anchor="middle" x="190" y="-26.5" font-family="Helvetica,sans-Serif" font-size="10.00">K4U::clsLog::prefix</text>
</a>
</g>
</g>
<!-- Node1&#45;&gt;Node2 -->
<g id="edge1" class="edge"><title>Node1&#45;&gt;Node2</title>
<path fill="none" stroke="midnightblue" d="M114.217,-29C122.986,-29 131.907,-29 140.388,-29"/>
<polygon fill="midnightblue" stroke="midnightblue" points="114.028,-25.5001 104.028,-29 114.028,-32.5001 114.028,-25.5001"/>
</g>
<!-- Node3 -->
<g id="node3" class="node"><title>Node3</title>
<g id="a_node3"><a xlink:href="../../da/d64/class_k4_u_1_1cls_log.html#acce6f46545b0de7dcc21b69dda54b246" target="_top" xlink:title="Sets a custom prefix, used for when more than one object uses the same log tag.">
<polygon fill="white" stroke="black" points="281,-38.5 281,-57.5 395,-57.5 395,-38.5 281,-38.5"/>
<text text-anchor="middle" x="338" y="-45.5" font-family="Helvetica,sans-Serif" font-size="10.00">K4U::clsLog::setPrefix</text>
</a>
</g>
</g>
<!-- Node2&#45;&gt;Node3 -->
<g id="edge2" class="edge"><title>Node2&#45;&gt;Node3</title>
<path fill="none" stroke="midnightblue" d="M249.701,-36.6392C259.949,-37.9728 270.587,-39.3573 280.766,-40.6819"/>
<polygon fill="midnightblue" stroke="midnightblue" points="249.984,-33.1466 239.616,-35.3267 249.081,-40.088 249.984,-33.1466"/>
</g>
<!-- Node5 -->
<g id="node5" class="node"><title>Node5</title>
<g id="a_node5"><a xlink:href="../../da/d64/class_k4_u_1_1cls_log.html#a6fb4b7a4e52a6b113268421e03fc389e" target="_top" xlink:title="K4U::clsLog::operator\&lt;\&lt;">
<polygon fill="white" stroke="black" points="276.5,-0.5 276.5,-19.5 399.5,-19.5 399.5,-0.5 276.5,-0.5"/>
<text text-anchor="middle" x="338" y="-7.5" font-family="Helvetica,sans-Serif" font-size="10.00">K4U::clsLog::operator&lt;&lt;</text>
</a>
</g>
</g>
<!-- Node2&#45;&gt;Node5 -->
<g id="edge4" class="edge"><title>Node2&#45;&gt;Node5</title>
<path fill="none" stroke="midnightblue" d="M249.75,-21.3545C258.521,-20.213 267.578,-19.0343 276.388,-17.8879"/>
<polygon fill="midnightblue" stroke="midnightblue" points="249.081,-17.912 239.616,-22.6733 249.984,-24.8534 249.081,-17.912"/>
</g>
<!-- Node4 -->
<g id="node4" class="node"><title>Node4</title>
<g id="a_node4"><a xlink:href="../../dc/d4d/classserver_1_1ui_client.html#a215d811cbfada73ff8344ed7e5664113" target="_top" xlink:title="uiClient constructor">
<polygon fill="white" stroke="black" points="436.5,-38.5 436.5,-57.5 555.5,-57.5 555.5,-38.5 436.5,-38.5"/>
<text text-anchor="middle" x="496" y="-45.5" font-family="Helvetica,sans-Serif" font-size="10.00">server::uiClient::uiClient</text>
</a>
</g>
</g>
<!-- Node3&#45;&gt;Node4 -->
<g id="edge3" class="edge"><title>Node3&#45;&gt;Node4</title>
<path fill="none" stroke="midnightblue" d="M405.48,-48C415.758,-48 426.309,-48 436.398,-48"/>
<polygon fill="midnightblue" stroke="midnightblue" points="405.32,-44.5001 395.32,-48 405.32,-51.5001 405.32,-44.5001"/>
</g>
</g>
</svg>
