<?xml version="1.0" encoding="UTF-8" standalone="no"?>
<!DOCTYPE svg PUBLIC "-//W3C//DTD SVG 1.1//EN"
 "http://www.w3.org/Graphics/SVG/1.1/DTD/svg11.dtd">
<!-- Generated by graphviz version 2.30.1 (20130303.0817)
 -->
<!-- Title: K4U::clsLog::setPrefix Pages: 1 -->
<svg width="398pt" height="28pt"
 viewBox="0.00 0.00 398.00 28.00" xmlns="http://www.w3.org/2000/svg" xmlns:xlink="http://www.w3.org/1999/xlink">
<g id="graph0" class="graph" transform="scale(1 1) rotate(0) translate(4 24)">
<title>K4U::clsLog::setPrefix</title>
<polygon fill="white" stroke="white" points="-4,5 -4,-24 395,-24 395,5 -4,5"/>
<!-- Node1 -->
<g id="node1" class="node"><title>Node1</title>
<polygon fill="#bfbfbf" stroke="black" points="0,-0.5 0,-19.5 114,-19.5 114,-0.5 0,-0.5"/>
<text text-anchor="middle" x="57" y="-7.5" font-family="Helvetica,sans-Serif" font-size="10.00">K4U::clsLog::setPrefix</text>
</g>
<!-- Node2 -->
<g id="node2" class="node"><title>Node2</title>
<g id="a_node2"><a xlink:href="../../da/d64/class_k4_u_1_1cls_log.html#add7e9e8581a8d558c15c5f194dea4e5a" target="_top" xlink:title="K4U::clsLog::prefix">
<polygon fill="white" stroke="black" points="150.5,-0.5 150.5,-19.5 249.5,-19.5 249.5,-0.5 150.5,-0.5"/>
<text text-anchor="middle" x="200" y="-7.5" font-family="Helvetica,sans-Serif" font-size="10.00">K4U::clsLog::prefix</text>
</a>
</g>
</g>
<!-- Node1&#45;&gt;Node2 -->
<g id="edge1" class="edge"><title>Node1&#45;&gt;Node2</title>
<path fill="none" stroke="midnightblue" d="M114.132,-10C122.743,-10 131.653,-10 140.317,-10"/>
<polygon fill="midnightblue" stroke="midnightblue" points="140.343,-13.5001 150.343,-10 140.343,-6.5001 140.343,-13.5001"/>
</g>
<!-- Node3 -->
<g id="node3" class="node"><title>Node3</title>
<g id="a_node3"><a xlink:href="../../da/d64/class_k4_u_1_1cls_log.html#ad71c460835263e52b7c3d24063fa4ea0" target="_top" xlink:title="K4U::clsLog::getTag">
<polygon fill="white" stroke="black" points="286,-0.5 286,-19.5 390,-19.5 390,-0.5 286,-0.5"/>
<text text-anchor="middle" x="338" y="-7.5" font-family="Helvetica,sans-Serif" font-size="10.00">K4U::clsLog::getTag</text>
</a>
</g>
</g>
<!-- Node2&#45;&gt;Node3 -->
<g id="edge2" class="edge"><title>Node2&#45;&gt;Node3</title>
<path fill="none" stroke="midnightblue" d="M249.715,-10C258.151,-10 267.02,-10 275.738,-10"/>
<polygon fill="midnightblue" stroke="midnightblue" points="275.87,-13.5001 285.87,-10 275.87,-6.5001 275.87,-13.5001"/>
</g>
</g>
</svg>
