<?xml version="1.0" encoding="UTF-8" standalone="no"?>
<!DOCTYPE svg PUBLIC "-//W3C//DTD SVG 1.1//EN"
 "http://www.w3.org/Graphics/SVG/1.1/DTD/svg11.dtd">
<!-- Generated by graphviz version 2.30.1 (20130303.0817)
 -->
<!-- Title: K4U::clsLog::prefix Pages: 1 -->
<svg width="424pt" height="66pt"
 viewBox="0.00 0.00 424.00 66.00" xmlns="http://www.w3.org/2000/svg" xmlns:xlink="http://www.w3.org/1999/xlink">
<g id="graph0" class="graph" transform="scale(1 1) rotate(0) translate(4 62)">
<title>K4U::clsLog::prefix</title>
<polygon fill="white" stroke="white" points="-4,5 -4,-62 421,-62 421,5 -4,5"/>
<!-- Node1 -->
<g id="node1" class="node"><title>Node1</title>
<polygon fill="#bfbfbf" stroke="black" points="0.5,-19.5 0.5,-38.5 99.5,-38.5 99.5,-19.5 0.5,-19.5"/>
<text text-anchor="middle" x="50" y="-26.5" font-family="Helvetica,sans-Serif" font-size="10.00">K4U::clsLog::prefix</text>
</g>
<!-- Node2 -->
<g id="node2" class="node"><title>Node2</title>
<g id="a_node2"><a xlink:href="../../da/d64/class_k4_u_1_1cls_log.html#acce6f46545b0de7dcc21b69dda54b246" target="_top" xlink:title="Sets a custom prefix, used for when more than one object uses the same log tag.">
<polygon fill="white" stroke="black" points="141,-38.5 141,-57.5 255,-57.5 255,-38.5 141,-38.5"/>
<text text-anchor="middle" x="198" y="-45.5" font-family="Helvetica,sans-Serif" font-size="10.00">K4U::clsLog::setPrefix</text>
</a>
</g>
</g>
<!-- Node1&#45;&gt;Node2 -->
<g id="edge1" class="edge"><title>Node1&#45;&gt;Node2</title>
<path fill="none" stroke="midnightblue" d="M109.701,-36.6392C119.949,-37.9728 130.587,-39.3573 140.766,-40.6819"/>
<polygon fill="midnightblue" stroke="midnightblue" points="109.984,-33.1466 99.6159,-35.3267 109.081,-40.088 109.984,-33.1466"/>
</g>
<!-- Node4 -->
<g id="node4" class="node"><title>Node4</title>
<g id="a_node4"><a xlink:href="../../da/d64/class_k4_u_1_1cls_log.html#a6fb4b7a4e52a6b113268421e03fc389e" target="_top" xlink:title="K4U::clsLog::operator\&lt;\&lt;">
<polygon fill="white" stroke="black" points="136.5,-0.5 136.5,-19.5 259.5,-19.5 259.5,-0.5 136.5,-0.5"/>
<text text-anchor="middle" x="198" y="-7.5" font-family="Helvetica,sans-Serif" font-size="10.00">K4U::clsLog::operator&lt;&lt;</text>
</a>
</g>
</g>
<!-- Node1&#45;&gt;Node4 -->
<g id="edge3" class="edge"><title>Node1&#45;&gt;Node4</title>
<path fill="none" stroke="midnightblue" d="M109.75,-21.3545C118.521,-20.213 127.578,-19.0343 136.388,-17.8879"/>
<polygon fill="midnightblue" stroke="midnightblue" points="109.081,-17.912 99.6159,-22.6733 109.984,-24.8534 109.081,-17.912"/>
</g>
<!-- Node3 -->
<g id="node3" class="node"><title>Node3</title>
<g id="a_node3"><a xlink:href="../../dc/d4d/classserver_1_1ui_client.html#a215d811cbfada73ff8344ed7e5664113" target="_top" xlink:title="uiClient constructor">
<polygon fill="white" stroke="black" points="296.5,-38.5 296.5,-57.5 415.5,-57.5 415.5,-38.5 296.5,-38.5"/>
<text text-anchor="middle" x="356" y="-45.5" font-family="Helvetica,sans-Serif" font-size="10.00">server::uiClient::uiClient</text>
</a>
</g>
</g>
<!-- Node2&#45;&gt;Node3 -->
<g id="edge2" class="edge"><title>Node2&#45;&gt;Node3</title>
<path fill="none" stroke="midnightblue" d="M265.48,-48C275.758,-48 286.309,-48 296.398,-48"/>
<polygon fill="midnightblue" stroke="midnightblue" points="265.32,-44.5001 255.32,-48 265.32,-51.5001 265.32,-44.5001"/>
</g>
</g>
</svg>
