<?xml version="1.0" encoding="UTF-8" standalone="no"?>
<!DOCTYPE svg PUBLIC "-//W3C//DTD SVG 1.1//EN"
 "http://www.w3.org/Graphics/SVG/1.1/DTD/svg11.dtd">
<!-- Generated by graphviz version 2.30.1 (20130303.0817)
 -->
<!-- Title: C++/resources/json.h Pages: 1 -->
<!--zoomable 356 -->
<svg id="main" version="1.1" xmlns="http://www.w3.org/2000/svg" xmlns:xlink="http://www.w3.org/1999/xlink" xml:space="preserve" onload="init(evt)">
        <defs>
                <circle id="rim" cx="0" cy="0" r="7"/>
                <circle id="rim2" cx="0" cy="0" r="3.5"/>
                <g id="zoomPlus">
                        <use xlink:href="#rim" fill="#404040">
                                <set attributeName="fill" to="#808080" begin="zoomplus.mouseover" end="zoomplus.mouseout"/>
                        </use>
                        <path d="M-4,0h8M0,-4v8" fill="none" stroke="white" stroke-width="1.5" pointer-events="none"/>
                </g>
                <g id="zoomMin">
                        <use xlink:href="#rim" fill="#404040">
                                <set attributeName="fill" to="#808080" begin="zoomminus.mouseover" end="zoomminus.mouseout"/>
                        </use>
                        <path d="M-4,0h8" fill="none" stroke="white" stroke-width="1.5" pointer-events="none"/>
                </g>
                <g id="dirArrow">
                        <path fill="none" stroke="white" stroke-width="1.5" d="M0,-3.0v7 M-2.5,-0.5L0,-3.0L2.5,-0.5"/>
                </g>
               <g id="resetDef">
                       <use xlink:href="#rim2" fill="#404040">
                               <set attributeName="fill" to="#808080" begin="reset.mouseover" end="reset.mouseout"/>
                       </use>
               </g>
        </defs>

<script type="text/javascript">
var viewWidth = 705;
var viewHeight = 356;
var sectionId = 'dynsection-1';
</script>
<script xlink:href="../../svgpan.js"/>
<svg id="graph" class="graph">
<g id="viewport">
<title>C++/resources/json.h</title>
<polygon fill="white" stroke="white" points="-4,5 -4,-352 702,-352 702,5 -4,5"/>
<!-- Node1 -->
<g id="node1" class="node"><title>Node1</title>
<polygon fill="#bfbfbf" stroke="black" points="320,-328.5 320,-347.5 430,-347.5 430,-328.5 320,-328.5"/>
<text text-anchor="middle" x="375" y="-335.5" font-family="Helvetica,sans-Serif" font-size="10.00">C++/resources/json.h</text>
</g>
<!-- Node2 -->
<g id="node2" class="node"><title>Node2</title>
<g id="a_node2"><a xlink:href="../../dc/d96/jsoncommand_8h.html" target="_top" xlink:title="C++/resources/jsoncommand.h">
<polygon fill="white" stroke="black" points="298.5,-272.5 298.5,-291.5 451.5,-291.5 451.5,-272.5 298.5,-272.5"/>
<text text-anchor="middle" x="375" y="-279.5" font-family="Helvetica,sans-Serif" font-size="10.00">C++/resources/jsoncommand.h</text>
</a>
</g>
</g>
<!-- Node1&#45;&gt;Node2 -->
<g id="edge1" class="edge"><title>Node1&#45;&gt;Node2</title>
<path fill="none" stroke="midnightblue" d="M375,-317.805C375,-308.91 375,-298.78 375,-291.751"/>
<polygon fill="midnightblue" stroke="midnightblue" points="371.5,-318.083 375,-328.083 378.5,-318.083 371.5,-318.083"/>
</g>
<!-- Node3 -->
<g id="node3" class="node"><title>Node3</title>
<g id="a_node3"><a xlink:href="../../d5/dbc/clsserverconn_8h.html" target="_top" xlink:title="C++/customIrcClient\l/clsserverconn.h">
<polygon fill="white" stroke="black" points="207,-205 207,-235 313,-235 313,-205 207,-205"/>
<text text-anchor="start" x="215" y="-223" font-family="Helvetica,sans-Serif" font-size="10.00">C++/customIrcClient</text>
<text text-anchor="middle" x="260" y="-212" font-family="Helvetica,sans-Serif" font-size="10.00">/clsserverconn.h</text>
</a>
</g>
</g>
<!-- Node1&#45;&gt;Node3 -->
<g id="edge18" class="edge"><title>Node1&#45;&gt;Node3</title>
<path fill="none" stroke="midnightblue" d="M338.219,-324.51C321.382,-317.241 302.272,-306.587 289,-292 274.125,-275.652 266.347,-250.652 262.717,-235.094"/>
<polygon fill="midnightblue" stroke="midnightblue" points="337.227,-327.885 347.809,-328.403 339.86,-321.399 337.227,-327.885"/>
</g>
<!-- Node16 -->
<g id="node16" class="node"><title>Node16</title>
<g id="a_node16"><a xlink:href="../../dd/d55/json_8cpp.html" target="_top" xlink:title="C++/resources/json.cpp">
<polygon fill="white" stroke="black" points="469.5,-272.5 469.5,-291.5 590.5,-291.5 590.5,-272.5 469.5,-272.5"/>
<text text-anchor="middle" x="530" y="-279.5" font-family="Helvetica,sans-Serif" font-size="10.00">C++/resources/json.cpp</text>
</a>
</g>
</g>
<!-- Node1&#45;&gt;Node16 -->
<g id="edge19" class="edge"><title>Node1&#45;&gt;Node16</title>
<path fill="none" stroke="midnightblue" d="M409.332,-325.039C438.497,-314.879 479.637,-300.546 505.555,-291.516"/>
<polygon fill="midnightblue" stroke="midnightblue" points="407.852,-321.848 399.56,-328.444 410.155,-328.459 407.852,-321.848"/>
</g>
<!-- Node2&#45;&gt;Node3 -->
<g id="edge2" class="edge"><title>Node2&#45;&gt;Node3</title>
<path fill="none" stroke="midnightblue" d="M349.501,-267.696C330.987,-258.036 305.978,-244.989 287.103,-235.141"/>
<polygon fill="midnightblue" stroke="midnightblue" points="348.038,-270.881 358.523,-272.403 351.276,-264.675 348.038,-270.881"/>
</g>
<!-- Node4 -->
<g id="node4" class="node"><title>Node4</title>
<g id="a_node4"><a xlink:href="../../db/d1f/clsserverconn_8cpp.html" target="_top" xlink:title="C++/customIrcClient\l/clsserverconn.cpp">
<polygon fill="white" stroke="black" points="207,-137 207,-167 313,-167 313,-137 207,-137"/>
<text text-anchor="start" x="215" y="-155" font-family="Helvetica,sans-Serif" font-size="10.00">C++/customIrcClient</text>
<text text-anchor="middle" x="260" y="-144" font-family="Helvetica,sans-Serif" font-size="10.00">/clsserverconn.cpp</text>
</a>
</g>
</g>
<!-- Node2&#45;&gt;Node4 -->
<g id="edge7" class="edge"><title>Node2&#45;&gt;Node4</title>
<path fill="none" stroke="midnightblue" d="M364.545,-263.42C354.449,-247.149 338.197,-222.72 321,-204 308.393,-190.276 292.119,-176.844 279.551,-167.213"/>
<polygon fill="midnightblue" stroke="midnightblue" points="361.803,-265.647 369.99,-272.373 367.784,-262.01 361.803,-265.647"/>
</g>
<!-- Node8 -->
<g id="node8" class="node"><title>Node8</title>
<g id="a_node8"><a xlink:href="../../d1/de1/uiclient_8h.html" target="_top" xlink:title="C++/customIrcServer\l/uiclient.h">
<polygon fill="white" stroke="black" points="407,-205 407,-235 515,-235 515,-205 407,-205"/>
<text text-anchor="start" x="415" y="-223" font-family="Helvetica,sans-Serif" font-size="10.00">C++/customIrcServer</text>
<text text-anchor="middle" x="461" y="-212" font-family="Helvetica,sans-Serif" font-size="10.00">/uiclient.h</text>
</a>
</g>
</g>
<!-- Node2&#45;&gt;Node8 -->
<g id="edge8" class="edge"><title>Node2&#45;&gt;Node8</title>
<path fill="none" stroke="midnightblue" d="M395.613,-266.619C409.281,-257.083 427.134,-244.627 440.732,-235.141"/>
<polygon fill="midnightblue" stroke="midnightblue" points="393.52,-263.811 387.322,-272.403 397.526,-269.552 393.52,-263.811"/>
</g>
<!-- Node9 -->
<g id="node9" class="node"><title>Node9</title>
<g id="a_node9"><a xlink:href="../../d7/d1c/uiserver_8h.html" target="_top" xlink:title="C++/customIrcServer\l/uiserver.h">
<polygon fill="white" stroke="black" points="331,-137 331,-167 439,-167 439,-137 331,-137"/>
<text text-anchor="start" x="339" y="-155" font-family="Helvetica,sans-Serif" font-size="10.00">C++/customIrcServer</text>
<text text-anchor="middle" x="385" y="-144" font-family="Helvetica,sans-Serif" font-size="10.00">/uiserver.h</text>
</a>
</g>
</g>
<!-- Node2&#45;&gt;Node9 -->
<g id="edge16" class="edge"><title>Node2&#45;&gt;Node9</title>
<path fill="none" stroke="midnightblue" d="M376.471,-262.171C378.493,-236.287 382.086,-190.294 383.895,-167.143"/>
<polygon fill="midnightblue" stroke="midnightblue" points="372.977,-261.96 375.687,-272.202 379.956,-262.505 372.977,-261.96"/>
</g>
<!-- Node15 -->
<g id="node15" class="node"><title>Node15</title>
<g id="a_node15"><a xlink:href="../../d9/d73/jsoncommand_8cpp.html" target="_top" xlink:title="C++/resources/jsoncommand.cpp">
<polygon fill="white" stroke="black" points="533,-210.5 533,-229.5 697,-229.5 697,-210.5 533,-210.5"/>
<text text-anchor="middle" x="615" y="-217.5" font-family="Helvetica,sans-Serif" font-size="10.00">C++/resources/jsoncommand.cpp</text>
</a>
</g>
</g>
<!-- Node2&#45;&gt;Node15 -->
<g id="edge17" class="edge"><title>Node2&#45;&gt;Node15</title>
<path fill="none" stroke="midnightblue" d="M418.966,-270.008C465.664,-258.334 538.482,-240.129 580.986,-229.503"/>
<polygon fill="midnightblue" stroke="midnightblue" points="417.984,-266.646 409.131,-272.467 419.682,-273.437 417.984,-266.646"/>
</g>
<!-- Node3&#45;&gt;Node4 -->
<g id="edge3" class="edge"><title>Node3&#45;&gt;Node4</title>
<path fill="none" stroke="midnightblue" d="M260,-194.532C260,-185.361 260,-175.245 260,-167.293"/>
<polygon fill="midnightblue" stroke="midnightblue" points="256.5,-194.679 260,-204.679 263.5,-194.679 256.5,-194.679"/>
</g>
<!-- Node5 -->
<g id="node5" class="node"><title>Node5</title>
<g id="a_node5"><a xlink:href="../../d9/d53/mainwindow_8h.html" target="_top" xlink:title="C++/customIrcClient\l/mainwindow.h">
<polygon fill="white" stroke="black" points="83,-137 83,-167 189,-167 189,-137 83,-137"/>
<text text-anchor="start" x="91" y="-155" font-family="Helvetica,sans-Serif" font-size="10.00">C++/customIrcClient</text>
<text text-anchor="middle" x="136" y="-144" font-family="Helvetica,sans-Serif" font-size="10.00">/mainwindow.h</text>
</a>
</g>
</g>
<!-- Node3&#45;&gt;Node5 -->
<g id="edge4" class="edge"><title>Node3&#45;&gt;Node5</title>
<path fill="none" stroke="midnightblue" d="M224.406,-200.055C204.696,-189.564 180.609,-176.743 162.557,-167.135"/>
<polygon fill="midnightblue" stroke="midnightblue" points="222.927,-203.232 233.399,-204.841 226.216,-197.053 222.927,-203.232"/>
</g>
<!-- Node6 -->
<g id="node6" class="node"><title>Node6</title>
<g id="a_node6"><a xlink:href="../../df/d94/custom_irc_client_2main_8cpp.html" target="_top" xlink:title="C++/customIrcClient\l/main.cpp">
<polygon fill="white" stroke="black" points="-1,-69 -1,-99 105,-99 105,-69 -1,-69"/>
<text text-anchor="start" x="7" y="-87" font-family="Helvetica,sans-Serif" font-size="10.00">C++/customIrcClient</text>
<text text-anchor="middle" x="52" y="-76" font-family="Helvetica,sans-Serif" font-size="10.00">/main.cpp</text>
</a>
</g>
</g>
<!-- Node5&#45;&gt;Node6 -->
<g id="edge5" class="edge"><title>Node5&#45;&gt;Node6</title>
<path fill="none" stroke="midnightblue" d="M109.667,-130.309C96.7269,-120.143 81.4715,-108.156 69.9026,-99.0663"/>
<polygon fill="midnightblue" stroke="midnightblue" points="107.748,-133.253 117.773,-136.679 112.072,-127.749 107.748,-133.253"/>
</g>
<!-- Node7 -->
<g id="node7" class="node"><title>Node7</title>
<g id="a_node7"><a xlink:href="../../d8/dd9/mainwindow_8cpp.html" target="_top" xlink:title="C++/customIrcClient\l/mainwindow.cpp">
<polygon fill="white" stroke="black" points="123,-69 123,-99 229,-99 229,-69 123,-69"/>
<text text-anchor="start" x="131" y="-87" font-family="Helvetica,sans-Serif" font-size="10.00">C++/customIrcClient</text>
<text text-anchor="middle" x="176" y="-76" font-family="Helvetica,sans-Serif" font-size="10.00">/mainwindow.cpp</text>
</a>
</g>
</g>
<!-- Node5&#45;&gt;Node7 -->
<g id="edge6" class="edge"><title>Node5&#45;&gt;Node7</title>
<path fill="none" stroke="midnightblue" d="M149.928,-128.019C155.717,-118.467 162.256,-107.677 167.338,-99.2931"/>
<polygon fill="midnightblue" stroke="midnightblue" points="146.869,-126.313 144.679,-136.679 152.856,-129.941 146.869,-126.313"/>
</g>
<!-- Node8&#45;&gt;Node9 -->
<g id="edge9" class="edge"><title>Node8&#45;&gt;Node9</title>
<path fill="none" stroke="midnightblue" d="M436.839,-198.018C425.205,-187.915 411.565,-176.07 401.198,-167.066"/>
<polygon fill="midnightblue" stroke="midnightblue" points="434.664,-200.765 444.509,-204.679 439.254,-195.479 434.664,-200.765"/>
</g>
<!-- Node10 -->
<g id="node10" class="node"><title>Node10</title>
<g id="a_node10"><a xlink:href="../../db/df6/mainapp_8h.html" target="_top" xlink:title="C++/customIrcServer\l/mainapp.h">
<polygon fill="white" stroke="black" points="413,-69 413,-99 521,-99 521,-69 413,-69"/>
<text text-anchor="start" x="421" y="-87" font-family="Helvetica,sans-Serif" font-size="10.00">C++/customIrcServer</text>
<text text-anchor="middle" x="467" y="-76" font-family="Helvetica,sans-Serif" font-size="10.00">/mainapp.h</text>
</a>
</g>
</g>
<!-- Node8&#45;&gt;Node10 -->
<g id="edge14" class="edge"><title>Node8&#45;&gt;Node10</title>
<path fill="none" stroke="midnightblue" d="M462.096,-194.524C463.345,-166.619 465.346,-121.94 466.363,-99.2372"/>
<polygon fill="midnightblue" stroke="midnightblue" points="458.593,-194.513 461.642,-204.66 465.586,-194.826 458.593,-194.513"/>
</g>
<!-- Node14 -->
<g id="node14" class="node"><title>Node14</title>
<g id="a_node14"><a xlink:href="../../d2/d44/uiclient_8cpp.html" target="_top" xlink:title="C++/customIrcServer\l/uiclient.cpp">
<polygon fill="white" stroke="black" points="495,-137 495,-167 603,-167 603,-137 495,-137"/>
<text text-anchor="start" x="503" y="-155" font-family="Helvetica,sans-Serif" font-size="10.00">C++/customIrcServer</text>
<text text-anchor="middle" x="549" y="-144" font-family="Helvetica,sans-Serif" font-size="10.00">/uiclient.cpp</text>
</a>
</g>
</g>
<!-- Node8&#45;&gt;Node14 -->
<g id="edge15" class="edge"><title>Node8&#45;&gt;Node14</title>
<path fill="none" stroke="midnightblue" d="M488.201,-198.599C501.838,-188.371 518.01,-176.243 530.245,-167.066"/>
<polygon fill="midnightblue" stroke="midnightblue" points="485.995,-195.879 480.095,-204.679 490.195,-201.479 485.995,-195.879"/>
</g>
<!-- Node9&#45;&gt;Node10 -->
<g id="edge10" class="edge"><title>Node9&#45;&gt;Node10</title>
<path fill="none" stroke="midnightblue" d="M410.706,-130.309C423.338,-120.143 438.23,-108.156 449.524,-99.0663"/>
<polygon fill="midnightblue" stroke="midnightblue" points="408.388,-127.682 402.793,-136.679 412.777,-133.135 408.388,-127.682"/>
</g>
<!-- Node13 -->
<g id="node13" class="node"><title>Node13</title>
<g id="a_node13"><a xlink:href="../../df/db8/uiserver_8cpp.html" target="_top" xlink:title="C++/customIrcServer\l/uiserver.cpp">
<polygon fill="white" stroke="black" points="287,-69 287,-99 395,-99 395,-69 287,-69"/>
<text text-anchor="start" x="295" y="-87" font-family="Helvetica,sans-Serif" font-size="10.00">C++/customIrcServer</text>
<text text-anchor="middle" x="341" y="-76" font-family="Helvetica,sans-Serif" font-size="10.00">/uiserver.cpp</text>
</a>
</g>
</g>
<!-- Node9&#45;&gt;Node13 -->
<g id="edge13" class="edge"><title>Node9&#45;&gt;Node13</title>
<path fill="none" stroke="midnightblue" d="M369.876,-128.314C363.459,-118.689 356.176,-107.763 350.529,-99.2931"/>
<polygon fill="midnightblue" stroke="midnightblue" points="366.993,-130.3 375.453,-136.679 372.818,-126.417 366.993,-130.3"/>
</g>
<!-- Node11 -->
<g id="node11" class="node"><title>Node11</title>
<g id="a_node11"><a xlink:href="../../dc/d17/custom_irc_server_2main_8cpp.html" target="_top" xlink:title="C++/customIrcServer\l/main.cpp">
<polygon fill="white" stroke="black" points="350,-1 350,-31 458,-31 458,-1 350,-1"/>
<text text-anchor="start" x="358" y="-19" font-family="Helvetica,sans-Serif" font-size="10.00">C++/customIrcServer</text>
<text text-anchor="middle" x="404" y="-8" font-family="Helvetica,sans-Serif" font-size="10.00">/main.cpp</text>
</a>
</g>
</g>
<!-- Node10&#45;&gt;Node11 -->
<g id="edge11" class="edge"><title>Node10&#45;&gt;Node11</title>
<path fill="none" stroke="midnightblue" d="M446.185,-61.1939C436.799,-51.3605 425.976,-40.0228 417.643,-31.2931"/>
<polygon fill="midnightblue" stroke="midnightblue" points="443.893,-63.8621 453.33,-68.679 448.957,-59.0287 443.893,-63.8621"/>
</g>
<!-- Node12 -->
<g id="node12" class="node"><title>Node12</title>
<g id="a_node12"><a xlink:href="../../d8/d88/mainapp_8cpp.html" target="_top" xlink:title="C++/customIrcServer\l/mainapp.cpp">
<polygon fill="white" stroke="black" points="476,-1 476,-31 584,-31 584,-1 476,-1"/>
<text text-anchor="start" x="484" y="-19" font-family="Helvetica,sans-Serif" font-size="10.00">C++/customIrcServer</text>
<text text-anchor="middle" x="530" y="-8" font-family="Helvetica,sans-Serif" font-size="10.00">/mainapp.cpp</text>
</a>
</g>
</g>
<!-- Node10&#45;&gt;Node12 -->
<g id="edge12" class="edge"><title>Node10&#45;&gt;Node12</title>
<path fill="none" stroke="midnightblue" d="M487.815,-61.1939C497.201,-51.3605 508.024,-40.0228 516.357,-31.2931"/>
<polygon fill="midnightblue" stroke="midnightblue" points="485.043,-59.0287 480.67,-68.679 490.107,-63.8621 485.043,-59.0287"/>
</g>
</g>
</svg>
        <g id="navigator" transform="translate(0 0)" fill="#404254">
                <rect fill="#f2f5e9" fill-opacity="0.5" stroke="#606060" stroke-width=".5" x="0" y="0" width="60" height="60"/>
                <use id="zoomplus" xlink:href="#zoomPlus" x="17" y="9" onmousedown="handleZoom(evt,'in')"/>
                <use id="zoomminus" xlink:href="#zoomMin" x="42" y="9" onmousedown="handleZoom(evt,'out')"/>
                <use id="reset" xlink:href="#resetDef" x="30" y="36" onmousedown="handleReset()"/>
                <g id="arrowUp" xlink:href="#dirArrow" transform="translate(30 24)" onmousedown="handlePan(0,-1)">
                  <use xlink:href="#rim" fill="#404040">
                        <set attributeName="fill" to="#808080" begin="arrowUp.mouseover" end="arrowUp.mouseout"/>
                  </use>
                  <path fill="none" stroke="white" stroke-width="1.5" d="M0,-3.0v7 M-2.5,-0.5L0,-3.0L2.5,-0.5"/>
                </g>
                <g id="arrowRight" xlink:href="#dirArrow" transform="rotate(90) translate(36 -43)" onmousedown="handlePan(1,0)">
                  <use xlink:href="#rim" fill="#404040">
                        <set attributeName="fill" to="#808080" begin="arrowRight.mouseover" end="arrowRight.mouseout"/>
                  </use>
                  <path fill="none" stroke="white" stroke-width="1.5" d="M0,-3.0v7 M-2.5,-0.5L0,-3.0L2.5,-0.5"/>
                </g>
                <g id="arrowDown" xlink:href="#dirArrow" transform="rotate(180) translate(-30 -48)" onmousedown="handlePan(0,1)">
                  <use xlink:href="#rim" fill="#404040">
                        <set attributeName="fill" to="#808080" begin="arrowDown.mouseover" end="arrowDown.mouseout"/>
                  </use>
                  <path fill="none" stroke="white" stroke-width="1.5" d="M0,-3.0v7 M-2.5,-0.5L0,-3.0L2.5,-0.5"/>
                </g>
                <g id="arrowLeft" xlink:href="#dirArrow" transform="rotate(270) translate(-36 17)" onmousedown="handlePan(-1,0)">
                  <use xlink:href="#rim" fill="#404040">
                        <set attributeName="fill" to="#808080" begin="arrowLeft.mouseover" end="arrowLeft.mouseout"/>
                  </use>
                  <path fill="none" stroke="white" stroke-width="1.5" d="M0,-3.0v7 M-2.5,-0.5L0,-3.0L2.5,-0.5"/>
                </g>
        </g>
        <svg viewBox="0 0 15 15" width="100%" height="30px" preserveAspectRatio="xMaxYMin meet">
         <g id="arrow_out" transform="scale(0.3 0.3)">
          <a xlink:href="json_8h__dep__incl_org.svg" target="_base">
           <rect id="button" ry="5" rx="5" y="6" x="6" height="38" width="38"
                fill="#f2f5e9" fill-opacity="0.5" stroke="#606060" stroke-width="1.0"/>
           <path id="arrow"
             d="M 11.500037,31.436501 C 11.940474,20.09759 22.043105,11.32322 32.158766,21.979434 L 37.068811,17.246167 C 37.068811,17.246167 37.088388,32 37.088388,32 L 22.160133,31.978069 C 22.160133,31.978069 26.997745,27.140456 26.997745,27.140456 C 18.528582,18.264221 13.291696,25.230495 11.500037,31.436501 z"
             style="fill:#404040;"/>
          </a>
         </g>
        </svg>
</svg>
