<?xml version="1.0" encoding="UTF-8" standalone="no"?>
<!DOCTYPE svg PUBLIC "-//W3C//DTD SVG 1.1//EN"
 "http://www.w3.org/Graphics/SVG/1.1/DTD/svg11.dtd">
<!-- Generated by graphviz version 2.30.1 (20130303.0817)
 -->
<!-- Title: C++/customIrcClient/desktop/clsnotify.cpp Pages: 1 -->
<svg width="118pt" height="152pt"
 viewBox="0.00 0.00 118.00 152.00" xmlns="http://www.w3.org/2000/svg" xmlns:xlink="http://www.w3.org/1999/xlink">
<g id="graph0" class="graph" transform="scale(1 1) rotate(0) translate(4 148)">
<title>C++/customIrcClient/desktop/clsnotify.cpp</title>
<polygon fill="white" stroke="white" points="-4,5 -4,-148 115,-148 115,5 -4,5"/>
<!-- Node1 -->
<g id="node1" class="node"><title>Node1</title>
<polygon fill="#bfbfbf" stroke="black" points="-1,-113 -1,-143 111,-143 111,-113 -1,-113"/>
<text text-anchor="start" x="7" y="-131" font-family="Helvetica,sans-Serif" font-size="10.00">C++/customIrcClient</text>
<text text-anchor="middle" x="55" y="-120" font-family="Helvetica,sans-Serif" font-size="10.00">/desktop/clsnotify.cpp</text>
</g>
<!-- Node2 -->
<g id="node2" class="node"><title>Node2</title>
<g id="a_node2"><a xlink:href="../../d4/dfe/clsnotify_8h.xhtml" target="_top" xlink:title="clsnotify.h">
<polygon fill="white" stroke="black" points="24.5,-56.5 24.5,-75.5 85.5,-75.5 85.5,-56.5 24.5,-56.5"/>
<text text-anchor="middle" x="55" y="-63.5" font-family="Helvetica,sans-Serif" font-size="10.00">clsnotify.h</text>
</a>
</g>
</g>
<!-- Node1&#45;&gt;Node2 -->
<g id="edge1" class="edge"><title>Node1&#45;&gt;Node2</title>
<path fill="none" stroke="midnightblue" d="M55,-112.781C55,-104.781 55,-94.6887 55,-86.0168"/>
<polygon fill="midnightblue" stroke="midnightblue" points="58.5001,-85.7305 55,-75.7305 51.5001,-85.7306 58.5001,-85.7305"/>
</g>
<!-- Node3 -->
<g id="node3" class="node"><title>Node3</title>
<polygon fill="white" stroke="#bfbfbf" points="28.5,-0.5 28.5,-19.5 81.5,-19.5 81.5,-0.5 28.5,-0.5"/>
<text text-anchor="middle" x="55" y="-7.5" font-family="Helvetica,sans-Serif" font-size="10.00">QObject</text>
</g>
<!-- Node2&#45;&gt;Node3 -->
<g id="edge2" class="edge"><title>Node2&#45;&gt;Node3</title>
<path fill="none" stroke="midnightblue" d="M55,-56.083C55,-49.0059 55,-38.8611 55,-29.9865"/>
<polygon fill="midnightblue" stroke="midnightblue" points="58.5001,-29.751 55,-19.7511 51.5001,-29.7511 58.5001,-29.751"/>
</g>
</g>
</svg>
