<?xml version="1.0" encoding="UTF-8" standalone="no"?>
<!DOCTYPE svg PUBLIC "-//W3C//DTD SVG 1.1//EN"
 "http://www.w3.org/Graphics/SVG/1.1/DTD/svg11.dtd">
<!-- Generated by graphviz version 2.30.1 (20130303.0817)
 -->
<!-- Title: C++/customIrcServer/ircuser.h Pages: 1 -->
<svg width="428pt" height="244pt"
 viewBox="0.00 0.00 428.00 244.00" xmlns="http://www.w3.org/2000/svg" xmlns:xlink="http://www.w3.org/1999/xlink">
<g id="graph0" class="graph" transform="scale(1 1) rotate(0) translate(4 240)">
<title>C++/customIrcServer/ircuser.h</title>
<polygon fill="white" stroke="white" points="-4,5 -4,-240 425,-240 425,5 -4,5"/>
<!-- Node1 -->
<g id="node1" class="node"><title>Node1</title>
<polygon fill="#bfbfbf" stroke="black" points="145,-205 145,-235 253,-235 253,-205 145,-205"/>
<text text-anchor="start" x="153" y="-223" font-family="Helvetica,sans-Serif" font-size="10.00">C++/customIrcServer</text>
<text text-anchor="middle" x="199" y="-212" font-family="Helvetica,sans-Serif" font-size="10.00">/ircuser.h</text>
</g>
<!-- Node2 -->
<g id="node2" class="node"><title>Node2</title>
<g id="a_node2"><a xlink:href="../../d6/d0d/custom_irc_server_2clssettings_8h.xhtml" target="_top" xlink:title="C++/customIrcServer\l/clssettings.h">
<polygon fill="white" stroke="black" points="22,-137 22,-167 130,-167 130,-137 22,-137"/>
<text text-anchor="start" x="30" y="-155" font-family="Helvetica,sans-Serif" font-size="10.00">C++/customIrcServer</text>
<text text-anchor="middle" x="76" y="-144" font-family="Helvetica,sans-Serif" font-size="10.00">/clssettings.h</text>
</a>
</g>
</g>
<!-- Node1&#45;&gt;Node2 -->
<g id="edge1" class="edge"><title>Node1&#45;&gt;Node2</title>
<path fill="none" stroke="midnightblue" d="M163.693,-200.055C144.142,-189.564 120.249,-176.743 102.343,-167.135"/>
<polygon fill="midnightblue" stroke="midnightblue" points="162.147,-203.197 172.613,-204.841 165.457,-197.029 162.147,-203.197"/>
</g>
<!-- Node7 -->
<g id="node7" class="node"><title>Node7</title>
<g id="a_node7"><a xlink:href="../../d4/df9/ircclient_8h.xhtml" target="_top" xlink:title="C++/customIrcServer\l/ircclient.h">
<polygon fill="white" stroke="black" points="312,-137 312,-167 420,-167 420,-137 312,-137"/>
<text text-anchor="start" x="320" y="-155" font-family="Helvetica,sans-Serif" font-size="10.00">C++/customIrcServer</text>
<text text-anchor="middle" x="366" y="-144" font-family="Helvetica,sans-Serif" font-size="10.00">/ircclient.h</text>
</a>
</g>
</g>
<!-- Node1&#45;&gt;Node7 -->
<g id="edge6" class="edge"><title>Node1&#45;&gt;Node7</title>
<path fill="none" stroke="midnightblue" d="M244.467,-201.031C271.55,-190.328 305.42,-176.942 330.521,-167.022"/>
<polygon fill="midnightblue" stroke="midnightblue" points="242.839,-197.911 234.826,-204.841 245.412,-204.421 242.839,-197.911"/>
</g>
<!-- Node9 -->
<g id="node9" class="node"><title>Node9</title>
<g id="a_node9"><a xlink:href="../../d4/d8b/custom_irc_server_2ircuser_8cpp.xhtml" target="_top" xlink:title="C++/customIrcServer\l/ircuser.cpp">
<polygon fill="white" stroke="black" points="186,-137 186,-167 294,-167 294,-137 186,-137"/>
<text text-anchor="start" x="194" y="-155" font-family="Helvetica,sans-Serif" font-size="10.00">C++/customIrcServer</text>
<text text-anchor="middle" x="240" y="-144" font-family="Helvetica,sans-Serif" font-size="10.00">/ircuser.cpp</text>
</a>
</g>
</g>
<!-- Node1&#45;&gt;Node9 -->
<g id="edge9" class="edge"><title>Node1&#45;&gt;Node9</title>
<path fill="none" stroke="midnightblue" d="M213.276,-196.019C219.21,-186.467 225.913,-175.677 231.121,-167.293"/>
<polygon fill="midnightblue" stroke="midnightblue" points="210.2,-194.338 207.896,-204.679 216.146,-198.031 210.2,-194.338"/>
</g>
<!-- Node4 -->
<g id="node4" class="node"><title>Node4</title>
<g id="a_node4"><a xlink:href="../../db/df6/mainapp_8h.xhtml" target="_top" xlink:title="C++/customIrcServer\l/mainapp.h">
<polygon fill="white" stroke="black" points="126,-69 126,-99 234,-99 234,-69 126,-69"/>
<text text-anchor="start" x="134" y="-87" font-family="Helvetica,sans-Serif" font-size="10.00">C++/customIrcServer</text>
<text text-anchor="middle" x="180" y="-76" font-family="Helvetica,sans-Serif" font-size="10.00">/mainapp.h</text>
</a>
</g>
</g>
<!-- Node1&#45;&gt;Node4 -->
<g id="edge10" class="edge"><title>Node1&#45;&gt;Node4</title>
<path fill="none" stroke="midnightblue" d="M186.526,-195.579C182.672,-187.131 178.934,-177.367 177,-168 172.101,-144.276 174.924,-115.945 177.444,-99.2703"/>
<polygon fill="midnightblue" stroke="midnightblue" points="183.483,-197.325 191.002,-204.789 189.778,-194.265 183.483,-197.325"/>
</g>
<!-- Node3 -->
<g id="node3" class="node"><title>Node3</title>
<g id="a_node3"><a xlink:href="../../d0/d85/custom_irc_server_2clssettings_8cpp.xhtml" target="_top" xlink:title="C++/customIrcServer\l/clssettings.cpp">
<polygon fill="white" stroke="black" points="0,-69 0,-99 108,-99 108,-69 0,-69"/>
<text text-anchor="start" x="8" y="-87" font-family="Helvetica,sans-Serif" font-size="10.00">C++/customIrcServer</text>
<text text-anchor="middle" x="54" y="-76" font-family="Helvetica,sans-Serif" font-size="10.00">/clssettings.cpp</text>
</a>
</g>
</g>
<!-- Node2&#45;&gt;Node3 -->
<g id="edge2" class="edge"><title>Node2&#45;&gt;Node3</title>
<path fill="none" stroke="midnightblue" d="M68.043,-127.129C64.9338,-117.801 61.4726,-107.418 58.7644,-99.2931"/>
<polygon fill="midnightblue" stroke="midnightblue" points="64.7436,-128.299 71.2263,-136.679 71.3844,-126.085 64.7436,-128.299"/>
</g>
<!-- Node2&#45;&gt;Node4 -->
<g id="edge3" class="edge"><title>Node2&#45;&gt;Node4</title>
<path fill="none" stroke="midnightblue" d="M106.981,-131.339C123.295,-120.986 142.929,-108.526 157.726,-99.1352"/>
<polygon fill="midnightblue" stroke="midnightblue" points="104.879,-128.528 98.3106,-136.841 108.629,-134.438 104.879,-128.528"/>
</g>
<!-- Node5 -->
<g id="node5" class="node"><title>Node5</title>
<g id="a_node5"><a xlink:href="../../dc/d17/custom_irc_server_2main_8cpp.xhtml" target="_top" xlink:title="C++/customIrcServer\l/main.cpp">
<polygon fill="white" stroke="black" points="63,-1 63,-31 171,-31 171,-1 63,-1"/>
<text text-anchor="start" x="71" y="-19" font-family="Helvetica,sans-Serif" font-size="10.00">C++/customIrcServer</text>
<text text-anchor="middle" x="117" y="-8" font-family="Helvetica,sans-Serif" font-size="10.00">/main.cpp</text>
</a>
</g>
</g>
<!-- Node4&#45;&gt;Node5 -->
<g id="edge4" class="edge"><title>Node4&#45;&gt;Node5</title>
<path fill="none" stroke="midnightblue" d="M159.185,-61.1939C149.799,-51.3605 138.976,-40.0228 130.643,-31.2931"/>
<polygon fill="midnightblue" stroke="midnightblue" points="156.893,-63.8621 166.33,-68.679 161.957,-59.0287 156.893,-63.8621"/>
</g>
<!-- Node6 -->
<g id="node6" class="node"><title>Node6</title>
<g id="a_node6"><a xlink:href="../../d8/d88/mainapp_8cpp.xhtml" target="_top" xlink:title="C++/customIrcServer\l/mainapp.cpp">
<polygon fill="white" stroke="black" points="189,-1 189,-31 297,-31 297,-1 189,-1"/>
<text text-anchor="start" x="197" y="-19" font-family="Helvetica,sans-Serif" font-size="10.00">C++/customIrcServer</text>
<text text-anchor="middle" x="243" y="-8" font-family="Helvetica,sans-Serif" font-size="10.00">/mainapp.cpp</text>
</a>
</g>
</g>
<!-- Node4&#45;&gt;Node6 -->
<g id="edge5" class="edge"><title>Node4&#45;&gt;Node6</title>
<path fill="none" stroke="midnightblue" d="M200.815,-61.1939C210.201,-51.3605 221.024,-40.0228 229.357,-31.2931"/>
<polygon fill="midnightblue" stroke="midnightblue" points="198.043,-59.0287 193.67,-68.679 203.107,-63.8621 198.043,-59.0287"/>
</g>
<!-- Node8 -->
<g id="node8" class="node"><title>Node8</title>
<g id="a_node8"><a xlink:href="../../d6/d3e/ircclient_8cpp.xhtml" target="_top" xlink:title="C++/customIrcServer\l/ircclient.cpp">
<polygon fill="white" stroke="black" points="312,-69 312,-99 420,-99 420,-69 312,-69"/>
<text text-anchor="start" x="320" y="-87" font-family="Helvetica,sans-Serif" font-size="10.00">C++/customIrcServer</text>
<text text-anchor="middle" x="366" y="-76" font-family="Helvetica,sans-Serif" font-size="10.00">/ircclient.cpp</text>
</a>
</g>
</g>
<!-- Node7&#45;&gt;Node8 -->
<g id="edge7" class="edge"><title>Node7&#45;&gt;Node8</title>
<path fill="none" stroke="midnightblue" d="M366,-126.532C366,-117.361 366,-107.245 366,-99.2931"/>
<polygon fill="midnightblue" stroke="midnightblue" points="362.5,-126.679 366,-136.679 369.5,-126.679 362.5,-126.679"/>
</g>
<!-- Node7&#45;&gt;Node4 -->
<g id="edge8" class="edge"><title>Node7&#45;&gt;Node4</title>
<path fill="none" stroke="midnightblue" d="M316.546,-133.452C286.19,-122.68 247.84,-109.072 219.516,-99.0218"/>
<polygon fill="midnightblue" stroke="midnightblue" points="315.504,-136.796 326.098,-136.841 317.845,-130.199 315.504,-136.796"/>
</g>
</g>
</svg>
