<?xml version="1.0" encoding="UTF-8" standalone="no"?>
<!DOCTYPE svg PUBLIC "-//W3C//DTD SVG 1.1//EN"
 "http://www.w3.org/Graphics/SVG/1.1/DTD/svg11.dtd">
<!-- Generated by graphviz version 2.30.1 (20130303.0817)
 -->
<!-- Title: K4U::endl Pages: 1 -->
<svg width="210pt" height="28pt"
 viewBox="0.00 0.00 210.00 28.00" xmlns="http://www.w3.org/2000/svg" xmlns:xlink="http://www.w3.org/1999/xlink">
<g id="graph0" class="graph" transform="scale(1 1) rotate(0) translate(4 24)">
<title>K4U::endl</title>
<polygon fill="white" stroke="white" points="-4,5 -4,-24 207,-24 207,5 -4,5"/>
<!-- Node1 -->
<g id="node1" class="node"><title>Node1</title>
<polygon fill="#bfbfbf" stroke="black" points="0.5,-0.5 0.5,-19.5 59.5,-19.5 59.5,-0.5 0.5,-0.5"/>
<text text-anchor="middle" x="30" y="-7.5" font-family="Helvetica,sans-Serif" font-size="10.00">K4U::endl</text>
</g>
<!-- Node2 -->
<g id="node2" class="node"><title>Node2</title>
<g id="a_node2"><a xlink:href="../../da/d64/class_k4_u_1_1cls_log.xhtml#a81f179b2ccb3e2abeb9b47f5b83de935" target="_top" xlink:title="K4U::clsLog::doEndl">
<polygon fill="white" stroke="black" points="96,-0.5 96,-19.5 202,-19.5 202,-0.5 96,-0.5"/>
<text text-anchor="middle" x="149" y="-7.5" font-family="Helvetica,sans-Serif" font-size="10.00">K4U::clsLog::doEndl</text>
</a>
</g>
</g>
<!-- Node1&#45;&gt;Node2 -->
<g id="edge1" class="edge"><title>Node1&#45;&gt;Node2</title>
<path fill="none" stroke="midnightblue" d="M59.6214,-4.10292C67.5842,-3.60447 76.5566,-3.32449 85.6536,-3.26299"/>
<polygon fill="midnightblue" stroke="midnightblue" points="85.9222,-6.76351 95.9302,-3.28638 85.9382,0.236473 85.9222,-6.76351"/>
</g>
<!-- Node2&#45;&gt;Node1 -->
<g id="edge2" class="edge"><title>Node2&#45;&gt;Node1</title>
<path fill="none" stroke="midnightblue" d="M95.9302,-16.7136C87.1572,-16.8132 78.189,-16.7083 69.8276,-16.3987"/>
<polygon fill="midnightblue" stroke="midnightblue" points="69.7812,-12.8922 59.6214,-15.8971 69.4375,-19.8838 69.7812,-12.8922"/>
</g>
</g>
</svg>
