<?xml version="1.0" encoding="UTF-8" standalone="no"?>
<!DOCTYPE svg PUBLIC "-//W3C//DTD SVG 1.1//EN"
 "http://www.w3.org/Graphics/SVG/1.1/DTD/svg11.dtd">
<!-- Generated by graphviz version 2.30.1 (20130303.0817)
 -->
<!-- Title: K4U::operator&lt;&lt; Pages: 1 -->
<svg width="444pt" height="115pt"
 viewBox="0.00 0.00 444.00 115.00" xmlns="http://www.w3.org/2000/svg" xmlns:xlink="http://www.w3.org/1999/xlink">
<g id="graph0" class="graph" transform="scale(1 1) rotate(0) translate(4 111)">
<title>K4U::operator&lt;&lt;</title>
<polygon fill="white" stroke="white" points="-4,5 -4,-111 441,-111 441,5 -4,5"/>
<!-- Node1 -->
<g id="node1" class="node"><title>Node1</title>
<polygon fill="#bfbfbf" stroke="black" points="0.5,-38.5 0.5,-57.5 89.5,-57.5 89.5,-38.5 0.5,-38.5"/>
<text text-anchor="middle" x="45" y="-45.5" font-family="Helvetica,sans-Serif" font-size="10.00">K4U::operator&lt;&lt;</text>
</g>
<!-- Node2 -->
<g id="node2" class="node"><title>Node2</title>
<g id="a_node2"><a xlink:href="../../d2/dc1/class_k4_u_1_1json_command.xhtml#ac6bc0d606265f47db9bae5a6a40cb244" target="_top" xlink:title="getCommandString">
<polygon fill="white" stroke="black" points="126.5,-77 126.5,-107 293.5,-107 293.5,-77 126.5,-77"/>
<text text-anchor="start" x="134.5" y="-95" font-family="Helvetica,sans-Serif" font-size="10.00">K4U::jsonCommand::getCommand</text>
<text text-anchor="middle" x="210" y="-84" font-family="Helvetica,sans-Serif" font-size="10.00">String</text>
</a>
</g>
</g>
<!-- Node1&#45;&gt;Node2 -->
<g id="edge1" class="edge"><title>Node1&#45;&gt;Node2</title>
<path fill="none" stroke="midnightblue" d="M81.3686,-57.5473C99.4747,-62.4349 122.11,-68.5451 143.271,-74.2571"/>
<polygon fill="midnightblue" stroke="midnightblue" points="142.623,-77.7075 153.19,-76.9346 144.447,-70.9494 142.623,-77.7075"/>
</g>
<!-- Node3 -->
<g id="node3" class="node"><title>Node3</title>
<g id="a_node3"><a xlink:href="../../d6/d75/namespace_k4_u.xhtml#aaddaee50fab2801df390147891b0c09d" target="_top" xlink:title="K4U::endl">
<polygon fill="white" stroke="black" points="180.5,-38.5 180.5,-57.5 239.5,-57.5 239.5,-38.5 180.5,-38.5"/>
<text text-anchor="middle" x="210" y="-45.5" font-family="Helvetica,sans-Serif" font-size="10.00">K4U::endl</text>
</a>
</g>
</g>
<!-- Node1&#45;&gt;Node3 -->
<g id="edge2" class="edge"><title>Node1&#45;&gt;Node3</title>
<path fill="none" stroke="midnightblue" d="M89.681,-48C114.653,-48 145.712,-48 169.882,-48"/>
<polygon fill="midnightblue" stroke="midnightblue" points="170.117,-51.5001 180.117,-48 170.117,-44.5001 170.117,-51.5001"/>
</g>
<!-- Node5 -->
<g id="node5" class="node"><title>Node5</title>
<g id="a_node5"><a xlink:href="../../d2/dc1/class_k4_u_1_1json_command.xhtml#ae829f45e11a50fa00024a5d9951cd748" target="_top" xlink:title="Gets an item from the internal data map.">
<polygon fill="white" stroke="black" points="138.5,-0.5 138.5,-19.5 281.5,-19.5 281.5,-0.5 138.5,-0.5"/>
<text text-anchor="middle" x="210" y="-7.5" font-family="Helvetica,sans-Serif" font-size="10.00">K4U::jsonCommand::getData</text>
</a>
</g>
</g>
<!-- Node1&#45;&gt;Node5 -->
<g id="edge5" class="edge"><title>Node1&#45;&gt;Node5</title>
<path fill="none" stroke="midnightblue" d="M85.8633,-38.465C98.6746,-35.4187 112.932,-32.0475 126,-29 136.146,-26.6339 146.996,-24.1306 157.394,-21.7449"/>
<polygon fill="midnightblue" stroke="midnightblue" points="158.22,-25.1464 167.186,-19.502 156.657,-18.3231 158.22,-25.1464"/>
</g>
<!-- Node4 -->
<g id="node4" class="node"><title>Node4</title>
<g id="a_node4"><a xlink:href="../../da/d64/class_k4_u_1_1cls_log.xhtml#a81f179b2ccb3e2abeb9b47f5b83de935" target="_top" xlink:title="K4U::clsLog::doEndl">
<polygon fill="white" stroke="black" points="330,-38.5 330,-57.5 436,-57.5 436,-38.5 330,-38.5"/>
<text text-anchor="middle" x="383" y="-45.5" font-family="Helvetica,sans-Serif" font-size="10.00">K4U::clsLog::doEndl</text>
</a>
</g>
</g>
<!-- Node3&#45;&gt;Node4 -->
<g id="edge3" class="edge"><title>Node3&#45;&gt;Node4</title>
<path fill="none" stroke="midnightblue" d="M239.622,-42.8082C261.373,-41.378 292.112,-40.9323 319.465,-41.4712"/>
<polygon fill="midnightblue" stroke="midnightblue" points="319.673,-44.9774 329.756,-41.726 319.846,-37.9795 319.673,-44.9774"/>
</g>
<!-- Node4&#45;&gt;Node3 -->
<g id="edge4" class="edge"><title>Node4&#45;&gt;Node3</title>
<path fill="none" stroke="midnightblue" d="M329.756,-54.274C303.934,-55.0506 273.318,-54.8769 249.64,-53.7531"/>
<polygon fill="midnightblue" stroke="midnightblue" points="249.802,-50.2568 239.622,-53.1918 249.41,-57.2458 249.802,-50.2568"/>
</g>
</g>
</svg>
