<?xml version="1.0" encoding="UTF-8" standalone="no"?>
<!DOCTYPE svg PUBLIC "-//W3C//DTD SVG 1.1//EN"
 "http://www.w3.org/Graphics/SVG/1.1/DTD/svg11.dtd">
<!-- Generated by graphviz version 2.30.1 (20130303.0817)
 -->
<!-- Title: C++/customIrcClient/android/mainwindow.cpp Pages: 1 -->
<svg width="305pt" height="152pt"
 viewBox="0.00 0.00 305.00 152.00" xmlns="http://www.w3.org/2000/svg" xmlns:xlink="http://www.w3.org/1999/xlink">
<g id="graph0" class="graph" transform="scale(1 1) rotate(0) translate(4 148)">
<title>C++/customIrcClient/android/mainwindow.cpp</title>
<polygon fill="white" stroke="white" points="-4,5 -4,-148 302,-148 302,5 -4,5"/>
<!-- Node1 -->
<g id="node1" class="node"><title>Node1</title>
<polygon fill="#bfbfbf" stroke="black" points="79.5,-113 79.5,-143 204.5,-143 204.5,-113 79.5,-113"/>
<text text-anchor="start" x="87.5" y="-131" font-family="Helvetica,sans-Serif" font-size="10.00">C++/customIrcClient</text>
<text text-anchor="middle" x="142" y="-120" font-family="Helvetica,sans-Serif" font-size="10.00">/android/mainwindow.cpp</text>
</g>
<!-- Node2 -->
<g id="node2" class="node"><title>Node2</title>
<g id="a_node2"><a xlink:href="../../db/d74/android_2mainwindow_8h.html" target="_top" xlink:title="mainwindow.h">
<polygon fill="white" stroke="black" points="1.5,-56.5 1.5,-75.5 78.5,-75.5 78.5,-56.5 1.5,-56.5"/>
<text text-anchor="middle" x="40" y="-63.5" font-family="Helvetica,sans-Serif" font-size="10.00">mainwindow.h</text>
</a>
</g>
</g>
<!-- Node1&#45;&gt;Node2 -->
<g id="edge1" class="edge"><title>Node1&#45;&gt;Node2</title>
<path fill="none" stroke="midnightblue" d="M118.086,-112.933C101.645,-103.262 79.9148,-90.4793 63.5528,-80.8546"/>
<polygon fill="midnightblue" stroke="midnightblue" points="65.014,-77.6535 54.62,-75.6 61.4648,-83.6871 65.014,-77.6535"/>
</g>
<!-- Node4 -->
<g id="node4" class="node"><title>Node4</title>
<polygon fill="white" stroke="#bfbfbf" points="97,-56.5 97,-75.5 187,-75.5 187,-56.5 97,-56.5"/>
<text text-anchor="middle" x="142" y="-63.5" font-family="Helvetica,sans-Serif" font-size="10.00">ui_mainwindow.h</text>
</g>
<!-- Node1&#45;&gt;Node4 -->
<g id="edge3" class="edge"><title>Node1&#45;&gt;Node4</title>
<path fill="none" stroke="midnightblue" d="M142,-112.781C142,-104.781 142,-94.6887 142,-86.0168"/>
<polygon fill="midnightblue" stroke="midnightblue" points="145.5,-85.7305 142,-75.7305 138.5,-85.7306 145.5,-85.7305"/>
</g>
<!-- Node5 -->
<g id="node5" class="node"><title>Node5</title>
<polygon fill="white" stroke="#bfbfbf" points="205,-56.5 205,-75.5 297,-75.5 297,-56.5 205,-56.5"/>
<text text-anchor="middle" x="251" y="-63.5" font-family="Helvetica,sans-Serif" font-size="10.00">QCoreApplication</text>
</g>
<!-- Node1&#45;&gt;Node5 -->
<g id="edge4" class="edge"><title>Node1&#45;&gt;Node5</title>
<path fill="none" stroke="midnightblue" d="M167.556,-112.933C185.288,-103.171 208.78,-90.2401 226.32,-80.5856"/>
<polygon fill="midnightblue" stroke="midnightblue" points="228.304,-83.4885 235.377,-75.6 224.928,-77.3562 228.304,-83.4885"/>
</g>
<!-- Node3 -->
<g id="node3" class="node"><title>Node3</title>
<polygon fill="white" stroke="#bfbfbf" points="0,-0.5 0,-19.5 80,-19.5 80,-0.5 0,-0.5"/>
<text text-anchor="middle" x="40" y="-7.5" font-family="Helvetica,sans-Serif" font-size="10.00">QMainWindow</text>
</g>
<!-- Node2&#45;&gt;Node3 -->
<g id="edge2" class="edge"><title>Node2&#45;&gt;Node3</title>
<path fill="none" stroke="midnightblue" d="M40,-56.083C40,-49.0059 40,-38.8611 40,-29.9865"/>
<polygon fill="midnightblue" stroke="midnightblue" points="43.5001,-29.751 40,-19.7511 36.5001,-29.7511 43.5001,-29.751"/>
</g>
</g>
</svg>
