<?xml version="1.0" encoding="UTF-8" standalone="no"?>
<!DOCTYPE svg PUBLIC "-//W3C//DTD SVG 1.1//EN"
 "http://www.w3.org/Graphics/SVG/1.1/DTD/svg11.dtd">
<!-- Generated by graphviz version 2.30.1 (20130303.0817)
 -->
<!-- Title: C++/customIrcServer/uiserver.h Pages: 1 -->
<svg width="646pt" height="264pt"
 viewBox="0.00 0.00 646.00 264.00" xmlns="http://www.w3.org/2000/svg" xmlns:xlink="http://www.w3.org/1999/xlink">
<g id="graph0" class="graph" transform="scale(1 1) rotate(0) translate(4 260)">
<title>C++/customIrcServer/uiserver.h</title>
<polygon fill="white" stroke="white" points="-4,5 -4,-260 643,-260 643,5 -4,5"/>
<!-- Node1 -->
<g id="node1" class="node"><title>Node1</title>
<polygon fill="#bfbfbf" stroke="black" points="184,-225 184,-255 292,-255 292,-225 184,-225"/>
<text text-anchor="start" x="192" y="-243" font-family="Helvetica,sans-Serif" font-size="10.00">C++/customIrcServer</text>
<text text-anchor="middle" x="238" y="-232" font-family="Helvetica,sans-Serif" font-size="10.00">/uiserver.h</text>
</g>
<!-- Node2 -->
<g id="node2" class="node"><title>Node2</title>
<polygon fill="white" stroke="#bfbfbf" points="37,-168.5 37,-187.5 103,-187.5 103,-168.5 37,-168.5"/>
<text text-anchor="middle" x="70" y="-175.5" font-family="Helvetica,sans-Serif" font-size="10.00">QTcpServer</text>
</g>
<!-- Node1&#45;&gt;Node2 -->
<g id="edge1" class="edge"><title>Node1&#45;&gt;Node2</title>
<path fill="none" stroke="midnightblue" d="M198.611,-224.933C169.762,-214.629 131.022,-200.794 103.622,-191.008"/>
<polygon fill="midnightblue" stroke="midnightblue" points="104.675,-187.667 94.0801,-187.6 102.32,-194.26 104.675,-187.667"/>
</g>
<!-- Node3 -->
<g id="node3" class="node"><title>Node3</title>
<polygon fill="white" stroke="#bfbfbf" points="121,-168.5 121,-187.5 161,-187.5 161,-168.5 121,-168.5"/>
<text text-anchor="middle" x="141" y="-175.5" font-family="Helvetica,sans-Serif" font-size="10.00">QList</text>
</g>
<!-- Node1&#45;&gt;Node3 -->
<g id="edge2" class="edge"><title>Node1&#45;&gt;Node3</title>
<path fill="none" stroke="midnightblue" d="M215.012,-224.781C199.517,-215.196 179.163,-202.606 163.723,-193.056"/>
<polygon fill="midnightblue" stroke="midnightblue" points="165.177,-189.84 154.832,-187.556 161.495,-195.793 165.177,-189.84"/>
</g>
<!-- Node4 -->
<g id="node4" class="node"><title>Node4</title>
<polygon fill="white" stroke="#bfbfbf" points="179.5,-168.5 179.5,-187.5 226.5,-187.5 226.5,-168.5 179.5,-168.5"/>
<text text-anchor="middle" x="203" y="-175.5" font-family="Helvetica,sans-Serif" font-size="10.00">QHash</text>
</g>
<!-- Node1&#45;&gt;Node4 -->
<g id="edge3" class="edge"><title>Node1&#45;&gt;Node4</title>
<path fill="none" stroke="midnightblue" d="M229.705,-224.781C224.777,-216.332 218.486,-205.548 213.249,-196.569"/>
<polygon fill="midnightblue" stroke="midnightblue" points="216.155,-194.605 208.093,-187.731 210.108,-198.132 216.155,-194.605"/>
</g>
<!-- Node5 -->
<g id="node5" class="node"><title>Node5</title>
<g id="a_node5"><a xlink:href="../../d1/de1/uiclient_8h.html" target="_top" xlink:title="uiclient.h">
<polygon fill="white" stroke="black" points="245,-168.5 245,-187.5 301,-187.5 301,-168.5 245,-168.5"/>
<text text-anchor="middle" x="273" y="-175.5" font-family="Helvetica,sans-Serif" font-size="10.00">uiclient.h</text>
</a>
</g>
</g>
<!-- Node1&#45;&gt;Node5 -->
<g id="edge4" class="edge"><title>Node1&#45;&gt;Node5</title>
<path fill="none" stroke="midnightblue" d="M246.295,-224.781C251.223,-216.332 257.514,-205.548 262.751,-196.569"/>
<polygon fill="midnightblue" stroke="midnightblue" points="265.892,-198.132 267.907,-187.731 259.845,-194.605 265.892,-198.132"/>
</g>
<!-- Node9 -->
<g id="node9" class="node"><title>Node9</title>
<g id="a_node9"><a xlink:href="../../d7/d62/clslog_8h.html" target="_top" xlink:title="../resources/clslog.h">
<polygon fill="white" stroke="black" points="247.5,-56.5 247.5,-75.5 352.5,-75.5 352.5,-56.5 247.5,-56.5"/>
<text text-anchor="middle" x="300" y="-63.5" font-family="Helvetica,sans-Serif" font-size="10.00">../resources/clslog.h</text>
</a>
</g>
</g>
<!-- Node1&#45;&gt;Node9 -->
<g id="edge21" class="edge"><title>Node1&#45;&gt;Node9</title>
<path fill="none" stroke="midnightblue" d="M266.837,-224.795C281.577,-216.114 298.561,-203.659 309,-188 328.008,-159.487 329.724,-145.386 322,-112 319.77,-102.363 315.179,-92.4052 310.764,-84.3149"/>
<polygon fill="midnightblue" stroke="midnightblue" points="313.697,-82.3968 305.638,-75.5194 307.649,-85.9216 313.697,-82.3968"/>
</g>
<!-- Node15 -->
<g id="node15" class="node"><title>Node15</title>
<g id="a_node15"><a xlink:href="../../dc/d96/jsoncommand_8h.html" target="_top" xlink:title="../resources/jsoncommand.h">
<polygon fill="white" stroke="black" points="369,-112.5 369,-131.5 509,-131.5 509,-112.5 369,-112.5"/>
<text text-anchor="middle" x="439" y="-119.5" font-family="Helvetica,sans-Serif" font-size="10.00">../resources/jsoncommand.h</text>
</a>
</g>
</g>
<!-- Node1&#45;&gt;Node15 -->
<g id="edge22" class="edge"><title>Node1&#45;&gt;Node15</title>
<path fill="none" stroke="midnightblue" d="M276.581,-224.978C299.974,-215.803 330.026,-202.795 355,-188 379.723,-173.354 405.473,-152.453 421.839,-138.339"/>
<polygon fill="midnightblue" stroke="midnightblue" points="424.266,-140.866 429.487,-131.646 419.656,-135.598 424.266,-140.866"/>
</g>
<!-- Node6 -->
<g id="node6" class="node"><title>Node6</title>
<polygon fill="white" stroke="#bfbfbf" points="145,-112.5 145,-131.5 215,-131.5 215,-112.5 145,-112.5"/>
<text text-anchor="middle" x="180" y="-119.5" font-family="Helvetica,sans-Serif" font-size="10.00">QTcpSocket</text>
</g>
<!-- Node5&#45;&gt;Node6 -->
<g id="edge5" class="edge"><title>Node5&#45;&gt;Node6</title>
<path fill="none" stroke="midnightblue" d="M258.058,-168.324C243.415,-159.822 220.866,-146.729 203.762,-136.797"/>
<polygon fill="midnightblue" stroke="midnightblue" points="205.31,-133.649 194.905,-131.655 201.795,-139.703 205.31,-133.649"/>
</g>
<!-- Node7 -->
<g id="node7" class="node"><title>Node7</title>
<polygon fill="white" stroke="#bfbfbf" points="233,-112.5 233,-131.5 313,-131.5 313,-112.5 233,-112.5"/>
<text text-anchor="middle" x="273" y="-119.5" font-family="Helvetica,sans-Serif" font-size="10.00">QHostAddress</text>
</g>
<!-- Node5&#45;&gt;Node7 -->
<g id="edge6" class="edge"><title>Node5&#45;&gt;Node7</title>
<path fill="none" stroke="midnightblue" d="M273,-168.083C273,-161.006 273,-150.861 273,-141.986"/>
<polygon fill="midnightblue" stroke="midnightblue" points="276.5,-141.751 273,-131.751 269.5,-141.751 276.5,-141.751"/>
</g>
<!-- Node8 -->
<g id="node8" class="node"><title>Node8</title>
<polygon fill="white" stroke="#bfbfbf" points="-0.5,-112.5 -0.5,-131.5 88.5,-131.5 88.5,-112.5 -0.5,-112.5"/>
<text text-anchor="middle" x="44" y="-119.5" font-family="Helvetica,sans-Serif" font-size="10.00">QJsonDocument</text>
</g>
<!-- Node5&#45;&gt;Node8 -->
<g id="edge7" class="edge"><title>Node5&#45;&gt;Node8</title>
<path fill="none" stroke="midnightblue" d="M244.779,-170.312C241.482,-169.532 238.167,-168.748 235,-168 185.543,-156.317 128.871,-142.97 90.1858,-133.865"/>
<polygon fill="midnightblue" stroke="midnightblue" points="90.7995,-130.414 80.2636,-131.53 89.1959,-137.228 90.7995,-130.414"/>
</g>
<!-- Node5&#45;&gt;Node9 -->
<g id="edge8" class="edge"><title>Node5&#45;&gt;Node9</title>
<path fill="none" stroke="midnightblue" d="M244.736,-169.612C206.574,-159.357 142.552,-141.049 136,-132 130.787,-124.8 130.61,-119.068 136,-112 148.529,-95.5706 196.378,-83.6552 237.182,-76.2287"/>
<polygon fill="midnightblue" stroke="midnightblue" points="237.865,-79.6624 247.108,-74.4833 236.653,-72.7682 237.865,-79.6624"/>
</g>
<!-- Node5&#45;&gt;Node15 -->
<g id="edge14" class="edge"><title>Node5&#45;&gt;Node15</title>
<path fill="none" stroke="midnightblue" d="M299.303,-168.444C327.351,-159.32 371.944,-144.813 403.184,-134.651"/>
<polygon fill="midnightblue" stroke="midnightblue" points="404.393,-137.938 412.82,-131.516 402.228,-131.282 404.393,-137.938"/>
</g>
<!-- Node10 -->
<g id="node10" class="node"><title>Node10</title>
<polygon fill="white" stroke="#bfbfbf" points="429,-0.5 429,-19.5 481,-19.5 481,-0.5 429,-0.5"/>
<text text-anchor="middle" x="455" y="-7.5" font-family="Helvetica,sans-Serif" font-size="10.00">QDebug</text>
</g>
<!-- Node9&#45;&gt;Node10 -->
<g id="edge9" class="edge"><title>Node9&#45;&gt;Node10</title>
<path fill="none" stroke="midnightblue" d="M324.56,-56.4435C350.523,-47.3986 391.668,-33.064 420.797,-22.9158"/>
<polygon fill="midnightblue" stroke="midnightblue" points="422.263,-26.1116 430.555,-19.5164 419.96,-19.5013 422.263,-26.1116"/>
</g>
<!-- Node11 -->
<g id="node11" class="node"><title>Node11</title>
<polygon fill="white" stroke="#bfbfbf" points="130.5,-0.5 130.5,-19.5 195.5,-19.5 195.5,-0.5 130.5,-0.5"/>
<text text-anchor="middle" x="163" y="-7.5" font-family="Helvetica,sans-Serif" font-size="10.00">QDateTime</text>
</g>
<!-- Node9&#45;&gt;Node11 -->
<g id="edge10" class="edge"><title>Node9&#45;&gt;Node11</title>
<path fill="none" stroke="midnightblue" d="M278.292,-56.4435C255.645,-47.5171 219.928,-33.4387 194.248,-23.3168"/>
<polygon fill="midnightblue" stroke="midnightblue" points="195.193,-19.9273 184.606,-19.5164 192.626,-26.4397 195.193,-19.9273"/>
</g>
<!-- Node12 -->
<g id="node12" class="node"><title>Node12</title>
<polygon fill="white" stroke="#bfbfbf" points="213.5,-0.5 213.5,-19.5 254.5,-19.5 254.5,-0.5 213.5,-0.5"/>
<text text-anchor="middle" x="234" y="-7.5" font-family="Helvetica,sans-Serif" font-size="10.00">string</text>
</g>
<!-- Node9&#45;&gt;Node12 -->
<g id="edge11" class="edge"><title>Node9&#45;&gt;Node12</title>
<path fill="none" stroke="midnightblue" d="M289.396,-56.324C279.544,-48.2631 264.649,-36.0765 252.785,-26.3695"/>
<polygon fill="midnightblue" stroke="midnightblue" points="254.753,-23.4575 244.797,-19.8339 250.32,-28.8752 254.753,-23.4575"/>
</g>
<!-- Node13 -->
<g id="node13" class="node"><title>Node13</title>
<polygon fill="white" stroke="#bfbfbf" points="273,-0.5 273,-19.5 327,-19.5 327,-0.5 273,-0.5"/>
<text text-anchor="middle" x="300" y="-7.5" font-family="Helvetica,sans-Serif" font-size="10.00">iostream</text>
</g>
<!-- Node9&#45;&gt;Node13 -->
<g id="edge12" class="edge"><title>Node9&#45;&gt;Node13</title>
<path fill="none" stroke="midnightblue" d="M300,-56.083C300,-49.0059 300,-38.8611 300,-29.9865"/>
<polygon fill="midnightblue" stroke="midnightblue" points="303.5,-29.751 300,-19.7511 296.5,-29.7511 303.5,-29.751"/>
</g>
<!-- Node14 -->
<g id="node14" class="node"><title>Node14</title>
<polygon fill="white" stroke="#bfbfbf" points="345.5,-0.5 345.5,-19.5 410.5,-19.5 410.5,-0.5 345.5,-0.5"/>
<text text-anchor="middle" x="378" y="-7.5" font-family="Helvetica,sans-Serif" font-size="10.00">QStringList</text>
</g>
<!-- Node9&#45;&gt;Node14 -->
<g id="edge13" class="edge"><title>Node9&#45;&gt;Node14</title>
<path fill="none" stroke="midnightblue" d="M312.532,-56.324C324.586,-47.979 343.027,-35.2122 357.269,-25.3524"/>
<polygon fill="midnightblue" stroke="midnightblue" points="359.269,-28.2243 365.499,-19.6545 355.285,-22.469 359.269,-28.2243"/>
</g>
<!-- Node16 -->
<g id="node16" class="node"><title>Node16</title>
<polygon fill="white" stroke="#bfbfbf" points="370.5,-56.5 370.5,-75.5 423.5,-75.5 423.5,-56.5 370.5,-56.5"/>
<text text-anchor="middle" x="397" y="-63.5" font-family="Helvetica,sans-Serif" font-size="10.00">QObject</text>
</g>
<!-- Node15&#45;&gt;Node16 -->
<g id="edge15" class="edge"><title>Node15&#45;&gt;Node16</title>
<path fill="none" stroke="midnightblue" d="M432.065,-112.083C426.071,-104.377 417.248,-93.0333 409.952,-83.6531"/>
<polygon fill="midnightblue" stroke="midnightblue" points="412.709,-81.4958 403.806,-75.7511 407.183,-85.7934 412.709,-81.4958"/>
</g>
<!-- Node17 -->
<g id="node17" class="node"><title>Node17</title>
<polygon fill="white" stroke="#bfbfbf" points="442,-56.5 442,-75.5 516,-75.5 516,-56.5 442,-56.5"/>
<text text-anchor="middle" x="479" y="-63.5" font-family="Helvetica,sans-Serif" font-size="10.00">QVariantMap</text>
</g>
<!-- Node15&#45;&gt;Node17 -->
<g id="edge16" class="edge"><title>Node15&#45;&gt;Node17</title>
<path fill="none" stroke="midnightblue" d="M445.605,-112.083C451.255,-104.455 459.545,-93.2645 466.451,-83.9408"/>
<polygon fill="midnightblue" stroke="midnightblue" points="469.378,-85.87 472.518,-75.7511 463.753,-81.7034 469.378,-85.87"/>
</g>
<!-- Node18 -->
<g id="node18" class="node"><title>Node18</title>
<g id="a_node18"><a xlink:href="../../d4/d05/json_8h.html" target="_top" xlink:title="json.h">
<polygon fill="white" stroke="black" points="534.5,-56.5 534.5,-75.5 577.5,-75.5 577.5,-56.5 534.5,-56.5"/>
<text text-anchor="middle" x="556" y="-63.5" font-family="Helvetica,sans-Serif" font-size="10.00">json.h</text>
</a>
</g>
</g>
<!-- Node15&#45;&gt;Node18 -->
<g id="edge17" class="edge"><title>Node15&#45;&gt;Node18</title>
<path fill="none" stroke="midnightblue" d="M457.539,-112.444C476.623,-103.636 506.575,-89.8116 528.436,-79.722"/>
<polygon fill="midnightblue" stroke="midnightblue" points="529.935,-82.8849 537.548,-75.5164 527.001,-76.5292 529.935,-82.8849"/>
</g>
<!-- Node15&#45;&gt;Node9 -->
<g id="edge20" class="edge"><title>Node15&#45;&gt;Node9</title>
<path fill="none" stroke="midnightblue" d="M416.975,-112.444C393.896,-103.478 357.438,-89.314 331.359,-79.1827"/>
<polygon fill="midnightblue" stroke="midnightblue" points="332.511,-75.8753 321.922,-75.5164 329.976,-82.4002 332.511,-75.8753"/>
</g>
<!-- Node19 -->
<g id="node19" class="node"><title>Node19</title>
<polygon fill="white" stroke="#bfbfbf" points="583.5,-0.5 583.5,-19.5 638.5,-19.5 638.5,-0.5 583.5,-0.5"/>
<text text-anchor="middle" x="611" y="-7.5" font-family="Helvetica,sans-Serif" font-size="10.00">QVariant</text>
</g>
<!-- Node18&#45;&gt;Node19 -->
<g id="edge18" class="edge"><title>Node18&#45;&gt;Node19</title>
<path fill="none" stroke="midnightblue" d="M565.082,-56.083C573.171,-48.1409 585.195,-36.3354 594.91,-26.7973"/>
<polygon fill="midnightblue" stroke="midnightblue" points="597.403,-29.2545 602.087,-19.7511 592.499,-24.2595 597.403,-29.2545"/>
</g>
<!-- Node20 -->
<g id="node20" class="node"><title>Node20</title>
<polygon fill="white" stroke="#bfbfbf" points="515,-0.5 515,-19.5 565,-19.5 565,-0.5 515,-0.5"/>
<text text-anchor="middle" x="540" y="-7.5" font-family="Helvetica,sans-Serif" font-size="10.00">QString</text>
</g>
<!-- Node18&#45;&gt;Node20 -->
<g id="edge19" class="edge"><title>Node18&#45;&gt;Node20</title>
<path fill="none" stroke="midnightblue" d="M553.358,-56.083C551.214,-48.8486 548.121,-38.4087 545.451,-29.3968"/>
<polygon fill="midnightblue" stroke="midnightblue" points="548.79,-28.3447 542.593,-19.7511 542.078,-30.3334 548.79,-28.3447"/>
</g>
</g>
</svg>
