<?xml version="1.0" encoding="UTF-8" standalone="no"?>
<!DOCTYPE svg PUBLIC "-//W3C//DTD SVG 1.1//EN"
 "http://www.w3.org/Graphics/SVG/1.1/DTD/svg11.dtd">
<!-- Generated by graphviz version 2.30.1 (20130303.0817)
 -->
<!-- Title: server::mainApp Pages: 1 -->
<svg width="631pt" height="1002pt"
 viewBox="0.00 0.00 631.00 1002.00" xmlns="http://www.w3.org/2000/svg" xmlns:xlink="http://www.w3.org/1999/xlink">
<g id="graph0" class="graph" transform="scale(1 1) rotate(0) translate(4 998)">
<title>server::mainApp</title>
<polygon fill="white" stroke="white" points="-4,5 -4,-998 628,-998 628,5 -4,5"/>
<!-- Node1 -->
<g id="node1" class="node"><title>Node1</title>
<polygon fill="#bfbfbf" stroke="black" points="184.5,-0.5 184.5,-189.5 315.5,-189.5 315.5,-0.5 184.5,-0.5"/>
<text text-anchor="middle" x="250" y="-177.5" font-family="Helvetica,sans-Serif" font-size="10.00">server::mainApp</text>
<polyline fill="none" stroke="black" points="184.5,-170.5 315.5,-170.5 "/>
<text text-anchor="start" x="192.5" y="-158.5" font-family="Helvetica,sans-Serif" font-size="10.00">&#45; events</text>
<text text-anchor="start" x="192.5" y="-147.5" font-family="Helvetica,sans-Serif" font-size="10.00">&#45; TAG</text>
<polyline fill="none" stroke="black" points="184.5,-140.5 315.5,-140.5 "/>
<text text-anchor="start" x="192.5" y="-128.5" font-family="Helvetica,sans-Serif" font-size="10.00">+ mainApp()</text>
<text text-anchor="start" x="192.5" y="-117.5" font-family="Helvetica,sans-Serif" font-size="10.00">+ run()</text>
<text text-anchor="start" x="192.5" y="-106.5" font-family="Helvetica,sans-Serif" font-size="10.00">+ chatReceived()</text>
<text text-anchor="start" x="192.5" y="-95.5" font-family="Helvetica,sans-Serif" font-size="10.00">+ userOnline()</text>
<text text-anchor="start" x="192.5" y="-84.5" font-family="Helvetica,sans-Serif" font-size="10.00">+ userOffline()</text>
<text text-anchor="start" x="192.5" y="-73.5" font-family="Helvetica,sans-Serif" font-size="10.00">+ userChangeNick()</text>
<text text-anchor="start" x="192.5" y="-62.5" font-family="Helvetica,sans-Serif" font-size="10.00">+ userChangeStatus()</text>
<text text-anchor="start" x="192.5" y="-51.5" font-family="Helvetica,sans-Serif" font-size="10.00">+ uiSendChat()</text>
<text text-anchor="start" x="192.5" y="-40.5" font-family="Helvetica,sans-Serif" font-size="10.00">+ doUserQuery()</text>
<text text-anchor="start" x="192.5" y="-29.5" font-family="Helvetica,sans-Serif" font-size="10.00">+ doSendEvents()</text>
<text text-anchor="start" x="192.5" y="-18.5" font-family="Helvetica,sans-Serif" font-size="10.00">+ ownUserChangeStatus()</text>
<text text-anchor="start" x="192.5" y="-7.5" font-family="Helvetica,sans-Serif" font-size="10.00">&#45; addToEventHistory()</text>
</g>
<!-- Node2 -->
<g id="node2" class="node"><title>Node2</title>
<polygon fill="white" stroke="#bfbfbf" points="163.5,-636.5 163.5,-693.5 216.5,-693.5 216.5,-636.5 163.5,-636.5"/>
<text text-anchor="middle" x="190" y="-681.5" font-family="Helvetica,sans-Serif" font-size="10.00">QObject</text>
<polyline fill="none" stroke="#bfbfbf" points="163.5,-674.5 216.5,-674.5 "/>
<text text-anchor="middle" x="190" y="-662.5" font-family="Helvetica,sans-Serif" font-size="10.00"> </text>
<polyline fill="none" stroke="#bfbfbf" points="163.5,-655.5 216.5,-655.5 "/>
<text text-anchor="middle" x="190" y="-643.5" font-family="Helvetica,sans-Serif" font-size="10.00"> </text>
</g>
<!-- Node2&#45;&gt;Node1 -->
<g id="edge1" class="edge"><title>Node2&#45;&gt;Node1</title>
<path fill="none" stroke="midnightblue" d="M185.59,-626.146C177.879,-551.187 165.257,-378.925 193,-238 196.156,-221.97 201.085,-205.447 206.753,-189.593"/>
<polygon fill="none" stroke="midnightblue" points="182.151,-626.909 186.686,-636.484 189.112,-626.17 182.151,-626.909"/>
</g>
<!-- Node10 -->
<g id="node10" class="node"><title>Node10</title>
<g id="a_node10"><a xlink:href="../../d1/d10/classserver_1_1irc_client.xhtml" target="_top" xlink:title="The ircClient class.">
<polygon fill="white" stroke="black" points="316.5,-238.5 316.5,-515.5 417.5,-515.5 417.5,-238.5 316.5,-238.5"/>
<text text-anchor="middle" x="367" y="-503.5" font-family="Helvetica,sans-Serif" font-size="10.00">server::ircClient</text>
<polyline fill="none" stroke="black" points="316.5,-496.5 417.5,-496.5 "/>
<text text-anchor="start" x="324.5" y="-484.5" font-family="Helvetica,sans-Serif" font-size="10.00">&#45; hostname</text>
<text text-anchor="start" x="324.5" y="-473.5" font-family="Helvetica,sans-Serif" font-size="10.00">&#45; port</text>
<text text-anchor="start" x="324.5" y="-462.5" font-family="Helvetica,sans-Serif" font-size="10.00">&#45; channel</text>
<text text-anchor="start" x="324.5" y="-451.5" font-family="Helvetica,sans-Serif" font-size="10.00">&#45; motdReceived</text>
<text text-anchor="start" x="324.5" y="-440.5" font-family="Helvetica,sans-Serif" font-size="10.00">&#45; sock</text>
<text text-anchor="start" x="324.5" y="-429.5" font-family="Helvetica,sans-Serif" font-size="10.00">&#45; buffer</text>
<polyline fill="none" stroke="black" points="316.5,-422.5 417.5,-422.5 "/>
<text text-anchor="start" x="324.5" y="-410.5" font-family="Helvetica,sans-Serif" font-size="10.00">+ ircClient()</text>
<text text-anchor="start" x="324.5" y="-399.5" font-family="Helvetica,sans-Serif" font-size="10.00">+ ~ircClient()</text>
<text text-anchor="start" x="324.5" y="-388.5" font-family="Helvetica,sans-Serif" font-size="10.00">+ connect()</text>
<text text-anchor="start" x="324.5" y="-377.5" font-family="Helvetica,sans-Serif" font-size="10.00">+ sendChat()</text>
<text text-anchor="start" x="324.5" y="-366.5" font-family="Helvetica,sans-Serif" font-size="10.00">+ sendChat()</text>
<text text-anchor="start" x="324.5" y="-355.5" font-family="Helvetica,sans-Serif" font-size="10.00">+ sendChat()</text>
<text text-anchor="start" x="324.5" y="-344.5" font-family="Helvetica,sans-Serif" font-size="10.00">+ setUser()</text>
<text text-anchor="start" x="324.5" y="-333.5" font-family="Helvetica,sans-Serif" font-size="10.00">+ getOwnNick()</text>
<text text-anchor="start" x="324.5" y="-322.5" font-family="Helvetica,sans-Serif" font-size="10.00">+ setOwnNick()</text>
<text text-anchor="start" x="324.5" y="-311.5" font-family="Helvetica,sans-Serif" font-size="10.00">+ disconnected()</text>
<text text-anchor="start" x="324.5" y="-300.5" font-family="Helvetica,sans-Serif" font-size="10.00">+ connected()</text>
<text text-anchor="start" x="324.5" y="-289.5" font-family="Helvetica,sans-Serif" font-size="10.00">+ readData()</text>
<text text-anchor="start" x="324.5" y="-278.5" font-family="Helvetica,sans-Serif" font-size="10.00">&#45; init()</text>
<text text-anchor="start" x="324.5" y="-267.5" font-family="Helvetica,sans-Serif" font-size="10.00">&#45; send()</text>
<text text-anchor="start" x="324.5" y="-256.5" font-family="Helvetica,sans-Serif" font-size="10.00">&#45; handleCommand()</text>
<text text-anchor="start" x="324.5" y="-245.5" font-family="Helvetica,sans-Serif" font-size="10.00">&#45; sendPong()</text>
</a>
</g>
</g>
<!-- Node2&#45;&gt;Node10 -->
<g id="edge13" class="edge"><title>Node2&#45;&gt;Node10</title>
<path fill="none" stroke="midnightblue" d="M194.757,-626.381C200.411,-597.182 212.66,-557.789 239,-534 262.201,-513.046 283.286,-536.372 307,-516 310.27,-513.191 313.367,-510.171 316.301,-506.979"/>
<polygon fill="none" stroke="midnightblue" points="191.308,-625.785 193.02,-636.241 198.202,-627 191.308,-625.785"/>
</g>
<!-- Node3 -->
<g id="node3" class="node"><title>Node3</title>
<g id="a_node3"><a xlink:href="../../df/dd2/classserver_1_1ui_server.xhtml" target="_top" xlink:title="The uiServer class.">
<polygon fill="white" stroke="black" points="-0.5,-576 -0.5,-754 106.5,-754 106.5,-576 -0.5,-576"/>
<text text-anchor="middle" x="53" y="-742" font-family="Helvetica,sans-Serif" font-size="10.00">server::uiServer</text>
<polyline fill="none" stroke="black" points="-0.5,-735 106.5,-735 "/>
<text text-anchor="start" x="7.5" y="-723" font-family="Helvetica,sans-Serif" font-size="10.00">&#45; connections</text>
<text text-anchor="start" x="7.5" y="-712" font-family="Helvetica,sans-Serif" font-size="10.00">&#45; port</text>
<polyline fill="none" stroke="black" points="-0.5,-705 106.5,-705 "/>
<text text-anchor="start" x="7.5" y="-693" font-family="Helvetica,sans-Serif" font-size="10.00">+ uiServer()</text>
<text text-anchor="start" x="7.5" y="-682" font-family="Helvetica,sans-Serif" font-size="10.00">+ ~uiServer()</text>
<text text-anchor="start" x="7.5" y="-671" font-family="Helvetica,sans-Serif" font-size="10.00">+ startListen()</text>
<text text-anchor="start" x="7.5" y="-660" font-family="Helvetica,sans-Serif" font-size="10.00">+ send()</text>
<text text-anchor="start" x="7.5" y="-649" font-family="Helvetica,sans-Serif" font-size="10.00">+ send()</text>
<text text-anchor="start" x="7.5" y="-638" font-family="Helvetica,sans-Serif" font-size="10.00">&#45; acceptConnection()</text>
<text text-anchor="start" x="7.5" y="-627" font-family="Helvetica,sans-Serif" font-size="10.00">&#45; lostConnection()</text>
<text text-anchor="start" x="7.5" y="-616" font-family="Helvetica,sans-Serif" font-size="10.00">&#45; chatReceived()</text>
<text text-anchor="start" x="7.5" y="-605" font-family="Helvetica,sans-Serif" font-size="10.00">&#45; doUserQuery()</text>
<text text-anchor="start" x="7.5" y="-594" font-family="Helvetica,sans-Serif" font-size="10.00">&#45; doSendEvents()</text>
<text text-anchor="start" x="7.5" y="-583" font-family="Helvetica,sans-Serif" font-size="10.00">&#45; changeOwnUser()</text>
</a>
</g>
</g>
<!-- Node3&#45;&gt;Node1 -->
<g id="edge2" class="edge"><title>Node3&#45;&gt;Node1</title>
<path fill="none" stroke="#404040" d="M56.2075,-575.913C61.2277,-488.628 74.0876,-351.874 107,-238 117.779,-200.706 146.078,-169.064 174.685,-145.181"/>
<polygon fill="none" stroke="#404040" points="175.025,-144.907 177.191,-138.029 184.373,-137.382 182.207,-144.261 175.025,-144.907"/>
<text text-anchor="middle" x="114" y="-374.5" font-family="Helvetica,sans-Serif" font-size="10.00"> &#45;ui</text>
</g>
<!-- Node4 -->
<g id="node4" class="node"><title>Node4</title>
<polygon fill="white" stroke="#bfbfbf" points="20,-875.5 20,-932.5 86,-932.5 86,-875.5 20,-875.5"/>
<text text-anchor="middle" x="53" y="-920.5" font-family="Helvetica,sans-Serif" font-size="10.00">QTcpServer</text>
<polyline fill="none" stroke="#bfbfbf" points="20,-913.5 86,-913.5 "/>
<text text-anchor="middle" x="53" y="-901.5" font-family="Helvetica,sans-Serif" font-size="10.00"> </text>
<polyline fill="none" stroke="#bfbfbf" points="20,-894.5 86,-894.5 "/>
<text text-anchor="middle" x="53" y="-882.5" font-family="Helvetica,sans-Serif" font-size="10.00"> </text>
</g>
<!-- Node4&#45;&gt;Node3 -->
<g id="edge3" class="edge"><title>Node4&#45;&gt;Node3</title>
<path fill="none" stroke="midnightblue" d="M53,-864.964C53,-835.101 53,-792.317 53,-754.07"/>
<polygon fill="none" stroke="midnightblue" points="49.5001,-865.349 53,-875.349 56.5001,-865.349 49.5001,-865.349"/>
</g>
<!-- Node5 -->
<g id="node5" class="node"><title>Node5</title>
<g id="a_node5"><a xlink:href="../../da/d64/class_k4_u_1_1cls_log.xhtml" target="_top" xlink:title="Custom logging class.">
<polygon fill="white" stroke="black" points="159.5,-815 159.5,-993 238.5,-993 238.5,-815 159.5,-815"/>
<text text-anchor="middle" x="199" y="-981" font-family="Helvetica,sans-Serif" font-size="10.00">K4U::clsLog</text>
<polyline fill="none" stroke="black" points="159.5,-974 238.5,-974 "/>
<text text-anchor="start" x="167.5" y="-962" font-family="Helvetica,sans-Serif" font-size="10.00">&#45; isFirst</text>
<text text-anchor="start" x="167.5" y="-951" font-family="Helvetica,sans-Serif" font-size="10.00">&#45; tag</text>
<text text-anchor="start" x="167.5" y="-940" font-family="Helvetica,sans-Serif" font-size="10.00">&#45; prf</text>
<polyline fill="none" stroke="black" points="159.5,-933 238.5,-933 "/>
<text text-anchor="start" x="167.5" y="-921" font-family="Helvetica,sans-Serif" font-size="10.00">+ clsLog()</text>
<text text-anchor="start" x="167.5" y="-910" font-family="Helvetica,sans-Serif" font-size="10.00">+ operator&lt;&lt;()</text>
<text text-anchor="start" x="167.5" y="-899" font-family="Helvetica,sans-Serif" font-size="10.00">+ operator&lt;&lt;()</text>
<text text-anchor="start" x="167.5" y="-888" font-family="Helvetica,sans-Serif" font-size="10.00">+ operator&lt;&lt;()</text>
<text text-anchor="start" x="167.5" y="-877" font-family="Helvetica,sans-Serif" font-size="10.00">+ operator&lt;&lt;()</text>
<text text-anchor="start" x="167.5" y="-866" font-family="Helvetica,sans-Serif" font-size="10.00">+ operator&lt;&lt;()</text>
<text text-anchor="start" x="167.5" y="-855" font-family="Helvetica,sans-Serif" font-size="10.00">+ operator&lt;&lt;()</text>
<text text-anchor="start" x="167.5" y="-844" font-family="Helvetica,sans-Serif" font-size="10.00">and 9 more...</text>
<text text-anchor="start" x="167.5" y="-833" font-family="Helvetica,sans-Serif" font-size="10.00">&#45; prefix()</text>
<text text-anchor="start" x="167.5" y="-822" font-family="Helvetica,sans-Serif" font-size="10.00">&#45; getTag()</text>
</a>
</g>
</g>
<!-- Node5&#45;&gt;Node3 -->
<g id="edge4" class="edge"><title>Node5&#45;&gt;Node3</title>
<path fill="none" stroke="#404040" d="M159.241,-866.23C139.98,-846.791 117.687,-821.675 102,-796 96.1203,-786.376 90.7538,-775.931 85.9091,-765.286"/>
<polygon fill="none" stroke="#404040" points="85.8478,-765.145 79.7824,-761.245 81.0498,-754.146 87.1151,-758.046 85.8478,-765.145"/>
<text text-anchor="middle" x="111.5" y="-787.5" font-family="Helvetica,sans-Serif" font-size="10.00"> &#45;log</text>
</g>
<!-- Node7 -->
<g id="node7" class="node"><title>Node7</title>
<g id="a_node7"><a xlink:href="../../d2/d29/classserver_1_1irc_user.xhtml" target="_top" xlink:title="The ircUser class.">
<polygon fill="white" stroke="black" points="447,-565 447,-765 527,-765 527,-565 447,-565"/>
<text text-anchor="middle" x="487" y="-753" font-family="Helvetica,sans-Serif" font-size="10.00">server::ircUser</text>
<polyline fill="none" stroke="black" points="447,-746 527,-746 "/>
<text text-anchor="start" x="455" y="-734" font-family="Helvetica,sans-Serif" font-size="10.00">&#45; name</text>
<text text-anchor="start" x="455" y="-723" font-family="Helvetica,sans-Serif" font-size="10.00">&#45; ircId</text>
<text text-anchor="start" x="455" y="-712" font-family="Helvetica,sans-Serif" font-size="10.00">&#45; id</text>
<text text-anchor="start" x="455" y="-701" font-family="Helvetica,sans-Serif" font-size="10.00">&#45; status</text>
<text text-anchor="start" x="455" y="-690" font-family="Helvetica,sans-Serif" font-size="10.00">&#45; email</text>
<text text-anchor="start" x="455" y="-679" font-family="Helvetica,sans-Serif" font-size="10.00">&#45; online</text>
<text text-anchor="start" x="455" y="-668" font-family="Helvetica,sans-Serif" font-size="10.00">&#45; standard</text>
<polyline fill="none" stroke="black" points="447,-661 527,-661 "/>
<text text-anchor="start" x="455" y="-649" font-family="Helvetica,sans-Serif" font-size="10.00">+ ircUser()</text>
<text text-anchor="start" x="455" y="-638" font-family="Helvetica,sans-Serif" font-size="10.00">+ ircUser()</text>
<text text-anchor="start" x="455" y="-627" font-family="Helvetica,sans-Serif" font-size="10.00">+ ircUser()</text>
<text text-anchor="start" x="455" y="-616" font-family="Helvetica,sans-Serif" font-size="10.00">+ ircUser()</text>
<text text-anchor="start" x="455" y="-605" font-family="Helvetica,sans-Serif" font-size="10.00">+ getName()</text>
<text text-anchor="start" x="455" y="-594" font-family="Helvetica,sans-Serif" font-size="10.00">+ getOnline()</text>
<text text-anchor="start" x="455" y="-583" font-family="Helvetica,sans-Serif" font-size="10.00">+ getStatus()</text>
<text text-anchor="start" x="455" y="-572" font-family="Helvetica,sans-Serif" font-size="10.00">and 12 more...</text>
</a>
</g>
</g>
<!-- Node5&#45;&gt;Node7 -->
<g id="edge8" class="edge"><title>Node5&#45;&gt;Node7</title>
<path fill="none" stroke="#404040" d="M238.74,-882.556C283.376,-858.435 356.556,-815.316 410,-766 420.316,-756.481 430.291,-745.464 439.45,-734.294"/>
<polygon fill="none" stroke="#404040" points="439.456,-734.286 440.071,-727.101 446.94,-724.906 446.325,-732.091 439.456,-734.286"/>
<text text-anchor="middle" x="394.5" y="-787.5" font-family="Helvetica,sans-Serif" font-size="10.00"> &#45;log</text>
</g>
<!-- Node5&#45;&gt;Node1 -->
<g id="edge9" class="edge"><title>Node5&#45;&gt;Node1</title>
<path fill="none" stroke="#404040" d="M166.266,-814.801C161.586,-798.77 157.513,-782.042 155,-766 118.665,-534.04 107.532,-463.764 172,-238 175.548,-225.576 180.334,-213.038 185.8,-200.827"/>
<polygon fill="none" stroke="#404040" points="185.911,-200.589 184.829,-193.459 190.994,-189.718 192.076,-196.848 185.911,-200.589"/>
<text text-anchor="middle" x="136.5" y="-537.5" font-family="Helvetica,sans-Serif" font-size="10.00"> &#45;log</text>
</g>
<!-- Node5&#45;&gt;Node10 -->
<g id="edge15" class="edge"><title>Node5&#45;&gt;Node10</title>
<path fill="none" stroke="#404040" d="M215.797,-814.947C218.876,-798.675 222.049,-781.826 225,-766 241.731,-676.275 220.896,-645.492 262,-564 275.169,-537.891 290.934,-540.434 307,-516 308.009,-514.465 309.008,-512.911 309.997,-511.338"/>
<polygon fill="none" stroke="#404040" points="310.189,-511.018 309.85,-503.814 316.369,-500.731 316.708,-507.934 310.189,-511.018"/>
<text text-anchor="middle" x="271.5" y="-662.5" font-family="Helvetica,sans-Serif" font-size="10.00"> &#45;log</text>
</g>
<!-- Node6 -->
<g id="node6" class="node"><title>Node6</title>
<g id="a_node6"><a xlink:href="../../d4/d08/classserver_1_1irc_user_list.xhtml" target="_top" xlink:title="Contains all the users.">
<polygon fill="white" stroke="black" points="201.5,-299 201.5,-455 298.5,-455 298.5,-299 201.5,-299"/>
<text text-anchor="middle" x="250" y="-443" font-family="Helvetica,sans-Serif" font-size="10.00">server::ircUserList</text>
<polyline fill="none" stroke="black" points="201.5,-436 298.5,-436 "/>
<text text-anchor="start" x="209.5" y="-424" font-family="Helvetica,sans-Serif" font-size="10.00">&#45; users</text>
<text text-anchor="start" x="209.5" y="-413" font-family="Helvetica,sans-Serif" font-size="10.00">&#45; lastId</text>
<polyline fill="none" stroke="black" points="201.5,-406 298.5,-406 "/>
<text text-anchor="start" x="209.5" y="-394" font-family="Helvetica,sans-Serif" font-size="10.00">+ ircUserList()</text>
<text text-anchor="start" x="209.5" y="-383" font-family="Helvetica,sans-Serif" font-size="10.00">+ add()</text>
<text text-anchor="start" x="209.5" y="-372" font-family="Helvetica,sans-Serif" font-size="10.00">+ del()</text>
<text text-anchor="start" x="209.5" y="-361" font-family="Helvetica,sans-Serif" font-size="10.00">+ getUserByNick()</text>
<text text-anchor="start" x="209.5" y="-350" font-family="Helvetica,sans-Serif" font-size="10.00">+ getUser()</text>
<text text-anchor="start" x="209.5" y="-339" font-family="Helvetica,sans-Serif" font-size="10.00">+ findUser()</text>
<text text-anchor="start" x="209.5" y="-328" font-family="Helvetica,sans-Serif" font-size="10.00">+ getUserById()</text>
<text text-anchor="start" x="209.5" y="-317" font-family="Helvetica,sans-Serif" font-size="10.00">+ getUserByIrcId()</text>
<text text-anchor="start" x="209.5" y="-306" font-family="Helvetica,sans-Serif" font-size="10.00">+ getAll()</text>
</a>
</g>
</g>
<!-- Node6&#45;&gt;Node1 -->
<g id="edge5" class="edge"><title>Node6&#45;&gt;Node1</title>
<path fill="none" stroke="#404040" d="M250,-298.748C250,-268.821 250,-234.07 250,-201.882"/>
<polygon fill="none" stroke="#404040" points="250,-201.687 246,-195.687 250,-189.687 254,-195.687 250,-201.687"/>
<text text-anchor="middle" x="265.5" y="-211.5" font-family="Helvetica,sans-Serif" font-size="10.00"> &#45;users</text>
</g>
<!-- Node7&#45;&gt;Node1 -->
<g id="edge6" class="edge"><title>Node7&#45;&gt;Node1</title>
<path fill="none" stroke="#404040" d="M527.162,-584.414C566.801,-493.553 612.617,-343.844 546,-238 498.43,-162.419 398.207,-126.163 327.603,-109.407"/>
<polygon fill="none" stroke="#404040" points="327.364,-109.352 320.626,-111.922 315.663,-106.691 322.401,-104.121 327.364,-109.352"/>
<text text-anchor="middle" x="601" y="-374.5" font-family="Helvetica,sans-Serif" font-size="10.00"> &#45;ownUser</text>
</g>
<!-- Node9 -->
<g id="node9" class="node"><title>Node9</title>
<g id="a_node9"><a xlink:href="../../d7/d81/classserver_1_1cls_settings.xhtml" target="_top" xlink:title="Settings class.">
<polygon fill="white" stroke="black" points="436,-277 436,-477 538,-477 538,-277 436,-277"/>
<text text-anchor="middle" x="487" y="-465" font-family="Helvetica,sans-Serif" font-size="10.00">server::clsSettings</text>
<polyline fill="none" stroke="black" points="436,-458 538,-458 "/>
<text text-anchor="start" x="444" y="-446" font-family="Helvetica,sans-Serif" font-size="10.00">&#45; server</text>
<text text-anchor="start" x="444" y="-435" font-family="Helvetica,sans-Serif" font-size="10.00">&#45; channel</text>
<text text-anchor="start" x="444" y="-424" font-family="Helvetica,sans-Serif" font-size="10.00">&#45; listeningPort</text>
<text text-anchor="start" x="444" y="-413" font-family="Helvetica,sans-Serif" font-size="10.00">&#45; users</text>
<polyline fill="none" stroke="black" points="436,-406 538,-406 "/>
<text text-anchor="start" x="444" y="-394" font-family="Helvetica,sans-Serif" font-size="10.00">+ clsSettings()</text>
<text text-anchor="start" x="444" y="-383" font-family="Helvetica,sans-Serif" font-size="10.00">+ getListeningPort()</text>
<text text-anchor="start" x="444" y="-372" font-family="Helvetica,sans-Serif" font-size="10.00">+ getServer()</text>
<text text-anchor="start" x="444" y="-361" font-family="Helvetica,sans-Serif" font-size="10.00">+ getChannel()</text>
<text text-anchor="start" x="444" y="-350" font-family="Helvetica,sans-Serif" font-size="10.00">+ getUserName()</text>
<text text-anchor="start" x="444" y="-339" font-family="Helvetica,sans-Serif" font-size="10.00">+ getOwnUser()</text>
<text text-anchor="start" x="444" y="-328" font-family="Helvetica,sans-Serif" font-size="10.00">+ getUsers()</text>
<text text-anchor="start" x="444" y="-317" font-family="Helvetica,sans-Serif" font-size="10.00">&#45; readUiSettings()</text>
<text text-anchor="start" x="444" y="-306" font-family="Helvetica,sans-Serif" font-size="10.00">&#45; readServer()</text>
<text text-anchor="start" x="444" y="-295" font-family="Helvetica,sans-Serif" font-size="10.00">&#45; readUsers()</text>
<text text-anchor="start" x="444" y="-284" font-family="Helvetica,sans-Serif" font-size="10.00">&#45; readUserInfo()</text>
</a>
</g>
</g>
<!-- Node7&#45;&gt;Node9 -->
<g id="edge11" class="edge"><title>Node7&#45;&gt;Node9</title>
<path fill="none" stroke="#404040" d="M492.407,-564.865C492.642,-558.482 492.844,-552.152 493,-546 493.467,-527.604 493.341,-508.078 492.884,-489.095"/>
<polygon fill="none" stroke="#404040" points="492.882,-489.036 488.717,-483.149 492.549,-477.04 496.714,-482.927 492.882,-489.036"/>
<text text-anchor="middle" x="516" y="-537.5" font-family="Helvetica,sans-Serif" font-size="10.00"> &#45;ownUser</text>
</g>
<!-- Node7&#45;&gt;Node10 -->
<g id="edge14" class="edge"><title>Node7&#45;&gt;Node10</title>
<path fill="none" stroke="#404040" d="M446.875,-568.369C438.978,-549.548 430.564,-529.494 422.271,-509.728"/>
<polygon fill="none" stroke="#404040" points="422.187,-509.528 416.177,-505.543 417.544,-498.462 423.554,-502.448 422.187,-509.528"/>
<text text-anchor="middle" x="457" y="-537.5" font-family="Helvetica,sans-Serif" font-size="10.00"> &#45;ownUser</text>
</g>
<!-- Node8 -->
<g id="node8" class="node"><title>Node8</title>
<g id="a_node8"><a xlink:href="../../db/d31/structserver_1_1irc_user_1_1user_color.xhtml" target="_top" xlink:title="The userColor struct As a replacement for the QColor type.">
<polygon fill="white" stroke="black" points="424,-864.5 424,-943.5 550,-943.5 550,-864.5 424,-864.5"/>
<text text-anchor="middle" x="487" y="-931.5" font-family="Helvetica,sans-Serif" font-size="10.00">server::ircUser::userColor</text>
<polyline fill="none" stroke="black" points="424,-924.5 550,-924.5 "/>
<text text-anchor="start" x="432" y="-912.5" font-family="Helvetica,sans-Serif" font-size="10.00">+ r</text>
<text text-anchor="start" x="432" y="-901.5" font-family="Helvetica,sans-Serif" font-size="10.00">+ g</text>
<text text-anchor="start" x="432" y="-890.5" font-family="Helvetica,sans-Serif" font-size="10.00">+ b</text>
<polyline fill="none" stroke="black" points="424,-883.5 550,-883.5 "/>
<text text-anchor="middle" x="487" y="-871.5" font-family="Helvetica,sans-Serif" font-size="10.00"> </text>
</a>
</g>
</g>
<!-- Node8&#45;&gt;Node7 -->
<g id="edge7" class="edge"><title>Node8&#45;&gt;Node7</title>
<path fill="none" stroke="#404040" d="M487,-864.394C487,-840.599 487,-808.757 487,-777.56"/>
<polygon fill="none" stroke="#404040" points="487,-777.19 483,-771.19 487,-765.19 491,-771.19 487,-777.19"/>
<text text-anchor="middle" x="504" y="-787.5" font-family="Helvetica,sans-Serif" font-size="10.00"> &#45;uColor</text>
</g>
<!-- Node9&#45;&gt;Node1 -->
<g id="edge10" class="edge"><title>Node9&#45;&gt;Node1</title>
<path fill="none" stroke="#404040" d="M450.193,-276.958C443.147,-263.264 435.084,-249.849 426,-238 398.389,-201.984 359.831,-169.543 325.84,-144.79"/>
<polygon fill="none" stroke="#404040" points="325.679,-144.675 318.472,-144.434 315.922,-137.688 323.129,-137.929 325.679,-144.675"/>
<text text-anchor="middle" x="431.5" y="-211.5" font-family="Helvetica,sans-Serif" font-size="10.00"> &#45;settings</text>
</g>
<!-- Node10&#45;&gt;Node1 -->
<g id="edge12" class="edge"><title>Node10&#45;&gt;Node1</title>
<path fill="none" stroke="#404040" d="M316.363,-254.816C308.829,-236.787 301.118,-218.334 293.742,-200.682"/>
<polygon fill="none" stroke="#404040" points="293.7,-200.582 287.696,-196.588 289.074,-189.51 295.078,-193.504 293.7,-200.582"/>
<text text-anchor="middle" x="310.5" y="-211.5" font-family="Helvetica,sans-Serif" font-size="10.00"> &#45;irc</text>
</g>
<!-- Node11 -->
<g id="node11" class="node"><title>Node11</title>
<g id="a_node11"><a xlink:href="../../da/d6a/structserver_1_1nick_and_status.xhtml" target="_top" xlink:title="The nickAndStatus struct.">
<polygon fill="white" stroke="black" points="290,-631 290,-699 402,-699 402,-631 290,-631"/>
<text text-anchor="middle" x="346" y="-687" font-family="Helvetica,sans-Serif" font-size="10.00">server::nickAndStatus</text>
<polyline fill="none" stroke="black" points="290,-680 402,-680 "/>
<text text-anchor="start" x="298" y="-668" font-family="Helvetica,sans-Serif" font-size="10.00">+ nick</text>
<text text-anchor="start" x="298" y="-657" font-family="Helvetica,sans-Serif" font-size="10.00">+ status</text>
<polyline fill="none" stroke="black" points="290,-650 402,-650 "/>
<text text-anchor="middle" x="346" y="-638" font-family="Helvetica,sans-Serif" font-size="10.00"> </text>
</a>
</g>
</g>
<!-- Node11&#45;&gt;Node10 -->
<g id="edge16" class="edge"><title>Node11&#45;&gt;Node10</title>
<path fill="none" stroke="#404040" d="M342.805,-630.977C340.684,-607.339 338.095,-574.743 337,-546 336.776,-540.111 336.767,-534.123 336.943,-528.087"/>
<polygon fill="none" stroke="#404040" points="336.965,-527.631 333.263,-521.443 337.551,-515.646 341.253,-521.834 336.965,-527.631"/>
<text text-anchor="middle" x="381.5" y="-537.5" font-family="Helvetica,sans-Serif" font-size="10.00"> &#45;ownNickAndStatus</text>
</g>
</g>
</svg>
