<?xml version="1.0" encoding="UTF-8" standalone="no"?>
<!DOCTYPE svg PUBLIC "-//W3C//DTD SVG 1.1//EN"
 "http://www.w3.org/Graphics/SVG/1.1/DTD/svg11.dtd">
<!-- Generated by graphviz version 2.30.1 (20130303.0817)
 -->
<!-- Title: server::mainApp Pages: 1 -->
<svg width="664pt" height="1070pt"
 viewBox="0.00 0.00 664.00 1070.00" xmlns="http://www.w3.org/2000/svg" xmlns:xlink="http://www.w3.org/1999/xlink">
<g id="graph0" class="graph" transform="scale(1 1) rotate(0) translate(4 1066)">
<title>server::mainApp</title>
<polygon fill="white" stroke="white" points="-4,5 -4,-1066 661,-1066 661,5 -4,5"/>
<!-- Node1 -->
<g id="node1" class="node"><title>Node1</title>
<polygon fill="#bfbfbf" stroke="black" points="194,-1 194,-201 306,-201 306,-1 194,-1"/>
<text text-anchor="middle" x="250" y="-189" font-family="Helvetica,sans-Serif" font-size="10.00">server::mainApp</text>
<polyline fill="none" stroke="black" points="194,-182 306,-182 "/>
<text text-anchor="start" x="202" y="-170" font-family="Helvetica,sans-Serif" font-size="10.00">&#45; events</text>
<text text-anchor="start" x="202" y="-159" font-family="Helvetica,sans-Serif" font-size="10.00">&#45; reconnectTimer</text>
<text text-anchor="start" x="202" y="-148" font-family="Helvetica,sans-Serif" font-size="10.00">&#45; TAG</text>
<polyline fill="none" stroke="black" points="194,-141 306,-141 "/>
<text text-anchor="start" x="202" y="-129" font-family="Helvetica,sans-Serif" font-size="10.00">+ mainApp()</text>
<text text-anchor="start" x="202" y="-118" font-family="Helvetica,sans-Serif" font-size="10.00">+ run()</text>
<text text-anchor="start" x="202" y="-107" font-family="Helvetica,sans-Serif" font-size="10.00">+ serverMessage()</text>
<text text-anchor="start" x="202" y="-96" font-family="Helvetica,sans-Serif" font-size="10.00">+ chatReceived()</text>
<text text-anchor="start" x="202" y="-85" font-family="Helvetica,sans-Serif" font-size="10.00">+ userOnline()</text>
<text text-anchor="start" x="202" y="-74" font-family="Helvetica,sans-Serif" font-size="10.00">+ userOffline()</text>
<text text-anchor="start" x="202" y="-63" font-family="Helvetica,sans-Serif" font-size="10.00">+ userChangeNick()</text>
<text text-anchor="start" x="202" y="-52" font-family="Helvetica,sans-Serif" font-size="10.00">+ userChangeStatus()</text>
<text text-anchor="start" x="202" y="-41" font-family="Helvetica,sans-Serif" font-size="10.00">+ uiSendChat()</text>
<text text-anchor="start" x="202" y="-30" font-family="Helvetica,sans-Serif" font-size="10.00">+ doUserQuery()</text>
<text text-anchor="start" x="202" y="-19" font-family="Helvetica,sans-Serif" font-size="10.00">and 6 more...</text>
<text text-anchor="start" x="202" y="-8" font-family="Helvetica,sans-Serif" font-size="10.00">&#45; addToEventHistory()</text>
</g>
<!-- Node2 -->
<g id="node2" class="node"><title>Node2</title>
<polygon fill="white" stroke="#bfbfbf" points="163.5,-704.5 163.5,-761.5 216.5,-761.5 216.5,-704.5 163.5,-704.5"/>
<text text-anchor="middle" x="190" y="-749.5" font-family="Helvetica,sans-Serif" font-size="10.00">QObject</text>
<polyline fill="none" stroke="#bfbfbf" points="163.5,-742.5 216.5,-742.5 "/>
<text text-anchor="middle" x="190" y="-730.5" font-family="Helvetica,sans-Serif" font-size="10.00"> </text>
<polyline fill="none" stroke="#bfbfbf" points="163.5,-723.5 216.5,-723.5 "/>
<text text-anchor="middle" x="190" y="-711.5" font-family="Helvetica,sans-Serif" font-size="10.00"> </text>
</g>
<!-- Node2&#45;&gt;Node1 -->
<g id="edge1" class="edge"><title>Node2&#45;&gt;Node1</title>
<path fill="none" stroke="midnightblue" d="M185.664,-694.188C177.269,-612.318 162.192,-412.891 193,-250 196.045,-233.903 200.753,-217.293 206.187,-201.279"/>
<polygon fill="none" stroke="midnightblue" points="182.221,-694.913 186.75,-704.491 189.182,-694.179 182.221,-694.913"/>
</g>
<!-- Node10 -->
<g id="node10" class="node"><title>Node10</title>
<g id="a_node10"><a xlink:href="../../d1/d10/classserver_1_1irc_client.html" target="_top" xlink:title="The ircClient class.">
<polygon fill="white" stroke="black" points="316.5,-251 316.5,-583 417.5,-583 417.5,-251 316.5,-251"/>
<text text-anchor="middle" x="367" y="-571" font-family="Helvetica,sans-Serif" font-size="10.00">server::ircClient</text>
<polyline fill="none" stroke="black" points="316.5,-564 417.5,-564 "/>
<text text-anchor="start" x="324.5" y="-552" font-family="Helvetica,sans-Serif" font-size="10.00">&#45; hostname</text>
<text text-anchor="start" x="324.5" y="-541" font-family="Helvetica,sans-Serif" font-size="10.00">&#45; port</text>
<text text-anchor="start" x="324.5" y="-530" font-family="Helvetica,sans-Serif" font-size="10.00">&#45; channel</text>
<text text-anchor="start" x="324.5" y="-519" font-family="Helvetica,sans-Serif" font-size="10.00">&#45; motdReceived</text>
<text text-anchor="start" x="324.5" y="-508" font-family="Helvetica,sans-Serif" font-size="10.00">&#45; sock</text>
<text text-anchor="start" x="324.5" y="-497" font-family="Helvetica,sans-Serif" font-size="10.00">&#45; buffer</text>
<text text-anchor="start" x="324.5" y="-486" font-family="Helvetica,sans-Serif" font-size="10.00">&#45; connected</text>
<text text-anchor="start" x="324.5" y="-475" font-family="Helvetica,sans-Serif" font-size="10.00">and 6 more...</text>
<polyline fill="none" stroke="black" points="316.5,-468 417.5,-468 "/>
<text text-anchor="start" x="324.5" y="-456" font-family="Helvetica,sans-Serif" font-size="10.00">+ ircClient()</text>
<text text-anchor="start" x="324.5" y="-445" font-family="Helvetica,sans-Serif" font-size="10.00">+ ~ircClient()</text>
<text text-anchor="start" x="324.5" y="-434" font-family="Helvetica,sans-Serif" font-size="10.00">+ doConnect()</text>
<text text-anchor="start" x="324.5" y="-423" font-family="Helvetica,sans-Serif" font-size="10.00">+ setOwnUser()</text>
<text text-anchor="start" x="324.5" y="-412" font-family="Helvetica,sans-Serif" font-size="10.00">+ sendChat()</text>
<text text-anchor="start" x="324.5" y="-401" font-family="Helvetica,sans-Serif" font-size="10.00">+ sendChat()</text>
<text text-anchor="start" x="324.5" y="-390" font-family="Helvetica,sans-Serif" font-size="10.00">+ sendChat()</text>
<text text-anchor="start" x="324.5" y="-379" font-family="Helvetica,sans-Serif" font-size="10.00">+ setUser()</text>
<text text-anchor="start" x="324.5" y="-368" font-family="Helvetica,sans-Serif" font-size="10.00">+ getOwnNick()</text>
<text text-anchor="start" x="324.5" y="-357" font-family="Helvetica,sans-Serif" font-size="10.00">+ setOwnNick()</text>
<text text-anchor="start" x="324.5" y="-346" font-family="Helvetica,sans-Serif" font-size="10.00">+ disconnected()</text>
<text text-anchor="start" x="324.5" y="-335" font-family="Helvetica,sans-Serif" font-size="10.00">+ sltConnected()</text>
<text text-anchor="start" x="324.5" y="-324" font-family="Helvetica,sans-Serif" font-size="10.00">+ readData()</text>
<text text-anchor="start" x="324.5" y="-313" font-family="Helvetica,sans-Serif" font-size="10.00">+ connectTimeout()</text>
<text text-anchor="start" x="324.5" y="-302" font-family="Helvetica,sans-Serif" font-size="10.00">+ checkForPing()</text>
<text text-anchor="start" x="324.5" y="-291" font-family="Helvetica,sans-Serif" font-size="10.00">&#45; init()</text>
<text text-anchor="start" x="324.5" y="-280" font-family="Helvetica,sans-Serif" font-size="10.00">&#45; send()</text>
<text text-anchor="start" x="324.5" y="-269" font-family="Helvetica,sans-Serif" font-size="10.00">&#45; handleCommand()</text>
<text text-anchor="start" x="324.5" y="-258" font-family="Helvetica,sans-Serif" font-size="10.00">&#45; sendPong()</text>
</a>
</g>
</g>
<!-- Node2&#45;&gt;Node10 -->
<g id="edge13" class="edge"><title>Node2&#45;&gt;Node10</title>
<path fill="none" stroke="midnightblue" d="M194.757,-694.381C200.411,-665.182 212.66,-625.789 239,-602 262.201,-581.046 283.942,-605.112 307,-584 310.277,-580.999 313.376,-577.806 316.305,-574.452"/>
<polygon fill="none" stroke="midnightblue" points="191.308,-693.785 193.02,-704.241 198.202,-695 191.308,-693.785"/>
</g>
<!-- Node3 -->
<g id="node3" class="node"><title>Node3</title>
<g id="a_node3"><a xlink:href="../../df/dd2/classserver_1_1ui_server.html" target="_top" xlink:title="The uiServer class.">
<polygon fill="white" stroke="black" points="-0.5,-644 -0.5,-822 106.5,-822 106.5,-644 -0.5,-644"/>
<text text-anchor="middle" x="53" y="-810" font-family="Helvetica,sans-Serif" font-size="10.00">server::uiServer</text>
<polyline fill="none" stroke="black" points="-0.5,-803 106.5,-803 "/>
<text text-anchor="start" x="7.5" y="-791" font-family="Helvetica,sans-Serif" font-size="10.00">&#45; connections</text>
<text text-anchor="start" x="7.5" y="-780" font-family="Helvetica,sans-Serif" font-size="10.00">&#45; port</text>
<polyline fill="none" stroke="black" points="-0.5,-773 106.5,-773 "/>
<text text-anchor="start" x="7.5" y="-761" font-family="Helvetica,sans-Serif" font-size="10.00">+ uiServer()</text>
<text text-anchor="start" x="7.5" y="-750" font-family="Helvetica,sans-Serif" font-size="10.00">+ ~uiServer()</text>
<text text-anchor="start" x="7.5" y="-739" font-family="Helvetica,sans-Serif" font-size="10.00">+ startListen()</text>
<text text-anchor="start" x="7.5" y="-728" font-family="Helvetica,sans-Serif" font-size="10.00">+ send()</text>
<text text-anchor="start" x="7.5" y="-717" font-family="Helvetica,sans-Serif" font-size="10.00">+ send()</text>
<text text-anchor="start" x="7.5" y="-706" font-family="Helvetica,sans-Serif" font-size="10.00">&#45; acceptConnection()</text>
<text text-anchor="start" x="7.5" y="-695" font-family="Helvetica,sans-Serif" font-size="10.00">&#45; lostConnection()</text>
<text text-anchor="start" x="7.5" y="-684" font-family="Helvetica,sans-Serif" font-size="10.00">&#45; chatReceived()</text>
<text text-anchor="start" x="7.5" y="-673" font-family="Helvetica,sans-Serif" font-size="10.00">&#45; doUserQuery()</text>
<text text-anchor="start" x="7.5" y="-662" font-family="Helvetica,sans-Serif" font-size="10.00">&#45; doSendEvents()</text>
<text text-anchor="start" x="7.5" y="-651" font-family="Helvetica,sans-Serif" font-size="10.00">&#45; changeOwnUser()</text>
</a>
</g>
</g>
<!-- Node3&#45;&gt;Node1 -->
<g id="edge2" class="edge"><title>Node3&#45;&gt;Node1</title>
<path fill="none" stroke="#404040" d="M54.3474,-643.732C57.796,-545.81 69.3359,-383.953 107,-250 118.92,-207.608 152.508,-171.73 184.137,-145.92"/>
<polygon fill="none" stroke="#404040" points="184.447,-145.675 186.677,-138.817 193.864,-138.237 191.635,-145.095 184.447,-145.675"/>
<text text-anchor="middle" x="114" y="-414.5" font-family="Helvetica,sans-Serif" font-size="10.00"> &#45;ui</text>
</g>
<!-- Node4 -->
<g id="node4" class="node"><title>Node4</title>
<polygon fill="white" stroke="#bfbfbf" points="20,-943.5 20,-1000.5 86,-1000.5 86,-943.5 20,-943.5"/>
<text text-anchor="middle" x="53" y="-988.5" font-family="Helvetica,sans-Serif" font-size="10.00">QTcpServer</text>
<polyline fill="none" stroke="#bfbfbf" points="20,-981.5 86,-981.5 "/>
<text text-anchor="middle" x="53" y="-969.5" font-family="Helvetica,sans-Serif" font-size="10.00"> </text>
<polyline fill="none" stroke="#bfbfbf" points="20,-962.5 86,-962.5 "/>
<text text-anchor="middle" x="53" y="-950.5" font-family="Helvetica,sans-Serif" font-size="10.00"> </text>
</g>
<!-- Node4&#45;&gt;Node3 -->
<g id="edge3" class="edge"><title>Node4&#45;&gt;Node3</title>
<path fill="none" stroke="midnightblue" d="M53,-932.964C53,-903.101 53,-860.317 53,-822.07"/>
<polygon fill="none" stroke="midnightblue" points="49.5001,-933.349 53,-943.349 56.5001,-933.349 49.5001,-933.349"/>
</g>
<!-- Node5 -->
<g id="node5" class="node"><title>Node5</title>
<g id="a_node5"><a xlink:href="../../da/d64/class_k4_u_1_1cls_log.html" target="_top" xlink:title="Custom logging class.">
<polygon fill="white" stroke="black" points="159.5,-883 159.5,-1061 238.5,-1061 238.5,-883 159.5,-883"/>
<text text-anchor="middle" x="199" y="-1049" font-family="Helvetica,sans-Serif" font-size="10.00">K4U::clsLog</text>
<polyline fill="none" stroke="black" points="159.5,-1042 238.5,-1042 "/>
<text text-anchor="start" x="167.5" y="-1030" font-family="Helvetica,sans-Serif" font-size="10.00">&#45; isFirst</text>
<text text-anchor="start" x="167.5" y="-1019" font-family="Helvetica,sans-Serif" font-size="10.00">&#45; tag</text>
<text text-anchor="start" x="167.5" y="-1008" font-family="Helvetica,sans-Serif" font-size="10.00">&#45; prf</text>
<polyline fill="none" stroke="black" points="159.5,-1001 238.5,-1001 "/>
<text text-anchor="start" x="167.5" y="-989" font-family="Helvetica,sans-Serif" font-size="10.00">+ clsLog()</text>
<text text-anchor="start" x="167.5" y="-978" font-family="Helvetica,sans-Serif" font-size="10.00">+ operator&lt;&lt;()</text>
<text text-anchor="start" x="167.5" y="-967" font-family="Helvetica,sans-Serif" font-size="10.00">+ operator&lt;&lt;()</text>
<text text-anchor="start" x="167.5" y="-956" font-family="Helvetica,sans-Serif" font-size="10.00">+ operator&lt;&lt;()</text>
<text text-anchor="start" x="167.5" y="-945" font-family="Helvetica,sans-Serif" font-size="10.00">+ operator&lt;&lt;()</text>
<text text-anchor="start" x="167.5" y="-934" font-family="Helvetica,sans-Serif" font-size="10.00">+ operator&lt;&lt;()</text>
<text text-anchor="start" x="167.5" y="-923" font-family="Helvetica,sans-Serif" font-size="10.00">+ operator&lt;&lt;()</text>
<text text-anchor="start" x="167.5" y="-912" font-family="Helvetica,sans-Serif" font-size="10.00">and 9 more...</text>
<text text-anchor="start" x="167.5" y="-901" font-family="Helvetica,sans-Serif" font-size="10.00">&#45; prefix()</text>
<text text-anchor="start" x="167.5" y="-890" font-family="Helvetica,sans-Serif" font-size="10.00">&#45; getTag()</text>
</a>
</g>
</g>
<!-- Node5&#45;&gt;Node3 -->
<g id="edge4" class="edge"><title>Node5&#45;&gt;Node3</title>
<path fill="none" stroke="#404040" d="M159.241,-934.23C139.98,-914.791 117.687,-889.675 102,-864 96.1203,-854.376 90.7538,-843.931 85.9091,-833.286"/>
<polygon fill="none" stroke="#404040" points="85.8478,-833.145 79.7824,-829.245 81.0498,-822.146 87.1151,-826.046 85.8478,-833.145"/>
<text text-anchor="middle" x="111.5" y="-855.5" font-family="Helvetica,sans-Serif" font-size="10.00"> &#45;log</text>
</g>
<!-- Node7 -->
<g id="node7" class="node"><title>Node7</title>
<g id="a_node7"><a xlink:href="../../d2/d29/classserver_1_1irc_user.html" target="_top" xlink:title="The ircUser class.">
<polygon fill="white" stroke="black" points="447,-633 447,-833 527,-833 527,-633 447,-633"/>
<text text-anchor="middle" x="487" y="-821" font-family="Helvetica,sans-Serif" font-size="10.00">server::ircUser</text>
<polyline fill="none" stroke="black" points="447,-814 527,-814 "/>
<text text-anchor="start" x="455" y="-802" font-family="Helvetica,sans-Serif" font-size="10.00">&#45; name</text>
<text text-anchor="start" x="455" y="-791" font-family="Helvetica,sans-Serif" font-size="10.00">&#45; ircId</text>
<text text-anchor="start" x="455" y="-780" font-family="Helvetica,sans-Serif" font-size="10.00">&#45; id</text>
<text text-anchor="start" x="455" y="-769" font-family="Helvetica,sans-Serif" font-size="10.00">&#45; status</text>
<text text-anchor="start" x="455" y="-758" font-family="Helvetica,sans-Serif" font-size="10.00">&#45; email</text>
<text text-anchor="start" x="455" y="-747" font-family="Helvetica,sans-Serif" font-size="10.00">&#45; online</text>
<text text-anchor="start" x="455" y="-736" font-family="Helvetica,sans-Serif" font-size="10.00">&#45; standard</text>
<polyline fill="none" stroke="black" points="447,-729 527,-729 "/>
<text text-anchor="start" x="455" y="-717" font-family="Helvetica,sans-Serif" font-size="10.00">+ ircUser()</text>
<text text-anchor="start" x="455" y="-706" font-family="Helvetica,sans-Serif" font-size="10.00">+ ircUser()</text>
<text text-anchor="start" x="455" y="-695" font-family="Helvetica,sans-Serif" font-size="10.00">+ ircUser()</text>
<text text-anchor="start" x="455" y="-684" font-family="Helvetica,sans-Serif" font-size="10.00">+ ircUser()</text>
<text text-anchor="start" x="455" y="-673" font-family="Helvetica,sans-Serif" font-size="10.00">+ getName()</text>
<text text-anchor="start" x="455" y="-662" font-family="Helvetica,sans-Serif" font-size="10.00">+ getOnline()</text>
<text text-anchor="start" x="455" y="-651" font-family="Helvetica,sans-Serif" font-size="10.00">+ getStatus()</text>
<text text-anchor="start" x="455" y="-640" font-family="Helvetica,sans-Serif" font-size="10.00">and 13 more...</text>
</a>
</g>
</g>
<!-- Node5&#45;&gt;Node7 -->
<g id="edge8" class="edge"><title>Node5&#45;&gt;Node7</title>
<path fill="none" stroke="#404040" d="M238.74,-950.556C283.376,-926.435 356.556,-883.316 410,-834 420.316,-824.481 430.291,-813.464 439.45,-802.294"/>
<polygon fill="none" stroke="#404040" points="439.456,-802.286 440.071,-795.101 446.94,-792.906 446.325,-800.091 439.456,-802.286"/>
<text text-anchor="middle" x="394.5" y="-855.5" font-family="Helvetica,sans-Serif" font-size="10.00"> &#45;log</text>
</g>
<!-- Node5&#45;&gt;Node1 -->
<g id="edge9" class="edge"><title>Node5&#45;&gt;Node1</title>
<path fill="none" stroke="#404040" d="M166.266,-882.801C161.586,-866.77 157.513,-850.042 155,-834 114.817,-577.475 102.632,-500.49 171,-250 175.32,-234.173 181.563,-218.145 188.675,-202.772"/>
<polygon fill="none" stroke="#404040" points="188.795,-202.522 187.788,-195.382 193.991,-191.706 194.999,-198.846 188.795,-202.522"/>
<text text-anchor="middle" x="135.5" y="-605.5" font-family="Helvetica,sans-Serif" font-size="10.00"> &#45;log</text>
</g>
<!-- Node5&#45;&gt;Node10 -->
<g id="edge15" class="edge"><title>Node5&#45;&gt;Node10</title>
<path fill="none" stroke="#404040" d="M215.797,-882.947C218.876,-866.675 222.049,-849.826 225,-834 241.731,-744.275 220.896,-713.492 262,-632 275.169,-605.891 291.716,-608.93 307,-584 308.231,-581.992 309.443,-579.954 310.635,-577.891"/>
<polygon fill="none" stroke="#404040" points="310.636,-577.889 310.029,-570.704 316.429,-567.38 317.035,-574.566 310.636,-577.889"/>
<text text-anchor="middle" x="271.5" y="-730.5" font-family="Helvetica,sans-Serif" font-size="10.00"> &#45;log</text>
</g>
<!-- Node6 -->
<g id="node6" class="node"><title>Node6</title>
<g id="a_node6"><a xlink:href="../../d4/d08/classserver_1_1irc_user_list.html" target="_top" xlink:title="Contains all the users.">
<polygon fill="white" stroke="black" points="201.5,-339 201.5,-495 298.5,-495 298.5,-339 201.5,-339"/>
<text text-anchor="middle" x="250" y="-483" font-family="Helvetica,sans-Serif" font-size="10.00">server::ircUserList</text>
<polyline fill="none" stroke="black" points="201.5,-476 298.5,-476 "/>
<text text-anchor="start" x="209.5" y="-464" font-family="Helvetica,sans-Serif" font-size="10.00">&#45; users</text>
<text text-anchor="start" x="209.5" y="-453" font-family="Helvetica,sans-Serif" font-size="10.00">&#45; lastId</text>
<polyline fill="none" stroke="black" points="201.5,-446 298.5,-446 "/>
<text text-anchor="start" x="209.5" y="-434" font-family="Helvetica,sans-Serif" font-size="10.00">+ ircUserList()</text>
<text text-anchor="start" x="209.5" y="-423" font-family="Helvetica,sans-Serif" font-size="10.00">+ add()</text>
<text text-anchor="start" x="209.5" y="-412" font-family="Helvetica,sans-Serif" font-size="10.00">+ del()</text>
<text text-anchor="start" x="209.5" y="-401" font-family="Helvetica,sans-Serif" font-size="10.00">+ getUserByNick()</text>
<text text-anchor="start" x="209.5" y="-390" font-family="Helvetica,sans-Serif" font-size="10.00">+ getUser()</text>
<text text-anchor="start" x="209.5" y="-379" font-family="Helvetica,sans-Serif" font-size="10.00">+ findUser()</text>
<text text-anchor="start" x="209.5" y="-368" font-family="Helvetica,sans-Serif" font-size="10.00">+ getUserById()</text>
<text text-anchor="start" x="209.5" y="-357" font-family="Helvetica,sans-Serif" font-size="10.00">+ getUserByIrcId()</text>
<text text-anchor="start" x="209.5" y="-346" font-family="Helvetica,sans-Serif" font-size="10.00">+ getAll()</text>
</a>
</g>
</g>
<!-- Node6&#45;&gt;Node1 -->
<g id="edge5" class="edge"><title>Node6&#45;&gt;Node1</title>
<path fill="none" stroke="#404040" d="M250,-338.785C250,-301.02 250,-254.867 250,-213.371"/>
<polygon fill="none" stroke="#404040" points="250,-213.232 246,-207.232 250,-201.232 254,-207.232 250,-213.232"/>
<text text-anchor="middle" x="265.5" y="-223.5" font-family="Helvetica,sans-Serif" font-size="10.00"> &#45;users</text>
</g>
<!-- Node7&#45;&gt;Node1 -->
<g id="edge6" class="edge"><title>Node7&#45;&gt;Node1</title>
<path fill="none" stroke="#404040" d="M527.112,-654.584C532.816,-641.307 538.069,-627.451 542,-614 578.898,-487.759 677.824,-463.296 546,-250 496.459,-169.841 388.901,-131.645 318,-114.545"/>
<polygon fill="none" stroke="#404040" points="317.772,-114.493 311.025,-117.036 306.082,-111.785 312.829,-109.242 317.772,-114.493"/>
<text text-anchor="middle" x="634" y="-414.5" font-family="Helvetica,sans-Serif" font-size="10.00"> &#45;ownUser</text>
</g>
<!-- Node9 -->
<g id="node9" class="node"><title>Node9</title>
<g id="a_node9"><a xlink:href="../../d7/d81/classserver_1_1cls_settings.html" target="_top" xlink:title="Settings class.">
<polygon fill="white" stroke="black" points="436,-317 436,-517 538,-517 538,-317 436,-317"/>
<text text-anchor="middle" x="487" y="-505" font-family="Helvetica,sans-Serif" font-size="10.00">server::clsSettings</text>
<polyline fill="none" stroke="black" points="436,-498 538,-498 "/>
<text text-anchor="start" x="444" y="-486" font-family="Helvetica,sans-Serif" font-size="10.00">&#45; server</text>
<text text-anchor="start" x="444" y="-475" font-family="Helvetica,sans-Serif" font-size="10.00">&#45; channel</text>
<text text-anchor="start" x="444" y="-464" font-family="Helvetica,sans-Serif" font-size="10.00">&#45; listeningPort</text>
<text text-anchor="start" x="444" y="-453" font-family="Helvetica,sans-Serif" font-size="10.00">&#45; users</text>
<polyline fill="none" stroke="black" points="436,-446 538,-446 "/>
<text text-anchor="start" x="444" y="-434" font-family="Helvetica,sans-Serif" font-size="10.00">+ clsSettings()</text>
<text text-anchor="start" x="444" y="-423" font-family="Helvetica,sans-Serif" font-size="10.00">+ getListeningPort()</text>
<text text-anchor="start" x="444" y="-412" font-family="Helvetica,sans-Serif" font-size="10.00">+ getServer()</text>
<text text-anchor="start" x="444" y="-401" font-family="Helvetica,sans-Serif" font-size="10.00">+ getChannel()</text>
<text text-anchor="start" x="444" y="-390" font-family="Helvetica,sans-Serif" font-size="10.00">+ getUserName()</text>
<text text-anchor="start" x="444" y="-379" font-family="Helvetica,sans-Serif" font-size="10.00">+ getOwnUser()</text>
<text text-anchor="start" x="444" y="-368" font-family="Helvetica,sans-Serif" font-size="10.00">+ getUsers()</text>
<text text-anchor="start" x="444" y="-357" font-family="Helvetica,sans-Serif" font-size="10.00">&#45; readUiSettings()</text>
<text text-anchor="start" x="444" y="-346" font-family="Helvetica,sans-Serif" font-size="10.00">&#45; readServer()</text>
<text text-anchor="start" x="444" y="-335" font-family="Helvetica,sans-Serif" font-size="10.00">&#45; readUsers()</text>
<text text-anchor="start" x="444" y="-324" font-family="Helvetica,sans-Serif" font-size="10.00">&#45; readUserInfo()</text>
</a>
</g>
</g>
<!-- Node7&#45;&gt;Node9 -->
<g id="edge11" class="edge"><title>Node7&#45;&gt;Node9</title>
<path fill="none" stroke="#404040" d="M492.407,-632.865C492.642,-626.482 492.844,-620.152 493,-614 493.697,-586.578 493.36,-557 492.572,-529.341"/>
<polygon fill="none" stroke="#404040" points="492.568,-529.196 488.383,-523.323 492.195,-517.202 496.379,-523.074 492.568,-529.196"/>
<text text-anchor="middle" x="516" y="-605.5" font-family="Helvetica,sans-Serif" font-size="10.00"> &#45;ownUser</text>
</g>
<!-- Node7&#45;&gt;Node10 -->
<g id="edge14" class="edge"><title>Node7&#45;&gt;Node10</title>
<path fill="none" stroke="#404040" d="M446.931,-634.687C440.167,-617.83 433.301,-600.44 427,-584 425.291,-579.54 423.567,-575.008 421.837,-570.429"/>
<polygon fill="none" stroke="#404040" points="421.751,-570.198 415.896,-565.988 417.53,-558.965 423.384,-563.174 421.751,-570.198"/>
<text text-anchor="middle" x="461" y="-605.5" font-family="Helvetica,sans-Serif" font-size="10.00"> &#45;ownUser</text>
</g>
<!-- Node8 -->
<g id="node8" class="node"><title>Node8</title>
<g id="a_node8"><a xlink:href="../../db/d31/structserver_1_1irc_user_1_1user_color.html" target="_top" xlink:title="The userColor struct As a replacement for the QColor type.">
<polygon fill="white" stroke="black" points="424,-932.5 424,-1011.5 550,-1011.5 550,-932.5 424,-932.5"/>
<text text-anchor="middle" x="487" y="-999.5" font-family="Helvetica,sans-Serif" font-size="10.00">server::ircUser::userColor</text>
<polyline fill="none" stroke="black" points="424,-992.5 550,-992.5 "/>
<text text-anchor="start" x="432" y="-980.5" font-family="Helvetica,sans-Serif" font-size="10.00">+ r</text>
<text text-anchor="start" x="432" y="-969.5" font-family="Helvetica,sans-Serif" font-size="10.00">+ g</text>
<text text-anchor="start" x="432" y="-958.5" font-family="Helvetica,sans-Serif" font-size="10.00">+ b</text>
<polyline fill="none" stroke="black" points="424,-951.5 550,-951.5 "/>
<text text-anchor="middle" x="487" y="-939.5" font-family="Helvetica,sans-Serif" font-size="10.00"> </text>
</a>
</g>
</g>
<!-- Node8&#45;&gt;Node7 -->
<g id="edge7" class="edge"><title>Node8&#45;&gt;Node7</title>
<path fill="none" stroke="#404040" d="M487,-932.394C487,-908.599 487,-876.757 487,-845.56"/>
<polygon fill="none" stroke="#404040" points="487,-845.19 483,-839.19 487,-833.19 491,-839.19 487,-845.19"/>
<text text-anchor="middle" x="504" y="-855.5" font-family="Helvetica,sans-Serif" font-size="10.00"> &#45;uColor</text>
</g>
<!-- Node9&#45;&gt;Node1 -->
<g id="edge10" class="edge"><title>Node9&#45;&gt;Node1</title>
<path fill="none" stroke="#404040" d="M459.989,-316.577C451.216,-293.561 440.021,-269.981 426,-250 396.759,-208.329 352.983,-171.452 316.405,-144.932"/>
<polygon fill="none" stroke="#404040" points="316.071,-144.693 308.863,-144.47 306.297,-137.731 313.505,-137.954 316.071,-144.693"/>
<text text-anchor="middle" x="431.5" y="-223.5" font-family="Helvetica,sans-Serif" font-size="10.00"> &#45;settings</text>
</g>
<!-- Node10&#45;&gt;Node1 -->
<g id="edge12" class="edge"><title>Node10&#45;&gt;Node1</title>
<path fill="none" stroke="#404040" d="M316.466,-275.547C313.281,-266.895 310.108,-258.326 307,-250 302.466,-237.854 297.672,-225.169 292.867,-212.554"/>
<polygon fill="none" stroke="#404040" points="292.738,-212.217 286.861,-208.039 288.458,-201.006 294.335,-205.185 292.738,-212.217"/>
<text text-anchor="middle" x="308.5" y="-223.5" font-family="Helvetica,sans-Serif" font-size="10.00"> &#45;irc</text>
</g>
<!-- Node11 -->
<g id="node11" class="node"><title>Node11</title>
<g id="a_node11"><a xlink:href="../../da/d6a/structserver_1_1nick_and_status.html" target="_top" xlink:title="The nickAndStatus struct.">
<polygon fill="white" stroke="black" points="290,-699 290,-767 402,-767 402,-699 290,-699"/>
<text text-anchor="middle" x="346" y="-755" font-family="Helvetica,sans-Serif" font-size="10.00">server::nickAndStatus</text>
<polyline fill="none" stroke="black" points="290,-748 402,-748 "/>
<text text-anchor="start" x="298" y="-736" font-family="Helvetica,sans-Serif" font-size="10.00">+ nick</text>
<text text-anchor="start" x="298" y="-725" font-family="Helvetica,sans-Serif" font-size="10.00">+ status</text>
<polyline fill="none" stroke="black" points="290,-718 402,-718 "/>
<text text-anchor="middle" x="346" y="-706" font-family="Helvetica,sans-Serif" font-size="10.00"> </text>
</a>
</g>
</g>
<!-- Node11&#45;&gt;Node10 -->
<g id="edge16" class="edge"><title>Node11&#45;&gt;Node10</title>
<path fill="none" stroke="#404040" d="M342.805,-698.977C340.684,-675.339 338.095,-642.743 337,-614 336.767,-607.869 336.711,-601.641 336.81,-595.36"/>
<polygon fill="none" stroke="#404040" points="336.814,-595.221 333.001,-589.101 337.184,-583.227 340.997,-589.347 336.814,-595.221"/>
<text text-anchor="middle" x="381.5" y="-605.5" font-family="Helvetica,sans-Serif" font-size="10.00"> &#45;ownNickAndStatus</text>
</g>
</g>
</svg>
