<?xml version="1.0" encoding="UTF-8" standalone="no"?>
<!DOCTYPE svg PUBLIC "-//W3C//DTD SVG 1.1//EN"
 "http://www.w3.org/Graphics/SVG/1.1/DTD/svg11.dtd">
<!-- Generated by graphviz version 2.30.1 (20130303.0817)
 -->
<!-- Title: C++/customIrcServer/ircclient.cpp Pages: 1 -->
<!--zoomable 264 -->
<svg id="main" version="1.1" xmlns="http://www.w3.org/2000/svg" xmlns:xlink="http://www.w3.org/1999/xlink" xml:space="preserve" onload="init(evt)">
        <defs>
                <circle id="rim" cx="0" cy="0" r="7"/>
                <circle id="rim2" cx="0" cy="0" r="3.5"/>
                <g id="zoomPlus">
                        <use xlink:href="#rim" fill="#404040">
                                <set attributeName="fill" to="#808080" begin="zoomplus.mouseover" end="zoomplus.mouseout"/>
                        </use>
                        <path d="M-4,0h8M0,-4v8" fill="none" stroke="white" stroke-width="1.5" pointer-events="none"/>
                </g>
                <g id="zoomMin">
                        <use xlink:href="#rim" fill="#404040">
                                <set attributeName="fill" to="#808080" begin="zoomminus.mouseover" end="zoomminus.mouseout"/>
                        </use>
                        <path d="M-4,0h8" fill="none" stroke="white" stroke-width="1.5" pointer-events="none"/>
                </g>
                <g id="dirArrow">
                        <path fill="none" stroke="white" stroke-width="1.5" d="M0,-3.0v7 M-2.5,-0.5L0,-3.0L2.5,-0.5"/>
                </g>
               <g id="resetDef">
                       <use xlink:href="#rim2" fill="#404040">
                               <set attributeName="fill" to="#808080" begin="reset.mouseover" end="reset.mouseout"/>
                       </use>
               </g>
        </defs>

<script type="text/javascript">
var viewWidth = 587;
var viewHeight = 264;
var sectionId = 'dynsection-0';
</script>
<script xlink:href="../../svgpan.js"/>
<svg id="graph" class="graph">
<g id="viewport">
<title>C++/customIrcServer/ircclient.cpp</title>
<polygon fill="white" stroke="white" points="-4,5 -4,-260 583.897,-260 583.897,5 -4,5"/>
<!-- Node1 -->
<g id="node1" class="node"><title>Node1</title>
<polygon fill="#bfbfbf" stroke="black" points="202.04,-225 202.04,-255 310.04,-255 310.04,-225 202.04,-225"/>
<text text-anchor="start" x="210.04" y="-243" font-family="Helvetica,sans-Serif" font-size="10.00">C++/customIrcServer</text>
<text text-anchor="middle" x="256.04" y="-232" font-family="Helvetica,sans-Serif" font-size="10.00">/ircclient.cpp</text>
</g>
<!-- Node2 -->
<g id="node2" class="node"><title>Node2</title>
<polygon fill="white" stroke="#bfbfbf" points="130.04,-0.5 130.04,-19.5 184.04,-19.5 184.04,-0.5 130.04,-0.5"/>
<text text-anchor="middle" x="157.04" y="-7.5" font-family="Helvetica,sans-Serif" font-size="10.00">iostream</text>
</g>
<!-- Node1&#45;&gt;Node2 -->
<g id="edge1" class="edge"><title>Node1&#45;&gt;Node2</title>
<path fill="none" stroke="midnightblue" d="M203.742,-224.983C154.471,-209.433 81.3432,-179.992 34.0397,-132 14.7771,-112.457 13.9567,-102.795 8.03974,-76 6.12304,-67.3202 2.74028,-63.1364 8.03974,-56 11.4887,-51.3555 77.0137,-32.784 120.011,-20.9993"/>
<polygon fill="midnightblue" stroke="midnightblue" points="121.149,-24.3167 129.874,-18.3065 119.305,-17.5639 121.149,-24.3167"/>
</g>
<!-- Node3 -->
<g id="node3" class="node"><title>Node3</title>
<polygon fill="white" stroke="#bfbfbf" points="304.04,-168.5 304.04,-187.5 352.04,-187.5 352.04,-168.5 304.04,-168.5"/>
<text text-anchor="middle" x="328.04" y="-175.5" font-family="Helvetica,sans-Serif" font-size="10.00">stdlib.h</text>
</g>
<!-- Node1&#45;&gt;Node3 -->
<g id="edge2" class="edge"><title>Node1&#45;&gt;Node3</title>
<path fill="none" stroke="midnightblue" d="M273.103,-224.781C284.104,-215.613 298.405,-203.696 309.657,-194.319"/>
<polygon fill="midnightblue" stroke="midnightblue" points="312.122,-196.821 317.563,-187.731 307.64,-191.444 312.122,-196.821"/>
</g>
<!-- Node4 -->
<g id="node4" class="node"><title>Node4</title>
<g id="a_node4"><a xlink:href="../../d4/df9/ircclient_8h.html" target="_top" xlink:title="ircclient.h">
<polygon fill="white" stroke="black" points="226.54,-168.5 226.54,-187.5 285.54,-187.5 285.54,-168.5 226.54,-168.5"/>
<text text-anchor="middle" x="256.04" y="-175.5" font-family="Helvetica,sans-Serif" font-size="10.00">ircclient.h</text>
</a>
</g>
</g>
<!-- Node1&#45;&gt;Node4 -->
<g id="edge3" class="edge"><title>Node1&#45;&gt;Node4</title>
<path fill="none" stroke="midnightblue" d="M256.04,-224.781C256.04,-216.781 256.04,-206.689 256.04,-198.017"/>
<polygon fill="midnightblue" stroke="midnightblue" points="259.54,-197.73 256.04,-187.731 252.54,-197.731 259.54,-197.73"/>
</g>
<!-- Node5 -->
<g id="node5" class="node"><title>Node5</title>
<polygon fill="white" stroke="#bfbfbf" points="16.5397,-56.5 16.5397,-75.5 69.5397,-75.5 69.5397,-56.5 16.5397,-56.5"/>
<text text-anchor="middle" x="43.0397" y="-63.5" font-family="Helvetica,sans-Serif" font-size="10.00">QVector</text>
</g>
<!-- Node4&#45;&gt;Node5 -->
<g id="edge4" class="edge"><title>Node4&#45;&gt;Node5</title>
<path fill="none" stroke="midnightblue" d="M226.16,-175.048C173.581,-170.932 67.9062,-159.385 45.0397,-132 34.4297,-119.293 35.3174,-99.8191 38.0127,-85.4981"/>
<polygon fill="midnightblue" stroke="midnightblue" points="41.4242,-86.2799 40.2657,-75.7486 34.604,-84.7038 41.4242,-86.2799"/>
</g>
<!-- Node6 -->
<g id="node6" class="node"><title>Node6</title>
<polygon fill="white" stroke="#bfbfbf" points="126.04,-112.5 126.04,-131.5 174.04,-131.5 174.04,-112.5 126.04,-112.5"/>
<text text-anchor="middle" x="150.04" y="-119.5" font-family="Helvetica,sans-Serif" font-size="10.00">QTimer</text>
</g>
<!-- Node4&#45;&gt;Node6 -->
<g id="edge5" class="edge"><title>Node4&#45;&gt;Node6</title>
<path fill="none" stroke="midnightblue" d="M239.009,-168.324C222.01,-159.664 195.664,-146.242 176.047,-136.249"/>
<polygon fill="midnightblue" stroke="midnightblue" points="177.527,-133.075 167.028,-131.655 174.35,-139.312 177.527,-133.075"/>
</g>
<!-- Node7 -->
<g id="node7" class="node"><title>Node7</title>
<polygon fill="white" stroke="#bfbfbf" points="192.54,-112.5 192.54,-131.5 241.54,-131.5 241.54,-112.5 192.54,-112.5"/>
<text text-anchor="middle" x="217.04" y="-119.5" font-family="Helvetica,sans-Serif" font-size="10.00">QBuffer</text>
</g>
<!-- Node4&#45;&gt;Node7 -->
<g id="edge6" class="edge"><title>Node4&#45;&gt;Node7</title>
<path fill="none" stroke="midnightblue" d="M249.6,-168.083C244.091,-160.455 236.009,-149.264 229.275,-139.941"/>
<polygon fill="midnightblue" stroke="midnightblue" points="232.052,-137.809 223.36,-131.751 226.378,-141.907 232.052,-137.809"/>
</g>
<!-- Node8 -->
<g id="node8" class="node"><title>Node8</title>
<polygon fill="white" stroke="#bfbfbf" points="62.0397,-0.5 62.0397,-19.5 112.04,-19.5 112.04,-0.5 62.0397,-0.5"/>
<text text-anchor="middle" x="87.0397" y="-7.5" font-family="Helvetica,sans-Serif" font-size="10.00">QString</text>
</g>
<!-- Node4&#45;&gt;Node8 -->
<g id="edge7" class="edge"><title>Node4&#45;&gt;Node8</title>
<path fill="none" stroke="midnightblue" d="M226.493,-174.312C173.16,-168.935 63.5992,-155.325 34.0397,-132 6.01457,-109.885 -9.89996,-86.8648 8.03974,-56 17.654,-39.4588 35.8745,-28.4932 52.396,-21.5316"/>
<polygon fill="midnightblue" stroke="midnightblue" points="53.7801,-24.7492 61.8494,-17.8835 51.2599,-18.2185 53.7801,-24.7492"/>
</g>
<!-- Node9 -->
<g id="node9" class="node"><title>Node9</title>
<polygon fill="white" stroke="#bfbfbf" points="260.04,-112.5 260.04,-131.5 330.04,-131.5 330.04,-112.5 260.04,-112.5"/>
<text text-anchor="middle" x="295.04" y="-119.5" font-family="Helvetica,sans-Serif" font-size="10.00">QTcpSocket</text>
</g>
<!-- Node4&#45;&gt;Node9 -->
<g id="edge8" class="edge"><title>Node4&#45;&gt;Node9</title>
<path fill="none" stroke="midnightblue" d="M262.48,-168.083C267.989,-160.455 276.071,-149.264 282.805,-139.941"/>
<polygon fill="midnightblue" stroke="midnightblue" points="285.702,-141.907 288.72,-131.751 280.027,-137.809 285.702,-141.907"/>
</g>
<!-- Node10 -->
<g id="node10" class="node"><title>Node10</title>
<polygon fill="white" stroke="#bfbfbf" points="350.54,-0.5 350.54,-19.5 415.54,-19.5 415.54,-0.5 350.54,-0.5"/>
<text text-anchor="middle" x="383.04" y="-7.5" font-family="Helvetica,sans-Serif" font-size="10.00">QStringList</text>
</g>
<!-- Node4&#45;&gt;Node10 -->
<g id="edge9" class="edge"><title>Node4&#45;&gt;Node10</title>
<path fill="none" stroke="midnightblue" d="M285.79,-169.826C288.905,-169.167 292.031,-168.544 295.04,-168 355.254,-157.108 527.698,-178.011 568.04,-132 615.449,-77.9281 494.34,-38.1857 426.008,-20.7653"/>
<polygon fill="midnightblue" stroke="midnightblue" points="426.481,-17.2764 415.932,-18.2601 424.792,-24.0696 426.481,-17.2764"/>
</g>
<!-- Node11 -->
<g id="node11" class="node"><title>Node11</title>
<polygon fill="white" stroke="#bfbfbf" points="386.04,-112.5 386.04,-131.5 460.04,-131.5 460.04,-112.5 386.04,-112.5"/>
<text text-anchor="middle" x="423.04" y="-119.5" font-family="Helvetica,sans-Serif" font-size="10.00">QTextStream</text>
</g>
<!-- Node4&#45;&gt;Node11 -->
<g id="edge10" class="edge"><title>Node4&#45;&gt;Node11</title>
<path fill="none" stroke="midnightblue" d="M282.501,-168.444C310.718,-159.32 355.58,-144.813 387.008,-134.651"/>
<polygon fill="midnightblue" stroke="midnightblue" points="388.264,-137.923 396.702,-131.516 386.11,-131.263 388.264,-137.923"/>
</g>
<!-- Node12 -->
<g id="node12" class="node"><title>Node12</title>
<g id="a_node12"><a xlink:href="../../df/df2/irc_codes_8h.html" target="_top" xlink:title="ircCodes.h">
<polygon fill="white" stroke="black" points="478.54,-112.5 478.54,-131.5 541.54,-131.5 541.54,-112.5 478.54,-112.5"/>
<text text-anchor="middle" x="510.04" y="-119.5" font-family="Helvetica,sans-Serif" font-size="10.00">ircCodes.h</text>
</a>
</g>
</g>
<!-- Node4&#45;&gt;Node12 -->
<g id="edge11" class="edge"><title>Node4&#45;&gt;Node12</title>
<path fill="none" stroke="midnightblue" d="M285.835,-170.051C288.941,-169.348 292.053,-168.654 295.04,-168 369.172,-151.78 390.184,-148.695 468.43,-132.107"/>
<polygon fill="midnightblue" stroke="midnightblue" points="469.211,-135.519 478.264,-130.015 467.754,-128.672 469.211,-135.519"/>
</g>
<!-- Node13 -->
<g id="node13" class="node"><title>Node13</title>
<g id="a_node13"><a xlink:href="../../d8/d5c/functions_8h.html" target="_top" xlink:title="functions.h">
<polygon fill="white" stroke="black" points="228.04,-56.5 228.04,-75.5 292.04,-75.5 292.04,-56.5 228.04,-56.5"/>
<text text-anchor="middle" x="260.04" y="-63.5" font-family="Helvetica,sans-Serif" font-size="10.00">functions.h</text>
</a>
</g>
</g>
<!-- Node4&#45;&gt;Node13 -->
<g id="edge12" class="edge"><title>Node4&#45;&gt;Node13</title>
<path fill="none" stroke="midnightblue" d="M285.723,-169.377C304.589,-162.826 327.552,-151.295 339.04,-132 352.675,-109.098 323.176,-90.7096 296.429,-79.4135"/>
<polygon fill="midnightblue" stroke="midnightblue" points="297.369,-76.0211 286.784,-75.5774 294.782,-82.5255 297.369,-76.0211"/>
</g>
<!-- Node16 -->
<g id="node16" class="node"><title>Node16</title>
<g id="a_node16"><a xlink:href="../../d7/d62/clslog_8h.html" target="_top" xlink:title="../resources/clslog.h">
<polygon fill="white" stroke="black" points="330.54,-56.5 330.54,-75.5 435.54,-75.5 435.54,-56.5 330.54,-56.5"/>
<text text-anchor="middle" x="383.04" y="-63.5" font-family="Helvetica,sans-Serif" font-size="10.00">../resources/clslog.h</text>
</a>
</g>
</g>
<!-- Node4&#45;&gt;Node16 -->
<g id="edge17" class="edge"><title>Node4&#45;&gt;Node16</title>
<path fill="none" stroke="midnightblue" d="M285.795,-169.854C288.909,-169.19 292.034,-168.558 295.04,-168 351.307,-157.556 512.508,-175.203 550.04,-132 583.36,-93.6456 506.215,-77.7741 445.978,-71.309"/>
<polygon fill="midnightblue" stroke="midnightblue" points="446.017,-67.7954 435.718,-70.2788 445.318,-74.7604 446.017,-67.7954"/>
</g>
<!-- Node19 -->
<g id="node19" class="node"><title>Node19</title>
<g id="a_node19"><a xlink:href="../../d6/d32/custom_irc_server_2ircuser_8h.html" target="_top" xlink:title="ircuser.h">
<polygon fill="white" stroke="black" points="54.0397,-112.5 54.0397,-131.5 108.04,-131.5 108.04,-112.5 54.0397,-112.5"/>
<text text-anchor="middle" x="81.0397" y="-119.5" font-family="Helvetica,sans-Serif" font-size="10.00">ircuser.h</text>
</a>
</g>
</g>
<!-- Node4&#45;&gt;Node19 -->
<g id="edge23" class="edge"><title>Node4&#45;&gt;Node19</title>
<path fill="none" stroke="midnightblue" d="M228.31,-168.444C198.439,-159.226 150.767,-144.516 117.79,-134.34"/>
<polygon fill="midnightblue" stroke="midnightblue" points="118.652,-130.943 108.064,-131.339 116.588,-137.632 118.652,-130.943"/>
</g>
<!-- Node14 -->
<g id="node14" class="node"><title>Node14</title>
<polygon fill="white" stroke="#bfbfbf" points="291.54,-0.5 291.54,-19.5 332.54,-19.5 332.54,-0.5 291.54,-0.5"/>
<text text-anchor="middle" x="312.04" y="-7.5" font-family="Helvetica,sans-Serif" font-size="10.00">string</text>
</g>
<!-- Node13&#45;&gt;Node14 -->
<g id="edge13" class="edge"><title>Node13&#45;&gt;Node14</title>
<path fill="none" stroke="midnightblue" d="M268.626,-56.083C276.199,-48.2195 287.418,-36.5688 296.554,-27.0813"/>
<polygon fill="midnightblue" stroke="midnightblue" points="299.197,-29.3821 303.613,-19.7511 294.155,-24.5266 299.197,-29.3821"/>
</g>
<!-- Node13&#45;&gt;Node8 -->
<g id="edge14" class="edge"><title>Node13&#45;&gt;Node8</title>
<path fill="none" stroke="midnightblue" d="M232.627,-56.4435C202.58,-47.0645 154.311,-31.9978 121.668,-21.8089"/>
<polygon fill="midnightblue" stroke="midnightblue" points="122.666,-18.4538 112.077,-18.8151 120.58,-25.1358 122.666,-18.4538"/>
</g>
<!-- Node13&#45;&gt;Node10 -->
<g id="edge15" class="edge"><title>Node13&#45;&gt;Node10</title>
<path fill="none" stroke="midnightblue" d="M279.529,-56.4435C299.682,-47.5961 331.363,-33.6875 354.371,-23.5865"/>
<polygon fill="midnightblue" stroke="midnightblue" points="355.892,-26.7411 363.641,-19.5164 353.078,-20.3316 355.892,-26.7411"/>
</g>
<!-- Node15 -->
<g id="node15" class="node"><title>Node15</title>
<polygon fill="white" stroke="#bfbfbf" points="202.54,-0.5 202.54,-19.5 273.54,-19.5 273.54,-0.5 202.54,-0.5"/>
<text text-anchor="middle" x="238.04" y="-7.5" font-family="Helvetica,sans-Serif" font-size="10.00">QVariantList</text>
</g>
<!-- Node13&#45;&gt;Node15 -->
<g id="edge16" class="edge"><title>Node13&#45;&gt;Node15</title>
<path fill="none" stroke="midnightblue" d="M256.407,-56.083C253.428,-48.77 249.114,-38.1814 245.415,-29.1034"/>
<polygon fill="midnightblue" stroke="midnightblue" points="248.619,-27.6914 241.605,-19.7511 242.137,-30.3326 248.619,-27.6914"/>
</g>
<!-- Node17 -->
<g id="node17" class="node"><title>Node17</title>
<polygon fill="white" stroke="#bfbfbf" points="517.04,-0.5 517.04,-19.5 569.04,-19.5 569.04,-0.5 517.04,-0.5"/>
<text text-anchor="middle" x="543.04" y="-7.5" font-family="Helvetica,sans-Serif" font-size="10.00">QDebug</text>
</g>
<!-- Node16&#45;&gt;Node17 -->
<g id="edge18" class="edge"><title>Node16&#45;&gt;Node17</title>
<path fill="none" stroke="midnightblue" d="M408.392,-56.4435C435.309,-47.3591 478.036,-32.9388 508.127,-22.7831"/>
<polygon fill="midnightblue" stroke="midnightblue" points="509.45,-26.0305 517.806,-19.5164 507.212,-19.3981 509.45,-26.0305"/>
</g>
<!-- Node18 -->
<g id="node18" class="node"><title>Node18</title>
<polygon fill="white" stroke="#bfbfbf" points="433.54,-0.5 433.54,-19.5 498.54,-19.5 498.54,-0.5 433.54,-0.5"/>
<text text-anchor="middle" x="466.04" y="-7.5" font-family="Helvetica,sans-Serif" font-size="10.00">QDateTime</text>
</g>
<!-- Node16&#45;&gt;Node18 -->
<g id="edge19" class="edge"><title>Node16&#45;&gt;Node18</title>
<path fill="none" stroke="midnightblue" d="M396.375,-56.324C409.202,-47.979 428.825,-35.2122 443.98,-25.3524"/>
<polygon fill="midnightblue" stroke="midnightblue" points="446.264,-28.0417 452.737,-19.6545 442.447,-22.1742 446.264,-28.0417"/>
</g>
<!-- Node16&#45;&gt;Node14 -->
<g id="edge20" class="edge"><title>Node16&#45;&gt;Node14</title>
<path fill="none" stroke="midnightblue" d="M371.632,-56.324C360.931,-48.1849 344.699,-35.8395 331.877,-26.0874"/>
<polygon fill="midnightblue" stroke="midnightblue" points="333.733,-23.1018 323.655,-19.8339 329.495,-28.6734 333.733,-23.1018"/>
</g>
<!-- Node16&#45;&gt;Node2 -->
<g id="edge21" class="edge"><title>Node16&#45;&gt;Node2</title>
<path fill="none" stroke="midnightblue" d="M346.228,-56.4243C309.948,-47.9407 252.675,-34.4638 193.972,-20.2056"/>
<polygon fill="midnightblue" stroke="midnightblue" points="194.702,-16.7812 184.158,-17.8178 193.047,-23.5827 194.702,-16.7812"/>
</g>
<!-- Node16&#45;&gt;Node10 -->
<g id="edge22" class="edge"><title>Node16&#45;&gt;Node10</title>
<path fill="none" stroke="midnightblue" d="M383.04,-56.083C383.04,-49.0059 383.04,-38.8611 383.04,-29.9865"/>
<polygon fill="midnightblue" stroke="midnightblue" points="386.54,-29.751 383.04,-19.7511 379.54,-29.7511 386.54,-29.751"/>
</g>
<!-- Node19&#45;&gt;Node8 -->
<g id="edge24" class="edge"><title>Node19&#45;&gt;Node8</title>
<path fill="none" stroke="midnightblue" d="M81.5105,-112.368C82.4788,-94.617 84.7125,-53.6664 86.0253,-29.5974"/>
<polygon fill="midnightblue" stroke="midnightblue" points="89.5212,-29.7672 86.5711,-19.5914 82.5316,-29.3859 89.5212,-29.7672"/>
</g>
<!-- Node19&#45;&gt;Node5 -->
<g id="edge25" class="edge"><title>Node19&#45;&gt;Node5</title>
<path fill="none" stroke="midnightblue" d="M74.7648,-112.083C69.3973,-104.455 61.5221,-93.2645 54.9611,-83.9408"/>
<polygon fill="midnightblue" stroke="midnightblue" points="57.8152,-81.9149 49.1979,-75.7511 52.0906,-85.9434 57.8152,-81.9149"/>
</g>
<!-- Node20 -->
<g id="node20" class="node"><title>Node20</title>
<polygon fill="white" stroke="#bfbfbf" points="126.04,-56.5 126.04,-75.5 200.04,-75.5 200.04,-56.5 126.04,-56.5"/>
<text text-anchor="middle" x="163.04" y="-63.5" font-family="Helvetica,sans-Serif" font-size="10.00">QVariantMap</text>
</g>
<!-- Node19&#45;&gt;Node20 -->
<g id="edge26" class="edge"><title>Node19&#45;&gt;Node20</title>
<path fill="none" stroke="midnightblue" d="M94.2145,-112.324C106.887,-103.979 126.273,-91.2122 141.245,-81.3524"/>
<polygon fill="midnightblue" stroke="midnightblue" points="143.471,-84.0776 149.898,-75.6545 139.621,-78.2313 143.471,-84.0776"/>
</g>
<!-- Node19&#45;&gt;Node13 -->
<g id="edge27" class="edge"><title>Node19&#45;&gt;Node13</title>
<path fill="none" stroke="midnightblue" d="M108.226,-112.799C138.58,-103.641 187.919,-88.7572 222.072,-78.454"/>
<polygon fill="midnightblue" stroke="midnightblue" points="223.146,-81.7858 231.709,-75.5467 221.124,-75.0841 223.146,-81.7858"/>
</g>
<!-- Node19&#45;&gt;Node16 -->
<g id="edge28" class="edge"><title>Node19&#45;&gt;Node16</title>
<path fill="none" stroke="midnightblue" d="M108.115,-113.993C111.119,-113.286 114.139,-112.607 117.04,-112 186.164,-97.5351 266.14,-84.4986 320.204,-76.2259"/>
<polygon fill="midnightblue" stroke="midnightblue" points="320.964,-79.6506 330.324,-74.6866 319.912,-72.7302 320.964,-79.6506"/>
</g>
</g>
</svg>
        <g id="navigator" transform="translate(0 0)" fill="#404254">
                <rect fill="#f2f5e9" fill-opacity="0.5" stroke="#606060" stroke-width=".5" x="0" y="0" width="60" height="60"/>
                <use id="zoomplus" xlink:href="#zoomPlus" x="17" y="9" onmousedown="handleZoom(evt,'in')"/>
                <use id="zoomminus" xlink:href="#zoomMin" x="42" y="9" onmousedown="handleZoom(evt,'out')"/>
                <use id="reset" xlink:href="#resetDef" x="30" y="36" onmousedown="handleReset()"/>
                <g id="arrowUp" xlink:href="#dirArrow" transform="translate(30 24)" onmousedown="handlePan(0,-1)">
                  <use xlink:href="#rim" fill="#404040">
                        <set attributeName="fill" to="#808080" begin="arrowUp.mouseover" end="arrowUp.mouseout"/>
                  </use>
                  <path fill="none" stroke="white" stroke-width="1.5" d="M0,-3.0v7 M-2.5,-0.5L0,-3.0L2.5,-0.5"/>
                </g>
                <g id="arrowRight" xlink:href="#dirArrow" transform="rotate(90) translate(36 -43)" onmousedown="handlePan(1,0)">
                  <use xlink:href="#rim" fill="#404040">
                        <set attributeName="fill" to="#808080" begin="arrowRight.mouseover" end="arrowRight.mouseout"/>
                  </use>
                  <path fill="none" stroke="white" stroke-width="1.5" d="M0,-3.0v7 M-2.5,-0.5L0,-3.0L2.5,-0.5"/>
                </g>
                <g id="arrowDown" xlink:href="#dirArrow" transform="rotate(180) translate(-30 -48)" onmousedown="handlePan(0,1)">
                  <use xlink:href="#rim" fill="#404040">
                        <set attributeName="fill" to="#808080" begin="arrowDown.mouseover" end="arrowDown.mouseout"/>
                  </use>
                  <path fill="none" stroke="white" stroke-width="1.5" d="M0,-3.0v7 M-2.5,-0.5L0,-3.0L2.5,-0.5"/>
                </g>
                <g id="arrowLeft" xlink:href="#dirArrow" transform="rotate(270) translate(-36 17)" onmousedown="handlePan(-1,0)">
                  <use xlink:href="#rim" fill="#404040">
                        <set attributeName="fill" to="#808080" begin="arrowLeft.mouseover" end="arrowLeft.mouseout"/>
                  </use>
                  <path fill="none" stroke="white" stroke-width="1.5" d="M0,-3.0v7 M-2.5,-0.5L0,-3.0L2.5,-0.5"/>
                </g>
        </g>
        <svg viewBox="0 0 15 15" width="100%" height="30px" preserveAspectRatio="xMaxYMin meet">
         <g id="arrow_out" transform="scale(0.3 0.3)">
          <a xlink:href="ircclient_8cpp__incl_org.svg" target="_base">
           <rect id="button" ry="5" rx="5" y="6" x="6" height="38" width="38"
                fill="#f2f5e9" fill-opacity="0.5" stroke="#606060" stroke-width="1.0"/>
           <path id="arrow"
             d="M 11.500037,31.436501 C 11.940474,20.09759 22.043105,11.32322 32.158766,21.979434 L 37.068811,17.246167 C 37.068811,17.246167 37.088388,32 37.088388,32 L 22.160133,31.978069 C 22.160133,31.978069 26.997745,27.140456 26.997745,27.140456 C 18.528582,18.264221 13.291696,25.230495 11.500037,31.436501 z"
             style="fill:#404040;"/>
          </a>
         </g>
        </svg>
</svg>
