<?xml version="1.0" encoding="UTF-8" standalone="no"?>
<!DOCTYPE svg PUBLIC "-//W3C//DTD SVG 1.1//EN"
 "http://www.w3.org/Graphics/SVG/1.1/DTD/svg11.dtd">
<!-- Generated by graphviz version 2.30.1 (20130303.0817)
 -->
<!-- Title: C++/customIrcServer/ircclient.cpp Pages: 1 -->
<!--zoomable 264 -->
<svg id="main" version="1.1" xmlns="http://www.w3.org/2000/svg" xmlns:xlink="http://www.w3.org/1999/xlink" xml:space="preserve" onload="init(evt)">
        <defs>
                <circle id="rim" cx="0" cy="0" r="7"/>
                <circle id="rim2" cx="0" cy="0" r="3.5"/>
                <g id="zoomPlus">
                        <use xlink:href="#rim" fill="#404040">
                                <set attributeName="fill" to="#808080" begin="zoomplus.mouseover" end="zoomplus.mouseout"/>
                        </use>
                        <path d="M-4,0h8M0,-4v8" fill="none" stroke="white" stroke-width="1.5" pointer-events="none"/>
                </g>
                <g id="zoomMin">
                        <use xlink:href="#rim" fill="#404040">
                                <set attributeName="fill" to="#808080" begin="zoomminus.mouseover" end="zoomminus.mouseout"/>
                        </use>
                        <path d="M-4,0h8" fill="none" stroke="white" stroke-width="1.5" pointer-events="none"/>
                </g>
                <g id="dirArrow">
                        <path fill="none" stroke="white" stroke-width="1.5" d="M0,-3.0v7 M-2.5,-0.5L0,-3.0L2.5,-0.5"/>
                </g>
               <g id="resetDef">
                       <use xlink:href="#rim2" fill="#404040">
                               <set attributeName="fill" to="#808080" begin="reset.mouseover" end="reset.mouseout"/>
                       </use>
               </g>
        </defs>

<script type="text/javascript">
var viewWidth = 577;
var viewHeight = 264;
var sectionId = 'dynsection-0';
</script>
<script xlink:href="../../svgpan.js"/>
<svg id="graph" class="graph">
<g id="viewport">
<title>C++/customIrcServer/ircclient.cpp</title>
<polygon fill="white" stroke="white" points="-4,5 -4,-260 573.974,-260 573.974,5 -4,5"/>
<!-- Node1 -->
<g id="node1" class="node"><title>Node1</title>
<polygon fill="#bfbfbf" stroke="black" points="174.974,-225 174.974,-255 282.974,-255 282.974,-225 174.974,-225"/>
<text text-anchor="start" x="182.974" y="-243" font-family="Helvetica,sans-Serif" font-size="10.00">C++/customIrcServer</text>
<text text-anchor="middle" x="228.974" y="-232" font-family="Helvetica,sans-Serif" font-size="10.00">/ircclient.cpp</text>
</g>
<!-- Node2 -->
<g id="node2" class="node"><title>Node2</title>
<polygon fill="white" stroke="#bfbfbf" points="129.974,-0.5 129.974,-19.5 183.974,-19.5 183.974,-0.5 129.974,-0.5"/>
<text text-anchor="middle" x="156.974" y="-7.5" font-family="Helvetica,sans-Serif" font-size="10.00">iostream</text>
</g>
<!-- Node1&#45;&gt;Node2 -->
<g id="edge1" class="edge"><title>Node1&#45;&gt;Node2</title>
<path fill="none" stroke="midnightblue" d="M187.089,-224.949C143.85,-208.596 76.8305,-177.837 33.9744,-132 15.2336,-111.956 13.8913,-102.795 7.97435,-76 6.05766,-67.3202 2.67489,-63.1364 7.97435,-56 11.4234,-51.3555 76.9483,-32.784 119.945,-20.9993"/>
<polygon fill="midnightblue" stroke="midnightblue" points="121.083,-24.3167 129.808,-18.3065 119.24,-17.5639 121.083,-24.3167"/>
</g>
<!-- Node3 -->
<g id="node3" class="node"><title>Node3</title>
<polygon fill="white" stroke="#bfbfbf" points="276.974,-168.5 276.974,-187.5 324.974,-187.5 324.974,-168.5 276.974,-168.5"/>
<text text-anchor="middle" x="300.974" y="-175.5" font-family="Helvetica,sans-Serif" font-size="10.00">stdlib.h</text>
</g>
<!-- Node1&#45;&gt;Node3 -->
<g id="edge2" class="edge"><title>Node1&#45;&gt;Node3</title>
<path fill="none" stroke="midnightblue" d="M246.037,-224.781C257.039,-215.613 271.339,-203.696 282.592,-194.319"/>
<polygon fill="midnightblue" stroke="midnightblue" points="285.056,-196.821 290.498,-187.731 280.575,-191.444 285.056,-196.821"/>
</g>
<!-- Node4 -->
<g id="node4" class="node"><title>Node4</title>
<g id="a_node4"><a xlink:href="../../d4/df9/ircclient_8h.xhtml" target="_top" xlink:title="ircclient.h">
<polygon fill="white" stroke="black" points="199.474,-168.5 199.474,-187.5 258.474,-187.5 258.474,-168.5 199.474,-168.5"/>
<text text-anchor="middle" x="228.974" y="-175.5" font-family="Helvetica,sans-Serif" font-size="10.00">ircclient.h</text>
</a>
</g>
</g>
<!-- Node1&#45;&gt;Node4 -->
<g id="edge3" class="edge"><title>Node1&#45;&gt;Node4</title>
<path fill="none" stroke="midnightblue" d="M228.974,-224.781C228.974,-216.781 228.974,-206.689 228.974,-198.017"/>
<polygon fill="midnightblue" stroke="midnightblue" points="232.474,-197.73 228.974,-187.731 225.474,-197.731 232.474,-197.73"/>
</g>
<!-- Node5 -->
<g id="node5" class="node"><title>Node5</title>
<polygon fill="white" stroke="#bfbfbf" points="16.4744,-56.5 16.4744,-75.5 69.4744,-75.5 69.4744,-56.5 16.4744,-56.5"/>
<text text-anchor="middle" x="42.9744" y="-63.5" font-family="Helvetica,sans-Serif" font-size="10.00">QVector</text>
</g>
<!-- Node4&#45;&gt;Node5 -->
<g id="edge4" class="edge"><title>Node4&#45;&gt;Node5</title>
<path fill="none" stroke="midnightblue" d="M199.165,-174.034C152.16,-168.682 64.1737,-155.701 44.9744,-132 34.6565,-119.263 35.3987,-100.066 37.9744,-85.8338"/>
<polygon fill="midnightblue" stroke="midnightblue" points="41.4735,-86.2268 40.257,-75.7021 34.6447,-84.6883 41.4735,-86.2268"/>
</g>
<!-- Node6 -->
<g id="node6" class="node"><title>Node6</title>
<polygon fill="white" stroke="#bfbfbf" points="126.474,-112.5 126.474,-131.5 175.474,-131.5 175.474,-112.5 126.474,-112.5"/>
<text text-anchor="middle" x="150.974" y="-119.5" font-family="Helvetica,sans-Serif" font-size="10.00">QBuffer</text>
</g>
<!-- Node4&#45;&gt;Node6 -->
<g id="edge5" class="edge"><title>Node4&#45;&gt;Node6</title>
<path fill="none" stroke="midnightblue" d="M216.442,-168.324C204.388,-159.979 185.948,-147.212 171.706,-137.352"/>
<polygon fill="midnightblue" stroke="midnightblue" points="173.689,-134.469 163.475,-131.655 169.705,-140.224 173.689,-134.469"/>
</g>
<!-- Node7 -->
<g id="node7" class="node"><title>Node7</title>
<polygon fill="white" stroke="#bfbfbf" points="61.9744,-0.5 61.9744,-19.5 111.974,-19.5 111.974,-0.5 61.9744,-0.5"/>
<text text-anchor="middle" x="86.9744" y="-7.5" font-family="Helvetica,sans-Serif" font-size="10.00">QString</text>
</g>
<!-- Node4&#45;&gt;Node7 -->
<g id="edge6" class="edge"><title>Node4&#45;&gt;Node7</title>
<path fill="none" stroke="midnightblue" d="M199.424,-177.866C157.943,-177.532 82.1407,-171.067 33.9744,-132 6.24809,-109.512 -9.96535,-86.8648 7.97435,-56 17.5886,-39.4588 35.8091,-28.4932 52.3306,-21.5316"/>
<polygon fill="midnightblue" stroke="midnightblue" points="53.7147,-24.7492 61.784,-17.8835 51.1945,-18.2185 53.7147,-24.7492"/>
</g>
<!-- Node8 -->
<g id="node8" class="node"><title>Node8</title>
<polygon fill="white" stroke="#bfbfbf" points="193.974,-112.5 193.974,-131.5 263.974,-131.5 263.974,-112.5 193.974,-112.5"/>
<text text-anchor="middle" x="228.974" y="-119.5" font-family="Helvetica,sans-Serif" font-size="10.00">QTcpSocket</text>
</g>
<!-- Node4&#45;&gt;Node8 -->
<g id="edge7" class="edge"><title>Node4&#45;&gt;Node8</title>
<path fill="none" stroke="midnightblue" d="M228.974,-168.083C228.974,-161.006 228.974,-150.861 228.974,-141.986"/>
<polygon fill="midnightblue" stroke="midnightblue" points="232.474,-141.751 228.974,-131.751 225.474,-141.751 232.474,-141.751"/>
</g>
<!-- Node9 -->
<g id="node9" class="node"><title>Node9</title>
<polygon fill="white" stroke="#bfbfbf" points="350.474,-0.5 350.474,-19.5 415.474,-19.5 415.474,-0.5 350.474,-0.5"/>
<text text-anchor="middle" x="382.974" y="-7.5" font-family="Helvetica,sans-Serif" font-size="10.00">QStringList</text>
</g>
<!-- Node4&#45;&gt;Node9 -->
<g id="edge8" class="edge"><title>Node4&#45;&gt;Node9</title>
<path fill="none" stroke="midnightblue" d="M258.737,-169.896C261.85,-169.224 264.972,-168.579 267.974,-168 319.204,-158.128 466.029,-171.619 499.974,-132 535.386,-90.6701 457.339,-45.4308 412.183,-23.8476"/>
<polygon fill="midnightblue" stroke="midnightblue" points="413.641,-20.6658 403.099,-19.611 410.682,-27.0098 413.641,-20.6658"/>
</g>
<!-- Node10 -->
<g id="node10" class="node"><title>Node10</title>
<polygon fill="white" stroke="#bfbfbf" points="319.974,-112.5 319.974,-131.5 393.974,-131.5 393.974,-112.5 319.974,-112.5"/>
<text text-anchor="middle" x="356.974" y="-119.5" font-family="Helvetica,sans-Serif" font-size="10.00">QTextStream</text>
</g>
<!-- Node4&#45;&gt;Node10 -->
<g id="edge9" class="edge"><title>Node4&#45;&gt;Node10</title>
<path fill="none" stroke="midnightblue" d="M249.256,-168.444C270.322,-159.557 303.491,-145.563 327.46,-135.451"/>
<polygon fill="midnightblue" stroke="midnightblue" points="328.934,-138.628 336.787,-131.516 326.213,-132.179 328.934,-138.628"/>
</g>
<!-- Node11 -->
<g id="node11" class="node"><title>Node11</title>
<g id="a_node11"><a xlink:href="../../df/df2/irc_codes_8h.xhtml" target="_top" xlink:title="ircCodes.h">
<polygon fill="white" stroke="black" points="412.474,-112.5 412.474,-131.5 475.474,-131.5 475.474,-112.5 412.474,-112.5"/>
<text text-anchor="middle" x="443.974" y="-119.5" font-family="Helvetica,sans-Serif" font-size="10.00">ircCodes.h</text>
</a>
</g>
</g>
<!-- Node4&#45;&gt;Node11 -->
<g id="edge10" class="edge"><title>Node4&#45;&gt;Node11</title>
<path fill="none" stroke="midnightblue" d="M258.869,-169.492C296.177,-160.121 360.187,-144.044 402.294,-133.468"/>
<polygon fill="midnightblue" stroke="midnightblue" points="403.39,-136.802 412.236,-130.972 401.685,-130.013 403.39,-136.802"/>
</g>
<!-- Node12 -->
<g id="node12" class="node"><title>Node12</title>
<g id="a_node12"><a xlink:href="../../d8/d5c/functions_8h.xhtml" target="_top" xlink:title="functions.h">
<polygon fill="white" stroke="black" points="227.974,-56.5 227.974,-75.5 291.974,-75.5 291.974,-56.5 227.974,-56.5"/>
<text text-anchor="middle" x="259.974" y="-63.5" font-family="Helvetica,sans-Serif" font-size="10.00">functions.h</text>
</a>
</g>
</g>
<!-- Node4&#45;&gt;Node12 -->
<g id="edge11" class="edge"><title>Node4&#45;&gt;Node12</title>
<path fill="none" stroke="midnightblue" d="M241.755,-168.369C252.369,-160.36 266.705,-147.379 272.974,-132 279.144,-116.864 274.467,-98.5154 269.079,-85.1779"/>
<polygon fill="midnightblue" stroke="midnightblue" points="272.108,-83.3828 264.799,-75.713 265.73,-86.2668 272.108,-83.3828"/>
</g>
<!-- Node15 -->
<g id="node15" class="node"><title>Node15</title>
<g id="a_node15"><a xlink:href="../../d7/d62/clslog_8h.xhtml" target="_top" xlink:title="../resources/clslog.h">
<polygon fill="white" stroke="black" points="330.474,-56.5 330.474,-75.5 435.474,-75.5 435.474,-56.5 330.474,-56.5"/>
<text text-anchor="middle" x="382.974" y="-63.5" font-family="Helvetica,sans-Serif" font-size="10.00">../resources/clslog.h</text>
</a>
</g>
</g>
<!-- Node4&#45;&gt;Node15 -->
<g id="edge16" class="edge"><title>Node4&#45;&gt;Node15</title>
<path fill="none" stroke="midnightblue" d="M258.744,-169.931C261.855,-169.252 264.975,-168.595 267.974,-168 315.705,-158.524 452.52,-169.13 483.974,-132 504.487,-107.785 464.914,-89.3891 429.447,-78.4512"/>
<polygon fill="midnightblue" stroke="midnightblue" points="430.187,-75.0208 419.606,-75.5653 428.217,-81.7379 430.187,-75.0208"/>
</g>
<!-- Node18 -->
<g id="node18" class="node"><title>Node18</title>
<g id="a_node18"><a xlink:href="../../d6/d32/custom_irc_server_2ircuser_8h.xhtml" target="_top" xlink:title="ircuser.h">
<polygon fill="white" stroke="black" points="53.9744,-112.5 53.9744,-131.5 107.974,-131.5 107.974,-112.5 53.9744,-112.5"/>
<text text-anchor="middle" x="80.9744" y="-119.5" font-family="Helvetica,sans-Serif" font-size="10.00">ircuser.h</text>
</a>
</g>
</g>
<!-- Node4&#45;&gt;Node18 -->
<g id="edge22" class="edge"><title>Node4&#45;&gt;Node18</title>
<path fill="none" stroke="midnightblue" d="M205.523,-168.444C180.842,-159.438 141.789,-145.189 113.998,-135.049"/>
<polygon fill="midnightblue" stroke="midnightblue" points="114.91,-131.656 104.316,-131.516 112.51,-138.232 114.91,-131.656"/>
</g>
<!-- Node13 -->
<g id="node13" class="node"><title>Node13</title>
<polygon fill="white" stroke="#bfbfbf" points="291.474,-0.5 291.474,-19.5 332.474,-19.5 332.474,-0.5 291.474,-0.5"/>
<text text-anchor="middle" x="311.974" y="-7.5" font-family="Helvetica,sans-Serif" font-size="10.00">string</text>
</g>
<!-- Node12&#45;&gt;Node13 -->
<g id="edge12" class="edge"><title>Node12&#45;&gt;Node13</title>
<path fill="none" stroke="midnightblue" d="M268.561,-56.083C276.133,-48.2195 287.353,-36.5688 296.489,-27.0813"/>
<polygon fill="midnightblue" stroke="midnightblue" points="299.132,-29.3821 303.547,-19.7511 294.09,-24.5266 299.132,-29.3821"/>
</g>
<!-- Node12&#45;&gt;Node7 -->
<g id="edge13" class="edge"><title>Node12&#45;&gt;Node7</title>
<path fill="none" stroke="midnightblue" d="M232.562,-56.4435C202.514,-47.0645 154.245,-31.9978 121.603,-21.8089"/>
<polygon fill="midnightblue" stroke="midnightblue" points="122.6,-18.4538 112.012,-18.8151 120.515,-25.1358 122.6,-18.4538"/>
</g>
<!-- Node12&#45;&gt;Node9 -->
<g id="edge14" class="edge"><title>Node12&#45;&gt;Node9</title>
<path fill="none" stroke="midnightblue" d="M279.464,-56.4435C299.617,-47.5961 331.297,-33.6875 354.305,-23.5865"/>
<polygon fill="midnightblue" stroke="midnightblue" points="355.826,-26.7411 363.576,-19.5164 353.012,-20.3316 355.826,-26.7411"/>
</g>
<!-- Node14 -->
<g id="node14" class="node"><title>Node14</title>
<polygon fill="white" stroke="#bfbfbf" points="202.474,-0.5 202.474,-19.5 273.474,-19.5 273.474,-0.5 202.474,-0.5"/>
<text text-anchor="middle" x="237.974" y="-7.5" font-family="Helvetica,sans-Serif" font-size="10.00">QVariantList</text>
</g>
<!-- Node12&#45;&gt;Node14 -->
<g id="edge15" class="edge"><title>Node12&#45;&gt;Node14</title>
<path fill="none" stroke="midnightblue" d="M256.342,-56.083C253.362,-48.77 249.048,-38.1814 245.35,-29.1034"/>
<polygon fill="midnightblue" stroke="midnightblue" points="248.554,-27.6914 241.54,-19.7511 242.071,-30.3326 248.554,-27.6914"/>
</g>
<!-- Node16 -->
<g id="node16" class="node"><title>Node16</title>
<polygon fill="white" stroke="#bfbfbf" points="516.974,-0.5 516.974,-19.5 568.974,-19.5 568.974,-0.5 516.974,-0.5"/>
<text text-anchor="middle" x="542.974" y="-7.5" font-family="Helvetica,sans-Serif" font-size="10.00">QDebug</text>
</g>
<!-- Node15&#45;&gt;Node16 -->
<g id="edge17" class="edge"><title>Node15&#45;&gt;Node16</title>
<path fill="none" stroke="midnightblue" d="M408.327,-56.4435C435.244,-47.3591 477.971,-32.9388 508.061,-22.7831"/>
<polygon fill="midnightblue" stroke="midnightblue" points="509.385,-26.0305 517.74,-19.5164 507.146,-19.3981 509.385,-26.0305"/>
</g>
<!-- Node17 -->
<g id="node17" class="node"><title>Node17</title>
<polygon fill="white" stroke="#bfbfbf" points="433.474,-0.5 433.474,-19.5 498.474,-19.5 498.474,-0.5 433.474,-0.5"/>
<text text-anchor="middle" x="465.974" y="-7.5" font-family="Helvetica,sans-Serif" font-size="10.00">QDateTime</text>
</g>
<!-- Node15&#45;&gt;Node17 -->
<g id="edge18" class="edge"><title>Node15&#45;&gt;Node17</title>
<path fill="none" stroke="midnightblue" d="M396.31,-56.324C409.136,-47.979 428.759,-35.2122 443.914,-25.3524"/>
<polygon fill="midnightblue" stroke="midnightblue" points="446.199,-28.0417 452.672,-19.6545 442.381,-22.1742 446.199,-28.0417"/>
</g>
<!-- Node15&#45;&gt;Node13 -->
<g id="edge19" class="edge"><title>Node15&#45;&gt;Node13</title>
<path fill="none" stroke="midnightblue" d="M371.567,-56.324C360.866,-48.1849 344.634,-35.8395 331.812,-26.0874"/>
<polygon fill="midnightblue" stroke="midnightblue" points="333.668,-23.1018 323.589,-19.8339 329.43,-28.6734 333.668,-23.1018"/>
</g>
<!-- Node15&#45;&gt;Node2 -->
<g id="edge20" class="edge"><title>Node15&#45;&gt;Node2</title>
<path fill="none" stroke="midnightblue" d="M346.163,-56.4243C309.882,-47.9407 252.609,-34.4638 193.906,-20.2056"/>
<polygon fill="midnightblue" stroke="midnightblue" points="194.636,-16.7812 184.092,-17.8178 192.981,-23.5827 194.636,-16.7812"/>
</g>
<!-- Node15&#45;&gt;Node9 -->
<g id="edge21" class="edge"><title>Node15&#45;&gt;Node9</title>
<path fill="none" stroke="midnightblue" d="M382.974,-56.083C382.974,-49.0059 382.974,-38.8611 382.974,-29.9865"/>
<polygon fill="midnightblue" stroke="midnightblue" points="386.474,-29.751 382.974,-19.7511 379.474,-29.7511 386.474,-29.751"/>
</g>
<!-- Node18&#45;&gt;Node7 -->
<g id="edge23" class="edge"><title>Node18&#45;&gt;Node7</title>
<path fill="none" stroke="midnightblue" d="M81.4452,-112.368C82.4134,-94.617 84.6471,-53.6664 85.9599,-29.5974"/>
<polygon fill="midnightblue" stroke="midnightblue" points="89.4558,-29.7672 86.5057,-19.5914 82.4662,-29.3859 89.4558,-29.7672"/>
</g>
<!-- Node18&#45;&gt;Node5 -->
<g id="edge24" class="edge"><title>Node18&#45;&gt;Node5</title>
<path fill="none" stroke="midnightblue" d="M74.6994,-112.083C69.3319,-104.455 61.4568,-93.2645 54.8957,-83.9408"/>
<polygon fill="midnightblue" stroke="midnightblue" points="57.7498,-81.9149 49.1325,-75.7511 52.0252,-85.9434 57.7498,-81.9149"/>
</g>
<!-- Node19 -->
<g id="node19" class="node"><title>Node19</title>
<polygon fill="white" stroke="#bfbfbf" points="125.974,-56.5 125.974,-75.5 199.974,-75.5 199.974,-56.5 125.974,-56.5"/>
<text text-anchor="middle" x="162.974" y="-63.5" font-family="Helvetica,sans-Serif" font-size="10.00">QVariantMap</text>
</g>
<!-- Node18&#45;&gt;Node19 -->
<g id="edge25" class="edge"><title>Node18&#45;&gt;Node19</title>
<path fill="none" stroke="midnightblue" d="M94.1491,-112.324C106.821,-103.979 126.208,-91.2122 141.18,-81.3524"/>
<polygon fill="midnightblue" stroke="midnightblue" points="143.406,-84.0776 149.832,-75.6545 139.556,-78.2313 143.406,-84.0776"/>
</g>
<!-- Node18&#45;&gt;Node12 -->
<g id="edge26" class="edge"><title>Node18&#45;&gt;Node12</title>
<path fill="none" stroke="midnightblue" d="M108.161,-112.799C138.515,-103.641 187.853,-88.7572 222.006,-78.454"/>
<polygon fill="midnightblue" stroke="midnightblue" points="223.081,-81.7858 231.644,-75.5467 221.059,-75.0841 223.081,-81.7858"/>
</g>
<!-- Node18&#45;&gt;Node15 -->
<g id="edge27" class="edge"><title>Node18&#45;&gt;Node15</title>
<path fill="none" stroke="midnightblue" d="M108.003,-114.193C111.353,-113.418 114.737,-112.668 117.974,-112 186.78,-97.8082 266.305,-84.7456 320.147,-76.3921"/>
<polygon fill="midnightblue" stroke="midnightblue" points="320.879,-79.8208 330.228,-74.8366 319.811,-72.9027 320.879,-79.8208"/>
</g>
</g>
</svg>
        <g id="navigator" transform="translate(0 0)" fill="#404254">
                <rect fill="#f2f5e9" fill-opacity="0.5" stroke="#606060" stroke-width=".5" x="0" y="0" width="60" height="60"/>
                <use id="zoomplus" xlink:href="#zoomPlus" x="17" y="9" onmousedown="handleZoom(evt,'in')"/>
                <use id="zoomminus" xlink:href="#zoomMin" x="42" y="9" onmousedown="handleZoom(evt,'out')"/>
                <use id="reset" xlink:href="#resetDef" x="30" y="36" onmousedown="handleReset()"/>
                <g id="arrowUp" xlink:href="#dirArrow" transform="translate(30 24)" onmousedown="handlePan(0,-1)">
                  <use xlink:href="#rim" fill="#404040">
                        <set attributeName="fill" to="#808080" begin="arrowUp.mouseover" end="arrowUp.mouseout"/>
                  </use>
                  <path fill="none" stroke="white" stroke-width="1.5" d="M0,-3.0v7 M-2.5,-0.5L0,-3.0L2.5,-0.5"/>
                </g>
                <g id="arrowRight" xlink:href="#dirArrow" transform="rotate(90) translate(36 -43)" onmousedown="handlePan(1,0)">
                  <use xlink:href="#rim" fill="#404040">
                        <set attributeName="fill" to="#808080" begin="arrowRight.mouseover" end="arrowRight.mouseout"/>
                  </use>
                  <path fill="none" stroke="white" stroke-width="1.5" d="M0,-3.0v7 M-2.5,-0.5L0,-3.0L2.5,-0.5"/>
                </g>
                <g id="arrowDown" xlink:href="#dirArrow" transform="rotate(180) translate(-30 -48)" onmousedown="handlePan(0,1)">
                  <use xlink:href="#rim" fill="#404040">
                        <set attributeName="fill" to="#808080" begin="arrowDown.mouseover" end="arrowDown.mouseout"/>
                  </use>
                  <path fill="none" stroke="white" stroke-width="1.5" d="M0,-3.0v7 M-2.5,-0.5L0,-3.0L2.5,-0.5"/>
                </g>
                <g id="arrowLeft" xlink:href="#dirArrow" transform="rotate(270) translate(-36 17)" onmousedown="handlePan(-1,0)">
                  <use xlink:href="#rim" fill="#404040">
                        <set attributeName="fill" to="#808080" begin="arrowLeft.mouseover" end="arrowLeft.mouseout"/>
                  </use>
                  <path fill="none" stroke="white" stroke-width="1.5" d="M0,-3.0v7 M-2.5,-0.5L0,-3.0L2.5,-0.5"/>
                </g>
        </g>
        <svg viewBox="0 0 15 15" width="100%" height="30px" preserveAspectRatio="xMaxYMin meet">
         <g id="arrow_out" transform="scale(0.3 0.3)">
          <a xlink:href="ircclient_8cpp__incl_org.svg" target="_base">
           <rect id="button" ry="5" rx="5" y="6" x="6" height="38" width="38"
                fill="#f2f5e9" fill-opacity="0.5" stroke="#606060" stroke-width="1.0"/>
           <path id="arrow"
             d="M 11.500037,31.436501 C 11.940474,20.09759 22.043105,11.32322 32.158766,21.979434 L 37.068811,17.246167 C 37.068811,17.246167 37.088388,32 37.088388,32 L 22.160133,31.978069 C 22.160133,31.978069 26.997745,27.140456 26.997745,27.140456 C 18.528582,18.264221 13.291696,25.230495 11.500037,31.436501 z"
             style="fill:#404040;"/>
          </a>
         </g>
        </svg>
</svg>
