<?xml version="1.0" encoding="UTF-8" standalone="no"?>
<!DOCTYPE svg PUBLIC "-//W3C//DTD SVG 1.1//EN"
 "http://www.w3.org/Graphics/SVG/1.1/DTD/svg11.dtd">
<!-- Generated by graphviz version 2.30.1 (20130303.0817)
 -->
<!-- Title: C++/customIrcClient/desktop/clsuserentry.cpp Pages: 1 -->
<svg width="908pt" height="264pt"
 viewBox="0.00 0.00 908.00 264.00" xmlns="http://www.w3.org/2000/svg" xmlns:xlink="http://www.w3.org/1999/xlink">
<g id="graph0" class="graph" transform="scale(1 1) rotate(0) translate(4 260)">
<title>C++/customIrcClient/desktop/clsuserentry.cpp</title>
<polygon fill="white" stroke="white" points="-4,5 -4,-260 905,-260 905,5 -4,5"/>
<!-- Node1 -->
<g id="node1" class="node"><title>Node1</title>
<polygon fill="#bfbfbf" stroke="black" points="223.5,-225 223.5,-255 352.5,-255 352.5,-225 223.5,-225"/>
<text text-anchor="start" x="231.5" y="-243" font-family="Helvetica,sans-Serif" font-size="10.00">C++/customIrcClient</text>
<text text-anchor="middle" x="288" y="-232" font-family="Helvetica,sans-Serif" font-size="10.00">/desktop/clsuserentry.cpp</text>
</g>
<!-- Node2 -->
<g id="node2" class="node"><title>Node2</title>
<g id="a_node2"><a xlink:href="../../dc/da0/clsuserentry_8h.xhtml" target="_top" xlink:title="clsuserentry.h">
<polygon fill="white" stroke="black" points="198,-168.5 198,-187.5 276,-187.5 276,-168.5 198,-168.5"/>
<text text-anchor="middle" x="237" y="-175.5" font-family="Helvetica,sans-Serif" font-size="10.00">clsuserentry.h</text>
</a>
</g>
</g>
<!-- Node1&#45;&gt;Node2 -->
<g id="edge1" class="edge"><title>Node1&#45;&gt;Node2</title>
<path fill="none" stroke="midnightblue" d="M275.914,-224.781C268.426,-215.972 258.782,-204.626 250.968,-195.433"/>
<polygon fill="midnightblue" stroke="midnightblue" points="253.564,-193.083 244.421,-187.731 248.231,-197.617 253.564,-193.083"/>
</g>
<!-- Node19 -->
<g id="node19" class="node"><title>Node19</title>
<polygon fill="white" stroke="#bfbfbf" points="294.5,-168.5 294.5,-187.5 385.5,-187.5 385.5,-168.5 294.5,-168.5"/>
<text text-anchor="middle" x="340" y="-175.5" font-family="Helvetica,sans-Serif" font-size="10.00">ui_clsuserentry.h</text>
</g>
<!-- Node1&#45;&gt;Node19 -->
<g id="edge18" class="edge"><title>Node1&#45;&gt;Node19</title>
<path fill="none" stroke="midnightblue" d="M300.323,-224.781C307.957,-215.972 317.791,-204.626 325.758,-195.433"/>
<polygon fill="midnightblue" stroke="midnightblue" points="328.529,-197.58 332.434,-187.731 323.239,-192.995 328.529,-197.58"/>
</g>
<!-- Node3 -->
<g id="node3" class="node"><title>Node3</title>
<polygon fill="white" stroke="#bfbfbf" points="140.5,-112.5 140.5,-131.5 195.5,-131.5 195.5,-112.5 140.5,-112.5"/>
<text text-anchor="middle" x="168" y="-119.5" font-family="Helvetica,sans-Serif" font-size="10.00">QWidget</text>
</g>
<!-- Node2&#45;&gt;Node3 -->
<g id="edge2" class="edge"><title>Node2&#45;&gt;Node3</title>
<path fill="none" stroke="midnightblue" d="M225.914,-168.324C215.514,-160.185 199.739,-147.839 187.278,-138.087"/>
<polygon fill="midnightblue" stroke="midnightblue" points="189.32,-135.241 179.288,-131.834 185.006,-140.753 189.32,-135.241"/>
</g>
<!-- Node4 -->
<g id="node4" class="node"><title>Node4</title>
<polygon fill="white" stroke="#bfbfbf" points="213.5,-112.5 213.5,-131.5 260.5,-131.5 260.5,-112.5 213.5,-112.5"/>
<text text-anchor="middle" x="237" y="-119.5" font-family="Helvetica,sans-Serif" font-size="10.00">QLabel</text>
</g>
<!-- Node2&#45;&gt;Node4 -->
<g id="edge3" class="edge"><title>Node2&#45;&gt;Node4</title>
<path fill="none" stroke="midnightblue" d="M237,-168.083C237,-161.006 237,-150.861 237,-141.986"/>
<polygon fill="midnightblue" stroke="midnightblue" points="240.5,-141.751 237,-131.751 233.5,-141.751 240.5,-141.751"/>
</g>
<!-- Node5 -->
<g id="node5" class="node"><title>Node5</title>
<g id="a_node5"><a xlink:href="../../d5/d98/custom_irc_client_2ircuser_8h.xhtml" target="_top" xlink:title="../ircuser.h">
<polygon fill="white" stroke="black" points="278.5,-112.5 278.5,-131.5 341.5,-131.5 341.5,-112.5 278.5,-112.5"/>
<text text-anchor="middle" x="310" y="-119.5" font-family="Helvetica,sans-Serif" font-size="10.00">../ircuser.h</text>
</a>
</g>
</g>
<!-- Node2&#45;&gt;Node5 -->
<g id="edge4" class="edge"><title>Node2&#45;&gt;Node5</title>
<path fill="none" stroke="midnightblue" d="M248.729,-168.324C259.837,-160.107 276.742,-147.602 289.983,-137.807"/>
<polygon fill="midnightblue" stroke="midnightblue" points="292.1,-140.595 298.058,-131.834 287.937,-134.967 292.1,-140.595"/>
</g>
<!-- Node6 -->
<g id="node6" class="node"><title>Node6</title>
<polygon fill="white" stroke="#bfbfbf" points="-0.5,-56.5 -0.5,-75.5 52.5,-75.5 52.5,-56.5 -0.5,-56.5"/>
<text text-anchor="middle" x="26" y="-63.5" font-family="Helvetica,sans-Serif" font-size="10.00">QObject</text>
</g>
<!-- Node5&#45;&gt;Node6 -->
<g id="edge5" class="edge"><title>Node5&#45;&gt;Node6</title>
<path fill="none" stroke="midnightblue" d="M278.245,-113.885C275.125,-113.229 272.003,-112.59 269,-112 180.505,-94.6006 155.078,-95.2671 62.746,-76.0211"/>
<polygon fill="midnightblue" stroke="midnightblue" points="63.193,-72.5385 52.6862,-73.9012 61.7496,-79.388 63.193,-72.5385"/>
</g>
<!-- Node7 -->
<g id="node7" class="node"><title>Node7</title>
<polygon fill="white" stroke="#bfbfbf" points="71,-56.5 71,-75.5 121,-75.5 121,-56.5 71,-56.5"/>
<text text-anchor="middle" x="96" y="-63.5" font-family="Helvetica,sans-Serif" font-size="10.00">QString</text>
</g>
<!-- Node5&#45;&gt;Node7 -->
<g id="edge6" class="edge"><title>Node5&#45;&gt;Node7</title>
<path fill="none" stroke="midnightblue" d="M278.426,-113.246C244.426,-104.866 188.486,-90.9902 131.194,-76.2828"/>
<polygon fill="midnightblue" stroke="midnightblue" points="131.798,-72.8242 121.241,-73.7228 130.054,-79.6036 131.798,-72.8242"/>
</g>
<!-- Node8 -->
<g id="node8" class="node"><title>Node8</title>
<polygon fill="white" stroke="#bfbfbf" points="139.5,-56.5 139.5,-75.5 186.5,-75.5 186.5,-56.5 139.5,-56.5"/>
<text text-anchor="middle" x="163" y="-63.5" font-family="Helvetica,sans-Serif" font-size="10.00">QColor</text>
</g>
<!-- Node5&#45;&gt;Node8 -->
<g id="edge7" class="edge"><title>Node5&#45;&gt;Node8</title>
<path fill="none" stroke="midnightblue" d="M286.707,-112.444C262.193,-103.438 223.404,-89.1891 195.8,-79.049"/>
<polygon fill="midnightblue" stroke="midnightblue" points="196.777,-75.6793 186.184,-75.5164 194.363,-82.25 196.777,-75.6793"/>
</g>
<!-- Node9 -->
<g id="node9" class="node"><title>Node9</title>
<polygon fill="white" stroke="#bfbfbf" points="205,-56.5 205,-75.5 289,-75.5 289,-56.5 205,-56.5"/>
<text text-anchor="middle" x="247" y="-63.5" font-family="Helvetica,sans-Serif" font-size="10.00">QGraphicsView</text>
</g>
<!-- Node5&#45;&gt;Node9 -->
<g id="edge8" class="edge"><title>Node5&#45;&gt;Node9</title>
<path fill="none" stroke="midnightblue" d="M299.878,-112.324C290.474,-104.263 276.256,-92.0765 264.931,-82.3695"/>
<polygon fill="midnightblue" stroke="midnightblue" points="267.177,-79.6844 257.306,-75.8339 262.621,-84.9993 267.177,-79.6844"/>
</g>
<!-- Node10 -->
<g id="node10" class="node"><title>Node10</title>
<polygon fill="white" stroke="#bfbfbf" points="307,-56.5 307,-75.5 437,-75.5 437,-56.5 307,-56.5"/>
<text text-anchor="middle" x="372" y="-63.5" font-family="Helvetica,sans-Serif" font-size="10.00">QNetworkAccessManager</text>
</g>
<!-- Node5&#45;&gt;Node10 -->
<g id="edge9" class="edge"><title>Node5&#45;&gt;Node10</title>
<path fill="none" stroke="midnightblue" d="M319.961,-112.324C329.127,-104.341 342.937,-92.3128 354.028,-82.6529"/>
<polygon fill="midnightblue" stroke="midnightblue" points="356.615,-85.041 361.857,-75.8339 352.018,-79.7624 356.615,-85.041"/>
</g>
<!-- Node11 -->
<g id="node11" class="node"><title>Node11</title>
<polygon fill="white" stroke="#bfbfbf" points="455.5,-56.5 455.5,-75.5 550.5,-75.5 550.5,-56.5 455.5,-56.5"/>
<text text-anchor="middle" x="503" y="-63.5" font-family="Helvetica,sans-Serif" font-size="10.00">QNetworkRequest</text>
</g>
<!-- Node5&#45;&gt;Node11 -->
<g id="edge10" class="edge"><title>Node5&#45;&gt;Node11</title>
<path fill="none" stroke="midnightblue" d="M340.581,-112.444C373.615,-103.201 426.388,-88.4356 462.766,-78.2572"/>
<polygon fill="midnightblue" stroke="midnightblue" points="463.875,-81.5815 472.562,-75.5164 461.988,-74.8404 463.875,-81.5815"/>
</g>
<!-- Node12 -->
<g id="node12" class="node"><title>Node12</title>
<polygon fill="white" stroke="#bfbfbf" points="569,-56.5 569,-75.5 653,-75.5 653,-56.5 569,-56.5"/>
<text text-anchor="middle" x="611" y="-63.5" font-family="Helvetica,sans-Serif" font-size="10.00">QNetworkReply</text>
</g>
<!-- Node5&#45;&gt;Node12 -->
<g id="edge11" class="edge"><title>Node5&#45;&gt;Node12</title>
<path fill="none" stroke="midnightblue" d="M341.643,-115.323C393.259,-106.063 496.083,-87.6164 558.686,-76.3852"/>
<polygon fill="midnightblue" stroke="midnightblue" points="559.527,-79.7903 568.752,-74.5793 558.291,-72.9003 559.527,-79.7903"/>
</g>
<!-- Node13 -->
<g id="node13" class="node"><title>Node13</title>
<g id="a_node13"><a xlink:href="../../d7/d62/clslog_8h.xhtml" target="_top" xlink:title="../resources/clslog.h">
<polygon fill="white" stroke="black" points="671.5,-56.5 671.5,-75.5 776.5,-75.5 776.5,-56.5 671.5,-56.5"/>
<text text-anchor="middle" x="724" y="-63.5" font-family="Helvetica,sans-Serif" font-size="10.00">../resources/clslog.h</text>
</a>
</g>
</g>
<!-- Node5&#45;&gt;Node13 -->
<g id="edge12" class="edge"><title>Node5&#45;&gt;Node13</title>
<path fill="none" stroke="midnightblue" d="M341.962,-117.059C403.67,-109.414 543.502,-91.9238 661,-76 661.106,-75.9856 661.212,-75.9712 661.318,-75.9568"/>
<polygon fill="midnightblue" stroke="midnightblue" points="661.983,-79.3986 671.413,-74.5701 661.03,-72.4637 661.983,-79.3986"/>
</g>
<!-- Node14 -->
<g id="node14" class="node"><title>Node14</title>
<polygon fill="white" stroke="#bfbfbf" points="550,-0.5 550,-19.5 602,-19.5 602,-0.5 550,-0.5"/>
<text text-anchor="middle" x="576" y="-7.5" font-family="Helvetica,sans-Serif" font-size="10.00">QDebug</text>
</g>
<!-- Node13&#45;&gt;Node14 -->
<g id="edge13" class="edge"><title>Node13&#45;&gt;Node14</title>
<path fill="none" stroke="midnightblue" d="M700.549,-56.4435C675.867,-47.4381 636.815,-33.1891 609.023,-23.049"/>
<polygon fill="midnightblue" stroke="midnightblue" points="609.935,-19.6561 599.341,-19.5164 607.536,-26.2321 609.935,-19.6561"/>
</g>
<!-- Node15 -->
<g id="node15" class="node"><title>Node15</title>
<polygon fill="white" stroke="#bfbfbf" points="620.5,-0.5 620.5,-19.5 685.5,-19.5 685.5,-0.5 620.5,-0.5"/>
<text text-anchor="middle" x="653" y="-7.5" font-family="Helvetica,sans-Serif" font-size="10.00">QDateTime</text>
</g>
<!-- Node13&#45;&gt;Node15 -->
<g id="edge14" class="edge"><title>Node13&#45;&gt;Node15</title>
<path fill="none" stroke="midnightblue" d="M712.593,-56.324C701.891,-48.1849 685.659,-35.8395 672.837,-26.0874"/>
<polygon fill="midnightblue" stroke="midnightblue" points="674.693,-23.1018 664.615,-19.8339 670.456,-28.6734 674.693,-23.1018"/>
</g>
<!-- Node16 -->
<g id="node16" class="node"><title>Node16</title>
<polygon fill="white" stroke="#bfbfbf" points="703.5,-0.5 703.5,-19.5 744.5,-19.5 744.5,-0.5 703.5,-0.5"/>
<text text-anchor="middle" x="724" y="-7.5" font-family="Helvetica,sans-Serif" font-size="10.00">string</text>
</g>
<!-- Node13&#45;&gt;Node16 -->
<g id="edge15" class="edge"><title>Node13&#45;&gt;Node16</title>
<path fill="none" stroke="midnightblue" d="M724,-56.083C724,-49.0059 724,-38.8611 724,-29.9865"/>
<polygon fill="midnightblue" stroke="midnightblue" points="727.5,-29.751 724,-19.7511 720.5,-29.7511 727.5,-29.751"/>
</g>
<!-- Node17 -->
<g id="node17" class="node"><title>Node17</title>
<polygon fill="white" stroke="#bfbfbf" points="763,-0.5 763,-19.5 817,-19.5 817,-0.5 763,-0.5"/>
<text text-anchor="middle" x="790" y="-7.5" font-family="Helvetica,sans-Serif" font-size="10.00">iostream</text>
</g>
<!-- Node13&#45;&gt;Node17 -->
<g id="edge16" class="edge"><title>Node13&#45;&gt;Node17</title>
<path fill="none" stroke="midnightblue" d="M734.604,-56.324C744.456,-48.2631 759.351,-36.0765 771.215,-26.3695"/>
<polygon fill="midnightblue" stroke="midnightblue" points="773.68,-28.8752 779.203,-19.8339 769.247,-23.4575 773.68,-28.8752"/>
</g>
<!-- Node18 -->
<g id="node18" class="node"><title>Node18</title>
<polygon fill="white" stroke="#bfbfbf" points="835.5,-0.5 835.5,-19.5 900.5,-19.5 900.5,-0.5 835.5,-0.5"/>
<text text-anchor="middle" x="868" y="-7.5" font-family="Helvetica,sans-Serif" font-size="10.00">QStringList</text>
</g>
<!-- Node13&#45;&gt;Node18 -->
<g id="edge17" class="edge"><title>Node13&#45;&gt;Node18</title>
<path fill="none" stroke="midnightblue" d="M746.817,-56.4435C770.832,-47.4381 808.829,-33.1891 835.869,-23.049"/>
<polygon fill="midnightblue" stroke="midnightblue" points="837.155,-26.3049 845.29,-19.5164 834.697,-19.7506 837.155,-26.3049"/>
</g>
</g>
</svg>
