<?xml version="1.0" encoding="UTF-8" standalone="no"?>
<!DOCTYPE svg PUBLIC "-//W3C//DTD SVG 1.1//EN"
 "http://www.w3.org/Graphics/SVG/1.1/DTD/svg11.dtd">
<!-- Generated by graphviz version 2.30.1 (20130303.0817)
 -->
<!-- Title: shared::events::eventServerMessage::eventServerMessage Pages: 1 -->
<svg width="318pt" height="38pt"
 viewBox="0.00 0.00 318.00 38.00" xmlns="http://www.w3.org/2000/svg" xmlns:xlink="http://www.w3.org/1999/xlink">
<g id="graph0" class="graph" transform="scale(1 1) rotate(0) translate(4 34)">
<title>shared::events::eventServerMessage::eventServerMessage</title>
<polygon fill="white" stroke="white" points="-4,5 -4,-34 315,-34 315,5 -4,5"/>
<!-- Node1 -->
<g id="node1" class="node"><title>Node1</title>
<polygon fill="#bfbfbf" stroke="black" points="0,-0 0,-30 152,-30 152,-0 0,-0"/>
<text text-anchor="start" x="8" y="-18" font-family="Helvetica,sans-Serif" font-size="10.00">shared::events::eventServer</text>
<text text-anchor="middle" x="76" y="-7" font-family="Helvetica,sans-Serif" font-size="10.00">Message::eventServerMessage</text>
</g>
<!-- Node2 -->
<g id="node2" class="node"><title>Node2</title>
<g id="a_node2"><a xlink:href="../../db/d8b/classshared_1_1events_1_1cls_event.html#ae7cb0f0606ecf456e4005783a33f5851" target="_top" xlink:title="Adds data to the events data map.">
<polygon fill="white" stroke="black" points="188,-0 188,-30 310,-30 310,-0 188,-0"/>
<text text-anchor="start" x="196" y="-18" font-family="Helvetica,sans-Serif" font-size="10.00">shared::events::clsEvent</text>
<text text-anchor="middle" x="249" y="-7" font-family="Helvetica,sans-Serif" font-size="10.00">::addToData</text>
</a>
</g>
</g>
<!-- Node1&#45;&gt;Node2 -->
<g id="edge1" class="edge"><title>Node1&#45;&gt;Node2</title>
<path fill="none" stroke="midnightblue" d="M152.003,-15C160.552,-15 169.243,-15 177.727,-15"/>
<polygon fill="midnightblue" stroke="midnightblue" points="177.95,-18.5001 187.95,-15 177.95,-11.5001 177.95,-18.5001"/>
</g>
</g>
</svg>
