<?xml version="1.0" encoding="UTF-8" standalone="no"?>
<!DOCTYPE svg PUBLIC "-//W3C//DTD SVG 1.1//EN"
 "http://www.w3.org/Graphics/SVG/1.1/DTD/svg11.dtd">
<!-- Generated by graphviz version 2.30.1 (20130303.0817)
 -->
<!-- Title: shared::events::eventServerMessage::getLevel Pages: 1 -->
<svg width="446pt" height="38pt"
 viewBox="0.00 0.00 446.00 38.00" xmlns="http://www.w3.org/2000/svg" xmlns:xlink="http://www.w3.org/1999/xlink">
<g id="graph0" class="graph" transform="scale(1 1) rotate(0) translate(4 34)">
<title>shared::events::eventServerMessage::getLevel</title>
<polygon fill="white" stroke="white" points="-4,5 -4,-34 443,-34 443,5 -4,5"/>
<!-- Node1 -->
<g id="node1" class="node"><title>Node1</title>
<polygon fill="#bfbfbf" stroke="black" points="0.5,-0 0.5,-30 135.5,-30 135.5,-0 0.5,-0"/>
<text text-anchor="start" x="8.5" y="-18" font-family="Helvetica,sans-Serif" font-size="10.00">shared::events::eventServer</text>
<text text-anchor="middle" x="68" y="-7" font-family="Helvetica,sans-Serif" font-size="10.00">Message::getLevel</text>
</g>
<!-- Node2 -->
<g id="node2" class="node"><title>Node2</title>
<g id="a_node2"><a xlink:href="../../d2/da4/classclient_1_1_main_window.html#ae738b40e6b83639304d84f3d9f117c75" target="_top" xlink:title="Triggered when the server sends us a message that should be displayed in the UI.">
<polygon fill="white" stroke="black" points="172.5,-0 172.5,-30 299.5,-30 299.5,-0 172.5,-0"/>
<text text-anchor="start" x="180.5" y="-18" font-family="Helvetica,sans-Serif" font-size="10.00">client::MainWindow</text>
<text text-anchor="middle" x="236" y="-7" font-family="Helvetica,sans-Serif" font-size="10.00">::serverMessageReceived</text>
</a>
</g>
</g>
<!-- Node1&#45;&gt;Node2 -->
<g id="edge1" class="edge"><title>Node1&#45;&gt;Node2</title>
<path fill="none" stroke="midnightblue" d="M145.639,-15C154.621,-15 163.704,-15 172.462,-15"/>
<polygon fill="midnightblue" stroke="midnightblue" points="145.562,-11.5001 135.562,-15 145.562,-18.5001 145.562,-11.5001"/>
</g>
<!-- Node3 -->
<g id="node3" class="node"><title>Node3</title>
<g id="a_node3"><a xlink:href="../../d2/da4/classclient_1_1_main_window.html#ab4aedce719340218169c114b31b54f70" target="_top" xlink:title="client::MainWindow\l::MainWindow">
<polygon fill="white" stroke="black" points="336.5,-0 336.5,-30 437.5,-30 437.5,-0 336.5,-0"/>
<text text-anchor="start" x="344.5" y="-18" font-family="Helvetica,sans-Serif" font-size="10.00">client::MainWindow</text>
<text text-anchor="middle" x="387" y="-7" font-family="Helvetica,sans-Serif" font-size="10.00">::MainWindow</text>
</a>
</g>
</g>
<!-- Node2&#45;&gt;Node3 -->
<g id="edge2" class="edge"><title>Node2&#45;&gt;Node3</title>
<path fill="none" stroke="midnightblue" d="M309.874,-15C318.871,-15 327.9,-15 336.435,-15"/>
<polygon fill="midnightblue" stroke="midnightblue" points="309.758,-11.5001 299.758,-15 309.758,-18.5001 309.758,-11.5001"/>
</g>
</g>
</svg>
