<?xml version="1.0" encoding="UTF-8" standalone="no"?>
<!DOCTYPE svg PUBLIC "-//W3C//DTD SVG 1.1//EN"
 "http://www.w3.org/Graphics/SVG/1.1/DTD/svg11.dtd">
<!-- Generated by graphviz version 2.30.1 (20130303.0817)
 -->
<!-- Title: shared::events::eventUserChangeStatus::getNewStatus Pages: 1 -->
<svg width="432pt" height="38pt"
 viewBox="0.00 0.00 432.00 38.00" xmlns="http://www.w3.org/2000/svg" xmlns:xlink="http://www.w3.org/1999/xlink">
<g id="graph0" class="graph" transform="scale(1 1) rotate(0) translate(4 34)">
<title>shared::events::eventUserChangeStatus::getNewStatus</title>
<polygon fill="white" stroke="white" points="-4,5 -4,-34 429,-34 429,5 -4,5"/>
<!-- Node1 -->
<g id="node1" class="node"><title>Node1</title>
<polygon fill="#bfbfbf" stroke="black" points="0.5,-0 0.5,-30 145.5,-30 145.5,-0 0.5,-0"/>
<text text-anchor="start" x="8.5" y="-18" font-family="Helvetica,sans-Serif" font-size="10.00">shared::events::eventUser</text>
<text text-anchor="middle" x="73" y="-7" font-family="Helvetica,sans-Serif" font-size="10.00">ChangeStatus::getNewStatus</text>
</g>
<!-- Node2 -->
<g id="node2" class="node"><title>Node2</title>
<g id="a_node2"><a xlink:href="../../d2/da4/classclient_1_1_main_window.html#a380097fa1faba7f0457886053f793c59" target="_top" xlink:title="Triggered when a user changes his status (nick|status)">
<polygon fill="white" stroke="black" points="182.5,-0 182.5,-30 285.5,-30 285.5,-0 182.5,-0"/>
<text text-anchor="start" x="190.5" y="-18" font-family="Helvetica,sans-Serif" font-size="10.00">client::MainWindow</text>
<text text-anchor="middle" x="234" y="-7" font-family="Helvetica,sans-Serif" font-size="10.00">::userStatusChange</text>
</a>
</g>
</g>
<!-- Node1&#45;&gt;Node2 -->
<g id="edge1" class="edge"><title>Node1&#45;&gt;Node2</title>
<path fill="none" stroke="midnightblue" d="M155.768,-15C164.788,-15 173.769,-15 182.246,-15"/>
<polygon fill="midnightblue" stroke="midnightblue" points="155.593,-11.5001 145.593,-15 155.593,-18.5001 155.593,-11.5001"/>
</g>
<!-- Node3 -->
<g id="node3" class="node"><title>Node3</title>
<g id="a_node3"><a xlink:href="../../d2/da4/classclient_1_1_main_window.html#ab4aedce719340218169c114b31b54f70" target="_top" xlink:title="client::MainWindow\l::MainWindow">
<polygon fill="white" stroke="black" points="322.5,-0 322.5,-30 423.5,-30 423.5,-0 322.5,-0"/>
<text text-anchor="start" x="330.5" y="-18" font-family="Helvetica,sans-Serif" font-size="10.00">client::MainWindow</text>
<text text-anchor="middle" x="373" y="-7" font-family="Helvetica,sans-Serif" font-size="10.00">::MainWindow</text>
</a>
</g>
</g>
<!-- Node2&#45;&gt;Node3 -->
<g id="edge2" class="edge"><title>Node2&#45;&gt;Node3</title>
<path fill="none" stroke="midnightblue" d="M295.648,-15C304.624,-15 313.783,-15 322.496,-15"/>
<polygon fill="midnightblue" stroke="midnightblue" points="295.625,-11.5001 285.625,-15 295.624,-18.5001 295.625,-11.5001"/>
</g>
</g>
</svg>
