<?xml version="1.0" encoding="UTF-8" standalone="no"?>
<!DOCTYPE svg PUBLIC "-//W3C//DTD SVG 1.1//EN"
 "http://www.w3.org/Graphics/SVG/1.1/DTD/svg11.dtd">
<!-- Generated by graphviz version 2.30.1 (20130303.0817)
 -->
<!-- Title: shared::events::eventUserChangeStatus::getUserId Pages: 1 -->
<svg width="414pt" height="38pt"
 viewBox="0.00 0.00 414.00 38.00" xmlns="http://www.w3.org/2000/svg" xmlns:xlink="http://www.w3.org/1999/xlink">
<g id="graph0" class="graph" transform="scale(1 1) rotate(0) translate(4 34)">
<title>shared::events::eventUserChangeStatus::getUserId</title>
<polygon fill="white" stroke="white" points="-4,5 -4,-34 411,-34 411,5 -4,5"/>
<!-- Node1 -->
<g id="node1" class="node"><title>Node1</title>
<polygon fill="#bfbfbf" stroke="black" points="0,-0 0,-30 128,-30 128,-0 0,-0"/>
<text text-anchor="start" x="8" y="-18" font-family="Helvetica,sans-Serif" font-size="10.00">shared::events::eventUser</text>
<text text-anchor="middle" x="64" y="-7" font-family="Helvetica,sans-Serif" font-size="10.00">ChangeStatus::getUserId</text>
</g>
<!-- Node2 -->
<g id="node2" class="node"><title>Node2</title>
<g id="a_node2"><a xlink:href="../../d2/da4/classclient_1_1_main_window.html#a380097fa1faba7f0457886053f793c59" target="_top" xlink:title="Triggered when a user changes his status (nick|status)">
<polygon fill="white" stroke="black" points="164.5,-0 164.5,-30 267.5,-30 267.5,-0 164.5,-0"/>
<text text-anchor="start" x="172.5" y="-18" font-family="Helvetica,sans-Serif" font-size="10.00">client::MainWindow</text>
<text text-anchor="middle" x="216" y="-7" font-family="Helvetica,sans-Serif" font-size="10.00">::userStatusChange</text>
</a>
</g>
</g>
<!-- Node1&#45;&gt;Node2 -->
<g id="edge1" class="edge"><title>Node1&#45;&gt;Node2</title>
<path fill="none" stroke="midnightblue" d="M138.382,-15C147.11,-15 155.866,-15 164.179,-15"/>
<polygon fill="midnightblue" stroke="midnightblue" points="138.179,-11.5001 128.179,-15 138.179,-18.5001 138.179,-11.5001"/>
</g>
<!-- Node3 -->
<g id="node3" class="node"><title>Node3</title>
<g id="a_node3"><a xlink:href="../../d2/da4/classclient_1_1_main_window.html#ab4aedce719340218169c114b31b54f70" target="_top" xlink:title="client::MainWindow\l::MainWindow">
<polygon fill="white" stroke="black" points="304.5,-0 304.5,-30 405.5,-30 405.5,-0 304.5,-0"/>
<text text-anchor="start" x="312.5" y="-18" font-family="Helvetica,sans-Serif" font-size="10.00">client::MainWindow</text>
<text text-anchor="middle" x="355" y="-7" font-family="Helvetica,sans-Serif" font-size="10.00">::MainWindow</text>
</a>
</g>
</g>
<!-- Node2&#45;&gt;Node3 -->
<g id="edge2" class="edge"><title>Node2&#45;&gt;Node3</title>
<path fill="none" stroke="midnightblue" d="M277.648,-15C286.624,-15 295.783,-15 304.496,-15"/>
<polygon fill="midnightblue" stroke="midnightblue" points="277.625,-11.5001 267.625,-15 277.624,-18.5001 277.625,-11.5001"/>
</g>
</g>
</svg>
