<?xml version="1.0" encoding="UTF-8" standalone="no"?>
<!DOCTYPE svg PUBLIC "-//W3C//DTD SVG 1.1//EN"
 "http://www.w3.org/Graphics/SVG/1.1/DTD/svg11.dtd">
<!-- Generated by graphviz version 2.30.1 (20130303.0817)
 -->
<!-- Title: C++/customIrcServer Pages: 1 -->
<svg width="126pt" height="151pt"
 viewBox="0.00 0.00 126.00 151.00" xmlns="http://www.w3.org/2000/svg" xmlns:xlink="http://www.w3.org/1999/xlink">
<g id="graph0" class="graph" transform="scale(1 1) rotate(0) translate(4 147)">
<title>C++/customIrcServer</title>
<polygon fill="white" stroke="white" points="-4,5 -4,-147 123,-147 123,5 -4,5"/>
<g id="clust1" class="cluster"><title>clusterdir_cd2038a4c85c2eff3764837e3fa21ee4</title>
<g id="a_clust1"><a xlink:href="dir_cd2038a4c85c2eff3764837e3fa21ee4.xhtml" target="_top" xlink:title="C++">
<polygon fill="#ddddee" stroke="black" points="8,-64 8,-135 110,-135 110,-64 8,-64"/>
<text text-anchor="middle" x="59" y="-123" font-family="Helvetica,sans-Serif" font-size="10.00">C++</text>
</a>
</g>
</g>
<!-- dir_c412364976562f2f447fd6b0a1426ca6 -->
<g id="node1" class="node"><title>dir_c412364976562f2f447fd6b0a1426ca6</title>
<g id="a_node1"><a xlink:href="dir_c412364976562f2f447fd6b0a1426ca6.xhtml" target="_top" xlink:title="customIrcServer">
<polygon fill="#eeeeff" stroke="black" points="102,-108 16,-108 16,-72 102,-72 102,-108"/>
<text text-anchor="middle" x="59" y="-87.5" font-family="Helvetica,sans-Serif" font-size="10.00">customIrcServer</text>
</a>
</g>
</g>
<!-- dir_8917b22a587ecabb21611b3e6888f9f2 -->
<g id="node2" class="node"><title>dir_8917b22a587ecabb21611b3e6888f9f2</title>
<g id="a_node2"><a xlink:href="dir_8917b22a587ecabb21611b3e6888f9f2.xhtml" target="_top" xlink:title="resources">
<polygon fill="white" stroke="red" points="88.25,-36 29.75,-36 29.75,-0 88.25,-0 88.25,-36"/>
<text text-anchor="middle" x="59" y="-15.5" font-family="Helvetica,sans-Serif" font-size="10.00">resources</text>
</a>
</g>
</g>
<!-- dir_c412364976562f2f447fd6b0a1426ca6&#45;&gt;dir_8917b22a587ecabb21611b3e6888f9f2 -->
<g id="edge1" class="edge"><title>dir_c412364976562f2f447fd6b0a1426ca6&#45;&gt;dir_8917b22a587ecabb21611b3e6888f9f2</title>
<path fill="none" stroke="black" d="M59,-71.6966C59,-63.9827 59,-54.7125 59,-46.1124"/>
<polygon fill="black" stroke="black" points="62.5001,-46.1043 59,-36.1043 55.5001,-46.1044 62.5001,-46.1043"/>
<g id="a_edge1&#45;headlabel"><a xlink:href="dir_000010_000017.xhtml" target="_top" xlink:title="8">
<text text-anchor="middle" x="65.3393" y="-47.199" font-family="Helvetica,sans-Serif" font-size="10.00">8</text>
</a>
</g>
</g>
</g>
</svg>
