<?xml version="1.0" encoding="UTF-8" standalone="no"?>
<!DOCTYPE svg PUBLIC "-//W3C//DTD SVG 1.1//EN"
 "http://www.w3.org/Graphics/SVG/1.1/DTD/svg11.dtd">
<!-- Generated by graphviz version 2.30.1 (20130303.0817)
 -->
<!-- Title: C++/customIrcClient/android Pages: 1 -->
<svg width="254pt" height="111pt"
 viewBox="0.00 0.00 254.00 111.00" xmlns="http://www.w3.org/2000/svg" xmlns:xlink="http://www.w3.org/1999/xlink">
<g id="graph0" class="graph" transform="scale(1 1) rotate(0) translate(4 107)">
<title>C++/customIrcClient/android</title>
<polygon fill="white" stroke="white" points="-4,5 -4,-107 251,-107 251,5 -4,5"/>
<g id="clust1" class="cluster"><title>clusterdir_bf898a95f9e3f58e872bcd66ed555fd8</title>
<g id="a_clust1"><a xlink:href="dir_bf898a95f9e3f58e872bcd66ed555fd8.xhtml" target="_top" xlink:title="customIrcClient">
<polygon fill="#ddddee" stroke="black" points="8,-8 8,-95 238,-95 238,-8 8,-8"/>
<text text-anchor="middle" x="123" y="-83" font-family="Helvetica,sans-Serif" font-size="10.00">customIrcClient</text>
</a>
</g>
</g>
<g id="clust2" class="cluster"><title>clusterdir_fff8b50affbdcc77f73525a81f4ce418</title>
<g id="a_clust2"><a xlink:href="dir_fff8b50affbdcc77f73525a81f4ce418.xhtml" target="_top">
<polygon fill="#eeeeff" stroke="black" points="16,-16 16,-68 230,-68 230,-16 16,-16"/>
</a>
</g>
</g>
<!-- dir_fff8b50affbdcc77f73525a81f4ce418 -->
<g id="node1" class="node"><title>dir_fff8b50affbdcc77f73525a81f4ce418</title>
<text text-anchor="middle" x="195" y="-39.5" font-family="Helvetica,sans-Serif" font-size="10.00">android</text>
</g>
<!-- dir_0a957715d80c5c678af81e920357b7b5 -->
<g id="node2" class="node"><title>dir_0a957715d80c5c678af81e920357b7b5</title>
<g id="a_node2"><a xlink:href="dir_0a957715d80c5c678af81e920357b7b5.xhtml" target="_top" xlink:title="gen">
<polygon fill="white" stroke="red" points="150,-60 96,-60 96,-24 150,-24 150,-60"/>
<text text-anchor="middle" x="123" y="-39.5" font-family="Helvetica,sans-Serif" font-size="10.00">gen</text>
</a>
</g>
</g>
<!-- dir_d394188814815ddd45d2af709b6325fc -->
<g id="node3" class="node"><title>dir_d394188814815ddd45d2af709b6325fc</title>
<g id="a_node3"><a xlink:href="dir_d394188814815ddd45d2af709b6325fc.xhtml" target="_top" xlink:title="src">
<polygon fill="white" stroke="red" points="78,-60 24,-60 24,-24 78,-24 78,-60"/>
<text text-anchor="middle" x="51" y="-39.5" font-family="Helvetica,sans-Serif" font-size="10.00">src</text>
</a>
</g>
</g>
</g>
</svg>
