<?xml version="1.0" encoding="UTF-8" standalone="no"?>
<!DOCTYPE svg PUBLIC "-//W3C//DTD SVG 1.1//EN"
 "http://www.w3.org/Graphics/SVG/1.1/DTD/svg11.dtd">
<!-- Generated by graphviz version 2.30.1 (20130303.0817)
 -->
<!-- Title: C++/customIrcClient Pages: 1 -->
<svg width="284pt" height="159pt"
 viewBox="0.00 0.00 284.00 159.00" xmlns="http://www.w3.org/2000/svg" xmlns:xlink="http://www.w3.org/1999/xlink">
<g id="graph0" class="graph" transform="scale(1 1) rotate(0) translate(4 155)">
<title>C++/customIrcClient</title>
<polygon fill="white" stroke="white" points="-4,5 -4,-155 281,-155 281,5 -4,5"/>
<g id="clust1" class="cluster"><title>clusterdir_cd2038a4c85c2eff3764837e3fa21ee4</title>
<g id="a_clust1"><a xlink:href="dir_cd2038a4c85c2eff3764837e3fa21ee4.xhtml" target="_top" xlink:title="C++">
<polygon fill="#ddddee" stroke="black" points="8,-56 8,-143 268,-143 268,-56 8,-56"/>
<text text-anchor="middle" x="138" y="-131" font-family="Helvetica,sans-Serif" font-size="10.00">C++</text>
</a>
</g>
</g>
<g id="clust2" class="cluster"><title>clusterdir_bf898a95f9e3f58e872bcd66ed555fd8</title>
<g id="a_clust2"><a xlink:href="dir_bf898a95f9e3f58e872bcd66ed555fd8.xhtml" target="_top">
<polygon fill="#eeeeff" stroke="black" points="16,-64 16,-116 260,-116 260,-64 16,-64"/>
</a>
</g>
</g>
<!-- dir_bf898a95f9e3f58e872bcd66ed555fd8 -->
<g id="node1" class="node"><title>dir_bf898a95f9e3f58e872bcd66ed555fd8</title>
<text text-anchor="middle" x="210" y="-87.5" font-family="Helvetica,sans-Serif" font-size="10.00">customIrcClient</text>
</g>
<!-- dir_8917b22a587ecabb21611b3e6888f9f2 -->
<g id="node4" class="node"><title>dir_8917b22a587ecabb21611b3e6888f9f2</title>
<g id="a_node4"><a xlink:href="dir_8917b22a587ecabb21611b3e6888f9f2.xhtml" target="_top" xlink:title="resources">
<polygon fill="white" stroke="red" points="239.25,-36 180.75,-36 180.75,-0 239.25,-0 239.25,-36"/>
<text text-anchor="middle" x="210" y="-15.5" font-family="Helvetica,sans-Serif" font-size="10.00">resources</text>
</a>
</g>
</g>
<!-- dir_bf898a95f9e3f58e872bcd66ed555fd8&#45;&gt;dir_8917b22a587ecabb21611b3e6888f9f2 -->
<g id="edge1" class="edge"><title>dir_bf898a95f9e3f58e872bcd66ed555fd8&#45;&gt;dir_8917b22a587ecabb21611b3e6888f9f2</title>
<path fill="none" stroke="black" d="M210,-71.6966C210,-63.9827 210,-54.7125 210,-46.1124"/>
<polygon fill="black" stroke="black" points="213.5,-46.1043 210,-36.1043 206.5,-46.1044 213.5,-46.1043"/>
<g id="a_edge1&#45;headlabel"><a xlink:href="dir_000001_000017.xhtml" target="_top" xlink:title="11">
<text text-anchor="middle" x="216.339" y="-47.199" font-family="Helvetica,sans-Serif" font-size="10.00">11</text>
</a>
</g>
</g>
<!-- dir_fff8b50affbdcc77f73525a81f4ce418 -->
<g id="node2" class="node"><title>dir_fff8b50affbdcc77f73525a81f4ce418</title>
<g id="a_node2"><a xlink:href="dir_fff8b50affbdcc77f73525a81f4ce418.xhtml" target="_top" xlink:title="android">
<polygon fill="white" stroke="red" points="150,-108 96,-108 96,-72 150,-72 150,-108"/>
<text text-anchor="middle" x="123" y="-87.5" font-family="Helvetica,sans-Serif" font-size="10.00">android</text>
</a>
</g>
</g>
<!-- dir_1be22b0807879f6ccad83439d635ee65 -->
<g id="node3" class="node"><title>dir_1be22b0807879f6ccad83439d635ee65</title>
<g id="a_node3"><a xlink:href="dir_1be22b0807879f6ccad83439d635ee65.xhtml" target="_top" xlink:title="desktop">
<polygon fill="white" stroke="black" points="78,-108 24,-108 24,-72 78,-72 78,-108"/>
<text text-anchor="middle" x="51" y="-87.5" font-family="Helvetica,sans-Serif" font-size="10.00">desktop</text>
</a>
</g>
</g>
</g>
</svg>
