<?xml version="1.0" encoding="UTF-8" standalone="no"?>
<!DOCTYPE svg PUBLIC "-//W3C//DTD SVG 1.1//EN"
 "http://www.w3.org/Graphics/SVG/1.1/DTD/svg11.dtd">
<!-- Generated by graphviz version 2.30.1 (20130303.0817)
 -->
<!-- Title: C++ Pages: 1 -->
<svg width="300pt" height="148pt"
 viewBox="0.00 0.00 300.00 148.00" xmlns="http://www.w3.org/2000/svg" xmlns:xlink="http://www.w3.org/1999/xlink">
<g id="graph0" class="graph" transform="scale(1 1) rotate(0) translate(4 144)">
<title>C++</title>
<polygon fill="white" stroke="white" points="-4,5 -4,-144 297,-144 297,5 -4,5"/>
<g id="clust1" class="cluster"><title>clusterdir_cd2038a4c85c2eff3764837e3fa21ee4</title>
<g id="a_clust1"><a xlink:href="dir_cd2038a4c85c2eff3764837e3fa21ee4.html" target="_top">
<polygon fill="#eeeeff" stroke="black" points="8,-8 8,-132 284,-132 284,-8 8,-8"/>
</a>
</g>
</g>
<!-- dir_cd2038a4c85c2eff3764837e3fa21ee4 -->
<g id="node1" class="node"><title>dir_cd2038a4c85c2eff3764837e3fa21ee4</title>
<text text-anchor="middle" x="249" y="-103.5" font-family="Helvetica,sans-Serif" font-size="10.00">C++</text>
</g>
<!-- dir_bf898a95f9e3f58e872bcd66ed555fd8 -->
<g id="node2" class="node"><title>dir_bf898a95f9e3f58e872bcd66ed555fd8</title>
<g id="a_node2"><a xlink:href="dir_bf898a95f9e3f58e872bcd66ed555fd8.html" target="_top" xlink:title="customIrcClient">
<polygon fill="white" stroke="red" points="203.5,-124 120.5,-124 120.5,-88 203.5,-88 203.5,-124"/>
<text text-anchor="middle" x="162" y="-103.5" font-family="Helvetica,sans-Serif" font-size="10.00">customIrcClient</text>
</a>
</g>
</g>
<!-- dir_8917b22a587ecabb21611b3e6888f9f2 -->
<g id="node4" class="node"><title>dir_8917b22a587ecabb21611b3e6888f9f2</title>
<g id="a_node4"><a xlink:href="dir_8917b22a587ecabb21611b3e6888f9f2.html" target="_top" xlink:title="resources">
<polygon fill="white" stroke="red" points="139.25,-52 80.75,-52 80.75,-16 139.25,-16 139.25,-52"/>
<text text-anchor="middle" x="110" y="-31.5" font-family="Helvetica,sans-Serif" font-size="10.00">resources</text>
</a>
</g>
</g>
<!-- dir_bf898a95f9e3f58e872bcd66ed555fd8&#45;&gt;dir_8917b22a587ecabb21611b3e6888f9f2 -->
<g id="edge1" class="edge"><title>dir_bf898a95f9e3f58e872bcd66ed555fd8&#45;&gt;dir_8917b22a587ecabb21611b3e6888f9f2</title>
<path fill="none" stroke="black" d="M149.146,-87.6966C142.975,-79.3893 135.463,-69.2771 128.676,-60.1407"/>
<polygon fill="black" stroke="black" points="131.479,-58.0446 122.706,-52.1043 125.86,-62.2189 131.479,-58.0446"/>
<g id="a_edge1&#45;headlabel"><a xlink:href="dir_000001_000017.html" target="_top" xlink:title="11">
<text text-anchor="middle" x="135.902" y="-56.7371" font-family="Helvetica,sans-Serif" font-size="10.00">11</text>
</a>
</g>
</g>
<!-- dir_c412364976562f2f447fd6b0a1426ca6 -->
<g id="node3" class="node"><title>dir_c412364976562f2f447fd6b0a1426ca6</title>
<g id="a_node3"><a xlink:href="dir_c412364976562f2f447fd6b0a1426ca6.html" target="_top" xlink:title="customIrcServer">
<polygon fill="white" stroke="black" points="102,-124 16,-124 16,-88 102,-88 102,-124"/>
<text text-anchor="middle" x="59" y="-103.5" font-family="Helvetica,sans-Serif" font-size="10.00">customIrcServer</text>
</a>
</g>
</g>
<!-- dir_c412364976562f2f447fd6b0a1426ca6&#45;&gt;dir_8917b22a587ecabb21611b3e6888f9f2 -->
<g id="edge2" class="edge"><title>dir_c412364976562f2f447fd6b0a1426ca6&#45;&gt;dir_8917b22a587ecabb21611b3e6888f9f2</title>
<path fill="none" stroke="black" d="M71.6067,-87.6966C77.5974,-79.4741 84.8765,-69.4832 91.4792,-60.4207"/>
<polygon fill="black" stroke="black" points="94.4785,-62.2477 97.5383,-52.1043 88.8208,-58.1257 94.4785,-62.2477"/>
<g id="a_edge2&#45;headlabel"><a xlink:href="dir_000010_000017.html" target="_top" xlink:title="8">
<text text-anchor="middle" x="94.6566" y="-64.3249" font-family="Helvetica,sans-Serif" font-size="10.00">8</text>
</a>
</g>
</g>
</g>
</svg>
