<?xml version="1.0" encoding="UTF-8" standalone="no"?>
<!DOCTYPE svg PUBLIC "-//W3C//DTD SVG 1.1//EN"
 "http://www.w3.org/Graphics/SVG/1.1/DTD/svg11.dtd">
<!-- Generated by graphviz version 2.30.1 (20130303.0817)
 -->
<!-- Title: Graphical Class Hierarchy Pages: 1 -->
<svg width="214pt" height="142pt"
 viewBox="0.00 0.00 214.00 142.00" xmlns="http://www.w3.org/2000/svg" xmlns:xlink="http://www.w3.org/1999/xlink">
<g id="graph0" class="graph" transform="scale(1 1) rotate(0) translate(4 138)">
<title>Graphical Class Hierarchy</title>
<polygon fill="white" stroke="white" points="-4,5 -4,-138 211,-138 211,5 -4,5"/>
<!-- Node1 -->
<g id="node1" class="node"><title>Node1</title>
<polygon fill="white" stroke="#bfbfbf" points="0.5,-57.5 0.5,-76.5 55.5,-76.5 55.5,-57.5 0.5,-57.5"/>
<text text-anchor="middle" x="28" y="-64.5" font-family="Helvetica,sans-Serif" font-size="10.00">QWidget</text>
</g>
<!-- Node2 -->
<g id="node2" class="node"><title>Node2</title>
<g id="a_node2"><a xlink:href="da/d72/classclient_1_1chat_box.html" target="_top" xlink:title="UI Segment containing the chatbox.">
<polygon fill="white" stroke="black" points="108,-114.5 108,-133.5 190,-133.5 190,-114.5 108,-114.5"/>
<text text-anchor="middle" x="149" y="-121.5" font-family="Helvetica,sans-Serif" font-size="10.00">client::chatBox</text>
</a>
</g>
</g>
<!-- Node1&#45;&gt;Node2 -->
<g id="edge1" class="edge"><title>Node1&#45;&gt;Node2</title>
<path fill="none" stroke="midnightblue" d="M51.6981,-82.3226C63.403,-89.7977 78.1065,-98.5452 92,-105 99.5417,-108.504 107.917,-111.693 115.844,-114.415"/>
<polygon fill="midnightblue" stroke="midnightblue" points="53.315,-79.1986 43.0266,-76.6686 49.4917,-85.0623 53.315,-79.1986"/>
</g>
<!-- Node3 -->
<g id="node3" class="node"><title>Node3</title>
<g id="a_node3"><a xlink:href="d5/d17/classclient_1_1chat_notification.html" target="_top" xlink:title="UI Segment containing a notification in the chatbox.">
<polygon fill="white" stroke="black" points="92.5,-76.5 92.5,-95.5 205.5,-95.5 205.5,-76.5 92.5,-76.5"/>
<text text-anchor="middle" x="149" y="-83.5" font-family="Helvetica,sans-Serif" font-size="10.00">client::chatNotification</text>
</a>
</g>
</g>
<!-- Node1&#45;&gt;Node3 -->
<g id="edge2" class="edge"><title>Node1&#45;&gt;Node3</title>
<path fill="none" stroke="midnightblue" d="M65.8448,-72.8828C74.1927,-74.2156 83.24,-75.6602 92.1763,-77.087"/>
<polygon fill="midnightblue" stroke="midnightblue" points="66.1327,-69.3845 55.7059,-71.264 65.029,-76.2969 66.1327,-69.3845"/>
</g>
<!-- Node4 -->
<g id="node4" class="node"><title>Node4</title>
<g id="a_node4"><a xlink:href="d0/ddb/classclient_1_1cls_user_entry.html" target="_top" xlink:title="UI segment for a user entry in the user list.">
<polygon fill="white" stroke="black" points="98,-38.5 98,-57.5 200,-57.5 200,-38.5 98,-38.5"/>
<text text-anchor="middle" x="149" y="-45.5" font-family="Helvetica,sans-Serif" font-size="10.00">client::clsUserEntry</text>
</a>
</g>
</g>
<!-- Node1&#45;&gt;Node4 -->
<g id="edge3" class="edge"><title>Node1&#45;&gt;Node4</title>
<path fill="none" stroke="midnightblue" d="M65.8484,-61.1166C75.9987,-59.496 87.1829,-57.7103 97.9442,-55.9921"/>
<polygon fill="midnightblue" stroke="midnightblue" points="65.029,-57.7031 55.7059,-62.736 66.1327,-64.6155 65.029,-57.7031"/>
</g>
<!-- Node5 -->
<g id="node5" class="node"><title>Node5</title>
<g id="a_node5"><a xlink:href="de/dda/classclient_1_1cls_user_list.html" target="_top" xlink:title="UI Segment for user list.">
<polygon fill="white" stroke="black" points="101.5,-0.5 101.5,-19.5 196.5,-19.5 196.5,-0.5 101.5,-0.5"/>
<text text-anchor="middle" x="149" y="-7.5" font-family="Helvetica,sans-Serif" font-size="10.00">client::clsUserList</text>
</a>
</g>
</g>
<!-- Node1&#45;&gt;Node5 -->
<g id="edge4" class="edge"><title>Node1&#45;&gt;Node5</title>
<path fill="none" stroke="midnightblue" d="M51.6981,-51.6774C63.403,-44.2023 78.1065,-35.4548 92,-29 99.5417,-25.4962 107.917,-22.3074 115.844,-19.5852"/>
<polygon fill="midnightblue" stroke="midnightblue" points="49.4917,-48.9377 43.0266,-57.3314 53.315,-54.8014 49.4917,-48.9377"/>
</g>
</g>
</svg>
