<?xml version="1.0" encoding="UTF-8" standalone="no"?>
<!DOCTYPE svg PUBLIC "-//W3C//DTD SVG 1.1//EN"
 "http://www.w3.org/Graphics/SVG/1.1/DTD/svg11.dtd">
<!-- Generated by graphviz version 2.30.1 (20130303.0817)
 -->
<!-- Title: Graphical Class Hierarchy Pages: 1 -->
<svg width="312pt" height="214pt"
 viewBox="0.00 0.00 312.00 214.00" xmlns="http://www.w3.org/2000/svg" xmlns:xlink="http://www.w3.org/1999/xlink">
<g id="graph0" class="graph" transform="scale(1 1) rotate(0) translate(4 210)">
<title>Graphical Class Hierarchy</title>
<polygon fill="white" stroke="white" points="-4,5 -4,-210 309,-210 309,5 -4,5"/>
<!-- Node1 -->
<g id="node1" class="node"><title>Node1</title>
<g id="a_node1"><a xlink:href="db/d8b/classshared_1_1events_1_1cls_event.xhtml" target="_top" xlink:title="The main event class.">
<polygon fill="white" stroke="black" points="0,-93.5 0,-112.5 122,-112.5 122,-93.5 0,-93.5"/>
<text text-anchor="middle" x="61" y="-100.5" font-family="Helvetica,sans-Serif" font-size="10.00">shared::events::clsEvent</text>
</a>
</g>
</g>
<!-- Node2 -->
<g id="node2" class="node"><title>Node2</title>
<g id="a_node2"><a xlink:href="d1/d68/classshared_1_1events_1_1event_chat.xhtml" target="_top" xlink:title="Class containing a chatEvent.">
<polygon fill="white" stroke="black" points="167,-186.5 167,-205.5 295,-205.5 295,-186.5 167,-186.5"/>
<text text-anchor="middle" x="231" y="-193.5" font-family="Helvetica,sans-Serif" font-size="10.00">shared::events::eventChat</text>
</a>
</g>
</g>
<!-- Node1&#45;&gt;Node2 -->
<g id="edge1" class="edge"><title>Node1&#45;&gt;Node2</title>
<path fill="none" stroke="midnightblue" d="M79.2722,-119.417C97.5059,-135.915 127.746,-160.991 158,-176 166.484,-180.209 175.984,-183.644 185.231,-186.404"/>
<polygon fill="midnightblue" stroke="midnightblue" points="81.5057,-116.715 71.7826,-112.507 76.7591,-121.86 81.5057,-116.715"/>
</g>
<!-- Node3 -->
<g id="node3" class="node"><title>Node3</title>
<g id="a_node3"><a xlink:href="d5/de1/classshared_1_1events_1_1event_user_change_nick.xhtml" target="_top" xlink:title="Class containing a user who changes his nick&#45;event (nick|status)">
<polygon fill="white" stroke="black" points="167,-137 167,-167 295,-167 295,-137 167,-137"/>
<text text-anchor="start" x="175" y="-155" font-family="Helvetica,sans-Serif" font-size="10.00">shared::events::eventUser</text>
<text text-anchor="middle" x="231" y="-144" font-family="Helvetica,sans-Serif" font-size="10.00">ChangeNick</text>
</a>
</g>
</g>
<!-- Node1&#45;&gt;Node3 -->
<g id="edge2" class="edge"><title>Node1&#45;&gt;Node3</title>
<path fill="none" stroke="midnightblue" d="M104.397,-115.366C126.891,-121.926 154.71,-130.04 178.445,-136.963"/>
<polygon fill="midnightblue" stroke="midnightblue" points="105.371,-112.004 94.7909,-112.564 103.411,-118.724 105.371,-112.004"/>
</g>
<!-- Node4 -->
<g id="node4" class="node"><title>Node4</title>
<g id="a_node4"><a xlink:href="d3/dcc/classshared_1_1events_1_1event_user_change_status.xhtml" target="_top" xlink:title="Class containing a user who changes his status&#45;event (nick|status)">
<polygon fill="white" stroke="black" points="167,-88 167,-118 295,-118 295,-88 167,-88"/>
<text text-anchor="start" x="175" y="-106" font-family="Helvetica,sans-Serif" font-size="10.00">shared::events::eventUser</text>
<text text-anchor="middle" x="231" y="-95" font-family="Helvetica,sans-Serif" font-size="10.00">ChangeStatus</text>
</a>
</g>
</g>
<!-- Node1&#45;&gt;Node4 -->
<g id="edge3" class="edge"><title>Node1&#45;&gt;Node4</title>
<path fill="none" stroke="midnightblue" d="M132.517,-103C143.908,-103 155.638,-103 166.84,-103"/>
<polygon fill="midnightblue" stroke="midnightblue" points="132.177,-99.5001 122.177,-103 132.177,-106.5 132.177,-99.5001"/>
</g>
<!-- Node5 -->
<g id="node5" class="node"><title>Node5</title>
<g id="a_node5"><a xlink:href="dd/d05/classshared_1_1events_1_1event_user_join.xhtml" target="_top" xlink:title="Class containing a user JOIN event.">
<polygon fill="white" stroke="black" points="158,-49.5 158,-68.5 304,-68.5 304,-49.5 158,-49.5"/>
<text text-anchor="middle" x="231" y="-56.5" font-family="Helvetica,sans-Serif" font-size="10.00">shared::events::eventUserJoin</text>
</a>
</g>
</g>
<!-- Node1&#45;&gt;Node5 -->
<g id="edge4" class="edge"><title>Node1&#45;&gt;Node5</title>
<path fill="none" stroke="midnightblue" d="M108.409,-90.8453C135.292,-83.8045 168.647,-75.0688 193.618,-68.5287"/>
<polygon fill="midnightblue" stroke="midnightblue" points="107.24,-87.5332 98.4535,-93.4527 109.014,-94.3048 107.24,-87.5332"/>
</g>
<!-- Node6 -->
<g id="node6" class="node"><title>Node6</title>
<g id="a_node6"><a xlink:href="d9/d9f/classshared_1_1events_1_1event_user_leave.xhtml" target="_top" xlink:title="Class containing a user PART event.">
<polygon fill="white" stroke="black" points="167,-0 167,-30 295,-30 295,-0 167,-0"/>
<text text-anchor="start" x="175" y="-18" font-family="Helvetica,sans-Serif" font-size="10.00">shared::events::eventUser</text>
<text text-anchor="middle" x="231" y="-7" font-family="Helvetica,sans-Serif" font-size="10.00">Leave</text>
</a>
</g>
</g>
<!-- Node1&#45;&gt;Node6 -->
<g id="edge5" class="edge"><title>Node1&#45;&gt;Node6</title>
<path fill="none" stroke="midnightblue" d="M82.5821,-87.3331C101.439,-73.5163 130.517,-53.5302 158,-40 165.36,-36.3765 173.379,-33.0417 181.304,-30.0684"/>
<polygon fill="midnightblue" stroke="midnightblue" points="80.3787,-84.6098 74.4392,-93.3832 84.5535,-90.2286 80.3787,-84.6098"/>
</g>
</g>
</svg>
