<?xml version="1.0" encoding="UTF-8" standalone="no"?>
<!DOCTYPE svg PUBLIC "-//W3C//DTD SVG 1.1//EN"
 "http://www.w3.org/Graphics/SVG/1.1/DTD/svg11.dtd">
<!-- Generated by graphviz version 2.30.1 (20130303.0817)
 -->
<!-- Title: Graphical Class Hierarchy Pages: 1 -->
<svg width="226pt" height="66pt"
 viewBox="0.00 0.00 226.00 66.00" xmlns="http://www.w3.org/2000/svg" xmlns:xlink="http://www.w3.org/1999/xlink">
<g id="graph0" class="graph" transform="scale(1 1) rotate(0) translate(4 62)">
<title>Graphical Class Hierarchy</title>
<polygon fill="white" stroke="white" points="-4,5 -4,-62 223,-62 223,5 -4,5"/>
<!-- Node1 -->
<g id="node1" class="node"><title>Node1</title>
<polygon fill="white" stroke="#bfbfbf" points="0,-19.5 0,-38.5 80,-38.5 80,-19.5 0,-19.5"/>
<text text-anchor="middle" x="40" y="-26.5" font-family="Helvetica,sans-Serif" font-size="10.00">QMainWindow</text>
</g>
<!-- Node2 -->
<g id="node2" class="node"><title>Node2</title>
<g id="a_node2"><a xlink:href="d2/da4/classclient_1_1_main_window.html" target="_top" xlink:title="Main UI window.">
<polygon fill="white" stroke="black" points="116.5,-38.5 116.5,-57.5 217.5,-57.5 217.5,-38.5 116.5,-38.5"/>
<text text-anchor="middle" x="167" y="-45.5" font-family="Helvetica,sans-Serif" font-size="10.00">client::MainWindow</text>
</a>
</g>
</g>
<!-- Node1&#45;&gt;Node2 -->
<g id="edge1" class="edge"><title>Node1&#45;&gt;Node2</title>
<path fill="none" stroke="midnightblue" d="M90.1209,-36.4664C98.7404,-37.7765 107.716,-39.1408 116.35,-40.4532"/>
<polygon fill="midnightblue" stroke="midnightblue" points="90.6203,-33.0022 80.2078,-34.9596 89.5683,-39.9227 90.6203,-33.0022"/>
</g>
<!-- Node3 -->
<g id="node3" class="node"><title>Node3</title>
<g id="a_node3"><a xlink:href="d9/dc6/class_main_window.html" target="_top" xlink:title="MainWindow">
<polygon fill="white" stroke="black" points="131,-0.5 131,-19.5 203,-19.5 203,-0.5 131,-0.5"/>
<text text-anchor="middle" x="167" y="-7.5" font-family="Helvetica,sans-Serif" font-size="10.00">MainWindow</text>
</a>
</g>
</g>
<!-- Node1&#45;&gt;Node3 -->
<g id="edge2" class="edge"><title>Node1&#45;&gt;Node3</title>
<path fill="none" stroke="midnightblue" d="M90.3247,-21.5026C103.832,-19.4496 118.199,-17.2657 130.745,-15.3588"/>
<polygon fill="midnightblue" stroke="midnightblue" points="89.5683,-18.0773 80.2078,-23.0404 90.6203,-24.9978 89.5683,-18.0773"/>
</g>
</g>
</svg>
