<?xml version="1.0" encoding="UTF-8" standalone="no"?>
<!DOCTYPE svg PUBLIC "-//W3C//DTD SVG 1.1//EN"
 "http://www.w3.org/Graphics/SVG/1.1/DTD/svg11.dtd">
<!-- Generated by graphviz version 2.30.1 (20130303.0817)
 -->
<!-- Title: Graphical Class Hierarchy Pages: 1 -->
<svg width="240pt" height="87pt"
 viewBox="0.00 0.00 240.00 87.00" xmlns="http://www.w3.org/2000/svg" xmlns:xlink="http://www.w3.org/1999/xlink">
<g id="graph0" class="graph" transform="scale(1 1) rotate(0) translate(4 83)">
<title>Graphical Class Hierarchy</title>
<polygon fill="white" stroke="white" points="-4,5 -4,-83 237,-83 237,5 -4,5"/>
<!-- Node1 -->
<g id="node1" class="node"><title>Node1</title>
<polygon fill="white" stroke="#bfbfbf" points="0,-29.5 0,-48.5 56,-48.5 56,-29.5 0,-29.5"/>
<text text-anchor="middle" x="28" y="-36.5" font-family="Helvetica,sans-Serif" font-size="10.00">IInterface</text>
</g>
<!-- Node2 -->
<g id="node2" class="node"><title>Node2</title>
<g id="a_node2"><a xlink:href="d6/d72/interfaceorg_1_1kde_1_1necessitas_1_1ministro_1_1_i_ministro.xhtml" target="_top" xlink:title="org.kde.necessitas.ministro.\lIMinistro">
<polygon fill="white" stroke="black" points="92,-49 92,-79 232,-79 232,-49 92,-49"/>
<text text-anchor="start" x="100" y="-67" font-family="Helvetica,sans-Serif" font-size="10.00">org.kde.necessitas.ministro.</text>
<text text-anchor="middle" x="162" y="-56" font-family="Helvetica,sans-Serif" font-size="10.00">IMinistro</text>
</a>
</g>
</g>
<!-- Node1&#45;&gt;Node2 -->
<g id="edge1" class="edge"><title>Node1&#45;&gt;Node2</title>
<path fill="none" stroke="midnightblue" d="M65.8594,-45.981C73.9679,-47.5166 82.8105,-49.1914 91.733,-50.8812"/>
<polygon fill="midnightblue" stroke="midnightblue" points="66.5074,-42.5415 56.0307,-44.1195 65.2047,-49.4193 66.5074,-42.5415"/>
</g>
<!-- Node3 -->
<g id="node3" class="node"><title>Node3</title>
<g id="a_node3"><a xlink:href="d1/dc0/interfaceorg_1_1kde_1_1necessitas_1_1ministro_1_1_i_ministro_callback.xhtml" target="_top" xlink:title="org.kde.necessitas.ministro.\lIMinistroCallback">
<polygon fill="white" stroke="black" points="92,-0 92,-30 232,-30 232,-0 92,-0"/>
<text text-anchor="start" x="100" y="-18" font-family="Helvetica,sans-Serif" font-size="10.00">org.kde.necessitas.ministro.</text>
<text text-anchor="middle" x="162" y="-7" font-family="Helvetica,sans-Serif" font-size="10.00">IMinistroCallback</text>
</a>
</g>
</g>
<!-- Node1&#45;&gt;Node3 -->
<g id="edge2" class="edge"><title>Node1&#45;&gt;Node3</title>
<path fill="none" stroke="midnightblue" d="M66.13,-32.2491C74.1644,-30.7883 82.9096,-29.1982 91.733,-27.594"/>
<polygon fill="midnightblue" stroke="midnightblue" points="65.2433,-28.8528 56.0307,-34.0853 66.4955,-35.7399 65.2433,-28.8528"/>
</g>
</g>
</svg>
