<?xml version="1.0" encoding="UTF-8" standalone="no"?>
<!DOCTYPE svg PUBLIC "-//W3C//DTD SVG 1.1//EN"
 "http://www.w3.org/Graphics/SVG/1.1/DTD/svg11.dtd">
<!-- Generated by graphviz version 2.30.1 (20130303.0817)
 -->
<!-- Title: Graphical Class Hierarchy Pages: 1 -->
<svg width="206pt" height="218pt"
 viewBox="0.00 0.00 206.00 218.00" xmlns="http://www.w3.org/2000/svg" xmlns:xlink="http://www.w3.org/1999/xlink">
<g id="graph0" class="graph" transform="scale(1 1) rotate(0) translate(4 214)">
<title>Graphical Class Hierarchy</title>
<polygon fill="white" stroke="white" points="-4,5 -4,-214 203,-214 203,5 -4,5"/>
<!-- Node1 -->
<g id="node1" class="node"><title>Node1</title>
<polygon fill="white" stroke="#bfbfbf" points="0.5,-95.5 0.5,-114.5 53.5,-114.5 53.5,-95.5 0.5,-95.5"/>
<text text-anchor="middle" x="27" y="-102.5" font-family="Helvetica,sans-Serif" font-size="10.00">QObject</text>
</g>
<!-- Node2 -->
<g id="node2" class="node"><title>Node2</title>
<g id="a_node2"><a xlink:href="dd/d69/classclient_1_1cls_notify.xhtml" target="_top" xlink:title="Notification class.">
<polygon fill="white" stroke="black" points="102.5,-190.5 102.5,-209.5 185.5,-209.5 185.5,-190.5 102.5,-190.5"/>
<text text-anchor="middle" x="144" y="-197.5" font-family="Helvetica,sans-Serif" font-size="10.00">client::clsNotify</text>
</a>
</g>
</g>
<!-- Node1&#45;&gt;Node2 -->
<g id="edge1" class="edge"><title>Node1&#45;&gt;Node2</title>
<path fill="none" stroke="midnightblue" d="M38.6881,-123.129C49.6139,-140.23 68.0613,-165.491 90,-181 95.3478,-184.78 101.527,-187.884 107.735,-190.405"/>
<polygon fill="midnightblue" stroke="midnightblue" points="41.6454,-121.256 33.4176,-114.581 35.6871,-124.93 41.6454,-121.256"/>
</g>
<!-- Node3 -->
<g id="node3" class="node"><title>Node3</title>
<g id="a_node3"><a xlink:href="d3/d65/classclient_1_1cls_server_conn.xhtml" target="_top" xlink:title="Class that has a connection to the server.">
<polygon fill="white" stroke="black" points="90,-152.5 90,-171.5 198,-171.5 198,-152.5 90,-152.5"/>
<text text-anchor="middle" x="144" y="-159.5" font-family="Helvetica,sans-Serif" font-size="10.00">client::clsServerConn</text>
</a>
</g>
</g>
<!-- Node1&#45;&gt;Node3 -->
<g id="edge2" class="edge"><title>Node1&#45;&gt;Node3</title>
<path fill="none" stroke="midnightblue" d="M50.354,-120.246C61.8772,-127.701 76.3461,-136.454 90,-143 97.2277,-146.465 105.263,-149.66 112.847,-152.402"/>
<polygon fill="midnightblue" stroke="midnightblue" points="52.0903,-117.198 41.816,-114.612 48.2349,-123.041 52.0903,-117.198"/>
</g>
<!-- Node4 -->
<g id="node4" class="node"><title>Node4</title>
<g id="a_node4"><a xlink:href="d6/d69/classclient_1_1irc_user.xhtml" target="_top" xlink:title="The ircUser class.">
<polygon fill="white" stroke="black" points="105.5,-114.5 105.5,-133.5 182.5,-133.5 182.5,-114.5 105.5,-114.5"/>
<text text-anchor="middle" x="144" y="-121.5" font-family="Helvetica,sans-Serif" font-size="10.00">client::ircUser</text>
</a>
</g>
</g>
<!-- Node1&#45;&gt;Node4 -->
<g id="edge3" class="edge"><title>Node1&#45;&gt;Node4</title>
<path fill="none" stroke="midnightblue" d="M63.6725,-110.894C76.8945,-113.078 91.9247,-115.561 105.32,-117.775"/>
<polygon fill="midnightblue" stroke="midnightblue" points="63.959,-107.394 53.5222,-109.217 62.8179,-114.3 63.959,-107.394"/>
</g>
<!-- Node5 -->
<g id="node5" class="node"><title>Node5</title>
<g id="a_node5"><a xlink:href="d1/d10/classserver_1_1irc_client.xhtml" target="_top" xlink:title="The ircClient class.">
<polygon fill="white" stroke="black" points="102.5,-76.5 102.5,-95.5 185.5,-95.5 185.5,-76.5 102.5,-76.5"/>
<text text-anchor="middle" x="144" y="-83.5" font-family="Helvetica,sans-Serif" font-size="10.00">server::ircClient</text>
</a>
</g>
</g>
<!-- Node1&#45;&gt;Node5 -->
<g id="edge4" class="edge"><title>Node1&#45;&gt;Node5</title>
<path fill="none" stroke="midnightblue" d="M63.3962,-99.1519C75.6668,-97.1246 89.5215,-94.8356 102.192,-92.7421"/>
<polygon fill="midnightblue" stroke="midnightblue" points="62.8179,-95.6999 53.5222,-100.783 63.959,-102.606 62.8179,-95.6999"/>
</g>
<!-- Node6 -->
<g id="node6" class="node"><title>Node6</title>
<g id="a_node6"><a xlink:href="d1/d48/classserver_1_1main_app.xhtml" target="_top" xlink:title="The main application.">
<polygon fill="white" stroke="black" points="101,-38.5 101,-57.5 187,-57.5 187,-38.5 101,-38.5"/>
<text text-anchor="middle" x="144" y="-45.5" font-family="Helvetica,sans-Serif" font-size="10.00">server::mainApp</text>
</a>
</g>
</g>
<!-- Node1&#45;&gt;Node6 -->
<g id="edge5" class="edge"><title>Node1&#45;&gt;Node6</title>
<path fill="none" stroke="midnightblue" d="M50.354,-89.7544C61.8772,-82.2989 76.3461,-73.5457 90,-67 97.2277,-63.535 105.263,-60.3404 112.847,-57.5984"/>
<polygon fill="midnightblue" stroke="midnightblue" points="48.2349,-86.9594 41.816,-95.3884 52.0903,-92.802 48.2349,-86.9594"/>
</g>
<!-- Node7 -->
<g id="node7" class="node"><title>Node7</title>
<g id="a_node7"><a xlink:href="dc/d4d/classserver_1_1ui_client.xhtml" target="_top" xlink:title="The uiClient class.">
<polygon fill="white" stroke="black" points="104,-0.5 104,-19.5 184,-19.5 184,-0.5 104,-0.5"/>
<text text-anchor="middle" x="144" y="-7.5" font-family="Helvetica,sans-Serif" font-size="10.00">server::uiClient</text>
</a>
</g>
</g>
<!-- Node1&#45;&gt;Node7 -->
<g id="edge6" class="edge"><title>Node1&#45;&gt;Node7</title>
<path fill="none" stroke="midnightblue" d="M38.6881,-86.8715C49.6139,-69.7705 68.0613,-44.5091 90,-29 95.3478,-25.2195 101.527,-22.1164 107.735,-19.5951"/>
<polygon fill="midnightblue" stroke="midnightblue" points="35.6871,-85.0698 33.4176,-95.4187 41.6454,-88.7439 35.6871,-85.0698"/>
</g>
</g>
</svg>
