<?xml version="1.0" encoding="UTF-8" standalone="no"?>
<!DOCTYPE svg PUBLIC "-//W3C//DTD SVG 1.1//EN"
 "http://www.w3.org/Graphics/SVG/1.1/DTD/svg11.dtd">
<!-- Generated by graphviz version 2.30.1 (20130303.0817)
 -->
<!-- Title: client::clsUserEntry Pages: 1 -->
<!--zoomable 600 -->
<svg id="main" version="1.1" xmlns="http://www.w3.org/2000/svg" xmlns:xlink="http://www.w3.org/1999/xlink" xml:space="preserve" onload="init(evt)">
        <defs>
                <circle id="rim" cx="0" cy="0" r="7"/>
                <circle id="rim2" cx="0" cy="0" r="3.5"/>
                <g id="zoomPlus">
                        <use xlink:href="#rim" fill="#404040">
                                <set attributeName="fill" to="#808080" begin="zoomplus.mouseover" end="zoomplus.mouseout"/>
                        </use>
                        <path d="M-4,0h8M0,-4v8" fill="none" stroke="white" stroke-width="1.5" pointer-events="none"/>
                </g>
                <g id="zoomMin">
                        <use xlink:href="#rim" fill="#404040">
                                <set attributeName="fill" to="#808080" begin="zoomminus.mouseover" end="zoomminus.mouseout"/>
                        </use>
                        <path d="M-4,0h8" fill="none" stroke="white" stroke-width="1.5" pointer-events="none"/>
                </g>
                <g id="dirArrow">
                        <path fill="none" stroke="white" stroke-width="1.5" d="M0,-3.0v7 M-2.5,-0.5L0,-3.0L2.5,-0.5"/>
                </g>
               <g id="resetDef">
                       <use xlink:href="#rim2" fill="#404040">
                               <set attributeName="fill" to="#808080" begin="reset.mouseover" end="reset.mouseout"/>
                       </use>
               </g>
        </defs>

<script type="text/javascript">
var viewWidth = 234;
var viewHeight = 600;
var sectionId = 'dynsection-1';
</script>
<script xlink:href="../../svgpan.js"/>
<svg id="graph" class="graph">
<g id="viewport">
<title>client::clsUserEntry</title>
<polygon fill="white" stroke="white" points="-4,5 -4,-596 231,-596 231,5 -4,5"/>
<!-- Node1 -->
<g id="node1" class="node"><title>Node1</title>
<polygon fill="#bfbfbf" stroke="black" points="13,-1 13,-91 115,-91 115,-1 13,-1"/>
<text text-anchor="middle" x="64" y="-79" font-family="Helvetica,sans-Serif" font-size="10.00">client::clsUserEntry</text>
<polyline fill="none" stroke="black" points="13,-72 115,-72 "/>
<text text-anchor="start" x="21" y="-60" font-family="Helvetica,sans-Serif" font-size="10.00">&#45; ui</text>
<polyline fill="none" stroke="black" points="13,-53 115,-53 "/>
<text text-anchor="start" x="21" y="-41" font-family="Helvetica,sans-Serif" font-size="10.00">+ clsUserEntry()</text>
<text text-anchor="start" x="21" y="-30" font-family="Helvetica,sans-Serif" font-size="10.00">+ ~clsUserEntry()</text>
<text text-anchor="start" x="21" y="-19" font-family="Helvetica,sans-Serif" font-size="10.00">+ refresh()</text>
<text text-anchor="start" x="21" y="-8" font-family="Helvetica,sans-Serif" font-size="10.00">&#45; iconChanged()</text>
</g>
<!-- Node2 -->
<g id="node2" class="node"><title>Node2</title>
<polygon fill="white" stroke="#bfbfbf" points="-0.5,-223.5 -0.5,-280.5 54.5,-280.5 54.5,-223.5 -0.5,-223.5"/>
<text text-anchor="middle" x="27" y="-268.5" font-family="Helvetica,sans-Serif" font-size="10.00">QWidget</text>
<polyline fill="none" stroke="#bfbfbf" points="-0.5,-261.5 54.5,-261.5 "/>
<text text-anchor="middle" x="27" y="-249.5" font-family="Helvetica,sans-Serif" font-size="10.00"> </text>
<polyline fill="none" stroke="#bfbfbf" points="-0.5,-242.5 54.5,-242.5 "/>
<text text-anchor="middle" x="27" y="-230.5" font-family="Helvetica,sans-Serif" font-size="10.00"> </text>
</g>
<!-- Node2&#45;&gt;Node1 -->
<g id="edge1" class="edge"><title>Node2&#45;&gt;Node1</title>
<path fill="none" stroke="midnightblue" d="M33.8302,-213.341C40.0921,-178.817 49.3685,-127.671 55.9801,-91.2178"/>
<polygon fill="none" stroke="midnightblue" points="30.3309,-213.024 31.99,-223.488 37.2185,-214.273 30.3309,-213.024"/>
</g>
<!-- Node3 -->
<g id="node3" class="node"><title>Node3</title>
<g id="a_node3"><a xlink:href="../../d6/d69/classclient_1_1irc_user.html" target="_top" xlink:title="The ircUser class.">
<polygon fill="white" stroke="black" points="73,-141 73,-363 217,-363 217,-141 73,-141"/>
<text text-anchor="middle" x="145" y="-351" font-family="Helvetica,sans-Serif" font-size="10.00">client::ircUser</text>
<polyline fill="none" stroke="black" points="73,-344 217,-344 "/>
<text text-anchor="start" x="81" y="-332" font-family="Helvetica,sans-Serif" font-size="10.00">&#45; id</text>
<text text-anchor="start" x="81" y="-321" font-family="Helvetica,sans-Serif" font-size="10.00">&#45; nick</text>
<text text-anchor="start" x="81" y="-310" font-family="Helvetica,sans-Serif" font-size="10.00">&#45; status</text>
<text text-anchor="start" x="81" y="-299" font-family="Helvetica,sans-Serif" font-size="10.00">&#45; uColor</text>
<text text-anchor="start" x="81" y="-288" font-family="Helvetica,sans-Serif" font-size="10.00">&#45; standard</text>
<text text-anchor="start" x="81" y="-277" font-family="Helvetica,sans-Serif" font-size="10.00">&#45; email</text>
<text text-anchor="start" x="81" y="-266" font-family="Helvetica,sans-Serif" font-size="10.00">&#45; icon</text>
<text text-anchor="start" x="81" y="-255" font-family="Helvetica,sans-Serif" font-size="10.00">&#45; online</text>
<polyline fill="none" stroke="black" points="73,-248 217,-248 "/>
<text text-anchor="start" x="81" y="-236" font-family="Helvetica,sans-Serif" font-size="10.00">+ ircUser()</text>
<text text-anchor="start" x="81" y="-225" font-family="Helvetica,sans-Serif" font-size="10.00">+ ircUser()</text>
<text text-anchor="start" x="81" y="-214" font-family="Helvetica,sans-Serif" font-size="10.00">+ copyFrom()</text>
<text text-anchor="start" x="81" y="-203" font-family="Helvetica,sans-Serif" font-size="10.00">+ ~ircUser()</text>
<text text-anchor="start" x="81" y="-192" font-family="Helvetica,sans-Serif" font-size="10.00">+ getNick()</text>
<text text-anchor="start" x="81" y="-181" font-family="Helvetica,sans-Serif" font-size="10.00">+ getId()</text>
<text text-anchor="start" x="81" y="-170" font-family="Helvetica,sans-Serif" font-size="10.00">+ getStatus()</text>
<text text-anchor="start" x="81" y="-159" font-family="Helvetica,sans-Serif" font-size="10.00">and 10 more...</text>
<text text-anchor="start" x="81" y="-148" font-family="Helvetica,sans-Serif" font-size="10.00">&#45; slot_netwManagerFinished()</text>
</a>
</g>
</g>
<!-- Node3&#45;&gt;Node1 -->
<g id="edge2" class="edge"><title>Node3&#45;&gt;Node1</title>
<path fill="none" stroke="#404040" d="M101.299,-140.939C96.0875,-127.813 90.9468,-114.866 86.2254,-102.975"/>
<polygon fill="none" stroke="#404040" points="86.085,-102.621 80.1531,-98.521 81.6566,-91.4684 87.5885,-95.5687 86.085,-102.621"/>
<text text-anchor="middle" x="105.5" y="-113.5" font-family="Helvetica,sans-Serif" font-size="10.00"> &#45;user</text>
</g>
<!-- Node4 -->
<g id="node4" class="node"><title>Node4</title>
<polygon fill="white" stroke="#bfbfbf" points="76.5,-473.5 76.5,-530.5 129.5,-530.5 129.5,-473.5 76.5,-473.5"/>
<text text-anchor="middle" x="103" y="-518.5" font-family="Helvetica,sans-Serif" font-size="10.00">QObject</text>
<polyline fill="none" stroke="#bfbfbf" points="76.5,-511.5 129.5,-511.5 "/>
<text text-anchor="middle" x="103" y="-499.5" font-family="Helvetica,sans-Serif" font-size="10.00"> </text>
<polyline fill="none" stroke="#bfbfbf" points="76.5,-492.5 129.5,-492.5 "/>
<text text-anchor="middle" x="103" y="-480.5" font-family="Helvetica,sans-Serif" font-size="10.00"> </text>
</g>
<!-- Node4&#45;&gt;Node3 -->
<g id="edge3" class="edge"><title>Node4&#45;&gt;Node3</title>
<path fill="none" stroke="midnightblue" d="M109.443,-462.957C113.976,-436.187 120.292,-398.894 126.345,-363.155"/>
<polygon fill="none" stroke="midnightblue" points="105.955,-462.589 107.736,-473.033 112.857,-463.758 105.955,-462.589"/>
</g>
<!-- Node5 -->
<g id="node5" class="node"><title>Node5</title>
<g id="a_node5"><a xlink:href="../../da/d64/class_k4_u_1_1cls_log.html" target="_top" xlink:title="Custom logging class.">
<polygon fill="white" stroke="black" points="147.5,-413 147.5,-591 226.5,-591 226.5,-413 147.5,-413"/>
<text text-anchor="middle" x="187" y="-579" font-family="Helvetica,sans-Serif" font-size="10.00">K4U::clsLog</text>
<polyline fill="none" stroke="black" points="147.5,-572 226.5,-572 "/>
<text text-anchor="start" x="155.5" y="-560" font-family="Helvetica,sans-Serif" font-size="10.00">&#45; isFirst</text>
<text text-anchor="start" x="155.5" y="-549" font-family="Helvetica,sans-Serif" font-size="10.00">&#45; tag</text>
<text text-anchor="start" x="155.5" y="-538" font-family="Helvetica,sans-Serif" font-size="10.00">&#45; prf</text>
<polyline fill="none" stroke="black" points="147.5,-531 226.5,-531 "/>
<text text-anchor="start" x="155.5" y="-519" font-family="Helvetica,sans-Serif" font-size="10.00">+ clsLog()</text>
<text text-anchor="start" x="155.5" y="-508" font-family="Helvetica,sans-Serif" font-size="10.00">+ operator&lt;&lt;()</text>
<text text-anchor="start" x="155.5" y="-497" font-family="Helvetica,sans-Serif" font-size="10.00">+ operator&lt;&lt;()</text>
<text text-anchor="start" x="155.5" y="-486" font-family="Helvetica,sans-Serif" font-size="10.00">+ operator&lt;&lt;()</text>
<text text-anchor="start" x="155.5" y="-475" font-family="Helvetica,sans-Serif" font-size="10.00">+ operator&lt;&lt;()</text>
<text text-anchor="start" x="155.5" y="-464" font-family="Helvetica,sans-Serif" font-size="10.00">+ operator&lt;&lt;()</text>
<text text-anchor="start" x="155.5" y="-453" font-family="Helvetica,sans-Serif" font-size="10.00">+ operator&lt;&lt;()</text>
<text text-anchor="start" x="155.5" y="-442" font-family="Helvetica,sans-Serif" font-size="10.00">and 9 more...</text>
<text text-anchor="start" x="155.5" y="-431" font-family="Helvetica,sans-Serif" font-size="10.00">&#45; prefix()</text>
<text text-anchor="start" x="155.5" y="-420" font-family="Helvetica,sans-Serif" font-size="10.00">&#45; getTag()</text>
</a>
</g>
</g>
<!-- Node5&#45;&gt;Node3 -->
<g id="edge4" class="edge"><title>Node5&#45;&gt;Node3</title>
<path fill="none" stroke="#404040" d="M172.074,-412.866C170.019,-400.733 167.88,-388.099 165.743,-375.485"/>
<polygon fill="none" stroke="#404040" points="165.703,-375.247 160.757,-369.999 163.699,-363.415 168.645,-368.663 165.703,-375.247"/>
<text text-anchor="middle" x="177.5" y="-385.5" font-family="Helvetica,sans-Serif" font-size="10.00"> &#45;log</text>
</g>
</g>
</svg>
        <g id="navigator" transform="translate(0 0)" fill="#404254">
                <rect fill="#f2f5e9" fill-opacity="0.5" stroke="#606060" stroke-width=".5" x="0" y="0" width="60" height="60"/>
                <use id="zoomplus" xlink:href="#zoomPlus" x="17" y="9" onmousedown="handleZoom(evt,'in')"/>
                <use id="zoomminus" xlink:href="#zoomMin" x="42" y="9" onmousedown="handleZoom(evt,'out')"/>
                <use id="reset" xlink:href="#resetDef" x="30" y="36" onmousedown="handleReset()"/>
                <g id="arrowUp" xlink:href="#dirArrow" transform="translate(30 24)" onmousedown="handlePan(0,-1)">
                  <use xlink:href="#rim" fill="#404040">
                        <set attributeName="fill" to="#808080" begin="arrowUp.mouseover" end="arrowUp.mouseout"/>
                  </use>
                  <path fill="none" stroke="white" stroke-width="1.5" d="M0,-3.0v7 M-2.5,-0.5L0,-3.0L2.5,-0.5"/>
                </g>
                <g id="arrowRight" xlink:href="#dirArrow" transform="rotate(90) translate(36 -43)" onmousedown="handlePan(1,0)">
                  <use xlink:href="#rim" fill="#404040">
                        <set attributeName="fill" to="#808080" begin="arrowRight.mouseover" end="arrowRight.mouseout"/>
                  </use>
                  <path fill="none" stroke="white" stroke-width="1.5" d="M0,-3.0v7 M-2.5,-0.5L0,-3.0L2.5,-0.5"/>
                </g>
                <g id="arrowDown" xlink:href="#dirArrow" transform="rotate(180) translate(-30 -48)" onmousedown="handlePan(0,1)">
                  <use xlink:href="#rim" fill="#404040">
                        <set attributeName="fill" to="#808080" begin="arrowDown.mouseover" end="arrowDown.mouseout"/>
                  </use>
                  <path fill="none" stroke="white" stroke-width="1.5" d="M0,-3.0v7 M-2.5,-0.5L0,-3.0L2.5,-0.5"/>
                </g>
                <g id="arrowLeft" xlink:href="#dirArrow" transform="rotate(270) translate(-36 17)" onmousedown="handlePan(-1,0)">
                  <use xlink:href="#rim" fill="#404040">
                        <set attributeName="fill" to="#808080" begin="arrowLeft.mouseover" end="arrowLeft.mouseout"/>
                  </use>
                  <path fill="none" stroke="white" stroke-width="1.5" d="M0,-3.0v7 M-2.5,-0.5L0,-3.0L2.5,-0.5"/>
                </g>
        </g>
        <svg viewBox="0 0 15 15" width="100%" height="30px" preserveAspectRatio="xMaxYMin meet">
         <g id="arrow_out" transform="scale(0.3 0.3)">
          <a xlink:href="classclient_1_1cls_user_entry__coll__graph_org.svg" target="_base">
           <rect id="button" ry="5" rx="5" y="6" x="6" height="38" width="38"
                fill="#f2f5e9" fill-opacity="0.5" stroke="#606060" stroke-width="1.0"/>
           <path id="arrow"
             d="M 11.500037,31.436501 C 11.940474,20.09759 22.043105,11.32322 32.158766,21.979434 L 37.068811,17.246167 C 37.068811,17.246167 37.088388,32 37.088388,32 L 22.160133,31.978069 C 22.160133,31.978069 26.997745,27.140456 26.997745,27.140456 C 18.528582,18.264221 13.291696,25.230495 11.500037,31.436501 z"
             style="fill:#404040;"/>
          </a>
         </g>
        </svg>
</svg>
