<?xml version="1.0" encoding="UTF-8" standalone="no"?>
<!DOCTYPE svg PUBLIC "-//W3C//DTD SVG 1.1//EN"
 "http://www.w3.org/Graphics/SVG/1.1/DTD/svg11.dtd">
<!-- Generated by graphviz version 2.30.1 (20130303.0817)
 -->
<!-- Title: client::clsUserEntry Pages: 1 -->
<svg width="234pt" height="600pt"
 viewBox="0.00 0.00 234.00 600.00" xmlns="http://www.w3.org/2000/svg" xmlns:xlink="http://www.w3.org/1999/xlink">
<g id="graph0" class="graph" transform="scale(1 1) rotate(0) translate(4 596)">
<title>client::clsUserEntry</title>
<polygon fill="white" stroke="white" points="-4,5 -4,-596 231,-596 231,5 -4,5"/>
<!-- Node1 -->
<g id="node1" class="node"><title>Node1</title>
<polygon fill="#bfbfbf" stroke="black" points="13,-1 13,-91 115,-91 115,-1 13,-1"/>
<text text-anchor="middle" x="64" y="-79" font-family="Helvetica,sans-Serif" font-size="10.00">client::clsUserEntry</text>
<polyline fill="none" stroke="black" points="13,-72 115,-72 "/>
<text text-anchor="start" x="21" y="-60" font-family="Helvetica,sans-Serif" font-size="10.00">&#45; ui</text>
<polyline fill="none" stroke="black" points="13,-53 115,-53 "/>
<text text-anchor="start" x="21" y="-41" font-family="Helvetica,sans-Serif" font-size="10.00">+ clsUserEntry()</text>
<text text-anchor="start" x="21" y="-30" font-family="Helvetica,sans-Serif" font-size="10.00">+ ~clsUserEntry()</text>
<text text-anchor="start" x="21" y="-19" font-family="Helvetica,sans-Serif" font-size="10.00">+ refresh()</text>
<text text-anchor="start" x="21" y="-8" font-family="Helvetica,sans-Serif" font-size="10.00">&#45; iconChanged()</text>
</g>
<!-- Node2 -->
<g id="node2" class="node"><title>Node2</title>
<polygon fill="white" stroke="#bfbfbf" points="-0.5,-223.5 -0.5,-280.5 54.5,-280.5 54.5,-223.5 -0.5,-223.5"/>
<text text-anchor="middle" x="27" y="-268.5" font-family="Helvetica,sans-Serif" font-size="10.00">QWidget</text>
<polyline fill="none" stroke="#bfbfbf" points="-0.5,-261.5 54.5,-261.5 "/>
<text text-anchor="middle" x="27" y="-249.5" font-family="Helvetica,sans-Serif" font-size="10.00"> </text>
<polyline fill="none" stroke="#bfbfbf" points="-0.5,-242.5 54.5,-242.5 "/>
<text text-anchor="middle" x="27" y="-230.5" font-family="Helvetica,sans-Serif" font-size="10.00"> </text>
</g>
<!-- Node2&#45;&gt;Node1 -->
<g id="edge1" class="edge"><title>Node2&#45;&gt;Node1</title>
<path fill="none" stroke="midnightblue" d="M33.8302,-213.341C40.0921,-178.817 49.3685,-127.671 55.9801,-91.2178"/>
<polygon fill="none" stroke="midnightblue" points="30.3309,-213.024 31.99,-223.488 37.2185,-214.273 30.3309,-213.024"/>
</g>
<!-- Node3 -->
<g id="node3" class="node"><title>Node3</title>
<g id="a_node3"><a xlink:href="../../d6/d69/classclient_1_1irc_user.html" target="_top" xlink:title="The ircUser class.">
<polygon fill="white" stroke="black" points="73,-141 73,-363 217,-363 217,-141 73,-141"/>
<text text-anchor="middle" x="145" y="-351" font-family="Helvetica,sans-Serif" font-size="10.00">client::ircUser</text>
<polyline fill="none" stroke="black" points="73,-344 217,-344 "/>
<text text-anchor="start" x="81" y="-332" font-family="Helvetica,sans-Serif" font-size="10.00">&#45; id</text>
<text text-anchor="start" x="81" y="-321" font-family="Helvetica,sans-Serif" font-size="10.00">&#45; nick</text>
<text text-anchor="start" x="81" y="-310" font-family="Helvetica,sans-Serif" font-size="10.00">&#45; status</text>
<text text-anchor="start" x="81" y="-299" font-family="Helvetica,sans-Serif" font-size="10.00">&#45; uColor</text>
<text text-anchor="start" x="81" y="-288" font-family="Helvetica,sans-Serif" font-size="10.00">&#45; standard</text>
<text text-anchor="start" x="81" y="-277" font-family="Helvetica,sans-Serif" font-size="10.00">&#45; email</text>
<text text-anchor="start" x="81" y="-266" font-family="Helvetica,sans-Serif" font-size="10.00">&#45; icon</text>
<text text-anchor="start" x="81" y="-255" font-family="Helvetica,sans-Serif" font-size="10.00">&#45; online</text>
<polyline fill="none" stroke="black" points="73,-248 217,-248 "/>
<text text-anchor="start" x="81" y="-236" font-family="Helvetica,sans-Serif" font-size="10.00">+ ircUser()</text>
<text text-anchor="start" x="81" y="-225" font-family="Helvetica,sans-Serif" font-size="10.00">+ ircUser()</text>
<text text-anchor="start" x="81" y="-214" font-family="Helvetica,sans-Serif" font-size="10.00">+ copyFrom()</text>
<text text-anchor="start" x="81" y="-203" font-family="Helvetica,sans-Serif" font-size="10.00">+ ~ircUser()</text>
<text text-anchor="start" x="81" y="-192" font-family="Helvetica,sans-Serif" font-size="10.00">+ getNick()</text>
<text text-anchor="start" x="81" y="-181" font-family="Helvetica,sans-Serif" font-size="10.00">+ getId()</text>
<text text-anchor="start" x="81" y="-170" font-family="Helvetica,sans-Serif" font-size="10.00">+ getStatus()</text>
<text text-anchor="start" x="81" y="-159" font-family="Helvetica,sans-Serif" font-size="10.00">and 10 more...</text>
<text text-anchor="start" x="81" y="-148" font-family="Helvetica,sans-Serif" font-size="10.00">&#45; slot_netwManagerFinished()</text>
</a>
</g>
</g>
<!-- Node3&#45;&gt;Node1 -->
<g id="edge2" class="edge"><title>Node3&#45;&gt;Node1</title>
<path fill="none" stroke="#404040" d="M101.299,-140.939C96.0875,-127.813 90.9468,-114.866 86.2254,-102.975"/>
<polygon fill="none" stroke="#404040" points="86.085,-102.621 80.1531,-98.521 81.6566,-91.4684 87.5885,-95.5687 86.085,-102.621"/>
<text text-anchor="middle" x="105.5" y="-113.5" font-family="Helvetica,sans-Serif" font-size="10.00"> &#45;user</text>
</g>
<!-- Node4 -->
<g id="node4" class="node"><title>Node4</title>
<polygon fill="white" stroke="#bfbfbf" points="76.5,-473.5 76.5,-530.5 129.5,-530.5 129.5,-473.5 76.5,-473.5"/>
<text text-anchor="middle" x="103" y="-518.5" font-family="Helvetica,sans-Serif" font-size="10.00">QObject</text>
<polyline fill="none" stroke="#bfbfbf" points="76.5,-511.5 129.5,-511.5 "/>
<text text-anchor="middle" x="103" y="-499.5" font-family="Helvetica,sans-Serif" font-size="10.00"> </text>
<polyline fill="none" stroke="#bfbfbf" points="76.5,-492.5 129.5,-492.5 "/>
<text text-anchor="middle" x="103" y="-480.5" font-family="Helvetica,sans-Serif" font-size="10.00"> </text>
</g>
<!-- Node4&#45;&gt;Node3 -->
<g id="edge3" class="edge"><title>Node4&#45;&gt;Node3</title>
<path fill="none" stroke="midnightblue" d="M109.443,-462.957C113.976,-436.187 120.292,-398.894 126.345,-363.155"/>
<polygon fill="none" stroke="midnightblue" points="105.955,-462.589 107.736,-473.033 112.857,-463.758 105.955,-462.589"/>
</g>
<!-- Node5 -->
<g id="node5" class="node"><title>Node5</title>
<g id="a_node5"><a xlink:href="../../da/d64/class_k4_u_1_1cls_log.html" target="_top" xlink:title="Custom logging class.">
<polygon fill="white" stroke="black" points="147.5,-413 147.5,-591 226.5,-591 226.5,-413 147.5,-413"/>
<text text-anchor="middle" x="187" y="-579" font-family="Helvetica,sans-Serif" font-size="10.00">K4U::clsLog</text>
<polyline fill="none" stroke="black" points="147.5,-572 226.5,-572 "/>
<text text-anchor="start" x="155.5" y="-560" font-family="Helvetica,sans-Serif" font-size="10.00">&#45; isFirst</text>
<text text-anchor="start" x="155.5" y="-549" font-family="Helvetica,sans-Serif" font-size="10.00">&#45; tag</text>
<text text-anchor="start" x="155.5" y="-538" font-family="Helvetica,sans-Serif" font-size="10.00">&#45; prf</text>
<polyline fill="none" stroke="black" points="147.5,-531 226.5,-531 "/>
<text text-anchor="start" x="155.5" y="-519" font-family="Helvetica,sans-Serif" font-size="10.00">+ clsLog()</text>
<text text-anchor="start" x="155.5" y="-508" font-family="Helvetica,sans-Serif" font-size="10.00">+ operator&lt;&lt;()</text>
<text text-anchor="start" x="155.5" y="-497" font-family="Helvetica,sans-Serif" font-size="10.00">+ operator&lt;&lt;()</text>
<text text-anchor="start" x="155.5" y="-486" font-family="Helvetica,sans-Serif" font-size="10.00">+ operator&lt;&lt;()</text>
<text text-anchor="start" x="155.5" y="-475" font-family="Helvetica,sans-Serif" font-size="10.00">+ operator&lt;&lt;()</text>
<text text-anchor="start" x="155.5" y="-464" font-family="Helvetica,sans-Serif" font-size="10.00">+ operator&lt;&lt;()</text>
<text text-anchor="start" x="155.5" y="-453" font-family="Helvetica,sans-Serif" font-size="10.00">+ operator&lt;&lt;()</text>
<text text-anchor="start" x="155.5" y="-442" font-family="Helvetica,sans-Serif" font-size="10.00">and 9 more...</text>
<text text-anchor="start" x="155.5" y="-431" font-family="Helvetica,sans-Serif" font-size="10.00">&#45; prefix()</text>
<text text-anchor="start" x="155.5" y="-420" font-family="Helvetica,sans-Serif" font-size="10.00">&#45; getTag()</text>
</a>
</g>
</g>
<!-- Node5&#45;&gt;Node3 -->
<g id="edge4" class="edge"><title>Node5&#45;&gt;Node3</title>
<path fill="none" stroke="#404040" d="M172.074,-412.866C170.019,-400.733 167.88,-388.099 165.743,-375.485"/>
<polygon fill="none" stroke="#404040" points="165.703,-375.247 160.757,-369.999 163.699,-363.415 168.645,-368.663 165.703,-375.247"/>
<text text-anchor="middle" x="177.5" y="-385.5" font-family="Helvetica,sans-Serif" font-size="10.00"> &#45;log</text>
</g>
</g>
</svg>
