<?xml version="1.0" encoding="UTF-8" standalone="no"?>
<!DOCTYPE svg PUBLIC "-//W3C//DTD SVG 1.1//EN"
 "http://www.w3.org/Graphics/SVG/1.1/DTD/svg11.dtd">
<!-- Generated by graphviz version 2.30.1 (20130303.0817)
 -->
<!-- Title: server::ircClient Pages: 1 -->
<svg width="343pt" height="820pt"
 viewBox="0.00 0.00 343.00 820.00" xmlns="http://www.w3.org/2000/svg" xmlns:xlink="http://www.w3.org/1999/xlink">
<g id="graph0" class="graph" transform="scale(1 1) rotate(0) translate(4 816)">
<title>server::ircClient</title>
<polygon fill="white" stroke="white" points="-4,5 -4,-816 340,-816 340,5 -4,5"/>
<!-- Node1 -->
<g id="node1" class="node"><title>Node1</title>
<polygon fill="#bfbfbf" stroke="black" points="106.5,-1 106.5,-333 207.5,-333 207.5,-1 106.5,-1"/>
<text text-anchor="middle" x="157" y="-321" font-family="Helvetica,sans-Serif" font-size="10.00">server::ircClient</text>
<polyline fill="none" stroke="black" points="106.5,-314 207.5,-314 "/>
<text text-anchor="start" x="114.5" y="-302" font-family="Helvetica,sans-Serif" font-size="10.00">&#45; hostname</text>
<text text-anchor="start" x="114.5" y="-291" font-family="Helvetica,sans-Serif" font-size="10.00">&#45; port</text>
<text text-anchor="start" x="114.5" y="-280" font-family="Helvetica,sans-Serif" font-size="10.00">&#45; channel</text>
<text text-anchor="start" x="114.5" y="-269" font-family="Helvetica,sans-Serif" font-size="10.00">&#45; motdReceived</text>
<text text-anchor="start" x="114.5" y="-258" font-family="Helvetica,sans-Serif" font-size="10.00">&#45; sock</text>
<text text-anchor="start" x="114.5" y="-247" font-family="Helvetica,sans-Serif" font-size="10.00">&#45; buffer</text>
<text text-anchor="start" x="114.5" y="-236" font-family="Helvetica,sans-Serif" font-size="10.00">&#45; connected</text>
<text text-anchor="start" x="114.5" y="-225" font-family="Helvetica,sans-Serif" font-size="10.00">and 6 more...</text>
<polyline fill="none" stroke="black" points="106.5,-218 207.5,-218 "/>
<text text-anchor="start" x="114.5" y="-206" font-family="Helvetica,sans-Serif" font-size="10.00">+ ircClient()</text>
<text text-anchor="start" x="114.5" y="-195" font-family="Helvetica,sans-Serif" font-size="10.00">+ ~ircClient()</text>
<text text-anchor="start" x="114.5" y="-184" font-family="Helvetica,sans-Serif" font-size="10.00">+ doConnect()</text>
<text text-anchor="start" x="114.5" y="-173" font-family="Helvetica,sans-Serif" font-size="10.00">+ setOwnUser()</text>
<text text-anchor="start" x="114.5" y="-162" font-family="Helvetica,sans-Serif" font-size="10.00">+ sendChat()</text>
<text text-anchor="start" x="114.5" y="-151" font-family="Helvetica,sans-Serif" font-size="10.00">+ sendChat()</text>
<text text-anchor="start" x="114.5" y="-140" font-family="Helvetica,sans-Serif" font-size="10.00">+ sendChat()</text>
<text text-anchor="start" x="114.5" y="-129" font-family="Helvetica,sans-Serif" font-size="10.00">+ setUser()</text>
<text text-anchor="start" x="114.5" y="-118" font-family="Helvetica,sans-Serif" font-size="10.00">+ getOwnNick()</text>
<text text-anchor="start" x="114.5" y="-107" font-family="Helvetica,sans-Serif" font-size="10.00">+ setOwnNick()</text>
<text text-anchor="start" x="114.5" y="-96" font-family="Helvetica,sans-Serif" font-size="10.00">+ disconnected()</text>
<text text-anchor="start" x="114.5" y="-85" font-family="Helvetica,sans-Serif" font-size="10.00">+ sltConnected()</text>
<text text-anchor="start" x="114.5" y="-74" font-family="Helvetica,sans-Serif" font-size="10.00">+ readData()</text>
<text text-anchor="start" x="114.5" y="-63" font-family="Helvetica,sans-Serif" font-size="10.00">+ connectTimeout()</text>
<text text-anchor="start" x="114.5" y="-52" font-family="Helvetica,sans-Serif" font-size="10.00">+ checkForPing()</text>
<text text-anchor="start" x="114.5" y="-41" font-family="Helvetica,sans-Serif" font-size="10.00">&#45; init()</text>
<text text-anchor="start" x="114.5" y="-30" font-family="Helvetica,sans-Serif" font-size="10.00">&#45; send()</text>
<text text-anchor="start" x="114.5" y="-19" font-family="Helvetica,sans-Serif" font-size="10.00">&#45; handleCommand()</text>
<text text-anchor="start" x="114.5" y="-8" font-family="Helvetica,sans-Serif" font-size="10.00">&#45; sendPong()</text>
</g>
<!-- Node2 -->
<g id="node2" class="node"><title>Node2</title>
<polygon fill="white" stroke="#bfbfbf" points="-0.5,-454.5 -0.5,-511.5 52.5,-511.5 52.5,-454.5 -0.5,-454.5"/>
<text text-anchor="middle" x="26" y="-499.5" font-family="Helvetica,sans-Serif" font-size="10.00">QObject</text>
<polyline fill="none" stroke="#bfbfbf" points="-0.5,-492.5 52.5,-492.5 "/>
<text text-anchor="middle" x="26" y="-480.5" font-family="Helvetica,sans-Serif" font-size="10.00"> </text>
<polyline fill="none" stroke="#bfbfbf" points="-0.5,-473.5 52.5,-473.5 "/>
<text text-anchor="middle" x="26" y="-461.5" font-family="Helvetica,sans-Serif" font-size="10.00"> </text>
</g>
<!-- Node2&#45;&gt;Node1 -->
<g id="edge1" class="edge"><title>Node2&#45;&gt;Node1</title>
<path fill="none" stroke="midnightblue" d="M38.6908,-444.75C45.3171,-425.833 53.7478,-402.561 62,-382 75.7024,-347.86 91.5892,-311.113 106.404,-277.87"/>
<polygon fill="none" stroke="midnightblue" points="35.3806,-443.613 35.4006,-454.208 41.9919,-445.913 35.3806,-443.613"/>
</g>
<!-- Node3 -->
<g id="node3" class="node"><title>Node3</title>
<g id="a_node3"><a xlink:href="../../d2/d29/classserver_1_1irc_user.html" target="_top" xlink:title="The ircUser class.">
<polygon fill="white" stroke="black" points="71,-383 71,-583 151,-583 151,-383 71,-383"/>
<text text-anchor="middle" x="111" y="-571" font-family="Helvetica,sans-Serif" font-size="10.00">server::ircUser</text>
<polyline fill="none" stroke="black" points="71,-564 151,-564 "/>
<text text-anchor="start" x="79" y="-552" font-family="Helvetica,sans-Serif" font-size="10.00">&#45; name</text>
<text text-anchor="start" x="79" y="-541" font-family="Helvetica,sans-Serif" font-size="10.00">&#45; ircId</text>
<text text-anchor="start" x="79" y="-530" font-family="Helvetica,sans-Serif" font-size="10.00">&#45; id</text>
<text text-anchor="start" x="79" y="-519" font-family="Helvetica,sans-Serif" font-size="10.00">&#45; status</text>
<text text-anchor="start" x="79" y="-508" font-family="Helvetica,sans-Serif" font-size="10.00">&#45; email</text>
<text text-anchor="start" x="79" y="-497" font-family="Helvetica,sans-Serif" font-size="10.00">&#45; online</text>
<text text-anchor="start" x="79" y="-486" font-family="Helvetica,sans-Serif" font-size="10.00">&#45; standard</text>
<polyline fill="none" stroke="black" points="71,-479 151,-479 "/>
<text text-anchor="start" x="79" y="-467" font-family="Helvetica,sans-Serif" font-size="10.00">+ ircUser()</text>
<text text-anchor="start" x="79" y="-456" font-family="Helvetica,sans-Serif" font-size="10.00">+ ircUser()</text>
<text text-anchor="start" x="79" y="-445" font-family="Helvetica,sans-Serif" font-size="10.00">+ ircUser()</text>
<text text-anchor="start" x="79" y="-434" font-family="Helvetica,sans-Serif" font-size="10.00">+ ircUser()</text>
<text text-anchor="start" x="79" y="-423" font-family="Helvetica,sans-Serif" font-size="10.00">+ getName()</text>
<text text-anchor="start" x="79" y="-412" font-family="Helvetica,sans-Serif" font-size="10.00">+ getOnline()</text>
<text text-anchor="start" x="79" y="-401" font-family="Helvetica,sans-Serif" font-size="10.00">+ getStatus()</text>
<text text-anchor="start" x="79" y="-390" font-family="Helvetica,sans-Serif" font-size="10.00">and 13 more...</text>
</a>
</g>
</g>
<!-- Node3&#45;&gt;Node1 -->
<g id="edge2" class="edge"><title>Node3&#45;&gt;Node1</title>
<path fill="none" stroke="#404040" d="M124.572,-382.965C126.047,-372.507 127.542,-362.034 129,-352 129.317,-349.817 129.638,-347.619 129.96,-345.409"/>
<polygon fill="none" stroke="#404040" points="129.967,-345.361 126.881,-338.844 131.71,-333.488 134.796,-340.006 129.967,-345.361"/>
<text text-anchor="middle" x="151" y="-355.5" font-family="Helvetica,sans-Serif" font-size="10.00"> &#45;ownUser</text>
</g>
<!-- Node4 -->
<g id="node4" class="node"><title>Node4</title>
<g id="a_node4"><a xlink:href="../../db/d31/structserver_1_1irc_user_1_1user_color.html" target="_top" xlink:title="The userColor struct As a replacement for the QColor type.">
<polygon fill="white" stroke="black" points="3,-682.5 3,-761.5 129,-761.5 129,-682.5 3,-682.5"/>
<text text-anchor="middle" x="66" y="-749.5" font-family="Helvetica,sans-Serif" font-size="10.00">server::ircUser::userColor</text>
<polyline fill="none" stroke="black" points="3,-742.5 129,-742.5 "/>
<text text-anchor="start" x="11" y="-730.5" font-family="Helvetica,sans-Serif" font-size="10.00">+ r</text>
<text text-anchor="start" x="11" y="-719.5" font-family="Helvetica,sans-Serif" font-size="10.00">+ g</text>
<text text-anchor="start" x="11" y="-708.5" font-family="Helvetica,sans-Serif" font-size="10.00">+ b</text>
<polyline fill="none" stroke="black" points="3,-701.5 129,-701.5 "/>
<text text-anchor="middle" x="66" y="-689.5" font-family="Helvetica,sans-Serif" font-size="10.00"> </text>
</a>
</g>
</g>
<!-- Node4&#45;&gt;Node3 -->
<g id="edge3" class="edge"><title>Node4&#45;&gt;Node3</title>
<path fill="none" stroke="#404040" d="M70.1449,-682.244C72.9063,-658.896 76.9534,-628.625 82,-602 82.4346,-599.707 82.8858,-597.392 83.3513,-595.061"/>
<polygon fill="none" stroke="#404040" points="83.3532,-595.052 80.6539,-588.365 85.7882,-583.301 88.4875,-589.988 83.3532,-595.052"/>
<text text-anchor="middle" x="99" y="-605.5" font-family="Helvetica,sans-Serif" font-size="10.00"> &#45;uColor</text>
</g>
<!-- Node5 -->
<g id="node5" class="node"><title>Node5</title>
<g id="a_node5"><a xlink:href="../../da/d64/class_k4_u_1_1cls_log.html" target="_top" xlink:title="Custom logging class.">
<polygon fill="white" stroke="black" points="147.5,-633 147.5,-811 226.5,-811 226.5,-633 147.5,-633"/>
<text text-anchor="middle" x="187" y="-799" font-family="Helvetica,sans-Serif" font-size="10.00">K4U::clsLog</text>
<polyline fill="none" stroke="black" points="147.5,-792 226.5,-792 "/>
<text text-anchor="start" x="155.5" y="-780" font-family="Helvetica,sans-Serif" font-size="10.00">&#45; isFirst</text>
<text text-anchor="start" x="155.5" y="-769" font-family="Helvetica,sans-Serif" font-size="10.00">&#45; tag</text>
<text text-anchor="start" x="155.5" y="-758" font-family="Helvetica,sans-Serif" font-size="10.00">&#45; prf</text>
<polyline fill="none" stroke="black" points="147.5,-751 226.5,-751 "/>
<text text-anchor="start" x="155.5" y="-739" font-family="Helvetica,sans-Serif" font-size="10.00">+ clsLog()</text>
<text text-anchor="start" x="155.5" y="-728" font-family="Helvetica,sans-Serif" font-size="10.00">+ operator&lt;&lt;()</text>
<text text-anchor="start" x="155.5" y="-717" font-family="Helvetica,sans-Serif" font-size="10.00">+ operator&lt;&lt;()</text>
<text text-anchor="start" x="155.5" y="-706" font-family="Helvetica,sans-Serif" font-size="10.00">+ operator&lt;&lt;()</text>
<text text-anchor="start" x="155.5" y="-695" font-family="Helvetica,sans-Serif" font-size="10.00">+ operator&lt;&lt;()</text>
<text text-anchor="start" x="155.5" y="-684" font-family="Helvetica,sans-Serif" font-size="10.00">+ operator&lt;&lt;()</text>
<text text-anchor="start" x="155.5" y="-673" font-family="Helvetica,sans-Serif" font-size="10.00">+ operator&lt;&lt;()</text>
<text text-anchor="start" x="155.5" y="-662" font-family="Helvetica,sans-Serif" font-size="10.00">and 9 more...</text>
<text text-anchor="start" x="155.5" y="-651" font-family="Helvetica,sans-Serif" font-size="10.00">&#45; prefix()</text>
<text text-anchor="start" x="155.5" y="-640" font-family="Helvetica,sans-Serif" font-size="10.00">&#45; getTag()</text>
</a>
</g>
</g>
<!-- Node5&#45;&gt;Node3 -->
<g id="edge4" class="edge"><title>Node5&#45;&gt;Node3</title>
<path fill="none" stroke="#404040" d="M158.7,-632.75C154.726,-620.356 150.6,-607.49 146.513,-594.743"/>
<polygon fill="none" stroke="#404040" points="146.439,-594.515 140.798,-590.023 142.775,-583.088 148.416,-587.58 146.439,-594.515"/>
<text text-anchor="middle" x="161.5" y="-605.5" font-family="Helvetica,sans-Serif" font-size="10.00"> &#45;log</text>
</g>
<!-- Node5&#45;&gt;Node1 -->
<g id="edge5" class="edge"><title>Node5&#45;&gt;Node1</title>
<path fill="none" stroke="#404040" d="M184.868,-632.963C182.767,-558.166 178.99,-447.976 173,-352 172.87,-349.91 172.735,-347.807 172.598,-345.692"/>
<polygon fill="none" stroke="#404040" points="172.581,-345.448 168.186,-339.731 171.773,-333.475 176.168,-339.192 172.581,-345.448"/>
<text text-anchor="middle" x="193.5" y="-480.5" font-family="Helvetica,sans-Serif" font-size="10.00"> &#45;log</text>
</g>
<!-- Node6 -->
<g id="node6" class="node"><title>Node6</title>
<g id="a_node6"><a xlink:href="../../da/d6a/structserver_1_1nick_and_status.html" target="_top" xlink:title="The nickAndStatus struct.">
<polygon fill="white" stroke="black" points="224,-449 224,-517 336,-517 336,-449 224,-449"/>
<text text-anchor="middle" x="280" y="-505" font-family="Helvetica,sans-Serif" font-size="10.00">server::nickAndStatus</text>
<polyline fill="none" stroke="black" points="224,-498 336,-498 "/>
<text text-anchor="start" x="232" y="-486" font-family="Helvetica,sans-Serif" font-size="10.00">+ nick</text>
<text text-anchor="start" x="232" y="-475" font-family="Helvetica,sans-Serif" font-size="10.00">+ status</text>
<polyline fill="none" stroke="black" points="224,-468 336,-468 "/>
<text text-anchor="middle" x="280" y="-456" font-family="Helvetica,sans-Serif" font-size="10.00"> </text>
</a>
</g>
</g>
<!-- Node6&#45;&gt;Node1 -->
<g id="edge6" class="edge"><title>Node6&#45;&gt;Node1</title>
<path fill="none" stroke="#404040" d="M267.069,-448.99C253.882,-415.324 232.513,-360.774 212.097,-308.653"/>
<polygon fill="none" stroke="#404040" points="211.998,-308.402 206.085,-304.274 207.621,-297.228 213.534,-301.356 211.998,-308.402"/>
<text text-anchor="middle" x="278.5" y="-355.5" font-family="Helvetica,sans-Serif" font-size="10.00"> &#45;ownNickAndStatus</text>
</g>
</g>
</svg>
