<?xml version="1.0" encoding="UTF-8" standalone="no"?>
<!DOCTYPE svg PUBLIC "-//W3C//DTD SVG 1.1//EN"
 "http://www.w3.org/Graphics/SVG/1.1/DTD/svg11.dtd">
<!-- Generated by graphviz version 2.30.1 (20130303.0817)
 -->
<!-- Title: server::ircClient Pages: 1 -->
<!--zoomable 764 -->
<svg id="main" version="1.1" xmlns="http://www.w3.org/2000/svg" xmlns:xlink="http://www.w3.org/1999/xlink" xml:space="preserve" onload="init(evt)">
        <defs>
                <circle id="rim" cx="0" cy="0" r="7"/>
                <circle id="rim2" cx="0" cy="0" r="3.5"/>
                <g id="zoomPlus">
                        <use xlink:href="#rim" fill="#404040">
                                <set attributeName="fill" to="#808080" begin="zoomplus.mouseover" end="zoomplus.mouseout"/>
                        </use>
                        <path d="M-4,0h8M0,-4v8" fill="none" stroke="white" stroke-width="1.5" pointer-events="none"/>
                </g>
                <g id="zoomMin">
                        <use xlink:href="#rim" fill="#404040">
                                <set attributeName="fill" to="#808080" begin="zoomminus.mouseover" end="zoomminus.mouseout"/>
                        </use>
                        <path d="M-4,0h8" fill="none" stroke="white" stroke-width="1.5" pointer-events="none"/>
                </g>
                <g id="dirArrow">
                        <path fill="none" stroke="white" stroke-width="1.5" d="M0,-3.0v7 M-2.5,-0.5L0,-3.0L2.5,-0.5"/>
                </g>
               <g id="resetDef">
                       <use xlink:href="#rim2" fill="#404040">
                               <set attributeName="fill" to="#808080" begin="reset.mouseover" end="reset.mouseout"/>
                       </use>
               </g>
        </defs>

<script type="text/javascript">
var viewWidth = 343;
var viewHeight = 764;
var sectionId = 'dynsection-1';
</script>
<script xlink:href="../../svgpan.js"/>
<svg id="graph" class="graph">
<g id="viewport">
<title>server::ircClient</title>
<polygon fill="white" stroke="white" points="-4,5 -4,-760 340,-760 340,5 -4,5"/>
<!-- Node1 -->
<g id="node1" class="node"><title>Node1</title>
<polygon fill="#bfbfbf" stroke="black" points="106.5,-0.5 106.5,-277.5 207.5,-277.5 207.5,-0.5 106.5,-0.5"/>
<text text-anchor="middle" x="157" y="-265.5" font-family="Helvetica,sans-Serif" font-size="10.00">server::ircClient</text>
<polyline fill="none" stroke="black" points="106.5,-258.5 207.5,-258.5 "/>
<text text-anchor="start" x="114.5" y="-246.5" font-family="Helvetica,sans-Serif" font-size="10.00">&#45; hostname</text>
<text text-anchor="start" x="114.5" y="-235.5" font-family="Helvetica,sans-Serif" font-size="10.00">&#45; port</text>
<text text-anchor="start" x="114.5" y="-224.5" font-family="Helvetica,sans-Serif" font-size="10.00">&#45; channel</text>
<text text-anchor="start" x="114.5" y="-213.5" font-family="Helvetica,sans-Serif" font-size="10.00">&#45; motdReceived</text>
<text text-anchor="start" x="114.5" y="-202.5" font-family="Helvetica,sans-Serif" font-size="10.00">&#45; sock</text>
<text text-anchor="start" x="114.5" y="-191.5" font-family="Helvetica,sans-Serif" font-size="10.00">&#45; buffer</text>
<polyline fill="none" stroke="black" points="106.5,-184.5 207.5,-184.5 "/>
<text text-anchor="start" x="114.5" y="-172.5" font-family="Helvetica,sans-Serif" font-size="10.00">+ ircClient()</text>
<text text-anchor="start" x="114.5" y="-161.5" font-family="Helvetica,sans-Serif" font-size="10.00">+ ~ircClient()</text>
<text text-anchor="start" x="114.5" y="-150.5" font-family="Helvetica,sans-Serif" font-size="10.00">+ connect()</text>
<text text-anchor="start" x="114.5" y="-139.5" font-family="Helvetica,sans-Serif" font-size="10.00">+ sendChat()</text>
<text text-anchor="start" x="114.5" y="-128.5" font-family="Helvetica,sans-Serif" font-size="10.00">+ sendChat()</text>
<text text-anchor="start" x="114.5" y="-117.5" font-family="Helvetica,sans-Serif" font-size="10.00">+ sendChat()</text>
<text text-anchor="start" x="114.5" y="-106.5" font-family="Helvetica,sans-Serif" font-size="10.00">+ setUser()</text>
<text text-anchor="start" x="114.5" y="-95.5" font-family="Helvetica,sans-Serif" font-size="10.00">+ getOwnNick()</text>
<text text-anchor="start" x="114.5" y="-84.5" font-family="Helvetica,sans-Serif" font-size="10.00">+ setOwnNick()</text>
<text text-anchor="start" x="114.5" y="-73.5" font-family="Helvetica,sans-Serif" font-size="10.00">+ disconnected()</text>
<text text-anchor="start" x="114.5" y="-62.5" font-family="Helvetica,sans-Serif" font-size="10.00">+ connected()</text>
<text text-anchor="start" x="114.5" y="-51.5" font-family="Helvetica,sans-Serif" font-size="10.00">+ readData()</text>
<text text-anchor="start" x="114.5" y="-40.5" font-family="Helvetica,sans-Serif" font-size="10.00">&#45; init()</text>
<text text-anchor="start" x="114.5" y="-29.5" font-family="Helvetica,sans-Serif" font-size="10.00">&#45; send()</text>
<text text-anchor="start" x="114.5" y="-18.5" font-family="Helvetica,sans-Serif" font-size="10.00">&#45; handleCommand()</text>
<text text-anchor="start" x="114.5" y="-7.5" font-family="Helvetica,sans-Serif" font-size="10.00">&#45; sendPong()</text>
</g>
<!-- Node2 -->
<g id="node2" class="node"><title>Node2</title>
<polygon fill="white" stroke="#bfbfbf" points="-0.5,-398.5 -0.5,-455.5 52.5,-455.5 52.5,-398.5 -0.5,-398.5"/>
<text text-anchor="middle" x="26" y="-443.5" font-family="Helvetica,sans-Serif" font-size="10.00">QObject</text>
<polyline fill="none" stroke="#bfbfbf" points="-0.5,-436.5 52.5,-436.5 "/>
<text text-anchor="middle" x="26" y="-424.5" font-family="Helvetica,sans-Serif" font-size="10.00"> </text>
<polyline fill="none" stroke="#bfbfbf" points="-0.5,-417.5 52.5,-417.5 "/>
<text text-anchor="middle" x="26" y="-405.5" font-family="Helvetica,sans-Serif" font-size="10.00"> </text>
</g>
<!-- Node2&#45;&gt;Node1 -->
<g id="edge1" class="edge"><title>Node2&#45;&gt;Node1</title>
<path fill="none" stroke="midnightblue" d="M38.0821,-388.957C44.6062,-369.917 53.1289,-346.473 62,-326 75.2631,-295.391 91.2626,-262.76 106.319,-233.514"/>
<polygon fill="none" stroke="midnightblue" points="34.7519,-387.879 34.8612,-398.473 41.3825,-390.123 34.7519,-387.879"/>
</g>
<!-- Node3 -->
<g id="node3" class="node"><title>Node3</title>
<g id="a_node3"><a xlink:href="../../d2/d29/classserver_1_1irc_user.xhtml" target="_top" xlink:title="The ircUser class.">
<polygon fill="white" stroke="black" points="71,-327 71,-527 151,-527 151,-327 71,-327"/>
<text text-anchor="middle" x="111" y="-515" font-family="Helvetica,sans-Serif" font-size="10.00">server::ircUser</text>
<polyline fill="none" stroke="black" points="71,-508 151,-508 "/>
<text text-anchor="start" x="79" y="-496" font-family="Helvetica,sans-Serif" font-size="10.00">&#45; name</text>
<text text-anchor="start" x="79" y="-485" font-family="Helvetica,sans-Serif" font-size="10.00">&#45; ircId</text>
<text text-anchor="start" x="79" y="-474" font-family="Helvetica,sans-Serif" font-size="10.00">&#45; id</text>
<text text-anchor="start" x="79" y="-463" font-family="Helvetica,sans-Serif" font-size="10.00">&#45; status</text>
<text text-anchor="start" x="79" y="-452" font-family="Helvetica,sans-Serif" font-size="10.00">&#45; email</text>
<text text-anchor="start" x="79" y="-441" font-family="Helvetica,sans-Serif" font-size="10.00">&#45; online</text>
<text text-anchor="start" x="79" y="-430" font-family="Helvetica,sans-Serif" font-size="10.00">&#45; standard</text>
<polyline fill="none" stroke="black" points="71,-423 151,-423 "/>
<text text-anchor="start" x="79" y="-411" font-family="Helvetica,sans-Serif" font-size="10.00">+ ircUser()</text>
<text text-anchor="start" x="79" y="-400" font-family="Helvetica,sans-Serif" font-size="10.00">+ ircUser()</text>
<text text-anchor="start" x="79" y="-389" font-family="Helvetica,sans-Serif" font-size="10.00">+ ircUser()</text>
<text text-anchor="start" x="79" y="-378" font-family="Helvetica,sans-Serif" font-size="10.00">+ ircUser()</text>
<text text-anchor="start" x="79" y="-367" font-family="Helvetica,sans-Serif" font-size="10.00">+ getName()</text>
<text text-anchor="start" x="79" y="-356" font-family="Helvetica,sans-Serif" font-size="10.00">+ getOnline()</text>
<text text-anchor="start" x="79" y="-345" font-family="Helvetica,sans-Serif" font-size="10.00">+ getStatus()</text>
<text text-anchor="start" x="79" y="-334" font-family="Helvetica,sans-Serif" font-size="10.00">and 12 more...</text>
</a>
</g>
</g>
<!-- Node3&#45;&gt;Node1 -->
<g id="edge2" class="edge"><title>Node3&#45;&gt;Node1</title>
<path fill="none" stroke="#404040" d="M124.299,-326.923C125.827,-316.474 127.409,-306.014 129,-296 129.327,-293.945 129.658,-291.875 129.995,-289.793"/>
<polygon fill="none" stroke="#404040" points="130.026,-289.599 127.049,-283.031 131.966,-277.756 134.944,-284.324 130.026,-289.599"/>
<text text-anchor="middle" x="151" y="-299.5" font-family="Helvetica,sans-Serif" font-size="10.00"> &#45;ownUser</text>
</g>
<!-- Node4 -->
<g id="node4" class="node"><title>Node4</title>
<g id="a_node4"><a xlink:href="../../db/d31/structserver_1_1irc_user_1_1user_color.xhtml" target="_top" xlink:title="The userColor struct As a replacement for the QColor type.">
<polygon fill="white" stroke="black" points="3,-626.5 3,-705.5 129,-705.5 129,-626.5 3,-626.5"/>
<text text-anchor="middle" x="66" y="-693.5" font-family="Helvetica,sans-Serif" font-size="10.00">server::ircUser::userColor</text>
<polyline fill="none" stroke="black" points="3,-686.5 129,-686.5 "/>
<text text-anchor="start" x="11" y="-674.5" font-family="Helvetica,sans-Serif" font-size="10.00">+ r</text>
<text text-anchor="start" x="11" y="-663.5" font-family="Helvetica,sans-Serif" font-size="10.00">+ g</text>
<text text-anchor="start" x="11" y="-652.5" font-family="Helvetica,sans-Serif" font-size="10.00">+ b</text>
<polyline fill="none" stroke="black" points="3,-645.5 129,-645.5 "/>
<text text-anchor="middle" x="66" y="-633.5" font-family="Helvetica,sans-Serif" font-size="10.00"> </text>
</a>
</g>
</g>
<!-- Node4&#45;&gt;Node3 -->
<g id="edge3" class="edge"><title>Node4&#45;&gt;Node3</title>
<path fill="none" stroke="#404040" d="M70.1449,-626.244C72.9063,-602.896 76.9534,-572.625 82,-546 82.4346,-543.707 82.8858,-541.392 83.3513,-539.061"/>
<polygon fill="none" stroke="#404040" points="83.3532,-539.052 80.6539,-532.365 85.7882,-527.301 88.4875,-533.988 83.3532,-539.052"/>
<text text-anchor="middle" x="99" y="-549.5" font-family="Helvetica,sans-Serif" font-size="10.00"> &#45;uColor</text>
</g>
<!-- Node5 -->
<g id="node5" class="node"><title>Node5</title>
<g id="a_node5"><a xlink:href="../../da/d64/class_k4_u_1_1cls_log.xhtml" target="_top" xlink:title="Custom logging class.">
<polygon fill="white" stroke="black" points="147.5,-577 147.5,-755 226.5,-755 226.5,-577 147.5,-577"/>
<text text-anchor="middle" x="187" y="-743" font-family="Helvetica,sans-Serif" font-size="10.00">K4U::clsLog</text>
<polyline fill="none" stroke="black" points="147.5,-736 226.5,-736 "/>
<text text-anchor="start" x="155.5" y="-724" font-family="Helvetica,sans-Serif" font-size="10.00">&#45; isFirst</text>
<text text-anchor="start" x="155.5" y="-713" font-family="Helvetica,sans-Serif" font-size="10.00">&#45; tag</text>
<text text-anchor="start" x="155.5" y="-702" font-family="Helvetica,sans-Serif" font-size="10.00">&#45; prf</text>
<polyline fill="none" stroke="black" points="147.5,-695 226.5,-695 "/>
<text text-anchor="start" x="155.5" y="-683" font-family="Helvetica,sans-Serif" font-size="10.00">+ clsLog()</text>
<text text-anchor="start" x="155.5" y="-672" font-family="Helvetica,sans-Serif" font-size="10.00">+ operator&lt;&lt;()</text>
<text text-anchor="start" x="155.5" y="-661" font-family="Helvetica,sans-Serif" font-size="10.00">+ operator&lt;&lt;()</text>
<text text-anchor="start" x="155.5" y="-650" font-family="Helvetica,sans-Serif" font-size="10.00">+ operator&lt;&lt;()</text>
<text text-anchor="start" x="155.5" y="-639" font-family="Helvetica,sans-Serif" font-size="10.00">+ operator&lt;&lt;()</text>
<text text-anchor="start" x="155.5" y="-628" font-family="Helvetica,sans-Serif" font-size="10.00">+ operator&lt;&lt;()</text>
<text text-anchor="start" x="155.5" y="-617" font-family="Helvetica,sans-Serif" font-size="10.00">+ operator&lt;&lt;()</text>
<text text-anchor="start" x="155.5" y="-606" font-family="Helvetica,sans-Serif" font-size="10.00">and 9 more...</text>
<text text-anchor="start" x="155.5" y="-595" font-family="Helvetica,sans-Serif" font-size="10.00">&#45; prefix()</text>
<text text-anchor="start" x="155.5" y="-584" font-family="Helvetica,sans-Serif" font-size="10.00">&#45; getTag()</text>
</a>
</g>
</g>
<!-- Node5&#45;&gt;Node3 -->
<g id="edge4" class="edge"><title>Node5&#45;&gt;Node3</title>
<path fill="none" stroke="#404040" d="M158.7,-576.75C154.726,-564.356 150.6,-551.49 146.513,-538.743"/>
<polygon fill="none" stroke="#404040" points="146.439,-538.515 140.798,-534.023 142.775,-527.088 148.416,-531.58 146.439,-538.515"/>
<text text-anchor="middle" x="161.5" y="-549.5" font-family="Helvetica,sans-Serif" font-size="10.00"> &#45;log</text>
</g>
<!-- Node5&#45;&gt;Node1 -->
<g id="edge5" class="edge"><title>Node5&#45;&gt;Node1</title>
<path fill="none" stroke="#404040" d="M185.25,-576.937C183.382,-502.126 179.732,-391.927 173,-296 172.856,-293.946 172.706,-291.877 172.552,-289.797"/>
<polygon fill="none" stroke="#404040" points="172.547,-289.729 168.093,-284.058 171.615,-277.765 176.069,-283.437 172.547,-289.729"/>
<text text-anchor="middle" x="193.5" y="-424.5" font-family="Helvetica,sans-Serif" font-size="10.00"> &#45;log</text>
</g>
<!-- Node6 -->
<g id="node6" class="node"><title>Node6</title>
<g id="a_node6"><a xlink:href="../../da/d6a/structserver_1_1nick_and_status.xhtml" target="_top" xlink:title="The nickAndStatus struct.">
<polygon fill="white" stroke="black" points="224,-393 224,-461 336,-461 336,-393 224,-393"/>
<text text-anchor="middle" x="280" y="-449" font-family="Helvetica,sans-Serif" font-size="10.00">server::nickAndStatus</text>
<polyline fill="none" stroke="black" points="224,-442 336,-442 "/>
<text text-anchor="start" x="232" y="-430" font-family="Helvetica,sans-Serif" font-size="10.00">+ nick</text>
<text text-anchor="start" x="232" y="-419" font-family="Helvetica,sans-Serif" font-size="10.00">+ status</text>
<polyline fill="none" stroke="black" points="224,-412 336,-412 "/>
<text text-anchor="middle" x="280" y="-400" font-family="Helvetica,sans-Serif" font-size="10.00"> </text>
</a>
</g>
</g>
<!-- Node6&#45;&gt;Node1 -->
<g id="edge6" class="edge"><title>Node6&#45;&gt;Node1</title>
<path fill="none" stroke="#404040" d="M265.77,-392.913C252.567,-362.213 232.045,-314.495 212.368,-268.743"/>
<polygon fill="none" stroke="#404040" points="212.264,-268.5 206.219,-264.569 207.523,-257.477 213.568,-261.408 212.264,-268.5"/>
<text text-anchor="middle" x="270.5" y="-299.5" font-family="Helvetica,sans-Serif" font-size="10.00"> &#45;ownNickAndStatus</text>
</g>
</g>
</svg>
        <g id="navigator" transform="translate(0 0)" fill="#404254">
                <rect fill="#f2f5e9" fill-opacity="0.5" stroke="#606060" stroke-width=".5" x="0" y="0" width="60" height="60"/>
                <use id="zoomplus" xlink:href="#zoomPlus" x="17" y="9" onmousedown="handleZoom(evt,'in')"/>
                <use id="zoomminus" xlink:href="#zoomMin" x="42" y="9" onmousedown="handleZoom(evt,'out')"/>
                <use id="reset" xlink:href="#resetDef" x="30" y="36" onmousedown="handleReset()"/>
                <g id="arrowUp" xlink:href="#dirArrow" transform="translate(30 24)" onmousedown="handlePan(0,-1)">
                  <use xlink:href="#rim" fill="#404040">
                        <set attributeName="fill" to="#808080" begin="arrowUp.mouseover" end="arrowUp.mouseout"/>
                  </use>
                  <path fill="none" stroke="white" stroke-width="1.5" d="M0,-3.0v7 M-2.5,-0.5L0,-3.0L2.5,-0.5"/>
                </g>
                <g id="arrowRight" xlink:href="#dirArrow" transform="rotate(90) translate(36 -43)" onmousedown="handlePan(1,0)">
                  <use xlink:href="#rim" fill="#404040">
                        <set attributeName="fill" to="#808080" begin="arrowRight.mouseover" end="arrowRight.mouseout"/>
                  </use>
                  <path fill="none" stroke="white" stroke-width="1.5" d="M0,-3.0v7 M-2.5,-0.5L0,-3.0L2.5,-0.5"/>
                </g>
                <g id="arrowDown" xlink:href="#dirArrow" transform="rotate(180) translate(-30 -48)" onmousedown="handlePan(0,1)">
                  <use xlink:href="#rim" fill="#404040">
                        <set attributeName="fill" to="#808080" begin="arrowDown.mouseover" end="arrowDown.mouseout"/>
                  </use>
                  <path fill="none" stroke="white" stroke-width="1.5" d="M0,-3.0v7 M-2.5,-0.5L0,-3.0L2.5,-0.5"/>
                </g>
                <g id="arrowLeft" xlink:href="#dirArrow" transform="rotate(270) translate(-36 17)" onmousedown="handlePan(-1,0)">
                  <use xlink:href="#rim" fill="#404040">
                        <set attributeName="fill" to="#808080" begin="arrowLeft.mouseover" end="arrowLeft.mouseout"/>
                  </use>
                  <path fill="none" stroke="white" stroke-width="1.5" d="M0,-3.0v7 M-2.5,-0.5L0,-3.0L2.5,-0.5"/>
                </g>
        </g>
        <svg viewBox="0 0 15 15" width="100%" height="30px" preserveAspectRatio="xMaxYMin meet">
         <g id="arrow_out" transform="scale(0.3 0.3)">
          <a xlink:href="classserver_1_1irc_client__coll__graph_org.svg" target="_base">
           <rect id="button" ry="5" rx="5" y="6" x="6" height="38" width="38"
                fill="#f2f5e9" fill-opacity="0.5" stroke="#606060" stroke-width="1.0"/>
           <path id="arrow"
             d="M 11.500037,31.436501 C 11.940474,20.09759 22.043105,11.32322 32.158766,21.979434 L 37.068811,17.246167 C 37.068811,17.246167 37.088388,32 37.088388,32 L 22.160133,31.978069 C 22.160133,31.978069 26.997745,27.140456 26.997745,27.140456 C 18.528582,18.264221 13.291696,25.230495 11.500037,31.436501 z"
             style="fill:#404040;"/>
          </a>
         </g>
        </svg>
</svg>
