<?xml version="1.0" encoding="UTF-8" standalone="no"?>
<!DOCTYPE svg PUBLIC "-//W3C//DTD SVG 1.1//EN"
 "http://www.w3.org/Graphics/SVG/1.1/DTD/svg11.dtd">
<!-- Generated by graphviz version 2.30.1 (20130303.0817)
 -->
<!-- Title: C++/customIrcClient/android/mainwindow.h Pages: 1 -->
<svg width="256pt" height="108pt"
 viewBox="0.00 0.00 256.00 108.00" xmlns="http://www.w3.org/2000/svg" xmlns:xlink="http://www.w3.org/1999/xlink">
<g id="graph0" class="graph" transform="scale(1 1) rotate(0) translate(4 104)">
<title>C++/customIrcClient/android/mainwindow.h</title>
<polygon fill="white" stroke="white" points="-4,5 -4,-104 253,-104 253,5 -4,5"/>
<!-- Node1 -->
<g id="node1" class="node"><title>Node1</title>
<polygon fill="#bfbfbf" stroke="black" points="61.5,-69 61.5,-99 176.5,-99 176.5,-69 61.5,-69"/>
<text text-anchor="start" x="69.5" y="-87" font-family="Helvetica,sans-Serif" font-size="10.00">C++/customIrcClient</text>
<text text-anchor="middle" x="119" y="-76" font-family="Helvetica,sans-Serif" font-size="10.00">/android/mainwindow.h</text>
</g>
<!-- Node2 -->
<g id="node2" class="node"><title>Node2</title>
<g id="a_node2"><a xlink:href="../../d0/dd1/custom_irc_client_2android_2main_8cpp.html" target="_top" xlink:title="C++/customIrcClient\l/android/main.cpp">
<polygon fill="white" stroke="black" points="-1,-1 -1,-31 105,-31 105,-1 -1,-1"/>
<text text-anchor="start" x="7" y="-19" font-family="Helvetica,sans-Serif" font-size="10.00">C++/customIrcClient</text>
<text text-anchor="middle" x="52" y="-8" font-family="Helvetica,sans-Serif" font-size="10.00">/android/main.cpp</text>
</a>
</g>
</g>
<!-- Node1&#45;&gt;Node2 -->
<g id="edge1" class="edge"><title>Node1&#45;&gt;Node2</title>
<path fill="none" stroke="midnightblue" d="M97.1595,-61.4855C87.1092,-51.5852 75.4593,-40.1092 66.5096,-31.2931"/>
<polygon fill="midnightblue" stroke="midnightblue" points="94.8817,-64.1547 104.462,-68.679 99.7941,-59.1678 94.8817,-64.1547"/>
</g>
<!-- Node3 -->
<g id="node3" class="node"><title>Node3</title>
<g id="a_node3"><a xlink:href="../../dc/d1d/android_2mainwindow_8cpp.html" target="_top" xlink:title="C++/customIrcClient\l/android/mainwindow.cpp">
<polygon fill="white" stroke="black" points="123.5,-1 123.5,-31 248.5,-31 248.5,-1 123.5,-1"/>
<text text-anchor="start" x="131.5" y="-19" font-family="Helvetica,sans-Serif" font-size="10.00">C++/customIrcClient</text>
<text text-anchor="middle" x="186" y="-8" font-family="Helvetica,sans-Serif" font-size="10.00">/android/mainwindow.cpp</text>
</a>
</g>
</g>
<!-- Node1&#45;&gt;Node3 -->
<g id="edge2" class="edge"><title>Node1&#45;&gt;Node3</title>
<path fill="none" stroke="midnightblue" d="M140.84,-61.4855C150.891,-51.5852 162.541,-40.1092 171.49,-31.2931"/>
<polygon fill="midnightblue" stroke="midnightblue" points="138.206,-59.1678 133.538,-68.679 143.118,-64.1547 138.206,-59.1678"/>
</g>
</g>
</svg>
