<?xml version="1.0" encoding="UTF-8" standalone="no"?>
<!DOCTYPE svg PUBLIC "-//W3C//DTD SVG 1.1//EN"
 "http://www.w3.org/Graphics/SVG/1.1/DTD/svg11.dtd">
<!-- Generated by graphviz version 2.30.1 (20130303.0817)
 -->
<!-- Title: client::clsUserList::setupUi Pages: 1 -->
<svg width="236pt" height="87pt"
 viewBox="0.00 0.00 236.00 87.00" xmlns="http://www.w3.org/2000/svg" xmlns:xlink="http://www.w3.org/1999/xlink">
<g id="graph0" class="graph" transform="scale(1 1) rotate(0) translate(4 83)">
<title>client::clsUserList::setupUi</title>
<polygon fill="white" stroke="white" points="-4,5 -4,-83 233,-83 233,5 -4,5"/>
<!-- Node1 -->
<g id="node1" class="node"><title>Node1</title>
<polygon fill="#bfbfbf" stroke="black" points="0.5,-24 0.5,-54 95.5,-54 95.5,-24 0.5,-24"/>
<text text-anchor="start" x="8.5" y="-42" font-family="Helvetica,sans-Serif" font-size="10.00">client::clsUserList</text>
<text text-anchor="middle" x="48" y="-31" font-family="Helvetica,sans-Serif" font-size="10.00">::setupUi</text>
</g>
<!-- Node2 -->
<g id="node2" class="node"><title>Node2</title>
<g id="a_node2"><a xlink:href="../../de/dda/classclient_1_1cls_user_list.html#a91105ec3b18c4e62607146ba2aa7d72d" target="_top" xlink:title="client::clsUserList\l::clsUserList">
<polygon fill="white" stroke="black" points="132.5,-49 132.5,-79 227.5,-79 227.5,-49 132.5,-49"/>
<text text-anchor="start" x="140.5" y="-67" font-family="Helvetica,sans-Serif" font-size="10.00">client::clsUserList</text>
<text text-anchor="middle" x="180" y="-56" font-family="Helvetica,sans-Serif" font-size="10.00">::clsUserList</text>
</a>
</g>
</g>
<!-- Node1&#45;&gt;Node2 -->
<g id="edge1" class="edge"><title>Node1&#45;&gt;Node2</title>
<path fill="none" stroke="midnightblue" d="M105.533,-49.8718C114.477,-51.5916 123.637,-53.3533 132.322,-55.0235"/>
<polygon fill="midnightblue" stroke="midnightblue" points="106.047,-46.4065 95.5658,-47.955 104.725,-53.2805 106.047,-46.4065"/>
</g>
<!-- Node3 -->
<g id="node3" class="node"><title>Node3</title>
<g id="a_node3"><a xlink:href="../../de/dda/classclient_1_1cls_user_list.html#acb1c07e842f8cba8fe04e41d672f1d07" target="_top" xlink:title="Clears the list.">
<polygon fill="white" stroke="black" points="132.5,-0 132.5,-30 227.5,-30 227.5,-0 132.5,-0"/>
<text text-anchor="start" x="140.5" y="-18" font-family="Helvetica,sans-Serif" font-size="10.00">client::clsUserList</text>
<text text-anchor="middle" x="180" y="-7" font-family="Helvetica,sans-Serif" font-size="10.00">::clear</text>
</a>
</g>
</g>
<!-- Node1&#45;&gt;Node3 -->
<g id="edge2" class="edge"><title>Node1&#45;&gt;Node3</title>
<path fill="none" stroke="midnightblue" d="M105.533,-28.5631C114.477,-26.912 123.637,-25.2208 132.322,-23.6174"/>
<polygon fill="midnightblue" stroke="midnightblue" points="104.764,-25.1458 95.5658,-30.4032 106.035,-32.0295 104.764,-25.1458"/>
</g>
</g>
</svg>
