<?xml version="1.0" encoding="UTF-8" standalone="no"?>
<!DOCTYPE svg PUBLIC "-//W3C//DTD SVG 1.1//EN"
 "http://www.w3.org/Graphics/SVG/1.1/DTD/svg11.dtd">
<!-- Generated by graphviz version 2.30.1 (20130303.0817)
 -->
<!-- Title: C++/customIrcClient/chatbox.h Pages: 1 -->
<svg width="422pt" height="176pt"
 viewBox="0.00 0.00 422.00 176.00" xmlns="http://www.w3.org/2000/svg" xmlns:xlink="http://www.w3.org/1999/xlink">
<g id="graph0" class="graph" transform="scale(1 1) rotate(0) translate(4 172)">
<title>C++/customIrcClient/chatbox.h</title>
<polygon fill="white" stroke="white" points="-4,5 -4,-172 419,-172 419,5 -4,5"/>
<!-- Node1 -->
<g id="node1" class="node"><title>Node1</title>
<polygon fill="#bfbfbf" stroke="black" points="123,-137 123,-167 229,-167 229,-137 123,-137"/>
<text text-anchor="start" x="131" y="-155" font-family="Helvetica,sans-Serif" font-size="10.00">C++/customIrcClient</text>
<text text-anchor="middle" x="176" y="-144" font-family="Helvetica,sans-Serif" font-size="10.00">/chatbox.h</text>
</g>
<!-- Node2 -->
<g id="node2" class="node"><title>Node2</title>
<g id="a_node2"><a xlink:href="../../de/da9/chatbox_8cpp.xhtml" target="_top" xlink:title="C++/customIrcClient\l/chatbox.cpp">
<polygon fill="white" stroke="black" points="-1,-69 -1,-99 105,-99 105,-69 -1,-69"/>
<text text-anchor="start" x="7" y="-87" font-family="Helvetica,sans-Serif" font-size="10.00">C++/customIrcClient</text>
<text text-anchor="middle" x="52" y="-76" font-family="Helvetica,sans-Serif" font-size="10.00">/chatbox.cpp</text>
</a>
</g>
</g>
<!-- Node1&#45;&gt;Node2 -->
<g id="edge1" class="edge"><title>Node1&#45;&gt;Node2</title>
<path fill="none" stroke="midnightblue" d="M140.406,-132.055C120.696,-121.564 96.6087,-108.743 78.5571,-99.1352"/>
<polygon fill="midnightblue" stroke="midnightblue" points="138.927,-135.232 149.399,-136.841 142.216,-129.053 138.927,-135.232"/>
</g>
<!-- Node3 -->
<g id="node3" class="node"><title>Node3</title>
<g id="a_node3"><a xlink:href="../../d0/dc6/chatentry_8cpp.xhtml" target="_top" xlink:title="C++/customIrcClient\l/chatentry.cpp">
<polygon fill="white" stroke="black" points="123,-69 123,-99 229,-99 229,-69 123,-69"/>
<text text-anchor="start" x="131" y="-87" font-family="Helvetica,sans-Serif" font-size="10.00">C++/customIrcClient</text>
<text text-anchor="middle" x="176" y="-76" font-family="Helvetica,sans-Serif" font-size="10.00">/chatentry.cpp</text>
</a>
</g>
</g>
<!-- Node1&#45;&gt;Node3 -->
<g id="edge2" class="edge"><title>Node1&#45;&gt;Node3</title>
<path fill="none" stroke="midnightblue" d="M176,-126.532C176,-117.361 176,-107.245 176,-99.2931"/>
<polygon fill="midnightblue" stroke="midnightblue" points="172.5,-126.679 176,-136.679 179.5,-126.679 172.5,-126.679"/>
</g>
<!-- Node4 -->
<g id="node4" class="node"><title>Node4</title>
<g id="a_node4"><a xlink:href="../../d9/d53/mainwindow_8h.xhtml" target="_top" xlink:title="C++/customIrcClient\l/mainwindow.h">
<polygon fill="white" stroke="black" points="247,-69 247,-99 353,-99 353,-69 247,-69"/>
<text text-anchor="start" x="255" y="-87" font-family="Helvetica,sans-Serif" font-size="10.00">C++/customIrcClient</text>
<text text-anchor="middle" x="300" y="-76" font-family="Helvetica,sans-Serif" font-size="10.00">/mainwindow.h</text>
</a>
</g>
</g>
<!-- Node1&#45;&gt;Node4 -->
<g id="edge3" class="edge"><title>Node1&#45;&gt;Node4</title>
<path fill="none" stroke="midnightblue" d="M211.594,-132.055C231.304,-121.564 255.391,-108.743 273.443,-99.1352"/>
<polygon fill="midnightblue" stroke="midnightblue" points="209.784,-129.053 202.601,-136.841 213.073,-135.232 209.784,-129.053"/>
</g>
<!-- Node5 -->
<g id="node5" class="node"><title>Node5</title>
<g id="a_node5"><a xlink:href="../../df/d94/custom_irc_client_2main_8cpp.xhtml" target="_top" xlink:title="C++/customIrcClient\l/main.cpp">
<polygon fill="white" stroke="black" points="185,-1 185,-31 291,-31 291,-1 185,-1"/>
<text text-anchor="start" x="193" y="-19" font-family="Helvetica,sans-Serif" font-size="10.00">C++/customIrcClient</text>
<text text-anchor="middle" x="238" y="-8" font-family="Helvetica,sans-Serif" font-size="10.00">/main.cpp</text>
</a>
</g>
</g>
<!-- Node4&#45;&gt;Node5 -->
<g id="edge4" class="edge"><title>Node4&#45;&gt;Node5</title>
<path fill="none" stroke="midnightblue" d="M279.515,-61.1939C270.278,-51.3605 259.627,-40.0228 251.427,-31.2931"/>
<polygon fill="midnightblue" stroke="midnightblue" points="277.149,-63.7869 286.547,-68.679 282.251,-58.9941 277.149,-63.7869"/>
</g>
<!-- Node6 -->
<g id="node6" class="node"><title>Node6</title>
<g id="a_node6"><a xlink:href="../../d8/dd9/mainwindow_8cpp.xhtml" target="_top" xlink:title="C++/customIrcClient\l/mainwindow.cpp">
<polygon fill="white" stroke="black" points="309,-1 309,-31 415,-31 415,-1 309,-1"/>
<text text-anchor="start" x="317" y="-19" font-family="Helvetica,sans-Serif" font-size="10.00">C++/customIrcClient</text>
<text text-anchor="middle" x="362" y="-8" font-family="Helvetica,sans-Serif" font-size="10.00">/mainwindow.cpp</text>
</a>
</g>
</g>
<!-- Node4&#45;&gt;Node6 -->
<g id="edge5" class="edge"><title>Node4&#45;&gt;Node6</title>
<path fill="none" stroke="midnightblue" d="M320.485,-61.1939C329.722,-51.3605 340.373,-40.0228 348.573,-31.2931"/>
<polygon fill="midnightblue" stroke="midnightblue" points="317.749,-58.9941 313.453,-68.679 322.851,-63.7869 317.749,-58.9941"/>
</g>
</g>
</svg>
