<?xml version="1.0" encoding="UTF-8" standalone="no"?>
<!DOCTYPE svg PUBLIC "-//W3C//DTD SVG 1.1//EN"
 "http://www.w3.org/Graphics/SVG/1.1/DTD/svg11.dtd">
<!-- Generated by graphviz version 2.30.1 (20130303.0817)
 -->
<!-- Title: client::clsSettings::clsSettings Pages: 1 -->
<svg width="378pt" height="77pt"
 viewBox="0.00 0.00 378.00 77.00" xmlns="http://www.w3.org/2000/svg" xmlns:xlink="http://www.w3.org/1999/xlink">
<g id="graph0" class="graph" transform="scale(1 1) rotate(0) translate(4 73)">
<title>client::clsSettings::clsSettings</title>
<polygon fill="white" stroke="white" points="-4,5 -4,-73 375,-73 375,5 -4,5"/>
<!-- Node1 -->
<g id="node1" class="node"><title>Node1</title>
<polygon fill="#bfbfbf" stroke="black" points="0.5,-22 0.5,-52 95.5,-52 95.5,-22 0.5,-22"/>
<text text-anchor="start" x="8.5" y="-40" font-family="Helvetica,sans-Serif" font-size="10.00">client::clsSettings</text>
<text text-anchor="middle" x="48" y="-29" font-family="Helvetica,sans-Serif" font-size="10.00">::clsSettings</text>
</g>
<!-- Node2 -->
<g id="node2" class="node"><title>Node2</title>
<g id="a_node2"><a xlink:href="../../d6/d75/namespace_k4_u.html#aaddaee50fab2801df390147891b0c09d" target="_top" xlink:title="K4U::endl">
<polygon fill="white" stroke="black" points="150.5,-49.5 150.5,-68.5 209.5,-68.5 209.5,-49.5 150.5,-49.5"/>
<text text-anchor="middle" x="180" y="-56.5" font-family="Helvetica,sans-Serif" font-size="10.00">K4U::endl</text>
</a>
</g>
</g>
<!-- Node1&#45;&gt;Node2 -->
<g id="edge1" class="edge"><title>Node1&#45;&gt;Node2</title>
<path fill="none" stroke="midnightblue" d="M95.5658,-44.8804C110.08,-47.3366 125.931,-50.0191 139.881,-52.3799"/>
<polygon fill="midnightblue" stroke="midnightblue" points="139.681,-55.8957 150.125,-54.1134 140.849,-48.9938 139.681,-55.8957"/>
</g>
<!-- Node4 -->
<g id="node4" class="node"><title>Node4</title>
<g id="a_node4"><a xlink:href="../../d5/d08/classclient_1_1cls_settings.html#a9daa04175c479935f068bdbf52b65f63" target="_top" xlink:title="client::clsSettings\l::readServer">
<polygon fill="white" stroke="black" points="132.5,-0 132.5,-30 227.5,-30 227.5,-0 132.5,-0"/>
<text text-anchor="start" x="140.5" y="-18" font-family="Helvetica,sans-Serif" font-size="10.00">client::clsSettings</text>
<text text-anchor="middle" x="180" y="-7" font-family="Helvetica,sans-Serif" font-size="10.00">::readServer</text>
</a>
</g>
</g>
<!-- Node1&#45;&gt;Node4 -->
<g id="edge4" class="edge"><title>Node1&#45;&gt;Node4</title>
<path fill="none" stroke="midnightblue" d="M95.5658,-29.1196C104.247,-27.6505 113.406,-26.1004 122.351,-24.5867"/>
<polygon fill="midnightblue" stroke="midnightblue" points="123.047,-28.0189 132.322,-22.8993 121.879,-21.117 123.047,-28.0189"/>
</g>
<!-- Node3 -->
<g id="node3" class="node"><title>Node3</title>
<g id="a_node3"><a xlink:href="../../da/d64/class_k4_u_1_1cls_log.html#a81f179b2ccb3e2abeb9b47f5b83de935" target="_top" xlink:title="K4U::clsLog::doEndl">
<polygon fill="white" stroke="black" points="264,-49.5 264,-68.5 370,-68.5 370,-49.5 264,-49.5"/>
<text text-anchor="middle" x="317" y="-56.5" font-family="Helvetica,sans-Serif" font-size="10.00">K4U::clsLog::doEndl</text>
</a>
</g>
</g>
<!-- Node2&#45;&gt;Node3 -->
<g id="edge2" class="edge"><title>Node2&#45;&gt;Node3</title>
<path fill="none" stroke="midnightblue" d="M209.63,-53.364C222.582,-52.5238 238.431,-52.1588 253.899,-52.2692"/>
<polygon fill="midnightblue" stroke="midnightblue" points="253.926,-55.7699 263.974,-52.4102 254.024,-48.7705 253.926,-55.7699"/>
</g>
<!-- Node3&#45;&gt;Node2 -->
<g id="edge3" class="edge"><title>Node3&#45;&gt;Node2</title>
<path fill="none" stroke="midnightblue" d="M263.974,-65.5898C249.263,-65.8993 233.515,-65.7603 219.735,-65.1727"/>
<polygon fill="midnightblue" stroke="midnightblue" points="219.802,-61.6715 209.63,-64.636 219.43,-68.6616 219.802,-61.6715"/>
</g>
</g>
</svg>
