<?xml version="1.0" encoding="UTF-8" standalone="no"?>
<!DOCTYPE svg PUBLIC "-//W3C//DTD SVG 1.1//EN"
 "http://www.w3.org/Graphics/SVG/1.1/DTD/svg11.dtd">
<!-- Generated by graphviz version 2.30.1 (20130303.0817)
 -->
<!-- Title: C++/customIrcClient/chatnotification.h Pages: 1 -->
<svg width="190pt" height="96pt"
 viewBox="0.00 0.00 190.00 96.00" xmlns="http://www.w3.org/2000/svg" xmlns:xlink="http://www.w3.org/1999/xlink">
<g id="graph0" class="graph" transform="scale(1 1) rotate(0) translate(4 92)">
<title>C++/customIrcClient/chatnotification.h</title>
<polygon fill="white" stroke="white" points="-4,5 -4,-92 187,-92 187,5 -4,5"/>
<!-- Node1 -->
<g id="node1" class="node"><title>Node1</title>
<polygon fill="#bfbfbf" stroke="black" points="43,-57 43,-87 149,-87 149,-57 43,-57"/>
<text text-anchor="start" x="51" y="-75" font-family="Helvetica,sans-Serif" font-size="10.00">C++/customIrcClient</text>
<text text-anchor="middle" x="96" y="-64" font-family="Helvetica,sans-Serif" font-size="10.00">/chatnotification.h</text>
</g>
<!-- Node2 -->
<g id="node2" class="node"><title>Node2</title>
<polygon fill="white" stroke="#bfbfbf" points="-0.5,-0.5 -0.5,-19.5 54.5,-19.5 54.5,-0.5 -0.5,-0.5"/>
<text text-anchor="middle" x="27" y="-7.5" font-family="Helvetica,sans-Serif" font-size="10.00">QWidget</text>
</g>
<!-- Node1&#45;&gt;Node2 -->
<g id="edge1" class="edge"><title>Node1&#45;&gt;Node2</title>
<path fill="none" stroke="midnightblue" d="M79.648,-56.7808C69.1046,-47.6127 55.4001,-35.6957 44.6164,-26.3186"/>
<polygon fill="midnightblue" stroke="midnightblue" points="46.8828,-23.6512 37.0401,-19.7305 42.2896,-28.9335 46.8828,-23.6512"/>
</g>
<!-- Node3 -->
<g id="node3" class="node"><title>Node3</title>
<polygon fill="white" stroke="#bfbfbf" points="72.5,-0.5 72.5,-19.5 119.5,-19.5 119.5,-0.5 72.5,-0.5"/>
<text text-anchor="middle" x="96" y="-7.5" font-family="Helvetica,sans-Serif" font-size="10.00">QLabel</text>
</g>
<!-- Node1&#45;&gt;Node3 -->
<g id="edge2" class="edge"><title>Node1&#45;&gt;Node3</title>
<path fill="none" stroke="midnightblue" d="M96,-56.7808C96,-48.7812 96,-38.6887 96,-30.0168"/>
<polygon fill="midnightblue" stroke="midnightblue" points="99.5001,-29.7305 96,-19.7305 92.5001,-29.7306 99.5001,-29.7305"/>
</g>
<!-- Node4 -->
<g id="node4" class="node"><title>Node4</title>
<polygon fill="white" stroke="#bfbfbf" points="137.5,-0.5 137.5,-19.5 182.5,-19.5 182.5,-0.5 137.5,-0.5"/>
<text text-anchor="middle" x="160" y="-7.5" font-family="Helvetica,sans-Serif" font-size="10.00">QTime</text>
</g>
<!-- Node1&#45;&gt;Node4 -->
<g id="edge3" class="edge"><title>Node1&#45;&gt;Node4</title>
<path fill="none" stroke="midnightblue" d="M111.167,-56.7808C120.851,-47.7026 133.409,-35.9291 143.365,-26.5951"/>
<polygon fill="midnightblue" stroke="midnightblue" points="145.786,-29.1234 150.687,-19.7305 140.998,-24.0166 145.786,-29.1234"/>
</g>
</g>
</svg>
