<?xml version="1.0" encoding="UTF-8" standalone="no"?>
<!DOCTYPE svg PUBLIC "-//W3C//DTD SVG 1.1//EN"
 "http://www.w3.org/Graphics/SVG/1.1/DTD/svg11.dtd">
<!-- Generated by graphviz version 2.30.1 (20130303.0817)
 -->
<!-- Title: C++/customIrcClient/chatinput.h Pages: 1 -->
<svg width="215pt" height="96pt"
 viewBox="0.00 0.00 215.00 96.00" xmlns="http://www.w3.org/2000/svg" xmlns:xlink="http://www.w3.org/1999/xlink">
<g id="graph0" class="graph" transform="scale(1 1) rotate(0) translate(4 92)">
<title>C++/customIrcClient/chatinput.h</title>
<polygon fill="white" stroke="white" points="-4,5 -4,-92 212,-92 212,5 -4,5"/>
<!-- Node1 -->
<g id="node1" class="node"><title>Node1</title>
<polygon fill="#bfbfbf" stroke="black" points="66,-57 66,-87 172,-87 172,-57 66,-57"/>
<text text-anchor="start" x="74" y="-75" font-family="Helvetica,sans-Serif" font-size="10.00">C++/customIrcClient</text>
<text text-anchor="middle" x="119" y="-64" font-family="Helvetica,sans-Serif" font-size="10.00">/chatinput.h</text>
</g>
<!-- Node2 -->
<g id="node2" class="node"><title>Node2</title>
<polygon fill="white" stroke="#bfbfbf" points="-0.5,-0.5 -0.5,-19.5 80.5,-19.5 80.5,-0.5 -0.5,-0.5"/>
<text text-anchor="middle" x="40" y="-7.5" font-family="Helvetica,sans-Serif" font-size="10.00">QPlainTextEdit</text>
</g>
<!-- Node1&#45;&gt;Node2 -->
<g id="edge1" class="edge"><title>Node1&#45;&gt;Node2</title>
<path fill="none" stroke="midnightblue" d="M100.278,-56.7808C88.0884,-47.5228 72.208,-35.4618 59.8073,-26.0435"/>
<polygon fill="midnightblue" stroke="midnightblue" points="61.5757,-22.9916 51.4952,-19.7305 57.3419,-28.5661 61.5757,-22.9916"/>
</g>
<!-- Node3 -->
<g id="node3" class="node"><title>Node3</title>
<polygon fill="white" stroke="#bfbfbf" points="99,-0.5 99,-19.5 139,-19.5 139,-0.5 99,-0.5"/>
<text text-anchor="middle" x="119" y="-7.5" font-family="Helvetica,sans-Serif" font-size="10.00">QList</text>
</g>
<!-- Node1&#45;&gt;Node3 -->
<g id="edge2" class="edge"><title>Node1&#45;&gt;Node3</title>
<path fill="none" stroke="midnightblue" d="M119,-56.7808C119,-48.7812 119,-38.6887 119,-30.0168"/>
<polygon fill="midnightblue" stroke="midnightblue" points="122.5,-29.7305 119,-19.7305 115.5,-29.7306 122.5,-29.7305"/>
</g>
<!-- Node4 -->
<g id="node4" class="node"><title>Node4</title>
<polygon fill="white" stroke="#bfbfbf" points="157,-0.5 157,-19.5 207,-19.5 207,-0.5 157,-0.5"/>
<text text-anchor="middle" x="182" y="-7.5" font-family="Helvetica,sans-Serif" font-size="10.00">QString</text>
</g>
<!-- Node1&#45;&gt;Node4 -->
<g id="edge3" class="edge"><title>Node1&#45;&gt;Node4</title>
<path fill="none" stroke="midnightblue" d="M133.93,-56.7808C143.368,-47.7925 155.58,-36.162 165.333,-26.8731"/>
<polygon fill="midnightblue" stroke="midnightblue" points="168.005,-29.1616 172.833,-19.7305 163.178,-24.0926 168.005,-29.1616"/>
</g>
</g>
</svg>
