<?xml version="1.0" encoding="UTF-8" standalone="no"?>
<!DOCTYPE svg PUBLIC "-//W3C//DTD SVG 1.1//EN"
 "http://www.w3.org/Graphics/SVG/1.1/DTD/svg11.dtd">
<!-- Generated by graphviz version 2.30.1 (20130303.0817)
 -->
<!-- Title: server::ircUser Pages: 1 -->
<svg width="231pt" height="438pt"
 viewBox="0.00 0.00 231.00 438.00" xmlns="http://www.w3.org/2000/svg" xmlns:xlink="http://www.w3.org/1999/xlink">
<g id="graph0" class="graph" transform="scale(1 1) rotate(0) translate(4 434)">
<title>server::ircUser</title>
<polygon fill="white" stroke="white" points="-4,5 -4,-434 228,-434 228,5 -4,5"/>
<!-- Node1 -->
<g id="node1" class="node"><title>Node1</title>
<polygon fill="#bfbfbf" stroke="black" points="83,-1 83,-201 163,-201 163,-1 83,-1"/>
<text text-anchor="middle" x="123" y="-189" font-family="Helvetica,sans-Serif" font-size="10.00">server::ircUser</text>
<polyline fill="none" stroke="black" points="83,-182 163,-182 "/>
<text text-anchor="start" x="91" y="-170" font-family="Helvetica,sans-Serif" font-size="10.00">&#45; name</text>
<text text-anchor="start" x="91" y="-159" font-family="Helvetica,sans-Serif" font-size="10.00">&#45; ircId</text>
<text text-anchor="start" x="91" y="-148" font-family="Helvetica,sans-Serif" font-size="10.00">&#45; id</text>
<text text-anchor="start" x="91" y="-137" font-family="Helvetica,sans-Serif" font-size="10.00">&#45; status</text>
<text text-anchor="start" x="91" y="-126" font-family="Helvetica,sans-Serif" font-size="10.00">&#45; email</text>
<text text-anchor="start" x="91" y="-115" font-family="Helvetica,sans-Serif" font-size="10.00">&#45; online</text>
<text text-anchor="start" x="91" y="-104" font-family="Helvetica,sans-Serif" font-size="10.00">&#45; standard</text>
<polyline fill="none" stroke="black" points="83,-97 163,-97 "/>
<text text-anchor="start" x="91" y="-85" font-family="Helvetica,sans-Serif" font-size="10.00">+ ircUser()</text>
<text text-anchor="start" x="91" y="-74" font-family="Helvetica,sans-Serif" font-size="10.00">+ ircUser()</text>
<text text-anchor="start" x="91" y="-63" font-family="Helvetica,sans-Serif" font-size="10.00">+ ircUser()</text>
<text text-anchor="start" x="91" y="-52" font-family="Helvetica,sans-Serif" font-size="10.00">+ ircUser()</text>
<text text-anchor="start" x="91" y="-41" font-family="Helvetica,sans-Serif" font-size="10.00">+ getName()</text>
<text text-anchor="start" x="91" y="-30" font-family="Helvetica,sans-Serif" font-size="10.00">+ getOnline()</text>
<text text-anchor="start" x="91" y="-19" font-family="Helvetica,sans-Serif" font-size="10.00">+ getStatus()</text>
<text text-anchor="start" x="91" y="-8" font-family="Helvetica,sans-Serif" font-size="10.00">and 12 more...</text>
</g>
<!-- Node2 -->
<g id="node2" class="node"><title>Node2</title>
<g id="a_node2"><a xlink:href="../../db/d31/structserver_1_1irc_user_1_1user_color.xhtml" target="_top" xlink:title="The userColor struct As a replacement for the QColor type.">
<polygon fill="white" stroke="black" points="0,-300.5 0,-379.5 126,-379.5 126,-300.5 0,-300.5"/>
<text text-anchor="middle" x="63" y="-367.5" font-family="Helvetica,sans-Serif" font-size="10.00">server::ircUser::userColor</text>
<polyline fill="none" stroke="black" points="0,-360.5 126,-360.5 "/>
<text text-anchor="start" x="8" y="-348.5" font-family="Helvetica,sans-Serif" font-size="10.00">+ r</text>
<text text-anchor="start" x="8" y="-337.5" font-family="Helvetica,sans-Serif" font-size="10.00">+ g</text>
<text text-anchor="start" x="8" y="-326.5" font-family="Helvetica,sans-Serif" font-size="10.00">+ b</text>
<polyline fill="none" stroke="black" points="0,-319.5 126,-319.5 "/>
<text text-anchor="middle" x="63" y="-307.5" font-family="Helvetica,sans-Serif" font-size="10.00"> </text>
</a>
</g>
</g>
<!-- Node2&#45;&gt;Node1 -->
<g id="edge1" class="edge"><title>Node2&#45;&gt;Node1</title>
<path fill="none" stroke="#404040" d="M72.7736,-300.394C78.8245,-276.493 86.9303,-244.475 94.8618,-213.146"/>
<polygon fill="none" stroke="#404040" points="94.9434,-212.823 92.5383,-206.025 97.8885,-201.19 100.294,-207.989 94.9434,-212.823"/>
<text text-anchor="middle" x="110" y="-223.5" font-family="Helvetica,sans-Serif" font-size="10.00"> &#45;uColor</text>
</g>
<!-- Node3 -->
<g id="node3" class="node"><title>Node3</title>
<g id="a_node3"><a xlink:href="../../da/d64/class_k4_u_1_1cls_log.xhtml" target="_top" xlink:title="Custom logging class.">
<polygon fill="white" stroke="black" points="144.5,-251 144.5,-429 223.5,-429 223.5,-251 144.5,-251"/>
<text text-anchor="middle" x="184" y="-417" font-family="Helvetica,sans-Serif" font-size="10.00">K4U::clsLog</text>
<polyline fill="none" stroke="black" points="144.5,-410 223.5,-410 "/>
<text text-anchor="start" x="152.5" y="-398" font-family="Helvetica,sans-Serif" font-size="10.00">&#45; isFirst</text>
<text text-anchor="start" x="152.5" y="-387" font-family="Helvetica,sans-Serif" font-size="10.00">&#45; tag</text>
<text text-anchor="start" x="152.5" y="-376" font-family="Helvetica,sans-Serif" font-size="10.00">&#45; prf</text>
<polyline fill="none" stroke="black" points="144.5,-369 223.5,-369 "/>
<text text-anchor="start" x="152.5" y="-357" font-family="Helvetica,sans-Serif" font-size="10.00">+ clsLog()</text>
<text text-anchor="start" x="152.5" y="-346" font-family="Helvetica,sans-Serif" font-size="10.00">+ operator&lt;&lt;()</text>
<text text-anchor="start" x="152.5" y="-335" font-family="Helvetica,sans-Serif" font-size="10.00">+ operator&lt;&lt;()</text>
<text text-anchor="start" x="152.5" y="-324" font-family="Helvetica,sans-Serif" font-size="10.00">+ operator&lt;&lt;()</text>
<text text-anchor="start" x="152.5" y="-313" font-family="Helvetica,sans-Serif" font-size="10.00">+ operator&lt;&lt;()</text>
<text text-anchor="start" x="152.5" y="-302" font-family="Helvetica,sans-Serif" font-size="10.00">+ operator&lt;&lt;()</text>
<text text-anchor="start" x="152.5" y="-291" font-family="Helvetica,sans-Serif" font-size="10.00">+ operator&lt;&lt;()</text>
<text text-anchor="start" x="152.5" y="-280" font-family="Helvetica,sans-Serif" font-size="10.00">and 9 more...</text>
<text text-anchor="start" x="152.5" y="-269" font-family="Helvetica,sans-Serif" font-size="10.00">&#45; prefix()</text>
<text text-anchor="start" x="152.5" y="-258" font-family="Helvetica,sans-Serif" font-size="10.00">&#45; getTag()</text>
</a>
</g>
</g>
<!-- Node3&#45;&gt;Node1 -->
<g id="edge2" class="edge"><title>Node3&#45;&gt;Node1</title>
<path fill="none" stroke="#404040" d="M161.286,-250.75C158.096,-238.356 154.784,-225.49 151.503,-212.743"/>
<polygon fill="none" stroke="#404040" points="151.495,-212.709 146.125,-207.896 148.504,-201.088 153.873,-205.901 151.495,-212.709"/>
<text text-anchor="middle" x="165.5" y="-223.5" font-family="Helvetica,sans-Serif" font-size="10.00"> &#45;log</text>
</g>
</g>
</svg>
