<?xml version="1.0" encoding="UTF-8" standalone="no"?>
<!DOCTYPE svg PUBLIC "-//W3C//DTD SVG 1.1//EN"
 "http://www.w3.org/Graphics/SVG/1.1/DTD/svg11.dtd">
<!-- Generated by graphviz version 2.30.1 (20130303.0817)
 -->
<!-- Title: C++/customIrcServer/mainapp.cpp Pages: 1 -->
<svg width="1993pt" height="388pt"
 viewBox="0.00 0.00 1992.71 388.00" xmlns="http://www.w3.org/2000/svg" xmlns:xlink="http://www.w3.org/1999/xlink">
<g id="graph0" class="graph" transform="scale(1 1) rotate(0) translate(4 384)">
<title>C++/customIrcServer/mainapp.cpp</title>
<polygon fill="white" stroke="white" points="-4,5 -4,-384 1989.71,-384 1989.71,5 -4,5"/>
<!-- Node1 -->
<g id="node1" class="node"><title>Node1</title>
<polygon fill="#bfbfbf" stroke="black" points="616.707,-349 616.707,-379 724.707,-379 724.707,-349 616.707,-349"/>
<text text-anchor="start" x="624.707" y="-367" font-family="Helvetica,sans-Serif" font-size="10.00">C++/customIrcServer</text>
<text text-anchor="middle" x="670.707" y="-356" font-family="Helvetica,sans-Serif" font-size="10.00">/mainapp.cpp</text>
</g>
<!-- Node2 -->
<g id="node2" class="node"><title>Node2</title>
<g id="a_node2"><a xlink:href="../../db/df6/mainapp_8h.html" target="_top" xlink:title="mainapp.h">
<polygon fill="white" stroke="black" points="639.707,-292.5 639.707,-311.5 701.707,-311.5 701.707,-292.5 639.707,-292.5"/>
<text text-anchor="middle" x="670.707" y="-299.5" font-family="Helvetica,sans-Serif" font-size="10.00">mainapp.h</text>
</a>
</g>
</g>
<!-- Node1&#45;&gt;Node2 -->
<g id="edge1" class="edge"><title>Node1&#45;&gt;Node2</title>
<path fill="none" stroke="midnightblue" d="M670.707,-348.781C670.707,-340.781 670.707,-330.689 670.707,-322.017"/>
<polygon fill="midnightblue" stroke="midnightblue" points="674.207,-321.73 670.707,-311.731 667.207,-321.731 674.207,-321.73"/>
</g>
<!-- Node3 -->
<g id="node3" class="node"><title>Node3</title>
<polygon fill="white" stroke="#bfbfbf" points="1343.21,-56.5 1343.21,-75.5 1396.21,-75.5 1396.21,-56.5 1343.21,-56.5"/>
<text text-anchor="middle" x="1369.71" y="-63.5" font-family="Helvetica,sans-Serif" font-size="10.00">QObject</text>
</g>
<!-- Node2&#45;&gt;Node3 -->
<g id="edge2" class="edge"><title>Node2&#45;&gt;Node3</title>
<path fill="none" stroke="midnightblue" d="M701.963,-300.592C770.223,-299.031 937.272,-291.563 1071.71,-256 1167.56,-230.643 1183.59,-202.073 1276.71,-168 1328.2,-149.158 1362.08,-176.067 1394.71,-132 1405.55,-117.355 1394.96,-97.4237 1384.42,-83.5073"/>
<polygon fill="midnightblue" stroke="midnightblue" points="1387.09,-81.2462 1378.05,-75.7206 1381.67,-85.6775 1387.09,-81.2462"/>
</g>
<!-- Node4 -->
<g id="node4" class="node"><title>Node4</title>
<polygon fill="white" stroke="#bfbfbf" points="458.207,-56.5 458.207,-75.5 511.207,-75.5 511.207,-56.5 458.207,-56.5"/>
<text text-anchor="middle" x="484.707" y="-63.5" font-family="Helvetica,sans-Serif" font-size="10.00">QVector</text>
</g>
<!-- Node2&#45;&gt;Node4 -->
<g id="edge3" class="edge"><title>Node2&#45;&gt;Node4</title>
<path fill="none" stroke="midnightblue" d="M658.315,-292.373C627.03,-269.894 544.451,-206.096 503.707,-132 495.741,-117.513 490.793,-99.3279 487.952,-85.8794"/>
<polygon fill="midnightblue" stroke="midnightblue" points="491.356,-85.0465 486.04,-75.8817 484.481,-86.3611 491.356,-85.0465"/>
</g>
<!-- Node5 -->
<g id="node5" class="node"><title>Node5</title>
<polygon fill="white" stroke="#bfbfbf" points="14.707,-112.5 14.707,-131.5 62.707,-131.5 62.707,-112.5 14.707,-112.5"/>
<text text-anchor="middle" x="38.707" y="-119.5" font-family="Helvetica,sans-Serif" font-size="10.00">QTimer</text>
</g>
<!-- Node2&#45;&gt;Node5 -->
<g id="edge4" class="edge"><title>Node2&#45;&gt;Node5</title>
<path fill="none" stroke="midnightblue" d="M639.314,-297.521C589.307,-291.568 488.731,-277.903 405.707,-256 276.906,-222.02 129.538,-161.814 68.0459,-135.686"/>
<polygon fill="midnightblue" stroke="midnightblue" points="69.1636,-132.358 58.5925,-131.65 66.4149,-138.795 69.1636,-132.358"/>
</g>
<!-- Node6 -->
<g id="node6" class="node"><title>Node6</title>
<g id="a_node6"><a xlink:href="../../d4/df9/ircclient_8h.html" target="_top" xlink:title="ircclient.h">
<polygon fill="white" stroke="black" points="314.207,-168.5 314.207,-187.5 373.207,-187.5 373.207,-168.5 314.207,-168.5"/>
<text text-anchor="middle" x="343.707" y="-175.5" font-family="Helvetica,sans-Serif" font-size="10.00">ircclient.h</text>
</a>
</g>
</g>
<!-- Node2&#45;&gt;Node6 -->
<g id="edge5" class="edge"><title>Node2&#45;&gt;Node6</title>
<path fill="none" stroke="midnightblue" d="M639.625,-297.185C599.485,-291.549 527.978,-279.086 470.707,-256 429.992,-239.588 387.262,-210.95 363.204,-193.606"/>
<polygon fill="midnightblue" stroke="midnightblue" points="365.079,-190.641 354.941,-187.561 360.946,-196.29 365.079,-190.641"/>
</g>
<!-- Node13 -->
<g id="node13" class="node"><title>Node13</title>
<g id="a_node13"><a xlink:href="../../d8/d5c/functions_8h.html" target="_top" xlink:title="functions.h">
<polygon fill="white" stroke="black" points="118.707,-56.5 118.707,-75.5 182.707,-75.5 182.707,-56.5 118.707,-56.5"/>
<text text-anchor="middle" x="150.707" y="-63.5" font-family="Helvetica,sans-Serif" font-size="10.00">functions.h</text>
</a>
</g>
</g>
<!-- Node2&#45;&gt;Node13 -->
<g id="edge31" class="edge"><title>Node2&#45;&gt;Node13</title>
<path fill="none" stroke="midnightblue" d="M639.374,-300.129C574.788,-297.698 422.604,-288.682 299.707,-256 162.657,-219.554 84.1147,-250.166 5.707,-132 -21.0331,-91.7007 56.8516,-76.1134 108.604,-70.291"/>
<polygon fill="midnightblue" stroke="midnightblue" points="108.984,-73.7704 118.568,-69.2523 108.259,-66.8082 108.984,-73.7704"/>
</g>
<!-- Node20 -->
<g id="node20" class="node"><title>Node20</title>
<g id="a_node20"><a xlink:href="../../d6/d32/custom_irc_server_2ircuser_8h.html" target="_top" xlink:title="ircuser.h">
<polygon fill="white" stroke="black" points="512.707,-112.5 512.707,-131.5 566.707,-131.5 566.707,-112.5 512.707,-112.5"/>
<text text-anchor="middle" x="539.707" y="-119.5" font-family="Helvetica,sans-Serif" font-size="10.00">ircuser.h</text>
</a>
</g>
</g>
<!-- Node2&#45;&gt;Node20 -->
<g id="edge32" class="edge"><title>Node2&#45;&gt;Node20</title>
<path fill="none" stroke="midnightblue" d="M664.389,-292.415C644.034,-264.758 579.909,-177.626 552.421,-140.275"/>
<polygon fill="midnightblue" stroke="midnightblue" points="555.017,-137.898 546.271,-131.918 549.379,-142.047 555.017,-137.898"/>
</g>
<!-- Node22 -->
<g id="node22" class="node"><title>Node22</title>
<g id="a_node22"><a xlink:href="../../d7/d1c/uiserver_8h.html" target="_top" xlink:title="uiserver.h">
<polygon fill="white" stroke="black" points="953.707,-230.5 953.707,-249.5 1011.71,-249.5 1011.71,-230.5 953.707,-230.5"/>
<text text-anchor="middle" x="982.707" y="-237.5" font-family="Helvetica,sans-Serif" font-size="10.00">uiserver.h</text>
</a>
</g>
</g>
<!-- Node2&#45;&gt;Node22 -->
<g id="edge33" class="edge"><title>Node2&#45;&gt;Node22</title>
<path fill="none" stroke="midnightblue" d="M701.763,-295.028C758.998,-284.021 880.987,-260.562 943.699,-248.502"/>
<polygon fill="midnightblue" stroke="midnightblue" points="944.441,-251.923 953.6,-246.597 943.119,-245.049 944.441,-251.923"/>
</g>
<!-- Node26 -->
<g id="node26" class="node"><title>Node26</title>
<g id="a_node26"><a xlink:href="../../d1/de1/uiclient_8h.html" target="_top" xlink:title="uiclient.h">
<polygon fill="white" stroke="black" points="1146.71,-168.5 1146.71,-187.5 1202.71,-187.5 1202.71,-168.5 1146.71,-168.5"/>
<text text-anchor="middle" x="1174.71" y="-175.5" font-family="Helvetica,sans-Serif" font-size="10.00">uiclient.h</text>
</a>
</g>
</g>
<!-- Node2&#45;&gt;Node26 -->
<g id="edge51" class="edge"><title>Node2&#45;&gt;Node26</title>
<path fill="none" stroke="midnightblue" d="M701.768,-300.431C763.618,-298.555 906.004,-290.507 1019.71,-256 1069.78,-240.804 1123.46,-210.649 1152.66,-192.92"/>
<polygon fill="midnightblue" stroke="midnightblue" points="1154.57,-195.857 1161.25,-187.635 1150.9,-189.896 1154.57,-195.857"/>
</g>
<!-- Node32 -->
<g id="node32" class="node"><title>Node32</title>
<g id="a_node32"><a xlink:href="../../d6/d0d/custom_irc_server_2clssettings_8h.html" target="_top" xlink:title="clssettings.h">
<polygon fill="white" stroke="black" points="634.707,-168.5 634.707,-187.5 706.707,-187.5 706.707,-168.5 634.707,-168.5"/>
<text text-anchor="middle" x="670.707" y="-175.5" font-family="Helvetica,sans-Serif" font-size="10.00">clssettings.h</text>
</a>
</g>
</g>
<!-- Node2&#45;&gt;Node32 -->
<g id="edge52" class="edge"><title>Node2&#45;&gt;Node32</title>
<path fill="none" stroke="midnightblue" d="M670.707,-292.226C670.707,-272.53 670.707,-224.437 670.707,-197.7"/>
<polygon fill="midnightblue" stroke="midnightblue" points="674.207,-197.694 670.707,-187.694 667.207,-197.694 674.207,-197.694"/>
</g>
<!-- Node35 -->
<g id="node35" class="node"><title>Node35</title>
<g id="a_node35"><a xlink:href="../../db/d97/clsevent_8h.html" target="_top" xlink:title="../resources/clsevent.h">
<polygon fill="white" stroke="black" points="1443.21,-112.5 1443.21,-131.5 1558.21,-131.5 1558.21,-112.5 1443.21,-112.5"/>
<text text-anchor="middle" x="1500.71" y="-119.5" font-family="Helvetica,sans-Serif" font-size="10.00">../resources/clsevent.h</text>
</a>
</g>
</g>
<!-- Node2&#45;&gt;Node35 -->
<g id="edge58" class="edge"><title>Node2&#45;&gt;Node35</title>
<path fill="none" stroke="midnightblue" d="M701.957,-300.38C816.207,-297.871 1206.97,-287.072 1252.71,-256 1288.71,-231.539 1261.48,-194.901 1295.71,-168 1316.86,-151.375 1381.81,-138.958 1433,-131.425"/>
<polygon fill="midnightblue" stroke="midnightblue" points="1433.63,-134.869 1443.03,-129.984 1432.64,-127.941 1433.63,-134.869"/>
</g>
<!-- Node36 -->
<g id="node36" class="node"><title>Node36</title>
<g id="a_node36"><a xlink:href="../../db/dd2/events_8h.html" target="_top" xlink:title="../resources/events\l/events.h">
<polygon fill="white" stroke="black" points="1554.21,-225 1554.21,-255 1653.21,-255 1653.21,-225 1554.21,-225"/>
<text text-anchor="start" x="1562.21" y="-243" font-family="Helvetica,sans-Serif" font-size="10.00">../resources/events</text>
<text text-anchor="middle" x="1603.71" y="-232" font-family="Helvetica,sans-Serif" font-size="10.00">/events.h</text>
</a>
</g>
</g>
<!-- Node2&#45;&gt;Node36 -->
<g id="edge64" class="edge"><title>Node2&#45;&gt;Node36</title>
<path fill="none" stroke="midnightblue" d="M701.75,-299.004C835.588,-290.397 1364.6,-256.377 1543.9,-244.846"/>
<polygon fill="midnightblue" stroke="midnightblue" points="1544.19,-248.335 1553.95,-244.2 1543.74,-241.349 1544.19,-248.335"/>
</g>
<!-- Node6&#45;&gt;Node4 -->
<g id="edge6" class="edge"><title>Node6&#45;&gt;Node4</title>
<path fill="none" stroke="midnightblue" d="M363.999,-168.41C381.573,-160.428 407.171,-147.463 426.707,-132 444.412,-117.987 461.193,-98.2109 472.106,-84.1601"/>
<polygon fill="midnightblue" stroke="midnightblue" points="475.135,-85.9571 478.38,-75.8715 469.554,-81.732 475.135,-85.9571"/>
</g>
<!-- Node6&#45;&gt;Node5 -->
<g id="edge7" class="edge"><title>Node6&#45;&gt;Node5</title>
<path fill="none" stroke="midnightblue" d="M313.957,-172.638C264.519,-165.244 162.403,-149.35 76.707,-132 75.4362,-131.743 74.1431,-131.474 72.8383,-131.196"/>
<polygon fill="midnightblue" stroke="midnightblue" points="73.2994,-127.713 62.7773,-128.952 71.7756,-134.545 73.2994,-127.713"/>
</g>
<!-- Node7 -->
<g id="node7" class="node"><title>Node7</title>
<polygon fill="white" stroke="#bfbfbf" points="195.207,-112.5 195.207,-131.5 244.207,-131.5 244.207,-112.5 195.207,-112.5"/>
<text text-anchor="middle" x="219.707" y="-119.5" font-family="Helvetica,sans-Serif" font-size="10.00">QBuffer</text>
</g>
<!-- Node6&#45;&gt;Node7 -->
<g id="edge8" class="edge"><title>Node6&#45;&gt;Node7</title>
<path fill="none" stroke="midnightblue" d="M324.059,-168.444C303.742,-159.596 271.804,-145.687 248.609,-135.586"/>
<polygon fill="midnightblue" stroke="midnightblue" points="249.829,-132.3 239.263,-131.516 247.034,-138.718 249.829,-132.3"/>
</g>
<!-- Node8 -->
<g id="node8" class="node"><title>Node8</title>
<polygon fill="white" stroke="#bfbfbf" points="580.707,-0.5 580.707,-19.5 630.707,-19.5 630.707,-0.5 580.707,-0.5"/>
<text text-anchor="middle" x="605.707" y="-7.5" font-family="Helvetica,sans-Serif" font-size="10.00">QString</text>
</g>
<!-- Node6&#45;&gt;Node8 -->
<g id="edge9" class="edge"><title>Node6&#45;&gt;Node8</title>
<path fill="none" stroke="midnightblue" d="M313.887,-175.288C259.159,-171.033 151.387,-156.845 186.707,-112 234.526,-51.2848 477.991,-22.7912 570.226,-14.0515"/>
<polygon fill="midnightblue" stroke="midnightblue" points="570.814,-17.5121 580.449,-13.1055 570.169,-10.5419 570.814,-17.5121"/>
</g>
<!-- Node9 -->
<g id="node9" class="node"><title>Node9</title>
<polygon fill="white" stroke="#bfbfbf" points="698.707,-112.5 698.707,-131.5 768.707,-131.5 768.707,-112.5 698.707,-112.5"/>
<text text-anchor="middle" x="733.707" y="-119.5" font-family="Helvetica,sans-Serif" font-size="10.00">QTcpSocket</text>
</g>
<!-- Node6&#45;&gt;Node9 -->
<g id="edge10" class="edge"><title>Node6&#45;&gt;Node9</title>
<path fill="none" stroke="midnightblue" d="M373.34,-172.897C441.048,-163.522 607.46,-140.48 688.242,-129.295"/>
<polygon fill="midnightblue" stroke="midnightblue" points="689.163,-132.701 698.588,-127.863 688.203,-125.767 689.163,-132.701"/>
</g>
<!-- Node10 -->
<g id="node10" class="node"><title>Node10</title>
<polygon fill="white" stroke="#bfbfbf" points="88.207,-0.5 88.207,-19.5 153.207,-19.5 153.207,-0.5 88.207,-0.5"/>
<text text-anchor="middle" x="120.707" y="-7.5" font-family="Helvetica,sans-Serif" font-size="10.00">QStringList</text>
</g>
<!-- Node6&#45;&gt;Node10 -->
<g id="edge11" class="edge"><title>Node6&#45;&gt;Node10</title>
<path fill="none" stroke="midnightblue" d="M313.924,-177.596C271.603,-176.963 193.468,-170.171 141.707,-132 112.21,-110.248 105.324,-92.3868 109.707,-56 110.778,-47.1069 112.999,-37.4344 115.167,-29.344"/>
<polygon fill="midnightblue" stroke="midnightblue" points="118.594,-30.0908 117.977,-19.5139 111.863,-28.1668 118.594,-30.0908"/>
</g>
<!-- Node11 -->
<g id="node11" class="node"><title>Node11</title>
<polygon fill="white" stroke="#bfbfbf" points="262.707,-112.5 262.707,-131.5 336.707,-131.5 336.707,-112.5 262.707,-112.5"/>
<text text-anchor="middle" x="299.707" y="-119.5" font-family="Helvetica,sans-Serif" font-size="10.00">QTextStream</text>
</g>
<!-- Node6&#45;&gt;Node11 -->
<g id="edge12" class="edge"><title>Node6&#45;&gt;Node11</title>
<path fill="none" stroke="midnightblue" d="M336.441,-168.083C330.162,-160.377 320.919,-149.033 313.276,-139.653"/>
<polygon fill="midnightblue" stroke="midnightblue" points="315.868,-137.293 306.838,-131.751 310.441,-141.714 315.868,-137.293"/>
</g>
<!-- Node12 -->
<g id="node12" class="node"><title>Node12</title>
<g id="a_node12"><a xlink:href="../../df/df2/irc_codes_8h.html" target="_top" xlink:title="ircCodes.h">
<polygon fill="white" stroke="black" points="355.207,-112.5 355.207,-131.5 418.207,-131.5 418.207,-112.5 355.207,-112.5"/>
<text text-anchor="middle" x="386.707" y="-119.5" font-family="Helvetica,sans-Serif" font-size="10.00">ircCodes.h</text>
</a>
</g>
</g>
<!-- Node6&#45;&gt;Node12 -->
<g id="edge13" class="edge"><title>Node6&#45;&gt;Node12</title>
<path fill="none" stroke="midnightblue" d="M350.808,-168.083C356.944,-160.377 365.977,-149.033 373.446,-139.653"/>
<polygon fill="midnightblue" stroke="midnightblue" points="376.247,-141.754 379.739,-131.751 370.771,-137.394 376.247,-141.754"/>
</g>
<!-- Node6&#45;&gt;Node13 -->
<g id="edge14" class="edge"><title>Node6&#45;&gt;Node13</title>
<path fill="none" stroke="midnightblue" d="M313.953,-174.331C265.486,-169.308 172.862,-156.666 152.707,-132 142.335,-119.307 143.085,-100.104 145.677,-85.8584"/>
<polygon fill="midnightblue" stroke="midnightblue" points="149.179,-86.2413 147.973,-75.7153 142.351,-84.6955 149.179,-86.2413"/>
</g>
<!-- Node16 -->
<g id="node16" class="node"><title>Node16</title>
<g id="a_node16"><a xlink:href="../../d7/d62/clslog_8h.html" target="_top" xlink:title="../resources/clslog.h">
<polygon fill="white" stroke="black" points="922.207,-56.5 922.207,-75.5 1027.21,-75.5 1027.21,-56.5 922.207,-56.5"/>
<text text-anchor="middle" x="974.707" y="-63.5" font-family="Helvetica,sans-Serif" font-size="10.00">../resources/clslog.h</text>
</a>
</g>
</g>
<!-- Node6&#45;&gt;Node16 -->
<g id="edge19" class="edge"><title>Node6&#45;&gt;Node16</title>
<path fill="none" stroke="midnightblue" d="M373.276,-171.145C432.983,-159.388 572.264,-132.299 689.707,-112 766.073,-98.8009 854.226,-85.1201 912.029,-76.3605"/>
<polygon fill="midnightblue" stroke="midnightblue" points="912.739,-79.793 922.104,-74.837 911.693,-72.8717 912.739,-79.793"/>
</g>
<!-- Node6&#45;&gt;Node20 -->
<g id="edge25" class="edge"><title>Node6&#45;&gt;Node20</title>
<path fill="none" stroke="midnightblue" d="M373.475,-168.799C408.029,-159.279 465.051,-143.568 502.499,-133.251"/>
<polygon fill="midnightblue" stroke="midnightblue" points="503.796,-136.524 512.507,-130.494 501.937,-129.776 503.796,-136.524"/>
</g>
<!-- Node14 -->
<g id="node14" class="node"><title>Node14</title>
<polygon fill="white" stroke="#bfbfbf" points="423.207,-0.5 423.207,-19.5 464.207,-19.5 464.207,-0.5 423.207,-0.5"/>
<text text-anchor="middle" x="443.707" y="-7.5" font-family="Helvetica,sans-Serif" font-size="10.00">string</text>
</g>
<!-- Node13&#45;&gt;Node14 -->
<g id="edge15" class="edge"><title>Node13&#45;&gt;Node14</title>
<path fill="none" stroke="midnightblue" d="M182.867,-58.6525C187.509,-57.7524 192.229,-56.8459 196.707,-56 274.588,-41.2875 366.448,-24.772 413.137,-16.4376"/>
<polygon fill="midnightblue" stroke="midnightblue" points="413.967,-19.8449 423.197,-14.6436 412.738,-12.9536 413.967,-19.8449"/>
</g>
<!-- Node13&#45;&gt;Node8 -->
<g id="edge16" class="edge"><title>Node13&#45;&gt;Node8</title>
<path fill="none" stroke="midnightblue" d="M182.818,-58.362C187.467,-57.5046 192.202,-56.6873 196.707,-56 334.07,-35.0432 498.818,-19.9534 570.032,-13.9139"/>
<polygon fill="midnightblue" stroke="midnightblue" points="570.572,-17.381 580.243,-13.0558 569.985,-10.4056 570.572,-17.381"/>
</g>
<!-- Node13&#45;&gt;Node10 -->
<g id="edge17" class="edge"><title>Node13&#45;&gt;Node10</title>
<path fill="none" stroke="midnightblue" d="M145.753,-56.083C141.603,-48.6127 135.554,-37.7244 130.44,-28.5199"/>
<polygon fill="midnightblue" stroke="midnightblue" points="133.485,-26.7929 125.569,-19.7511 127.366,-30.1924 133.485,-26.7929"/>
</g>
<!-- Node15 -->
<g id="node15" class="node"><title>Node15</title>
<polygon fill="white" stroke="#bfbfbf" points="171.207,-0.5 171.207,-19.5 242.207,-19.5 242.207,-0.5 171.207,-0.5"/>
<text text-anchor="middle" x="206.707" y="-7.5" font-family="Helvetica,sans-Serif" font-size="10.00">QVariantList</text>
</g>
<!-- Node13&#45;&gt;Node15 -->
<g id="edge18" class="edge"><title>Node13&#45;&gt;Node15</title>
<path fill="none" stroke="midnightblue" d="M159.704,-56.324C167.901,-48.4196 180.213,-36.5482 190.179,-26.9377"/>
<polygon fill="midnightblue" stroke="midnightblue" points="192.777,-29.2947 197.546,-19.8339 187.918,-24.2558 192.777,-29.2947"/>
</g>
<!-- Node17 -->
<g id="node17" class="node"><title>Node17</title>
<polygon fill="white" stroke="#bfbfbf" points="912.707,-0.5 912.707,-19.5 964.707,-19.5 964.707,-0.5 912.707,-0.5"/>
<text text-anchor="middle" x="938.707" y="-7.5" font-family="Helvetica,sans-Serif" font-size="10.00">QDebug</text>
</g>
<!-- Node16&#45;&gt;Node17 -->
<g id="edge20" class="edge"><title>Node16&#45;&gt;Node17</title>
<path fill="none" stroke="midnightblue" d="M968.762,-56.083C963.73,-48.5341 956.37,-37.4948 950.194,-28.2298"/>
<polygon fill="midnightblue" stroke="midnightblue" points="953,-26.1301 944.541,-19.7511 947.176,-30.0131 953,-26.1301"/>
</g>
<!-- Node18 -->
<g id="node18" class="node"><title>Node18</title>
<polygon fill="white" stroke="#bfbfbf" points="1240.21,-0.5 1240.21,-19.5 1305.21,-19.5 1305.21,-0.5 1240.21,-0.5"/>
<text text-anchor="middle" x="1272.71" y="-7.5" font-family="Helvetica,sans-Serif" font-size="10.00">QDateTime</text>
</g>
<!-- Node16&#45;&gt;Node18 -->
<g id="edge21" class="edge"><title>Node16&#45;&gt;Node18</title>
<path fill="none" stroke="midnightblue" d="M1021.93,-56.4435C1079.13,-46.0783 1174.66,-28.7664 1229.83,-18.7688"/>
<polygon fill="midnightblue" stroke="midnightblue" points="1230.76,-22.1578 1239.98,-16.9308 1229.51,-15.27 1230.76,-22.1578"/>
</g>
<!-- Node16&#45;&gt;Node14 -->
<g id="edge22" class="edge"><title>Node16&#45;&gt;Node14</title>
<path fill="none" stroke="midnightblue" d="M921.851,-59.6249C811.931,-48.4465 561.675,-22.9968 474.409,-14.1222"/>
<polygon fill="midnightblue" stroke="midnightblue" points="474.665,-10.6303 464.362,-13.1005 473.957,-17.5944 474.665,-10.6303"/>
</g>
<!-- Node19 -->
<g id="node19" class="node"><title>Node19</title>
<polygon fill="white" stroke="#bfbfbf" points="982.707,-0.5 982.707,-19.5 1036.71,-19.5 1036.71,-0.5 982.707,-0.5"/>
<text text-anchor="middle" x="1009.71" y="-7.5" font-family="Helvetica,sans-Serif" font-size="10.00">iostream</text>
</g>
<!-- Node16&#45;&gt;Node19 -->
<g id="edge23" class="edge"><title>Node16&#45;&gt;Node19</title>
<path fill="none" stroke="midnightblue" d="M980.487,-56.083C985.379,-48.5341 992.534,-37.4948 998.54,-28.2298"/>
<polygon fill="midnightblue" stroke="midnightblue" points="1001.53,-30.0463 1004.04,-19.7511 995.659,-26.239 1001.53,-30.0463"/>
</g>
<!-- Node16&#45;&gt;Node10 -->
<g id="edge24" class="edge"><title>Node16&#45;&gt;Node10</title>
<path fill="none" stroke="midnightblue" d="M922.15,-63.1974C769.69,-57.7965 328.175,-40.8988 163.284,-19.9689"/>
<polygon fill="midnightblue" stroke="midnightblue" points="163.668,-16.4893 153.296,-18.649 162.751,-23.429 163.668,-16.4893"/>
</g>
<!-- Node20&#45;&gt;Node8 -->
<g id="edge26" class="edge"><title>Node20&#45;&gt;Node8</title>
<path fill="none" stroke="midnightblue" d="M540.951,-112.446C543.132,-99.4606 548.522,-74.3481 559.707,-56 566.563,-44.7526 576.862,-34.32 585.977,-26.3375"/>
<polygon fill="midnightblue" stroke="midnightblue" points="588.446,-28.8357 593.883,-19.7424 583.962,-23.4604 588.446,-28.8357"/>
</g>
<!-- Node20&#45;&gt;Node4 -->
<g id="edge27" class="edge"><title>Node20&#45;&gt;Node4</title>
<path fill="none" stroke="midnightblue" d="M530.625,-112.083C522.536,-104.141 510.512,-92.3354 500.797,-82.7973"/>
<polygon fill="midnightblue" stroke="midnightblue" points="503.208,-80.2595 493.62,-75.7511 498.304,-85.2545 503.208,-80.2595"/>
</g>
<!-- Node21 -->
<g id="node21" class="node"><title>Node21</title>
<polygon fill="white" stroke="#bfbfbf" points="568.707,-56.5 568.707,-75.5 642.707,-75.5 642.707,-56.5 568.707,-56.5"/>
<text text-anchor="middle" x="605.707" y="-63.5" font-family="Helvetica,sans-Serif" font-size="10.00">QVariantMap</text>
</g>
<!-- Node20&#45;&gt;Node21 -->
<g id="edge28" class="edge"><title>Node20&#45;&gt;Node21</title>
<path fill="none" stroke="midnightblue" d="M550.311,-112.324C560.163,-104.263 575.058,-92.0765 586.922,-82.3695"/>
<polygon fill="midnightblue" stroke="midnightblue" points="589.387,-84.8752 594.91,-75.8339 584.954,-79.4575 589.387,-84.8752"/>
</g>
<!-- Node20&#45;&gt;Node13 -->
<g id="edge29" class="edge"><title>Node20&#45;&gt;Node13</title>
<path fill="none" stroke="midnightblue" d="M512.662,-117.246C446.045,-107.998 273.631,-84.064 193.196,-72.8982"/>
<polygon fill="midnightblue" stroke="midnightblue" points="193.323,-69.3823 182.936,-71.474 192.36,-76.3158 193.323,-69.3823"/>
</g>
<!-- Node20&#45;&gt;Node16 -->
<g id="edge30" class="edge"><title>Node20&#45;&gt;Node16</title>
<path fill="none" stroke="midnightblue" d="M566.918,-117.622C635.293,-109.134 815.697,-86.7391 912.014,-74.7825"/>
<polygon fill="midnightblue" stroke="midnightblue" points="912.706,-78.2236 922.199,-73.5183 911.844,-71.2769 912.706,-78.2236"/>
</g>
<!-- Node23 -->
<g id="node23" class="node"><title>Node23</title>
<polygon fill="white" stroke="#bfbfbf" points="1024.71,-168.5 1024.71,-187.5 1090.71,-187.5 1090.71,-168.5 1024.71,-168.5"/>
<text text-anchor="middle" x="1057.71" y="-175.5" font-family="Helvetica,sans-Serif" font-size="10.00">QTcpServer</text>
</g>
<!-- Node22&#45;&gt;Node23 -->
<g id="edge34" class="edge"><title>Node22&#45;&gt;Node23</title>
<path fill="none" stroke="midnightblue" d="M993.453,-230.403C1005.26,-220.958 1024.45,-205.606 1038.79,-194.134"/>
<polygon fill="midnightblue" stroke="midnightblue" points="1041.36,-196.561 1046.98,-187.581 1036.99,-191.095 1041.36,-196.561"/>
</g>
<!-- Node24 -->
<g id="node24" class="node"><title>Node24</title>
<polygon fill="white" stroke="#bfbfbf" points="900.707,-168.5 900.707,-187.5 940.707,-187.5 940.707,-168.5 900.707,-168.5"/>
<text text-anchor="middle" x="920.707" y="-175.5" font-family="Helvetica,sans-Serif" font-size="10.00">QList</text>
</g>
<!-- Node22&#45;&gt;Node24 -->
<g id="edge35" class="edge"><title>Node22&#45;&gt;Node24</title>
<path fill="none" stroke="midnightblue" d="M973.824,-230.403C964.248,-221.136 948.796,-206.183 937.021,-194.788"/>
<polygon fill="midnightblue" stroke="midnightblue" points="939.194,-192.02 929.574,-187.581 934.326,-197.05 939.194,-192.02"/>
</g>
<!-- Node25 -->
<g id="node25" class="node"><title>Node25</title>
<polygon fill="white" stroke="#bfbfbf" points="959.207,-168.5 959.207,-187.5 1006.21,-187.5 1006.21,-168.5 959.207,-168.5"/>
<text text-anchor="middle" x="982.707" y="-175.5" font-family="Helvetica,sans-Serif" font-size="10.00">QHash</text>
</g>
<!-- Node22&#45;&gt;Node25 -->
<g id="edge36" class="edge"><title>Node22&#45;&gt;Node25</title>
<path fill="none" stroke="midnightblue" d="M982.707,-230.403C982.707,-221.938 982.707,-208.728 982.707,-197.82"/>
<polygon fill="midnightblue" stroke="midnightblue" points="986.207,-197.581 982.707,-187.581 979.207,-197.581 986.207,-197.581"/>
</g>
<!-- Node22&#45;&gt;Node26 -->
<g id="edge37" class="edge"><title>Node22&#45;&gt;Node26</title>
<path fill="none" stroke="midnightblue" d="M1010.22,-230.403C1043.58,-219.978 1099.97,-202.356 1137.27,-190.699"/>
<polygon fill="midnightblue" stroke="midnightblue" points="1138.75,-193.904 1147.25,-187.581 1136.66,-187.223 1138.75,-193.904"/>
</g>
<!-- Node22&#45;&gt;Node16 -->
<g id="edge49" class="edge"><title>Node22&#45;&gt;Node16</title>
<path fill="none" stroke="midnightblue" d="M953.705,-231.329C932.413,-224.01 904.982,-210.658 891.707,-188 865.979,-144.089 953.085,-134.026 954.707,-132 965.42,-118.618 970.414,-99.5078 972.731,-85.4711"/>
<polygon fill="midnightblue" stroke="midnightblue" points="976.207,-85.8858 974.073,-75.5081 969.269,-84.9515 976.207,-85.8858"/>
</g>
<!-- Node29 -->
<g id="node29" class="node"><title>Node29</title>
<g id="a_node29"><a xlink:href="../../dc/d96/jsoncommand_8h.html" target="_top" xlink:title="../resources/jsoncommand.h">
<polygon fill="white" stroke="black" points="1002.71,-112.5 1002.71,-131.5 1142.71,-131.5 1142.71,-112.5 1002.71,-112.5"/>
<text text-anchor="middle" x="1072.71" y="-119.5" font-family="Helvetica,sans-Serif" font-size="10.00">../resources/jsoncommand.h</text>
</a>
</g>
</g>
<!-- Node22&#45;&gt;Node29 -->
<g id="edge50" class="edge"><title>Node22&#45;&gt;Node29</title>
<path fill="none" stroke="midnightblue" d="M1011.79,-235.326C1039.69,-230.087 1080.34,-217.565 1099.71,-188 1109.69,-172.763 1098.89,-153.232 1088.13,-139.574"/>
<polygon fill="midnightblue" stroke="midnightblue" points="1090.76,-137.27 1081.62,-131.92 1085.43,-141.805 1090.76,-137.27"/>
</g>
<!-- Node26&#45;&gt;Node9 -->
<g id="edge38" class="edge"><title>Node26&#45;&gt;Node9</title>
<path fill="none" stroke="midnightblue" d="M1146.58,-173.57C1132.51,-171.868 1115.21,-169.797 1099.71,-168 959.875,-151.794 921.652,-154.326 778.739,-132.035"/>
<polygon fill="midnightblue" stroke="midnightblue" points="779.142,-128.556 768.72,-130.459 778.054,-135.471 779.142,-128.556"/>
</g>
<!-- Node27 -->
<g id="node27" class="node"><title>Node27</title>
<polygon fill="white" stroke="#bfbfbf" points="1198.71,-112.5 1198.71,-131.5 1278.71,-131.5 1278.71,-112.5 1198.71,-112.5"/>
<text text-anchor="middle" x="1238.71" y="-119.5" font-family="Helvetica,sans-Serif" font-size="10.00">QHostAddress</text>
</g>
<!-- Node26&#45;&gt;Node27 -->
<g id="edge39" class="edge"><title>Node26&#45;&gt;Node27</title>
<path fill="none" stroke="midnightblue" d="M1184.99,-168.324C1194.54,-160.263 1208.99,-148.077 1220.49,-138.369"/>
<polygon fill="midnightblue" stroke="midnightblue" points="1222.85,-140.958 1228.24,-131.834 1218.34,-135.608 1222.85,-140.958"/>
</g>
<!-- Node28 -->
<g id="node28" class="node"><title>Node28</title>
<polygon fill="white" stroke="#bfbfbf" points="1297.21,-112.5 1297.21,-131.5 1386.21,-131.5 1386.21,-112.5 1297.21,-112.5"/>
<text text-anchor="middle" x="1341.71" y="-119.5" font-family="Helvetica,sans-Serif" font-size="10.00">QJsonDocument</text>
</g>
<!-- Node26&#45;&gt;Node28 -->
<g id="edge40" class="edge"><title>Node26&#45;&gt;Node28</title>
<path fill="none" stroke="midnightblue" d="M1201.17,-168.444C1229.39,-159.32 1274.25,-144.813 1305.68,-134.651"/>
<polygon fill="midnightblue" stroke="midnightblue" points="1306.93,-137.923 1315.37,-131.516 1304.78,-131.263 1306.93,-137.923"/>
</g>
<!-- Node26&#45;&gt;Node16 -->
<g id="edge41" class="edge"><title>Node26&#45;&gt;Node16</title>
<path fill="none" stroke="midnightblue" d="M1174.18,-168.445C1172.84,-154.522 1168.15,-127.01 1151.71,-112 1134.92,-96.6807 1081.45,-84.409 1037.63,-76.5745"/>
<polygon fill="midnightblue" stroke="midnightblue" points="1038.04,-73.0933 1027.58,-74.8252 1036.84,-79.9895 1038.04,-73.0933"/>
</g>
<!-- Node26&#45;&gt;Node29 -->
<g id="edge42" class="edge"><title>Node26&#45;&gt;Node29</title>
<path fill="none" stroke="midnightblue" d="M1158.32,-168.324C1142.04,-159.703 1116.84,-146.364 1097.99,-136.386"/>
<polygon fill="midnightblue" stroke="midnightblue" points="1099.53,-133.24 1089.05,-131.655 1096.25,-139.427 1099.53,-133.24"/>
</g>
<!-- Node29&#45;&gt;Node3 -->
<g id="edge43" class="edge"><title>Node29&#45;&gt;Node3</title>
<path fill="none" stroke="midnightblue" d="M1119.77,-112.444C1178.8,-101.71 1278.82,-83.5258 1332.69,-73.7302"/>
<polygon fill="midnightblue" stroke="midnightblue" points="1333.61,-77.12 1342.83,-71.8876 1332.36,-70.233 1333.61,-77.12"/>
</g>
<!-- Node29&#45;&gt;Node21 -->
<g id="edge44" class="edge"><title>Node29&#45;&gt;Node21</title>
<path fill="none" stroke="midnightblue" d="M1002.54,-112.886C906.209,-101.748 735.574,-82.0167 653.037,-72.4728"/>
<polygon fill="midnightblue" stroke="midnightblue" points="653.279,-68.9775 642.943,-71.3056 652.474,-75.9312 653.279,-68.9775"/>
</g>
<!-- Node30 -->
<g id="node30" class="node"><title>Node30</title>
<g id="a_node30"><a xlink:href="../../d4/d05/json_8h.html" target="_top" xlink:title="json.h">
<polygon fill="white" stroke="black" points="1051.21,-56.5 1051.21,-75.5 1094.21,-75.5 1094.21,-56.5 1051.21,-56.5"/>
<text text-anchor="middle" x="1072.71" y="-63.5" font-family="Helvetica,sans-Serif" font-size="10.00">json.h</text>
</a>
</g>
</g>
<!-- Node29&#45;&gt;Node30 -->
<g id="edge45" class="edge"><title>Node29&#45;&gt;Node30</title>
<path fill="none" stroke="midnightblue" d="M1072.71,-112.083C1072.71,-105.006 1072.71,-94.8611 1072.71,-85.9865"/>
<polygon fill="midnightblue" stroke="midnightblue" points="1076.21,-85.751 1072.71,-75.7511 1069.21,-85.7511 1076.21,-85.751"/>
</g>
<!-- Node29&#45;&gt;Node16 -->
<g id="edge48" class="edge"><title>Node29&#45;&gt;Node16</title>
<path fill="none" stroke="midnightblue" d="M1056.96,-112.324C1041.39,-103.743 1017.33,-90.486 999.248,-80.5224"/>
<polygon fill="midnightblue" stroke="midnightblue" points="1000.86,-77.4152 990.413,-75.6545 997.483,-83.546 1000.86,-77.4152"/>
</g>
<!-- Node31 -->
<g id="node31" class="node"><title>Node31</title>
<polygon fill="white" stroke="#bfbfbf" points="1415.21,-0.5 1415.21,-19.5 1470.21,-19.5 1470.21,-0.5 1415.21,-0.5"/>
<text text-anchor="middle" x="1442.71" y="-7.5" font-family="Helvetica,sans-Serif" font-size="10.00">QVariant</text>
</g>
<!-- Node30&#45;&gt;Node31 -->
<g id="edge46" class="edge"><title>Node30&#45;&gt;Node31</title>
<path fill="none" stroke="midnightblue" d="M1094.47,-61.8237C1155.35,-52.9384 1327.95,-27.7476 1404.89,-16.5191"/>
<polygon fill="midnightblue" stroke="midnightblue" points="1405.7,-19.9381 1415.09,-15.0305 1404.69,-13.0115 1405.7,-19.9381"/>
</g>
<!-- Node30&#45;&gt;Node8 -->
<g id="edge47" class="edge"><title>Node30&#45;&gt;Node8</title>
<path fill="none" stroke="midnightblue" d="M1050.9,-59.18C1045.93,-57.9986 1040.66,-56.8572 1035.71,-56 890.491,-30.8573 715.084,-17.8111 641.219,-13.0961"/>
<polygon fill="midnightblue" stroke="midnightblue" points="641.272,-9.59267 631.073,-12.4604 640.835,-16.579 641.272,-9.59267"/>
</g>
<!-- Node32&#45;&gt;Node8 -->
<g id="edge53" class="edge"><title>Node32&#45;&gt;Node8</title>
<path fill="none" stroke="midnightblue" d="M671.155,-168.216C671.842,-147.443 671.392,-94.1776 651.707,-56 645.749,-44.4443 635.701,-34.0955 626.514,-26.2443"/>
<polygon fill="midnightblue" stroke="midnightblue" points="628.448,-23.3085 618.461,-19.7732 624.064,-28.7652 628.448,-23.3085"/>
</g>
<!-- Node33 -->
<g id="node33" class="node"><title>Node33</title>
<polygon fill="white" stroke="#bfbfbf" points="786.707,-112.5 786.707,-131.5 826.707,-131.5 826.707,-112.5 786.707,-112.5"/>
<text text-anchor="middle" x="806.707" y="-119.5" font-family="Helvetica,sans-Serif" font-size="10.00">QFile</text>
</g>
<!-- Node32&#45;&gt;Node33 -->
<g id="edge54" class="edge"><title>Node32&#45;&gt;Node33</title>
<path fill="none" stroke="midnightblue" d="M692.257,-168.444C715.135,-159.36 751.45,-144.94 777.027,-134.785"/>
<polygon fill="midnightblue" stroke="midnightblue" points="778.586,-137.932 786.588,-130.988 776.002,-131.426 778.586,-137.932"/>
</g>
<!-- Node34 -->
<g id="node34" class="node"><title>Node34</title>
<polygon fill="white" stroke="#bfbfbf" points="844.707,-112.5 844.707,-131.5 946.707,-131.5 946.707,-112.5 844.707,-112.5"/>
<text text-anchor="middle" x="895.707" y="-119.5" font-family="Helvetica,sans-Serif" font-size="10.00">QXmlStreamReader</text>
</g>
<!-- Node32&#45;&gt;Node34 -->
<g id="edge55" class="edge"><title>Node32&#45;&gt;Node34</title>
<path fill="none" stroke="midnightblue" d="M706.359,-168.444C745.363,-159.083 807.973,-144.056 850.424,-133.868"/>
<polygon fill="midnightblue" stroke="midnightblue" points="851.315,-137.254 860.222,-131.516 849.681,-130.447 851.315,-137.254"/>
</g>
<!-- Node32&#45;&gt;Node4 -->
<g id="edge56" class="edge"><title>Node32&#45;&gt;Node4</title>
<path fill="none" stroke="midnightblue" d="M659.35,-168.453C641.869,-155.477 607.095,-130.376 575.707,-112 555.336,-100.074 531.373,-88.3102 513.152,-79.8028"/>
<polygon fill="midnightblue" stroke="midnightblue" points="514.485,-76.563 503.939,-75.5494 511.551,-82.9185 514.485,-76.563"/>
</g>
<!-- Node32&#45;&gt;Node20 -->
<g id="edge57" class="edge"><title>Node32&#45;&gt;Node20</title>
<path fill="none" stroke="midnightblue" d="M649.95,-168.444C628.391,-159.557 594.444,-145.563 569.913,-135.451"/>
<polygon fill="midnightblue" stroke="midnightblue" points="570.946,-132.092 560.367,-131.516 568.279,-138.563 570.946,-132.092"/>
</g>
<!-- Node35&#45;&gt;Node3 -->
<g id="edge59" class="edge"><title>Node35&#45;&gt;Node3</title>
<path fill="none" stroke="midnightblue" d="M1479.95,-112.444C1458.39,-103.557 1424.44,-89.5632 1399.91,-79.4514"/>
<polygon fill="midnightblue" stroke="midnightblue" points="1400.95,-76.0917 1390.37,-75.5164 1398.28,-82.5634 1400.95,-76.0917"/>
</g>
<!-- Node35&#45;&gt;Node8 -->
<g id="edge60" class="edge"><title>Node35&#45;&gt;Node8</title>
<path fill="none" stroke="midnightblue" d="M1488.9,-112.482C1465.36,-95.5811 1414.05,-59.1559 1404.71,-56 1331.75,-31.3589 785.911,-15.6475 640.961,-11.8799"/>
<polygon fill="midnightblue" stroke="midnightblue" points="640.933,-8.37808 630.846,-11.6195 640.752,-15.3758 640.933,-8.37808"/>
</g>
<!-- Node35&#45;&gt;Node31 -->
<g id="edge61" class="edge"><title>Node35&#45;&gt;Node31</title>
<path fill="none" stroke="midnightblue" d="M1498.36,-112.238C1494.74,-99.4153 1487.1,-74.9983 1476.71,-56 1471.2,-45.9254 1463.6,-35.6383 1456.99,-27.4473"/>
<polygon fill="midnightblue" stroke="midnightblue" points="1459.67,-25.2016 1450.58,-19.767 1454.3,-29.687 1459.67,-25.2016"/>
</g>
<!-- Node35&#45;&gt;Node18 -->
<g id="edge62" class="edge"><title>Node35&#45;&gt;Node18</title>
<path fill="none" stroke="midnightblue" d="M1494.93,-112.406C1485.07,-98.4262 1463.63,-70.8355 1438.71,-56 1400.41,-33.2047 1350.34,-21.6932 1315.24,-16.0568"/>
<polygon fill="midnightblue" stroke="midnightblue" points="1315.72,-12.5899 1305.31,-14.5542 1314.67,-19.5111 1315.72,-12.5899"/>
</g>
<!-- Node35&#45;&gt;Node16 -->
<g id="edge63" class="edge"><title>Node35&#45;&gt;Node16</title>
<path fill="none" stroke="midnightblue" d="M1443.03,-116.013C1355.98,-108.335 1185.86,-92.7433 1041.71,-76 1040.25,-75.8307 1038.78,-75.6566 1037.29,-75.4783"/>
<polygon fill="midnightblue" stroke="midnightblue" points="1037.7,-72.0033 1027.35,-74.2527 1036.85,-78.9506 1037.7,-72.0033"/>
</g>
<!-- Node37 -->
<g id="node37" class="node"><title>Node37</title>
<g id="a_node37"><a xlink:href="../../db/d70/eventchat_8h.html" target="_top" xlink:title="eventchat.h">
<polygon fill="white" stroke="black" points="1570.71,-168.5 1570.71,-187.5 1636.71,-187.5 1636.71,-168.5 1570.71,-168.5"/>
<text text-anchor="middle" x="1603.71" y="-175.5" font-family="Helvetica,sans-Serif" font-size="10.00">eventchat.h</text>
</a>
</g>
</g>
<!-- Node36&#45;&gt;Node37 -->
<g id="edge65" class="edge"><title>Node36&#45;&gt;Node37</title>
<path fill="none" stroke="midnightblue" d="M1603.71,-224.781C1603.71,-216.781 1603.71,-206.689 1603.71,-198.017"/>
<polygon fill="midnightblue" stroke="midnightblue" points="1607.21,-197.73 1603.71,-187.731 1600.21,-197.731 1607.21,-197.73"/>
</g>
<!-- Node38 -->
<g id="node38" class="node"><title>Node38</title>
<g id="a_node38"><a xlink:href="../../d5/d02/eventuserjoin_8h.html" target="_top" xlink:title="eventuserjoin.h">
<polygon fill="white" stroke="black" points="1655.21,-168.5 1655.21,-187.5 1736.21,-187.5 1736.21,-168.5 1655.21,-168.5"/>
<text text-anchor="middle" x="1695.71" y="-175.5" font-family="Helvetica,sans-Serif" font-size="10.00">eventuserjoin.h</text>
</a>
</g>
</g>
<!-- Node36&#45;&gt;Node38 -->
<g id="edge67" class="edge"><title>Node36&#45;&gt;Node38</title>
<path fill="none" stroke="midnightblue" d="M1625.51,-224.781C1640.21,-215.196 1659.51,-202.606 1674.16,-193.056"/>
<polygon fill="midnightblue" stroke="midnightblue" points="1676.12,-195.95 1682.59,-187.556 1672.3,-190.087 1676.12,-195.95"/>
</g>
<!-- Node39 -->
<g id="node39" class="node"><title>Node39</title>
<g id="a_node39"><a xlink:href="../../d7/d56/eventuserleave_8h.html" target="_top" xlink:title="eventuserleave.h">
<polygon fill="white" stroke="black" points="1754.71,-168.5 1754.71,-187.5 1842.71,-187.5 1842.71,-168.5 1754.71,-168.5"/>
<text text-anchor="middle" x="1798.71" y="-175.5" font-family="Helvetica,sans-Serif" font-size="10.00">eventuserleave.h</text>
</a>
</g>
</g>
<!-- Node36&#45;&gt;Node39 -->
<g id="edge69" class="edge"><title>Node36&#45;&gt;Node39</title>
<path fill="none" stroke="midnightblue" d="M1649.43,-224.933C1683.45,-214.462 1729.34,-200.345 1761.22,-190.536"/>
<polygon fill="midnightblue" stroke="midnightblue" points="1762.51,-193.799 1771.04,-187.513 1760.45,-187.108 1762.51,-193.799"/>
</g>
<!-- Node40 -->
<g id="node40" class="node"><title>Node40</title>
<g id="a_node40"><a xlink:href="../../db/db0/eventuserchangestatus_8h.html" target="_top" xlink:title="eventuserchangestatus.h">
<polygon fill="white" stroke="black" points="1860.21,-168.5 1860.21,-187.5 1985.21,-187.5 1985.21,-168.5 1860.21,-168.5"/>
<text text-anchor="middle" x="1922.71" y="-175.5" font-family="Helvetica,sans-Serif" font-size="10.00">eventuserchangestatus.h</text>
</a>
</g>
</g>
<!-- Node36&#45;&gt;Node40 -->
<g id="edge71" class="edge"><title>Node36&#45;&gt;Node40</title>
<path fill="none" stroke="midnightblue" d="M1653.55,-229.625C1711.53,-218.72 1806.97,-200.769 1867.25,-189.431"/>
<polygon fill="midnightblue" stroke="midnightblue" points="1868.16,-192.821 1877.34,-187.533 1866.87,-185.942 1868.16,-192.821"/>
</g>
<!-- Node41 -->
<g id="node41" class="node"><title>Node41</title>
<g id="a_node41"><a xlink:href="../../d8/d44/eventuserchangenick_8h.html" target="_top" xlink:title="eventuserchangenick.h">
<polygon fill="white" stroke="black" points="1304.71,-168.5 1304.71,-187.5 1420.71,-187.5 1420.71,-168.5 1304.71,-168.5"/>
<text text-anchor="middle" x="1362.71" y="-175.5" font-family="Helvetica,sans-Serif" font-size="10.00">eventuserchangenick.h</text>
</a>
</g>
</g>
<!-- Node36&#45;&gt;Node41 -->
<g id="edge73" class="edge"><title>Node36&#45;&gt;Node41</title>
<path fill="none" stroke="midnightblue" d="M1554.06,-226.641C1510.78,-215.865 1448.59,-200.381 1406.97,-190.021"/>
<polygon fill="midnightblue" stroke="midnightblue" points="1407.67,-186.588 1397.12,-187.568 1405.98,-193.38 1407.67,-186.588"/>
</g>
<!-- Node42 -->
<g id="node42" class="node"><title>Node42</title>
<g id="a_node42"><a xlink:href="../../da/d66/eventservermessage_8h.html" target="_top" xlink:title="eventservermessage.h">
<polygon fill="white" stroke="black" points="1439.21,-168.5 1439.21,-187.5 1552.21,-187.5 1552.21,-168.5 1439.21,-168.5"/>
<text text-anchor="middle" x="1495.71" y="-175.5" font-family="Helvetica,sans-Serif" font-size="10.00">eventservermessage.h</text>
</a>
</g>
</g>
<!-- Node36&#45;&gt;Node42 -->
<g id="edge75" class="edge"><title>Node36&#45;&gt;Node42</title>
<path fill="none" stroke="midnightblue" d="M1578.39,-224.933C1560.82,-215.171 1537.54,-202.24 1520.16,-192.586"/>
<polygon fill="midnightblue" stroke="midnightblue" points="1521.63,-189.397 1511.19,-187.6 1518.23,-195.516 1521.63,-189.397"/>
</g>
<!-- Node37&#45;&gt;Node35 -->
<g id="edge66" class="edge"><title>Node37&#45;&gt;Node35</title>
<path fill="none" stroke="midnightblue" d="M1587.16,-168.324C1570.72,-159.703 1545.27,-146.364 1526.24,-136.386"/>
<polygon fill="midnightblue" stroke="midnightblue" points="1527.7,-133.198 1517.21,-131.655 1524.45,-139.398 1527.7,-133.198"/>
</g>
<!-- Node38&#45;&gt;Node35 -->
<g id="edge68" class="edge"><title>Node38&#45;&gt;Node35</title>
<path fill="none" stroke="midnightblue" d="M1664.81,-168.444C1631.43,-159.201 1578.11,-144.436 1541.36,-134.257"/>
<polygon fill="midnightblue" stroke="midnightblue" points="1542.03,-130.812 1531.46,-131.516 1540.16,-137.558 1542.03,-130.812"/>
</g>
<!-- Node39&#45;&gt;Node35 -->
<g id="edge70" class="edge"><title>Node39&#45;&gt;Node35</title>
<path fill="none" stroke="midnightblue" d="M1754.42,-168.974C1702.11,-159.495 1614.98,-143.707 1557.69,-133.325"/>
<polygon fill="midnightblue" stroke="midnightblue" points="1558.17,-129.855 1547.7,-131.516 1556.92,-136.743 1558.17,-129.855"/>
</g>
<!-- Node40&#45;&gt;Node35 -->
<g id="edge72" class="edge"><title>Node40&#45;&gt;Node35</title>
<path fill="none" stroke="midnightblue" d="M1859.99,-168.974C1781.82,-158.972 1648.76,-141.945 1568.36,-131.657"/>
<polygon fill="midnightblue" stroke="midnightblue" points="1568.71,-128.173 1558.34,-130.375 1567.82,-135.116 1568.71,-128.173"/>
</g>
<!-- Node41&#45;&gt;Node35 -->
<g id="edge74" class="edge"><title>Node41&#45;&gt;Node35</title>
<path fill="none" stroke="midnightblue" d="M1384.57,-168.444C1407.49,-159.478 1443.68,-145.314 1469.57,-135.183"/>
<polygon fill="midnightblue" stroke="midnightblue" points="1470.91,-138.42 1478.94,-131.516 1468.35,-131.901 1470.91,-138.42"/>
</g>
<!-- Node42&#45;&gt;Node35 -->
<g id="edge76" class="edge"><title>Node42&#45;&gt;Node35</title>
<path fill="none" stroke="midnightblue" d="M1496.53,-168.083C1497.19,-161.006 1498.13,-150.861 1498.95,-141.986"/>
<polygon fill="midnightblue" stroke="midnightblue" points="1502.46,-142.031 1499.9,-131.751 1495.49,-141.386 1502.46,-142.031"/>
</g>
</g>
</svg>
