<?xml version="1.0" encoding="UTF-8" standalone="no"?>
<!DOCTYPE svg PUBLIC "-//W3C//DTD SVG 1.1//EN"
 "http://www.w3.org/Graphics/SVG/1.1/DTD/svg11.dtd">
<!-- Generated by graphviz version 2.30.1 (20130303.0817)
 -->
<!-- Title: org.kde.necessitas.origo.QtApplication Pages: 1 -->
<svg width="417pt" height="436pt"
 viewBox="0.00 0.00 417.00 436.00" xmlns="http://www.w3.org/2000/svg" xmlns:xlink="http://www.w3.org/1999/xlink">
<g id="graph0" class="graph" transform="scale(1 1) rotate(0) translate(4 432)">
<title>org.kde.necessitas.origo.QtApplication</title>
<polygon fill="white" stroke="white" points="-4,5 -4,-432 414,-432 414,5 -4,5"/>
<!-- Node1 -->
<g id="node1" class="node"><title>Node1</title>
<polygon fill="#bfbfbf" stroke="black" points="86.5,-0.5 86.5,-189.5 215.5,-189.5 215.5,-0.5 86.5,-0.5"/>
<text text-anchor="start" x="94.5" y="-177.5" font-family="Helvetica,sans-Serif" font-size="10.00">org.kde.necessitas.origo.</text>
<text text-anchor="middle" x="151" y="-166.5" font-family="Helvetica,sans-Serif" font-size="10.00">QtApplication</text>
<polyline fill="none" stroke="black" points="86.5,-159.5 215.5,-159.5 "/>
<text text-anchor="start" x="94.5" y="-147.5" font-family="Helvetica,sans-Serif" font-size="10.00">+ QtTAG</text>
<text text-anchor="start" x="94.5" y="-136.5" font-family="Helvetica,sans-Serif" font-size="10.00">+ m_delegateObject</text>
<text text-anchor="start" x="94.5" y="-125.5" font-family="Helvetica,sans-Serif" font-size="10.00">+ dispatchKeyEvent</text>
<text text-anchor="start" x="94.5" y="-114.5" font-family="Helvetica,sans-Serif" font-size="10.00">+ onKeyDown</text>
<text text-anchor="start" x="94.5" y="-103.5" font-family="Helvetica,sans-Serif" font-size="10.00">+ onTouchEvent</text>
<text text-anchor="start" x="94.5" y="-92.5" font-family="Helvetica,sans-Serif" font-size="10.00">+ onTrackballEvent</text>
<text text-anchor="start" x="94.5" y="-81.5" font-family="Helvetica,sans-Serif" font-size="10.00">+ onActivityResult</text>
<text text-anchor="start" x="94.5" y="-70.5" font-family="Helvetica,sans-Serif" font-size="10.00">+ onCreate</text>
<text text-anchor="start" x="94.5" y="-59.5" font-family="Helvetica,sans-Serif" font-size="10.00">&#45; stackDeep</text>
<polyline fill="none" stroke="black" points="86.5,-52.5 215.5,-52.5 "/>
<text text-anchor="start" x="94.5" y="-40.5" font-family="Helvetica,sans-Serif" font-size="10.00">+ onTerminate()</text>
<text text-anchor="start" x="94.5" y="-29.5" font-family="Helvetica,sans-Serif" font-size="10.00">+ setQtActivityDelegate()</text>
<text text-anchor="start" x="94.5" y="-18.5" font-family="Helvetica,sans-Serif" font-size="10.00">+ invokeDelegate()</text>
<text text-anchor="start" x="94.5" y="-7.5" font-family="Helvetica,sans-Serif" font-size="10.00">+ invokeDelegateMethod()</text>
</g>
<!-- Node2 -->
<g id="node2" class="node"><title>Node2</title>
<polygon fill="white" stroke="#bfbfbf" points="-0.5,-364.5 -0.5,-421.5 64.5,-421.5 64.5,-364.5 -0.5,-364.5"/>
<text text-anchor="middle" x="32" y="-409.5" font-family="Helvetica,sans-Serif" font-size="10.00">Application</text>
<polyline fill="none" stroke="#bfbfbf" points="-0.5,-402.5 64.5,-402.5 "/>
<text text-anchor="middle" x="32" y="-390.5" font-family="Helvetica,sans-Serif" font-size="10.00"> </text>
<polyline fill="none" stroke="#bfbfbf" points="-0.5,-383.5 64.5,-383.5 "/>
<text text-anchor="middle" x="32" y="-371.5" font-family="Helvetica,sans-Serif" font-size="10.00"> </text>
</g>
<!-- Node2&#45;&gt;Node1 -->
<g id="edge1" class="edge"><title>Node2&#45;&gt;Node1</title>
<path fill="none" stroke="midnightblue" d="M46.8532,-355.054C63.4112,-313.868 90.8254,-245.678 113.372,-189.596"/>
<polygon fill="none" stroke="midnightblue" points="43.5712,-353.835 43.0884,-364.419 50.0659,-356.446 43.5712,-353.835"/>
</g>
<!-- Node3 -->
<g id="node3" class="node"><title>Node3</title>
<polygon fill="white" stroke="#bfbfbf" points="82.5,-359 82.5,-427 219.5,-427 219.5,-359 82.5,-359"/>
<text text-anchor="start" x="90.5" y="-415" font-family="Helvetica,sans-Serif" font-size="10.00">HashMap&lt; String, ArrayList</text>
<text text-anchor="middle" x="151" y="-404" font-family="Helvetica,sans-Serif" font-size="10.00">&lt; Method &gt; &gt;</text>
<polyline fill="none" stroke="#bfbfbf" points="82.5,-397 219.5,-397 "/>
<text text-anchor="middle" x="151" y="-385" font-family="Helvetica,sans-Serif" font-size="10.00"> </text>
<polyline fill="none" stroke="#bfbfbf" points="82.5,-378 219.5,-378 "/>
<text text-anchor="middle" x="151" y="-366" font-family="Helvetica,sans-Serif" font-size="10.00"> </text>
</g>
<!-- Node3&#45;&gt;Node1 -->
<g id="edge2" class="edge"><title>Node3&#45;&gt;Node1</title>
<path fill="none" stroke="#404040" d="M151,-358.907C151,-321.029 151,-257.078 151,-201.733"/>
<polygon fill="none" stroke="#404040" points="151,-201.703 147,-195.704 151,-189.703 155,-195.703 151,-201.703"/>
<text text-anchor="middle" x="199.5" y="-271.5" font-family="Helvetica,sans-Serif" font-size="10.00"> +m_delegateMethods</text>
</g>
<!-- Node4 -->
<g id="node4" class="node"><title>Node4</title>
<polygon fill="white" stroke="#bfbfbf" points="246.5,-364.5 246.5,-421.5 295.5,-421.5 295.5,-364.5 246.5,-364.5"/>
<text text-anchor="middle" x="271" y="-409.5" font-family="Helvetica,sans-Serif" font-size="10.00">Method</text>
<polyline fill="none" stroke="#bfbfbf" points="246.5,-402.5 295.5,-402.5 "/>
<text text-anchor="middle" x="271" y="-390.5" font-family="Helvetica,sans-Serif" font-size="10.00"> </text>
<polyline fill="none" stroke="#bfbfbf" points="246.5,-383.5 295.5,-383.5 "/>
<text text-anchor="middle" x="271" y="-371.5" font-family="Helvetica,sans-Serif" font-size="10.00"> </text>
</g>
<!-- Node4&#45;&gt;Node1 -->
<g id="edge3" class="edge"><title>Node4&#45;&gt;Node1</title>
<path fill="none" stroke="#404040" d="M272.645,-364.478C273.794,-327.298 272.032,-259.727 249,-208 242.509,-193.423 233.447,-179.361 223.432,-166.414"/>
<polygon fill="none" stroke="#404040" points="223.156,-166.074 216.274,-163.922 215.614,-156.741 222.496,-158.893 223.156,-166.074"/>
<text text-anchor="middle" x="340.5" y="-332" font-family="Helvetica,sans-Serif" font-size="10.00"> +onKeyLongPress</text>
<text text-anchor="middle" x="340.5" y="-321" font-family="Helvetica,sans-Serif" font-size="10.00">+dispatchTrackballEvent</text>
<text text-anchor="middle" x="340.5" y="-310" font-family="Helvetica,sans-Serif" font-size="10.00">+dispatchTouchEvent</text>
<text text-anchor="middle" x="340.5" y="-299" font-family="Helvetica,sans-Serif" font-size="10.00">+onGenericMotionEvent</text>
<text text-anchor="start" x="272" y="-288" font-family="Helvetica,sans-Serif" font-size="10.00">+dispatchPopulateAccessibility</text>
<text text-anchor="middle" x="340.5" y="-277" font-family="Helvetica,sans-Serif" font-size="10.00">Event</text>
<text text-anchor="middle" x="340.5" y="-266" font-family="Helvetica,sans-Serif" font-size="10.00">+dispatchKeyShortcutEvent</text>
<text text-anchor="middle" x="340.5" y="-255" font-family="Helvetica,sans-Serif" font-size="10.00">+onKeyUp</text>
<text text-anchor="middle" x="340.5" y="-244" font-family="Helvetica,sans-Serif" font-size="10.00">+onKeyMultiple</text>
<text text-anchor="middle" x="340.5" y="-233" font-family="Helvetica,sans-Serif" font-size="10.00">+dispatchGenericMotionEvent</text>
<text text-anchor="middle" x="340.5" y="-222" font-family="Helvetica,sans-Serif" font-size="10.00">+onKeyShortcut</text>
<text text-anchor="middle" x="340.5" y="-211" font-family="Helvetica,sans-Serif" font-size="10.00">...</text>
</g>
</g>
</svg>
