<?xml version="1.0" encoding="UTF-8" standalone="no"?>
<!DOCTYPE svg PUBLIC "-//W3C//DTD SVG 1.1//EN"
 "http://www.w3.org/Graphics/SVG/1.1/DTD/svg11.dtd">
<!-- Generated by graphviz version 2.30.1 (20130303.0817)
 -->
<!-- Title: C++/customIrcClient/desktop/clsuserlist.h Pages: 1 -->
<!--zoomable 264 -->
<svg id="main" version="1.1" xmlns="http://www.w3.org/2000/svg" xmlns:xlink="http://www.w3.org/1999/xlink" xml:space="preserve" onload="init(evt)">
        <defs>
                <circle id="rim" cx="0" cy="0" r="7"/>
                <circle id="rim2" cx="0" cy="0" r="3.5"/>
                <g id="zoomPlus">
                        <use xlink:href="#rim" fill="#404040">
                                <set attributeName="fill" to="#808080" begin="zoomplus.mouseover" end="zoomplus.mouseout"/>
                        </use>
                        <path d="M-4,0h8M0,-4v8" fill="none" stroke="white" stroke-width="1.5" pointer-events="none"/>
                </g>
                <g id="zoomMin">
                        <use xlink:href="#rim" fill="#404040">
                                <set attributeName="fill" to="#808080" begin="zoomminus.mouseover" end="zoomminus.mouseout"/>
                        </use>
                        <path d="M-4,0h8" fill="none" stroke="white" stroke-width="1.5" pointer-events="none"/>
                </g>
                <g id="dirArrow">
                        <path fill="none" stroke="white" stroke-width="1.5" d="M0,-3.0v7 M-2.5,-0.5L0,-3.0L2.5,-0.5"/>
                </g>
               <g id="resetDef">
                       <use xlink:href="#rim2" fill="#404040">
                               <set attributeName="fill" to="#808080" begin="reset.mouseover" end="reset.mouseout"/>
                       </use>
               </g>
        </defs>

<script type="text/javascript">
var viewWidth = 979;
var viewHeight = 264;
var sectionId = 'dynsection-0';
</script>
<script xlink:href="../../svgpan.js"/>
<svg id="graph" class="graph">
<g id="viewport">
<title>C++/customIrcClient/desktop/clsuserlist.h</title>
<polygon fill="white" stroke="white" points="-4,5 -4,-260 975.523,-260 975.523,5 -4,5"/>
<!-- Node1 -->
<g id="node1" class="node"><title>Node1</title>
<polygon fill="#bfbfbf" stroke="black" points="133.523,-225 133.523,-255 243.523,-255 243.523,-225 133.523,-225"/>
<text text-anchor="start" x="141.523" y="-243" font-family="Helvetica,sans-Serif" font-size="10.00">C++/customIrcClient</text>
<text text-anchor="middle" x="188.523" y="-232" font-family="Helvetica,sans-Serif" font-size="10.00">/desktop/clsuserlist.h</text>
</g>
<!-- Node2 -->
<g id="node2" class="node"><title>Node2</title>
<polygon fill="white" stroke="#bfbfbf" points="85.0231,-112.5 85.0231,-131.5 140.023,-131.5 140.023,-112.5 85.0231,-112.5"/>
<text text-anchor="middle" x="112.523" y="-119.5" font-family="Helvetica,sans-Serif" font-size="10.00">QWidget</text>
</g>
<!-- Node1&#45;&gt;Node2 -->
<g id="edge1" class="edge"><title>Node1&#45;&gt;Node2</title>
<path fill="none" stroke="midnightblue" d="M133.227,-231.033C85.2198,-222.851 21.0318,-208.422 5.52311,-188 -16.4389,-159.081 35.8372,-140.224 74.8069,-130.612"/>
<polygon fill="midnightblue" stroke="midnightblue" points="75.9335,-133.943 84.8729,-128.257 74.3384,-127.128 75.9335,-133.943"/>
</g>
<!-- Node3 -->
<g id="node3" class="node"><title>Node3</title>
<polygon fill="white" stroke="#bfbfbf" points="15.0231,-168.5 15.0231,-187.5 92.0231,-187.5 92.0231,-168.5 15.0231,-168.5"/>
<text text-anchor="middle" x="53.5231" y="-175.5" font-family="Helvetica,sans-Serif" font-size="10.00">QVBoxLayout</text>
</g>
<!-- Node1&#45;&gt;Node3 -->
<g id="edge2" class="edge"><title>Node1&#45;&gt;Node3</title>
<path fill="none" stroke="midnightblue" d="M156.872,-224.933C134.299,-214.9 104.191,-201.519 82.2978,-191.789"/>
<polygon fill="midnightblue" stroke="midnightblue" points="83.4328,-188.463 72.8732,-187.6 80.5898,-194.86 83.4328,-188.463"/>
</g>
<!-- Node4 -->
<g id="node4" class="node"><title>Node4</title>
<polygon fill="white" stroke="#bfbfbf" points="110.523,-168.5 110.523,-187.5 184.523,-187.5 184.523,-168.5 110.523,-168.5"/>
<text text-anchor="middle" x="147.523" y="-175.5" font-family="Helvetica,sans-Serif" font-size="10.00">QSpacerItem</text>
</g>
<!-- Node1&#45;&gt;Node4 -->
<g id="edge3" class="edge"><title>Node1&#45;&gt;Node4</title>
<path fill="none" stroke="midnightblue" d="M178.807,-224.781C172.91,-216.152 165.35,-205.088 159.139,-195.999"/>
<polygon fill="midnightblue" stroke="midnightblue" points="162.021,-194.012 153.489,-187.731 156.241,-197.962 162.021,-194.012"/>
</g>
<!-- Node5 -->
<g id="node5" class="node"><title>Node5</title>
<polygon fill="white" stroke="#bfbfbf" points="203.023,-168.5 203.023,-187.5 256.023,-187.5 256.023,-168.5 203.023,-168.5"/>
<text text-anchor="middle" x="229.523" y="-175.5" font-family="Helvetica,sans-Serif" font-size="10.00">QVector</text>
</g>
<!-- Node1&#45;&gt;Node5 -->
<g id="edge4" class="edge"><title>Node1&#45;&gt;Node5</title>
<path fill="none" stroke="midnightblue" d="M198.24,-224.781C204.136,-216.152 211.696,-205.088 217.907,-195.999"/>
<polygon fill="midnightblue" stroke="midnightblue" points="220.805,-197.962 223.557,-187.731 215.026,-194.012 220.805,-197.962"/>
</g>
<!-- Node6 -->
<g id="node6" class="node"><title>Node6</title>
<g id="a_node6"><a xlink:href="../../dc/da0/clsuserentry_8h.html" target="_top" xlink:title="clsuserentry.h">
<polygon fill="white" stroke="black" points="274.523,-168.5 274.523,-187.5 352.523,-187.5 352.523,-168.5 274.523,-168.5"/>
<text text-anchor="middle" x="313.523" y="-175.5" font-family="Helvetica,sans-Serif" font-size="10.00">clsuserentry.h</text>
</a>
</g>
</g>
<!-- Node1&#45;&gt;Node6 -->
<g id="edge5" class="edge"><title>Node1&#45;&gt;Node6</title>
<path fill="none" stroke="midnightblue" d="M217.83,-224.933C238.542,-214.991 266.106,-201.76 286.33,-192.053"/>
<polygon fill="midnightblue" stroke="midnightblue" points="288.106,-195.083 295.606,-187.6 285.077,-188.772 288.106,-195.083"/>
</g>
<!-- Node8 -->
<g id="node8" class="node"><title>Node8</title>
<g id="a_node8"><a xlink:href="../../d5/d98/custom_irc_client_2ircuser_8h.html" target="_top" xlink:title="../ircuser.h">
<polygon fill="white" stroke="black" points="349.023,-112.5 349.023,-131.5 412.023,-131.5 412.023,-112.5 349.023,-112.5"/>
<text text-anchor="middle" x="380.523" y="-119.5" font-family="Helvetica,sans-Serif" font-size="10.00">../ircuser.h</text>
</a>
</g>
</g>
<!-- Node1&#45;&gt;Node8 -->
<g id="edge22" class="edge"><title>Node1&#45;&gt;Node8</title>
<path fill="none" stroke="midnightblue" d="M243.823,-236.191C281.724,-231.377 330.561,-219.033 361.523,-188 373.579,-175.916 378.072,-156.632 379.702,-142.201"/>
<polygon fill="midnightblue" stroke="midnightblue" points="383.217,-142.135 380.486,-131.899 376.237,-141.604 383.217,-142.135"/>
</g>
<!-- Node6&#45;&gt;Node2 -->
<g id="edge6" class="edge"><title>Node6&#45;&gt;Node2</title>
<path fill="none" stroke="midnightblue" d="M281.674,-168.444C245.956,-158.848 188.078,-143.298 150.156,-133.11"/>
<polygon fill="midnightblue" stroke="midnightblue" points="150.59,-129.603 140.024,-130.388 148.774,-136.363 150.59,-129.603"/>
</g>
<!-- Node7 -->
<g id="node7" class="node"><title>Node7</title>
<polygon fill="white" stroke="#bfbfbf" points="284.023,-112.5 284.023,-131.5 331.023,-131.5 331.023,-112.5 284.023,-112.5"/>
<text text-anchor="middle" x="307.523" y="-119.5" font-family="Helvetica,sans-Serif" font-size="10.00">QLabel</text>
</g>
<!-- Node6&#45;&gt;Node7 -->
<g id="edge7" class="edge"><title>Node6&#45;&gt;Node7</title>
<path fill="none" stroke="midnightblue" d="M312.532,-168.083C311.737,-160.927 310.594,-150.635 309.6,-141.691"/>
<polygon fill="midnightblue" stroke="midnightblue" points="313.078,-141.303 308.495,-131.751 306.121,-142.076 313.078,-141.303"/>
</g>
<!-- Node6&#45;&gt;Node8 -->
<g id="edge8" class="edge"><title>Node6&#45;&gt;Node8</title>
<path fill="none" stroke="midnightblue" d="M324.288,-168.324C334.289,-160.263 349.41,-148.077 361.454,-138.369"/>
<polygon fill="midnightblue" stroke="midnightblue" points="363.973,-140.834 369.563,-131.834 359.58,-135.384 363.973,-140.834"/>
</g>
<!-- Node9 -->
<g id="node9" class="node"><title>Node9</title>
<polygon fill="white" stroke="#bfbfbf" points="70.0231,-56.5 70.0231,-75.5 123.023,-75.5 123.023,-56.5 70.0231,-56.5"/>
<text text-anchor="middle" x="96.5231" y="-63.5" font-family="Helvetica,sans-Serif" font-size="10.00">QObject</text>
</g>
<!-- Node8&#45;&gt;Node9 -->
<g id="edge9" class="edge"><title>Node8&#45;&gt;Node9</title>
<path fill="none" stroke="midnightblue" d="M348.768,-113.885C345.648,-113.229 342.526,-112.59 339.523,-112 251.028,-94.6006 225.601,-95.2671 133.269,-76.0211"/>
<polygon fill="midnightblue" stroke="midnightblue" points="133.716,-72.5385 123.209,-73.9012 132.273,-79.388 133.716,-72.5385"/>
</g>
<!-- Node10 -->
<g id="node10" class="node"><title>Node10</title>
<polygon fill="white" stroke="#bfbfbf" points="141.523,-56.5 141.523,-75.5 191.523,-75.5 191.523,-56.5 141.523,-56.5"/>
<text text-anchor="middle" x="166.523" y="-63.5" font-family="Helvetica,sans-Serif" font-size="10.00">QString</text>
</g>
<!-- Node8&#45;&gt;Node10 -->
<g id="edge10" class="edge"><title>Node8&#45;&gt;Node10</title>
<path fill="none" stroke="midnightblue" d="M348.95,-113.246C314.949,-104.866 259.009,-90.9902 201.717,-76.2828"/>
<polygon fill="midnightblue" stroke="midnightblue" points="202.321,-72.8242 191.764,-73.7228 200.577,-79.6036 202.321,-72.8242"/>
</g>
<!-- Node11 -->
<g id="node11" class="node"><title>Node11</title>
<polygon fill="white" stroke="#bfbfbf" points="210.023,-56.5 210.023,-75.5 257.023,-75.5 257.023,-56.5 210.023,-56.5"/>
<text text-anchor="middle" x="233.523" y="-63.5" font-family="Helvetica,sans-Serif" font-size="10.00">QColor</text>
</g>
<!-- Node8&#45;&gt;Node11 -->
<g id="edge11" class="edge"><title>Node8&#45;&gt;Node11</title>
<path fill="none" stroke="midnightblue" d="M357.231,-112.444C332.716,-103.438 293.927,-89.1891 266.323,-79.049"/>
<polygon fill="midnightblue" stroke="midnightblue" points="267.3,-75.6793 256.707,-75.5164 264.887,-82.25 267.3,-75.6793"/>
</g>
<!-- Node12 -->
<g id="node12" class="node"><title>Node12</title>
<polygon fill="white" stroke="#bfbfbf" points="275.523,-56.5 275.523,-75.5 359.523,-75.5 359.523,-56.5 275.523,-56.5"/>
<text text-anchor="middle" x="317.523" y="-63.5" font-family="Helvetica,sans-Serif" font-size="10.00">QGraphicsView</text>
</g>
<!-- Node8&#45;&gt;Node12 -->
<g id="edge12" class="edge"><title>Node8&#45;&gt;Node12</title>
<path fill="none" stroke="midnightblue" d="M370.401,-112.324C360.997,-104.263 346.779,-92.0765 335.454,-82.3695"/>
<polygon fill="midnightblue" stroke="midnightblue" points="337.7,-79.6844 327.829,-75.8339 333.144,-84.9993 337.7,-79.6844"/>
</g>
<!-- Node13 -->
<g id="node13" class="node"><title>Node13</title>
<polygon fill="white" stroke="#bfbfbf" points="377.523,-56.5 377.523,-75.5 507.523,-75.5 507.523,-56.5 377.523,-56.5"/>
<text text-anchor="middle" x="442.523" y="-63.5" font-family="Helvetica,sans-Serif" font-size="10.00">QNetworkAccessManager</text>
</g>
<!-- Node8&#45;&gt;Node13 -->
<g id="edge13" class="edge"><title>Node8&#45;&gt;Node13</title>
<path fill="none" stroke="midnightblue" d="M390.484,-112.324C399.65,-104.341 413.46,-92.3128 424.551,-82.6529"/>
<polygon fill="midnightblue" stroke="midnightblue" points="427.138,-85.041 432.38,-75.8339 422.541,-79.7624 427.138,-85.041"/>
</g>
<!-- Node14 -->
<g id="node14" class="node"><title>Node14</title>
<polygon fill="white" stroke="#bfbfbf" points="526.023,-56.5 526.023,-75.5 621.023,-75.5 621.023,-56.5 526.023,-56.5"/>
<text text-anchor="middle" x="573.523" y="-63.5" font-family="Helvetica,sans-Serif" font-size="10.00">QNetworkRequest</text>
</g>
<!-- Node8&#45;&gt;Node14 -->
<g id="edge14" class="edge"><title>Node8&#45;&gt;Node14</title>
<path fill="none" stroke="midnightblue" d="M411.105,-112.444C444.138,-103.201 496.911,-88.4356 533.289,-78.2572"/>
<polygon fill="midnightblue" stroke="midnightblue" points="534.398,-81.5815 543.085,-75.5164 532.512,-74.8404 534.398,-81.5815"/>
</g>
<!-- Node15 -->
<g id="node15" class="node"><title>Node15</title>
<polygon fill="white" stroke="#bfbfbf" points="639.523,-56.5 639.523,-75.5 723.523,-75.5 723.523,-56.5 639.523,-56.5"/>
<text text-anchor="middle" x="681.523" y="-63.5" font-family="Helvetica,sans-Serif" font-size="10.00">QNetworkReply</text>
</g>
<!-- Node8&#45;&gt;Node15 -->
<g id="edge15" class="edge"><title>Node8&#45;&gt;Node15</title>
<path fill="none" stroke="midnightblue" d="M412.166,-115.323C463.782,-106.063 566.606,-87.6164 629.21,-76.3852"/>
<polygon fill="midnightblue" stroke="midnightblue" points="630.05,-79.7903 639.275,-74.5793 628.814,-72.9003 630.05,-79.7903"/>
</g>
<!-- Node16 -->
<g id="node16" class="node"><title>Node16</title>
<g id="a_node16"><a xlink:href="../../d7/d62/clslog_8h.html" target="_top" xlink:title="../resources/clslog.h">
<polygon fill="white" stroke="black" points="742.023,-56.5 742.023,-75.5 847.023,-75.5 847.023,-56.5 742.023,-56.5"/>
<text text-anchor="middle" x="794.523" y="-63.5" font-family="Helvetica,sans-Serif" font-size="10.00">../resources/clslog.h</text>
</a>
</g>
</g>
<!-- Node8&#45;&gt;Node16 -->
<g id="edge16" class="edge"><title>Node8&#45;&gt;Node16</title>
<path fill="none" stroke="midnightblue" d="M412.485,-117.059C474.193,-109.414 614.025,-91.9238 731.523,-76 731.629,-75.9856 731.735,-75.9712 731.842,-75.9568"/>
<polygon fill="midnightblue" stroke="midnightblue" points="732.506,-79.3986 741.936,-74.5701 731.553,-72.4637 732.506,-79.3986"/>
</g>
<!-- Node17 -->
<g id="node17" class="node"><title>Node17</title>
<polygon fill="white" stroke="#bfbfbf" points="620.523,-0.5 620.523,-19.5 672.523,-19.5 672.523,-0.5 620.523,-0.5"/>
<text text-anchor="middle" x="646.523" y="-7.5" font-family="Helvetica,sans-Serif" font-size="10.00">QDebug</text>
</g>
<!-- Node16&#45;&gt;Node17 -->
<g id="edge17" class="edge"><title>Node16&#45;&gt;Node17</title>
<path fill="none" stroke="midnightblue" d="M771.072,-56.4435C746.39,-47.4381 707.338,-33.1891 679.546,-23.049"/>
<polygon fill="midnightblue" stroke="midnightblue" points="680.458,-19.6561 669.864,-19.5164 678.059,-26.2321 680.458,-19.6561"/>
</g>
<!-- Node18 -->
<g id="node18" class="node"><title>Node18</title>
<polygon fill="white" stroke="#bfbfbf" points="691.023,-0.5 691.023,-19.5 756.023,-19.5 756.023,-0.5 691.023,-0.5"/>
<text text-anchor="middle" x="723.523" y="-7.5" font-family="Helvetica,sans-Serif" font-size="10.00">QDateTime</text>
</g>
<!-- Node16&#45;&gt;Node18 -->
<g id="edge18" class="edge"><title>Node16&#45;&gt;Node18</title>
<path fill="none" stroke="midnightblue" d="M783.116,-56.324C772.414,-48.1849 756.182,-35.8395 743.36,-26.0874"/>
<polygon fill="midnightblue" stroke="midnightblue" points="745.216,-23.1018 735.138,-19.8339 740.979,-28.6734 745.216,-23.1018"/>
</g>
<!-- Node19 -->
<g id="node19" class="node"><title>Node19</title>
<polygon fill="white" stroke="#bfbfbf" points="774.023,-0.5 774.023,-19.5 815.023,-19.5 815.023,-0.5 774.023,-0.5"/>
<text text-anchor="middle" x="794.523" y="-7.5" font-family="Helvetica,sans-Serif" font-size="10.00">string</text>
</g>
<!-- Node16&#45;&gt;Node19 -->
<g id="edge19" class="edge"><title>Node16&#45;&gt;Node19</title>
<path fill="none" stroke="midnightblue" d="M794.523,-56.083C794.523,-49.0059 794.523,-38.8611 794.523,-29.9865"/>
<polygon fill="midnightblue" stroke="midnightblue" points="798.023,-29.751 794.523,-19.7511 791.023,-29.7511 798.023,-29.751"/>
</g>
<!-- Node20 -->
<g id="node20" class="node"><title>Node20</title>
<polygon fill="white" stroke="#bfbfbf" points="833.523,-0.5 833.523,-19.5 887.523,-19.5 887.523,-0.5 833.523,-0.5"/>
<text text-anchor="middle" x="860.523" y="-7.5" font-family="Helvetica,sans-Serif" font-size="10.00">iostream</text>
</g>
<!-- Node16&#45;&gt;Node20 -->
<g id="edge20" class="edge"><title>Node16&#45;&gt;Node20</title>
<path fill="none" stroke="midnightblue" d="M805.127,-56.324C814.979,-48.2631 829.874,-36.0765 841.738,-26.3695"/>
<polygon fill="midnightblue" stroke="midnightblue" points="844.203,-28.8752 849.726,-19.8339 839.77,-23.4575 844.203,-28.8752"/>
</g>
<!-- Node21 -->
<g id="node21" class="node"><title>Node21</title>
<polygon fill="white" stroke="#bfbfbf" points="906.023,-0.5 906.023,-19.5 971.023,-19.5 971.023,-0.5 906.023,-0.5"/>
<text text-anchor="middle" x="938.523" y="-7.5" font-family="Helvetica,sans-Serif" font-size="10.00">QStringList</text>
</g>
<!-- Node16&#45;&gt;Node21 -->
<g id="edge21" class="edge"><title>Node16&#45;&gt;Node21</title>
<path fill="none" stroke="midnightblue" d="M817.34,-56.4435C841.355,-47.4381 879.352,-33.1891 906.392,-23.049"/>
<polygon fill="midnightblue" stroke="midnightblue" points="907.678,-26.3049 915.813,-19.5164 905.22,-19.7506 907.678,-26.3049"/>
</g>
</g>
</svg>
        <g id="navigator" transform="translate(0 0)" fill="#404254">
                <rect fill="#f2f5e9" fill-opacity="0.5" stroke="#606060" stroke-width=".5" x="0" y="0" width="60" height="60"/>
                <use id="zoomplus" xlink:href="#zoomPlus" x="17" y="9" onmousedown="handleZoom(evt,'in')"/>
                <use id="zoomminus" xlink:href="#zoomMin" x="42" y="9" onmousedown="handleZoom(evt,'out')"/>
                <use id="reset" xlink:href="#resetDef" x="30" y="36" onmousedown="handleReset()"/>
                <g id="arrowUp" xlink:href="#dirArrow" transform="translate(30 24)" onmousedown="handlePan(0,-1)">
                  <use xlink:href="#rim" fill="#404040">
                        <set attributeName="fill" to="#808080" begin="arrowUp.mouseover" end="arrowUp.mouseout"/>
                  </use>
                  <path fill="none" stroke="white" stroke-width="1.5" d="M0,-3.0v7 M-2.5,-0.5L0,-3.0L2.5,-0.5"/>
                </g>
                <g id="arrowRight" xlink:href="#dirArrow" transform="rotate(90) translate(36 -43)" onmousedown="handlePan(1,0)">
                  <use xlink:href="#rim" fill="#404040">
                        <set attributeName="fill" to="#808080" begin="arrowRight.mouseover" end="arrowRight.mouseout"/>
                  </use>
                  <path fill="none" stroke="white" stroke-width="1.5" d="M0,-3.0v7 M-2.5,-0.5L0,-3.0L2.5,-0.5"/>
                </g>
                <g id="arrowDown" xlink:href="#dirArrow" transform="rotate(180) translate(-30 -48)" onmousedown="handlePan(0,1)">
                  <use xlink:href="#rim" fill="#404040">
                        <set attributeName="fill" to="#808080" begin="arrowDown.mouseover" end="arrowDown.mouseout"/>
                  </use>
                  <path fill="none" stroke="white" stroke-width="1.5" d="M0,-3.0v7 M-2.5,-0.5L0,-3.0L2.5,-0.5"/>
                </g>
                <g id="arrowLeft" xlink:href="#dirArrow" transform="rotate(270) translate(-36 17)" onmousedown="handlePan(-1,0)">
                  <use xlink:href="#rim" fill="#404040">
                        <set attributeName="fill" to="#808080" begin="arrowLeft.mouseover" end="arrowLeft.mouseout"/>
                  </use>
                  <path fill="none" stroke="white" stroke-width="1.5" d="M0,-3.0v7 M-2.5,-0.5L0,-3.0L2.5,-0.5"/>
                </g>
        </g>
        <svg viewBox="0 0 15 15" width="100%" height="30px" preserveAspectRatio="xMaxYMin meet">
         <g id="arrow_out" transform="scale(0.3 0.3)">
          <a xlink:href="clsuserlist_8h__incl_org.svg" target="_base">
           <rect id="button" ry="5" rx="5" y="6" x="6" height="38" width="38"
                fill="#f2f5e9" fill-opacity="0.5" stroke="#606060" stroke-width="1.0"/>
           <path id="arrow"
             d="M 11.500037,31.436501 C 11.940474,20.09759 22.043105,11.32322 32.158766,21.979434 L 37.068811,17.246167 C 37.068811,17.246167 37.088388,32 37.088388,32 L 22.160133,31.978069 C 22.160133,31.978069 26.997745,27.140456 26.997745,27.140456 C 18.528582,18.264221 13.291696,25.230495 11.500037,31.436501 z"
             style="fill:#404040;"/>
          </a>
         </g>
        </svg>
</svg>
