<?xml version="1.0" encoding="UTF-8" standalone="no"?>
<!DOCTYPE svg PUBLIC "-//W3C//DTD SVG 1.1//EN"
 "http://www.w3.org/Graphics/SVG/1.1/DTD/svg11.dtd">
<!-- Generated by graphviz version 2.30.1 (20130303.0817)
 -->
<!-- Title: C++/customIrcClient/chatinput.h Pages: 1 -->
<svg width="112pt" height="108pt"
 viewBox="0.00 0.00 112.00 108.00" xmlns="http://www.w3.org/2000/svg" xmlns:xlink="http://www.w3.org/1999/xlink">
<g id="graph0" class="graph" transform="scale(1 1) rotate(0) translate(4 104)">
<title>C++/customIrcClient/chatinput.h</title>
<polygon fill="white" stroke="white" points="-4,5 -4,-104 109,-104 109,5 -4,5"/>
<!-- Node1 -->
<g id="node1" class="node"><title>Node1</title>
<polygon fill="#bfbfbf" stroke="black" points="-1,-69 -1,-99 105,-99 105,-69 -1,-69"/>
<text text-anchor="start" x="7" y="-87" font-family="Helvetica,sans-Serif" font-size="10.00">C++/customIrcClient</text>
<text text-anchor="middle" x="52" y="-76" font-family="Helvetica,sans-Serif" font-size="10.00">/chatinput.h</text>
</g>
<!-- Node2 -->
<g id="node2" class="node"><title>Node2</title>
<g id="a_node2"><a xlink:href="../../d4/df8/chatinput_8cpp.xhtml" target="_top" xlink:title="C++/customIrcClient\l/chatinput.cpp">
<polygon fill="white" stroke="black" points="-1,-1 -1,-31 105,-31 105,-1 -1,-1"/>
<text text-anchor="start" x="7" y="-19" font-family="Helvetica,sans-Serif" font-size="10.00">C++/customIrcClient</text>
<text text-anchor="middle" x="52" y="-8" font-family="Helvetica,sans-Serif" font-size="10.00">/chatinput.cpp</text>
</a>
</g>
</g>
<!-- Node1&#45;&gt;Node2 -->
<g id="edge1" class="edge"><title>Node1&#45;&gt;Node2</title>
<path fill="none" stroke="midnightblue" d="M52,-58.5322C52,-49.3606 52,-39.2449 52,-31.2931"/>
<polygon fill="midnightblue" stroke="midnightblue" points="48.5001,-58.6789 52,-68.679 55.5001,-58.679 48.5001,-58.6789"/>
</g>
</g>
</svg>
