<?xml version="1.0" encoding="UTF-8" standalone="no"?>
<!DOCTYPE svg PUBLIC "-//W3C//DTD SVG 1.1//EN"
 "http://www.w3.org/Graphics/SVG/1.1/DTD/svg11.dtd">
<!-- Generated by graphviz version 2.30.1 (20130303.0817)
 -->
<!-- Title: C++/customIrcClient/desktop/clsuserlist.cpp Pages: 1 -->
<!--zoomable 320 -->
<svg id="main" version="1.1" xmlns="http://www.w3.org/2000/svg" xmlns:xlink="http://www.w3.org/1999/xlink" xml:space="preserve" onload="init(evt)">
        <defs>
                <circle id="rim" cx="0" cy="0" r="7"/>
                <circle id="rim2" cx="0" cy="0" r="3.5"/>
                <g id="zoomPlus">
                        <use xlink:href="#rim" fill="#404040">
                                <set attributeName="fill" to="#808080" begin="zoomplus.mouseover" end="zoomplus.mouseout"/>
                        </use>
                        <path d="M-4,0h8M0,-4v8" fill="none" stroke="white" stroke-width="1.5" pointer-events="none"/>
                </g>
                <g id="zoomMin">
                        <use xlink:href="#rim" fill="#404040">
                                <set attributeName="fill" to="#808080" begin="zoomminus.mouseover" end="zoomminus.mouseout"/>
                        </use>
                        <path d="M-4,0h8" fill="none" stroke="white" stroke-width="1.5" pointer-events="none"/>
                </g>
                <g id="dirArrow">
                        <path fill="none" stroke="white" stroke-width="1.5" d="M0,-3.0v7 M-2.5,-0.5L0,-3.0L2.5,-0.5"/>
                </g>
               <g id="resetDef">
                       <use xlink:href="#rim2" fill="#404040">
                               <set attributeName="fill" to="#808080" begin="reset.mouseover" end="reset.mouseout"/>
                       </use>
               </g>
        </defs>

<script type="text/javascript">
var viewWidth = 979;
var viewHeight = 320;
var sectionId = 'dynsection-0';
</script>
<script xlink:href="../../svgpan.js"/>
<svg id="graph" class="graph">
<g id="viewport">
<title>C++/customIrcClient/desktop/clsuserlist.cpp</title>
<polygon fill="white" stroke="white" points="-4,5 -4,-316 975.702,-316 975.702,5 -4,5"/>
<!-- Node1 -->
<g id="node1" class="node"><title>Node1</title>
<polygon fill="#bfbfbf" stroke="black" points="128.702,-281 128.702,-311 248.702,-311 248.702,-281 128.702,-281"/>
<text text-anchor="start" x="136.702" y="-299" font-family="Helvetica,sans-Serif" font-size="10.00">C++/customIrcClient</text>
<text text-anchor="middle" x="188.702" y="-288" font-family="Helvetica,sans-Serif" font-size="10.00">/desktop/clsuserlist.cpp</text>
</g>
<!-- Node2 -->
<g id="node2" class="node"><title>Node2</title>
<g id="a_node2"><a xlink:href="../../da/d60/clsuserlist_8h.xhtml" target="_top" xlink:title="clsuserlist.h">
<polygon fill="white" stroke="black" points="154.202,-224.5 154.202,-243.5 223.202,-243.5 223.202,-224.5 154.202,-224.5"/>
<text text-anchor="middle" x="188.702" y="-231.5" font-family="Helvetica,sans-Serif" font-size="10.00">clsuserlist.h</text>
</a>
</g>
</g>
<!-- Node1&#45;&gt;Node2 -->
<g id="edge1" class="edge"><title>Node1&#45;&gt;Node2</title>
<path fill="none" stroke="midnightblue" d="M188.702,-280.781C188.702,-272.781 188.702,-262.689 188.702,-254.017"/>
<polygon fill="midnightblue" stroke="midnightblue" points="192.202,-253.73 188.702,-243.731 185.202,-253.731 192.202,-253.73"/>
</g>
<!-- Node3 -->
<g id="node3" class="node"><title>Node3</title>
<polygon fill="white" stroke="#bfbfbf" points="85.202,-112.5 85.202,-131.5 140.202,-131.5 140.202,-112.5 85.202,-112.5"/>
<text text-anchor="middle" x="112.702" y="-119.5" font-family="Helvetica,sans-Serif" font-size="10.00">QWidget</text>
</g>
<!-- Node2&#45;&gt;Node3 -->
<g id="edge2" class="edge"><title>Node2&#45;&gt;Node3</title>
<path fill="none" stroke="midnightblue" d="M153.897,-229.49C106.039,-223.864 23.767,-211.045 5.70195,-188 -16.7486,-159.36 35.9331,-140.379 75.0756,-130.674"/>
<polygon fill="midnightblue" stroke="midnightblue" points="76.0016,-134.051 84.9313,-128.35 74.3949,-127.238 76.0016,-134.051"/>
</g>
<!-- Node4 -->
<g id="node4" class="node"><title>Node4</title>
<polygon fill="white" stroke="#bfbfbf" points="15.202,-168.5 15.202,-187.5 92.202,-187.5 92.202,-168.5 15.202,-168.5"/>
<text text-anchor="middle" x="53.702" y="-175.5" font-family="Helvetica,sans-Serif" font-size="10.00">QVBoxLayout</text>
</g>
<!-- Node2&#45;&gt;Node4 -->
<g id="edge3" class="edge"><title>Node2&#45;&gt;Node4</title>
<path fill="none" stroke="midnightblue" d="M167.311,-224.444C144.995,-215.517 109.799,-201.439 84.494,-191.317"/>
<polygon fill="midnightblue" stroke="midnightblue" points="85.5777,-187.981 74.993,-187.516 82.9779,-194.48 85.5777,-187.981"/>
</g>
<!-- Node5 -->
<g id="node5" class="node"><title>Node5</title>
<polygon fill="white" stroke="#bfbfbf" points="110.702,-168.5 110.702,-187.5 184.702,-187.5 184.702,-168.5 110.702,-168.5"/>
<text text-anchor="middle" x="147.702" y="-175.5" font-family="Helvetica,sans-Serif" font-size="10.00">QSpacerItem</text>
</g>
<!-- Node2&#45;&gt;Node5 -->
<g id="edge4" class="edge"><title>Node2&#45;&gt;Node5</title>
<path fill="none" stroke="midnightblue" d="M181.932,-224.083C176.14,-216.455 167.643,-205.264 160.564,-195.941"/>
<polygon fill="midnightblue" stroke="midnightblue" points="163.181,-193.599 154.346,-187.751 157.606,-197.832 163.181,-193.599"/>
</g>
<!-- Node6 -->
<g id="node6" class="node"><title>Node6</title>
<polygon fill="white" stroke="#bfbfbf" points="203.202,-168.5 203.202,-187.5 256.202,-187.5 256.202,-168.5 203.202,-168.5"/>
<text text-anchor="middle" x="229.702" y="-175.5" font-family="Helvetica,sans-Serif" font-size="10.00">QVector</text>
</g>
<!-- Node2&#45;&gt;Node6 -->
<g id="edge5" class="edge"><title>Node2&#45;&gt;Node6</title>
<path fill="none" stroke="midnightblue" d="M195.472,-224.083C201.264,-216.455 209.76,-205.264 216.839,-195.941"/>
<polygon fill="midnightblue" stroke="midnightblue" points="219.798,-197.832 223.058,-187.751 214.223,-193.599 219.798,-197.832"/>
</g>
<!-- Node7 -->
<g id="node7" class="node"><title>Node7</title>
<g id="a_node7"><a xlink:href="../../dc/da0/clsuserentry_8h.xhtml" target="_top" xlink:title="clsuserentry.h">
<polygon fill="white" stroke="black" points="274.702,-168.5 274.702,-187.5 352.702,-187.5 352.702,-168.5 274.702,-168.5"/>
<text text-anchor="middle" x="313.702" y="-175.5" font-family="Helvetica,sans-Serif" font-size="10.00">clsuserentry.h</text>
</a>
</g>
</g>
<!-- Node2&#45;&gt;Node7 -->
<g id="edge6" class="edge"><title>Node2&#45;&gt;Node7</title>
<path fill="none" stroke="midnightblue" d="M208.509,-224.444C228.989,-215.596 261.185,-201.687 284.567,-191.586"/>
<polygon fill="midnightblue" stroke="midnightblue" points="286.196,-194.695 293.988,-187.516 283.42,-188.269 286.196,-194.695"/>
</g>
<!-- Node9 -->
<g id="node9" class="node"><title>Node9</title>
<g id="a_node9"><a xlink:href="../../d5/d98/custom_irc_client_2ircuser_8h.xhtml" target="_top" xlink:title="../ircuser.h">
<polygon fill="white" stroke="black" points="349.202,-112.5 349.202,-131.5 412.202,-131.5 412.202,-112.5 349.202,-112.5"/>
<text text-anchor="middle" x="380.702" y="-119.5" font-family="Helvetica,sans-Serif" font-size="10.00">../ircuser.h</text>
</a>
</g>
</g>
<!-- Node2&#45;&gt;Node9 -->
<g id="edge23" class="edge"><title>Node2&#45;&gt;Node9</title>
<path fill="none" stroke="midnightblue" d="M223.407,-233.553C262.222,-232.247 324.511,-224.095 361.702,-188 374.084,-175.983 378.514,-156.38 380.039,-141.84"/>
<polygon fill="midnightblue" stroke="midnightblue" points="383.556,-141.719 380.737,-131.506 376.571,-141.247 383.556,-141.719"/>
</g>
<!-- Node7&#45;&gt;Node3 -->
<g id="edge7" class="edge"><title>Node7&#45;&gt;Node3</title>
<path fill="none" stroke="midnightblue" d="M281.853,-168.444C246.135,-158.848 188.257,-143.298 150.335,-133.11"/>
<polygon fill="midnightblue" stroke="midnightblue" points="150.769,-129.603 140.203,-130.388 148.953,-136.363 150.769,-129.603"/>
</g>
<!-- Node8 -->
<g id="node8" class="node"><title>Node8</title>
<polygon fill="white" stroke="#bfbfbf" points="284.202,-112.5 284.202,-131.5 331.202,-131.5 331.202,-112.5 284.202,-112.5"/>
<text text-anchor="middle" x="307.702" y="-119.5" font-family="Helvetica,sans-Serif" font-size="10.00">QLabel</text>
</g>
<!-- Node7&#45;&gt;Node8 -->
<g id="edge8" class="edge"><title>Node7&#45;&gt;Node8</title>
<path fill="none" stroke="midnightblue" d="M312.711,-168.083C311.916,-160.927 310.773,-150.635 309.779,-141.691"/>
<polygon fill="midnightblue" stroke="midnightblue" points="313.257,-141.303 308.674,-131.751 306.3,-142.076 313.257,-141.303"/>
</g>
<!-- Node7&#45;&gt;Node9 -->
<g id="edge9" class="edge"><title>Node7&#45;&gt;Node9</title>
<path fill="none" stroke="midnightblue" d="M324.467,-168.324C334.468,-160.263 349.589,-148.077 361.632,-138.369"/>
<polygon fill="midnightblue" stroke="midnightblue" points="364.152,-140.834 369.741,-131.834 359.759,-135.384 364.152,-140.834"/>
</g>
<!-- Node10 -->
<g id="node10" class="node"><title>Node10</title>
<polygon fill="white" stroke="#bfbfbf" points="70.202,-56.5 70.202,-75.5 123.202,-75.5 123.202,-56.5 70.202,-56.5"/>
<text text-anchor="middle" x="96.702" y="-63.5" font-family="Helvetica,sans-Serif" font-size="10.00">QObject</text>
</g>
<!-- Node9&#45;&gt;Node10 -->
<g id="edge10" class="edge"><title>Node9&#45;&gt;Node10</title>
<path fill="none" stroke="midnightblue" d="M348.947,-113.885C345.827,-113.229 342.705,-112.59 339.702,-112 251.207,-94.6006 225.78,-95.2671 133.448,-76.0211"/>
<polygon fill="midnightblue" stroke="midnightblue" points="133.895,-72.5385 123.388,-73.9012 132.452,-79.388 133.895,-72.5385"/>
</g>
<!-- Node11 -->
<g id="node11" class="node"><title>Node11</title>
<polygon fill="white" stroke="#bfbfbf" points="141.702,-56.5 141.702,-75.5 191.702,-75.5 191.702,-56.5 141.702,-56.5"/>
<text text-anchor="middle" x="166.702" y="-63.5" font-family="Helvetica,sans-Serif" font-size="10.00">QString</text>
</g>
<!-- Node9&#45;&gt;Node11 -->
<g id="edge11" class="edge"><title>Node9&#45;&gt;Node11</title>
<path fill="none" stroke="midnightblue" d="M349.128,-113.246C315.128,-104.866 259.188,-90.9902 201.896,-76.2828"/>
<polygon fill="midnightblue" stroke="midnightblue" points="202.499,-72.8242 191.943,-73.7228 200.756,-79.6036 202.499,-72.8242"/>
</g>
<!-- Node12 -->
<g id="node12" class="node"><title>Node12</title>
<polygon fill="white" stroke="#bfbfbf" points="210.202,-56.5 210.202,-75.5 257.202,-75.5 257.202,-56.5 210.202,-56.5"/>
<text text-anchor="middle" x="233.702" y="-63.5" font-family="Helvetica,sans-Serif" font-size="10.00">QColor</text>
</g>
<!-- Node9&#45;&gt;Node12 -->
<g id="edge12" class="edge"><title>Node9&#45;&gt;Node12</title>
<path fill="none" stroke="midnightblue" d="M357.409,-112.444C332.895,-103.438 294.106,-89.1891 266.502,-79.049"/>
<polygon fill="midnightblue" stroke="midnightblue" points="267.479,-75.6793 256.886,-75.5164 265.065,-82.25 267.479,-75.6793"/>
</g>
<!-- Node13 -->
<g id="node13" class="node"><title>Node13</title>
<polygon fill="white" stroke="#bfbfbf" points="275.702,-56.5 275.702,-75.5 359.702,-75.5 359.702,-56.5 275.702,-56.5"/>
<text text-anchor="middle" x="317.702" y="-63.5" font-family="Helvetica,sans-Serif" font-size="10.00">QGraphicsView</text>
</g>
<!-- Node9&#45;&gt;Node13 -->
<g id="edge13" class="edge"><title>Node9&#45;&gt;Node13</title>
<path fill="none" stroke="midnightblue" d="M370.58,-112.324C361.176,-104.263 346.958,-92.0765 335.633,-82.3695"/>
<polygon fill="midnightblue" stroke="midnightblue" points="337.879,-79.6844 328.008,-75.8339 333.323,-84.9993 337.879,-79.6844"/>
</g>
<!-- Node14 -->
<g id="node14" class="node"><title>Node14</title>
<polygon fill="white" stroke="#bfbfbf" points="377.702,-56.5 377.702,-75.5 507.702,-75.5 507.702,-56.5 377.702,-56.5"/>
<text text-anchor="middle" x="442.702" y="-63.5" font-family="Helvetica,sans-Serif" font-size="10.00">QNetworkAccessManager</text>
</g>
<!-- Node9&#45;&gt;Node14 -->
<g id="edge14" class="edge"><title>Node9&#45;&gt;Node14</title>
<path fill="none" stroke="midnightblue" d="M390.663,-112.324C399.829,-104.341 413.639,-92.3128 424.73,-82.6529"/>
<polygon fill="midnightblue" stroke="midnightblue" points="427.317,-85.041 432.559,-75.8339 422.72,-79.7624 427.317,-85.041"/>
</g>
<!-- Node15 -->
<g id="node15" class="node"><title>Node15</title>
<polygon fill="white" stroke="#bfbfbf" points="526.202,-56.5 526.202,-75.5 621.202,-75.5 621.202,-56.5 526.202,-56.5"/>
<text text-anchor="middle" x="573.702" y="-63.5" font-family="Helvetica,sans-Serif" font-size="10.00">QNetworkRequest</text>
</g>
<!-- Node9&#45;&gt;Node15 -->
<g id="edge15" class="edge"><title>Node9&#45;&gt;Node15</title>
<path fill="none" stroke="midnightblue" d="M411.283,-112.444C444.316,-103.201 497.09,-88.4356 533.468,-78.2572"/>
<polygon fill="midnightblue" stroke="midnightblue" points="534.577,-81.5815 543.264,-75.5164 532.69,-74.8404 534.577,-81.5815"/>
</g>
<!-- Node16 -->
<g id="node16" class="node"><title>Node16</title>
<polygon fill="white" stroke="#bfbfbf" points="639.702,-56.5 639.702,-75.5 723.702,-75.5 723.702,-56.5 639.702,-56.5"/>
<text text-anchor="middle" x="681.702" y="-63.5" font-family="Helvetica,sans-Serif" font-size="10.00">QNetworkReply</text>
</g>
<!-- Node9&#45;&gt;Node16 -->
<g id="edge16" class="edge"><title>Node9&#45;&gt;Node16</title>
<path fill="none" stroke="midnightblue" d="M412.345,-115.323C463.961,-106.063 566.785,-87.6164 629.388,-76.3852"/>
<polygon fill="midnightblue" stroke="midnightblue" points="630.229,-79.7903 639.454,-74.5793 628.993,-72.9003 630.229,-79.7903"/>
</g>
<!-- Node17 -->
<g id="node17" class="node"><title>Node17</title>
<g id="a_node17"><a xlink:href="../../d7/d62/clslog_8h.xhtml" target="_top" xlink:title="../resources/clslog.h">
<polygon fill="white" stroke="black" points="742.202,-56.5 742.202,-75.5 847.202,-75.5 847.202,-56.5 742.202,-56.5"/>
<text text-anchor="middle" x="794.702" y="-63.5" font-family="Helvetica,sans-Serif" font-size="10.00">../resources/clslog.h</text>
</a>
</g>
</g>
<!-- Node9&#45;&gt;Node17 -->
<g id="edge17" class="edge"><title>Node9&#45;&gt;Node17</title>
<path fill="none" stroke="midnightblue" d="M412.664,-117.059C474.371,-109.414 614.204,-91.9238 731.702,-76 731.808,-75.9856 731.914,-75.9712 732.02,-75.9568"/>
<polygon fill="midnightblue" stroke="midnightblue" points="732.684,-79.3986 742.115,-74.5701 731.732,-72.4637 732.684,-79.3986"/>
</g>
<!-- Node18 -->
<g id="node18" class="node"><title>Node18</title>
<polygon fill="white" stroke="#bfbfbf" points="620.702,-0.5 620.702,-19.5 672.702,-19.5 672.702,-0.5 620.702,-0.5"/>
<text text-anchor="middle" x="646.702" y="-7.5" font-family="Helvetica,sans-Serif" font-size="10.00">QDebug</text>
</g>
<!-- Node17&#45;&gt;Node18 -->
<g id="edge18" class="edge"><title>Node17&#45;&gt;Node18</title>
<path fill="none" stroke="midnightblue" d="M771.251,-56.4435C746.569,-47.4381 707.517,-33.1891 679.725,-23.049"/>
<polygon fill="midnightblue" stroke="midnightblue" points="680.637,-19.6561 670.043,-19.5164 678.238,-26.2321 680.637,-19.6561"/>
</g>
<!-- Node19 -->
<g id="node19" class="node"><title>Node19</title>
<polygon fill="white" stroke="#bfbfbf" points="691.202,-0.5 691.202,-19.5 756.202,-19.5 756.202,-0.5 691.202,-0.5"/>
<text text-anchor="middle" x="723.702" y="-7.5" font-family="Helvetica,sans-Serif" font-size="10.00">QDateTime</text>
</g>
<!-- Node17&#45;&gt;Node19 -->
<g id="edge19" class="edge"><title>Node17&#45;&gt;Node19</title>
<path fill="none" stroke="midnightblue" d="M783.295,-56.324C772.593,-48.1849 756.361,-35.8395 743.539,-26.0874"/>
<polygon fill="midnightblue" stroke="midnightblue" points="745.395,-23.1018 735.317,-19.8339 741.158,-28.6734 745.395,-23.1018"/>
</g>
<!-- Node20 -->
<g id="node20" class="node"><title>Node20</title>
<polygon fill="white" stroke="#bfbfbf" points="774.202,-0.5 774.202,-19.5 815.202,-19.5 815.202,-0.5 774.202,-0.5"/>
<text text-anchor="middle" x="794.702" y="-7.5" font-family="Helvetica,sans-Serif" font-size="10.00">string</text>
</g>
<!-- Node17&#45;&gt;Node20 -->
<g id="edge20" class="edge"><title>Node17&#45;&gt;Node20</title>
<path fill="none" stroke="midnightblue" d="M794.702,-56.083C794.702,-49.0059 794.702,-38.8611 794.702,-29.9865"/>
<polygon fill="midnightblue" stroke="midnightblue" points="798.202,-29.751 794.702,-19.7511 791.202,-29.7511 798.202,-29.751"/>
</g>
<!-- Node21 -->
<g id="node21" class="node"><title>Node21</title>
<polygon fill="white" stroke="#bfbfbf" points="833.702,-0.5 833.702,-19.5 887.702,-19.5 887.702,-0.5 833.702,-0.5"/>
<text text-anchor="middle" x="860.702" y="-7.5" font-family="Helvetica,sans-Serif" font-size="10.00">iostream</text>
</g>
<!-- Node17&#45;&gt;Node21 -->
<g id="edge21" class="edge"><title>Node17&#45;&gt;Node21</title>
<path fill="none" stroke="midnightblue" d="M805.306,-56.324C815.158,-48.2631 830.053,-36.0765 841.917,-26.3695"/>
<polygon fill="midnightblue" stroke="midnightblue" points="844.382,-28.8752 849.905,-19.8339 839.949,-23.4575 844.382,-28.8752"/>
</g>
<!-- Node22 -->
<g id="node22" class="node"><title>Node22</title>
<polygon fill="white" stroke="#bfbfbf" points="906.202,-0.5 906.202,-19.5 971.202,-19.5 971.202,-0.5 906.202,-0.5"/>
<text text-anchor="middle" x="938.702" y="-7.5" font-family="Helvetica,sans-Serif" font-size="10.00">QStringList</text>
</g>
<!-- Node17&#45;&gt;Node22 -->
<g id="edge22" class="edge"><title>Node17&#45;&gt;Node22</title>
<path fill="none" stroke="midnightblue" d="M817.519,-56.4435C841.534,-47.4381 879.531,-33.1891 906.571,-23.049"/>
<polygon fill="midnightblue" stroke="midnightblue" points="907.857,-26.3049 915.991,-19.5164 905.399,-19.7506 907.857,-26.3049"/>
</g>
</g>
</svg>
        <g id="navigator" transform="translate(0 0)" fill="#404254">
                <rect fill="#f2f5e9" fill-opacity="0.5" stroke="#606060" stroke-width=".5" x="0" y="0" width="60" height="60"/>
                <use id="zoomplus" xlink:href="#zoomPlus" x="17" y="9" onmousedown="handleZoom(evt,'in')"/>
                <use id="zoomminus" xlink:href="#zoomMin" x="42" y="9" onmousedown="handleZoom(evt,'out')"/>
                <use id="reset" xlink:href="#resetDef" x="30" y="36" onmousedown="handleReset()"/>
                <g id="arrowUp" xlink:href="#dirArrow" transform="translate(30 24)" onmousedown="handlePan(0,-1)">
                  <use xlink:href="#rim" fill="#404040">
                        <set attributeName="fill" to="#808080" begin="arrowUp.mouseover" end="arrowUp.mouseout"/>
                  </use>
                  <path fill="none" stroke="white" stroke-width="1.5" d="M0,-3.0v7 M-2.5,-0.5L0,-3.0L2.5,-0.5"/>
                </g>
                <g id="arrowRight" xlink:href="#dirArrow" transform="rotate(90) translate(36 -43)" onmousedown="handlePan(1,0)">
                  <use xlink:href="#rim" fill="#404040">
                        <set attributeName="fill" to="#808080" begin="arrowRight.mouseover" end="arrowRight.mouseout"/>
                  </use>
                  <path fill="none" stroke="white" stroke-width="1.5" d="M0,-3.0v7 M-2.5,-0.5L0,-3.0L2.5,-0.5"/>
                </g>
                <g id="arrowDown" xlink:href="#dirArrow" transform="rotate(180) translate(-30 -48)" onmousedown="handlePan(0,1)">
                  <use xlink:href="#rim" fill="#404040">
                        <set attributeName="fill" to="#808080" begin="arrowDown.mouseover" end="arrowDown.mouseout"/>
                  </use>
                  <path fill="none" stroke="white" stroke-width="1.5" d="M0,-3.0v7 M-2.5,-0.5L0,-3.0L2.5,-0.5"/>
                </g>
                <g id="arrowLeft" xlink:href="#dirArrow" transform="rotate(270) translate(-36 17)" onmousedown="handlePan(-1,0)">
                  <use xlink:href="#rim" fill="#404040">
                        <set attributeName="fill" to="#808080" begin="arrowLeft.mouseover" end="arrowLeft.mouseout"/>
                  </use>
                  <path fill="none" stroke="white" stroke-width="1.5" d="M0,-3.0v7 M-2.5,-0.5L0,-3.0L2.5,-0.5"/>
                </g>
        </g>
        <svg viewBox="0 0 15 15" width="100%" height="30px" preserveAspectRatio="xMaxYMin meet">
         <g id="arrow_out" transform="scale(0.3 0.3)">
          <a xlink:href="clsuserlist_8cpp__incl_org.svg" target="_base">
           <rect id="button" ry="5" rx="5" y="6" x="6" height="38" width="38"
                fill="#f2f5e9" fill-opacity="0.5" stroke="#606060" stroke-width="1.0"/>
           <path id="arrow"
             d="M 11.500037,31.436501 C 11.940474,20.09759 22.043105,11.32322 32.158766,21.979434 L 37.068811,17.246167 C 37.068811,17.246167 37.088388,32 37.088388,32 L 22.160133,31.978069 C 22.160133,31.978069 26.997745,27.140456 26.997745,27.140456 C 18.528582,18.264221 13.291696,25.230495 11.500037,31.436501 z"
             style="fill:#404040;"/>
          </a>
         </g>
        </svg>
</svg>
