<?xml version="1.0" encoding="UTF-8" standalone="no"?>
<!DOCTYPE svg PUBLIC "-//W3C//DTD SVG 1.1//EN"
 "http://www.w3.org/Graphics/SVG/1.1/DTD/svg11.dtd">
<!-- Generated by graphviz version 2.30.1 (20130303.0817)
 -->
<!-- Title: shared::events::eventChat Pages: 1 -->
<svg width="136pt" height="534pt"
 viewBox="0.00 0.00 136.00 534.00" xmlns="http://www.w3.org/2000/svg" xmlns:xlink="http://www.w3.org/1999/xlink">
<g id="graph0" class="graph" transform="scale(1 1) rotate(0) translate(4 530)">
<title>shared::events::eventChat</title>
<polygon fill="white" stroke="white" points="-4,5 -4,-530 133,-530 133,5 -4,5"/>
<!-- Node1 -->
<g id="node1" class="node"><title>Node1</title>
<polygon fill="#bfbfbf" stroke="black" points="0,-1 0,-91 128,-91 128,-1 0,-1"/>
<text text-anchor="middle" x="64" y="-79" font-family="Helvetica,sans-Serif" font-size="10.00">shared::events::eventChat</text>
<polyline fill="none" stroke="black" points="0,-72 128,-72 "/>
<text text-anchor="middle" x="64" y="-60" font-family="Helvetica,sans-Serif" font-size="10.00"> </text>
<polyline fill="none" stroke="black" points="0,-53 128,-53 "/>
<text text-anchor="start" x="8" y="-41" font-family="Helvetica,sans-Serif" font-size="10.00">+ eventChat()</text>
<text text-anchor="start" x="8" y="-30" font-family="Helvetica,sans-Serif" font-size="10.00">+ eventChat()</text>
<text text-anchor="start" x="8" y="-19" font-family="Helvetica,sans-Serif" font-size="10.00">+ getUser()</text>
<text text-anchor="start" x="8" y="-8" font-family="Helvetica,sans-Serif" font-size="10.00">+ getMessage()</text>
</g>
<!-- Node2 -->
<g id="node2" class="node"><title>Node2</title>
<g id="a_node2"><a xlink:href="../../db/d8b/classshared_1_1events_1_1cls_event.html" target="_top" xlink:title="The main event class.">
<polygon fill="white" stroke="black" points="3,-130.5 3,-297.5 125,-297.5 125,-130.5 3,-130.5"/>
<text text-anchor="middle" x="64" y="-285.5" font-family="Helvetica,sans-Serif" font-size="10.00">shared::events::clsEvent</text>
<polyline fill="none" stroke="black" points="3,-278.5 125,-278.5 "/>
<text text-anchor="start" x="11" y="-266.5" font-family="Helvetica,sans-Serif" font-size="10.00"># data</text>
<text text-anchor="start" x="11" y="-255.5" font-family="Helvetica,sans-Serif" font-size="10.00"># ourType</text>
<text text-anchor="start" x="11" y="-244.5" font-family="Helvetica,sans-Serif" font-size="10.00"># timeOfEvent</text>
<polyline fill="none" stroke="black" points="3,-237.5 125,-237.5 "/>
<text text-anchor="start" x="11" y="-225.5" font-family="Helvetica,sans-Serif" font-size="10.00">+ clsEvent()</text>
<text text-anchor="start" x="11" y="-214.5" font-family="Helvetica,sans-Serif" font-size="10.00">+ clsEvent()</text>
<text text-anchor="start" x="11" y="-203.5" font-family="Helvetica,sans-Serif" font-size="10.00">+ addToData()</text>
<text text-anchor="start" x="11" y="-192.5" font-family="Helvetica,sans-Serif" font-size="10.00">+ toVariant()</text>
<text text-anchor="start" x="11" y="-181.5" font-family="Helvetica,sans-Serif" font-size="10.00">+ getData()</text>
<text text-anchor="start" x="11" y="-170.5" font-family="Helvetica,sans-Serif" font-size="10.00">+ getType()</text>
<text text-anchor="start" x="11" y="-159.5" font-family="Helvetica,sans-Serif" font-size="10.00">+ getTime()</text>
<text text-anchor="start" x="11" y="-148.5" font-family="Helvetica,sans-Serif" font-size="10.00"># getEventType()</text>
<text text-anchor="start" x="11" y="-137.5" font-family="Helvetica,sans-Serif" font-size="10.00"># setEventType()</text>
</a>
</g>
</g>
<!-- Node2&#45;&gt;Node1 -->
<g id="edge1" class="edge"><title>Node2&#45;&gt;Node1</title>
<path fill="none" stroke="midnightblue" d="M64,-120.375C64,-110.305 64,-100.427 64,-91.3435"/>
<polygon fill="none" stroke="midnightblue" points="60.5001,-120.486 64,-130.486 67.5001,-120.486 60.5001,-120.486"/>
</g>
<!-- Node3 -->
<g id="node3" class="node"><title>Node3</title>
<g id="a_node3"><a xlink:href="../../da/d64/class_k4_u_1_1cls_log.html" target="_top" xlink:title="Custom logging class.">
<polygon fill="white" stroke="black" points="24.5,-347 24.5,-525 103.5,-525 103.5,-347 24.5,-347"/>
<text text-anchor="middle" x="64" y="-513" font-family="Helvetica,sans-Serif" font-size="10.00">K4U::clsLog</text>
<polyline fill="none" stroke="black" points="24.5,-506 103.5,-506 "/>
<text text-anchor="start" x="32.5" y="-494" font-family="Helvetica,sans-Serif" font-size="10.00">&#45; isFirst</text>
<text text-anchor="start" x="32.5" y="-483" font-family="Helvetica,sans-Serif" font-size="10.00">&#45; tag</text>
<text text-anchor="start" x="32.5" y="-472" font-family="Helvetica,sans-Serif" font-size="10.00">&#45; prf</text>
<polyline fill="none" stroke="black" points="24.5,-465 103.5,-465 "/>
<text text-anchor="start" x="32.5" y="-453" font-family="Helvetica,sans-Serif" font-size="10.00">+ clsLog()</text>
<text text-anchor="start" x="32.5" y="-442" font-family="Helvetica,sans-Serif" font-size="10.00">+ operator&lt;&lt;()</text>
<text text-anchor="start" x="32.5" y="-431" font-family="Helvetica,sans-Serif" font-size="10.00">+ operator&lt;&lt;()</text>
<text text-anchor="start" x="32.5" y="-420" font-family="Helvetica,sans-Serif" font-size="10.00">+ operator&lt;&lt;()</text>
<text text-anchor="start" x="32.5" y="-409" font-family="Helvetica,sans-Serif" font-size="10.00">+ operator&lt;&lt;()</text>
<text text-anchor="start" x="32.5" y="-398" font-family="Helvetica,sans-Serif" font-size="10.00">+ operator&lt;&lt;()</text>
<text text-anchor="start" x="32.5" y="-387" font-family="Helvetica,sans-Serif" font-size="10.00">+ operator&lt;&lt;()</text>
<text text-anchor="start" x="32.5" y="-376" font-family="Helvetica,sans-Serif" font-size="10.00">and 9 more...</text>
<text text-anchor="start" x="32.5" y="-365" font-family="Helvetica,sans-Serif" font-size="10.00">&#45; prefix()</text>
<text text-anchor="start" x="32.5" y="-354" font-family="Helvetica,sans-Serif" font-size="10.00">&#45; getTag()</text>
</a>
</g>
</g>
<!-- Node3&#45;&gt;Node2 -->
<g id="edge2" class="edge"><title>Node3&#45;&gt;Node2</title>
<path fill="none" stroke="#404040" d="M64,-346.785C64,-334.592 64,-322.027 64,-309.721"/>
<polygon fill="none" stroke="#404040" points="64.0001,-309.526 60,-303.526 64,-297.526 68,-303.526 64.0001,-309.526"/>
<text text-anchor="middle" x="75" y="-319.5" font-family="Helvetica,sans-Serif" font-size="10.00"> #log</text>
</g>
</g>
</svg>
