<?xml version="1.0" encoding="UTF-8" standalone="no"?>
<!DOCTYPE svg PUBLIC "-//W3C//DTD SVG 1.1//EN"
 "http://www.w3.org/Graphics/SVG/1.1/DTD/svg11.dtd">
<!-- Generated by graphviz version 2.30.1 (20130303.0817)
 -->
<!-- Title: C++/resources/events/events.h Pages: 1 -->
<svg width="582pt" height="264pt"
 viewBox="0.00 0.00 582.00 264.00" xmlns="http://www.w3.org/2000/svg" xmlns:xlink="http://www.w3.org/1999/xlink">
<g id="graph0" class="graph" transform="scale(1 1) rotate(0) translate(4 260)">
<title>C++/resources/events/events.h</title>
<polygon fill="white" stroke="white" points="-4,5 -4,-260 579,-260 579,5 -4,5"/>
<!-- Node1 -->
<g id="node1" class="node"><title>Node1</title>
<polygon fill="#bfbfbf" stroke="black" points="172,-225 172,-255 284,-255 284,-225 172,-225"/>
<text text-anchor="start" x="180" y="-243" font-family="Helvetica,sans-Serif" font-size="10.00">C++/resources/events</text>
<text text-anchor="middle" x="228" y="-232" font-family="Helvetica,sans-Serif" font-size="10.00">/events.h</text>
</g>
<!-- Node2 -->
<g id="node2" class="node"><title>Node2</title>
<g id="a_node2"><a xlink:href="../../db/d70/eventchat_8h.xhtml" target="_top" xlink:title="eventchat.h">
<polygon fill="white" stroke="black" points="0,-168.5 0,-187.5 66,-187.5 66,-168.5 0,-168.5"/>
<text text-anchor="middle" x="33" y="-175.5" font-family="Helvetica,sans-Serif" font-size="10.00">eventchat.h</text>
</a>
</g>
</g>
<!-- Node1&#45;&gt;Node2 -->
<g id="edge1" class="edge"><title>Node1&#45;&gt;Node2</title>
<path fill="none" stroke="midnightblue" d="M182.281,-224.933C148.253,-214.462 102.37,-200.345 70.4915,-190.536"/>
<polygon fill="midnightblue" stroke="midnightblue" points="71.2534,-187.108 60.6663,-187.513 69.1947,-193.799 71.2534,-187.108"/>
</g>
<!-- Node13 -->
<g id="node13" class="node"><title>Node13</title>
<g id="a_node13"><a xlink:href="../../d5/d02/eventuserjoin_8h.xhtml" target="_top" xlink:title="eventuserjoin.h">
<polygon fill="white" stroke="black" points="84.5,-168.5 84.5,-187.5 165.5,-187.5 165.5,-168.5 84.5,-168.5"/>
<text text-anchor="middle" x="125" y="-175.5" font-family="Helvetica,sans-Serif" font-size="10.00">eventuserjoin.h</text>
</a>
</g>
</g>
<!-- Node1&#45;&gt;Node13 -->
<g id="edge13" class="edge"><title>Node1&#45;&gt;Node13</title>
<path fill="none" stroke="midnightblue" d="M203.851,-224.933C187.25,-215.262 165.306,-202.479 148.784,-192.855"/>
<polygon fill="midnightblue" stroke="midnightblue" points="150.166,-189.609 139.763,-187.6 146.642,-195.658 150.166,-189.609"/>
</g>
<!-- Node14 -->
<g id="node14" class="node"><title>Node14</title>
<g id="a_node14"><a xlink:href="../../d7/d56/eventuserleave_8h.xhtml" target="_top" xlink:title="eventuserleave.h">
<polygon fill="white" stroke="black" points="184,-168.5 184,-187.5 272,-187.5 272,-168.5 184,-168.5"/>
<text text-anchor="middle" x="228" y="-175.5" font-family="Helvetica,sans-Serif" font-size="10.00">eventuserleave.h</text>
</a>
</g>
</g>
<!-- Node1&#45;&gt;Node14 -->
<g id="edge15" class="edge"><title>Node1&#45;&gt;Node14</title>
<path fill="none" stroke="midnightblue" d="M228,-224.781C228,-216.781 228,-206.689 228,-198.017"/>
<polygon fill="midnightblue" stroke="midnightblue" points="231.5,-197.73 228,-187.731 224.5,-197.731 231.5,-197.73"/>
</g>
<!-- Node15 -->
<g id="node15" class="node"><title>Node15</title>
<g id="a_node15"><a xlink:href="../../db/db0/eventuserchangestatus_8h.xhtml" target="_top" xlink:title="eventuserchangestatus.h">
<polygon fill="white" stroke="black" points="289.5,-168.5 289.5,-187.5 414.5,-187.5 414.5,-168.5 289.5,-168.5"/>
<text text-anchor="middle" x="352" y="-175.5" font-family="Helvetica,sans-Serif" font-size="10.00">eventuserchangestatus.h</text>
</a>
</g>
</g>
<!-- Node1&#45;&gt;Node15 -->
<g id="edge17" class="edge"><title>Node1&#45;&gt;Node15</title>
<path fill="none" stroke="midnightblue" d="M257.072,-224.933C277.619,-214.991 304.963,-201.76 325.025,-192.053"/>
<polygon fill="midnightblue" stroke="midnightblue" points="326.749,-195.106 334.227,-187.6 323.701,-188.805 326.749,-195.106"/>
</g>
<!-- Node16 -->
<g id="node16" class="node"><title>Node16</title>
<g id="a_node16"><a xlink:href="../../d8/d44/eventuserchangenick_8h.xhtml" target="_top" xlink:title="eventuserchangenick.h">
<polygon fill="white" stroke="black" points="433,-168.5 433,-187.5 549,-187.5 549,-168.5 433,-168.5"/>
<text text-anchor="middle" x="491" y="-175.5" font-family="Helvetica,sans-Serif" font-size="10.00">eventuserchangenick.h</text>
</a>
</g>
</g>
<!-- Node1&#45;&gt;Node16 -->
<g id="edge19" class="edge"><title>Node1&#45;&gt;Node16</title>
<path fill="none" stroke="midnightblue" d="M284.098,-226.202C331.643,-215.355 399.052,-199.977 443.855,-189.756"/>
<polygon fill="midnightblue" stroke="midnightblue" points="444.643,-193.166 453.614,-187.529 443.086,-186.341 444.643,-193.166"/>
</g>
<!-- Node3 -->
<g id="node3" class="node"><title>Node3</title>
<g id="a_node3"><a xlink:href="../../db/d97/clsevent_8h.xhtml" target="_top" xlink:title="../clsevent.h">
<polygon fill="white" stroke="black" points="193.5,-112.5 193.5,-131.5 262.5,-131.5 262.5,-112.5 193.5,-112.5"/>
<text text-anchor="middle" x="228" y="-119.5" font-family="Helvetica,sans-Serif" font-size="10.00">../clsevent.h</text>
</a>
</g>
</g>
<!-- Node2&#45;&gt;Node3 -->
<g id="edge2" class="edge"><title>Node2&#45;&gt;Node3</title>
<path fill="none" stroke="midnightblue" d="M63.8983,-168.444C97.2738,-159.201 150.594,-144.436 187.349,-134.257"/>
<polygon fill="midnightblue" stroke="midnightblue" points="188.543,-137.558 197.246,-131.516 186.675,-130.812 188.543,-137.558"/>
</g>
<!-- Node4 -->
<g id="node4" class="node"><title>Node4</title>
<polygon fill="white" stroke="#bfbfbf" points="60.5,-56.5 60.5,-75.5 113.5,-75.5 113.5,-56.5 60.5,-56.5"/>
<text text-anchor="middle" x="87" y="-63.5" font-family="Helvetica,sans-Serif" font-size="10.00">QObject</text>
</g>
<!-- Node3&#45;&gt;Node4 -->
<g id="edge3" class="edge"><title>Node3&#45;&gt;Node4</title>
<path fill="none" stroke="midnightblue" d="M205.658,-112.444C182.247,-103.478 145.264,-89.314 118.81,-79.1827"/>
<polygon fill="midnightblue" stroke="midnightblue" points="119.828,-75.8245 109.237,-75.5164 117.324,-82.3615 119.828,-75.8245"/>
</g>
<!-- Node5 -->
<g id="node5" class="node"><title>Node5</title>
<polygon fill="white" stroke="#bfbfbf" points="132,-56.5 132,-75.5 182,-75.5 182,-56.5 132,-56.5"/>
<text text-anchor="middle" x="157" y="-63.5" font-family="Helvetica,sans-Serif" font-size="10.00">QString</text>
</g>
<!-- Node3&#45;&gt;Node5 -->
<g id="edge4" class="edge"><title>Node3&#45;&gt;Node5</title>
<path fill="none" stroke="midnightblue" d="M216.593,-112.324C205.891,-104.185 189.659,-91.8395 176.837,-82.0874"/>
<polygon fill="midnightblue" stroke="midnightblue" points="178.693,-79.1018 168.615,-75.8339 174.456,-84.6734 178.693,-79.1018"/>
</g>
<!-- Node6 -->
<g id="node6" class="node"><title>Node6</title>
<polygon fill="white" stroke="#bfbfbf" points="200.5,-56.5 200.5,-75.5 255.5,-75.5 255.5,-56.5 200.5,-56.5"/>
<text text-anchor="middle" x="228" y="-63.5" font-family="Helvetica,sans-Serif" font-size="10.00">QVariant</text>
</g>
<!-- Node3&#45;&gt;Node6 -->
<g id="edge5" class="edge"><title>Node3&#45;&gt;Node6</title>
<path fill="none" stroke="midnightblue" d="M228,-112.083C228,-105.006 228,-94.8611 228,-85.9865"/>
<polygon fill="midnightblue" stroke="midnightblue" points="231.5,-85.751 228,-75.7511 224.5,-85.7511 231.5,-85.751"/>
</g>
<!-- Node7 -->
<g id="node7" class="node"><title>Node7</title>
<polygon fill="white" stroke="#bfbfbf" points="223.5,-0.5 223.5,-19.5 288.5,-19.5 288.5,-0.5 223.5,-0.5"/>
<text text-anchor="middle" x="256" y="-7.5" font-family="Helvetica,sans-Serif" font-size="10.00">QDateTime</text>
</g>
<!-- Node3&#45;&gt;Node7 -->
<g id="edge6" class="edge"><title>Node3&#45;&gt;Node7</title>
<path fill="none" stroke="midnightblue" d="M238.162,-112.185C246.908,-103.87 258.9,-90.539 264,-76 269.292,-60.9124 266.356,-42.7869 262.635,-29.5137"/>
<polygon fill="midnightblue" stroke="midnightblue" points="265.869,-28.1361 259.488,-19.6786 259.202,-30.2696 265.869,-28.1361"/>
</g>
<!-- Node8 -->
<g id="node8" class="node"><title>Node8</title>
<g id="a_node8"><a xlink:href="../../d7/d62/clslog_8h.xhtml" target="_top" xlink:title="clslog.h">
<polygon fill="white" stroke="black" points="340,-56.5 340,-75.5 390,-75.5 390,-56.5 340,-56.5"/>
<text text-anchor="middle" x="365" y="-63.5" font-family="Helvetica,sans-Serif" font-size="10.00">clslog.h</text>
</a>
</g>
</g>
<!-- Node3&#45;&gt;Node8 -->
<g id="edge7" class="edge"><title>Node3&#45;&gt;Node8</title>
<path fill="none" stroke="midnightblue" d="M249.708,-112.444C272.355,-103.517 308.072,-89.4387 333.752,-79.3168"/>
<polygon fill="midnightblue" stroke="midnightblue" points="335.374,-82.4397 343.394,-75.5164 332.807,-75.9273 335.374,-82.4397"/>
</g>
<!-- Node9 -->
<g id="node9" class="node"><title>Node9</title>
<polygon fill="white" stroke="#bfbfbf" points="307,-0.5 307,-19.5 359,-19.5 359,-0.5 307,-0.5"/>
<text text-anchor="middle" x="333" y="-7.5" font-family="Helvetica,sans-Serif" font-size="10.00">QDebug</text>
</g>
<!-- Node8&#45;&gt;Node9 -->
<g id="edge8" class="edge"><title>Node8&#45;&gt;Node9</title>
<path fill="none" stroke="midnightblue" d="M359.716,-56.083C355.289,-48.6127 348.837,-37.7244 343.382,-28.5199"/>
<polygon fill="midnightblue" stroke="midnightblue" points="346.295,-26.5697 338.186,-19.7511 340.273,-30.1383 346.295,-26.5697"/>
</g>
<!-- Node8&#45;&gt;Node7 -->
<g id="edge9" class="edge"><title>Node8&#45;&gt;Node7</title>
<path fill="none" stroke="midnightblue" d="M347.487,-56.324C329.928,-47.6247 302.669,-34.1202 282.469,-24.113"/>
<polygon fill="midnightblue" stroke="midnightblue" points="283.984,-20.9575 273.469,-19.6545 280.876,-27.23 283.984,-20.9575"/>
</g>
<!-- Node10 -->
<g id="node10" class="node"><title>Node10</title>
<polygon fill="white" stroke="#bfbfbf" points="377.5,-0.5 377.5,-19.5 418.5,-19.5 418.5,-0.5 377.5,-0.5"/>
<text text-anchor="middle" x="398" y="-7.5" font-family="Helvetica,sans-Serif" font-size="10.00">string</text>
</g>
<!-- Node8&#45;&gt;Node10 -->
<g id="edge10" class="edge"><title>Node8&#45;&gt;Node10</title>
<path fill="none" stroke="midnightblue" d="M370.449,-56.083C375.014,-48.6127 381.668,-37.7244 387.293,-28.5199"/>
<polygon fill="midnightblue" stroke="midnightblue" points="390.424,-30.109 392.652,-19.7511 384.451,-26.4588 390.424,-30.109"/>
</g>
<!-- Node11 -->
<g id="node11" class="node"><title>Node11</title>
<polygon fill="white" stroke="#bfbfbf" points="437,-0.5 437,-19.5 491,-19.5 491,-0.5 437,-0.5"/>
<text text-anchor="middle" x="464" y="-7.5" font-family="Helvetica,sans-Serif" font-size="10.00">iostream</text>
</g>
<!-- Node8&#45;&gt;Node11 -->
<g id="edge11" class="edge"><title>Node8&#45;&gt;Node11</title>
<path fill="none" stroke="midnightblue" d="M380.906,-56.324C396.638,-47.7428 420.942,-34.486 439.209,-24.5224"/>
<polygon fill="midnightblue" stroke="midnightblue" points="441.03,-27.5157 448.133,-19.6545 437.678,-21.3704 441.03,-27.5157"/>
</g>
<!-- Node12 -->
<g id="node12" class="node"><title>Node12</title>
<polygon fill="white" stroke="#bfbfbf" points="509.5,-0.5 509.5,-19.5 574.5,-19.5 574.5,-0.5 509.5,-0.5"/>
<text text-anchor="middle" x="542" y="-7.5" font-family="Helvetica,sans-Serif" font-size="10.00">QStringList</text>
</g>
<!-- Node8&#45;&gt;Node12 -->
<g id="edge12" class="edge"><title>Node8&#45;&gt;Node12</title>
<path fill="none" stroke="midnightblue" d="M390.36,-57.2631C420.201,-48.1589 470.028,-32.9575 504.375,-22.479"/>
<polygon fill="midnightblue" stroke="midnightblue" points="505.516,-25.7901 514.059,-19.5243 503.473,-19.0948 505.516,-25.7901"/>
</g>
<!-- Node13&#45;&gt;Node3 -->
<g id="edge14" class="edge"><title>Node13&#45;&gt;Node3</title>
<path fill="none" stroke="midnightblue" d="M141.549,-168.324C157.992,-159.703 183.435,-146.364 202.468,-136.386"/>
<polygon fill="midnightblue" stroke="midnightblue" points="204.261,-139.398 211.492,-131.655 201.011,-133.198 204.261,-139.398"/>
</g>
<!-- Node14&#45;&gt;Node3 -->
<g id="edge16" class="edge"><title>Node14&#45;&gt;Node3</title>
<path fill="none" stroke="midnightblue" d="M228,-168.083C228,-161.006 228,-150.861 228,-141.986"/>
<polygon fill="midnightblue" stroke="midnightblue" points="231.5,-141.751 228,-131.751 224.5,-141.751 231.5,-141.751"/>
</g>
<!-- Node15&#45;&gt;Node3 -->
<g id="edge18" class="edge"><title>Node15&#45;&gt;Node3</title>
<path fill="none" stroke="midnightblue" d="M332.352,-168.444C312.035,-159.596 280.097,-145.687 256.902,-135.586"/>
<polygon fill="midnightblue" stroke="midnightblue" points="258.122,-132.3 247.556,-131.516 255.327,-138.718 258.122,-132.3"/>
</g>
<!-- Node16&#45;&gt;Node3 -->
<g id="edge20" class="edge"><title>Node16&#45;&gt;Node3</title>
<path fill="none" stroke="midnightblue" d="M449.327,-168.444C401.187,-158.559 322.283,-142.359 272.841,-132.207"/>
<polygon fill="midnightblue" stroke="midnightblue" points="273.259,-128.72 262.759,-130.137 271.851,-135.577 273.259,-128.72"/>
</g>
</g>
</svg>
