<?xml version="1.0" encoding="UTF-8" standalone="no"?>
<!DOCTYPE svg PUBLIC "-//W3C//DTD SVG 1.1//EN"
 "http://www.w3.org/Graphics/SVG/1.1/DTD/svg11.dtd">
<!-- Generated by graphviz version 2.30.1 (20130303.0817)
 -->
<!-- Title: C++/customIrcClient/chatinput.cpp Pages: 1 -->
<svg width="242pt" height="152pt"
 viewBox="0.00 0.00 242.00 152.00" xmlns="http://www.w3.org/2000/svg" xmlns:xlink="http://www.w3.org/1999/xlink">
<g id="graph0" class="graph" transform="scale(1 1) rotate(0) translate(4 148)">
<title>C++/customIrcClient/chatinput.cpp</title>
<polygon fill="white" stroke="white" points="-4,5 -4,-148 239,-148 239,5 -4,5"/>
<!-- Node1 -->
<g id="node1" class="node"><title>Node1</title>
<polygon fill="#bfbfbf" stroke="black" points="107,-113 107,-143 213,-143 213,-113 107,-113"/>
<text text-anchor="start" x="115" y="-131" font-family="Helvetica,sans-Serif" font-size="10.00">C++/customIrcClient</text>
<text text-anchor="middle" x="160" y="-120" font-family="Helvetica,sans-Serif" font-size="10.00">/chatinput.cpp</text>
</g>
<!-- Node2 -->
<g id="node2" class="node"><title>Node2</title>
<g id="a_node2"><a xlink:href="../../d6/d98/chatinput_8h.html" target="_top" xlink:title="chatinput.h">
<polygon fill="white" stroke="black" points="86.5,-56.5 86.5,-75.5 151.5,-75.5 151.5,-56.5 86.5,-56.5"/>
<text text-anchor="middle" x="119" y="-63.5" font-family="Helvetica,sans-Serif" font-size="10.00">chatinput.h</text>
</a>
</g>
</g>
<!-- Node1&#45;&gt;Node2 -->
<g id="edge1" class="edge"><title>Node1&#45;&gt;Node2</title>
<path fill="none" stroke="midnightblue" d="M150.284,-112.781C144.387,-104.152 136.827,-93.0882 130.616,-83.9987"/>
<polygon fill="midnightblue" stroke="midnightblue" points="133.498,-82.0123 124.966,-75.7305 127.718,-85.9617 133.498,-82.0123"/>
</g>
<!-- Node6 -->
<g id="node6" class="node"><title>Node6</title>
<polygon fill="white" stroke="#bfbfbf" points="169.5,-56.5 169.5,-75.5 234.5,-75.5 234.5,-56.5 169.5,-56.5"/>
<text text-anchor="middle" x="202" y="-63.5" font-family="Helvetica,sans-Serif" font-size="10.00">QKeyEvent</text>
</g>
<!-- Node1&#45;&gt;Node6 -->
<g id="edge5" class="edge"><title>Node1&#45;&gt;Node6</title>
<path fill="none" stroke="midnightblue" d="M169.953,-112.781C175.994,-104.152 183.738,-93.0882 190.101,-83.9987"/>
<polygon fill="midnightblue" stroke="midnightblue" points="193.021,-85.93 195.889,-75.7305 187.287,-81.9157 193.021,-85.93"/>
</g>
<!-- Node3 -->
<g id="node3" class="node"><title>Node3</title>
<polygon fill="white" stroke="#bfbfbf" points="-0.5,-0.5 -0.5,-19.5 80.5,-19.5 80.5,-0.5 -0.5,-0.5"/>
<text text-anchor="middle" x="40" y="-7.5" font-family="Helvetica,sans-Serif" font-size="10.00">QPlainTextEdit</text>
</g>
<!-- Node2&#45;&gt;Node3 -->
<g id="edge2" class="edge"><title>Node2&#45;&gt;Node3</title>
<path fill="none" stroke="midnightblue" d="M106.307,-56.324C94.0989,-47.979 75.4215,-35.2122 60.9971,-25.3524"/>
<polygon fill="midnightblue" stroke="midnightblue" points="62.892,-22.4082 52.6612,-19.6545 58.9418,-28.1871 62.892,-22.4082"/>
</g>
<!-- Node4 -->
<g id="node4" class="node"><title>Node4</title>
<polygon fill="white" stroke="#bfbfbf" points="99,-0.5 99,-19.5 139,-19.5 139,-0.5 99,-0.5"/>
<text text-anchor="middle" x="119" y="-7.5" font-family="Helvetica,sans-Serif" font-size="10.00">QList</text>
</g>
<!-- Node2&#45;&gt;Node4 -->
<g id="edge3" class="edge"><title>Node2&#45;&gt;Node4</title>
<path fill="none" stroke="midnightblue" d="M119,-56.083C119,-49.0059 119,-38.8611 119,-29.9865"/>
<polygon fill="midnightblue" stroke="midnightblue" points="122.5,-29.751 119,-19.7511 115.5,-29.7511 122.5,-29.751"/>
</g>
<!-- Node5 -->
<g id="node5" class="node"><title>Node5</title>
<polygon fill="white" stroke="#bfbfbf" points="157,-0.5 157,-19.5 207,-19.5 207,-0.5 157,-0.5"/>
<text text-anchor="middle" x="182" y="-7.5" font-family="Helvetica,sans-Serif" font-size="10.00">QString</text>
</g>
<!-- Node2&#45;&gt;Node5 -->
<g id="edge4" class="edge"><title>Node2&#45;&gt;Node5</title>
<path fill="none" stroke="midnightblue" d="M129.122,-56.324C138.526,-48.2631 152.744,-36.0765 164.069,-26.3695"/>
<polygon fill="midnightblue" stroke="midnightblue" points="166.379,-28.9993 171.694,-19.8339 161.823,-23.6844 166.379,-28.9993"/>
</g>
</g>
</svg>
