<?xml version="1.0" encoding="UTF-8" standalone="no"?>
<!DOCTYPE svg PUBLIC "-//W3C//DTD SVG 1.1//EN"
 "http://www.w3.org/Graphics/SVG/1.1/DTD/svg11.dtd">
<!-- Generated by graphviz version 2.30.1 (20130303.0817)
 -->
<!-- Title: C++/customIrcServer/uiserver.cpp Pages: 1 -->
<!--zoomable 320 -->
<svg id="main" version="1.1" xmlns="http://www.w3.org/2000/svg" xmlns:xlink="http://www.w3.org/1999/xlink" xml:space="preserve" onload="init(evt)">
        <defs>
                <circle id="rim" cx="0" cy="0" r="7"/>
                <circle id="rim2" cx="0" cy="0" r="3.5"/>
                <g id="zoomPlus">
                        <use xlink:href="#rim" fill="#404040">
                                <set attributeName="fill" to="#808080" begin="zoomplus.mouseover" end="zoomplus.mouseout"/>
                        </use>
                        <path d="M-4,0h8M0,-4v8" fill="none" stroke="white" stroke-width="1.5" pointer-events="none"/>
                </g>
                <g id="zoomMin">
                        <use xlink:href="#rim" fill="#404040">
                                <set attributeName="fill" to="#808080" begin="zoomminus.mouseover" end="zoomminus.mouseout"/>
                        </use>
                        <path d="M-4,0h8" fill="none" stroke="white" stroke-width="1.5" pointer-events="none"/>
                </g>
                <g id="dirArrow">
                        <path fill="none" stroke="white" stroke-width="1.5" d="M0,-3.0v7 M-2.5,-0.5L0,-3.0L2.5,-0.5"/>
                </g>
               <g id="resetDef">
                       <use xlink:href="#rim2" fill="#404040">
                               <set attributeName="fill" to="#808080" begin="reset.mouseover" end="reset.mouseout"/>
                       </use>
               </g>
        </defs>

<script type="text/javascript">
var viewWidth = 699;
var viewHeight = 320;
var sectionId = 'dynsection-0';
</script>
<script xlink:href="../../svgpan.js"/>
<svg id="graph" class="graph">
<g id="viewport">
<title>C++/customIrcServer/uiserver.cpp</title>
<polygon fill="white" stroke="white" points="-4,5 -4,-316 696,-316 696,5 -4,5"/>
<!-- Node1 -->
<g id="node1" class="node"><title>Node1</title>
<polygon fill="#bfbfbf" stroke="black" points="522,-281 522,-311 630,-311 630,-281 522,-281"/>
<text text-anchor="start" x="530" y="-299" font-family="Helvetica,sans-Serif" font-size="10.00">C++/customIrcServer</text>
<text text-anchor="middle" x="576" y="-288" font-family="Helvetica,sans-Serif" font-size="10.00">/uiserver.cpp</text>
</g>
<!-- Node2 -->
<g id="node2" class="node"><title>Node2</title>
<g id="a_node2"><a xlink:href="../../d7/d1c/uiserver_8h.html" target="_top" xlink:title="uiserver.h">
<polygon fill="white" stroke="black" points="299,-224.5 299,-243.5 357,-243.5 357,-224.5 299,-224.5"/>
<text text-anchor="middle" x="328" y="-231.5" font-family="Helvetica,sans-Serif" font-size="10.00">uiserver.h</text>
</a>
</g>
</g>
<!-- Node1&#45;&gt;Node2 -->
<g id="edge1" class="edge"><title>Node1&#45;&gt;Node2</title>
<path fill="none" stroke="midnightblue" d="M521.882,-281.907C475.14,-270.598 408.73,-254.531 367.026,-244.442"/>
<polygon fill="midnightblue" stroke="midnightblue" points="367.781,-241.024 357.239,-242.074 366.135,-247.827 367.781,-241.024"/>
</g>
<!-- Node22 -->
<g id="node22" class="node"><title>Node22</title>
<polygon fill="white" stroke="#bfbfbf" points="642.5,-224.5 642.5,-243.5 691.5,-243.5 691.5,-224.5 642.5,-224.5"/>
<text text-anchor="middle" x="667" y="-231.5" font-family="Helvetica,sans-Serif" font-size="10.00">QBuffer</text>
</g>
<!-- Node1&#45;&gt;Node22 -->
<g id="edge24" class="edge"><title>Node1&#45;&gt;Node22</title>
<path fill="none" stroke="midnightblue" d="M597.566,-280.781C611.966,-271.286 630.837,-258.843 645.271,-249.327"/>
<polygon fill="midnightblue" stroke="midnightblue" points="647.602,-251.982 654.024,-243.556 643.749,-246.138 647.602,-251.982"/>
</g>
<!-- Node7 -->
<g id="node7" class="node"><title>Node7</title>
<polygon fill="white" stroke="#bfbfbf" points="478,-112.5 478,-131.5 548,-131.5 548,-112.5 478,-112.5"/>
<text text-anchor="middle" x="513" y="-119.5" font-family="Helvetica,sans-Serif" font-size="10.00">QTcpSocket</text>
</g>
<!-- Node1&#45;&gt;Node7 -->
<g id="edge25" class="edge"><title>Node1&#45;&gt;Node7</title>
<path fill="none" stroke="midnightblue" d="M570.844,-280.925C559.495,-249.939 532.355,-175.844 519.704,-141.304"/>
<polygon fill="midnightblue" stroke="midnightblue" points="522.87,-139.771 516.144,-131.585 516.297,-142.178 522.87,-139.771"/>
</g>
<!-- Node14 -->
<g id="node14" class="node"><title>Node14</title>
<polygon fill="white" stroke="#bfbfbf" points="587,-0.5 587,-19.5 641,-19.5 641,-0.5 587,-0.5"/>
<text text-anchor="middle" x="614" y="-7.5" font-family="Helvetica,sans-Serif" font-size="10.00">iostream</text>
</g>
<!-- Node1&#45;&gt;Node14 -->
<g id="edge26" class="edge"><title>Node1&#45;&gt;Node14</title>
<path fill="none" stroke="midnightblue" d="M583.874,-280.841C595.004,-259.463 614,-217.357 614,-179 614,-179 614,-179 614,-121 614,-88.948 614,-51.6426 614,-29.7489"/>
<polygon fill="midnightblue" stroke="midnightblue" points="617.5,-29.5577 614,-19.5578 610.5,-29.5578 617.5,-29.5577"/>
</g>
<!-- Node11 -->
<g id="node11" class="node"><title>Node11</title>
<polygon fill="white" stroke="#bfbfbf" points="517,-0.5 517,-19.5 569,-19.5 569,-0.5 517,-0.5"/>
<text text-anchor="middle" x="543" y="-7.5" font-family="Helvetica,sans-Serif" font-size="10.00">QDebug</text>
</g>
<!-- Node1&#45;&gt;Node11 -->
<g id="edge27" class="edge"><title>Node1&#45;&gt;Node11</title>
<path fill="none" stroke="midnightblue" d="M576,-280.713C576,-258.82 576,-215.653 576,-179 576,-179 576,-179 576,-121 576,-87.2454 561.568,-50.0285 551.792,-28.6908"/>
<polygon fill="midnightblue" stroke="midnightblue" points="554.911,-27.0993 547.451,-19.5762 548.591,-30.1095 554.911,-27.0993"/>
</g>
<!-- Node3 -->
<g id="node3" class="node"><title>Node3</title>
<polygon fill="white" stroke="#bfbfbf" points="120,-168.5 120,-187.5 186,-187.5 186,-168.5 120,-168.5"/>
<text text-anchor="middle" x="153" y="-175.5" font-family="Helvetica,sans-Serif" font-size="10.00">QTcpServer</text>
</g>
<!-- Node2&#45;&gt;Node3 -->
<g id="edge2" class="edge"><title>Node2&#45;&gt;Node3</title>
<path fill="none" stroke="midnightblue" d="M300.271,-224.444C270.574,-215.28 223.284,-200.688 190.331,-190.519"/>
<polygon fill="midnightblue" stroke="midnightblue" points="191.187,-187.121 180.6,-187.516 189.123,-193.809 191.187,-187.121"/>
</g>
<!-- Node4 -->
<g id="node4" class="node"><title>Node4</title>
<polygon fill="white" stroke="#bfbfbf" points="242,-168.5 242,-187.5 282,-187.5 282,-168.5 242,-168.5"/>
<text text-anchor="middle" x="262" y="-175.5" font-family="Helvetica,sans-Serif" font-size="10.00">QList</text>
</g>
<!-- Node2&#45;&gt;Node4 -->
<g id="edge3" class="edge"><title>Node2&#45;&gt;Node4</title>
<path fill="none" stroke="midnightblue" d="M317.396,-224.324C307.544,-216.263 292.649,-204.077 280.785,-194.369"/>
<polygon fill="midnightblue" stroke="midnightblue" points="282.753,-191.457 272.797,-187.834 278.32,-196.875 282.753,-191.457"/>
</g>
<!-- Node5 -->
<g id="node5" class="node"><title>Node5</title>
<polygon fill="white" stroke="#bfbfbf" points="374.5,-168.5 374.5,-187.5 421.5,-187.5 421.5,-168.5 374.5,-168.5"/>
<text text-anchor="middle" x="398" y="-175.5" font-family="Helvetica,sans-Serif" font-size="10.00">QHash</text>
</g>
<!-- Node2&#45;&gt;Node5 -->
<g id="edge4" class="edge"><title>Node2&#45;&gt;Node5</title>
<path fill="none" stroke="midnightblue" d="M339.247,-224.324C349.797,-216.185 365.801,-203.839 378.442,-194.087"/>
<polygon fill="midnightblue" stroke="midnightblue" points="380.769,-196.713 386.549,-187.834 376.493,-191.171 380.769,-196.713"/>
</g>
<!-- Node6 -->
<g id="node6" class="node"><title>Node6</title>
<g id="a_node6"><a xlink:href="../../d1/de1/uiclient_8h.html" target="_top" xlink:title="uiclient.h">
<polygon fill="white" stroke="black" points="300,-168.5 300,-187.5 356,-187.5 356,-168.5 300,-168.5"/>
<text text-anchor="middle" x="328" y="-175.5" font-family="Helvetica,sans-Serif" font-size="10.00">uiclient.h</text>
</a>
</g>
</g>
<!-- Node2&#45;&gt;Node6 -->
<g id="edge5" class="edge"><title>Node2&#45;&gt;Node6</title>
<path fill="none" stroke="midnightblue" d="M328,-224.083C328,-217.006 328,-206.861 328,-197.986"/>
<polygon fill="midnightblue" stroke="midnightblue" points="331.5,-197.751 328,-187.751 324.5,-197.751 331.5,-197.751"/>
</g>
<!-- Node10 -->
<g id="node10" class="node"><title>Node10</title>
<g id="a_node10"><a xlink:href="../../d7/d62/clslog_8h.html" target="_top" xlink:title="../resources/clslog.h">
<polygon fill="white" stroke="black" points="378.5,-56.5 378.5,-75.5 483.5,-75.5 483.5,-56.5 378.5,-56.5"/>
<text text-anchor="middle" x="431" y="-63.5" font-family="Helvetica,sans-Serif" font-size="10.00">../resources/clslog.h</text>
</a>
</g>
</g>
<!-- Node2&#45;&gt;Node10 -->
<g id="edge22" class="edge"><title>Node2&#45;&gt;Node10</title>
<path fill="none" stroke="midnightblue" d="M357.296,-228.823C381.338,-223.687 413.94,-212.418 430,-188 450.514,-156.81 443.03,-110.618 436.533,-85.2797"/>
<polygon fill="midnightblue" stroke="midnightblue" points="439.868,-84.2077 433.808,-75.5172 433.126,-86.09 439.868,-84.2077"/>
</g>
<!-- Node16 -->
<g id="node16" class="node"><title>Node16</title>
<g id="a_node16"><a xlink:href="../../dc/d96/jsoncommand_8h.html" target="_top" xlink:title="../resources/jsoncommand.h">
<polygon fill="white" stroke="black" points="38,-112.5 38,-131.5 178,-131.5 178,-112.5 38,-112.5"/>
<text text-anchor="middle" x="108" y="-119.5" font-family="Helvetica,sans-Serif" font-size="10.00">../resources/jsoncommand.h</text>
</a>
</g>
</g>
<!-- Node2&#45;&gt;Node16 -->
<g id="edge23" class="edge"><title>Node2&#45;&gt;Node16</title>
<path fill="none" stroke="midnightblue" d="M309.321,-224.435C290.082,-215.547 259.283,-201.134 233,-188 215.928,-179.469 211.92,-176.829 195,-168 174.393,-157.248 150.989,-145.149 133.65,-136.206"/>
<polygon fill="midnightblue" stroke="midnightblue" points="135.189,-133.062 124.697,-131.592 131.982,-139.284 135.189,-133.062"/>
</g>
<!-- Node6&#45;&gt;Node7 -->
<g id="edge6" class="edge"><title>Node6&#45;&gt;Node7</title>
<path fill="none" stroke="midnightblue" d="M356.098,-168.799C387.469,-159.641 438.461,-144.757 473.759,-134.454"/>
<polygon fill="midnightblue" stroke="midnightblue" points="475.101,-137.709 483.72,-131.547 473.14,-130.989 475.101,-137.709"/>
</g>
<!-- Node8 -->
<g id="node8" class="node"><title>Node8</title>
<polygon fill="white" stroke="#bfbfbf" points="304,-112.5 304,-131.5 384,-131.5 384,-112.5 304,-112.5"/>
<text text-anchor="middle" x="344" y="-119.5" font-family="Helvetica,sans-Serif" font-size="10.00">QHostAddress</text>
</g>
<!-- Node6&#45;&gt;Node8 -->
<g id="edge7" class="edge"><title>Node6&#45;&gt;Node8</title>
<path fill="none" stroke="midnightblue" d="M330.642,-168.083C332.786,-160.849 335.879,-150.409 338.549,-141.397"/>
<polygon fill="midnightblue" stroke="midnightblue" points="341.922,-142.333 341.407,-131.751 335.21,-140.345 341.922,-142.333"/>
</g>
<!-- Node9 -->
<g id="node9" class="node"><title>Node9</title>
<polygon fill="white" stroke="#bfbfbf" points="196.5,-112.5 196.5,-131.5 285.5,-131.5 285.5,-112.5 196.5,-112.5"/>
<text text-anchor="middle" x="241" y="-119.5" font-family="Helvetica,sans-Serif" font-size="10.00">QJsonDocument</text>
</g>
<!-- Node6&#45;&gt;Node9 -->
<g id="edge8" class="edge"><title>Node6&#45;&gt;Node9</title>
<path fill="none" stroke="midnightblue" d="M314.022,-168.324C300.45,-159.9 279.62,-146.971 263.675,-137.074"/>
<polygon fill="midnightblue" stroke="midnightblue" points="265.286,-133.954 254.943,-131.655 261.594,-139.902 265.286,-133.954"/>
</g>
<!-- Node6&#45;&gt;Node10 -->
<g id="edge9" class="edge"><title>Node6&#45;&gt;Node10</title>
<path fill="none" stroke="midnightblue" d="M344.169,-168.49C358.299,-160.471 378.73,-147.406 393,-132 405.883,-118.092 416.365,-99.0803 423.032,-85.2118"/>
<polygon fill="midnightblue" stroke="midnightblue" points="426.371,-86.327 427.363,-75.7786 420.009,-83.4062 426.371,-86.327"/>
</g>
<!-- Node6&#45;&gt;Node16 -->
<g id="edge15" class="edge"><title>Node6&#45;&gt;Node16</title>
<path fill="none" stroke="midnightblue" d="M299.689,-170.051C262.437,-160.907 196.55,-144.735 152.575,-133.941"/>
<polygon fill="midnightblue" stroke="midnightblue" points="153.267,-130.507 142.721,-131.522 151.599,-137.305 153.267,-130.507"/>
</g>
<!-- Node10&#45;&gt;Node11 -->
<g id="edge10" class="edge"><title>Node10&#45;&gt;Node11</title>
<path fill="none" stroke="midnightblue" d="M448.995,-56.324C467.038,-47.6247 495.047,-34.1202 515.803,-24.113"/>
<polygon fill="midnightblue" stroke="midnightblue" points="517.562,-27.1502 525.05,-19.6545 514.522,-20.8449 517.562,-27.1502"/>
</g>
<!-- Node12 -->
<g id="node12" class="node"><title>Node12</title>
<polygon fill="white" stroke="#bfbfbf" points="291.5,-0.5 291.5,-19.5 356.5,-19.5 356.5,-0.5 291.5,-0.5"/>
<text text-anchor="middle" x="324" y="-7.5" font-family="Helvetica,sans-Serif" font-size="10.00">QDateTime</text>
</g>
<!-- Node10&#45;&gt;Node12 -->
<g id="edge11" class="edge"><title>Node10&#45;&gt;Node12</title>
<path fill="none" stroke="midnightblue" d="M413.809,-56.324C396.649,-47.6641 370.054,-34.2424 350.253,-24.249"/>
<polygon fill="midnightblue" stroke="midnightblue" points="351.653,-21.0354 341.149,-19.6545 348.499,-27.2847 351.653,-21.0354"/>
</g>
<!-- Node13 -->
<g id="node13" class="node"><title>Node13</title>
<polygon fill="white" stroke="#bfbfbf" points="374.5,-0.5 374.5,-19.5 415.5,-19.5 415.5,-0.5 374.5,-0.5"/>
<text text-anchor="middle" x="395" y="-7.5" font-family="Helvetica,sans-Serif" font-size="10.00">string</text>
</g>
<!-- Node10&#45;&gt;Node13 -->
<g id="edge12" class="edge"><title>Node10&#45;&gt;Node13</title>
<path fill="none" stroke="midnightblue" d="M425.055,-56.083C420.023,-48.5341 412.663,-37.4948 406.487,-28.2298"/>
<polygon fill="midnightblue" stroke="midnightblue" points="409.293,-26.1301 400.834,-19.7511 403.469,-30.0131 409.293,-26.1301"/>
</g>
<!-- Node10&#45;&gt;Node14 -->
<g id="edge13" class="edge"><title>Node10&#45;&gt;Node14</title>
<path fill="none" stroke="midnightblue" d="M459.997,-56.4435C491.735,-47.0782 542.691,-32.0419 577.218,-21.8536"/>
<polygon fill="midnightblue" stroke="midnightblue" points="578.328,-25.1755 586.929,-18.9883 576.347,-18.4617 578.328,-25.1755"/>
</g>
<!-- Node15 -->
<g id="node15" class="node"><title>Node15</title>
<polygon fill="white" stroke="#bfbfbf" points="433.5,-0.5 433.5,-19.5 498.5,-19.5 498.5,-0.5 433.5,-0.5"/>
<text text-anchor="middle" x="466" y="-7.5" font-family="Helvetica,sans-Serif" font-size="10.00">QStringList</text>
</g>
<!-- Node10&#45;&gt;Node15 -->
<g id="edge14" class="edge"><title>Node10&#45;&gt;Node15</title>
<path fill="none" stroke="midnightblue" d="M436.78,-56.083C441.672,-48.5341 448.827,-37.4948 454.833,-28.2298"/>
<polygon fill="midnightblue" stroke="midnightblue" points="457.826,-30.0463 460.328,-19.7511 451.952,-26.239 457.826,-30.0463"/>
</g>
<!-- Node17 -->
<g id="node17" class="node"><title>Node17</title>
<polygon fill="white" stroke="#bfbfbf" points="-0.5,-56.5 -0.5,-75.5 52.5,-75.5 52.5,-56.5 -0.5,-56.5"/>
<text text-anchor="middle" x="26" y="-63.5" font-family="Helvetica,sans-Serif" font-size="10.00">QObject</text>
</g>
<!-- Node16&#45;&gt;Node17 -->
<g id="edge16" class="edge"><title>Node16&#45;&gt;Node17</title>
<path fill="none" stroke="midnightblue" d="M94.8253,-112.324C82.1532,-103.979 62.7666,-91.2122 47.7944,-81.3524"/>
<polygon fill="midnightblue" stroke="midnightblue" points="49.4187,-78.2313 39.142,-75.6545 45.5688,-84.0776 49.4187,-78.2313"/>
</g>
<!-- Node18 -->
<g id="node18" class="node"><title>Node18</title>
<polygon fill="white" stroke="#bfbfbf" points="71,-56.5 71,-75.5 145,-75.5 145,-56.5 71,-56.5"/>
<text text-anchor="middle" x="108" y="-63.5" font-family="Helvetica,sans-Serif" font-size="10.00">QVariantMap</text>
</g>
<!-- Node16&#45;&gt;Node18 -->
<g id="edge17" class="edge"><title>Node16&#45;&gt;Node18</title>
<path fill="none" stroke="midnightblue" d="M108,-112.083C108,-105.006 108,-94.8611 108,-85.9865"/>
<polygon fill="midnightblue" stroke="midnightblue" points="111.5,-85.751 108,-75.7511 104.5,-85.7511 111.5,-85.751"/>
</g>
<!-- Node19 -->
<g id="node19" class="node"><title>Node19</title>
<g id="a_node19"><a xlink:href="../../d4/d05/json_8h.html" target="_top" xlink:title="json.h">
<polygon fill="white" stroke="black" points="163.5,-56.5 163.5,-75.5 206.5,-75.5 206.5,-56.5 163.5,-56.5"/>
<text text-anchor="middle" x="185" y="-63.5" font-family="Helvetica,sans-Serif" font-size="10.00">json.h</text>
</a>
</g>
</g>
<!-- Node16&#45;&gt;Node19 -->
<g id="edge18" class="edge"><title>Node16&#45;&gt;Node19</title>
<path fill="none" stroke="midnightblue" d="M120.371,-112.324C132.158,-104.058 150.132,-91.4527 164.136,-81.6322"/>
<polygon fill="midnightblue" stroke="midnightblue" points="166.482,-84.2619 172.659,-75.6545 162.462,-78.5307 166.482,-84.2619"/>
</g>
<!-- Node16&#45;&gt;Node10 -->
<g id="edge21" class="edge"><title>Node16&#45;&gt;Node10</title>
<path fill="none" stroke="midnightblue" d="M159.18,-112.444C216.472,-102.865 309.244,-87.3556 370.188,-77.1667"/>
<polygon fill="midnightblue" stroke="midnightblue" points="370.773,-80.6175 380.059,-75.5164 369.619,-73.7134 370.773,-80.6175"/>
</g>
<!-- Node20 -->
<g id="node20" class="node"><title>Node20</title>
<polygon fill="white" stroke="#bfbfbf" points="188.5,-0.5 188.5,-19.5 243.5,-19.5 243.5,-0.5 188.5,-0.5"/>
<text text-anchor="middle" x="216" y="-7.5" font-family="Helvetica,sans-Serif" font-size="10.00">QVariant</text>
</g>
<!-- Node19&#45;&gt;Node20 -->
<g id="edge19" class="edge"><title>Node19&#45;&gt;Node20</title>
<path fill="none" stroke="midnightblue" d="M190.119,-56.083C194.408,-48.6127 200.658,-37.7244 205.942,-28.5199"/>
<polygon fill="midnightblue" stroke="midnightblue" points="209.033,-30.1662 210.976,-19.7511 202.962,-26.6811 209.033,-30.1662"/>
</g>
<!-- Node21 -->
<g id="node21" class="node"><title>Node21</title>
<polygon fill="white" stroke="#bfbfbf" points="120,-0.5 120,-19.5 170,-19.5 170,-0.5 120,-0.5"/>
<text text-anchor="middle" x="145" y="-7.5" font-family="Helvetica,sans-Serif" font-size="10.00">QString</text>
</g>
<!-- Node19&#45;&gt;Node21 -->
<g id="edge20" class="edge"><title>Node19&#45;&gt;Node21</title>
<path fill="none" stroke="midnightblue" d="M178.395,-56.083C172.745,-48.4554 164.455,-37.2645 157.549,-27.9408"/>
<polygon fill="midnightblue" stroke="midnightblue" points="160.247,-25.7034 151.482,-19.7511 154.622,-29.87 160.247,-25.7034"/>
</g>
</g>
</svg>
        <g id="navigator" transform="translate(0 0)" fill="#404254">
                <rect fill="#f2f5e9" fill-opacity="0.5" stroke="#606060" stroke-width=".5" x="0" y="0" width="60" height="60"/>
                <use id="zoomplus" xlink:href="#zoomPlus" x="17" y="9" onmousedown="handleZoom(evt,'in')"/>
                <use id="zoomminus" xlink:href="#zoomMin" x="42" y="9" onmousedown="handleZoom(evt,'out')"/>
                <use id="reset" xlink:href="#resetDef" x="30" y="36" onmousedown="handleReset()"/>
                <g id="arrowUp" xlink:href="#dirArrow" transform="translate(30 24)" onmousedown="handlePan(0,-1)">
                  <use xlink:href="#rim" fill="#404040">
                        <set attributeName="fill" to="#808080" begin="arrowUp.mouseover" end="arrowUp.mouseout"/>
                  </use>
                  <path fill="none" stroke="white" stroke-width="1.5" d="M0,-3.0v7 M-2.5,-0.5L0,-3.0L2.5,-0.5"/>
                </g>
                <g id="arrowRight" xlink:href="#dirArrow" transform="rotate(90) translate(36 -43)" onmousedown="handlePan(1,0)">
                  <use xlink:href="#rim" fill="#404040">
                        <set attributeName="fill" to="#808080" begin="arrowRight.mouseover" end="arrowRight.mouseout"/>
                  </use>
                  <path fill="none" stroke="white" stroke-width="1.5" d="M0,-3.0v7 M-2.5,-0.5L0,-3.0L2.5,-0.5"/>
                </g>
                <g id="arrowDown" xlink:href="#dirArrow" transform="rotate(180) translate(-30 -48)" onmousedown="handlePan(0,1)">
                  <use xlink:href="#rim" fill="#404040">
                        <set attributeName="fill" to="#808080" begin="arrowDown.mouseover" end="arrowDown.mouseout"/>
                  </use>
                  <path fill="none" stroke="white" stroke-width="1.5" d="M0,-3.0v7 M-2.5,-0.5L0,-3.0L2.5,-0.5"/>
                </g>
                <g id="arrowLeft" xlink:href="#dirArrow" transform="rotate(270) translate(-36 17)" onmousedown="handlePan(-1,0)">
                  <use xlink:href="#rim" fill="#404040">
                        <set attributeName="fill" to="#808080" begin="arrowLeft.mouseover" end="arrowLeft.mouseout"/>
                  </use>
                  <path fill="none" stroke="white" stroke-width="1.5" d="M0,-3.0v7 M-2.5,-0.5L0,-3.0L2.5,-0.5"/>
                </g>
        </g>
        <svg viewBox="0 0 15 15" width="100%" height="30px" preserveAspectRatio="xMaxYMin meet">
         <g id="arrow_out" transform="scale(0.3 0.3)">
          <a xlink:href="uiserver_8cpp__incl_org.svg" target="_base">
           <rect id="button" ry="5" rx="5" y="6" x="6" height="38" width="38"
                fill="#f2f5e9" fill-opacity="0.5" stroke="#606060" stroke-width="1.0"/>
           <path id="arrow"
             d="M 11.500037,31.436501 C 11.940474,20.09759 22.043105,11.32322 32.158766,21.979434 L 37.068811,17.246167 C 37.068811,17.246167 37.088388,32 37.088388,32 L 22.160133,31.978069 C 22.160133,31.978069 26.997745,27.140456 26.997745,27.140456 C 18.528582,18.264221 13.291696,25.230495 11.500037,31.436501 z"
             style="fill:#404040;"/>
          </a>
         </g>
        </svg>
</svg>
