<?xml version="1.0" encoding="UTF-8" standalone="no"?>
<!DOCTYPE svg PUBLIC "-//W3C//DTD SVG 1.1//EN"
 "http://www.w3.org/Graphics/SVG/1.1/DTD/svg11.dtd">
<!-- Generated by graphviz version 2.30.1 (20130303.0817)
 -->
<!-- Title: C++/customIrcServer/ircuser.cpp Pages: 1 -->
<svg width="516pt" height="208pt"
 viewBox="0.00 0.00 516.00 208.00" xmlns="http://www.w3.org/2000/svg" xmlns:xlink="http://www.w3.org/1999/xlink">
<g id="graph0" class="graph" transform="scale(1 1) rotate(0) translate(4 204)">
<title>C++/customIrcServer/ircuser.cpp</title>
<polygon fill="white" stroke="white" points="-4,5 -4,-204 513,-204 513,5 -4,5"/>
<!-- Node1 -->
<g id="node1" class="node"><title>Node1</title>
<polygon fill="#bfbfbf" stroke="black" points="223,-169 223,-199 331,-199 331,-169 223,-169"/>
<text text-anchor="start" x="231" y="-187" font-family="Helvetica,sans-Serif" font-size="10.00">C++/customIrcServer</text>
<text text-anchor="middle" x="277" y="-176" font-family="Helvetica,sans-Serif" font-size="10.00">/ircuser.cpp</text>
</g>
<!-- Node2 -->
<g id="node2" class="node"><title>Node2</title>
<g id="a_node2"><a xlink:href="../../d6/d32/custom_irc_server_2ircuser_8h.xhtml" target="_top" xlink:title="ircuser.h">
<polygon fill="white" stroke="black" points="250,-112.5 250,-131.5 304,-131.5 304,-112.5 250,-112.5"/>
<text text-anchor="middle" x="277" y="-119.5" font-family="Helvetica,sans-Serif" font-size="10.00">ircuser.h</text>
</a>
</g>
</g>
<!-- Node1&#45;&gt;Node2 -->
<g id="edge1" class="edge"><title>Node1&#45;&gt;Node2</title>
<path fill="none" stroke="midnightblue" d="M277,-168.781C277,-160.781 277,-150.689 277,-142.017"/>
<polygon fill="midnightblue" stroke="midnightblue" points="280.5,-141.73 277,-131.731 273.5,-141.731 280.5,-141.73"/>
</g>
<!-- Node3 -->
<g id="node3" class="node"><title>Node3</title>
<polygon fill="white" stroke="#bfbfbf" points="0,-0.5 0,-19.5 50,-19.5 50,-0.5 0,-0.5"/>
<text text-anchor="middle" x="25" y="-7.5" font-family="Helvetica,sans-Serif" font-size="10.00">QString</text>
</g>
<!-- Node2&#45;&gt;Node3 -->
<g id="edge2" class="edge"><title>Node2&#45;&gt;Node3</title>
<path fill="none" stroke="midnightblue" d="M249.755,-114.564C220.259,-107.123 172.181,-93.6069 133,-76 101.006,-61.6228 66.7389,-39.7687 45.5866,-25.4361"/>
<polygon fill="midnightblue" stroke="midnightblue" points="47.333,-22.3897 37.1076,-19.616 43.3715,-28.1609 47.333,-22.3897"/>
</g>
<!-- Node4 -->
<g id="node4" class="node"><title>Node4</title>
<polygon fill="white" stroke="#bfbfbf" points="347.5,-56.5 347.5,-75.5 400.5,-75.5 400.5,-56.5 347.5,-56.5"/>
<text text-anchor="middle" x="374" y="-63.5" font-family="Helvetica,sans-Serif" font-size="10.00">QVector</text>
</g>
<!-- Node2&#45;&gt;Node4 -->
<g id="edge3" class="edge"><title>Node2&#45;&gt;Node4</title>
<path fill="none" stroke="midnightblue" d="M292.585,-112.324C307.999,-103.743 331.812,-90.486 349.71,-80.5224"/>
<polygon fill="midnightblue" stroke="midnightblue" points="351.419,-83.5767 358.454,-75.6545 348.014,-77.4606 351.419,-83.5767"/>
</g>
<!-- Node5 -->
<g id="node5" class="node"><title>Node5</title>
<polygon fill="white" stroke="#bfbfbf" points="419,-56.5 419,-75.5 493,-75.5 493,-56.5 419,-56.5"/>
<text text-anchor="middle" x="456" y="-63.5" font-family="Helvetica,sans-Serif" font-size="10.00">QVariantMap</text>
</g>
<!-- Node2&#45;&gt;Node5 -->
<g id="edge4" class="edge"><title>Node2&#45;&gt;Node5</title>
<path fill="none" stroke="midnightblue" d="M304.186,-112.799C334.54,-103.641 383.879,-88.7572 418.032,-78.454"/>
<polygon fill="midnightblue" stroke="midnightblue" points="419.106,-81.7858 427.669,-75.5467 417.085,-75.0841 419.106,-81.7858"/>
</g>
<!-- Node6 -->
<g id="node6" class="node"><title>Node6</title>
<g id="a_node6"><a xlink:href="../../d8/d5c/functions_8h.xhtml" target="_top" xlink:title="functions.h">
<polygon fill="white" stroke="black" points="142,-56.5 142,-75.5 206,-75.5 206,-56.5 142,-56.5"/>
<text text-anchor="middle" x="174" y="-63.5" font-family="Helvetica,sans-Serif" font-size="10.00">functions.h</text>
</a>
</g>
</g>
<!-- Node2&#45;&gt;Node6 -->
<g id="edge5" class="edge"><title>Node2&#45;&gt;Node6</title>
<path fill="none" stroke="midnightblue" d="M260.451,-112.324C244.008,-103.703 218.565,-90.3643 199.532,-80.3855"/>
<polygon fill="midnightblue" stroke="midnightblue" points="200.989,-77.198 190.508,-75.6545 197.739,-83.3977 200.989,-77.198"/>
</g>
<!-- Node10 -->
<g id="node10" class="node"><title>Node10</title>
<g id="a_node10"><a xlink:href="../../d7/d62/clslog_8h.xhtml" target="_top" xlink:title="../resources/clslog.h">
<polygon fill="white" stroke="black" points="224.5,-56.5 224.5,-75.5 329.5,-75.5 329.5,-56.5 224.5,-56.5"/>
<text text-anchor="middle" x="277" y="-63.5" font-family="Helvetica,sans-Serif" font-size="10.00">../resources/clslog.h</text>
</a>
</g>
</g>
<!-- Node2&#45;&gt;Node10 -->
<g id="edge10" class="edge"><title>Node2&#45;&gt;Node10</title>
<path fill="none" stroke="midnightblue" d="M277,-112.083C277,-105.006 277,-94.8611 277,-85.9865"/>
<polygon fill="midnightblue" stroke="midnightblue" points="280.5,-85.751 277,-75.7511 273.5,-85.7511 280.5,-85.751"/>
</g>
<!-- Node7 -->
<g id="node7" class="node"><title>Node7</title>
<polygon fill="white" stroke="#bfbfbf" points="240.5,-0.5 240.5,-19.5 281.5,-19.5 281.5,-0.5 240.5,-0.5"/>
<text text-anchor="middle" x="261" y="-7.5" font-family="Helvetica,sans-Serif" font-size="10.00">string</text>
</g>
<!-- Node6&#45;&gt;Node7 -->
<g id="edge6" class="edge"><title>Node6&#45;&gt;Node7</title>
<path fill="none" stroke="midnightblue" d="M187.978,-56.324C201.55,-47.9002 222.38,-34.9709 238.325,-25.0741"/>
<polygon fill="midnightblue" stroke="midnightblue" points="240.406,-27.9019 247.057,-19.6545 236.714,-21.9544 240.406,-27.9019"/>
</g>
<!-- Node6&#45;&gt;Node3 -->
<g id="edge7" class="edge"><title>Node6&#45;&gt;Node3</title>
<path fill="none" stroke="midnightblue" d="M150.391,-56.4435C125.542,-47.4381 86.2256,-33.1891 58.2464,-23.049"/>
<polygon fill="midnightblue" stroke="midnightblue" points="59.0932,-19.6332 48.499,-19.5164 56.7081,-26.2144 59.0932,-19.6332"/>
</g>
<!-- Node8 -->
<g id="node8" class="node"><title>Node8</title>
<polygon fill="white" stroke="#bfbfbf" points="157.5,-0.5 157.5,-19.5 222.5,-19.5 222.5,-0.5 157.5,-0.5"/>
<text text-anchor="middle" x="190" y="-7.5" font-family="Helvetica,sans-Serif" font-size="10.00">QStringList</text>
</g>
<!-- Node6&#45;&gt;Node8 -->
<g id="edge8" class="edge"><title>Node6&#45;&gt;Node8</title>
<path fill="none" stroke="midnightblue" d="M176.642,-56.083C178.786,-48.8486 181.879,-38.4087 184.549,-29.3968"/>
<polygon fill="midnightblue" stroke="midnightblue" points="187.922,-30.3334 187.407,-19.7511 181.21,-28.3447 187.922,-30.3334"/>
</g>
<!-- Node9 -->
<g id="node9" class="node"><title>Node9</title>
<polygon fill="white" stroke="#bfbfbf" points="68.5,-0.5 68.5,-19.5 139.5,-19.5 139.5,-0.5 68.5,-0.5"/>
<text text-anchor="middle" x="104" y="-7.5" font-family="Helvetica,sans-Serif" font-size="10.00">QVariantList</text>
</g>
<!-- Node6&#45;&gt;Node9 -->
<g id="edge9" class="edge"><title>Node6&#45;&gt;Node9</title>
<path fill="none" stroke="midnightblue" d="M162.753,-56.324C152.203,-48.1849 136.199,-35.8395 123.558,-26.0874"/>
<polygon fill="midnightblue" stroke="midnightblue" points="125.507,-23.1707 115.451,-19.8339 121.231,-28.7132 125.507,-23.1707"/>
</g>
<!-- Node11 -->
<g id="node11" class="node"><title>Node11</title>
<polygon fill="white" stroke="#bfbfbf" points="300,-0.5 300,-19.5 352,-19.5 352,-0.5 300,-0.5"/>
<text text-anchor="middle" x="326" y="-7.5" font-family="Helvetica,sans-Serif" font-size="10.00">QDebug</text>
</g>
<!-- Node10&#45;&gt;Node11 -->
<g id="edge11" class="edge"><title>Node10&#45;&gt;Node11</title>
<path fill="none" stroke="midnightblue" d="M285.091,-56.083C292.155,-48.2982 302.588,-36.8015 311.149,-27.3665"/>
<polygon fill="midnightblue" stroke="midnightblue" points="313.931,-29.5087 318.059,-19.7511 308.747,-24.8047 313.931,-29.5087"/>
</g>
<!-- Node12 -->
<g id="node12" class="node"><title>Node12</title>
<polygon fill="white" stroke="#bfbfbf" points="370.5,-0.5 370.5,-19.5 435.5,-19.5 435.5,-0.5 370.5,-0.5"/>
<text text-anchor="middle" x="403" y="-7.5" font-family="Helvetica,sans-Serif" font-size="10.00">QDateTime</text>
</g>
<!-- Node10&#45;&gt;Node12 -->
<g id="edge12" class="edge"><title>Node10&#45;&gt;Node12</title>
<path fill="none" stroke="midnightblue" d="M296.965,-56.4435C317.609,-47.5961 350.063,-33.6875 373.632,-23.5865"/>
<polygon fill="midnightblue" stroke="midnightblue" points="375.316,-26.6727 383.128,-19.5164 372.558,-20.2387 375.316,-26.6727"/>
</g>
<!-- Node10&#45;&gt;Node7 -->
<g id="edge13" class="edge"><title>Node10&#45;&gt;Node7</title>
<path fill="none" stroke="midnightblue" d="M274.358,-56.083C272.214,-48.8486 269.121,-38.4087 266.451,-29.3968"/>
<polygon fill="midnightblue" stroke="midnightblue" points="269.79,-28.3447 263.593,-19.7511 263.078,-30.3334 269.79,-28.3447"/>
</g>
<!-- Node13 -->
<g id="node13" class="node"><title>Node13</title>
<polygon fill="white" stroke="#bfbfbf" points="454,-0.5 454,-19.5 508,-19.5 508,-0.5 454,-0.5"/>
<text text-anchor="middle" x="481" y="-7.5" font-family="Helvetica,sans-Serif" font-size="10.00">iostream</text>
</g>
<!-- Node10&#45;&gt;Node13 -->
<g id="edge14" class="edge"><title>Node10&#45;&gt;Node13</title>
<path fill="none" stroke="midnightblue" d="M309.324,-56.4435C345.936,-46.7521 405.49,-30.9879 443.95,-20.8075"/>
<polygon fill="midnightblue" stroke="midnightblue" points="444.952,-24.1628 453.723,-18.2203 443.161,-17.3958 444.952,-24.1628"/>
</g>
<!-- Node10&#45;&gt;Node8 -->
<g id="edge15" class="edge"><title>Node10&#45;&gt;Node8</title>
<path fill="none" stroke="midnightblue" d="M263.022,-56.324C249.45,-47.9002 228.62,-34.9709 212.675,-25.0741"/>
<polygon fill="midnightblue" stroke="midnightblue" points="214.286,-21.9544 203.943,-19.6545 210.594,-27.9019 214.286,-21.9544"/>
</g>
</g>
</svg>
