<?xml version="1.0" encoding="UTF-8" standalone="no"?>
<!DOCTYPE svg PUBLIC "-//W3C//DTD SVG 1.1//EN"
 "http://www.w3.org/Graphics/SVG/1.1/DTD/svg11.dtd">
<!-- Generated by graphviz version 2.30.1 (20130303.0817)
 -->
<!-- Title: C++/customIrcClient/chatentry.h Pages: 1 -->
<svg width="360pt" height="244pt"
 viewBox="0.00 0.00 360.00 244.00" xmlns="http://www.w3.org/2000/svg" xmlns:xlink="http://www.w3.org/1999/xlink">
<g id="graph0" class="graph" transform="scale(1 1) rotate(0) translate(4 240)">
<title>C++/customIrcClient/chatentry.h</title>
<polygon fill="white" stroke="white" points="-4,5 -4,-240 357,-240 357,5 -4,5"/>
<!-- Node1 -->
<g id="node1" class="node"><title>Node1</title>
<polygon fill="#bfbfbf" stroke="black" points="185,-205 185,-235 291,-235 291,-205 185,-205"/>
<text text-anchor="start" x="193" y="-223" font-family="Helvetica,sans-Serif" font-size="10.00">C++/customIrcClient</text>
<text text-anchor="middle" x="238" y="-212" font-family="Helvetica,sans-Serif" font-size="10.00">/chatentry.h</text>
</g>
<!-- Node2 -->
<g id="node2" class="node"><title>Node2</title>
<g id="a_node2"><a xlink:href="../../d3/d33/chatbox_8h.xhtml" target="_top" xlink:title="C++/customIrcClient\l/chatbox.h">
<polygon fill="white" stroke="black" points="134,-137 134,-167 240,-167 240,-137 134,-137"/>
<text text-anchor="start" x="142" y="-155" font-family="Helvetica,sans-Serif" font-size="10.00">C++/customIrcClient</text>
<text text-anchor="middle" x="187" y="-144" font-family="Helvetica,sans-Serif" font-size="10.00">/chatbox.h</text>
</a>
</g>
</g>
<!-- Node1&#45;&gt;Node2 -->
<g id="edge1" class="edge"><title>Node1&#45;&gt;Node2</title>
<path fill="none" stroke="midnightblue" d="M220.697,-196.608C213.205,-186.912 204.657,-175.85 198.045,-167.293"/>
<polygon fill="midnightblue" stroke="midnightblue" points="218.05,-198.906 226.934,-204.679 223.589,-194.626 218.05,-198.906"/>
</g>
<!-- Node4 -->
<g id="node4" class="node"><title>Node4</title>
<g id="a_node4"><a xlink:href="../../d0/dc6/chatentry_8cpp.xhtml" target="_top" xlink:title="C++/customIrcClient\l/chatentry.cpp">
<polygon fill="white" stroke="black" points="247,-69 247,-99 353,-99 353,-69 247,-69"/>
<text text-anchor="start" x="255" y="-87" font-family="Helvetica,sans-Serif" font-size="10.00">C++/customIrcClient</text>
<text text-anchor="middle" x="300" y="-76" font-family="Helvetica,sans-Serif" font-size="10.00">/chatentry.cpp</text>
</a>
</g>
</g>
<!-- Node1&#45;&gt;Node4 -->
<g id="edge7" class="edge"><title>Node1&#45;&gt;Node4</title>
<path fill="none" stroke="midnightblue" d="M248.984,-195.261C261.869,-167.412 282.816,-122.141 293.413,-99.2372"/>
<polygon fill="midnightblue" stroke="midnightblue" points="245.658,-194.114 244.635,-204.66 252.011,-197.054 245.658,-194.114"/>
</g>
<!-- Node3 -->
<g id="node3" class="node"><title>Node3</title>
<g id="a_node3"><a xlink:href="../../de/da9/chatbox_8cpp.xhtml" target="_top" xlink:title="C++/customIrcClient\l/chatbox.cpp">
<polygon fill="white" stroke="black" points="-1,-69 -1,-99 105,-99 105,-69 -1,-69"/>
<text text-anchor="start" x="7" y="-87" font-family="Helvetica,sans-Serif" font-size="10.00">C++/customIrcClient</text>
<text text-anchor="middle" x="52" y="-76" font-family="Helvetica,sans-Serif" font-size="10.00">/chatbox.cpp</text>
</a>
</g>
</g>
<!-- Node2&#45;&gt;Node3 -->
<g id="edge2" class="edge"><title>Node2&#45;&gt;Node3</title>
<path fill="none" stroke="midnightblue" d="M148.829,-132.339C127.265,-121.796 100.744,-108.83 80.913,-99.1352"/>
<polygon fill="midnightblue" stroke="midnightblue" points="147.518,-135.594 158.039,-136.841 150.593,-129.305 147.518,-135.594"/>
</g>
<!-- Node2&#45;&gt;Node4 -->
<g id="edge3" class="edge"><title>Node2&#45;&gt;Node4</title>
<path fill="none" stroke="midnightblue" d="M220.171,-131.626C237.993,-121.217 259.572,-108.613 275.799,-99.1352"/>
<polygon fill="midnightblue" stroke="midnightblue" points="218.111,-128.776 211.241,-136.841 221.642,-134.82 218.111,-128.776"/>
</g>
<!-- Node5 -->
<g id="node5" class="node"><title>Node5</title>
<g id="a_node5"><a xlink:href="../../d9/d53/mainwindow_8h.xhtml" target="_top" xlink:title="C++/customIrcClient\l/mainwindow.h">
<polygon fill="white" stroke="black" points="123,-69 123,-99 229,-99 229,-69 123,-69"/>
<text text-anchor="start" x="131" y="-87" font-family="Helvetica,sans-Serif" font-size="10.00">C++/customIrcClient</text>
<text text-anchor="middle" x="176" y="-76" font-family="Helvetica,sans-Serif" font-size="10.00">/mainwindow.h</text>
</a>
</g>
</g>
<!-- Node2&#45;&gt;Node5 -->
<g id="edge4" class="edge"><title>Node2&#45;&gt;Node5</title>
<path fill="none" stroke="midnightblue" d="M182.922,-126.532C181.393,-117.361 179.707,-107.245 178.382,-99.2931"/>
<polygon fill="midnightblue" stroke="midnightblue" points="179.517,-127.39 184.613,-136.679 186.421,-126.24 179.517,-127.39"/>
</g>
<!-- Node6 -->
<g id="node6" class="node"><title>Node6</title>
<g id="a_node6"><a xlink:href="../../df/d94/custom_irc_client_2main_8cpp.xhtml" target="_top" xlink:title="C++/customIrcClient\l/main.cpp">
<polygon fill="white" stroke="black" points="61,-1 61,-31 167,-31 167,-1 61,-1"/>
<text text-anchor="start" x="69" y="-19" font-family="Helvetica,sans-Serif" font-size="10.00">C++/customIrcClient</text>
<text text-anchor="middle" x="114" y="-8" font-family="Helvetica,sans-Serif" font-size="10.00">/main.cpp</text>
</a>
</g>
</g>
<!-- Node5&#45;&gt;Node6 -->
<g id="edge5" class="edge"><title>Node5&#45;&gt;Node6</title>
<path fill="none" stroke="midnightblue" d="M155.515,-61.1939C146.278,-51.3605 135.627,-40.0228 127.427,-31.2931"/>
<polygon fill="midnightblue" stroke="midnightblue" points="153.149,-63.7869 162.547,-68.679 158.251,-58.9941 153.149,-63.7869"/>
</g>
<!-- Node7 -->
<g id="node7" class="node"><title>Node7</title>
<g id="a_node7"><a xlink:href="../../d8/dd9/mainwindow_8cpp.xhtml" target="_top" xlink:title="C++/customIrcClient\l/mainwindow.cpp">
<polygon fill="white" stroke="black" points="185,-1 185,-31 291,-31 291,-1 185,-1"/>
<text text-anchor="start" x="193" y="-19" font-family="Helvetica,sans-Serif" font-size="10.00">C++/customIrcClient</text>
<text text-anchor="middle" x="238" y="-8" font-family="Helvetica,sans-Serif" font-size="10.00">/mainwindow.cpp</text>
</a>
</g>
</g>
<!-- Node5&#45;&gt;Node7 -->
<g id="edge6" class="edge"><title>Node5&#45;&gt;Node7</title>
<path fill="none" stroke="midnightblue" d="M196.485,-61.1939C205.722,-51.3605 216.373,-40.0228 224.573,-31.2931"/>
<polygon fill="midnightblue" stroke="midnightblue" points="193.749,-58.9941 189.453,-68.679 198.851,-63.7869 193.749,-58.9941"/>
</g>
</g>
</svg>
