<?xml version="1.0" encoding="UTF-8" standalone="no"?>
<!DOCTYPE svg PUBLIC "-//W3C//DTD SVG 1.1//EN"
 "http://www.w3.org/Graphics/SVG/1.1/DTD/svg11.dtd">
<!-- Generated by graphviz version 2.30.1 (20130303.0817)
 -->
<!-- Title: C++/resources/jsoncommand.h Pages: 1 -->
<svg width="605pt" height="300pt"
 viewBox="0.00 0.00 605.00 300.00" xmlns="http://www.w3.org/2000/svg" xmlns:xlink="http://www.w3.org/1999/xlink">
<g id="graph0" class="graph" transform="scale(1 1) rotate(0) translate(4 296)">
<title>C++/resources/jsoncommand.h</title>
<polygon fill="white" stroke="white" points="-4,5 -4,-296 602,-296 602,5 -4,5"/>
<!-- Node1 -->
<g id="node1" class="node"><title>Node1</title>
<polygon fill="#bfbfbf" stroke="black" points="202.5,-272.5 202.5,-291.5 355.5,-291.5 355.5,-272.5 202.5,-272.5"/>
<text text-anchor="middle" x="279" y="-279.5" font-family="Helvetica,sans-Serif" font-size="10.00">C++/resources/jsoncommand.h</text>
</g>
<!-- Node2 -->
<g id="node2" class="node"><title>Node2</title>
<g id="a_node2"><a xlink:href="../../d5/dbc/clsserverconn_8h.xhtml" target="_top" xlink:title="C++/customIrcClient\l/clsserverconn.h">
<polygon fill="white" stroke="black" points="123,-205 123,-235 229,-235 229,-205 123,-205"/>
<text text-anchor="start" x="131" y="-223" font-family="Helvetica,sans-Serif" font-size="10.00">C++/customIrcClient</text>
<text text-anchor="middle" x="176" y="-212" font-family="Helvetica,sans-Serif" font-size="10.00">/clsserverconn.h</text>
</a>
</g>
</g>
<!-- Node1&#45;&gt;Node2 -->
<g id="edge1" class="edge"><title>Node1&#45;&gt;Node2</title>
<path fill="none" stroke="midnightblue" d="M255.243,-267.161C238.759,-257.559 216.87,-244.808 200.275,-235.141"/>
<polygon fill="midnightblue" stroke="midnightblue" points="253.84,-270.394 264.243,-272.403 257.364,-264.346 253.84,-270.394"/>
</g>
<!-- Node3 -->
<g id="node3" class="node"><title>Node3</title>
<g id="a_node3"><a xlink:href="../../db/d1f/clsserverconn_8cpp.xhtml" target="_top" xlink:title="C++/customIrcClient\l/clsserverconn.cpp">
<polygon fill="white" stroke="black" points="-1,-137 -1,-167 105,-167 105,-137 -1,-137"/>
<text text-anchor="start" x="7" y="-155" font-family="Helvetica,sans-Serif" font-size="10.00">C++/customIrcClient</text>
<text text-anchor="middle" x="52" y="-144" font-family="Helvetica,sans-Serif" font-size="10.00">/clsserverconn.cpp</text>
</a>
</g>
</g>
<!-- Node1&#45;&gt;Node3 -->
<g id="edge6" class="edge"><title>Node1&#45;&gt;Node3</title>
<path fill="none" stroke="midnightblue" d="M199.243,-270.324C170.574,-263.738 139.139,-253.115 114,-236 87.8331,-218.185 68.341,-185.635 58.7138,-167.031"/>
<polygon fill="midnightblue" stroke="midnightblue" points="198.74,-273.796 209.254,-272.49 200.22,-266.955 198.74,-273.796"/>
</g>
<!-- Node7 -->
<g id="node7" class="node"><title>Node7</title>
<g id="a_node7"><a xlink:href="../../d1/de1/uiclient_8h.xhtml" target="_top" xlink:title="C++/customIrcServer\l/uiclient.h">
<polygon fill="white" stroke="black" points="307,-205 307,-235 415,-235 415,-205 307,-205"/>
<text text-anchor="start" x="315" y="-223" font-family="Helvetica,sans-Serif" font-size="10.00">C++/customIrcServer</text>
<text text-anchor="middle" x="361" y="-212" font-family="Helvetica,sans-Serif" font-size="10.00">/uiclient.h</text>
</a>
</g>
</g>
<!-- Node1&#45;&gt;Node7 -->
<g id="edge7" class="edge"><title>Node1&#45;&gt;Node7</title>
<path fill="none" stroke="midnightblue" d="M299.027,-266.346C312.01,-256.846 328.833,-244.537 341.674,-235.141"/>
<polygon fill="midnightblue" stroke="midnightblue" points="296.752,-263.674 290.749,-272.403 300.886,-269.323 296.752,-263.674"/>
</g>
<!-- Node8 -->
<g id="node8" class="node"><title>Node8</title>
<g id="a_node8"><a xlink:href="../../d7/d1c/uiserver_8h.xhtml" target="_top" xlink:title="C++/customIrcServer\l/uiserver.h">
<polygon fill="white" stroke="black" points="247,-137 247,-167 355,-167 355,-137 247,-137"/>
<text text-anchor="start" x="255" y="-155" font-family="Helvetica,sans-Serif" font-size="10.00">C++/customIrcServer</text>
<text text-anchor="middle" x="301" y="-144" font-family="Helvetica,sans-Serif" font-size="10.00">/uiserver.h</text>
</a>
</g>
</g>
<!-- Node1&#45;&gt;Node8 -->
<g id="edge15" class="edge"><title>Node1&#45;&gt;Node8</title>
<path fill="none" stroke="midnightblue" d="M282.236,-262.171C286.685,-236.287 294.59,-190.294 298.569,-167.143"/>
<polygon fill="midnightblue" stroke="midnightblue" points="278.757,-261.754 280.512,-272.202 285.656,-262.939 278.757,-261.754"/>
</g>
<!-- Node14 -->
<g id="node14" class="node"><title>Node14</title>
<g id="a_node14"><a xlink:href="../../d9/d73/jsoncommand_8cpp.xhtml" target="_top" xlink:title="C++/resources/jsoncommand.cpp">
<polygon fill="white" stroke="black" points="433,-210.5 433,-229.5 597,-229.5 597,-210.5 433,-210.5"/>
<text text-anchor="middle" x="515" y="-217.5" font-family="Helvetica,sans-Serif" font-size="10.00">C++/resources/jsoncommand.cpp</text>
</a>
</g>
</g>
<!-- Node1&#45;&gt;Node14 -->
<g id="edge16" class="edge"><title>Node1&#45;&gt;Node14</title>
<path fill="none" stroke="midnightblue" d="M322.523,-269.935C368.453,-258.258 439.845,-240.107 481.553,-229.503"/>
<polygon fill="midnightblue" stroke="midnightblue" points="321.392,-266.611 312.562,-272.467 323.117,-273.395 321.392,-266.611"/>
</g>
<!-- Node2&#45;&gt;Node3 -->
<g id="edge2" class="edge"><title>Node2&#45;&gt;Node3</title>
<path fill="none" stroke="midnightblue" d="M140.406,-200.055C120.696,-189.564 96.6087,-176.743 78.5571,-167.135"/>
<polygon fill="midnightblue" stroke="midnightblue" points="138.927,-203.232 149.399,-204.841 142.216,-197.053 138.927,-203.232"/>
</g>
<!-- Node4 -->
<g id="node4" class="node"><title>Node4</title>
<g id="a_node4"><a xlink:href="../../d9/d53/mainwindow_8h.xhtml" target="_top" xlink:title="C++/customIrcClient\l/mainwindow.h">
<polygon fill="white" stroke="black" points="123,-137 123,-167 229,-167 229,-137 123,-137"/>
<text text-anchor="start" x="131" y="-155" font-family="Helvetica,sans-Serif" font-size="10.00">C++/customIrcClient</text>
<text text-anchor="middle" x="176" y="-144" font-family="Helvetica,sans-Serif" font-size="10.00">/mainwindow.h</text>
</a>
</g>
</g>
<!-- Node2&#45;&gt;Node4 -->
<g id="edge3" class="edge"><title>Node2&#45;&gt;Node4</title>
<path fill="none" stroke="midnightblue" d="M176,-194.532C176,-185.361 176,-175.245 176,-167.293"/>
<polygon fill="midnightblue" stroke="midnightblue" points="172.5,-194.679 176,-204.679 179.5,-194.679 172.5,-194.679"/>
</g>
<!-- Node5 -->
<g id="node5" class="node"><title>Node5</title>
<g id="a_node5"><a xlink:href="../../df/d94/custom_irc_client_2main_8cpp.xhtml" target="_top" xlink:title="C++/customIrcClient\l/main.cpp">
<polygon fill="white" stroke="black" points="-1,-69 -1,-99 105,-99 105,-69 -1,-69"/>
<text text-anchor="start" x="7" y="-87" font-family="Helvetica,sans-Serif" font-size="10.00">C++/customIrcClient</text>
<text text-anchor="middle" x="52" y="-76" font-family="Helvetica,sans-Serif" font-size="10.00">/main.cpp</text>
</a>
</g>
</g>
<!-- Node4&#45;&gt;Node5 -->
<g id="edge4" class="edge"><title>Node4&#45;&gt;Node5</title>
<path fill="none" stroke="midnightblue" d="M140.406,-132.055C120.696,-121.564 96.6087,-108.743 78.5571,-99.1352"/>
<polygon fill="midnightblue" stroke="midnightblue" points="138.927,-135.232 149.399,-136.841 142.216,-129.053 138.927,-135.232"/>
</g>
<!-- Node6 -->
<g id="node6" class="node"><title>Node6</title>
<g id="a_node6"><a xlink:href="../../d8/dd9/mainwindow_8cpp.xhtml" target="_top" xlink:title="C++/customIrcClient\l/mainwindow.cpp">
<polygon fill="white" stroke="black" points="123,-69 123,-99 229,-99 229,-69 123,-69"/>
<text text-anchor="start" x="131" y="-87" font-family="Helvetica,sans-Serif" font-size="10.00">C++/customIrcClient</text>
<text text-anchor="middle" x="176" y="-76" font-family="Helvetica,sans-Serif" font-size="10.00">/mainwindow.cpp</text>
</a>
</g>
</g>
<!-- Node4&#45;&gt;Node6 -->
<g id="edge5" class="edge"><title>Node4&#45;&gt;Node6</title>
<path fill="none" stroke="midnightblue" d="M176,-126.532C176,-117.361 176,-107.245 176,-99.2931"/>
<polygon fill="midnightblue" stroke="midnightblue" points="172.5,-126.679 176,-136.679 179.5,-126.679 172.5,-126.679"/>
</g>
<!-- Node7&#45;&gt;Node8 -->
<g id="edge8" class="edge"><title>Node7&#45;&gt;Node8</title>
<path fill="none" stroke="midnightblue" d="M341.176,-197.194C332.237,-187.36 321.93,-176.023 313.994,-167.293"/>
<polygon fill="midnightblue" stroke="midnightblue" points="338.664,-199.634 347.981,-204.679 343.844,-194.925 338.664,-199.634"/>
</g>
<!-- Node9 -->
<g id="node9" class="node"><title>Node9</title>
<g id="a_node9"><a xlink:href="../../db/df6/mainapp_8h.xhtml" target="_top" xlink:title="C++/customIrcServer\l/mainapp.h">
<polygon fill="white" stroke="black" points="373,-69 373,-99 481,-99 481,-69 373,-69"/>
<text text-anchor="start" x="381" y="-87" font-family="Helvetica,sans-Serif" font-size="10.00">C++/customIrcServer</text>
<text text-anchor="middle" x="427" y="-76" font-family="Helvetica,sans-Serif" font-size="10.00">/mainapp.h</text>
</a>
</g>
</g>
<!-- Node7&#45;&gt;Node9 -->
<g id="edge13" class="edge"><title>Node7&#45;&gt;Node9</title>
<path fill="none" stroke="midnightblue" d="M372.512,-195.627C386.213,-167.809 408.657,-122.241 419.988,-99.2372"/>
<polygon fill="midnightblue" stroke="midnightblue" points="369.342,-194.142 368.063,-204.66 375.622,-197.235 369.342,-194.142"/>
</g>
<!-- Node13 -->
<g id="node13" class="node"><title>Node13</title>
<g id="a_node13"><a xlink:href="../../d2/d44/uiclient_8cpp.xhtml" target="_top" xlink:title="C++/customIrcServer\l/uiclient.cpp">
<polygon fill="white" stroke="black" points="411,-137 411,-167 519,-167 519,-137 411,-137"/>
<text text-anchor="start" x="419" y="-155" font-family="Helvetica,sans-Serif" font-size="10.00">C++/customIrcServer</text>
<text text-anchor="middle" x="465" y="-144" font-family="Helvetica,sans-Serif" font-size="10.00">/uiclient.cpp</text>
</a>
</g>
</g>
<!-- Node7&#45;&gt;Node13 -->
<g id="edge14" class="edge"><title>Node7&#45;&gt;Node13</title>
<path fill="none" stroke="midnightblue" d="M391.981,-199.339C408.295,-188.986 427.929,-176.526 442.726,-167.135"/>
<polygon fill="midnightblue" stroke="midnightblue" points="389.879,-196.528 383.311,-204.841 393.629,-202.438 389.879,-196.528"/>
</g>
<!-- Node8&#45;&gt;Node9 -->
<g id="edge9" class="edge"><title>Node8&#45;&gt;Node9</title>
<path fill="none" stroke="midnightblue" d="M336.897,-132.197C356.974,-121.68 381.589,-108.787 400.015,-99.1352"/>
<polygon fill="midnightblue" stroke="midnightblue" points="335.264,-129.101 328.03,-136.841 338.513,-135.302 335.264,-129.101"/>
</g>
<!-- Node12 -->
<g id="node12" class="node"><title>Node12</title>
<g id="a_node12"><a xlink:href="../../df/db8/uiserver_8cpp.xhtml" target="_top" xlink:title="C++/customIrcServer\l/uiserver.cpp">
<polygon fill="white" stroke="black" points="247,-69 247,-99 355,-99 355,-69 247,-69"/>
<text text-anchor="start" x="255" y="-87" font-family="Helvetica,sans-Serif" font-size="10.00">C++/customIrcServer</text>
<text text-anchor="middle" x="301" y="-76" font-family="Helvetica,sans-Serif" font-size="10.00">/uiserver.cpp</text>
</a>
</g>
</g>
<!-- Node8&#45;&gt;Node12 -->
<g id="edge12" class="edge"><title>Node8&#45;&gt;Node12</title>
<path fill="none" stroke="midnightblue" d="M301,-126.532C301,-117.361 301,-107.245 301,-99.2931"/>
<polygon fill="midnightblue" stroke="midnightblue" points="297.5,-126.679 301,-136.679 304.5,-126.679 297.5,-126.679"/>
</g>
<!-- Node10 -->
<g id="node10" class="node"><title>Node10</title>
<g id="a_node10"><a xlink:href="../../dc/d17/custom_irc_server_2main_8cpp.xhtml" target="_top" xlink:title="C++/customIrcServer\l/main.cpp">
<polygon fill="white" stroke="black" points="310,-1 310,-31 418,-31 418,-1 310,-1"/>
<text text-anchor="start" x="318" y="-19" font-family="Helvetica,sans-Serif" font-size="10.00">C++/customIrcServer</text>
<text text-anchor="middle" x="364" y="-8" font-family="Helvetica,sans-Serif" font-size="10.00">/main.cpp</text>
</a>
</g>
</g>
<!-- Node9&#45;&gt;Node10 -->
<g id="edge10" class="edge"><title>Node9&#45;&gt;Node10</title>
<path fill="none" stroke="midnightblue" d="M406.185,-61.1939C396.799,-51.3605 385.976,-40.0228 377.643,-31.2931"/>
<polygon fill="midnightblue" stroke="midnightblue" points="403.893,-63.8621 413.33,-68.679 408.957,-59.0287 403.893,-63.8621"/>
</g>
<!-- Node11 -->
<g id="node11" class="node"><title>Node11</title>
<g id="a_node11"><a xlink:href="../../d8/d88/mainapp_8cpp.xhtml" target="_top" xlink:title="C++/customIrcServer\l/mainapp.cpp">
<polygon fill="white" stroke="black" points="436,-1 436,-31 544,-31 544,-1 436,-1"/>
<text text-anchor="start" x="444" y="-19" font-family="Helvetica,sans-Serif" font-size="10.00">C++/customIrcServer</text>
<text text-anchor="middle" x="490" y="-8" font-family="Helvetica,sans-Serif" font-size="10.00">/mainapp.cpp</text>
</a>
</g>
</g>
<!-- Node9&#45;&gt;Node11 -->
<g id="edge11" class="edge"><title>Node9&#45;&gt;Node11</title>
<path fill="none" stroke="midnightblue" d="M447.815,-61.1939C457.201,-51.3605 468.024,-40.0228 476.357,-31.2931"/>
<polygon fill="midnightblue" stroke="midnightblue" points="445.043,-59.0287 440.67,-68.679 450.107,-63.8621 445.043,-59.0287"/>
</g>
</g>
</svg>
