<?xml version="1.0" encoding="UTF-8" standalone="no"?>
<!DOCTYPE svg PUBLIC "-//W3C//DTD SVG 1.1//EN"
 "http://www.w3.org/Graphics/SVG/1.1/DTD/svg11.dtd">
<!-- Generated by graphviz version 2.30.1 (20130303.0817)
 -->
<!-- Title: client::MainWindow::serverConnected Pages: 1 -->
<svg width="632pt" height="154pt"
 viewBox="0.00 0.00 632.00 154.00" xmlns="http://www.w3.org/2000/svg" xmlns:xlink="http://www.w3.org/1999/xlink">
<g id="graph0" class="graph" transform="scale(1 1) rotate(0) translate(4 150)">
<title>client::MainWindow::serverConnected</title>
<polygon fill="white" stroke="white" points="-4,5 -4,-150 629,-150 629,5 -4,5"/>
<!-- Node1 -->
<g id="node1" class="node"><title>Node1</title>
<polygon fill="#bfbfbf" stroke="black" points="0.5,-99 0.5,-129 101.5,-129 101.5,-99 0.5,-99"/>
<text text-anchor="start" x="8.5" y="-117" font-family="Helvetica,sans-Serif" font-size="10.00">client::MainWindow</text>
<text text-anchor="middle" x="51" y="-106" font-family="Helvetica,sans-Serif" font-size="10.00">::serverConnected</text>
</g>
<!-- Node2 -->
<g id="node2" class="node"><title>Node2</title>
<g id="a_node2"><a xlink:href="../../d3/d65/classclient_1_1cls_server_conn.xhtml#a997f9cd3d63321807f60472308acc459" target="_top" xlink:title="Send a JSON command to the server.">
<polygon fill="white" stroke="black" points="138,-99 138,-129 246,-129 246,-99 138,-99"/>
<text text-anchor="start" x="146" y="-117" font-family="Helvetica,sans-Serif" font-size="10.00">client::clsServerConn</text>
<text text-anchor="middle" x="192" y="-106" font-family="Helvetica,sans-Serif" font-size="10.00">::sendCommand</text>
</a>
</g>
</g>
<!-- Node1&#45;&gt;Node2 -->
<g id="edge1" class="edge"><title>Node1&#45;&gt;Node2</title>
<path fill="none" stroke="midnightblue" d="M101.79,-114C110.188,-114 119.005,-114 127.692,-114"/>
<polygon fill="midnightblue" stroke="midnightblue" points="127.798,-117.5 137.798,-114 127.798,-110.5 127.798,-117.5"/>
</g>
<!-- Node3 -->
<g id="node3" class="node"><title>Node3</title>
<g id="a_node3"><a xlink:href="../../d6/d75/namespace_k4_u.xhtml#aaddaee50fab2801df390147891b0c09d" target="_top" xlink:title="K4U::endl">
<polygon fill="white" stroke="black" points="321.5,-126.5 321.5,-145.5 380.5,-145.5 380.5,-126.5 321.5,-126.5"/>
<text text-anchor="middle" x="351" y="-133.5" font-family="Helvetica,sans-Serif" font-size="10.00">K4U::endl</text>
</a>
</g>
</g>
<!-- Node2&#45;&gt;Node3 -->
<g id="edge2" class="edge"><title>Node2&#45;&gt;Node3</title>
<path fill="none" stroke="midnightblue" d="M246.153,-121.448C267.418,-124.428 291.462,-127.797 311.056,-130.543"/>
<polygon fill="midnightblue" stroke="midnightblue" points="310.758,-134.035 321.147,-131.957 311.729,-127.103 310.758,-134.035"/>
</g>
<!-- Node5 -->
<g id="node5" class="node"><title>Node5</title>
<g id="a_node5"><a xlink:href="../../d2/dc1/class_k4_u_1_1json_command.xhtml#a0b681a1fedfb2e89397b1f71e29edf78" target="_top" xlink:title="Transforms this object to a nice JSON string.">
<polygon fill="white" stroke="black" points="282,-55 282,-85 420,-85 420,-55 282,-55"/>
<text text-anchor="start" x="290" y="-73" font-family="Helvetica,sans-Serif" font-size="10.00">K4U::jsonCommand::toJson</text>
<text text-anchor="middle" x="351" y="-62" font-family="Helvetica,sans-Serif" font-size="10.00">String</text>
</a>
</g>
</g>
<!-- Node2&#45;&gt;Node5 -->
<g id="edge5" class="edge"><title>Node2&#45;&gt;Node5</title>
<path fill="none" stroke="midnightblue" d="M246.153,-99.1036C259.181,-95.4524 273.253,-91.5087 286.705,-87.7386"/>
<polygon fill="midnightblue" stroke="midnightblue" points="287.683,-91.0996 296.367,-85.0308 285.794,-84.3593 287.683,-91.0996"/>
</g>
<!-- Node4 -->
<g id="node4" class="node"><title>Node4</title>
<g id="a_node4"><a xlink:href="../../da/d64/class_k4_u_1_1cls_log.xhtml#a81f179b2ccb3e2abeb9b47f5b83de935" target="_top" xlink:title="K4U::clsLog::doEndl">
<polygon fill="white" stroke="black" points="487,-126.5 487,-145.5 593,-145.5 593,-126.5 487,-126.5"/>
<text text-anchor="middle" x="540" y="-133.5" font-family="Helvetica,sans-Serif" font-size="10.00">K4U::clsLog::doEndl</text>
</a>
</g>
</g>
<!-- Node3&#45;&gt;Node4 -->
<g id="edge3" class="edge"><title>Node3&#45;&gt;Node4</title>
<path fill="none" stroke="midnightblue" d="M380.809,-130.964C406.232,-129.311 444.17,-128.854 476.52,-129.592"/>
<polygon fill="midnightblue" stroke="midnightblue" points="476.712,-133.098 486.804,-129.873 476.904,-126.101 476.712,-133.098"/>
</g>
<!-- Node4&#45;&gt;Node3 -->
<g id="edge4" class="edge"><title>Node4&#45;&gt;Node3</title>
<path fill="none" stroke="midnightblue" d="M486.804,-142.127C456.411,-143.106 418.73,-142.931 390.94,-141.602"/>
<polygon fill="midnightblue" stroke="midnightblue" points="390.989,-138.099 380.809,-141.036 390.598,-145.088 390.989,-138.099"/>
</g>
<!-- Node6 -->
<g id="node6" class="node"><title>Node6</title>
<g id="a_node6"><a xlink:href="../../d2/dc1/class_k4_u_1_1json_command.xhtml#ac6bc0d606265f47db9bae5a6a40cb244" target="_top" xlink:title="getCommandString">
<polygon fill="white" stroke="black" points="456.5,-77 456.5,-107 623.5,-107 623.5,-77 456.5,-77"/>
<text text-anchor="start" x="464.5" y="-95" font-family="Helvetica,sans-Serif" font-size="10.00">K4U::jsonCommand::getCommand</text>
<text text-anchor="middle" x="540" y="-84" font-family="Helvetica,sans-Serif" font-size="10.00">String</text>
</a>
</g>
</g>
<!-- Node5&#45;&gt;Node6 -->
<g id="edge6" class="edge"><title>Node5&#45;&gt;Node6</title>
<path fill="none" stroke="midnightblue" d="M420.04,-78.0047C428.614,-79.0134 437.497,-80.0585 446.37,-81.1023"/>
<polygon fill="midnightblue" stroke="midnightblue" points="446.025,-84.5858 456.366,-82.2783 446.843,-77.6338 446.025,-84.5858"/>
</g>
<!-- Node7 -->
<g id="node7" class="node"><title>Node7</title>
<g id="a_node7"><a xlink:href="../../d2/dc1/class_k4_u_1_1json_command.xhtml#ab408a8b051e005a7156e19ea8a1f7f3a" target="_top" xlink:title="Gets all data items.">
<polygon fill="white" stroke="black" points="468.5,-38.5 468.5,-57.5 611.5,-57.5 611.5,-38.5 468.5,-38.5"/>
<text text-anchor="middle" x="540" y="-45.5" font-family="Helvetica,sans-Serif" font-size="10.00">K4U::jsonCommand::getData</text>
</a>
</g>
</g>
<!-- Node5&#45;&gt;Node7 -->
<g id="edge7" class="edge"><title>Node5&#45;&gt;Node7</title>
<path fill="none" stroke="midnightblue" d="M420.04,-61.9953C432.483,-60.5314 445.577,-58.991 458.345,-57.4889"/>
<polygon fill="midnightblue" stroke="midnightblue" points="458.973,-60.9391 468.496,-56.2946 458.155,-53.9871 458.973,-60.9391"/>
</g>
<!-- Node8 -->
<g id="node8" class="node"><title>Node8</title>
<g id="a_node8"><a xlink:href="../../d2/d6d/namespace_qt_json.xhtml#ace7d6102379674932334bea04fb15c12" target="_top" xlink:title="QtJson::serialize">
<polygon fill="white" stroke="black" points="495.5,-0.5 495.5,-19.5 584.5,-19.5 584.5,-0.5 495.5,-0.5"/>
<text text-anchor="middle" x="540" y="-7.5" font-family="Helvetica,sans-Serif" font-size="10.00">QtJson::serialize</text>
</a>
</g>
</g>
<!-- Node5&#45;&gt;Node8 -->
<g id="edge8" class="edge"><title>Node5&#45;&gt;Node8</title>
<path fill="none" stroke="midnightblue" d="M386.673,-54.8135C406.675,-46.4381 432.455,-36.2906 456,-29 465.328,-26.1118 475.368,-23.4491 485.131,-21.0878"/>
<polygon fill="midnightblue" stroke="midnightblue" points="486.226,-24.4263 495.165,-18.7393 484.63,-17.6105 486.226,-24.4263"/>
</g>
</g>
</svg>
