<?xml version="1.0" encoding="UTF-8" standalone="no"?>
<!DOCTYPE svg PUBLIC "-//W3C//DTD SVG 1.1//EN"
 "http://www.w3.org/Graphics/SVG/1.1/DTD/svg11.dtd">
<!-- Generated by graphviz version 2.30.1 (20130303.0817)
 -->
<!-- Title: client::MainWindow::userStatusChange Pages: 1 -->
<svg width="294pt" height="87pt"
 viewBox="0.00 0.00 294.00 87.00" xmlns="http://www.w3.org/2000/svg" xmlns:xlink="http://www.w3.org/1999/xlink">
<g id="graph0" class="graph" transform="scale(1 1) rotate(0) translate(4 83)">
<title>client::MainWindow::userStatusChange</title>
<polygon fill="white" stroke="white" points="-4,5 -4,-83 291,-83 291,5 -4,5"/>
<!-- Node1 -->
<g id="node1" class="node"><title>Node1</title>
<polygon fill="#bfbfbf" stroke="black" points="0.5,-24 0.5,-54 103.5,-54 103.5,-24 0.5,-24"/>
<text text-anchor="start" x="8.5" y="-42" font-family="Helvetica,sans-Serif" font-size="10.00">client::MainWindow</text>
<text text-anchor="middle" x="52" y="-31" font-family="Helvetica,sans-Serif" font-size="10.00">::userStatusChange</text>
</g>
<!-- Node2 -->
<g id="node2" class="node"><title>Node2</title>
<g id="a_node2"><a xlink:href="../../d3/dcc/classshared_1_1events_1_1event_user_change_status.html#a4c904f38f1ff994ebb9a9ec251604874" target="_top" xlink:title="Gets the DB&#45;ID of the user that changed status.">
<polygon fill="white" stroke="black" points="149,-49 149,-79 277,-79 277,-49 149,-49"/>
<text text-anchor="start" x="157" y="-67" font-family="Helvetica,sans-Serif" font-size="10.00">shared::events::eventUser</text>
<text text-anchor="middle" x="213" y="-56" font-family="Helvetica,sans-Serif" font-size="10.00">ChangeStatus::getUserId</text>
</a>
</g>
</g>
<!-- Node1&#45;&gt;Node2 -->
<g id="edge1" class="edge"><title>Node1&#45;&gt;Node2</title>
<path fill="none" stroke="midnightblue" d="M103.746,-46.9789C114.964,-48.7428 127.066,-50.6455 138.972,-52.5176"/>
<polygon fill="midnightblue" stroke="midnightblue" points="138.482,-55.9834 148.904,-54.0792 139.569,-49.0684 138.482,-55.9834"/>
</g>
<!-- Node3 -->
<g id="node3" class="node"><title>Node3</title>
<g id="a_node3"><a xlink:href="../../d3/dcc/classshared_1_1events_1_1event_user_change_status.html#a018d111b0b5b957754b20d777f7f1bef" target="_top" xlink:title="Gets the new status of the user.">
<polygon fill="white" stroke="black" points="140.5,-0 140.5,-30 285.5,-30 285.5,-0 140.5,-0"/>
<text text-anchor="start" x="148.5" y="-18" font-family="Helvetica,sans-Serif" font-size="10.00">shared::events::eventUser</text>
<text text-anchor="middle" x="213" y="-7" font-family="Helvetica,sans-Serif" font-size="10.00">ChangeStatus::getNewStatus</text>
</a>
</g>
</g>
<!-- Node1&#45;&gt;Node3 -->
<g id="edge2" class="edge"><title>Node1&#45;&gt;Node3</title>
<path fill="none" stroke="midnightblue" d="M103.746,-31.3403C112.198,-30.0645 121.151,-28.713 130.145,-27.3555"/>
<polygon fill="midnightblue" stroke="midnightblue" points="130.926,-30.7774 140.291,-25.8239 129.881,-23.8558 130.926,-30.7774"/>
</g>
</g>
</svg>
