<?xml version="1.0" encoding="UTF-8" standalone="no"?>
<!DOCTYPE svg PUBLIC "-//W3C//DTD SVG 1.1//EN"
 "http://www.w3.org/Graphics/SVG/1.1/DTD/svg11.dtd">
<!-- Generated by graphviz version 2.30.1 (20130303.0817)
 -->
<!-- Title: client::MainWindow::showMessage Pages: 1 -->
<!--zoomable 167 -->
<svg id="main" version="1.1" xmlns="http://www.w3.org/2000/svg" xmlns:xlink="http://www.w3.org/1999/xlink" xml:space="preserve" onload="init(evt)">
        <defs>
                <circle id="rim" cx="0" cy="0" r="7"/>
                <circle id="rim2" cx="0" cy="0" r="3.5"/>
                <g id="zoomPlus">
                        <use xlink:href="#rim" fill="#404040">
                                <set attributeName="fill" to="#808080" begin="zoomplus.mouseover" end="zoomplus.mouseout"/>
                        </use>
                        <path d="M-4,0h8M0,-4v8" fill="none" stroke="white" stroke-width="1.5" pointer-events="none"/>
                </g>
                <g id="zoomMin">
                        <use xlink:href="#rim" fill="#404040">
                                <set attributeName="fill" to="#808080" begin="zoomminus.mouseover" end="zoomminus.mouseout"/>
                        </use>
                        <path d="M-4,0h8" fill="none" stroke="white" stroke-width="1.5" pointer-events="none"/>
                </g>
                <g id="dirArrow">
                        <path fill="none" stroke="white" stroke-width="1.5" d="M0,-3.0v7 M-2.5,-0.5L0,-3.0L2.5,-0.5"/>
                </g>
               <g id="resetDef">
                       <use xlink:href="#rim2" fill="#404040">
                               <set attributeName="fill" to="#808080" begin="reset.mouseover" end="reset.mouseout"/>
                       </use>
               </g>
        </defs>

<script type="text/javascript">
var viewWidth = 530;
var viewHeight = 167;
var sectionId = 'dynsection-20';
</script>
<script xlink:href="../../svgpan.js"/>
<svg id="graph" class="graph">
<g id="viewport">
<title>client::MainWindow::showMessage</title>
<polygon fill="white" stroke="white" points="-4,5 -4,-163.41 527,-163.41 527,5 -4,5"/>
<!-- Node1 -->
<g id="node1" class="node"><title>Node1</title>
<polygon fill="#bfbfbf" stroke="black" points="0.5,-62.1636 0.5,-92.1636 101.5,-92.1636 101.5,-62.1636 0.5,-62.1636"/>
<text text-anchor="start" x="8.5" y="-80.1636" font-family="Helvetica,sans-Serif" font-size="10.00">client::MainWindow</text>
<text text-anchor="middle" x="51" y="-69.1636" font-family="Helvetica,sans-Serif" font-size="10.00">::showMessage</text>
</g>
<!-- Node2 -->
<g id="node2" class="node"><title>Node2</title>
<g id="a_node2"><a xlink:href="../../d2/da4/classclient_1_1_main_window.html#ab4aedce719340218169c114b31b54f70" target="_top" xlink:title="client::MainWindow\l::MainWindow">
<polygon fill="white" stroke="black" points="420.5,-84.1636 420.5,-114.164 521.5,-114.164 521.5,-84.1636 420.5,-84.1636"/>
<text text-anchor="start" x="428.5" y="-102.164" font-family="Helvetica,sans-Serif" font-size="10.00">client::MainWindow</text>
<text text-anchor="middle" x="471" y="-91.1636" font-family="Helvetica,sans-Serif" font-size="10.00">::MainWindow</text>
</a>
</g>
</g>
<!-- Node1&#45;&gt;Node2 -->
<g id="edge1" class="edge"><title>Node1&#45;&gt;Node2</title>
<path fill="none" stroke="midnightblue" d="M72.2752,-99.8173C88.297,-115.911 112.197,-136.195 138,-145.164 242.157,-181.367 374.031,-138.767 435.516,-114.192"/>
<polygon fill="midnightblue" stroke="midnightblue" points="74.5225,-97.1047 65.069,-92.3213 69.4762,-101.956 74.5225,-97.1047"/>
</g>
<!-- Node3 -->
<g id="node3" class="node"><title>Node3</title>
<g id="a_node3"><a xlink:href="../../d2/da4/classclient_1_1_main_window.html#aae9222490d9f0d71ffa6585c35416bfb" target="_top" xlink:title="client::MainWindow\l::serverConnected">
<polygon fill="white" stroke="black" points="138.5,-106.164 138.5,-136.164 239.5,-136.164 239.5,-106.164 138.5,-106.164"/>
<text text-anchor="start" x="146.5" y="-124.164" font-family="Helvetica,sans-Serif" font-size="10.00">client::MainWindow</text>
<text text-anchor="middle" x="189" y="-113.164" font-family="Helvetica,sans-Serif" font-size="10.00">::serverConnected</text>
</a>
</g>
</g>
<!-- Node1&#45;&gt;Node3 -->
<g id="edge2" class="edge"><title>Node1&#45;&gt;Node3</title>
<path fill="none" stroke="midnightblue" d="M108.012,-95.285C119.086,-98.868 130.599,-102.593 141.324,-106.063"/>
<polygon fill="midnightblue" stroke="midnightblue" points="109.015,-91.931 98.4231,-92.1828 106.86,-98.5911 109.015,-91.931"/>
</g>
<!-- Node4 -->
<g id="node4" class="node"><title>Node4</title>
<g id="a_node4"><a xlink:href="../../d2/da4/classclient_1_1_main_window.html#a1453a7da1874881b67aa919390012e36" target="_top" xlink:title="client::MainWindow\l::serverDisconnected">
<polygon fill="white" stroke="black" points="276.5,-62.1636 276.5,-92.1636 383.5,-92.1636 383.5,-62.1636 276.5,-62.1636"/>
<text text-anchor="start" x="284.5" y="-80.1636" font-family="Helvetica,sans-Serif" font-size="10.00">client::MainWindow</text>
<text text-anchor="middle" x="330" y="-69.1636" font-family="Helvetica,sans-Serif" font-size="10.00">::serverDisconnected</text>
</a>
</g>
</g>
<!-- Node1&#45;&gt;Node4 -->
<g id="edge4" class="edge"><title>Node1&#45;&gt;Node4</title>
<path fill="none" stroke="midnightblue" d="M111.647,-77.1636C160.565,-77.1636 229.163,-77.1636 276.134,-77.1636"/>
<polygon fill="midnightblue" stroke="midnightblue" points="111.522,-73.6637 101.522,-77.1636 111.522,-80.6637 111.522,-73.6637"/>
</g>
<!-- Node5 -->
<g id="node5" class="node"><title>Node5</title>
<g id="a_node5"><a xlink:href="../../d2/da4/classclient_1_1_main_window.html#a6df87d6d4bb287478d307d7e45097187" target="_top" xlink:title="Triggered when we cannot connect to the server!">
<polygon fill="white" stroke="black" points="279,-13.1636 279,-43.1636 381,-43.1636 381,-13.1636 279,-13.1636"/>
<text text-anchor="start" x="287" y="-31.1636" font-family="Helvetica,sans-Serif" font-size="10.00">client::MainWindow</text>
<text text-anchor="middle" x="330" y="-20.1636" font-family="Helvetica,sans-Serif" font-size="10.00">::connectedTimeout</text>
</a>
</g>
</g>
<!-- Node1&#45;&gt;Node5 -->
<g id="edge6" class="edge"><title>Node1&#45;&gt;Node5</title>
<path fill="none" stroke="midnightblue" d="M72.2752,-54.5098C88.297,-38.4161 112.197,-18.1321 138,-9.16356 185.844,7.46622 244.208,-2.35011 283.733,-13.0704"/>
<polygon fill="midnightblue" stroke="midnightblue" points="69.4762,-52.3711 65.069,-62.0059 74.5225,-57.2224 69.4762,-52.3711"/>
</g>
<!-- Node6 -->
<g id="node6" class="node"><title>Node6</title>
<g id="a_node6"><a xlink:href="../../d2/da4/classclient_1_1_main_window.html#a4714272984f1518ea739cc5c809d8579" target="_top" xlink:title="client::MainWindow\l::doReconnect">
<polygon fill="white" stroke="black" points="138.5,-18.1636 138.5,-48.1636 239.5,-48.1636 239.5,-18.1636 138.5,-18.1636"/>
<text text-anchor="start" x="146.5" y="-36.1636" font-family="Helvetica,sans-Serif" font-size="10.00">client::MainWindow</text>
<text text-anchor="middle" x="189" y="-25.1636" font-family="Helvetica,sans-Serif" font-size="10.00">::doReconnect</text>
</a>
</g>
</g>
<!-- Node1&#45;&gt;Node6 -->
<g id="edge8" class="edge"><title>Node1&#45;&gt;Node6</title>
<path fill="none" stroke="midnightblue" d="M108.012,-59.0421C119.086,-55.4591 130.599,-51.7344 141.324,-48.2645"/>
<polygon fill="midnightblue" stroke="midnightblue" points="106.86,-55.736 98.4231,-62.1443 109.015,-62.3961 106.86,-55.736"/>
</g>
<!-- Node3&#45;&gt;Node2 -->
<g id="edge3" class="edge"><title>Node3&#45;&gt;Node2</title>
<path fill="none" stroke="midnightblue" d="M249.912,-116.456C300.68,-112.467 372.619,-106.815 420.257,-103.072"/>
<polygon fill="midnightblue" stroke="midnightblue" points="249.431,-112.983 239.736,-117.256 249.979,-119.962 249.431,-112.983"/>
</g>
<!-- Node4&#45;&gt;Node2 -->
<g id="edge5" class="edge"><title>Node4&#45;&gt;Node2</title>
<path fill="none" stroke="midnightblue" d="M393.517,-87.0584C402.432,-88.4693 411.501,-89.9048 420.131,-91.2706"/>
<polygon fill="midnightblue" stroke="midnightblue" points="393.974,-83.5872 383.55,-85.4808 392.88,-90.5011 393.974,-83.5872"/>
</g>
<!-- Node5&#45;&gt;Node2 -->
<g id="edge7" class="edge"><title>Node5&#45;&gt;Node2</title>
<path fill="none" stroke="midnightblue" d="M372.936,-47.7051C376.689,-49.5263 380.421,-51.3638 384,-53.1636 403.816,-63.1291 425.872,-74.9409 442.685,-84.0999"/>
<polygon fill="midnightblue" stroke="midnightblue" points="374.169,-44.4144 363.639,-43.2429 371.14,-50.7252 374.169,-44.4144"/>
</g>
<!-- Node6&#45;&gt;Node4 -->
<g id="edge9" class="edge"><title>Node6&#45;&gt;Node4</title>
<path fill="none" stroke="midnightblue" d="M247.247,-51.285C258.566,-54.868 270.333,-58.5927 281.295,-62.0626"/>
<polygon fill="midnightblue" stroke="midnightblue" points="248.037,-47.8639 237.447,-48.1828 245.925,-54.5376 248.037,-47.8639"/>
</g>
<!-- Node6&#45;&gt;Node5 -->
<g id="edge10" class="edge"><title>Node6&#45;&gt;Node5</title>
<path fill="none" stroke="midnightblue" d="M250.011,-31.0049C259.551,-30.6617 269.334,-30.3098 278.623,-29.9757"/>
<polygon fill="midnightblue" stroke="midnightblue" points="249.657,-27.5153 239.79,-31.3726 249.909,-34.5107 249.657,-27.5153"/>
</g>
</g>
</svg>
        <g id="navigator" transform="translate(0 0)" fill="#404254">
                <rect fill="#f2f5e9" fill-opacity="0.5" stroke="#606060" stroke-width=".5" x="0" y="0" width="60" height="60"/>
                <use id="zoomplus" xlink:href="#zoomPlus" x="17" y="9" onmousedown="handleZoom(evt,'in')"/>
                <use id="zoomminus" xlink:href="#zoomMin" x="42" y="9" onmousedown="handleZoom(evt,'out')"/>
                <use id="reset" xlink:href="#resetDef" x="30" y="36" onmousedown="handleReset()"/>
                <g id="arrowUp" xlink:href="#dirArrow" transform="translate(30 24)" onmousedown="handlePan(0,-1)">
                  <use xlink:href="#rim" fill="#404040">
                        <set attributeName="fill" to="#808080" begin="arrowUp.mouseover" end="arrowUp.mouseout"/>
                  </use>
                  <path fill="none" stroke="white" stroke-width="1.5" d="M0,-3.0v7 M-2.5,-0.5L0,-3.0L2.5,-0.5"/>
                </g>
                <g id="arrowRight" xlink:href="#dirArrow" transform="rotate(90) translate(36 -43)" onmousedown="handlePan(1,0)">
                  <use xlink:href="#rim" fill="#404040">
                        <set attributeName="fill" to="#808080" begin="arrowRight.mouseover" end="arrowRight.mouseout"/>
                  </use>
                  <path fill="none" stroke="white" stroke-width="1.5" d="M0,-3.0v7 M-2.5,-0.5L0,-3.0L2.5,-0.5"/>
                </g>
                <g id="arrowDown" xlink:href="#dirArrow" transform="rotate(180) translate(-30 -48)" onmousedown="handlePan(0,1)">
                  <use xlink:href="#rim" fill="#404040">
                        <set attributeName="fill" to="#808080" begin="arrowDown.mouseover" end="arrowDown.mouseout"/>
                  </use>
                  <path fill="none" stroke="white" stroke-width="1.5" d="M0,-3.0v7 M-2.5,-0.5L0,-3.0L2.5,-0.5"/>
                </g>
                <g id="arrowLeft" xlink:href="#dirArrow" transform="rotate(270) translate(-36 17)" onmousedown="handlePan(-1,0)">
                  <use xlink:href="#rim" fill="#404040">
                        <set attributeName="fill" to="#808080" begin="arrowLeft.mouseover" end="arrowLeft.mouseout"/>
                  </use>
                  <path fill="none" stroke="white" stroke-width="1.5" d="M0,-3.0v7 M-2.5,-0.5L0,-3.0L2.5,-0.5"/>
                </g>
        </g>
        <svg viewBox="0 0 15 15" width="100%" height="30px" preserveAspectRatio="xMaxYMin meet">
         <g id="arrow_out" transform="scale(0.3 0.3)">
          <a xlink:href="classclient_1_1_main_window_a39679af3cff16dcf78ae97733c3c1781_icgraph_org.svg" target="_base">
           <rect id="button" ry="5" rx="5" y="6" x="6" height="38" width="38"
                fill="#f2f5e9" fill-opacity="0.5" stroke="#606060" stroke-width="1.0"/>
           <path id="arrow"
             d="M 11.500037,31.436501 C 11.940474,20.09759 22.043105,11.32322 32.158766,21.979434 L 37.068811,17.246167 C 37.068811,17.246167 37.088388,32 37.088388,32 L 22.160133,31.978069 C 22.160133,31.978069 26.997745,27.140456 26.997745,27.140456 C 18.528582,18.264221 13.291696,25.230495 11.500037,31.436501 z"
             style="fill:#404040;"/>
          </a>
         </g>
        </svg>
</svg>
