<?xml version="1.0" encoding="UTF-8" standalone="no"?>
<!DOCTYPE svg PUBLIC "-//W3C//DTD SVG 1.1//EN"
 "http://www.w3.org/Graphics/SVG/1.1/DTD/svg11.dtd">
<!-- Generated by graphviz version 2.30.1 (20130303.0817)
 -->
<!-- Title: client::MainWindow::commandGiven Pages: 1 -->
<svg width="680pt" height="176pt"
 viewBox="0.00 0.00 680.00 176.00" xmlns="http://www.w3.org/2000/svg" xmlns:xlink="http://www.w3.org/1999/xlink">
<g id="graph0" class="graph" transform="scale(1 1) rotate(0) translate(4 172)">
<title>client::MainWindow::commandGiven</title>
<polygon fill="white" stroke="white" points="-4,5 -4,-172 677,-172 677,5 -4,5"/>
<!-- Node1 -->
<g id="node1" class="node"><title>Node1</title>
<polygon fill="#bfbfbf" stroke="black" points="0.5,-121 0.5,-151 101.5,-151 101.5,-121 0.5,-121"/>
<text text-anchor="start" x="8.5" y="-139" font-family="Helvetica,sans-Serif" font-size="10.00">client::MainWindow</text>
<text text-anchor="middle" x="51" y="-128" font-family="Helvetica,sans-Serif" font-size="10.00">::commandGiven</text>
</g>
<!-- Node2 -->
<g id="node2" class="node"><title>Node2</title>
<g id="a_node2"><a xlink:href="../../d2/dc1/class_k4_u_1_1json_command.xhtml#aa0629328322fb09be4494a0826bb19b5" target="_top" xlink:title="Adds data to the internal data map.">
<polygon fill="white" stroke="black" points="138.5,-148.5 138.5,-167.5 293.5,-167.5 293.5,-148.5 138.5,-148.5"/>
<text text-anchor="middle" x="216" y="-155.5" font-family="Helvetica,sans-Serif" font-size="10.00">K4U::jsonCommand::addToData</text>
</a>
</g>
</g>
<!-- Node1&#45;&gt;Node2 -->
<g id="edge1" class="edge"><title>Node1&#45;&gt;Node2</title>
<path fill="none" stroke="midnightblue" d="M101.791,-142.72C112.113,-144.113 123.239,-145.615 134.344,-147.114"/>
<polygon fill="midnightblue" stroke="midnightblue" points="134.135,-150.617 144.513,-148.486 135.071,-143.68 134.135,-150.617"/>
</g>
<!-- Node3 -->
<g id="node3" class="node"><title>Node3</title>
<g id="a_node3"><a xlink:href="../../d3/d65/classclient_1_1cls_server_conn.xhtml#a997f9cd3d63321807f60472308acc459" target="_top" xlink:title="Send a JSON command to the server.">
<polygon fill="white" stroke="black" points="162,-99 162,-129 270,-129 270,-99 162,-99"/>
<text text-anchor="start" x="170" y="-117" font-family="Helvetica,sans-Serif" font-size="10.00">client::clsServerConn</text>
<text text-anchor="middle" x="216" y="-106" font-family="Helvetica,sans-Serif" font-size="10.00">::sendCommand</text>
</a>
</g>
</g>
<!-- Node1&#45;&gt;Node3 -->
<g id="edge2" class="edge"><title>Node1&#45;&gt;Node3</title>
<path fill="none" stroke="midnightblue" d="M101.791,-129.28C117.53,-127.155 135.138,-124.779 151.691,-122.545"/>
<polygon fill="midnightblue" stroke="midnightblue" points="152.394,-125.982 161.836,-121.176 151.457,-119.045 152.394,-125.982"/>
</g>
<!-- Node4 -->
<g id="node4" class="node"><title>Node4</title>
<g id="a_node4"><a xlink:href="../../d6/d75/namespace_k4_u.xhtml#aaddaee50fab2801df390147891b0c09d" target="_top" xlink:title="K4U::endl">
<polygon fill="white" stroke="black" points="369.5,-126.5 369.5,-145.5 428.5,-145.5 428.5,-126.5 369.5,-126.5"/>
<text text-anchor="middle" x="399" y="-133.5" font-family="Helvetica,sans-Serif" font-size="10.00">K4U::endl</text>
</a>
</g>
</g>
<!-- Node3&#45;&gt;Node4 -->
<g id="edge3" class="edge"><title>Node3&#45;&gt;Node4</title>
<path fill="none" stroke="midnightblue" d="M270.327,-120.482C298.83,-123.946 333.288,-128.134 359.219,-131.286"/>
<polygon fill="midnightblue" stroke="midnightblue" points="359.064,-134.793 369.414,-132.525 359.909,-127.844 359.064,-134.793"/>
</g>
<!-- Node6 -->
<g id="node6" class="node"><title>Node6</title>
<g id="a_node6"><a xlink:href="../../d2/dc1/class_k4_u_1_1json_command.xhtml#a0b681a1fedfb2e89397b1f71e29edf78" target="_top" xlink:title="Transforms this object to a nice JSON string.">
<polygon fill="white" stroke="black" points="330,-55 330,-85 468,-85 468,-55 330,-55"/>
<text text-anchor="start" x="338" y="-73" font-family="Helvetica,sans-Serif" font-size="10.00">K4U::jsonCommand::toJson</text>
<text text-anchor="middle" x="399" y="-62" font-family="Helvetica,sans-Serif" font-size="10.00">String</text>
</a>
</g>
</g>
<!-- Node3&#45;&gt;Node6 -->
<g id="edge6" class="edge"><title>Node3&#45;&gt;Node6</title>
<path fill="none" stroke="midnightblue" d="M270.327,-101.037C287.829,-96.782 307.575,-91.9817 326.214,-87.4506"/>
<polygon fill="midnightblue" stroke="midnightblue" points="327.247,-90.8016 336.137,-85.0385 325.593,-83.9997 327.247,-90.8016"/>
</g>
<!-- Node5 -->
<g id="node5" class="node"><title>Node5</title>
<g id="a_node5"><a xlink:href="../../da/d64/class_k4_u_1_1cls_log.xhtml#a81f179b2ccb3e2abeb9b47f5b83de935" target="_top" xlink:title="K4U::clsLog::doEndl">
<polygon fill="white" stroke="black" points="535,-126.5 535,-145.5 641,-145.5 641,-126.5 535,-126.5"/>
<text text-anchor="middle" x="588" y="-133.5" font-family="Helvetica,sans-Serif" font-size="10.00">K4U::clsLog::doEndl</text>
</a>
</g>
</g>
<!-- Node4&#45;&gt;Node5 -->
<g id="edge4" class="edge"><title>Node4&#45;&gt;Node5</title>
<path fill="none" stroke="midnightblue" d="M428.809,-130.964C454.232,-129.311 492.17,-128.854 524.52,-129.592"/>
<polygon fill="midnightblue" stroke="midnightblue" points="524.712,-133.098 534.804,-129.873 524.904,-126.101 524.712,-133.098"/>
</g>
<!-- Node5&#45;&gt;Node4 -->
<g id="edge5" class="edge"><title>Node5&#45;&gt;Node4</title>
<path fill="none" stroke="midnightblue" d="M534.804,-142.127C504.411,-143.106 466.73,-142.931 438.94,-141.602"/>
<polygon fill="midnightblue" stroke="midnightblue" points="438.989,-138.099 428.809,-141.036 438.598,-145.088 438.989,-138.099"/>
</g>
<!-- Node7 -->
<g id="node7" class="node"><title>Node7</title>
<g id="a_node7"><a xlink:href="../../d2/dc1/class_k4_u_1_1json_command.xhtml#ac6bc0d606265f47db9bae5a6a40cb244" target="_top" xlink:title="getCommandString">
<polygon fill="white" stroke="black" points="504.5,-77 504.5,-107 671.5,-107 671.5,-77 504.5,-77"/>
<text text-anchor="start" x="512.5" y="-95" font-family="Helvetica,sans-Serif" font-size="10.00">K4U::jsonCommand::getCommand</text>
<text text-anchor="middle" x="588" y="-84" font-family="Helvetica,sans-Serif" font-size="10.00">String</text>
</a>
</g>
</g>
<!-- Node6&#45;&gt;Node7 -->
<g id="edge7" class="edge"><title>Node6&#45;&gt;Node7</title>
<path fill="none" stroke="midnightblue" d="M468.04,-78.0047C476.614,-79.0134 485.497,-80.0585 494.37,-81.1023"/>
<polygon fill="midnightblue" stroke="midnightblue" points="494.025,-84.5858 504.366,-82.2783 494.843,-77.6338 494.025,-84.5858"/>
</g>
<!-- Node8 -->
<g id="node8" class="node"><title>Node8</title>
<g id="a_node8"><a xlink:href="../../d2/dc1/class_k4_u_1_1json_command.xhtml#ab408a8b051e005a7156e19ea8a1f7f3a" target="_top" xlink:title="Gets all data items.">
<polygon fill="white" stroke="black" points="516.5,-38.5 516.5,-57.5 659.5,-57.5 659.5,-38.5 516.5,-38.5"/>
<text text-anchor="middle" x="588" y="-45.5" font-family="Helvetica,sans-Serif" font-size="10.00">K4U::jsonCommand::getData</text>
</a>
</g>
</g>
<!-- Node6&#45;&gt;Node8 -->
<g id="edge8" class="edge"><title>Node6&#45;&gt;Node8</title>
<path fill="none" stroke="midnightblue" d="M468.04,-61.9953C480.483,-60.5314 493.577,-58.991 506.345,-57.4889"/>
<polygon fill="midnightblue" stroke="midnightblue" points="506.973,-60.9391 516.496,-56.2946 506.155,-53.9871 506.973,-60.9391"/>
</g>
<!-- Node9 -->
<g id="node9" class="node"><title>Node9</title>
<g id="a_node9"><a xlink:href="../../d2/d6d/namespace_qt_json.xhtml#ace7d6102379674932334bea04fb15c12" target="_top" xlink:title="QtJson::serialize">
<polygon fill="white" stroke="black" points="543.5,-0.5 543.5,-19.5 632.5,-19.5 632.5,-0.5 543.5,-0.5"/>
<text text-anchor="middle" x="588" y="-7.5" font-family="Helvetica,sans-Serif" font-size="10.00">QtJson::serialize</text>
</a>
</g>
</g>
<!-- Node6&#45;&gt;Node9 -->
<g id="edge9" class="edge"><title>Node6&#45;&gt;Node9</title>
<path fill="none" stroke="midnightblue" d="M434.673,-54.8135C454.675,-46.4381 480.455,-36.2906 504,-29 513.328,-26.1118 523.368,-23.4491 533.131,-21.0878"/>
<polygon fill="midnightblue" stroke="midnightblue" points="534.226,-24.4263 543.165,-18.7393 532.63,-17.6105 534.226,-24.4263"/>
</g>
</g>
</svg>
