<?xml version="1.0" encoding="UTF-8" standalone="no"?>
<!DOCTYPE svg PUBLIC "-//W3C//DTD SVG 1.1//EN"
 "http://www.w3.org/Graphics/SVG/1.1/DTD/svg11.dtd">
<!-- Generated by graphviz version 2.30.1 (20130303.0817)
 -->
<!-- Title: client::MainWindow::MainWindow Pages: 1 -->
<svg width="842pt" height="626pt"
 viewBox="0.00 0.00 842.00 626.00" xmlns="http://www.w3.org/2000/svg" xmlns:xlink="http://www.w3.org/1999/xlink">
<g id="graph0" class="graph" transform="scale(1 1) rotate(0) translate(4 622)">
<title>client::MainWindow::MainWindow</title>
<polygon fill="white" stroke="white" points="-4,5 -4,-622 839,-622 839,5 -4,5"/>
<!-- Node1 -->
<g id="node1" class="node"><title>Node1</title>
<polygon fill="#bfbfbf" stroke="black" points="0.5,-294 0.5,-324 101.5,-324 101.5,-294 0.5,-294"/>
<text text-anchor="start" x="8.5" y="-312" font-family="Helvetica,sans-Serif" font-size="10.00">client::MainWindow</text>
<text text-anchor="middle" x="51" y="-301" font-family="Helvetica,sans-Serif" font-size="10.00">::MainWindow</text>
</g>
<!-- Node2 -->
<g id="node2" class="node"><title>Node2</title>
<g id="a_node2"><a xlink:href="../../d5/d08/classclient_1_1cls_settings.xhtml#aea971041842324e96b90ef6b8b703d54" target="_top" xlink:title="Gets the hostname of where the server is running.">
<polygon fill="white" stroke="black" points="153.5,-588 153.5,-618 248.5,-618 248.5,-588 153.5,-588"/>
<text text-anchor="start" x="161.5" y="-606" font-family="Helvetica,sans-Serif" font-size="10.00">client::clsSettings</text>
<text text-anchor="middle" x="201" y="-595" font-family="Helvetica,sans-Serif" font-size="10.00">::getServer</text>
</a>
</g>
</g>
<!-- Node1&#45;&gt;Node2 -->
<g id="edge1" class="edge"><title>Node1&#45;&gt;Node2</title>
<path fill="none" stroke="midnightblue" d="M52.5283,-324.305C54.8872,-369.242 67.7647,-502.376 138,-578 140.036,-580.192 142.291,-582.197 144.7,-584.029"/>
<polygon fill="midnightblue" stroke="midnightblue" points="143.085,-587.152 153.389,-589.616 146.871,-581.264 143.085,-587.152"/>
</g>
<!-- Node3 -->
<g id="node3" class="node"><title>Node3</title>
<g id="a_node3"><a xlink:href="../../d5/d08/classclient_1_1cls_settings.xhtml#a9cccda32a83a487cd88ce00de7c45ec1" target="_top" xlink:title="Gets the port on which the server is listening.">
<polygon fill="white" stroke="black" points="153.5,-539 153.5,-569 248.5,-569 248.5,-539 153.5,-539"/>
<text text-anchor="start" x="161.5" y="-557" font-family="Helvetica,sans-Serif" font-size="10.00">client::clsSettings</text>
<text text-anchor="middle" x="201" y="-546" font-family="Helvetica,sans-Serif" font-size="10.00">::getPort</text>
</a>
</g>
</g>
<!-- Node1&#45;&gt;Node3 -->
<g id="edge2" class="edge"><title>Node1&#45;&gt;Node3</title>
<path fill="none" stroke="midnightblue" d="M53.7607,-324.026C59.1035,-363.087 78.5833,-468.948 138,-529 140.066,-531.088 142.33,-533.008 144.732,-534.772"/>
<polygon fill="midnightblue" stroke="midnightblue" points="143.017,-537.828 153.346,-540.189 146.744,-531.903 143.017,-537.828"/>
</g>
<!-- Node4 -->
<g id="node4" class="node"><title>Node4</title>
<g id="a_node4"><a xlink:href="../../d2/da4/classclient_1_1_main_window.xhtml#a0c9982277db418807d2611e80cb65983" target="_top" xlink:title="client::MainWindow\l::moveScrollBarToBottom">
<polygon fill="white" stroke="black" points="138,-490 138,-520 264,-520 264,-490 138,-490"/>
<text text-anchor="start" x="146" y="-508" font-family="Helvetica,sans-Serif" font-size="10.00">client::MainWindow</text>
<text text-anchor="middle" x="201" y="-497" font-family="Helvetica,sans-Serif" font-size="10.00">::moveScrollBarToBottom</text>
</a>
</g>
</g>
<!-- Node1&#45;&gt;Node4 -->
<g id="edge3" class="edge"><title>Node1&#45;&gt;Node4</title>
<path fill="none" stroke="midnightblue" d="M55.7885,-324.493C64.6192,-357.515 89.5914,-435.438 138,-480 139.7,-481.565 141.51,-483.037 143.403,-484.422"/>
<polygon fill="midnightblue" stroke="midnightblue" points="141.829,-487.568 152.152,-489.952 145.569,-481.65 141.829,-487.568"/>
</g>
<!-- Node5 -->
<g id="node5" class="node"><title>Node5</title>
<g id="a_node5"><a xlink:href="../../d2/da4/classclient_1_1_main_window.xhtml#a51e1634c12eb7373b01dce36a03afc9a" target="_top" xlink:title="Triggered when a chat has been received.">
<polygon fill="white" stroke="black" points="150.5,-441 150.5,-471 251.5,-471 251.5,-441 150.5,-441"/>
<text text-anchor="start" x="158.5" y="-459" font-family="Helvetica,sans-Serif" font-size="10.00">client::MainWindow</text>
<text text-anchor="middle" x="201" y="-448" font-family="Helvetica,sans-Serif" font-size="10.00">::chatReceived</text>
</a>
</g>
</g>
<!-- Node1&#45;&gt;Node5 -->
<g id="edge4" class="edge"><title>Node1&#45;&gt;Node5</title>
<path fill="none" stroke="midnightblue" d="M59.0971,-324.252C71.6368,-349.68 100.018,-400.906 138,-431 140.26,-432.791 142.665,-434.469 145.166,-436.04"/>
<polygon fill="midnightblue" stroke="midnightblue" points="143.533,-439.137 153.967,-440.977 146.958,-433.032 143.533,-439.137"/>
</g>
<!-- Node10 -->
<g id="node10" class="node"><title>Node10</title>
<g id="a_node10"><a xlink:href="../../d2/da4/classclient_1_1_main_window.xhtml#aa32adfb179341040f2decbd0da19f1d9" target="_top" xlink:title="client::MainWindow\l::sendChat">
<polygon fill="white" stroke="black" points="150.5,-147 150.5,-177 251.5,-177 251.5,-147 150.5,-147"/>
<text text-anchor="start" x="158.5" y="-165" font-family="Helvetica,sans-Serif" font-size="10.00">client::MainWindow</text>
<text text-anchor="middle" x="201" y="-154" font-family="Helvetica,sans-Serif" font-size="10.00">::sendChat</text>
</a>
</g>
</g>
<!-- Node1&#45;&gt;Node10 -->
<g id="edge10" class="edge"><title>Node1&#45;&gt;Node10</title>
<path fill="none" stroke="midnightblue" d="M59.0971,-293.748C71.6368,-268.32 100.018,-217.094 138,-187 140.26,-185.209 142.665,-183.531 145.166,-181.96"/>
<polygon fill="midnightblue" stroke="midnightblue" points="146.958,-184.968 153.967,-177.023 143.533,-178.863 146.958,-184.968"/>
</g>
<!-- Node19 -->
<g id="node19" class="node"><title>Node19</title>
<g id="a_node19"><a xlink:href="../../d2/da4/classclient_1_1_main_window.xhtml#a75d241698eb127c089ed4703fbeb4999" target="_top" xlink:title="client::MainWindow\l::commandGiven">
<polygon fill="white" stroke="black" points="150.5,-196 150.5,-226 251.5,-226 251.5,-196 150.5,-196"/>
<text text-anchor="start" x="158.5" y="-214" font-family="Helvetica,sans-Serif" font-size="10.00">client::MainWindow</text>
<text text-anchor="middle" x="201" y="-203" font-family="Helvetica,sans-Serif" font-size="10.00">::commandGiven</text>
</a>
</g>
</g>
<!-- Node1&#45;&gt;Node19 -->
<g id="edge20" class="edge"><title>Node1&#45;&gt;Node19</title>
<path fill="none" stroke="midnightblue" d="M66.687,-293.928C82.9477,-277.898 110.511,-252.611 138,-236 141.219,-234.055 144.617,-232.202 148.096,-230.448"/>
<polygon fill="midnightblue" stroke="midnightblue" points="149.879,-233.477 157.43,-226.045 146.893,-227.146 149.879,-233.477"/>
</g>
<!-- Node20 -->
<g id="node20" class="node"><title>Node20</title>
<g id="a_node20"><a xlink:href="../../d2/da4/classclient_1_1_main_window.xhtml#aae9222490d9f0d71ffa6585c35416bfb" target="_top" xlink:title="client::MainWindow\l::serverConnected">
<polygon fill="white" stroke="black" points="150.5,-245 150.5,-275 251.5,-275 251.5,-245 150.5,-245"/>
<text text-anchor="start" x="158.5" y="-263" font-family="Helvetica,sans-Serif" font-size="10.00">client::MainWindow</text>
<text text-anchor="middle" x="201" y="-252" font-family="Helvetica,sans-Serif" font-size="10.00">::serverConnected</text>
</a>
</g>
</g>
<!-- Node1&#45;&gt;Node20 -->
<g id="edge23" class="edge"><title>Node1&#45;&gt;Node20</title>
<path fill="none" stroke="midnightblue" d="M97.6125,-293.899C112.594,-288.938 129.405,-283.373 145.007,-278.207"/>
<polygon fill="midnightblue" stroke="midnightblue" points="146.145,-281.517 154.538,-275.052 143.945,-274.872 146.145,-281.517"/>
</g>
<!-- Node21 -->
<g id="node21" class="node"><title>Node21</title>
<g id="a_node21"><a xlink:href="../../d2/da4/classclient_1_1_main_window.xhtml#a1453a7da1874881b67aa919390012e36" target="_top" xlink:title="client::MainWindow\l::serverDisconnected">
<polygon fill="white" stroke="black" points="147.5,-98 147.5,-128 254.5,-128 254.5,-98 147.5,-98"/>
<text text-anchor="start" x="155.5" y="-116" font-family="Helvetica,sans-Serif" font-size="10.00">client::MainWindow</text>
<text text-anchor="middle" x="201" y="-105" font-family="Helvetica,sans-Serif" font-size="10.00">::serverDisconnected</text>
</a>
</g>
</g>
<!-- Node1&#45;&gt;Node21 -->
<g id="edge25" class="edge"><title>Node1&#45;&gt;Node21</title>
<path fill="none" stroke="midnightblue" d="M55.7885,-293.507C64.6192,-260.485 89.5914,-182.562 138,-138 139.7,-136.435 141.51,-134.963 143.403,-133.578"/>
<polygon fill="midnightblue" stroke="midnightblue" points="145.569,-136.35 152.152,-128.048 141.829,-130.432 145.569,-136.35"/>
</g>
<!-- Node22 -->
<g id="node22" class="node"><title>Node22</title>
<g id="a_node22"><a xlink:href="../../d2/da4/classclient_1_1_main_window.xhtml#a13044cd00c53dbbbc6b945c0dfd9b4b4" target="_top" xlink:title="Triggered when the user query came back.">
<polygon fill="white" stroke="black" points="144,-294 144,-324 258,-324 258,-294 144,-294"/>
<text text-anchor="start" x="152" y="-312" font-family="Helvetica,sans-Serif" font-size="10.00">client::MainWindow</text>
<text text-anchor="middle" x="201" y="-301" font-family="Helvetica,sans-Serif" font-size="10.00">::userQueryCompleted</text>
</a>
</g>
</g>
<!-- Node1&#45;&gt;Node22 -->
<g id="edge26" class="edge"><title>Node1&#45;&gt;Node22</title>
<path fill="none" stroke="midnightblue" d="M101.694,-309C111.939,-309 122.884,-309 133.614,-309"/>
<polygon fill="midnightblue" stroke="midnightblue" points="133.804,-312.5 143.804,-309 133.804,-305.5 133.804,-312.5"/>
</g>
<!-- Node24 -->
<g id="node24" class="node"><title>Node24</title>
<g id="a_node24"><a xlink:href="../../d2/da4/classclient_1_1_main_window.xhtml#a380097fa1faba7f0457886053f793c59" target="_top" xlink:title="Triggered when a user changes his status (nick|status)">
<polygon fill="white" stroke="black" points="149.5,-49 149.5,-79 252.5,-79 252.5,-49 149.5,-49"/>
<text text-anchor="start" x="157.5" y="-67" font-family="Helvetica,sans-Serif" font-size="10.00">client::MainWindow</text>
<text text-anchor="middle" x="201" y="-56" font-family="Helvetica,sans-Serif" font-size="10.00">::userStatusChange</text>
</a>
</g>
</g>
<!-- Node1&#45;&gt;Node24 -->
<g id="edge29" class="edge"><title>Node1&#45;&gt;Node24</title>
<path fill="none" stroke="midnightblue" d="M53.7607,-293.974C59.1035,-254.913 78.5833,-149.052 138,-89 139.439,-87.5459 140.973,-86.1735 142.583,-84.8785"/>
<polygon fill="midnightblue" stroke="midnightblue" points="144.879,-87.55 151.174,-79.0279 140.938,-81.7644 144.879,-87.55"/>
</g>
<!-- Node27 -->
<g id="node27" class="node"><title>Node27</title>
<g id="a_node27"><a xlink:href="../../d2/da4/classclient_1_1_main_window.xhtml#a9f16758ff23f279a244806cae35a1604" target="_top" xlink:title="Triggered when a user leaves the room.">
<polygon fill="white" stroke="black" points="150.5,-392 150.5,-422 251.5,-422 251.5,-392 150.5,-392"/>
<text text-anchor="start" x="158.5" y="-410" font-family="Helvetica,sans-Serif" font-size="10.00">client::MainWindow</text>
<text text-anchor="middle" x="201" y="-399" font-family="Helvetica,sans-Serif" font-size="10.00">::userLeave</text>
</a>
</g>
</g>
<!-- Node1&#45;&gt;Node27 -->
<g id="edge32" class="edge"><title>Node1&#45;&gt;Node27</title>
<path fill="none" stroke="midnightblue" d="M66.687,-324.072C82.9477,-340.102 110.511,-365.389 138,-382 141.219,-383.945 144.617,-385.798 148.096,-387.552"/>
<polygon fill="midnightblue" stroke="midnightblue" points="146.893,-390.854 157.43,-391.955 149.879,-384.523 146.893,-390.854"/>
</g>
<!-- Node29 -->
<g id="node29" class="node"><title>Node29</title>
<g id="a_node29"><a xlink:href="../../d2/da4/classclient_1_1_main_window.xhtml#a62f7f15ddd56fd52acd7ba01fa6354b4" target="_top" xlink:title="Triggered when a user enters the room.">
<polygon fill="white" stroke="black" points="150.5,-343 150.5,-373 251.5,-373 251.5,-343 150.5,-343"/>
<text text-anchor="start" x="158.5" y="-361" font-family="Helvetica,sans-Serif" font-size="10.00">client::MainWindow</text>
<text text-anchor="middle" x="201" y="-350" font-family="Helvetica,sans-Serif" font-size="10.00">::userEnter</text>
</a>
</g>
</g>
<!-- Node1&#45;&gt;Node29 -->
<g id="edge36" class="edge"><title>Node1&#45;&gt;Node29</title>
<path fill="none" stroke="midnightblue" d="M97.6125,-324.101C112.594,-329.062 129.405,-334.627 145.007,-339.793"/>
<polygon fill="midnightblue" stroke="midnightblue" points="143.945,-343.128 154.538,-342.948 146.145,-336.483 143.945,-343.128"/>
</g>
<!-- Node33 -->
<g id="node33" class="node"><title>Node33</title>
<g id="a_node33"><a xlink:href="../../d2/da4/classclient_1_1_main_window.xhtml#ae24be834dcc2638d54a3720a35242a95" target="_top" xlink:title="Triggered when a user changes his nick (nick|status)">
<polygon fill="white" stroke="black" points="150.5,-0 150.5,-30 251.5,-30 251.5,-0 150.5,-0"/>
<text text-anchor="start" x="158.5" y="-18" font-family="Helvetica,sans-Serif" font-size="10.00">client::MainWindow</text>
<text text-anchor="middle" x="201" y="-7" font-family="Helvetica,sans-Serif" font-size="10.00">::userChangeNick</text>
</a>
</g>
</g>
<!-- Node1&#45;&gt;Node33 -->
<g id="edge43" class="edge"><title>Node1&#45;&gt;Node33</title>
<path fill="none" stroke="midnightblue" d="M52.5283,-293.695C54.8872,-248.758 67.7647,-115.624 138,-40 139.222,-38.6845 140.522,-37.4368 141.887,-36.2533"/>
<polygon fill="midnightblue" stroke="midnightblue" points="144.266,-38.8521 150.317,-30.155 140.163,-33.1806 144.266,-38.8521"/>
</g>
<!-- Node6 -->
<g id="node6" class="node"><title>Node6</title>
<g id="a_node6"><a xlink:href="../../d1/d68/classshared_1_1events_1_1event_chat.xhtml#affa9c414f40d61277b690efd4013f550" target="_top" xlink:title="Gets the DB&#45;ID of the user that sent the message.">
<polygon fill="white" stroke="black" points="314,-556 314,-586 442,-586 442,-556 314,-556"/>
<text text-anchor="start" x="322" y="-574" font-family="Helvetica,sans-Serif" font-size="10.00">shared::events::eventChat</text>
<text text-anchor="middle" x="378" y="-563" font-family="Helvetica,sans-Serif" font-size="10.00">::getUser</text>
</a>
</g>
</g>
<!-- Node5&#45;&gt;Node6 -->
<g id="edge5" class="edge"><title>Node5&#45;&gt;Node6</title>
<path fill="none" stroke="midnightblue" d="M249.385,-471.043C254.639,-473.859 259.653,-477.156 264,-481 288.737,-502.878 274.519,-524.993 300,-546 302.04,-547.682 304.196,-549.252 306.44,-550.717"/>
<polygon fill="midnightblue" stroke="midnightblue" points="305.051,-553.953 315.472,-555.864 308.517,-547.872 305.051,-553.953"/>
</g>
<!-- Node8 -->
<g id="node8" class="node"><title>Node8</title>
<g id="a_node8"><a xlink:href="../../d1/d68/classshared_1_1events_1_1event_chat.xhtml#a10a61f130fb402e63922cd0b34468c8e" target="_top" xlink:title="Gets the chat message.">
<polygon fill="white" stroke="black" points="314,-507 314,-537 442,-537 442,-507 314,-507"/>
<text text-anchor="start" x="322" y="-525" font-family="Helvetica,sans-Serif" font-size="10.00">shared::events::eventChat</text>
<text text-anchor="middle" x="378" y="-514" font-family="Helvetica,sans-Serif" font-size="10.00">::getMessage</text>
</a>
</g>
</g>
<!-- Node5&#45;&gt;Node8 -->
<g id="edge7" class="edge"><title>Node5&#45;&gt;Node8</title>
<path fill="none" stroke="midnightblue" d="M240.121,-471.128C248.035,-474.336 256.306,-477.74 264,-481 280.122,-487.831 283.651,-490.732 300,-497 305.856,-499.245 312.011,-501.467 318.181,-503.606"/>
<polygon fill="midnightblue" stroke="midnightblue" points="317.256,-506.988 327.851,-506.89 319.508,-500.36 317.256,-506.988"/>
</g>
<!-- Node9 -->
<g id="node9" class="node"><title>Node9</title>
<g id="a_node9"><a xlink:href="../../db/d8b/classshared_1_1events_1_1cls_event.xhtml#a2b450c42e2a6603add85738c19ea7151" target="_top" xlink:title="Gets the time on which the event was created.">
<polygon fill="white" stroke="black" points="317,-409 317,-439 439,-439 439,-409 317,-409"/>
<text text-anchor="start" x="325" y="-427" font-family="Helvetica,sans-Serif" font-size="10.00">shared::events::clsEvent</text>
<text text-anchor="middle" x="378" y="-416" font-family="Helvetica,sans-Serif" font-size="10.00">::getTime</text>
</a>
</g>
</g>
<!-- Node5&#45;&gt;Node9 -->
<g id="edge9" class="edge"><title>Node5&#45;&gt;Node9</title>
<path fill="none" stroke="midnightblue" d="M251.68,-446.916C268.897,-443.767 288.533,-440.177 307.071,-436.787"/>
<polygon fill="midnightblue" stroke="midnightblue" points="307.732,-440.224 316.939,-434.983 306.473,-433.338 307.732,-440.224"/>
</g>
<!-- Node7 -->
<g id="node7" class="node"><title>Node7</title>
<g id="a_node7"><a xlink:href="../../db/d8b/classshared_1_1events_1_1cls_event.xhtml#ac3acc2e80a92d28a980a50595517bf4a" target="_top" xlink:title="Get data from the events data map.">
<polygon fill="white" stroke="black" points="500,-482 500,-512 622,-512 622,-482 500,-482"/>
<text text-anchor="start" x="508" y="-500" font-family="Helvetica,sans-Serif" font-size="10.00">shared::events::clsEvent</text>
<text text-anchor="middle" x="561" y="-489" font-family="Helvetica,sans-Serif" font-size="10.00">::getData</text>
</a>
</g>
</g>
<!-- Node6&#45;&gt;Node7 -->
<g id="edge6" class="edge"><title>Node6&#45;&gt;Node7</title>
<path fill="none" stroke="midnightblue" d="M428.622,-555.911C437.798,-552.833 447.245,-549.468 456,-546 478.007,-537.283 501.943,-526.127 521.299,-516.662"/>
<polygon fill="midnightblue" stroke="midnightblue" points="522.985,-519.733 530.404,-512.17 519.887,-513.456 522.985,-519.733"/>
</g>
<!-- Node8&#45;&gt;Node7 -->
<g id="edge8" class="edge"><title>Node8&#45;&gt;Node7</title>
<path fill="none" stroke="midnightblue" d="M442.051,-513.291C457.45,-511.164 474.021,-508.876 489.733,-506.705"/>
<polygon fill="midnightblue" stroke="midnightblue" points="490.487,-510.135 499.914,-505.299 489.529,-503.2 490.487,-510.135"/>
</g>
<!-- Node11 -->
<g id="node11" class="node"><title>Node11</title>
<g id="a_node11"><a xlink:href="../../d2/dc1/class_k4_u_1_1json_command.xhtml#aa0629328322fb09be4494a0826bb19b5" target="_top" xlink:title="Adds data to the internal data map.">
<polygon fill="white" stroke="black" points="300.5,-154.5 300.5,-173.5 455.5,-173.5 455.5,-154.5 300.5,-154.5"/>
<text text-anchor="middle" x="378" y="-161.5" font-family="Helvetica,sans-Serif" font-size="10.00">K4U::jsonCommand::addToData</text>
</a>
</g>
</g>
<!-- Node10&#45;&gt;Node11 -->
<g id="edge11" class="edge"><title>Node10&#45;&gt;Node11</title>
<path fill="none" stroke="midnightblue" d="M251.68,-162.568C263.759,-162.706 277.028,-162.857 290.273,-163.009"/>
<polygon fill="midnightblue" stroke="midnightblue" points="290.338,-166.51 300.378,-163.124 290.418,-159.51 290.338,-166.51"/>
</g>
<!-- Node12 -->
<g id="node12" class="node"><title>Node12</title>
<g id="a_node12"><a xlink:href="../../d3/d65/classclient_1_1cls_server_conn.xhtml#a997f9cd3d63321807f60472308acc459" target="_top" xlink:title="Send a JSON command to the server.">
<polygon fill="white" stroke="black" points="324,-196 324,-226 432,-226 432,-196 324,-196"/>
<text text-anchor="start" x="332" y="-214" font-family="Helvetica,sans-Serif" font-size="10.00">client::clsServerConn</text>
<text text-anchor="middle" x="378" y="-203" font-family="Helvetica,sans-Serif" font-size="10.00">::sendCommand</text>
</a>
</g>
</g>
<!-- Node10&#45;&gt;Node12 -->
<g id="edge12" class="edge"><title>Node10&#45;&gt;Node12</title>
<path fill="none" stroke="midnightblue" d="M251.68,-175.91C271.045,-181.333 293.471,-187.612 313.953,-193.347"/>
<polygon fill="midnightblue" stroke="midnightblue" points="313.256,-196.786 323.83,-196.112 315.144,-190.046 313.256,-196.786"/>
</g>
<!-- Node13 -->
<g id="node13" class="node"><title>Node13</title>
<g id="a_node13"><a xlink:href="../../d6/d75/namespace_k4_u.xhtml#aaddaee50fab2801df390147891b0c09d" target="_top" xlink:title="K4U::endl">
<polygon fill="white" stroke="black" points="531.5,-179.5 531.5,-198.5 590.5,-198.5 590.5,-179.5 531.5,-179.5"/>
<text text-anchor="middle" x="561" y="-186.5" font-family="Helvetica,sans-Serif" font-size="10.00">K4U::endl</text>
</a>
</g>
</g>
<!-- Node12&#45;&gt;Node13 -->
<g id="edge13" class="edge"><title>Node12&#45;&gt;Node13</title>
<path fill="none" stroke="midnightblue" d="M432.327,-204.518C460.83,-201.054 495.288,-196.866 521.219,-193.714"/>
<polygon fill="midnightblue" stroke="midnightblue" points="521.909,-197.156 531.414,-192.475 521.064,-190.207 521.909,-197.156"/>
</g>
<!-- Node15 -->
<g id="node15" class="node"><title>Node15</title>
<g id="a_node15"><a xlink:href="../../d2/dc1/class_k4_u_1_1json_command.xhtml#a0b681a1fedfb2e89397b1f71e29edf78" target="_top" xlink:title="Transforms this object to a nice JSON string.">
<polygon fill="white" stroke="black" points="492,-240 492,-270 630,-270 630,-240 492,-240"/>
<text text-anchor="start" x="500" y="-258" font-family="Helvetica,sans-Serif" font-size="10.00">K4U::jsonCommand::toJson</text>
<text text-anchor="middle" x="561" y="-247" font-family="Helvetica,sans-Serif" font-size="10.00">String</text>
</a>
</g>
</g>
<!-- Node12&#45;&gt;Node15 -->
<g id="edge16" class="edge"><title>Node12&#45;&gt;Node15</title>
<path fill="none" stroke="midnightblue" d="M432.327,-223.963C449.829,-228.218 469.575,-233.018 488.214,-237.549"/>
<polygon fill="midnightblue" stroke="midnightblue" points="487.593,-241 498.137,-239.962 489.247,-234.198 487.593,-241"/>
</g>
<!-- Node14 -->
<g id="node14" class="node"><title>Node14</title>
<g id="a_node14"><a xlink:href="../../da/d64/class_k4_u_1_1cls_log.xhtml#a81f179b2ccb3e2abeb9b47f5b83de935" target="_top" xlink:title="K4U::clsLog::doEndl">
<polygon fill="white" stroke="black" points="697,-179.5 697,-198.5 803,-198.5 803,-179.5 697,-179.5"/>
<text text-anchor="middle" x="750" y="-186.5" font-family="Helvetica,sans-Serif" font-size="10.00">K4U::clsLog::doEndl</text>
</a>
</g>
</g>
<!-- Node13&#45;&gt;Node14 -->
<g id="edge14" class="edge"><title>Node13&#45;&gt;Node14</title>
<path fill="none" stroke="midnightblue" d="M590.809,-183.964C616.232,-182.311 654.17,-181.854 686.52,-182.592"/>
<polygon fill="midnightblue" stroke="midnightblue" points="686.712,-186.098 696.804,-182.873 686.904,-179.101 686.712,-186.098"/>
</g>
<!-- Node14&#45;&gt;Node13 -->
<g id="edge15" class="edge"><title>Node14&#45;&gt;Node13</title>
<path fill="none" stroke="midnightblue" d="M696.804,-195.127C666.411,-196.106 628.73,-195.931 600.94,-194.602"/>
<polygon fill="midnightblue" stroke="midnightblue" points="600.989,-191.099 590.809,-194.036 600.598,-198.088 600.989,-191.099"/>
</g>
<!-- Node16 -->
<g id="node16" class="node"><title>Node16</title>
<g id="a_node16"><a xlink:href="../../d2/dc1/class_k4_u_1_1json_command.xhtml#ac6bc0d606265f47db9bae5a6a40cb244" target="_top" xlink:title="getCommandString">
<polygon fill="white" stroke="black" points="666.5,-218 666.5,-248 833.5,-248 833.5,-218 666.5,-218"/>
<text text-anchor="start" x="674.5" y="-236" font-family="Helvetica,sans-Serif" font-size="10.00">K4U::jsonCommand::getCommand</text>
<text text-anchor="middle" x="750" y="-225" font-family="Helvetica,sans-Serif" font-size="10.00">String</text>
</a>
</g>
</g>
<!-- Node15&#45;&gt;Node16 -->
<g id="edge17" class="edge"><title>Node15&#45;&gt;Node16</title>
<path fill="none" stroke="midnightblue" d="M630.04,-246.995C638.614,-245.987 647.497,-244.942 656.37,-243.898"/>
<polygon fill="midnightblue" stroke="midnightblue" points="656.843,-247.366 666.366,-242.722 656.025,-240.414 656.843,-247.366"/>
</g>
<!-- Node17 -->
<g id="node17" class="node"><title>Node17</title>
<g id="a_node17"><a xlink:href="../../d2/dc1/class_k4_u_1_1json_command.xhtml#ab408a8b051e005a7156e19ea8a1f7f3a" target="_top" xlink:title="Gets all data items.">
<polygon fill="white" stroke="black" points="678.5,-305.5 678.5,-324.5 821.5,-324.5 821.5,-305.5 678.5,-305.5"/>
<text text-anchor="middle" x="750" y="-312.5" font-family="Helvetica,sans-Serif" font-size="10.00">K4U::jsonCommand::getData</text>
</a>
</g>
</g>
<!-- Node15&#45;&gt;Node17 -->
<g id="edge18" class="edge"><title>Node15&#45;&gt;Node17</title>
<path fill="none" stroke="midnightblue" d="M596.673,-270.186C616.675,-278.562 642.455,-288.709 666,-296 674.31,-298.573 683.186,-300.968 691.929,-303.129"/>
<polygon fill="midnightblue" stroke="midnightblue" points="691.165,-306.545 701.705,-305.468 692.794,-299.737 691.165,-306.545"/>
</g>
<!-- Node18 -->
<g id="node18" class="node"><title>Node18</title>
<g id="a_node18"><a xlink:href="../../d2/d6d/namespace_qt_json.xhtml#ace7d6102379674932334bea04fb15c12" target="_top" xlink:title="QtJson::serialize">
<polygon fill="white" stroke="black" points="705.5,-267.5 705.5,-286.5 794.5,-286.5 794.5,-267.5 705.5,-267.5"/>
<text text-anchor="middle" x="750" y="-274.5" font-family="Helvetica,sans-Serif" font-size="10.00">QtJson::serialize</text>
</a>
</g>
</g>
<!-- Node15&#45;&gt;Node18 -->
<g id="edge19" class="edge"><title>Node15&#45;&gt;Node18</title>
<path fill="none" stroke="midnightblue" d="M630.04,-263.005C651.57,-265.538 675.05,-268.3 695.418,-270.696"/>
<polygon fill="midnightblue" stroke="midnightblue" points="695.11,-274.184 705.451,-271.877 695.928,-267.232 695.11,-274.184"/>
</g>
<!-- Node19&#45;&gt;Node11 -->
<g id="edge21" class="edge"><title>Node19&#45;&gt;Node11</title>
<path fill="none" stroke="midnightblue" d="M251.68,-197.657C276.814,-190.907 307.104,-182.772 331.608,-176.191"/>
<polygon fill="midnightblue" stroke="midnightblue" points="332.629,-179.541 341.379,-173.567 330.813,-172.781 332.629,-179.541"/>
</g>
<!-- Node19&#45;&gt;Node12 -->
<g id="edge22" class="edge"><title>Node19&#45;&gt;Node12</title>
<path fill="none" stroke="midnightblue" d="M251.68,-211C270.957,-211 293.267,-211 313.674,-211"/>
<polygon fill="midnightblue" stroke="midnightblue" points="313.83,-214.5 323.83,-211 313.83,-207.5 313.83,-214.5"/>
</g>
<!-- Node20&#45;&gt;Node12 -->
<g id="edge24" class="edge"><title>Node20&#45;&gt;Node12</title>
<path fill="none" stroke="midnightblue" d="M251.68,-246.09C271.045,-240.667 293.471,-234.388 313.953,-228.653"/>
<polygon fill="midnightblue" stroke="midnightblue" points="315.144,-231.954 323.83,-225.888 313.256,-225.214 315.144,-231.954"/>
</g>
<!-- Node23 -->
<g id="node23" class="node"><title>Node23</title>
<g id="a_node23"><a xlink:href="../../d6/d69/classclient_1_1irc_user.xhtml#a7cfd7dd6670a4f1b2af75914a1e1f4ae" target="_top" xlink:title="client::ircUser::getId">
<polygon fill="white" stroke="black" points="326,-245.5 326,-264.5 430,-264.5 430,-245.5 326,-245.5"/>
<text text-anchor="middle" x="378" y="-252.5" font-family="Helvetica,sans-Serif" font-size="10.00">client::ircUser::getId</text>
</a>
</g>
</g>
<!-- Node22&#45;&gt;Node23 -->
<g id="edge27" class="edge"><title>Node22&#45;&gt;Node23</title>
<path fill="none" stroke="midnightblue" d="M241.275,-293.948C259.067,-287.395 280.452,-279.886 300,-274 308.055,-271.575 316.65,-269.225 325.07,-267.053"/>
<polygon fill="midnightblue" stroke="midnightblue" points="325.99,-270.43 334.83,-264.59 324.278,-263.643 325.99,-270.43"/>
</g>
<!-- Node22&#45;&gt;Node12 -->
<g id="edge28" class="edge"><title>Node22&#45;&gt;Node12</title>
<path fill="none" stroke="midnightblue" d="M247.928,-293.842C253.608,-291.016 259.123,-287.748 264,-284 285.143,-267.75 278.306,-251.508 300,-236 304.502,-232.782 309.441,-229.962 314.576,-227.494"/>
<polygon fill="midnightblue" stroke="midnightblue" points="316.192,-230.609 323.977,-223.423 313.41,-224.185 316.192,-230.609"/>
</g>
<!-- Node25 -->
<g id="node25" class="node"><title>Node25</title>
<g id="a_node25"><a xlink:href="../../d3/dcc/classshared_1_1events_1_1event_user_change_status.xhtml#a4c904f38f1ff994ebb9a9ec251604874" target="_top" xlink:title="Gets the DB&#45;ID of the user that changed status.">
<polygon fill="white" stroke="black" points="314,-74 314,-104 442,-104 442,-74 314,-74"/>
<text text-anchor="start" x="322" y="-92" font-family="Helvetica,sans-Serif" font-size="10.00">shared::events::eventUser</text>
<text text-anchor="middle" x="378" y="-81" font-family="Helvetica,sans-Serif" font-size="10.00">ChangeStatus::getUserId</text>
</a>
</g>
</g>
<!-- Node24&#45;&gt;Node25 -->
<g id="edge30" class="edge"><title>Node24&#45;&gt;Node25</title>
<path fill="none" stroke="midnightblue" d="M252.617,-71.231C268.566,-73.5094 286.515,-76.0736 303.713,-78.5304"/>
<polygon fill="midnightblue" stroke="midnightblue" points="303.336,-82.012 313.73,-79.9615 304.326,-75.0823 303.336,-82.012"/>
</g>
<!-- Node26 -->
<g id="node26" class="node"><title>Node26</title>
<g id="a_node26"><a xlink:href="../../d3/dcc/classshared_1_1events_1_1event_user_change_status.xhtml#a018d111b0b5b957754b20d777f7f1bef" target="_top" xlink:title="Gets the new status of the user.">
<polygon fill="white" stroke="black" points="305.5,-25 305.5,-55 450.5,-55 450.5,-25 305.5,-25"/>
<text text-anchor="start" x="313.5" y="-43" font-family="Helvetica,sans-Serif" font-size="10.00">shared::events::eventUser</text>
<text text-anchor="middle" x="378" y="-32" font-family="Helvetica,sans-Serif" font-size="10.00">ChangeStatus::getNewStatus</text>
</a>
</g>
</g>
<!-- Node24&#45;&gt;Node26 -->
<g id="edge31" class="edge"><title>Node24&#45;&gt;Node26</title>
<path fill="none" stroke="midnightblue" d="M252.617,-57.0582C265.986,-55.2247 280.761,-53.1985 295.32,-51.2018"/>
<polygon fill="midnightblue" stroke="midnightblue" points="295.914,-54.6532 305.345,-49.8269 294.963,-47.7182 295.914,-54.6532"/>
</g>
<!-- Node28 -->
<g id="node28" class="node"><title>Node28</title>
<g id="a_node28"><a xlink:href="../../d9/d9f/classshared_1_1events_1_1event_user_leave.xhtml#afb9cb12d52415109349d1469f1577353" target="_top" xlink:title="Gets the DB&#45;ID of the user that left.">
<polygon fill="white" stroke="black" points="314,-458 314,-488 442,-488 442,-458 314,-458"/>
<text text-anchor="start" x="322" y="-476" font-family="Helvetica,sans-Serif" font-size="10.00">shared::events::eventUser</text>
<text text-anchor="middle" x="378" y="-465" font-family="Helvetica,sans-Serif" font-size="10.00">Leave::getUserId</text>
</a>
</g>
</g>
<!-- Node27&#45;&gt;Node28 -->
<g id="edge33" class="edge"><title>Node27&#45;&gt;Node28</title>
<path fill="none" stroke="midnightblue" d="M240.121,-422.128C248.035,-425.336 256.306,-428.74 264,-432 280.122,-438.831 283.651,-441.732 300,-448 305.856,-450.245 312.011,-452.467 318.181,-454.606"/>
<polygon fill="midnightblue" stroke="midnightblue" points="317.256,-457.988 327.851,-457.89 319.508,-451.36 317.256,-457.988"/>
</g>
<!-- Node27&#45;&gt;Node9 -->
<g id="edge35" class="edge"><title>Node27&#45;&gt;Node9</title>
<path fill="none" stroke="midnightblue" d="M251.68,-411.826C268.817,-413.491 288.352,-415.388 306.815,-417.182"/>
<polygon fill="midnightblue" stroke="midnightblue" points="306.648,-420.682 316.939,-418.166 307.325,-413.715 306.648,-420.682"/>
</g>
<!-- Node28&#45;&gt;Node7 -->
<g id="edge34" class="edge"><title>Node28&#45;&gt;Node7</title>
<path fill="none" stroke="midnightblue" d="M442.051,-481.36C457.45,-483.402 474.021,-485.599 489.733,-487.683"/>
<polygon fill="midnightblue" stroke="midnightblue" points="489.541,-491.188 499.914,-489.033 490.461,-484.249 489.541,-491.188"/>
</g>
<!-- Node30 -->
<g id="node30" class="node"><title>Node30</title>
<g id="a_node30"><a xlink:href="../../dd/d05/classshared_1_1events_1_1event_user_join.xhtml#afd49e93a57440f97dd02ccbec353cdb8" target="_top" xlink:title="Gets a QVariantMap of the user that joined.">
<polygon fill="white" stroke="black" points="314,-360 314,-390 442,-390 442,-360 314,-360"/>
<text text-anchor="start" x="322" y="-378" font-family="Helvetica,sans-Serif" font-size="10.00">shared::events::eventUser</text>
<text text-anchor="middle" x="378" y="-367" font-family="Helvetica,sans-Serif" font-size="10.00">Join::getUser</text>
</a>
</g>
</g>
<!-- Node29&#45;&gt;Node30 -->
<g id="edge37" class="edge"><title>Node29&#45;&gt;Node30</title>
<path fill="none" stroke="midnightblue" d="M251.68,-362.826C267.814,-364.393 286.072,-366.167 303.561,-367.866"/>
<polygon fill="midnightblue" stroke="midnightblue" points="303.456,-371.372 313.748,-368.855 304.133,-364.405 303.456,-371.372"/>
</g>
<!-- Node31 -->
<g id="node31" class="node"><title>Node31</title>
<g id="a_node31"><a xlink:href="../../d6/d69/classclient_1_1irc_user.xhtml#aba9ee79c126657f6d31b349f9aa45491" target="_top" xlink:title="client::ircUser::getNick">
<polygon fill="white" stroke="black" points="320,-321.5 320,-340.5 436,-340.5 436,-321.5 320,-321.5"/>
<text text-anchor="middle" x="378" y="-328.5" font-family="Helvetica,sans-Serif" font-size="10.00">client::ircUser::getNick</text>
</a>
</g>
</g>
<!-- Node29&#45;&gt;Node31 -->
<g id="edge39" class="edge"><title>Node29&#45;&gt;Node31</title>
<path fill="none" stroke="midnightblue" d="M251.68,-350.335C269.75,-347.547 290.486,-344.348 309.82,-341.365"/>
<polygon fill="midnightblue" stroke="midnightblue" points="310.432,-344.812 319.782,-339.828 309.365,-337.894 310.432,-344.812"/>
</g>
<!-- Node32 -->
<g id="node32" class="node"><title>Node32</title>
<g id="a_node32"><a xlink:href="../../d6/d69/classclient_1_1irc_user.xhtml#a6a361f6ed53e82efe4e442db7023ae49" target="_top" xlink:title="client::ircUser::getStandard">
<polygon fill="white" stroke="black" points="310.5,-283.5 310.5,-302.5 445.5,-302.5 445.5,-283.5 310.5,-283.5"/>
<text text-anchor="middle" x="378" y="-290.5" font-family="Helvetica,sans-Serif" font-size="10.00">client::ircUser::getStandard</text>
</a>
</g>
</g>
<!-- Node29&#45;&gt;Node32 -->
<g id="edge40" class="edge"><title>Node29&#45;&gt;Node32</title>
<path fill="none" stroke="midnightblue" d="M241.735,-342.974C249.217,-339.865 256.913,-336.473 264,-333 280.633,-324.848 282.833,-318.957 300,-312 306.173,-309.499 312.763,-307.264 319.391,-305.285"/>
<polygon fill="midnightblue" stroke="midnightblue" points="320.402,-308.636 329.086,-302.566 318.512,-301.896 320.402,-308.636"/>
</g>
<!-- Node29&#45;&gt;Node23 -->
<g id="edge41" class="edge"><title>Node29&#45;&gt;Node23</title>
<path fill="none" stroke="midnightblue" d="M248.912,-342.944C254.308,-340.122 259.485,-336.827 264,-333 287.433,-313.138 275.223,-292.158 300,-274 304.838,-270.454 310.259,-267.565 315.925,-265.212"/>
<polygon fill="midnightblue" stroke="midnightblue" points="317.397,-268.403 325.631,-261.736 315.037,-261.813 317.397,-268.403"/>
</g>
<!-- Node29&#45;&gt;Node9 -->
<g id="edge42" class="edge"><title>Node29&#45;&gt;Node9</title>
<path fill="none" stroke="midnightblue" d="M240.121,-373.128C248.035,-376.336 256.306,-379.74 264,-383 280.122,-389.831 283.651,-392.732 300,-399 305.856,-401.245 312.011,-403.467 318.181,-405.606"/>
<polygon fill="midnightblue" stroke="midnightblue" points="317.256,-408.988 327.851,-408.89 319.508,-402.36 317.256,-408.988"/>
</g>
<!-- Node30&#45;&gt;Node7 -->
<g id="edge38" class="edge"><title>Node30&#45;&gt;Node7</title>
<path fill="none" stroke="midnightblue" d="M435.357,-390.098C442.52,-392.933 449.581,-396.22 456,-400 489.579,-419.777 521.285,-452.039 540.664,-473.874"/>
<polygon fill="midnightblue" stroke="midnightblue" points="538.259,-476.442 547.466,-481.684 543.537,-471.844 538.259,-476.442"/>
</g>
</g>
</svg>
