<?xml version="1.0" encoding="UTF-8" standalone="no"?>
<!DOCTYPE svg PUBLIC "-//W3C//DTD SVG 1.1//EN"
 "http://www.w3.org/Graphics/SVG/1.1/DTD/svg11.dtd">
<!-- Generated by graphviz version 2.30.1 (20130303.0817)
 -->
<!-- Title: client::MainWindow::serverMessageReceived Pages: 1 -->
<svg width="466pt" height="136pt"
 viewBox="0.00 0.00 466.00 136.00" xmlns="http://www.w3.org/2000/svg" xmlns:xlink="http://www.w3.org/1999/xlink">
<g id="graph0" class="graph" transform="scale(1 1) rotate(0) translate(4 132)">
<title>client::MainWindow::serverMessageReceived</title>
<polygon fill="white" stroke="white" points="-4,5 -4,-132 463,-132 463,5 -4,5"/>
<!-- Node1 -->
<g id="node1" class="node"><title>Node1</title>
<polygon fill="#bfbfbf" stroke="black" points="0.5,-49 0.5,-79 127.5,-79 127.5,-49 0.5,-49"/>
<text text-anchor="start" x="8.5" y="-67" font-family="Helvetica,sans-Serif" font-size="10.00">client::MainWindow</text>
<text text-anchor="middle" x="64" y="-56" font-family="Helvetica,sans-Serif" font-size="10.00">::serverMessageReceived</text>
</g>
<!-- Node2 -->
<g id="node2" class="node"><title>Node2</title>
<g id="a_node2"><a xlink:href="../../d6/dfe/classshared_1_1events_1_1event_server_message.html#a578aacc79570f1c7302c6c69be564ac1" target="_top" xlink:title="Gets the level of the message.">
<polygon fill="white" stroke="black" points="164.5,-98 164.5,-128 299.5,-128 299.5,-98 164.5,-98"/>
<text text-anchor="start" x="172.5" y="-116" font-family="Helvetica,sans-Serif" font-size="10.00">shared::events::eventServer</text>
<text text-anchor="middle" x="232" y="-105" font-family="Helvetica,sans-Serif" font-size="10.00">Message::getLevel</text>
</a>
</g>
</g>
<!-- Node1&#45;&gt;Node2 -->
<g id="edge1" class="edge"><title>Node1&#45;&gt;Node2</title>
<path fill="none" stroke="midnightblue" d="M116.16,-79.1014C133.281,-84.1551 152.532,-89.8376 170.308,-95.0848"/>
<polygon fill="midnightblue" stroke="midnightblue" points="169.427,-98.4741 180.009,-97.9484 171.409,-91.7605 169.427,-98.4741"/>
</g>
<!-- Node4 -->
<g id="node4" class="node"><title>Node4</title>
<g id="a_node4"><a xlink:href="../../d6/dfe/classshared_1_1events_1_1event_server_message.html#a8d893e8dbb1289d2552a3a48d1323edd" target="_top" xlink:title="Gets the message.">
<polygon fill="white" stroke="black" points="164.5,-49 164.5,-79 299.5,-79 299.5,-49 164.5,-49"/>
<text text-anchor="start" x="172.5" y="-67" font-family="Helvetica,sans-Serif" font-size="10.00">shared::events::eventServer</text>
<text text-anchor="middle" x="232" y="-56" font-family="Helvetica,sans-Serif" font-size="10.00">Message::getMessage</text>
</a>
</g>
</g>
<!-- Node1&#45;&gt;Node4 -->
<g id="edge3" class="edge"><title>Node1&#45;&gt;Node4</title>
<path fill="none" stroke="midnightblue" d="M127.757,-64C136.336,-64 145.222,-64 154.018,-64"/>
<polygon fill="midnightblue" stroke="midnightblue" points="154.277,-67.5001 164.277,-64 154.277,-60.5001 154.277,-67.5001"/>
</g>
<!-- Node5 -->
<g id="node5" class="node"><title>Node5</title>
<g id="a_node5"><a xlink:href="../../db/d8b/classshared_1_1events_1_1cls_event.html#a2b450c42e2a6603add85738c19ea7151" target="_top" xlink:title="Gets the time on which the event was created.">
<polygon fill="white" stroke="black" points="171,-0 171,-30 293,-30 293,-0 171,-0"/>
<text text-anchor="start" x="179" y="-18" font-family="Helvetica,sans-Serif" font-size="10.00">shared::events::clsEvent</text>
<text text-anchor="middle" x="232" y="-7" font-family="Helvetica,sans-Serif" font-size="10.00">::getTime</text>
</a>
</g>
</g>
<!-- Node1&#45;&gt;Node5 -->
<g id="edge5" class="edge"><title>Node1&#45;&gt;Node5</title>
<path fill="none" stroke="midnightblue" d="M116.16,-48.8986C133.281,-43.8449 152.532,-38.1624 170.308,-32.9152"/>
<polygon fill="midnightblue" stroke="midnightblue" points="171.409,-36.2395 180.009,-30.0516 169.427,-29.5259 171.409,-36.2395"/>
</g>
<!-- Node3 -->
<g id="node3" class="node"><title>Node3</title>
<g id="a_node3"><a xlink:href="../../db/d8b/classshared_1_1events_1_1cls_event.html#ac3acc2e80a92d28a980a50595517bf4a" target="_top" xlink:title="Get data from the events data map.">
<polygon fill="white" stroke="black" points="336,-73 336,-103 458,-103 458,-73 336,-73"/>
<text text-anchor="start" x="344" y="-91" font-family="Helvetica,sans-Serif" font-size="10.00">shared::events::clsEvent</text>
<text text-anchor="middle" x="397" y="-80" font-family="Helvetica,sans-Serif" font-size="10.00">::getData</text>
</a>
</g>
</g>
<!-- Node2&#45;&gt;Node3 -->
<g id="edge2" class="edge"><title>Node2&#45;&gt;Node3</title>
<path fill="none" stroke="midnightblue" d="M299.769,-102.759C308.363,-101.441 317.183,-100.089 325.83,-98.7623"/>
<polygon fill="midnightblue" stroke="midnightblue" points="326.523,-102.197 335.876,-97.2214 325.461,-95.278 326.523,-102.197"/>
</g>
<!-- Node4&#45;&gt;Node3 -->
<g id="edge4" class="edge"><title>Node4&#45;&gt;Node3</title>
<path fill="none" stroke="midnightblue" d="M299.769,-73.831C308.363,-75.0964 317.183,-76.395 325.83,-77.6682"/>
<polygon fill="midnightblue" stroke="midnightblue" points="325.473,-81.1533 335.876,-79.1474 326.493,-74.228 325.473,-81.1533"/>
</g>
</g>
</svg>
