<?xml version="1.0" encoding="UTF-8" standalone="no"?>
<!DOCTYPE svg PUBLIC "-//W3C//DTD SVG 1.1//EN"
 "http://www.w3.org/Graphics/SVG/1.1/DTD/svg11.dtd">
<!-- Generated by graphviz version 2.30.1 (20130303.0817)
 -->
<!-- Title: client::MainWindow::doReconnect Pages: 1 -->
<svg width="392pt" height="87pt"
 viewBox="0.00 0.00 392.00 87.00" xmlns="http://www.w3.org/2000/svg" xmlns:xlink="http://www.w3.org/1999/xlink">
<g id="graph0" class="graph" transform="scale(1 1) rotate(0) translate(4 83)">
<title>client::MainWindow::doReconnect</title>
<polygon fill="white" stroke="white" points="-4,5 -4,-83 389,-83 389,5 -4,5"/>
<!-- Node1 -->
<g id="node1" class="node"><title>Node1</title>
<polygon fill="#bfbfbf" stroke="black" points="0.5,-24 0.5,-54 101.5,-54 101.5,-24 0.5,-24"/>
<text text-anchor="start" x="8.5" y="-42" font-family="Helvetica,sans-Serif" font-size="10.00">client::MainWindow</text>
<text text-anchor="middle" x="51" y="-31" font-family="Helvetica,sans-Serif" font-size="10.00">::doReconnect</text>
</g>
<!-- Node2 -->
<g id="node2" class="node"><title>Node2</title>
<g id="a_node2"><a xlink:href="../../d2/da4/classclient_1_1_main_window.html#a1453a7da1874881b67aa919390012e36" target="_top" xlink:title="client::MainWindow\l::serverDisconnected">
<polygon fill="white" stroke="black" points="138.5,-49 138.5,-79 245.5,-79 245.5,-49 138.5,-49"/>
<text text-anchor="start" x="146.5" y="-67" font-family="Helvetica,sans-Serif" font-size="10.00">client::MainWindow</text>
<text text-anchor="middle" x="192" y="-56" font-family="Helvetica,sans-Serif" font-size="10.00">::serverDisconnected</text>
</a>
</g>
</g>
<!-- Node1&#45;&gt;Node2 -->
<g id="edge1" class="edge"><title>Node1&#45;&gt;Node2</title>
<path fill="none" stroke="midnightblue" d="M111.658,-49.7298C120.508,-51.3216 129.575,-52.9524 138.27,-54.5163"/>
<polygon fill="midnightblue" stroke="midnightblue" points="112.251,-46.2805 101.79,-47.955 111.012,-53.1699 112.251,-46.2805"/>
</g>
<!-- Node4 -->
<g id="node4" class="node"><title>Node4</title>
<g id="a_node4"><a xlink:href="../../d2/da4/classclient_1_1_main_window.html#a6df87d6d4bb287478d307d7e45097187" target="_top" xlink:title="Triggered when we cannot connect to the server!">
<polygon fill="white" stroke="black" points="141,-0 141,-30 243,-30 243,-0 141,-0"/>
<text text-anchor="start" x="149" y="-18" font-family="Helvetica,sans-Serif" font-size="10.00">client::MainWindow</text>
<text text-anchor="middle" x="192" y="-7" font-family="Helvetica,sans-Serif" font-size="10.00">::connectedTimeout</text>
</a>
</g>
</g>
<!-- Node1&#45;&gt;Node4 -->
<g id="edge3" class="edge"><title>Node1&#45;&gt;Node4</title>
<path fill="none" stroke="midnightblue" d="M111.707,-28.6909C121.343,-27.0271 131.235,-25.3191 140.623,-23.6982"/>
<polygon fill="midnightblue" stroke="midnightblue" points="111.048,-25.2527 101.79,-30.4032 112.239,-32.1507 111.048,-25.2527"/>
</g>
<!-- Node3 -->
<g id="node3" class="node"><title>Node3</title>
<g id="a_node3"><a xlink:href="../../d2/da4/classclient_1_1_main_window.html#ab4aedce719340218169c114b31b54f70" target="_top" xlink:title="client::MainWindow\l::MainWindow">
<polygon fill="white" stroke="black" points="282.5,-24 282.5,-54 383.5,-54 383.5,-24 282.5,-24"/>
<text text-anchor="start" x="290.5" y="-42" font-family="Helvetica,sans-Serif" font-size="10.00">client::MainWindow</text>
<text text-anchor="middle" x="333" y="-31" font-family="Helvetica,sans-Serif" font-size="10.00">::MainWindow</text>
</a>
</g>
</g>
<!-- Node2&#45;&gt;Node3 -->
<g id="edge2" class="edge"><title>Node2&#45;&gt;Node3</title>
<path fill="none" stroke="midnightblue" d="M255.517,-52.7559C264.432,-51.1525 273.501,-49.5214 282.131,-47.9693"/>
<polygon fill="midnightblue" stroke="midnightblue" points="254.772,-49.3336 245.55,-54.5486 256.012,-56.2231 254.772,-49.3336"/>
</g>
<!-- Node4&#45;&gt;Node3 -->
<g id="edge4" class="edge"><title>Node4&#45;&gt;Node3</title>
<path fill="none" stroke="midnightblue" d="M253.201,-25.3945C262.933,-27.0747 272.912,-28.7978 282.357,-30.4286"/>
<polygon fill="midnightblue" stroke="midnightblue" points="253.632,-21.9171 243.182,-23.6646 252.441,-28.815 253.632,-21.9171"/>
</g>
</g>
</svg>
