<?xml version="1.0" encoding="UTF-8" standalone="no"?>
<!DOCTYPE svg PUBLIC "-//W3C//DTD SVG 1.1//EN"
 "http://www.w3.org/Graphics/SVG/1.1/DTD/svg11.dtd">
<!-- Generated by graphviz version 2.30.1 (20130303.0817)
 -->
<!-- Title: client::MainWindow::connectedTimeout Pages: 1 -->
<svg width="682pt" height="104pt"
 viewBox="0.00 0.00 682.00 104.00" xmlns="http://www.w3.org/2000/svg" xmlns:xlink="http://www.w3.org/1999/xlink">
<g id="graph0" class="graph" transform="scale(1 1) rotate(0) translate(4 100)">
<title>client::MainWindow::connectedTimeout</title>
<polygon fill="white" stroke="white" points="-4,5 -4,-100 679,-100 679,5 -4,5"/>
<!-- Node1 -->
<g id="node1" class="node"><title>Node1</title>
<polygon fill="#bfbfbf" stroke="black" points="0,-44 0,-74 102,-74 102,-44 0,-44"/>
<text text-anchor="start" x="8" y="-62" font-family="Helvetica,sans-Serif" font-size="10.00">client::MainWindow</text>
<text text-anchor="middle" x="51" y="-51" font-family="Helvetica,sans-Serif" font-size="10.00">::connectedTimeout</text>
</g>
<!-- Node2 -->
<g id="node2" class="node"><title>Node2</title>
<g id="a_node2"><a xlink:href="../../d2/da4/classclient_1_1_main_window.html#a39679af3cff16dcf78ae97733c3c1781" target="_top" xlink:title="client::MainWindow\l::showMessage">
<polygon fill="white" stroke="black" points="279.5,-66 279.5,-96 380.5,-96 380.5,-66 279.5,-66"/>
<text text-anchor="start" x="287.5" y="-84" font-family="Helvetica,sans-Serif" font-size="10.00">client::MainWindow</text>
<text text-anchor="middle" x="330" y="-73" font-family="Helvetica,sans-Serif" font-size="10.00">::showMessage</text>
</a>
</g>
</g>
<!-- Node1&#45;&gt;Node2 -->
<g id="edge1" class="edge"><title>Node1&#45;&gt;Node2</title>
<path fill="none" stroke="midnightblue" d="M102.163,-62.984C149.129,-66.7142 219.354,-72.2917 269.211,-76.2514"/>
<polygon fill="midnightblue" stroke="midnightblue" points="268.965,-79.7428 279.211,-77.0456 269.519,-72.7648 268.965,-79.7428"/>
</g>
<!-- Node3 -->
<g id="node3" class="node"><title>Node3</title>
<g id="a_node3"><a xlink:href="../../d2/da4/classclient_1_1_main_window.html#a4714272984f1518ea739cc5c809d8579" target="_top" xlink:title="client::MainWindow\l::doReconnect">
<polygon fill="white" stroke="black" points="138.5,-22 138.5,-52 239.5,-52 239.5,-22 138.5,-22"/>
<text text-anchor="start" x="146.5" y="-40" font-family="Helvetica,sans-Serif" font-size="10.00">client::MainWindow</text>
<text text-anchor="middle" x="189" y="-29" font-family="Helvetica,sans-Serif" font-size="10.00">::doReconnect</text>
</a>
</g>
</g>
<!-- Node1&#45;&gt;Node3 -->
<g id="edge2" class="edge"><title>Node1&#45;&gt;Node3</title>
<path fill="none" stroke="midnightblue" d="M102.255,-50.8705C110.739,-49.4981 119.619,-48.0616 128.316,-46.6548"/>
<polygon fill="midnightblue" stroke="midnightblue" points="129.092,-50.0748 138.405,-45.0227 127.974,-43.1646 129.092,-50.0748"/>
</g>
<!-- Node3&#45;&gt;Node2 -->
<g id="edge3" class="edge"><title>Node3&#45;&gt;Node2</title>
<path fill="none" stroke="midnightblue" d="M237.447,-52.0192C248.396,-55.4852 260.16,-59.2089 271.486,-62.7941"/>
<polygon fill="midnightblue" stroke="midnightblue" points="270.705,-66.2179 281.295,-65.8991 272.817,-59.5443 270.705,-66.2179"/>
</g>
<!-- Node4 -->
<g id="node4" class="node"><title>Node4</title>
<g id="a_node4"><a xlink:href="../../d3/d65/classclient_1_1cls_server_conn.html#af4589d93eb4b606423cb4b5e4a583f4e" target="_top" xlink:title="Actually connect.">
<polygon fill="white" stroke="black" points="276,-17 276,-47 384,-47 384,-17 276,-17"/>
<text text-anchor="start" x="284" y="-35" font-family="Helvetica,sans-Serif" font-size="10.00">client::clsServerConn</text>
<text text-anchor="middle" x="330" y="-24" font-family="Helvetica,sans-Serif" font-size="10.00">::doConnect</text>
</a>
</g>
</g>
<!-- Node3&#45;&gt;Node4 -->
<g id="edge4" class="edge"><title>Node3&#45;&gt;Node4</title>
<path fill="none" stroke="midnightblue" d="M239.79,-35.209C248.188,-34.9069 257.005,-34.5897 265.692,-34.2773"/>
<polygon fill="midnightblue" stroke="midnightblue" points="265.93,-37.7711 275.798,-33.9138 265.678,-30.7756 265.93,-37.7711"/>
</g>
<!-- Node5 -->
<g id="node5" class="node"><title>Node5</title>
<g id="a_node5"><a xlink:href="../../d3/d65/classclient_1_1cls_server_conn.html#a5ec4520ae6b50789ef650436b6339d43" target="_top" xlink:title="client::clsServerConn\l::connectTimeout">
<polygon fill="white" stroke="black" points="420,-39 420,-69 528,-69 528,-39 420,-39"/>
<text text-anchor="start" x="428" y="-57" font-family="Helvetica,sans-Serif" font-size="10.00">client::clsServerConn</text>
<text text-anchor="middle" x="474" y="-46" font-family="Helvetica,sans-Serif" font-size="10.00">::connectTimeout</text>
</a>
</g>
</g>
<!-- Node4&#45;&gt;Node5 -->
<g id="edge5" class="edge"><title>Node4&#45;&gt;Node5</title>
<path fill="none" stroke="midnightblue" d="M384.28,-40.2546C392.651,-41.5516 401.374,-42.9029 409.94,-44.2301"/>
<polygon fill="midnightblue" stroke="midnightblue" points="409.476,-47.6999 419.894,-45.7723 410.548,-40.7825 409.476,-47.6999"/>
</g>
<!-- Node7 -->
<g id="node7" class="node"><title>Node7</title>
<g id="a_node7"><a xlink:href="../../d6/d75/namespace_k4_u.html#aaddaee50fab2801df390147891b0c09d" target="_top" xlink:title="K4U::endl">
<polygon fill="white" stroke="black" points="444.5,-0.5 444.5,-19.5 503.5,-19.5 503.5,-0.5 444.5,-0.5"/>
<text text-anchor="middle" x="474" y="-7.5" font-family="Helvetica,sans-Serif" font-size="10.00">K4U::endl</text>
</a>
</g>
</g>
<!-- Node4&#45;&gt;Node7 -->
<g id="edge7" class="edge"><title>Node4&#45;&gt;Node7</title>
<path fill="none" stroke="midnightblue" d="M384.28,-23.7454C400.777,-21.1896 418.637,-18.4224 433.979,-16.0455"/>
<polygon fill="midnightblue" stroke="midnightblue" points="434.804,-19.4595 444.151,-14.4696 433.733,-12.542 434.804,-19.4595"/>
</g>
<!-- Node6 -->
<g id="node6" class="node"><title>Node6</title>
<g id="a_node6"><a xlink:href="../../d3/d65/classclient_1_1cls_server_conn.html#af0d708fd1a5059ca1b2c8c0829bbb690" target="_top" xlink:title="Triggered when it cannot connect.">
<polygon fill="white" stroke="black" points="564.5,-39 564.5,-69 673.5,-69 673.5,-39 564.5,-39"/>
<text text-anchor="start" x="572.5" y="-57" font-family="Helvetica,sans-Serif" font-size="10.00">client::clsServerConn</text>
<text text-anchor="middle" x="619" y="-46" font-family="Helvetica,sans-Serif" font-size="10.00">::sgnConnectTimeout</text>
</a>
</g>
</g>
<!-- Node5&#45;&gt;Node6 -->
<g id="edge6" class="edge"><title>Node5&#45;&gt;Node6</title>
<path fill="none" stroke="midnightblue" d="M528.248,-54C536.695,-54 545.506,-54 554.166,-54"/>
<polygon fill="midnightblue" stroke="midnightblue" points="554.231,-57.5001 564.231,-54 554.231,-50.5001 554.231,-57.5001"/>
</g>
<!-- Node8 -->
<g id="node8" class="node"><title>Node8</title>
<g id="a_node8"><a xlink:href="../../da/d64/class_k4_u_1_1cls_log.html#a81f179b2ccb3e2abeb9b47f5b83de935" target="_top" xlink:title="K4U::clsLog::doEndl">
<polygon fill="white" stroke="black" points="566,-0.5 566,-19.5 672,-19.5 672,-0.5 566,-0.5"/>
<text text-anchor="middle" x="619" y="-7.5" font-family="Helvetica,sans-Serif" font-size="10.00">K4U::clsLog::doEndl</text>
</a>
</g>
</g>
<!-- Node7&#45;&gt;Node8 -->
<g id="edge8" class="edge"><title>Node7&#45;&gt;Node8</title>
<path fill="none" stroke="midnightblue" d="M503.594,-4.47371C518.517,-3.49683 537.396,-3.10483 555.495,-3.2977"/>
<polygon fill="midnightblue" stroke="midnightblue" points="555.672,-6.80113 565.73,-3.47185 555.791,0.197854 555.672,-6.80113"/>
</g>
<!-- Node8&#45;&gt;Node7 -->
<g id="edge9" class="edge"><title>Node8&#45;&gt;Node7</title>
<path fill="none" stroke="midnightblue" d="M565.73,-16.5282C548.512,-16.9344 529.687,-16.7827 513.67,-16.073"/>
<polygon fill="midnightblue" stroke="midnightblue" points="513.769,-12.5733 503.594,-15.5263 513.39,-19.5631 513.769,-12.5733"/>
</g>
</g>
</svg>
