<?xml version="1.0" encoding="UTF-8" standalone="no"?>
<!DOCTYPE svg PUBLIC "-//W3C//DTD SVG 1.1//EN"
 "http://www.w3.org/Graphics/SVG/1.1/DTD/svg11.dtd">
<!-- Generated by graphviz version 2.30.1 (20130303.0817)
 -->
<!-- Title: client::MainWindow::userEnter Pages: 1 -->
<svg width="440pt" height="202pt"
 viewBox="0.00 0.00 440.00 202.00" xmlns="http://www.w3.org/2000/svg" xmlns:xlink="http://www.w3.org/1999/xlink">
<g id="graph0" class="graph" transform="scale(1 1) rotate(0) translate(4 198)">
<title>client::MainWindow::userEnter</title>
<polygon fill="white" stroke="white" points="-4,5 -4,-198 437,-198 437,5 -4,5"/>
<!-- Node1 -->
<g id="node1" class="node"><title>Node1</title>
<polygon fill="#bfbfbf" stroke="black" points="0.5,-82 0.5,-112 101.5,-112 101.5,-82 0.5,-82"/>
<text text-anchor="start" x="8.5" y="-100" font-family="Helvetica,sans-Serif" font-size="10.00">client::MainWindow</text>
<text text-anchor="middle" x="51" y="-89" font-family="Helvetica,sans-Serif" font-size="10.00">::userEnter</text>
</g>
<!-- Node2 -->
<g id="node2" class="node"><title>Node2</title>
<g id="a_node2"><a xlink:href="../../dd/d05/classshared_1_1events_1_1event_user_join.html#afd49e93a57440f97dd02ccbec353cdb8" target="_top" xlink:title="Gets a QVariantMap of the user that joined.">
<polygon fill="white" stroke="black" points="142,-164 142,-194 270,-194 270,-164 142,-164"/>
<text text-anchor="start" x="150" y="-182" font-family="Helvetica,sans-Serif" font-size="10.00">shared::events::eventUser</text>
<text text-anchor="middle" x="206" y="-171" font-family="Helvetica,sans-Serif" font-size="10.00">Join::getUser</text>
</a>
</g>
</g>
<!-- Node1&#45;&gt;Node2 -->
<g id="edge1" class="edge"><title>Node1&#45;&gt;Node2</title>
<path fill="none" stroke="midnightblue" d="M72.0497,-112.199C88.9876,-124.562 114.22,-141.884 138,-154 142.204,-156.142 146.636,-158.199 151.135,-160.148"/>
<polygon fill="midnightblue" stroke="midnightblue" points="149.838,-163.399 160.416,-163.993 152.517,-156.932 149.838,-163.399"/>
</g>
<!-- Node4 -->
<g id="node4" class="node"><title>Node4</title>
<g id="a_node4"><a xlink:href="../../d6/d69/classclient_1_1irc_user.html#aba9ee79c126657f6d31b349f9aa45491" target="_top" xlink:title="client::ircUser::getNick">
<polygon fill="white" stroke="black" points="148,-125.5 148,-144.5 264,-144.5 264,-125.5 148,-125.5"/>
<text text-anchor="middle" x="206" y="-132.5" font-family="Helvetica,sans-Serif" font-size="10.00">client::ircUser::getNick</text>
</a>
</g>
</g>
<!-- Node1&#45;&gt;Node4 -->
<g id="edge3" class="edge"><title>Node1&#45;&gt;Node4</title>
<path fill="none" stroke="midnightblue" d="M101.675,-109.338C119.326,-113.722 139.16,-118.647 156.695,-123.003"/>
<polygon fill="midnightblue" stroke="midnightblue" points="156.171,-126.479 166.72,-125.493 157.859,-119.685 156.171,-126.479"/>
</g>
<!-- Node5 -->
<g id="node5" class="node"><title>Node5</title>
<g id="a_node5"><a xlink:href="../../d6/d69/classclient_1_1irc_user.html#a6a361f6ed53e82efe4e442db7023ae49" target="_top" xlink:title="client::ircUser::getStandard">
<polygon fill="white" stroke="black" points="138.5,-87.5 138.5,-106.5 273.5,-106.5 273.5,-87.5 138.5,-87.5"/>
<text text-anchor="middle" x="206" y="-94.5" font-family="Helvetica,sans-Serif" font-size="10.00">client::ircUser::getStandard</text>
</a>
</g>
</g>
<!-- Node1&#45;&gt;Node5 -->
<g id="edge4" class="edge"><title>Node1&#45;&gt;Node5</title>
<path fill="none" stroke="midnightblue" d="M101.675,-97C110.17,-97 119.17,-97 128.177,-97"/>
<polygon fill="midnightblue" stroke="midnightblue" points="128.321,-100.5 138.321,-97 128.321,-93.5001 128.321,-100.5"/>
</g>
<!-- Node6 -->
<g id="node6" class="node"><title>Node6</title>
<g id="a_node6"><a xlink:href="../../d6/d69/classclient_1_1irc_user.html#a7cfd7dd6670a4f1b2af75914a1e1f4ae" target="_top" xlink:title="client::ircUser::getId">
<polygon fill="white" stroke="black" points="154,-49.5 154,-68.5 258,-68.5 258,-49.5 154,-49.5"/>
<text text-anchor="middle" x="206" y="-56.5" font-family="Helvetica,sans-Serif" font-size="10.00">client::ircUser::getId</text>
</a>
</g>
</g>
<!-- Node1&#45;&gt;Node6 -->
<g id="edge5" class="edge"><title>Node1&#45;&gt;Node6</title>
<path fill="none" stroke="midnightblue" d="M101.675,-84.6625C119.326,-80.2784 139.16,-75.3525 156.695,-70.9973"/>
<polygon fill="midnightblue" stroke="midnightblue" points="157.859,-74.3147 166.72,-68.5074 156.171,-67.5211 157.859,-74.3147"/>
</g>
<!-- Node7 -->
<g id="node7" class="node"><title>Node7</title>
<g id="a_node7"><a xlink:href="../../db/d8b/classshared_1_1events_1_1cls_event.html#a2b450c42e2a6603add85738c19ea7151" target="_top" xlink:title="Gets the time on which the event was created.">
<polygon fill="white" stroke="black" points="145,-0 145,-30 267,-30 267,-0 145,-0"/>
<text text-anchor="start" x="153" y="-18" font-family="Helvetica,sans-Serif" font-size="10.00">shared::events::clsEvent</text>
<text text-anchor="middle" x="206" y="-7" font-family="Helvetica,sans-Serif" font-size="10.00">::getTime</text>
</a>
</g>
</g>
<!-- Node1&#45;&gt;Node7 -->
<g id="edge6" class="edge"><title>Node1&#45;&gt;Node7</title>
<path fill="none" stroke="midnightblue" d="M72.0497,-81.8008C88.9876,-69.4378 114.22,-52.1163 138,-40 142.204,-37.8582 146.636,-35.8014 151.135,-33.8516"/>
<polygon fill="midnightblue" stroke="midnightblue" points="152.517,-37.0677 160.416,-30.0066 149.838,-30.6008 152.517,-37.0677"/>
</g>
<!-- Node3 -->
<g id="node3" class="node"><title>Node3</title>
<g id="a_node3"><a xlink:href="../../db/d8b/classshared_1_1events_1_1cls_event.html#ac3acc2e80a92d28a980a50595517bf4a" target="_top" xlink:title="Get data from the events data map.">
<polygon fill="white" stroke="black" points="310,-164 310,-194 432,-194 432,-164 310,-164"/>
<text text-anchor="start" x="318" y="-182" font-family="Helvetica,sans-Serif" font-size="10.00">shared::events::clsEvent</text>
<text text-anchor="middle" x="371" y="-171" font-family="Helvetica,sans-Serif" font-size="10.00">::getData</text>
</a>
</g>
</g>
<!-- Node2&#45;&gt;Node3 -->
<g id="edge2" class="edge"><title>Node2&#45;&gt;Node3</title>
<path fill="none" stroke="midnightblue" d="M270.02,-179C279.728,-179 289.804,-179 299.659,-179"/>
<polygon fill="midnightblue" stroke="midnightblue" points="299.824,-182.5 309.824,-179 299.824,-175.5 299.824,-182.5"/>
</g>
</g>
</svg>
