<?xml version="1.0" encoding="UTF-8" standalone="no"?>
<!DOCTYPE svg PUBLIC "-//W3C//DTD SVG 1.1//EN"
 "http://www.w3.org/Graphics/SVG/1.1/DTD/svg11.dtd">
<!-- Generated by graphviz version 2.30.1 (20130303.0817)
 -->
<!-- Title: client::MainWindow::doReconnect Pages: 1 -->
<svg width="544pt" height="104pt"
 viewBox="0.00 0.00 544.00 104.00" xmlns="http://www.w3.org/2000/svg" xmlns:xlink="http://www.w3.org/1999/xlink">
<g id="graph0" class="graph" transform="scale(1 1) rotate(0) translate(4 100)">
<title>client::MainWindow::doReconnect</title>
<polygon fill="white" stroke="white" points="-4,5 -4,-100 541,-100 541,5 -4,5"/>
<!-- Node1 -->
<g id="node1" class="node"><title>Node1</title>
<polygon fill="#bfbfbf" stroke="black" points="0.5,-41 0.5,-71 101.5,-71 101.5,-41 0.5,-41"/>
<text text-anchor="start" x="8.5" y="-59" font-family="Helvetica,sans-Serif" font-size="10.00">client::MainWindow</text>
<text text-anchor="middle" x="51" y="-48" font-family="Helvetica,sans-Serif" font-size="10.00">::doReconnect</text>
</g>
<!-- Node2 -->
<g id="node2" class="node"><title>Node2</title>
<g id="a_node2"><a xlink:href="../../d2/da4/classclient_1_1_main_window.html#a39679af3cff16dcf78ae97733c3c1781" target="_top" xlink:title="client::MainWindow\l::showMessage">
<polygon fill="white" stroke="black" points="141.5,-66 141.5,-96 242.5,-96 242.5,-66 141.5,-66"/>
<text text-anchor="start" x="149.5" y="-84" font-family="Helvetica,sans-Serif" font-size="10.00">client::MainWindow</text>
<text text-anchor="middle" x="192" y="-73" font-family="Helvetica,sans-Serif" font-size="10.00">::showMessage</text>
</a>
</g>
</g>
<!-- Node1&#45;&gt;Node2 -->
<g id="edge1" class="edge"><title>Node1&#45;&gt;Node2</title>
<path fill="none" stroke="midnightblue" d="M101.79,-64.955C111.271,-66.6603 121.287,-68.4617 131.046,-70.217"/>
<polygon fill="midnightblue" stroke="midnightblue" points="130.629,-73.698 141.091,-72.0235 131.868,-66.8086 130.629,-73.698"/>
</g>
<!-- Node3 -->
<g id="node3" class="node"><title>Node3</title>
<g id="a_node3"><a xlink:href="../../d3/d65/classclient_1_1cls_server_conn.html#af4589d93eb4b606423cb4b5e4a583f4e" target="_top" xlink:title="Actually connect.">
<polygon fill="white" stroke="black" points="138,-17 138,-47 246,-47 246,-17 138,-17"/>
<text text-anchor="start" x="146" y="-35" font-family="Helvetica,sans-Serif" font-size="10.00">client::clsServerConn</text>
<text text-anchor="middle" x="192" y="-24" font-family="Helvetica,sans-Serif" font-size="10.00">::doConnect</text>
</a>
</g>
</g>
<!-- Node1&#45;&gt;Node3 -->
<g id="edge2" class="edge"><title>Node1&#45;&gt;Node3</title>
<path fill="none" stroke="midnightblue" d="M101.79,-47.4032C110.188,-45.9531 119.005,-44.4307 127.692,-42.9308"/>
<polygon fill="midnightblue" stroke="midnightblue" points="128.539,-46.3365 137.798,-41.186 127.348,-39.4386 128.539,-46.3365"/>
</g>
<!-- Node4 -->
<g id="node4" class="node"><title>Node4</title>
<g id="a_node4"><a xlink:href="../../d3/d65/classclient_1_1cls_server_conn.html#a5ec4520ae6b50789ef650436b6339d43" target="_top" xlink:title="client::clsServerConn\l::connectTimeout">
<polygon fill="white" stroke="black" points="282,-39 282,-69 390,-69 390,-39 282,-39"/>
<text text-anchor="start" x="290" y="-57" font-family="Helvetica,sans-Serif" font-size="10.00">client::clsServerConn</text>
<text text-anchor="middle" x="336" y="-46" font-family="Helvetica,sans-Serif" font-size="10.00">::connectTimeout</text>
</a>
</g>
</g>
<!-- Node3&#45;&gt;Node4 -->
<g id="edge3" class="edge"><title>Node3&#45;&gt;Node4</title>
<path fill="none" stroke="midnightblue" d="M246.28,-40.2546C254.651,-41.5516 263.374,-42.9029 271.94,-44.2301"/>
<polygon fill="midnightblue" stroke="midnightblue" points="271.476,-47.6999 281.894,-45.7723 272.548,-40.7825 271.476,-47.6999"/>
</g>
<!-- Node6 -->
<g id="node6" class="node"><title>Node6</title>
<g id="a_node6"><a xlink:href="../../d6/d75/namespace_k4_u.html#aaddaee50fab2801df390147891b0c09d" target="_top" xlink:title="K4U::endl">
<polygon fill="white" stroke="black" points="306.5,-0.5 306.5,-19.5 365.5,-19.5 365.5,-0.5 306.5,-0.5"/>
<text text-anchor="middle" x="336" y="-7.5" font-family="Helvetica,sans-Serif" font-size="10.00">K4U::endl</text>
</a>
</g>
</g>
<!-- Node3&#45;&gt;Node6 -->
<g id="edge5" class="edge"><title>Node3&#45;&gt;Node6</title>
<path fill="none" stroke="midnightblue" d="M246.28,-23.7454C262.777,-21.1896 280.637,-18.4224 295.979,-16.0455"/>
<polygon fill="midnightblue" stroke="midnightblue" points="296.804,-19.4595 306.151,-14.4696 295.733,-12.542 296.804,-19.4595"/>
</g>
<!-- Node5 -->
<g id="node5" class="node"><title>Node5</title>
<g id="a_node5"><a xlink:href="../../d3/d65/classclient_1_1cls_server_conn.html#af0d708fd1a5059ca1b2c8c0829bbb690" target="_top" xlink:title="Triggered when it cannot connect.">
<polygon fill="white" stroke="black" points="426.5,-39 426.5,-69 535.5,-69 535.5,-39 426.5,-39"/>
<text text-anchor="start" x="434.5" y="-57" font-family="Helvetica,sans-Serif" font-size="10.00">client::clsServerConn</text>
<text text-anchor="middle" x="481" y="-46" font-family="Helvetica,sans-Serif" font-size="10.00">::sgnConnectTimeout</text>
</a>
</g>
</g>
<!-- Node4&#45;&gt;Node5 -->
<g id="edge4" class="edge"><title>Node4&#45;&gt;Node5</title>
<path fill="none" stroke="midnightblue" d="M390.248,-54C398.695,-54 407.506,-54 416.166,-54"/>
<polygon fill="midnightblue" stroke="midnightblue" points="416.231,-57.5001 426.231,-54 416.231,-50.5001 416.231,-57.5001"/>
</g>
<!-- Node7 -->
<g id="node7" class="node"><title>Node7</title>
<g id="a_node7"><a xlink:href="../../da/d64/class_k4_u_1_1cls_log.html#a81f179b2ccb3e2abeb9b47f5b83de935" target="_top" xlink:title="K4U::clsLog::doEndl">
<polygon fill="white" stroke="black" points="428,-0.5 428,-19.5 534,-19.5 534,-0.5 428,-0.5"/>
<text text-anchor="middle" x="481" y="-7.5" font-family="Helvetica,sans-Serif" font-size="10.00">K4U::clsLog::doEndl</text>
</a>
</g>
</g>
<!-- Node6&#45;&gt;Node7 -->
<g id="edge6" class="edge"><title>Node6&#45;&gt;Node7</title>
<path fill="none" stroke="midnightblue" d="M365.594,-4.47371C380.517,-3.49683 399.396,-3.10483 417.495,-3.2977"/>
<polygon fill="midnightblue" stroke="midnightblue" points="417.672,-6.80113 427.73,-3.47185 417.791,0.197854 417.672,-6.80113"/>
</g>
<!-- Node7&#45;&gt;Node6 -->
<g id="edge7" class="edge"><title>Node7&#45;&gt;Node6</title>
<path fill="none" stroke="midnightblue" d="M427.73,-16.5282C410.512,-16.9344 391.687,-16.7827 375.67,-16.073"/>
<polygon fill="midnightblue" stroke="midnightblue" points="375.769,-12.5733 365.594,-15.5263 375.39,-19.5631 375.769,-12.5733"/>
</g>
</g>
</svg>
