<?xml version="1.0" encoding="UTF-8" standalone="no"?>
<!DOCTYPE svg PUBLIC "-//W3C//DTD SVG 1.1//EN"
 "http://www.w3.org/Graphics/SVG/1.1/DTD/svg11.dtd">
<!-- Generated by graphviz version 2.30.1 (20130303.0817)
 -->
<!-- Title: client::MainWindow::userChangeNick Pages: 1 -->
<svg width="274pt" height="136pt"
 viewBox="0.00 0.00 274.00 136.00" xmlns="http://www.w3.org/2000/svg" xmlns:xlink="http://www.w3.org/1999/xlink">
<g id="graph0" class="graph" transform="scale(1 1) rotate(0) translate(4 132)">
<title>client::MainWindow::userChangeNick</title>
<polygon fill="white" stroke="white" points="-4,5 -4,-132 271,-132 271,5 -4,5"/>
<!-- Node1 -->
<g id="node1" class="node"><title>Node1</title>
<polygon fill="#bfbfbf" stroke="black" points="0.5,-49 0.5,-79 101.5,-79 101.5,-49 0.5,-49"/>
<text text-anchor="start" x="8.5" y="-67" font-family="Helvetica,sans-Serif" font-size="10.00">client::MainWindow</text>
<text text-anchor="middle" x="51" y="-56" font-family="Helvetica,sans-Serif" font-size="10.00">::userChangeNick</text>
</g>
<!-- Node2 -->
<g id="node2" class="node"><title>Node2</title>
<g id="a_node2"><a xlink:href="../../d5/de1/classshared_1_1events_1_1event_user_change_nick.html#ad79adbb7cd52aa5307ff59ddbc2d8b7d" target="_top" xlink:title="Gets the DB&#45;ID of the user that changed nick.">
<polygon fill="white" stroke="black" points="138,-98 138,-128 266,-128 266,-98 138,-98"/>
<text text-anchor="start" x="146" y="-116" font-family="Helvetica,sans-Serif" font-size="10.00">shared::events::eventUser</text>
<text text-anchor="middle" x="202" y="-105" font-family="Helvetica,sans-Serif" font-size="10.00">ChangeNick::getUserId</text>
</a>
</g>
</g>
<!-- Node1&#45;&gt;Node2 -->
<g id="edge1" class="edge"><title>Node1&#45;&gt;Node2</title>
<path fill="none" stroke="midnightblue" d="M97.9207,-79.1014C113.003,-84.0615 129.928,-89.6274 145.636,-94.7929"/>
<polygon fill="midnightblue" stroke="midnightblue" points="144.638,-98.1492 155.231,-97.9484 146.825,-91.4995 144.638,-98.1492"/>
</g>
<!-- Node3 -->
<g id="node3" class="node"><title>Node3</title>
<g id="a_node3"><a xlink:href="../../d5/de1/classshared_1_1events_1_1event_user_change_nick.html#a69ac7b5a6aa9bfab4d28e9fe54baf3d5" target="_top" xlink:title="Gets the new nick of the user.">
<polygon fill="white" stroke="black" points="138,-49 138,-79 266,-79 266,-49 138,-49"/>
<text text-anchor="start" x="146" y="-67" font-family="Helvetica,sans-Serif" font-size="10.00">shared::events::eventUser</text>
<text text-anchor="middle" x="202" y="-56" font-family="Helvetica,sans-Serif" font-size="10.00">ChangeNick::getNewNick</text>
</a>
</g>
</g>
<!-- Node1&#45;&gt;Node3 -->
<g id="edge2" class="edge"><title>Node1&#45;&gt;Node3</title>
<path fill="none" stroke="midnightblue" d="M101.615,-64C109.951,-64 118.757,-64 127.543,-64"/>
<polygon fill="midnightblue" stroke="midnightblue" points="127.819,-67.5001 137.819,-64 127.819,-60.5001 127.819,-67.5001"/>
</g>
<!-- Node4 -->
<g id="node4" class="node"><title>Node4</title>
<g id="a_node4"><a xlink:href="../../d5/de1/classshared_1_1events_1_1event_user_change_nick.html#a4eab71d2abb978c22f7207a46a9bc70e" target="_top" xlink:title="Gets the old nick of the user.">
<polygon fill="white" stroke="black" points="138,-0 138,-30 266,-30 266,-0 138,-0"/>
<text text-anchor="start" x="146" y="-18" font-family="Helvetica,sans-Serif" font-size="10.00">shared::events::eventUser</text>
<text text-anchor="middle" x="202" y="-7" font-family="Helvetica,sans-Serif" font-size="10.00">ChangeNick::getOldNick</text>
</a>
</g>
</g>
<!-- Node1&#45;&gt;Node4 -->
<g id="edge3" class="edge"><title>Node1&#45;&gt;Node4</title>
<path fill="none" stroke="midnightblue" d="M97.9207,-48.8986C113.003,-43.9385 129.928,-38.3726 145.636,-33.2071"/>
<polygon fill="midnightblue" stroke="midnightblue" points="146.825,-36.5005 155.231,-30.0516 144.638,-29.8508 146.825,-36.5005"/>
</g>
</g>
</svg>
