<?xml version="1.0" encoding="UTF-8" standalone="no"?>
<!DOCTYPE svg PUBLIC "-//W3C//DTD SVG 1.1//EN"
 "http://www.w3.org/Graphics/SVG/1.1/DTD/svg11.dtd">
<!-- Generated by graphviz version 2.30.1 (20130303.0817)
 -->
<!-- Title: client::MainWindow::userLeave Pages: 1 -->
<svg width="432pt" height="87pt"
 viewBox="0.00 0.00 432.00 87.00" xmlns="http://www.w3.org/2000/svg" xmlns:xlink="http://www.w3.org/1999/xlink">
<g id="graph0" class="graph" transform="scale(1 1) rotate(0) translate(4 83)">
<title>client::MainWindow::userLeave</title>
<polygon fill="white" stroke="white" points="-4,5 -4,-83 429,-83 429,5 -4,5"/>
<!-- Node1 -->
<g id="node1" class="node"><title>Node1</title>
<polygon fill="#bfbfbf" stroke="black" points="0.5,-24 0.5,-54 101.5,-54 101.5,-24 0.5,-24"/>
<text text-anchor="start" x="8.5" y="-42" font-family="Helvetica,sans-Serif" font-size="10.00">client::MainWindow</text>
<text text-anchor="middle" x="51" y="-31" font-family="Helvetica,sans-Serif" font-size="10.00">::userLeave</text>
</g>
<!-- Node2 -->
<g id="node2" class="node"><title>Node2</title>
<g id="a_node2"><a xlink:href="../../d9/d9f/classshared_1_1events_1_1event_user_leave.html#afb9cb12d52415109349d1469f1577353" target="_top" xlink:title="Gets the DB&#45;ID of the user that left.">
<polygon fill="white" stroke="black" points="138,-49 138,-79 266,-79 266,-49 138,-49"/>
<text text-anchor="start" x="146" y="-67" font-family="Helvetica,sans-Serif" font-size="10.00">shared::events::eventUser</text>
<text text-anchor="middle" x="202" y="-56" font-family="Helvetica,sans-Serif" font-size="10.00">Leave::getUserId</text>
</a>
</g>
</g>
<!-- Node1&#45;&gt;Node2 -->
<g id="edge1" class="edge"><title>Node1&#45;&gt;Node2</title>
<path fill="none" stroke="midnightblue" d="M101.615,-47.3246C110.041,-48.7385 118.948,-50.2329 127.829,-51.723"/>
<polygon fill="midnightblue" stroke="midnightblue" points="127.378,-55.1961 137.819,-53.3992 128.536,-48.2926 127.378,-55.1961"/>
</g>
<!-- Node4 -->
<g id="node4" class="node"><title>Node4</title>
<g id="a_node4"><a xlink:href="../../db/d8b/classshared_1_1events_1_1cls_event.html#a2b450c42e2a6603add85738c19ea7151" target="_top" xlink:title="Gets the time on which the event was created.">
<polygon fill="white" stroke="black" points="141,-0 141,-30 263,-30 263,-0 141,-0"/>
<text text-anchor="start" x="149" y="-18" font-family="Helvetica,sans-Serif" font-size="10.00">shared::events::clsEvent</text>
<text text-anchor="middle" x="202" y="-7" font-family="Helvetica,sans-Serif" font-size="10.00">::getTime</text>
</a>
</g>
</g>
<!-- Node1&#45;&gt;Node4 -->
<g id="edge3" class="edge"><title>Node1&#45;&gt;Node4</title>
<path fill="none" stroke="midnightblue" d="M101.615,-31.0083C111.075,-29.4845 121.14,-27.8633 131.096,-26.2597"/>
<polygon fill="midnightblue" stroke="midnightblue" points="131.672,-29.7121 140.988,-24.6663 130.559,-22.8012 131.672,-29.7121"/>
</g>
<!-- Node3 -->
<g id="node3" class="node"><title>Node3</title>
<g id="a_node3"><a xlink:href="../../db/d8b/classshared_1_1events_1_1cls_event.html#ac3acc2e80a92d28a980a50595517bf4a" target="_top" xlink:title="Get data from the events data map.">
<polygon fill="white" stroke="black" points="302,-49 302,-79 424,-79 424,-49 302,-49"/>
<text text-anchor="start" x="310" y="-67" font-family="Helvetica,sans-Serif" font-size="10.00">shared::events::clsEvent</text>
<text text-anchor="middle" x="363" y="-56" font-family="Helvetica,sans-Serif" font-size="10.00">::getData</text>
</a>
</g>
</g>
<!-- Node2&#45;&gt;Node3 -->
<g id="edge2" class="edge"><title>Node2&#45;&gt;Node3</title>
<path fill="none" stroke="midnightblue" d="M266.298,-64C274.61,-64 283.168,-64 291.589,-64"/>
<polygon fill="midnightblue" stroke="midnightblue" points="291.766,-67.5001 301.766,-64 291.766,-60.5001 291.766,-67.5001"/>
</g>
</g>
</svg>
