<?xml version="1.0" encoding="UTF-8" standalone="no"?>
<!DOCTYPE svg PUBLIC "-//W3C//DTD SVG 1.1//EN"
 "http://www.w3.org/Graphics/SVG/1.1/DTD/svg11.dtd">
<!-- Generated by graphviz version 2.30.1 (20130303.0817)
 -->
<!-- Title: client::MainWindow::chatReceived Pages: 1 -->
<svg width="432pt" height="136pt"
 viewBox="0.00 0.00 432.00 136.00" xmlns="http://www.w3.org/2000/svg" xmlns:xlink="http://www.w3.org/1999/xlink">
<g id="graph0" class="graph" transform="scale(1 1) rotate(0) translate(4 132)">
<title>client::MainWindow::chatReceived</title>
<polygon fill="white" stroke="white" points="-4,5 -4,-132 429,-132 429,5 -4,5"/>
<!-- Node1 -->
<g id="node1" class="node"><title>Node1</title>
<polygon fill="#bfbfbf" stroke="black" points="0.5,-49 0.5,-79 101.5,-79 101.5,-49 0.5,-49"/>
<text text-anchor="start" x="8.5" y="-67" font-family="Helvetica,sans-Serif" font-size="10.00">client::MainWindow</text>
<text text-anchor="middle" x="51" y="-56" font-family="Helvetica,sans-Serif" font-size="10.00">::chatReceived</text>
</g>
<!-- Node2 -->
<g id="node2" class="node"><title>Node2</title>
<g id="a_node2"><a xlink:href="../../d1/d68/classshared_1_1events_1_1event_chat.html#affa9c414f40d61277b690efd4013f550" target="_top" xlink:title="Gets the DB&#45;ID of the user that sent the message.">
<polygon fill="white" stroke="black" points="138,-98 138,-128 266,-128 266,-98 138,-98"/>
<text text-anchor="start" x="146" y="-116" font-family="Helvetica,sans-Serif" font-size="10.00">shared::events::eventChat</text>
<text text-anchor="middle" x="202" y="-105" font-family="Helvetica,sans-Serif" font-size="10.00">::getUser</text>
</a>
</g>
</g>
<!-- Node1&#45;&gt;Node2 -->
<g id="edge1" class="edge"><title>Node1&#45;&gt;Node2</title>
<path fill="none" stroke="midnightblue" d="M97.9207,-79.1014C113.003,-84.0615 129.928,-89.6274 145.636,-94.7929"/>
<polygon fill="midnightblue" stroke="midnightblue" points="144.638,-98.1492 155.231,-97.9484 146.825,-91.4995 144.638,-98.1492"/>
</g>
<!-- Node4 -->
<g id="node4" class="node"><title>Node4</title>
<g id="a_node4"><a xlink:href="../../d1/d68/classshared_1_1events_1_1event_chat.html#a10a61f130fb402e63922cd0b34468c8e" target="_top" xlink:title="Gets the chat message.">
<polygon fill="white" stroke="black" points="138,-49 138,-79 266,-79 266,-49 138,-49"/>
<text text-anchor="start" x="146" y="-67" font-family="Helvetica,sans-Serif" font-size="10.00">shared::events::eventChat</text>
<text text-anchor="middle" x="202" y="-56" font-family="Helvetica,sans-Serif" font-size="10.00">::getMessage</text>
</a>
</g>
</g>
<!-- Node1&#45;&gt;Node4 -->
<g id="edge3" class="edge"><title>Node1&#45;&gt;Node4</title>
<path fill="none" stroke="midnightblue" d="M101.615,-64C109.951,-64 118.757,-64 127.543,-64"/>
<polygon fill="midnightblue" stroke="midnightblue" points="127.819,-67.5001 137.819,-64 127.819,-60.5001 127.819,-67.5001"/>
</g>
<!-- Node5 -->
<g id="node5" class="node"><title>Node5</title>
<g id="a_node5"><a xlink:href="../../db/d8b/classshared_1_1events_1_1cls_event.html#a2b450c42e2a6603add85738c19ea7151" target="_top" xlink:title="Gets the time on which the event was created.">
<polygon fill="white" stroke="black" points="141,-0 141,-30 263,-30 263,-0 141,-0"/>
<text text-anchor="start" x="149" y="-18" font-family="Helvetica,sans-Serif" font-size="10.00">shared::events::clsEvent</text>
<text text-anchor="middle" x="202" y="-7" font-family="Helvetica,sans-Serif" font-size="10.00">::getTime</text>
</a>
</g>
</g>
<!-- Node1&#45;&gt;Node5 -->
<g id="edge5" class="edge"><title>Node1&#45;&gt;Node5</title>
<path fill="none" stroke="midnightblue" d="M97.9207,-48.8986C113.003,-43.9385 129.928,-38.3726 145.636,-33.2071"/>
<polygon fill="midnightblue" stroke="midnightblue" points="146.825,-36.5005 155.231,-30.0516 144.638,-29.8508 146.825,-36.5005"/>
</g>
<!-- Node3 -->
<g id="node3" class="node"><title>Node3</title>
<g id="a_node3"><a xlink:href="../../db/d8b/classshared_1_1events_1_1cls_event.html#ac3acc2e80a92d28a980a50595517bf4a" target="_top" xlink:title="Get data from the events data map.">
<polygon fill="white" stroke="black" points="302,-73 302,-103 424,-103 424,-73 302,-73"/>
<text text-anchor="start" x="310" y="-91" font-family="Helvetica,sans-Serif" font-size="10.00">shared::events::clsEvent</text>
<text text-anchor="middle" x="363" y="-80" font-family="Helvetica,sans-Serif" font-size="10.00">::getData</text>
</a>
</g>
</g>
<!-- Node2&#45;&gt;Node3 -->
<g id="edge2" class="edge"><title>Node2&#45;&gt;Node3</title>
<path fill="none" stroke="midnightblue" d="M266.298,-103.048C274.701,-101.726 283.356,-100.365 291.866,-99.0273"/>
<polygon fill="midnightblue" stroke="midnightblue" points="292.431,-102.482 301.766,-97.4708 291.344,-95.5666 292.431,-102.482"/>
</g>
<!-- Node4&#45;&gt;Node3 -->
<g id="edge4" class="edge"><title>Node4&#45;&gt;Node3</title>
<path fill="none" stroke="midnightblue" d="M266.298,-73.5544C274.701,-74.8228 283.356,-76.1292 291.866,-77.4138"/>
<polygon fill="midnightblue" stroke="midnightblue" points="291.355,-80.8762 301.766,-78.9081 292.4,-73.9546 291.355,-80.8762"/>
</g>
</g>
</svg>
