<?xml version="1.0" encoding="UTF-8" standalone="no"?>
<!DOCTYPE svg PUBLIC "-//W3C//DTD SVG 1.1//EN"
 "http://www.w3.org/Graphics/SVG/1.1/DTD/svg11.dtd">
<!-- Generated by graphviz version 2.30.1 (20130303.0817)
 -->
<!-- Title: client::MainWindow::serverDisconnected Pages: 1 -->
<svg width="688pt" height="104pt"
 viewBox="0.00 0.00 688.00 104.00" xmlns="http://www.w3.org/2000/svg" xmlns:xlink="http://www.w3.org/1999/xlink">
<g id="graph0" class="graph" transform="scale(1 1) rotate(0) translate(4 100)">
<title>client::MainWindow::serverDisconnected</title>
<polygon fill="white" stroke="white" points="-4,5 -4,-100 685,-100 685,5 -4,5"/>
<!-- Node1 -->
<g id="node1" class="node"><title>Node1</title>
<polygon fill="#bfbfbf" stroke="black" points="0.5,-44 0.5,-74 107.5,-74 107.5,-44 0.5,-44"/>
<text text-anchor="start" x="8.5" y="-62" font-family="Helvetica,sans-Serif" font-size="10.00">client::MainWindow</text>
<text text-anchor="middle" x="54" y="-51" font-family="Helvetica,sans-Serif" font-size="10.00">::serverDisconnected</text>
</g>
<!-- Node2 -->
<g id="node2" class="node"><title>Node2</title>
<g id="a_node2"><a xlink:href="../../d2/da4/classclient_1_1_main_window.html#a39679af3cff16dcf78ae97733c3c1781" target="_top" xlink:title="client::MainWindow\l::showMessage">
<polygon fill="white" stroke="black" points="285.5,-66 285.5,-96 386.5,-96 386.5,-66 285.5,-66"/>
<text text-anchor="start" x="293.5" y="-84" font-family="Helvetica,sans-Serif" font-size="10.00">client::MainWindow</text>
<text text-anchor="middle" x="336" y="-73" font-family="Helvetica,sans-Serif" font-size="10.00">::showMessage</text>
</a>
</g>
</g>
<!-- Node1&#45;&gt;Node2 -->
<g id="edge1" class="edge"><title>Node1&#45;&gt;Node2</title>
<path fill="none" stroke="midnightblue" d="M107.666,-63.138C155.388,-66.8876 225.652,-72.4084 275.412,-76.3181"/>
<polygon fill="midnightblue" stroke="midnightblue" points="275.147,-79.8079 285.39,-77.1021 275.695,-72.8294 275.147,-79.8079"/>
</g>
<!-- Node3 -->
<g id="node3" class="node"><title>Node3</title>
<g id="a_node3"><a xlink:href="../../d2/da4/classclient_1_1_main_window.html#a4714272984f1518ea739cc5c809d8579" target="_top" xlink:title="client::MainWindow\l::doReconnect">
<polygon fill="white" stroke="black" points="144.5,-22 144.5,-52 245.5,-52 245.5,-22 144.5,-22"/>
<text text-anchor="start" x="152.5" y="-40" font-family="Helvetica,sans-Serif" font-size="10.00">client::MainWindow</text>
<text text-anchor="middle" x="195" y="-29" font-family="Helvetica,sans-Serif" font-size="10.00">::doReconnect</text>
</a>
</g>
</g>
<!-- Node1&#45;&gt;Node3 -->
<g id="edge2" class="edge"><title>Node1&#45;&gt;Node3</title>
<path fill="none" stroke="midnightblue" d="M107.55,-50.6827C116.264,-49.3036 125.356,-47.8645 134.233,-46.4596"/>
<polygon fill="midnightblue" stroke="midnightblue" points="134.801,-49.9133 144.131,-44.893 133.706,-42.9994 134.801,-49.9133"/>
</g>
<!-- Node3&#45;&gt;Node2 -->
<g id="edge3" class="edge"><title>Node3&#45;&gt;Node2</title>
<path fill="none" stroke="midnightblue" d="M243.447,-52.0192C254.396,-55.4852 266.16,-59.2089 277.486,-62.7941"/>
<polygon fill="midnightblue" stroke="midnightblue" points="276.705,-66.2179 287.295,-65.8991 278.817,-59.5443 276.705,-66.2179"/>
</g>
<!-- Node4 -->
<g id="node4" class="node"><title>Node4</title>
<g id="a_node4"><a xlink:href="../../d3/d65/classclient_1_1cls_server_conn.html#af4589d93eb4b606423cb4b5e4a583f4e" target="_top" xlink:title="Actually connect.">
<polygon fill="white" stroke="black" points="282,-17 282,-47 390,-47 390,-17 282,-17"/>
<text text-anchor="start" x="290" y="-35" font-family="Helvetica,sans-Serif" font-size="10.00">client::clsServerConn</text>
<text text-anchor="middle" x="336" y="-24" font-family="Helvetica,sans-Serif" font-size="10.00">::doConnect</text>
</a>
</g>
</g>
<!-- Node3&#45;&gt;Node4 -->
<g id="edge4" class="edge"><title>Node3&#45;&gt;Node4</title>
<path fill="none" stroke="midnightblue" d="M245.79,-35.209C254.188,-34.9069 263.005,-34.5897 271.692,-34.2773"/>
<polygon fill="midnightblue" stroke="midnightblue" points="271.93,-37.7711 281.798,-33.9138 271.678,-30.7756 271.93,-37.7711"/>
</g>
<!-- Node5 -->
<g id="node5" class="node"><title>Node5</title>
<g id="a_node5"><a xlink:href="../../d3/d65/classclient_1_1cls_server_conn.html#a5ec4520ae6b50789ef650436b6339d43" target="_top" xlink:title="client::clsServerConn\l::connectTimeout">
<polygon fill="white" stroke="black" points="426,-39 426,-69 534,-69 534,-39 426,-39"/>
<text text-anchor="start" x="434" y="-57" font-family="Helvetica,sans-Serif" font-size="10.00">client::clsServerConn</text>
<text text-anchor="middle" x="480" y="-46" font-family="Helvetica,sans-Serif" font-size="10.00">::connectTimeout</text>
</a>
</g>
</g>
<!-- Node4&#45;&gt;Node5 -->
<g id="edge5" class="edge"><title>Node4&#45;&gt;Node5</title>
<path fill="none" stroke="midnightblue" d="M390.28,-40.2546C398.651,-41.5516 407.374,-42.9029 415.94,-44.2301"/>
<polygon fill="midnightblue" stroke="midnightblue" points="415.476,-47.6999 425.894,-45.7723 416.548,-40.7825 415.476,-47.6999"/>
</g>
<!-- Node7 -->
<g id="node7" class="node"><title>Node7</title>
<g id="a_node7"><a xlink:href="../../d6/d75/namespace_k4_u.html#aaddaee50fab2801df390147891b0c09d" target="_top" xlink:title="K4U::endl">
<polygon fill="white" stroke="black" points="450.5,-0.5 450.5,-19.5 509.5,-19.5 509.5,-0.5 450.5,-0.5"/>
<text text-anchor="middle" x="480" y="-7.5" font-family="Helvetica,sans-Serif" font-size="10.00">K4U::endl</text>
</a>
</g>
</g>
<!-- Node4&#45;&gt;Node7 -->
<g id="edge7" class="edge"><title>Node4&#45;&gt;Node7</title>
<path fill="none" stroke="midnightblue" d="M390.28,-23.7454C406.777,-21.1896 424.637,-18.4224 439.979,-16.0455"/>
<polygon fill="midnightblue" stroke="midnightblue" points="440.804,-19.4595 450.151,-14.4696 439.733,-12.542 440.804,-19.4595"/>
</g>
<!-- Node6 -->
<g id="node6" class="node"><title>Node6</title>
<g id="a_node6"><a xlink:href="../../d3/d65/classclient_1_1cls_server_conn.html#af0d708fd1a5059ca1b2c8c0829bbb690" target="_top" xlink:title="Triggered when it cannot connect.">
<polygon fill="white" stroke="black" points="570.5,-39 570.5,-69 679.5,-69 679.5,-39 570.5,-39"/>
<text text-anchor="start" x="578.5" y="-57" font-family="Helvetica,sans-Serif" font-size="10.00">client::clsServerConn</text>
<text text-anchor="middle" x="625" y="-46" font-family="Helvetica,sans-Serif" font-size="10.00">::sgnConnectTimeout</text>
</a>
</g>
</g>
<!-- Node5&#45;&gt;Node6 -->
<g id="edge6" class="edge"><title>Node5&#45;&gt;Node6</title>
<path fill="none" stroke="midnightblue" d="M534.248,-54C542.695,-54 551.506,-54 560.166,-54"/>
<polygon fill="midnightblue" stroke="midnightblue" points="560.231,-57.5001 570.231,-54 560.231,-50.5001 560.231,-57.5001"/>
</g>
<!-- Node8 -->
<g id="node8" class="node"><title>Node8</title>
<g id="a_node8"><a xlink:href="../../da/d64/class_k4_u_1_1cls_log.html#a81f179b2ccb3e2abeb9b47f5b83de935" target="_top" xlink:title="K4U::clsLog::doEndl">
<polygon fill="white" stroke="black" points="572,-0.5 572,-19.5 678,-19.5 678,-0.5 572,-0.5"/>
<text text-anchor="middle" x="625" y="-7.5" font-family="Helvetica,sans-Serif" font-size="10.00">K4U::clsLog::doEndl</text>
</a>
</g>
</g>
<!-- Node7&#45;&gt;Node8 -->
<g id="edge8" class="edge"><title>Node7&#45;&gt;Node8</title>
<path fill="none" stroke="midnightblue" d="M509.594,-4.47371C524.517,-3.49683 543.396,-3.10483 561.495,-3.2977"/>
<polygon fill="midnightblue" stroke="midnightblue" points="561.672,-6.80113 571.73,-3.47185 561.791,0.197854 561.672,-6.80113"/>
</g>
<!-- Node8&#45;&gt;Node7 -->
<g id="edge9" class="edge"><title>Node8&#45;&gt;Node7</title>
<path fill="none" stroke="midnightblue" d="M571.73,-16.5282C554.512,-16.9344 535.687,-16.7827 519.67,-16.073"/>
<polygon fill="midnightblue" stroke="midnightblue" points="519.769,-12.5733 509.594,-15.5263 519.39,-19.5631 519.769,-12.5733"/>
</g>
</g>
</svg>
