<?xml version="1.0" encoding="UTF-8" standalone="no"?>
<!DOCTYPE svg PUBLIC "-//W3C//DTD SVG 1.1//EN"
 "http://www.w3.org/Graphics/SVG/1.1/DTD/svg11.dtd">
<!-- Generated by graphviz version 2.30.1 (20130303.0817)
 -->
<!-- Title: C++/customIrcServer/main.cpp Pages: 1 -->
<!--zoomable 388 -->
<svg id="main" version="1.1" xmlns="http://www.w3.org/2000/svg" xmlns:xlink="http://www.w3.org/1999/xlink" xml:space="preserve" onload="init(evt)">
        <defs>
                <circle id="rim" cx="0" cy="0" r="7"/>
                <circle id="rim2" cx="0" cy="0" r="3.5"/>
                <g id="zoomPlus">
                        <use xlink:href="#rim" fill="#404040">
                                <set attributeName="fill" to="#808080" begin="zoomplus.mouseover" end="zoomplus.mouseout"/>
                        </use>
                        <path d="M-4,0h8M0,-4v8" fill="none" stroke="white" stroke-width="1.5" pointer-events="none"/>
                </g>
                <g id="zoomMin">
                        <use xlink:href="#rim" fill="#404040">
                                <set attributeName="fill" to="#808080" begin="zoomminus.mouseover" end="zoomminus.mouseout"/>
                        </use>
                        <path d="M-4,0h8" fill="none" stroke="white" stroke-width="1.5" pointer-events="none"/>
                </g>
                <g id="dirArrow">
                        <path fill="none" stroke="white" stroke-width="1.5" d="M0,-3.0v7 M-2.5,-0.5L0,-3.0L2.5,-0.5"/>
                </g>
               <g id="resetDef">
                       <use xlink:href="#rim2" fill="#404040">
                               <set attributeName="fill" to="#808080" begin="reset.mouseover" end="reset.mouseout"/>
                       </use>
               </g>
        </defs>

<script type="text/javascript">
var viewWidth = 1812;
var viewHeight = 388;
var sectionId = 'dynsection-0';
</script>
<script xlink:href="../../svgpan.js"/>
<svg id="graph" class="graph">
<g id="viewport">
<title>C++/customIrcServer/main.cpp</title>
<polygon fill="white" stroke="white" points="-4,5 -4,-384 1809.13,-384 1809.13,5 -4,5"/>
<!-- Node1 -->
<g id="node1" class="node"><title>Node1</title>
<polygon fill="#bfbfbf" stroke="black" points="48,-349 48,-379 156,-379 156,-349 48,-349"/>
<text text-anchor="start" x="56" y="-367" font-family="Helvetica,sans-Serif" font-size="10.00">C++/customIrcServer</text>
<text text-anchor="middle" x="102" y="-356" font-family="Helvetica,sans-Serif" font-size="10.00">/main.cpp</text>
</g>
<!-- Node2 -->
<g id="node2" class="node"><title>Node2</title>
<polygon fill="white" stroke="#bfbfbf" points="0,-292.5 0,-311.5 48,-311.5 48,-292.5 0,-292.5"/>
<text text-anchor="middle" x="24" y="-299.5" font-family="Helvetica,sans-Serif" font-size="10.00">stdlib.h</text>
</g>
<!-- Node1&#45;&gt;Node2 -->
<g id="edge1" class="edge"><title>Node1&#45;&gt;Node2</title>
<path fill="none" stroke="midnightblue" d="M83.5151,-348.781C71.4797,-339.523 55.8003,-327.462 43.5566,-318.044"/>
<polygon fill="midnightblue" stroke="midnightblue" points="45.41,-315.053 35.3497,-311.731 41.142,-320.602 45.41,-315.053"/>
</g>
<!-- Node3 -->
<g id="node3" class="node"><title>Node3</title>
<polygon fill="white" stroke="#bfbfbf" points="156,-0.5 156,-19.5 210,-19.5 210,-0.5 156,-0.5"/>
<text text-anchor="middle" x="183" y="-7.5" font-family="Helvetica,sans-Serif" font-size="10.00">iostream</text>
</g>
<!-- Node1&#45;&gt;Node3 -->
<g id="edge2" class="edge"><title>Node1&#45;&gt;Node3</title>
<path fill="none" stroke="midnightblue" d="M96.9869,-348.933C89.4316,-326.44 76,-280.847 76,-241 76,-241 76,-241 76,-121 76,-75.4134 123.803,-41.6237 155.506,-24.2269"/>
<polygon fill="midnightblue" stroke="midnightblue" points="157.148,-27.3179 164.362,-19.5587 153.884,-21.1255 157.148,-27.3179"/>
</g>
<!-- Node4 -->
<g id="node4" class="node"><title>Node4</title>
<polygon fill="white" stroke="#bfbfbf" points="104.5,-292.5 104.5,-311.5 151.5,-311.5 151.5,-292.5 104.5,-292.5"/>
<text text-anchor="middle" x="128" y="-299.5" font-family="Helvetica,sans-Serif" font-size="10.00">QtCore</text>
</g>
<!-- Node1&#45;&gt;Node4 -->
<g id="edge3" class="edge"><title>Node1&#45;&gt;Node4</title>
<path fill="none" stroke="midnightblue" d="M108.162,-348.781C111.745,-340.512 116.297,-330.006 120.137,-321.145"/>
<polygon fill="midnightblue" stroke="midnightblue" points="123.452,-322.298 124.217,-311.731 117.029,-319.514 123.452,-322.298"/>
</g>
<!-- Node5 -->
<g id="node5" class="node"><title>Node5</title>
<g id="a_node5"><a xlink:href="../../db/df6/mainapp_8h.xhtml" target="_top" xlink:title="mainapp.h">
<polygon fill="white" stroke="black" points="775,-292.5 775,-311.5 837,-311.5 837,-292.5 775,-292.5"/>
<text text-anchor="middle" x="806" y="-299.5" font-family="Helvetica,sans-Serif" font-size="10.00">mainapp.h</text>
</a>
</g>
</g>
<!-- Node1&#45;&gt;Node5 -->
<g id="edge4" class="edge"><title>Node1&#45;&gt;Node5</title>
<path fill="none" stroke="midnightblue" d="M156.073,-358.392C291.559,-346.844 643.351,-316.862 764.379,-306.547"/>
<polygon fill="midnightblue" stroke="midnightblue" points="765.027,-310.005 774.694,-305.668 764.433,-303.03 765.027,-310.005"/>
</g>
<!-- Node6 -->
<g id="node6" class="node"><title>Node6</title>
<polygon fill="white" stroke="#bfbfbf" points="1403.5,-56.5 1403.5,-75.5 1456.5,-75.5 1456.5,-56.5 1403.5,-56.5"/>
<text text-anchor="middle" x="1430" y="-63.5" font-family="Helvetica,sans-Serif" font-size="10.00">QObject</text>
</g>
<!-- Node5&#45;&gt;Node6 -->
<g id="edge5" class="edge"><title>Node5&#45;&gt;Node6</title>
<path fill="none" stroke="midnightblue" d="M837.383,-300.681C968.351,-299.132 1471.66,-290.979 1626,-256 1703.36,-238.469 1746.88,-253.91 1791,-188 1868.5,-72.2334 1573.7,-65.0711 1467.1,-66.1549"/>
<polygon fill="midnightblue" stroke="midnightblue" points="1466.75,-62.659 1456.8,-66.2916 1466.85,-69.6584 1466.75,-62.659"/>
</g>
<!-- Node7 -->
<g id="node7" class="node"><title>Node7</title>
<polygon fill="white" stroke="#bfbfbf" points="546.5,-56.5 546.5,-75.5 599.5,-75.5 599.5,-56.5 546.5,-56.5"/>
<text text-anchor="middle" x="573" y="-63.5" font-family="Helvetica,sans-Serif" font-size="10.00">QVector</text>
</g>
<!-- Node5&#45;&gt;Node7 -->
<g id="edge6" class="edge"><title>Node5&#45;&gt;Node7</title>
<path fill="none" stroke="midnightblue" d="M779.569,-292.412C726.406,-273.478 607.957,-222.481 565,-132 558.074,-117.412 561.296,-99.0031 565.537,-85.5036"/>
<polygon fill="midnightblue" stroke="midnightblue" points="568.901,-86.491 568.983,-75.8965 562.312,-84.1278 568.901,-86.491"/>
</g>
<!-- Node8 -->
<g id="node8" class="node"><title>Node8</title>
<g id="a_node8"><a xlink:href="../../d4/df9/ircclient_8h.xhtml" target="_top" xlink:title="ircclient.h">
<polygon fill="white" stroke="black" points="440.5,-168.5 440.5,-187.5 499.5,-187.5 499.5,-168.5 440.5,-168.5"/>
<text text-anchor="middle" x="470" y="-175.5" font-family="Helvetica,sans-Serif" font-size="10.00">ircclient.h</text>
</a>
</g>
</g>
<!-- Node5&#45;&gt;Node8 -->
<g id="edge7" class="edge"><title>Node5&#45;&gt;Node8</title>
<path fill="none" stroke="midnightblue" d="M774.627,-298.664C711.745,-293.532 572.813,-279.795 532,-256 507.98,-241.996 489.532,-214.881 479.223,-196.857"/>
<polygon fill="midnightblue" stroke="midnightblue" points="482.21,-195.023 474.35,-187.919 476.065,-198.374 482.21,-195.023"/>
</g>
<!-- Node15 -->
<g id="node15" class="node"><title>Node15</title>
<g id="a_node15"><a xlink:href="../../d8/d5c/functions_8h.xhtml" target="_top" xlink:title="functions.h">
<polygon fill="white" stroke="black" points="378,-56.5 378,-75.5 442,-75.5 442,-56.5 378,-56.5"/>
<text text-anchor="middle" x="410" y="-63.5" font-family="Helvetica,sans-Serif" font-size="10.00">functions.h</text>
</a>
</g>
</g>
<!-- Node5&#45;&gt;Node15 -->
<g id="edge32" class="edge"><title>Node5&#45;&gt;Node15</title>
<path fill="none" stroke="midnightblue" d="M774.928,-297.914C657.345,-285.509 242.729,-234.916 172,-132 166.965,-124.674 166.328,-118.844 172,-112 196.349,-82.6156 305.805,-72.2777 367.449,-68.7493"/>
<polygon fill="midnightblue" stroke="midnightblue" points="367.844,-72.2333 377.642,-68.2029 367.469,-65.2433 367.844,-72.2333"/>
</g>
<!-- Node21 -->
<g id="node21" class="node"><title>Node21</title>
<g id="a_node21"><a xlink:href="../../d6/d32/custom_irc_server_2ircuser_8h.xhtml" target="_top" xlink:title="ircuser.h">
<polygon fill="white" stroke="black" points="574,-112.5 574,-131.5 628,-131.5 628,-112.5 574,-112.5"/>
<text text-anchor="middle" x="601" y="-119.5" font-family="Helvetica,sans-Serif" font-size="10.00">ircuser.h</text>
</a>
</g>
</g>
<!-- Node5&#45;&gt;Node21 -->
<g id="edge33" class="edge"><title>Node5&#45;&gt;Node21</title>
<path fill="none" stroke="midnightblue" d="M796.112,-292.415C763.788,-264.348 660.921,-175.029 619.02,-138.647"/>
<polygon fill="midnightblue" stroke="midnightblue" points="621.117,-135.832 611.271,-131.918 616.527,-141.118 621.117,-135.832"/>
</g>
<!-- Node23 -->
<g id="node23" class="node"><title>Node23</title>
<g id="a_node23"><a xlink:href="../../d7/d1c/uiserver_8h.xhtml" target="_top" xlink:title="uiserver.h">
<polygon fill="white" stroke="black" points="968,-230.5 968,-249.5 1026,-249.5 1026,-230.5 968,-230.5"/>
<text text-anchor="middle" x="997" y="-237.5" font-family="Helvetica,sans-Serif" font-size="10.00">uiserver.h</text>
</a>
</g>
</g>
<!-- Node5&#45;&gt;Node23 -->
<g id="edge34" class="edge"><title>Node5&#45;&gt;Node23</title>
<path fill="none" stroke="midnightblue" d="M833.366,-292.403C866.554,-281.978 922.651,-264.356 959.758,-252.699"/>
<polygon fill="midnightblue" stroke="midnightblue" points="961.194,-255.917 969.685,-249.581 959.096,-249.239 961.194,-255.917"/>
</g>
<!-- Node27 -->
<g id="node27" class="node"><title>Node27</title>
<g id="a_node27"><a xlink:href="../../d1/de1/uiclient_8h.xhtml" target="_top" xlink:title="uiclient.h">
<polygon fill="white" stroke="black" points="1144,-168.5 1144,-187.5 1200,-187.5 1200,-168.5 1144,-168.5"/>
<text text-anchor="middle" x="1172" y="-175.5" font-family="Helvetica,sans-Serif" font-size="10.00">uiclient.h</text>
</a>
</g>
</g>
<!-- Node5&#45;&gt;Node27 -->
<g id="edge52" class="edge"><title>Node5&#45;&gt;Node27</title>
<path fill="none" stroke="midnightblue" d="M837.072,-297.992C881.746,-292.976 966.205,-280.893 1034,-256 1078.23,-239.758 1125.23,-210.652 1151.37,-193.253"/>
<polygon fill="midnightblue" stroke="midnightblue" points="1153.38,-196.121 1159.71,-187.627 1149.46,-190.318 1153.38,-196.121"/>
</g>
<!-- Node33 -->
<g id="node33" class="node"><title>Node33</title>
<g id="a_node33"><a xlink:href="../../d6/d0d/custom_irc_server_2clssettings_8h.xhtml" target="_top" xlink:title="clssettings.h">
<polygon fill="white" stroke="black" points="770,-168.5 770,-187.5 842,-187.5 842,-168.5 770,-168.5"/>
<text text-anchor="middle" x="806" y="-175.5" font-family="Helvetica,sans-Serif" font-size="10.00">clssettings.h</text>
</a>
</g>
</g>
<!-- Node5&#45;&gt;Node33 -->
<g id="edge53" class="edge"><title>Node5&#45;&gt;Node33</title>
<path fill="none" stroke="midnightblue" d="M806,-292.226C806,-272.53 806,-224.437 806,-197.7"/>
<polygon fill="midnightblue" stroke="midnightblue" points="809.5,-197.694 806,-187.694 802.5,-197.694 809.5,-197.694"/>
</g>
<!-- Node36 -->
<g id="node36" class="node"><title>Node36</title>
<g id="a_node36"><a xlink:href="../../db/d97/clsevent_8h.xhtml" target="_top" xlink:title="../resources/clsevent.h">
<polygon fill="white" stroke="black" points="1465.5,-112.5 1465.5,-131.5 1580.5,-131.5 1580.5,-112.5 1465.5,-112.5"/>
<text text-anchor="middle" x="1523" y="-119.5" font-family="Helvetica,sans-Serif" font-size="10.00">../resources/clsevent.h</text>
</a>
</g>
</g>
<!-- Node5&#45;&gt;Node36 -->
<g id="edge59" class="edge"><title>Node5&#45;&gt;Node36</title>
<path fill="none" stroke="midnightblue" d="M837.173,-300.8C934.253,-299.783 1239.59,-293.594 1489,-256 1618.2,-236.526 1694,-290.517 1775,-188 1780.51,-181.025 1780.71,-174.815 1775,-168 1751.9,-140.409 1657.19,-129.718 1590.71,-125.587"/>
<polygon fill="midnightblue" stroke="midnightblue" points="1590.89,-122.092 1580.71,-125.001 1590.48,-129.08 1590.89,-122.092"/>
</g>
<!-- Node37 -->
<g id="node37" class="node"><title>Node37</title>
<g id="a_node37"><a xlink:href="../../db/dd2/events_8h.xhtml" target="_top" xlink:title="../resources/events\l/events.h">
<polygon fill="white" stroke="black" points="1381.5,-225 1381.5,-255 1480.5,-255 1480.5,-225 1381.5,-225"/>
<text text-anchor="start" x="1389.5" y="-243" font-family="Helvetica,sans-Serif" font-size="10.00">../resources/events</text>
<text text-anchor="middle" x="1431" y="-232" font-family="Helvetica,sans-Serif" font-size="10.00">/events.h</text>
</a>
</g>
</g>
<!-- Node5&#45;&gt;Node37 -->
<g id="edge65" class="edge"><title>Node5&#45;&gt;Node37</title>
<path fill="none" stroke="midnightblue" d="M837.422,-297.983C936.116,-288.509 1241.05,-259.236 1371.17,-246.744"/>
<polygon fill="midnightblue" stroke="midnightblue" points="1371.72,-250.207 1381.34,-245.767 1371.06,-243.239 1371.72,-250.207"/>
</g>
<!-- Node8&#45;&gt;Node7 -->
<g id="edge8" class="edge"><title>Node8&#45;&gt;Node7</title>
<path fill="none" stroke="midnightblue" d="M478.082,-168.368C495.306,-149.974 535.853,-106.671 557.97,-83.0519"/>
<polygon fill="midnightblue" stroke="midnightblue" points="560.675,-85.2832 564.955,-75.5914 555.565,-80.4987 560.675,-85.2832"/>
</g>
<!-- Node9 -->
<g id="node9" class="node"><title>Node9</title>
<polygon fill="white" stroke="#bfbfbf" points="180.5,-112.5 180.5,-131.5 229.5,-131.5 229.5,-112.5 180.5,-112.5"/>
<text text-anchor="middle" x="205" y="-119.5" font-family="Helvetica,sans-Serif" font-size="10.00">QBuffer</text>
</g>
<!-- Node8&#45;&gt;Node9 -->
<g id="edge9" class="edge"><title>Node8&#45;&gt;Node9</title>
<path fill="none" stroke="midnightblue" d="M440.326,-171.388C397.072,-163.141 314.209,-147.087 244,-132 242.556,-131.69 241.084,-131.369 239.597,-131.042"/>
<polygon fill="midnightblue" stroke="midnightblue" points="240.256,-127.603 229.732,-128.826 238.722,-134.433 240.256,-127.603"/>
</g>
<!-- Node10 -->
<g id="node10" class="node"><title>Node10</title>
<polygon fill="white" stroke="#bfbfbf" points="855,-0.5 855,-19.5 905,-19.5 905,-0.5 855,-0.5"/>
<text text-anchor="middle" x="880" y="-7.5" font-family="Helvetica,sans-Serif" font-size="10.00">QString</text>
</g>
<!-- Node8&#45;&gt;Node10 -->
<g id="edge10" class="edge"><title>Node8&#45;&gt;Node10</title>
<path fill="none" stroke="midnightblue" d="M471.979,-168.47C477.725,-145.813 496.686,-83.9508 538,-56 587.505,-22.5074 767.738,-13.8861 844.736,-11.7131"/>
<polygon fill="midnightblue" stroke="midnightblue" points="844.986,-15.2079 854.891,-11.4474 844.803,-8.21027 844.986,-15.2079"/>
</g>
<!-- Node11 -->
<g id="node11" class="node"><title>Node11</title>
<polygon fill="white" stroke="#bfbfbf" points="684,-112.5 684,-131.5 754,-131.5 754,-112.5 684,-112.5"/>
<text text-anchor="middle" x="719" y="-119.5" font-family="Helvetica,sans-Serif" font-size="10.00">QTcpSocket</text>
</g>
<!-- Node8&#45;&gt;Node11 -->
<g id="edge11" class="edge"><title>Node8&#45;&gt;Node11</title>
<path fill="none" stroke="midnightblue" d="M499.541,-170.593C542.688,-161.236 623.295,-143.755 673.89,-132.783"/>
<polygon fill="midnightblue" stroke="midnightblue" points="674.867,-136.153 683.898,-130.613 673.383,-129.312 674.867,-136.153"/>
</g>
<!-- Node12 -->
<g id="node12" class="node"><title>Node12</title>
<polygon fill="white" stroke="#bfbfbf" points="334.5,-0.5 334.5,-19.5 399.5,-19.5 399.5,-0.5 334.5,-0.5"/>
<text text-anchor="middle" x="367" y="-7.5" font-family="Helvetica,sans-Serif" font-size="10.00">QStringList</text>
</g>
<!-- Node8&#45;&gt;Node12 -->
<g id="edge12" class="edge"><title>Node8&#45;&gt;Node12</title>
<path fill="none" stroke="midnightblue" d="M440.416,-177.185C372.081,-176.918 206.465,-172.06 172,-132 122.777,-74.7858 253.176,-35.9906 324.319,-19.6836"/>
<polygon fill="midnightblue" stroke="midnightblue" points="325.36,-23.0373 334.357,-17.4413 323.834,-16.2057 325.36,-23.0373"/>
</g>
<!-- Node13 -->
<g id="node13" class="node"><title>Node13</title>
<polygon fill="white" stroke="#bfbfbf" points="286,-112.5 286,-131.5 360,-131.5 360,-112.5 286,-112.5"/>
<text text-anchor="middle" x="323" y="-119.5" font-family="Helvetica,sans-Serif" font-size="10.00">QTextStream</text>
</g>
<!-- Node8&#45;&gt;Node13 -->
<g id="edge13" class="edge"><title>Node8&#45;&gt;Node13</title>
<path fill="none" stroke="midnightblue" d="M446.707,-168.444C422.193,-159.438 383.404,-145.189 355.8,-135.049"/>
<polygon fill="midnightblue" stroke="midnightblue" points="356.777,-131.679 346.184,-131.516 354.363,-138.25 356.777,-131.679"/>
</g>
<!-- Node14 -->
<g id="node14" class="node"><title>Node14</title>
<g id="a_node14"><a xlink:href="../../df/df2/irc_codes_8h.xhtml" target="_top" xlink:title="ircCodes.h">
<polygon fill="white" stroke="black" points="378.5,-112.5 378.5,-131.5 441.5,-131.5 441.5,-112.5 378.5,-112.5"/>
<text text-anchor="middle" x="410" y="-119.5" font-family="Helvetica,sans-Serif" font-size="10.00">ircCodes.h</text>
</a>
</g>
</g>
<!-- Node8&#45;&gt;Node14 -->
<g id="edge14" class="edge"><title>Node8&#45;&gt;Node14</title>
<path fill="none" stroke="midnightblue" d="M460.36,-168.324C451.49,-160.341 438.125,-148.313 427.392,-138.653"/>
<polygon fill="midnightblue" stroke="midnightblue" points="429.59,-135.922 419.815,-131.834 424.907,-141.125 429.59,-135.922"/>
</g>
<!-- Node8&#45;&gt;Node15 -->
<g id="edge15" class="edge"><title>Node8&#45;&gt;Node15</title>
<path fill="none" stroke="midnightblue" d="M440.247,-174.485C391.264,-169.661 297.052,-157.265 277,-132 249.48,-97.3253 319.205,-79.8852 367.772,-72.1852"/>
<polygon fill="midnightblue" stroke="midnightblue" points="368.401,-75.6301 377.772,-70.6872 367.364,-68.7074 368.401,-75.6301"/>
</g>
<!-- Node18 -->
<g id="node18" class="node"><title>Node18</title>
<g id="a_node18"><a xlink:href="../../d7/d62/clslog_8h.xhtml" target="_top" xlink:title="../resources/clslog.h">
<polygon fill="white" stroke="black" points="1004.5,-56.5 1004.5,-75.5 1109.5,-75.5 1109.5,-56.5 1004.5,-56.5"/>
<text text-anchor="middle" x="1057" y="-63.5" font-family="Helvetica,sans-Serif" font-size="10.00">../resources/clslog.h</text>
</a>
</g>
</g>
<!-- Node8&#45;&gt;Node18 -->
<g id="edge20" class="edge"><title>Node8&#45;&gt;Node18</title>
<path fill="none" stroke="midnightblue" d="M499.592,-171.105C533.474,-163.883 590.318,-150.313 637,-132 654.767,-125.03 656.772,-117.656 675,-112 733.016,-93.9983 901.499,-78.856 994.138,-71.6006"/>
<polygon fill="midnightblue" stroke="midnightblue" points="994.528,-75.081 1004.23,-70.8181 993.986,-68.1019 994.528,-75.081"/>
</g>
<!-- Node8&#45;&gt;Node21 -->
<g id="edge26" class="edge"><title>Node8&#45;&gt;Node21</title>
<path fill="none" stroke="midnightblue" d="M490.757,-168.444C512.316,-159.557 546.263,-145.563 570.794,-135.451"/>
<polygon fill="midnightblue" stroke="midnightblue" points="572.428,-138.563 580.34,-131.516 569.761,-132.092 572.428,-138.563"/>
</g>
<!-- Node16 -->
<g id="node16" class="node"><title>Node16</title>
<polygon fill="white" stroke="#bfbfbf" points="603.5,-0.5 603.5,-19.5 644.5,-19.5 644.5,-0.5 603.5,-0.5"/>
<text text-anchor="middle" x="624" y="-7.5" font-family="Helvetica,sans-Serif" font-size="10.00">string</text>
</g>
<!-- Node15&#45;&gt;Node16 -->
<g id="edge16" class="edge"><title>Node15&#45;&gt;Node16</title>
<path fill="none" stroke="midnightblue" d="M442.038,-56.9157C483.012,-46.5764 553.459,-28.8001 593.619,-18.6662"/>
<polygon fill="midnightblue" stroke="midnightblue" points="594.539,-22.0438 603.379,-16.2034 592.827,-15.2565 594.539,-22.0438"/>
</g>
<!-- Node15&#45;&gt;Node10 -->
<g id="edge17" class="edge"><title>Node15&#45;&gt;Node10</title>
<path fill="none" stroke="midnightblue" d="M442.108,-58.3462C446.758,-57.491 451.494,-56.6786 456,-56 599.373,-34.4084 771.559,-19.5141 844.539,-13.7083"/>
<polygon fill="midnightblue" stroke="midnightblue" points="844.878,-17.1925 854.572,-12.9179 844.328,-10.2142 844.878,-17.1925"/>
</g>
<!-- Node15&#45;&gt;Node12 -->
<g id="edge18" class="edge"><title>Node15&#45;&gt;Node12</title>
<path fill="none" stroke="midnightblue" d="M402.899,-56.083C396.763,-48.3768 387.73,-37.0333 380.261,-27.6531"/>
<polygon fill="midnightblue" stroke="midnightblue" points="382.936,-25.3936 373.968,-19.7511 377.46,-29.7542 382.936,-25.3936"/>
</g>
<!-- Node17 -->
<g id="node17" class="node"><title>Node17</title>
<polygon fill="white" stroke="#bfbfbf" points="417.5,-0.5 417.5,-19.5 488.5,-19.5 488.5,-0.5 417.5,-0.5"/>
<text text-anchor="middle" x="453" y="-7.5" font-family="Helvetica,sans-Serif" font-size="10.00">QVariantList</text>
</g>
<!-- Node15&#45;&gt;Node17 -->
<g id="edge19" class="edge"><title>Node15&#45;&gt;Node17</title>
<path fill="none" stroke="midnightblue" d="M417.101,-56.083C423.237,-48.3768 432.27,-37.0333 439.739,-27.6531"/>
<polygon fill="midnightblue" stroke="midnightblue" points="442.54,-29.7542 446.032,-19.7511 437.064,-25.3936 442.54,-29.7542"/>
</g>
<!-- Node19 -->
<g id="node19" class="node"><title>Node19</title>
<polygon fill="white" stroke="#bfbfbf" points="1031,-0.5 1031,-19.5 1083,-19.5 1083,-0.5 1031,-0.5"/>
<text text-anchor="middle" x="1057" y="-7.5" font-family="Helvetica,sans-Serif" font-size="10.00">QDebug</text>
</g>
<!-- Node18&#45;&gt;Node19 -->
<g id="edge21" class="edge"><title>Node18&#45;&gt;Node19</title>
<path fill="none" stroke="midnightblue" d="M1057,-56.083C1057,-49.0059 1057,-38.8611 1057,-29.9865"/>
<polygon fill="midnightblue" stroke="midnightblue" points="1060.5,-29.751 1057,-19.7511 1053.5,-29.7511 1060.5,-29.751"/>
</g>
<!-- Node20 -->
<g id="node20" class="node"><title>Node20</title>
<polygon fill="white" stroke="#bfbfbf" points="1256.5,-0.5 1256.5,-19.5 1321.5,-19.5 1321.5,-0.5 1256.5,-0.5"/>
<text text-anchor="middle" x="1289" y="-7.5" font-family="Helvetica,sans-Serif" font-size="10.00">QDateTime</text>
</g>
<!-- Node18&#45;&gt;Node20 -->
<g id="edge22" class="edge"><title>Node18&#45;&gt;Node20</title>
<path fill="none" stroke="midnightblue" d="M1093.76,-56.4435C1135.25,-46.787 1202.64,-31.1012 1246.39,-20.9175"/>
<polygon fill="midnightblue" stroke="midnightblue" points="1247.22,-24.3193 1256.16,-18.6433 1245.63,-17.5015 1247.22,-24.3193"/>
</g>
<!-- Node18&#45;&gt;Node16 -->
<g id="edge23" class="edge"><title>Node18&#45;&gt;Node16</title>
<path fill="none" stroke="midnightblue" d="M1004.34,-58.4325C913.042,-47.0468 728.135,-23.9868 654.888,-14.8521"/>
<polygon fill="midnightblue" stroke="midnightblue" points="655.272,-11.373 644.916,-13.6084 654.406,-18.3192 655.272,-11.373"/>
</g>
<!-- Node18&#45;&gt;Node3 -->
<g id="edge24" class="edge"><title>Node18&#45;&gt;Node3</title>
<path fill="none" stroke="midnightblue" d="M1004.18,-61.7873C883.728,-54.4536 579.469,-35.886 325,-20 289.429,-17.7794 248.848,-15.203 220.203,-13.3773"/>
<polygon fill="midnightblue" stroke="midnightblue" points="220.424,-9.88436 210.221,-12.7407 219.978,-16.8702 220.424,-9.88436"/>
</g>
<!-- Node18&#45;&gt;Node12 -->
<g id="edge25" class="edge"><title>Node18&#45;&gt;Node12</title>
<path fill="none" stroke="midnightblue" d="M1004.28,-61.7917C866.182,-53.3271 498.911,-30.4071 409.683,-19.9135"/>
<polygon fill="midnightblue" stroke="midnightblue" points="409.961,-16.4204 399.595,-18.6074 409.063,-23.3625 409.961,-16.4204"/>
</g>
<!-- Node21&#45;&gt;Node10 -->
<g id="edge27" class="edge"><title>Node21&#45;&gt;Node10</title>
<path fill="none" stroke="midnightblue" d="M622.893,-112.368C672.093,-92.9703 791.558,-45.8696 848.632,-23.3673"/>
<polygon fill="midnightblue" stroke="midnightblue" points="850.19,-26.5154 858.209,-19.5914 847.622,-20.0033 850.19,-26.5154"/>
</g>
<!-- Node21&#45;&gt;Node7 -->
<g id="edge28" class="edge"><title>Node21&#45;&gt;Node7</title>
<path fill="none" stroke="midnightblue" d="M596.376,-112.083C592.544,-104.691 586.976,-93.9533 582.235,-84.8111"/>
<polygon fill="midnightblue" stroke="midnightblue" points="585.248,-83.0175 577.538,-75.7511 579.034,-86.2398 585.248,-83.0175"/>
</g>
<!-- Node22 -->
<g id="node22" class="node"><title>Node22</title>
<polygon fill="white" stroke="#bfbfbf" points="817,-56.5 817,-75.5 891,-75.5 891,-56.5 817,-56.5"/>
<text text-anchor="middle" x="854" y="-63.5" font-family="Helvetica,sans-Serif" font-size="10.00">QVariantMap</text>
</g>
<!-- Node21&#45;&gt;Node22 -->
<g id="edge29" class="edge"><title>Node21&#45;&gt;Node22</title>
<path fill="none" stroke="midnightblue" d="M628.341,-114.971C632.901,-113.973 637.583,-112.953 642,-112 698.691,-99.7612 763.973,-85.9462 806.947,-76.8903"/>
<polygon fill="midnightblue" stroke="midnightblue" points="807.772,-80.2933 816.836,-74.8073 806.329,-73.4436 807.772,-80.2933"/>
</g>
<!-- Node21&#45;&gt;Node15 -->
<g id="edge30" class="edge"><title>Node21&#45;&gt;Node15</title>
<path fill="none" stroke="midnightblue" d="M573.634,-113.263C541.294,-104.12 487.203,-88.8269 450.125,-78.3443"/>
<polygon fill="midnightblue" stroke="midnightblue" points="450.726,-74.877 440.151,-75.5243 448.821,-81.613 450.726,-74.877"/>
</g>
<!-- Node21&#45;&gt;Node18 -->
<g id="edge31" class="edge"><title>Node21&#45;&gt;Node18</title>
<path fill="none" stroke="midnightblue" d="M628.268,-114.584C632.837,-113.633 637.541,-112.729 642,-112 766.144,-91.7047 912.728,-78.2434 994.249,-71.679"/>
<polygon fill="midnightblue" stroke="midnightblue" points="994.655,-75.1579 1004.35,-70.8746 994.099,-68.18 994.655,-75.1579"/>
</g>
<!-- Node24 -->
<g id="node24" class="node"><title>Node24</title>
<polygon fill="white" stroke="#bfbfbf" points="964,-168.5 964,-187.5 1030,-187.5 1030,-168.5 964,-168.5"/>
<text text-anchor="middle" x="997" y="-175.5" font-family="Helvetica,sans-Serif" font-size="10.00">QTcpServer</text>
</g>
<!-- Node23&#45;&gt;Node24 -->
<g id="edge35" class="edge"><title>Node23&#45;&gt;Node24</title>
<path fill="none" stroke="midnightblue" d="M997,-230.403C997,-221.938 997,-208.728 997,-197.82"/>
<polygon fill="midnightblue" stroke="midnightblue" points="1000.5,-197.581 997,-187.581 993.5,-197.581 1000.5,-197.581"/>
</g>
<!-- Node25 -->
<g id="node25" class="node"><title>Node25</title>
<polygon fill="white" stroke="#bfbfbf" points="1048,-168.5 1048,-187.5 1088,-187.5 1088,-168.5 1048,-168.5"/>
<text text-anchor="middle" x="1068" y="-175.5" font-family="Helvetica,sans-Serif" font-size="10.00">QList</text>
</g>
<!-- Node23&#45;&gt;Node25 -->
<g id="edge36" class="edge"><title>Node23&#45;&gt;Node25</title>
<path fill="none" stroke="midnightblue" d="M1007.17,-230.403C1018.35,-220.958 1036.52,-205.606 1050.09,-194.134"/>
<polygon fill="midnightblue" stroke="midnightblue" points="1052.47,-196.709 1057.85,-187.581 1047.95,-191.362 1052.47,-196.709"/>
</g>
<!-- Node26 -->
<g id="node26" class="node"><title>Node26</title>
<polygon fill="white" stroke="#bfbfbf" points="898.5,-168.5 898.5,-187.5 945.5,-187.5 945.5,-168.5 898.5,-168.5"/>
<text text-anchor="middle" x="922" y="-175.5" font-family="Helvetica,sans-Serif" font-size="10.00">QHash</text>
</g>
<!-- Node23&#45;&gt;Node26 -->
<g id="edge37" class="edge"><title>Node23&#45;&gt;Node26</title>
<path fill="none" stroke="midnightblue" d="M986.254,-230.403C974.447,-220.958 955.257,-205.606 940.918,-194.134"/>
<polygon fill="midnightblue" stroke="midnightblue" points="942.721,-191.095 932.726,-187.581 938.348,-196.561 942.721,-191.095"/>
</g>
<!-- Node23&#45;&gt;Node27 -->
<g id="edge38" class="edge"><title>Node23&#45;&gt;Node27</title>
<path fill="none" stroke="midnightblue" d="M1022.07,-230.403C1052.35,-220.022 1103.44,-202.506 1137.44,-190.849"/>
<polygon fill="midnightblue" stroke="midnightblue" points="1138.65,-194.135 1146.97,-187.581 1136.38,-187.513 1138.65,-194.135"/>
</g>
<!-- Node23&#45;&gt;Node18 -->
<g id="edge50" class="edge"><title>Node23&#45;&gt;Node18</title>
<path fill="none" stroke="midnightblue" d="M967.955,-232.441C928.633,-222.185 865.973,-200.141 890,-168 923.849,-122.72 966.19,-165.128 1012,-132 1028.81,-119.845 1041.45,-99.3893 1048.99,-84.6688"/>
<polygon fill="midnightblue" stroke="midnightblue" points="1052.19,-86.0938 1053.39,-75.5665 1045.89,-83.0513 1052.19,-86.0938"/>
</g>
<!-- Node30 -->
<g id="node30" class="node"><title>Node30</title>
<g id="a_node30"><a xlink:href="../../dc/d96/jsoncommand_8h.xhtml" target="_top" xlink:title="../resources/jsoncommand.h">
<polygon fill="white" stroke="black" points="1102,-112.5 1102,-131.5 1242,-131.5 1242,-112.5 1102,-112.5"/>
<text text-anchor="middle" x="1172" y="-119.5" font-family="Helvetica,sans-Serif" font-size="10.00">../resources/jsoncommand.h</text>
</a>
</g>
</g>
<!-- Node23&#45;&gt;Node30 -->
<g id="edge51" class="edge"><title>Node23&#45;&gt;Node30</title>
<path fill="none" stroke="midnightblue" d="M1017.34,-230.385C1038.13,-221.183 1070.98,-205.531 1097,-188 1118.94,-173.216 1141.55,-152.78 1156.13,-138.792"/>
<polygon fill="midnightblue" stroke="midnightblue" points="1158.62,-141.247 1163.34,-131.762 1153.74,-136.233 1158.62,-141.247"/>
</g>
<!-- Node27&#45;&gt;Node11 -->
<g id="edge39" class="edge"><title>Node27&#45;&gt;Node11</title>
<path fill="none" stroke="midnightblue" d="M1143.86,-173.617C1129.79,-171.927 1112.5,-169.852 1097,-168 976.757,-153.628 834.986,-136.775 764.109,-128.356"/>
<polygon fill="midnightblue" stroke="midnightblue" points="764.521,-124.881 754.178,-127.177 763.695,-131.832 764.521,-124.881"/>
</g>
<!-- Node28 -->
<g id="node28" class="node"><title>Node28</title>
<polygon fill="white" stroke="#bfbfbf" points="1260,-112.5 1260,-131.5 1340,-131.5 1340,-112.5 1260,-112.5"/>
<text text-anchor="middle" x="1300" y="-119.5" font-family="Helvetica,sans-Serif" font-size="10.00">QHostAddress</text>
</g>
<!-- Node27&#45;&gt;Node28 -->
<g id="edge40" class="edge"><title>Node27&#45;&gt;Node28</title>
<path fill="none" stroke="midnightblue" d="M1192.28,-168.444C1213.35,-159.557 1246.52,-145.563 1270.49,-135.451"/>
<polygon fill="midnightblue" stroke="midnightblue" points="1271.96,-138.628 1279.81,-131.516 1269.24,-132.179 1271.96,-138.628"/>
</g>
<!-- Node29 -->
<g id="node29" class="node"><title>Node29</title>
<polygon fill="white" stroke="#bfbfbf" points="1358.5,-112.5 1358.5,-131.5 1447.5,-131.5 1447.5,-112.5 1358.5,-112.5"/>
<text text-anchor="middle" x="1403" y="-119.5" font-family="Helvetica,sans-Serif" font-size="10.00">QJsonDocument</text>
</g>
<!-- Node27&#45;&gt;Node29 -->
<g id="edge41" class="edge"><title>Node27&#45;&gt;Node29</title>
<path fill="none" stroke="midnightblue" d="M1200.27,-170.09C1203.22,-169.38 1206.17,-168.672 1209,-168 1259.13,-156.089 1316.64,-142.796 1355.95,-133.766"/>
<polygon fill="midnightblue" stroke="midnightblue" points="1356.82,-137.158 1365.78,-131.509 1355.25,-130.335 1356.82,-137.158"/>
</g>
<!-- Node27&#45;&gt;Node18 -->
<g id="edge42" class="edge"><title>Node27&#45;&gt;Node18</title>
<path fill="none" stroke="midnightblue" d="M1150.1,-168.45C1132.94,-160.893 1109.31,-148.505 1093,-132 1079.71,-118.545 1069.83,-99.1802 1063.82,-85.0886"/>
<polygon fill="midnightblue" stroke="midnightblue" points="1066.95,-83.5036 1059.98,-75.526 1060.46,-86.1102 1066.95,-83.5036"/>
</g>
<!-- Node27&#45;&gt;Node30 -->
<g id="edge43" class="edge"><title>Node27&#45;&gt;Node30</title>
<path fill="none" stroke="midnightblue" d="M1172,-168.083C1172,-161.006 1172,-150.861 1172,-141.986"/>
<polygon fill="midnightblue" stroke="midnightblue" points="1175.5,-141.751 1172,-131.751 1168.5,-141.751 1175.5,-141.751"/>
</g>
<!-- Node30&#45;&gt;Node6 -->
<g id="edge44" class="edge"><title>Node30&#45;&gt;Node6</title>
<path fill="none" stroke="midnightblue" d="M1212.88,-112.444C1262.65,-102.026 1345.95,-84.5914 1393.6,-74.618"/>
<polygon fill="midnightblue" stroke="midnightblue" points="1394.42,-78.0232 1403.49,-72.5488 1392.98,-71.1717 1394.42,-78.0232"/>
</g>
<!-- Node30&#45;&gt;Node22 -->
<g id="edge45" class="edge"><title>Node30&#45;&gt;Node22</title>
<path fill="none" stroke="midnightblue" d="M1121.61,-112.444C1061.14,-102.175 960.532,-85.0904 901.417,-75.0519"/>
<polygon fill="midnightblue" stroke="midnightblue" points="901.68,-71.5466 891.235,-73.323 900.508,-78.4478 901.68,-71.5466"/>
</g>
<!-- Node31 -->
<g id="node31" class="node"><title>Node31</title>
<g id="a_node31"><a xlink:href="../../d4/d05/json_8h.xhtml" target="_top" xlink:title="json.h">
<polygon fill="white" stroke="black" points="1166.5,-56.5 1166.5,-75.5 1209.5,-75.5 1209.5,-56.5 1166.5,-56.5"/>
<text text-anchor="middle" x="1188" y="-63.5" font-family="Helvetica,sans-Serif" font-size="10.00">json.h</text>
</a>
</g>
</g>
<!-- Node30&#45;&gt;Node31 -->
<g id="edge46" class="edge"><title>Node30&#45;&gt;Node31</title>
<path fill="none" stroke="midnightblue" d="M1174.64,-112.083C1176.79,-104.849 1179.88,-94.4087 1182.55,-85.3968"/>
<polygon fill="midnightblue" stroke="midnightblue" points="1185.92,-86.3334 1185.41,-75.7511 1179.21,-84.3447 1185.92,-86.3334"/>
</g>
<!-- Node30&#45;&gt;Node18 -->
<g id="edge49" class="edge"><title>Node30&#45;&gt;Node18</title>
<path fill="none" stroke="midnightblue" d="M1153.78,-112.444C1135.1,-103.675 1105.84,-89.9355 1084.38,-79.8579"/>
<polygon fill="midnightblue" stroke="midnightblue" points="1085.68,-76.5988 1075.14,-75.5164 1082.7,-82.935 1085.68,-76.5988"/>
</g>
<!-- Node32 -->
<g id="node32" class="node"><title>Node32</title>
<polygon fill="white" stroke="#bfbfbf" points="1417.5,-0.5 1417.5,-19.5 1472.5,-19.5 1472.5,-0.5 1417.5,-0.5"/>
<text text-anchor="middle" x="1445" y="-7.5" font-family="Helvetica,sans-Serif" font-size="10.00">QVariant</text>
</g>
<!-- Node31&#45;&gt;Node32 -->
<g id="edge47" class="edge"><title>Node31&#45;&gt;Node32</title>
<path fill="none" stroke="midnightblue" d="M1209.91,-60.396C1253.82,-51.171 1353.01,-30.3292 1407.46,-18.8869"/>
<polygon fill="midnightblue" stroke="midnightblue" points="1408.34,-22.2789 1417.41,-16.7974 1406.9,-15.4285 1408.34,-22.2789"/>
</g>
<!-- Node31&#45;&gt;Node10 -->
<g id="edge48" class="edge"><title>Node31&#45;&gt;Node10</title>
<path fill="none" stroke="midnightblue" d="M1166.36,-59.289C1161.65,-58.1284 1156.67,-56.968 1152,-56 1067.6,-38.4975 967.335,-23.3503 915.298,-15.9065"/>
<polygon fill="midnightblue" stroke="midnightblue" points="915.644,-12.4205 905.251,-14.4794 914.66,-19.351 915.644,-12.4205"/>
</g>
<!-- Node33&#45;&gt;Node10 -->
<g id="edge54" class="edge"><title>Node33&#45;&gt;Node10</title>
<path fill="none" stroke="midnightblue" d="M842.194,-172.703C887.604,-166.482 961.543,-153.317 978,-132 1008.53,-92.4493 943.888,-46.933 905.587,-24.6836"/>
<polygon fill="midnightblue" stroke="midnightblue" points="906.92,-21.4165 896.491,-19.5461 903.477,-27.5115 906.92,-21.4165"/>
</g>
<!-- Node34 -->
<g id="node34" class="node"><title>Node34</title>
<polygon fill="white" stroke="#bfbfbf" points="810,-112.5 810,-131.5 850,-131.5 850,-112.5 810,-112.5"/>
<text text-anchor="middle" x="830" y="-119.5" font-family="Helvetica,sans-Serif" font-size="10.00">QFile</text>
</g>
<!-- Node33&#45;&gt;Node34 -->
<g id="edge55" class="edge"><title>Node33&#45;&gt;Node34</title>
<path fill="none" stroke="midnightblue" d="M809.963,-168.083C813.213,-160.77 817.919,-150.181 821.954,-141.103"/>
<polygon fill="midnightblue" stroke="midnightblue" points="825.248,-142.311 826.111,-131.751 818.851,-139.468 825.248,-142.311"/>
</g>
<!-- Node35 -->
<g id="node35" class="node"><title>Node35</title>
<polygon fill="white" stroke="#bfbfbf" points="868,-112.5 868,-131.5 970,-131.5 970,-112.5 868,-112.5"/>
<text text-anchor="middle" x="919" y="-119.5" font-family="Helvetica,sans-Serif" font-size="10.00">QXmlStreamReader</text>
</g>
<!-- Node33&#45;&gt;Node35 -->
<g id="edge56" class="edge"><title>Node33&#45;&gt;Node35</title>
<path fill="none" stroke="midnightblue" d="M823.905,-168.444C842.254,-159.675 871.005,-145.935 892.094,-135.858"/>
<polygon fill="midnightblue" stroke="midnightblue" points="893.665,-138.986 901.179,-131.516 890.647,-132.67 893.665,-138.986"/>
</g>
<!-- Node33&#45;&gt;Node7 -->
<g id="edge57" class="edge"><title>Node33&#45;&gt;Node7</title>
<path fill="none" stroke="midnightblue" d="M802.742,-168.309C796.985,-154.191 783.636,-126.406 763,-112 716.847,-79.78 650.631,-70.4252 609.796,-67.8292"/>
<polygon fill="midnightblue" stroke="midnightblue" points="609.911,-64.3304 599.739,-67.2942 609.539,-71.3205 609.911,-64.3304"/>
</g>
<!-- Node33&#45;&gt;Node21 -->
<g id="edge58" class="edge"><title>Node33&#45;&gt;Node21</title>
<path fill="none" stroke="midnightblue" d="M773.517,-168.444C736.622,-158.725 676.543,-142.899 637.906,-132.722"/>
<polygon fill="midnightblue" stroke="midnightblue" points="638.655,-129.3 628.093,-130.137 636.872,-136.069 638.655,-129.3"/>
</g>
<!-- Node36&#45;&gt;Node6 -->
<g id="edge60" class="edge"><title>Node36&#45;&gt;Node6</title>
<path fill="none" stroke="midnightblue" d="M1508.06,-112.324C1493.41,-103.822 1470.87,-90.7288 1453.76,-80.7975"/>
<polygon fill="midnightblue" stroke="midnightblue" points="1455.31,-77.6491 1444.9,-75.6545 1451.8,-83.7027 1455.31,-77.6491"/>
</g>
<!-- Node36&#45;&gt;Node10 -->
<g id="edge61" class="edge"><title>Node36&#45;&gt;Node10</title>
<path fill="none" stroke="midnightblue" d="M1465.26,-113.195C1462.13,-112.787 1459.03,-112.386 1456,-112 1323.66,-95.1192 1285.76,-114.395 1158,-76 1138.96,-70.2795 1136.83,-62.3515 1118,-56 1048.17,-32.4509 962.415,-20.0554 915.261,-14.5785"/>
<polygon fill="midnightblue" stroke="midnightblue" points="915.576,-11.092 905.248,-13.4527 914.794,-18.0482 915.576,-11.092"/>
</g>
<!-- Node36&#45;&gt;Node32 -->
<g id="edge62" class="edge"><title>Node36&#45;&gt;Node32</title>
<path fill="none" stroke="midnightblue" d="M1521.31,-112.329C1518.43,-99.192 1511.63,-73.8835 1499,-56 1490.56,-44.0442 1478.17,-33.4137 1467.39,-25.491"/>
<polygon fill="midnightblue" stroke="midnightblue" points="1469.39,-22.6201 1459.2,-19.7441 1465.38,-28.3513 1469.39,-22.6201"/>
</g>
<!-- Node36&#45;&gt;Node20 -->
<g id="edge63" class="edge"><title>Node36&#45;&gt;Node20</title>
<path fill="none" stroke="midnightblue" d="M1517.75,-112.356C1508.76,-98.3053 1489.04,-70.6144 1465,-56 1423.86,-30.989 1369.21,-19.8053 1331.78,-14.8518"/>
<polygon fill="midnightblue" stroke="midnightblue" points="1332.06,-11.3598 1321.71,-13.6135 1331.21,-18.3075 1332.06,-11.3598"/>
</g>
<!-- Node36&#45;&gt;Node18 -->
<g id="edge64" class="edge"><title>Node36&#45;&gt;Node18</title>
<path fill="none" stroke="midnightblue" d="M1465.27,-113.15C1462.13,-112.753 1459.03,-112.368 1456,-112 1308.66,-94.1187 1271.34,-93.8813 1124,-76 1122.54,-75.8233 1121.07,-75.6423 1119.58,-75.458"/>
<polygon fill="midnightblue" stroke="midnightblue" points="1120.01,-71.9842 1109.65,-74.2015 1119.13,-78.9289 1120.01,-71.9842"/>
</g>
<!-- Node38 -->
<g id="node38" class="node"><title>Node38</title>
<g id="a_node38"><a xlink:href="../../db/d70/eventchat_8h.xhtml" target="_top" xlink:title="eventchat.h">
<polygon fill="white" stroke="black" points="1352,-168.5 1352,-187.5 1418,-187.5 1418,-168.5 1352,-168.5"/>
<text text-anchor="middle" x="1385" y="-175.5" font-family="Helvetica,sans-Serif" font-size="10.00">eventchat.h</text>
</a>
</g>
</g>
<!-- Node37&#45;&gt;Node38 -->
<g id="edge66" class="edge"><title>Node37&#45;&gt;Node38</title>
<path fill="none" stroke="midnightblue" d="M1420.1,-224.781C1413.41,-216.062 1404.82,-204.857 1397.82,-195.715"/>
<polygon fill="midnightblue" stroke="midnightblue" points="1400.56,-193.537 1391.69,-187.731 1395,-197.796 1400.56,-193.537"/>
</g>
<!-- Node39 -->
<g id="node39" class="node"><title>Node39</title>
<g id="a_node39"><a xlink:href="../../d5/d02/eventuserjoin_8h.xhtml" target="_top" xlink:title="eventuserjoin.h">
<polygon fill="white" stroke="black" points="1436.5,-168.5 1436.5,-187.5 1517.5,-187.5 1517.5,-168.5 1436.5,-168.5"/>
<text text-anchor="middle" x="1477" y="-175.5" font-family="Helvetica,sans-Serif" font-size="10.00">eventuserjoin.h</text>
</a>
</g>
</g>
<!-- Node37&#45;&gt;Node39 -->
<g id="edge68" class="edge"><title>Node37&#45;&gt;Node39</title>
<path fill="none" stroke="midnightblue" d="M1441.9,-224.781C1448.59,-216.062 1457.18,-204.857 1464.18,-195.715"/>
<polygon fill="midnightblue" stroke="midnightblue" points="1467,-197.796 1470.31,-187.731 1461.44,-193.537 1467,-197.796"/>
</g>
<!-- Node40 -->
<g id="node40" class="node"><title>Node40</title>
<g id="a_node40"><a xlink:href="../../d7/d56/eventuserleave_8h.xhtml" target="_top" xlink:title="eventuserleave.h">
<polygon fill="white" stroke="black" points="1536,-168.5 1536,-187.5 1624,-187.5 1624,-168.5 1536,-168.5"/>
<text text-anchor="middle" x="1580" y="-175.5" font-family="Helvetica,sans-Serif" font-size="10.00">eventuserleave.h</text>
</a>
</g>
</g>
<!-- Node37&#45;&gt;Node40 -->
<g id="edge70" class="edge"><title>Node37&#45;&gt;Node40</title>
<path fill="none" stroke="midnightblue" d="M1465.93,-224.933C1491.18,-214.765 1524.98,-201.157 1549.22,-191.396"/>
<polygon fill="midnightblue" stroke="midnightblue" points="1550.67,-194.582 1558.64,-187.6 1548.06,-188.089 1550.67,-194.582"/>
</g>
<!-- Node41 -->
<g id="node41" class="node"><title>Node41</title>
<g id="a_node41"><a xlink:href="../../db/db0/eventuserchangestatus_8h.xhtml" target="_top" xlink:title="eventuserchangestatus.h">
<polygon fill="white" stroke="black" points="1641.5,-168.5 1641.5,-187.5 1766.5,-187.5 1766.5,-168.5 1641.5,-168.5"/>
<text text-anchor="middle" x="1704" y="-175.5" font-family="Helvetica,sans-Serif" font-size="10.00">eventuserchangestatus.h</text>
</a>
</g>
</g>
<!-- Node37&#45;&gt;Node41 -->
<g id="edge72" class="edge"><title>Node37&#45;&gt;Node41</title>
<path fill="none" stroke="midnightblue" d="M1480.75,-228.065C1530.39,-217.155 1606.17,-200.502 1655.4,-189.682"/>
<polygon fill="midnightblue" stroke="midnightblue" points="1656.16,-193.098 1665.18,-187.533 1654.66,-186.261 1656.16,-193.098"/>
</g>
<!-- Node42 -->
<g id="node42" class="node"><title>Node42</title>
<g id="a_node42"><a xlink:href="../../d8/d44/eventuserchangenick_8h.xhtml" target="_top" xlink:title="eventuserchangenick.h">
<polygon fill="white" stroke="black" points="1218,-168.5 1218,-187.5 1334,-187.5 1334,-168.5 1218,-168.5"/>
<text text-anchor="middle" x="1276" y="-175.5" font-family="Helvetica,sans-Serif" font-size="10.00">eventuserchangenick.h</text>
</a>
</g>
</g>
<!-- Node37&#45;&gt;Node42 -->
<g id="edge74" class="edge"><title>Node37&#45;&gt;Node42</title>
<path fill="none" stroke="midnightblue" d="M1394.66,-224.933C1368.28,-214.72 1332.93,-201.036 1307.69,-191.266"/>
<polygon fill="midnightblue" stroke="midnightblue" points="1308.81,-187.946 1298.22,-187.6 1306.28,-194.474 1308.81,-187.946"/>
</g>
<!-- Node38&#45;&gt;Node36 -->
<g id="edge67" class="edge"><title>Node38&#45;&gt;Node36</title>
<path fill="none" stroke="midnightblue" d="M1406.87,-168.444C1429.78,-159.478 1465.98,-145.314 1491.87,-135.183"/>
<polygon fill="midnightblue" stroke="midnightblue" points="1493.2,-138.42 1501.24,-131.516 1490.65,-131.901 1493.2,-138.42"/>
</g>
<!-- Node39&#45;&gt;Node36 -->
<g id="edge69" class="edge"><title>Node39&#45;&gt;Node36</title>
<path fill="none" stroke="midnightblue" d="M1484.6,-168.083C1491.23,-160.298 1501.02,-148.801 1509.06,-139.367"/>
<polygon fill="midnightblue" stroke="midnightblue" points="1511.73,-141.633 1515.55,-131.751 1506.4,-137.094 1511.73,-141.633"/>
</g>
<!-- Node40&#45;&gt;Node36 -->
<g id="edge71" class="edge"><title>Node40&#45;&gt;Node36</title>
<path fill="none" stroke="midnightblue" d="M1570.84,-168.324C1562.5,-160.42 1549.97,-148.548 1539.82,-138.938"/>
<polygon fill="midnightblue" stroke="midnightblue" points="1541.99,-136.171 1532.32,-131.834 1537.18,-141.252 1541.99,-136.171"/>
</g>
<!-- Node41&#45;&gt;Node36 -->
<g id="edge73" class="edge"><title>Node41&#45;&gt;Node36</title>
<path fill="none" stroke="midnightblue" d="M1675.32,-168.444C1644.47,-159.241 1595.27,-144.562 1561.17,-134.388"/>
<polygon fill="midnightblue" stroke="midnightblue" points="1562.13,-131.021 1551.55,-131.516 1560.13,-137.729 1562.13,-131.021"/>
</g>
<!-- Node42&#45;&gt;Node36 -->
<g id="edge75" class="edge"><title>Node42&#45;&gt;Node36</title>
<path fill="none" stroke="midnightblue" d="M1315.14,-168.444C1358.23,-159.023 1427.56,-143.866 1474.17,-133.675"/>
<polygon fill="midnightblue" stroke="midnightblue" points="1475.02,-137.072 1484.05,-131.516 1473.53,-130.233 1475.02,-137.072"/>
</g>
</g>
</svg>
        <g id="navigator" transform="translate(0 0)" fill="#404254">
                <rect fill="#f2f5e9" fill-opacity="0.5" stroke="#606060" stroke-width=".5" x="0" y="0" width="60" height="60"/>
                <use id="zoomplus" xlink:href="#zoomPlus" x="17" y="9" onmousedown="handleZoom(evt,'in')"/>
                <use id="zoomminus" xlink:href="#zoomMin" x="42" y="9" onmousedown="handleZoom(evt,'out')"/>
                <use id="reset" xlink:href="#resetDef" x="30" y="36" onmousedown="handleReset()"/>
                <g id="arrowUp" xlink:href="#dirArrow" transform="translate(30 24)" onmousedown="handlePan(0,-1)">
                  <use xlink:href="#rim" fill="#404040">
                        <set attributeName="fill" to="#808080" begin="arrowUp.mouseover" end="arrowUp.mouseout"/>
                  </use>
                  <path fill="none" stroke="white" stroke-width="1.5" d="M0,-3.0v7 M-2.5,-0.5L0,-3.0L2.5,-0.5"/>
                </g>
                <g id="arrowRight" xlink:href="#dirArrow" transform="rotate(90) translate(36 -43)" onmousedown="handlePan(1,0)">
                  <use xlink:href="#rim" fill="#404040">
                        <set attributeName="fill" to="#808080" begin="arrowRight.mouseover" end="arrowRight.mouseout"/>
                  </use>
                  <path fill="none" stroke="white" stroke-width="1.5" d="M0,-3.0v7 M-2.5,-0.5L0,-3.0L2.5,-0.5"/>
                </g>
                <g id="arrowDown" xlink:href="#dirArrow" transform="rotate(180) translate(-30 -48)" onmousedown="handlePan(0,1)">
                  <use xlink:href="#rim" fill="#404040">
                        <set attributeName="fill" to="#808080" begin="arrowDown.mouseover" end="arrowDown.mouseout"/>
                  </use>
                  <path fill="none" stroke="white" stroke-width="1.5" d="M0,-3.0v7 M-2.5,-0.5L0,-3.0L2.5,-0.5"/>
                </g>
                <g id="arrowLeft" xlink:href="#dirArrow" transform="rotate(270) translate(-36 17)" onmousedown="handlePan(-1,0)">
                  <use xlink:href="#rim" fill="#404040">
                        <set attributeName="fill" to="#808080" begin="arrowLeft.mouseover" end="arrowLeft.mouseout"/>
                  </use>
                  <path fill="none" stroke="white" stroke-width="1.5" d="M0,-3.0v7 M-2.5,-0.5L0,-3.0L2.5,-0.5"/>
                </g>
        </g>
        <svg viewBox="0 0 15 15" width="100%" height="30px" preserveAspectRatio="xMaxYMin meet">
         <g id="arrow_out" transform="scale(0.3 0.3)">
          <a xlink:href="custom_irc_server_2main_8cpp__incl_org.svg" target="_base">
           <rect id="button" ry="5" rx="5" y="6" x="6" height="38" width="38"
                fill="#f2f5e9" fill-opacity="0.5" stroke="#606060" stroke-width="1.0"/>
           <path id="arrow"
             d="M 11.500037,31.436501 C 11.940474,20.09759 22.043105,11.32322 32.158766,21.979434 L 37.068811,17.246167 C 37.068811,17.246167 37.088388,32 37.088388,32 L 22.160133,31.978069 C 22.160133,31.978069 26.997745,27.140456 26.997745,27.140456 C 18.528582,18.264221 13.291696,25.230495 11.500037,31.436501 z"
             style="fill:#404040;"/>
          </a>
         </g>
        </svg>
</svg>
