<?xml version="1.0" encoding="UTF-8" standalone="no"?>
<!DOCTYPE svg PUBLIC "-//W3C//DTD SVG 1.1//EN"
 "http://www.w3.org/Graphics/SVG/1.1/DTD/svg11.dtd">
<!-- Generated by graphviz version 2.30.1 (20130303.0817)
 -->
<!-- Title: C++/customIrcServer/main.cpp Pages: 1 -->
<!--zoomable 388 -->
<svg id="main" version="1.1" xmlns="http://www.w3.org/2000/svg" xmlns:xlink="http://www.w3.org/1999/xlink" xml:space="preserve" onload="init(evt)">
        <defs>
                <circle id="rim" cx="0" cy="0" r="7"/>
                <circle id="rim2" cx="0" cy="0" r="3.5"/>
                <g id="zoomPlus">
                        <use xlink:href="#rim" fill="#404040">
                                <set attributeName="fill" to="#808080" begin="zoomplus.mouseover" end="zoomplus.mouseout"/>
                        </use>
                        <path d="M-4,0h8M0,-4v8" fill="none" stroke="white" stroke-width="1.5" pointer-events="none"/>
                </g>
                <g id="zoomMin">
                        <use xlink:href="#rim" fill="#404040">
                                <set attributeName="fill" to="#808080" begin="zoomminus.mouseover" end="zoomminus.mouseout"/>
                        </use>
                        <path d="M-4,0h8" fill="none" stroke="white" stroke-width="1.5" pointer-events="none"/>
                </g>
                <g id="dirArrow">
                        <path fill="none" stroke="white" stroke-width="1.5" d="M0,-3.0v7 M-2.5,-0.5L0,-3.0L2.5,-0.5"/>
                </g>
               <g id="resetDef">
                       <use xlink:href="#rim2" fill="#404040">
                               <set attributeName="fill" to="#808080" begin="reset.mouseover" end="reset.mouseout"/>
                       </use>
               </g>
        </defs>

<script type="text/javascript">
var viewWidth = 1982;
var viewHeight = 388;
var sectionId = 'dynsection-0';
</script>
<script xlink:href="../../svgpan.js"/>
<svg id="graph" class="graph">
<g id="viewport">
<title>C++/customIrcServer/main.cpp</title>
<polygon fill="white" stroke="white" points="-4,5 -4,-384 1979.5,-384 1979.5,5 -4,5"/>
<!-- Node1 -->
<g id="node1" class="node"><title>Node1</title>
<polygon fill="#bfbfbf" stroke="black" points="392,-349 392,-379 500,-379 500,-349 392,-349"/>
<text text-anchor="start" x="400" y="-367" font-family="Helvetica,sans-Serif" font-size="10.00">C++/customIrcServer</text>
<text text-anchor="middle" x="446" y="-356" font-family="Helvetica,sans-Serif" font-size="10.00">/main.cpp</text>
</g>
<!-- Node2 -->
<g id="node2" class="node"><title>Node2</title>
<polygon fill="white" stroke="#bfbfbf" points="0,-292.5 0,-311.5 48,-311.5 48,-292.5 0,-292.5"/>
<text text-anchor="middle" x="24" y="-299.5" font-family="Helvetica,sans-Serif" font-size="10.00">stdlib.h</text>
</g>
<!-- Node1&#45;&gt;Node2 -->
<g id="edge1" class="edge"><title>Node1&#45;&gt;Node2</title>
<path fill="none" stroke="midnightblue" d="M391.992,-357.559C317.427,-349.654 178.898,-333.55 62,-312 60.7249,-311.765 59.4282,-311.515 58.1202,-311.253"/>
<polygon fill="midnightblue" stroke="midnightblue" points="58.5587,-307.767 48.0455,-309.08 57.0828,-314.61 58.5587,-307.767"/>
</g>
<!-- Node3 -->
<g id="node3" class="node"><title>Node3</title>
<polygon fill="white" stroke="#bfbfbf" points="316,-0.5 316,-19.5 370,-19.5 370,-0.5 316,-0.5"/>
<text text-anchor="middle" x="343" y="-7.5" font-family="Helvetica,sans-Serif" font-size="10.00">iostream</text>
</g>
<!-- Node1&#45;&gt;Node3 -->
<g id="edge2" class="edge"><title>Node1&#45;&gt;Node3</title>
<path fill="none" stroke="midnightblue" d="M391.803,-356.596C289.032,-342.935 76,-306.693 76,-241 76,-241 76,-241 76,-121 76,-22.804 232.298,-10.4761 305.726,-10.1026"/>
<polygon fill="midnightblue" stroke="midnightblue" points="305.921,-13.603 315.929,-10.1254 305.937,-6.60297 305.921,-13.603"/>
</g>
<!-- Node4 -->
<g id="node4" class="node"><title>Node4</title>
<polygon fill="white" stroke="#bfbfbf" points="866.5,-292.5 866.5,-311.5 913.5,-311.5 913.5,-292.5 866.5,-292.5"/>
<text text-anchor="middle" x="890" y="-299.5" font-family="Helvetica,sans-Serif" font-size="10.00">QtCore</text>
</g>
<!-- Node1&#45;&gt;Node4 -->
<g id="edge3" class="edge"><title>Node1&#45;&gt;Node4</title>
<path fill="none" stroke="midnightblue" d="M500.092,-358.616C578.879,-351.702 729.594,-336.476 856,-312 856.105,-311.98 856.21,-311.959 856.315,-311.939"/>
<polygon fill="midnightblue" stroke="midnightblue" points="857.319,-315.301 866.316,-309.706 855.794,-308.469 857.319,-315.301"/>
</g>
<!-- Node5 -->
<g id="node5" class="node"><title>Node5</title>
<g id="a_node5"><a xlink:href="../../db/df6/mainapp_8h.html" target="_top" xlink:title="mainapp.h">
<polygon fill="white" stroke="black" points="786,-292.5 786,-311.5 848,-311.5 848,-292.5 786,-292.5"/>
<text text-anchor="middle" x="817" y="-299.5" font-family="Helvetica,sans-Serif" font-size="10.00">mainapp.h</text>
</a>
</g>
</g>
<!-- Node1&#45;&gt;Node5 -->
<g id="edge4" class="edge"><title>Node1&#45;&gt;Node5</title>
<path fill="none" stroke="midnightblue" d="M500.344,-354.211C575.234,-342.1 708.517,-320.544 775.765,-309.669"/>
<polygon fill="midnightblue" stroke="midnightblue" points="776.659,-313.07 785.972,-308.018 775.542,-306.159 776.659,-313.07"/>
</g>
<!-- Node6 -->
<g id="node6" class="node"><title>Node6</title>
<polygon fill="white" stroke="#bfbfbf" points="1468.5,-56.5 1468.5,-75.5 1521.5,-75.5 1521.5,-56.5 1468.5,-56.5"/>
<text text-anchor="middle" x="1495" y="-63.5" font-family="Helvetica,sans-Serif" font-size="10.00">QObject</text>
</g>
<!-- Node5&#45;&gt;Node6 -->
<g id="edge5" class="edge"><title>Node5&#45;&gt;Node6</title>
<path fill="none" stroke="midnightblue" d="M848.35,-293.409C851.263,-292.867 854.179,-292.383 857,-292 1181.96,-247.842 1268.19,-293.413 1594,-256 1761.84,-236.726 1859.75,-317.71 1968,-188 2026.39,-118.039 1653.04,-80.2422 1531.99,-69.9321"/>
<polygon fill="midnightblue" stroke="midnightblue" points="1531.99,-66.4203 1521.73,-69.0735 1531.41,-73.3959 1531.99,-66.4203"/>
</g>
<!-- Node7 -->
<g id="node7" class="node"><title>Node7</title>
<polygon fill="white" stroke="#bfbfbf" points="368.5,-56.5 368.5,-75.5 421.5,-75.5 421.5,-56.5 368.5,-56.5"/>
<text text-anchor="middle" x="395" y="-63.5" font-family="Helvetica,sans-Serif" font-size="10.00">QVector</text>
</g>
<!-- Node5&#45;&gt;Node7 -->
<g id="edge6" class="edge"><title>Node5&#45;&gt;Node7</title>
<path fill="none" stroke="midnightblue" d="M785.875,-293.241C755.011,-285.196 706.592,-271.62 666,-256 546.516,-210.024 483.143,-234.173 406,-132 395.987,-118.739 393.794,-99.6122 393.771,-85.5389"/>
<polygon fill="midnightblue" stroke="midnightblue" points="397.269,-85.6573 394.11,-75.5444 390.273,-85.4199 397.269,-85.6573"/>
</g>
<!-- Node8 -->
<g id="node8" class="node"><title>Node8</title>
<polygon fill="white" stroke="#bfbfbf" points="899,-112.5 899,-131.5 947,-131.5 947,-112.5 899,-112.5"/>
<text text-anchor="middle" x="923" y="-119.5" font-family="Helvetica,sans-Serif" font-size="10.00">QTimer</text>
</g>
<!-- Node5&#45;&gt;Node8 -->
<g id="edge7" class="edge"><title>Node5&#45;&gt;Node8</title>
<path fill="none" stroke="midnightblue" d="M816.158,-292.251C814.432,-269.446 812.77,-207.234 841,-168 852.655,-151.802 872.014,-140.786 888.996,-133.71"/>
<polygon fill="midnightblue" stroke="midnightblue" points="890.574,-136.853 898.644,-129.989 888.055,-130.321 890.574,-136.853"/>
</g>
<!-- Node9 -->
<g id="node9" class="node"><title>Node9</title>
<g id="a_node9"><a xlink:href="../../d4/df9/ircclient_8h.html" target="_top" xlink:title="ircclient.h">
<polygon fill="white" stroke="black" points="721.5,-168.5 721.5,-187.5 780.5,-187.5 780.5,-168.5 721.5,-168.5"/>
<text text-anchor="middle" x="751" y="-175.5" font-family="Helvetica,sans-Serif" font-size="10.00">ircclient.h</text>
</a>
</g>
</g>
<!-- Node5&#45;&gt;Node9 -->
<g id="edge8" class="edge"><title>Node5&#45;&gt;Node9</title>
<path fill="none" stroke="midnightblue" d="M812.253,-292.226C801.455,-272.266 774.881,-223.144 760.542,-196.638"/>
<polygon fill="midnightblue" stroke="midnightblue" points="763.54,-194.825 755.704,-187.694 757.383,-198.155 763.54,-194.825"/>
</g>
<!-- Node16 -->
<g id="node16" class="node"><title>Node16</title>
<g id="a_node16"><a xlink:href="../../d8/d5c/functions_8h.html" target="_top" xlink:title="functions.h">
<polygon fill="white" stroke="black" points="741,-56.5 741,-75.5 805,-75.5 805,-56.5 741,-56.5"/>
<text text-anchor="middle" x="773" y="-63.5" font-family="Helvetica,sans-Serif" font-size="10.00">functions.h</text>
</a>
</g>
</g>
<!-- Node5&#45;&gt;Node16 -->
<g id="edge34" class="edge"><title>Node5&#45;&gt;Node16</title>
<path fill="none" stroke="midnightblue" d="M820.26,-292.124C830.76,-263.737 863.611,-176.527 874,-168 935.489,-117.53 1095.44,-172.682 1044,-112 1029.38,-94.7487 887.659,-78.3582 815.205,-71.0229"/>
<polygon fill="midnightblue" stroke="midnightblue" points="815.339,-67.519 805.041,-70.0074 814.643,-74.4843 815.339,-67.519"/>
</g>
<!-- Node22 -->
<g id="node22" class="node"><title>Node22</title>
<g id="a_node22"><a xlink:href="../../d6/d32/custom_irc_server_2ircuser_8h.html" target="_top" xlink:title="ircuser.h">
<polygon fill="white" stroke="black" points="434,-112.5 434,-131.5 488,-131.5 488,-112.5 434,-112.5"/>
<text text-anchor="middle" x="461" y="-119.5" font-family="Helvetica,sans-Serif" font-size="10.00">ircuser.h</text>
</a>
</g>
</g>
<!-- Node5&#45;&gt;Node22 -->
<g id="edge35" class="edge"><title>Node5&#45;&gt;Node22</title>
<path fill="none" stroke="midnightblue" d="M799.829,-292.415C742.391,-263.696 556.688,-170.844 487.395,-136.197"/>
<polygon fill="midnightblue" stroke="midnightblue" points="488.925,-133.049 478.415,-131.708 485.794,-139.31 488.925,-133.049"/>
</g>
<!-- Node24 -->
<g id="node24" class="node"><title>Node24</title>
<g id="a_node24"><a xlink:href="../../d7/d1c/uiserver_8h.html" target="_top" xlink:title="uiserver.h">
<polygon fill="white" stroke="black" points="1011,-230.5 1011,-249.5 1069,-249.5 1069,-230.5 1011,-230.5"/>
<text text-anchor="middle" x="1040" y="-237.5" font-family="Helvetica,sans-Serif" font-size="10.00">uiserver.h</text>
</a>
</g>
</g>
<!-- Node5&#45;&gt;Node24 -->
<g id="edge36" class="edge"><title>Node5&#45;&gt;Node24</title>
<path fill="none" stroke="midnightblue" d="M848.007,-292.657C887.977,-281.903 957.497,-263.198 1001.01,-251.491"/>
<polygon fill="midnightblue" stroke="midnightblue" points="1001.93,-254.868 1010.67,-248.89 1000.11,-248.109 1001.93,-254.868"/>
</g>
<!-- Node28 -->
<g id="node28" class="node"><title>Node28</title>
<g id="a_node28"><a xlink:href="../../d1/de1/uiclient_8h.html" target="_top" xlink:title="uiclient.h">
<polygon fill="white" stroke="black" points="1167,-168.5 1167,-187.5 1223,-187.5 1223,-168.5 1167,-168.5"/>
<text text-anchor="middle" x="1195" y="-175.5" font-family="Helvetica,sans-Serif" font-size="10.00">uiclient.h</text>
</a>
</g>
</g>
<!-- Node5&#45;&gt;Node28 -->
<g id="edge54" class="edge"><title>Node5&#45;&gt;Node28</title>
<path fill="none" stroke="midnightblue" d="M848.406,-293.749C851.307,-293.135 854.205,-292.543 857,-292 954.262,-273.117 984.633,-291.845 1077,-256 1115.86,-240.921 1155.26,-211.806 1177.27,-194.017"/>
<polygon fill="midnightblue" stroke="midnightblue" points="1179.58,-196.65 1185.07,-187.591 1175.13,-191.246 1179.58,-196.65"/>
</g>
<!-- Node34 -->
<g id="node34" class="node"><title>Node34</title>
<g id="a_node34"><a xlink:href="../../d6/d0d/custom_irc_server_2clssettings_8h.html" target="_top" xlink:title="clssettings.h">
<polygon fill="white" stroke="black" points="241,-168.5 241,-187.5 313,-187.5 313,-168.5 241,-168.5"/>
<text text-anchor="middle" x="277" y="-175.5" font-family="Helvetica,sans-Serif" font-size="10.00">clssettings.h</text>
</a>
</g>
</g>
<!-- Node5&#45;&gt;Node34 -->
<g id="edge55" class="edge"><title>Node5&#45;&gt;Node34</title>
<path fill="none" stroke="midnightblue" d="M785.93,-300.685C694.992,-299.343 430.954,-292.336 354,-256 325.628,-242.604 301.681,-214.215 288.346,-195.904"/>
<polygon fill="midnightblue" stroke="midnightblue" points="291.134,-193.783 282.526,-187.606 285.403,-197.803 291.134,-193.783"/>
</g>
<!-- Node37 -->
<g id="node37" class="node"><title>Node37</title>
<g id="a_node37"><a xlink:href="../../db/d97/clsevent_8h.html" target="_top" xlink:title="../resources/clsevent.h">
<polygon fill="white" stroke="black" points="1530.5,-112.5 1530.5,-131.5 1645.5,-131.5 1645.5,-112.5 1530.5,-112.5"/>
<text text-anchor="middle" x="1588" y="-119.5" font-family="Helvetica,sans-Serif" font-size="10.00">../resources/clsevent.h</text>
</a>
</g>
</g>
<!-- Node5&#45;&gt;Node37 -->
<g id="edge61" class="edge"><title>Node5&#45;&gt;Node37</title>
<path fill="none" stroke="midnightblue" d="M848.392,-293.673C851.295,-293.075 854.198,-292.507 857,-292 972.662,-271.081 1007.83,-294.162 1119,-256 1155.92,-243.328 1234.11,-180.755 1271,-168 1276.86,-165.973 1428.76,-144.882 1520.13,-132.306"/>
<polygon fill="midnightblue" stroke="midnightblue" points="1520.71,-135.76 1530.14,-130.929 1519.76,-128.825 1520.71,-135.76"/>
</g>
<!-- Node38 -->
<g id="node38" class="node"><title>Node38</title>
<g id="a_node38"><a xlink:href="../../db/dd2/events_8h.html" target="_top" xlink:title="../resources/events\l/events.h">
<polygon fill="white" stroke="black" points="1486.5,-225 1486.5,-255 1585.5,-255 1585.5,-225 1486.5,-225"/>
<text text-anchor="start" x="1494.5" y="-243" font-family="Helvetica,sans-Serif" font-size="10.00">../resources/events</text>
<text text-anchor="middle" x="1536" y="-232" font-family="Helvetica,sans-Serif" font-size="10.00">/events.h</text>
</a>
</g>
</g>
<!-- Node5&#45;&gt;Node38 -->
<g id="edge67" class="edge"><title>Node5&#45;&gt;Node38</title>
<path fill="none" stroke="midnightblue" d="M848.361,-293.488C851.271,-292.929 854.184,-292.42 857,-292 975.627,-274.297 1332.82,-252.615 1475.84,-244.385"/>
<polygon fill="midnightblue" stroke="midnightblue" points="1476.38,-247.86 1486.16,-243.793 1475.98,-240.871 1476.38,-247.86"/>
</g>
<!-- Node9&#45;&gt;Node7 -->
<g id="edge9" class="edge"><title>Node9&#45;&gt;Node7</title>
<path fill="none" stroke="midnightblue" d="M721.385,-176.466C650.156,-174.633 471.706,-166.614 425,-132 410.2,-121.032 402.481,-100.975 398.605,-86.0308"/>
<polygon fill="midnightblue" stroke="midnightblue" points="401.925,-84.8358 396.336,-75.8346 395.092,-86.3561 401.925,-84.8358"/>
</g>
<!-- Node9&#45;&gt;Node8 -->
<g id="edge10" class="edge"><title>Node9&#45;&gt;Node8</title>
<path fill="none" stroke="midnightblue" d="M778.254,-168.444C808.256,-159.024 856.528,-143.869 888.987,-133.679"/>
<polygon fill="midnightblue" stroke="midnightblue" points="890.434,-136.893 898.926,-130.558 888.337,-130.214 890.434,-136.893"/>
</g>
<!-- Node10 -->
<g id="node10" class="node"><title>Node10</title>
<polygon fill="white" stroke="#bfbfbf" points="717.5,-112.5 717.5,-131.5 766.5,-131.5 766.5,-112.5 717.5,-112.5"/>
<text text-anchor="middle" x="742" y="-119.5" font-family="Helvetica,sans-Serif" font-size="10.00">QBuffer</text>
</g>
<!-- Node9&#45;&gt;Node10 -->
<g id="edge11" class="edge"><title>Node9&#45;&gt;Node10</title>
<path fill="none" stroke="midnightblue" d="M749.514,-168.083C748.321,-160.927 746.606,-150.635 745.115,-141.691"/>
<polygon fill="midnightblue" stroke="midnightblue" points="748.555,-141.04 743.459,-131.751 741.65,-142.19 748.555,-141.04"/>
</g>
<!-- Node11 -->
<g id="node11" class="node"><title>Node11</title>
<polygon fill="white" stroke="#bfbfbf" points="573,-0.5 573,-19.5 623,-19.5 623,-0.5 573,-0.5"/>
<text text-anchor="middle" x="598" y="-7.5" font-family="Helvetica,sans-Serif" font-size="10.00">QString</text>
</g>
<!-- Node9&#45;&gt;Node11 -->
<g id="edge12" class="edge"><title>Node9&#45;&gt;Node11</title>
<path fill="none" stroke="midnightblue" d="M721.181,-175.289C667.528,-171.52 558.139,-160.457 535,-132 507.512,-98.1947 552.066,-50.4887 579.315,-26.3188"/>
<polygon fill="midnightblue" stroke="midnightblue" points="581.813,-28.7867 587.117,-19.6149 577.251,-23.4774 581.813,-28.7867"/>
</g>
<!-- Node12 -->
<g id="node12" class="node"><title>Node12</title>
<polygon fill="white" stroke="#bfbfbf" points="965,-112.5 965,-131.5 1035,-131.5 1035,-112.5 965,-112.5"/>
<text text-anchor="middle" x="1000" y="-119.5" font-family="Helvetica,sans-Serif" font-size="10.00">QTcpSocket</text>
</g>
<!-- Node9&#45;&gt;Node12 -->
<g id="edge13" class="edge"><title>Node9&#45;&gt;Node12</title>
<path fill="none" stroke="midnightblue" d="M780.541,-170.593C823.688,-161.236 904.295,-143.755 954.89,-132.783"/>
<polygon fill="midnightblue" stroke="midnightblue" points="955.867,-136.153 964.898,-130.613 954.383,-129.312 955.867,-136.153"/>
</g>
<!-- Node13 -->
<g id="node13" class="node"><title>Node13</title>
<polygon fill="white" stroke="#bfbfbf" points="813.5,-0.5 813.5,-19.5 878.5,-19.5 878.5,-0.5 813.5,-0.5"/>
<text text-anchor="middle" x="846" y="-7.5" font-family="Helvetica,sans-Serif" font-size="10.00">QStringList</text>
</g>
<!-- Node9&#45;&gt;Node13 -->
<g id="edge14" class="edge"><title>Node9&#45;&gt;Node13</title>
<path fill="none" stroke="midnightblue" d="M760.139,-168.352C768.869,-159.741 781.996,-145.845 791,-132 813.137,-97.962 830.827,-53.5499 839.725,-29.106"/>
<polygon fill="midnightblue" stroke="midnightblue" points="843.029,-30.2591 843.083,-19.6644 836.434,-27.9131 843.029,-30.2591"/>
</g>
<!-- Node14 -->
<g id="node14" class="node"><title>Node14</title>
<polygon fill="white" stroke="#bfbfbf" points="544,-112.5 544,-131.5 618,-131.5 618,-112.5 544,-112.5"/>
<text text-anchor="middle" x="581" y="-119.5" font-family="Helvetica,sans-Serif" font-size="10.00">QTextStream</text>
</g>
<!-- Node9&#45;&gt;Node14 -->
<g id="edge15" class="edge"><title>Node9&#45;&gt;Node14</title>
<path fill="none" stroke="midnightblue" d="M724.063,-168.444C695.34,-159.32 649.671,-144.813 617.679,-134.651"/>
<polygon fill="midnightblue" stroke="midnightblue" points="618.401,-131.208 607.811,-131.516 616.282,-137.88 618.401,-131.208"/>
</g>
<!-- Node15 -->
<g id="node15" class="node"><title>Node15</title>
<g id="a_node15"><a xlink:href="../../df/df2/irc_codes_8h.html" target="_top" xlink:title="ircCodes.h">
<polygon fill="white" stroke="black" points="636.5,-112.5 636.5,-131.5 699.5,-131.5 699.5,-112.5 636.5,-112.5"/>
<text text-anchor="middle" x="668" y="-119.5" font-family="Helvetica,sans-Serif" font-size="10.00">ircCodes.h</text>
</a>
</g>
</g>
<!-- Node9&#45;&gt;Node15 -->
<g id="edge16" class="edge"><title>Node9&#45;&gt;Node15</title>
<path fill="none" stroke="midnightblue" d="M737.665,-168.324C724.838,-159.979 705.215,-147.212 690.06,-137.352"/>
<polygon fill="midnightblue" stroke="midnightblue" points="691.593,-134.174 681.302,-131.655 687.776,-140.042 691.593,-134.174"/>
</g>
<!-- Node9&#45;&gt;Node16 -->
<g id="edge17" class="edge"><title>Node9&#45;&gt;Node16</title>
<path fill="none" stroke="midnightblue" d="M757.367,-168.232C763.26,-159.532 771.607,-145.572 775,-132 778.812,-116.751 777.887,-98.8646 776.249,-85.7186"/>
<polygon fill="midnightblue" stroke="midnightblue" points="779.672,-84.9424 774.727,-75.572 772.749,-85.9805 779.672,-84.9424"/>
</g>
<!-- Node19 -->
<g id="node19" class="node"><title>Node19</title>
<g id="a_node19"><a xlink:href="../../d7/d62/clslog_8h.html" target="_top" xlink:title="../resources/clslog.h">
<polygon fill="white" stroke="black" points="1024.5,-56.5 1024.5,-75.5 1129.5,-75.5 1129.5,-56.5 1024.5,-56.5"/>
<text text-anchor="middle" x="1077" y="-63.5" font-family="Helvetica,sans-Serif" font-size="10.00">../resources/clslog.h</text>
</a>
</g>
</g>
<!-- Node9&#45;&gt;Node19 -->
<g id="edge22" class="edge"><title>Node9&#45;&gt;Node19</title>
<path fill="none" stroke="midnightblue" d="M769.215,-168.454C806.56,-150.936 888.448,-112.543 890,-112 932.635,-97.0724 982.43,-85.3552 1019.91,-77.624"/>
<polygon fill="midnightblue" stroke="midnightblue" points="1021.04,-80.9674 1030.14,-75.5498 1019.64,-74.107 1021.04,-80.9674"/>
</g>
<!-- Node9&#45;&gt;Node22 -->
<g id="edge28" class="edge"><title>Node9&#45;&gt;Node22</title>
<path fill="none" stroke="midnightblue" d="M721.418,-172.021C674.707,-164.077 581.044,-147.812 502,-132 500.754,-131.751 499.487,-131.494 498.209,-131.231"/>
<polygon fill="midnightblue" stroke="midnightblue" points="498.824,-127.784 488.317,-129.145 497.38,-134.633 498.824,-127.784"/>
</g>
<!-- Node17 -->
<g id="node17" class="node"><title>Node17</title>
<polygon fill="white" stroke="#bfbfbf" points="935.5,-0.5 935.5,-19.5 976.5,-19.5 976.5,-0.5 935.5,-0.5"/>
<text text-anchor="middle" x="956" y="-7.5" font-family="Helvetica,sans-Serif" font-size="10.00">string</text>
</g>
<!-- Node16&#45;&gt;Node17 -->
<g id="edge18" class="edge"><title>Node16&#45;&gt;Node17</title>
<path fill="none" stroke="midnightblue" d="M801.997,-56.4435C835.699,-46.4985 891.073,-30.1587 925.432,-20.02"/>
<polygon fill="midnightblue" stroke="midnightblue" points="926.773,-23.2736 935.374,-17.0865 924.792,-16.5598 926.773,-23.2736"/>
</g>
<!-- Node16&#45;&gt;Node11 -->
<g id="edge19" class="edge"><title>Node16&#45;&gt;Node11</title>
<path fill="none" stroke="midnightblue" d="M745.271,-56.4435C714.788,-47.0375 665.768,-31.9112 632.745,-21.7212"/>
<polygon fill="midnightblue" stroke="midnightblue" points="633.635,-18.3332 623.048,-18.729 631.571,-25.022 633.635,-18.3332"/>
</g>
<!-- Node16&#45;&gt;Node13 -->
<g id="edge20" class="edge"><title>Node16&#45;&gt;Node13</title>
<path fill="none" stroke="midnightblue" d="M784.729,-56.324C795.837,-48.1066 812.742,-35.6017 825.983,-25.8069"/>
<polygon fill="midnightblue" stroke="midnightblue" points="828.1,-28.5948 834.058,-19.8339 823.937,-22.9671 828.1,-28.5948"/>
</g>
<!-- Node18 -->
<g id="node18" class="node"><title>Node18</title>
<polygon fill="white" stroke="#bfbfbf" points="724.5,-0.5 724.5,-19.5 795.5,-19.5 795.5,-0.5 724.5,-0.5"/>
<text text-anchor="middle" x="760" y="-7.5" font-family="Helvetica,sans-Serif" font-size="10.00">QVariantList</text>
</g>
<!-- Node16&#45;&gt;Node18 -->
<g id="edge21" class="edge"><title>Node16&#45;&gt;Node18</title>
<path fill="none" stroke="midnightblue" d="M770.853,-56.083C769.131,-48.9272 766.653,-38.6353 764.5,-29.6911"/>
<polygon fill="midnightblue" stroke="midnightblue" points="767.85,-28.6541 762.107,-19.7511 761.045,-30.2925 767.85,-28.6541"/>
</g>
<!-- Node20 -->
<g id="node20" class="node"><title>Node20</title>
<polygon fill="white" stroke="#bfbfbf" points="1051,-0.5 1051,-19.5 1103,-19.5 1103,-0.5 1051,-0.5"/>
<text text-anchor="middle" x="1077" y="-7.5" font-family="Helvetica,sans-Serif" font-size="10.00">QDebug</text>
</g>
<!-- Node19&#45;&gt;Node20 -->
<g id="edge23" class="edge"><title>Node19&#45;&gt;Node20</title>
<path fill="none" stroke="midnightblue" d="M1077,-56.083C1077,-49.0059 1077,-38.8611 1077,-29.9865"/>
<polygon fill="midnightblue" stroke="midnightblue" points="1080.5,-29.751 1077,-19.7511 1073.5,-29.7511 1080.5,-29.751"/>
</g>
<!-- Node21 -->
<g id="node21" class="node"><title>Node21</title>
<polygon fill="white" stroke="#bfbfbf" points="1140.5,-0.5 1140.5,-19.5 1205.5,-19.5 1205.5,-0.5 1140.5,-0.5"/>
<text text-anchor="middle" x="1173" y="-7.5" font-family="Helvetica,sans-Serif" font-size="10.00">QDateTime</text>
</g>
<!-- Node19&#45;&gt;Node21 -->
<g id="edge24" class="edge"><title>Node19&#45;&gt;Node21</title>
<path fill="none" stroke="midnightblue" d="M1092.42,-56.324C1107.54,-47.8215 1130.82,-34.7288 1148.47,-24.7975"/>
<polygon fill="midnightblue" stroke="midnightblue" points="1150.61,-27.6077 1157.61,-19.6545 1147.18,-21.5066 1150.61,-27.6077"/>
</g>
<!-- Node19&#45;&gt;Node17 -->
<g id="edge25" class="edge"><title>Node19&#45;&gt;Node17</title>
<path fill="none" stroke="midnightblue" d="M1057.83,-56.4435C1038.09,-47.6356 1007.11,-33.8116 984.507,-23.722"/>
<polygon fill="midnightblue" stroke="midnightblue" points="985.641,-20.3957 975.083,-19.5164 982.789,-26.788 985.641,-20.3957"/>
</g>
<!-- Node19&#45;&gt;Node3 -->
<g id="edge26" class="edge"><title>Node19&#45;&gt;Node3</title>
<path fill="none" stroke="midnightblue" d="M1024.34,-60.0725C1009.07,-58.6951 992.377,-57.2376 977,-56 750.426,-37.7649 477.978,-19.7392 380.186,-13.3929"/>
<polygon fill="midnightblue" stroke="midnightblue" points="380.408,-9.90006 370.203,-12.7463 379.956,-16.8854 380.408,-9.90006"/>
</g>
<!-- Node19&#45;&gt;Node13 -->
<g id="edge27" class="edge"><title>Node19&#45;&gt;Node13</title>
<path fill="none" stroke="midnightblue" d="M1040.4,-56.4435C999.176,-46.8073 932.271,-31.1672 888.7,-20.9819"/>
<polygon fill="midnightblue" stroke="midnightblue" points="889.231,-17.5116 878.696,-18.6433 887.637,-24.3278 889.231,-17.5116"/>
</g>
<!-- Node22&#45;&gt;Node11 -->
<g id="edge29" class="edge"><title>Node22&#45;&gt;Node11</title>
<path fill="none" stroke="midnightblue" d="M464.538,-112.323C470.467,-98.7177 483.595,-72.2465 502,-56 519.708,-40.3688 543.784,-29.1015 563.394,-21.7507"/>
<polygon fill="midnightblue" stroke="midnightblue" points="564.658,-25.0161 572.9,-18.3582 562.305,-18.4234 564.658,-25.0161"/>
</g>
<!-- Node22&#45;&gt;Node7 -->
<g id="edge30" class="edge"><title>Node22&#45;&gt;Node7</title>
<path fill="none" stroke="midnightblue" d="M450.396,-112.324C440.544,-104.263 425.649,-92.0765 413.785,-82.3695"/>
<polygon fill="midnightblue" stroke="midnightblue" points="415.753,-79.4575 405.797,-75.8339 411.32,-84.8752 415.753,-79.4575"/>
</g>
<!-- Node23 -->
<g id="node23" class="node"><title>Node23</title>
<polygon fill="white" stroke="#bfbfbf" points="894,-56.5 894,-75.5 968,-75.5 968,-56.5 894,-56.5"/>
<text text-anchor="middle" x="931" y="-63.5" font-family="Helvetica,sans-Serif" font-size="10.00">QVariantMap</text>
</g>
<!-- Node22&#45;&gt;Node23 -->
<g id="edge31" class="edge"><title>Node22&#45;&gt;Node23</title>
<path fill="none" stroke="midnightblue" d="M488.057,-117.657C502.065,-115.94 519.448,-113.829 535,-112 661.013,-97.1775 809.684,-80.5005 883.896,-72.2313"/>
<polygon fill="midnightblue" stroke="midnightblue" points="884.313,-75.7066 893.864,-71.1213 883.538,-68.7496 884.313,-75.7066"/>
</g>
<!-- Node22&#45;&gt;Node16 -->
<g id="edge32" class="edge"><title>Node22&#45;&gt;Node16</title>
<path fill="none" stroke="midnightblue" d="M488.142,-116.302C542.604,-106.876 665.553,-85.5967 730.677,-74.3251"/>
<polygon fill="midnightblue" stroke="midnightblue" points="731.357,-77.7596 740.613,-72.6054 730.163,-70.8621 731.357,-77.7596"/>
</g>
<!-- Node22&#45;&gt;Node19 -->
<g id="edge33" class="edge"><title>Node22&#45;&gt;Node19</title>
<path fill="none" stroke="midnightblue" d="M488.034,-117.45C502.036,-115.678 519.42,-113.581 535,-112 731.088,-92.0982 780.625,-92.8337 977,-76 989.008,-74.9706 1001.82,-73.8408 1014.14,-72.7399"/>
<polygon fill="midnightblue" stroke="midnightblue" points="1014.68,-76.2049 1024.33,-71.8247 1014.06,-69.2329 1014.68,-76.2049"/>
</g>
<!-- Node25 -->
<g id="node25" class="node"><title>Node25</title>
<polygon fill="white" stroke="#bfbfbf" points="1007,-168.5 1007,-187.5 1073,-187.5 1073,-168.5 1007,-168.5"/>
<text text-anchor="middle" x="1040" y="-175.5" font-family="Helvetica,sans-Serif" font-size="10.00">QTcpServer</text>
</g>
<!-- Node24&#45;&gt;Node25 -->
<g id="edge37" class="edge"><title>Node24&#45;&gt;Node25</title>
<path fill="none" stroke="midnightblue" d="M1040,-230.403C1040,-221.938 1040,-208.728 1040,-197.82"/>
<polygon fill="midnightblue" stroke="midnightblue" points="1043.5,-197.581 1040,-187.581 1036.5,-197.581 1043.5,-197.581"/>
</g>
<!-- Node26 -->
<g id="node26" class="node"><title>Node26</title>
<polygon fill="white" stroke="#bfbfbf" points="883,-168.5 883,-187.5 923,-187.5 923,-168.5 883,-168.5"/>
<text text-anchor="middle" x="903" y="-175.5" font-family="Helvetica,sans-Serif" font-size="10.00">QList</text>
</g>
<!-- Node24&#45;&gt;Node26 -->
<g id="edge38" class="edge"><title>Node24&#45;&gt;Node26</title>
<path fill="none" stroke="midnightblue" d="M1020.37,-230.403C997.176,-220.245 958.381,-203.255 931.787,-191.607"/>
<polygon fill="midnightblue" stroke="midnightblue" points="933.157,-188.386 922.592,-187.581 930.348,-194.798 933.157,-188.386"/>
</g>
<!-- Node27 -->
<g id="node27" class="node"><title>Node27</title>
<polygon fill="white" stroke="#bfbfbf" points="941.5,-168.5 941.5,-187.5 988.5,-187.5 988.5,-168.5 941.5,-168.5"/>
<text text-anchor="middle" x="965" y="-175.5" font-family="Helvetica,sans-Serif" font-size="10.00">QHash</text>
</g>
<!-- Node24&#45;&gt;Node27 -->
<g id="edge39" class="edge"><title>Node24&#45;&gt;Node27</title>
<path fill="none" stroke="midnightblue" d="M1029.25,-230.403C1017.45,-220.958 998.257,-205.606 983.918,-194.134"/>
<polygon fill="midnightblue" stroke="midnightblue" points="985.721,-191.095 975.726,-187.581 981.348,-196.561 985.721,-191.095"/>
</g>
<!-- Node24&#45;&gt;Node28 -->
<g id="edge40" class="edge"><title>Node24&#45;&gt;Node28</title>
<path fill="none" stroke="midnightblue" d="M1062.21,-230.403C1088.68,-220.156 1133.11,-202.956 1163.22,-191.302"/>
<polygon fill="midnightblue" stroke="midnightblue" points="1164.77,-194.455 1172.83,-187.581 1162.24,-187.927 1164.77,-194.455"/>
</g>
<!-- Node24&#45;&gt;Node19 -->
<g id="edge52" class="edge"><title>Node24&#45;&gt;Node19</title>
<path fill="none" stroke="midnightblue" d="M1050.29,-230.496C1060.57,-221.267 1075.73,-205.49 1082,-188 1094.38,-153.49 1087.57,-109.85 1081.98,-85.5314"/>
<polygon fill="midnightblue" stroke="midnightblue" points="1085.3,-84.4015 1079.49,-75.5442 1078.51,-86.0937 1085.3,-84.4015"/>
</g>
<!-- Node31 -->
<g id="node31" class="node"><title>Node31</title>
<g id="a_node31"><a xlink:href="../../dc/d96/jsoncommand_8h.html" target="_top" xlink:title="../resources/jsoncommand.h">
<polygon fill="white" stroke="black" points="1167,-112.5 1167,-131.5 1307,-131.5 1307,-112.5 1167,-112.5"/>
<text text-anchor="middle" x="1237" y="-119.5" font-family="Helvetica,sans-Serif" font-size="10.00">../resources/jsoncommand.h</text>
</a>
</g>
</g>
<!-- Node24&#45;&gt;Node31 -->
<g id="edge53" class="edge"><title>Node24&#45;&gt;Node31</title>
<path fill="none" stroke="midnightblue" d="M1054.1,-230.366C1076.17,-216.89 1120.24,-190.108 1158,-168 1176.27,-157.3 1197.09,-145.457 1212.77,-136.606"/>
<polygon fill="midnightblue" stroke="midnightblue" points="1214.8,-139.478 1221.79,-131.52 1211.36,-133.38 1214.8,-139.478"/>
</g>
<!-- Node28&#45;&gt;Node12 -->
<g id="edge41" class="edge"><title>Node28&#45;&gt;Node12</title>
<path fill="none" stroke="midnightblue" d="M1166.65,-169.148C1133.48,-159.965 1078.33,-144.692 1040.63,-134.251"/>
<polygon fill="midnightblue" stroke="midnightblue" points="1041.54,-130.871 1030.97,-131.576 1039.67,-137.617 1041.54,-130.871"/>
</g>
<!-- Node29 -->
<g id="node29" class="node"><title>Node29</title>
<polygon fill="white" stroke="#bfbfbf" points="1325,-112.5 1325,-131.5 1405,-131.5 1405,-112.5 1325,-112.5"/>
<text text-anchor="middle" x="1365" y="-119.5" font-family="Helvetica,sans-Serif" font-size="10.00">QHostAddress</text>
</g>
<!-- Node28&#45;&gt;Node29 -->
<g id="edge42" class="edge"><title>Node28&#45;&gt;Node29</title>
<path fill="none" stroke="midnightblue" d="M1221.94,-168.444C1250.66,-159.32 1296.33,-144.813 1328.32,-134.651"/>
<polygon fill="midnightblue" stroke="midnightblue" points="1329.72,-137.88 1338.19,-131.516 1327.6,-131.208 1329.72,-137.88"/>
</g>
<!-- Node30 -->
<g id="node30" class="node"><title>Node30</title>
<polygon fill="white" stroke="#bfbfbf" points="1423.5,-112.5 1423.5,-131.5 1512.5,-131.5 1512.5,-112.5 1423.5,-112.5"/>
<text text-anchor="middle" x="1468" y="-119.5" font-family="Helvetica,sans-Serif" font-size="10.00">QJsonDocument</text>
</g>
<!-- Node28&#45;&gt;Node30 -->
<g id="edge43" class="edge"><title>Node28&#45;&gt;Node30</title>
<path fill="none" stroke="midnightblue" d="M1223.45,-170.828C1227.98,-169.867 1232.62,-168.897 1237,-168 1297.23,-155.682 1366.45,-142.299 1413.3,-133.358"/>
<polygon fill="midnightblue" stroke="midnightblue" points="1414.07,-136.774 1423.24,-131.464 1412.76,-129.898 1414.07,-136.774"/>
</g>
<!-- Node28&#45;&gt;Node19 -->
<g id="edge44" class="edge"><title>Node28&#45;&gt;Node19</title>
<path fill="none" stroke="midnightblue" d="M1185.74,-168.368C1165.84,-149.814 1118.74,-105.913 1093.56,-82.4376"/>
<polygon fill="midnightblue" stroke="midnightblue" points="1095.92,-79.8501 1086.22,-75.5914 1091.14,-84.9704 1095.92,-79.8501"/>
</g>
<!-- Node28&#45;&gt;Node31 -->
<g id="edge45" class="edge"><title>Node28&#45;&gt;Node31</title>
<path fill="none" stroke="midnightblue" d="M1201.94,-168.083C1207.93,-160.377 1216.75,-149.033 1224.05,-139.653"/>
<polygon fill="midnightblue" stroke="midnightblue" points="1226.82,-141.793 1230.19,-131.751 1221.29,-137.496 1226.82,-141.793"/>
</g>
<!-- Node31&#45;&gt;Node6 -->
<g id="edge46" class="edge"><title>Node31&#45;&gt;Node6</title>
<path fill="none" stroke="midnightblue" d="M1277.88,-112.444C1327.65,-102.026 1410.95,-84.5914 1458.6,-74.618"/>
<polygon fill="midnightblue" stroke="midnightblue" points="1459.42,-78.0232 1468.49,-72.5488 1457.98,-71.1717 1459.42,-78.0232"/>
</g>
<!-- Node31&#45;&gt;Node23 -->
<g id="edge47" class="edge"><title>Node31&#45;&gt;Node23</title>
<path fill="none" stroke="midnightblue" d="M1188.51,-112.444C1130.92,-102.281 1035.49,-85.4399 978.389,-75.3628"/>
<polygon fill="midnightblue" stroke="midnightblue" points="978.647,-71.8542 968.191,-73.5631 977.43,-78.7477 978.647,-71.8542"/>
</g>
<!-- Node32 -->
<g id="node32" class="node"><title>Node32</title>
<g id="a_node32"><a xlink:href="../../d4/d05/json_8h.html" target="_top" xlink:title="json.h">
<polygon fill="white" stroke="black" points="1215.5,-56.5 1215.5,-75.5 1258.5,-75.5 1258.5,-56.5 1215.5,-56.5"/>
<text text-anchor="middle" x="1237" y="-63.5" font-family="Helvetica,sans-Serif" font-size="10.00">json.h</text>
</a>
</g>
</g>
<!-- Node31&#45;&gt;Node32 -->
<g id="edge48" class="edge"><title>Node31&#45;&gt;Node32</title>
<path fill="none" stroke="midnightblue" d="M1237,-112.083C1237,-105.006 1237,-94.8611 1237,-85.9865"/>
<polygon fill="midnightblue" stroke="midnightblue" points="1240.5,-85.751 1237,-75.7511 1233.5,-85.7511 1240.5,-85.751"/>
</g>
<!-- Node31&#45;&gt;Node19 -->
<g id="edge51" class="edge"><title>Node31&#45;&gt;Node19</title>
<path fill="none" stroke="midnightblue" d="M1211.65,-112.444C1184.73,-103.359 1142,-88.9388 1111.91,-78.7831"/>
<polygon fill="midnightblue" stroke="midnightblue" points="1112.83,-75.3981 1102.23,-75.5164 1110.59,-82.0305 1112.83,-75.3981"/>
</g>
<!-- Node33 -->
<g id="node33" class="node"><title>Node33</title>
<polygon fill="white" stroke="#bfbfbf" points="1232.5,-0.5 1232.5,-19.5 1287.5,-19.5 1287.5,-0.5 1232.5,-0.5"/>
<text text-anchor="middle" x="1260" y="-7.5" font-family="Helvetica,sans-Serif" font-size="10.00">QVariant</text>
</g>
<!-- Node32&#45;&gt;Node33 -->
<g id="edge49" class="edge"><title>Node32&#45;&gt;Node33</title>
<path fill="none" stroke="midnightblue" d="M1240.8,-56.083C1243.91,-48.77 1248.42,-38.1814 1252.29,-29.1034"/>
<polygon fill="midnightblue" stroke="midnightblue" points="1255.57,-30.3229 1256.27,-19.7511 1249.13,-27.5798 1255.57,-30.3229"/>
</g>
<!-- Node32&#45;&gt;Node11 -->
<g id="edge50" class="edge"><title>Node32&#45;&gt;Node11</title>
<path fill="none" stroke="midnightblue" d="M1215.37,-62.9869C1195.32,-61.1313 1164.65,-58.3217 1138,-56 947.494,-39.4031 719.062,-20.7913 633.043,-13.8285"/>
<polygon fill="midnightblue" stroke="midnightblue" points="633.286,-10.3368 623.036,-13.019 632.722,-17.314 633.286,-10.3368"/>
</g>
<!-- Node34&#45;&gt;Node11 -->
<g id="edge56" class="edge"><title>Node34&#45;&gt;Node11</title>
<path fill="none" stroke="midnightblue" d="M241,-173.798C188.932,-167.751 102.048,-151.516 133,-112 186.328,-43.9171 463.46,-19.6405 562.646,-13.0556"/>
<polygon fill="midnightblue" stroke="midnightblue" points="563.006,-16.5398 572.76,-12.4049 562.556,-9.5542 563.006,-16.5398"/>
</g>
<!-- Node35 -->
<g id="node35" class="node"><title>Node35</title>
<polygon fill="white" stroke="#bfbfbf" points="142,-112.5 142,-131.5 182,-131.5 182,-112.5 142,-112.5"/>
<text text-anchor="middle" x="162" y="-119.5" font-family="Helvetica,sans-Serif" font-size="10.00">QFile</text>
</g>
<!-- Node34&#45;&gt;Node35 -->
<g id="edge57" class="edge"><title>Node34&#45;&gt;Node35</title>
<path fill="none" stroke="midnightblue" d="M258.778,-168.444C240.104,-159.675 210.844,-145.935 189.383,-135.858"/>
<polygon fill="midnightblue" stroke="midnightblue" points="190.676,-132.599 180.137,-131.516 187.701,-138.935 190.676,-132.599"/>
</g>
<!-- Node36 -->
<g id="node36" class="node"><title>Node36</title>
<polygon fill="white" stroke="#bfbfbf" points="200,-112.5 200,-131.5 302,-131.5 302,-112.5 200,-112.5"/>
<text text-anchor="middle" x="251" y="-119.5" font-family="Helvetica,sans-Serif" font-size="10.00">QXmlStreamReader</text>
</g>
<!-- Node34&#45;&gt;Node36 -->
<g id="edge58" class="edge"><title>Node34&#45;&gt;Node36</title>
<path fill="none" stroke="midnightblue" d="M272.707,-168.083C269.148,-160.691 263.978,-149.953 259.576,-140.811"/>
<polygon fill="midnightblue" stroke="midnightblue" points="262.705,-139.243 255.213,-131.751 256.398,-142.279 262.705,-139.243"/>
</g>
<!-- Node34&#45;&gt;Node7 -->
<g id="edge59" class="edge"><title>Node34&#45;&gt;Node7</title>
<path fill="none" stroke="midnightblue" d="M286.259,-168.368C306.163,-149.814 353.257,-105.913 378.44,-82.4376"/>
<polygon fill="midnightblue" stroke="midnightblue" points="380.856,-84.9704 385.784,-75.5914 376.082,-79.8501 380.856,-84.9704"/>
</g>
<!-- Node34&#45;&gt;Node22 -->
<g id="edge60" class="edge"><title>Node34&#45;&gt;Node22</title>
<path fill="none" stroke="midnightblue" d="M306.155,-168.444C338.067,-159.078 389.302,-144.042 424.017,-133.854"/>
<polygon fill="midnightblue" stroke="midnightblue" points="425.171,-137.163 433.781,-130.988 423.2,-130.446 425.171,-137.163"/>
</g>
<!-- Node37&#45;&gt;Node6 -->
<g id="edge62" class="edge"><title>Node37&#45;&gt;Node6</title>
<path fill="none" stroke="midnightblue" d="M1573.06,-112.324C1558.41,-103.822 1535.87,-90.7288 1518.76,-80.7975"/>
<polygon fill="midnightblue" stroke="midnightblue" points="1520.31,-77.6491 1509.9,-75.6545 1516.8,-83.7027 1520.31,-77.6491"/>
</g>
<!-- Node37&#45;&gt;Node11 -->
<g id="edge63" class="edge"><title>Node37&#45;&gt;Node11</title>
<path fill="none" stroke="midnightblue" d="M1553.58,-112.44C1495.1,-98.253 1372.4,-70.0429 1267,-56 1023.3,-23.5298 960.236,-37.4284 715,-20 687.509,-18.0463 656.401,-15.6442 633.175,-13.8131"/>
<polygon fill="midnightblue" stroke="midnightblue" points="633.344,-10.3157 623.099,-13.0157 632.792,-17.2939 633.344,-10.3157"/>
</g>
<!-- Node37&#45;&gt;Node33 -->
<g id="edge64" class="edge"><title>Node37&#45;&gt;Node33</title>
<path fill="none" stroke="midnightblue" d="M1587.49,-112.242C1586.17,-98.0263 1581.37,-70.1042 1564,-56 1523.83,-23.3836 1370.02,-14.3593 1297.83,-11.9009"/>
<polygon fill="midnightblue" stroke="midnightblue" points="1297.9,-8.40147 1287.79,-11.5838 1297.68,-15.398 1297.9,-8.40147"/>
</g>
<!-- Node37&#45;&gt;Node21 -->
<g id="edge65" class="edge"><title>Node37&#45;&gt;Node21</title>
<path fill="none" stroke="midnightblue" d="M1583.24,-112.455C1574.68,-98.0259 1555.22,-69.1218 1530,-56 1408.52,7.19599 1359.48,-39.9071 1224,-20 1221.3,-19.6032 1218.52,-19.1739 1215.72,-18.7255"/>
<polygon fill="midnightblue" stroke="midnightblue" points="1216.04,-15.2303 1205.6,-17.0413 1214.89,-22.1353 1216.04,-15.2303"/>
</g>
<!-- Node37&#45;&gt;Node19 -->
<g id="edge66" class="edge"><title>Node37&#45;&gt;Node19</title>
<path fill="none" stroke="midnightblue" d="M1530.27,-113.124C1527.14,-112.734 1524.03,-112.357 1521,-112 1385.32,-96.0157 1225.9,-80.7014 1139.82,-72.7178"/>
<polygon fill="midnightblue" stroke="midnightblue" points="1139.97,-69.217 1129.69,-71.7809 1139.32,-76.1872 1139.97,-69.217"/>
</g>
<!-- Node39 -->
<g id="node39" class="node"><title>Node39</title>
<g id="a_node39"><a xlink:href="../../db/d70/eventchat_8h.html" target="_top" xlink:title="eventchat.h">
<polygon fill="white" stroke="black" points="1411,-168.5 1411,-187.5 1477,-187.5 1477,-168.5 1411,-168.5"/>
<text text-anchor="middle" x="1444" y="-175.5" font-family="Helvetica,sans-Serif" font-size="10.00">eventchat.h</text>
</a>
</g>
</g>
<!-- Node38&#45;&gt;Node39 -->
<g id="edge68" class="edge"><title>Node38&#45;&gt;Node39</title>
<path fill="none" stroke="midnightblue" d="M1514.2,-224.781C1499.5,-215.196 1480.2,-202.606 1465.55,-193.056"/>
<polygon fill="midnightblue" stroke="midnightblue" points="1467.41,-190.087 1457.12,-187.556 1463.58,-195.95 1467.41,-190.087"/>
</g>
<!-- Node40 -->
<g id="node40" class="node"><title>Node40</title>
<g id="a_node40"><a xlink:href="../../d5/d02/eventuserjoin_8h.html" target="_top" xlink:title="eventuserjoin.h">
<polygon fill="white" stroke="black" points="1495.5,-168.5 1495.5,-187.5 1576.5,-187.5 1576.5,-168.5 1495.5,-168.5"/>
<text text-anchor="middle" x="1536" y="-175.5" font-family="Helvetica,sans-Serif" font-size="10.00">eventuserjoin.h</text>
</a>
</g>
</g>
<!-- Node38&#45;&gt;Node40 -->
<g id="edge70" class="edge"><title>Node38&#45;&gt;Node40</title>
<path fill="none" stroke="midnightblue" d="M1536,-224.781C1536,-216.781 1536,-206.689 1536,-198.017"/>
<polygon fill="midnightblue" stroke="midnightblue" points="1539.5,-197.73 1536,-187.731 1532.5,-197.731 1539.5,-197.73"/>
</g>
<!-- Node41 -->
<g id="node41" class="node"><title>Node41</title>
<g id="a_node41"><a xlink:href="../../d7/d56/eventuserleave_8h.html" target="_top" xlink:title="eventuserleave.h">
<polygon fill="white" stroke="black" points="1595,-168.5 1595,-187.5 1683,-187.5 1683,-168.5 1595,-168.5"/>
<text text-anchor="middle" x="1639" y="-175.5" font-family="Helvetica,sans-Serif" font-size="10.00">eventuserleave.h</text>
</a>
</g>
</g>
<!-- Node38&#45;&gt;Node41 -->
<g id="edge72" class="edge"><title>Node38&#45;&gt;Node41</title>
<path fill="none" stroke="midnightblue" d="M1560.15,-224.933C1576.75,-215.262 1598.69,-202.479 1615.22,-192.855"/>
<polygon fill="midnightblue" stroke="midnightblue" points="1617.36,-195.658 1624.24,-187.6 1613.83,-189.609 1617.36,-195.658"/>
</g>
<!-- Node42 -->
<g id="node42" class="node"><title>Node42</title>
<g id="a_node42"><a xlink:href="../../db/db0/eventuserchangestatus_8h.html" target="_top" xlink:title="eventuserchangestatus.h">
<polygon fill="white" stroke="black" points="1700.5,-168.5 1700.5,-187.5 1825.5,-187.5 1825.5,-168.5 1700.5,-168.5"/>
<text text-anchor="middle" x="1763" y="-175.5" font-family="Helvetica,sans-Serif" font-size="10.00">eventuserchangestatus.h</text>
</a>
</g>
</g>
<!-- Node38&#45;&gt;Node42 -->
<g id="edge74" class="edge"><title>Node38&#45;&gt;Node42</title>
<path fill="none" stroke="midnightblue" d="M1585.54,-225.907C1626.01,-215.208 1682.6,-200.25 1720.91,-190.124"/>
<polygon fill="midnightblue" stroke="midnightblue" points="1721.95,-193.471 1730.72,-187.532 1720.16,-186.704 1721.95,-193.471"/>
</g>
<!-- Node43 -->
<g id="node43" class="node"><title>Node43</title>
<g id="a_node43"><a xlink:href="../../d8/d44/eventuserchangenick_8h.html" target="_top" xlink:title="eventuserchangenick.h">
<polygon fill="white" stroke="black" points="1844,-168.5 1844,-187.5 1960,-187.5 1960,-168.5 1844,-168.5"/>
<text text-anchor="middle" x="1902" y="-175.5" font-family="Helvetica,sans-Serif" font-size="10.00">eventuserchangenick.h</text>
</a>
</g>
</g>
<!-- Node38&#45;&gt;Node43 -->
<g id="edge76" class="edge"><title>Node38&#45;&gt;Node43</title>
<path fill="none" stroke="midnightblue" d="M1585.74,-230.846C1651.69,-220.035 1768.06,-200.957 1839.76,-189.203"/>
<polygon fill="midnightblue" stroke="midnightblue" points="1840.7,-192.596 1850,-187.524 1839.57,-185.688 1840.7,-192.596"/>
</g>
<!-- Node44 -->
<g id="node44" class="node"><title>Node44</title>
<g id="a_node44"><a xlink:href="../../da/d66/eventservermessage_8h.html" target="_top" xlink:title="eventservermessage.h">
<polygon fill="white" stroke="black" points="1279.5,-168.5 1279.5,-187.5 1392.5,-187.5 1392.5,-168.5 1279.5,-168.5"/>
<text text-anchor="middle" x="1336" y="-175.5" font-family="Helvetica,sans-Serif" font-size="10.00">eventservermessage.h</text>
</a>
</g>
</g>
<!-- Node38&#45;&gt;Node44 -->
<g id="edge78" class="edge"><title>Node38&#45;&gt;Node44</title>
<path fill="none" stroke="midnightblue" d="M1489.11,-224.933C1454.06,-214.417 1406.74,-200.222 1374.03,-190.409"/>
<polygon fill="midnightblue" stroke="midnightblue" points="1374.96,-187.034 1364.38,-187.513 1372.95,-193.739 1374.96,-187.034"/>
</g>
<!-- Node39&#45;&gt;Node37 -->
<g id="edge69" class="edge"><title>Node39&#45;&gt;Node37</title>
<path fill="none" stroke="midnightblue" d="M1466.82,-168.444C1490.83,-159.438 1528.83,-145.189 1555.87,-135.049"/>
<polygon fill="midnightblue" stroke="midnightblue" points="1557.16,-138.305 1565.29,-131.516 1554.7,-131.751 1557.16,-138.305"/>
</g>
<!-- Node40&#45;&gt;Node37 -->
<g id="edge71" class="edge"><title>Node40&#45;&gt;Node37</title>
<path fill="none" stroke="midnightblue" d="M1544.59,-168.083C1552.16,-160.22 1563.38,-148.569 1572.51,-139.081"/>
<polygon fill="midnightblue" stroke="midnightblue" points="1575.16,-141.382 1579.57,-131.751 1570.12,-136.527 1575.16,-141.382"/>
</g>
<!-- Node41&#45;&gt;Node37 -->
<g id="edge73" class="edge"><title>Node41&#45;&gt;Node37</title>
<path fill="none" stroke="midnightblue" d="M1630.58,-168.083C1623.15,-160.22 1612.15,-148.569 1603.19,-139.081"/>
<polygon fill="midnightblue" stroke="midnightblue" points="1605.68,-136.618 1596.26,-131.751 1600.59,-141.424 1605.68,-136.618"/>
</g>
<!-- Node42&#45;&gt;Node37 -->
<g id="edge75" class="edge"><title>Node42&#45;&gt;Node37</title>
<path fill="none" stroke="midnightblue" d="M1735.27,-168.444C1705.57,-159.28 1658.28,-144.688 1625.33,-134.519"/>
<polygon fill="midnightblue" stroke="midnightblue" points="1626.19,-131.121 1615.6,-131.516 1624.12,-137.809 1626.19,-131.121"/>
</g>
<!-- Node43&#45;&gt;Node37 -->
<g id="edge77" class="edge"><title>Node43&#45;&gt;Node37</title>
<path fill="none" stroke="midnightblue" d="M1852.25,-168.444C1796.67,-158.885 1706.74,-143.419 1647.48,-133.23"/>
<polygon fill="midnightblue" stroke="midnightblue" points="1647.97,-129.762 1637.52,-131.516 1646.78,-136.661 1647.97,-129.762"/>
</g>
<!-- Node44&#45;&gt;Node37 -->
<g id="edge79" class="edge"><title>Node44&#45;&gt;Node37</title>
<path fill="none" stroke="midnightblue" d="M1375.93,-168.444C1419.89,-159.023 1490.63,-143.866 1538.18,-133.675"/>
<polygon fill="midnightblue" stroke="midnightblue" points="1539.21,-137.034 1548.26,-131.516 1537.75,-130.189 1539.21,-137.034"/>
</g>
</g>
</svg>
        <g id="navigator" transform="translate(0 0)" fill="#404254">
                <rect fill="#f2f5e9" fill-opacity="0.5" stroke="#606060" stroke-width=".5" x="0" y="0" width="60" height="60"/>
                <use id="zoomplus" xlink:href="#zoomPlus" x="17" y="9" onmousedown="handleZoom(evt,'in')"/>
                <use id="zoomminus" xlink:href="#zoomMin" x="42" y="9" onmousedown="handleZoom(evt,'out')"/>
                <use id="reset" xlink:href="#resetDef" x="30" y="36" onmousedown="handleReset()"/>
                <g id="arrowUp" xlink:href="#dirArrow" transform="translate(30 24)" onmousedown="handlePan(0,-1)">
                  <use xlink:href="#rim" fill="#404040">
                        <set attributeName="fill" to="#808080" begin="arrowUp.mouseover" end="arrowUp.mouseout"/>
                  </use>
                  <path fill="none" stroke="white" stroke-width="1.5" d="M0,-3.0v7 M-2.5,-0.5L0,-3.0L2.5,-0.5"/>
                </g>
                <g id="arrowRight" xlink:href="#dirArrow" transform="rotate(90) translate(36 -43)" onmousedown="handlePan(1,0)">
                  <use xlink:href="#rim" fill="#404040">
                        <set attributeName="fill" to="#808080" begin="arrowRight.mouseover" end="arrowRight.mouseout"/>
                  </use>
                  <path fill="none" stroke="white" stroke-width="1.5" d="M0,-3.0v7 M-2.5,-0.5L0,-3.0L2.5,-0.5"/>
                </g>
                <g id="arrowDown" xlink:href="#dirArrow" transform="rotate(180) translate(-30 -48)" onmousedown="handlePan(0,1)">
                  <use xlink:href="#rim" fill="#404040">
                        <set attributeName="fill" to="#808080" begin="arrowDown.mouseover" end="arrowDown.mouseout"/>
                  </use>
                  <path fill="none" stroke="white" stroke-width="1.5" d="M0,-3.0v7 M-2.5,-0.5L0,-3.0L2.5,-0.5"/>
                </g>
                <g id="arrowLeft" xlink:href="#dirArrow" transform="rotate(270) translate(-36 17)" onmousedown="handlePan(-1,0)">
                  <use xlink:href="#rim" fill="#404040">
                        <set attributeName="fill" to="#808080" begin="arrowLeft.mouseover" end="arrowLeft.mouseout"/>
                  </use>
                  <path fill="none" stroke="white" stroke-width="1.5" d="M0,-3.0v7 M-2.5,-0.5L0,-3.0L2.5,-0.5"/>
                </g>
        </g>
        <svg viewBox="0 0 15 15" width="100%" height="30px" preserveAspectRatio="xMaxYMin meet">
         <g id="arrow_out" transform="scale(0.3 0.3)">
          <a xlink:href="custom_irc_server_2main_8cpp__incl_org.svg" target="_base">
           <rect id="button" ry="5" rx="5" y="6" x="6" height="38" width="38"
                fill="#f2f5e9" fill-opacity="0.5" stroke="#606060" stroke-width="1.0"/>
           <path id="arrow"
             d="M 11.500037,31.436501 C 11.940474,20.09759 22.043105,11.32322 32.158766,21.979434 L 37.068811,17.246167 C 37.068811,17.246167 37.088388,32 37.088388,32 L 22.160133,31.978069 C 22.160133,31.978069 26.997745,27.140456 26.997745,27.140456 C 18.528582,18.264221 13.291696,25.230495 11.500037,31.436501 z"
             style="fill:#404040;"/>
          </a>
         </g>
        </svg>
</svg>
