<?xml version="1.0" encoding="UTF-8" standalone="no"?>
<!DOCTYPE svg PUBLIC "-//W3C//DTD SVG 1.1//EN"
 "http://www.w3.org/Graphics/SVG/1.1/DTD/svg11.dtd">
<!-- Generated by graphviz version 2.30.1 (20130303.0817)
 -->
<!-- Title: C++/resources/events/eventuserchangenick.h Pages: 1 -->
<svg width="489pt" height="312pt"
 viewBox="0.00 0.00 489.00 312.00" xmlns="http://www.w3.org/2000/svg" xmlns:xlink="http://www.w3.org/1999/xlink">
<g id="graph0" class="graph" transform="scale(1 1) rotate(0) translate(4 308)">
<title>C++/resources/events/eventuserchangenick.h</title>
<polygon fill="white" stroke="white" points="-4,5 -4,-308 486,-308 486,5 -4,5"/>
<!-- Node1 -->
<g id="node1" class="node"><title>Node1</title>
<polygon fill="#bfbfbf" stroke="black" points="247.5,-273 247.5,-303 366.5,-303 366.5,-273 247.5,-273"/>
<text text-anchor="start" x="255.5" y="-291" font-family="Helvetica,sans-Serif" font-size="10.00">C++/resources/events</text>
<text text-anchor="middle" x="307" y="-280" font-family="Helvetica,sans-Serif" font-size="10.00">/eventuserchangenick.h</text>
</g>
<!-- Node2 -->
<g id="node2" class="node"><title>Node2</title>
<g id="a_node2"><a xlink:href="../../db/dd2/events_8h.xhtml" target="_top" xlink:title="C++/resources/events\l/events.h">
<polygon fill="white" stroke="black" points="182,-205 182,-235 294,-235 294,-205 182,-205"/>
<text text-anchor="start" x="190" y="-223" font-family="Helvetica,sans-Serif" font-size="10.00">C++/resources/events</text>
<text text-anchor="middle" x="238" y="-212" font-family="Helvetica,sans-Serif" font-size="10.00">/events.h</text>
</a>
</g>
</g>
<!-- Node1&#45;&gt;Node2 -->
<g id="edge1" class="edge"><title>Node1&#45;&gt;Node2</title>
<path fill="none" stroke="midnightblue" d="M284.508,-265.485C274.157,-255.585 262.16,-244.109 252.943,-235.293"/>
<polygon fill="midnightblue" stroke="midnightblue" points="282.382,-268.296 292.028,-272.679 287.221,-263.237 282.382,-268.296"/>
</g>
<!-- Node11 -->
<g id="node11" class="node"><title>Node11</title>
<g id="a_node11"><a xlink:href="../../dd/d4b/eventuserchangenick_8cpp.xhtml" target="_top" xlink:title="C++/resources/events\l/eventuserchangenick.cpp">
<polygon fill="white" stroke="black" points="312.5,-205 312.5,-235 441.5,-235 441.5,-205 312.5,-205"/>
<text text-anchor="start" x="320.5" y="-223" font-family="Helvetica,sans-Serif" font-size="10.00">C++/resources/events</text>
<text text-anchor="middle" x="377" y="-212" font-family="Helvetica,sans-Serif" font-size="10.00">/eventuserchangenick.cpp</text>
</a>
</g>
</g>
<!-- Node1&#45;&gt;Node11 -->
<g id="edge10" class="edge"><title>Node1&#45;&gt;Node11</title>
<path fill="none" stroke="midnightblue" d="M329.51,-265.776C340.08,-255.81 352.399,-244.196 361.841,-235.293"/>
<polygon fill="midnightblue" stroke="midnightblue" points="327.064,-263.272 322.189,-272.679 331.866,-268.365 327.064,-263.272"/>
</g>
<!-- Node3 -->
<g id="node3" class="node"><title>Node3</title>
<g id="a_node3"><a xlink:href="../../d5/dbc/clsserverconn_8h.xhtml" target="_top" xlink:title="C++/customIrcClient\l/clsserverconn.h">
<polygon fill="white" stroke="black" points="123,-137 123,-167 229,-167 229,-137 123,-137"/>
<text text-anchor="start" x="131" y="-155" font-family="Helvetica,sans-Serif" font-size="10.00">C++/customIrcClient</text>
<text text-anchor="middle" x="176" y="-144" font-family="Helvetica,sans-Serif" font-size="10.00">/clsserverconn.h</text>
</a>
</g>
</g>
<!-- Node2&#45;&gt;Node3 -->
<g id="edge2" class="edge"><title>Node2&#45;&gt;Node3</title>
<path fill="none" stroke="midnightblue" d="M217.515,-197.194C208.278,-187.36 197.627,-176.023 189.427,-167.293"/>
<polygon fill="midnightblue" stroke="midnightblue" points="215.149,-199.787 224.547,-204.679 220.251,-194.994 215.149,-199.787"/>
</g>
<!-- Node8 -->
<g id="node8" class="node"><title>Node8</title>
<g id="a_node8"><a xlink:href="../../db/df6/mainapp_8h.xhtml" target="_top" xlink:title="C++/customIrcServer\l/mainapp.h">
<polygon fill="white" stroke="black" points="247,-137 247,-167 355,-167 355,-137 247,-137"/>
<text text-anchor="start" x="255" y="-155" font-family="Helvetica,sans-Serif" font-size="10.00">C++/customIrcServer</text>
<text text-anchor="middle" x="301" y="-144" font-family="Helvetica,sans-Serif" font-size="10.00">/mainapp.h</text>
</a>
</g>
</g>
<!-- Node2&#45;&gt;Node8 -->
<g id="edge7" class="edge"><title>Node2&#45;&gt;Node8</title>
<path fill="none" stroke="midnightblue" d="M258.815,-197.194C268.201,-187.36 279.024,-176.023 287.357,-167.293"/>
<polygon fill="midnightblue" stroke="midnightblue" points="256.043,-195.029 251.67,-204.679 261.107,-199.862 256.043,-195.029"/>
</g>
<!-- Node4 -->
<g id="node4" class="node"><title>Node4</title>
<g id="a_node4"><a xlink:href="../../db/d1f/clsserverconn_8cpp.xhtml" target="_top" xlink:title="C++/customIrcClient\l/clsserverconn.cpp">
<polygon fill="white" stroke="black" points="-1,-69 -1,-99 105,-99 105,-69 -1,-69"/>
<text text-anchor="start" x="7" y="-87" font-family="Helvetica,sans-Serif" font-size="10.00">C++/customIrcClient</text>
<text text-anchor="middle" x="52" y="-76" font-family="Helvetica,sans-Serif" font-size="10.00">/clsserverconn.cpp</text>
</a>
</g>
</g>
<!-- Node3&#45;&gt;Node4 -->
<g id="edge3" class="edge"><title>Node3&#45;&gt;Node4</title>
<path fill="none" stroke="midnightblue" d="M140.406,-132.055C120.696,-121.564 96.6087,-108.743 78.5571,-99.1352"/>
<polygon fill="midnightblue" stroke="midnightblue" points="138.927,-135.232 149.399,-136.841 142.216,-129.053 138.927,-135.232"/>
</g>
<!-- Node5 -->
<g id="node5" class="node"><title>Node5</title>
<g id="a_node5"><a xlink:href="../../d9/d53/mainwindow_8h.xhtml" target="_top" xlink:title="C++/customIrcClient\l/mainwindow.h">
<polygon fill="white" stroke="black" points="123,-69 123,-99 229,-99 229,-69 123,-69"/>
<text text-anchor="start" x="131" y="-87" font-family="Helvetica,sans-Serif" font-size="10.00">C++/customIrcClient</text>
<text text-anchor="middle" x="176" y="-76" font-family="Helvetica,sans-Serif" font-size="10.00">/mainwindow.h</text>
</a>
</g>
</g>
<!-- Node3&#45;&gt;Node5 -->
<g id="edge4" class="edge"><title>Node3&#45;&gt;Node5</title>
<path fill="none" stroke="midnightblue" d="M176,-126.532C176,-117.361 176,-107.245 176,-99.2931"/>
<polygon fill="midnightblue" stroke="midnightblue" points="172.5,-126.679 176,-136.679 179.5,-126.679 172.5,-126.679"/>
</g>
<!-- Node6 -->
<g id="node6" class="node"><title>Node6</title>
<g id="a_node6"><a xlink:href="../../df/d94/custom_irc_client_2main_8cpp.xhtml" target="_top" xlink:title="C++/customIrcClient\l/main.cpp">
<polygon fill="white" stroke="black" points="61,-1 61,-31 167,-31 167,-1 61,-1"/>
<text text-anchor="start" x="69" y="-19" font-family="Helvetica,sans-Serif" font-size="10.00">C++/customIrcClient</text>
<text text-anchor="middle" x="114" y="-8" font-family="Helvetica,sans-Serif" font-size="10.00">/main.cpp</text>
</a>
</g>
</g>
<!-- Node5&#45;&gt;Node6 -->
<g id="edge5" class="edge"><title>Node5&#45;&gt;Node6</title>
<path fill="none" stroke="midnightblue" d="M155.515,-61.1939C146.278,-51.3605 135.627,-40.0228 127.427,-31.2931"/>
<polygon fill="midnightblue" stroke="midnightblue" points="153.149,-63.7869 162.547,-68.679 158.251,-58.9941 153.149,-63.7869"/>
</g>
<!-- Node7 -->
<g id="node7" class="node"><title>Node7</title>
<g id="a_node7"><a xlink:href="../../d8/dd9/mainwindow_8cpp.xhtml" target="_top" xlink:title="C++/customIrcClient\l/mainwindow.cpp">
<polygon fill="white" stroke="black" points="185,-1 185,-31 291,-31 291,-1 185,-1"/>
<text text-anchor="start" x="193" y="-19" font-family="Helvetica,sans-Serif" font-size="10.00">C++/customIrcClient</text>
<text text-anchor="middle" x="238" y="-8" font-family="Helvetica,sans-Serif" font-size="10.00">/mainwindow.cpp</text>
</a>
</g>
</g>
<!-- Node5&#45;&gt;Node7 -->
<g id="edge6" class="edge"><title>Node5&#45;&gt;Node7</title>
<path fill="none" stroke="midnightblue" d="M196.485,-61.1939C205.722,-51.3605 216.373,-40.0228 224.573,-31.2931"/>
<polygon fill="midnightblue" stroke="midnightblue" points="193.749,-58.9941 189.453,-68.679 198.851,-63.7869 193.749,-58.9941"/>
</g>
<!-- Node9 -->
<g id="node9" class="node"><title>Node9</title>
<g id="a_node9"><a xlink:href="../../dc/d17/custom_irc_server_2main_8cpp.xhtml" target="_top" xlink:title="C++/customIrcServer\l/main.cpp">
<polygon fill="white" stroke="black" points="247,-69 247,-99 355,-99 355,-69 247,-69"/>
<text text-anchor="start" x="255" y="-87" font-family="Helvetica,sans-Serif" font-size="10.00">C++/customIrcServer</text>
<text text-anchor="middle" x="301" y="-76" font-family="Helvetica,sans-Serif" font-size="10.00">/main.cpp</text>
</a>
</g>
</g>
<!-- Node8&#45;&gt;Node9 -->
<g id="edge8" class="edge"><title>Node8&#45;&gt;Node9</title>
<path fill="none" stroke="midnightblue" d="M301,-126.532C301,-117.361 301,-107.245 301,-99.2931"/>
<polygon fill="midnightblue" stroke="midnightblue" points="297.5,-126.679 301,-136.679 304.5,-126.679 297.5,-126.679"/>
</g>
<!-- Node10 -->
<g id="node10" class="node"><title>Node10</title>
<g id="a_node10"><a xlink:href="../../d8/d88/mainapp_8cpp.xhtml" target="_top" xlink:title="C++/customIrcServer\l/mainapp.cpp">
<polygon fill="white" stroke="black" points="373,-69 373,-99 481,-99 481,-69 373,-69"/>
<text text-anchor="start" x="381" y="-87" font-family="Helvetica,sans-Serif" font-size="10.00">C++/customIrcServer</text>
<text text-anchor="middle" x="427" y="-76" font-family="Helvetica,sans-Serif" font-size="10.00">/mainapp.cpp</text>
</a>
</g>
</g>
<!-- Node8&#45;&gt;Node10 -->
<g id="edge9" class="edge"><title>Node8&#45;&gt;Node10</title>
<path fill="none" stroke="midnightblue" d="M336.897,-132.197C356.974,-121.68 381.589,-108.787 400.015,-99.1352"/>
<polygon fill="midnightblue" stroke="midnightblue" points="335.264,-129.101 328.03,-136.841 338.513,-135.302 335.264,-129.101"/>
</g>
</g>
</svg>
