<?xml version="1.0" encoding="UTF-8" standalone="no"?>
<!DOCTYPE svg PUBLIC "-//W3C//DTD SVG 1.1//EN"
 "http://www.w3.org/Graphics/SVG/1.1/DTD/svg11.dtd">
<!-- Generated by graphviz version 2.30.1 (20130303.0817)
 -->
<!-- Title: server::ircUserList::getUserByIrcId Pages: 1 -->
<svg width="652pt" height="153pt"
 viewBox="0.00 0.00 652.00 153.00" xmlns="http://www.w3.org/2000/svg" xmlns:xlink="http://www.w3.org/1999/xlink">
<g id="graph0" class="graph" transform="scale(1 1) rotate(0) translate(4 149)">
<title>server::ircUserList::getUserByIrcId</title>
<polygon fill="white" stroke="white" points="-4,5 -4,-149 649,-149 649,5 -4,5"/>
<!-- Node1 -->
<g id="node1" class="node"><title>Node1</title>
<polygon fill="#bfbfbf" stroke="black" points="0.5,-63 0.5,-93 95.5,-93 95.5,-63 0.5,-63"/>
<text text-anchor="start" x="8.5" y="-81" font-family="Helvetica,sans-Serif" font-size="10.00">server::ircUserList</text>
<text text-anchor="middle" x="48" y="-70" font-family="Helvetica,sans-Serif" font-size="10.00">::getUserByIrcId</text>
</g>
<!-- Node2 -->
<g id="node2" class="node"><title>Node2</title>
<g id="a_node2"><a xlink:href="../../d4/d08/classserver_1_1irc_user_list.html#af2d5bdaf2ccd658679c933390500f0e2" target="_top" xlink:title="Finds a user based on IRC&#45;ID or nick.">
<polygon fill="white" stroke="black" points="132.5,-63 132.5,-93 227.5,-93 227.5,-63 132.5,-63"/>
<text text-anchor="start" x="140.5" y="-81" font-family="Helvetica,sans-Serif" font-size="10.00">server::ircUserList</text>
<text text-anchor="middle" x="180" y="-70" font-family="Helvetica,sans-Serif" font-size="10.00">::getUser</text>
</a>
</g>
</g>
<!-- Node1&#45;&gt;Node2 -->
<g id="edge1" class="edge"><title>Node1&#45;&gt;Node2</title>
<path fill="none" stroke="midnightblue" d="M105.822,-78C114.673,-78 123.73,-78 132.322,-78"/>
<polygon fill="midnightblue" stroke="midnightblue" points="105.566,-74.5001 95.5658,-78 105.566,-81.5001 105.566,-74.5001"/>
</g>
<!-- Node3 -->
<g id="node3" class="node"><title>Node3</title>
<g id="a_node3"><a xlink:href="../../d1/d48/classserver_1_1main_app.html#a92448c1219ad89999c983b04adaa4236" target="_top" xlink:title="Triggered when a user joins trough a JOIN message.">
<polygon fill="white" stroke="black" points="276.5,-125.5 276.5,-144.5 415.5,-144.5 415.5,-125.5 276.5,-125.5"/>
<text text-anchor="middle" x="346" y="-132.5" font-family="Helvetica,sans-Serif" font-size="10.00">server::mainApp::userOnline</text>
</a>
</g>
</g>
<!-- Node2&#45;&gt;Node3 -->
<g id="edge2" class="edge"><title>Node2&#45;&gt;Node3</title>
<path fill="none" stroke="midnightblue" d="M219.561,-97.5875C233.341,-104.066 249.138,-110.911 264,-116 274.522,-119.603 286.043,-122.757 297.009,-125.407"/>
<polygon fill="midnightblue" stroke="midnightblue" points="220.911,-94.3531 210.38,-93.187 217.885,-100.665 220.911,-94.3531"/>
</g>
<!-- Node6 -->
<g id="node6" class="node"><title>Node6</title>
<g id="a_node6"><a xlink:href="../../d1/d48/classserver_1_1main_app.html#aae86b15c001a235de78a90334e697b5f" target="_top" xlink:title="Triggered when a user leaves trough a PART message.">
<polygon fill="white" stroke="black" points="277,-87.5 277,-106.5 415,-106.5 415,-87.5 277,-87.5"/>
<text text-anchor="middle" x="346" y="-94.5" font-family="Helvetica,sans-Serif" font-size="10.00">server::mainApp::userOffline</text>
</a>
</g>
</g>
<!-- Node2&#45;&gt;Node6 -->
<g id="edge5" class="edge"><title>Node2&#45;&gt;Node6</title>
<path fill="none" stroke="midnightblue" d="M237.512,-84.5471C250.2,-86.0171 263.792,-87.5918 276.896,-89.1099"/>
<polygon fill="midnightblue" stroke="midnightblue" points="237.894,-81.068 227.557,-83.3938 237.088,-88.0215 237.894,-81.068"/>
</g>
<!-- Node7 -->
<g id="node7" class="node"><title>Node7</title>
<g id="a_node7"><a xlink:href="../../d1/d48/classserver_1_1main_app.html#ae15deb9260c486854af7fac7b063fdf5" target="_top" xlink:title="Triggered when a user changes his nickname (nick|Status)">
<polygon fill="white" stroke="black" points="264,-49.5 264,-68.5 428,-68.5 428,-49.5 264,-49.5"/>
<text text-anchor="middle" x="346" y="-56.5" font-family="Helvetica,sans-Serif" font-size="10.00">server::mainApp::userChangeNick</text>
</a>
</g>
</g>
<!-- Node2&#45;&gt;Node7 -->
<g id="edge7" class="edge"><title>Node2&#45;&gt;Node7</title>
<path fill="none" stroke="midnightblue" d="M237.666,-71.4351C246.139,-70.4535 255.011,-69.4255 263.871,-68.3991"/>
<polygon fill="midnightblue" stroke="midnightblue" points="237.088,-67.9785 227.557,-72.6062 237.894,-74.932 237.088,-67.9785"/>
</g>
<!-- Node8 -->
<g id="node8" class="node"><title>Node8</title>
<g id="a_node8"><a xlink:href="../../d1/d48/classserver_1_1main_app.html#aaa3dd74b510e2d797f21293a622a4f7d" target="_top" xlink:title="Triggered when a user changes his status (nick|Status)">
<polygon fill="white" stroke="black" points="274,-0 274,-30 418,-30 418,-0 274,-0"/>
<text text-anchor="start" x="282" y="-18" font-family="Helvetica,sans-Serif" font-size="10.00">server::mainApp::userChange</text>
<text text-anchor="middle" x="346" y="-7" font-family="Helvetica,sans-Serif" font-size="10.00">Status</text>
</a>
</g>
</g>
<!-- Node2&#45;&gt;Node8 -->
<g id="edge9" class="edge"><title>Node2&#45;&gt;Node8</title>
<path fill="none" stroke="midnightblue" d="M220.449,-58.6698C234.083,-52.3304 249.562,-45.5063 264,-40 273.213,-36.4863 283.152,-33.0993 292.806,-30.0135"/>
<polygon fill="midnightblue" stroke="midnightblue" points="218.897,-55.5321 211.341,-62.959 221.879,-61.865 218.897,-55.5321"/>
</g>
<!-- Node4 -->
<g id="node4" class="node"><title>Node4</title>
<g id="a_node4"><a xlink:href="../../d1/d48/classserver_1_1main_app.html#af331bc3bf60e745f3ddc95ab3abe5188" target="_top" xlink:title="server::mainApp::run">
<polygon fill="white" stroke="black" points="464,-68.5 464,-87.5 570,-87.5 570,-68.5 464,-68.5"/>
<text text-anchor="middle" x="517" y="-75.5" font-family="Helvetica,sans-Serif" font-size="10.00">server::mainApp::run</text>
</a>
</g>
</g>
<!-- Node3&#45;&gt;Node4 -->
<g id="edge3" class="edge"><title>Node3&#45;&gt;Node4</title>
<path fill="none" stroke="midnightblue" d="M403.933,-122.993C412.075,-120.887 420.297,-118.544 428,-116 452.177,-108.015 478.888,-96.0008 496.468,-87.6263"/>
<polygon fill="midnightblue" stroke="midnightblue" points="402.94,-119.634 394.081,-125.444 404.63,-126.427 402.94,-119.634"/>
</g>
<!-- Node5 -->
<g id="node5" class="node"><title>Node5</title>
<g id="a_node5"><a xlink:href="../../dc/d17/custom_irc_server_2main_8cpp.html#a0ddf1224851353fc92bfbff6f499fa97" target="_top" xlink:title="main">
<polygon fill="white" stroke="black" points="606,-68.5 606,-87.5 644,-87.5 644,-68.5 606,-68.5"/>
<text text-anchor="middle" x="625" y="-75.5" font-family="Helvetica,sans-Serif" font-size="10.00">main</text>
</a>
</g>
</g>
<!-- Node4&#45;&gt;Node5 -->
<g id="edge4" class="edge"><title>Node4&#45;&gt;Node5</title>
<path fill="none" stroke="midnightblue" d="M580.208,-78C589.464,-78 598.334,-78 605.64,-78"/>
<polygon fill="midnightblue" stroke="midnightblue" points="580.068,-74.5001 570.068,-78 580.068,-81.5001 580.068,-74.5001"/>
</g>
<!-- Node6&#45;&gt;Node4 -->
<g id="edge6" class="edge"><title>Node6&#45;&gt;Node4</title>
<path fill="none" stroke="midnightblue" d="M425.214,-88.2067C438.321,-86.7331 451.631,-85.2367 463.873,-83.8604"/>
<polygon fill="midnightblue" stroke="midnightblue" points="424.798,-84.7313 415.252,-89.3267 425.58,-91.6875 424.798,-84.7313"/>
</g>
<!-- Node7&#45;&gt;Node4 -->
<g id="edge8" class="edge"><title>Node7&#45;&gt;Node4</title>
<path fill="none" stroke="midnightblue" d="M438.043,-69.2355C446.889,-70.2301 455.638,-71.2138 463.901,-72.1427"/>
<polygon fill="midnightblue" stroke="midnightblue" points="438.363,-65.7497 428.035,-68.1104 437.581,-72.7058 438.363,-65.7497"/>
</g>
<!-- Node8&#45;&gt;Node4 -->
<g id="edge10" class="edge"><title>Node8&#45;&gt;Node4</title>
<path fill="none" stroke="midnightblue" d="M408.409,-33.1825C415.055,-35.3792 421.692,-37.6723 428,-40 451.575,-48.699 477.955,-60.3567 495.629,-68.4562"/>
<polygon fill="midnightblue" stroke="midnightblue" points="409.292,-29.7897 398.701,-30.0401 407.137,-36.4496 409.292,-29.7897"/>
</g>
</g>
</svg>
