<?xml version="1.0" encoding="UTF-8" standalone="no"?>
<!DOCTYPE svg PUBLIC "-//W3C//DTD SVG 1.1//EN"
 "http://www.w3.org/Graphics/SVG/1.1/DTD/svg11.dtd">
<!-- Generated by graphviz version 2.30.1 (20130303.0817)
 -->
<!-- Title: server::ircUserList::add Pages: 1 -->
<svg width="516pt" height="47pt"
 viewBox="0.00 0.00 516.00 47.00" xmlns="http://www.w3.org/2000/svg" xmlns:xlink="http://www.w3.org/1999/xlink">
<g id="graph0" class="graph" transform="scale(1 1) rotate(0) translate(4 43)">
<title>server::ircUserList::add</title>
<polygon fill="white" stroke="white" points="-4,5 -4,-43 513,-43 513,5 -4,5"/>
<!-- Node1 -->
<g id="node1" class="node"><title>Node1</title>
<polygon fill="#bfbfbf" stroke="black" points="0,-19.5 0,-38.5 116,-38.5 116,-19.5 0,-19.5"/>
<text text-anchor="middle" x="58" y="-26.5" font-family="Helvetica,sans-Serif" font-size="10.00">server::ircUserList::add</text>
</g>
<!-- Node2 -->
<g id="node2" class="node"><title>Node2</title>
<g id="a_node2"><a xlink:href="../../d1/d48/classserver_1_1main_app.html#af331bc3bf60e745f3ddc95ab3abe5188" target="_top" xlink:title="server::mainApp::run">
<polygon fill="white" stroke="black" points="328,-19.5 328,-38.5 434,-38.5 434,-19.5 328,-19.5"/>
<text text-anchor="middle" x="381" y="-26.5" font-family="Helvetica,sans-Serif" font-size="10.00">server::mainApp::run</text>
</a>
</g>
</g>
<!-- Node1&#45;&gt;Node2 -->
<g id="edge1" class="edge"><title>Node1&#45;&gt;Node2</title>
<path fill="none" stroke="midnightblue" d="M126.152,-29C186.146,-29 272.812,-29 327.762,-29"/>
<polygon fill="midnightblue" stroke="midnightblue" points="126.019,-25.5001 116.018,-29 126.018,-32.5001 126.019,-25.5001"/>
</g>
<!-- Node4 -->
<g id="node4" class="node"><title>Node4</title>
<g id="a_node4"><a xlink:href="../../d1/d48/classserver_1_1main_app.html#a92448c1219ad89999c983b04adaa4236" target="_top" xlink:title="Triggered when a user joins trough a JOIN message.">
<polygon fill="white" stroke="black" points="152.5,-0.5 152.5,-19.5 291.5,-19.5 291.5,-0.5 152.5,-0.5"/>
<text text-anchor="middle" x="222" y="-7.5" font-family="Helvetica,sans-Serif" font-size="10.00">server::mainApp::userOnline</text>
</a>
</g>
</g>
<!-- Node1&#45;&gt;Node4 -->
<g id="edge3" class="edge"><title>Node1&#45;&gt;Node4</title>
<path fill="none" stroke="midnightblue" d="M126.18,-21.1208C134.861,-20.1028 143.759,-19.0591 152.462,-18.0385"/>
<polygon fill="midnightblue" stroke="midnightblue" points="125.639,-17.6602 116.115,-22.3013 126.455,-24.6125 125.639,-17.6602"/>
</g>
<!-- Node3 -->
<g id="node3" class="node"><title>Node3</title>
<g id="a_node3"><a xlink:href="../../dc/d17/custom_irc_server_2main_8cpp.html#a0ddf1224851353fc92bfbff6f499fa97" target="_top" xlink:title="main">
<polygon fill="white" stroke="black" points="470,-19.5 470,-38.5 508,-38.5 508,-19.5 470,-19.5"/>
<text text-anchor="middle" x="489" y="-26.5" font-family="Helvetica,sans-Serif" font-size="10.00">main</text>
</a>
</g>
</g>
<!-- Node2&#45;&gt;Node3 -->
<g id="edge2" class="edge"><title>Node2&#45;&gt;Node3</title>
<path fill="none" stroke="midnightblue" d="M444.208,-29C453.464,-29 462.334,-29 469.64,-29"/>
<polygon fill="midnightblue" stroke="midnightblue" points="444.068,-25.5001 434.068,-29 444.068,-32.5001 444.068,-25.5001"/>
</g>
<!-- Node4&#45;&gt;Node2 -->
<g id="edge4" class="edge"><title>Node4&#45;&gt;Node2</title>
<path fill="none" stroke="midnightblue" d="M302.059,-19.5677C310.763,-20.621 319.458,-21.6733 327.716,-22.6727"/>
<polygon fill="midnightblue" stroke="midnightblue" points="302.211,-16.0605 291.862,-18.3337 301.37,-23.0098 302.211,-16.0605"/>
</g>
</g>
</svg>
