<?xml version="1.0" encoding="UTF-8" standalone="no"?>
<!DOCTYPE svg PUBLIC "-//W3C//DTD SVG 1.1//EN"
 "http://www.w3.org/Graphics/SVG/1.1/DTD/svg11.dtd">
<!-- Generated by graphviz version 2.30.1 (20130303.0817)
 -->
<!-- Title: server::ircUserList::add Pages: 1 -->
<svg width="282pt" height="104pt"
 viewBox="0.00 0.00 282.00 104.00" xmlns="http://www.w3.org/2000/svg" xmlns:xlink="http://www.w3.org/1999/xlink">
<g id="graph0" class="graph" transform="scale(1 1) rotate(0) translate(4 100)">
<title>server::ircUserList::add</title>
<polygon fill="white" stroke="white" points="-4,5 -4,-100 279,-100 279,5 -4,5"/>
<!-- Node1 -->
<g id="node1" class="node"><title>Node1</title>
<polygon fill="#bfbfbf" stroke="black" points="0,-38.5 0,-57.5 116,-57.5 116,-38.5 0,-38.5"/>
<text text-anchor="middle" x="58" y="-45.5" font-family="Helvetica,sans-Serif" font-size="10.00">server::ircUserList::add</text>
</g>
<!-- Node2 -->
<g id="node2" class="node"><title>Node2</title>
<g id="a_node2"><a xlink:href="../../d2/d29/classserver_1_1irc_user.html#ae4669a1a72c600a7a238bc39cbd853ca" target="_top" xlink:title="server::ircUser::setColor">
<polygon fill="white" stroke="black" points="152.5,-76.5 152.5,-95.5 273.5,-95.5 273.5,-76.5 152.5,-76.5"/>
<text text-anchor="middle" x="213" y="-83.5" font-family="Helvetica,sans-Serif" font-size="10.00">server::ircUser::setColor</text>
</a>
</g>
</g>
<!-- Node1&#45;&gt;Node2 -->
<g id="edge1" class="edge"><title>Node1&#45;&gt;Node2</title>
<path fill="none" stroke="midnightblue" d="M97.6084,-57.589C117.707,-62.5809 142.475,-68.7324 163.819,-74.0334"/>
<polygon fill="midnightblue" stroke="midnightblue" points="163.12,-77.4662 173.669,-76.4799 164.808,-70.6726 163.12,-77.4662"/>
</g>
<!-- Node3 -->
<g id="node3" class="node"><title>Node3</title>
<g id="a_node3"><a xlink:href="../../d9/db1/namespaceserver.html#a2a6ca6577f352c7d095faf91c8e8dd5a" target="_top" xlink:title="server::getColor">
<polygon fill="white" stroke="black" points="171,-38.5 171,-57.5 255,-57.5 255,-38.5 171,-38.5"/>
<text text-anchor="middle" x="213" y="-45.5" font-family="Helvetica,sans-Serif" font-size="10.00">server::getColor</text>
</a>
</g>
</g>
<!-- Node1&#45;&gt;Node3 -->
<g id="edge2" class="edge"><title>Node1&#45;&gt;Node3</title>
<path fill="none" stroke="midnightblue" d="M116.407,-48C131.009,-48 146.602,-48 160.868,-48"/>
<polygon fill="midnightblue" stroke="midnightblue" points="160.988,-51.5001 170.988,-48 160.988,-44.5001 160.988,-51.5001"/>
</g>
<!-- Node4 -->
<g id="node4" class="node"><title>Node4</title>
<g id="a_node4"><a xlink:href="../../d2/d29/classserver_1_1irc_user.html#ad855efa6ab1fe94c35c992ac5cfd164d" target="_top" xlink:title="server::ircUser::setId">
<polygon fill="white" stroke="black" points="160,-0.5 160,-19.5 266,-19.5 266,-0.5 160,-0.5"/>
<text text-anchor="middle" x="213" y="-7.5" font-family="Helvetica,sans-Serif" font-size="10.00">server::ircUser::setId</text>
</a>
</g>
</g>
<!-- Node1&#45;&gt;Node4 -->
<g id="edge3" class="edge"><title>Node1&#45;&gt;Node4</title>
<path fill="none" stroke="midnightblue" d="M97.6084,-38.411C117.707,-33.4191 142.475,-27.2676 163.819,-21.9666"/>
<polygon fill="midnightblue" stroke="midnightblue" points="164.808,-25.3274 173.669,-19.5201 163.12,-18.5338 164.808,-25.3274"/>
</g>
</g>
</svg>
