<?xml version="1.0" encoding="UTF-8" standalone="no"?>
<!DOCTYPE svg PUBLIC "-//W3C//DTD SVG 1.1//EN"
 "http://www.w3.org/Graphics/SVG/1.1/DTD/svg11.dtd">
<!-- Generated by graphviz version 2.30.1 (20130303.0817)
 -->
<!-- Title: server::ircUserList::getUser Pages: 1 -->
<svg width="264pt" height="126pt"
 viewBox="0.00 0.00 264.00 126.00" xmlns="http://www.w3.org/2000/svg" xmlns:xlink="http://www.w3.org/1999/xlink">
<g id="graph0" class="graph" transform="scale(1 1) rotate(0) translate(4 122)">
<title>server::ircUserList::getUser</title>
<polygon fill="white" stroke="white" points="-4,5 -4,-122 261,-122 261,5 -4,5"/>
<!-- Node1 -->
<g id="node1" class="node"><title>Node1</title>
<polygon fill="#bfbfbf" stroke="black" points="0.5,-44 0.5,-74 95.5,-74 95.5,-44 0.5,-44"/>
<text text-anchor="start" x="8.5" y="-62" font-family="Helvetica,sans-Serif" font-size="10.00">server::ircUserList</text>
<text text-anchor="middle" x="48" y="-51" font-family="Helvetica,sans-Serif" font-size="10.00">::getUser</text>
</g>
<!-- Node2 -->
<g id="node2" class="node"><title>Node2</title>
<g id="a_node2"><a xlink:href="../../d4/d08/classserver_1_1irc_user_list.html#a105ff952c0e653bdc765adc58d3e702b" target="_top" xlink:title="Gets a user by his IRC&#45;ID.">
<polygon fill="white" stroke="black" points="146.5,-88 146.5,-118 241.5,-118 241.5,-88 146.5,-88"/>
<text text-anchor="start" x="154.5" y="-106" font-family="Helvetica,sans-Serif" font-size="10.00">server::ircUserList</text>
<text text-anchor="middle" x="194" y="-95" font-family="Helvetica,sans-Serif" font-size="10.00">::getUserByIrcId</text>
</a>
</g>
</g>
<!-- Node1&#45;&gt;Node2 -->
<g id="edge1" class="edge"><title>Node1&#45;&gt;Node2</title>
<path fill="none" stroke="midnightblue" d="M95.7527,-73.2855C108.837,-77.2836 123.195,-81.6708 136.768,-85.8179"/>
<polygon fill="midnightblue" stroke="midnightblue" points="135.896,-89.2111 146.482,-88.7861 137.941,-82.5166 135.896,-89.2111"/>
</g>
<!-- Node3 -->
<g id="node3" class="node"><title>Node3</title>
<g id="a_node3"><a xlink:href="../../d2/d29/classserver_1_1irc_user.html#a9b5683eaeb89557d6e1b1e57708aeb35" target="_top" xlink:title="server::ircUser::getName">
<polygon fill="white" stroke="black" points="132,-49.5 132,-68.5 256,-68.5 256,-49.5 132,-49.5"/>
<text text-anchor="middle" x="194" y="-56.5" font-family="Helvetica,sans-Serif" font-size="10.00">server::ircUser::getName</text>
</a>
</g>
</g>
<!-- Node1&#45;&gt;Node3 -->
<g id="edge2" class="edge"><title>Node1&#45;&gt;Node3</title>
<path fill="none" stroke="midnightblue" d="M95.7527,-59C104.016,-59 112.788,-59 121.549,-59"/>
<polygon fill="midnightblue" stroke="midnightblue" points="121.797,-62.5001 131.797,-59 121.797,-55.5001 121.797,-62.5001"/>
</g>
<!-- Node4 -->
<g id="node4" class="node"><title>Node4</title>
<g id="a_node4"><a xlink:href="../../d4/d08/classserver_1_1irc_user_list.html#a7f99e64e1cabde876fa6a827c6614a4e" target="_top" xlink:title="Finds a user based on his nick and status.">
<polygon fill="white" stroke="black" points="146.5,-0 146.5,-30 241.5,-30 241.5,-0 146.5,-0"/>
<text text-anchor="start" x="154.5" y="-18" font-family="Helvetica,sans-Serif" font-size="10.00">server::ircUserList</text>
<text text-anchor="middle" x="194" y="-7" font-family="Helvetica,sans-Serif" font-size="10.00">::getUserByNick</text>
</a>
</g>
</g>
<!-- Node1&#45;&gt;Node4 -->
<g id="edge3" class="edge"><title>Node1&#45;&gt;Node4</title>
<path fill="none" stroke="midnightblue" d="M95.7527,-44.7145C108.837,-40.7164 123.195,-36.3292 136.768,-32.1821"/>
<polygon fill="midnightblue" stroke="midnightblue" points="137.941,-35.4834 146.482,-29.2139 135.896,-28.7889 137.941,-35.4834"/>
</g>
</g>
</svg>
