<?xml version="1.0" encoding="UTF-8" standalone="no"?>
<!DOCTYPE svg PUBLIC "-//W3C//DTD SVG 1.1//EN"
 "http://www.w3.org/Graphics/SVG/1.1/DTD/svg11.dtd">
<!-- Generated by graphviz version 2.30.1 (20130303.0817)
 -->
<!-- Title: server::ircUserList::getUserByNick Pages: 1 -->
<!--zoomable 179 -->
<svg id="main" version="1.1" xmlns="http://www.w3.org/2000/svg" xmlns:xlink="http://www.w3.org/1999/xlink" xml:space="preserve" onload="init(evt)">
        <defs>
                <circle id="rim" cx="0" cy="0" r="7"/>
                <circle id="rim2" cx="0" cy="0" r="3.5"/>
                <g id="zoomPlus">
                        <use xlink:href="#rim" fill="#404040">
                                <set attributeName="fill" to="#808080" begin="zoomplus.mouseover" end="zoomplus.mouseout"/>
                        </use>
                        <path d="M-4,0h8M0,-4v8" fill="none" stroke="white" stroke-width="1.5" pointer-events="none"/>
                </g>
                <g id="zoomMin">
                        <use xlink:href="#rim" fill="#404040">
                                <set attributeName="fill" to="#808080" begin="zoomminus.mouseover" end="zoomminus.mouseout"/>
                        </use>
                        <path d="M-4,0h8" fill="none" stroke="white" stroke-width="1.5" pointer-events="none"/>
                </g>
                <g id="dirArrow">
                        <path fill="none" stroke="white" stroke-width="1.5" d="M0,-3.0v7 M-2.5,-0.5L0,-3.0L2.5,-0.5"/>
                </g>
               <g id="resetDef">
                       <use xlink:href="#rim2" fill="#404040">
                               <set attributeName="fill" to="#808080" begin="reset.mouseover" end="reset.mouseout"/>
                       </use>
               </g>
        </defs>

<script type="text/javascript">
var viewWidth = 706;
var viewHeight = 179;
var sectionId = 'dynsection-8';
</script>
<script xlink:href="../../svgpan.js"/>
<svg id="graph" class="graph">
<g id="viewport">
<title>server::ircUserList::getUserByNick</title>
<polygon fill="white" stroke="white" points="-4,5 -4,-175.116 703,-175.116 703,5 -4,5"/>
<!-- Node1 -->
<g id="node1" class="node"><title>Node1</title>
<polygon fill="#bfbfbf" stroke="black" points="0.5,-37.1163 0.5,-67.1163 95.5,-67.1163 95.5,-37.1163 0.5,-37.1163"/>
<text text-anchor="start" x="8.5" y="-55.1163" font-family="Helvetica,sans-Serif" font-size="10.00">server::ircUserList</text>
<text text-anchor="middle" x="48" y="-44.1163" font-family="Helvetica,sans-Serif" font-size="10.00">::getUserByNick</text>
</g>
<!-- Node2 -->
<g id="node2" class="node"><title>Node2</title>
<g id="a_node2"><a xlink:href="../../d4/d08/classserver_1_1irc_user_list.html#af2d5bdaf2ccd658679c933390500f0e2" target="_top" xlink:title="Finds a user based on IRC&#45;ID or nick.">
<polygon fill="white" stroke="black" points="159.5,-70.1163 159.5,-100.116 254.5,-100.116 254.5,-70.1163 159.5,-70.1163"/>
<text text-anchor="start" x="167.5" y="-88.1163" font-family="Helvetica,sans-Serif" font-size="10.00">server::ircUserList</text>
<text text-anchor="middle" x="207" y="-77.1163" font-family="Helvetica,sans-Serif" font-size="10.00">::getUser</text>
</a>
</g>
</g>
<!-- Node1&#45;&gt;Node2 -->
<g id="edge1" class="edge"><title>Node1&#45;&gt;Node2</title>
<path fill="none" stroke="midnightblue" d="M105.843,-64.0642C123.465,-67.7682 142.667,-71.8042 159.5,-75.3423"/>
<polygon fill="midnightblue" stroke="midnightblue" points="106.186,-60.5599 95.6801,-61.928 104.746,-67.4102 106.186,-60.5599"/>
</g>
<!-- Node9 -->
<g id="node9" class="node"><title>Node9</title>
<g id="a_node9"><a xlink:href="../../d1/d48/classserver_1_1main_app.html#a0970ee01d48b04ebc1390ffb8edecfc0" target="_top" xlink:title="Triggered when a chat has been received.">
<polygon fill="white" stroke="black" points="132,-9.61626 132,-28.6163 282,-28.6163 282,-9.61626 132,-9.61626"/>
<text text-anchor="middle" x="207" y="-16.6163" font-family="Helvetica,sans-Serif" font-size="10.00">server::mainApp::chatReceived</text>
</a>
</g>
</g>
<!-- Node1&#45;&gt;Node9 -->
<g id="edge11" class="edge"><title>Node1&#45;&gt;Node9</title>
<path fill="none" stroke="midnightblue" d="M105.527,-40.2349C123.613,-36.4333 143.391,-32.2761 160.58,-28.6631"/>
<polygon fill="midnightblue" stroke="midnightblue" points="104.746,-36.8223 95.6801,-42.3045 106.186,-43.6726 104.746,-36.8223"/>
</g>
<!-- Node3 -->
<g id="node3" class="node"><title>Node3</title>
<g id="a_node3"><a xlink:href="../../d1/d48/classserver_1_1main_app.html#a92448c1219ad89999c983b04adaa4236" target="_top" xlink:title="Triggered when a user joins trough a JOIN message.">
<polygon fill="white" stroke="black" points="330.5,-151.616 330.5,-170.616 469.5,-170.616 469.5,-151.616 330.5,-151.616"/>
<text text-anchor="middle" x="400" y="-158.616" font-family="Helvetica,sans-Serif" font-size="10.00">server::mainApp::userOnline</text>
</a>
</g>
</g>
<!-- Node2&#45;&gt;Node3 -->
<g id="edge2" class="edge"><title>Node2&#45;&gt;Node3</title>
<path fill="none" stroke="midnightblue" d="M241.905,-105.476C263.158,-117.525 291.465,-132.302 318,-142.116 328.025,-145.824 339.022,-148.976 349.592,-151.583"/>
<polygon fill="midnightblue" stroke="midnightblue" points="243.375,-102.284 232.962,-100.331 239.884,-108.352 243.375,-102.284"/>
</g>
<!-- Node6 -->
<g id="node6" class="node"><title>Node6</title>
<g id="a_node6"><a xlink:href="../../d1/d48/classserver_1_1main_app.html#aae86b15c001a235de78a90334e697b5f" target="_top" xlink:title="Triggered when a user leaves trough a PART message.">
<polygon fill="white" stroke="black" points="331,-113.616 331,-132.616 469,-132.616 469,-113.616 331,-113.616"/>
<text text-anchor="middle" x="400" y="-120.616" font-family="Helvetica,sans-Serif" font-size="10.00">server::mainApp::userOffline</text>
</a>
</g>
</g>
<!-- Node2&#45;&gt;Node6 -->
<g id="edge5" class="edge"><title>Node2&#45;&gt;Node6</title>
<path fill="none" stroke="midnightblue" d="M264.605,-96.378C292.123,-101.853 324.836,-108.361 351.098,-113.586"/>
<polygon fill="midnightblue" stroke="midnightblue" points="265.215,-92.9307 254.724,-94.4121 263.849,-99.7962 265.215,-92.9307"/>
</g>
<!-- Node7 -->
<g id="node7" class="node"><title>Node7</title>
<g id="a_node7"><a xlink:href="../../d1/d48/classserver_1_1main_app.html#ae15deb9260c486854af7fac7b063fdf5" target="_top" xlink:title="Triggered when a user changes his nickname (nick|Status)">
<polygon fill="white" stroke="black" points="318,-75.6163 318,-94.6163 482,-94.6163 482,-75.6163 318,-75.6163"/>
<text text-anchor="middle" x="400" y="-82.6163" font-family="Helvetica,sans-Serif" font-size="10.00">server::mainApp::userChangeNick</text>
</a>
</g>
</g>
<!-- Node2&#45;&gt;Node7 -->
<g id="edge7" class="edge"><title>Node2&#45;&gt;Node7</title>
<path fill="none" stroke="midnightblue" d="M264.808,-85.1163C281.43,-85.1163 299.934,-85.1163 317.761,-85.1163"/>
<polygon fill="midnightblue" stroke="midnightblue" points="264.724,-81.6164 254.724,-85.1163 264.724,-88.6164 264.724,-81.6164"/>
</g>
<!-- Node8 -->
<g id="node8" class="node"><title>Node8</title>
<g id="a_node8"><a xlink:href="../../d1/d48/classserver_1_1main_app.html#aaa3dd74b510e2d797f21293a622a4f7d" target="_top" xlink:title="Triggered when a user changes his status (nick|Status)">
<polygon fill="white" stroke="black" points="328,-26.1163 328,-56.1163 472,-56.1163 472,-26.1163 328,-26.1163"/>
<text text-anchor="start" x="336" y="-44.1163" font-family="Helvetica,sans-Serif" font-size="10.00">server::mainApp::userChange</text>
<text text-anchor="middle" x="400" y="-33.1163" font-family="Helvetica,sans-Serif" font-size="10.00">Status</text>
</a>
</g>
</g>
<!-- Node2&#45;&gt;Node8 -->
<g id="edge9" class="edge"><title>Node2&#45;&gt;Node8</title>
<path fill="none" stroke="midnightblue" d="M264.749,-72.0433C286.403,-67.0548 311.258,-61.329 333.65,-56.1708"/>
<polygon fill="midnightblue" stroke="midnightblue" points="263.683,-68.697 254.724,-74.3526 265.254,-75.5184 263.683,-68.697"/>
</g>
<!-- Node4 -->
<g id="node4" class="node"><title>Node4</title>
<g id="a_node4"><a xlink:href="../../d1/d48/classserver_1_1main_app.html#af331bc3bf60e745f3ddc95ab3abe5188" target="_top" xlink:title="server::mainApp::run">
<polygon fill="white" stroke="black" points="518,-75.6163 518,-94.6163 624,-94.6163 624,-75.6163 518,-75.6163"/>
<text text-anchor="middle" x="571" y="-82.6163" font-family="Helvetica,sans-Serif" font-size="10.00">server::mainApp::run</text>
</a>
</g>
</g>
<!-- Node3&#45;&gt;Node4 -->
<g id="edge3" class="edge"><title>Node3&#45;&gt;Node4</title>
<path fill="none" stroke="midnightblue" d="M463.627,-148.726C469.931,-146.799 476.157,-144.605 482,-142.116 511.475,-129.564 542.016,-107.33 558.225,-94.6591"/>
<polygon fill="midnightblue" stroke="midnightblue" points="462.367,-145.445 453.7,-151.539 464.275,-152.18 462.367,-145.445"/>
</g>
<!-- Node5 -->
<g id="node5" class="node"><title>Node5</title>
<g id="a_node5"><a xlink:href="../../dc/d17/custom_irc_server_2main_8cpp.html#a0ddf1224851353fc92bfbff6f499fa97" target="_top" xlink:title="main">
<polygon fill="white" stroke="black" points="660,-75.6163 660,-94.6163 698,-94.6163 698,-75.6163 660,-75.6163"/>
<text text-anchor="middle" x="679" y="-82.6163" font-family="Helvetica,sans-Serif" font-size="10.00">main</text>
</a>
</g>
</g>
<!-- Node4&#45;&gt;Node5 -->
<g id="edge4" class="edge"><title>Node4&#45;&gt;Node5</title>
<path fill="none" stroke="midnightblue" d="M634.208,-85.1163C643.464,-85.1163 652.334,-85.1163 659.64,-85.1163"/>
<polygon fill="midnightblue" stroke="midnightblue" points="634.068,-81.6164 624.068,-85.1163 634.068,-88.6164 634.068,-81.6164"/>
</g>
<!-- Node6&#45;&gt;Node4 -->
<g id="edge6" class="edge"><title>Node6&#45;&gt;Node4</title>
<path fill="none" stroke="midnightblue" d="M453.587,-111.292C477.413,-105.935 505.207,-99.6851 527.661,-94.6363"/>
<polygon fill="midnightblue" stroke="midnightblue" points="452.634,-107.919 443.646,-113.527 454.17,-114.748 452.634,-107.919"/>
</g>
<!-- Node7&#45;&gt;Node4 -->
<g id="edge8" class="edge"><title>Node7&#45;&gt;Node4</title>
<path fill="none" stroke="midnightblue" d="M492.043,-85.1163C500.889,-85.1163 509.638,-85.1163 517.901,-85.1163"/>
<polygon fill="midnightblue" stroke="midnightblue" points="492.035,-81.6164 482.035,-85.1163 492.035,-88.6164 492.035,-81.6164"/>
</g>
<!-- Node8&#45;&gt;Node4 -->
<g id="edge10" class="edge"><title>Node8&#45;&gt;Node4</title>
<path fill="none" stroke="midnightblue" d="M468.415,-58.6681C490.616,-64.4483 514.46,-70.656 533.464,-75.6038"/>
<polygon fill="midnightblue" stroke="midnightblue" points="469.247,-55.268 458.688,-56.1355 467.483,-62.0422 469.247,-55.268"/>
</g>
<!-- Node9&#45;&gt;Node4 -->
<g id="edge12" class="edge"><title>Node9&#45;&gt;Node4</title>
<path fill="none" stroke="midnightblue" d="M265.268,-7.96418C321.948,0.620561 410.374,7.33298 482,-17.1163 516.169,-28.7798 547.375,-59.6874 561.714,-75.5012"/>
<polygon fill="midnightblue" stroke="midnightblue" points="264.394,-4.55899 255.065,-9.58184 265.49,-11.4726 264.394,-4.55899"/>
</g>
</g>
</svg>
        <g id="navigator" transform="translate(0 0)" fill="#404254">
                <rect fill="#f2f5e9" fill-opacity="0.5" stroke="#606060" stroke-width=".5" x="0" y="0" width="60" height="60"/>
                <use id="zoomplus" xlink:href="#zoomPlus" x="17" y="9" onmousedown="handleZoom(evt,'in')"/>
                <use id="zoomminus" xlink:href="#zoomMin" x="42" y="9" onmousedown="handleZoom(evt,'out')"/>
                <use id="reset" xlink:href="#resetDef" x="30" y="36" onmousedown="handleReset()"/>
                <g id="arrowUp" xlink:href="#dirArrow" transform="translate(30 24)" onmousedown="handlePan(0,-1)">
                  <use xlink:href="#rim" fill="#404040">
                        <set attributeName="fill" to="#808080" begin="arrowUp.mouseover" end="arrowUp.mouseout"/>
                  </use>
                  <path fill="none" stroke="white" stroke-width="1.5" d="M0,-3.0v7 M-2.5,-0.5L0,-3.0L2.5,-0.5"/>
                </g>
                <g id="arrowRight" xlink:href="#dirArrow" transform="rotate(90) translate(36 -43)" onmousedown="handlePan(1,0)">
                  <use xlink:href="#rim" fill="#404040">
                        <set attributeName="fill" to="#808080" begin="arrowRight.mouseover" end="arrowRight.mouseout"/>
                  </use>
                  <path fill="none" stroke="white" stroke-width="1.5" d="M0,-3.0v7 M-2.5,-0.5L0,-3.0L2.5,-0.5"/>
                </g>
                <g id="arrowDown" xlink:href="#dirArrow" transform="rotate(180) translate(-30 -48)" onmousedown="handlePan(0,1)">
                  <use xlink:href="#rim" fill="#404040">
                        <set attributeName="fill" to="#808080" begin="arrowDown.mouseover" end="arrowDown.mouseout"/>
                  </use>
                  <path fill="none" stroke="white" stroke-width="1.5" d="M0,-3.0v7 M-2.5,-0.5L0,-3.0L2.5,-0.5"/>
                </g>
                <g id="arrowLeft" xlink:href="#dirArrow" transform="rotate(270) translate(-36 17)" onmousedown="handlePan(-1,0)">
                  <use xlink:href="#rim" fill="#404040">
                        <set attributeName="fill" to="#808080" begin="arrowLeft.mouseover" end="arrowLeft.mouseout"/>
                  </use>
                  <path fill="none" stroke="white" stroke-width="1.5" d="M0,-3.0v7 M-2.5,-0.5L0,-3.0L2.5,-0.5"/>
                </g>
        </g>
        <svg viewBox="0 0 15 15" width="100%" height="30px" preserveAspectRatio="xMaxYMin meet">
         <g id="arrow_out" transform="scale(0.3 0.3)">
          <a xlink:href="classserver_1_1irc_user_list_a7f99e64e1cabde876fa6a827c6614a4e_icgraph_org.svg" target="_base">
           <rect id="button" ry="5" rx="5" y="6" x="6" height="38" width="38"
                fill="#f2f5e9" fill-opacity="0.5" stroke="#606060" stroke-width="1.0"/>
           <path id="arrow"
             d="M 11.500037,31.436501 C 11.940474,20.09759 22.043105,11.32322 32.158766,21.979434 L 37.068811,17.246167 C 37.068811,17.246167 37.088388,32 37.088388,32 L 22.160133,31.978069 C 22.160133,31.978069 26.997745,27.140456 26.997745,27.140456 C 18.528582,18.264221 13.291696,25.230495 11.500037,31.436501 z"
             style="fill:#404040;"/>
          </a>
         </g>
        </svg>
</svg>
