<?xml version="1.0" encoding="UTF-8" standalone="no"?>
<!DOCTYPE svg PUBLIC "-//W3C//DTD SVG 1.1//EN"
 "http://www.w3.org/Graphics/SVG/1.1/DTD/svg11.dtd">
<!-- Generated by graphviz version 2.30.1 (20130303.0817)
 -->
<!-- Title: server::ircUserList::getUser Pages: 1 -->
<svg width="520pt" height="153pt"
 viewBox="0.00 0.00 520.00 153.00" xmlns="http://www.w3.org/2000/svg" xmlns:xlink="http://www.w3.org/1999/xlink">
<g id="graph0" class="graph" transform="scale(1 1) rotate(0) translate(4 149)">
<title>server::ircUserList::getUser</title>
<polygon fill="white" stroke="white" points="-4,5 -4,-149 517,-149 517,5 -4,5"/>
<!-- Node1 -->
<g id="node1" class="node"><title>Node1</title>
<polygon fill="#bfbfbf" stroke="black" points="0.5,-63 0.5,-93 95.5,-93 95.5,-63 0.5,-63"/>
<text text-anchor="start" x="8.5" y="-81" font-family="Helvetica,sans-Serif" font-size="10.00">server::ircUserList</text>
<text text-anchor="middle" x="48" y="-70" font-family="Helvetica,sans-Serif" font-size="10.00">::getUser</text>
</g>
<!-- Node2 -->
<g id="node2" class="node"><title>Node2</title>
<g id="a_node2"><a xlink:href="../../d1/d48/classserver_1_1main_app.html#a92448c1219ad89999c983b04adaa4236" target="_top" xlink:title="Triggered when a user joins trough a JOIN message.">
<polygon fill="white" stroke="black" points="144.5,-125.5 144.5,-144.5 283.5,-144.5 283.5,-125.5 144.5,-125.5"/>
<text text-anchor="middle" x="214" y="-132.5" font-family="Helvetica,sans-Serif" font-size="10.00">server::mainApp::userOnline</text>
</a>
</g>
</g>
<!-- Node1&#45;&gt;Node2 -->
<g id="edge1" class="edge"><title>Node1&#45;&gt;Node2</title>
<path fill="none" stroke="midnightblue" d="M87.5613,-97.5875C101.341,-104.066 117.138,-110.911 132,-116 142.522,-119.603 154.043,-122.757 165.009,-125.407"/>
<polygon fill="midnightblue" stroke="midnightblue" points="88.9108,-94.3531 78.3803,-93.187 85.8852,-100.665 88.9108,-94.3531"/>
</g>
<!-- Node5 -->
<g id="node5" class="node"><title>Node5</title>
<g id="a_node5"><a xlink:href="../../d1/d48/classserver_1_1main_app.html#aae86b15c001a235de78a90334e697b5f" target="_top" xlink:title="Triggered when a user leaves trough a PART message.">
<polygon fill="white" stroke="black" points="145,-87.5 145,-106.5 283,-106.5 283,-87.5 145,-87.5"/>
<text text-anchor="middle" x="214" y="-94.5" font-family="Helvetica,sans-Serif" font-size="10.00">server::mainApp::userOffline</text>
</a>
</g>
</g>
<!-- Node1&#45;&gt;Node5 -->
<g id="edge4" class="edge"><title>Node1&#45;&gt;Node5</title>
<path fill="none" stroke="midnightblue" d="M105.512,-84.5471C118.2,-86.0171 131.792,-87.5918 144.896,-89.1099"/>
<polygon fill="midnightblue" stroke="midnightblue" points="105.894,-81.068 95.5571,-83.3938 105.088,-88.0215 105.894,-81.068"/>
</g>
<!-- Node6 -->
<g id="node6" class="node"><title>Node6</title>
<g id="a_node6"><a xlink:href="../../d1/d48/classserver_1_1main_app.html#ae15deb9260c486854af7fac7b063fdf5" target="_top" xlink:title="Triggered when a user changes his nickname (nick|Status)">
<polygon fill="white" stroke="black" points="132,-49.5 132,-68.5 296,-68.5 296,-49.5 132,-49.5"/>
<text text-anchor="middle" x="214" y="-56.5" font-family="Helvetica,sans-Serif" font-size="10.00">server::mainApp::userChangeNick</text>
</a>
</g>
</g>
<!-- Node1&#45;&gt;Node6 -->
<g id="edge6" class="edge"><title>Node1&#45;&gt;Node6</title>
<path fill="none" stroke="midnightblue" d="M105.666,-71.4351C114.139,-70.4535 123.011,-69.4255 131.871,-68.3991"/>
<polygon fill="midnightblue" stroke="midnightblue" points="105.088,-67.9785 95.5571,-72.6062 105.894,-74.932 105.088,-67.9785"/>
</g>
<!-- Node7 -->
<g id="node7" class="node"><title>Node7</title>
<g id="a_node7"><a xlink:href="../../d1/d48/classserver_1_1main_app.html#aaa3dd74b510e2d797f21293a622a4f7d" target="_top" xlink:title="Triggered when a user changes his status (nick|Status)">
<polygon fill="white" stroke="black" points="142,-0 142,-30 286,-30 286,-0 142,-0"/>
<text text-anchor="start" x="150" y="-18" font-family="Helvetica,sans-Serif" font-size="10.00">server::mainApp::userChange</text>
<text text-anchor="middle" x="214" y="-7" font-family="Helvetica,sans-Serif" font-size="10.00">Status</text>
</a>
</g>
</g>
<!-- Node1&#45;&gt;Node7 -->
<g id="edge8" class="edge"><title>Node1&#45;&gt;Node7</title>
<path fill="none" stroke="midnightblue" d="M88.449,-58.6698C102.083,-52.3304 117.562,-45.5063 132,-40 141.213,-36.4863 151.152,-33.0993 160.806,-30.0135"/>
<polygon fill="midnightblue" stroke="midnightblue" points="86.8966,-55.5321 79.3406,-62.959 89.8789,-61.865 86.8966,-55.5321"/>
</g>
<!-- Node3 -->
<g id="node3" class="node"><title>Node3</title>
<g id="a_node3"><a xlink:href="../../d1/d48/classserver_1_1main_app.html#af331bc3bf60e745f3ddc95ab3abe5188" target="_top" xlink:title="server::mainApp::run">
<polygon fill="white" stroke="black" points="332,-68.5 332,-87.5 438,-87.5 438,-68.5 332,-68.5"/>
<text text-anchor="middle" x="385" y="-75.5" font-family="Helvetica,sans-Serif" font-size="10.00">server::mainApp::run</text>
</a>
</g>
</g>
<!-- Node2&#45;&gt;Node3 -->
<g id="edge2" class="edge"><title>Node2&#45;&gt;Node3</title>
<path fill="none" stroke="midnightblue" d="M271.933,-122.993C280.075,-120.887 288.297,-118.544 296,-116 320.177,-108.015 346.888,-96.0008 364.468,-87.6263"/>
<polygon fill="midnightblue" stroke="midnightblue" points="270.94,-119.634 262.081,-125.444 272.63,-126.427 270.94,-119.634"/>
</g>
<!-- Node4 -->
<g id="node4" class="node"><title>Node4</title>
<g id="a_node4"><a xlink:href="../../dc/d17/custom_irc_server_2main_8cpp.html#a0ddf1224851353fc92bfbff6f499fa97" target="_top" xlink:title="main">
<polygon fill="white" stroke="black" points="474,-68.5 474,-87.5 512,-87.5 512,-68.5 474,-68.5"/>
<text text-anchor="middle" x="493" y="-75.5" font-family="Helvetica,sans-Serif" font-size="10.00">main</text>
</a>
</g>
</g>
<!-- Node3&#45;&gt;Node4 -->
<g id="edge3" class="edge"><title>Node3&#45;&gt;Node4</title>
<path fill="none" stroke="midnightblue" d="M448.208,-78C457.464,-78 466.334,-78 473.64,-78"/>
<polygon fill="midnightblue" stroke="midnightblue" points="448.068,-74.5001 438.068,-78 448.068,-81.5001 448.068,-74.5001"/>
</g>
<!-- Node5&#45;&gt;Node3 -->
<g id="edge5" class="edge"><title>Node5&#45;&gt;Node3</title>
<path fill="none" stroke="midnightblue" d="M293.214,-88.2067C306.321,-86.7331 319.631,-85.2367 331.873,-83.8604"/>
<polygon fill="midnightblue" stroke="midnightblue" points="292.798,-84.7313 283.252,-89.3267 293.58,-91.6875 292.798,-84.7313"/>
</g>
<!-- Node6&#45;&gt;Node3 -->
<g id="edge7" class="edge"><title>Node6&#45;&gt;Node3</title>
<path fill="none" stroke="midnightblue" d="M306.043,-69.2355C314.889,-70.2301 323.638,-71.2138 331.901,-72.1427"/>
<polygon fill="midnightblue" stroke="midnightblue" points="306.363,-65.7497 296.035,-68.1104 305.581,-72.7058 306.363,-65.7497"/>
</g>
<!-- Node7&#45;&gt;Node3 -->
<g id="edge9" class="edge"><title>Node7&#45;&gt;Node3</title>
<path fill="none" stroke="midnightblue" d="M276.409,-33.1825C283.055,-35.3792 289.692,-37.6723 296,-40 319.575,-48.699 345.955,-60.3567 363.629,-68.4562"/>
<polygon fill="midnightblue" stroke="midnightblue" points="277.292,-29.7897 266.701,-30.0401 275.137,-36.4496 277.292,-29.7897"/>
</g>
</g>
</svg>
