<?xml version="1.0" encoding="UTF-8" standalone="no"?>
<!DOCTYPE svg PUBLIC "-//W3C//DTD SVG 1.1//EN"
 "http://www.w3.org/Graphics/SVG/1.1/DTD/svg11.dtd">
<!-- Generated by graphviz version 2.30.1 (20130303.0817)
 -->
<!-- Title: C++/customIrcClient/mainwindow.h Pages: 1 -->
<svg width="236pt" height="108pt"
 viewBox="0.00 0.00 236.00 108.00" xmlns="http://www.w3.org/2000/svg" xmlns:xlink="http://www.w3.org/1999/xlink">
<g id="graph0" class="graph" transform="scale(1 1) rotate(0) translate(4 104)">
<title>C++/customIrcClient/mainwindow.h</title>
<polygon fill="white" stroke="white" points="-4,5 -4,-104 233,-104 233,5 -4,5"/>
<!-- Node1 -->
<g id="node1" class="node"><title>Node1</title>
<polygon fill="#bfbfbf" stroke="black" points="61,-69 61,-99 167,-99 167,-69 61,-69"/>
<text text-anchor="start" x="69" y="-87" font-family="Helvetica,sans-Serif" font-size="10.00">C++/customIrcClient</text>
<text text-anchor="middle" x="114" y="-76" font-family="Helvetica,sans-Serif" font-size="10.00">/mainwindow.h</text>
</g>
<!-- Node2 -->
<g id="node2" class="node"><title>Node2</title>
<g id="a_node2"><a xlink:href="../../df/d94/custom_irc_client_2main_8cpp.xhtml" target="_top" xlink:title="C++/customIrcClient\l/main.cpp">
<polygon fill="white" stroke="black" points="-1,-1 -1,-31 105,-31 105,-1 -1,-1"/>
<text text-anchor="start" x="7" y="-19" font-family="Helvetica,sans-Serif" font-size="10.00">C++/customIrcClient</text>
<text text-anchor="middle" x="52" y="-8" font-family="Helvetica,sans-Serif" font-size="10.00">/main.cpp</text>
</a>
</g>
</g>
<!-- Node1&#45;&gt;Node2 -->
<g id="edge1" class="edge"><title>Node1&#45;&gt;Node2</title>
<path fill="none" stroke="midnightblue" d="M93.5154,-61.1939C84.278,-51.3605 73.6274,-40.0228 65.4268,-31.2931"/>
<polygon fill="midnightblue" stroke="midnightblue" points="91.1492,-63.7869 100.547,-68.679 96.2511,-58.9941 91.1492,-63.7869"/>
</g>
<!-- Node3 -->
<g id="node3" class="node"><title>Node3</title>
<g id="a_node3"><a xlink:href="../../d8/dd9/mainwindow_8cpp.xhtml" target="_top" xlink:title="C++/customIrcClient\l/mainwindow.cpp">
<polygon fill="white" stroke="black" points="123,-1 123,-31 229,-31 229,-1 123,-1"/>
<text text-anchor="start" x="131" y="-19" font-family="Helvetica,sans-Serif" font-size="10.00">C++/customIrcClient</text>
<text text-anchor="middle" x="176" y="-8" font-family="Helvetica,sans-Serif" font-size="10.00">/mainwindow.cpp</text>
</a>
</g>
</g>
<!-- Node1&#45;&gt;Node3 -->
<g id="edge2" class="edge"><title>Node1&#45;&gt;Node3</title>
<path fill="none" stroke="midnightblue" d="M134.485,-61.1939C143.722,-51.3605 154.373,-40.0228 162.573,-31.2931"/>
<polygon fill="midnightblue" stroke="midnightblue" points="131.749,-58.9941 127.453,-68.679 136.851,-63.7869 131.749,-58.9941"/>
</g>
</g>
</svg>
