<?xml version="1.0" encoding="UTF-8" standalone="no"?>
<!DOCTYPE svg PUBLIC "-//W3C//DTD SVG 1.1//EN"
 "http://www.w3.org/Graphics/SVG/1.1/DTD/svg11.dtd">
<!-- Generated by graphviz version 2.30.1 (20130303.0817)
 -->
<!-- Title: server::mainApp Pages: 1 -->
<svg width="118pt" height="370pt"
 viewBox="0.00 0.00 118.00 370.00" xmlns="http://www.w3.org/2000/svg" xmlns:xlink="http://www.w3.org/1999/xlink">
<g id="graph0" class="graph" transform="scale(1 1) rotate(0) translate(4 366)">
<title>server::mainApp</title>
<polygon fill="white" stroke="white" points="-4,5 -4,-366 115,-366 115,5 -4,5"/>
<!-- Node1 -->
<g id="node1" class="node"><title>Node1</title>
<polygon fill="#bfbfbf" stroke="black" points="-1,-1 -1,-267 111,-267 111,-1 -1,-1"/>
<text text-anchor="middle" x="55" y="-255" font-family="Helvetica,sans-Serif" font-size="10.00">server::mainApp</text>
<polyline fill="none" stroke="black" points="-1,-248 111,-248 "/>
<text text-anchor="start" x="7" y="-236" font-family="Helvetica,sans-Serif" font-size="10.00">&#45; irc</text>
<text text-anchor="start" x="7" y="-225" font-family="Helvetica,sans-Serif" font-size="10.00">&#45; users</text>
<text text-anchor="start" x="7" y="-214" font-family="Helvetica,sans-Serif" font-size="10.00">&#45; log</text>
<text text-anchor="start" x="7" y="-203" font-family="Helvetica,sans-Serif" font-size="10.00">&#45; ui</text>
<text text-anchor="start" x="7" y="-192" font-family="Helvetica,sans-Serif" font-size="10.00">&#45; ownUser</text>
<text text-anchor="start" x="7" y="-181" font-family="Helvetica,sans-Serif" font-size="10.00">&#45; events</text>
<text text-anchor="start" x="7" y="-170" font-family="Helvetica,sans-Serif" font-size="10.00">&#45; settings</text>
<text text-anchor="start" x="7" y="-159" font-family="Helvetica,sans-Serif" font-size="10.00">&#45; reconnectTimer</text>
<text text-anchor="start" x="7" y="-148" font-family="Helvetica,sans-Serif" font-size="10.00">&#45; TAG</text>
<polyline fill="none" stroke="black" points="-1,-141 111,-141 "/>
<text text-anchor="start" x="7" y="-129" font-family="Helvetica,sans-Serif" font-size="10.00">+ mainApp()</text>
<text text-anchor="start" x="7" y="-118" font-family="Helvetica,sans-Serif" font-size="10.00">+ run()</text>
<text text-anchor="start" x="7" y="-107" font-family="Helvetica,sans-Serif" font-size="10.00">+ serverMessage()</text>
<text text-anchor="start" x="7" y="-96" font-family="Helvetica,sans-Serif" font-size="10.00">+ chatReceived()</text>
<text text-anchor="start" x="7" y="-85" font-family="Helvetica,sans-Serif" font-size="10.00">+ userOnline()</text>
<text text-anchor="start" x="7" y="-74" font-family="Helvetica,sans-Serif" font-size="10.00">+ userOffline()</text>
<text text-anchor="start" x="7" y="-63" font-family="Helvetica,sans-Serif" font-size="10.00">+ userChangeNick()</text>
<text text-anchor="start" x="7" y="-52" font-family="Helvetica,sans-Serif" font-size="10.00">+ userChangeStatus()</text>
<text text-anchor="start" x="7" y="-41" font-family="Helvetica,sans-Serif" font-size="10.00">+ uiSendChat()</text>
<text text-anchor="start" x="7" y="-30" font-family="Helvetica,sans-Serif" font-size="10.00">+ doUserQuery()</text>
<text text-anchor="start" x="7" y="-19" font-family="Helvetica,sans-Serif" font-size="10.00">and 6 more...</text>
<text text-anchor="start" x="7" y="-8" font-family="Helvetica,sans-Serif" font-size="10.00">&#45; addToEventHistory()</text>
</g>
<!-- Node2 -->
<g id="node2" class="node"><title>Node2</title>
<polygon fill="white" stroke="#bfbfbf" points="28.5,-304.5 28.5,-361.5 81.5,-361.5 81.5,-304.5 28.5,-304.5"/>
<text text-anchor="middle" x="55" y="-349.5" font-family="Helvetica,sans-Serif" font-size="10.00">QObject</text>
<polyline fill="none" stroke="#bfbfbf" points="28.5,-342.5 81.5,-342.5 "/>
<text text-anchor="middle" x="55" y="-330.5" font-family="Helvetica,sans-Serif" font-size="10.00"> </text>
<polyline fill="none" stroke="#bfbfbf" points="28.5,-323.5 81.5,-323.5 "/>
<text text-anchor="middle" x="55" y="-311.5" font-family="Helvetica,sans-Serif" font-size="10.00"> </text>
</g>
<!-- Node2&#45;&gt;Node1 -->
<g id="edge1" class="edge"><title>Node2&#45;&gt;Node1</title>
<path fill="none" stroke="midnightblue" d="M55,-294C55,-285.821 55,-276.734 55,-267.165"/>
<polygon fill="none" stroke="midnightblue" points="51.5001,-294.193 55,-304.193 58.5001,-294.193 51.5001,-294.193"/>
</g>
</g>
</svg>
