<?xml version="1.0" encoding="UTF-8" standalone="no"?>
<!DOCTYPE svg PUBLIC "-//W3C//DTD SVG 1.1//EN"
 "http://www.w3.org/Graphics/SVG/1.1/DTD/svg11.dtd">
<!-- Generated by graphviz version 2.30.1 (20130303.0817)
 -->
<!-- Title: server::mainApp Pages: 1 -->
<svg width="138pt" height="358pt"
 viewBox="0.00 0.00 138.00 358.00" xmlns="http://www.w3.org/2000/svg" xmlns:xlink="http://www.w3.org/1999/xlink">
<g id="graph0" class="graph" transform="scale(1 1) rotate(0) translate(4 354)">
<title>server::mainApp</title>
<polygon fill="white" stroke="white" points="-4,5 -4,-354 135,-354 135,5 -4,5"/>
<!-- Node1 -->
<g id="node1" class="node"><title>Node1</title>
<polygon fill="#bfbfbf" stroke="black" points="-0.5,-0.5 -0.5,-255.5 130.5,-255.5 130.5,-0.5 -0.5,-0.5"/>
<text text-anchor="middle" x="65" y="-243.5" font-family="Helvetica,sans-Serif" font-size="10.00">server::mainApp</text>
<polyline fill="none" stroke="black" points="-0.5,-236.5 130.5,-236.5 "/>
<text text-anchor="start" x="7.5" y="-224.5" font-family="Helvetica,sans-Serif" font-size="10.00">&#45; irc</text>
<text text-anchor="start" x="7.5" y="-213.5" font-family="Helvetica,sans-Serif" font-size="10.00">&#45; users</text>
<text text-anchor="start" x="7.5" y="-202.5" font-family="Helvetica,sans-Serif" font-size="10.00">&#45; log</text>
<text text-anchor="start" x="7.5" y="-191.5" font-family="Helvetica,sans-Serif" font-size="10.00">&#45; ui</text>
<text text-anchor="start" x="7.5" y="-180.5" font-family="Helvetica,sans-Serif" font-size="10.00">&#45; ownUser</text>
<text text-anchor="start" x="7.5" y="-169.5" font-family="Helvetica,sans-Serif" font-size="10.00">&#45; events</text>
<text text-anchor="start" x="7.5" y="-158.5" font-family="Helvetica,sans-Serif" font-size="10.00">&#45; settings</text>
<text text-anchor="start" x="7.5" y="-147.5" font-family="Helvetica,sans-Serif" font-size="10.00">&#45; TAG</text>
<polyline fill="none" stroke="black" points="-0.5,-140.5 130.5,-140.5 "/>
<text text-anchor="start" x="7.5" y="-128.5" font-family="Helvetica,sans-Serif" font-size="10.00">+ mainApp()</text>
<text text-anchor="start" x="7.5" y="-117.5" font-family="Helvetica,sans-Serif" font-size="10.00">+ run()</text>
<text text-anchor="start" x="7.5" y="-106.5" font-family="Helvetica,sans-Serif" font-size="10.00">+ chatReceived()</text>
<text text-anchor="start" x="7.5" y="-95.5" font-family="Helvetica,sans-Serif" font-size="10.00">+ userOnline()</text>
<text text-anchor="start" x="7.5" y="-84.5" font-family="Helvetica,sans-Serif" font-size="10.00">+ userOffline()</text>
<text text-anchor="start" x="7.5" y="-73.5" font-family="Helvetica,sans-Serif" font-size="10.00">+ userChangeNick()</text>
<text text-anchor="start" x="7.5" y="-62.5" font-family="Helvetica,sans-Serif" font-size="10.00">+ userChangeStatus()</text>
<text text-anchor="start" x="7.5" y="-51.5" font-family="Helvetica,sans-Serif" font-size="10.00">+ uiSendChat()</text>
<text text-anchor="start" x="7.5" y="-40.5" font-family="Helvetica,sans-Serif" font-size="10.00">+ doUserQuery()</text>
<text text-anchor="start" x="7.5" y="-29.5" font-family="Helvetica,sans-Serif" font-size="10.00">+ doSendEvents()</text>
<text text-anchor="start" x="7.5" y="-18.5" font-family="Helvetica,sans-Serif" font-size="10.00">+ ownUserChangeStatus()</text>
<text text-anchor="start" x="7.5" y="-7.5" font-family="Helvetica,sans-Serif" font-size="10.00">&#45; addToEventHistory()</text>
</g>
<!-- Node2 -->
<g id="node2" class="node"><title>Node2</title>
<polygon fill="white" stroke="#bfbfbf" points="38.5,-292.5 38.5,-349.5 91.5,-349.5 91.5,-292.5 38.5,-292.5"/>
<text text-anchor="middle" x="65" y="-337.5" font-family="Helvetica,sans-Serif" font-size="10.00">QObject</text>
<polyline fill="none" stroke="#bfbfbf" points="38.5,-330.5 91.5,-330.5 "/>
<text text-anchor="middle" x="65" y="-318.5" font-family="Helvetica,sans-Serif" font-size="10.00"> </text>
<polyline fill="none" stroke="#bfbfbf" points="38.5,-311.5 91.5,-311.5 "/>
<text text-anchor="middle" x="65" y="-299.5" font-family="Helvetica,sans-Serif" font-size="10.00"> </text>
</g>
<!-- Node2&#45;&gt;Node1 -->
<g id="edge1" class="edge"><title>Node2&#45;&gt;Node1</title>
<path fill="none" stroke="midnightblue" d="M65,-282.196C65,-274.157 65,-265.246 65,-255.881"/>
<polygon fill="none" stroke="midnightblue" points="61.5001,-282.227 65,-292.227 68.5001,-282.227 61.5001,-282.227"/>
</g>
</g>
</svg>
