<?xml version="1.0" encoding="UTF-8" standalone="no"?>
<!DOCTYPE svg PUBLIC "-//W3C//DTD SVG 1.1//EN"
 "http://www.w3.org/Graphics/SVG/1.1/DTD/svg11.dtd">
<!-- Generated by graphviz version 2.30.1 (20130303.0817)
 -->
<!-- Title: C++/customIrcServer/functions.h Pages: 1 -->
<svg width="482pt" height="312pt"
 viewBox="0.00 0.00 482.00 312.00" xmlns="http://www.w3.org/2000/svg" xmlns:xlink="http://www.w3.org/1999/xlink">
<g id="graph0" class="graph" transform="scale(1 1) rotate(0) translate(4 308)">
<title>C++/customIrcServer/functions.h</title>
<polygon fill="white" stroke="white" points="-4,5 -4,-308 479,-308 479,5 -4,5"/>
<!-- Node1 -->
<g id="node1" class="node"><title>Node1</title>
<polygon fill="#bfbfbf" stroke="black" points="265,-273 265,-303 373,-303 373,-273 265,-273"/>
<text text-anchor="start" x="273" y="-291" font-family="Helvetica,sans-Serif" font-size="10.00">C++/customIrcServer</text>
<text text-anchor="middle" x="319" y="-280" font-family="Helvetica,sans-Serif" font-size="10.00">/functions.h</text>
</g>
<!-- Node2 -->
<g id="node2" class="node"><title>Node2</title>
<g id="a_node2"><a xlink:href="../../d6/d32/custom_irc_server_2ircuser_8h.xhtml" target="_top" xlink:title="C++/customIrcServer\l/ircuser.h">
<polygon fill="white" stroke="black" points="164,-205 164,-235 272,-235 272,-205 164,-205"/>
<text text-anchor="start" x="172" y="-223" font-family="Helvetica,sans-Serif" font-size="10.00">C++/customIrcServer</text>
<text text-anchor="middle" x="218" y="-212" font-family="Helvetica,sans-Serif" font-size="10.00">/ircuser.h</text>
</a>
</g>
</g>
<!-- Node1&#45;&gt;Node2 -->
<g id="edge1" class="edge"><title>Node1&#45;&gt;Node2</title>
<path fill="none" stroke="midnightblue" d="M288.664,-267.176C272.831,-256.83 253.833,-244.416 239.526,-235.066"/>
<polygon fill="midnightblue" stroke="midnightblue" points="286.799,-270.139 297.085,-272.679 290.628,-264.279 286.799,-270.139"/>
</g>
<!-- Node11 -->
<g id="node11" class="node"><title>Node11</title>
<g id="a_node11"><a xlink:href="../../d3/d36/functions_8cpp.xhtml" target="_top" xlink:title="C++/customIrcServer\l/functions.cpp">
<polygon fill="white" stroke="black" points="366,-205 366,-235 474,-235 474,-205 366,-205"/>
<text text-anchor="start" x="374" y="-223" font-family="Helvetica,sans-Serif" font-size="10.00">C++/customIrcServer</text>
<text text-anchor="middle" x="420" y="-212" font-family="Helvetica,sans-Serif" font-size="10.00">/functions.cpp</text>
</a>
</g>
</g>
<!-- Node1&#45;&gt;Node11 -->
<g id="edge12" class="edge"><title>Node1&#45;&gt;Node11</title>
<path fill="none" stroke="midnightblue" d="M349.336,-267.176C365.169,-256.83 384.167,-244.416 398.474,-235.066"/>
<polygon fill="midnightblue" stroke="midnightblue" points="347.372,-264.279 340.915,-272.679 351.201,-270.139 347.372,-264.279"/>
</g>
<!-- Node8 -->
<g id="node8" class="node"><title>Node8</title>
<g id="a_node8"><a xlink:href="../../d4/df9/ircclient_8h.xhtml" target="_top" xlink:title="C++/customIrcServer\l/ircclient.h">
<polygon fill="white" stroke="black" points="328,-137 328,-167 436,-167 436,-137 328,-137"/>
<text text-anchor="start" x="336" y="-155" font-family="Helvetica,sans-Serif" font-size="10.00">C++/customIrcServer</text>
<text text-anchor="middle" x="382" y="-144" font-family="Helvetica,sans-Serif" font-size="10.00">/ircclient.h</text>
</a>
</g>
</g>
<!-- Node1&#45;&gt;Node8 -->
<g id="edge13" class="edge"><title>Node1&#45;&gt;Node8</title>
<path fill="none" stroke="midnightblue" d="M329.625,-263.355C337.155,-246.706 347.558,-223.925 357,-204 362.912,-191.525 369.835,-177.442 374.894,-167.24"/>
<polygon fill="midnightblue" stroke="midnightblue" points="326.264,-262.294 325.342,-272.849 332.645,-265.173 326.264,-262.294"/>
</g>
<!-- Node5 -->
<g id="node5" class="node"><title>Node5</title>
<g id="a_node5"><a xlink:href="../../db/df6/mainapp_8h.xhtml" target="_top" xlink:title="C++/customIrcServer\l/mainapp.h">
<polygon fill="white" stroke="black" points="227,-69 227,-99 335,-99 335,-69 227,-69"/>
<text text-anchor="start" x="235" y="-87" font-family="Helvetica,sans-Serif" font-size="10.00">C++/customIrcServer</text>
<text text-anchor="middle" x="281" y="-76" font-family="Helvetica,sans-Serif" font-size="10.00">/mainapp.h</text>
</a>
</g>
</g>
<!-- Node1&#45;&gt;Node5 -->
<g id="edge14" class="edge"><title>Node1&#45;&gt;Node5</title>
<path fill="none" stroke="midnightblue" d="M314.438,-262.75C306.43,-220.18 290.084,-133.291 283.669,-99.1886"/>
<polygon fill="midnightblue" stroke="midnightblue" points="311.039,-263.615 316.328,-272.796 317.919,-262.321 311.039,-263.615"/>
</g>
<!-- Node3 -->
<g id="node3" class="node"><title>Node3</title>
<g id="a_node3"><a xlink:href="../../d6/d0d/custom_irc_server_2clssettings_8h.xhtml" target="_top" xlink:title="C++/customIrcServer\l/clssettings.h">
<polygon fill="white" stroke="black" points="126,-137 126,-167 234,-167 234,-137 126,-137"/>
<text text-anchor="start" x="134" y="-155" font-family="Helvetica,sans-Serif" font-size="10.00">C++/customIrcServer</text>
<text text-anchor="middle" x="180" y="-144" font-family="Helvetica,sans-Serif" font-size="10.00">/clssettings.h</text>
</a>
</g>
</g>
<!-- Node2&#45;&gt;Node3 -->
<g id="edge2" class="edge"><title>Node2&#45;&gt;Node3</title>
<path fill="none" stroke="midnightblue" d="M204.598,-195.723C199.141,-186.244 193.007,-175.591 188.229,-167.293"/>
<polygon fill="midnightblue" stroke="midnightblue" points="201.732,-197.759 209.755,-204.679 207.798,-194.266 201.732,-197.759"/>
</g>
<!-- Node2&#45;&gt;Node8 -->
<g id="edge7" class="edge"><title>Node2&#45;&gt;Node8</title>
<path fill="none" stroke="midnightblue" d="M262.651,-201.031C289.247,-190.328 322.509,-176.942 347.158,-167.022"/>
<polygon fill="midnightblue" stroke="midnightblue" points="261.152,-197.861 253.182,-204.841 263.766,-204.355 261.152,-197.861"/>
</g>
<!-- Node10 -->
<g id="node10" class="node"><title>Node10</title>
<g id="a_node10"><a xlink:href="../../d4/d8b/custom_irc_server_2ircuser_8cpp.xhtml" target="_top" xlink:title="C++/customIrcServer\l/ircuser.cpp">
<polygon fill="white" stroke="black" points="0,-137 0,-167 108,-167 108,-137 0,-137"/>
<text text-anchor="start" x="8" y="-155" font-family="Helvetica,sans-Serif" font-size="10.00">C++/customIrcServer</text>
<text text-anchor="middle" x="54" y="-144" font-family="Helvetica,sans-Serif" font-size="10.00">/ircuser.cpp</text>
</a>
</g>
</g>
<!-- Node2&#45;&gt;Node10 -->
<g id="edge10" class="edge"><title>Node2&#45;&gt;Node10</title>
<path fill="none" stroke="midnightblue" d="M173.349,-201.031C146.753,-190.328 113.491,-176.942 88.8421,-167.022"/>
<polygon fill="midnightblue" stroke="midnightblue" points="172.234,-204.355 182.818,-204.841 174.848,-197.861 172.234,-204.355"/>
</g>
<!-- Node2&#45;&gt;Node5 -->
<g id="edge11" class="edge"><title>Node2&#45;&gt;Node5</title>
<path fill="none" stroke="midnightblue" d="M229.615,-195.633C233.876,-186.977 238.705,-177.064 243,-168 254.402,-143.94 267.204,-115.714 274.658,-99.1511"/>
<polygon fill="midnightblue" stroke="midnightblue" points="226.398,-194.244 225.106,-204.76 232.673,-197.345 226.398,-194.244"/>
</g>
<!-- Node4 -->
<g id="node4" class="node"><title>Node4</title>
<g id="a_node4"><a xlink:href="../../d0/d85/custom_irc_server_2clssettings_8cpp.xhtml" target="_top" xlink:title="C++/customIrcServer\l/clssettings.cpp">
<polygon fill="white" stroke="black" points="101,-69 101,-99 209,-99 209,-69 101,-69"/>
<text text-anchor="start" x="109" y="-87" font-family="Helvetica,sans-Serif" font-size="10.00">C++/customIrcServer</text>
<text text-anchor="middle" x="155" y="-76" font-family="Helvetica,sans-Serif" font-size="10.00">/clssettings.cpp</text>
</a>
</g>
</g>
<!-- Node3&#45;&gt;Node4 -->
<g id="edge3" class="edge"><title>Node3&#45;&gt;Node4</title>
<path fill="none" stroke="midnightblue" d="M170.958,-127.129C167.425,-117.801 163.492,-107.418 160.414,-99.2931"/>
<polygon fill="midnightblue" stroke="midnightblue" points="167.76,-128.567 174.575,-136.679 174.306,-126.088 167.76,-128.567"/>
</g>
<!-- Node3&#45;&gt;Node5 -->
<g id="edge4" class="edge"><title>Node3&#45;&gt;Node5</title>
<path fill="none" stroke="midnightblue" d="M210.336,-131.176C226.169,-120.83 245.167,-108.416 259.474,-99.0663"/>
<polygon fill="midnightblue" stroke="midnightblue" points="208.372,-128.279 201.915,-136.679 212.201,-134.139 208.372,-128.279"/>
</g>
<!-- Node6 -->
<g id="node6" class="node"><title>Node6</title>
<g id="a_node6"><a xlink:href="../../dc/d17/custom_irc_server_2main_8cpp.xhtml" target="_top" xlink:title="C++/customIrcServer\l/main.cpp">
<polygon fill="white" stroke="black" points="164,-1 164,-31 272,-31 272,-1 164,-1"/>
<text text-anchor="start" x="172" y="-19" font-family="Helvetica,sans-Serif" font-size="10.00">C++/customIrcServer</text>
<text text-anchor="middle" x="218" y="-8" font-family="Helvetica,sans-Serif" font-size="10.00">/main.cpp</text>
</a>
</g>
</g>
<!-- Node5&#45;&gt;Node6 -->
<g id="edge5" class="edge"><title>Node5&#45;&gt;Node6</title>
<path fill="none" stroke="midnightblue" d="M260.185,-61.1939C250.799,-51.3605 239.976,-40.0228 231.643,-31.2931"/>
<polygon fill="midnightblue" stroke="midnightblue" points="257.893,-63.8621 267.33,-68.679 262.957,-59.0287 257.893,-63.8621"/>
</g>
<!-- Node7 -->
<g id="node7" class="node"><title>Node7</title>
<g id="a_node7"><a xlink:href="../../d8/d88/mainapp_8cpp.xhtml" target="_top" xlink:title="C++/customIrcServer\l/mainapp.cpp">
<polygon fill="white" stroke="black" points="290,-1 290,-31 398,-31 398,-1 290,-1"/>
<text text-anchor="start" x="298" y="-19" font-family="Helvetica,sans-Serif" font-size="10.00">C++/customIrcServer</text>
<text text-anchor="middle" x="344" y="-8" font-family="Helvetica,sans-Serif" font-size="10.00">/mainapp.cpp</text>
</a>
</g>
</g>
<!-- Node5&#45;&gt;Node7 -->
<g id="edge6" class="edge"><title>Node5&#45;&gt;Node7</title>
<path fill="none" stroke="midnightblue" d="M301.815,-61.1939C311.201,-51.3605 322.024,-40.0228 330.357,-31.2931"/>
<polygon fill="midnightblue" stroke="midnightblue" points="299.043,-59.0287 294.67,-68.679 304.107,-63.8621 299.043,-59.0287"/>
</g>
<!-- Node9 -->
<g id="node9" class="node"><title>Node9</title>
<g id="a_node9"><a xlink:href="../../d6/d3e/ircclient_8cpp.xhtml" target="_top" xlink:title="C++/customIrcServer\l/ircclient.cpp">
<polygon fill="white" stroke="black" points="353,-69 353,-99 461,-99 461,-69 353,-69"/>
<text text-anchor="start" x="361" y="-87" font-family="Helvetica,sans-Serif" font-size="10.00">C++/customIrcServer</text>
<text text-anchor="middle" x="407" y="-76" font-family="Helvetica,sans-Serif" font-size="10.00">/ircclient.cpp</text>
</a>
</g>
</g>
<!-- Node8&#45;&gt;Node9 -->
<g id="edge8" class="edge"><title>Node8&#45;&gt;Node9</title>
<path fill="none" stroke="midnightblue" d="M391.042,-127.129C394.575,-117.801 398.508,-107.418 401.586,-99.2931"/>
<polygon fill="midnightblue" stroke="midnightblue" points="387.694,-126.088 387.425,-136.679 394.24,-128.567 387.694,-126.088"/>
</g>
<!-- Node8&#45;&gt;Node5 -->
<g id="edge9" class="edge"><title>Node8&#45;&gt;Node5</title>
<path fill="none" stroke="midnightblue" d="M351.664,-131.176C335.831,-120.83 316.833,-108.416 302.526,-99.0663"/>
<polygon fill="midnightblue" stroke="midnightblue" points="349.799,-134.139 360.085,-136.679 353.628,-128.279 349.799,-134.139"/>
</g>
</g>
</svg>
