<?xml version="1.0" encoding="UTF-8" standalone="no"?>
<!DOCTYPE svg PUBLIC "-//W3C//DTD SVG 1.1//EN"
 "http://www.w3.org/Graphics/SVG/1.1/DTD/svg11.dtd">
<!-- Generated by graphviz version 2.30.1 (20130303.0817)
 -->
<!-- Title: C++/customIrcClient/chatentry.cpp Pages: 1 -->
<svg width="897pt" height="320pt"
 viewBox="0.00 0.00 897.00 320.00" xmlns="http://www.w3.org/2000/svg" xmlns:xlink="http://www.w3.org/1999/xlink">
<g id="graph0" class="graph" transform="scale(1 1) rotate(0) translate(4 316)">
<title>C++/customIrcClient/chatentry.cpp</title>
<polygon fill="white" stroke="white" points="-4,5 -4,-316 894,-316 894,5 -4,5"/>
<!-- Node1 -->
<g id="node1" class="node"><title>Node1</title>
<polygon fill="#bfbfbf" stroke="black" points="528,-281 528,-311 634,-311 634,-281 528,-281"/>
<text text-anchor="start" x="536" y="-299" font-family="Helvetica,sans-Serif" font-size="10.00">C++/customIrcClient</text>
<text text-anchor="middle" x="581" y="-288" font-family="Helvetica,sans-Serif" font-size="10.00">/chatentry.cpp</text>
</g>
<!-- Node2 -->
<g id="node2" class="node"><title>Node2</title>
<g id="a_node2"><a xlink:href="../../d4/d48/chatentry_8h.xhtml" target="_top" xlink:title="chatentry.h">
<polygon fill="white" stroke="black" points="401.5,-168.5 401.5,-187.5 466.5,-187.5 466.5,-168.5 401.5,-168.5"/>
<text text-anchor="middle" x="434" y="-175.5" font-family="Helvetica,sans-Serif" font-size="10.00">chatentry.h</text>
</a>
</g>
</g>
<!-- Node1&#45;&gt;Node2 -->
<g id="edge1" class="edge"><title>Node1&#45;&gt;Node2</title>
<path fill="none" stroke="midnightblue" d="M554.869,-280.807C538.238,-271.285 516.596,-257.966 499,-244 480.16,-229.046 460.974,-209.17 448.379,-195.351"/>
<polygon fill="midnightblue" stroke="midnightblue" points="450.734,-192.734 441.451,-187.627 445.523,-197.408 450.734,-192.734"/>
</g>
<!-- Node20 -->
<g id="node20" class="node"><title>Node20</title>
<polygon fill="white" stroke="#bfbfbf" points="586,-224.5 586,-243.5 664,-243.5 664,-224.5 586,-224.5"/>
<text text-anchor="middle" x="625" y="-231.5" font-family="Helvetica,sans-Serif" font-size="10.00">ui_chatentry.h</text>
</g>
<!-- Node1&#45;&gt;Node20 -->
<g id="edge19" class="edge"><title>Node1&#45;&gt;Node20</title>
<path fill="none" stroke="midnightblue" d="M591.427,-280.781C597.755,-272.152 605.869,-261.088 612.534,-251.999"/>
<polygon fill="midnightblue" stroke="midnightblue" points="615.506,-253.864 618.598,-243.731 609.862,-249.725 615.506,-253.864"/>
</g>
<!-- Node21 -->
<g id="node21" class="node"><title>Node21</title>
<polygon fill="white" stroke="#bfbfbf" points="682.5,-224.5 682.5,-243.5 729.5,-243.5 729.5,-224.5 682.5,-224.5"/>
<text text-anchor="middle" x="706" y="-231.5" font-family="Helvetica,sans-Serif" font-size="10.00">math.h</text>
</g>
<!-- Node1&#45;&gt;Node21 -->
<g id="edge20" class="edge"><title>Node1&#45;&gt;Node21</title>
<path fill="none" stroke="midnightblue" d="M610.307,-280.933C631.019,-270.991 658.583,-257.76 678.807,-248.053"/>
<polygon fill="midnightblue" stroke="midnightblue" points="680.583,-251.083 688.083,-243.6 677.553,-244.772 680.583,-251.083"/>
</g>
<!-- Node22 -->
<g id="node22" class="node"><title>Node22</title>
<g id="a_node22"><a xlink:href="../../d3/d33/chatbox_8h.xhtml" target="_top" xlink:title="chatbox.h">
<polygon fill="white" stroke="black" points="508.5,-224.5 508.5,-243.5 567.5,-243.5 567.5,-224.5 508.5,-224.5"/>
<text text-anchor="middle" x="538" y="-231.5" font-family="Helvetica,sans-Serif" font-size="10.00">chatbox.h</text>
</a>
</g>
</g>
<!-- Node1&#45;&gt;Node22 -->
<g id="edge21" class="edge"><title>Node1&#45;&gt;Node22</title>
<path fill="none" stroke="midnightblue" d="M570.81,-280.781C564.626,-272.152 556.697,-261.088 550.182,-251.999"/>
<polygon fill="midnightblue" stroke="midnightblue" points="552.927,-249.82 544.257,-243.731 547.237,-253.898 552.927,-249.82"/>
</g>
<!-- Node3 -->
<g id="node3" class="node"><title>Node3</title>
<polygon fill="white" stroke="#bfbfbf" points="410,-112.5 410,-131.5 462,-131.5 462,-112.5 410,-112.5"/>
<text text-anchor="middle" x="436" y="-119.5" font-family="Helvetica,sans-Serif" font-size="10.00">QFrame</text>
</g>
<!-- Node2&#45;&gt;Node3 -->
<g id="edge2" class="edge"><title>Node2&#45;&gt;Node3</title>
<path fill="none" stroke="midnightblue" d="M434.33,-168.083C434.592,-161.006 434.968,-150.861 435.297,-141.986"/>
<polygon fill="midnightblue" stroke="midnightblue" points="438.803,-141.874 435.676,-131.751 431.808,-141.615 438.803,-141.874"/>
</g>
<!-- Node4 -->
<g id="node4" class="node"><title>Node4</title>
<polygon fill="white" stroke="#bfbfbf" points="480.5,-112.5 480.5,-131.5 527.5,-131.5 527.5,-112.5 480.5,-112.5"/>
<text text-anchor="middle" x="504" y="-119.5" font-family="Helvetica,sans-Serif" font-size="10.00">QLabel</text>
</g>
<!-- Node2&#45;&gt;Node4 -->
<g id="edge3" class="edge"><title>Node2&#45;&gt;Node4</title>
<path fill="none" stroke="midnightblue" d="M445.247,-168.324C455.797,-160.185 471.801,-147.839 484.442,-138.087"/>
<polygon fill="midnightblue" stroke="midnightblue" points="486.769,-140.713 492.549,-131.834 482.493,-135.171 486.769,-140.713"/>
</g>
<!-- Node5 -->
<g id="node5" class="node"><title>Node5</title>
<polygon fill="white" stroke="#bfbfbf" points="545.5,-112.5 545.5,-131.5 590.5,-131.5 590.5,-112.5 545.5,-112.5"/>
<text text-anchor="middle" x="568" y="-119.5" font-family="Helvetica,sans-Serif" font-size="10.00">QTime</text>
</g>
<!-- Node2&#45;&gt;Node5 -->
<g id="edge4" class="edge"><title>Node2&#45;&gt;Node5</title>
<path fill="none" stroke="midnightblue" d="M455.233,-168.444C477.384,-159.517 512.319,-145.439 537.436,-135.317"/>
<polygon fill="midnightblue" stroke="midnightblue" points="538.9,-138.501 546.867,-131.516 536.283,-132.008 538.9,-138.501"/>
</g>
<!-- Node6 -->
<g id="node6" class="node"><title>Node6</title>
<g id="a_node6"><a xlink:href="../../d5/d98/custom_irc_client_2ircuser_8h.xhtml" target="_top" xlink:title="ircuser.h">
<polygon fill="white" stroke="black" points="338,-112.5 338,-131.5 392,-131.5 392,-112.5 338,-112.5"/>
<text text-anchor="middle" x="365" y="-119.5" font-family="Helvetica,sans-Serif" font-size="10.00">ircuser.h</text>
</a>
</g>
</g>
<!-- Node2&#45;&gt;Node6 -->
<g id="edge5" class="edge"><title>Node2&#45;&gt;Node6</title>
<path fill="none" stroke="midnightblue" d="M422.914,-168.324C412.514,-160.185 396.739,-147.839 384.278,-138.087"/>
<polygon fill="midnightblue" stroke="midnightblue" points="386.32,-135.241 376.288,-131.834 382.006,-140.753 386.32,-135.241"/>
</g>
<!-- Node7 -->
<g id="node7" class="node"><title>Node7</title>
<polygon fill="white" stroke="#bfbfbf" points="723.5,-56.5 723.5,-75.5 776.5,-75.5 776.5,-56.5 723.5,-56.5"/>
<text text-anchor="middle" x="750" y="-63.5" font-family="Helvetica,sans-Serif" font-size="10.00">QObject</text>
</g>
<!-- Node6&#45;&gt;Node7 -->
<g id="edge6" class="edge"><title>Node6&#45;&gt;Node7</title>
<path fill="none" stroke="midnightblue" d="M392.045,-113.837C395.054,-113.16 398.084,-112.53 401,-112 535.543,-87.5526 574.417,-100.396 713.181,-75.9036"/>
<polygon fill="midnightblue" stroke="midnightblue" points="714.126,-79.29 723.348,-74.0745 712.886,-72.4006 714.126,-79.29"/>
</g>
<!-- Node8 -->
<g id="node8" class="node"><title>Node8</title>
<polygon fill="white" stroke="#bfbfbf" points="655,-56.5 655,-75.5 705,-75.5 705,-56.5 655,-56.5"/>
<text text-anchor="middle" x="680" y="-63.5" font-family="Helvetica,sans-Serif" font-size="10.00">QString</text>
</g>
<!-- Node6&#45;&gt;Node8 -->
<g id="edge7" class="edge"><title>Node6&#45;&gt;Node8</title>
<path fill="none" stroke="midnightblue" d="M392.062,-113.931C395.069,-113.236 398.093,-112.576 401,-112 508.525,-90.681 537.547,-97.6797 645,-76 645.1,-75.9798 645.2,-75.9596 645.3,-75.9392"/>
<polygon fill="midnightblue" stroke="midnightblue" points="645.842,-79.4045 654.838,-73.8076 644.315,-72.573 645.842,-79.4045"/>
</g>
<!-- Node9 -->
<g id="node9" class="node"><title>Node9</title>
<polygon fill="white" stroke="#bfbfbf" points="-0.5,-56.5 -0.5,-75.5 46.5,-75.5 46.5,-56.5 -0.5,-56.5"/>
<text text-anchor="middle" x="23" y="-63.5" font-family="Helvetica,sans-Serif" font-size="10.00">QColor</text>
</g>
<!-- Node6&#45;&gt;Node9 -->
<g id="edge8" class="edge"><title>Node6&#45;&gt;Node9</title>
<path fill="none" stroke="midnightblue" d="M337.941,-118.181C285.546,-112.482 166.473,-98.3688 56.6279,-75.8946"/>
<polygon fill="midnightblue" stroke="midnightblue" points="57.212,-72.4413 46.7094,-73.8368 55.7899,-79.2953 57.212,-72.4413"/>
</g>
<!-- Node10 -->
<g id="node10" class="node"><title>Node10</title>
<polygon fill="white" stroke="#bfbfbf" points="65,-56.5 65,-75.5 149,-75.5 149,-56.5 65,-56.5"/>
<text text-anchor="middle" x="107" y="-63.5" font-family="Helvetica,sans-Serif" font-size="10.00">QGraphicsView</text>
</g>
<!-- Node6&#45;&gt;Node10 -->
<g id="edge9" class="edge"><title>Node6&#45;&gt;Node10</title>
<path fill="none" stroke="midnightblue" d="M337.877,-115.323C295.216,-106.394 211.741,-88.9225 157.719,-77.6156"/>
<polygon fill="midnightblue" stroke="midnightblue" points="158.165,-74.1331 147.66,-75.5102 156.73,-80.9846 158.165,-74.1331"/>
</g>
<!-- Node11 -->
<g id="node11" class="node"><title>Node11</title>
<polygon fill="white" stroke="#bfbfbf" points="167,-56.5 167,-75.5 297,-75.5 297,-56.5 167,-56.5"/>
<text text-anchor="middle" x="232" y="-63.5" font-family="Helvetica,sans-Serif" font-size="10.00">QNetworkAccessManager</text>
</g>
<!-- Node6&#45;&gt;Node11 -->
<g id="edge10" class="edge"><title>Node6&#45;&gt;Node11</title>
<path fill="none" stroke="midnightblue" d="M343.926,-112.444C321.94,-103.517 287.266,-89.4387 262.336,-79.3168"/>
<polygon fill="midnightblue" stroke="midnightblue" points="263.558,-76.0355 252.976,-75.5164 260.924,-82.5213 263.558,-76.0355"/>
</g>
<!-- Node12 -->
<g id="node12" class="node"><title>Node12</title>
<polygon fill="white" stroke="#bfbfbf" points="315.5,-56.5 315.5,-75.5 410.5,-75.5 410.5,-56.5 315.5,-56.5"/>
<text text-anchor="middle" x="363" y="-63.5" font-family="Helvetica,sans-Serif" font-size="10.00">QNetworkRequest</text>
</g>
<!-- Node6&#45;&gt;Node12 -->
<g id="edge11" class="edge"><title>Node6&#45;&gt;Node12</title>
<path fill="none" stroke="midnightblue" d="M364.67,-112.083C364.408,-105.006 364.032,-94.8611 363.703,-85.9865"/>
<polygon fill="midnightblue" stroke="midnightblue" points="367.192,-85.6147 363.324,-75.7511 360.197,-85.8738 367.192,-85.6147"/>
</g>
<!-- Node13 -->
<g id="node13" class="node"><title>Node13</title>
<polygon fill="white" stroke="#bfbfbf" points="429,-56.5 429,-75.5 513,-75.5 513,-56.5 429,-56.5"/>
<text text-anchor="middle" x="471" y="-63.5" font-family="Helvetica,sans-Serif" font-size="10.00">QNetworkReply</text>
</g>
<!-- Node6&#45;&gt;Node13 -->
<g id="edge12" class="edge"><title>Node6&#45;&gt;Node13</title>
<path fill="none" stroke="midnightblue" d="M382.031,-112.324C399.03,-103.664 425.376,-90.2424 444.993,-80.249"/>
<polygon fill="midnightblue" stroke="midnightblue" points="446.69,-83.3125 454.012,-75.6545 443.512,-77.0752 446.69,-83.3125"/>
</g>
<!-- Node14 -->
<g id="node14" class="node"><title>Node14</title>
<g id="a_node14"><a xlink:href="../../d7/d62/clslog_8h.xhtml" target="_top" xlink:title="../resources/clslog.h">
<polygon fill="white" stroke="black" points="531.5,-56.5 531.5,-75.5 636.5,-75.5 636.5,-56.5 531.5,-56.5"/>
<text text-anchor="middle" x="584" y="-63.5" font-family="Helvetica,sans-Serif" font-size="10.00">../resources/clslog.h</text>
</a>
</g>
</g>
<!-- Node6&#45;&gt;Node14 -->
<g id="edge13" class="edge"><title>Node6&#45;&gt;Node14</title>
<path fill="none" stroke="midnightblue" d="M392.124,-114.207C395.119,-113.461 398.124,-112.713 401,-112 448.168,-100.305 502.208,-87.0317 539.266,-77.9491"/>
<polygon fill="midnightblue" stroke="midnightblue" points="540.369,-81.2826 549.248,-75.5032 538.703,-74.4837 540.369,-81.2826"/>
</g>
<!-- Node15 -->
<g id="node15" class="node"><title>Node15</title>
<polygon fill="white" stroke="#bfbfbf" points="597,-0.5 597,-19.5 649,-19.5 649,-0.5 597,-0.5"/>
<text text-anchor="middle" x="623" y="-7.5" font-family="Helvetica,sans-Serif" font-size="10.00">QDebug</text>
</g>
<!-- Node14&#45;&gt;Node15 -->
<g id="edge14" class="edge"><title>Node14&#45;&gt;Node15</title>
<path fill="none" stroke="midnightblue" d="M590.44,-56.083C595.949,-48.4554 604.031,-37.2645 610.765,-27.9408"/>
<polygon fill="midnightblue" stroke="midnightblue" points="613.662,-29.9071 616.68,-19.7511 607.987,-25.8087 613.662,-29.9071"/>
</g>
<!-- Node16 -->
<g id="node16" class="node"><title>Node16</title>
<polygon fill="white" stroke="#bfbfbf" points="730.5,-0.5 730.5,-19.5 795.5,-19.5 795.5,-0.5 730.5,-0.5"/>
<text text-anchor="middle" x="763" y="-7.5" font-family="Helvetica,sans-Serif" font-size="10.00">QDateTime</text>
</g>
<!-- Node14&#45;&gt;Node16 -->
<g id="edge15" class="edge"><title>Node14&#45;&gt;Node16</title>
<path fill="none" stroke="midnightblue" d="M612.363,-56.4435C642.738,-47.2801 691.11,-32.6876 724.816,-22.5192"/>
<polygon fill="midnightblue" stroke="midnightblue" points="726.207,-25.7555 734.77,-19.5164 724.185,-19.0538 726.207,-25.7555"/>
</g>
<!-- Node17 -->
<g id="node17" class="node"><title>Node17</title>
<polygon fill="white" stroke="#bfbfbf" points="667.5,-0.5 667.5,-19.5 708.5,-19.5 708.5,-0.5 667.5,-0.5"/>
<text text-anchor="middle" x="688" y="-7.5" font-family="Helvetica,sans-Serif" font-size="10.00">string</text>
</g>
<!-- Node14&#45;&gt;Node17 -->
<g id="edge16" class="edge"><title>Node14&#45;&gt;Node17</title>
<path fill="none" stroke="midnightblue" d="M600.709,-56.324C617.312,-47.7034 643.002,-34.3643 662.22,-24.3855"/>
<polygon fill="midnightblue" stroke="midnightblue" points="664.07,-27.3689 671.332,-19.6545 660.844,-21.1565 664.07,-27.3689"/>
</g>
<!-- Node18 -->
<g id="node18" class="node"><title>Node18</title>
<polygon fill="white" stroke="#bfbfbf" points="441,-0.5 441,-19.5 495,-19.5 495,-0.5 441,-0.5"/>
<text text-anchor="middle" x="468" y="-7.5" font-family="Helvetica,sans-Serif" font-size="10.00">iostream</text>
</g>
<!-- Node14&#45;&gt;Node18 -->
<g id="edge17" class="edge"><title>Node14&#45;&gt;Node18</title>
<path fill="none" stroke="midnightblue" d="M565.619,-56.4435C546.784,-47.6751 517.269,-33.9355 495.621,-23.8579"/>
<polygon fill="midnightblue" stroke="midnightblue" points="496.838,-20.5637 486.295,-19.5164 493.883,-26.9098 496.838,-20.5637"/>
</g>
<!-- Node19 -->
<g id="node19" class="node"><title>Node19</title>
<polygon fill="white" stroke="#bfbfbf" points="513.5,-0.5 513.5,-19.5 578.5,-19.5 578.5,-0.5 513.5,-0.5"/>
<text text-anchor="middle" x="546" y="-7.5" font-family="Helvetica,sans-Serif" font-size="10.00">QStringList</text>
</g>
<!-- Node14&#45;&gt;Node19 -->
<g id="edge18" class="edge"><title>Node14&#45;&gt;Node19</title>
<path fill="none" stroke="midnightblue" d="M577.725,-56.083C572.358,-48.4554 564.482,-37.2645 557.921,-27.9408"/>
<polygon fill="midnightblue" stroke="midnightblue" points="560.775,-25.9149 552.158,-19.7511 555.051,-29.9434 560.775,-25.9149"/>
</g>
<!-- Node23 -->
<g id="node23" class="node"><title>Node23</title>
<polygon fill="white" stroke="#bfbfbf" points="615.5,-112.5 615.5,-131.5 670.5,-131.5 670.5,-112.5 615.5,-112.5"/>
<text text-anchor="middle" x="643" y="-119.5" font-family="Helvetica,sans-Serif" font-size="10.00">QWidget</text>
</g>
<!-- Node22&#45;&gt;Node23 -->
<g id="edge22" class="edge"><title>Node22&#45;&gt;Node23</title>
<path fill="none" stroke="midnightblue" d="M567.684,-225.36C611.6,-213.918 689.151,-193.125 693,-188 706.211,-170.408 685.255,-150.37 666.567,-137.25"/>
<polygon fill="midnightblue" stroke="midnightblue" points="668.272,-134.181 658.003,-131.573 664.404,-140.015 668.272,-134.181"/>
</g>
<!-- Node24 -->
<g id="node24" class="node"><title>Node24</title>
<polygon fill="white" stroke="#bfbfbf" points="484.5,-168.5 484.5,-187.5 537.5,-187.5 537.5,-168.5 484.5,-168.5"/>
<text text-anchor="middle" x="511" y="-175.5" font-family="Helvetica,sans-Serif" font-size="10.00">QVector</text>
</g>
<!-- Node22&#45;&gt;Node24 -->
<g id="edge23" class="edge"><title>Node22&#45;&gt;Node24</title>
<path fill="none" stroke="midnightblue" d="M533.541,-224.083C529.846,-216.691 524.477,-205.953 519.906,-196.811"/>
<polygon fill="midnightblue" stroke="midnightblue" points="522.978,-195.13 515.376,-187.751 516.717,-198.261 522.978,-195.13"/>
</g>
<!-- Node22&#45;&gt;Node5 -->
<g id="edge24" class="edge"><title>Node22&#45;&gt;Node5</title>
<path fill="none" stroke="midnightblue" d="M540.354,-224.368C545.217,-206.537 556.465,-165.295 563.017,-141.272"/>
<polygon fill="midnightblue" stroke="midnightblue" points="566.402,-142.16 565.657,-131.591 559.649,-140.318 566.402,-142.16"/>
</g>
<!-- Node25 -->
<g id="node25" class="node"><title>Node25</title>
<g id="a_node25"><a xlink:href="../../db/d97/clsevent_8h.xhtml" target="_top" xlink:title="../resources/clsevent.h">
<polygon fill="white" stroke="black" points="692.5,-112.5 692.5,-131.5 807.5,-131.5 807.5,-112.5 692.5,-112.5"/>
<text text-anchor="middle" x="750" y="-119.5" font-family="Helvetica,sans-Serif" font-size="10.00">../resources/clsevent.h</text>
</a>
</g>
</g>
<!-- Node22&#45;&gt;Node25 -->
<g id="edge25" class="edge"><title>Node22&#45;&gt;Node25</title>
<path fill="none" stroke="midnightblue" d="M567.869,-225.798C615.574,-214.209 704.218,-192.283 710,-188 725.936,-176.196 736.911,-155.976 743.278,-141.216"/>
<polygon fill="midnightblue" stroke="midnightblue" points="746.648,-142.217 747.106,-131.632 740.147,-139.621 746.648,-142.217"/>
</g>
<!-- Node22&#45;&gt;Node6 -->
<g id="edge31" class="edge"><title>Node22&#45;&gt;Node6</title>
<path fill="none" stroke="midnightblue" d="M508.338,-231.178C475.98,-227.69 424.475,-217.536 392,-188 378.745,-175.945 371.817,-156.376 368.316,-141.855"/>
<polygon fill="midnightblue" stroke="midnightblue" points="371.718,-141.023 366.259,-131.943 364.864,-142.445 371.718,-141.023"/>
</g>
<!-- Node22&#45;&gt;Node2 -->
<g id="edge32" class="edge"><title>Node22&#45;&gt;Node2</title>
<path fill="none" stroke="midnightblue" d="M521.291,-224.324C504.688,-215.703 478.998,-202.364 459.78,-192.386"/>
<polygon fill="midnightblue" stroke="midnightblue" points="461.156,-189.156 450.668,-187.655 457.93,-195.369 461.156,-189.156"/>
</g>
<!-- Node27 -->
<g id="node27" class="node"><title>Node27</title>
<g id="a_node27"><a xlink:href="../../d1/d3d/chatnotification_8h.xhtml" target="_top" xlink:title="chatnotification.h">
<polygon fill="white" stroke="black" points="594,-168.5 594,-187.5 684,-187.5 684,-168.5 594,-168.5"/>
<text text-anchor="middle" x="639" y="-175.5" font-family="Helvetica,sans-Serif" font-size="10.00">chatnotification.h</text>
</a>
</g>
</g>
<!-- Node22&#45;&gt;Node27 -->
<g id="edge33" class="edge"><title>Node22&#45;&gt;Node27</title>
<path fill="none" stroke="midnightblue" d="M554.227,-224.324C570.351,-215.703 595.3,-202.364 613.964,-192.386"/>
<polygon fill="midnightblue" stroke="midnightblue" points="615.644,-195.456 622.813,-187.655 612.344,-189.283 615.644,-195.456"/>
</g>
<!-- Node25&#45;&gt;Node7 -->
<g id="edge26" class="edge"><title>Node25&#45;&gt;Node7</title>
<path fill="none" stroke="midnightblue" d="M750,-112.083C750,-105.006 750,-94.8611 750,-85.9865"/>
<polygon fill="midnightblue" stroke="midnightblue" points="753.5,-85.751 750,-75.7511 746.5,-85.7511 753.5,-85.751"/>
</g>
<!-- Node25&#45;&gt;Node8 -->
<g id="edge27" class="edge"><title>Node25&#45;&gt;Node8</title>
<path fill="none" stroke="midnightblue" d="M738.753,-112.324C728.203,-104.185 712.199,-91.8395 699.558,-82.0874"/>
<polygon fill="midnightblue" stroke="midnightblue" points="701.507,-79.1707 691.451,-75.8339 697.231,-84.7132 701.507,-79.1707"/>
</g>
<!-- Node26 -->
<g id="node26" class="node"><title>Node26</title>
<polygon fill="white" stroke="#bfbfbf" points="833.5,-56.5 833.5,-75.5 888.5,-75.5 888.5,-56.5 833.5,-56.5"/>
<text text-anchor="middle" x="861" y="-63.5" font-family="Helvetica,sans-Serif" font-size="10.00">QVariant</text>
</g>
<!-- Node25&#45;&gt;Node26 -->
<g id="edge28" class="edge"><title>Node25&#45;&gt;Node26</title>
<path fill="none" stroke="midnightblue" d="M767.834,-112.324C785.716,-103.625 813.475,-90.1202 834.046,-80.113"/>
<polygon fill="midnightblue" stroke="midnightblue" points="835.749,-83.1765 843.21,-75.6545 832.687,-76.8819 835.749,-83.1765"/>
</g>
<!-- Node25&#45;&gt;Node16 -->
<g id="edge29" class="edge"><title>Node25&#45;&gt;Node16</title>
<path fill="none" stroke="midnightblue" d="M759.556,-112.45C768.088,-104.12 779.989,-90.6042 785,-76 790.538,-59.8593 782.992,-41.4321 775.269,-28.3298"/>
<polygon fill="midnightblue" stroke="midnightblue" points="778.157,-26.3503 769.799,-19.8393 772.273,-30.1414 778.157,-26.3503"/>
</g>
<!-- Node25&#45;&gt;Node14 -->
<g id="edge30" class="edge"><title>Node25&#45;&gt;Node14</title>
<path fill="none" stroke="midnightblue" d="M723.697,-112.444C695.649,-103.32 651.056,-88.8133 619.816,-78.6509"/>
<polygon fill="midnightblue" stroke="midnightblue" points="620.772,-75.2816 610.18,-75.5164 618.607,-81.9383 620.772,-75.2816"/>
</g>
<!-- Node27&#45;&gt;Node23 -->
<g id="edge34" class="edge"><title>Node27&#45;&gt;Node23</title>
<path fill="none" stroke="midnightblue" d="M639.661,-168.083C640.185,-161.006 640.936,-150.861 641.594,-141.986"/>
<polygon fill="midnightblue" stroke="midnightblue" points="645.103,-141.982 642.352,-131.751 638.123,-141.465 645.103,-141.982"/>
</g>
<!-- Node27&#45;&gt;Node4 -->
<g id="edge35" class="edge"><title>Node27&#45;&gt;Node4</title>
<path fill="none" stroke="midnightblue" d="M617.609,-168.444C595.293,-159.517 560.097,-145.439 534.792,-135.317"/>
<polygon fill="midnightblue" stroke="midnightblue" points="535.876,-131.981 525.291,-131.516 533.276,-138.48 535.876,-131.981"/>
</g>
<!-- Node27&#45;&gt;Node5 -->
<g id="edge36" class="edge"><title>Node27&#45;&gt;Node5</title>
<path fill="none" stroke="midnightblue" d="M627.593,-168.324C616.891,-160.185 600.659,-147.839 587.837,-138.087"/>
<polygon fill="midnightblue" stroke="midnightblue" points="589.693,-135.102 579.615,-131.834 585.456,-140.673 589.693,-135.102"/>
</g>
</g>
</svg>
