<?xml version="1.0" encoding="UTF-8" standalone="no"?>
<!DOCTYPE svg PUBLIC "-//W3C//DTD SVG 1.1//EN"
 "http://www.w3.org/Graphics/SVG/1.1/DTD/svg11.dtd">
<!-- Generated by graphviz version 2.30.1 (20130303.0817)
 -->
<!-- Title: client::clsUserEntry::clsUserEntry Pages: 1 -->
<svg width="422pt" height="176pt"
 viewBox="0.00 0.00 422.00 175.87" xmlns="http://www.w3.org/2000/svg" xmlns:xlink="http://www.w3.org/1999/xlink">
<g id="graph0" class="graph" transform="scale(1 1) rotate(0) translate(4 171.868)">
<title>client::clsUserEntry::clsUserEntry</title>
<polygon fill="white" stroke="white" points="-4,5 -4,-171.868 419,-171.868 419,5 -4,5"/>
<!-- Node1 -->
<g id="node1" class="node"><title>Node1</title>
<polygon fill="#bfbfbf" stroke="black" points="0,-66.8676 0,-96.8676 102,-96.8676 102,-66.8676 0,-66.8676"/>
<text text-anchor="start" x="8" y="-84.8676" font-family="Helvetica,sans-Serif" font-size="10.00">client::clsUserEntry</text>
<text text-anchor="middle" x="51" y="-73.8676" font-family="Helvetica,sans-Serif" font-size="10.00">::clsUserEntry</text>
</g>
<!-- Node2 -->
<g id="node2" class="node"><title>Node2</title>
<g id="a_node2"><a xlink:href="../../d6/d69/classclient_1_1irc_user.xhtml#aba9ee79c126657f6d31b349f9aa45491" target="_top" xlink:title="client::ircUser::getNick">
<polygon fill="white" stroke="black" points="143,-148.368 143,-167.368 259,-167.368 259,-148.368 143,-148.368"/>
<text text-anchor="middle" x="201" y="-155.368" font-family="Helvetica,sans-Serif" font-size="10.00">client::ircUser::getNick</text>
</a>
</g>
</g>
<!-- Node1&#45;&gt;Node2 -->
<g id="edge1" class="edge"><title>Node1&#45;&gt;Node2</title>
<path fill="none" stroke="midnightblue" d="M71.1924,-96.9378C88.0178,-109.559 113.544,-127.314 138,-138.868 142.714,-141.095 147.752,-143.138 152.842,-144.991"/>
<polygon fill="midnightblue" stroke="midnightblue" points="152.028,-148.411 162.623,-148.318 154.282,-141.784 152.028,-148.411"/>
</g>
<!-- Node3 -->
<g id="node3" class="node"><title>Node3</title>
<g id="a_node3"><a xlink:href="../../d6/d69/classclient_1_1irc_user.xhtml#ad800b80a1dc3b1fd2bacffaee6ceb7e7" target="_top" xlink:title="client::ircUser::getStatus">
<polygon fill="white" stroke="black" points="138.5,-110.368 138.5,-129.368 263.5,-129.368 263.5,-110.368 138.5,-110.368"/>
<text text-anchor="middle" x="201" y="-117.368" font-family="Helvetica,sans-Serif" font-size="10.00">client::ircUser::getStatus</text>
</a>
</g>
</g>
<!-- Node1&#45;&gt;Node3 -->
<g id="edge2" class="edge"><title>Node1&#45;&gt;Node3</title>
<path fill="none" stroke="midnightblue" d="M102.106,-94.7327C118.495,-98.9407 136.636,-103.599 152.804,-107.75"/>
<polygon fill="midnightblue" stroke="midnightblue" points="152.025,-111.163 162.582,-110.26 153.766,-104.383 152.025,-111.163"/>
</g>
<!-- Node4 -->
<g id="node4" class="node"><title>Node4</title>
<g id="a_node4"><a xlink:href="../../d6/d69/classclient_1_1irc_user.xhtml#a7d4549d1722c3dea93d83114c70b8aae" target="_top" xlink:title="client::ircUser::getColor">
<polygon fill="white" stroke="black" points="141.5,-72.3676 141.5,-91.3676 260.5,-91.3676 260.5,-72.3676 141.5,-72.3676"/>
<text text-anchor="middle" x="201" y="-79.3676" font-family="Helvetica,sans-Serif" font-size="10.00">client::ircUser::getColor</text>
</a>
</g>
</g>
<!-- Node1&#45;&gt;Node4 -->
<g id="edge3" class="edge"><title>Node1&#45;&gt;Node4</title>
<path fill="none" stroke="midnightblue" d="M102.106,-81.8676C111.442,-81.8676 121.346,-81.8676 131.13,-81.8676"/>
<polygon fill="midnightblue" stroke="midnightblue" points="131.254,-85.3677 141.254,-81.8676 131.254,-78.3677 131.254,-85.3677"/>
</g>
<!-- Node5 -->
<g id="node5" class="node"><title>Node5</title>
<g id="a_node5"><a xlink:href="../../d0/ddb/classclient_1_1cls_user_entry.xhtml#a3a0fe3fd86b54b785fac07a22a52f508" target="_top" xlink:title="client::clsUserEntry\l::iconChanged">
<polygon fill="white" stroke="black" points="150,-22.8676 150,-52.8676 252,-52.8676 252,-22.8676 150,-22.8676"/>
<text text-anchor="start" x="158" y="-40.8676" font-family="Helvetica,sans-Serif" font-size="10.00">client::clsUserEntry</text>
<text text-anchor="middle" x="201" y="-29.8676" font-family="Helvetica,sans-Serif" font-size="10.00">::iconChanged</text>
</a>
</g>
</g>
<!-- Node1&#45;&gt;Node5 -->
<g id="edge4" class="edge"><title>Node1&#45;&gt;Node5</title>
<path fill="none" stroke="midnightblue" d="M102.106,-66.9712C114.281,-63.3515 127.423,-59.4445 140.005,-55.704"/>
<polygon fill="midnightblue" stroke="midnightblue" points="141.358,-58.9533 149.946,-52.7487 139.363,-52.2436 141.358,-58.9533"/>
</g>
<!-- Node6 -->
<g id="node6" class="node"><title>Node6</title>
<g id="a_node6"><a xlink:href="../../d6/d69/classclient_1_1irc_user.xhtml#a521a4df549ad0e80df8ef739d168a917" target="_top" xlink:title="client::ircUser::getIcon">
<polygon fill="white" stroke="black" points="300,-6.36763 300,-25.3676 414,-25.3676 414,-6.36763 300,-6.36763"/>
<text text-anchor="middle" x="357" y="-13.3676" font-family="Helvetica,sans-Serif" font-size="10.00">client::ircUser::getIcon</text>
</a>
</g>
</g>
<!-- Node1&#45;&gt;Node6 -->
<g id="edge6" class="edge"><title>Node1&#45;&gt;Node6</title>
<path fill="none" stroke="midnightblue" d="M65.069,-66.7099C80.5259,-50.0616 107.975,-24.3038 138,-13.8676 189.741,4.1167 252.654,1.12736 297.57,-4.86914"/>
<polygon fill="midnightblue" stroke="midnightblue" points="297.331,-8.37037 307.725,-6.31667 298.319,-1.44042 297.331,-8.37037"/>
</g>
<!-- Node5&#45;&gt;Node6 -->
<g id="edge5" class="edge"><title>Node5&#45;&gt;Node6</title>
<path fill="none" stroke="midnightblue" d="M252.425,-30.664C264.4,-28.9534 277.352,-27.1031 289.909,-25.3093"/>
<polygon fill="midnightblue" stroke="midnightblue" points="290.464,-28.7656 299.868,-23.8865 289.474,-21.836 290.464,-28.7656"/>
</g>
</g>
</svg>
