<?xml version="1.0" encoding="UTF-8" standalone="no"?>
<!DOCTYPE svg PUBLIC "-//W3C//DTD SVG 1.1//EN"
 "http://www.w3.org/Graphics/SVG/1.1/DTD/svg11.dtd">
<!-- Generated by graphviz version 2.30.1 (20130303.0817)
 -->
<!-- Title: client::clsUserEntry::refresh Pages: 1 -->
<svg width="272pt" height="142pt"
 viewBox="0.00 0.00 272.00 142.00" xmlns="http://www.w3.org/2000/svg" xmlns:xlink="http://www.w3.org/1999/xlink">
<g id="graph0" class="graph" transform="scale(1 1) rotate(0) translate(4 138)">
<title>client::clsUserEntry::refresh</title>
<polygon fill="white" stroke="white" points="-4,5 -4,-138 269,-138 269,5 -4,5"/>
<!-- Node1 -->
<g id="node1" class="node"><title>Node1</title>
<polygon fill="#bfbfbf" stroke="black" points="0,-52 0,-82 102,-82 102,-52 0,-52"/>
<text text-anchor="start" x="8" y="-70" font-family="Helvetica,sans-Serif" font-size="10.00">client::clsUserEntry</text>
<text text-anchor="middle" x="51" y="-59" font-family="Helvetica,sans-Serif" font-size="10.00">::refresh</text>
</g>
<!-- Node2 -->
<g id="node2" class="node"><title>Node2</title>
<g id="a_node2"><a xlink:href="../../d6/d69/classclient_1_1irc_user.html#aba9ee79c126657f6d31b349f9aa45491" target="_top" xlink:title="client::ircUser::getNick">
<polygon fill="white" stroke="black" points="143,-114.5 143,-133.5 259,-133.5 259,-114.5 143,-114.5"/>
<text text-anchor="middle" x="201" y="-121.5" font-family="Helvetica,sans-Serif" font-size="10.00">client::ircUser::getNick</text>
</a>
</g>
</g>
<!-- Node1&#45;&gt;Node2 -->
<g id="edge1" class="edge"><title>Node1&#45;&gt;Node2</title>
<path fill="none" stroke="midnightblue" d="M83.8892,-82.1728C99.9356,-89.529 119.798,-98.217 138,-105 143.954,-107.219 150.296,-109.383 156.565,-111.408"/>
<polygon fill="midnightblue" stroke="midnightblue" points="155.703,-114.806 166.292,-114.465 157.801,-108.128 155.703,-114.806"/>
</g>
<!-- Node3 -->
<g id="node3" class="node"><title>Node3</title>
<g id="a_node3"><a xlink:href="../../d6/d69/classclient_1_1irc_user.html#ad800b80a1dc3b1fd2bacffaee6ceb7e7" target="_top" xlink:title="client::ircUser::getStatus">
<polygon fill="white" stroke="black" points="138.5,-76.5 138.5,-95.5 263.5,-95.5 263.5,-76.5 138.5,-76.5"/>
<text text-anchor="middle" x="201" y="-83.5" font-family="Helvetica,sans-Serif" font-size="10.00">client::ircUser::getStatus</text>
</a>
</g>
</g>
<!-- Node1&#45;&gt;Node3 -->
<g id="edge2" class="edge"><title>Node1&#45;&gt;Node3</title>
<path fill="none" stroke="midnightblue" d="M102.106,-73.4325C110.575,-74.5198 119.512,-75.6671 128.403,-76.8084"/>
<polygon fill="midnightblue" stroke="midnightblue" points="128.029,-80.2891 138.393,-78.091 128.92,-73.3461 128.029,-80.2891"/>
</g>
<!-- Node4 -->
<g id="node4" class="node"><title>Node4</title>
<g id="a_node4"><a xlink:href="../../d6/d69/classclient_1_1irc_user.html#a7d4549d1722c3dea93d83114c70b8aae" target="_top" xlink:title="client::ircUser::getColor">
<polygon fill="white" stroke="black" points="141.5,-38.5 141.5,-57.5 260.5,-57.5 260.5,-38.5 141.5,-38.5"/>
<text text-anchor="middle" x="201" y="-45.5" font-family="Helvetica,sans-Serif" font-size="10.00">client::ircUser::getColor</text>
</a>
</g>
</g>
<!-- Node1&#45;&gt;Node4 -->
<g id="edge3" class="edge"><title>Node1&#45;&gt;Node4</title>
<path fill="none" stroke="midnightblue" d="M102.106,-60.5675C111.442,-59.3689 121.346,-58.0974 131.13,-56.8414"/>
<polygon fill="midnightblue" stroke="midnightblue" points="131.781,-60.2866 141.254,-55.5417 130.89,-53.3436 131.781,-60.2866"/>
</g>
<!-- Node5 -->
<g id="node5" class="node"><title>Node5</title>
<g id="a_node5"><a xlink:href="../../d6/d69/classclient_1_1irc_user.html#a521a4df549ad0e80df8ef739d168a917" target="_top" xlink:title="client::ircUser::getIcon">
<polygon fill="white" stroke="black" points="144,-0.5 144,-19.5 258,-19.5 258,-0.5 144,-0.5"/>
<text text-anchor="middle" x="201" y="-7.5" font-family="Helvetica,sans-Serif" font-size="10.00">client::ircUser::getIcon</text>
</a>
</g>
</g>
<!-- Node1&#45;&gt;Node5 -->
<g id="edge4" class="edge"><title>Node1&#45;&gt;Node5</title>
<path fill="none" stroke="midnightblue" d="M83.8892,-51.8272C99.9356,-44.471 119.798,-35.783 138,-29 143.954,-26.7813 150.296,-24.6174 156.565,-22.592"/>
<polygon fill="midnightblue" stroke="midnightblue" points="157.801,-25.8724 166.292,-19.5353 155.703,-19.1944 157.801,-25.8724"/>
</g>
</g>
</svg>
