<?xml version="1.0" encoding="UTF-8" standalone="no"?>
<!DOCTYPE svg PUBLIC "-//W3C//DTD SVG 1.1//EN"
 "http://www.w3.org/Graphics/SVG/1.1/DTD/svg11.dtd">
<!-- Generated by graphviz version 2.30.1 (20130303.0817)
 -->
<!-- Title: C++/customIrcServer/ircclient.h Pages: 1 -->
<svg width="305pt" height="176pt"
 viewBox="0.00 0.00 305.00 176.00" xmlns="http://www.w3.org/2000/svg" xmlns:xlink="http://www.w3.org/1999/xlink">
<g id="graph0" class="graph" transform="scale(1 1) rotate(0) translate(4 172)">
<title>C++/customIrcServer/ircclient.h</title>
<polygon fill="white" stroke="white" points="-4,5 -4,-172 302,-172 302,5 -4,5"/>
<!-- Node1 -->
<g id="node1" class="node"><title>Node1</title>
<polygon fill="#bfbfbf" stroke="black" points="63,-137 63,-167 171,-167 171,-137 63,-137"/>
<text text-anchor="start" x="71" y="-155" font-family="Helvetica,sans-Serif" font-size="10.00">C++/customIrcServer</text>
<text text-anchor="middle" x="117" y="-144" font-family="Helvetica,sans-Serif" font-size="10.00">/ircclient.h</text>
</g>
<!-- Node2 -->
<g id="node2" class="node"><title>Node2</title>
<g id="a_node2"><a xlink:href="../../d6/d3e/ircclient_8cpp.xhtml" target="_top" xlink:title="C++/customIrcServer\l/ircclient.cpp">
<polygon fill="white" stroke="black" points="0,-69 0,-99 108,-99 108,-69 0,-69"/>
<text text-anchor="start" x="8" y="-87" font-family="Helvetica,sans-Serif" font-size="10.00">C++/customIrcServer</text>
<text text-anchor="middle" x="54" y="-76" font-family="Helvetica,sans-Serif" font-size="10.00">/ircclient.cpp</text>
</a>
</g>
</g>
<!-- Node1&#45;&gt;Node2 -->
<g id="edge1" class="edge"><title>Node1&#45;&gt;Node2</title>
<path fill="none" stroke="midnightblue" d="M96.185,-129.194C86.7986,-119.36 75.9763,-108.023 67.6434,-99.2931"/>
<polygon fill="midnightblue" stroke="midnightblue" points="93.8934,-131.862 103.33,-136.679 98.9569,-127.029 93.8934,-131.862"/>
</g>
<!-- Node3 -->
<g id="node3" class="node"><title>Node3</title>
<g id="a_node3"><a xlink:href="../../db/df6/mainapp_8h.xhtml" target="_top" xlink:title="C++/customIrcServer\l/mainapp.h">
<polygon fill="white" stroke="black" points="126,-69 126,-99 234,-99 234,-69 126,-69"/>
<text text-anchor="start" x="134" y="-87" font-family="Helvetica,sans-Serif" font-size="10.00">C++/customIrcServer</text>
<text text-anchor="middle" x="180" y="-76" font-family="Helvetica,sans-Serif" font-size="10.00">/mainapp.h</text>
</a>
</g>
</g>
<!-- Node1&#45;&gt;Node3 -->
<g id="edge2" class="edge"><title>Node1&#45;&gt;Node3</title>
<path fill="none" stroke="midnightblue" d="M137.815,-129.194C147.201,-119.36 158.024,-108.023 166.357,-99.2931"/>
<polygon fill="midnightblue" stroke="midnightblue" points="135.043,-127.029 130.67,-136.679 140.107,-131.862 135.043,-127.029"/>
</g>
<!-- Node4 -->
<g id="node4" class="node"><title>Node4</title>
<g id="a_node4"><a xlink:href="../../dc/d17/custom_irc_server_2main_8cpp.xhtml" target="_top" xlink:title="C++/customIrcServer\l/main.cpp">
<polygon fill="white" stroke="black" points="63,-1 63,-31 171,-31 171,-1 63,-1"/>
<text text-anchor="start" x="71" y="-19" font-family="Helvetica,sans-Serif" font-size="10.00">C++/customIrcServer</text>
<text text-anchor="middle" x="117" y="-8" font-family="Helvetica,sans-Serif" font-size="10.00">/main.cpp</text>
</a>
</g>
</g>
<!-- Node3&#45;&gt;Node4 -->
<g id="edge3" class="edge"><title>Node3&#45;&gt;Node4</title>
<path fill="none" stroke="midnightblue" d="M159.185,-61.1939C149.799,-51.3605 138.976,-40.0228 130.643,-31.2931"/>
<polygon fill="midnightblue" stroke="midnightblue" points="156.893,-63.8621 166.33,-68.679 161.957,-59.0287 156.893,-63.8621"/>
</g>
<!-- Node5 -->
<g id="node5" class="node"><title>Node5</title>
<g id="a_node5"><a xlink:href="../../d8/d88/mainapp_8cpp.xhtml" target="_top" xlink:title="C++/customIrcServer\l/mainapp.cpp">
<polygon fill="white" stroke="black" points="189,-1 189,-31 297,-31 297,-1 189,-1"/>
<text text-anchor="start" x="197" y="-19" font-family="Helvetica,sans-Serif" font-size="10.00">C++/customIrcServer</text>
<text text-anchor="middle" x="243" y="-8" font-family="Helvetica,sans-Serif" font-size="10.00">/mainapp.cpp</text>
</a>
</g>
</g>
<!-- Node3&#45;&gt;Node5 -->
<g id="edge4" class="edge"><title>Node3&#45;&gt;Node5</title>
<path fill="none" stroke="midnightblue" d="M200.815,-61.1939C210.201,-51.3605 221.024,-40.0228 229.357,-31.2931"/>
<polygon fill="midnightblue" stroke="midnightblue" points="198.043,-59.0287 193.67,-68.679 203.107,-63.8621 198.043,-59.0287"/>
</g>
</g>
</svg>
