<?xml version="1.0" encoding="UTF-8" standalone="no"?>
<!DOCTYPE svg PUBLIC "-//W3C//DTD SVG 1.1//EN"
 "http://www.w3.org/Graphics/SVG/1.1/DTD/svg11.dtd">
<!-- Generated by graphviz version 2.30.1 (20130303.0817)
 -->
<!-- Title: C++/customIrcClient/clsserverconn.h Pages: 1 -->
<!--zoomable 332 -->
<svg id="main" version="1.1" xmlns="http://www.w3.org/2000/svg" xmlns:xlink="http://www.w3.org/1999/xlink" xml:space="preserve" onload="init(evt)">
        <defs>
                <circle id="rim" cx="0" cy="0" r="7"/>
                <circle id="rim2" cx="0" cy="0" r="3.5"/>
                <g id="zoomPlus">
                        <use xlink:href="#rim" fill="#404040">
                                <set attributeName="fill" to="#808080" begin="zoomplus.mouseover" end="zoomplus.mouseout"/>
                        </use>
                        <path d="M-4,0h8M0,-4v8" fill="none" stroke="white" stroke-width="1.5" pointer-events="none"/>
                </g>
                <g id="zoomMin">
                        <use xlink:href="#rim" fill="#404040">
                                <set attributeName="fill" to="#808080" begin="zoomminus.mouseover" end="zoomminus.mouseout"/>
                        </use>
                        <path d="M-4,0h8" fill="none" stroke="white" stroke-width="1.5" pointer-events="none"/>
                </g>
                <g id="dirArrow">
                        <path fill="none" stroke="white" stroke-width="1.5" d="M0,-3.0v7 M-2.5,-0.5L0,-3.0L2.5,-0.5"/>
                </g>
               <g id="resetDef">
                       <use xlink:href="#rim2" fill="#404040">
                               <set attributeName="fill" to="#808080" begin="reset.mouseover" end="reset.mouseout"/>
                       </use>
               </g>
        </defs>

<script type="text/javascript">
var viewWidth = 1372;
var viewHeight = 332;
var sectionId = 'dynsection-0';
</script>
<script xlink:href="../../svgpan.js"/>
<svg id="graph" class="graph">
<g id="viewport">
<title>C++/customIrcClient/clsserverconn.h</title>
<polygon fill="white" stroke="white" points="-4,5 -4,-328 1369,-328 1369,5 -4,5"/>
<!-- Node1 -->
<g id="node1" class="node"><title>Node1</title>
<polygon fill="#bfbfbf" stroke="black" points="516,-293 516,-323 622,-323 622,-293 516,-293"/>
<text text-anchor="start" x="524" y="-311" font-family="Helvetica,sans-Serif" font-size="10.00">C++/customIrcClient</text>
<text text-anchor="middle" x="569" y="-300" font-family="Helvetica,sans-Serif" font-size="10.00">/clsserverconn.h</text>
</g>
<!-- Node2 -->
<g id="node2" class="node"><title>Node2</title>
<polygon fill="white" stroke="#bfbfbf" points="530.5,-56.5 530.5,-75.5 583.5,-75.5 583.5,-56.5 530.5,-56.5"/>
<text text-anchor="middle" x="557" y="-63.5" font-family="Helvetica,sans-Serif" font-size="10.00">QObject</text>
</g>
<!-- Node1&#45;&gt;Node2 -->
<g id="edge1" class="edge"><title>Node1&#45;&gt;Node2</title>
<path fill="none" stroke="midnightblue" d="M515.938,-306.404C434.891,-304.242 286.146,-294.925 253,-256 243.779,-245.172 245.602,-236.147 253,-224 283.838,-173.366 451.412,-106.241 523.738,-79.1264"/>
<polygon fill="midnightblue" stroke="midnightblue" points="525.136,-82.3405 533.287,-75.5718 522.694,-75.7802 525.136,-82.3405"/>
</g>
<!-- Node3 -->
<g id="node3" class="node"><title>Node3</title>
<polygon fill="white" stroke="#bfbfbf" points="262,-230.5 262,-249.5 332,-249.5 332,-230.5 262,-230.5"/>
<text text-anchor="middle" x="297" y="-237.5" font-family="Helvetica,sans-Serif" font-size="10.00">QTcpSocket</text>
</g>
<!-- Node1&#45;&gt;Node3 -->
<g id="edge2" class="edge"><title>Node1&#45;&gt;Node3</title>
<path fill="none" stroke="midnightblue" d="M515.612,-296.765C469.144,-287.451 400.153,-272.646 341,-256 337.451,-255.001 333.767,-253.881 330.109,-252.715"/>
<polygon fill="midnightblue" stroke="midnightblue" points="331.194,-249.387 320.601,-249.572 328.997,-256.034 331.194,-249.387"/>
</g>
<!-- Node4 -->
<g id="node4" class="node"><title>Node4</title>
<polygon fill="white" stroke="#bfbfbf" points="350,-230.5 350,-249.5 424,-249.5 424,-230.5 350,-230.5"/>
<text text-anchor="middle" x="387" y="-237.5" font-family="Helvetica,sans-Serif" font-size="10.00">QTextStream</text>
</g>
<!-- Node1&#45;&gt;Node4 -->
<g id="edge3" class="edge"><title>Node1&#45;&gt;Node4</title>
<path fill="none" stroke="midnightblue" d="M529.956,-292.841C497.252,-280.982 451.084,-264.239 420.15,-253.022"/>
<polygon fill="midnightblue" stroke="midnightblue" points="421.273,-249.706 410.679,-249.587 418.887,-256.286 421.273,-249.706"/>
</g>
<!-- Node5 -->
<g id="node5" class="node"><title>Node5</title>
<polygon fill="white" stroke="#bfbfbf" points="442.5,-230.5 442.5,-249.5 487.5,-249.5 487.5,-230.5 442.5,-230.5"/>
<text text-anchor="middle" x="465" y="-237.5" font-family="Helvetica,sans-Serif" font-size="10.00">QTime</text>
</g>
<!-- Node1&#45;&gt;Node5 -->
<g id="edge4" class="edge"><title>Node1&#45;&gt;Node5</title>
<path fill="none" stroke="midnightblue" d="M546.689,-292.841C529.104,-281.681 504.705,-266.198 487.159,-255.063"/>
<polygon fill="midnightblue" stroke="midnightblue" points="488.999,-252.085 478.681,-249.682 485.248,-257.995 488.999,-252.085"/>
</g>
<!-- Node6 -->
<g id="node6" class="node"><title>Node6</title>
<g id="a_node6"><a xlink:href="../../d7/d62/clslog_8h.xhtml" target="_top" xlink:title="../resources/clslog.h">
<polygon fill="white" stroke="black" points="601.5,-56.5 601.5,-75.5 706.5,-75.5 706.5,-56.5 601.5,-56.5"/>
<text text-anchor="middle" x="654" y="-63.5" font-family="Helvetica,sans-Serif" font-size="10.00">../resources/clslog.h</text>
</a>
</g>
</g>
<!-- Node1&#45;&gt;Node6 -->
<g id="edge5" class="edge"><title>Node1&#45;&gt;Node6</title>
<path fill="none" stroke="midnightblue" d="M556.759,-292.944C549.174,-283.274 540.118,-269.739 536,-256 517.626,-194.693 498.618,-164.655 535,-112 543.884,-99.1432 579.305,-86.7506 609.212,-78.2373"/>
<polygon fill="midnightblue" stroke="midnightblue" points="610.391,-81.5426 619.097,-75.5038 608.525,-74.7958 610.391,-81.5426"/>
</g>
<!-- Node12 -->
<g id="node12" class="node"><title>Node12</title>
<polygon fill="white" stroke="#bfbfbf" points="544.5,-230.5 544.5,-249.5 593.5,-249.5 593.5,-230.5 544.5,-230.5"/>
<text text-anchor="middle" x="569" y="-237.5" font-family="Helvetica,sans-Serif" font-size="10.00">QBuffer</text>
</g>
<!-- Node1&#45;&gt;Node12 -->
<g id="edge11" class="edge"><title>Node1&#45;&gt;Node12</title>
<path fill="none" stroke="midnightblue" d="M569,-292.679C569,-283.101 569,-270.394 569,-259.977"/>
<polygon fill="midnightblue" stroke="midnightblue" points="572.5,-259.828 569,-249.828 565.5,-259.828 572.5,-259.828"/>
</g>
<!-- Node13 -->
<g id="node13" class="node"><title>Node13</title>
<g id="a_node13"><a xlink:href="../../d5/d98/custom_irc_client_2ircuser_8h.xhtml" target="_top" xlink:title="ircuser.h">
<polygon fill="white" stroke="black" points="244,-112.5 244,-131.5 298,-131.5 298,-112.5 244,-112.5"/>
<text text-anchor="middle" x="271" y="-119.5" font-family="Helvetica,sans-Serif" font-size="10.00">ircuser.h</text>
</a>
</g>
</g>
<!-- Node1&#45;&gt;Node13 -->
<g id="edge12" class="edge"><title>Node1&#45;&gt;Node13</title>
<path fill="none" stroke="midnightblue" d="M582.454,-292.979C597.519,-275.535 617.871,-245.436 602,-224 566.502,-176.055 386.901,-141.718 308.125,-128.727"/>
<polygon fill="midnightblue" stroke="midnightblue" points="308.577,-125.255 298.146,-127.107 307.456,-132.165 308.577,-125.255"/>
</g>
<!-- Node20 -->
<g id="node20" class="node"><title>Node20</title>
<g id="a_node20"><a xlink:href="../../dc/d96/jsoncommand_8h.xhtml" target="_top" xlink:title="../resources/jsoncommand.h">
<polygon fill="white" stroke="black" points="582,-168.5 582,-187.5 722,-187.5 722,-168.5 582,-168.5"/>
<text text-anchor="middle" x="652" y="-175.5" font-family="Helvetica,sans-Serif" font-size="10.00">../resources/jsoncommand.h</text>
</a>
</g>
</g>
<!-- Node1&#45;&gt;Node20 -->
<g id="edge21" class="edge"><title>Node1&#45;&gt;Node20</title>
<path fill="none" stroke="midnightblue" d="M595.686,-292.956C609.792,-284.179 626.177,-271.581 636,-256 647.123,-238.358 650.669,-214.355 651.719,-197.863"/>
<polygon fill="midnightblue" stroke="midnightblue" points="655.219,-197.945 652.111,-187.816 648.224,-197.672 655.219,-197.945"/>
</g>
<!-- Node22 -->
<g id="node22" class="node"><title>Node22</title>
<g id="a_node22"><a xlink:href="../../d4/d05/json_8h.xhtml" target="_top" xlink:title="json.h">
<polygon fill="white" stroke="black" points="728.5,-112.5 728.5,-131.5 771.5,-131.5 771.5,-112.5 728.5,-112.5"/>
<text text-anchor="middle" x="750" y="-119.5" font-family="Helvetica,sans-Serif" font-size="10.00">json.h</text>
</a>
</g>
</g>
<!-- Node1&#45;&gt;Node22 -->
<g id="edge28" class="edge"><title>Node1&#45;&gt;Node22</title>
<path fill="none" stroke="midnightblue" d="M600.632,-292.957C638.164,-274.543 699.596,-238.538 731,-188 739.823,-173.801 744.707,-155.323 747.305,-141.699"/>
<polygon fill="midnightblue" stroke="midnightblue" points="750.797,-142.037 748.986,-131.598 743.892,-140.888 750.797,-142.037"/>
</g>
<!-- Node24 -->
<g id="node24" class="node"><title>Node24</title>
<g id="a_node24"><a xlink:href="../../db/d97/clsevent_8h.xhtml" target="_top" xlink:title="../resources/clsevent.h">
<polygon fill="white" stroke="black" points="802.5,-112.5 802.5,-131.5 917.5,-131.5 917.5,-112.5 802.5,-112.5"/>
<text text-anchor="middle" x="860" y="-119.5" font-family="Helvetica,sans-Serif" font-size="10.00">../resources/clsevent.h</text>
</a>
</g>
</g>
<!-- Node1&#45;&gt;Node24 -->
<g id="edge29" class="edge"><title>Node1&#45;&gt;Node24</title>
<path fill="none" stroke="midnightblue" d="M614.478,-292.914C639.939,-284.086 671.745,-271.452 698,-256 713.598,-246.82 802.796,-171.579 841.776,-138.502"/>
<polygon fill="midnightblue" stroke="midnightblue" points="844.348,-140.909 849.704,-131.768 839.817,-135.574 844.348,-140.909"/>
</g>
<!-- Node25 -->
<g id="node25" class="node"><title>Node25</title>
<g id="a_node25"><a xlink:href="../../db/dd2/events_8h.xhtml" target="_top" xlink:title="../resources/events\l/events.h">
<polygon fill="white" stroke="black" points="1003.5,-225 1003.5,-255 1102.5,-255 1102.5,-225 1003.5,-225"/>
<text text-anchor="start" x="1011.5" y="-243" font-family="Helvetica,sans-Serif" font-size="10.00">../resources/events</text>
<text text-anchor="middle" x="1053" y="-232" font-family="Helvetica,sans-Serif" font-size="10.00">/events.h</text>
</a>
</g>
</g>
<!-- Node1&#45;&gt;Node25 -->
<g id="edge35" class="edge"><title>Node1&#45;&gt;Node25</title>
<path fill="none" stroke="midnightblue" d="M622.181,-299.748C713.163,-287.341 898.066,-262.127 993.319,-249.138"/>
<polygon fill="midnightblue" stroke="midnightblue" points="993.93,-252.587 1003.37,-247.768 992.984,-245.652 993.93,-252.587"/>
</g>
<!-- Node7 -->
<g id="node7" class="node"><title>Node7</title>
<polygon fill="white" stroke="#bfbfbf" points="667,-0.5 667,-19.5 719,-19.5 719,-0.5 667,-0.5"/>
<text text-anchor="middle" x="693" y="-7.5" font-family="Helvetica,sans-Serif" font-size="10.00">QDebug</text>
</g>
<!-- Node6&#45;&gt;Node7 -->
<g id="edge6" class="edge"><title>Node6&#45;&gt;Node7</title>
<path fill="none" stroke="midnightblue" d="M660.44,-56.083C665.949,-48.4554 674.031,-37.2645 680.765,-27.9408"/>
<polygon fill="midnightblue" stroke="midnightblue" points="683.662,-29.9071 686.68,-19.7511 677.987,-25.8087 683.662,-29.9071"/>
</g>
<!-- Node8 -->
<g id="node8" class="node"><title>Node8</title>
<polygon fill="white" stroke="#bfbfbf" points="801.5,-0.5 801.5,-19.5 866.5,-19.5 866.5,-0.5 801.5,-0.5"/>
<text text-anchor="middle" x="834" y="-7.5" font-family="Helvetica,sans-Serif" font-size="10.00">QDateTime</text>
</g>
<!-- Node6&#45;&gt;Node8 -->
<g id="edge7" class="edge"><title>Node6&#45;&gt;Node8</title>
<path fill="none" stroke="midnightblue" d="M682.522,-56.4435C713.066,-47.2801 761.708,-32.6876 795.603,-22.5192"/>
<polygon fill="midnightblue" stroke="midnightblue" points="797.039,-25.7424 805.612,-19.5164 795.028,-19.0376 797.039,-25.7424"/>
</g>
<!-- Node9 -->
<g id="node9" class="node"><title>Node9</title>
<polygon fill="white" stroke="#bfbfbf" points="737.5,-0.5 737.5,-19.5 778.5,-19.5 778.5,-0.5 737.5,-0.5"/>
<text text-anchor="middle" x="758" y="-7.5" font-family="Helvetica,sans-Serif" font-size="10.00">string</text>
</g>
<!-- Node6&#45;&gt;Node9 -->
<g id="edge8" class="edge"><title>Node6&#45;&gt;Node9</title>
<path fill="none" stroke="midnightblue" d="M670.709,-56.324C687.312,-47.7034 713.002,-34.3643 732.22,-24.3855"/>
<polygon fill="midnightblue" stroke="midnightblue" points="734.07,-27.3689 741.332,-19.6545 730.844,-21.1565 734.07,-27.3689"/>
</g>
<!-- Node10 -->
<g id="node10" class="node"><title>Node10</title>
<polygon fill="white" stroke="#bfbfbf" points="511,-0.5 511,-19.5 565,-19.5 565,-0.5 511,-0.5"/>
<text text-anchor="middle" x="538" y="-7.5" font-family="Helvetica,sans-Serif" font-size="10.00">iostream</text>
</g>
<!-- Node6&#45;&gt;Node10 -->
<g id="edge9" class="edge"><title>Node6&#45;&gt;Node10</title>
<path fill="none" stroke="midnightblue" d="M635.619,-56.4435C616.784,-47.6751 587.269,-33.9355 565.621,-23.8579"/>
<polygon fill="midnightblue" stroke="midnightblue" points="566.838,-20.5637 556.295,-19.5164 563.883,-26.9098 566.838,-20.5637"/>
</g>
<!-- Node11 -->
<g id="node11" class="node"><title>Node11</title>
<polygon fill="white" stroke="#bfbfbf" points="583.5,-0.5 583.5,-19.5 648.5,-19.5 648.5,-0.5 583.5,-0.5"/>
<text text-anchor="middle" x="616" y="-7.5" font-family="Helvetica,sans-Serif" font-size="10.00">QStringList</text>
</g>
<!-- Node6&#45;&gt;Node11 -->
<g id="edge10" class="edge"><title>Node6&#45;&gt;Node11</title>
<path fill="none" stroke="midnightblue" d="M647.725,-56.083C642.358,-48.4554 634.482,-37.2645 627.921,-27.9408"/>
<polygon fill="midnightblue" stroke="midnightblue" points="630.775,-25.9149 622.158,-19.7511 625.051,-29.9434 630.775,-25.9149"/>
</g>
<!-- Node13&#45;&gt;Node2 -->
<g id="edge13" class="edge"><title>Node13&#45;&gt;Node2</title>
<path fill="none" stroke="midnightblue" d="M298.311,-114.824C302.875,-113.844 307.566,-112.868 312,-112 401.429,-94.4919 427.084,-95.3623 520.45,-75.9766"/>
<polygon fill="midnightblue" stroke="midnightblue" points="521.247,-79.3858 530.315,-73.9061 519.809,-72.535 521.247,-79.3858"/>
</g>
<!-- Node14 -->
<g id="node14" class="node"><title>Node14</title>
<polygon fill="white" stroke="#bfbfbf" points="725,-56.5 725,-75.5 775,-75.5 775,-56.5 725,-56.5"/>
<text text-anchor="middle" x="750" y="-63.5" font-family="Helvetica,sans-Serif" font-size="10.00">QString</text>
</g>
<!-- Node13&#45;&gt;Node14 -->
<g id="edge14" class="edge"><title>Node13&#45;&gt;Node14</title>
<path fill="none" stroke="midnightblue" d="M298.226,-119.671C367.982,-115.959 558.633,-103.864 715,-76 715.1,-75.9821 715.201,-75.9641 715.302,-75.9459"/>
<polygon fill="midnightblue" stroke="midnightblue" points="715.792,-79.4191 724.864,-73.9465 714.36,-72.5672 715.792,-79.4191"/>
</g>
<!-- Node15 -->
<g id="node15" class="node"><title>Node15</title>
<polygon fill="white" stroke="#bfbfbf" points="101.5,-56.5 101.5,-75.5 148.5,-75.5 148.5,-56.5 101.5,-56.5"/>
<text text-anchor="middle" x="125" y="-63.5" font-family="Helvetica,sans-Serif" font-size="10.00">QColor</text>
</g>
<!-- Node13&#45;&gt;Node15 -->
<g id="edge15" class="edge"><title>Node13&#45;&gt;Node15</title>
<path fill="none" stroke="midnightblue" d="M247.866,-112.444C223.518,-103.438 184.993,-89.1891 157.577,-79.049"/>
<polygon fill="midnightblue" stroke="midnightblue" points="158.619,-75.7028 148.026,-75.5164 156.191,-82.2681 158.619,-75.7028"/>
</g>
<!-- Node16 -->
<g id="node16" class="node"><title>Node16</title>
<polygon fill="white" stroke="#bfbfbf" points="167,-56.5 167,-75.5 251,-75.5 251,-56.5 167,-56.5"/>
<text text-anchor="middle" x="209" y="-63.5" font-family="Helvetica,sans-Serif" font-size="10.00">QGraphicsView</text>
</g>
<!-- Node13&#45;&gt;Node16 -->
<g id="edge16" class="edge"><title>Node13&#45;&gt;Node16</title>
<path fill="none" stroke="midnightblue" d="M261.039,-112.324C251.873,-104.341 238.063,-92.3128 226.972,-82.6529"/>
<polygon fill="midnightblue" stroke="midnightblue" points="228.982,-79.7624 219.143,-75.8339 224.385,-85.041 228.982,-79.7624"/>
</g>
<!-- Node17 -->
<g id="node17" class="node"><title>Node17</title>
<polygon fill="white" stroke="#bfbfbf" points="269,-56.5 269,-75.5 399,-75.5 399,-56.5 269,-56.5"/>
<text text-anchor="middle" x="334" y="-63.5" font-family="Helvetica,sans-Serif" font-size="10.00">QNetworkAccessManager</text>
</g>
<!-- Node13&#45;&gt;Node17 -->
<g id="edge17" class="edge"><title>Node13&#45;&gt;Node17</title>
<path fill="none" stroke="midnightblue" d="M281.122,-112.324C290.526,-104.263 304.744,-92.0765 316.069,-82.3695"/>
<polygon fill="midnightblue" stroke="midnightblue" points="318.379,-84.9993 323.694,-75.8339 313.823,-79.6844 318.379,-84.9993"/>
</g>
<!-- Node18 -->
<g id="node18" class="node"><title>Node18</title>
<polygon fill="white" stroke="#bfbfbf" points="417.5,-56.5 417.5,-75.5 512.5,-75.5 512.5,-56.5 417.5,-56.5"/>
<text text-anchor="middle" x="465" y="-63.5" font-family="Helvetica,sans-Serif" font-size="10.00">QNetworkRequest</text>
</g>
<!-- Node13&#45;&gt;Node18 -->
<g id="edge18" class="edge"><title>Node13&#45;&gt;Node18</title>
<path fill="none" stroke="midnightblue" d="M298.384,-113.378C331.27,-104.224 386.72,-88.7892 424.545,-78.2607"/>
<polygon fill="midnightblue" stroke="midnightblue" points="425.539,-81.6171 434.234,-75.5637 423.662,-74.8735 425.539,-81.6171"/>
</g>
<!-- Node19 -->
<g id="node19" class="node"><title>Node19</title>
<polygon fill="white" stroke="#bfbfbf" points="-1,-56.5 -1,-75.5 83,-75.5 83,-56.5 -1,-56.5"/>
<text text-anchor="middle" x="41" y="-63.5" font-family="Helvetica,sans-Serif" font-size="10.00">QNetworkReply</text>
</g>
<!-- Node13&#45;&gt;Node19 -->
<g id="edge19" class="edge"><title>Node13&#45;&gt;Node19</title>
<path fill="none" stroke="midnightblue" d="M243.713,-114.593C205.134,-105.536 134.131,-88.8655 87.2362,-77.8554"/>
<polygon fill="midnightblue" stroke="midnightblue" points="87.8605,-74.4069 77.3252,-75.5285 86.2605,-81.2216 87.8605,-74.4069"/>
</g>
<!-- Node13&#45;&gt;Node6 -->
<g id="edge20" class="edge"><title>Node13&#45;&gt;Node6</title>
<path fill="none" stroke="midnightblue" d="M298.062,-117.252C351.751,-109.805 475.796,-92.553 591.173,-76.1122"/>
<polygon fill="midnightblue" stroke="midnightblue" points="591.832,-79.5538 601.237,-74.6769 590.843,-72.6239 591.832,-79.5538"/>
</g>
<!-- Node20&#45;&gt;Node2 -->
<g id="edge22" class="edge"><title>Node20&#45;&gt;Node2</title>
<path fill="none" stroke="midnightblue" d="M650.424,-168.124C647.668,-154.718 640.893,-129.064 627,-112 616.105,-98.6186 600.14,-87.9283 586.206,-80.3307"/>
<polygon fill="midnightblue" stroke="midnightblue" points="587.464,-77.0414 576.972,-75.5698 584.256,-83.2632 587.464,-77.0414"/>
</g>
<!-- Node21 -->
<g id="node21" class="node"><title>Node21</title>
<polygon fill="white" stroke="#bfbfbf" points="544,-112.5 544,-131.5 618,-131.5 618,-112.5 544,-112.5"/>
<text text-anchor="middle" x="581" y="-119.5" font-family="Helvetica,sans-Serif" font-size="10.00">QVariantMap</text>
</g>
<!-- Node20&#45;&gt;Node21 -->
<g id="edge23" class="edge"><title>Node20&#45;&gt;Node21</title>
<path fill="none" stroke="midnightblue" d="M640.593,-168.324C629.891,-160.185 613.659,-147.839 600.837,-138.087"/>
<polygon fill="midnightblue" stroke="midnightblue" points="602.693,-135.102 592.615,-131.834 598.456,-140.673 602.693,-135.102"/>
</g>
<!-- Node20&#45;&gt;Node22 -->
<g id="edge24" class="edge"><title>Node20&#45;&gt;Node22</title>
<path fill="none" stroke="midnightblue" d="M667.745,-168.324C683.319,-159.743 707.377,-146.486 725.459,-136.522"/>
<polygon fill="midnightblue" stroke="midnightblue" points="727.224,-139.546 734.294,-131.655 723.846,-133.415 727.224,-139.546"/>
</g>
<!-- Node20&#45;&gt;Node6 -->
<g id="edge27" class="edge"><title>Node20&#45;&gt;Node6</title>
<path fill="none" stroke="midnightblue" d="M653.987,-168.433C655.967,-159.424 658.871,-144.805 660,-132 661.371,-116.458 659.532,-98.8342 657.539,-85.8622"/>
<polygon fill="midnightblue" stroke="midnightblue" points="660.959,-85.0971 655.825,-75.8293 654.059,-86.2759 660.959,-85.0971"/>
</g>
<!-- Node23 -->
<g id="node23" class="node"><title>Node23</title>
<polygon fill="white" stroke="#bfbfbf" points="793.5,-56.5 793.5,-75.5 848.5,-75.5 848.5,-56.5 793.5,-56.5"/>
<text text-anchor="middle" x="821" y="-63.5" font-family="Helvetica,sans-Serif" font-size="10.00">QVariant</text>
</g>
<!-- Node22&#45;&gt;Node23 -->
<g id="edge25" class="edge"><title>Node22&#45;&gt;Node23</title>
<path fill="none" stroke="midnightblue" d="M761.407,-112.324C772.109,-104.185 788.341,-91.8395 801.163,-82.0874"/>
<polygon fill="midnightblue" stroke="midnightblue" points="803.544,-84.6734 809.385,-75.8339 799.307,-79.1018 803.544,-84.6734"/>
</g>
<!-- Node22&#45;&gt;Node14 -->
<g id="edge26" class="edge"><title>Node22&#45;&gt;Node14</title>
<path fill="none" stroke="midnightblue" d="M750,-112.083C750,-105.006 750,-94.8611 750,-85.9865"/>
<polygon fill="midnightblue" stroke="midnightblue" points="753.5,-85.751 750,-75.7511 746.5,-85.7511 753.5,-85.751"/>
</g>
<!-- Node24&#45;&gt;Node2 -->
<g id="edge30" class="edge"><title>Node24&#45;&gt;Node2</title>
<path fill="none" stroke="midnightblue" d="M802.487,-112.795C750.268,-105.017 670.947,-92.3861 593.608,-76.2101"/>
<polygon fill="midnightblue" stroke="midnightblue" points="594.205,-72.7591 583.698,-74.1152 592.758,-79.6078 594.205,-72.7591"/>
</g>
<!-- Node24&#45;&gt;Node14 -->
<g id="edge31" class="edge"><title>Node24&#45;&gt;Node14</title>
<path fill="none" stroke="midnightblue" d="M842.327,-112.324C824.606,-103.625 797.097,-90.1202 776.712,-80.113"/>
<polygon fill="midnightblue" stroke="midnightblue" points="778.149,-76.9195 767.63,-75.6545 775.064,-83.2031 778.149,-76.9195"/>
</g>
<!-- Node24&#45;&gt;Node23 -->
<g id="edge32" class="edge"><title>Node24&#45;&gt;Node23</title>
<path fill="none" stroke="midnightblue" d="M853.56,-112.083C848.051,-104.455 839.969,-93.2645 833.235,-83.9408"/>
<polygon fill="midnightblue" stroke="midnightblue" points="836.013,-81.8087 827.32,-75.7511 830.338,-85.9071 836.013,-81.8087"/>
</g>
<!-- Node24&#45;&gt;Node8 -->
<g id="edge33" class="edge"><title>Node24&#45;&gt;Node8</title>
<path fill="none" stroke="midnightblue" d="M860.742,-112.412C861.579,-99.8048 862.214,-75.6543 857,-56 854.441,-46.3535 849.615,-36.395 845.042,-28.3063"/>
<polygon fill="midnightblue" stroke="midnightblue" points="847.909,-26.2828 839.759,-19.514 841.909,-29.8882 847.909,-26.2828"/>
</g>
<!-- Node24&#45;&gt;Node6 -->
<g id="edge34" class="edge"><title>Node24&#45;&gt;Node6</title>
<path fill="none" stroke="midnightblue" d="M827.359,-112.444C791.95,-103.162 735.291,-88.3093 696.447,-78.127"/>
<polygon fill="midnightblue" stroke="midnightblue" points="697.049,-74.6666 686.489,-75.5164 695.274,-81.4378 697.049,-74.6666"/>
</g>
<!-- Node26 -->
<g id="node26" class="node"><title>Node26</title>
<g id="a_node26"><a xlink:href="../../db/d70/eventchat_8h.xhtml" target="_top" xlink:title="eventchat.h">
<polygon fill="white" stroke="black" points="1199,-168.5 1199,-187.5 1265,-187.5 1265,-168.5 1199,-168.5"/>
<text text-anchor="middle" x="1232" y="-175.5" font-family="Helvetica,sans-Serif" font-size="10.00">eventchat.h</text>
</a>
</g>
</g>
<!-- Node25&#45;&gt;Node26 -->
<g id="edge36" class="edge"><title>Node25&#45;&gt;Node26</title>
<path fill="none" stroke="midnightblue" d="M1094.97,-224.933C1125.93,-214.553 1167.59,-200.589 1196.82,-190.792"/>
<polygon fill="midnightblue" stroke="midnightblue" points="1198.23,-194.009 1206.6,-187.513 1196.01,-187.372 1198.23,-194.009"/>
</g>
<!-- Node27 -->
<g id="node27" class="node"><title>Node27</title>
<g id="a_node27"><a xlink:href="../../d5/d02/eventuserjoin_8h.xhtml" target="_top" xlink:title="eventuserjoin.h">
<polygon fill="white" stroke="black" points="1283.5,-168.5 1283.5,-187.5 1364.5,-187.5 1364.5,-168.5 1283.5,-168.5"/>
<text text-anchor="middle" x="1324" y="-175.5" font-family="Helvetica,sans-Serif" font-size="10.00">eventuserjoin.h</text>
</a>
</g>
</g>
<!-- Node25&#45;&gt;Node27 -->
<g id="edge38" class="edge"><title>Node25&#45;&gt;Node27</title>
<path fill="none" stroke="midnightblue" d="M1102.71,-227.995C1151.92,-217.098 1226.79,-200.522 1275.56,-189.724"/>
<polygon fill="midnightblue" stroke="midnightblue" points="1276.55,-193.091 1285.55,-187.512 1275.03,-186.256 1276.55,-193.091"/>
</g>
<!-- Node28 -->
<g id="node28" class="node"><title>Node28</title>
<g id="a_node28"><a xlink:href="../../d7/d56/eventuserleave_8h.xhtml" target="_top" xlink:title="eventuserleave.h">
<polygon fill="white" stroke="black" points="816,-168.5 816,-187.5 904,-187.5 904,-168.5 816,-168.5"/>
<text text-anchor="middle" x="860" y="-175.5" font-family="Helvetica,sans-Serif" font-size="10.00">eventuserleave.h</text>
</a>
</g>
</g>
<!-- Node25&#45;&gt;Node28 -->
<g id="edge40" class="edge"><title>Node25&#45;&gt;Node28</title>
<path fill="none" stroke="midnightblue" d="M1007.75,-224.933C974.071,-214.462 928.658,-200.345 897.107,-190.536"/>
<polygon fill="midnightblue" stroke="midnightblue" points="897.971,-187.139 887.382,-187.513 895.893,-193.824 897.971,-187.139"/>
</g>
<!-- Node29 -->
<g id="node29" class="node"><title>Node29</title>
<g id="a_node29"><a xlink:href="../../db/db0/eventuserchangestatus_8h.xhtml" target="_top" xlink:title="eventuserchangestatus.h">
<polygon fill="white" stroke="black" points="921.5,-168.5 921.5,-187.5 1046.5,-187.5 1046.5,-168.5 921.5,-168.5"/>
<text text-anchor="middle" x="984" y="-175.5" font-family="Helvetica,sans-Serif" font-size="10.00">eventuserchangestatus.h</text>
</a>
</g>
</g>
<!-- Node25&#45;&gt;Node29 -->
<g id="edge42" class="edge"><title>Node25&#45;&gt;Node29</title>
<path fill="none" stroke="midnightblue" d="M1036.65,-224.781C1026.1,-215.613 1012.4,-203.696 1001.62,-194.319"/>
<polygon fill="midnightblue" stroke="midnightblue" points="1003.88,-191.651 994.04,-187.731 999.29,-196.933 1003.88,-191.651"/>
</g>
<!-- Node30 -->
<g id="node30" class="node"><title>Node30</title>
<g id="a_node30"><a xlink:href="../../d8/d44/eventuserchangenick_8h.xhtml" target="_top" xlink:title="eventuserchangenick.h">
<polygon fill="white" stroke="black" points="1065,-168.5 1065,-187.5 1181,-187.5 1181,-168.5 1065,-168.5"/>
<text text-anchor="middle" x="1123" y="-175.5" font-family="Helvetica,sans-Serif" font-size="10.00">eventuserchangenick.h</text>
</a>
</g>
</g>
<!-- Node25&#45;&gt;Node30 -->
<g id="edge44" class="edge"><title>Node25&#45;&gt;Node30</title>
<path fill="none" stroke="midnightblue" d="M1069.59,-224.781C1080.29,-215.613 1094.19,-203.696 1105.13,-194.319"/>
<polygon fill="midnightblue" stroke="midnightblue" points="1107.5,-196.896 1112.81,-187.731 1102.94,-191.581 1107.5,-196.896"/>
</g>
<!-- Node26&#45;&gt;Node24 -->
<g id="edge37" class="edge"><title>Node26&#45;&gt;Node24</title>
<path fill="none" stroke="midnightblue" d="M1198.71,-169.791C1195.43,-169.154 1192.16,-168.546 1189,-168 1098.9,-152.429 994.155,-138.879 927.499,-130.822"/>
<polygon fill="midnightblue" stroke="midnightblue" points="927.888,-127.344 917.542,-129.626 927.052,-134.294 927.888,-127.344"/>
</g>
<!-- Node27&#45;&gt;Node24 -->
<g id="edge39" class="edge"><title>Node27&#45;&gt;Node24</title>
<path fill="none" stroke="midnightblue" d="M1283.38,-169.444C1280.21,-168.929 1277.06,-168.44 1274,-168 1152.54,-150.489 1010.14,-136.416 927.965,-128.92"/>
<polygon fill="midnightblue" stroke="midnightblue" points="928.033,-125.412 917.758,-127.994 927.401,-132.383 928.033,-125.412"/>
</g>
<!-- Node28&#45;&gt;Node24 -->
<g id="edge41" class="edge"><title>Node28&#45;&gt;Node24</title>
<path fill="none" stroke="midnightblue" d="M860,-168.083C860,-161.006 860,-150.861 860,-141.986"/>
<polygon fill="midnightblue" stroke="midnightblue" points="863.5,-141.751 860,-131.751 856.5,-141.751 863.5,-141.751"/>
</g>
<!-- Node29&#45;&gt;Node24 -->
<g id="edge43" class="edge"><title>Node29&#45;&gt;Node24</title>
<path fill="none" stroke="midnightblue" d="M964.352,-168.444C944.035,-159.596 912.097,-145.687 888.902,-135.586"/>
<polygon fill="midnightblue" stroke="midnightblue" points="890.122,-132.3 879.556,-131.516 887.327,-138.718 890.122,-132.3"/>
</g>
<!-- Node30&#45;&gt;Node24 -->
<g id="edge45" class="edge"><title>Node30&#45;&gt;Node24</title>
<path fill="none" stroke="midnightblue" d="M1081.33,-168.444C1035.25,-158.984 961.004,-143.738 911.369,-133.547"/>
<polygon fill="midnightblue" stroke="midnightblue" points="911.978,-130.099 901.478,-131.516 910.57,-136.956 911.978,-130.099"/>
</g>
</g>
</svg>
        <g id="navigator" transform="translate(0 0)" fill="#404254">
                <rect fill="#f2f5e9" fill-opacity="0.5" stroke="#606060" stroke-width=".5" x="0" y="0" width="60" height="60"/>
                <use id="zoomplus" xlink:href="#zoomPlus" x="17" y="9" onmousedown="handleZoom(evt,'in')"/>
                <use id="zoomminus" xlink:href="#zoomMin" x="42" y="9" onmousedown="handleZoom(evt,'out')"/>
                <use id="reset" xlink:href="#resetDef" x="30" y="36" onmousedown="handleReset()"/>
                <g id="arrowUp" xlink:href="#dirArrow" transform="translate(30 24)" onmousedown="handlePan(0,-1)">
                  <use xlink:href="#rim" fill="#404040">
                        <set attributeName="fill" to="#808080" begin="arrowUp.mouseover" end="arrowUp.mouseout"/>
                  </use>
                  <path fill="none" stroke="white" stroke-width="1.5" d="M0,-3.0v7 M-2.5,-0.5L0,-3.0L2.5,-0.5"/>
                </g>
                <g id="arrowRight" xlink:href="#dirArrow" transform="rotate(90) translate(36 -43)" onmousedown="handlePan(1,0)">
                  <use xlink:href="#rim" fill="#404040">
                        <set attributeName="fill" to="#808080" begin="arrowRight.mouseover" end="arrowRight.mouseout"/>
                  </use>
                  <path fill="none" stroke="white" stroke-width="1.5" d="M0,-3.0v7 M-2.5,-0.5L0,-3.0L2.5,-0.5"/>
                </g>
                <g id="arrowDown" xlink:href="#dirArrow" transform="rotate(180) translate(-30 -48)" onmousedown="handlePan(0,1)">
                  <use xlink:href="#rim" fill="#404040">
                        <set attributeName="fill" to="#808080" begin="arrowDown.mouseover" end="arrowDown.mouseout"/>
                  </use>
                  <path fill="none" stroke="white" stroke-width="1.5" d="M0,-3.0v7 M-2.5,-0.5L0,-3.0L2.5,-0.5"/>
                </g>
                <g id="arrowLeft" xlink:href="#dirArrow" transform="rotate(270) translate(-36 17)" onmousedown="handlePan(-1,0)">
                  <use xlink:href="#rim" fill="#404040">
                        <set attributeName="fill" to="#808080" begin="arrowLeft.mouseover" end="arrowLeft.mouseout"/>
                  </use>
                  <path fill="none" stroke="white" stroke-width="1.5" d="M0,-3.0v7 M-2.5,-0.5L0,-3.0L2.5,-0.5"/>
                </g>
        </g>
        <svg viewBox="0 0 15 15" width="100%" height="30px" preserveAspectRatio="xMaxYMin meet">
         <g id="arrow_out" transform="scale(0.3 0.3)">
          <a xlink:href="clsserverconn_8h__incl_org.svg" target="_base">
           <rect id="button" ry="5" rx="5" y="6" x="6" height="38" width="38"
                fill="#f2f5e9" fill-opacity="0.5" stroke="#606060" stroke-width="1.0"/>
           <path id="arrow"
             d="M 11.500037,31.436501 C 11.940474,20.09759 22.043105,11.32322 32.158766,21.979434 L 37.068811,17.246167 C 37.068811,17.246167 37.088388,32 37.088388,32 L 22.160133,31.978069 C 22.160133,31.978069 26.997745,27.140456 26.997745,27.140456 C 18.528582,18.264221 13.291696,25.230495 11.500037,31.436501 z"
             style="fill:#404040;"/>
          </a>
         </g>
        </svg>
</svg>
