<?xml version="1.0" encoding="UTF-8" standalone="no"?>
<!DOCTYPE svg PUBLIC "-//W3C//DTD SVG 1.1//EN"
 "http://www.w3.org/Graphics/SVG/1.1/DTD/svg11.dtd">
<!-- Generated by graphviz version 2.30.1 (20130303.0817)
 -->
<!-- Title: C++/customIrcClient/clsserverconn.h Pages: 1 -->
<svg width="1504pt" height="332pt"
 viewBox="0.00 0.00 1504.00 332.00" xmlns="http://www.w3.org/2000/svg" xmlns:xlink="http://www.w3.org/1999/xlink">
<g id="graph0" class="graph" transform="scale(1 1) rotate(0) translate(4 328)">
<title>C++/customIrcClient/clsserverconn.h</title>
<polygon fill="white" stroke="white" points="-4,5 -4,-328 1501,-328 1501,5 -4,5"/>
<!-- Node1 -->
<g id="node1" class="node"><title>Node1</title>
<polygon fill="#bfbfbf" stroke="black" points="515,-293 515,-323 621,-323 621,-293 515,-293"/>
<text text-anchor="start" x="523" y="-311" font-family="Helvetica,sans-Serif" font-size="10.00">C++/customIrcClient</text>
<text text-anchor="middle" x="568" y="-300" font-family="Helvetica,sans-Serif" font-size="10.00">/clsserverconn.h</text>
</g>
<!-- Node2 -->
<g id="node2" class="node"><title>Node2</title>
<polygon fill="white" stroke="#bfbfbf" points="530.5,-56.5 530.5,-75.5 583.5,-75.5 583.5,-56.5 530.5,-56.5"/>
<text text-anchor="middle" x="557" y="-63.5" font-family="Helvetica,sans-Serif" font-size="10.00">QObject</text>
</g>
<!-- Node1&#45;&gt;Node2 -->
<g id="edge1" class="edge"><title>Node1&#45;&gt;Node2</title>
<path fill="none" stroke="midnightblue" d="M514.774,-306.368C433.909,-304.153 285.989,-294.76 253,-256 243.782,-245.17 245.602,-236.147 253,-224 283.838,-173.366 451.412,-106.241 523.738,-79.1264"/>
<polygon fill="midnightblue" stroke="midnightblue" points="525.136,-82.3405 533.287,-75.5718 522.694,-75.7802 525.136,-82.3405"/>
</g>
<!-- Node3 -->
<g id="node3" class="node"><title>Node3</title>
<polygon fill="white" stroke="#bfbfbf" points="262,-230.5 262,-249.5 332,-249.5 332,-230.5 262,-230.5"/>
<text text-anchor="middle" x="297" y="-237.5" font-family="Helvetica,sans-Serif" font-size="10.00">QTcpSocket</text>
</g>
<!-- Node1&#45;&gt;Node3 -->
<g id="edge2" class="edge"><title>Node1&#45;&gt;Node3</title>
<path fill="none" stroke="midnightblue" d="M514.848,-296.744C468.586,-287.417 399.898,-272.604 341,-256 337.451,-255 333.767,-253.878 330.11,-252.712"/>
<polygon fill="midnightblue" stroke="midnightblue" points="331.195,-249.384 320.602,-249.568 328.997,-256.03 331.195,-249.384"/>
</g>
<!-- Node4 -->
<g id="node4" class="node"><title>Node4</title>
<polygon fill="white" stroke="#bfbfbf" points="350,-230.5 350,-249.5 424,-249.5 424,-230.5 350,-230.5"/>
<text text-anchor="middle" x="387" y="-237.5" font-family="Helvetica,sans-Serif" font-size="10.00">QTextStream</text>
</g>
<!-- Node1&#45;&gt;Node4 -->
<g id="edge3" class="edge"><title>Node1&#45;&gt;Node4</title>
<path fill="none" stroke="midnightblue" d="M529.171,-292.841C496.646,-280.982 450.732,-264.239 419.968,-253.022"/>
<polygon fill="midnightblue" stroke="midnightblue" points="421.143,-249.724 410.549,-249.587 418.745,-256.301 421.143,-249.724"/>
</g>
<!-- Node5 -->
<g id="node5" class="node"><title>Node5</title>
<polygon fill="white" stroke="#bfbfbf" points="442.5,-230.5 442.5,-249.5 487.5,-249.5 487.5,-230.5 442.5,-230.5"/>
<text text-anchor="middle" x="465" y="-237.5" font-family="Helvetica,sans-Serif" font-size="10.00">QTime</text>
</g>
<!-- Node1&#45;&gt;Node5 -->
<g id="edge4" class="edge"><title>Node1&#45;&gt;Node5</title>
<path fill="none" stroke="midnightblue" d="M545.904,-292.841C528.647,-281.784 504.766,-266.481 487.426,-255.37"/>
<polygon fill="midnightblue" stroke="midnightblue" points="488.857,-252.13 478.549,-249.682 485.08,-258.024 488.857,-252.13"/>
</g>
<!-- Node6 -->
<g id="node6" class="node"><title>Node6</title>
<g id="a_node6"><a xlink:href="../../d7/d62/clslog_8h.html" target="_top" xlink:title="../resources/clslog.h">
<polygon fill="white" stroke="black" points="601.5,-56.5 601.5,-75.5 706.5,-75.5 706.5,-56.5 601.5,-56.5"/>
<text text-anchor="middle" x="654" y="-63.5" font-family="Helvetica,sans-Serif" font-size="10.00">../resources/clslog.h</text>
</a>
</g>
</g>
<!-- Node1&#45;&gt;Node6 -->
<g id="edge5" class="edge"><title>Node1&#45;&gt;Node6</title>
<path fill="none" stroke="midnightblue" d="M555.723,-292.955C548.122,-283.289 539.062,-269.755 535,-256 516.874,-194.621 498.619,-164.653 535,-112 543.884,-99.1432 579.305,-86.7506 609.212,-78.2373"/>
<polygon fill="midnightblue" stroke="midnightblue" points="610.391,-81.5426 619.097,-75.5038 608.525,-74.7958 610.391,-81.5426"/>
</g>
<!-- Node12 -->
<g id="node12" class="node"><title>Node12</title>
<polygon fill="white" stroke="#bfbfbf" points="544,-230.5 544,-249.5 592,-249.5 592,-230.5 544,-230.5"/>
<text text-anchor="middle" x="568" y="-237.5" font-family="Helvetica,sans-Serif" font-size="10.00">QTimer</text>
</g>
<!-- Node1&#45;&gt;Node12 -->
<g id="edge11" class="edge"><title>Node1&#45;&gt;Node12</title>
<path fill="none" stroke="midnightblue" d="M568,-292.679C568,-283.101 568,-270.394 568,-259.977"/>
<polygon fill="midnightblue" stroke="midnightblue" points="571.5,-259.828 568,-249.828 564.5,-259.828 571.5,-259.828"/>
</g>
<!-- Node13 -->
<g id="node13" class="node"><title>Node13</title>
<g id="a_node13"><a xlink:href="../../d5/d98/custom_irc_client_2ircuser_8h.html" target="_top" xlink:title="ircuser.h">
<polygon fill="white" stroke="black" points="244,-112.5 244,-131.5 298,-131.5 298,-112.5 244,-112.5"/>
<text text-anchor="middle" x="271" y="-119.5" font-family="Helvetica,sans-Serif" font-size="10.00">ircuser.h</text>
</a>
</g>
</g>
<!-- Node1&#45;&gt;Node13 -->
<g id="edge12" class="edge"><title>Node1&#45;&gt;Node13</title>
<path fill="none" stroke="midnightblue" d="M581.451,-292.982C596.513,-275.539 616.862,-245.443 601,-224 565.621,-176.173 386.556,-141.771 308.014,-128.745"/>
<polygon fill="midnightblue" stroke="midnightblue" points="308.498,-125.278 298.065,-127.121 307.37,-132.186 308.498,-125.278"/>
</g>
<!-- Node20 -->
<g id="node20" class="node"><title>Node20</title>
<g id="a_node20"><a xlink:href="../../dc/d96/jsoncommand_8h.html" target="_top" xlink:title="../resources/jsoncommand.h">
<polygon fill="white" stroke="black" points="582,-168.5 582,-187.5 722,-187.5 722,-168.5 582,-168.5"/>
<text text-anchor="middle" x="652" y="-175.5" font-family="Helvetica,sans-Serif" font-size="10.00">../resources/jsoncommand.h</text>
</a>
</g>
</g>
<!-- Node1&#45;&gt;Node20 -->
<g id="edge21" class="edge"><title>Node1&#45;&gt;Node20</title>
<path fill="none" stroke="midnightblue" d="M593.812,-292.986C607.735,-284.143 624.056,-271.47 634,-256 645.339,-238.36 649.555,-214.356 651.111,-197.864"/>
<polygon fill="midnightblue" stroke="midnightblue" points="654.607,-198.038 651.819,-187.817 647.625,-197.546 654.607,-198.038"/>
</g>
<!-- Node22 -->
<g id="node22" class="node"><title>Node22</title>
<g id="a_node22"><a xlink:href="../../d4/d05/json_8h.html" target="_top" xlink:title="json.h">
<polygon fill="white" stroke="black" points="728.5,-112.5 728.5,-131.5 771.5,-131.5 771.5,-112.5 728.5,-112.5"/>
<text text-anchor="middle" x="750" y="-119.5" font-family="Helvetica,sans-Serif" font-size="10.00">json.h</text>
</a>
</g>
</g>
<!-- Node1&#45;&gt;Node22 -->
<g id="edge28" class="edge"><title>Node1&#45;&gt;Node22</title>
<path fill="none" stroke="midnightblue" d="M599.737,-292.954C637.411,-274.538 699.134,-238.53 731,-188 739.917,-173.86 744.79,-155.375 747.36,-141.734"/>
<polygon fill="midnightblue" stroke="midnightblue" points="750.855,-142.051 749.016,-131.617 743.947,-140.92 750.855,-142.051"/>
</g>
<!-- Node24 -->
<g id="node24" class="node"><title>Node24</title>
<g id="a_node24"><a xlink:href="../../db/d97/clsevent_8h.html" target="_top" xlink:title="../resources/clsevent.h">
<polygon fill="white" stroke="black" points="805.5,-112.5 805.5,-131.5 920.5,-131.5 920.5,-112.5 805.5,-112.5"/>
<text text-anchor="middle" x="863" y="-119.5" font-family="Helvetica,sans-Serif" font-size="10.00">../resources/clsevent.h</text>
</a>
</g>
</g>
<!-- Node1&#45;&gt;Node24 -->
<g id="edge29" class="edge"><title>Node1&#45;&gt;Node24</title>
<path fill="none" stroke="midnightblue" d="M613.484,-292.988C639.178,-284.146 671.38,-271.473 698,-256 751.829,-224.711 758.511,-207.056 807,-168 819.416,-157.999 833.395,-146.766 844.281,-138.025"/>
<polygon fill="midnightblue" stroke="midnightblue" points="846.652,-140.609 852.259,-131.62 842.27,-135.151 846.652,-140.609"/>
</g>
<!-- Node25 -->
<g id="node25" class="node"><title>Node25</title>
<g id="a_node25"><a xlink:href="../../db/dd2/events_8h.html" target="_top" xlink:title="../resources/events\l/events.h">
<polygon fill="white" stroke="black" points="994.5,-225 994.5,-255 1093.5,-255 1093.5,-225 994.5,-225"/>
<text text-anchor="start" x="1002.5" y="-243" font-family="Helvetica,sans-Serif" font-size="10.00">../resources/events</text>
<text text-anchor="middle" x="1044" y="-232" font-family="Helvetica,sans-Serif" font-size="10.00">/events.h</text>
</a>
</g>
</g>
<!-- Node1&#45;&gt;Node25 -->
<g id="edge35" class="edge"><title>Node1&#45;&gt;Node25</title>
<path fill="none" stroke="midnightblue" d="M621.218,-299.621C710.659,-287.22 890.508,-262.283 984.188,-249.293"/>
<polygon fill="midnightblue" stroke="midnightblue" points="984.926,-252.725 994.35,-247.884 983.964,-245.791 984.926,-252.725"/>
</g>
<!-- Node7 -->
<g id="node7" class="node"><title>Node7</title>
<polygon fill="white" stroke="#bfbfbf" points="667,-0.5 667,-19.5 719,-19.5 719,-0.5 667,-0.5"/>
<text text-anchor="middle" x="693" y="-7.5" font-family="Helvetica,sans-Serif" font-size="10.00">QDebug</text>
</g>
<!-- Node6&#45;&gt;Node7 -->
<g id="edge6" class="edge"><title>Node6&#45;&gt;Node7</title>
<path fill="none" stroke="midnightblue" d="M660.44,-56.083C665.949,-48.4554 674.031,-37.2645 680.765,-27.9408"/>
<polygon fill="midnightblue" stroke="midnightblue" points="683.662,-29.9071 686.68,-19.7511 677.987,-25.8087 683.662,-29.9071"/>
</g>
<!-- Node8 -->
<g id="node8" class="node"><title>Node8</title>
<polygon fill="white" stroke="#bfbfbf" points="801.5,-0.5 801.5,-19.5 866.5,-19.5 866.5,-0.5 801.5,-0.5"/>
<text text-anchor="middle" x="834" y="-7.5" font-family="Helvetica,sans-Serif" font-size="10.00">QDateTime</text>
</g>
<!-- Node6&#45;&gt;Node8 -->
<g id="edge7" class="edge"><title>Node6&#45;&gt;Node8</title>
<path fill="none" stroke="midnightblue" d="M682.522,-56.4435C713.066,-47.2801 761.708,-32.6876 795.603,-22.5192"/>
<polygon fill="midnightblue" stroke="midnightblue" points="797.039,-25.7424 805.612,-19.5164 795.028,-19.0376 797.039,-25.7424"/>
</g>
<!-- Node9 -->
<g id="node9" class="node"><title>Node9</title>
<polygon fill="white" stroke="#bfbfbf" points="737.5,-0.5 737.5,-19.5 778.5,-19.5 778.5,-0.5 737.5,-0.5"/>
<text text-anchor="middle" x="758" y="-7.5" font-family="Helvetica,sans-Serif" font-size="10.00">string</text>
</g>
<!-- Node6&#45;&gt;Node9 -->
<g id="edge8" class="edge"><title>Node6&#45;&gt;Node9</title>
<path fill="none" stroke="midnightblue" d="M670.709,-56.324C687.312,-47.7034 713.002,-34.3643 732.22,-24.3855"/>
<polygon fill="midnightblue" stroke="midnightblue" points="734.07,-27.3689 741.332,-19.6545 730.844,-21.1565 734.07,-27.3689"/>
</g>
<!-- Node10 -->
<g id="node10" class="node"><title>Node10</title>
<polygon fill="white" stroke="#bfbfbf" points="511,-0.5 511,-19.5 565,-19.5 565,-0.5 511,-0.5"/>
<text text-anchor="middle" x="538" y="-7.5" font-family="Helvetica,sans-Serif" font-size="10.00">iostream</text>
</g>
<!-- Node6&#45;&gt;Node10 -->
<g id="edge9" class="edge"><title>Node6&#45;&gt;Node10</title>
<path fill="none" stroke="midnightblue" d="M635.619,-56.4435C616.784,-47.6751 587.269,-33.9355 565.621,-23.8579"/>
<polygon fill="midnightblue" stroke="midnightblue" points="566.838,-20.5637 556.295,-19.5164 563.883,-26.9098 566.838,-20.5637"/>
</g>
<!-- Node11 -->
<g id="node11" class="node"><title>Node11</title>
<polygon fill="white" stroke="#bfbfbf" points="583.5,-0.5 583.5,-19.5 648.5,-19.5 648.5,-0.5 583.5,-0.5"/>
<text text-anchor="middle" x="616" y="-7.5" font-family="Helvetica,sans-Serif" font-size="10.00">QStringList</text>
</g>
<!-- Node6&#45;&gt;Node11 -->
<g id="edge10" class="edge"><title>Node6&#45;&gt;Node11</title>
<path fill="none" stroke="midnightblue" d="M647.725,-56.083C642.358,-48.4554 634.482,-37.2645 627.921,-27.9408"/>
<polygon fill="midnightblue" stroke="midnightblue" points="630.775,-25.9149 622.158,-19.7511 625.051,-29.9434 630.775,-25.9149"/>
</g>
<!-- Node13&#45;&gt;Node2 -->
<g id="edge13" class="edge"><title>Node13&#45;&gt;Node2</title>
<path fill="none" stroke="midnightblue" d="M298.311,-114.824C302.875,-113.844 307.566,-112.868 312,-112 401.429,-94.4919 427.084,-95.3623 520.45,-75.9766"/>
<polygon fill="midnightblue" stroke="midnightblue" points="521.247,-79.3858 530.315,-73.9061 519.809,-72.535 521.247,-79.3858"/>
</g>
<!-- Node14 -->
<g id="node14" class="node"><title>Node14</title>
<polygon fill="white" stroke="#bfbfbf" points="725,-56.5 725,-75.5 775,-75.5 775,-56.5 725,-56.5"/>
<text text-anchor="middle" x="750" y="-63.5" font-family="Helvetica,sans-Serif" font-size="10.00">QString</text>
</g>
<!-- Node13&#45;&gt;Node14 -->
<g id="edge14" class="edge"><title>Node13&#45;&gt;Node14</title>
<path fill="none" stroke="midnightblue" d="M298.226,-119.671C367.982,-115.959 558.633,-103.864 715,-76 715.1,-75.9821 715.201,-75.9641 715.302,-75.9459"/>
<polygon fill="midnightblue" stroke="midnightblue" points="715.792,-79.4191 724.864,-73.9465 714.36,-72.5672 715.792,-79.4191"/>
</g>
<!-- Node15 -->
<g id="node15" class="node"><title>Node15</title>
<polygon fill="white" stroke="#bfbfbf" points="101.5,-56.5 101.5,-75.5 148.5,-75.5 148.5,-56.5 101.5,-56.5"/>
<text text-anchor="middle" x="125" y="-63.5" font-family="Helvetica,sans-Serif" font-size="10.00">QColor</text>
</g>
<!-- Node13&#45;&gt;Node15 -->
<g id="edge15" class="edge"><title>Node13&#45;&gt;Node15</title>
<path fill="none" stroke="midnightblue" d="M247.866,-112.444C223.518,-103.438 184.993,-89.1891 157.577,-79.049"/>
<polygon fill="midnightblue" stroke="midnightblue" points="158.619,-75.7028 148.026,-75.5164 156.191,-82.2681 158.619,-75.7028"/>
</g>
<!-- Node16 -->
<g id="node16" class="node"><title>Node16</title>
<polygon fill="white" stroke="#bfbfbf" points="167,-56.5 167,-75.5 251,-75.5 251,-56.5 167,-56.5"/>
<text text-anchor="middle" x="209" y="-63.5" font-family="Helvetica,sans-Serif" font-size="10.00">QGraphicsView</text>
</g>
<!-- Node13&#45;&gt;Node16 -->
<g id="edge16" class="edge"><title>Node13&#45;&gt;Node16</title>
<path fill="none" stroke="midnightblue" d="M261.039,-112.324C251.873,-104.341 238.063,-92.3128 226.972,-82.6529"/>
<polygon fill="midnightblue" stroke="midnightblue" points="228.982,-79.7624 219.143,-75.8339 224.385,-85.041 228.982,-79.7624"/>
</g>
<!-- Node17 -->
<g id="node17" class="node"><title>Node17</title>
<polygon fill="white" stroke="#bfbfbf" points="269,-56.5 269,-75.5 399,-75.5 399,-56.5 269,-56.5"/>
<text text-anchor="middle" x="334" y="-63.5" font-family="Helvetica,sans-Serif" font-size="10.00">QNetworkAccessManager</text>
</g>
<!-- Node13&#45;&gt;Node17 -->
<g id="edge17" class="edge"><title>Node13&#45;&gt;Node17</title>
<path fill="none" stroke="midnightblue" d="M281.122,-112.324C290.526,-104.263 304.744,-92.0765 316.069,-82.3695"/>
<polygon fill="midnightblue" stroke="midnightblue" points="318.379,-84.9993 323.694,-75.8339 313.823,-79.6844 318.379,-84.9993"/>
</g>
<!-- Node18 -->
<g id="node18" class="node"><title>Node18</title>
<polygon fill="white" stroke="#bfbfbf" points="417.5,-56.5 417.5,-75.5 512.5,-75.5 512.5,-56.5 417.5,-56.5"/>
<text text-anchor="middle" x="465" y="-63.5" font-family="Helvetica,sans-Serif" font-size="10.00">QNetworkRequest</text>
</g>
<!-- Node13&#45;&gt;Node18 -->
<g id="edge18" class="edge"><title>Node13&#45;&gt;Node18</title>
<path fill="none" stroke="midnightblue" d="M298.384,-113.378C331.27,-104.224 386.72,-88.7892 424.545,-78.2607"/>
<polygon fill="midnightblue" stroke="midnightblue" points="425.539,-81.6171 434.234,-75.5637 423.662,-74.8735 425.539,-81.6171"/>
</g>
<!-- Node19 -->
<g id="node19" class="node"><title>Node19</title>
<polygon fill="white" stroke="#bfbfbf" points="-1,-56.5 -1,-75.5 83,-75.5 83,-56.5 -1,-56.5"/>
<text text-anchor="middle" x="41" y="-63.5" font-family="Helvetica,sans-Serif" font-size="10.00">QNetworkReply</text>
</g>
<!-- Node13&#45;&gt;Node19 -->
<g id="edge19" class="edge"><title>Node13&#45;&gt;Node19</title>
<path fill="none" stroke="midnightblue" d="M243.713,-114.593C205.134,-105.536 134.131,-88.8655 87.2362,-77.8554"/>
<polygon fill="midnightblue" stroke="midnightblue" points="87.8605,-74.4069 77.3252,-75.5285 86.2605,-81.2216 87.8605,-74.4069"/>
</g>
<!-- Node13&#45;&gt;Node6 -->
<g id="edge20" class="edge"><title>Node13&#45;&gt;Node6</title>
<path fill="none" stroke="midnightblue" d="M298.062,-117.252C351.751,-109.805 475.796,-92.553 591.173,-76.1122"/>
<polygon fill="midnightblue" stroke="midnightblue" points="591.832,-79.5538 601.237,-74.6769 590.843,-72.6239 591.832,-79.5538"/>
</g>
<!-- Node20&#45;&gt;Node2 -->
<g id="edge22" class="edge"><title>Node20&#45;&gt;Node2</title>
<path fill="none" stroke="midnightblue" d="M650.424,-168.124C647.668,-154.718 640.893,-129.064 627,-112 616.105,-98.6186 600.14,-87.9283 586.206,-80.3307"/>
<polygon fill="midnightblue" stroke="midnightblue" points="587.464,-77.0414 576.972,-75.5698 584.256,-83.2632 587.464,-77.0414"/>
</g>
<!-- Node21 -->
<g id="node21" class="node"><title>Node21</title>
<polygon fill="white" stroke="#bfbfbf" points="544,-112.5 544,-131.5 618,-131.5 618,-112.5 544,-112.5"/>
<text text-anchor="middle" x="581" y="-119.5" font-family="Helvetica,sans-Serif" font-size="10.00">QVariantMap</text>
</g>
<!-- Node20&#45;&gt;Node21 -->
<g id="edge23" class="edge"><title>Node20&#45;&gt;Node21</title>
<path fill="none" stroke="midnightblue" d="M640.593,-168.324C629.891,-160.185 613.659,-147.839 600.837,-138.087"/>
<polygon fill="midnightblue" stroke="midnightblue" points="602.693,-135.102 592.615,-131.834 598.456,-140.673 602.693,-135.102"/>
</g>
<!-- Node20&#45;&gt;Node22 -->
<g id="edge24" class="edge"><title>Node20&#45;&gt;Node22</title>
<path fill="none" stroke="midnightblue" d="M667.745,-168.324C683.319,-159.743 707.377,-146.486 725.459,-136.522"/>
<polygon fill="midnightblue" stroke="midnightblue" points="727.224,-139.546 734.294,-131.655 723.846,-133.415 727.224,-139.546"/>
</g>
<!-- Node20&#45;&gt;Node6 -->
<g id="edge27" class="edge"><title>Node20&#45;&gt;Node6</title>
<path fill="none" stroke="midnightblue" d="M653.987,-168.433C655.967,-159.424 658.871,-144.805 660,-132 661.371,-116.458 659.532,-98.8342 657.539,-85.8622"/>
<polygon fill="midnightblue" stroke="midnightblue" points="660.959,-85.0971 655.825,-75.8293 654.059,-86.2759 660.959,-85.0971"/>
</g>
<!-- Node23 -->
<g id="node23" class="node"><title>Node23</title>
<polygon fill="white" stroke="#bfbfbf" points="793.5,-56.5 793.5,-75.5 848.5,-75.5 848.5,-56.5 793.5,-56.5"/>
<text text-anchor="middle" x="821" y="-63.5" font-family="Helvetica,sans-Serif" font-size="10.00">QVariant</text>
</g>
<!-- Node22&#45;&gt;Node23 -->
<g id="edge25" class="edge"><title>Node22&#45;&gt;Node23</title>
<path fill="none" stroke="midnightblue" d="M761.407,-112.324C772.109,-104.185 788.341,-91.8395 801.163,-82.0874"/>
<polygon fill="midnightblue" stroke="midnightblue" points="803.544,-84.6734 809.385,-75.8339 799.307,-79.1018 803.544,-84.6734"/>
</g>
<!-- Node22&#45;&gt;Node14 -->
<g id="edge26" class="edge"><title>Node22&#45;&gt;Node14</title>
<path fill="none" stroke="midnightblue" d="M750,-112.083C750,-105.006 750,-94.8611 750,-85.9865"/>
<polygon fill="midnightblue" stroke="midnightblue" points="753.5,-85.751 750,-75.7511 746.5,-85.7511 753.5,-85.751"/>
</g>
<!-- Node24&#45;&gt;Node2 -->
<g id="edge30" class="edge"><title>Node24&#45;&gt;Node2</title>
<path fill="none" stroke="midnightblue" d="M805.367,-112.918C752.577,-105.179 672.082,-92.5371 593.735,-76.2323"/>
<polygon fill="midnightblue" stroke="midnightblue" points="594.203,-72.7542 583.697,-74.1203 592.762,-79.6042 594.203,-72.7542"/>
</g>
<!-- Node24&#45;&gt;Node14 -->
<g id="edge31" class="edge"><title>Node24&#45;&gt;Node14</title>
<path fill="none" stroke="midnightblue" d="M845.095,-112.444C826.746,-103.675 797.995,-89.9355 776.906,-79.8579"/>
<polygon fill="midnightblue" stroke="midnightblue" points="778.353,-76.6703 767.821,-75.5164 775.335,-82.9862 778.353,-76.6703"/>
</g>
<!-- Node24&#45;&gt;Node23 -->
<g id="edge32" class="edge"><title>Node24&#45;&gt;Node23</title>
<path fill="none" stroke="midnightblue" d="M856.065,-112.083C850.071,-104.377 841.248,-93.0333 833.952,-83.6531"/>
<polygon fill="midnightblue" stroke="midnightblue" points="836.709,-81.4958 827.806,-75.7511 831.183,-85.7934 836.709,-81.4958"/>
</g>
<!-- Node24&#45;&gt;Node8 -->
<g id="edge33" class="edge"><title>Node24&#45;&gt;Node8</title>
<path fill="none" stroke="midnightblue" d="M863.23,-112.395C863.34,-99.7675 862.682,-75.5916 857,-56 854.22,-46.4148 849.37,-36.4631 844.838,-28.3631"/>
<polygon fill="midnightblue" stroke="midnightblue" points="847.73,-26.3775 839.628,-19.5503 841.704,-29.9398 847.73,-26.3775"/>
</g>
<!-- Node24&#45;&gt;Node6 -->
<g id="edge34" class="edge"><title>Node24&#45;&gt;Node6</title>
<path fill="none" stroke="midnightblue" d="M829.883,-112.444C793.882,-103.142 736.23,-88.246 696.814,-78.062"/>
<polygon fill="midnightblue" stroke="midnightblue" points="697.519,-74.6294 686.962,-75.5164 695.768,-81.4068 697.519,-74.6294"/>
</g>
<!-- Node26 -->
<g id="node26" class="node"><title>Node26</title>
<g id="a_node26"><a xlink:href="../../db/d70/eventchat_8h.html" target="_top" xlink:title="eventchat.h">
<polygon fill="white" stroke="black" points="816,-168.5 816,-187.5 882,-187.5 882,-168.5 816,-168.5"/>
<text text-anchor="middle" x="849" y="-175.5" font-family="Helvetica,sans-Serif" font-size="10.00">eventchat.h</text>
</a>
</g>
</g>
<!-- Node25&#45;&gt;Node26 -->
<g id="edge36" class="edge"><title>Node25&#45;&gt;Node26</title>
<path fill="none" stroke="midnightblue" d="M998.281,-224.933C964.253,-214.462 918.37,-200.345 886.491,-190.536"/>
<polygon fill="midnightblue" stroke="midnightblue" points="887.253,-187.108 876.666,-187.513 885.195,-193.799 887.253,-187.108"/>
</g>
<!-- Node27 -->
<g id="node27" class="node"><title>Node27</title>
<g id="a_node27"><a xlink:href="../../d5/d02/eventuserjoin_8h.html" target="_top" xlink:title="eventuserjoin.h">
<polygon fill="white" stroke="black" points="900.5,-168.5 900.5,-187.5 981.5,-187.5 981.5,-168.5 900.5,-168.5"/>
<text text-anchor="middle" x="941" y="-175.5" font-family="Helvetica,sans-Serif" font-size="10.00">eventuserjoin.h</text>
</a>
</g>
</g>
<!-- Node25&#45;&gt;Node27 -->
<g id="edge38" class="edge"><title>Node25&#45;&gt;Node27</title>
<path fill="none" stroke="midnightblue" d="M1019.85,-224.933C1003.25,-215.262 981.306,-202.479 964.784,-192.855"/>
<polygon fill="midnightblue" stroke="midnightblue" points="966.166,-189.609 955.763,-187.6 962.642,-195.658 966.166,-189.609"/>
</g>
<!-- Node28 -->
<g id="node28" class="node"><title>Node28</title>
<g id="a_node28"><a xlink:href="../../d7/d56/eventuserleave_8h.html" target="_top" xlink:title="eventuserleave.h">
<polygon fill="white" stroke="black" points="1000,-168.5 1000,-187.5 1088,-187.5 1088,-168.5 1000,-168.5"/>
<text text-anchor="middle" x="1044" y="-175.5" font-family="Helvetica,sans-Serif" font-size="10.00">eventuserleave.h</text>
</a>
</g>
</g>
<!-- Node25&#45;&gt;Node28 -->
<g id="edge40" class="edge"><title>Node25&#45;&gt;Node28</title>
<path fill="none" stroke="midnightblue" d="M1044,-224.781C1044,-216.781 1044,-206.689 1044,-198.017"/>
<polygon fill="midnightblue" stroke="midnightblue" points="1047.5,-197.73 1044,-187.731 1040.5,-197.731 1047.5,-197.73"/>
</g>
<!-- Node29 -->
<g id="node29" class="node"><title>Node29</title>
<g id="a_node29"><a xlink:href="../../db/db0/eventuserchangestatus_8h.html" target="_top" xlink:title="eventuserchangestatus.h">
<polygon fill="white" stroke="black" points="1105.5,-168.5 1105.5,-187.5 1230.5,-187.5 1230.5,-168.5 1105.5,-168.5"/>
<text text-anchor="middle" x="1168" y="-175.5" font-family="Helvetica,sans-Serif" font-size="10.00">eventuserchangestatus.h</text>
</a>
</g>
</g>
<!-- Node25&#45;&gt;Node29 -->
<g id="edge42" class="edge"><title>Node25&#45;&gt;Node29</title>
<path fill="none" stroke="midnightblue" d="M1073.07,-224.933C1093.62,-214.991 1120.96,-201.76 1141.02,-192.053"/>
<polygon fill="midnightblue" stroke="midnightblue" points="1142.75,-195.106 1150.23,-187.6 1139.7,-188.805 1142.75,-195.106"/>
</g>
<!-- Node30 -->
<g id="node30" class="node"><title>Node30</title>
<g id="a_node30"><a xlink:href="../../d8/d44/eventuserchangenick_8h.html" target="_top" xlink:title="eventuserchangenick.h">
<polygon fill="white" stroke="black" points="1249,-168.5 1249,-187.5 1365,-187.5 1365,-168.5 1249,-168.5"/>
<text text-anchor="middle" x="1307" y="-175.5" font-family="Helvetica,sans-Serif" font-size="10.00">eventuserchangenick.h</text>
</a>
</g>
</g>
<!-- Node25&#45;&gt;Node30 -->
<g id="edge44" class="edge"><title>Node25&#45;&gt;Node30</title>
<path fill="none" stroke="midnightblue" d="M1093.78,-227.644C1141.5,-216.756 1213.02,-200.439 1259.85,-189.756"/>
<polygon fill="midnightblue" stroke="midnightblue" points="1260.77,-193.137 1269.74,-187.5 1259.21,-186.312 1260.77,-193.137"/>
</g>
<!-- Node31 -->
<g id="node31" class="node"><title>Node31</title>
<g id="a_node31"><a xlink:href="../../da/d66/eventservermessage_8h.html" target="_top" xlink:title="eventservermessage.h">
<polygon fill="white" stroke="black" points="1383.5,-168.5 1383.5,-187.5 1496.5,-187.5 1496.5,-168.5 1383.5,-168.5"/>
<text text-anchor="middle" x="1440" y="-175.5" font-family="Helvetica,sans-Serif" font-size="10.00">eventservermessage.h</text>
</a>
</g>
</g>
<!-- Node25&#45;&gt;Node31 -->
<g id="edge46" class="edge"><title>Node25&#45;&gt;Node31</title>
<path fill="none" stroke="midnightblue" d="M1093.75,-231.462C1164.53,-220.738 1294.43,-201.056 1373.43,-189.086"/>
<polygon fill="midnightblue" stroke="midnightblue" points="1374.39,-192.481 1383.75,-187.522 1373.34,-185.56 1374.39,-192.481"/>
</g>
<!-- Node26&#45;&gt;Node24 -->
<g id="edge37" class="edge"><title>Node26&#45;&gt;Node24</title>
<path fill="none" stroke="midnightblue" d="M851.312,-168.083C853.167,-160.927 855.835,-150.635 858.154,-141.691"/>
<polygon fill="midnightblue" stroke="midnightblue" points="861.609,-142.309 860.731,-131.751 854.834,-140.553 861.609,-142.309"/>
</g>
<!-- Node27&#45;&gt;Node24 -->
<g id="edge39" class="edge"><title>Node27&#45;&gt;Node24</title>
<path fill="none" stroke="midnightblue" d="M928.468,-168.324C916.414,-159.979 897.973,-147.212 883.731,-137.352"/>
<polygon fill="midnightblue" stroke="midnightblue" points="885.715,-134.469 875.501,-131.655 881.731,-140.224 885.715,-134.469"/>
</g>
<!-- Node28&#45;&gt;Node24 -->
<g id="edge41" class="edge"><title>Node28&#45;&gt;Node24</title>
<path fill="none" stroke="midnightblue" d="M1015.32,-168.444C984.473,-159.241 935.272,-144.562 901.171,-134.388"/>
<polygon fill="midnightblue" stroke="midnightblue" points="902.129,-131.021 891.546,-131.516 900.128,-137.729 902.129,-131.021"/>
</g>
<!-- Node29&#45;&gt;Node24 -->
<g id="edge43" class="edge"><title>Node29&#45;&gt;Node24</title>
<path fill="none" stroke="midnightblue" d="M1119.67,-168.444C1065.8,-158.905 978.693,-143.483 921.136,-133.293"/>
<polygon fill="midnightblue" stroke="midnightblue" points="921.559,-129.813 911.102,-131.516 920.339,-136.706 921.559,-129.813"/>
</g>
<!-- Node30&#45;&gt;Node24 -->
<g id="edge45" class="edge"><title>Node30&#45;&gt;Node24</title>
<path fill="none" stroke="midnightblue" d="M1248.77,-169.244C1245.46,-168.819 1242.19,-168.402 1239,-168 1131.38,-154.439 1006.3,-139.666 930.971,-130.876"/>
<polygon fill="midnightblue" stroke="midnightblue" points="931.016,-127.358 920.678,-129.677 930.206,-134.311 931.016,-127.358"/>
</g>
<!-- Node31&#45;&gt;Node24 -->
<g id="edge47" class="edge"><title>Node31&#45;&gt;Node24</title>
<path fill="none" stroke="midnightblue" d="M1383.36,-169.208C1379.86,-168.783 1376.38,-168.376 1373,-168 1214.94,-150.42 1028.7,-135.433 930.879,-128.001"/>
<polygon fill="midnightblue" stroke="midnightblue" points="931.066,-124.505 920.83,-127.241 930.538,-131.485 931.066,-124.505"/>
</g>
</g>
</svg>
