<?xml version="1.0" encoding="UTF-8" standalone="no"?>
<!DOCTYPE svg PUBLIC "-//W3C//DTD SVG 1.1//EN"
 "http://www.w3.org/Graphics/SVG/1.1/DTD/svg11.dtd">
<!-- Generated by graphviz version 2.30.1 (20130303.0817)
 -->
<!-- Title: client::clsServerConn Pages: 1 -->
<svg width="157pt" height="448pt"
 viewBox="0.00 0.00 157.00 448.00" xmlns="http://www.w3.org/2000/svg" xmlns:xlink="http://www.w3.org/1999/xlink">
<g id="graph0" class="graph" transform="scale(1 1) rotate(0) translate(4 444)">
<title>client::clsServerConn</title>
<polygon fill="white" stroke="white" points="-4,5 -4,-444 154,-444 154,5 -4,5"/>
<!-- Node1 -->
<g id="node1" class="node"><title>Node1</title>
<polygon fill="#bfbfbf" stroke="black" points="1,-0.5 1,-211.5 135,-211.5 135,-0.5 1,-0.5"/>
<text text-anchor="middle" x="68" y="-199.5" font-family="Helvetica,sans-Serif" font-size="10.00">client::clsServerConn</text>
<polyline fill="none" stroke="black" points="1,-192.5 135,-192.5 "/>
<text text-anchor="start" x="9" y="-180.5" font-family="Helvetica,sans-Serif" font-size="10.00">&#45; hostName</text>
<text text-anchor="start" x="9" y="-169.5" font-family="Helvetica,sans-Serif" font-size="10.00">&#45; port</text>
<text text-anchor="start" x="9" y="-158.5" font-family="Helvetica,sans-Serif" font-size="10.00">&#45; sock</text>
<text text-anchor="start" x="9" y="-147.5" font-family="Helvetica,sans-Serif" font-size="10.00">&#45; buffer</text>
<text text-anchor="start" x="9" y="-136.5" font-family="Helvetica,sans-Serif" font-size="10.00">&#45; depth</text>
<polyline fill="none" stroke="black" points="1,-129.5 135,-129.5 "/>
<text text-anchor="start" x="9" y="-117.5" font-family="Helvetica,sans-Serif" font-size="10.00">+ clsServerConn()</text>
<text text-anchor="start" x="9" y="-106.5" font-family="Helvetica,sans-Serif" font-size="10.00">+ doConnect()</text>
<text text-anchor="start" x="9" y="-95.5" font-family="Helvetica,sans-Serif" font-size="10.00">+ sendCommand()</text>
<text text-anchor="start" x="9" y="-84.5" font-family="Helvetica,sans-Serif" font-size="10.00">+ srvDisconnected()</text>
<text text-anchor="start" x="9" y="-73.5" font-family="Helvetica,sans-Serif" font-size="10.00">+ srvConnected()</text>
<text text-anchor="start" x="9" y="-62.5" font-family="Helvetica,sans-Serif" font-size="10.00">+ readData()</text>
<text text-anchor="start" x="9" y="-51.5" font-family="Helvetica,sans-Serif" font-size="10.00">&#45; checkForJsonCommand()</text>
<text text-anchor="start" x="9" y="-40.5" font-family="Helvetica,sans-Serif" font-size="10.00">&#45; handleCompletedQuery()</text>
<text text-anchor="start" x="9" y="-29.5" font-family="Helvetica,sans-Serif" font-size="10.00">&#45; handleOwnUserChange()</text>
<text text-anchor="start" x="9" y="-18.5" font-family="Helvetica,sans-Serif" font-size="10.00">&#45; handleEventRequest()</text>
<text text-anchor="start" x="9" y="-7.5" font-family="Helvetica,sans-Serif" font-size="10.00">&#45; handleEventReceived()</text>
</g>
<!-- Node2 -->
<g id="node2" class="node"><title>Node2</title>
<polygon fill="white" stroke="#bfbfbf" points="-0.5,-321.5 -0.5,-378.5 52.5,-378.5 52.5,-321.5 -0.5,-321.5"/>
<text text-anchor="middle" x="26" y="-366.5" font-family="Helvetica,sans-Serif" font-size="10.00">QObject</text>
<polyline fill="none" stroke="#bfbfbf" points="-0.5,-359.5 52.5,-359.5 "/>
<text text-anchor="middle" x="26" y="-347.5" font-family="Helvetica,sans-Serif" font-size="10.00"> </text>
<polyline fill="none" stroke="#bfbfbf" points="-0.5,-340.5 52.5,-340.5 "/>
<text text-anchor="middle" x="26" y="-328.5" font-family="Helvetica,sans-Serif" font-size="10.00"> </text>
</g>
<!-- Node2&#45;&gt;Node1 -->
<g id="edge1" class="edge"><title>Node2&#45;&gt;Node1</title>
<path fill="none" stroke="midnightblue" d="M32.5686,-311.153C37.2201,-284.351 43.7012,-247.007 49.8501,-211.578"/>
<polygon fill="none" stroke="midnightblue" points="29.0795,-310.788 30.8179,-321.24 35.9764,-311.985 29.0795,-310.788"/>
</g>
<!-- Node3 -->
<g id="node3" class="node"><title>Node3</title>
<g id="a_node3"><a xlink:href="../../da/d64/class_k4_u_1_1cls_log.xhtml" target="_top" xlink:title="Custom logging class.">
<polygon fill="white" stroke="black" points="70.5,-261 70.5,-439 149.5,-439 149.5,-261 70.5,-261"/>
<text text-anchor="middle" x="110" y="-427" font-family="Helvetica,sans-Serif" font-size="10.00">K4U::clsLog</text>
<polyline fill="none" stroke="black" points="70.5,-420 149.5,-420 "/>
<text text-anchor="start" x="78.5" y="-408" font-family="Helvetica,sans-Serif" font-size="10.00">&#45; isFirst</text>
<text text-anchor="start" x="78.5" y="-397" font-family="Helvetica,sans-Serif" font-size="10.00">&#45; tag</text>
<text text-anchor="start" x="78.5" y="-386" font-family="Helvetica,sans-Serif" font-size="10.00">&#45; prf</text>
<polyline fill="none" stroke="black" points="70.5,-379 149.5,-379 "/>
<text text-anchor="start" x="78.5" y="-367" font-family="Helvetica,sans-Serif" font-size="10.00">+ clsLog()</text>
<text text-anchor="start" x="78.5" y="-356" font-family="Helvetica,sans-Serif" font-size="10.00">+ operator&lt;&lt;()</text>
<text text-anchor="start" x="78.5" y="-345" font-family="Helvetica,sans-Serif" font-size="10.00">+ operator&lt;&lt;()</text>
<text text-anchor="start" x="78.5" y="-334" font-family="Helvetica,sans-Serif" font-size="10.00">+ operator&lt;&lt;()</text>
<text text-anchor="start" x="78.5" y="-323" font-family="Helvetica,sans-Serif" font-size="10.00">+ operator&lt;&lt;()</text>
<text text-anchor="start" x="78.5" y="-312" font-family="Helvetica,sans-Serif" font-size="10.00">+ operator&lt;&lt;()</text>
<text text-anchor="start" x="78.5" y="-301" font-family="Helvetica,sans-Serif" font-size="10.00">+ operator&lt;&lt;()</text>
<text text-anchor="start" x="78.5" y="-290" font-family="Helvetica,sans-Serif" font-size="10.00">and 9 more...</text>
<text text-anchor="start" x="78.5" y="-279" font-family="Helvetica,sans-Serif" font-size="10.00">&#45; prefix()</text>
<text text-anchor="start" x="78.5" y="-268" font-family="Helvetica,sans-Serif" font-size="10.00">&#45; getTag()</text>
</a>
</g>
</g>
<!-- Node3&#45;&gt;Node1 -->
<g id="edge2" class="edge"><title>Node3&#45;&gt;Node1</title>
<path fill="none" stroke="#404040" d="M94.7182,-260.948C92.6209,-248.863 90.4411,-236.304 88.2717,-223.804"/>
<polygon fill="none" stroke="#404040" points="88.2501,-223.679 83.283,-218.451 86.198,-211.855 91.1652,-217.083 88.2501,-223.679"/>
<text text-anchor="middle" x="100.5" y="-233.5" font-family="Helvetica,sans-Serif" font-size="10.00"> &#45;log</text>
</g>
</g>
</svg>
