<?xml version="1.0" encoding="UTF-8" standalone="no"?>
<!DOCTYPE svg PUBLIC "-//W3C//DTD SVG 1.1//EN"
 "http://www.w3.org/Graphics/SVG/1.1/DTD/svg11.dtd">
<!-- Generated by graphviz version 2.30.1 (20130303.0817)
 -->
<!-- Title: shared::events::clsEvent Pages: 1 -->
<svg width="746pt" height="338pt"
 viewBox="0.00 0.00 746.00 338.00" xmlns="http://www.w3.org/2000/svg" xmlns:xlink="http://www.w3.org/1999/xlink">
<g id="graph0" class="graph" transform="scale(1 1) rotate(0) translate(4 334)">
<title>shared::events::clsEvent</title>
<polygon fill="white" stroke="white" points="-4,5 -4,-334 743,-334 743,5 -4,5"/>
<!-- Node1 -->
<g id="node1" class="node"><title>Node1</title>
<polygon fill="#bfbfbf" stroke="black" points="299,-151 299,-329 421,-329 421,-151 299,-151"/>
<text text-anchor="middle" x="360" y="-317" font-family="Helvetica,sans-Serif" font-size="10.00">shared::events::clsEvent</text>
<polyline fill="none" stroke="black" points="299,-310 421,-310 "/>
<text text-anchor="start" x="307" y="-298" font-family="Helvetica,sans-Serif" font-size="10.00"># data</text>
<text text-anchor="start" x="307" y="-287" font-family="Helvetica,sans-Serif" font-size="10.00"># ourType</text>
<text text-anchor="start" x="307" y="-276" font-family="Helvetica,sans-Serif" font-size="10.00"># timeOfEvent</text>
<text text-anchor="start" x="307" y="-265" font-family="Helvetica,sans-Serif" font-size="10.00"># log</text>
<polyline fill="none" stroke="black" points="299,-258 421,-258 "/>
<text text-anchor="start" x="307" y="-246" font-family="Helvetica,sans-Serif" font-size="10.00">+ clsEvent()</text>
<text text-anchor="start" x="307" y="-235" font-family="Helvetica,sans-Serif" font-size="10.00">+ clsEvent()</text>
<text text-anchor="start" x="307" y="-224" font-family="Helvetica,sans-Serif" font-size="10.00">+ addToData()</text>
<text text-anchor="start" x="307" y="-213" font-family="Helvetica,sans-Serif" font-size="10.00">+ toVariant()</text>
<text text-anchor="start" x="307" y="-202" font-family="Helvetica,sans-Serif" font-size="10.00">+ getData()</text>
<text text-anchor="start" x="307" y="-191" font-family="Helvetica,sans-Serif" font-size="10.00">+ getType()</text>
<text text-anchor="start" x="307" y="-180" font-family="Helvetica,sans-Serif" font-size="10.00">+ getTime()</text>
<text text-anchor="start" x="307" y="-169" font-family="Helvetica,sans-Serif" font-size="10.00"># getEventType()</text>
<text text-anchor="start" x="307" y="-158" font-family="Helvetica,sans-Serif" font-size="10.00"># setEventType()</text>
</g>
<!-- Node2 -->
<g id="node2" class="node"><title>Node2</title>
<g id="a_node2"><a xlink:href="../../d1/d68/classshared_1_1events_1_1event_chat.xhtml" target="_top" xlink:title="Class containing a chatEvent.">
<polygon fill="white" stroke="black" points="0,-12 0,-102 128,-102 128,-12 0,-12"/>
<text text-anchor="middle" x="64" y="-90" font-family="Helvetica,sans-Serif" font-size="10.00">shared::events::eventChat</text>
<polyline fill="none" stroke="black" points="0,-83 128,-83 "/>
<text text-anchor="middle" x="64" y="-71" font-family="Helvetica,sans-Serif" font-size="10.00"> </text>
<polyline fill="none" stroke="black" points="0,-64 128,-64 "/>
<text text-anchor="start" x="8" y="-52" font-family="Helvetica,sans-Serif" font-size="10.00">+ eventChat()</text>
<text text-anchor="start" x="8" y="-41" font-family="Helvetica,sans-Serif" font-size="10.00">+ eventChat()</text>
<text text-anchor="start" x="8" y="-30" font-family="Helvetica,sans-Serif" font-size="10.00">+ getUser()</text>
<text text-anchor="start" x="8" y="-19" font-family="Helvetica,sans-Serif" font-size="10.00">+ getMessage()</text>
</a>
</g>
</g>
<!-- Node1&#45;&gt;Node2 -->
<g id="edge1" class="edge"><title>Node1&#45;&gt;Node2</title>
<path fill="none" stroke="midnightblue" d="M289.952,-203.072C245.242,-179.332 186.58,-146.67 137,-114 131.398,-110.309 125.669,-106.321 120.006,-102.234"/>
<polygon fill="none" stroke="midnightblue" points="288.511,-206.268 298.987,-207.848 291.783,-200.08 288.511,-206.268"/>
</g>
<!-- Node3 -->
<g id="node3" class="node"><title>Node3</title>
<g id="a_node3"><a xlink:href="../../d5/de1/classshared_1_1events_1_1event_user_change_nick.xhtml" target="_top" xlink:title="Class containing a user who changes his nick&#45;event (nick|status)">
<polygon fill="white" stroke="black" points="146,-1 146,-113 274,-113 274,-1 146,-1"/>
<text text-anchor="start" x="154" y="-101" font-family="Helvetica,sans-Serif" font-size="10.00">shared::events::eventUser</text>
<text text-anchor="middle" x="210" y="-90" font-family="Helvetica,sans-Serif" font-size="10.00">ChangeNick</text>
<polyline fill="none" stroke="black" points="146,-83 274,-83 "/>
<text text-anchor="middle" x="210" y="-71" font-family="Helvetica,sans-Serif" font-size="10.00"> </text>
<polyline fill="none" stroke="black" points="146,-64 274,-64 "/>
<text text-anchor="start" x="154" y="-52" font-family="Helvetica,sans-Serif" font-size="10.00">+ eventUserChangeNick()</text>
<text text-anchor="start" x="154" y="-41" font-family="Helvetica,sans-Serif" font-size="10.00">+ eventUserChangeNick()</text>
<text text-anchor="start" x="154" y="-30" font-family="Helvetica,sans-Serif" font-size="10.00">+ getUserId()</text>
<text text-anchor="start" x="154" y="-19" font-family="Helvetica,sans-Serif" font-size="10.00">+ getNewNick()</text>
<text text-anchor="start" x="154" y="-8" font-family="Helvetica,sans-Serif" font-size="10.00">+ getOldNick()</text>
</a>
</g>
</g>
<!-- Node1&#45;&gt;Node3 -->
<g id="edge2" class="edge"><title>Node1&#45;&gt;Node3</title>
<path fill="none" stroke="midnightblue" d="M292.52,-157.574C280.086,-142.571 267.374,-127.231 255.769,-113.228"/>
<polygon fill="none" stroke="midnightblue" points="289.913,-159.914 298.989,-165.38 295.303,-155.447 289.913,-159.914"/>
</g>
<!-- Node4 -->
<g id="node4" class="node"><title>Node4</title>
<g id="a_node4"><a xlink:href="../../d3/dcc/classshared_1_1events_1_1event_user_change_status.xhtml" target="_top" xlink:title="Class containing a user who changes his status&#45;event (nick|status)">
<polygon fill="white" stroke="black" points="292,-1 292,-113 428,-113 428,-1 292,-1"/>
<text text-anchor="start" x="300" y="-101" font-family="Helvetica,sans-Serif" font-size="10.00">shared::events::eventUser</text>
<text text-anchor="middle" x="360" y="-90" font-family="Helvetica,sans-Serif" font-size="10.00">ChangeStatus</text>
<polyline fill="none" stroke="black" points="292,-83 428,-83 "/>
<text text-anchor="middle" x="360" y="-71" font-family="Helvetica,sans-Serif" font-size="10.00"> </text>
<polyline fill="none" stroke="black" points="292,-64 428,-64 "/>
<text text-anchor="start" x="300" y="-52" font-family="Helvetica,sans-Serif" font-size="10.00">+ eventUserChangeStatus()</text>
<text text-anchor="start" x="300" y="-41" font-family="Helvetica,sans-Serif" font-size="10.00">+ eventUserChangeStatus()</text>
<text text-anchor="start" x="300" y="-30" font-family="Helvetica,sans-Serif" font-size="10.00">+ getUserId()</text>
<text text-anchor="start" x="300" y="-19" font-family="Helvetica,sans-Serif" font-size="10.00">+ getNewStatus()</text>
<text text-anchor="start" x="300" y="-8" font-family="Helvetica,sans-Serif" font-size="10.00">+ getOldStatus()</text>
</a>
</g>
</g>
<!-- Node1&#45;&gt;Node4 -->
<g id="edge3" class="edge"><title>Node1&#45;&gt;Node4</title>
<path fill="none" stroke="midnightblue" d="M360,-140.647C360,-131.234 360,-121.936 360,-113.163"/>
<polygon fill="none" stroke="midnightblue" points="356.5,-140.886 360,-150.886 363.5,-140.886 356.5,-140.886"/>
</g>
<!-- Node5 -->
<g id="node5" class="node"><title>Node5</title>
<g id="a_node5"><a xlink:href="../../dd/d05/classshared_1_1events_1_1event_user_join.xhtml" target="_top" xlink:title="Class containing a user JOIN event.">
<polygon fill="white" stroke="black" points="446,-12 446,-102 592,-102 592,-12 446,-12"/>
<text text-anchor="middle" x="519" y="-90" font-family="Helvetica,sans-Serif" font-size="10.00">shared::events::eventUserJoin</text>
<polyline fill="none" stroke="black" points="446,-83 592,-83 "/>
<text text-anchor="middle" x="519" y="-71" font-family="Helvetica,sans-Serif" font-size="10.00"> </text>
<polyline fill="none" stroke="black" points="446,-64 592,-64 "/>
<text text-anchor="start" x="454" y="-52" font-family="Helvetica,sans-Serif" font-size="10.00">+ eventUserJoin()</text>
<text text-anchor="start" x="454" y="-41" font-family="Helvetica,sans-Serif" font-size="10.00">+ eventUserJoin()</text>
<text text-anchor="start" x="454" y="-30" font-family="Helvetica,sans-Serif" font-size="10.00">+ getUserId()</text>
<text text-anchor="start" x="454" y="-19" font-family="Helvetica,sans-Serif" font-size="10.00">+ getUser()</text>
</a>
</g>
</g>
<!-- Node1&#45;&gt;Node5 -->
<g id="edge4" class="edge"><title>Node1&#45;&gt;Node5</title>
<path fill="none" stroke="midnightblue" d="M427.83,-161.785C445.725,-141.414 464.426,-120.126 480.2,-102.169"/>
<polygon fill="none" stroke="midnightblue" points="424.989,-159.715 421.019,-169.538 430.248,-164.335 424.989,-159.715"/>
</g>
<!-- Node6 -->
<g id="node6" class="node"><title>Node6</title>
<g id="a_node6"><a xlink:href="../../d9/d9f/classshared_1_1events_1_1event_user_leave.xhtml" target="_top" xlink:title="Class containing a user PART event.">
<polygon fill="white" stroke="black" points="610,-12 610,-102 738,-102 738,-12 610,-12"/>
<text text-anchor="start" x="618" y="-90" font-family="Helvetica,sans-Serif" font-size="10.00">shared::events::eventUser</text>
<text text-anchor="middle" x="674" y="-79" font-family="Helvetica,sans-Serif" font-size="10.00">Leave</text>
<polyline fill="none" stroke="black" points="610,-72 738,-72 "/>
<text text-anchor="middle" x="674" y="-60" font-family="Helvetica,sans-Serif" font-size="10.00"> </text>
<polyline fill="none" stroke="black" points="610,-53 738,-53 "/>
<text text-anchor="start" x="618" y="-41" font-family="Helvetica,sans-Serif" font-size="10.00">+ eventUserLeave()</text>
<text text-anchor="start" x="618" y="-30" font-family="Helvetica,sans-Serif" font-size="10.00">+ eventUserLeave()</text>
<text text-anchor="start" x="618" y="-19" font-family="Helvetica,sans-Serif" font-size="10.00">+ getUserId()</text>
</a>
</g>
</g>
<!-- Node1&#45;&gt;Node6 -->
<g id="edge5" class="edge"><title>Node1&#45;&gt;Node6</title>
<path fill="none" stroke="midnightblue" d="M430.321,-206.587C479.38,-183.006 545.701,-149.167 601,-114 606.796,-110.314 612.704,-106.287 618.524,-102.136"/>
<polygon fill="none" stroke="midnightblue" points="428.57,-203.545 421.058,-211.016 431.59,-209.86 428.57,-203.545"/>
</g>
</g>
</svg>
