<?xml version="1.0" encoding="UTF-8" standalone="no"?>
<!DOCTYPE svg PUBLIC "-//W3C//DTD SVG 1.1//EN"
 "http://www.w3.org/Graphics/SVG/1.1/DTD/svg11.dtd">
<!-- Generated by graphviz version 2.30.1 (20130303.0817)
 -->
<!-- Title: shared::events::clsEvent Pages: 1 -->
<svg width="900pt" height="338pt"
 viewBox="0.00 0.00 900.00 338.00" xmlns="http://www.w3.org/2000/svg" xmlns:xlink="http://www.w3.org/1999/xlink">
<g id="graph0" class="graph" transform="scale(1 1) rotate(0) translate(4 334)">
<title>shared::events::clsEvent</title>
<polygon fill="white" stroke="white" points="-4,5 -4,-334 897,-334 897,5 -4,5"/>
<!-- Node1 -->
<g id="node1" class="node"><title>Node1</title>
<polygon fill="#bfbfbf" stroke="black" points="378,-151 378,-329 500,-329 500,-151 378,-151"/>
<text text-anchor="middle" x="439" y="-317" font-family="Helvetica,sans-Serif" font-size="10.00">shared::events::clsEvent</text>
<polyline fill="none" stroke="black" points="378,-310 500,-310 "/>
<text text-anchor="start" x="386" y="-298" font-family="Helvetica,sans-Serif" font-size="10.00"># data</text>
<text text-anchor="start" x="386" y="-287" font-family="Helvetica,sans-Serif" font-size="10.00"># ourType</text>
<text text-anchor="start" x="386" y="-276" font-family="Helvetica,sans-Serif" font-size="10.00"># timeOfEvent</text>
<text text-anchor="start" x="386" y="-265" font-family="Helvetica,sans-Serif" font-size="10.00"># log</text>
<polyline fill="none" stroke="black" points="378,-258 500,-258 "/>
<text text-anchor="start" x="386" y="-246" font-family="Helvetica,sans-Serif" font-size="10.00">+ clsEvent()</text>
<text text-anchor="start" x="386" y="-235" font-family="Helvetica,sans-Serif" font-size="10.00">+ clsEvent()</text>
<text text-anchor="start" x="386" y="-224" font-family="Helvetica,sans-Serif" font-size="10.00">+ addToData()</text>
<text text-anchor="start" x="386" y="-213" font-family="Helvetica,sans-Serif" font-size="10.00">+ toVariant()</text>
<text text-anchor="start" x="386" y="-202" font-family="Helvetica,sans-Serif" font-size="10.00">+ getData()</text>
<text text-anchor="start" x="386" y="-191" font-family="Helvetica,sans-Serif" font-size="10.00">+ getType()</text>
<text text-anchor="start" x="386" y="-180" font-family="Helvetica,sans-Serif" font-size="10.00">+ getTime()</text>
<text text-anchor="start" x="386" y="-169" font-family="Helvetica,sans-Serif" font-size="10.00"># getEventType()</text>
<text text-anchor="start" x="386" y="-158" font-family="Helvetica,sans-Serif" font-size="10.00"># setEventType()</text>
</g>
<!-- Node2 -->
<g id="node2" class="node"><title>Node2</title>
<g id="a_node2"><a xlink:href="../../d1/d68/classshared_1_1events_1_1event_chat.html" target="_top" xlink:title="Class containing a chatEvent.">
<polygon fill="white" stroke="black" points="0,-12 0,-102 128,-102 128,-12 0,-12"/>
<text text-anchor="middle" x="64" y="-90" font-family="Helvetica,sans-Serif" font-size="10.00">shared::events::eventChat</text>
<polyline fill="none" stroke="black" points="0,-83 128,-83 "/>
<text text-anchor="middle" x="64" y="-71" font-family="Helvetica,sans-Serif" font-size="10.00"> </text>
<polyline fill="none" stroke="black" points="0,-64 128,-64 "/>
<text text-anchor="start" x="8" y="-52" font-family="Helvetica,sans-Serif" font-size="10.00">+ eventChat()</text>
<text text-anchor="start" x="8" y="-41" font-family="Helvetica,sans-Serif" font-size="10.00">+ eventChat()</text>
<text text-anchor="start" x="8" y="-30" font-family="Helvetica,sans-Serif" font-size="10.00">+ getUser()</text>
<text text-anchor="start" x="8" y="-19" font-family="Helvetica,sans-Serif" font-size="10.00">+ getMessage()</text>
</a>
</g>
</g>
<!-- Node1&#45;&gt;Node2 -->
<g id="edge1" class="edge"><title>Node1&#45;&gt;Node2</title>
<path fill="none" stroke="midnightblue" d="M367.977,-215.576C305.167,-193.485 212.109,-157.345 137,-114 130.774,-110.407 124.482,-106.347 118.338,-102.095"/>
<polygon fill="none" stroke="midnightblue" points="367.196,-219.01 377.791,-219 369.502,-212.401 367.196,-219.01"/>
</g>
<!-- Node3 -->
<g id="node3" class="node"><title>Node3</title>
<g id="a_node3"><a xlink:href="../../d6/dfe/classshared_1_1events_1_1event_server_message.html" target="_top" xlink:title="Class that contains data for when the server wants to say something.">
<polygon fill="white" stroke="black" points="146.5,-6.5 146.5,-107.5 281.5,-107.5 281.5,-6.5 146.5,-6.5"/>
<text text-anchor="start" x="154.5" y="-95.5" font-family="Helvetica,sans-Serif" font-size="10.00">shared::events::eventServer</text>
<text text-anchor="middle" x="214" y="-84.5" font-family="Helvetica,sans-Serif" font-size="10.00">Message</text>
<polyline fill="none" stroke="black" points="146.5,-77.5 281.5,-77.5 "/>
<text text-anchor="middle" x="214" y="-65.5" font-family="Helvetica,sans-Serif" font-size="10.00"> </text>
<polyline fill="none" stroke="black" points="146.5,-58.5 281.5,-58.5 "/>
<text text-anchor="start" x="154.5" y="-46.5" font-family="Helvetica,sans-Serif" font-size="10.00">+ eventServerMessage()</text>
<text text-anchor="start" x="154.5" y="-35.5" font-family="Helvetica,sans-Serif" font-size="10.00">+ eventServerMessage()</text>
<text text-anchor="start" x="154.5" y="-24.5" font-family="Helvetica,sans-Serif" font-size="10.00">+ getMessage()</text>
<text text-anchor="start" x="154.5" y="-13.5" font-family="Helvetica,sans-Serif" font-size="10.00">+ getLevel()</text>
</a>
</g>
</g>
<!-- Node1&#45;&gt;Node3 -->
<g id="edge2" class="edge"><title>Node1&#45;&gt;Node3</title>
<path fill="none" stroke="midnightblue" d="M369.869,-183.388C339.761,-159.168 304.761,-131.012 275.564,-107.524"/>
<polygon fill="none" stroke="midnightblue" points="367.829,-186.239 377.815,-189.78 372.217,-180.785 367.829,-186.239"/>
</g>
<!-- Node4 -->
<g id="node4" class="node"><title>Node4</title>
<g id="a_node4"><a xlink:href="../../d5/de1/classshared_1_1events_1_1event_user_change_nick.html" target="_top" xlink:title="Class containing a user who changes his nick&#45;event (nick|status)">
<polygon fill="white" stroke="black" points="300,-1 300,-113 428,-113 428,-1 300,-1"/>
<text text-anchor="start" x="308" y="-101" font-family="Helvetica,sans-Serif" font-size="10.00">shared::events::eventUser</text>
<text text-anchor="middle" x="364" y="-90" font-family="Helvetica,sans-Serif" font-size="10.00">ChangeNick</text>
<polyline fill="none" stroke="black" points="300,-83 428,-83 "/>
<text text-anchor="middle" x="364" y="-71" font-family="Helvetica,sans-Serif" font-size="10.00"> </text>
<polyline fill="none" stroke="black" points="300,-64 428,-64 "/>
<text text-anchor="start" x="308" y="-52" font-family="Helvetica,sans-Serif" font-size="10.00">+ eventUserChangeNick()</text>
<text text-anchor="start" x="308" y="-41" font-family="Helvetica,sans-Serif" font-size="10.00">+ eventUserChangeNick()</text>
<text text-anchor="start" x="308" y="-30" font-family="Helvetica,sans-Serif" font-size="10.00">+ getUserId()</text>
<text text-anchor="start" x="308" y="-19" font-family="Helvetica,sans-Serif" font-size="10.00">+ getNewNick()</text>
<text text-anchor="start" x="308" y="-8" font-family="Helvetica,sans-Serif" font-size="10.00">+ getOldNick()</text>
</a>
</g>
</g>
<!-- Node1&#45;&gt;Node4 -->
<g id="edge3" class="edge"><title>Node1&#45;&gt;Node4</title>
<path fill="none" stroke="midnightblue" d="M398.62,-141.548C394.592,-131.828 390.609,-122.216 386.858,-113.163"/>
<polygon fill="none" stroke="midnightblue" points="395.427,-142.988 402.489,-150.886 401.894,-140.308 395.427,-142.988"/>
</g>
<!-- Node5 -->
<g id="node5" class="node"><title>Node5</title>
<g id="a_node5"><a xlink:href="../../d3/dcc/classshared_1_1events_1_1event_user_change_status.html" target="_top" xlink:title="Class containing a user who changes his status&#45;event (nick|status)">
<polygon fill="white" stroke="black" points="446,-1 446,-113 582,-113 582,-1 446,-1"/>
<text text-anchor="start" x="454" y="-101" font-family="Helvetica,sans-Serif" font-size="10.00">shared::events::eventUser</text>
<text text-anchor="middle" x="514" y="-90" font-family="Helvetica,sans-Serif" font-size="10.00">ChangeStatus</text>
<polyline fill="none" stroke="black" points="446,-83 582,-83 "/>
<text text-anchor="middle" x="514" y="-71" font-family="Helvetica,sans-Serif" font-size="10.00"> </text>
<polyline fill="none" stroke="black" points="446,-64 582,-64 "/>
<text text-anchor="start" x="454" y="-52" font-family="Helvetica,sans-Serif" font-size="10.00">+ eventUserChangeStatus()</text>
<text text-anchor="start" x="454" y="-41" font-family="Helvetica,sans-Serif" font-size="10.00">+ eventUserChangeStatus()</text>
<text text-anchor="start" x="454" y="-30" font-family="Helvetica,sans-Serif" font-size="10.00">+ getUserId()</text>
<text text-anchor="start" x="454" y="-19" font-family="Helvetica,sans-Serif" font-size="10.00">+ getNewStatus()</text>
<text text-anchor="start" x="454" y="-8" font-family="Helvetica,sans-Serif" font-size="10.00">+ getOldStatus()</text>
</a>
</g>
</g>
<!-- Node1&#45;&gt;Node5 -->
<g id="edge4" class="edge"><title>Node1&#45;&gt;Node5</title>
<path fill="none" stroke="midnightblue" d="M479.38,-141.548C483.408,-131.828 487.391,-122.216 491.142,-113.163"/>
<polygon fill="none" stroke="midnightblue" points="476.106,-140.308 475.511,-150.886 482.573,-142.988 476.106,-140.308"/>
</g>
<!-- Node6 -->
<g id="node6" class="node"><title>Node6</title>
<g id="a_node6"><a xlink:href="../../dd/d05/classshared_1_1events_1_1event_user_join.html" target="_top" xlink:title="Class containing a user JOIN event.">
<polygon fill="white" stroke="black" points="600,-12 600,-102 746,-102 746,-12 600,-12"/>
<text text-anchor="middle" x="673" y="-90" font-family="Helvetica,sans-Serif" font-size="10.00">shared::events::eventUserJoin</text>
<polyline fill="none" stroke="black" points="600,-83 746,-83 "/>
<text text-anchor="middle" x="673" y="-71" font-family="Helvetica,sans-Serif" font-size="10.00"> </text>
<polyline fill="none" stroke="black" points="600,-64 746,-64 "/>
<text text-anchor="start" x="608" y="-52" font-family="Helvetica,sans-Serif" font-size="10.00">+ eventUserJoin()</text>
<text text-anchor="start" x="608" y="-41" font-family="Helvetica,sans-Serif" font-size="10.00">+ eventUserJoin()</text>
<text text-anchor="start" x="608" y="-30" font-family="Helvetica,sans-Serif" font-size="10.00">+ getUserId()</text>
<text text-anchor="start" x="608" y="-19" font-family="Helvetica,sans-Serif" font-size="10.00">+ getUser()</text>
</a>
</g>
</g>
<!-- Node1&#45;&gt;Node6 -->
<g id="edge5" class="edge"><title>Node1&#45;&gt;Node6</title>
<path fill="none" stroke="midnightblue" d="M508.277,-185.414C542.525,-158.923 583.357,-127.339 615.799,-102.245"/>
<polygon fill="none" stroke="midnightblue" points="505.944,-182.794 500.175,-191.681 510.226,-188.331 505.944,-182.794"/>
</g>
<!-- Node7 -->
<g id="node7" class="node"><title>Node7</title>
<g id="a_node7"><a xlink:href="../../d9/d9f/classshared_1_1events_1_1event_user_leave.html" target="_top" xlink:title="Class containing a user PART event.">
<polygon fill="white" stroke="black" points="764,-12 764,-102 892,-102 892,-12 764,-12"/>
<text text-anchor="start" x="772" y="-90" font-family="Helvetica,sans-Serif" font-size="10.00">shared::events::eventUser</text>
<text text-anchor="middle" x="828" y="-79" font-family="Helvetica,sans-Serif" font-size="10.00">Leave</text>
<polyline fill="none" stroke="black" points="764,-72 892,-72 "/>
<text text-anchor="middle" x="828" y="-60" font-family="Helvetica,sans-Serif" font-size="10.00"> </text>
<polyline fill="none" stroke="black" points="764,-53 892,-53 "/>
<text text-anchor="start" x="772" y="-41" font-family="Helvetica,sans-Serif" font-size="10.00">+ eventUserLeave()</text>
<text text-anchor="start" x="772" y="-30" font-family="Helvetica,sans-Serif" font-size="10.00">+ eventUserLeave()</text>
<text text-anchor="start" x="772" y="-19" font-family="Helvetica,sans-Serif" font-size="10.00">+ getUserId()</text>
</a>
</g>
</g>
<!-- Node1&#45;&gt;Node7 -->
<g id="edge6" class="edge"><title>Node1&#45;&gt;Node7</title>
<path fill="none" stroke="midnightblue" d="M509.94,-217.25C575.718,-195.639 675.174,-159.232 755,-114 761.254,-110.456 767.565,-106.428 773.719,-102.195"/>
<polygon fill="none" stroke="midnightblue" points="508.508,-214.035 500.084,-220.46 510.676,-220.691 508.508,-214.035"/>
</g>
</g>
</svg>
