<?xml version="1.0" encoding="UTF-8" standalone="no"?>
<!DOCTYPE svg PUBLIC "-//W3C//DTD SVG 1.1//EN"
 "http://www.w3.org/Graphics/SVG/1.1/DTD/svg11.dtd">
<!-- Generated by graphviz version 2.30.1 (20130303.0817)
 -->
<!-- Title: C++/customIrcServer/mainapp.h Pages: 1 -->
<svg width="1837pt" height="332pt"
 viewBox="0.00 0.00 1837.00 332.00" xmlns="http://www.w3.org/2000/svg" xmlns:xlink="http://www.w3.org/1999/xlink">
<g id="graph0" class="graph" transform="scale(1 1) rotate(0) translate(4 328)">
<title>C++/customIrcServer/mainapp.h</title>
<polygon fill="white" stroke="white" points="-4,5 -4,-328 1834,-328 1834,5 -4,5"/>
<!-- Node1 -->
<g id="node1" class="node"><title>Node1</title>
<polygon fill="#bfbfbf" stroke="black" points="836,-293 836,-323 944,-323 944,-293 836,-293"/>
<text text-anchor="start" x="844" y="-311" font-family="Helvetica,sans-Serif" font-size="10.00">C++/customIrcServer</text>
<text text-anchor="middle" x="890" y="-300" font-family="Helvetica,sans-Serif" font-size="10.00">/mainapp.h</text>
</g>
<!-- Node2 -->
<g id="node2" class="node"><title>Node2</title>
<polygon fill="white" stroke="#bfbfbf" points="1262.5,-56.5 1262.5,-75.5 1315.5,-75.5 1315.5,-56.5 1262.5,-56.5"/>
<text text-anchor="middle" x="1289" y="-63.5" font-family="Helvetica,sans-Serif" font-size="10.00">QObject</text>
</g>
<!-- Node1&#45;&gt;Node2 -->
<g id="edge1" class="edge"><title>Node1&#45;&gt;Node2</title>
<path fill="none" stroke="midnightblue" d="M944.023,-293.067C977.571,-283.835 1021.33,-270.736 1059,-256 1073.67,-250.262 1305.64,-145.354 1314,-132 1323.47,-116.866 1313.7,-97.5658 1303.73,-83.9403"/>
<polygon fill="midnightblue" stroke="midnightblue" points="1306.31,-81.5627 1297.35,-75.9067 1300.83,-85.915 1306.31,-81.5627"/>
</g>
<!-- Node3 -->
<g id="node3" class="node"><title>Node3</title>
<polygon fill="white" stroke="#bfbfbf" points="377.5,-56.5 377.5,-75.5 430.5,-75.5 430.5,-56.5 377.5,-56.5"/>
<text text-anchor="middle" x="404" y="-63.5" font-family="Helvetica,sans-Serif" font-size="10.00">QVector</text>
</g>
<!-- Node1&#45;&gt;Node3 -->
<g id="edge2" class="edge"><title>Node1&#45;&gt;Node3</title>
<path fill="none" stroke="midnightblue" d="M835.645,-306.759C746.434,-305.126 564.073,-296.576 416,-256 287.865,-220.888 215.866,-243.744 144,-132 139.192,-124.524 138.276,-118.8 144,-112 172.085,-78.6361 302.217,-70.0086 367.065,-67.7778"/>
<polygon fill="midnightblue" stroke="midnightblue" points="367.373,-71.2701 377.259,-67.4616 367.155,-64.2734 367.373,-71.2701"/>
</g>
<!-- Node4 -->
<g id="node4" class="node"><title>Node4</title>
<g id="a_node4"><a xlink:href="../../d4/df9/ircclient_8h.xhtml" target="_top" xlink:title="ircclient.h">
<polygon fill="white" stroke="black" points="314.5,-168.5 314.5,-187.5 373.5,-187.5 373.5,-168.5 314.5,-168.5"/>
<text text-anchor="middle" x="344" y="-175.5" font-family="Helvetica,sans-Serif" font-size="10.00">ircclient.h</text>
</a>
</g>
</g>
<!-- Node1&#45;&gt;Node4 -->
<g id="edge3" class="edge"><title>Node1&#45;&gt;Node4</title>
<path fill="none" stroke="midnightblue" d="M835.963,-306.192C757.856,-303.676 609.655,-293.811 490,-256 442.62,-241.028 392.441,-211.012 364.993,-193.2"/>
<polygon fill="midnightblue" stroke="midnightblue" points="366.869,-190.245 356.593,-187.667 363.019,-196.091 366.869,-190.245"/>
</g>
<!-- Node11 -->
<g id="node11" class="node"><title>Node11</title>
<g id="a_node11"><a xlink:href="../../d8/d5c/functions_8h.xhtml" target="_top" xlink:title="functions.h">
<polygon fill="white" stroke="black" points="46,-56.5 46,-75.5 110,-75.5 110,-56.5 46,-56.5"/>
<text text-anchor="middle" x="78" y="-63.5" font-family="Helvetica,sans-Serif" font-size="10.00">functions.h</text>
</a>
</g>
</g>
<!-- Node1&#45;&gt;Node11 -->
<g id="edge28" class="edge"><title>Node1&#45;&gt;Node11</title>
<path fill="none" stroke="midnightblue" d="M835.638,-306.398C702.93,-304.323 365.638,-295.232 261,-256 174.659,-223.628 110.685,-124.768 87.4987,-84.4228"/>
<polygon fill="midnightblue" stroke="midnightblue" points="90.4393,-82.511 82.4939,-75.5024 84.3345,-85.9361 90.4393,-82.511"/>
</g>
<!-- Node18 -->
<g id="node18" class="node"><title>Node18</title>
<g id="a_node18"><a xlink:href="../../d6/d32/custom_irc_server_2ircuser_8h.xhtml" target="_top" xlink:title="ircuser.h">
<polygon fill="white" stroke="black" points="432,-112.5 432,-131.5 486,-131.5 486,-112.5 432,-112.5"/>
<text text-anchor="middle" x="459" y="-119.5" font-family="Helvetica,sans-Serif" font-size="10.00">ircuser.h</text>
</a>
</g>
</g>
<!-- Node1&#45;&gt;Node18 -->
<g id="edge29" class="edge"><title>Node1&#45;&gt;Node18</title>
<path fill="none" stroke="midnightblue" d="M835.813,-294.563C799.178,-285.489 750.009,-272.009 708,-256 643.734,-231.509 629.541,-220.63 569,-188 538.075,-171.332 503.313,-150.41 481.298,-136.877"/>
<polygon fill="midnightblue" stroke="midnightblue" points="483.039,-133.838 472.692,-131.563 479.362,-139.795 483.039,-133.838"/>
</g>
<!-- Node20 -->
<g id="node20" class="node"><title>Node20</title>
<g id="a_node20"><a xlink:href="../../d7/d1c/uiserver_8h.xhtml" target="_top" xlink:title="uiserver.h">
<polygon fill="white" stroke="black" points="949,-230.5 949,-249.5 1007,-249.5 1007,-230.5 949,-230.5"/>
<text text-anchor="middle" x="978" y="-237.5" font-family="Helvetica,sans-Serif" font-size="10.00">uiserver.h</text>
</a>
</g>
</g>
<!-- Node1&#45;&gt;Node20 -->
<g id="edge30" class="edge"><title>Node1&#45;&gt;Node20</title>
<path fill="none" stroke="midnightblue" d="M909.095,-292.679C923.579,-281.816 943.432,-266.926 958.108,-255.919"/>
<polygon fill="midnightblue" stroke="midnightblue" points="960.583,-258.438 966.483,-249.638 956.383,-252.838 960.583,-258.438"/>
</g>
<!-- Node24 -->
<g id="node24" class="node"><title>Node24</title>
<g id="a_node24"><a xlink:href="../../d1/de1/uiclient_8h.xhtml" target="_top" xlink:title="uiclient.h">
<polygon fill="white" stroke="black" points="1130,-168.5 1130,-187.5 1186,-187.5 1186,-168.5 1130,-168.5"/>
<text text-anchor="middle" x="1158" y="-175.5" font-family="Helvetica,sans-Serif" font-size="10.00">uiclient.h</text>
</a>
</g>
</g>
<!-- Node1&#45;&gt;Node24 -->
<g id="edge48" class="edge"><title>Node1&#45;&gt;Node24</title>
<path fill="none" stroke="midnightblue" d="M927.368,-292.957C952.447,-283.24 986.063,-269.646 1015,-256 1058.08,-235.686 1106.56,-208.658 1134.57,-192.619"/>
<polygon fill="midnightblue" stroke="midnightblue" points="1136.32,-195.648 1143.24,-187.626 1132.83,-189.581 1136.32,-195.648"/>
</g>
<!-- Node30 -->
<g id="node30" class="node"><title>Node30</title>
<g id="a_node30"><a xlink:href="../../d6/d0d/custom_irc_server_2clssettings_8h.xhtml" target="_top" xlink:title="clssettings.h">
<polygon fill="white" stroke="black" points="578,-168.5 578,-187.5 650,-187.5 650,-168.5 578,-168.5"/>
<text text-anchor="middle" x="614" y="-175.5" font-family="Helvetica,sans-Serif" font-size="10.00">clssettings.h</text>
</a>
</g>
</g>
<!-- Node1&#45;&gt;Node30 -->
<g id="edge49" class="edge"><title>Node1&#45;&gt;Node30</title>
<path fill="none" stroke="midnightblue" d="M859.674,-292.936C805.736,-267.921 693.914,-216.061 641.825,-191.905"/>
<polygon fill="midnightblue" stroke="midnightblue" points="643.075,-188.626 632.53,-187.594 640.129,-194.976 643.075,-188.626"/>
</g>
<!-- Node33 -->
<g id="node33" class="node"><title>Node33</title>
<g id="a_node33"><a xlink:href="../../db/d97/clsevent_8h.xhtml" target="_top" xlink:title="../resources/clsevent.h">
<polygon fill="white" stroke="black" points="1362.5,-112.5 1362.5,-131.5 1477.5,-131.5 1477.5,-112.5 1362.5,-112.5"/>
<text text-anchor="middle" x="1420" y="-119.5" font-family="Helvetica,sans-Serif" font-size="10.00">../resources/clsevent.h</text>
</a>
</g>
</g>
<!-- Node1&#45;&gt;Node33 -->
<g id="edge55" class="edge"><title>Node1&#45;&gt;Node33</title>
<path fill="none" stroke="midnightblue" d="M944.042,-304.866C1027.78,-300.581 1183.86,-288.386 1228,-256 1263.1,-230.248 1237.84,-196.202 1271,-168 1293.73,-148.666 1324.58,-137.638 1352.31,-131.349"/>
<polygon fill="midnightblue" stroke="midnightblue" points="1353.3,-134.718 1362.37,-129.239 1351.86,-127.867 1353.3,-134.718"/>
</g>
<!-- Node34 -->
<g id="node34" class="node"><title>Node34</title>
<g id="a_node34"><a xlink:href="../../db/dd2/events_8h.xhtml" target="_top" xlink:title="../resources/events\l/events.h">
<polygon fill="white" stroke="black" points="1436.5,-225 1436.5,-255 1535.5,-255 1535.5,-225 1436.5,-225"/>
<text text-anchor="start" x="1444.5" y="-243" font-family="Helvetica,sans-Serif" font-size="10.00">../resources/events</text>
<text text-anchor="middle" x="1486" y="-232" font-family="Helvetica,sans-Serif" font-size="10.00">/events.h</text>
</a>
</g>
</g>
<!-- Node1&#45;&gt;Node34 -->
<g id="edge61" class="edge"><title>Node1&#45;&gt;Node34</title>
<path fill="none" stroke="midnightblue" d="M944.206,-300.997C1055.76,-288.644 1310.28,-260.459 1426.34,-247.607"/>
<polygon fill="midnightblue" stroke="midnightblue" points="1426.9,-251.066 1436.46,-246.486 1426.13,-244.108 1426.9,-251.066"/>
</g>
<!-- Node4&#45;&gt;Node3 -->
<g id="edge4" class="edge"><title>Node4&#45;&gt;Node3</title>
<path fill="none" stroke="midnightblue" d="M353.881,-168.27C362.899,-159.812 376.003,-146.211 384,-132 392.143,-117.53 397.374,-99.3439 400.436,-85.8902"/>
<polygon fill="midnightblue" stroke="midnightblue" points="403.907,-86.3907 402.514,-75.8878 397.053,-84.9668 403.907,-86.3907"/>
</g>
<!-- Node5 -->
<g id="node5" class="node"><title>Node5</title>
<polygon fill="white" stroke="#bfbfbf" points="152.5,-112.5 152.5,-131.5 201.5,-131.5 201.5,-112.5 152.5,-112.5"/>
<text text-anchor="middle" x="177" y="-119.5" font-family="Helvetica,sans-Serif" font-size="10.00">QBuffer</text>
</g>
<!-- Node4&#45;&gt;Node5 -->
<g id="edge5" class="edge"><title>Node4&#45;&gt;Node5</title>
<path fill="none" stroke="midnightblue" d="M317.538,-168.444C288.824,-159.159 242.871,-144.3 211.38,-134.117"/>
<polygon fill="midnightblue" stroke="midnightblue" points="212.296,-130.735 201.705,-130.988 210.143,-137.395 212.296,-130.735"/>
</g>
<!-- Node6 -->
<g id="node6" class="node"><title>Node6</title>
<polygon fill="white" stroke="#bfbfbf" points="500,-0.5 500,-19.5 550,-19.5 550,-0.5 500,-0.5"/>
<text text-anchor="middle" x="525" y="-7.5" font-family="Helvetica,sans-Serif" font-size="10.00">QString</text>
</g>
<!-- Node4&#45;&gt;Node6 -->
<g id="edge6" class="edge"><title>Node4&#45;&gt;Node6</title>
<path fill="none" stroke="midnightblue" d="M314.075,-177.342C248.065,-177.061 99.2484,-170.161 144,-112 186.613,-56.6185 403.723,-25.3198 489.788,-14.926"/>
<polygon fill="midnightblue" stroke="midnightblue" points="490.332,-18.3861 499.851,-13.7343 489.509,-11.4347 490.332,-18.3861"/>
</g>
<!-- Node7 -->
<g id="node7" class="node"><title>Node7</title>
<polygon fill="white" stroke="#bfbfbf" points="796,-112.5 796,-131.5 866,-131.5 866,-112.5 796,-112.5"/>
<text text-anchor="middle" x="831" y="-119.5" font-family="Helvetica,sans-Serif" font-size="10.00">QTcpSocket</text>
</g>
<!-- Node4&#45;&gt;Node7 -->
<g id="edge7" class="edge"><title>Node4&#45;&gt;Node7</title>
<path fill="none" stroke="midnightblue" d="M373.607,-174.972C443.42,-169.98 623.939,-155.849 785.558,-131.913"/>
<polygon fill="midnightblue" stroke="midnightblue" points="786.312,-135.339 795.683,-130.396 785.275,-128.416 786.312,-135.339"/>
</g>
<!-- Node8 -->
<g id="node8" class="node"><title>Node8</title>
<polygon fill="white" stroke="#bfbfbf" points="88.5,-0.5 88.5,-19.5 153.5,-19.5 153.5,-0.5 88.5,-0.5"/>
<text text-anchor="middle" x="121" y="-7.5" font-family="Helvetica,sans-Serif" font-size="10.00">QStringList</text>
</g>
<!-- Node4&#45;&gt;Node8 -->
<g id="edge8" class="edge"><title>Node4&#45;&gt;Node8</title>
<path fill="none" stroke="midnightblue" d="M314.261,-177.609C264.732,-177.391 163.531,-171.612 90,-132 53.7458,-112.47 15.8457,-91.3313 37,-56 46.3068,-40.4561 63.0219,-29.9762 79.1043,-23.0722"/>
<polygon fill="midnightblue" stroke="midnightblue" points="80.409,-26.3202 88.4395,-19.4092 77.852,-19.8039 80.409,-26.3202"/>
</g>
<!-- Node9 -->
<g id="node9" class="node"><title>Node9</title>
<polygon fill="white" stroke="#bfbfbf" points="220,-112.5 220,-131.5 294,-131.5 294,-112.5 220,-112.5"/>
<text text-anchor="middle" x="257" y="-119.5" font-family="Helvetica,sans-Serif" font-size="10.00">QTextStream</text>
</g>
<!-- Node4&#45;&gt;Node9 -->
<g id="edge9" class="edge"><title>Node4&#45;&gt;Node9</title>
<path fill="none" stroke="midnightblue" d="M330.022,-168.324C316.45,-159.9 295.62,-146.971 279.675,-137.074"/>
<polygon fill="midnightblue" stroke="midnightblue" points="281.286,-133.954 270.943,-131.655 277.594,-139.902 281.286,-133.954"/>
</g>
<!-- Node10 -->
<g id="node10" class="node"><title>Node10</title>
<g id="a_node10"><a xlink:href="../../df/df2/irc_codes_8h.xhtml" target="_top" xlink:title="ircCodes.h">
<polygon fill="white" stroke="black" points="312.5,-112.5 312.5,-131.5 375.5,-131.5 375.5,-112.5 312.5,-112.5"/>
<text text-anchor="middle" x="344" y="-119.5" font-family="Helvetica,sans-Serif" font-size="10.00">ircCodes.h</text>
</a>
</g>
</g>
<!-- Node4&#45;&gt;Node10 -->
<g id="edge10" class="edge"><title>Node4&#45;&gt;Node10</title>
<path fill="none" stroke="midnightblue" d="M344,-168.083C344,-161.006 344,-150.861 344,-141.986"/>
<polygon fill="midnightblue" stroke="midnightblue" points="347.5,-141.751 344,-131.751 340.5,-141.751 347.5,-141.751"/>
</g>
<!-- Node4&#45;&gt;Node11 -->
<g id="edge11" class="edge"><title>Node4&#45;&gt;Node11</title>
<path fill="none" stroke="midnightblue" d="M314.227,-174.565C258.622,-169.494 141.741,-156.212 110,-132 95.0319,-120.582 86.6278,-100.297 82.2289,-85.4158"/>
<polygon fill="midnightblue" stroke="midnightblue" points="85.6144,-84.5276 79.697,-75.7393 78.8424,-86.2996 85.6144,-84.5276"/>
</g>
<!-- Node14 -->
<g id="node14" class="node"><title>Node14</title>
<g id="a_node14"><a xlink:href="../../d7/d62/clslog_8h.xhtml" target="_top" xlink:title="../resources/clslog.h">
<polygon fill="white" stroke="black" points="841.5,-56.5 841.5,-75.5 946.5,-75.5 946.5,-56.5 841.5,-56.5"/>
<text text-anchor="middle" x="894" y="-63.5" font-family="Helvetica,sans-Serif" font-size="10.00">../resources/clslog.h</text>
</a>
</g>
</g>
<!-- Node4&#45;&gt;Node14 -->
<g id="edge16" class="edge"><title>Node4&#45;&gt;Node14</title>
<path fill="none" stroke="midnightblue" d="M373.623,-168.87C422.412,-155.676 522.854,-129.334 609,-112 685.091,-96.689 773.479,-83.427 831.404,-75.3426"/>
<polygon fill="midnightblue" stroke="midnightblue" points="832.074,-78.7833 841.498,-73.9431 831.112,-71.8496 832.074,-78.7833"/>
</g>
<!-- Node4&#45;&gt;Node18 -->
<g id="edge22" class="edge"><title>Node4&#45;&gt;Node18</title>
<path fill="none" stroke="midnightblue" d="M362.222,-168.444C380.896,-159.675 410.156,-145.935 431.617,-135.858"/>
<polygon fill="midnightblue" stroke="midnightblue" points="433.299,-138.935 440.863,-131.516 430.324,-132.599 433.299,-138.935"/>
</g>
<!-- Node12 -->
<g id="node12" class="node"><title>Node12</title>
<polygon fill="white" stroke="#bfbfbf" points="305.5,-0.5 305.5,-19.5 346.5,-19.5 346.5,-0.5 305.5,-0.5"/>
<text text-anchor="middle" x="326" y="-7.5" font-family="Helvetica,sans-Serif" font-size="10.00">string</text>
</g>
<!-- Node11&#45;&gt;Node12 -->
<g id="edge12" class="edge"><title>Node11&#45;&gt;Node12</title>
<path fill="none" stroke="midnightblue" d="M110.167,-57.9958C158.296,-47.5162 248.416,-27.8932 295.533,-17.6339"/>
<polygon fill="midnightblue" stroke="midnightblue" points="296.423,-21.0223 305.449,-15.4748 294.933,-14.1826 296.423,-21.0223"/>
</g>
<!-- Node11&#45;&gt;Node6 -->
<g id="edge13" class="edge"><title>Node11&#45;&gt;Node6</title>
<path fill="none" stroke="midnightblue" d="M110.112,-58.371C114.761,-57.5122 119.496,-56.6922 124,-56 258.357,-35.3528 419.417,-20.1523 489.511,-14.0037"/>
<polygon fill="midnightblue" stroke="midnightblue" points="489.911,-17.4822 499.57,-13.1289 489.305,-10.5085 489.911,-17.4822"/>
</g>
<!-- Node11&#45;&gt;Node8 -->
<g id="edge14" class="edge"><title>Node11&#45;&gt;Node8</title>
<path fill="none" stroke="midnightblue" d="M85.1006,-56.083C91.237,-48.3768 100.27,-37.0333 107.739,-27.6531"/>
<polygon fill="midnightblue" stroke="midnightblue" points="110.54,-29.7542 114.032,-19.7511 105.064,-25.3936 110.54,-29.7542"/>
</g>
<!-- Node13 -->
<g id="node13" class="node"><title>Node13</title>
<polygon fill="white" stroke="#bfbfbf" points="-0.5,-0.5 -0.5,-19.5 70.5,-19.5 70.5,-0.5 -0.5,-0.5"/>
<text text-anchor="middle" x="35" y="-7.5" font-family="Helvetica,sans-Serif" font-size="10.00">QVariantList</text>
</g>
<!-- Node11&#45;&gt;Node13 -->
<g id="edge15" class="edge"><title>Node11&#45;&gt;Node13</title>
<path fill="none" stroke="midnightblue" d="M70.8994,-56.083C64.763,-48.3768 55.7303,-37.0333 48.2608,-27.6531"/>
<polygon fill="midnightblue" stroke="midnightblue" points="50.9357,-25.3936 41.9685,-19.7511 45.4598,-29.7542 50.9357,-25.3936"/>
</g>
<!-- Node15 -->
<g id="node15" class="node"><title>Node15</title>
<polygon fill="white" stroke="#bfbfbf" points="832,-0.5 832,-19.5 884,-19.5 884,-0.5 832,-0.5"/>
<text text-anchor="middle" x="858" y="-7.5" font-family="Helvetica,sans-Serif" font-size="10.00">QDebug</text>
</g>
<!-- Node14&#45;&gt;Node15 -->
<g id="edge17" class="edge"><title>Node14&#45;&gt;Node15</title>
<path fill="none" stroke="midnightblue" d="M888.055,-56.083C883.023,-48.5341 875.663,-37.4948 869.487,-28.2298"/>
<polygon fill="midnightblue" stroke="midnightblue" points="872.293,-26.1301 863.834,-19.7511 866.469,-30.0131 872.293,-26.1301"/>
</g>
<!-- Node16 -->
<g id="node16" class="node"><title>Node16</title>
<polygon fill="white" stroke="#bfbfbf" points="1159.5,-0.5 1159.5,-19.5 1224.5,-19.5 1224.5,-0.5 1159.5,-0.5"/>
<text text-anchor="middle" x="1192" y="-7.5" font-family="Helvetica,sans-Serif" font-size="10.00">QDateTime</text>
</g>
<!-- Node14&#45;&gt;Node16 -->
<g id="edge18" class="edge"><title>Node14&#45;&gt;Node16</title>
<path fill="none" stroke="midnightblue" d="M941.219,-56.4435C998.42,-46.0783 1093.96,-28.7664 1149.13,-18.7688"/>
<polygon fill="midnightblue" stroke="midnightblue" points="1150.06,-22.1578 1159.27,-16.9308 1148.81,-15.27 1150.06,-22.1578"/>
</g>
<!-- Node14&#45;&gt;Node12 -->
<g id="edge19" class="edge"><title>Node14&#45;&gt;Node12</title>
<path fill="none" stroke="midnightblue" d="M841.328,-59.9925C724.928,-48.9263 448.826,-22.6771 356.596,-13.9088"/>
<polygon fill="midnightblue" stroke="midnightblue" points="356.814,-10.4138 346.527,-12.9515 356.151,-17.3824 356.814,-10.4138"/>
</g>
<!-- Node17 -->
<g id="node17" class="node"><title>Node17</title>
<polygon fill="white" stroke="#bfbfbf" points="902,-0.5 902,-19.5 956,-19.5 956,-0.5 902,-0.5"/>
<text text-anchor="middle" x="929" y="-7.5" font-family="Helvetica,sans-Serif" font-size="10.00">iostream</text>
</g>
<!-- Node14&#45;&gt;Node17 -->
<g id="edge20" class="edge"><title>Node14&#45;&gt;Node17</title>
<path fill="none" stroke="midnightblue" d="M899.78,-56.083C904.672,-48.5341 911.827,-37.4948 917.833,-28.2298"/>
<polygon fill="midnightblue" stroke="midnightblue" points="920.826,-30.0463 923.328,-19.7511 914.952,-26.239 920.826,-30.0463"/>
</g>
<!-- Node14&#45;&gt;Node8 -->
<g id="edge21" class="edge"><title>Node14&#45;&gt;Node8</title>
<path fill="none" stroke="midnightblue" d="M841.476,-61.3308C697.061,-51.2423 295.985,-23.224 163.837,-13.9925"/>
<polygon fill="midnightblue" stroke="midnightblue" points="163.923,-10.4901 153.703,-13.2846 163.435,-17.473 163.923,-10.4901"/>
</g>
<!-- Node18&#45;&gt;Node6 -->
<g id="edge23" class="edge"><title>Node18&#45;&gt;Node6</title>
<path fill="none" stroke="midnightblue" d="M460.244,-112.446C462.425,-99.4606 467.815,-74.3481 479,-56 485.856,-44.7526 496.155,-34.32 505.27,-26.3375"/>
<polygon fill="midnightblue" stroke="midnightblue" points="507.739,-28.8357 513.176,-19.7424 503.255,-23.4604 507.739,-28.8357"/>
</g>
<!-- Node18&#45;&gt;Node3 -->
<g id="edge24" class="edge"><title>Node18&#45;&gt;Node3</title>
<path fill="none" stroke="midnightblue" d="M449.918,-112.083C441.829,-104.141 429.805,-92.3354 420.09,-82.7973"/>
<polygon fill="midnightblue" stroke="midnightblue" points="422.501,-80.2595 412.913,-75.7511 417.597,-85.2545 422.501,-80.2595"/>
</g>
<!-- Node19 -->
<g id="node19" class="node"><title>Node19</title>
<polygon fill="white" stroke="#bfbfbf" points="488,-56.5 488,-75.5 562,-75.5 562,-56.5 488,-56.5"/>
<text text-anchor="middle" x="525" y="-63.5" font-family="Helvetica,sans-Serif" font-size="10.00">QVariantMap</text>
</g>
<!-- Node18&#45;&gt;Node19 -->
<g id="edge25" class="edge"><title>Node18&#45;&gt;Node19</title>
<path fill="none" stroke="midnightblue" d="M469.604,-112.324C479.456,-104.263 494.351,-92.0765 506.215,-82.3695"/>
<polygon fill="midnightblue" stroke="midnightblue" points="508.68,-84.8752 514.203,-75.8339 504.247,-79.4575 508.68,-84.8752"/>
</g>
<!-- Node18&#45;&gt;Node11 -->
<g id="edge26" class="edge"><title>Node18&#45;&gt;Node11</title>
<path fill="none" stroke="midnightblue" d="M431.905,-117.16C366.418,-107.878 199.147,-84.1704 120.315,-72.9974"/>
<polygon fill="midnightblue" stroke="midnightblue" points="120.641,-69.5087 110.249,-71.5707 119.659,-76.4394 120.641,-69.5087"/>
</g>
<!-- Node18&#45;&gt;Node14 -->
<g id="edge27" class="edge"><title>Node18&#45;&gt;Node14</title>
<path fill="none" stroke="midnightblue" d="M486.272,-114.606C490.84,-113.652 495.543,-112.742 500,-112 616.179,-92.6662 753.026,-79.0771 831.039,-72.1885"/>
<polygon fill="midnightblue" stroke="midnightblue" points="831.527,-75.6593 841.184,-71.3012 830.917,-68.6859 831.527,-75.6593"/>
</g>
<!-- Node21 -->
<g id="node21" class="node"><title>Node21</title>
<polygon fill="white" stroke="#bfbfbf" points="884,-168.5 884,-187.5 950,-187.5 950,-168.5 884,-168.5"/>
<text text-anchor="middle" x="917" y="-175.5" font-family="Helvetica,sans-Serif" font-size="10.00">QTcpServer</text>
</g>
<!-- Node20&#45;&gt;Node21 -->
<g id="edge31" class="edge"><title>Node20&#45;&gt;Node21</title>
<path fill="none" stroke="midnightblue" d="M969.26,-230.403C959.838,-221.136 944.636,-206.183 933.051,-194.788"/>
<polygon fill="midnightblue" stroke="midnightblue" points="935.307,-192.098 925.724,-187.581 930.399,-197.088 935.307,-192.098"/>
</g>
<!-- Node22 -->
<g id="node22" class="node"><title>Node22</title>
<polygon fill="white" stroke="#bfbfbf" points="1006,-168.5 1006,-187.5 1046,-187.5 1046,-168.5 1006,-168.5"/>
<text text-anchor="middle" x="1026" y="-175.5" font-family="Helvetica,sans-Serif" font-size="10.00">QList</text>
</g>
<!-- Node20&#45;&gt;Node22 -->
<g id="edge32" class="edge"><title>Node20&#45;&gt;Node22</title>
<path fill="none" stroke="midnightblue" d="M984.877,-230.403C992.149,-221.314 1003.8,-206.756 1012.84,-195.449"/>
<polygon fill="midnightblue" stroke="midnightblue" points="1015.62,-197.576 1019.14,-187.581 1010.16,-193.203 1015.62,-197.576"/>
</g>
<!-- Node23 -->
<g id="node23" class="node"><title>Node23</title>
<polygon fill="white" stroke="#bfbfbf" points="1064.5,-168.5 1064.5,-187.5 1111.5,-187.5 1111.5,-168.5 1064.5,-168.5"/>
<text text-anchor="middle" x="1088" y="-175.5" font-family="Helvetica,sans-Serif" font-size="10.00">QHash</text>
</g>
<!-- Node20&#45;&gt;Node23 -->
<g id="edge33" class="edge"><title>Node20&#45;&gt;Node23</title>
<path fill="none" stroke="midnightblue" d="M993.76,-230.403C1011.98,-220.468 1042.17,-203.997 1063.47,-192.381"/>
<polygon fill="midnightblue" stroke="midnightblue" points="1065.17,-195.442 1072.27,-187.581 1061.81,-189.297 1065.17,-195.442"/>
</g>
<!-- Node20&#45;&gt;Node24 -->
<g id="edge34" class="edge"><title>Node20&#45;&gt;Node24</title>
<path fill="none" stroke="midnightblue" d="M1003.79,-230.403C1034.93,-220.022 1087.48,-202.506 1122.45,-190.849"/>
<polygon fill="midnightblue" stroke="midnightblue" points="1123.88,-194.063 1132.26,-187.581 1121.66,-187.423 1123.88,-194.063"/>
</g>
<!-- Node20&#45;&gt;Node14 -->
<g id="edge46" class="edge"><title>Node20&#45;&gt;Node14</title>
<path fill="none" stroke="midnightblue" d="M948.734,-233.347C924.308,-226.917 890.996,-213.769 875,-188 864.608,-171.259 879.219,-115.345 888.079,-85.7472"/>
<polygon fill="midnightblue" stroke="midnightblue" points="891.535,-86.4159 891.129,-75.8288 884.844,-84.3585 891.535,-86.4159"/>
</g>
<!-- Node27 -->
<g id="node27" class="node"><title>Node27</title>
<g id="a_node27"><a xlink:href="../../dc/d96/jsoncommand_8h.xhtml" target="_top" xlink:title="../resources/jsoncommand.h">
<polygon fill="white" stroke="black" points="922,-112.5 922,-131.5 1062,-131.5 1062,-112.5 922,-112.5"/>
<text text-anchor="middle" x="992" y="-119.5" font-family="Helvetica,sans-Serif" font-size="10.00">../resources/jsoncommand.h</text>
</a>
</g>
</g>
<!-- Node20&#45;&gt;Node27 -->
<g id="edge47" class="edge"><title>Node20&#45;&gt;Node27</title>
<path fill="none" stroke="midnightblue" d="M979.052,-230.281C981.313,-211.547 986.678,-167.098 989.745,-141.682"/>
<polygon fill="midnightblue" stroke="midnightblue" points="993.25,-141.852 990.974,-131.505 986.3,-141.013 993.25,-141.852"/>
</g>
<!-- Node24&#45;&gt;Node7 -->
<g id="edge35" class="edge"><title>Node24&#45;&gt;Node7</title>
<path fill="none" stroke="midnightblue" d="M1129.83,-170.07C1126.53,-169.333 1123.19,-168.626 1120,-168 1034.39,-151.223 933.522,-136.697 876.436,-128.956"/>
<polygon fill="midnightblue" stroke="midnightblue" points="876.677,-125.457 866.3,-127.591 875.743,-132.395 876.677,-125.457"/>
</g>
<!-- Node25 -->
<g id="node25" class="node"><title>Node25</title>
<polygon fill="white" stroke="#bfbfbf" points="1118,-112.5 1118,-131.5 1198,-131.5 1198,-112.5 1118,-112.5"/>
<text text-anchor="middle" x="1158" y="-119.5" font-family="Helvetica,sans-Serif" font-size="10.00">QHostAddress</text>
</g>
<!-- Node24&#45;&gt;Node25 -->
<g id="edge36" class="edge"><title>Node24&#45;&gt;Node25</title>
<path fill="none" stroke="midnightblue" d="M1158,-168.083C1158,-161.006 1158,-150.861 1158,-141.986"/>
<polygon fill="midnightblue" stroke="midnightblue" points="1161.5,-141.751 1158,-131.751 1154.5,-141.751 1161.5,-141.751"/>
</g>
<!-- Node26 -->
<g id="node26" class="node"><title>Node26</title>
<polygon fill="white" stroke="#bfbfbf" points="1216.5,-112.5 1216.5,-131.5 1305.5,-131.5 1305.5,-112.5 1216.5,-112.5"/>
<text text-anchor="middle" x="1261" y="-119.5" font-family="Helvetica,sans-Serif" font-size="10.00">QJsonDocument</text>
</g>
<!-- Node24&#45;&gt;Node26 -->
<g id="edge37" class="edge"><title>Node24&#45;&gt;Node26</title>
<path fill="none" stroke="midnightblue" d="M1174.55,-168.324C1190.99,-159.703 1216.43,-146.364 1235.47,-136.386"/>
<polygon fill="midnightblue" stroke="midnightblue" points="1237.26,-139.398 1244.49,-131.655 1234.01,-133.198 1237.26,-139.398"/>
</g>
<!-- Node24&#45;&gt;Node14 -->
<g id="edge38" class="edge"><title>Node24&#45;&gt;Node14</title>
<path fill="none" stroke="midnightblue" d="M1149.14,-168.466C1134.23,-154.574 1102.65,-127.105 1071,-112 1034.93,-94.784 991.465,-83.6117 956.635,-76.7054"/>
<polygon fill="midnightblue" stroke="midnightblue" points="957.067,-73.2247 946.588,-74.7831 955.752,-80.1 957.067,-73.2247"/>
</g>
<!-- Node24&#45;&gt;Node27 -->
<g id="edge39" class="edge"><title>Node24&#45;&gt;Node27</title>
<path fill="none" stroke="midnightblue" d="M1131.7,-168.444C1103.65,-159.32 1059.06,-144.813 1027.82,-134.651"/>
<polygon fill="midnightblue" stroke="midnightblue" points="1028.77,-131.282 1018.18,-131.516 1026.61,-137.938 1028.77,-131.282"/>
</g>
<!-- Node27&#45;&gt;Node2 -->
<g id="edge40" class="edge"><title>Node27&#45;&gt;Node2</title>
<path fill="none" stroke="midnightblue" d="M1039.06,-112.444C1098.1,-101.71 1198.11,-83.5258 1251.98,-73.7302"/>
<polygon fill="midnightblue" stroke="midnightblue" points="1252.91,-77.12 1262.12,-71.8876 1251.65,-70.233 1252.91,-77.12"/>
</g>
<!-- Node27&#45;&gt;Node19 -->
<g id="edge41" class="edge"><title>Node27&#45;&gt;Node19</title>
<path fill="none" stroke="midnightblue" d="M921.833,-112.886C825.502,-101.748 654.867,-82.0167 572.33,-72.4728"/>
<polygon fill="midnightblue" stroke="midnightblue" points="572.572,-68.9775 562.236,-71.3056 571.767,-75.9312 572.572,-68.9775"/>
</g>
<!-- Node28 -->
<g id="node28" class="node"><title>Node28</title>
<g id="a_node28"><a xlink:href="../../d4/d05/json_8h.xhtml" target="_top" xlink:title="json.h">
<polygon fill="white" stroke="black" points="970.5,-56.5 970.5,-75.5 1013.5,-75.5 1013.5,-56.5 970.5,-56.5"/>
<text text-anchor="middle" x="992" y="-63.5" font-family="Helvetica,sans-Serif" font-size="10.00">json.h</text>
</a>
</g>
</g>
<!-- Node27&#45;&gt;Node28 -->
<g id="edge42" class="edge"><title>Node27&#45;&gt;Node28</title>
<path fill="none" stroke="midnightblue" d="M992,-112.083C992,-105.006 992,-94.8611 992,-85.9865"/>
<polygon fill="midnightblue" stroke="midnightblue" points="995.5,-85.751 992,-75.7511 988.5,-85.7511 995.5,-85.751"/>
</g>
<!-- Node27&#45;&gt;Node14 -->
<g id="edge45" class="edge"><title>Node27&#45;&gt;Node14</title>
<path fill="none" stroke="midnightblue" d="M976.255,-112.324C960.681,-103.743 936.623,-90.486 918.541,-80.5224"/>
<polygon fill="midnightblue" stroke="midnightblue" points="920.154,-77.4152 909.706,-75.6545 916.776,-83.546 920.154,-77.4152"/>
</g>
<!-- Node29 -->
<g id="node29" class="node"><title>Node29</title>
<polygon fill="white" stroke="#bfbfbf" points="1334.5,-0.5 1334.5,-19.5 1389.5,-19.5 1389.5,-0.5 1334.5,-0.5"/>
<text text-anchor="middle" x="1362" y="-7.5" font-family="Helvetica,sans-Serif" font-size="10.00">QVariant</text>
</g>
<!-- Node28&#45;&gt;Node29 -->
<g id="edge43" class="edge"><title>Node28&#45;&gt;Node29</title>
<path fill="none" stroke="midnightblue" d="M1013.76,-61.8237C1074.64,-52.9384 1247.25,-27.7476 1324.18,-16.5191"/>
<polygon fill="midnightblue" stroke="midnightblue" points="1324.99,-19.9381 1334.38,-15.0305 1323.98,-13.0115 1324.99,-19.9381"/>
</g>
<!-- Node28&#45;&gt;Node6 -->
<g id="edge44" class="edge"><title>Node28&#45;&gt;Node6</title>
<path fill="none" stroke="midnightblue" d="M970.189,-59.18C965.223,-57.9986 959.951,-56.8572 955,-56 809.784,-30.8573 634.377,-17.8111 560.512,-13.0961"/>
<polygon fill="midnightblue" stroke="midnightblue" points="560.565,-9.59267 550.366,-12.4604 560.128,-16.579 560.565,-9.59267"/>
</g>
<!-- Node30&#45;&gt;Node6 -->
<g id="edge50" class="edge"><title>Node30&#45;&gt;Node6</title>
<path fill="none" stroke="midnightblue" d="M612.369,-168.491C608.134,-147.872 595.381,-94.1281 571,-56 563.812,-44.7583 553.318,-34.2111 544.168,-26.1573"/>
<polygon fill="midnightblue" stroke="midnightblue" points="546.18,-23.2761 536.276,-19.5136 541.672,-28.6313 546.18,-23.2761"/>
</g>
<!-- Node31 -->
<g id="node31" class="node"><title>Node31</title>
<polygon fill="white" stroke="#bfbfbf" points="618,-112.5 618,-131.5 658,-131.5 658,-112.5 618,-112.5"/>
<text text-anchor="middle" x="638" y="-119.5" font-family="Helvetica,sans-Serif" font-size="10.00">QFile</text>
</g>
<!-- Node30&#45;&gt;Node31 -->
<g id="edge51" class="edge"><title>Node30&#45;&gt;Node31</title>
<path fill="none" stroke="midnightblue" d="M617.963,-168.083C621.213,-160.77 625.919,-150.181 629.954,-141.103"/>
<polygon fill="midnightblue" stroke="midnightblue" points="633.248,-142.311 634.111,-131.751 626.851,-139.468 633.248,-142.311"/>
</g>
<!-- Node32 -->
<g id="node32" class="node"><title>Node32</title>
<polygon fill="white" stroke="#bfbfbf" points="676,-112.5 676,-131.5 778,-131.5 778,-112.5 676,-112.5"/>
<text text-anchor="middle" x="727" y="-119.5" font-family="Helvetica,sans-Serif" font-size="10.00">QXmlStreamReader</text>
</g>
<!-- Node30&#45;&gt;Node32 -->
<g id="edge52" class="edge"><title>Node30&#45;&gt;Node32</title>
<path fill="none" stroke="midnightblue" d="M631.905,-168.444C650.254,-159.675 679.005,-145.935 700.094,-135.858"/>
<polygon fill="midnightblue" stroke="midnightblue" points="701.665,-138.986 709.179,-131.516 698.647,-132.67 701.665,-138.986"/>
</g>
<!-- Node30&#45;&gt;Node3 -->
<g id="edge53" class="edge"><title>Node30&#45;&gt;Node3</title>
<path fill="none" stroke="midnightblue" d="M598.703,-168.385C576.153,-155.744 532.593,-131.552 495,-112 473.759,-100.953 449.437,-88.9587 431.285,-80.1333"/>
<polygon fill="midnightblue" stroke="midnightblue" points="432.419,-76.7938 421.894,-75.5825 429.366,-83.0931 432.419,-76.7938"/>
</g>
<!-- Node30&#45;&gt;Node18 -->
<g id="edge54" class="edge"><title>Node30&#45;&gt;Node18</title>
<path fill="none" stroke="midnightblue" d="M589.44,-168.444C563.477,-159.399 522.332,-145.064 493.203,-134.916"/>
<polygon fill="midnightblue" stroke="midnightblue" points="494.04,-131.501 483.445,-131.516 491.737,-138.112 494.04,-131.501"/>
</g>
<!-- Node33&#45;&gt;Node2 -->
<g id="edge56" class="edge"><title>Node33&#45;&gt;Node2</title>
<path fill="none" stroke="midnightblue" d="M1399.24,-112.444C1377.68,-103.557 1343.74,-89.5632 1319.21,-79.4514"/>
<polygon fill="midnightblue" stroke="midnightblue" points="1320.24,-76.0917 1309.66,-75.5164 1317.57,-82.5634 1320.24,-76.0917"/>
</g>
<!-- Node33&#45;&gt;Node6 -->
<g id="edge57" class="edge"><title>Node33&#45;&gt;Node6</title>
<path fill="none" stroke="midnightblue" d="M1408.19,-112.482C1384.65,-95.5811 1333.34,-59.1559 1324,-56 1251.04,-31.3589 705.204,-15.6475 560.254,-11.8799"/>
<polygon fill="midnightblue" stroke="midnightblue" points="560.226,-8.37808 550.139,-11.6195 560.045,-15.3758 560.226,-8.37808"/>
</g>
<!-- Node33&#45;&gt;Node29 -->
<g id="edge58" class="edge"><title>Node33&#45;&gt;Node29</title>
<path fill="none" stroke="midnightblue" d="M1417.66,-112.238C1414.03,-99.4153 1406.39,-74.9983 1396,-56 1390.49,-45.9254 1382.9,-35.6383 1376.28,-27.4473"/>
<polygon fill="midnightblue" stroke="midnightblue" points="1378.96,-25.2016 1369.87,-19.767 1373.59,-29.687 1378.96,-25.2016"/>
</g>
<!-- Node33&#45;&gt;Node16 -->
<g id="edge59" class="edge"><title>Node33&#45;&gt;Node16</title>
<path fill="none" stroke="midnightblue" d="M1414.22,-112.406C1404.36,-98.4262 1382.93,-70.8355 1358,-56 1319.7,-33.2047 1269.63,-21.6932 1234.53,-16.0568"/>
<polygon fill="midnightblue" stroke="midnightblue" points="1235.01,-12.5899 1224.6,-14.5542 1233.97,-19.5111 1235.01,-12.5899"/>
</g>
<!-- Node33&#45;&gt;Node14 -->
<g id="edge60" class="edge"><title>Node33&#45;&gt;Node14</title>
<path fill="none" stroke="midnightblue" d="M1362.32,-116.013C1275.27,-108.335 1105.16,-92.7433 961,-76 959.543,-75.8307 958.068,-75.6566 956.581,-75.4783"/>
<polygon fill="midnightblue" stroke="midnightblue" points="956.998,-72.0033 946.645,-74.2527 956.141,-78.9506 956.998,-72.0033"/>
</g>
<!-- Node35 -->
<g id="node35" class="node"><title>Node35</title>
<g id="a_node35"><a xlink:href="../../db/d70/eventchat_8h.xhtml" target="_top" xlink:title="eventchat.h">
<polygon fill="white" stroke="black" points="1763,-168.5 1763,-187.5 1829,-187.5 1829,-168.5 1763,-168.5"/>
<text text-anchor="middle" x="1796" y="-175.5" font-family="Helvetica,sans-Serif" font-size="10.00">eventchat.h</text>
</a>
</g>
</g>
<!-- Node34&#45;&gt;Node35 -->
<g id="edge62" class="edge"><title>Node34&#45;&gt;Node35</title>
<path fill="none" stroke="midnightblue" d="M1535.75,-229.767C1587.32,-220.137 1670.52,-204.43 1752.67,-188.037"/>
<polygon fill="midnightblue" stroke="midnightblue" points="1753.56,-191.428 1762.68,-186.035 1752.19,-184.564 1753.56,-191.428"/>
</g>
<!-- Node36 -->
<g id="node36" class="node"><title>Node36</title>
<g id="a_node36"><a xlink:href="../../d5/d02/eventuserjoin_8h.xhtml" target="_top" xlink:title="eventuserjoin.h">
<polygon fill="white" stroke="black" points="1280.5,-168.5 1280.5,-187.5 1361.5,-187.5 1361.5,-168.5 1280.5,-168.5"/>
<text text-anchor="middle" x="1321" y="-175.5" font-family="Helvetica,sans-Serif" font-size="10.00">eventuserjoin.h</text>
</a>
</g>
</g>
<!-- Node34&#45;&gt;Node36 -->
<g id="edge64" class="edge"><title>Node34&#45;&gt;Node36</title>
<path fill="none" stroke="midnightblue" d="M1447.31,-224.933C1419.1,-214.674 1381.27,-200.915 1354.38,-191.137"/>
<polygon fill="midnightblue" stroke="midnightblue" points="1355.24,-187.728 1344.65,-187.6 1352.85,-194.307 1355.24,-187.728"/>
</g>
<!-- Node37 -->
<g id="node37" class="node"><title>Node37</title>
<g id="a_node37"><a xlink:href="../../d7/d56/eventuserleave_8h.xhtml" target="_top" xlink:title="eventuserleave.h">
<polygon fill="white" stroke="black" points="1380,-168.5 1380,-187.5 1468,-187.5 1468,-168.5 1380,-168.5"/>
<text text-anchor="middle" x="1424" y="-175.5" font-family="Helvetica,sans-Serif" font-size="10.00">eventuserleave.h</text>
</a>
</g>
</g>
<!-- Node34&#45;&gt;Node37 -->
<g id="edge66" class="edge"><title>Node34&#45;&gt;Node37</title>
<path fill="none" stroke="midnightblue" d="M1471.31,-224.781C1462.02,-215.792 1450,-204.162 1440.4,-194.873"/>
<polygon fill="midnightblue" stroke="midnightblue" points="1442.64,-192.17 1433.02,-187.731 1437.77,-197.2 1442.64,-192.17"/>
</g>
<!-- Node38 -->
<g id="node38" class="node"><title>Node38</title>
<g id="a_node38"><a xlink:href="../../db/db0/eventuserchangestatus_8h.xhtml" target="_top" xlink:title="eventuserchangestatus.h">
<polygon fill="white" stroke="black" points="1485.5,-168.5 1485.5,-187.5 1610.5,-187.5 1610.5,-168.5 1485.5,-168.5"/>
<text text-anchor="middle" x="1548" y="-175.5" font-family="Helvetica,sans-Serif" font-size="10.00">eventuserchangestatus.h</text>
</a>
</g>
</g>
<!-- Node34&#45;&gt;Node38 -->
<g id="edge68" class="edge"><title>Node34&#45;&gt;Node38</title>
<path fill="none" stroke="midnightblue" d="M1500.69,-224.781C1509.98,-215.792 1522,-204.162 1531.6,-194.873"/>
<polygon fill="midnightblue" stroke="midnightblue" points="1534.23,-197.2 1538.98,-187.731 1529.36,-192.17 1534.23,-197.2"/>
</g>
<!-- Node39 -->
<g id="node39" class="node"><title>Node39</title>
<g id="a_node39"><a xlink:href="../../d8/d44/eventuserchangenick_8h.xhtml" target="_top" xlink:title="eventuserchangenick.h">
<polygon fill="white" stroke="black" points="1629,-168.5 1629,-187.5 1745,-187.5 1745,-168.5 1629,-168.5"/>
<text text-anchor="middle" x="1687" y="-175.5" font-family="Helvetica,sans-Serif" font-size="10.00">eventuserchangenick.h</text>
</a>
</g>
</g>
<!-- Node34&#45;&gt;Node39 -->
<g id="edge70" class="edge"><title>Node34&#45;&gt;Node39</title>
<path fill="none" stroke="midnightblue" d="M1533.13,-224.933C1568.35,-214.417 1615.91,-200.222 1648.78,-190.409"/>
<polygon fill="midnightblue" stroke="midnightblue" points="1649.9,-193.727 1658.48,-187.513 1647.9,-187.019 1649.9,-193.727"/>
</g>
<!-- Node35&#45;&gt;Node33 -->
<g id="edge63" class="edge"><title>Node35&#45;&gt;Node33</title>
<path fill="none" stroke="midnightblue" d="M1762.71,-169.786C1759.44,-169.15 1756.16,-168.543 1753,-168 1661.54,-152.269 1555.16,-138.712 1487.72,-130.702"/>
<polygon fill="midnightblue" stroke="midnightblue" points="1487.99,-127.209 1477.65,-129.512 1487.17,-134.161 1487.99,-127.209"/>
</g>
<!-- Node36&#45;&gt;Node33 -->
<g id="edge65" class="edge"><title>Node36&#45;&gt;Node33</title>
<path fill="none" stroke="midnightblue" d="M1336.91,-168.324C1352.64,-159.743 1376.94,-146.486 1395.21,-136.522"/>
<polygon fill="midnightblue" stroke="midnightblue" points="1397.03,-139.516 1404.13,-131.655 1393.68,-133.37 1397.03,-139.516"/>
</g>
<!-- Node37&#45;&gt;Node33 -->
<g id="edge67" class="edge"><title>Node37&#45;&gt;Node33</title>
<path fill="none" stroke="midnightblue" d="M1423.34,-168.083C1422.82,-161.006 1422.06,-150.861 1421.41,-141.986"/>
<polygon fill="midnightblue" stroke="midnightblue" points="1424.88,-141.465 1420.65,-131.751 1417.9,-141.982 1424.88,-141.465"/>
</g>
<!-- Node38&#45;&gt;Node33 -->
<g id="edge69" class="edge"><title>Node38&#45;&gt;Node33</title>
<path fill="none" stroke="midnightblue" d="M1527.72,-168.444C1506.65,-159.557 1473.48,-145.563 1449.51,-135.451"/>
<polygon fill="midnightblue" stroke="midnightblue" points="1450.76,-132.179 1440.19,-131.516 1448.04,-138.628 1450.76,-132.179"/>
</g>
<!-- Node39&#45;&gt;Node33 -->
<g id="edge71" class="edge"><title>Node39&#45;&gt;Node33</title>
<path fill="none" stroke="midnightblue" d="M1644.69,-168.444C1597.92,-158.984 1522.54,-143.738 1472.15,-133.547"/>
<polygon fill="midnightblue" stroke="midnightblue" points="1472.6,-130.068 1462.11,-131.516 1471.22,-136.929 1472.6,-130.068"/>
</g>
</g>
</svg>
