<?xml version="1.0" encoding="UTF-8" standalone="no"?>
<!DOCTYPE svg PUBLIC "-//W3C//DTD SVG 1.1//EN"
 "http://www.w3.org/Graphics/SVG/1.1/DTD/svg11.dtd">
<!-- Generated by graphviz version 2.30.1 (20130303.0817)
 -->
<!-- Title: C++/customIrcServer/mainapp.h Pages: 1 -->
<svg width="1993pt" height="332pt"
 viewBox="0.00 0.00 1992.74 332.00" xmlns="http://www.w3.org/2000/svg" xmlns:xlink="http://www.w3.org/1999/xlink">
<g id="graph0" class="graph" transform="scale(1 1) rotate(0) translate(4 328)">
<title>C++/customIrcServer/mainapp.h</title>
<polygon fill="white" stroke="white" points="-4,5 -4,-328 1989.74,-328 1989.74,5 -4,5"/>
<!-- Node1 -->
<g id="node1" class="node"><title>Node1</title>
<polygon fill="#bfbfbf" stroke="black" points="616.736,-293 616.736,-323 724.736,-323 724.736,-293 616.736,-293"/>
<text text-anchor="start" x="624.736" y="-311" font-family="Helvetica,sans-Serif" font-size="10.00">C++/customIrcServer</text>
<text text-anchor="middle" x="670.736" y="-300" font-family="Helvetica,sans-Serif" font-size="10.00">/mainapp.h</text>
</g>
<!-- Node2 -->
<g id="node2" class="node"><title>Node2</title>
<polygon fill="white" stroke="#bfbfbf" points="1343.24,-56.5 1343.24,-75.5 1396.24,-75.5 1396.24,-56.5 1343.24,-56.5"/>
<text text-anchor="middle" x="1369.74" y="-63.5" font-family="Helvetica,sans-Serif" font-size="10.00">QObject</text>
</g>
<!-- Node1&#45;&gt;Node2 -->
<g id="edge1" class="edge"><title>Node1&#45;&gt;Node2</title>
<path fill="none" stroke="midnightblue" d="M724.852,-304.896C802.774,-300.799 950.534,-289.021 1071.74,-256 1167.4,-229.937 1183.62,-202.073 1276.74,-168 1328.23,-149.158 1362.11,-176.067 1394.74,-132 1405.58,-117.355 1394.99,-97.4237 1384.45,-83.5073"/>
<polygon fill="midnightblue" stroke="midnightblue" points="1387.12,-81.2462 1378.08,-75.7206 1381.7,-85.6775 1387.12,-81.2462"/>
</g>
<!-- Node3 -->
<g id="node3" class="node"><title>Node3</title>
<polygon fill="white" stroke="#bfbfbf" points="458.236,-56.5 458.236,-75.5 511.236,-75.5 511.236,-56.5 458.236,-56.5"/>
<text text-anchor="middle" x="484.736" y="-63.5" font-family="Helvetica,sans-Serif" font-size="10.00">QVector</text>
</g>
<!-- Node1&#45;&gt;Node3 -->
<g id="edge2" class="edge"><title>Node1&#45;&gt;Node3</title>
<path fill="none" stroke="midnightblue" d="M651.835,-292.954C616.855,-265.898 542.099,-202.922 503.736,-132 495.87,-117.458 490.913,-99.2786 488.042,-85.8461"/>
<polygon fill="midnightblue" stroke="midnightblue" points="491.446,-85.0126 486.103,-75.8632 484.574,-86.3471 491.446,-85.0126"/>
</g>
<!-- Node4 -->
<g id="node4" class="node"><title>Node4</title>
<polygon fill="white" stroke="#bfbfbf" points="14.7361,-112.5 14.7361,-131.5 62.7361,-131.5 62.7361,-112.5 14.7361,-112.5"/>
<text text-anchor="middle" x="38.7361" y="-119.5" font-family="Helvetica,sans-Serif" font-size="10.00">QTimer</text>
</g>
<!-- Node1&#45;&gt;Node4 -->
<g id="edge3" class="edge"><title>Node1&#45;&gt;Node4</title>
<path fill="none" stroke="midnightblue" d="M616.7,-298.893C563.529,-290.343 480.291,-275.42 409.736,-256 280.112,-220.322 130.911,-161.061 68.5473,-135.436"/>
<polygon fill="midnightblue" stroke="midnightblue" points="69.8792,-132.2 59.3001,-131.621 67.2095,-138.671 69.8792,-132.2"/>
</g>
<!-- Node5 -->
<g id="node5" class="node"><title>Node5</title>
<g id="a_node5"><a xlink:href="../../d4/df9/ircclient_8h.html" target="_top" xlink:title="ircclient.h">
<polygon fill="white" stroke="black" points="314.236,-168.5 314.236,-187.5 373.236,-187.5 373.236,-168.5 314.236,-168.5"/>
<text text-anchor="middle" x="343.736" y="-175.5" font-family="Helvetica,sans-Serif" font-size="10.00">ircclient.h</text>
</a>
</g>
</g>
<!-- Node1&#45;&gt;Node5 -->
<g id="edge4" class="edge"><title>Node1&#45;&gt;Node5</title>
<path fill="none" stroke="midnightblue" d="M616.71,-297.723C575.65,-289.609 518.316,-275.968 470.736,-256 430.469,-239.101 387.896,-210.86 363.692,-193.681"/>
<polygon fill="midnightblue" stroke="midnightblue" points="365.52,-190.684 355.358,-187.685 361.431,-196.367 365.52,-190.684"/>
</g>
<!-- Node12 -->
<g id="node12" class="node"><title>Node12</title>
<g id="a_node12"><a xlink:href="../../d8/d5c/functions_8h.html" target="_top" xlink:title="functions.h">
<polygon fill="white" stroke="black" points="118.736,-56.5 118.736,-75.5 182.736,-75.5 182.736,-56.5 118.736,-56.5"/>
<text text-anchor="middle" x="150.736" y="-63.5" font-family="Helvetica,sans-Serif" font-size="10.00">functions.h</text>
</a>
</g>
</g>
<!-- Node1&#45;&gt;Node12 -->
<g id="edge30" class="edge"><title>Node1&#45;&gt;Node12</title>
<path fill="none" stroke="midnightblue" d="M616.539,-303.867C543.984,-298.688 411.778,-285.78 302.736,-256 164.747,-218.314 85.0392,-251.047 5.73607,-132 -21.077,-91.7492 56.8347,-76.144 108.612,-70.3055"/>
<polygon fill="midnightblue" stroke="midnightblue" points="108.998,-73.7842 118.58,-69.2636 108.27,-66.8222 108.998,-73.7842"/>
</g>
<!-- Node19 -->
<g id="node19" class="node"><title>Node19</title>
<g id="a_node19"><a xlink:href="../../d6/d32/custom_irc_server_2ircuser_8h.html" target="_top" xlink:title="ircuser.h">
<polygon fill="white" stroke="black" points="512.736,-112.5 512.736,-131.5 566.736,-131.5 566.736,-112.5 512.736,-112.5"/>
<text text-anchor="middle" x="539.736" y="-119.5" font-family="Helvetica,sans-Serif" font-size="10.00">ircuser.h</text>
</a>
</g>
</g>
<!-- Node1&#45;&gt;Node19 -->
<g id="edge31" class="edge"><title>Node1&#45;&gt;Node19</title>
<path fill="none" stroke="midnightblue" d="M660.674,-292.867C637.025,-259.65 577.959,-176.688 552.142,-140.425"/>
<polygon fill="midnightblue" stroke="midnightblue" points="554.717,-138.008 546.066,-131.891 549.015,-142.067 554.717,-138.008"/>
</g>
<!-- Node21 -->
<g id="node21" class="node"><title>Node21</title>
<g id="a_node21"><a xlink:href="../../d7/d1c/uiserver_8h.html" target="_top" xlink:title="uiserver.h">
<polygon fill="white" stroke="black" points="953.736,-230.5 953.736,-249.5 1011.74,-249.5 1011.74,-230.5 953.736,-230.5"/>
<text text-anchor="middle" x="982.736" y="-237.5" font-family="Helvetica,sans-Serif" font-size="10.00">uiserver.h</text>
</a>
</g>
</g>
<!-- Node1&#45;&gt;Node21 -->
<g id="edge32" class="edge"><title>Node1&#45;&gt;Node21</title>
<path fill="none" stroke="midnightblue" d="M725.082,-295.504C787.41,-282.319 888.082,-261.023 943.326,-249.337"/>
<polygon fill="midnightblue" stroke="midnightblue" points="944.36,-252.696 953.419,-247.202 942.911,-245.847 944.36,-252.696"/>
</g>
<!-- Node25 -->
<g id="node25" class="node"><title>Node25</title>
<g id="a_node25"><a xlink:href="../../d1/de1/uiclient_8h.html" target="_top" xlink:title="uiclient.h">
<polygon fill="white" stroke="black" points="1146.74,-168.5 1146.74,-187.5 1202.74,-187.5 1202.74,-168.5 1146.74,-168.5"/>
<text text-anchor="middle" x="1174.74" y="-175.5" font-family="Helvetica,sans-Serif" font-size="10.00">uiclient.h</text>
</a>
</g>
</g>
<!-- Node1&#45;&gt;Node25 -->
<g id="edge50" class="edge"><title>Node1&#45;&gt;Node25</title>
<path fill="none" stroke="midnightblue" d="M724.82,-304.384C794.436,-299.828 918.484,-287.663 1019.74,-256 1069.68,-240.382 1123.4,-210.379 1152.65,-192.79"/>
<polygon fill="midnightblue" stroke="midnightblue" points="1154.53,-195.742 1161.25,-187.55 1150.89,-189.765 1154.53,-195.742"/>
</g>
<!-- Node31 -->
<g id="node31" class="node"><title>Node31</title>
<g id="a_node31"><a xlink:href="../../d6/d0d/custom_irc_server_2clssettings_8h.html" target="_top" xlink:title="clssettings.h">
<polygon fill="white" stroke="black" points="634.736,-168.5 634.736,-187.5 706.736,-187.5 706.736,-168.5 634.736,-168.5"/>
<text text-anchor="middle" x="670.736" y="-175.5" font-family="Helvetica,sans-Serif" font-size="10.00">clssettings.h</text>
</a>
</g>
</g>
<!-- Node1&#45;&gt;Node31 -->
<g id="edge51" class="edge"><title>Node1&#45;&gt;Node31</title>
<path fill="none" stroke="midnightblue" d="M670.736,-292.813C670.736,-269.67 670.736,-223.785 670.736,-197.904"/>
<polygon fill="midnightblue" stroke="midnightblue" points="674.236,-197.574 670.736,-187.574 667.236,-197.574 674.236,-197.574"/>
</g>
<!-- Node34 -->
<g id="node34" class="node"><title>Node34</title>
<g id="a_node34"><a xlink:href="../../db/d97/clsevent_8h.html" target="_top" xlink:title="../resources/clsevent.h">
<polygon fill="white" stroke="black" points="1443.24,-112.5 1443.24,-131.5 1558.24,-131.5 1558.24,-112.5 1443.24,-112.5"/>
<text text-anchor="middle" x="1500.74" y="-119.5" font-family="Helvetica,sans-Serif" font-size="10.00">../resources/clsevent.h</text>
</a>
</g>
</g>
<!-- Node1&#45;&gt;Node34 -->
<g id="edge57" class="edge"><title>Node1&#45;&gt;Node34</title>
<path fill="none" stroke="midnightblue" d="M725.227,-305.256C861.608,-300.467 1209.84,-285.466 1252.74,-256 1288.62,-231.355 1261.51,-194.901 1295.74,-168 1316.89,-151.375 1381.84,-138.958 1433.03,-131.425"/>
<polygon fill="midnightblue" stroke="midnightblue" points="1433.66,-134.869 1443.06,-129.984 1432.67,-127.941 1433.66,-134.869"/>
</g>
<!-- Node35 -->
<g id="node35" class="node"><title>Node35</title>
<g id="a_node35"><a xlink:href="../../db/dd2/events_8h.html" target="_top" xlink:title="../resources/events\l/events.h">
<polygon fill="white" stroke="black" points="1554.24,-225 1554.24,-255 1653.24,-255 1653.24,-225 1554.24,-225"/>
<text text-anchor="start" x="1562.24" y="-243" font-family="Helvetica,sans-Serif" font-size="10.00">../resources/events</text>
<text text-anchor="middle" x="1603.74" y="-232" font-family="Helvetica,sans-Serif" font-size="10.00">/events.h</text>
</a>
</g>
</g>
<!-- Node1&#45;&gt;Node35 -->
<g id="edge63" class="edge"><title>Node1&#45;&gt;Node35</title>
<path fill="none" stroke="midnightblue" d="M724.931,-303.166C888.055,-291.627 1373.68,-257.274 1543.94,-245.23"/>
<polygon fill="midnightblue" stroke="midnightblue" points="1544.25,-248.717 1553.98,-244.52 1543.75,-241.734 1544.25,-248.717"/>
</g>
<!-- Node5&#45;&gt;Node3 -->
<g id="edge5" class="edge"><title>Node5&#45;&gt;Node3</title>
<path fill="none" stroke="midnightblue" d="M364.028,-168.41C381.602,-160.428 407.2,-147.463 426.736,-132 444.441,-117.987 461.222,-98.2109 472.135,-84.1601"/>
<polygon fill="midnightblue" stroke="midnightblue" points="475.164,-85.9571 478.409,-75.8715 469.583,-81.732 475.164,-85.9571"/>
</g>
<!-- Node5&#45;&gt;Node4 -->
<g id="edge6" class="edge"><title>Node5&#45;&gt;Node4</title>
<path fill="none" stroke="midnightblue" d="M313.986,-172.638C264.548,-165.244 162.432,-149.35 76.7361,-132 75.4652,-131.743 74.1722,-131.474 72.8674,-131.196"/>
<polygon fill="midnightblue" stroke="midnightblue" points="73.3284,-127.713 62.8063,-128.952 71.8047,-134.545 73.3284,-127.713"/>
</g>
<!-- Node6 -->
<g id="node6" class="node"><title>Node6</title>
<polygon fill="white" stroke="#bfbfbf" points="195.236,-112.5 195.236,-131.5 244.236,-131.5 244.236,-112.5 195.236,-112.5"/>
<text text-anchor="middle" x="219.736" y="-119.5" font-family="Helvetica,sans-Serif" font-size="10.00">QBuffer</text>
</g>
<!-- Node5&#45;&gt;Node6 -->
<g id="edge7" class="edge"><title>Node5&#45;&gt;Node6</title>
<path fill="none" stroke="midnightblue" d="M324.088,-168.444C303.772,-159.596 271.833,-145.687 248.638,-135.586"/>
<polygon fill="midnightblue" stroke="midnightblue" points="249.858,-132.3 239.292,-131.516 247.063,-138.718 249.858,-132.3"/>
</g>
<!-- Node7 -->
<g id="node7" class="node"><title>Node7</title>
<polygon fill="white" stroke="#bfbfbf" points="580.736,-0.5 580.736,-19.5 630.736,-19.5 630.736,-0.5 580.736,-0.5"/>
<text text-anchor="middle" x="605.736" y="-7.5" font-family="Helvetica,sans-Serif" font-size="10.00">QString</text>
</g>
<!-- Node5&#45;&gt;Node7 -->
<g id="edge8" class="edge"><title>Node5&#45;&gt;Node7</title>
<path fill="none" stroke="midnightblue" d="M313.916,-175.288C259.188,-171.033 151.416,-156.845 186.736,-112 234.555,-51.2848 478.02,-22.7912 570.255,-14.0515"/>
<polygon fill="midnightblue" stroke="midnightblue" points="570.843,-17.5121 580.478,-13.1055 570.198,-10.5419 570.843,-17.5121"/>
</g>
<!-- Node8 -->
<g id="node8" class="node"><title>Node8</title>
<polygon fill="white" stroke="#bfbfbf" points="698.736,-112.5 698.736,-131.5 768.736,-131.5 768.736,-112.5 698.736,-112.5"/>
<text text-anchor="middle" x="733.736" y="-119.5" font-family="Helvetica,sans-Serif" font-size="10.00">QTcpSocket</text>
</g>
<!-- Node5&#45;&gt;Node8 -->
<g id="edge9" class="edge"><title>Node5&#45;&gt;Node8</title>
<path fill="none" stroke="midnightblue" d="M373.37,-172.897C441.077,-163.522 607.489,-140.48 688.271,-129.295"/>
<polygon fill="midnightblue" stroke="midnightblue" points="689.192,-132.701 698.618,-127.863 688.232,-125.767 689.192,-132.701"/>
</g>
<!-- Node9 -->
<g id="node9" class="node"><title>Node9</title>
<polygon fill="white" stroke="#bfbfbf" points="88.2361,-0.5 88.2361,-19.5 153.236,-19.5 153.236,-0.5 88.2361,-0.5"/>
<text text-anchor="middle" x="120.736" y="-7.5" font-family="Helvetica,sans-Serif" font-size="10.00">QStringList</text>
</g>
<!-- Node5&#45;&gt;Node9 -->
<g id="edge10" class="edge"><title>Node5&#45;&gt;Node9</title>
<path fill="none" stroke="midnightblue" d="M313.953,-177.596C271.632,-176.963 193.497,-170.171 141.736,-132 112.239,-110.248 105.353,-92.3868 109.736,-56 110.807,-47.1069 113.028,-37.4344 115.196,-29.344"/>
<polygon fill="midnightblue" stroke="midnightblue" points="118.623,-30.0908 118.006,-19.5139 111.892,-28.1668 118.623,-30.0908"/>
</g>
<!-- Node10 -->
<g id="node10" class="node"><title>Node10</title>
<polygon fill="white" stroke="#bfbfbf" points="262.736,-112.5 262.736,-131.5 336.736,-131.5 336.736,-112.5 262.736,-112.5"/>
<text text-anchor="middle" x="299.736" y="-119.5" font-family="Helvetica,sans-Serif" font-size="10.00">QTextStream</text>
</g>
<!-- Node5&#45;&gt;Node10 -->
<g id="edge11" class="edge"><title>Node5&#45;&gt;Node10</title>
<path fill="none" stroke="midnightblue" d="M336.47,-168.083C330.191,-160.377 320.948,-149.033 313.305,-139.653"/>
<polygon fill="midnightblue" stroke="midnightblue" points="315.897,-137.293 306.867,-131.751 310.47,-141.714 315.897,-137.293"/>
</g>
<!-- Node11 -->
<g id="node11" class="node"><title>Node11</title>
<g id="a_node11"><a xlink:href="../../df/df2/irc_codes_8h.html" target="_top" xlink:title="ircCodes.h">
<polygon fill="white" stroke="black" points="355.236,-112.5 355.236,-131.5 418.236,-131.5 418.236,-112.5 355.236,-112.5"/>
<text text-anchor="middle" x="386.736" y="-119.5" font-family="Helvetica,sans-Serif" font-size="10.00">ircCodes.h</text>
</a>
</g>
</g>
<!-- Node5&#45;&gt;Node11 -->
<g id="edge12" class="edge"><title>Node5&#45;&gt;Node11</title>
<path fill="none" stroke="midnightblue" d="M350.837,-168.083C356.973,-160.377 366.006,-149.033 373.475,-139.653"/>
<polygon fill="midnightblue" stroke="midnightblue" points="376.276,-141.754 379.768,-131.751 370.8,-137.394 376.276,-141.754"/>
</g>
<!-- Node5&#45;&gt;Node12 -->
<g id="edge13" class="edge"><title>Node5&#45;&gt;Node12</title>
<path fill="none" stroke="midnightblue" d="M313.982,-174.331C265.515,-169.308 172.891,-156.666 152.736,-132 142.364,-119.307 143.114,-100.104 145.706,-85.8584"/>
<polygon fill="midnightblue" stroke="midnightblue" points="149.208,-86.2413 148.002,-75.7153 142.38,-84.6955 149.208,-86.2413"/>
</g>
<!-- Node15 -->
<g id="node15" class="node"><title>Node15</title>
<g id="a_node15"><a xlink:href="../../d7/d62/clslog_8h.html" target="_top" xlink:title="../resources/clslog.h">
<polygon fill="white" stroke="black" points="922.236,-56.5 922.236,-75.5 1027.24,-75.5 1027.24,-56.5 922.236,-56.5"/>
<text text-anchor="middle" x="974.736" y="-63.5" font-family="Helvetica,sans-Serif" font-size="10.00">../resources/clslog.h</text>
</a>
</g>
</g>
<!-- Node5&#45;&gt;Node15 -->
<g id="edge18" class="edge"><title>Node5&#45;&gt;Node15</title>
<path fill="none" stroke="midnightblue" d="M373.305,-171.145C433.013,-159.388 572.293,-132.299 689.736,-112 766.102,-98.8009 854.255,-85.1201 912.058,-76.3605"/>
<polygon fill="midnightblue" stroke="midnightblue" points="912.768,-79.793 922.133,-74.837 911.722,-72.8717 912.768,-79.793"/>
</g>
<!-- Node5&#45;&gt;Node19 -->
<g id="edge24" class="edge"><title>Node5&#45;&gt;Node19</title>
<path fill="none" stroke="midnightblue" d="M373.504,-168.799C408.059,-159.279 465.08,-143.568 502.528,-133.251"/>
<polygon fill="midnightblue" stroke="midnightblue" points="503.825,-136.524 512.536,-130.494 501.966,-129.776 503.825,-136.524"/>
</g>
<!-- Node13 -->
<g id="node13" class="node"><title>Node13</title>
<polygon fill="white" stroke="#bfbfbf" points="423.236,-0.5 423.236,-19.5 464.236,-19.5 464.236,-0.5 423.236,-0.5"/>
<text text-anchor="middle" x="443.736" y="-7.5" font-family="Helvetica,sans-Serif" font-size="10.00">string</text>
</g>
<!-- Node12&#45;&gt;Node13 -->
<g id="edge14" class="edge"><title>Node12&#45;&gt;Node13</title>
<path fill="none" stroke="midnightblue" d="M182.896,-58.6525C187.538,-57.7524 192.258,-56.8459 196.736,-56 274.617,-41.2875 366.477,-24.772 413.166,-16.4376"/>
<polygon fill="midnightblue" stroke="midnightblue" points="413.996,-19.8449 423.226,-14.6436 412.767,-12.9536 413.996,-19.8449"/>
</g>
<!-- Node12&#45;&gt;Node7 -->
<g id="edge15" class="edge"><title>Node12&#45;&gt;Node7</title>
<path fill="none" stroke="midnightblue" d="M182.847,-58.362C187.496,-57.5046 192.231,-56.6873 196.736,-56 334.099,-35.0432 498.847,-19.9534 570.061,-13.9139"/>
<polygon fill="midnightblue" stroke="midnightblue" points="570.601,-17.381 580.272,-13.0558 570.014,-10.4056 570.601,-17.381"/>
</g>
<!-- Node12&#45;&gt;Node9 -->
<g id="edge16" class="edge"><title>Node12&#45;&gt;Node9</title>
<path fill="none" stroke="midnightblue" d="M145.782,-56.083C141.632,-48.6127 135.583,-37.7244 130.469,-28.5199"/>
<polygon fill="midnightblue" stroke="midnightblue" points="133.514,-26.7929 125.598,-19.7511 127.395,-30.1924 133.514,-26.7929"/>
</g>
<!-- Node14 -->
<g id="node14" class="node"><title>Node14</title>
<polygon fill="white" stroke="#bfbfbf" points="171.236,-0.5 171.236,-19.5 242.236,-19.5 242.236,-0.5 171.236,-0.5"/>
<text text-anchor="middle" x="206.736" y="-7.5" font-family="Helvetica,sans-Serif" font-size="10.00">QVariantList</text>
</g>
<!-- Node12&#45;&gt;Node14 -->
<g id="edge17" class="edge"><title>Node12&#45;&gt;Node14</title>
<path fill="none" stroke="midnightblue" d="M159.733,-56.324C167.931,-48.4196 180.242,-36.5482 190.208,-26.9377"/>
<polygon fill="midnightblue" stroke="midnightblue" points="192.806,-29.2947 197.575,-19.8339 187.947,-24.2558 192.806,-29.2947"/>
</g>
<!-- Node16 -->
<g id="node16" class="node"><title>Node16</title>
<polygon fill="white" stroke="#bfbfbf" points="912.736,-0.5 912.736,-19.5 964.736,-19.5 964.736,-0.5 912.736,-0.5"/>
<text text-anchor="middle" x="938.736" y="-7.5" font-family="Helvetica,sans-Serif" font-size="10.00">QDebug</text>
</g>
<!-- Node15&#45;&gt;Node16 -->
<g id="edge19" class="edge"><title>Node15&#45;&gt;Node16</title>
<path fill="none" stroke="midnightblue" d="M968.791,-56.083C963.759,-48.5341 956.399,-37.4948 950.223,-28.2298"/>
<polygon fill="midnightblue" stroke="midnightblue" points="953.029,-26.1301 944.57,-19.7511 947.205,-30.0131 953.029,-26.1301"/>
</g>
<!-- Node17 -->
<g id="node17" class="node"><title>Node17</title>
<polygon fill="white" stroke="#bfbfbf" points="1240.24,-0.5 1240.24,-19.5 1305.24,-19.5 1305.24,-0.5 1240.24,-0.5"/>
<text text-anchor="middle" x="1272.74" y="-7.5" font-family="Helvetica,sans-Serif" font-size="10.00">QDateTime</text>
</g>
<!-- Node15&#45;&gt;Node17 -->
<g id="edge20" class="edge"><title>Node15&#45;&gt;Node17</title>
<path fill="none" stroke="midnightblue" d="M1021.96,-56.4435C1079.16,-46.0783 1174.69,-28.7664 1229.86,-18.7688"/>
<polygon fill="midnightblue" stroke="midnightblue" points="1230.79,-22.1578 1240.01,-16.9308 1229.54,-15.27 1230.79,-22.1578"/>
</g>
<!-- Node15&#45;&gt;Node13 -->
<g id="edge21" class="edge"><title>Node15&#45;&gt;Node13</title>
<path fill="none" stroke="midnightblue" d="M921.88,-59.6249C811.96,-48.4465 561.704,-22.9968 474.438,-14.1222"/>
<polygon fill="midnightblue" stroke="midnightblue" points="474.694,-10.6303 464.391,-13.1005 473.986,-17.5944 474.694,-10.6303"/>
</g>
<!-- Node18 -->
<g id="node18" class="node"><title>Node18</title>
<polygon fill="white" stroke="#bfbfbf" points="982.736,-0.5 982.736,-19.5 1036.74,-19.5 1036.74,-0.5 982.736,-0.5"/>
<text text-anchor="middle" x="1009.74" y="-7.5" font-family="Helvetica,sans-Serif" font-size="10.00">iostream</text>
</g>
<!-- Node15&#45;&gt;Node18 -->
<g id="edge22" class="edge"><title>Node15&#45;&gt;Node18</title>
<path fill="none" stroke="midnightblue" d="M980.516,-56.083C985.408,-48.5341 992.563,-37.4948 998.569,-28.2298"/>
<polygon fill="midnightblue" stroke="midnightblue" points="1001.56,-30.0463 1004.06,-19.7511 995.688,-26.239 1001.56,-30.0463"/>
</g>
<!-- Node15&#45;&gt;Node9 -->
<g id="edge23" class="edge"><title>Node15&#45;&gt;Node9</title>
<path fill="none" stroke="midnightblue" d="M922.179,-63.1974C769.719,-57.7965 328.204,-40.8988 163.313,-19.9689"/>
<polygon fill="midnightblue" stroke="midnightblue" points="163.697,-16.4893 153.325,-18.649 162.78,-23.429 163.697,-16.4893"/>
</g>
<!-- Node19&#45;&gt;Node7 -->
<g id="edge25" class="edge"><title>Node19&#45;&gt;Node7</title>
<path fill="none" stroke="midnightblue" d="M540.98,-112.446C543.161,-99.4606 548.551,-74.3481 559.736,-56 566.592,-44.7526 576.891,-34.32 586.006,-26.3375"/>
<polygon fill="midnightblue" stroke="midnightblue" points="588.475,-28.8357 593.912,-19.7424 583.991,-23.4604 588.475,-28.8357"/>
</g>
<!-- Node19&#45;&gt;Node3 -->
<g id="edge26" class="edge"><title>Node19&#45;&gt;Node3</title>
<path fill="none" stroke="midnightblue" d="M530.654,-112.083C522.565,-104.141 510.541,-92.3354 500.826,-82.7973"/>
<polygon fill="midnightblue" stroke="midnightblue" points="503.237,-80.2595 493.649,-75.7511 498.333,-85.2545 503.237,-80.2595"/>
</g>
<!-- Node20 -->
<g id="node20" class="node"><title>Node20</title>
<polygon fill="white" stroke="#bfbfbf" points="568.736,-56.5 568.736,-75.5 642.736,-75.5 642.736,-56.5 568.736,-56.5"/>
<text text-anchor="middle" x="605.736" y="-63.5" font-family="Helvetica,sans-Serif" font-size="10.00">QVariantMap</text>
</g>
<!-- Node19&#45;&gt;Node20 -->
<g id="edge27" class="edge"><title>Node19&#45;&gt;Node20</title>
<path fill="none" stroke="midnightblue" d="M550.34,-112.324C560.192,-104.263 575.087,-92.0765 586.951,-82.3695"/>
<polygon fill="midnightblue" stroke="midnightblue" points="589.416,-84.8752 594.939,-75.8339 584.983,-79.4575 589.416,-84.8752"/>
</g>
<!-- Node19&#45;&gt;Node12 -->
<g id="edge28" class="edge"><title>Node19&#45;&gt;Node12</title>
<path fill="none" stroke="midnightblue" d="M512.691,-117.246C446.074,-107.998 273.66,-84.064 193.225,-72.8982"/>
<polygon fill="midnightblue" stroke="midnightblue" points="193.352,-69.3823 182.965,-71.474 192.389,-76.3158 193.352,-69.3823"/>
</g>
<!-- Node19&#45;&gt;Node15 -->
<g id="edge29" class="edge"><title>Node19&#45;&gt;Node15</title>
<path fill="none" stroke="midnightblue" d="M566.947,-117.622C635.322,-109.134 815.726,-86.7391 912.044,-74.7825"/>
<polygon fill="midnightblue" stroke="midnightblue" points="912.735,-78.2236 922.228,-73.5183 911.873,-71.2769 912.735,-78.2236"/>
</g>
<!-- Node22 -->
<g id="node22" class="node"><title>Node22</title>
<polygon fill="white" stroke="#bfbfbf" points="1024.74,-168.5 1024.74,-187.5 1090.74,-187.5 1090.74,-168.5 1024.74,-168.5"/>
<text text-anchor="middle" x="1057.74" y="-175.5" font-family="Helvetica,sans-Serif" font-size="10.00">QTcpServer</text>
</g>
<!-- Node21&#45;&gt;Node22 -->
<g id="edge33" class="edge"><title>Node21&#45;&gt;Node22</title>
<path fill="none" stroke="midnightblue" d="M993.482,-230.403C1005.29,-220.958 1024.48,-205.606 1038.82,-194.134"/>
<polygon fill="midnightblue" stroke="midnightblue" points="1041.39,-196.561 1047.01,-187.581 1037.02,-191.095 1041.39,-196.561"/>
</g>
<!-- Node23 -->
<g id="node23" class="node"><title>Node23</title>
<polygon fill="white" stroke="#bfbfbf" points="900.736,-168.5 900.736,-187.5 940.736,-187.5 940.736,-168.5 900.736,-168.5"/>
<text text-anchor="middle" x="920.736" y="-175.5" font-family="Helvetica,sans-Serif" font-size="10.00">QList</text>
</g>
<!-- Node21&#45;&gt;Node23 -->
<g id="edge34" class="edge"><title>Node21&#45;&gt;Node23</title>
<path fill="none" stroke="midnightblue" d="M973.853,-230.403C964.277,-221.136 948.825,-206.183 937.05,-194.788"/>
<polygon fill="midnightblue" stroke="midnightblue" points="939.223,-192.02 929.603,-187.581 934.355,-197.05 939.223,-192.02"/>
</g>
<!-- Node24 -->
<g id="node24" class="node"><title>Node24</title>
<polygon fill="white" stroke="#bfbfbf" points="959.236,-168.5 959.236,-187.5 1006.24,-187.5 1006.24,-168.5 959.236,-168.5"/>
<text text-anchor="middle" x="982.736" y="-175.5" font-family="Helvetica,sans-Serif" font-size="10.00">QHash</text>
</g>
<!-- Node21&#45;&gt;Node24 -->
<g id="edge35" class="edge"><title>Node21&#45;&gt;Node24</title>
<path fill="none" stroke="midnightblue" d="M982.736,-230.403C982.736,-221.938 982.736,-208.728 982.736,-197.82"/>
<polygon fill="midnightblue" stroke="midnightblue" points="986.236,-197.581 982.736,-187.581 979.236,-197.581 986.236,-197.581"/>
</g>
<!-- Node21&#45;&gt;Node25 -->
<g id="edge36" class="edge"><title>Node21&#45;&gt;Node25</title>
<path fill="none" stroke="midnightblue" d="M1010.24,-230.403C1043.61,-219.978 1100,-202.356 1137.3,-190.699"/>
<polygon fill="midnightblue" stroke="midnightblue" points="1138.78,-193.904 1147.28,-187.581 1136.69,-187.223 1138.78,-193.904"/>
</g>
<!-- Node21&#45;&gt;Node15 -->
<g id="edge48" class="edge"><title>Node21&#45;&gt;Node15</title>
<path fill="none" stroke="midnightblue" d="M953.735,-231.329C932.442,-224.01 905.011,-210.658 891.736,-188 866.009,-144.089 953.114,-134.026 954.736,-132 965.449,-118.618 970.443,-99.5078 972.76,-85.4711"/>
<polygon fill="midnightblue" stroke="midnightblue" points="976.236,-85.8858 974.102,-75.5081 969.298,-84.9515 976.236,-85.8858"/>
</g>
<!-- Node28 -->
<g id="node28" class="node"><title>Node28</title>
<g id="a_node28"><a xlink:href="../../dc/d96/jsoncommand_8h.html" target="_top" xlink:title="../resources/jsoncommand.h">
<polygon fill="white" stroke="black" points="1002.74,-112.5 1002.74,-131.5 1142.74,-131.5 1142.74,-112.5 1002.74,-112.5"/>
<text text-anchor="middle" x="1072.74" y="-119.5" font-family="Helvetica,sans-Serif" font-size="10.00">../resources/jsoncommand.h</text>
</a>
</g>
</g>
<!-- Node21&#45;&gt;Node28 -->
<g id="edge49" class="edge"><title>Node21&#45;&gt;Node28</title>
<path fill="none" stroke="midnightblue" d="M1011.82,-235.326C1039.72,-230.087 1080.37,-217.565 1099.74,-188 1109.72,-172.763 1098.92,-153.232 1088.16,-139.574"/>
<polygon fill="midnightblue" stroke="midnightblue" points="1090.79,-137.27 1081.65,-131.92 1085.46,-141.805 1090.79,-137.27"/>
</g>
<!-- Node25&#45;&gt;Node8 -->
<g id="edge37" class="edge"><title>Node25&#45;&gt;Node8</title>
<path fill="none" stroke="midnightblue" d="M1146.61,-173.57C1132.53,-171.868 1115.24,-169.797 1099.74,-168 959.904,-151.794 921.681,-154.326 778.768,-132.035"/>
<polygon fill="midnightblue" stroke="midnightblue" points="779.171,-128.556 768.749,-130.459 778.083,-135.471 779.171,-128.556"/>
</g>
<!-- Node26 -->
<g id="node26" class="node"><title>Node26</title>
<polygon fill="white" stroke="#bfbfbf" points="1198.74,-112.5 1198.74,-131.5 1278.74,-131.5 1278.74,-112.5 1198.74,-112.5"/>
<text text-anchor="middle" x="1238.74" y="-119.5" font-family="Helvetica,sans-Serif" font-size="10.00">QHostAddress</text>
</g>
<!-- Node25&#45;&gt;Node26 -->
<g id="edge38" class="edge"><title>Node25&#45;&gt;Node26</title>
<path fill="none" stroke="midnightblue" d="M1185.02,-168.324C1194.57,-160.263 1209.02,-148.077 1220.52,-138.369"/>
<polygon fill="midnightblue" stroke="midnightblue" points="1222.88,-140.958 1228.27,-131.834 1218.37,-135.608 1222.88,-140.958"/>
</g>
<!-- Node27 -->
<g id="node27" class="node"><title>Node27</title>
<polygon fill="white" stroke="#bfbfbf" points="1297.24,-112.5 1297.24,-131.5 1386.24,-131.5 1386.24,-112.5 1297.24,-112.5"/>
<text text-anchor="middle" x="1341.74" y="-119.5" font-family="Helvetica,sans-Serif" font-size="10.00">QJsonDocument</text>
</g>
<!-- Node25&#45;&gt;Node27 -->
<g id="edge39" class="edge"><title>Node25&#45;&gt;Node27</title>
<path fill="none" stroke="midnightblue" d="M1201.2,-168.444C1229.41,-159.32 1274.28,-144.813 1305.7,-134.651"/>
<polygon fill="midnightblue" stroke="midnightblue" points="1306.96,-137.923 1315.4,-131.516 1304.81,-131.263 1306.96,-137.923"/>
</g>
<!-- Node25&#45;&gt;Node15 -->
<g id="edge40" class="edge"><title>Node25&#45;&gt;Node15</title>
<path fill="none" stroke="midnightblue" d="M1174.21,-168.445C1172.87,-154.522 1168.18,-127.01 1151.74,-112 1134.95,-96.6807 1081.48,-84.409 1037.66,-76.5745"/>
<polygon fill="midnightblue" stroke="midnightblue" points="1038.07,-73.0933 1027.61,-74.8252 1036.86,-79.9895 1038.07,-73.0933"/>
</g>
<!-- Node25&#45;&gt;Node28 -->
<g id="edge41" class="edge"><title>Node25&#45;&gt;Node28</title>
<path fill="none" stroke="midnightblue" d="M1158.35,-168.324C1142.06,-159.703 1116.87,-146.364 1098.02,-136.386"/>
<polygon fill="midnightblue" stroke="midnightblue" points="1099.56,-133.24 1089.08,-131.655 1096.28,-139.427 1099.56,-133.24"/>
</g>
<!-- Node28&#45;&gt;Node2 -->
<g id="edge42" class="edge"><title>Node28&#45;&gt;Node2</title>
<path fill="none" stroke="midnightblue" d="M1119.8,-112.444C1178.83,-101.71 1278.84,-83.5258 1332.72,-73.7302"/>
<polygon fill="midnightblue" stroke="midnightblue" points="1333.64,-77.12 1342.85,-71.8876 1332.39,-70.233 1333.64,-77.12"/>
</g>
<!-- Node28&#45;&gt;Node20 -->
<g id="edge43" class="edge"><title>Node28&#45;&gt;Node20</title>
<path fill="none" stroke="midnightblue" d="M1002.57,-112.886C906.238,-101.748 735.603,-82.0167 653.066,-72.4728"/>
<polygon fill="midnightblue" stroke="midnightblue" points="653.308,-68.9775 642.972,-71.3056 652.503,-75.9312 653.308,-68.9775"/>
</g>
<!-- Node29 -->
<g id="node29" class="node"><title>Node29</title>
<g id="a_node29"><a xlink:href="../../d4/d05/json_8h.html" target="_top" xlink:title="json.h">
<polygon fill="white" stroke="black" points="1051.24,-56.5 1051.24,-75.5 1094.24,-75.5 1094.24,-56.5 1051.24,-56.5"/>
<text text-anchor="middle" x="1072.74" y="-63.5" font-family="Helvetica,sans-Serif" font-size="10.00">json.h</text>
</a>
</g>
</g>
<!-- Node28&#45;&gt;Node29 -->
<g id="edge44" class="edge"><title>Node28&#45;&gt;Node29</title>
<path fill="none" stroke="midnightblue" d="M1072.74,-112.083C1072.74,-105.006 1072.74,-94.8611 1072.74,-85.9865"/>
<polygon fill="midnightblue" stroke="midnightblue" points="1076.24,-85.751 1072.74,-75.7511 1069.24,-85.7511 1076.24,-85.751"/>
</g>
<!-- Node28&#45;&gt;Node15 -->
<g id="edge47" class="edge"><title>Node28&#45;&gt;Node15</title>
<path fill="none" stroke="midnightblue" d="M1056.99,-112.324C1041.42,-103.743 1017.36,-90.486 999.277,-80.5224"/>
<polygon fill="midnightblue" stroke="midnightblue" points="1000.89,-77.4152 990.442,-75.6545 997.512,-83.546 1000.89,-77.4152"/>
</g>
<!-- Node30 -->
<g id="node30" class="node"><title>Node30</title>
<polygon fill="white" stroke="#bfbfbf" points="1415.24,-0.5 1415.24,-19.5 1470.24,-19.5 1470.24,-0.5 1415.24,-0.5"/>
<text text-anchor="middle" x="1442.74" y="-7.5" font-family="Helvetica,sans-Serif" font-size="10.00">QVariant</text>
</g>
<!-- Node29&#45;&gt;Node30 -->
<g id="edge45" class="edge"><title>Node29&#45;&gt;Node30</title>
<path fill="none" stroke="midnightblue" d="M1094.5,-61.8237C1155.38,-52.9384 1327.98,-27.7476 1404.92,-16.5191"/>
<polygon fill="midnightblue" stroke="midnightblue" points="1405.73,-19.9381 1415.12,-15.0305 1404.72,-13.0115 1405.73,-19.9381"/>
</g>
<!-- Node29&#45;&gt;Node7 -->
<g id="edge46" class="edge"><title>Node29&#45;&gt;Node7</title>
<path fill="none" stroke="midnightblue" d="M1050.93,-59.18C1045.96,-57.9986 1040.69,-56.8572 1035.74,-56 890.52,-30.8573 715.113,-17.8111 641.248,-13.0961"/>
<polygon fill="midnightblue" stroke="midnightblue" points="641.302,-9.59267 631.102,-12.4604 640.864,-16.579 641.302,-9.59267"/>
</g>
<!-- Node31&#45;&gt;Node7 -->
<g id="edge52" class="edge"><title>Node31&#45;&gt;Node7</title>
<path fill="none" stroke="midnightblue" d="M671.184,-168.216C671.871,-147.443 671.421,-94.1776 651.736,-56 645.778,-44.4443 635.731,-34.0955 626.543,-26.2443"/>
<polygon fill="midnightblue" stroke="midnightblue" points="628.478,-23.3085 618.49,-19.7732 624.093,-28.7652 628.478,-23.3085"/>
</g>
<!-- Node32 -->
<g id="node32" class="node"><title>Node32</title>
<polygon fill="white" stroke="#bfbfbf" points="786.736,-112.5 786.736,-131.5 826.736,-131.5 826.736,-112.5 786.736,-112.5"/>
<text text-anchor="middle" x="806.736" y="-119.5" font-family="Helvetica,sans-Serif" font-size="10.00">QFile</text>
</g>
<!-- Node31&#45;&gt;Node32 -->
<g id="edge53" class="edge"><title>Node31&#45;&gt;Node32</title>
<path fill="none" stroke="midnightblue" d="M692.286,-168.444C715.164,-159.36 751.479,-144.94 777.056,-134.785"/>
<polygon fill="midnightblue" stroke="midnightblue" points="778.615,-137.932 786.617,-130.988 776.032,-131.426 778.615,-137.932"/>
</g>
<!-- Node33 -->
<g id="node33" class="node"><title>Node33</title>
<polygon fill="white" stroke="#bfbfbf" points="844.736,-112.5 844.736,-131.5 946.736,-131.5 946.736,-112.5 844.736,-112.5"/>
<text text-anchor="middle" x="895.736" y="-119.5" font-family="Helvetica,sans-Serif" font-size="10.00">QXmlStreamReader</text>
</g>
<!-- Node31&#45;&gt;Node33 -->
<g id="edge54" class="edge"><title>Node31&#45;&gt;Node33</title>
<path fill="none" stroke="midnightblue" d="M706.388,-168.444C745.392,-159.083 808.003,-144.056 850.453,-133.868"/>
<polygon fill="midnightblue" stroke="midnightblue" points="851.344,-137.254 860.251,-131.516 849.71,-130.447 851.344,-137.254"/>
</g>
<!-- Node31&#45;&gt;Node3 -->
<g id="edge55" class="edge"><title>Node31&#45;&gt;Node3</title>
<path fill="none" stroke="midnightblue" d="M659.379,-168.453C641.898,-155.477 607.124,-130.376 575.736,-112 555.366,-100.074 531.403,-88.3102 513.181,-79.8028"/>
<polygon fill="midnightblue" stroke="midnightblue" points="514.514,-76.563 503.968,-75.5494 511.58,-82.9185 514.514,-76.563"/>
</g>
<!-- Node31&#45;&gt;Node19 -->
<g id="edge56" class="edge"><title>Node31&#45;&gt;Node19</title>
<path fill="none" stroke="midnightblue" d="M649.979,-168.444C628.42,-159.557 594.473,-145.563 569.942,-135.451"/>
<polygon fill="midnightblue" stroke="midnightblue" points="570.976,-132.092 560.396,-131.516 568.308,-138.563 570.976,-132.092"/>
</g>
<!-- Node34&#45;&gt;Node2 -->
<g id="edge58" class="edge"><title>Node34&#45;&gt;Node2</title>
<path fill="none" stroke="midnightblue" d="M1479.98,-112.444C1458.42,-103.557 1424.47,-89.5632 1399.94,-79.4514"/>
<polygon fill="midnightblue" stroke="midnightblue" points="1400.98,-76.0917 1390.4,-75.5164 1398.31,-82.5634 1400.98,-76.0917"/>
</g>
<!-- Node34&#45;&gt;Node7 -->
<g id="edge59" class="edge"><title>Node34&#45;&gt;Node7</title>
<path fill="none" stroke="midnightblue" d="M1488.93,-112.482C1465.39,-95.5811 1414.08,-59.1559 1404.74,-56 1331.78,-31.3589 785.94,-15.6475 640.99,-11.8799"/>
<polygon fill="midnightblue" stroke="midnightblue" points="640.962,-8.37808 630.875,-11.6195 640.781,-15.3758 640.962,-8.37808"/>
</g>
<!-- Node34&#45;&gt;Node30 -->
<g id="edge60" class="edge"><title>Node34&#45;&gt;Node30</title>
<path fill="none" stroke="midnightblue" d="M1498.39,-112.238C1494.77,-99.4153 1487.12,-74.9983 1476.74,-56 1471.23,-45.9254 1463.63,-35.6383 1457.02,-27.4473"/>
<polygon fill="midnightblue" stroke="midnightblue" points="1459.7,-25.2016 1450.61,-19.767 1454.33,-29.687 1459.7,-25.2016"/>
</g>
<!-- Node34&#45;&gt;Node17 -->
<g id="edge61" class="edge"><title>Node34&#45;&gt;Node17</title>
<path fill="none" stroke="midnightblue" d="M1494.96,-112.406C1485.1,-98.4262 1463.66,-70.8355 1438.74,-56 1400.44,-33.2047 1350.36,-21.6932 1315.27,-16.0568"/>
<polygon fill="midnightblue" stroke="midnightblue" points="1315.75,-12.5899 1305.34,-14.5542 1314.7,-19.5111 1315.75,-12.5899"/>
</g>
<!-- Node34&#45;&gt;Node15 -->
<g id="edge62" class="edge"><title>Node34&#45;&gt;Node15</title>
<path fill="none" stroke="midnightblue" d="M1443.06,-116.013C1356.01,-108.335 1185.89,-92.7433 1041.74,-76 1040.28,-75.8307 1038.8,-75.6566 1037.32,-75.4783"/>
<polygon fill="midnightblue" stroke="midnightblue" points="1037.73,-72.0033 1027.38,-74.2527 1036.88,-78.9506 1037.73,-72.0033"/>
</g>
<!-- Node36 -->
<g id="node36" class="node"><title>Node36</title>
<g id="a_node36"><a xlink:href="../../db/d70/eventchat_8h.html" target="_top" xlink:title="eventchat.h">
<polygon fill="white" stroke="black" points="1570.74,-168.5 1570.74,-187.5 1636.74,-187.5 1636.74,-168.5 1570.74,-168.5"/>
<text text-anchor="middle" x="1603.74" y="-175.5" font-family="Helvetica,sans-Serif" font-size="10.00">eventchat.h</text>
</a>
</g>
</g>
<!-- Node35&#45;&gt;Node36 -->
<g id="edge64" class="edge"><title>Node35&#45;&gt;Node36</title>
<path fill="none" stroke="midnightblue" d="M1603.74,-224.781C1603.74,-216.781 1603.74,-206.689 1603.74,-198.017"/>
<polygon fill="midnightblue" stroke="midnightblue" points="1607.24,-197.73 1603.74,-187.731 1600.24,-197.731 1607.24,-197.73"/>
</g>
<!-- Node37 -->
<g id="node37" class="node"><title>Node37</title>
<g id="a_node37"><a xlink:href="../../d5/d02/eventuserjoin_8h.html" target="_top" xlink:title="eventuserjoin.h">
<polygon fill="white" stroke="black" points="1655.24,-168.5 1655.24,-187.5 1736.24,-187.5 1736.24,-168.5 1655.24,-168.5"/>
<text text-anchor="middle" x="1695.74" y="-175.5" font-family="Helvetica,sans-Serif" font-size="10.00">eventuserjoin.h</text>
</a>
</g>
</g>
<!-- Node35&#45;&gt;Node37 -->
<g id="edge66" class="edge"><title>Node35&#45;&gt;Node37</title>
<path fill="none" stroke="midnightblue" d="M1625.54,-224.781C1640.24,-215.196 1659.54,-202.606 1674.18,-193.056"/>
<polygon fill="midnightblue" stroke="midnightblue" points="1676.15,-195.95 1682.62,-187.556 1672.33,-190.087 1676.15,-195.95"/>
</g>
<!-- Node38 -->
<g id="node38" class="node"><title>Node38</title>
<g id="a_node38"><a xlink:href="../../d7/d56/eventuserleave_8h.html" target="_top" xlink:title="eventuserleave.h">
<polygon fill="white" stroke="black" points="1754.74,-168.5 1754.74,-187.5 1842.74,-187.5 1842.74,-168.5 1754.74,-168.5"/>
<text text-anchor="middle" x="1798.74" y="-175.5" font-family="Helvetica,sans-Serif" font-size="10.00">eventuserleave.h</text>
</a>
</g>
</g>
<!-- Node35&#45;&gt;Node38 -->
<g id="edge68" class="edge"><title>Node35&#45;&gt;Node38</title>
<path fill="none" stroke="midnightblue" d="M1649.45,-224.933C1683.48,-214.462 1729.37,-200.345 1761.24,-190.536"/>
<polygon fill="midnightblue" stroke="midnightblue" points="1762.54,-193.799 1771.07,-187.513 1760.48,-187.108 1762.54,-193.799"/>
</g>
<!-- Node39 -->
<g id="node39" class="node"><title>Node39</title>
<g id="a_node39"><a xlink:href="../../db/db0/eventuserchangestatus_8h.html" target="_top" xlink:title="eventuserchangestatus.h">
<polygon fill="white" stroke="black" points="1860.24,-168.5 1860.24,-187.5 1985.24,-187.5 1985.24,-168.5 1860.24,-168.5"/>
<text text-anchor="middle" x="1922.74" y="-175.5" font-family="Helvetica,sans-Serif" font-size="10.00">eventuserchangestatus.h</text>
</a>
</g>
</g>
<!-- Node35&#45;&gt;Node39 -->
<g id="edge70" class="edge"><title>Node35&#45;&gt;Node39</title>
<path fill="none" stroke="midnightblue" d="M1653.58,-229.625C1711.56,-218.72 1807,-200.769 1867.28,-189.431"/>
<polygon fill="midnightblue" stroke="midnightblue" points="1868.19,-192.821 1877.37,-187.533 1866.9,-185.942 1868.19,-192.821"/>
</g>
<!-- Node40 -->
<g id="node40" class="node"><title>Node40</title>
<g id="a_node40"><a xlink:href="../../d8/d44/eventuserchangenick_8h.html" target="_top" xlink:title="eventuserchangenick.h">
<polygon fill="white" stroke="black" points="1304.74,-168.5 1304.74,-187.5 1420.74,-187.5 1420.74,-168.5 1304.74,-168.5"/>
<text text-anchor="middle" x="1362.74" y="-175.5" font-family="Helvetica,sans-Serif" font-size="10.00">eventuserchangenick.h</text>
</a>
</g>
</g>
<!-- Node35&#45;&gt;Node40 -->
<g id="edge72" class="edge"><title>Node35&#45;&gt;Node40</title>
<path fill="none" stroke="midnightblue" d="M1554.09,-226.641C1510.81,-215.865 1448.62,-200.381 1407,-190.021"/>
<polygon fill="midnightblue" stroke="midnightblue" points="1407.7,-186.588 1397.15,-187.568 1406.01,-193.38 1407.7,-186.588"/>
</g>
<!-- Node41 -->
<g id="node41" class="node"><title>Node41</title>
<g id="a_node41"><a xlink:href="../../da/d66/eventservermessage_8h.html" target="_top" xlink:title="eventservermessage.h">
<polygon fill="white" stroke="black" points="1439.24,-168.5 1439.24,-187.5 1552.24,-187.5 1552.24,-168.5 1439.24,-168.5"/>
<text text-anchor="middle" x="1495.74" y="-175.5" font-family="Helvetica,sans-Serif" font-size="10.00">eventservermessage.h</text>
</a>
</g>
</g>
<!-- Node35&#45;&gt;Node41 -->
<g id="edge74" class="edge"><title>Node35&#45;&gt;Node41</title>
<path fill="none" stroke="midnightblue" d="M1578.41,-224.933C1560.84,-215.171 1537.57,-202.24 1520.19,-192.586"/>
<polygon fill="midnightblue" stroke="midnightblue" points="1521.66,-189.397 1511.22,-187.6 1518.26,-195.516 1521.66,-189.397"/>
</g>
<!-- Node36&#45;&gt;Node34 -->
<g id="edge65" class="edge"><title>Node36&#45;&gt;Node34</title>
<path fill="none" stroke="midnightblue" d="M1587.19,-168.324C1570.74,-159.703 1545.3,-146.364 1526.27,-136.386"/>
<polygon fill="midnightblue" stroke="midnightblue" points="1527.73,-133.198 1517.24,-131.655 1524.48,-139.398 1527.73,-133.198"/>
</g>
<!-- Node37&#45;&gt;Node34 -->
<g id="edge67" class="edge"><title>Node37&#45;&gt;Node34</title>
<path fill="none" stroke="midnightblue" d="M1664.84,-168.444C1631.46,-159.201 1578.14,-144.436 1541.39,-134.257"/>
<polygon fill="midnightblue" stroke="midnightblue" points="1542.06,-130.812 1531.49,-131.516 1540.19,-137.558 1542.06,-130.812"/>
</g>
<!-- Node38&#45;&gt;Node34 -->
<g id="edge69" class="edge"><title>Node38&#45;&gt;Node34</title>
<path fill="none" stroke="midnightblue" d="M1754.44,-168.974C1702.13,-159.495 1615.01,-143.707 1557.72,-133.325"/>
<polygon fill="midnightblue" stroke="midnightblue" points="1558.2,-129.855 1547.73,-131.516 1556.95,-136.743 1558.2,-129.855"/>
</g>
<!-- Node39&#45;&gt;Node34 -->
<g id="edge71" class="edge"><title>Node39&#45;&gt;Node34</title>
<path fill="none" stroke="midnightblue" d="M1860.01,-168.974C1781.85,-158.972 1648.79,-141.945 1568.39,-131.657"/>
<polygon fill="midnightblue" stroke="midnightblue" points="1568.74,-128.173 1558.37,-130.375 1567.85,-135.116 1568.74,-128.173"/>
</g>
<!-- Node40&#45;&gt;Node34 -->
<g id="edge73" class="edge"><title>Node40&#45;&gt;Node34</title>
<path fill="none" stroke="midnightblue" d="M1384.6,-168.444C1407.52,-159.478 1443.71,-145.314 1469.6,-135.183"/>
<polygon fill="midnightblue" stroke="midnightblue" points="1470.93,-138.42 1478.97,-131.516 1468.38,-131.901 1470.93,-138.42"/>
</g>
<!-- Node41&#45;&gt;Node34 -->
<g id="edge75" class="edge"><title>Node41&#45;&gt;Node34</title>
<path fill="none" stroke="midnightblue" d="M1496.56,-168.083C1497.22,-161.006 1498.16,-150.861 1498.98,-141.986"/>
<polygon fill="midnightblue" stroke="midnightblue" points="1502.49,-142.031 1499.93,-131.751 1495.52,-141.386 1502.49,-142.031"/>
</g>
</g>
</svg>
