<?xml version="1.0" encoding="UTF-8" standalone="no"?>
<!DOCTYPE svg PUBLIC "-//W3C//DTD SVG 1.1//EN"
 "http://www.w3.org/Graphics/SVG/1.1/DTD/svg11.dtd">
<!-- Generated by graphviz version 2.30.1 (20130303.0817)
 -->
<!-- Title: server::mainApp::serverMessage Pages: 1 -->
<svg width="736pt" height="191pt"
 viewBox="0.00 0.00 736.00 191.00" xmlns="http://www.w3.org/2000/svg" xmlns:xlink="http://www.w3.org/1999/xlink">
<g id="graph0" class="graph" transform="scale(1 1) rotate(0) translate(4 187)">
<title>server::mainApp::serverMessage</title>
<polygon fill="white" stroke="white" points="-4,5 -4,-187 733,-187 733,5 -4,5"/>
<!-- Node1 -->
<g id="node1" class="node"><title>Node1</title>
<polygon fill="#bfbfbf" stroke="black" points="0,-82.5 0,-101.5 158,-101.5 158,-82.5 0,-82.5"/>
<text text-anchor="middle" x="79" y="-89.5" font-family="Helvetica,sans-Serif" font-size="10.00">server::mainApp::serverMessage</text>
</g>
<!-- Node2 -->
<g id="node2" class="node"><title>Node2</title>
<g id="a_node2"><a xlink:href="../../d2/dc1/class_k4_u_1_1json_command.html#aa0629328322fb09be4494a0826bb19b5" target="_top" xlink:title="Adds data to the internal data map.">
<polygon fill="white" stroke="black" points="194.5,-148.5 194.5,-167.5 349.5,-167.5 349.5,-148.5 194.5,-148.5"/>
<text text-anchor="middle" x="272" y="-155.5" font-family="Helvetica,sans-Serif" font-size="10.00">K4U::jsonCommand::addToData</text>
</a>
</g>
</g>
<!-- Node1&#45;&gt;Node2 -->
<g id="edge1" class="edge"><title>Node1&#45;&gt;Node2</title>
<path fill="none" stroke="midnightblue" d="M101.543,-101.668C124.238,-111.621 161.168,-127.163 194,-138 202.481,-140.799 211.59,-143.461 220.47,-145.875"/>
<polygon fill="midnightblue" stroke="midnightblue" points="219.788,-149.315 230.351,-148.49 221.579,-142.548 219.788,-149.315"/>
</g>
<!-- Node3 -->
<g id="node3" class="node"><title>Node3</title>
<g id="a_node3"><a xlink:href="../../db/d8b/classshared_1_1events_1_1cls_event.html#a48d11c9b50a2569c1065f19ca87d0715" target="_top" xlink:title="Converts the current data to a QVariant for sending with JSON.">
<polygon fill="white" stroke="black" points="211,-99 211,-129 333,-129 333,-99 211,-99"/>
<text text-anchor="start" x="219" y="-117" font-family="Helvetica,sans-Serif" font-size="10.00">shared::events::clsEvent</text>
<text text-anchor="middle" x="272" y="-106" font-family="Helvetica,sans-Serif" font-size="10.00">::toVariant</text>
</a>
</g>
</g>
<!-- Node1&#45;&gt;Node3 -->
<g id="edge2" class="edge"><title>Node1&#45;&gt;Node3</title>
<path fill="none" stroke="midnightblue" d="M158.238,-101.012C172.194,-102.619 186.659,-104.285 200.387,-105.867"/>
<polygon fill="midnightblue" stroke="midnightblue" points="200.385,-109.389 210.72,-107.057 201.186,-102.435 200.385,-109.389"/>
</g>
<!-- Node5 -->
<g id="node5" class="node"><title>Node5</title>
<g id="a_node5"><a xlink:href="../../df/dd2/classserver_1_1ui_server.html#ab9e9ed944311c42f019c645c3e0539cf" target="_top" xlink:title="Sends a jsonCommand to all the clients.">
<polygon fill="white" stroke="black" points="217,-60.5 217,-79.5 327,-79.5 327,-60.5 217,-60.5"/>
<text text-anchor="middle" x="272" y="-67.5" font-family="Helvetica,sans-Serif" font-size="10.00">server::uiServer::send</text>
</a>
</g>
</g>
<!-- Node1&#45;&gt;Node5 -->
<g id="edge4" class="edge"><title>Node1&#45;&gt;Node5</title>
<path fill="none" stroke="midnightblue" d="M158.238,-82.9883C174.38,-81.1291 191.202,-79.1914 206.776,-77.3975"/>
<polygon fill="midnightblue" stroke="midnightblue" points="207.277,-80.863 216.811,-76.2417 206.476,-73.909 207.277,-80.863"/>
</g>
<!-- Node13 -->
<g id="node13" class="node"><title>Node13</title>
<g id="a_node13"><a xlink:href="../../d1/d48/classserver_1_1main_app.html#a3f2522c9bfcd7593aad9c906d24b6016" target="_top" xlink:title="Adds an event to the history, checking for the maximum number.">
<polygon fill="white" stroke="black" points="201,-11 201,-41 343,-41 343,-11 201,-11"/>
<text text-anchor="start" x="209" y="-29" font-family="Helvetica,sans-Serif" font-size="10.00">server::mainApp::addToEvent</text>
<text text-anchor="middle" x="272" y="-18" font-family="Helvetica,sans-Serif" font-size="10.00">History</text>
</a>
</g>
</g>
<!-- Node1&#45;&gt;Node13 -->
<g id="edge13" class="edge"><title>Node1&#45;&gt;Node13</title>
<path fill="none" stroke="midnightblue" d="M105.726,-82.4876C128.779,-74.026 163.552,-61.4153 194,-51 200.433,-48.7994 207.184,-46.5378 213.904,-44.3168"/>
<polygon fill="midnightblue" stroke="midnightblue" points="215.277,-47.5498 223.686,-41.1037 213.093,-40.8994 215.277,-47.5498"/>
</g>
<!-- Node4 -->
<g id="node4" class="node"><title>Node4</title>
<g id="a_node4"><a xlink:href="../../db/d8b/classshared_1_1events_1_1cls_event.html#abd4a458aec7673de426a8995a349bf4b" target="_top" xlink:title="Gets the event type as a string.">
<polygon fill="white" stroke="black" points="394,-126 394,-156 516,-156 516,-126 394,-126"/>
<text text-anchor="start" x="402" y="-144" font-family="Helvetica,sans-Serif" font-size="10.00">shared::events::clsEvent</text>
<text text-anchor="middle" x="455" y="-133" font-family="Helvetica,sans-Serif" font-size="10.00">::getEventType</text>
</a>
</g>
</g>
<!-- Node3&#45;&gt;Node4 -->
<g id="edge3" class="edge"><title>Node3&#45;&gt;Node4</title>
<path fill="none" stroke="midnightblue" d="M333.019,-122.953C349.21,-125.368 366.876,-128.004 383.58,-130.495"/>
<polygon fill="midnightblue" stroke="midnightblue" points="383.428,-134.011 393.835,-132.025 384.461,-127.088 383.428,-134.011"/>
</g>
<!-- Node6 -->
<g id="node6" class="node"><title>Node6</title>
<g id="a_node6"><a xlink:href="../../d2/dc1/class_k4_u_1_1json_command.html#a0b681a1fedfb2e89397b1f71e29edf78" target="_top" xlink:title="Transforms this object to a nice JSON string.">
<polygon fill="white" stroke="black" points="386,-77 386,-107 524,-107 524,-77 386,-77"/>
<text text-anchor="start" x="394" y="-95" font-family="Helvetica,sans-Serif" font-size="10.00">K4U::jsonCommand::toJson</text>
<text text-anchor="middle" x="455" y="-84" font-family="Helvetica,sans-Serif" font-size="10.00">String</text>
</a>
</g>
</g>
<!-- Node5&#45;&gt;Node6 -->
<g id="edge5" class="edge"><title>Node5&#45;&gt;Node6</title>
<path fill="none" stroke="midnightblue" d="M327.306,-76.6007C342.569,-78.4559 359.477,-80.511 375.837,-82.4995"/>
<polygon fill="midnightblue" stroke="midnightblue" points="375.583,-85.9943 385.932,-83.7266 376.428,-79.0455 375.583,-85.9943"/>
</g>
<!-- Node10 -->
<g id="node10" class="node"><title>Node10</title>
<g id="a_node10"><a xlink:href="../../d6/d75/namespace_k4_u.html#aaddaee50fab2801df390147891b0c09d" target="_top" xlink:title="K4U::endl">
<polygon fill="white" stroke="black" points="425.5,-38.5 425.5,-57.5 484.5,-57.5 484.5,-38.5 425.5,-38.5"/>
<text text-anchor="middle" x="455" y="-45.5" font-family="Helvetica,sans-Serif" font-size="10.00">K4U::endl</text>
</a>
</g>
</g>
<!-- Node5&#45;&gt;Node10 -->
<g id="edge9" class="edge"><title>Node5&#45;&gt;Node10</title>
<path fill="none" stroke="midnightblue" d="M327.306,-63.3993C355.677,-59.9508 389.731,-55.8117 415.385,-52.6936"/>
<polygon fill="midnightblue" stroke="midnightblue" points="415.968,-56.1485 425.473,-51.4674 415.124,-49.1996 415.968,-56.1485"/>
</g>
<!-- Node12 -->
<g id="node12" class="node"><title>Node12</title>
<g id="a_node12"><a xlink:href="../../dc/d4d/classserver_1_1ui_client.html#ad3f8f8690155b186b54e40dcfee0df23" target="_top" xlink:title="Sends data to the socket.">
<polygon fill="white" stroke="black" points="401.5,-0.5 401.5,-19.5 508.5,-19.5 508.5,-0.5 401.5,-0.5"/>
<text text-anchor="middle" x="455" y="-7.5" font-family="Helvetica,sans-Serif" font-size="10.00">server::uiClient::send</text>
</a>
</g>
</g>
<!-- Node5&#45;&gt;Node12 -->
<g id="edge12" class="edge"><title>Node5&#45;&gt;Node12</title>
<path fill="none" stroke="midnightblue" d="M318.466,-60.395C329.002,-57.5676 340.04,-54.1068 350,-50 367.125,-42.9388 368.941,-36.2179 386,-29 391.496,-26.6745 397.361,-24.5463 403.257,-22.6245"/>
<polygon fill="midnightblue" stroke="midnightblue" points="404.614,-25.8688 413.146,-19.5866 402.559,-19.1774 404.614,-25.8688"/>
</g>
<!-- Node7 -->
<g id="node7" class="node"><title>Node7</title>
<g id="a_node7"><a xlink:href="../../d2/dc1/class_k4_u_1_1json_command.html#ac6bc0d606265f47db9bae5a6a40cb244" target="_top" xlink:title="getCommandString">
<polygon fill="white" stroke="black" points="560.5,-153 560.5,-183 727.5,-183 727.5,-153 560.5,-153"/>
<text text-anchor="start" x="568.5" y="-171" font-family="Helvetica,sans-Serif" font-size="10.00">K4U::jsonCommand::getCommand</text>
<text text-anchor="middle" x="644" y="-160" font-family="Helvetica,sans-Serif" font-size="10.00">String</text>
</a>
</g>
</g>
<!-- Node6&#45;&gt;Node7 -->
<g id="edge6" class="edge"><title>Node6&#45;&gt;Node7</title>
<path fill="none" stroke="midnightblue" d="M502.105,-107.001C509.577,-109.983 517.115,-113.337 524,-117 541.424,-126.269 542.306,-134.255 560,-143 564.604,-145.275 569.455,-147.388 574.406,-149.342"/>
<polygon fill="midnightblue" stroke="midnightblue" points="573.418,-152.708 584.011,-152.903 575.852,-146.145 573.418,-152.708"/>
</g>
<!-- Node8 -->
<g id="node8" class="node"><title>Node8</title>
<g id="a_node8"><a xlink:href="../../d2/dc1/class_k4_u_1_1json_command.html#ab408a8b051e005a7156e19ea8a1f7f3a" target="_top" xlink:title="Gets all data items.">
<polygon fill="white" stroke="black" points="572.5,-114.5 572.5,-133.5 715.5,-133.5 715.5,-114.5 572.5,-114.5"/>
<text text-anchor="middle" x="644" y="-121.5" font-family="Helvetica,sans-Serif" font-size="10.00">K4U::jsonCommand::getData</text>
</a>
</g>
</g>
<!-- Node6&#45;&gt;Node8 -->
<g id="edge7" class="edge"><title>Node6&#45;&gt;Node8</title>
<path fill="none" stroke="midnightblue" d="M524.04,-103.643C541.412,-106.616 560.054,-109.806 577.306,-112.758"/>
<polygon fill="midnightblue" stroke="midnightblue" points="576.835,-116.229 587.283,-114.465 578.016,-109.329 576.835,-116.229"/>
</g>
<!-- Node9 -->
<g id="node9" class="node"><title>Node9</title>
<g id="a_node9"><a xlink:href="../../d2/d6d/namespace_qt_json.html#ace7d6102379674932334bea04fb15c12" target="_top" xlink:title="QtJson::serialize">
<polygon fill="white" stroke="black" points="599.5,-76.5 599.5,-95.5 688.5,-95.5 688.5,-76.5 599.5,-76.5"/>
<text text-anchor="middle" x="644" y="-83.5" font-family="Helvetica,sans-Serif" font-size="10.00">QtJson::serialize</text>
</a>
</g>
</g>
<!-- Node6&#45;&gt;Node9 -->
<g id="edge8" class="edge"><title>Node6&#45;&gt;Node9</title>
<path fill="none" stroke="midnightblue" d="M524.04,-89.8169C545.57,-89.1261 569.05,-88.3727 589.418,-87.7192"/>
<polygon fill="midnightblue" stroke="midnightblue" points="589.568,-91.2163 599.451,-87.3973 589.344,-84.2199 589.568,-91.2163"/>
</g>
<!-- Node11 -->
<g id="node11" class="node"><title>Node11</title>
<g id="a_node11"><a xlink:href="../../da/d64/class_k4_u_1_1cls_log.html#a81f179b2ccb3e2abeb9b47f5b83de935" target="_top" xlink:title="K4U::clsLog::doEndl">
<polygon fill="white" stroke="black" points="591,-38.5 591,-57.5 697,-57.5 697,-38.5 591,-38.5"/>
<text text-anchor="middle" x="644" y="-45.5" font-family="Helvetica,sans-Serif" font-size="10.00">K4U::clsLog::doEndl</text>
</a>
</g>
</g>
<!-- Node10&#45;&gt;Node11 -->
<g id="edge10" class="edge"><title>Node10&#45;&gt;Node11</title>
<path fill="none" stroke="midnightblue" d="M484.809,-42.964C510.232,-41.3112 548.17,-40.8537 580.52,-41.5916"/>
<polygon fill="midnightblue" stroke="midnightblue" points="580.712,-45.0981 590.804,-41.8732 580.904,-38.1007 580.712,-45.0981"/>
</g>
<!-- Node11&#45;&gt;Node10 -->
<g id="edge11" class="edge"><title>Node11&#45;&gt;Node10</title>
<path fill="none" stroke="midnightblue" d="M590.804,-54.1268C560.411,-55.1062 522.73,-54.9312 494.94,-53.602"/>
<polygon fill="midnightblue" stroke="midnightblue" points="494.989,-50.0994 484.809,-53.036 494.598,-57.0885 494.989,-50.0994"/>
</g>
</g>
</svg>
