<?xml version="1.0" encoding="UTF-8" standalone="no"?>
<!DOCTYPE svg PUBLIC "-//W3C//DTD SVG 1.1//EN"
 "http://www.w3.org/Graphics/SVG/1.1/DTD/svg11.dtd">
<!-- Generated by graphviz version 2.30.1 (20130303.0817)
 -->
<!-- Title: server::mainApp::userOffline Pages: 1 -->
<svg width="716pt" height="618pt"
 viewBox="0.00 0.00 716.00 618.00" xmlns="http://www.w3.org/2000/svg" xmlns:xlink="http://www.w3.org/1999/xlink">
<g id="graph0" class="graph" transform="scale(1 1) rotate(0) translate(4 614)">
<title>server::mainApp::userOffline</title>
<polygon fill="white" stroke="white" points="-4,5 -4,-614 713,-614 713,5 -4,5"/>
<!-- Node1 -->
<g id="node1" class="node"><title>Node1</title>
<polygon fill="#bfbfbf" stroke="black" points="0,-318.5 0,-337.5 138,-337.5 138,-318.5 0,-318.5"/>
<text text-anchor="middle" x="69" y="-325.5" font-family="Helvetica,sans-Serif" font-size="10.00">server::mainApp::userOffline</text>
</g>
<!-- Node2 -->
<g id="node2" class="node"><title>Node2</title>
<g id="a_node2"><a xlink:href="../../d6/d75/namespace_k4_u.xhtml#aaddaee50fab2801df390147891b0c09d" target="_top" xlink:title="K4U::endl">
<polygon fill="white" stroke="black" points="405.5,-126.5 405.5,-145.5 464.5,-145.5 464.5,-126.5 405.5,-126.5"/>
<text text-anchor="middle" x="435" y="-133.5" font-family="Helvetica,sans-Serif" font-size="10.00">K4U::endl</text>
</a>
</g>
</g>
<!-- Node1&#45;&gt;Node2 -->
<g id="edge1" class="edge"><title>Node1&#45;&gt;Node2</title>
<path fill="none" stroke="midnightblue" d="M72.4348,-318.306C80.6419,-287.897 110.413,-194.094 174,-155 242.496,-112.888 341.138,-120.075 395.098,-128.417"/>
<polygon fill="midnightblue" stroke="midnightblue" points="394.837,-131.921 405.272,-130.087 395.971,-125.014 394.837,-131.921"/>
</g>
<!-- Node4 -->
<g id="node4" class="node"><title>Node4</title>
<g id="a_node4"><a xlink:href="../../d4/d08/classserver_1_1irc_user_list.xhtml#af2d5bdaf2ccd658679c933390500f0e2" target="_top" xlink:title="Finds a user based on IRC&#45;ID or nick.">
<polygon fill="white" stroke="black" points="204.5,-531 204.5,-561 299.5,-561 299.5,-531 204.5,-531"/>
<text text-anchor="start" x="212.5" y="-549" font-family="Helvetica,sans-Serif" font-size="10.00">server::ircUserList</text>
<text text-anchor="middle" x="252" y="-538" font-family="Helvetica,sans-Serif" font-size="10.00">::getUser</text>
</a>
</g>
</g>
<!-- Node1&#45;&gt;Node4 -->
<g id="edge4" class="edge"><title>Node1&#45;&gt;Node4</title>
<path fill="none" stroke="midnightblue" d="M72.7547,-337.704C81.9114,-368.283 114.192,-463.701 174,-516 180.075,-521.312 187.198,-525.738 194.615,-529.411"/>
<polygon fill="midnightblue" stroke="midnightblue" points="193.554,-532.771 204.11,-533.671 196.419,-526.385 193.554,-532.771"/>
</g>
<!-- Node6 -->
<g id="node6" class="node"><title>Node6</title>
<g id="a_node6"><a xlink:href="../../d2/d29/classserver_1_1irc_user.xhtml#a9b5683eaeb89557d6e1b1e57708aeb35" target="_top" xlink:title="server::ircUser::getName">
<polygon fill="white" stroke="black" points="373,-492.5 373,-511.5 497,-511.5 497,-492.5 373,-492.5"/>
<text text-anchor="middle" x="435" y="-499.5" font-family="Helvetica,sans-Serif" font-size="10.00">server::ircUser::getName</text>
</a>
</g>
</g>
<!-- Node1&#45;&gt;Node6 -->
<g id="edge8" class="edge"><title>Node1&#45;&gt;Node6</title>
<path fill="none" stroke="midnightblue" d="M73.1676,-337.903C82.8715,-366.411 115.16,-448.81 174,-483 232.391,-516.929 311.043,-517.761 366.501,-512.551"/>
<polygon fill="midnightblue" stroke="midnightblue" points="366.987,-516.02 376.576,-511.515 366.271,-509.057 366.987,-516.02"/>
</g>
<!-- Node8 -->
<g id="node8" class="node"><title>Node8</title>
<g id="a_node8"><a xlink:href="../../d2/d29/classserver_1_1irc_user.xhtml#afb3f6602401d493fb06fc48973123bf9" target="_top" xlink:title="server::ircUser::setStatus">
<polygon fill="white" stroke="black" points="188.5,-416.5 188.5,-435.5 315.5,-435.5 315.5,-416.5 188.5,-416.5"/>
<text text-anchor="middle" x="252" y="-423.5" font-family="Helvetica,sans-Serif" font-size="10.00">server::ircUser::setStatus</text>
</a>
</g>
</g>
<!-- Node1&#45;&gt;Node8 -->
<g id="edge9" class="edge"><title>Node1&#45;&gt;Node8</title>
<path fill="none" stroke="midnightblue" d="M79.6967,-337.604C97.0745,-354.269 135.334,-388.523 174,-407 179.047,-409.412 184.431,-411.537 189.919,-413.405"/>
<polygon fill="midnightblue" stroke="midnightblue" points="189.268,-416.868 199.857,-416.497 191.348,-410.184 189.268,-416.868"/>
</g>
<!-- Node9 -->
<g id="node9" class="node"><title>Node9</title>
<g id="a_node9"><a xlink:href="../../d2/d29/classserver_1_1irc_user.xhtml#a692aec882619dc575ac64ec8fabf02e9" target="_top" xlink:title="server::ircUser::setOnline">
<polygon fill="white" stroke="black" points="189,-378.5 189,-397.5 315,-397.5 315,-378.5 189,-378.5"/>
<text text-anchor="middle" x="252" y="-385.5" font-family="Helvetica,sans-Serif" font-size="10.00">server::ircUser::setOnline</text>
</a>
</g>
</g>
<!-- Node1&#45;&gt;Node9 -->
<g id="edge10" class="edge"><title>Node1&#45;&gt;Node9</title>
<path fill="none" stroke="midnightblue" d="M92.0054,-337.67C112.846,-346.588 145.155,-359.801 174,-369 181.741,-371.469 190.004,-373.809 198.138,-375.948"/>
<polygon fill="midnightblue" stroke="midnightblue" points="197.396,-379.371 207.951,-378.454 199.127,-372.589 197.396,-379.371"/>
</g>
<!-- Node10 -->
<g id="node10" class="node"><title>Node10</title>
<g id="a_node10"><a xlink:href="../../d2/d29/classserver_1_1irc_user.xhtml#a83a421f05e507496a7cab349cd993b69" target="_top" xlink:title="server::ircUser::isStandard">
<polygon fill="white" stroke="black" points="186.5,-340.5 186.5,-359.5 317.5,-359.5 317.5,-340.5 186.5,-340.5"/>
<text text-anchor="middle" x="252" y="-347.5" font-family="Helvetica,sans-Serif" font-size="10.00">server::ircUser::isStandard</text>
</a>
</g>
</g>
<!-- Node1&#45;&gt;Node10 -->
<g id="edge11" class="edge"><title>Node1&#45;&gt;Node10</title>
<path fill="none" stroke="midnightblue" d="M138.17,-336.286C150.664,-337.804 163.763,-339.397 176.432,-340.936"/>
<polygon fill="midnightblue" stroke="midnightblue" points="176.131,-344.426 186.48,-342.158 176.976,-337.477 176.131,-344.426"/>
</g>
<!-- Node11 -->
<g id="node11" class="node"><title>Node11</title>
<g id="a_node11"><a xlink:href="../../d4/d08/classserver_1_1irc_user_list.xhtml#ae42c9f84545a97b504a25c399cc43666" target="_top" xlink:title="Removes a user from the list.">
<polygon fill="white" stroke="black" points="195.5,-454.5 195.5,-473.5 308.5,-473.5 308.5,-454.5 195.5,-454.5"/>
<text text-anchor="middle" x="252" y="-461.5" font-family="Helvetica,sans-Serif" font-size="10.00">server::ircUserList::del</text>
</a>
</g>
</g>
<!-- Node1&#45;&gt;Node11 -->
<g id="edge12" class="edge"><title>Node1&#45;&gt;Node11</title>
<path fill="none" stroke="midnightblue" d="M75.6563,-337.635C89.4192,-360.186 126.999,-416.632 174,-445 177.647,-447.201 181.537,-449.148 185.558,-450.869"/>
<polygon fill="midnightblue" stroke="midnightblue" points="184.535,-454.224 195.126,-454.491 187.013,-447.678 184.535,-454.224"/>
</g>
<!-- Node12 -->
<g id="node12" class="node"><title>Node12</title>
<g id="a_node12"><a xlink:href="../../d2/d29/classserver_1_1irc_user.xhtml#a7d729b6e71c3f381a1db0cec57520c39" target="_top" xlink:title="getId">
<polygon fill="white" stroke="black" points="199,-252.5 199,-271.5 305,-271.5 305,-252.5 199,-252.5"/>
<text text-anchor="middle" x="252" y="-259.5" font-family="Helvetica,sans-Serif" font-size="10.00">server::ircUser::getId</text>
</a>
</g>
</g>
<!-- Node1&#45;&gt;Node12 -->
<g id="edge14" class="edge"><title>Node1&#45;&gt;Node12</title>
<path fill="none" stroke="midnightblue" d="M89.1718,-318.391C109.758,-308.342 143.611,-292.589 174,-282 182.062,-279.191 190.72,-276.572 199.216,-274.216"/>
<polygon fill="midnightblue" stroke="midnightblue" points="200.317,-277.545 209.07,-271.575 198.504,-270.783 200.317,-277.545"/>
</g>
<!-- Node13 -->
<g id="node13" class="node"><title>Node13</title>
<g id="a_node13"><a xlink:href="../../d1/d48/classserver_1_1main_app.xhtml#a3f2522c9bfcd7593aad9c906d24b6016" target="_top" xlink:title="Adds an event to the history, checking for the maximum number.">
<polygon fill="white" stroke="black" points="181,-203 181,-233 323,-233 323,-203 181,-203"/>
<text text-anchor="start" x="189" y="-221" font-family="Helvetica,sans-Serif" font-size="10.00">server::mainApp::addToEvent</text>
<text text-anchor="middle" x="252" y="-210" font-family="Helvetica,sans-Serif" font-size="10.00">History</text>
</a>
</g>
</g>
<!-- Node1&#45;&gt;Node13 -->
<g id="edge15" class="edge"><title>Node1&#45;&gt;Node13</title>
<path fill="none" stroke="midnightblue" d="M79.1481,-318.47C96.2544,-301.151 134.904,-264.336 174,-243 177.994,-240.82 182.21,-238.792 186.526,-236.912"/>
<polygon fill="midnightblue" stroke="midnightblue" points="188.142,-240.033 196.092,-233.031 185.51,-233.547 188.142,-240.033"/>
</g>
<!-- Node14 -->
<g id="node14" class="node"><title>Node14</title>
<g id="a_node14"><a xlink:href="../../d2/dc1/class_k4_u_1_1json_command.xhtml#aa0629328322fb09be4494a0826bb19b5" target="_top" xlink:title="Adds data to the internal data map.">
<polygon fill="white" stroke="black" points="174.5,-164.5 174.5,-183.5 329.5,-183.5 329.5,-164.5 174.5,-164.5"/>
<text text-anchor="middle" x="252" y="-171.5" font-family="Helvetica,sans-Serif" font-size="10.00">K4U::jsonCommand::addToData</text>
</a>
</g>
</g>
<!-- Node1&#45;&gt;Node14 -->
<g id="edge16" class="edge"><title>Node1&#45;&gt;Node14</title>
<path fill="none" stroke="midnightblue" d="M74.5544,-318.481C86.8682,-293.803 123.339,-227.37 174,-194 177.801,-191.496 181.899,-189.306 186.155,-187.39"/>
<polygon fill="midnightblue" stroke="midnightblue" points="187.665,-190.556 195.67,-183.617 185.084,-184.049 187.665,-190.556"/>
</g>
<!-- Node15 -->
<g id="node15" class="node"><title>Node15</title>
<g id="a_node15"><a xlink:href="../../db/d8b/classshared_1_1events_1_1cls_event.xhtml#a48d11c9b50a2569c1065f19ca87d0715" target="_top" xlink:title="Converts the current data to a QVariant for sending with JSON.">
<polygon fill="white" stroke="black" points="191,-291 191,-321 313,-321 313,-291 191,-291"/>
<text text-anchor="start" x="199" y="-309" font-family="Helvetica,sans-Serif" font-size="10.00">shared::events::clsEvent</text>
<text text-anchor="middle" x="252" y="-298" font-family="Helvetica,sans-Serif" font-size="10.00">::toVariant</text>
</a>
</g>
</g>
<!-- Node1&#45;&gt;Node15 -->
<g id="edge17" class="edge"><title>Node1&#45;&gt;Node15</title>
<path fill="none" stroke="midnightblue" d="M138.17,-319.714C152.121,-318.018 166.826,-316.231 180.845,-314.527"/>
<polygon fill="midnightblue" stroke="midnightblue" points="181.406,-317.985 190.911,-313.304 180.562,-311.036 181.406,-317.985"/>
</g>
<!-- Node17 -->
<g id="node17" class="node"><title>Node17</title>
<g id="a_node17"><a xlink:href="../../df/dd2/classserver_1_1ui_server.xhtml#ab9e9ed944311c42f019c645c3e0539cf" target="_top" xlink:title="Sends a jsonCommand to all the clients.">
<polygon fill="white" stroke="black" points="197,-88.5 197,-107.5 307,-107.5 307,-88.5 197,-88.5"/>
<text text-anchor="middle" x="252" y="-95.5" font-family="Helvetica,sans-Serif" font-size="10.00">server::uiServer::send</text>
</a>
</g>
</g>
<!-- Node1&#45;&gt;Node17 -->
<g id="edge19" class="edge"><title>Node1&#45;&gt;Node17</title>
<path fill="none" stroke="midnightblue" d="M72.0904,-318.124C79.5908,-285.131 108.27,-177.669 174,-122 178.908,-117.843 184.535,-114.405 190.463,-111.562"/>
<polygon fill="midnightblue" stroke="midnightblue" points="192.106,-114.668 199.968,-107.566 189.393,-108.215 192.106,-114.668"/>
</g>
<!-- Node3 -->
<g id="node3" class="node"><title>Node3</title>
<g id="a_node3"><a xlink:href="../../da/d64/class_k4_u_1_1cls_log.xhtml#a81f179b2ccb3e2abeb9b47f5b83de935" target="_top" xlink:title="K4U::clsLog::doEndl">
<polygon fill="white" stroke="black" points="571,-126.5 571,-145.5 677,-145.5 677,-126.5 571,-126.5"/>
<text text-anchor="middle" x="624" y="-133.5" font-family="Helvetica,sans-Serif" font-size="10.00">K4U::clsLog::doEndl</text>
</a>
</g>
</g>
<!-- Node2&#45;&gt;Node3 -->
<g id="edge2" class="edge"><title>Node2&#45;&gt;Node3</title>
<path fill="none" stroke="midnightblue" d="M464.809,-130.964C490.232,-129.311 528.17,-128.854 560.52,-129.592"/>
<polygon fill="midnightblue" stroke="midnightblue" points="560.712,-133.098 570.804,-129.873 560.904,-126.101 560.712,-133.098"/>
</g>
<!-- Node3&#45;&gt;Node2 -->
<g id="edge3" class="edge"><title>Node3&#45;&gt;Node2</title>
<path fill="none" stroke="midnightblue" d="M570.804,-142.127C540.411,-143.106 502.73,-142.931 474.94,-141.602"/>
<polygon fill="midnightblue" stroke="midnightblue" points="474.989,-138.099 464.809,-141.036 474.598,-145.088 474.989,-138.099"/>
</g>
<!-- Node5 -->
<g id="node5" class="node"><title>Node5</title>
<g id="a_node5"><a xlink:href="../../d4/d08/classserver_1_1irc_user_list.xhtml#a105ff952c0e653bdc765adc58d3e702b" target="_top" xlink:title="Gets a user by his IRC&#45;ID.">
<polygon fill="white" stroke="black" points="387.5,-531 387.5,-561 482.5,-561 482.5,-531 387.5,-531"/>
<text text-anchor="start" x="395.5" y="-549" font-family="Helvetica,sans-Serif" font-size="10.00">server::ircUserList</text>
<text text-anchor="middle" x="435" y="-538" font-family="Helvetica,sans-Serif" font-size="10.00">::getUserByIrcId</text>
</a>
</g>
</g>
<!-- Node4&#45;&gt;Node5 -->
<g id="edge5" class="edge"><title>Node4&#45;&gt;Node5</title>
<path fill="none" stroke="midnightblue" d="M299.612,-546C323.271,-546 352.211,-546 377.168,-546"/>
<polygon fill="midnightblue" stroke="midnightblue" points="377.232,-549.5 387.232,-546 377.232,-542.5 377.232,-549.5"/>
</g>
<!-- Node4&#45;&gt;Node6 -->
<g id="edge6" class="edge"><title>Node4&#45;&gt;Node6</title>
<path fill="none" stroke="midnightblue" d="M299.612,-534.669C325.804,-528.302 358.467,-520.362 385.032,-513.904"/>
<polygon fill="midnightblue" stroke="midnightblue" points="385.999,-517.271 394.889,-511.508 384.346,-510.469 385.999,-517.271"/>
</g>
<!-- Node7 -->
<g id="node7" class="node"><title>Node7</title>
<g id="a_node7"><a xlink:href="../../d4/d08/classserver_1_1irc_user_list.xhtml#a7f99e64e1cabde876fa6a827c6614a4e" target="_top" xlink:title="Finds a user based on his nick and status.">
<polygon fill="white" stroke="black" points="387.5,-580 387.5,-610 482.5,-610 482.5,-580 387.5,-580"/>
<text text-anchor="start" x="395.5" y="-598" font-family="Helvetica,sans-Serif" font-size="10.00">server::ircUserList</text>
<text text-anchor="middle" x="435" y="-587" font-family="Helvetica,sans-Serif" font-size="10.00">::getUserByNick</text>
</a>
</g>
</g>
<!-- Node4&#45;&gt;Node7 -->
<g id="edge7" class="edge"><title>Node4&#45;&gt;Node7</title>
<path fill="none" stroke="midnightblue" d="M299.612,-558.619C323.377,-565.052 352.469,-572.928 377.5,-579.704"/>
<polygon fill="midnightblue" stroke="midnightblue" points="376.665,-583.104 387.232,-582.339 378.494,-576.347 376.665,-583.104"/>
</g>
<!-- Node11&#45;&gt;Node6 -->
<g id="edge13" class="edge"><title>Node11&#45;&gt;Node6</title>
<path fill="none" stroke="midnightblue" d="M298.674,-473.589C322.989,-478.694 353.08,-485.011 378.708,-490.392"/>
<polygon fill="midnightblue" stroke="midnightblue" points="378.149,-493.851 388.654,-492.48 379.587,-487 378.149,-493.851"/>
</g>
<!-- Node16 -->
<g id="node16" class="node"><title>Node16</title>
<g id="a_node16"><a xlink:href="../../db/d8b/classshared_1_1events_1_1cls_event.xhtml#abd4a458aec7673de426a8995a349bf4b" target="_top" xlink:title="Gets the event type as a string.">
<polygon fill="white" stroke="black" points="374,-291 374,-321 496,-321 496,-291 374,-291"/>
<text text-anchor="start" x="382" y="-309" font-family="Helvetica,sans-Serif" font-size="10.00">shared::events::clsEvent</text>
<text text-anchor="middle" x="435" y="-298" font-family="Helvetica,sans-Serif" font-size="10.00">::getEventType</text>
</a>
</g>
</g>
<!-- Node15&#45;&gt;Node16 -->
<g id="edge18" class="edge"><title>Node15&#45;&gt;Node16</title>
<path fill="none" stroke="midnightblue" d="M313.019,-306C329.21,-306 346.876,-306 363.58,-306"/>
<polygon fill="midnightblue" stroke="midnightblue" points="363.835,-309.5 373.835,-306 363.835,-302.5 363.835,-309.5"/>
</g>
<!-- Node18 -->
<g id="node18" class="node"><title>Node18</title>
<g id="a_node18"><a xlink:href="../../d2/dc1/class_k4_u_1_1json_command.xhtml#a0b681a1fedfb2e89397b1f71e29edf78" target="_top" xlink:title="Transforms this object to a nice JSON string.">
<polygon fill="white" stroke="black" points="366,-39 366,-69 504,-69 504,-39 366,-39"/>
<text text-anchor="start" x="374" y="-57" font-family="Helvetica,sans-Serif" font-size="10.00">K4U::jsonCommand::toJson</text>
<text text-anchor="middle" x="435" y="-46" font-family="Helvetica,sans-Serif" font-size="10.00">String</text>
</a>
</g>
</g>
<!-- Node17&#45;&gt;Node18 -->
<g id="edge20" class="edge"><title>Node17&#45;&gt;Node18</title>
<path fill="none" stroke="midnightblue" d="M292.274,-88.4527C312.744,-83.4767 338.426,-77.2334 362.287,-71.4331"/>
<polygon fill="midnightblue" stroke="midnightblue" points="363.136,-74.8285 372.027,-69.0654 361.483,-68.0266 363.136,-74.8285"/>
</g>
<!-- Node17&#45;&gt;Node2 -->
<g id="edge24" class="edge"><title>Node17&#45;&gt;Node2</title>
<path fill="none" stroke="midnightblue" d="M298.674,-107.589C328.521,-113.855 367.07,-121.948 395.386,-127.893"/>
<polygon fill="midnightblue" stroke="midnightblue" points="394.814,-131.349 405.32,-129.979 396.253,-124.499 394.814,-131.349"/>
</g>
<!-- Node22 -->
<g id="node22" class="node"><title>Node22</title>
<g id="a_node22"><a xlink:href="../../dc/d4d/classserver_1_1ui_client.xhtml#ad3f8f8690155b186b54e40dcfee0df23" target="_top" xlink:title="Sends data to the socket.">
<polygon fill="white" stroke="black" points="381.5,-88.5 381.5,-107.5 488.5,-107.5 488.5,-88.5 381.5,-88.5"/>
<text text-anchor="middle" x="435" y="-95.5" font-family="Helvetica,sans-Serif" font-size="10.00">server::uiClient::send</text>
</a>
</g>
</g>
<!-- Node17&#45;&gt;Node22 -->
<g id="edge25" class="edge"><title>Node17&#45;&gt;Node22</title>
<path fill="none" stroke="midnightblue" d="M307.306,-98C327.441,-98 350.437,-98 371.262,-98"/>
<polygon fill="midnightblue" stroke="midnightblue" points="371.288,-101.5 381.288,-98 371.288,-94.5001 371.288,-101.5"/>
</g>
<!-- Node19 -->
<g id="node19" class="node"><title>Node19</title>
<g id="a_node19"><a xlink:href="../../d2/dc1/class_k4_u_1_1json_command.xhtml#ac6bc0d606265f47db9bae5a6a40cb244" target="_top" xlink:title="getCommandString">
<polygon fill="white" stroke="black" points="540.5,-39 540.5,-69 707.5,-69 707.5,-39 540.5,-39"/>
<text text-anchor="start" x="548.5" y="-57" font-family="Helvetica,sans-Serif" font-size="10.00">K4U::jsonCommand::getCommand</text>
<text text-anchor="middle" x="624" y="-46" font-family="Helvetica,sans-Serif" font-size="10.00">String</text>
</a>
</g>
</g>
<!-- Node18&#45;&gt;Node19 -->
<g id="edge21" class="edge"><title>Node18&#45;&gt;Node19</title>
<path fill="none" stroke="midnightblue" d="M504.04,-54C512.522,-54 521.306,-54 530.083,-54"/>
<polygon fill="midnightblue" stroke="midnightblue" points="530.366,-57.5001 540.366,-54 530.366,-50.5001 530.366,-57.5001"/>
</g>
<!-- Node20 -->
<g id="node20" class="node"><title>Node20</title>
<g id="a_node20"><a xlink:href="../../d2/dc1/class_k4_u_1_1json_command.xhtml#ab408a8b051e005a7156e19ea8a1f7f3a" target="_top" xlink:title="Gets all data items.">
<polygon fill="white" stroke="black" points="552.5,-0.5 552.5,-19.5 695.5,-19.5 695.5,-0.5 552.5,-0.5"/>
<text text-anchor="middle" x="624" y="-7.5" font-family="Helvetica,sans-Serif" font-size="10.00">K4U::jsonCommand::getData</text>
</a>
</g>
</g>
<!-- Node18&#45;&gt;Node20 -->
<g id="edge22" class="edge"><title>Node18&#45;&gt;Node20</title>
<path fill="none" stroke="midnightblue" d="M499.832,-38.9808C523.596,-33.3892 550.213,-27.1265 572.606,-21.8574"/>
<polygon fill="midnightblue" stroke="midnightblue" points="573.64,-25.2098 582.572,-19.5124 572.036,-18.3959 573.64,-25.2098"/>
</g>
<!-- Node21 -->
<g id="node21" class="node"><title>Node21</title>
<g id="a_node21"><a xlink:href="../../d2/d6d/namespace_qt_json.xhtml#ace7d6102379674932334bea04fb15c12" target="_top" xlink:title="QtJson::serialize">
<polygon fill="white" stroke="black" points="579.5,-88.5 579.5,-107.5 668.5,-107.5 668.5,-88.5 579.5,-88.5"/>
<text text-anchor="middle" x="624" y="-95.5" font-family="Helvetica,sans-Serif" font-size="10.00">QtJson::serialize</text>
</a>
</g>
</g>
<!-- Node18&#45;&gt;Node21 -->
<g id="edge23" class="edge"><title>Node18&#45;&gt;Node21</title>
<path fill="none" stroke="midnightblue" d="M499.832,-69.0192C523.596,-74.6108 550.213,-80.8735 572.606,-86.1426"/>
<polygon fill="midnightblue" stroke="midnightblue" points="572.036,-89.6041 582.572,-88.4876 573.64,-82.7902 572.036,-89.6041"/>
</g>
</g>
</svg>
