<?xml version="1.0" encoding="UTF-8" standalone="no"?>
<!DOCTYPE svg PUBLIC "-//W3C//DTD SVG 1.1//EN"
 "http://www.w3.org/Graphics/SVG/1.1/DTD/svg11.dtd">
<!-- Generated by graphviz version 2.30.1 (20130303.0817)
 -->
<!-- Title: server::mainApp::doIrcReconnect Pages: 1 -->
<!--zoomable 253 -->
<svg id="main" version="1.1" xmlns="http://www.w3.org/2000/svg" xmlns:xlink="http://www.w3.org/1999/xlink" xml:space="preserve" onload="init(evt)">
        <defs>
                <circle id="rim" cx="0" cy="0" r="7"/>
                <circle id="rim2" cx="0" cy="0" r="3.5"/>
                <g id="zoomPlus">
                        <use xlink:href="#rim" fill="#404040">
                                <set attributeName="fill" to="#808080" begin="zoomplus.mouseover" end="zoomplus.mouseout"/>
                        </use>
                        <path d="M-4,0h8M0,-4v8" fill="none" stroke="white" stroke-width="1.5" pointer-events="none"/>
                </g>
                <g id="zoomMin">
                        <use xlink:href="#rim" fill="#404040">
                                <set attributeName="fill" to="#808080" begin="zoomminus.mouseover" end="zoomminus.mouseout"/>
                        </use>
                        <path d="M-4,0h8" fill="none" stroke="white" stroke-width="1.5" pointer-events="none"/>
                </g>
                <g id="dirArrow">
                        <path fill="none" stroke="white" stroke-width="1.5" d="M0,-3.0v7 M-2.5,-0.5L0,-3.0L2.5,-0.5"/>
                </g>
               <g id="resetDef">
                       <use xlink:href="#rim2" fill="#404040">
                               <set attributeName="fill" to="#808080" begin="reset.mouseover" end="reset.mouseout"/>
                       </use>
               </g>
        </defs>

<script type="text/javascript">
var viewWidth = 932;
var viewHeight = 253;
var sectionId = 'dynsection-3';
</script>
<script xlink:href="../../svgpan.js"/>
<svg id="graph" class="graph">
<g id="viewport">
<title>server::mainApp::doIrcReconnect</title>
<polygon fill="white" stroke="white" points="-4,5 -4,-249 929,-249 929,5 -4,5"/>
<!-- Node1 -->
<g id="node1" class="node"><title>Node1</title>
<polygon fill="#bfbfbf" stroke="black" points="0,-93.5 0,-112.5 160,-112.5 160,-93.5 0,-93.5"/>
<text text-anchor="middle" x="80" y="-100.5" font-family="Helvetica,sans-Serif" font-size="10.00">server::mainApp::doIrcReconnect</text>
</g>
<!-- Node2 -->
<g id="node2" class="node"><title>Node2</title>
<g id="a_node2"><a xlink:href="../../d1/d48/classserver_1_1main_app.html#a7263ca5b3630b0a2774f556b96c333c8" target="_top" xlink:title="For logging to the clients.">
<polygon fill="white" stroke="black" points="196,-137.5 196,-156.5 354,-156.5 354,-137.5 196,-137.5"/>
<text text-anchor="middle" x="275" y="-144.5" font-family="Helvetica,sans-Serif" font-size="10.00">server::mainApp::serverMessage</text>
</a>
</g>
</g>
<!-- Node1&#45;&gt;Node2 -->
<g id="edge1" class="edge"><title>Node1&#45;&gt;Node2</title>
<path fill="none" stroke="midnightblue" d="M122.878,-112.547C152.089,-119.207 191.257,-128.136 222.398,-135.236"/>
<polygon fill="midnightblue" stroke="midnightblue" points="221.676,-138.661 232.204,-137.471 223.232,-131.836 221.676,-138.661"/>
</g>
<!-- Node15 -->
<g id="node15" class="node"><title>Node15</title>
<g id="a_node15"><a xlink:href="../../d1/d10/classserver_1_1irc_client.html#a43b0e50c5bf5ba76b5a09917e779c1ea" target="_top" xlink:title="connects to the IRC server. Sets the whole thing in motion">
<polygon fill="white" stroke="black" points="230.5,-44 230.5,-74 319.5,-74 319.5,-44 230.5,-44"/>
<text text-anchor="start" x="238.5" y="-62" font-family="Helvetica,sans-Serif" font-size="10.00">server::ircClient::</text>
<text text-anchor="middle" x="275" y="-51" font-family="Helvetica,sans-Serif" font-size="10.00">doConnect</text>
</a>
</g>
</g>
<!-- Node1&#45;&gt;Node15 -->
<g id="edge15" class="edge"><title>Node1&#45;&gt;Node15</title>
<path fill="none" stroke="midnightblue" d="M122.878,-93.4527C151.365,-86.9582 189.321,-78.3049 220.068,-71.2955"/>
<polygon fill="midnightblue" stroke="midnightblue" points="221.222,-74.6221 230.194,-68.9869 219.666,-67.7973 221.222,-74.6221"/>
</g>
<!-- Node3 -->
<g id="node3" class="node"><title>Node3</title>
<g id="a_node3"><a xlink:href="../../d2/dc1/class_k4_u_1_1json_command.html#aa0629328322fb09be4494a0826bb19b5" target="_top" xlink:title="Adds data to the internal data map.">
<polygon fill="white" stroke="black" points="390.5,-225.5 390.5,-244.5 545.5,-244.5 545.5,-225.5 390.5,-225.5"/>
<text text-anchor="middle" x="468" y="-232.5" font-family="Helvetica,sans-Serif" font-size="10.00">K4U::jsonCommand::addToData</text>
</a>
</g>
</g>
<!-- Node2&#45;&gt;Node3 -->
<g id="edge2" class="edge"><title>Node2&#45;&gt;Node3</title>
<path fill="none" stroke="midnightblue" d="M289.369,-156.706C310.009,-171.278 351.303,-198.822 390,-215 396.911,-217.889 404.35,-220.452 411.782,-222.697"/>
<polygon fill="midnightblue" stroke="midnightblue" points="410.929,-226.093 421.505,-225.465 412.846,-219.36 410.929,-226.093"/>
</g>
<!-- Node4 -->
<g id="node4" class="node"><title>Node4</title>
<g id="a_node4"><a xlink:href="../../db/d8b/classshared_1_1events_1_1cls_event.html#a48d11c9b50a2569c1065f19ca87d0715" target="_top" xlink:title="Converts the current data to a QVariant for sending with JSON.">
<polygon fill="white" stroke="black" points="407,-176 407,-206 529,-206 529,-176 407,-176"/>
<text text-anchor="start" x="415" y="-194" font-family="Helvetica,sans-Serif" font-size="10.00">shared::events::clsEvent</text>
<text text-anchor="middle" x="468" y="-183" font-family="Helvetica,sans-Serif" font-size="10.00">::toVariant</text>
</a>
</g>
</g>
<!-- Node2&#45;&gt;Node4 -->
<g id="edge3" class="edge"><title>Node2&#45;&gt;Node4</title>
<path fill="none" stroke="midnightblue" d="M317.444,-156.547C340.599,-161.881 370.074,-168.672 396.726,-174.811"/>
<polygon fill="midnightblue" stroke="midnightblue" points="396.253,-178.294 406.784,-177.128 397.824,-171.473 396.253,-178.294"/>
</g>
<!-- Node6 -->
<g id="node6" class="node"><title>Node6</title>
<g id="a_node6"><a xlink:href="../../df/dd2/classserver_1_1ui_server.html#ab9e9ed944311c42f019c645c3e0539cf" target="_top" xlink:title="Sends a jsonCommand to all the clients.">
<polygon fill="white" stroke="black" points="413,-137.5 413,-156.5 523,-156.5 523,-137.5 413,-137.5"/>
<text text-anchor="middle" x="468" y="-144.5" font-family="Helvetica,sans-Serif" font-size="10.00">server::uiServer::send</text>
</a>
</g>
</g>
<!-- Node2&#45;&gt;Node6 -->
<g id="edge5" class="edge"><title>Node2&#45;&gt;Node6</title>
<path fill="none" stroke="midnightblue" d="M354.238,-147C370.38,-147 387.202,-147 402.776,-147"/>
<polygon fill="midnightblue" stroke="midnightblue" points="402.811,-150.5 412.811,-147 402.811,-143.5 402.811,-150.5"/>
</g>
<!-- Node14 -->
<g id="node14" class="node"><title>Node14</title>
<g id="a_node14"><a xlink:href="../../d1/d48/classserver_1_1main_app.html#a3f2522c9bfcd7593aad9c906d24b6016" target="_top" xlink:title="Adds an event to the history, checking for the maximum number.">
<polygon fill="white" stroke="black" points="397,-88 397,-118 539,-118 539,-88 397,-88"/>
<text text-anchor="start" x="405" y="-106" font-family="Helvetica,sans-Serif" font-size="10.00">server::mainApp::addToEvent</text>
<text text-anchor="middle" x="468" y="-95" font-family="Helvetica,sans-Serif" font-size="10.00">History</text>
</a>
</g>
</g>
<!-- Node2&#45;&gt;Node14 -->
<g id="edge14" class="edge"><title>Node2&#45;&gt;Node14</title>
<path fill="none" stroke="midnightblue" d="M317.444,-137.453C339.141,-132.455 366.387,-126.178 391.66,-120.356"/>
<polygon fill="midnightblue" stroke="midnightblue" points="392.644,-123.721 401.603,-118.065 391.072,-116.9 392.644,-123.721"/>
</g>
<!-- Node5 -->
<g id="node5" class="node"><title>Node5</title>
<g id="a_node5"><a xlink:href="../../db/d8b/classshared_1_1events_1_1cls_event.html#abd4a458aec7673de426a8995a349bf4b" target="_top" xlink:title="Gets the event type as a string.">
<polygon fill="white" stroke="black" points="590,-181 590,-211 712,-211 712,-181 590,-181"/>
<text text-anchor="start" x="598" y="-199" font-family="Helvetica,sans-Serif" font-size="10.00">shared::events::clsEvent</text>
<text text-anchor="middle" x="651" y="-188" font-family="Helvetica,sans-Serif" font-size="10.00">::getEventType</text>
</a>
</g>
</g>
<!-- Node4&#45;&gt;Node5 -->
<g id="edge4" class="edge"><title>Node4&#45;&gt;Node5</title>
<path fill="none" stroke="midnightblue" d="M529.019,-192.658C545.21,-193.105 562.876,-193.593 579.58,-194.055"/>
<polygon fill="midnightblue" stroke="midnightblue" points="579.742,-197.56 589.835,-194.338 579.935,-190.563 579.742,-197.56"/>
</g>
<!-- Node7 -->
<g id="node7" class="node"><title>Node7</title>
<g id="a_node7"><a xlink:href="../../d2/dc1/class_k4_u_1_1json_command.html#a0b681a1fedfb2e89397b1f71e29edf78" target="_top" xlink:title="Transforms this object to a nice JSON string.">
<polygon fill="white" stroke="black" points="582,-132 582,-162 720,-162 720,-132 582,-132"/>
<text text-anchor="start" x="590" y="-150" font-family="Helvetica,sans-Serif" font-size="10.00">K4U::jsonCommand::toJson</text>
<text text-anchor="middle" x="651" y="-139" font-family="Helvetica,sans-Serif" font-size="10.00">String</text>
</a>
</g>
</g>
<!-- Node6&#45;&gt;Node7 -->
<g id="edge6" class="edge"><title>Node6&#45;&gt;Node7</title>
<path fill="none" stroke="midnightblue" d="M523.306,-147C538.569,-147 555.477,-147 571.837,-147"/>
<polygon fill="midnightblue" stroke="midnightblue" points="571.932,-150.5 581.932,-147 571.932,-143.5 571.932,-150.5"/>
</g>
<!-- Node11 -->
<g id="node11" class="node"><title>Node11</title>
<g id="a_node11"><a xlink:href="../../d6/d75/namespace_k4_u.html#aaddaee50fab2801df390147891b0c09d" target="_top" xlink:title="K4U::endl">
<polygon fill="white" stroke="black" points="621.5,-52.5 621.5,-71.5 680.5,-71.5 680.5,-52.5 621.5,-52.5"/>
<text text-anchor="middle" x="651" y="-59.5" font-family="Helvetica,sans-Serif" font-size="10.00">K4U::endl</text>
</a>
</g>
</g>
<!-- Node6&#45;&gt;Node11 -->
<g id="edge10" class="edge"><title>Node6&#45;&gt;Node11</title>
<path fill="none" stroke="midnightblue" d="M523.38,-137.436C531.311,-134.766 539.113,-131.356 546,-127 567.065,-113.677 561.336,-97.9361 582,-84 590.796,-78.0682 601.301,-73.6447 611.393,-70.3836"/>
<polygon fill="midnightblue" stroke="midnightblue" points="612.652,-73.6621 621.269,-67.4972 610.689,-66.9432 612.652,-73.6621"/>
</g>
<!-- Node13 -->
<g id="node13" class="node"><title>Node13</title>
<g id="a_node13"><a xlink:href="../../dc/d4d/classserver_1_1ui_client.html#ad3f8f8690155b186b54e40dcfee0df23" target="_top" xlink:title="Sends data to the socket.">
<polygon fill="white" stroke="black" points="597.5,-93.5 597.5,-112.5 704.5,-112.5 704.5,-93.5 597.5,-93.5"/>
<text text-anchor="middle" x="651" y="-100.5" font-family="Helvetica,sans-Serif" font-size="10.00">server::uiClient::send</text>
</a>
</g>
</g>
<!-- Node6&#45;&gt;Node13 -->
<g id="edge13" class="edge"><title>Node6&#45;&gt;Node13</title>
<path fill="none" stroke="midnightblue" d="M508.274,-137.453C535.432,-130.851 571.766,-122.018 600.846,-114.949"/>
<polygon fill="midnightblue" stroke="midnightblue" points="601.912,-118.292 610.802,-112.529 600.259,-111.49 601.912,-118.292"/>
</g>
<!-- Node8 -->
<g id="node8" class="node"><title>Node8</title>
<g id="a_node8"><a xlink:href="../../d2/dc1/class_k4_u_1_1json_command.html#ac6bc0d606265f47db9bae5a6a40cb244" target="_top" xlink:title="getCommandString">
<polygon fill="white" stroke="black" points="756.5,-176 756.5,-206 923.5,-206 923.5,-176 756.5,-176"/>
<text text-anchor="start" x="764.5" y="-194" font-family="Helvetica,sans-Serif" font-size="10.00">K4U::jsonCommand::getCommand</text>
<text text-anchor="middle" x="840" y="-183" font-family="Helvetica,sans-Serif" font-size="10.00">String</text>
</a>
</g>
</g>
<!-- Node7&#45;&gt;Node8 -->
<g id="edge7" class="edge"><title>Node7&#45;&gt;Node8</title>
<path fill="none" stroke="midnightblue" d="M715.832,-162.019C731.691,-165.751 748.821,-169.781 765.118,-173.616"/>
<polygon fill="midnightblue" stroke="midnightblue" points="764.603,-177.09 775.139,-175.974 766.206,-170.276 764.603,-177.09"/>
</g>
<!-- Node9 -->
<g id="node9" class="node"><title>Node9</title>
<g id="a_node9"><a xlink:href="../../d2/dc1/class_k4_u_1_1json_command.html#ab408a8b051e005a7156e19ea8a1f7f3a" target="_top" xlink:title="Gets all data items.">
<polygon fill="white" stroke="black" points="768.5,-137.5 768.5,-156.5 911.5,-156.5 911.5,-137.5 768.5,-137.5"/>
<text text-anchor="middle" x="840" y="-144.5" font-family="Helvetica,sans-Serif" font-size="10.00">K4U::jsonCommand::getData</text>
</a>
</g>
</g>
<!-- Node7&#45;&gt;Node9 -->
<g id="edge8" class="edge"><title>Node7&#45;&gt;Node9</title>
<path fill="none" stroke="midnightblue" d="M720.04,-147C732.483,-147 745.577,-147 758.345,-147"/>
<polygon fill="midnightblue" stroke="midnightblue" points="758.496,-150.5 768.496,-147 758.496,-143.5 758.496,-150.5"/>
</g>
<!-- Node10 -->
<g id="node10" class="node"><title>Node10</title>
<g id="a_node10"><a xlink:href="../../d2/d6d/namespace_qt_json.html#ace7d6102379674932334bea04fb15c12" target="_top" xlink:title="QtJson::serialize">
<polygon fill="white" stroke="black" points="795.5,-99.5 795.5,-118.5 884.5,-118.5 884.5,-99.5 795.5,-99.5"/>
<text text-anchor="middle" x="840" y="-106.5" font-family="Helvetica,sans-Serif" font-size="10.00">QtJson::serialize</text>
</a>
</g>
</g>
<!-- Node7&#45;&gt;Node10 -->
<g id="edge9" class="edge"><title>Node7&#45;&gt;Node10</title>
<path fill="none" stroke="midnightblue" d="M720.04,-133.174C741.57,-128.799 765.05,-124.027 785.418,-119.888"/>
<polygon fill="midnightblue" stroke="midnightblue" points="786.348,-123.271 795.451,-117.85 784.954,-116.411 786.348,-123.271"/>
</g>
<!-- Node12 -->
<g id="node12" class="node"><title>Node12</title>
<g id="a_node12"><a xlink:href="../../da/d64/class_k4_u_1_1cls_log.html#a81f179b2ccb3e2abeb9b47f5b83de935" target="_top" xlink:title="K4U::clsLog::doEndl">
<polygon fill="white" stroke="black" points="787,-52.5 787,-71.5 893,-71.5 893,-52.5 787,-52.5"/>
<text text-anchor="middle" x="840" y="-59.5" font-family="Helvetica,sans-Serif" font-size="10.00">K4U::clsLog::doEndl</text>
</a>
</g>
</g>
<!-- Node11&#45;&gt;Node12 -->
<g id="edge11" class="edge"><title>Node11&#45;&gt;Node12</title>
<path fill="none" stroke="midnightblue" d="M680.809,-56.964C706.232,-55.3112 744.17,-54.8537 776.52,-55.5916"/>
<polygon fill="midnightblue" stroke="midnightblue" points="776.712,-59.0981 786.804,-55.8732 776.904,-52.1007 776.712,-59.0981"/>
</g>
<!-- Node12&#45;&gt;Node11 -->
<g id="edge12" class="edge"><title>Node12&#45;&gt;Node11</title>
<path fill="none" stroke="midnightblue" d="M786.804,-68.1268C756.411,-69.1062 718.73,-68.9312 690.94,-67.602"/>
<polygon fill="midnightblue" stroke="midnightblue" points="690.989,-64.0994 680.809,-67.036 690.598,-71.0885 690.989,-64.0994"/>
</g>
<!-- Node15&#45;&gt;Node11 -->
<g id="edge16" class="edge"><title>Node15&#45;&gt;Node11</title>
<path fill="none" stroke="midnightblue" d="M319.635,-59.35C393.13,-59.9395 540.465,-61.1214 610.837,-61.6859"/>
<polygon fill="midnightblue" stroke="midnightblue" points="611.017,-65.1873 621.045,-61.7677 611.074,-58.1875 611.017,-65.1873"/>
</g>
<!-- Node16 -->
<g id="node16" class="node"><title>Node16</title>
<g id="a_node16"><a xlink:href="../../d1/d10/classserver_1_1irc_client.html#a9f9877406894f9b49bce12d8ad094bd7" target="_top" xlink:title="server::ircClient::\lconnectTimeout">
<polygon fill="white" stroke="black" points="423.5,-0 423.5,-30 512.5,-30 512.5,-0 423.5,-0"/>
<text text-anchor="start" x="431.5" y="-18" font-family="Helvetica,sans-Serif" font-size="10.00">server::ircClient::</text>
<text text-anchor="middle" x="468" y="-7" font-family="Helvetica,sans-Serif" font-size="10.00">connectTimeout</text>
</a>
</g>
</g>
<!-- Node15&#45;&gt;Node16 -->
<g id="edge17" class="edge"><title>Node15&#45;&gt;Node16</title>
<path fill="none" stroke="midnightblue" d="M319.819,-48.9055C347.723,-42.4774 384.051,-34.1086 413.633,-27.294"/>
<polygon fill="midnightblue" stroke="midnightblue" points="414.426,-30.7031 423.385,-25.0475 412.854,-23.8818 414.426,-30.7031"/>
</g>
<!-- Node17 -->
<g id="node17" class="node"><title>Node17</title>
<g id="a_node17"><a xlink:href="../../d1/d10/classserver_1_1irc_client.html#a6e73d106182456e97f48db009a29642d" target="_top" xlink:title="Emitted when a connection cannot be made after MAX_CONNECT_TIMEOUT_IN_MS.">
<polygon fill="white" stroke="black" points="598.5,-0 598.5,-30 703.5,-30 703.5,-0 598.5,-0"/>
<text text-anchor="start" x="606.5" y="-18" font-family="Helvetica,sans-Serif" font-size="10.00">server::ircClient::</text>
<text text-anchor="middle" x="651" y="-7" font-family="Helvetica,sans-Serif" font-size="10.00">IRCConnectTimeOut</text>
</a>
</g>
</g>
<!-- Node16&#45;&gt;Node17 -->
<g id="edge18" class="edge"><title>Node16&#45;&gt;Node17</title>
<path fill="none" stroke="midnightblue" d="M512.815,-15C535.436,-15 563.415,-15 588.194,-15"/>
<polygon fill="midnightblue" stroke="midnightblue" points="588.231,-18.5001 598.231,-15 588.231,-11.5001 588.231,-18.5001"/>
</g>
</g>
</svg>
        <g id="navigator" transform="translate(0 0)" fill="#404254">
                <rect fill="#f2f5e9" fill-opacity="0.5" stroke="#606060" stroke-width=".5" x="0" y="0" width="60" height="60"/>
                <use id="zoomplus" xlink:href="#zoomPlus" x="17" y="9" onmousedown="handleZoom(evt,'in')"/>
                <use id="zoomminus" xlink:href="#zoomMin" x="42" y="9" onmousedown="handleZoom(evt,'out')"/>
                <use id="reset" xlink:href="#resetDef" x="30" y="36" onmousedown="handleReset()"/>
                <g id="arrowUp" xlink:href="#dirArrow" transform="translate(30 24)" onmousedown="handlePan(0,-1)">
                  <use xlink:href="#rim" fill="#404040">
                        <set attributeName="fill" to="#808080" begin="arrowUp.mouseover" end="arrowUp.mouseout"/>
                  </use>
                  <path fill="none" stroke="white" stroke-width="1.5" d="M0,-3.0v7 M-2.5,-0.5L0,-3.0L2.5,-0.5"/>
                </g>
                <g id="arrowRight" xlink:href="#dirArrow" transform="rotate(90) translate(36 -43)" onmousedown="handlePan(1,0)">
                  <use xlink:href="#rim" fill="#404040">
                        <set attributeName="fill" to="#808080" begin="arrowRight.mouseover" end="arrowRight.mouseout"/>
                  </use>
                  <path fill="none" stroke="white" stroke-width="1.5" d="M0,-3.0v7 M-2.5,-0.5L0,-3.0L2.5,-0.5"/>
                </g>
                <g id="arrowDown" xlink:href="#dirArrow" transform="rotate(180) translate(-30 -48)" onmousedown="handlePan(0,1)">
                  <use xlink:href="#rim" fill="#404040">
                        <set attributeName="fill" to="#808080" begin="arrowDown.mouseover" end="arrowDown.mouseout"/>
                  </use>
                  <path fill="none" stroke="white" stroke-width="1.5" d="M0,-3.0v7 M-2.5,-0.5L0,-3.0L2.5,-0.5"/>
                </g>
                <g id="arrowLeft" xlink:href="#dirArrow" transform="rotate(270) translate(-36 17)" onmousedown="handlePan(-1,0)">
                  <use xlink:href="#rim" fill="#404040">
                        <set attributeName="fill" to="#808080" begin="arrowLeft.mouseover" end="arrowLeft.mouseout"/>
                  </use>
                  <path fill="none" stroke="white" stroke-width="1.5" d="M0,-3.0v7 M-2.5,-0.5L0,-3.0L2.5,-0.5"/>
                </g>
        </g>
        <svg viewBox="0 0 15 15" width="100%" height="30px" preserveAspectRatio="xMaxYMin meet">
         <g id="arrow_out" transform="scale(0.3 0.3)">
          <a xlink:href="classserver_1_1main_app_aa9d4c2e1dc5216901c4f8743838d4561_cgraph_org.svg" target="_base">
           <rect id="button" ry="5" rx="5" y="6" x="6" height="38" width="38"
                fill="#f2f5e9" fill-opacity="0.5" stroke="#606060" stroke-width="1.0"/>
           <path id="arrow"
             d="M 11.500037,31.436501 C 11.940474,20.09759 22.043105,11.32322 32.158766,21.979434 L 37.068811,17.246167 C 37.068811,17.246167 37.088388,32 37.088388,32 L 22.160133,31.978069 C 22.160133,31.978069 26.997745,27.140456 26.997745,27.140456 C 18.528582,18.264221 13.291696,25.230495 11.500037,31.436501 z"
             style="fill:#404040;"/>
          </a>
         </g>
        </svg>
</svg>
