<?xml version="1.0" encoding="UTF-8" standalone="no"?>
<!DOCTYPE svg PUBLIC "-//W3C//DTD SVG 1.1//EN"
 "http://www.w3.org/Graphics/SVG/1.1/DTD/svg11.dtd">
<!-- Generated by graphviz version 2.30.1 (20130303.0817)
 -->
<!-- Title: server::mainApp::serverMessage Pages: 1 -->
<svg width="776pt" height="152pt"
 viewBox="0.00 0.00 776.00 151.78" xmlns="http://www.w3.org/2000/svg" xmlns:xlink="http://www.w3.org/1999/xlink">
<g id="graph0" class="graph" transform="scale(1 1) rotate(0) translate(4 147.777)">
<title>server::mainApp::serverMessage</title>
<polygon fill="white" stroke="white" points="-4,5 -4,-147.777 773,-147.777 773,5 -4,5"/>
<!-- Node1 -->
<g id="node1" class="node"><title>Node1</title>
<polygon fill="#bfbfbf" stroke="black" points="0,-58.6603 0,-77.6603 158,-77.6603 158,-58.6603 0,-58.6603"/>
<text text-anchor="middle" x="79" y="-65.6603" font-family="Helvetica,sans-Serif" font-size="10.00">server::mainApp::serverMessage</text>
</g>
<!-- Node2 -->
<g id="node2" class="node"><title>Node2</title>
<g id="a_node2"><a xlink:href="../../d1/d48/classserver_1_1main_app.html#af331bc3bf60e745f3ddc95ab3abe5188" target="_top" xlink:title="server::mainApp::run">
<polygon fill="white" stroke="black" points="588,-74.6603 588,-93.6603 694,-93.6603 694,-74.6603 588,-74.6603"/>
<text text-anchor="middle" x="641" y="-81.6603" font-family="Helvetica,sans-Serif" font-size="10.00">server::mainApp::run</text>
</a>
</g>
</g>
<!-- Node1&#45;&gt;Node2 -->
<g id="edge1" class="edge"><title>Node1&#45;&gt;Node2</title>
<path fill="none" stroke="midnightblue" d="M102.579,-83.426C124.748,-97.4233 160.081,-117.153 194,-125.16 349.009,-161.753 395.267,-137.473 552,-109.16 572.318,-105.49 594.694,-99.1005 611.797,-93.7"/>
<polygon fill="midnightblue" stroke="midnightblue" points="104.224,-80.3217 93.927,-77.829 100.422,-86.1992 104.224,-80.3217"/>
</g>
<!-- Node4 -->
<g id="node4" class="node"><title>Node4</title>
<g id="a_node4"><a xlink:href="../../d1/d48/classserver_1_1main_app.html#a931aedd34bb38252acfc8880f9716fab" target="_top" xlink:title="Triggered when the IRC client cannot connect.">
<polygon fill="white" stroke="black" points="401.5,-47.1603 401.5,-77.1603 540.5,-77.1603 540.5,-47.1603 401.5,-47.1603"/>
<text text-anchor="start" x="409.5" y="-65.1603" font-family="Helvetica,sans-Serif" font-size="10.00">server::mainApp::ircConnect</text>
<text text-anchor="middle" x="471" y="-54.1603" font-family="Helvetica,sans-Serif" font-size="10.00">TimeOut</text>
</a>
</g>
</g>
<!-- Node1&#45;&gt;Node4 -->
<g id="edge3" class="edge"><title>Node1&#45;&gt;Node4</title>
<path fill="none" stroke="midnightblue" d="M168.671,-66.7961C239.294,-65.7096 336.719,-64.2108 401.453,-63.2149"/>
<polygon fill="midnightblue" stroke="midnightblue" points="168.398,-63.2998 158.453,-66.9533 168.506,-70.299 168.398,-63.2998"/>
</g>
<!-- Node5 -->
<g id="node5" class="node"><title>Node5</title>
<g id="a_node5"><a xlink:href="../../d1/d48/classserver_1_1main_app.html#a6e6e952e3048cfeefcdfeea7bbb5b83e" target="_top" xlink:title="Triggered when the IRC client has connected.">
<polygon fill="white" stroke="black" points="199.5,-96.6603 199.5,-115.66 348.5,-115.66 348.5,-96.6603 199.5,-96.6603"/>
<text text-anchor="middle" x="274" y="-103.66" font-family="Helvetica,sans-Serif" font-size="10.00">server::mainApp::ircConnected</text>
</a>
</g>
</g>
<!-- Node1&#45;&gt;Node5 -->
<g id="edge5" class="edge"><title>Node1&#45;&gt;Node5</title>
<path fill="none" stroke="midnightblue" d="M138.602,-79.6984C166.129,-85.1183 198.548,-91.5013 224.648,-96.6403"/>
<polygon fill="midnightblue" stroke="midnightblue" points="139.19,-76.2471 128.702,-77.7493 137.838,-83.1153 139.19,-76.2471"/>
</g>
<!-- Node6 -->
<g id="node6" class="node"><title>Node6</title>
<g id="a_node6"><a xlink:href="../../d1/d48/classserver_1_1main_app.html#af6e8c9d1f06514b33e5f88f9e66884be" target="_top" xlink:title="Triggered when the IRC client has disconnected.">
<polygon fill="white" stroke="black" points="390,-8.66031 390,-27.6603 552,-27.6603 552,-8.66031 390,-8.66031"/>
<text text-anchor="middle" x="471" y="-15.6603" font-family="Helvetica,sans-Serif" font-size="10.00">server::mainApp::ircDisconnected</text>
</a>
</g>
</g>
<!-- Node1&#45;&gt;Node6 -->
<g id="edge7" class="edge"><title>Node1&#45;&gt;Node6</title>
<path fill="none" stroke="midnightblue" d="M102.579,-52.8947C124.748,-38.8973 160.081,-19.1675 194,-11.1603 269.106,6.56987 358.907,-0.769851 415.214,-8.65894"/>
<polygon fill="midnightblue" stroke="midnightblue" points="100.422,-50.1214 93.927,-58.4917 104.224,-55.9989 100.422,-50.1214"/>
</g>
<!-- Node7 -->
<g id="node7" class="node"><title>Node7</title>
<g id="a_node7"><a xlink:href="../../d1/d48/classserver_1_1main_app.html#aa9d4c2e1dc5216901c4f8743838d4561" target="_top" xlink:title="Emitted when the reconnect timer reaches 0.">
<polygon fill="white" stroke="black" points="194,-20.6603 194,-39.6603 354,-39.6603 354,-20.6603 194,-20.6603"/>
<text text-anchor="middle" x="274" y="-27.6603" font-family="Helvetica,sans-Serif" font-size="10.00">server::mainApp::doIrcReconnect</text>
</a>
</g>
</g>
<!-- Node1&#45;&gt;Node7 -->
<g id="edge9" class="edge"><title>Node1&#45;&gt;Node7</title>
<path fill="none" stroke="midnightblue" d="M138.602,-56.6222C166.129,-51.2023 198.548,-44.8193 224.648,-39.6804"/>
<polygon fill="midnightblue" stroke="midnightblue" points="137.838,-53.2053 128.702,-58.5713 139.19,-60.0735 137.838,-53.2053"/>
</g>
<!-- Node3 -->
<g id="node3" class="node"><title>Node3</title>
<g id="a_node3"><a xlink:href="../../dc/d17/custom_irc_server_2main_8cpp.html#a0ddf1224851353fc92bfbff6f499fa97" target="_top" xlink:title="main">
<polygon fill="white" stroke="black" points="730,-74.6603 730,-93.6603 768,-93.6603 768,-74.6603 730,-74.6603"/>
<text text-anchor="middle" x="749" y="-81.6603" font-family="Helvetica,sans-Serif" font-size="10.00">main</text>
</a>
</g>
</g>
<!-- Node2&#45;&gt;Node3 -->
<g id="edge2" class="edge"><title>Node2&#45;&gt;Node3</title>
<path fill="none" stroke="midnightblue" d="M704.208,-84.1603C713.464,-84.1603 722.334,-84.1603 729.64,-84.1603"/>
<polygon fill="midnightblue" stroke="midnightblue" points="704.068,-80.6604 694.068,-84.1603 704.068,-87.6604 704.068,-80.6604"/>
</g>
<!-- Node4&#45;&gt;Node2 -->
<g id="edge4" class="edge"><title>Node4&#45;&gt;Node2</title>
<path fill="none" stroke="midnightblue" d="M550.813,-72.4811C563.346,-74.1222 576.033,-75.7837 587.753,-77.3184"/>
<polygon fill="midnightblue" stroke="midnightblue" points="551.187,-69.0002 540.817,-71.172 550.278,-75.9409 551.187,-69.0002"/>
</g>
<!-- Node5&#45;&gt;Node2 -->
<g id="edge6" class="edge"><title>Node5&#45;&gt;Node2</title>
<path fill="none" stroke="midnightblue" d="M359.057,-101.094C429.575,-96.8435 528.079,-90.9063 587.762,-87.3089"/>
<polygon fill="midnightblue" stroke="midnightblue" points="358.634,-97.6129 348.863,-101.708 359.056,-104.6 358.634,-97.6129"/>
</g>
<!-- Node6&#45;&gt;Node2 -->
<g id="edge8" class="edge"><title>Node6&#45;&gt;Node2</title>
<path fill="none" stroke="midnightblue" d="M528.094,-30.3852C536.211,-32.6716 544.389,-35.2667 552,-38.1603 578.427,-48.2077 607.109,-64.2603 624.312,-74.5005"/>
<polygon fill="midnightblue" stroke="midnightblue" points="528.831,-26.9591 518.265,-27.7502 527.018,-33.7204 528.831,-26.9591"/>
</g>
<!-- Node7&#45;&gt;Node4 -->
<g id="edge10" class="edge"><title>Node7&#45;&gt;Node4</title>
<path fill="none" stroke="midnightblue" d="M342.974,-41.315C361.839,-44.4108 382.333,-47.7739 401.243,-50.8771"/>
<polygon fill="midnightblue" stroke="midnightblue" points="343.413,-37.8404 332.978,-39.6747 342.28,-44.748 343.413,-37.8404"/>
</g>
<!-- Node7&#45;&gt;Node6 -->
<g id="edge11" class="edge"><title>Node7&#45;&gt;Node6</title>
<path fill="none" stroke="midnightblue" d="M364.083,-24.6783C372.692,-24.1485 381.389,-23.6133 389.903,-23.0893"/>
<polygon fill="midnightblue" stroke="midnightblue" points="363.799,-21.189 354.033,-25.2967 364.229,-28.1758 363.799,-21.189"/>
</g>
</g>
</svg>
