<?xml version="1.0" encoding="UTF-8" standalone="no"?>
<!DOCTYPE svg PUBLIC "-//W3C//DTD SVG 1.1//EN"
 "http://www.w3.org/Graphics/SVG/1.1/DTD/svg11.dtd">
<!-- Generated by graphviz version 2.30.1 (20130303.0817)
 -->
<!-- Title: server::mainApp::uiSendChat Pages: 1 -->
<!--zoomable 115 -->
<svg id="main" version="1.1" xmlns="http://www.w3.org/2000/svg" xmlns:xlink="http://www.w3.org/1999/xlink" xml:space="preserve" onload="init(evt)">
        <defs>
                <circle id="rim" cx="0" cy="0" r="7"/>
                <circle id="rim2" cx="0" cy="0" r="3.5"/>
                <g id="zoomPlus">
                        <use xlink:href="#rim" fill="#404040">
                                <set attributeName="fill" to="#808080" begin="zoomplus.mouseover" end="zoomplus.mouseout"/>
                        </use>
                        <path d="M-4,0h8M0,-4v8" fill="none" stroke="white" stroke-width="1.5" pointer-events="none"/>
                </g>
                <g id="zoomMin">
                        <use xlink:href="#rim" fill="#404040">
                                <set attributeName="fill" to="#808080" begin="zoomminus.mouseover" end="zoomminus.mouseout"/>
                        </use>
                        <path d="M-4,0h8" fill="none" stroke="white" stroke-width="1.5" pointer-events="none"/>
                </g>
                <g id="dirArrow">
                        <path fill="none" stroke="white" stroke-width="1.5" d="M0,-3.0v7 M-2.5,-0.5L0,-3.0L2.5,-0.5"/>
                </g>
               <g id="resetDef">
                       <use xlink:href="#rim2" fill="#404040">
                               <set attributeName="fill" to="#808080" begin="reset.mouseover" end="reset.mouseout"/>
                       </use>
               </g>
        </defs>

<script type="text/javascript">
var viewWidth = 664;
var viewHeight = 115;
var sectionId = 'dynsection-7';
</script>
<script xlink:href="../../svgpan.js"/>
<svg id="graph" class="graph">
<g id="viewport">
<title>server::mainApp::uiSendChat</title>
<polygon fill="white" stroke="white" points="-4,5 -4,-111 661,-111 661,5 -4,5"/>
<!-- Node1 -->
<g id="node1" class="node"><title>Node1</title>
<polygon fill="#bfbfbf" stroke="black" points="0.5,-49.5 0.5,-68.5 143.5,-68.5 143.5,-49.5 0.5,-49.5"/>
<text text-anchor="middle" x="72" y="-56.5" font-family="Helvetica,sans-Serif" font-size="10.00">server::mainApp::uiSendChat</text>
</g>
<!-- Node2 -->
<g id="node2" class="node"><title>Node2</title>
<g id="a_node2"><a xlink:href="../../d1/d10/classserver_1_1irc_client.xhtml#a6b62de4b4dc3c1f7f0fe7c6f91c1cf05" target="_top" xlink:title="Sends a chat message to a certain channel.">
<polygon fill="white" stroke="black" points="180.5,-44 180.5,-74 269.5,-74 269.5,-44 180.5,-44"/>
<text text-anchor="start" x="188.5" y="-62" font-family="Helvetica,sans-Serif" font-size="10.00">server::ircClient::</text>
<text text-anchor="middle" x="225" y="-51" font-family="Helvetica,sans-Serif" font-size="10.00">sendChat</text>
</a>
</g>
</g>
<!-- Node1&#45;&gt;Node2 -->
<g id="edge1" class="edge"><title>Node1&#45;&gt;Node2</title>
<path fill="none" stroke="midnightblue" d="M143.637,-59C152.477,-59 161.406,-59 169.938,-59"/>
<polygon fill="midnightblue" stroke="midnightblue" points="170.114,-62.5001 180.114,-59 170.114,-55.5001 170.114,-62.5001"/>
</g>
<!-- Node3 -->
<g id="node3" class="node"><title>Node3</title>
<g id="a_node3"><a xlink:href="../../d1/d10/classserver_1_1irc_client.xhtml#a2c1954be24f18aef7d8ec6a7a3e7f29c" target="_top" xlink:title="Sends a message to the IRC server.">
<polygon fill="white" stroke="black" points="306,-87.5 306,-106.5 416,-106.5 416,-87.5 306,-87.5"/>
<text text-anchor="middle" x="361" y="-94.5" font-family="Helvetica,sans-Serif" font-size="10.00">server::ircClient::send</text>
</a>
</g>
</g>
<!-- Node2&#45;&gt;Node3 -->
<g id="edge2" class="edge"><title>Node2&#45;&gt;Node3</title>
<path fill="none" stroke="midnightblue" d="M269.506,-71.3375C284.677,-75.6396 301.687,-80.4635 316.83,-84.7579"/>
<polygon fill="midnightblue" stroke="midnightblue" points="315.898,-88.1315 326.474,-87.4926 317.808,-81.397 315.898,-88.1315"/>
</g>
<!-- Node6 -->
<g id="node6" class="node"><title>Node6</title>
<g id="a_node6"><a xlink:href="../../d9/db1/namespaceserver.xhtml#a5975bac26af821c5aa25ca3b66ab35a9" target="_top" xlink:title="server::qts">
<polygon fill="white" stroke="black" points="452,-49.5 452,-68.5 514,-68.5 514,-49.5 452,-49.5"/>
<text text-anchor="middle" x="483" y="-56.5" font-family="Helvetica,sans-Serif" font-size="10.00">server::qts</text>
</a>
</g>
</g>
<!-- Node2&#45;&gt;Node6 -->
<g id="edge7" class="edge"><title>Node2&#45;&gt;Node6</title>
<path fill="none" stroke="midnightblue" d="M269.717,-59C317.911,-59 394.8,-59 441.619,-59"/>
<polygon fill="midnightblue" stroke="midnightblue" points="441.7,-62.5001 451.7,-59 441.7,-55.5001 441.7,-62.5001"/>
</g>
<!-- Node7 -->
<g id="node7" class="node"><title>Node7</title>
<g id="a_node7"><a xlink:href="../../d1/d10/classserver_1_1irc_client.xhtml#aa59470840fe4135454af200bf5259874" target="_top" xlink:title="Emitted when a chatmessage has been received.">
<polygon fill="white" stroke="black" points="316.5,-0 316.5,-30 405.5,-30 405.5,-0 316.5,-0"/>
<text text-anchor="start" x="324.5" y="-18" font-family="Helvetica,sans-Serif" font-size="10.00">server::ircClient::</text>
<text text-anchor="middle" x="361" y="-7" font-family="Helvetica,sans-Serif" font-size="10.00">chatReceived</text>
</a>
</g>
</g>
<!-- Node2&#45;&gt;Node7 -->
<g id="edge8" class="edge"><title>Node2&#45;&gt;Node7</title>
<path fill="none" stroke="midnightblue" d="M269.506,-44.7145C281.325,-40.8336 294.26,-36.5861 306.56,-32.5475"/>
<polygon fill="midnightblue" stroke="midnightblue" points="307.845,-35.8095 316.254,-29.3644 305.661,-29.1589 307.845,-35.8095"/>
</g>
<!-- Node4 -->
<g id="node4" class="node"><title>Node4</title>
<g id="a_node4"><a xlink:href="../../d6/d75/namespace_k4_u.xhtml#aaddaee50fab2801df390147891b0c09d" target="_top" xlink:title="K4U::endl">
<polygon fill="white" stroke="black" points="453.5,-87.5 453.5,-106.5 512.5,-106.5 512.5,-87.5 453.5,-87.5"/>
<text text-anchor="middle" x="483" y="-94.5" font-family="Helvetica,sans-Serif" font-size="10.00">K4U::endl</text>
</a>
</g>
</g>
<!-- Node3&#45;&gt;Node4 -->
<g id="edge3" class="edge"><title>Node3&#45;&gt;Node4</title>
<path fill="none" stroke="midnightblue" d="M416.032,-97C425.143,-97 434.439,-97 443.069,-97"/>
<polygon fill="midnightblue" stroke="midnightblue" points="443.208,-100.5 453.208,-97 443.208,-93.5001 443.208,-100.5"/>
</g>
<!-- Node3&#45;&gt;Node6 -->
<g id="edge6" class="edge"><title>Node3&#45;&gt;Node6</title>
<path fill="none" stroke="midnightblue" d="M392.281,-87.411C407.346,-82.6406 425.754,-76.8112 441.967,-71.6771"/>
<polygon fill="midnightblue" stroke="midnightblue" points="443.252,-74.9416 451.729,-68.5859 441.139,-68.2682 443.252,-74.9416"/>
</g>
<!-- Node5 -->
<g id="node5" class="node"><title>Node5</title>
<g id="a_node5"><a xlink:href="../../da/d64/class_k4_u_1_1cls_log.xhtml#a81f179b2ccb3e2abeb9b47f5b83de935" target="_top" xlink:title="K4U::clsLog::doEndl">
<polygon fill="white" stroke="black" points="550,-87.5 550,-106.5 656,-106.5 656,-87.5 550,-87.5"/>
<text text-anchor="middle" x="603" y="-94.5" font-family="Helvetica,sans-Serif" font-size="10.00">K4U::clsLog::doEndl</text>
</a>
</g>
</g>
<!-- Node4&#45;&gt;Node5 -->
<g id="edge4" class="edge"><title>Node4&#45;&gt;Node5</title>
<path fill="none" stroke="midnightblue" d="M512.565,-91.1218C520.779,-90.6046 530.078,-90.3176 539.496,-90.2606"/>
<polygon fill="midnightblue" stroke="midnightblue" points="539.708,-93.7611 549.717,-90.289 539.727,-86.7611 539.708,-93.7611"/>
</g>
<!-- Node5&#45;&gt;Node4 -->
<g id="edge5" class="edge"><title>Node5&#45;&gt;Node4</title>
<path fill="none" stroke="midnightblue" d="M549.717,-103.711C540.638,-103.817 531.344,-103.707 522.71,-103.382"/>
<polygon fill="midnightblue" stroke="midnightblue" points="522.726,-99.8785 512.565,-102.878 522.379,-106.87 522.726,-99.8785"/>
</g>
</g>
</svg>
        <g id="navigator" transform="translate(0 0)" fill="#404254">
                <rect fill="#f2f5e9" fill-opacity="0.5" stroke="#606060" stroke-width=".5" x="0" y="0" width="60" height="60"/>
                <use id="zoomplus" xlink:href="#zoomPlus" x="17" y="9" onmousedown="handleZoom(evt,'in')"/>
                <use id="zoomminus" xlink:href="#zoomMin" x="42" y="9" onmousedown="handleZoom(evt,'out')"/>
                <use id="reset" xlink:href="#resetDef" x="30" y="36" onmousedown="handleReset()"/>
                <g id="arrowUp" xlink:href="#dirArrow" transform="translate(30 24)" onmousedown="handlePan(0,-1)">
                  <use xlink:href="#rim" fill="#404040">
                        <set attributeName="fill" to="#808080" begin="arrowUp.mouseover" end="arrowUp.mouseout"/>
                  </use>
                  <path fill="none" stroke="white" stroke-width="1.5" d="M0,-3.0v7 M-2.5,-0.5L0,-3.0L2.5,-0.5"/>
                </g>
                <g id="arrowRight" xlink:href="#dirArrow" transform="rotate(90) translate(36 -43)" onmousedown="handlePan(1,0)">
                  <use xlink:href="#rim" fill="#404040">
                        <set attributeName="fill" to="#808080" begin="arrowRight.mouseover" end="arrowRight.mouseout"/>
                  </use>
                  <path fill="none" stroke="white" stroke-width="1.5" d="M0,-3.0v7 M-2.5,-0.5L0,-3.0L2.5,-0.5"/>
                </g>
                <g id="arrowDown" xlink:href="#dirArrow" transform="rotate(180) translate(-30 -48)" onmousedown="handlePan(0,1)">
                  <use xlink:href="#rim" fill="#404040">
                        <set attributeName="fill" to="#808080" begin="arrowDown.mouseover" end="arrowDown.mouseout"/>
                  </use>
                  <path fill="none" stroke="white" stroke-width="1.5" d="M0,-3.0v7 M-2.5,-0.5L0,-3.0L2.5,-0.5"/>
                </g>
                <g id="arrowLeft" xlink:href="#dirArrow" transform="rotate(270) translate(-36 17)" onmousedown="handlePan(-1,0)">
                  <use xlink:href="#rim" fill="#404040">
                        <set attributeName="fill" to="#808080" begin="arrowLeft.mouseover" end="arrowLeft.mouseout"/>
                  </use>
                  <path fill="none" stroke="white" stroke-width="1.5" d="M0,-3.0v7 M-2.5,-0.5L0,-3.0L2.5,-0.5"/>
                </g>
        </g>
        <svg viewBox="0 0 15 15" width="100%" height="30px" preserveAspectRatio="xMaxYMin meet">
         <g id="arrow_out" transform="scale(0.3 0.3)">
          <a xlink:href="classserver_1_1main_app_a022d0310199da514b250fec2541ada4a_cgraph_org.svg" target="_base">
           <rect id="button" ry="5" rx="5" y="6" x="6" height="38" width="38"
                fill="#f2f5e9" fill-opacity="0.5" stroke="#606060" stroke-width="1.0"/>
           <path id="arrow"
             d="M 11.500037,31.436501 C 11.940474,20.09759 22.043105,11.32322 32.158766,21.979434 L 37.068811,17.246167 C 37.068811,17.246167 37.088388,32 37.088388,32 L 22.160133,31.978069 C 22.160133,31.978069 26.997745,27.140456 26.997745,27.140456 C 18.528582,18.264221 13.291696,25.230495 11.500037,31.436501 z"
             style="fill:#404040;"/>
          </a>
         </g>
        </svg>
</svg>
