<?xml version="1.0" encoding="UTF-8" standalone="no"?>
<!DOCTYPE svg PUBLIC "-//W3C//DTD SVG 1.1//EN"
 "http://www.w3.org/Graphics/SVG/1.1/DTD/svg11.dtd">
<!-- Generated by graphviz version 2.30.1 (20130303.0817)
 -->
<!-- Title: server::mainApp::addToEventHistory Pages: 1 -->
<!--zoomable 360 -->
<svg id="main" version="1.1" xmlns="http://www.w3.org/2000/svg" xmlns:xlink="http://www.w3.org/1999/xlink" xml:space="preserve" onload="init(evt)">
        <defs>
                <circle id="rim" cx="0" cy="0" r="7"/>
                <circle id="rim2" cx="0" cy="0" r="3.5"/>
                <g id="zoomPlus">
                        <use xlink:href="#rim" fill="#404040">
                                <set attributeName="fill" to="#808080" begin="zoomplus.mouseover" end="zoomplus.mouseout"/>
                        </use>
                        <path d="M-4,0h8M0,-4v8" fill="none" stroke="white" stroke-width="1.5" pointer-events="none"/>
                </g>
                <g id="zoomMin">
                        <use xlink:href="#rim" fill="#404040">
                                <set attributeName="fill" to="#808080" begin="zoomminus.mouseover" end="zoomminus.mouseout"/>
                        </use>
                        <path d="M-4,0h8" fill="none" stroke="white" stroke-width="1.5" pointer-events="none"/>
                </g>
                <g id="dirArrow">
                        <path fill="none" stroke="white" stroke-width="1.5" d="M0,-3.0v7 M-2.5,-0.5L0,-3.0L2.5,-0.5"/>
                </g>
               <g id="resetDef">
                       <use xlink:href="#rim2" fill="#404040">
                               <set attributeName="fill" to="#808080" begin="reset.mouseover" end="reset.mouseout"/>
                       </use>
               </g>
        </defs>

<script type="text/javascript">
var viewWidth = 960;
var viewHeight = 360;
var sectionId = 'dynsection-2';
</script>
<script xlink:href="../../svgpan.js"/>
<svg id="graph" class="graph">
<g id="viewport">
<title>server::mainApp::addToEventHistory</title>
<polygon fill="white" stroke="white" points="-4,5 -4,-356.06 957,-356.06 957,5 -4,5"/>
<!-- Node1 -->
<g id="node1" class="node"><title>Node1</title>
<polygon fill="#bfbfbf" stroke="black" points="0,-227.199 0,-257.199 142,-257.199 142,-227.199 0,-227.199"/>
<text text-anchor="start" x="8" y="-245.199" font-family="Helvetica,sans-Serif" font-size="10.00">server::mainApp::addToEvent</text>
<text text-anchor="middle" x="71" y="-234.199" font-family="Helvetica,sans-Serif" font-size="10.00">History</text>
</g>
<!-- Node2 -->
<g id="node2" class="node"><title>Node2</title>
<g id="a_node2"><a xlink:href="../../d1/d48/classserver_1_1main_app.html#a0970ee01d48b04ebc1390ffb8edecfc0" target="_top" xlink:title="Triggered when a chat has been received.">
<polygon fill="white" stroke="black" points="383,-327.699 383,-346.699 533,-346.699 533,-327.699 383,-327.699"/>
<text text-anchor="middle" x="458" y="-334.699" font-family="Helvetica,sans-Serif" font-size="10.00">server::mainApp::chatReceived</text>
</a>
</g>
</g>
<!-- Node1&#45;&gt;Node2 -->
<g id="edge1" class="edge"><title>Node1&#45;&gt;Node2</title>
<path fill="none" stroke="midnightblue" d="M96.3081,-263.758C116.62,-280.399 147.145,-302.354 178,-313.199 244.62,-336.614 325.459,-341.185 382.934,-340.757"/>
<polygon fill="midnightblue" stroke="midnightblue" points="98.4311,-260.971 88.5202,-257.226 93.9324,-266.334 98.4311,-260.971"/>
</g>
<!-- Node5 -->
<g id="node5" class="node"><title>Node5</title>
<g id="a_node5"><a xlink:href="../../d1/d48/classserver_1_1main_app.html#a92448c1219ad89999c983b04adaa4236" target="_top" xlink:title="Triggered when a user joins trough a JOIN message.">
<polygon fill="white" stroke="black" points="585.5,-289.699 585.5,-308.699 724.5,-308.699 724.5,-289.699 585.5,-289.699"/>
<text text-anchor="middle" x="655" y="-296.699" font-family="Helvetica,sans-Serif" font-size="10.00">server::mainApp::userOnline</text>
</a>
</g>
</g>
<!-- Node1&#45;&gt;Node5 -->
<g id="edge4" class="edge"><title>Node1&#45;&gt;Node5</title>
<path fill="none" stroke="midnightblue" d="M140.651,-259.346C153.022,-261.977 165.848,-264.409 178,-266.199 322.032,-287.418 492.647,-295.056 585.461,-297.759"/>
<polygon fill="midnightblue" stroke="midnightblue" points="141.365,-255.919 130.848,-257.201 139.869,-262.758 141.365,-255.919"/>
</g>
<!-- Node6 -->
<g id="node6" class="node"><title>Node6</title>
<g id="a_node6"><a xlink:href="../../d1/d48/classserver_1_1main_app.html#aae86b15c001a235de78a90334e697b5f" target="_top" xlink:title="Triggered when a user leaves trough a PART message.">
<polygon fill="white" stroke="black" points="389,-251.699 389,-270.699 527,-270.699 527,-251.699 389,-251.699"/>
<text text-anchor="middle" x="458" y="-258.699" font-family="Helvetica,sans-Serif" font-size="10.00">server::mainApp::userOffline</text>
</a>
</g>
</g>
<!-- Node1&#45;&gt;Node6 -->
<g id="edge6" class="edge"><title>Node1&#45;&gt;Node6</title>
<path fill="none" stroke="midnightblue" d="M152.27,-246.16C222.297,-249.616 322.771,-254.574 388.931,-257.84"/>
<polygon fill="midnightblue" stroke="midnightblue" points="152.328,-242.659 142.167,-245.662 151.983,-249.65 152.328,-242.659"/>
</g>
<!-- Node7 -->
<g id="node7" class="node"><title>Node7</title>
<g id="a_node7"><a xlink:href="../../d1/d48/classserver_1_1main_app.html#ae15deb9260c486854af7fac7b063fdf5" target="_top" xlink:title="Triggered when a user changes his nickname (nick|Status)">
<polygon fill="white" stroke="black" points="178,-213.699 178,-232.699 342,-232.699 342,-213.699 178,-213.699"/>
<text text-anchor="middle" x="260" y="-220.699" font-family="Helvetica,sans-Serif" font-size="10.00">server::mainApp::userChangeNick</text>
</a>
</g>
</g>
<!-- Node1&#45;&gt;Node7 -->
<g id="edge8" class="edge"><title>Node1&#45;&gt;Node7</title>
<path fill="none" stroke="midnightblue" d="M152.339,-234.036C160.756,-233.181 169.317,-232.311 177.744,-231.455"/>
<polygon fill="midnightblue" stroke="midnightblue" points="151.759,-230.577 142.164,-235.07 152.467,-237.541 151.759,-230.577"/>
</g>
<!-- Node8 -->
<g id="node8" class="node"><title>Node8</title>
<g id="a_node8"><a xlink:href="../../d1/d48/classserver_1_1main_app.html#aaa3dd74b510e2d797f21293a622a4f7d" target="_top" xlink:title="Triggered when a user changes his status (nick|Status)">
<polygon fill="white" stroke="black" points="188,-164.199 188,-194.199 332,-194.199 332,-164.199 188,-164.199"/>
<text text-anchor="start" x="196" y="-182.199" font-family="Helvetica,sans-Serif" font-size="10.00">server::mainApp::userChange</text>
<text text-anchor="middle" x="260" y="-171.199" font-family="Helvetica,sans-Serif" font-size="10.00">Status</text>
</a>
</g>
</g>
<!-- Node1&#45;&gt;Node8 -->
<g id="edge10" class="edge"><title>Node1&#45;&gt;Node8</title>
<path fill="none" stroke="midnightblue" d="M122.137,-223.705C139.741,-217.349 159.692,-210.302 178,-204.199 187.913,-200.894 198.558,-197.499 208.766,-194.319"/>
<polygon fill="midnightblue" stroke="midnightblue" points="120.832,-220.455 112.624,-227.154 123.218,-227.036 120.832,-220.455"/>
</g>
<!-- Node9 -->
<g id="node9" class="node"><title>Node9</title>
<g id="a_node9"><a xlink:href="../../d1/d48/classserver_1_1main_app.html#a7263ca5b3630b0a2774f556b96c333c8" target="_top" xlink:title="For logging to the clients.">
<polygon fill="white" stroke="black" points="181,-80.6988 181,-99.6988 339,-99.6988 339,-80.6988 181,-80.6988"/>
<text text-anchor="middle" x="260" y="-87.6988" font-family="Helvetica,sans-Serif" font-size="10.00">server::mainApp::serverMessage</text>
</a>
</g>
</g>
<!-- Node1&#45;&gt;Node9 -->
<g id="edge12" class="edge"><title>Node1&#45;&gt;Node9</title>
<path fill="none" stroke="midnightblue" d="M98.3193,-220.462C119.728,-202.814 150.747,-177.317 178,-155.199 202.36,-135.429 231.026,-112.505 246.89,-99.8483"/>
<polygon fill="midnightblue" stroke="midnightblue" points="95.8207,-217.986 90.3332,-227.049 100.275,-223.386 95.8207,-217.986"/>
</g>
<!-- Node3 -->
<g id="node3" class="node"><title>Node3</title>
<g id="a_node3"><a xlink:href="../../d1/d48/classserver_1_1main_app.html#af331bc3bf60e745f3ddc95ab3abe5188" target="_top" xlink:title="server::mainApp::run">
<polygon fill="white" stroke="black" points="772,-175.699 772,-194.699 878,-194.699 878,-175.699 772,-175.699"/>
<text text-anchor="middle" x="825" y="-182.699" font-family="Helvetica,sans-Serif" font-size="10.00">server::mainApp::run</text>
</a>
</g>
</g>
<!-- Node2&#45;&gt;Node3 -->
<g id="edge2" class="edge"><title>Node2&#45;&gt;Node3</title>
<path fill="none" stroke="midnightblue" d="M521.717,-347.939C581.056,-354.8 670.538,-356.324 736,-318.199 785.525,-289.355 812.495,-220.199 821.005,-194.781"/>
<polygon fill="midnightblue" stroke="midnightblue" points="522.086,-344.458 511.732,-346.702 521.225,-351.405 522.086,-344.458"/>
</g>
<!-- Node4 -->
<g id="node4" class="node"><title>Node4</title>
<g id="a_node4"><a xlink:href="../../dc/d17/custom_irc_server_2main_8cpp.html#a0ddf1224851353fc92bfbff6f499fa97" target="_top" xlink:title="main">
<polygon fill="white" stroke="black" points="914,-175.699 914,-194.699 952,-194.699 952,-175.699 914,-175.699"/>
<text text-anchor="middle" x="933" y="-182.699" font-family="Helvetica,sans-Serif" font-size="10.00">main</text>
</a>
</g>
</g>
<!-- Node3&#45;&gt;Node4 -->
<g id="edge3" class="edge"><title>Node3&#45;&gt;Node4</title>
<path fill="none" stroke="midnightblue" d="M888.208,-185.199C897.464,-185.199 906.334,-185.199 913.64,-185.199"/>
<polygon fill="midnightblue" stroke="midnightblue" points="888.068,-181.699 878.068,-185.199 888.068,-188.699 888.068,-181.699"/>
</g>
<!-- Node5&#45;&gt;Node3 -->
<g id="edge5" class="edge"><title>Node5&#45;&gt;Node3</title>
<path fill="none" stroke="midnightblue" d="M711.657,-286.501C720.122,-283.45 728.518,-279.725 736,-275.199 772.087,-253.368 803.778,-213.3 817.191,-194.902"/>
<polygon fill="midnightblue" stroke="midnightblue" points="710.506,-283.196 702.116,-289.666 712.71,-289.84 710.506,-283.196"/>
</g>
<!-- Node6&#45;&gt;Node3 -->
<g id="edge7" class="edge"><title>Node6&#45;&gt;Node3</title>
<path fill="none" stroke="midnightblue" d="M537.547,-263.59C594.022,-263.118 671.304,-257.928 736,-237.199 765.405,-227.777 795.491,-207.14 811.749,-194.887"/>
<polygon fill="midnightblue" stroke="midnightblue" points="537.239,-260.091 527.251,-263.626 537.263,-267.091 537.239,-260.091"/>
</g>
<!-- Node7&#45;&gt;Node3 -->
<g id="edge9" class="edge"><title>Node7&#45;&gt;Node3</title>
<path fill="none" stroke="midnightblue" d="M352.516,-220.936C448.311,-217.97 603.006,-211.492 736,-198.199 747.679,-197.031 760.179,-195.411 771.984,-193.71"/>
<polygon fill="midnightblue" stroke="midnightblue" points="352.172,-217.445 342.283,-221.246 352.384,-224.441 352.172,-217.445"/>
</g>
<!-- Node8&#45;&gt;Node3 -->
<g id="edge11" class="edge"><title>Node8&#45;&gt;Node3</title>
<path fill="none" stroke="midnightblue" d="M342.033,-180.062C459.443,-181.314 673.555,-183.595 771.981,-184.644"/>
<polygon fill="midnightblue" stroke="midnightblue" points="342.056,-176.563 332.019,-179.956 341.981,-183.562 342.056,-176.563"/>
</g>
<!-- Node9&#45;&gt;Node3 -->
<g id="edge13" class="edge"><title>Node9&#45;&gt;Node3</title>
<path fill="none" stroke="midnightblue" d="M315.128,-101.825C334.878,-105.928 357.414,-110.451 378,-114.199 519.933,-140.04 688.242,-165.413 771.688,-177.642"/>
<polygon fill="midnightblue" stroke="midnightblue" points="315.584,-98.3443 305.079,-99.7231 314.151,-105.196 315.584,-98.3443"/>
</g>
<!-- Node10 -->
<g id="node10" class="node"><title>Node10</title>
<g id="a_node10"><a xlink:href="../../d1/d48/classserver_1_1main_app.html#a931aedd34bb38252acfc8880f9716fab" target="_top" xlink:title="Triggered when the IRC client cannot connect.">
<polygon fill="white" stroke="black" points="585.5,-50.1988 585.5,-80.1988 724.5,-80.1988 724.5,-50.1988 585.5,-50.1988"/>
<text text-anchor="start" x="593.5" y="-68.1988" font-family="Helvetica,sans-Serif" font-size="10.00">server::mainApp::ircConnect</text>
<text text-anchor="middle" x="655" y="-57.1988" font-family="Helvetica,sans-Serif" font-size="10.00">TimeOut</text>
</a>
</g>
</g>
<!-- Node9&#45;&gt;Node10 -->
<g id="edge14" class="edge"><title>Node9&#45;&gt;Node10</title>
<path fill="none" stroke="midnightblue" d="M349.433,-84.5732C420.782,-80.0345 519.719,-73.7408 585.231,-69.5734"/>
<polygon fill="midnightblue" stroke="midnightblue" points="348.872,-81.1018 339.114,-85.2297 349.316,-88.0877 348.872,-81.1018"/>
</g>
<!-- Node11 -->
<g id="node11" class="node"><title>Node11</title>
<g id="a_node11"><a xlink:href="../../d1/d48/classserver_1_1main_app.html#a6e6e952e3048cfeefcdfeea7bbb5b83e" target="_top" xlink:title="Triggered when the IRC client has connected.">
<polygon fill="white" stroke="black" points="580.5,-99.6988 580.5,-118.699 729.5,-118.699 729.5,-99.6988 580.5,-99.6988"/>
<text text-anchor="middle" x="655" y="-106.699" font-family="Helvetica,sans-Serif" font-size="10.00">server::mainApp::ircConnected</text>
</a>
</g>
</g>
<!-- Node9&#45;&gt;Node11 -->
<g id="edge16" class="edge"><title>Node9&#45;&gt;Node11</title>
<path fill="none" stroke="midnightblue" d="M349.188,-94.4623C418.807,-97.8281 514.808,-102.469 580.354,-105.638"/>
<polygon fill="midnightblue" stroke="midnightblue" points="349.271,-90.9624 339.114,-93.9753 348.933,-97.9542 349.271,-90.9624"/>
</g>
<!-- Node12 -->
<g id="node12" class="node"><title>Node12</title>
<g id="a_node12"><a xlink:href="../../d1/d48/classserver_1_1main_app.html#af6e8c9d1f06514b33e5f88f9e66884be" target="_top" xlink:title="Triggered when the IRC client has disconnected.">
<polygon fill="white" stroke="black" points="574,-11.6988 574,-30.6988 736,-30.6988 736,-11.6988 574,-11.6988"/>
<text text-anchor="middle" x="655" y="-18.6988" font-family="Helvetica,sans-Serif" font-size="10.00">server::mainApp::ircDisconnected</text>
</a>
</g>
</g>
<!-- Node9&#45;&gt;Node12 -->
<g id="edge18" class="edge"><title>Node9&#45;&gt;Node12</title>
<path fill="none" stroke="midnightblue" d="M278.902,-73.7344C300.508,-55.0906 338.841,-25.8008 378,-14.1988 456.587,9.08477 553.333,-1.86032 608.915,-11.6954"/>
<polygon fill="midnightblue" stroke="midnightblue" points="276.391,-71.2829 271.219,-80.5298 281.028,-76.5262 276.391,-71.2829"/>
</g>
<!-- Node13 -->
<g id="node13" class="node"><title>Node13</title>
<g id="a_node13"><a xlink:href="../../d1/d48/classserver_1_1main_app.html#aa9d4c2e1dc5216901c4f8743838d4561" target="_top" xlink:title="Emitted when the reconnect timer reaches 0.">
<polygon fill="white" stroke="black" points="378,-23.6988 378,-42.6988 538,-42.6988 538,-23.6988 378,-23.6988"/>
<text text-anchor="middle" x="458" y="-30.6988" font-family="Helvetica,sans-Serif" font-size="10.00">server::mainApp::doIrcReconnect</text>
</a>
</g>
</g>
<!-- Node9&#45;&gt;Node13 -->
<g id="edge20" class="edge"><title>Node9&#45;&gt;Node13</title>
<path fill="none" stroke="midnightblue" d="M303.587,-77.8138C339.774,-67.29 390.977,-52.3994 424.087,-42.7704"/>
<polygon fill="midnightblue" stroke="midnightblue" points="302.431,-74.5049 293.806,-80.6583 304.386,-81.2265 302.431,-74.5049"/>
</g>
<!-- Node10&#45;&gt;Node3 -->
<g id="edge15" class="edge"><title>Node10&#45;&gt;Node3</title>
<path fill="none" stroke="midnightblue" d="M725.933,-84.5795C729.419,-86.3066 732.797,-88.1763 736,-90.1988 773.067,-113.607 804.724,-156.475 817.706,-175.575"/>
<polygon fill="midnightblue" stroke="midnightblue" points="727.06,-81.2483 716.504,-80.3342 724.186,-87.6312 727.06,-81.2483"/>
</g>
<!-- Node11&#45;&gt;Node3 -->
<g id="edge17" class="edge"><title>Node11&#45;&gt;Node3</title>
<path fill="none" stroke="midnightblue" d="M704.146,-121.582C714.812,-124.89 725.931,-128.792 736,-133.199 763.636,-145.295 793.374,-164.257 810.236,-175.632"/>
<polygon fill="midnightblue" stroke="midnightblue" points="705.106,-118.215 694.523,-118.712 703.106,-124.924 705.106,-118.215"/>
</g>
<!-- Node12&#45;&gt;Node3 -->
<g id="edge19" class="edge"><title>Node12&#45;&gt;Node3</title>
<path fill="none" stroke="midnightblue" d="M725.693,-34.9074C729.316,-36.7484 732.782,-38.8347 736,-41.1988 784.876,-77.1062 812.247,-149.095 820.934,-175.338"/>
<polygon fill="midnightblue" stroke="midnightblue" points="726.982,-31.6506 716.42,-30.8177 724.158,-38.0554 726.982,-31.6506"/>
</g>
<!-- Node13&#45;&gt;Node10 -->
<g id="edge21" class="edge"><title>Node13&#45;&gt;Node10</title>
<path fill="none" stroke="midnightblue" d="M526.974,-44.3534C545.839,-47.4493 566.333,-50.8124 585.243,-53.9155"/>
<polygon fill="midnightblue" stroke="midnightblue" points="527.413,-40.8788 516.978,-42.7132 526.28,-47.7864 527.413,-40.8788"/>
</g>
<!-- Node13&#45;&gt;Node12 -->
<g id="edge22" class="edge"><title>Node13&#45;&gt;Node12</title>
<path fill="none" stroke="midnightblue" d="M548.083,-27.7168C556.692,-27.187 565.389,-26.6518 573.903,-26.1278"/>
<polygon fill="midnightblue" stroke="midnightblue" points="547.799,-24.2275 538.033,-28.3352 548.229,-31.2143 547.799,-24.2275"/>
</g>
</g>
</svg>
        <g id="navigator" transform="translate(0 0)" fill="#404254">
                <rect fill="#f2f5e9" fill-opacity="0.5" stroke="#606060" stroke-width=".5" x="0" y="0" width="60" height="60"/>
                <use id="zoomplus" xlink:href="#zoomPlus" x="17" y="9" onmousedown="handleZoom(evt,'in')"/>
                <use id="zoomminus" xlink:href="#zoomMin" x="42" y="9" onmousedown="handleZoom(evt,'out')"/>
                <use id="reset" xlink:href="#resetDef" x="30" y="36" onmousedown="handleReset()"/>
                <g id="arrowUp" xlink:href="#dirArrow" transform="translate(30 24)" onmousedown="handlePan(0,-1)">
                  <use xlink:href="#rim" fill="#404040">
                        <set attributeName="fill" to="#808080" begin="arrowUp.mouseover" end="arrowUp.mouseout"/>
                  </use>
                  <path fill="none" stroke="white" stroke-width="1.5" d="M0,-3.0v7 M-2.5,-0.5L0,-3.0L2.5,-0.5"/>
                </g>
                <g id="arrowRight" xlink:href="#dirArrow" transform="rotate(90) translate(36 -43)" onmousedown="handlePan(1,0)">
                  <use xlink:href="#rim" fill="#404040">
                        <set attributeName="fill" to="#808080" begin="arrowRight.mouseover" end="arrowRight.mouseout"/>
                  </use>
                  <path fill="none" stroke="white" stroke-width="1.5" d="M0,-3.0v7 M-2.5,-0.5L0,-3.0L2.5,-0.5"/>
                </g>
                <g id="arrowDown" xlink:href="#dirArrow" transform="rotate(180) translate(-30 -48)" onmousedown="handlePan(0,1)">
                  <use xlink:href="#rim" fill="#404040">
                        <set attributeName="fill" to="#808080" begin="arrowDown.mouseover" end="arrowDown.mouseout"/>
                  </use>
                  <path fill="none" stroke="white" stroke-width="1.5" d="M0,-3.0v7 M-2.5,-0.5L0,-3.0L2.5,-0.5"/>
                </g>
                <g id="arrowLeft" xlink:href="#dirArrow" transform="rotate(270) translate(-36 17)" onmousedown="handlePan(-1,0)">
                  <use xlink:href="#rim" fill="#404040">
                        <set attributeName="fill" to="#808080" begin="arrowLeft.mouseover" end="arrowLeft.mouseout"/>
                  </use>
                  <path fill="none" stroke="white" stroke-width="1.5" d="M0,-3.0v7 M-2.5,-0.5L0,-3.0L2.5,-0.5"/>
                </g>
        </g>
        <svg viewBox="0 0 15 15" width="100%" height="30px" preserveAspectRatio="xMaxYMin meet">
         <g id="arrow_out" transform="scale(0.3 0.3)">
          <a xlink:href="classserver_1_1main_app_a3f2522c9bfcd7593aad9c906d24b6016_icgraph_org.svg" target="_base">
           <rect id="button" ry="5" rx="5" y="6" x="6" height="38" width="38"
                fill="#f2f5e9" fill-opacity="0.5" stroke="#606060" stroke-width="1.0"/>
           <path id="arrow"
             d="M 11.500037,31.436501 C 11.940474,20.09759 22.043105,11.32322 32.158766,21.979434 L 37.068811,17.246167 C 37.068811,17.246167 37.088388,32 37.088388,32 L 22.160133,31.978069 C 22.160133,31.978069 26.997745,27.140456 26.997745,27.140456 C 18.528582,18.264221 13.291696,25.230495 11.500037,31.436501 z"
             style="fill:#404040;"/>
          </a>
         </g>
        </svg>
</svg>
