<?xml version="1.0" encoding="UTF-8" standalone="no"?>
<!DOCTYPE svg PUBLIC "-//W3C//DTD SVG 1.1//EN"
 "http://www.w3.org/Graphics/SVG/1.1/DTD/svg11.dtd">
<!-- Generated by graphviz version 2.30.1 (20130303.0817)
 -->
<!-- Title: server::mainApp::ownUserChangeStatus Pages: 1 -->
<!--zoomable 192 -->
<svg id="main" version="1.1" xmlns="http://www.w3.org/2000/svg" xmlns:xlink="http://www.w3.org/1999/xlink" xml:space="preserve" onload="init(evt)">
        <defs>
                <circle id="rim" cx="0" cy="0" r="7"/>
                <circle id="rim2" cx="0" cy="0" r="3.5"/>
                <g id="zoomPlus">
                        <use xlink:href="#rim" fill="#404040">
                                <set attributeName="fill" to="#808080" begin="zoomplus.mouseover" end="zoomplus.mouseout"/>
                        </use>
                        <path d="M-4,0h8M0,-4v8" fill="none" stroke="white" stroke-width="1.5" pointer-events="none"/>
                </g>
                <g id="zoomMin">
                        <use xlink:href="#rim" fill="#404040">
                                <set attributeName="fill" to="#808080" begin="zoomminus.mouseover" end="zoomminus.mouseout"/>
                        </use>
                        <path d="M-4,0h8" fill="none" stroke="white" stroke-width="1.5" pointer-events="none"/>
                </g>
                <g id="dirArrow">
                        <path fill="none" stroke="white" stroke-width="1.5" d="M0,-3.0v7 M-2.5,-0.5L0,-3.0L2.5,-0.5"/>
                </g>
               <g id="resetDef">
                       <use xlink:href="#rim2" fill="#404040">
                               <set attributeName="fill" to="#808080" begin="reset.mouseover" end="reset.mouseout"/>
                       </use>
               </g>
        </defs>

<script type="text/javascript">
var viewWidth = 688;
var viewHeight = 192;
var sectionId = 'dynsection-5';
</script>
<script xlink:href="../../svgpan.js"/>
<svg id="graph" class="graph">
<g id="viewport">
<title>server::mainApp::ownUserChangeStatus</title>
<polygon fill="white" stroke="white" points="-4,5 -4,-188 685,-188 685,5 -4,5"/>
<!-- Node1 -->
<g id="node1" class="node"><title>Node1</title>
<polygon fill="#bfbfbf" stroke="black" points="0,-83 0,-113 130,-113 130,-83 0,-83"/>
<text text-anchor="start" x="8" y="-101" font-family="Helvetica,sans-Serif" font-size="10.00">server::mainApp::ownUser</text>
<text text-anchor="middle" x="65" y="-90" font-family="Helvetica,sans-Serif" font-size="10.00">ChangeStatus</text>
</g>
<!-- Node2 -->
<g id="node2" class="node"><title>Node2</title>
<g id="a_node2"><a xlink:href="../../d2/d29/classserver_1_1irc_user.xhtml#afb3f6602401d493fb06fc48973123bf9" target="_top" xlink:title="server::ircUser::setStatus">
<polygon fill="white" stroke="black" points="166.5,-164.5 166.5,-183.5 293.5,-183.5 293.5,-164.5 166.5,-164.5"/>
<text text-anchor="middle" x="230" y="-171.5" font-family="Helvetica,sans-Serif" font-size="10.00">server::ircUser::setStatus</text>
</a>
</g>
</g>
<!-- Node1&#45;&gt;Node2 -->
<g id="edge1" class="edge"><title>Node1&#45;&gt;Node2</title>
<path fill="none" stroke="midnightblue" d="M89.069,-113.143C108.858,-125.639 138.456,-143.176 166,-155 171.313,-157.281 176.987,-159.402 182.673,-161.338"/>
<polygon fill="midnightblue" stroke="midnightblue" points="181.597,-164.669 192.189,-164.417 183.752,-158.009 181.597,-164.669"/>
</g>
<!-- Node3 -->
<g id="node3" class="node"><title>Node3</title>
<g id="a_node3"><a xlink:href="../../d2/d29/classserver_1_1irc_user.xhtml#a692aec882619dc575ac64ec8fabf02e9" target="_top" xlink:title="server::ircUser::setOnline">
<polygon fill="white" stroke="black" points="167,-126.5 167,-145.5 293,-145.5 293,-126.5 167,-126.5"/>
<text text-anchor="middle" x="230" y="-133.5" font-family="Helvetica,sans-Serif" font-size="10.00">server::ircUser::setOnline</text>
</a>
</g>
</g>
<!-- Node1&#45;&gt;Node3 -->
<g id="edge2" class="edge"><title>Node1&#45;&gt;Node3</title>
<path fill="none" stroke="midnightblue" d="M130.422,-113.019C146.184,-116.693 162.838,-120.576 177.88,-124.083"/>
<polygon fill="midnightblue" stroke="midnightblue" points="177.473,-127.581 188.006,-126.443 179.062,-120.764 177.473,-127.581"/>
</g>
<!-- Node4 -->
<g id="node4" class="node"><title>Node4</title>
<g id="a_node4"><a xlink:href="../../d2/d29/classserver_1_1irc_user.xhtml#ac9c8f677bab0526311a94d16ad13fd61" target="_top" xlink:title="server::ircUser::getStatus">
<polygon fill="white" stroke="black" points="166.5,-88.5 166.5,-107.5 293.5,-107.5 293.5,-88.5 166.5,-88.5"/>
<text text-anchor="middle" x="230" y="-95.5" font-family="Helvetica,sans-Serif" font-size="10.00">server::ircUser::getStatus</text>
</a>
</g>
</g>
<!-- Node1&#45;&gt;Node4 -->
<g id="edge3" class="edge"><title>Node1&#45;&gt;Node4</title>
<path fill="none" stroke="midnightblue" d="M130.422,-98C138.929,-98 147.695,-98 156.328,-98"/>
<polygon fill="midnightblue" stroke="midnightblue" points="156.377,-101.5 166.377,-98 156.377,-94.5001 156.377,-101.5"/>
</g>
<!-- Node5 -->
<g id="node5" class="node"><title>Node5</title>
<g id="a_node5"><a xlink:href="../../d1/d10/classserver_1_1irc_client.xhtml#aef3233c03f42190f1c89b77c357e9f7f" target="_top" xlink:title="Sets our own nickname.">
<polygon fill="white" stroke="black" points="185.5,-39 185.5,-69 274.5,-69 274.5,-39 185.5,-39"/>
<text text-anchor="start" x="193.5" y="-57" font-family="Helvetica,sans-Serif" font-size="10.00">server::ircClient::</text>
<text text-anchor="middle" x="230" y="-46" font-family="Helvetica,sans-Serif" font-size="10.00">setOwnNick</text>
</a>
</g>
</g>
<!-- Node1&#45;&gt;Node5 -->
<g id="edge4" class="edge"><title>Node1&#45;&gt;Node5</title>
<path fill="none" stroke="midnightblue" d="M121.639,-82.9808C139.063,-78.2775 158.246,-73.0993 175.517,-68.4371"/>
<polygon fill="midnightblue" stroke="midnightblue" points="176.696,-71.7444 185.438,-65.7591 174.871,-64.9862 176.696,-71.7444"/>
</g>
<!-- Node10 -->
<g id="node10" class="node"><title>Node10</title>
<g id="a_node10"><a xlink:href="../../d2/d29/classserver_1_1irc_user.xhtml#a9b5683eaeb89557d6e1b1e57708aeb35" target="_top" xlink:title="server::ircUser::getName">
<polygon fill="white" stroke="black" points="168,-0.5 168,-19.5 292,-19.5 292,-0.5 168,-0.5"/>
<text text-anchor="middle" x="230" y="-7.5" font-family="Helvetica,sans-Serif" font-size="10.00">server::ircUser::getName</text>
</a>
</g>
</g>
<!-- Node1&#45;&gt;Node10 -->
<g id="edge10" class="edge"><title>Node1&#45;&gt;Node10</title>
<path fill="none" stroke="midnightblue" d="M84.5321,-82.9599C103.883,-67.8592 135.597,-44.7721 166,-30 171.356,-27.3977 177.129,-25.0286 182.93,-22.9051"/>
<polygon fill="midnightblue" stroke="midnightblue" points="184.33,-26.1249 192.651,-19.5655 182.056,-19.5047 184.33,-26.1249"/>
</g>
<!-- Node6 -->
<g id="node6" class="node"><title>Node6</title>
<g id="a_node6"><a xlink:href="../../d1/d10/classserver_1_1irc_client.xhtml#a2c1954be24f18aef7d8ec6a7a3e7f29c" target="_top" xlink:title="Sends a message to the IRC server.">
<polygon fill="white" stroke="black" points="330,-44.5 330,-63.5 440,-63.5 440,-44.5 330,-44.5"/>
<text text-anchor="middle" x="385" y="-51.5" font-family="Helvetica,sans-Serif" font-size="10.00">server::ircClient::send</text>
</a>
</g>
</g>
<!-- Node5&#45;&gt;Node6 -->
<g id="edge5" class="edge"><title>Node5&#45;&gt;Node6</title>
<path fill="none" stroke="midnightblue" d="M274.844,-54C288.762,-54 304.457,-54 319.514,-54"/>
<polygon fill="midnightblue" stroke="midnightblue" points="319.807,-57.5001 329.807,-54 319.807,-50.5001 319.807,-57.5001"/>
</g>
<!-- Node7 -->
<g id="node7" class="node"><title>Node7</title>
<g id="a_node7"><a xlink:href="../../d6/d75/namespace_k4_u.xhtml#aaddaee50fab2801df390147891b0c09d" target="_top" xlink:title="K4U::endl">
<polygon fill="white" stroke="black" points="477.5,-63.5 477.5,-82.5 536.5,-82.5 536.5,-63.5 477.5,-63.5"/>
<text text-anchor="middle" x="507" y="-70.5" font-family="Helvetica,sans-Serif" font-size="10.00">K4U::endl</text>
</a>
</g>
</g>
<!-- Node6&#45;&gt;Node7 -->
<g id="edge6" class="edge"><title>Node6&#45;&gt;Node7</title>
<path fill="none" stroke="midnightblue" d="M440.032,-62.5551C449.143,-63.9976 458.439,-65.4695 467.069,-66.8359"/>
<polygon fill="midnightblue" stroke="midnightblue" points="466.784,-70.3343 477.208,-68.4413 467.879,-63.4204 466.784,-70.3343"/>
</g>
<!-- Node9 -->
<g id="node9" class="node"><title>Node9</title>
<g id="a_node9"><a xlink:href="../../d9/db1/namespaceserver.xhtml#a5975bac26af821c5aa25ca3b66ab35a9" target="_top" xlink:title="server::qts">
<polygon fill="white" stroke="black" points="476,-25.5 476,-44.5 538,-44.5 538,-25.5 476,-25.5"/>
<text text-anchor="middle" x="507" y="-32.5" font-family="Helvetica,sans-Serif" font-size="10.00">server::qts</text>
</a>
</g>
</g>
<!-- Node6&#45;&gt;Node9 -->
<g id="edge9" class="edge"><title>Node6&#45;&gt;Node9</title>
<path fill="none" stroke="midnightblue" d="M440.032,-45.4449C448.693,-44.0736 457.521,-42.6758 465.785,-41.3673"/>
<polygon fill="midnightblue" stroke="midnightblue" points="466.567,-44.7872 475.897,-39.7663 465.472,-37.8733 466.567,-44.7872"/>
</g>
<!-- Node8 -->
<g id="node8" class="node"><title>Node8</title>
<g id="a_node8"><a xlink:href="../../da/d64/class_k4_u_1_1cls_log.xhtml#a81f179b2ccb3e2abeb9b47f5b83de935" target="_top" xlink:title="K4U::clsLog::doEndl">
<polygon fill="white" stroke="black" points="574,-63.5 574,-82.5 680,-82.5 680,-63.5 574,-63.5"/>
<text text-anchor="middle" x="627" y="-70.5" font-family="Helvetica,sans-Serif" font-size="10.00">K4U::clsLog::doEndl</text>
</a>
</g>
</g>
<!-- Node7&#45;&gt;Node8 -->
<g id="edge7" class="edge"><title>Node7&#45;&gt;Node8</title>
<path fill="none" stroke="midnightblue" d="M536.565,-67.1218C544.779,-66.6046 554.078,-66.3176 563.496,-66.2606"/>
<polygon fill="midnightblue" stroke="midnightblue" points="563.708,-69.7611 573.717,-66.289 563.727,-62.7611 563.708,-69.7611"/>
</g>
<!-- Node8&#45;&gt;Node7 -->
<g id="edge8" class="edge"><title>Node8&#45;&gt;Node7</title>
<path fill="none" stroke="midnightblue" d="M573.717,-79.711C564.638,-79.8169 555.344,-79.7072 546.71,-79.3819"/>
<polygon fill="midnightblue" stroke="midnightblue" points="546.726,-75.8785 536.565,-78.8782 546.379,-82.8699 546.726,-75.8785"/>
</g>
</g>
</svg>
        <g id="navigator" transform="translate(0 0)" fill="#404254">
                <rect fill="#f2f5e9" fill-opacity="0.5" stroke="#606060" stroke-width=".5" x="0" y="0" width="60" height="60"/>
                <use id="zoomplus" xlink:href="#zoomPlus" x="17" y="9" onmousedown="handleZoom(evt,'in')"/>
                <use id="zoomminus" xlink:href="#zoomMin" x="42" y="9" onmousedown="handleZoom(evt,'out')"/>
                <use id="reset" xlink:href="#resetDef" x="30" y="36" onmousedown="handleReset()"/>
                <g id="arrowUp" xlink:href="#dirArrow" transform="translate(30 24)" onmousedown="handlePan(0,-1)">
                  <use xlink:href="#rim" fill="#404040">
                        <set attributeName="fill" to="#808080" begin="arrowUp.mouseover" end="arrowUp.mouseout"/>
                  </use>
                  <path fill="none" stroke="white" stroke-width="1.5" d="M0,-3.0v7 M-2.5,-0.5L0,-3.0L2.5,-0.5"/>
                </g>
                <g id="arrowRight" xlink:href="#dirArrow" transform="rotate(90) translate(36 -43)" onmousedown="handlePan(1,0)">
                  <use xlink:href="#rim" fill="#404040">
                        <set attributeName="fill" to="#808080" begin="arrowRight.mouseover" end="arrowRight.mouseout"/>
                  </use>
                  <path fill="none" stroke="white" stroke-width="1.5" d="M0,-3.0v7 M-2.5,-0.5L0,-3.0L2.5,-0.5"/>
                </g>
                <g id="arrowDown" xlink:href="#dirArrow" transform="rotate(180) translate(-30 -48)" onmousedown="handlePan(0,1)">
                  <use xlink:href="#rim" fill="#404040">
                        <set attributeName="fill" to="#808080" begin="arrowDown.mouseover" end="arrowDown.mouseout"/>
                  </use>
                  <path fill="none" stroke="white" stroke-width="1.5" d="M0,-3.0v7 M-2.5,-0.5L0,-3.0L2.5,-0.5"/>
                </g>
                <g id="arrowLeft" xlink:href="#dirArrow" transform="rotate(270) translate(-36 17)" onmousedown="handlePan(-1,0)">
                  <use xlink:href="#rim" fill="#404040">
                        <set attributeName="fill" to="#808080" begin="arrowLeft.mouseover" end="arrowLeft.mouseout"/>
                  </use>
                  <path fill="none" stroke="white" stroke-width="1.5" d="M0,-3.0v7 M-2.5,-0.5L0,-3.0L2.5,-0.5"/>
                </g>
        </g>
        <svg viewBox="0 0 15 15" width="100%" height="30px" preserveAspectRatio="xMaxYMin meet">
         <g id="arrow_out" transform="scale(0.3 0.3)">
          <a xlink:href="classserver_1_1main_app_af498e3b109e1bc2b9f8e87b215efdb27_cgraph_org.svg" target="_base">
           <rect id="button" ry="5" rx="5" y="6" x="6" height="38" width="38"
                fill="#f2f5e9" fill-opacity="0.5" stroke="#606060" stroke-width="1.0"/>
           <path id="arrow"
             d="M 11.500037,31.436501 C 11.940474,20.09759 22.043105,11.32322 32.158766,21.979434 L 37.068811,17.246167 C 37.068811,17.246167 37.088388,32 37.088388,32 L 22.160133,31.978069 C 22.160133,31.978069 26.997745,27.140456 26.997745,27.140456 C 18.528582,18.264221 13.291696,25.230495 11.500037,31.436501 z"
             style="fill:#404040;"/>
          </a>
         </g>
        </svg>
</svg>
