<?xml version="1.0" encoding="UTF-8" standalone="no"?>
<!DOCTYPE svg PUBLIC "-//W3C//DTD SVG 1.1//EN"
 "http://www.w3.org/Graphics/SVG/1.1/DTD/svg11.dtd">
<!-- Generated by graphviz version 2.30.1 (20130303.0817)
 -->
<!-- Title: server::mainApp::chatReceived Pages: 1 -->
<svg width="728pt" height="376pt"
 viewBox="0.00 0.00 728.00 376.00" xmlns="http://www.w3.org/2000/svg" xmlns:xlink="http://www.w3.org/1999/xlink">
<g id="graph0" class="graph" transform="scale(1 1) rotate(0) translate(4 372)">
<title>server::mainApp::chatReceived</title>
<polygon fill="white" stroke="white" points="-4,5 -4,-372 725,-372 725,5 -4,5"/>
<!-- Node1 -->
<g id="node1" class="node"><title>Node1</title>
<polygon fill="#bfbfbf" stroke="black" points="0,-206.5 0,-225.5 150,-225.5 150,-206.5 0,-206.5"/>
<text text-anchor="middle" x="75" y="-213.5" font-family="Helvetica,sans-Serif" font-size="10.00">server::mainApp::chatReceived</text>
</g>
<!-- Node2 -->
<g id="node2" class="node"><title>Node2</title>
<g id="a_node2"><a xlink:href="../../d6/d75/namespace_k4_u.html#aaddaee50fab2801df390147891b0c09d" target="_top" xlink:title="K4U::endl">
<polygon fill="white" stroke="black" points="417.5,-126.5 417.5,-145.5 476.5,-145.5 476.5,-126.5 417.5,-126.5"/>
<text text-anchor="middle" x="447" y="-133.5" font-family="Helvetica,sans-Serif" font-size="10.00">K4U::endl</text>
</a>
</g>
</g>
<!-- Node1&#45;&gt;Node2 -->
<g id="edge1" class="edge"><title>Node1&#45;&gt;Node2</title>
<path fill="none" stroke="midnightblue" d="M88.3258,-206.388C107.798,-191.821 147.439,-164.621 186,-153 261.772,-130.165 355.405,-130.601 407.101,-133.166"/>
<polygon fill="midnightblue" stroke="midnightblue" points="406.992,-136.665 417.169,-133.72 407.376,-129.676 406.992,-136.665"/>
</g>
<!-- Node4 -->
<g id="node4" class="node"><title>Node4</title>
<g id="a_node4"><a xlink:href="../../d4/d08/classserver_1_1irc_user_list.html#a7f99e64e1cabde876fa6a827c6614a4e" target="_top" xlink:title="Finds a user based on his nick and status.">
<polygon fill="white" stroke="black" points="216.5,-289 216.5,-319 311.5,-319 311.5,-289 216.5,-289"/>
<text text-anchor="start" x="224.5" y="-307" font-family="Helvetica,sans-Serif" font-size="10.00">server::ircUserList</text>
<text text-anchor="middle" x="264" y="-296" font-family="Helvetica,sans-Serif" font-size="10.00">::getUserByNick</text>
</a>
</g>
</g>
<!-- Node1&#45;&gt;Node4 -->
<g id="edge4" class="edge"><title>Node1&#45;&gt;Node4</title>
<path fill="none" stroke="midnightblue" d="M90.4377,-225.563C110.994,-238.873 150.184,-263.133 186,-279 192.626,-281.935 199.707,-284.703 206.79,-287.25"/>
<polygon fill="midnightblue" stroke="midnightblue" points="205.813,-290.616 216.408,-290.583 208.105,-284.002 205.813,-290.616"/>
</g>
<!-- Node5 -->
<g id="node5" class="node"><title>Node5</title>
<g id="a_node5"><a xlink:href="../../d2/d29/classserver_1_1irc_user.html#a7d729b6e71c3f381a1db0cec57520c39" target="_top" xlink:title="getId">
<polygon fill="white" stroke="black" points="211,-250.5 211,-269.5 317,-269.5 317,-250.5 211,-250.5"/>
<text text-anchor="middle" x="264" y="-257.5" font-family="Helvetica,sans-Serif" font-size="10.00">server::ircUser::getId</text>
</a>
</g>
</g>
<!-- Node1&#45;&gt;Node5 -->
<g id="edge5" class="edge"><title>Node1&#45;&gt;Node5</title>
<path fill="none" stroke="midnightblue" d="M116.576,-225.547C144.757,-232.178 182.501,-241.059 212.61,-248.143"/>
<polygon fill="midnightblue" stroke="midnightblue" points="211.967,-251.588 222.503,-250.471 213.57,-244.774 211.967,-251.588"/>
</g>
<!-- Node6 -->
<g id="node6" class="node"><title>Node6</title>
<g id="a_node6"><a xlink:href="../../d1/d48/classserver_1_1main_app.html#a3f2522c9bfcd7593aad9c906d24b6016" target="_top" xlink:title="Adds an event to the history, checking for the maximum number.">
<polygon fill="white" stroke="black" points="193,-201 193,-231 335,-231 335,-201 193,-201"/>
<text text-anchor="start" x="201" y="-219" font-family="Helvetica,sans-Serif" font-size="10.00">server::mainApp::addToEvent</text>
<text text-anchor="middle" x="264" y="-208" font-family="Helvetica,sans-Serif" font-size="10.00">History</text>
</a>
</g>
</g>
<!-- Node1&#45;&gt;Node6 -->
<g id="edge6" class="edge"><title>Node1&#45;&gt;Node6</title>
<path fill="none" stroke="midnightblue" d="M150.176,-216C160.84,-216 171.855,-216 182.632,-216"/>
<polygon fill="midnightblue" stroke="midnightblue" points="182.872,-219.5 192.872,-216 182.872,-212.5 182.872,-219.5"/>
</g>
<!-- Node7 -->
<g id="node7" class="node"><title>Node7</title>
<g id="a_node7"><a xlink:href="../../d2/dc1/class_k4_u_1_1json_command.html#aa0629328322fb09be4494a0826bb19b5" target="_top" xlink:title="Adds data to the internal data map.">
<polygon fill="white" stroke="black" points="186.5,-162.5 186.5,-181.5 341.5,-181.5 341.5,-162.5 186.5,-162.5"/>
<text text-anchor="middle" x="264" y="-169.5" font-family="Helvetica,sans-Serif" font-size="10.00">K4U::jsonCommand::addToData</text>
</a>
</g>
</g>
<!-- Node1&#45;&gt;Node7 -->
<g id="edge7" class="edge"><title>Node1&#45;&gt;Node7</title>
<path fill="none" stroke="midnightblue" d="M116.576,-206.453C144.757,-199.822 182.501,-190.941 212.61,-183.857"/>
<polygon fill="midnightblue" stroke="midnightblue" points="213.57,-187.226 222.503,-181.529 211.967,-180.412 213.57,-187.226"/>
</g>
<!-- Node8 -->
<g id="node8" class="node"><title>Node8</title>
<g id="a_node8"><a xlink:href="../../db/d8b/classshared_1_1events_1_1cls_event.html#a48d11c9b50a2569c1065f19ca87d0715" target="_top" xlink:title="Converts the current data to a QVariant for sending with JSON.">
<polygon fill="white" stroke="black" points="203,-338 203,-368 325,-368 325,-338 203,-338"/>
<text text-anchor="start" x="211" y="-356" font-family="Helvetica,sans-Serif" font-size="10.00">shared::events::clsEvent</text>
<text text-anchor="middle" x="264" y="-345" font-family="Helvetica,sans-Serif" font-size="10.00">::toVariant</text>
</a>
</g>
</g>
<!-- Node1&#45;&gt;Node8 -->
<g id="edge8" class="edge"><title>Node1&#45;&gt;Node8</title>
<path fill="none" stroke="midnightblue" d="M82.8343,-225.616C98.583,-247.091 139.65,-299.316 186,-328 189.333,-330.063 192.854,-331.973 196.482,-333.739"/>
<polygon fill="midnightblue" stroke="midnightblue" points="195.117,-336.963 205.676,-337.838 197.968,-330.569 195.117,-336.963"/>
</g>
<!-- Node10 -->
<g id="node10" class="node"><title>Node10</title>
<g id="a_node10"><a xlink:href="../../df/dd2/classserver_1_1ui_server.html#ab9e9ed944311c42f019c645c3e0539cf" target="_top" xlink:title="Sends a jsonCommand to all the clients.">
<polygon fill="white" stroke="black" points="209,-83.5 209,-102.5 319,-102.5 319,-83.5 209,-83.5"/>
<text text-anchor="middle" x="264" y="-90.5" font-family="Helvetica,sans-Serif" font-size="10.00">server::uiServer::send</text>
</a>
</g>
</g>
<!-- Node1&#45;&gt;Node10 -->
<g id="edge10" class="edge"><title>Node1&#45;&gt;Node10</title>
<path fill="none" stroke="midnightblue" d="M84.4852,-206.483C101.822,-187.556 143.289,-144.876 186,-120 195.653,-114.378 206.666,-109.657 217.284,-105.816"/>
<polygon fill="midnightblue" stroke="midnightblue" points="218.546,-109.084 226.875,-102.536 216.28,-102.461 218.546,-109.084"/>
</g>
<!-- Node3 -->
<g id="node3" class="node"><title>Node3</title>
<g id="a_node3"><a xlink:href="../../da/d64/class_k4_u_1_1cls_log.html#a81f179b2ccb3e2abeb9b47f5b83de935" target="_top" xlink:title="K4U::clsLog::doEndl">
<polygon fill="white" stroke="black" points="583,-126.5 583,-145.5 689,-145.5 689,-126.5 583,-126.5"/>
<text text-anchor="middle" x="636" y="-133.5" font-family="Helvetica,sans-Serif" font-size="10.00">K4U::clsLog::doEndl</text>
</a>
</g>
</g>
<!-- Node2&#45;&gt;Node3 -->
<g id="edge2" class="edge"><title>Node2&#45;&gt;Node3</title>
<path fill="none" stroke="midnightblue" d="M476.809,-130.964C502.232,-129.311 540.17,-128.854 572.52,-129.592"/>
<polygon fill="midnightblue" stroke="midnightblue" points="572.712,-133.098 582.804,-129.873 572.904,-126.101 572.712,-133.098"/>
</g>
<!-- Node3&#45;&gt;Node2 -->
<g id="edge3" class="edge"><title>Node3&#45;&gt;Node2</title>
<path fill="none" stroke="midnightblue" d="M582.804,-142.127C552.411,-143.106 514.73,-142.931 486.94,-141.602"/>
<polygon fill="midnightblue" stroke="midnightblue" points="486.989,-138.099 476.809,-141.036 486.598,-145.088 486.989,-138.099"/>
</g>
<!-- Node9 -->
<g id="node9" class="node"><title>Node9</title>
<g id="a_node9"><a xlink:href="../../db/d8b/classshared_1_1events_1_1cls_event.html#abd4a458aec7673de426a8995a349bf4b" target="_top" xlink:title="Gets the event type as a string.">
<polygon fill="white" stroke="black" points="386,-338 386,-368 508,-368 508,-338 386,-338"/>
<text text-anchor="start" x="394" y="-356" font-family="Helvetica,sans-Serif" font-size="10.00">shared::events::clsEvent</text>
<text text-anchor="middle" x="447" y="-345" font-family="Helvetica,sans-Serif" font-size="10.00">::getEventType</text>
</a>
</g>
</g>
<!-- Node8&#45;&gt;Node9 -->
<g id="edge9" class="edge"><title>Node8&#45;&gt;Node9</title>
<path fill="none" stroke="midnightblue" d="M325.019,-353C341.21,-353 358.876,-353 375.58,-353"/>
<polygon fill="midnightblue" stroke="midnightblue" points="375.835,-356.5 385.835,-353 375.835,-349.5 375.835,-356.5"/>
</g>
<!-- Node11 -->
<g id="node11" class="node"><title>Node11</title>
<g id="a_node11"><a xlink:href="../../d2/dc1/class_k4_u_1_1json_command.html#a0b681a1fedfb2e89397b1f71e29edf78" target="_top" xlink:title="Transforms this object to a nice JSON string.">
<polygon fill="white" stroke="black" points="378,-77 378,-107 516,-107 516,-77 378,-77"/>
<text text-anchor="start" x="386" y="-95" font-family="Helvetica,sans-Serif" font-size="10.00">K4U::jsonCommand::toJson</text>
<text text-anchor="middle" x="447" y="-84" font-family="Helvetica,sans-Serif" font-size="10.00">String</text>
</a>
</g>
</g>
<!-- Node10&#45;&gt;Node11 -->
<g id="edge11" class="edge"><title>Node10&#45;&gt;Node11</title>
<path fill="none" stroke="midnightblue" d="M319.306,-92.7C334.569,-92.6156 351.477,-92.5222 367.837,-92.4318"/>
<polygon fill="midnightblue" stroke="midnightblue" points="367.952,-95.9314 377.932,-92.3761 367.913,-88.9315 367.952,-95.9314"/>
</g>
<!-- Node10&#45;&gt;Node2 -->
<g id="edge15" class="edge"><title>Node10&#45;&gt;Node2</title>
<path fill="none" stroke="midnightblue" d="M305.17,-102.543C335.767,-109.812 377.62,-119.755 407.736,-126.91"/>
<polygon fill="midnightblue" stroke="midnightblue" points="406.928,-130.315 417.467,-129.221 408.546,-123.505 406.928,-130.315"/>
</g>
<!-- Node15 -->
<g id="node15" class="node"><title>Node15</title>
<g id="a_node15"><a xlink:href="../../dc/d4d/classserver_1_1ui_client.html#ad3f8f8690155b186b54e40dcfee0df23" target="_top" xlink:title="Sends data to the socket.">
<polygon fill="white" stroke="black" points="393.5,-38.5 393.5,-57.5 500.5,-57.5 500.5,-38.5 393.5,-38.5"/>
<text text-anchor="middle" x="447" y="-45.5" font-family="Helvetica,sans-Serif" font-size="10.00">server::uiClient::send</text>
</a>
</g>
</g>
<!-- Node10&#45;&gt;Node15 -->
<g id="edge16" class="edge"><title>Node10&#45;&gt;Node15</title>
<path fill="none" stroke="midnightblue" d="M303.385,-83.4567C330.982,-76.5956 368.386,-67.2962 397.964,-59.9425"/>
<polygon fill="midnightblue" stroke="midnightblue" points="398.81,-63.339 407.67,-57.5296 397.121,-56.5458 398.81,-63.339"/>
</g>
<!-- Node12 -->
<g id="node12" class="node"><title>Node12</title>
<g id="a_node12"><a xlink:href="../../d2/dc1/class_k4_u_1_1json_command.html#ac6bc0d606265f47db9bae5a6a40cb244" target="_top" xlink:title="getCommandString">
<polygon fill="white" stroke="black" points="552.5,-39 552.5,-69 719.5,-69 719.5,-39 552.5,-39"/>
<text text-anchor="start" x="560.5" y="-57" font-family="Helvetica,sans-Serif" font-size="10.00">K4U::jsonCommand::getCommand</text>
<text text-anchor="middle" x="636" y="-46" font-family="Helvetica,sans-Serif" font-size="10.00">String</text>
</a>
</g>
</g>
<!-- Node11&#45;&gt;Node12 -->
<g id="edge12" class="edge"><title>Node11&#45;&gt;Node12</title>
<path fill="none" stroke="midnightblue" d="M516.04,-78.1736C527.462,-75.8526 539.433,-73.42 551.197,-71.0296"/>
<polygon fill="midnightblue" stroke="midnightblue" points="551.91,-74.4562 561.013,-69.0348 550.516,-67.5964 551.91,-74.4562"/>
</g>
<!-- Node13 -->
<g id="node13" class="node"><title>Node13</title>
<g id="a_node13"><a xlink:href="../../d2/dc1/class_k4_u_1_1json_command.html#ab408a8b051e005a7156e19ea8a1f7f3a" target="_top" xlink:title="Gets all data items.">
<polygon fill="white" stroke="black" points="564.5,-0.5 564.5,-19.5 707.5,-19.5 707.5,-0.5 564.5,-0.5"/>
<text text-anchor="middle" x="636" y="-7.5" font-family="Helvetica,sans-Serif" font-size="10.00">K4U::jsonCommand::getData</text>
</a>
</g>
</g>
<!-- Node11&#45;&gt;Node13 -->
<g id="edge13" class="edge"><title>Node11&#45;&gt;Node13</title>
<path fill="none" stroke="midnightblue" d="M497.201,-76.9315C503.749,-74.0682 510.197,-70.7663 516,-67 535.246,-54.5088 532.064,-41.356 552,-30 556.749,-27.2948 561.852,-24.9539 567.109,-22.9286"/>
<polygon fill="midnightblue" stroke="midnightblue" points="568.387,-26.1901 576.693,-19.6132 566.098,-19.5747 568.387,-26.1901"/>
</g>
<!-- Node14 -->
<g id="node14" class="node"><title>Node14</title>
<g id="a_node14"><a xlink:href="../../d2/d6d/namespace_qt_json.html#ace7d6102379674932334bea04fb15c12" target="_top" xlink:title="QtJson::serialize">
<polygon fill="white" stroke="black" points="591.5,-88.5 591.5,-107.5 680.5,-107.5 680.5,-88.5 591.5,-88.5"/>
<text text-anchor="middle" x="636" y="-95.5" font-family="Helvetica,sans-Serif" font-size="10.00">QtJson::serialize</text>
</a>
</g>
</g>
<!-- Node11&#45;&gt;Node14 -->
<g id="edge14" class="edge"><title>Node11&#45;&gt;Node14</title>
<path fill="none" stroke="midnightblue" d="M516.04,-94.1831C537.57,-94.8739 561.05,-95.6273 581.418,-96.2808"/>
<polygon fill="midnightblue" stroke="midnightblue" points="581.344,-99.7801 591.451,-96.6027 581.568,-92.7837 581.344,-99.7801"/>
</g>
</g>
</svg>
