<?xml version="1.0" encoding="UTF-8" standalone="no"?>
<!DOCTYPE svg PUBLIC "-//W3C//DTD SVG 1.1//EN"
 "http://www.w3.org/Graphics/SVG/1.1/DTD/svg11.dtd">
<!-- Generated by graphviz version 2.30.1 (20130303.0817)
 -->
<!-- Title: server::mainApp::userOnline Pages: 1 -->
<svg width="718pt" height="649pt"
 viewBox="0.00 0.00 718.00 649.00" xmlns="http://www.w3.org/2000/svg" xmlns:xlink="http://www.w3.org/1999/xlink">
<g id="graph0" class="graph" transform="scale(1 1) rotate(0) translate(4 645)">
<title>server::mainApp::userOnline</title>
<polygon fill="white" stroke="white" points="-4,5 -4,-645 715,-645 715,5 -4,5"/>
<!-- Node1 -->
<g id="node1" class="node"><title>Node1</title>
<polygon fill="#bfbfbf" stroke="black" points="0.5,-307.5 0.5,-326.5 139.5,-326.5 139.5,-307.5 0.5,-307.5"/>
<text text-anchor="middle" x="70" y="-314.5" font-family="Helvetica,sans-Serif" font-size="10.00">server::mainApp::userOnline</text>
</g>
<!-- Node2 -->
<g id="node2" class="node"><title>Node2</title>
<g id="a_node2"><a xlink:href="../../d6/d75/namespace_k4_u.xhtml#aaddaee50fab2801df390147891b0c09d" target="_top" xlink:title="K4U::endl">
<polygon fill="white" stroke="black" points="407.5,-126.5 407.5,-145.5 466.5,-145.5 466.5,-126.5 407.5,-126.5"/>
<text text-anchor="middle" x="437" y="-133.5" font-family="Helvetica,sans-Serif" font-size="10.00">K4U::endl</text>
</a>
</g>
</g>
<!-- Node1&#45;&gt;Node2 -->
<g id="edge1" class="edge"><title>Node1&#45;&gt;Node2</title>
<path fill="none" stroke="midnightblue" d="M73.7694,-307.36C82.7758,-277.995 114.28,-189.437 176,-153 245.204,-112.145 343.571,-119.807 397.297,-128.323"/>
<polygon fill="midnightblue" stroke="midnightblue" points="396.983,-131.819 407.425,-130.024 398.143,-124.916 396.983,-131.819"/>
</g>
<!-- Node4 -->
<g id="node4" class="node"><title>Node4</title>
<g id="a_node4"><a xlink:href="../../d4/d08/classserver_1_1irc_user_list.xhtml#af2d5bdaf2ccd658679c933390500f0e2" target="_top" xlink:title="Finds a user based on IRC&#45;ID or nick.">
<polygon fill="white" stroke="black" points="206.5,-543 206.5,-573 301.5,-573 301.5,-543 206.5,-543"/>
<text text-anchor="start" x="214.5" y="-561" font-family="Helvetica,sans-Serif" font-size="10.00">server::ircUserList</text>
<text text-anchor="middle" x="254" y="-550" font-family="Helvetica,sans-Serif" font-size="10.00">::getUser</text>
</a>
</g>
</g>
<!-- Node1&#45;&gt;Node4 -->
<g id="edge4" class="edge"><title>Node1&#45;&gt;Node4</title>
<path fill="none" stroke="midnightblue" d="M73.4172,-326.569C81.9594,-358.595 113.623,-463.354 176,-523 182.179,-528.908 189.53,-533.939 197.2,-538.187"/>
<polygon fill="midnightblue" stroke="midnightblue" points="195.8,-541.401 206.3,-542.818 198.975,-535.163 195.8,-541.401"/>
</g>
<!-- Node6 -->
<g id="node6" class="node"><title>Node6</title>
<g id="a_node6"><a xlink:href="../../d2/d29/classserver_1_1irc_user.xhtml#a9b5683eaeb89557d6e1b1e57708aeb35" target="_top" xlink:title="server::ircUser::getName">
<polygon fill="white" stroke="black" points="375,-523.5 375,-542.5 499,-542.5 499,-523.5 375,-523.5"/>
<text text-anchor="middle" x="437" y="-530.5" font-family="Helvetica,sans-Serif" font-size="10.00">server::ircUser::getName</text>
</a>
</g>
</g>
<!-- Node1&#45;&gt;Node6 -->
<g id="edge8" class="edge"><title>Node1&#45;&gt;Node6</title>
<path fill="none" stroke="midnightblue" d="M74.1326,-326.691C83.9623,-355.442 117.099,-440.76 176,-481 231.731,-519.075 308.913,-530.593 364.692,-533.485"/>
<polygon fill="midnightblue" stroke="midnightblue" points="364.705,-536.989 374.848,-533.929 365.011,-529.996 364.705,-536.989"/>
</g>
<!-- Node8 -->
<g id="node8" class="node"><title>Node8</title>
<g id="a_node8"><a xlink:href="../../d4/d08/classserver_1_1irc_user_list.xhtml#a19af488638607e1cc77e94692e3cf3b1" target="_top" xlink:title="Adds a user to the list.">
<polygon fill="white" stroke="black" points="196,-452.5 196,-471.5 312,-471.5 312,-452.5 196,-452.5"/>
<text text-anchor="middle" x="254" y="-459.5" font-family="Helvetica,sans-Serif" font-size="10.00">server::ircUserList::add</text>
</a>
</g>
</g>
<!-- Node1&#45;&gt;Node8 -->
<g id="edge9" class="edge"><title>Node1&#45;&gt;Node8</title>
<path fill="none" stroke="midnightblue" d="M76.1853,-326.557C89.4626,-350.085 127.111,-411.135 176,-442 180.091,-444.583 184.505,-446.833 189.076,-448.794"/>
<polygon fill="midnightblue" stroke="midnightblue" points="188.035,-452.143 198.626,-452.425 190.523,-445.6 188.035,-452.143"/>
</g>
<!-- Node12 -->
<g id="node12" class="node"><title>Node12</title>
<g id="a_node12"><a xlink:href="../../d2/d29/classserver_1_1irc_user.xhtml#afb3f6602401d493fb06fc48973123bf9" target="_top" xlink:title="server::ircUser::setStatus">
<polygon fill="white" stroke="black" points="190.5,-364.5 190.5,-383.5 317.5,-383.5 317.5,-364.5 190.5,-364.5"/>
<text text-anchor="middle" x="254" y="-371.5" font-family="Helvetica,sans-Serif" font-size="10.00">server::ircUser::setStatus</text>
</a>
</g>
</g>
<!-- Node1&#45;&gt;Node12 -->
<g id="edge13" class="edge"><title>Node1&#45;&gt;Node12</title>
<path fill="none" stroke="midnightblue" d="M95.3646,-326.645C116.49,-334.807 147.988,-346.501 176,-355 184.05,-357.442 192.643,-359.801 201.061,-361.977"/>
<polygon fill="midnightblue" stroke="midnightblue" points="200.268,-365.386 210.82,-364.441 201.982,-358.6 200.268,-365.386"/>
</g>
<!-- Node13 -->
<g id="node13" class="node"><title>Node13</title>
<g id="a_node13"><a xlink:href="../../d2/d29/classserver_1_1irc_user.xhtml#a692aec882619dc575ac64ec8fabf02e9" target="_top" xlink:title="server::ircUser::setOnline">
<polygon fill="white" stroke="black" points="191,-326.5 191,-345.5 317,-345.5 317,-326.5 191,-326.5"/>
<text text-anchor="middle" x="254" y="-333.5" font-family="Helvetica,sans-Serif" font-size="10.00">server::ircUser::setOnline</text>
</a>
</g>
</g>
<!-- Node1&#45;&gt;Node13 -->
<g id="edge14" class="edge"><title>Node1&#45;&gt;Node13</title>
<path fill="none" stroke="midnightblue" d="M139.547,-324.156C152.957,-325.556 167.06,-327.028 180.591,-328.441"/>
<polygon fill="midnightblue" stroke="midnightblue" points="180.496,-331.95 190.805,-329.507 181.222,-324.988 180.496,-331.95"/>
</g>
<!-- Node14 -->
<g id="node14" class="node"><title>Node14</title>
<g id="a_node14"><a xlink:href="../../d2/d29/classserver_1_1irc_user.xhtml#a7d729b6e71c3f381a1db0cec57520c39" target="_top" xlink:title="getId">
<polygon fill="white" stroke="black" points="201,-288.5 201,-307.5 307,-307.5 307,-288.5 201,-288.5"/>
<text text-anchor="middle" x="254" y="-295.5" font-family="Helvetica,sans-Serif" font-size="10.00">server::ircUser::getId</text>
</a>
</g>
</g>
<!-- Node1&#45;&gt;Node14 -->
<g id="edge15" class="edge"><title>Node1&#45;&gt;Node14</title>
<path fill="none" stroke="midnightblue" d="M139.547,-309.844C156.403,-308.084 174.355,-306.21 190.888,-304.484"/>
<polygon fill="midnightblue" stroke="midnightblue" points="191.394,-307.951 200.976,-303.431 190.667,-300.988 191.394,-307.951"/>
</g>
<!-- Node15 -->
<g id="node15" class="node"><title>Node15</title>
<g id="a_node15"><a xlink:href="../../d2/d29/classserver_1_1irc_user.xhtml#af6bce76d6e000cf6c5ebfb4ce323f442" target="_top" xlink:title="Used to convert a user for JSON transfer.">
<polygon fill="white" stroke="black" points="182.5,-250.5 182.5,-269.5 325.5,-269.5 325.5,-250.5 182.5,-250.5"/>
<text text-anchor="middle" x="254" y="-257.5" font-family="Helvetica,sans-Serif" font-size="10.00">server::ircUser::toVariantMap</text>
</a>
</g>
</g>
<!-- Node1&#45;&gt;Node15 -->
<g id="edge16" class="edge"><title>Node1&#45;&gt;Node15</title>
<path fill="none" stroke="midnightblue" d="M95.3646,-307.355C116.49,-299.193 147.988,-287.499 176,-279 184.05,-276.558 192.643,-274.199 201.061,-272.023"/>
<polygon fill="midnightblue" stroke="midnightblue" points="201.982,-275.4 210.82,-269.559 200.268,-268.614 201.982,-275.4"/>
</g>
<!-- Node16 -->
<g id="node16" class="node"><title>Node16</title>
<g id="a_node16"><a xlink:href="../../d1/d48/classserver_1_1main_app.xhtml#a3f2522c9bfcd7593aad9c906d24b6016" target="_top" xlink:title="Adds an event to the history, checking for the maximum number.">
<polygon fill="white" stroke="black" points="183,-201 183,-231 325,-231 325,-201 183,-201"/>
<text text-anchor="start" x="191" y="-219" font-family="Helvetica,sans-Serif" font-size="10.00">server::mainApp::addToEvent</text>
<text text-anchor="middle" x="254" y="-208" font-family="Helvetica,sans-Serif" font-size="10.00">History</text>
</a>
</g>
</g>
<!-- Node1&#45;&gt;Node16 -->
<g id="edge17" class="edge"><title>Node1&#45;&gt;Node16</title>
<path fill="none" stroke="midnightblue" d="M81.8891,-307.314C100.166,-291.491 138.687,-259.965 176,-241 180.315,-238.807 184.862,-236.752 189.501,-234.836"/>
<polygon fill="midnightblue" stroke="midnightblue" points="191.055,-237.988 199.108,-231.103 188.519,-231.463 191.055,-237.988"/>
</g>
<!-- Node17 -->
<g id="node17" class="node"><title>Node17</title>
<g id="a_node17"><a xlink:href="../../d2/dc1/class_k4_u_1_1json_command.xhtml#aa0629328322fb09be4494a0826bb19b5" target="_top" xlink:title="Adds data to the internal data map.">
<polygon fill="white" stroke="black" points="176.5,-162.5 176.5,-181.5 331.5,-181.5 331.5,-162.5 176.5,-162.5"/>
<text text-anchor="middle" x="254" y="-169.5" font-family="Helvetica,sans-Serif" font-size="10.00">K4U::jsonCommand::addToData</text>
</a>
</g>
</g>
<!-- Node1&#45;&gt;Node17 -->
<g id="edge18" class="edge"><title>Node1&#45;&gt;Node17</title>
<path fill="none" stroke="midnightblue" d="M76.1853,-307.443C89.4626,-283.915 127.111,-222.865 176,-192 180.091,-189.417 184.505,-187.167 189.076,-185.206"/>
<polygon fill="midnightblue" stroke="midnightblue" points="190.523,-188.4 198.626,-181.575 188.035,-181.857 190.523,-188.4"/>
</g>
<!-- Node18 -->
<g id="node18" class="node"><title>Node18</title>
<g id="a_node18"><a xlink:href="../../db/d8b/classshared_1_1events_1_1cls_event.xhtml#a48d11c9b50a2569c1065f19ca87d0715" target="_top" xlink:title="Converts the current data to a QVariant for sending with JSON.">
<polygon fill="white" stroke="black" points="193,-403 193,-433 315,-433 315,-403 193,-403"/>
<text text-anchor="start" x="201" y="-421" font-family="Helvetica,sans-Serif" font-size="10.00">shared::events::clsEvent</text>
<text text-anchor="middle" x="254" y="-410" font-family="Helvetica,sans-Serif" font-size="10.00">::toVariant</text>
</a>
</g>
</g>
<!-- Node1&#45;&gt;Node18 -->
<g id="edge19" class="edge"><title>Node1&#45;&gt;Node18</title>
<path fill="none" stroke="midnightblue" d="M81.8891,-326.686C100.166,-342.509 138.687,-374.035 176,-393 180.315,-395.193 184.862,-397.248 189.501,-399.164"/>
<polygon fill="midnightblue" stroke="midnightblue" points="188.519,-402.537 199.108,-402.897 191.055,-396.012 188.519,-402.537"/>
</g>
<!-- Node20 -->
<g id="node20" class="node"><title>Node20</title>
<g id="a_node20"><a xlink:href="../../df/dd2/classserver_1_1ui_server.xhtml#ab9e9ed944311c42f019c645c3e0539cf" target="_top" xlink:title="Sends a jsonCommand to all the clients.">
<polygon fill="white" stroke="black" points="199,-83.5 199,-102.5 309,-102.5 309,-83.5 199,-83.5"/>
<text text-anchor="middle" x="254" y="-90.5" font-family="Helvetica,sans-Serif" font-size="10.00">server::uiServer::send</text>
</a>
</g>
</g>
<!-- Node1&#45;&gt;Node20 -->
<g id="edge21" class="edge"><title>Node1&#45;&gt;Node20</title>
<path fill="none" stroke="midnightblue" d="M73.4688,-307.194C81.9742,-275.384 113.058,-174.01 176,-120 182.639,-114.303 190.557,-109.783 198.749,-106.204"/>
<polygon fill="midnightblue" stroke="midnightblue" points="200.03,-109.461 208.061,-102.551 197.474,-102.945 200.03,-109.461"/>
</g>
<!-- Node3 -->
<g id="node3" class="node"><title>Node3</title>
<g id="a_node3"><a xlink:href="../../da/d64/class_k4_u_1_1cls_log.xhtml#a81f179b2ccb3e2abeb9b47f5b83de935" target="_top" xlink:title="K4U::clsLog::doEndl">
<polygon fill="white" stroke="black" points="573,-126.5 573,-145.5 679,-145.5 679,-126.5 573,-126.5"/>
<text text-anchor="middle" x="626" y="-133.5" font-family="Helvetica,sans-Serif" font-size="10.00">K4U::clsLog::doEndl</text>
</a>
</g>
</g>
<!-- Node2&#45;&gt;Node3 -->
<g id="edge2" class="edge"><title>Node2&#45;&gt;Node3</title>
<path fill="none" stroke="midnightblue" d="M466.809,-130.964C492.232,-129.311 530.17,-128.854 562.52,-129.592"/>
<polygon fill="midnightblue" stroke="midnightblue" points="562.712,-133.098 572.804,-129.873 562.904,-126.101 562.712,-133.098"/>
</g>
<!-- Node3&#45;&gt;Node2 -->
<g id="edge3" class="edge"><title>Node3&#45;&gt;Node2</title>
<path fill="none" stroke="midnightblue" d="M572.804,-142.127C542.411,-143.106 504.73,-142.931 476.94,-141.602"/>
<polygon fill="midnightblue" stroke="midnightblue" points="476.989,-138.099 466.809,-141.036 476.598,-145.088 476.989,-138.099"/>
</g>
<!-- Node5 -->
<g id="node5" class="node"><title>Node5</title>
<g id="a_node5"><a xlink:href="../../d4/d08/classserver_1_1irc_user_list.xhtml#a105ff952c0e653bdc765adc58d3e702b" target="_top" xlink:title="Gets a user by his IRC&#45;ID.">
<polygon fill="white" stroke="black" points="389.5,-611 389.5,-641 484.5,-641 484.5,-611 389.5,-611"/>
<text text-anchor="start" x="397.5" y="-629" font-family="Helvetica,sans-Serif" font-size="10.00">server::ircUserList</text>
<text text-anchor="middle" x="437" y="-618" font-family="Helvetica,sans-Serif" font-size="10.00">::getUserByIrcId</text>
</a>
</g>
</g>
<!-- Node4&#45;&gt;Node5 -->
<g id="edge5" class="edge"><title>Node4&#45;&gt;Node5</title>
<path fill="none" stroke="midnightblue" d="M294.181,-573.034C315.908,-581.34 343.425,-591.807 368,-601 373.509,-603.061 379.275,-605.203 385.02,-607.328"/>
<polygon fill="midnightblue" stroke="midnightblue" points="384.025,-610.692 394.618,-610.871 386.449,-604.125 384.025,-610.692"/>
</g>
<!-- Node4&#45;&gt;Node6 -->
<g id="edge6" class="edge"><title>Node4&#45;&gt;Node6</title>
<path fill="none" stroke="midnightblue" d="M301.612,-551.562C320.872,-548.902 343.632,-545.758 364.893,-542.821"/>
<polygon fill="midnightblue" stroke="midnightblue" points="365.435,-546.28 374.862,-541.445 364.477,-539.346 365.435,-546.28"/>
</g>
<!-- Node7 -->
<g id="node7" class="node"><title>Node7</title>
<g id="a_node7"><a xlink:href="../../d4/d08/classserver_1_1irc_user_list.xhtml#a7f99e64e1cabde876fa6a827c6614a4e" target="_top" xlink:title="Finds a user based on his nick and status.">
<polygon fill="white" stroke="black" points="389.5,-562 389.5,-592 484.5,-592 484.5,-562 389.5,-562"/>
<text text-anchor="start" x="397.5" y="-580" font-family="Helvetica,sans-Serif" font-size="10.00">server::ircUserList</text>
<text text-anchor="middle" x="437" y="-569" font-family="Helvetica,sans-Serif" font-size="10.00">::getUserByNick</text>
</a>
</g>
</g>
<!-- Node4&#45;&gt;Node7 -->
<g id="edge7" class="edge"><title>Node4&#45;&gt;Node7</title>
<path fill="none" stroke="midnightblue" d="M301.612,-562.893C325.271,-565.377 354.211,-568.414 379.168,-571.034"/>
<polygon fill="midnightblue" stroke="midnightblue" points="378.921,-574.527 389.232,-572.091 379.652,-567.566 378.921,-574.527"/>
</g>
<!-- Node9 -->
<g id="node9" class="node"><title>Node9</title>
<g id="a_node9"><a xlink:href="../../d2/d29/classserver_1_1irc_user.xhtml#ae4669a1a72c600a7a238bc39cbd853ca" target="_top" xlink:title="server::ircUser::setColor">
<polygon fill="white" stroke="black" points="376.5,-447.5 376.5,-466.5 497.5,-466.5 497.5,-447.5 376.5,-447.5"/>
<text text-anchor="middle" x="437" y="-454.5" font-family="Helvetica,sans-Serif" font-size="10.00">server::ircUser::setColor</text>
</a>
</g>
</g>
<!-- Node8&#45;&gt;Node9 -->
<g id="edge10" class="edge"><title>Node8&#45;&gt;Node9</title>
<path fill="none" stroke="midnightblue" d="M312.27,-460.418C329.325,-459.947 348.21,-459.425 365.982,-458.934"/>
<polygon fill="midnightblue" stroke="midnightblue" points="366.395,-462.424 376.295,-458.649 366.202,-455.427 366.395,-462.424"/>
</g>
<!-- Node10 -->
<g id="node10" class="node"><title>Node10</title>
<g id="a_node10"><a xlink:href="../../d9/db1/namespaceserver.xhtml#a2a6ca6577f352c7d095faf91c8e8dd5a" target="_top" xlink:title="server::getColor">
<polygon fill="white" stroke="black" points="395,-409.5 395,-428.5 479,-428.5 479,-409.5 395,-409.5"/>
<text text-anchor="middle" x="437" y="-416.5" font-family="Helvetica,sans-Serif" font-size="10.00">server::getColor</text>
</a>
</g>
</g>
<!-- Node8&#45;&gt;Node10 -->
<g id="edge11" class="edge"><title>Node8&#45;&gt;Node10</title>
<path fill="none" stroke="midnightblue" d="M295.17,-452.457C322.001,-446.083 357.487,-437.652 386.124,-430.849"/>
<polygon fill="midnightblue" stroke="midnightblue" points="387.022,-434.233 395.943,-428.516 385.404,-427.423 387.022,-434.233"/>
</g>
<!-- Node11 -->
<g id="node11" class="node"><title>Node11</title>
<g id="a_node11"><a xlink:href="../../d2/d29/classserver_1_1irc_user.xhtml#ad855efa6ab1fe94c35c992ac5cfd164d" target="_top" xlink:title="server::ircUser::setId">
<polygon fill="white" stroke="black" points="384,-485.5 384,-504.5 490,-504.5 490,-485.5 384,-485.5"/>
<text text-anchor="middle" x="437" y="-492.5" font-family="Helvetica,sans-Serif" font-size="10.00">server::ircUser::setId</text>
</a>
</g>
</g>
<!-- Node8&#45;&gt;Node11 -->
<g id="edge12" class="edge"><title>Node8&#45;&gt;Node11</title>
<path fill="none" stroke="midnightblue" d="M307.353,-471.545C328.083,-475.325 352.082,-479.7 373.697,-483.641"/>
<polygon fill="midnightblue" stroke="midnightblue" points="373.299,-487.126 383.765,-485.476 374.555,-480.24 373.299,-487.126"/>
</g>
<!-- Node19 -->
<g id="node19" class="node"><title>Node19</title>
<g id="a_node19"><a xlink:href="../../db/d8b/classshared_1_1events_1_1cls_event.xhtml#abd4a458aec7673de426a8995a349bf4b" target="_top" xlink:title="Gets the event type as a string.">
<polygon fill="white" stroke="black" points="376,-360 376,-390 498,-390 498,-360 376,-360"/>
<text text-anchor="start" x="384" y="-378" font-family="Helvetica,sans-Serif" font-size="10.00">shared::events::clsEvent</text>
<text text-anchor="middle" x="437" y="-367" font-family="Helvetica,sans-Serif" font-size="10.00">::getEventType</text>
</a>
</g>
</g>
<!-- Node18&#45;&gt;Node19 -->
<g id="edge20" class="edge"><title>Node18&#45;&gt;Node19</title>
<path fill="none" stroke="midnightblue" d="M315.019,-403.741C331.363,-399.858 349.209,-395.619 366.052,-391.617"/>
<polygon fill="midnightblue" stroke="midnightblue" points="366.915,-395.01 375.835,-389.293 365.297,-388.2 366.915,-395.01"/>
</g>
<!-- Node21 -->
<g id="node21" class="node"><title>Node21</title>
<g id="a_node21"><a xlink:href="../../d2/dc1/class_k4_u_1_1json_command.xhtml#a0b681a1fedfb2e89397b1f71e29edf78" target="_top" xlink:title="Transforms this object to a nice JSON string.">
<polygon fill="white" stroke="black" points="368,-77 368,-107 506,-107 506,-77 368,-77"/>
<text text-anchor="start" x="376" y="-95" font-family="Helvetica,sans-Serif" font-size="10.00">K4U::jsonCommand::toJson</text>
<text text-anchor="middle" x="437" y="-84" font-family="Helvetica,sans-Serif" font-size="10.00">String</text>
</a>
</g>
</g>
<!-- Node20&#45;&gt;Node21 -->
<g id="edge22" class="edge"><title>Node20&#45;&gt;Node21</title>
<path fill="none" stroke="midnightblue" d="M309.306,-92.7C324.569,-92.6156 341.477,-92.5222 357.837,-92.4318"/>
<polygon fill="midnightblue" stroke="midnightblue" points="357.952,-95.9314 367.932,-92.3761 357.913,-88.9315 357.952,-95.9314"/>
</g>
<!-- Node20&#45;&gt;Node2 -->
<g id="edge26" class="edge"><title>Node20&#45;&gt;Node2</title>
<path fill="none" stroke="midnightblue" d="M295.17,-102.543C325.767,-109.812 367.62,-119.755 397.736,-126.91"/>
<polygon fill="midnightblue" stroke="midnightblue" points="396.928,-130.315 407.467,-129.221 398.546,-123.505 396.928,-130.315"/>
</g>
<!-- Node25 -->
<g id="node25" class="node"><title>Node25</title>
<g id="a_node25"><a xlink:href="../../dc/d4d/classserver_1_1ui_client.xhtml#ad3f8f8690155b186b54e40dcfee0df23" target="_top" xlink:title="Sends data to the socket.">
<polygon fill="white" stroke="black" points="383.5,-38.5 383.5,-57.5 490.5,-57.5 490.5,-38.5 383.5,-38.5"/>
<text text-anchor="middle" x="437" y="-45.5" font-family="Helvetica,sans-Serif" font-size="10.00">server::uiClient::send</text>
</a>
</g>
</g>
<!-- Node20&#45;&gt;Node25 -->
<g id="edge27" class="edge"><title>Node20&#45;&gt;Node25</title>
<path fill="none" stroke="midnightblue" d="M293.385,-83.4567C320.982,-76.5956 358.386,-67.2962 387.964,-59.9425"/>
<polygon fill="midnightblue" stroke="midnightblue" points="388.81,-63.339 397.67,-57.5296 387.121,-56.5458 388.81,-63.339"/>
</g>
<!-- Node22 -->
<g id="node22" class="node"><title>Node22</title>
<g id="a_node22"><a xlink:href="../../d2/dc1/class_k4_u_1_1json_command.xhtml#ac6bc0d606265f47db9bae5a6a40cb244" target="_top" xlink:title="getCommandString">
<polygon fill="white" stroke="black" points="542.5,-39 542.5,-69 709.5,-69 709.5,-39 542.5,-39"/>
<text text-anchor="start" x="550.5" y="-57" font-family="Helvetica,sans-Serif" font-size="10.00">K4U::jsonCommand::getCommand</text>
<text text-anchor="middle" x="626" y="-46" font-family="Helvetica,sans-Serif" font-size="10.00">String</text>
</a>
</g>
</g>
<!-- Node21&#45;&gt;Node22 -->
<g id="edge23" class="edge"><title>Node21&#45;&gt;Node22</title>
<path fill="none" stroke="midnightblue" d="M506.04,-78.1736C517.462,-75.8526 529.433,-73.42 541.197,-71.0296"/>
<polygon fill="midnightblue" stroke="midnightblue" points="541.91,-74.4562 551.013,-69.0348 540.516,-67.5964 541.91,-74.4562"/>
</g>
<!-- Node23 -->
<g id="node23" class="node"><title>Node23</title>
<g id="a_node23"><a xlink:href="../../d2/dc1/class_k4_u_1_1json_command.xhtml#ab408a8b051e005a7156e19ea8a1f7f3a" target="_top" xlink:title="Gets all data items.">
<polygon fill="white" stroke="black" points="554.5,-0.5 554.5,-19.5 697.5,-19.5 697.5,-0.5 554.5,-0.5"/>
<text text-anchor="middle" x="626" y="-7.5" font-family="Helvetica,sans-Serif" font-size="10.00">K4U::jsonCommand::getData</text>
</a>
</g>
</g>
<!-- Node21&#45;&gt;Node23 -->
<g id="edge24" class="edge"><title>Node21&#45;&gt;Node23</title>
<path fill="none" stroke="midnightblue" d="M487.201,-76.9315C493.749,-74.0682 500.197,-70.7663 506,-67 525.246,-54.5088 522.064,-41.356 542,-30 546.749,-27.2948 551.852,-24.9539 557.109,-22.9286"/>
<polygon fill="midnightblue" stroke="midnightblue" points="558.387,-26.1901 566.693,-19.6132 556.098,-19.5747 558.387,-26.1901"/>
</g>
<!-- Node24 -->
<g id="node24" class="node"><title>Node24</title>
<g id="a_node24"><a xlink:href="../../d2/d6d/namespace_qt_json.xhtml#ace7d6102379674932334bea04fb15c12" target="_top" xlink:title="QtJson::serialize">
<polygon fill="white" stroke="black" points="581.5,-88.5 581.5,-107.5 670.5,-107.5 670.5,-88.5 581.5,-88.5"/>
<text text-anchor="middle" x="626" y="-95.5" font-family="Helvetica,sans-Serif" font-size="10.00">QtJson::serialize</text>
</a>
</g>
</g>
<!-- Node21&#45;&gt;Node24 -->
<g id="edge25" class="edge"><title>Node21&#45;&gt;Node24</title>
<path fill="none" stroke="midnightblue" d="M506.04,-94.1831C527.57,-94.8739 551.05,-95.6273 571.418,-96.2808"/>
<polygon fill="midnightblue" stroke="midnightblue" points="571.344,-99.7801 581.451,-96.6027 571.568,-92.7837 571.344,-99.7801"/>
</g>
</g>
</svg>
