<?xml version="1.0" encoding="UTF-8" standalone="no"?>
<!DOCTYPE svg PUBLIC "-//W3C//DTD SVG 1.1//EN"
 "http://www.w3.org/Graphics/SVG/1.1/DTD/svg11.dtd">
<!-- Generated by graphviz version 2.30.1 (20130303.0817)
 -->
<!-- Title: server::mainApp::ircConnectTimeOut Pages: 1 -->
<svg width="1108pt" height="253pt"
 viewBox="0.00 0.00 1108.00 253.00" xmlns="http://www.w3.org/2000/svg" xmlns:xlink="http://www.w3.org/1999/xlink">
<g id="graph0" class="graph" transform="scale(1 1) rotate(0) translate(4 249)">
<title>server::mainApp::ircConnectTimeOut</title>
<polygon fill="white" stroke="white" points="-4,5 -4,-249 1105,-249 1105,5 -4,5"/>
<!-- Node1 -->
<g id="node1" class="node"><title>Node1</title>
<polygon fill="#bfbfbf" stroke="black" points="0.5,-113 0.5,-143 139.5,-143 139.5,-113 0.5,-113"/>
<text text-anchor="start" x="8.5" y="-131" font-family="Helvetica,sans-Serif" font-size="10.00">server::mainApp::ircConnect</text>
<text text-anchor="middle" x="70" y="-120" font-family="Helvetica,sans-Serif" font-size="10.00">TimeOut</text>
</g>
<!-- Node2 -->
<g id="node2" class="node"><title>Node2</title>
<g id="a_node2"><a xlink:href="../../d1/d48/classserver_1_1main_app.html#a7263ca5b3630b0a2774f556b96c333c8" target="_top" xlink:title="For logging to the clients.">
<polygon fill="white" stroke="black" points="372,-137.5 372,-156.5 530,-156.5 530,-137.5 372,-137.5"/>
<text text-anchor="middle" x="451" y="-144.5" font-family="Helvetica,sans-Serif" font-size="10.00">server::mainApp::serverMessage</text>
</a>
</g>
</g>
<!-- Node1&#45;&gt;Node2 -->
<g id="edge1" class="edge"><title>Node1&#45;&gt;Node2</title>
<path fill="none" stroke="midnightblue" d="M139.634,-131.441C201.823,-134.558 293.817,-139.17 361.512,-142.564"/>
<polygon fill="midnightblue" stroke="midnightblue" points="361.575,-146.071 371.738,-143.077 361.925,-139.08 361.575,-146.071"/>
</g>
<!-- Node15 -->
<g id="node15" class="node"><title>Node15</title>
<g id="a_node15"><a xlink:href="../../d1/d48/classserver_1_1main_app.html#aa9d4c2e1dc5216901c4f8743838d4561" target="_top" xlink:title="Emitted when the reconnect timer reaches 0.">
<polygon fill="white" stroke="black" points="176,-99.5 176,-118.5 336,-118.5 336,-99.5 176,-99.5"/>
<text text-anchor="middle" x="256" y="-106.5" font-family="Helvetica,sans-Serif" font-size="10.00">server::mainApp::doIrcReconnect</text>
</a>
</g>
</g>
<!-- Node1&#45;&gt;Node15 -->
<g id="edge15" class="edge"><title>Node1&#45;&gt;Node15</title>
<path fill="none" stroke="midnightblue" d="M139.515,-120.925C148.126,-120.036 157.032,-119.116 165.902,-118.2"/>
<polygon fill="midnightblue" stroke="midnightblue" points="166.295,-121.678 175.883,-117.17 165.576,-114.715 166.295,-121.678"/>
</g>
<!-- Node3 -->
<g id="node3" class="node"><title>Node3</title>
<g id="a_node3"><a xlink:href="../../d2/dc1/class_k4_u_1_1json_command.html#aa0629328322fb09be4494a0826bb19b5" target="_top" xlink:title="Adds data to the internal data map.">
<polygon fill="white" stroke="black" points="566.5,-225.5 566.5,-244.5 721.5,-244.5 721.5,-225.5 566.5,-225.5"/>
<text text-anchor="middle" x="644" y="-232.5" font-family="Helvetica,sans-Serif" font-size="10.00">K4U::jsonCommand::addToData</text>
</a>
</g>
</g>
<!-- Node2&#45;&gt;Node3 -->
<g id="edge2" class="edge"><title>Node2&#45;&gt;Node3</title>
<path fill="none" stroke="midnightblue" d="M465.369,-156.706C486.009,-171.278 527.303,-198.822 566,-215 572.911,-217.889 580.35,-220.452 587.782,-222.697"/>
<polygon fill="midnightblue" stroke="midnightblue" points="586.929,-226.093 597.505,-225.465 588.846,-219.36 586.929,-226.093"/>
</g>
<!-- Node4 -->
<g id="node4" class="node"><title>Node4</title>
<g id="a_node4"><a xlink:href="../../db/d8b/classshared_1_1events_1_1cls_event.html#a48d11c9b50a2569c1065f19ca87d0715" target="_top" xlink:title="Converts the current data to a QVariant for sending with JSON.">
<polygon fill="white" stroke="black" points="583,-176 583,-206 705,-206 705,-176 583,-176"/>
<text text-anchor="start" x="591" y="-194" font-family="Helvetica,sans-Serif" font-size="10.00">shared::events::clsEvent</text>
<text text-anchor="middle" x="644" y="-183" font-family="Helvetica,sans-Serif" font-size="10.00">::toVariant</text>
</a>
</g>
</g>
<!-- Node2&#45;&gt;Node4 -->
<g id="edge3" class="edge"><title>Node2&#45;&gt;Node4</title>
<path fill="none" stroke="midnightblue" d="M493.444,-156.547C516.599,-161.881 546.074,-168.672 572.726,-174.811"/>
<polygon fill="midnightblue" stroke="midnightblue" points="572.253,-178.294 582.784,-177.128 573.824,-171.473 572.253,-178.294"/>
</g>
<!-- Node6 -->
<g id="node6" class="node"><title>Node6</title>
<g id="a_node6"><a xlink:href="../../df/dd2/classserver_1_1ui_server.html#ab9e9ed944311c42f019c645c3e0539cf" target="_top" xlink:title="Sends a jsonCommand to all the clients.">
<polygon fill="white" stroke="black" points="589,-137.5 589,-156.5 699,-156.5 699,-137.5 589,-137.5"/>
<text text-anchor="middle" x="644" y="-144.5" font-family="Helvetica,sans-Serif" font-size="10.00">server::uiServer::send</text>
</a>
</g>
</g>
<!-- Node2&#45;&gt;Node6 -->
<g id="edge5" class="edge"><title>Node2&#45;&gt;Node6</title>
<path fill="none" stroke="midnightblue" d="M530.238,-147C546.38,-147 563.202,-147 578.776,-147"/>
<polygon fill="midnightblue" stroke="midnightblue" points="578.811,-150.5 588.811,-147 578.811,-143.5 578.811,-150.5"/>
</g>
<!-- Node14 -->
<g id="node14" class="node"><title>Node14</title>
<g id="a_node14"><a xlink:href="../../d1/d48/classserver_1_1main_app.html#a3f2522c9bfcd7593aad9c906d24b6016" target="_top" xlink:title="Adds an event to the history, checking for the maximum number.">
<polygon fill="white" stroke="black" points="573,-88 573,-118 715,-118 715,-88 573,-88"/>
<text text-anchor="start" x="581" y="-106" font-family="Helvetica,sans-Serif" font-size="10.00">server::mainApp::addToEvent</text>
<text text-anchor="middle" x="644" y="-95" font-family="Helvetica,sans-Serif" font-size="10.00">History</text>
</a>
</g>
</g>
<!-- Node2&#45;&gt;Node14 -->
<g id="edge14" class="edge"><title>Node2&#45;&gt;Node14</title>
<path fill="none" stroke="midnightblue" d="M493.444,-137.453C515.141,-132.455 542.387,-126.178 567.66,-120.356"/>
<polygon fill="midnightblue" stroke="midnightblue" points="568.644,-123.721 577.603,-118.065 567.072,-116.9 568.644,-123.721"/>
</g>
<!-- Node5 -->
<g id="node5" class="node"><title>Node5</title>
<g id="a_node5"><a xlink:href="../../db/d8b/classshared_1_1events_1_1cls_event.html#abd4a458aec7673de426a8995a349bf4b" target="_top" xlink:title="Gets the event type as a string.">
<polygon fill="white" stroke="black" points="766,-181 766,-211 888,-211 888,-181 766,-181"/>
<text text-anchor="start" x="774" y="-199" font-family="Helvetica,sans-Serif" font-size="10.00">shared::events::clsEvent</text>
<text text-anchor="middle" x="827" y="-188" font-family="Helvetica,sans-Serif" font-size="10.00">::getEventType</text>
</a>
</g>
</g>
<!-- Node4&#45;&gt;Node5 -->
<g id="edge4" class="edge"><title>Node4&#45;&gt;Node5</title>
<path fill="none" stroke="midnightblue" d="M705.019,-192.658C721.21,-193.105 738.876,-193.593 755.58,-194.055"/>
<polygon fill="midnightblue" stroke="midnightblue" points="755.742,-197.56 765.835,-194.338 755.935,-190.563 755.742,-197.56"/>
</g>
<!-- Node7 -->
<g id="node7" class="node"><title>Node7</title>
<g id="a_node7"><a xlink:href="../../d2/dc1/class_k4_u_1_1json_command.html#a0b681a1fedfb2e89397b1f71e29edf78" target="_top" xlink:title="Transforms this object to a nice JSON string.">
<polygon fill="white" stroke="black" points="758,-132 758,-162 896,-162 896,-132 758,-132"/>
<text text-anchor="start" x="766" y="-150" font-family="Helvetica,sans-Serif" font-size="10.00">K4U::jsonCommand::toJson</text>
<text text-anchor="middle" x="827" y="-139" font-family="Helvetica,sans-Serif" font-size="10.00">String</text>
</a>
</g>
</g>
<!-- Node6&#45;&gt;Node7 -->
<g id="edge6" class="edge"><title>Node6&#45;&gt;Node7</title>
<path fill="none" stroke="midnightblue" d="M699.306,-147C714.569,-147 731.477,-147 747.837,-147"/>
<polygon fill="midnightblue" stroke="midnightblue" points="747.932,-150.5 757.932,-147 747.932,-143.5 747.932,-150.5"/>
</g>
<!-- Node11 -->
<g id="node11" class="node"><title>Node11</title>
<g id="a_node11"><a xlink:href="../../d6/d75/namespace_k4_u.html#aaddaee50fab2801df390147891b0c09d" target="_top" xlink:title="K4U::endl">
<polygon fill="white" stroke="black" points="797.5,-52.5 797.5,-71.5 856.5,-71.5 856.5,-52.5 797.5,-52.5"/>
<text text-anchor="middle" x="827" y="-59.5" font-family="Helvetica,sans-Serif" font-size="10.00">K4U::endl</text>
</a>
</g>
</g>
<!-- Node6&#45;&gt;Node11 -->
<g id="edge10" class="edge"><title>Node6&#45;&gt;Node11</title>
<path fill="none" stroke="midnightblue" d="M699.38,-137.436C707.311,-134.766 715.113,-131.356 722,-127 743.065,-113.677 737.336,-97.9361 758,-84 766.796,-78.0682 777.301,-73.6447 787.393,-70.3836"/>
<polygon fill="midnightblue" stroke="midnightblue" points="788.652,-73.6621 797.269,-67.4972 786.689,-66.9432 788.652,-73.6621"/>
</g>
<!-- Node13 -->
<g id="node13" class="node"><title>Node13</title>
<g id="a_node13"><a xlink:href="../../dc/d4d/classserver_1_1ui_client.html#ad3f8f8690155b186b54e40dcfee0df23" target="_top" xlink:title="Sends data to the socket.">
<polygon fill="white" stroke="black" points="773.5,-93.5 773.5,-112.5 880.5,-112.5 880.5,-93.5 773.5,-93.5"/>
<text text-anchor="middle" x="827" y="-100.5" font-family="Helvetica,sans-Serif" font-size="10.00">server::uiClient::send</text>
</a>
</g>
</g>
<!-- Node6&#45;&gt;Node13 -->
<g id="edge13" class="edge"><title>Node6&#45;&gt;Node13</title>
<path fill="none" stroke="midnightblue" d="M684.274,-137.453C711.432,-130.851 747.766,-122.018 776.846,-114.949"/>
<polygon fill="midnightblue" stroke="midnightblue" points="777.912,-118.292 786.802,-112.529 776.259,-111.49 777.912,-118.292"/>
</g>
<!-- Node8 -->
<g id="node8" class="node"><title>Node8</title>
<g id="a_node8"><a xlink:href="../../d2/dc1/class_k4_u_1_1json_command.html#ac6bc0d606265f47db9bae5a6a40cb244" target="_top" xlink:title="getCommandString">
<polygon fill="white" stroke="black" points="932.5,-176 932.5,-206 1099.5,-206 1099.5,-176 932.5,-176"/>
<text text-anchor="start" x="940.5" y="-194" font-family="Helvetica,sans-Serif" font-size="10.00">K4U::jsonCommand::getCommand</text>
<text text-anchor="middle" x="1016" y="-183" font-family="Helvetica,sans-Serif" font-size="10.00">String</text>
</a>
</g>
</g>
<!-- Node7&#45;&gt;Node8 -->
<g id="edge7" class="edge"><title>Node7&#45;&gt;Node8</title>
<path fill="none" stroke="midnightblue" d="M891.832,-162.019C907.691,-165.751 924.821,-169.781 941.118,-173.616"/>
<polygon fill="midnightblue" stroke="midnightblue" points="940.603,-177.09 951.139,-175.974 942.206,-170.276 940.603,-177.09"/>
</g>
<!-- Node9 -->
<g id="node9" class="node"><title>Node9</title>
<g id="a_node9"><a xlink:href="../../d2/dc1/class_k4_u_1_1json_command.html#ab408a8b051e005a7156e19ea8a1f7f3a" target="_top" xlink:title="Gets all data items.">
<polygon fill="white" stroke="black" points="944.5,-137.5 944.5,-156.5 1087.5,-156.5 1087.5,-137.5 944.5,-137.5"/>
<text text-anchor="middle" x="1016" y="-144.5" font-family="Helvetica,sans-Serif" font-size="10.00">K4U::jsonCommand::getData</text>
</a>
</g>
</g>
<!-- Node7&#45;&gt;Node9 -->
<g id="edge8" class="edge"><title>Node7&#45;&gt;Node9</title>
<path fill="none" stroke="midnightblue" d="M896.04,-147C908.483,-147 921.577,-147 934.345,-147"/>
<polygon fill="midnightblue" stroke="midnightblue" points="934.496,-150.5 944.496,-147 934.496,-143.5 934.496,-150.5"/>
</g>
<!-- Node10 -->
<g id="node10" class="node"><title>Node10</title>
<g id="a_node10"><a xlink:href="../../d2/d6d/namespace_qt_json.html#ace7d6102379674932334bea04fb15c12" target="_top" xlink:title="QtJson::serialize">
<polygon fill="white" stroke="black" points="971.5,-99.5 971.5,-118.5 1060.5,-118.5 1060.5,-99.5 971.5,-99.5"/>
<text text-anchor="middle" x="1016" y="-106.5" font-family="Helvetica,sans-Serif" font-size="10.00">QtJson::serialize</text>
</a>
</g>
</g>
<!-- Node7&#45;&gt;Node10 -->
<g id="edge9" class="edge"><title>Node7&#45;&gt;Node10</title>
<path fill="none" stroke="midnightblue" d="M896.04,-133.174C917.57,-128.799 941.05,-124.027 961.418,-119.888"/>
<polygon fill="midnightblue" stroke="midnightblue" points="962.348,-123.271 971.451,-117.85 960.954,-116.411 962.348,-123.271"/>
</g>
<!-- Node12 -->
<g id="node12" class="node"><title>Node12</title>
<g id="a_node12"><a xlink:href="../../da/d64/class_k4_u_1_1cls_log.html#a81f179b2ccb3e2abeb9b47f5b83de935" target="_top" xlink:title="K4U::clsLog::doEndl">
<polygon fill="white" stroke="black" points="963,-52.5 963,-71.5 1069,-71.5 1069,-52.5 963,-52.5"/>
<text text-anchor="middle" x="1016" y="-59.5" font-family="Helvetica,sans-Serif" font-size="10.00">K4U::clsLog::doEndl</text>
</a>
</g>
</g>
<!-- Node11&#45;&gt;Node12 -->
<g id="edge11" class="edge"><title>Node11&#45;&gt;Node12</title>
<path fill="none" stroke="midnightblue" d="M856.809,-56.964C882.232,-55.3112 920.17,-54.8537 952.52,-55.5916"/>
<polygon fill="midnightblue" stroke="midnightblue" points="952.712,-59.0981 962.804,-55.8732 952.904,-52.1007 952.712,-59.0981"/>
</g>
<!-- Node12&#45;&gt;Node11 -->
<g id="edge12" class="edge"><title>Node12&#45;&gt;Node11</title>
<path fill="none" stroke="midnightblue" d="M962.804,-68.1268C932.411,-69.1062 894.73,-68.9312 866.94,-67.602"/>
<polygon fill="midnightblue" stroke="midnightblue" points="866.989,-64.0994 856.809,-67.036 866.598,-71.0885 866.989,-64.0994"/>
</g>
<!-- Node15&#45;&gt;Node2 -->
<g id="edge16" class="edge"><title>Node15&#45;&gt;Node2</title>
<path fill="none" stroke="midnightblue" d="M305.702,-118.589C331.859,-123.739 364.284,-130.123 391.767,-135.534"/>
<polygon fill="midnightblue" stroke="midnightblue" points="391.16,-138.982 401.648,-137.48 392.513,-132.114 391.16,-138.982"/>
</g>
<!-- Node16 -->
<g id="node16" class="node"><title>Node16</title>
<g id="a_node16"><a xlink:href="../../d1/d10/classserver_1_1irc_client.html#a43b0e50c5bf5ba76b5a09917e779c1ea" target="_top" xlink:title="connects to the IRC server. Sets the whole thing in motion">
<polygon fill="white" stroke="black" points="406.5,-44 406.5,-74 495.5,-74 495.5,-44 406.5,-44"/>
<text text-anchor="start" x="414.5" y="-62" font-family="Helvetica,sans-Serif" font-size="10.00">server::ircClient::</text>
<text text-anchor="middle" x="451" y="-51" font-family="Helvetica,sans-Serif" font-size="10.00">doConnect</text>
</a>
</g>
</g>
<!-- Node15&#45;&gt;Node16 -->
<g id="edge17" class="edge"><title>Node15&#45;&gt;Node16</title>
<path fill="none" stroke="midnightblue" d="M293.756,-99.4777C322.797,-91.9541 363.74,-81.3473 396.428,-72.8787"/>
<polygon fill="midnightblue" stroke="midnightblue" points="397.483,-76.2211 406.285,-70.325 395.727,-69.4448 397.483,-76.2211"/>
</g>
<!-- Node16&#45;&gt;Node11 -->
<g id="edge18" class="edge"><title>Node16&#45;&gt;Node11</title>
<path fill="none" stroke="midnightblue" d="M495.635,-59.35C569.13,-59.9395 716.465,-61.1214 786.837,-61.6859"/>
<polygon fill="midnightblue" stroke="midnightblue" points="787.017,-65.1873 797.045,-61.7677 787.074,-58.1875 787.017,-65.1873"/>
</g>
<!-- Node17 -->
<g id="node17" class="node"><title>Node17</title>
<g id="a_node17"><a xlink:href="../../d1/d10/classserver_1_1irc_client.html#a9f9877406894f9b49bce12d8ad094bd7" target="_top" xlink:title="server::ircClient::\lconnectTimeout">
<polygon fill="white" stroke="black" points="599.5,-0 599.5,-30 688.5,-30 688.5,-0 599.5,-0"/>
<text text-anchor="start" x="607.5" y="-18" font-family="Helvetica,sans-Serif" font-size="10.00">server::ircClient::</text>
<text text-anchor="middle" x="644" y="-7" font-family="Helvetica,sans-Serif" font-size="10.00">connectTimeout</text>
</a>
</g>
</g>
<!-- Node16&#45;&gt;Node17 -->
<g id="edge19" class="edge"><title>Node16&#45;&gt;Node17</title>
<path fill="none" stroke="midnightblue" d="M495.819,-48.9055C523.723,-42.4774 560.051,-34.1086 589.633,-27.294"/>
<polygon fill="midnightblue" stroke="midnightblue" points="590.426,-30.7031 599.385,-25.0475 588.854,-23.8818 590.426,-30.7031"/>
</g>
<!-- Node18 -->
<g id="node18" class="node"><title>Node18</title>
<g id="a_node18"><a xlink:href="../../d1/d10/classserver_1_1irc_client.html#a6e73d106182456e97f48db009a29642d" target="_top" xlink:title="Emitted when a connection cannot be made after MAX_CONNECT_TIMEOUT_IN_MS.">
<polygon fill="white" stroke="black" points="774.5,-0 774.5,-30 879.5,-30 879.5,-0 774.5,-0"/>
<text text-anchor="start" x="782.5" y="-18" font-family="Helvetica,sans-Serif" font-size="10.00">server::ircClient::</text>
<text text-anchor="middle" x="827" y="-7" font-family="Helvetica,sans-Serif" font-size="10.00">IRCConnectTimeOut</text>
</a>
</g>
</g>
<!-- Node17&#45;&gt;Node18 -->
<g id="edge20" class="edge"><title>Node17&#45;&gt;Node18</title>
<path fill="none" stroke="midnightblue" d="M688.815,-15C711.436,-15 739.415,-15 764.194,-15"/>
<polygon fill="midnightblue" stroke="midnightblue" points="764.231,-18.5001 774.231,-15 764.231,-11.5001 764.231,-18.5001"/>
</g>
</g>
</svg>
