<?xml version="1.0" encoding="UTF-8" standalone="no"?>
<!DOCTYPE svg PUBLIC "-//W3C//DTD SVG 1.1//EN"
 "http://www.w3.org/Graphics/SVG/1.1/DTD/svg11.dtd">
<!-- Generated by graphviz version 2.30.1 (20130303.0817)
 -->
<!-- Title: server::mainApp::doUserQuery Pages: 1 -->
<svg width="728pt" height="191pt"
 viewBox="0.00 0.00 728.00 191.00" xmlns="http://www.w3.org/2000/svg" xmlns:xlink="http://www.w3.org/1999/xlink">
<g id="graph0" class="graph" transform="scale(1 1) rotate(0) translate(4 187)">
<title>server::mainApp::doUserQuery</title>
<polygon fill="white" stroke="white" points="-4,5 -4,-187 725,-187 725,5 -4,5"/>
<!-- Node1 -->
<g id="node1" class="node"><title>Node1</title>
<polygon fill="#bfbfbf" stroke="black" points="0.5,-76.5 0.5,-95.5 149.5,-95.5 149.5,-76.5 0.5,-76.5"/>
<text text-anchor="middle" x="75" y="-83.5" font-family="Helvetica,sans-Serif" font-size="10.00">server::mainApp::doUserQuery</text>
</g>
<!-- Node2 -->
<g id="node2" class="node"><title>Node2</title>
<g id="a_node2"><a xlink:href="../../d2/d29/classserver_1_1irc_user.html#af6bce76d6e000cf6c5ebfb4ce323f442" target="_top" xlink:title="Used to convert a user for JSON transfer.">
<polygon fill="white" stroke="black" points="192.5,-114.5 192.5,-133.5 335.5,-133.5 335.5,-114.5 192.5,-114.5"/>
<text text-anchor="middle" x="264" y="-121.5" font-family="Helvetica,sans-Serif" font-size="10.00">server::ircUser::toVariantMap</text>
</a>
</g>
</g>
<!-- Node1&#45;&gt;Node2 -->
<g id="edge1" class="edge"><title>Node1&#45;&gt;Node2</title>
<path fill="none" stroke="midnightblue" d="M123.188,-95.589C148.42,-100.716 179.673,-107.067 206.227,-112.463"/>
<polygon fill="midnightblue" stroke="midnightblue" points="205.655,-115.918 216.151,-114.48 207.049,-109.059 205.655,-115.918"/>
</g>
<!-- Node3 -->
<g id="node3" class="node"><title>Node3</title>
<g id="a_node3"><a xlink:href="../../d2/dc1/class_k4_u_1_1json_command.html#aa0629328322fb09be4494a0826bb19b5" target="_top" xlink:title="Adds data to the internal data map.">
<polygon fill="white" stroke="black" points="186.5,-76.5 186.5,-95.5 341.5,-95.5 341.5,-76.5 186.5,-76.5"/>
<text text-anchor="middle" x="264" y="-83.5" font-family="Helvetica,sans-Serif" font-size="10.00">K4U::jsonCommand::addToData</text>
</a>
</g>
</g>
<!-- Node1&#45;&gt;Node3 -->
<g id="edge2" class="edge"><title>Node1&#45;&gt;Node3</title>
<path fill="none" stroke="midnightblue" d="M149.639,-86C158.402,-86 167.408,-86 176.331,-86"/>
<polygon fill="midnightblue" stroke="midnightblue" points="176.353,-89.5001 186.353,-86 176.353,-82.5001 176.353,-89.5001"/>
</g>
<!-- Node4 -->
<g id="node4" class="node"><title>Node4</title>
<g id="a_node4"><a xlink:href="../../df/dd2/classserver_1_1ui_server.html#ab9e9ed944311c42f019c645c3e0539cf" target="_top" xlink:title="Sends a jsonCommand to all the clients.">
<polygon fill="white" stroke="black" points="209,-38.5 209,-57.5 319,-57.5 319,-38.5 209,-38.5"/>
<text text-anchor="middle" x="264" y="-45.5" font-family="Helvetica,sans-Serif" font-size="10.00">server::uiServer::send</text>
</a>
</g>
</g>
<!-- Node1&#45;&gt;Node4 -->
<g id="edge3" class="edge"><title>Node1&#45;&gt;Node4</title>
<path fill="none" stroke="midnightblue" d="M123.188,-76.411C148.42,-71.2835 179.673,-64.9328 206.227,-59.5368"/>
<polygon fill="midnightblue" stroke="midnightblue" points="207.049,-62.9414 216.151,-57.5201 205.655,-56.0816 207.049,-62.9414"/>
</g>
<!-- Node5 -->
<g id="node5" class="node"><title>Node5</title>
<g id="a_node5"><a xlink:href="../../d2/dc1/class_k4_u_1_1json_command.html#a0b681a1fedfb2e89397b1f71e29edf78" target="_top" xlink:title="Transforms this object to a nice JSON string.">
<polygon fill="white" stroke="black" points="378,-93 378,-123 516,-123 516,-93 378,-93"/>
<text text-anchor="start" x="386" y="-111" font-family="Helvetica,sans-Serif" font-size="10.00">K4U::jsonCommand::toJson</text>
<text text-anchor="middle" x="447" y="-100" font-family="Helvetica,sans-Serif" font-size="10.00">String</text>
</a>
</g>
</g>
<!-- Node4&#45;&gt;Node5 -->
<g id="edge4" class="edge"><title>Node4&#45;&gt;Node5</title>
<path fill="none" stroke="midnightblue" d="M308.049,-57.5461C319.19,-60.3096 331.112,-63.5276 342,-67 361.997,-73.3775 383.659,-81.6837 402.011,-89.151"/>
<polygon fill="midnightblue" stroke="midnightblue" points="400.699,-92.3962 411.279,-92.9647 403.363,-85.9227 400.699,-92.3962"/>
</g>
<!-- Node9 -->
<g id="node9" class="node"><title>Node9</title>
<g id="a_node9"><a xlink:href="../../d6/d75/namespace_k4_u.html#aaddaee50fab2801df390147891b0c09d" target="_top" xlink:title="K4U::endl">
<polygon fill="white" stroke="black" points="417.5,-38.5 417.5,-57.5 476.5,-57.5 476.5,-38.5 417.5,-38.5"/>
<text text-anchor="middle" x="447" y="-45.5" font-family="Helvetica,sans-Serif" font-size="10.00">K4U::endl</text>
</a>
</g>
</g>
<!-- Node4&#45;&gt;Node9 -->
<g id="edge8" class="edge"><title>Node4&#45;&gt;Node9</title>
<path fill="none" stroke="midnightblue" d="M319.306,-48C347.677,-48 381.731,-48 407.385,-48"/>
<polygon fill="midnightblue" stroke="midnightblue" points="407.473,-51.5001 417.473,-48 407.473,-44.5001 407.473,-51.5001"/>
</g>
<!-- Node11 -->
<g id="node11" class="node"><title>Node11</title>
<g id="a_node11"><a xlink:href="../../dc/d4d/classserver_1_1ui_client.html#ad3f8f8690155b186b54e40dcfee0df23" target="_top" xlink:title="Sends data to the socket.">
<polygon fill="white" stroke="black" points="393.5,-0.5 393.5,-19.5 500.5,-19.5 500.5,-0.5 393.5,-0.5"/>
<text text-anchor="middle" x="447" y="-7.5" font-family="Helvetica,sans-Serif" font-size="10.00">server::uiClient::send</text>
</a>
</g>
</g>
<!-- Node4&#45;&gt;Node11 -->
<g id="edge11" class="edge"><title>Node4&#45;&gt;Node11</title>
<path fill="none" stroke="midnightblue" d="M310.674,-38.411C334.989,-33.3061 365.08,-26.9887 390.708,-21.6082"/>
<polygon fill="midnightblue" stroke="midnightblue" points="391.587,-25.0001 400.654,-19.5201 390.149,-18.1495 391.587,-25.0001"/>
</g>
<!-- Node6 -->
<g id="node6" class="node"><title>Node6</title>
<g id="a_node6"><a xlink:href="../../d2/dc1/class_k4_u_1_1json_command.html#ac6bc0d606265f47db9bae5a6a40cb244" target="_top" xlink:title="getCommandString">
<polygon fill="white" stroke="black" points="552.5,-153 552.5,-183 719.5,-183 719.5,-153 552.5,-153"/>
<text text-anchor="start" x="560.5" y="-171" font-family="Helvetica,sans-Serif" font-size="10.00">K4U::jsonCommand::getCommand</text>
<text text-anchor="middle" x="636" y="-160" font-family="Helvetica,sans-Serif" font-size="10.00">String</text>
</a>
</g>
</g>
<!-- Node5&#45;&gt;Node6 -->
<g id="edge5" class="edge"><title>Node5&#45;&gt;Node6</title>
<path fill="none" stroke="midnightblue" d="M491.668,-123.043C510.225,-129.345 532.125,-136.664 552,-143 559.178,-145.288 566.723,-147.638 574.216,-149.937"/>
<polygon fill="midnightblue" stroke="midnightblue" points="573.417,-153.352 584.003,-152.921 575.458,-146.656 573.417,-153.352"/>
</g>
<!-- Node7 -->
<g id="node7" class="node"><title>Node7</title>
<g id="a_node7"><a xlink:href="../../d2/dc1/class_k4_u_1_1json_command.html#ab408a8b051e005a7156e19ea8a1f7f3a" target="_top" xlink:title="Gets all data items.">
<polygon fill="white" stroke="black" points="564.5,-114.5 564.5,-133.5 707.5,-133.5 707.5,-114.5 564.5,-114.5"/>
<text text-anchor="middle" x="636" y="-121.5" font-family="Helvetica,sans-Serif" font-size="10.00">K4U::jsonCommand::getData</text>
</a>
</g>
</g>
<!-- Node5&#45;&gt;Node7 -->
<g id="edge6" class="edge"><title>Node5&#45;&gt;Node7</title>
<path fill="none" stroke="midnightblue" d="M516.04,-113.822C528.483,-114.886 541.577,-116.007 554.345,-117.099"/>
<polygon fill="midnightblue" stroke="midnightblue" points="554.234,-120.602 564.496,-117.968 554.831,-113.628 554.234,-120.602"/>
</g>
<!-- Node8 -->
<g id="node8" class="node"><title>Node8</title>
<g id="a_node8"><a xlink:href="../../d2/d6d/namespace_qt_json.html#ace7d6102379674932334bea04fb15c12" target="_top" xlink:title="QtJson::serialize">
<polygon fill="white" stroke="black" points="591.5,-76.5 591.5,-95.5 680.5,-95.5 680.5,-76.5 591.5,-76.5"/>
<text text-anchor="middle" x="636" y="-83.5" font-family="Helvetica,sans-Serif" font-size="10.00">QtJson::serialize</text>
</a>
</g>
</g>
<!-- Node5&#45;&gt;Node8 -->
<g id="edge7" class="edge"><title>Node5&#45;&gt;Node8</title>
<path fill="none" stroke="midnightblue" d="M516.04,-99.9953C537.57,-97.4623 561.05,-94.7 581.418,-92.3038"/>
<polygon fill="midnightblue" stroke="midnightblue" points="581.928,-95.768 591.451,-91.1234 581.11,-88.8159 581.928,-95.768"/>
</g>
<!-- Node10 -->
<g id="node10" class="node"><title>Node10</title>
<g id="a_node10"><a xlink:href="../../da/d64/class_k4_u_1_1cls_log.html#a81f179b2ccb3e2abeb9b47f5b83de935" target="_top" xlink:title="K4U::clsLog::doEndl">
<polygon fill="white" stroke="black" points="583,-38.5 583,-57.5 689,-57.5 689,-38.5 583,-38.5"/>
<text text-anchor="middle" x="636" y="-45.5" font-family="Helvetica,sans-Serif" font-size="10.00">K4U::clsLog::doEndl</text>
</a>
</g>
</g>
<!-- Node9&#45;&gt;Node10 -->
<g id="edge9" class="edge"><title>Node9&#45;&gt;Node10</title>
<path fill="none" stroke="midnightblue" d="M476.809,-42.964C502.232,-41.3112 540.17,-40.8537 572.52,-41.5916"/>
<polygon fill="midnightblue" stroke="midnightblue" points="572.712,-45.0981 582.804,-41.8732 572.904,-38.1007 572.712,-45.0981"/>
</g>
<!-- Node10&#45;&gt;Node9 -->
<g id="edge10" class="edge"><title>Node10&#45;&gt;Node9</title>
<path fill="none" stroke="midnightblue" d="M582.804,-54.1268C552.411,-55.1062 514.73,-54.9312 486.94,-53.602"/>
<polygon fill="midnightblue" stroke="midnightblue" points="486.989,-50.0994 476.809,-53.036 486.598,-57.0885 486.989,-50.0994"/>
</g>
</g>
</svg>
