<?xml version="1.0" encoding="UTF-8" standalone="no"?>
<!DOCTYPE svg PUBLIC "-//W3C//DTD SVG 1.1//EN"
 "http://www.w3.org/Graphics/SVG/1.1/DTD/svg11.dtd">
<!-- Generated by graphviz version 2.30.1 (20130303.0817)
 -->
<!-- Title: server::mainApp::userChangeNick Pages: 1 -->
<!--zoomable 504 -->
<svg id="main" version="1.1" xmlns="http://www.w3.org/2000/svg" xmlns:xlink="http://www.w3.org/1999/xlink" xml:space="preserve" onload="init(evt)">
        <defs>
                <circle id="rim" cx="0" cy="0" r="7"/>
                <circle id="rim2" cx="0" cy="0" r="3.5"/>
                <g id="zoomPlus">
                        <use xlink:href="#rim" fill="#404040">
                                <set attributeName="fill" to="#808080" begin="zoomplus.mouseover" end="zoomplus.mouseout"/>
                        </use>
                        <path d="M-4,0h8M0,-4v8" fill="none" stroke="white" stroke-width="1.5" pointer-events="none"/>
                </g>
                <g id="zoomMin">
                        <use xlink:href="#rim" fill="#404040">
                                <set attributeName="fill" to="#808080" begin="zoomminus.mouseover" end="zoomminus.mouseout"/>
                        </use>
                        <path d="M-4,0h8" fill="none" stroke="white" stroke-width="1.5" pointer-events="none"/>
                </g>
                <g id="dirArrow">
                        <path fill="none" stroke="white" stroke-width="1.5" d="M0,-3.0v7 M-2.5,-0.5L0,-3.0L2.5,-0.5"/>
                </g>
               <g id="resetDef">
                       <use xlink:href="#rim2" fill="#404040">
                               <set attributeName="fill" to="#808080" begin="reset.mouseover" end="reset.mouseout"/>
                       </use>
               </g>
        </defs>

<script type="text/javascript">
var viewWidth = 742;
var viewHeight = 504;
var sectionId = 'dynsection-8';
</script>
<script xlink:href="../../svgpan.js"/>
<svg id="graph" class="graph">
<g id="viewport">
<title>server::mainApp::userChangeNick</title>
<polygon fill="white" stroke="white" points="-4,5 -4,-500 739,-500 739,5 -4,5"/>
<!-- Node1 -->
<g id="node1" class="node"><title>Node1</title>
<polygon fill="#bfbfbf" stroke="black" points="0,-252.5 0,-271.5 164,-271.5 164,-252.5 0,-252.5"/>
<text text-anchor="middle" x="82" y="-259.5" font-family="Helvetica,sans-Serif" font-size="10.00">server::mainApp::userChangeNick</text>
</g>
<!-- Node2 -->
<g id="node2" class="node"><title>Node2</title>
<g id="a_node2"><a xlink:href="../../d6/d75/namespace_k4_u.xhtml#aaddaee50fab2801df390147891b0c09d" target="_top" xlink:title="K4U::endl">
<polygon fill="white" stroke="black" points="431.5,-126.5 431.5,-145.5 490.5,-145.5 490.5,-126.5 431.5,-126.5"/>
<text text-anchor="middle" x="461" y="-133.5" font-family="Helvetica,sans-Serif" font-size="10.00">K4U::endl</text>
</a>
</g>
</g>
<!-- Node1&#45;&gt;Node2 -->
<g id="edge1" class="edge"><title>Node1&#45;&gt;Node2</title>
<path fill="none" stroke="midnightblue" d="M89.845,-252.337C106.04,-230.37 149.189,-176.895 200,-155 273.105,-123.498 368.485,-126.314 421.024,-131.162"/>
<polygon fill="midnightblue" stroke="midnightblue" points="420.954,-134.672 431.252,-132.182 421.648,-127.707 420.954,-134.672"/>
</g>
<!-- Node4 -->
<g id="node4" class="node"><title>Node4</title>
<g id="a_node4"><a xlink:href="../../d4/d08/classserver_1_1irc_user_list.xhtml#af2d5bdaf2ccd658679c933390500f0e2" target="_top" xlink:title="Finds a user based on IRC&#45;ID or nick.">
<polygon fill="white" stroke="black" points="230.5,-417 230.5,-447 325.5,-447 325.5,-417 230.5,-417"/>
<text text-anchor="start" x="238.5" y="-435" font-family="Helvetica,sans-Serif" font-size="10.00">server::ircUserList</text>
<text text-anchor="middle" x="278" y="-424" font-family="Helvetica,sans-Serif" font-size="10.00">::getUser</text>
</a>
</g>
</g>
<!-- Node1&#45;&gt;Node4 -->
<g id="edge4" class="edge"><title>Node1&#45;&gt;Node4</title>
<path fill="none" stroke="midnightblue" d="M88.5819,-271.578C103.541,-296.473 147.01,-363.922 200,-402 206.39,-406.592 213.576,-410.593 220.923,-414.046"/>
<polygon fill="midnightblue" stroke="midnightblue" points="219.704,-417.332 230.269,-418.129 222.507,-410.918 219.704,-417.332"/>
</g>
<!-- Node6 -->
<g id="node6" class="node"><title>Node6</title>
<g id="a_node6"><a xlink:href="../../d2/d29/classserver_1_1irc_user.xhtml#a9b5683eaeb89557d6e1b1e57708aeb35" target="_top" xlink:title="server::ircUser::getName">
<polygon fill="white" stroke="black" points="399,-378.5 399,-397.5 523,-397.5 523,-378.5 399,-378.5"/>
<text text-anchor="middle" x="461" y="-385.5" font-family="Helvetica,sans-Serif" font-size="10.00">server::ircUser::getName</text>
</a>
</g>
</g>
<!-- Node1&#45;&gt;Node6 -->
<g id="edge8" class="edge"><title>Node1&#45;&gt;Node6</title>
<path fill="none" stroke="midnightblue" d="M89.8736,-271.56C106.129,-293.295 149.396,-346.22 200,-368 259.869,-393.768 334.632,-396.878 388.6,-394.666"/>
<polygon fill="midnightblue" stroke="midnightblue" points="388.946,-398.154 398.767,-394.177 388.61,-391.162 388.946,-398.154"/>
</g>
<!-- Node8 -->
<g id="node8" class="node"><title>Node8</title>
<g id="a_node8"><a xlink:href="../../d2/d29/classserver_1_1irc_user.xhtml#a2002c82125ebd8502ec385e516bfa445" target="_top" xlink:title="server::ircUser::setNick">
<polygon fill="white" stroke="black" points="219,-290.5 219,-309.5 337,-309.5 337,-290.5 219,-290.5"/>
<text text-anchor="middle" x="278" y="-297.5" font-family="Helvetica,sans-Serif" font-size="10.00">server::ircUser::setNick</text>
</a>
</g>
</g>
<!-- Node1&#45;&gt;Node8 -->
<g id="edge9" class="edge"><title>Node1&#45;&gt;Node8</title>
<path fill="none" stroke="midnightblue" d="M131.954,-271.589C158.247,-276.739 190.84,-283.123 218.465,-288.534"/>
<polygon fill="midnightblue" stroke="midnightblue" points="217.911,-291.992 228.398,-290.48 219.257,-285.123 217.911,-291.992"/>
</g>
<!-- Node9 -->
<g id="node9" class="node"><title>Node9</title>
<g id="a_node9"><a xlink:href="../../d2/d29/classserver_1_1irc_user.xhtml#a7d729b6e71c3f381a1db0cec57520c39" target="_top" xlink:title="getId">
<polygon fill="white" stroke="black" points="225,-252.5 225,-271.5 331,-271.5 331,-252.5 225,-252.5"/>
<text text-anchor="middle" x="278" y="-259.5" font-family="Helvetica,sans-Serif" font-size="10.00">server::ircUser::getId</text>
</a>
</g>
</g>
<!-- Node1&#45;&gt;Node9 -->
<g id="edge10" class="edge"><title>Node1&#45;&gt;Node9</title>
<path fill="none" stroke="midnightblue" d="M164.149,-262C181.014,-262 198.535,-262 214.599,-262"/>
<polygon fill="midnightblue" stroke="midnightblue" points="214.924,-265.5 224.924,-262 214.924,-258.5 214.924,-265.5"/>
</g>
<!-- Node10 -->
<g id="node10" class="node"><title>Node10</title>
<g id="a_node10"><a xlink:href="../../d1/d48/classserver_1_1main_app.xhtml#a3f2522c9bfcd7593aad9c906d24b6016" target="_top" xlink:title="Adds an event to the history, checking for the maximum number.">
<polygon fill="white" stroke="black" points="207,-203 207,-233 349,-233 349,-203 207,-203"/>
<text text-anchor="start" x="215" y="-221" font-family="Helvetica,sans-Serif" font-size="10.00">server::mainApp::addToEvent</text>
<text text-anchor="middle" x="278" y="-210" font-family="Helvetica,sans-Serif" font-size="10.00">History</text>
</a>
</g>
</g>
<!-- Node1&#45;&gt;Node10 -->
<g id="edge11" class="edge"><title>Node1&#45;&gt;Node10</title>
<path fill="none" stroke="midnightblue" d="M125.095,-252.453C147.23,-247.432 175.052,-241.122 200.817,-235.279"/>
<polygon fill="midnightblue" stroke="midnightblue" points="201.597,-238.691 210.575,-233.065 200.049,-231.864 201.597,-238.691"/>
</g>
<!-- Node11 -->
<g id="node11" class="node"><title>Node11</title>
<g id="a_node11"><a xlink:href="../../d2/dc1/class_k4_u_1_1json_command.xhtml#aa0629328322fb09be4494a0826bb19b5" target="_top" xlink:title="Adds data to the internal data map.">
<polygon fill="white" stroke="black" points="200.5,-164.5 200.5,-183.5 355.5,-183.5 355.5,-164.5 200.5,-164.5"/>
<text text-anchor="middle" x="278" y="-171.5" font-family="Helvetica,sans-Serif" font-size="10.00">K4U::jsonCommand::addToData</text>
</a>
</g>
</g>
<!-- Node1&#45;&gt;Node11 -->
<g id="edge12" class="edge"><title>Node1&#45;&gt;Node11</title>
<path fill="none" stroke="midnightblue" d="M96.7643,-252.317C118.003,-237.775 160.457,-210.268 200,-194 207.016,-191.114 214.566,-188.545 222.099,-186.291"/>
<polygon fill="midnightblue" stroke="midnightblue" points="223.273,-189.596 231.944,-183.508 221.369,-182.86 223.273,-189.596"/>
</g>
<!-- Node12 -->
<g id="node12" class="node"><title>Node12</title>
<g id="a_node12"><a xlink:href="../../db/d8b/classshared_1_1events_1_1cls_event.xhtml#a48d11c9b50a2569c1065f19ca87d0715" target="_top" xlink:title="Converts the current data to a QVariant for sending with JSON.">
<polygon fill="white" stroke="black" points="217,-329 217,-359 339,-359 339,-329 217,-329"/>
<text text-anchor="start" x="225" y="-347" font-family="Helvetica,sans-Serif" font-size="10.00">shared::events::clsEvent</text>
<text text-anchor="middle" x="278" y="-336" font-family="Helvetica,sans-Serif" font-size="10.00">::toVariant</text>
</a>
</g>
</g>
<!-- Node1&#45;&gt;Node12 -->
<g id="edge13" class="edge"><title>Node1&#45;&gt;Node12</title>
<path fill="none" stroke="midnightblue" d="M100.884,-271.685C123.534,-283.723 163.962,-304.454 200,-319 205.511,-321.224 211.301,-323.396 217.129,-325.471"/>
<polygon fill="midnightblue" stroke="midnightblue" points="216.335,-328.9 226.93,-328.866 218.626,-322.286 216.335,-328.9"/>
</g>
<!-- Node14 -->
<g id="node14" class="node"><title>Node14</title>
<g id="a_node14"><a xlink:href="../../df/dd2/classserver_1_1ui_server.xhtml#ab9e9ed944311c42f019c645c3e0539cf" target="_top" xlink:title="Sends a jsonCommand to all the clients.">
<polygon fill="white" stroke="black" points="223,-88.5 223,-107.5 333,-107.5 333,-88.5 223,-88.5"/>
<text text-anchor="middle" x="278" y="-95.5" font-family="Helvetica,sans-Serif" font-size="10.00">server::uiServer::send</text>
</a>
</g>
</g>
<!-- Node1&#45;&gt;Node14 -->
<g id="edge15" class="edge"><title>Node1&#45;&gt;Node14</title>
<path fill="none" stroke="midnightblue" d="M88.4344,-252.209C103.037,-226.8 145.721,-158.217 200,-122 206.552,-117.628 213.942,-114.019 221.486,-111.048"/>
<polygon fill="midnightblue" stroke="midnightblue" points="222.836,-114.283 231.072,-107.618 220.477,-107.692 222.836,-114.283"/>
</g>
<!-- Node3 -->
<g id="node3" class="node"><title>Node3</title>
<g id="a_node3"><a xlink:href="../../da/d64/class_k4_u_1_1cls_log.xhtml#a81f179b2ccb3e2abeb9b47f5b83de935" target="_top" xlink:title="K4U::clsLog::doEndl">
<polygon fill="white" stroke="black" points="597,-126.5 597,-145.5 703,-145.5 703,-126.5 597,-126.5"/>
<text text-anchor="middle" x="650" y="-133.5" font-family="Helvetica,sans-Serif" font-size="10.00">K4U::clsLog::doEndl</text>
</a>
</g>
</g>
<!-- Node2&#45;&gt;Node3 -->
<g id="edge2" class="edge"><title>Node2&#45;&gt;Node3</title>
<path fill="none" stroke="midnightblue" d="M490.809,-130.964C516.232,-129.311 554.17,-128.854 586.52,-129.592"/>
<polygon fill="midnightblue" stroke="midnightblue" points="586.712,-133.098 596.804,-129.873 586.904,-126.101 586.712,-133.098"/>
</g>
<!-- Node3&#45;&gt;Node2 -->
<g id="edge3" class="edge"><title>Node3&#45;&gt;Node2</title>
<path fill="none" stroke="midnightblue" d="M596.804,-142.127C566.411,-143.106 528.73,-142.931 500.94,-141.602"/>
<polygon fill="midnightblue" stroke="midnightblue" points="500.989,-138.099 490.809,-141.036 500.598,-145.088 500.989,-138.099"/>
</g>
<!-- Node5 -->
<g id="node5" class="node"><title>Node5</title>
<g id="a_node5"><a xlink:href="../../d4/d08/classserver_1_1irc_user_list.xhtml#a105ff952c0e653bdc765adc58d3e702b" target="_top" xlink:title="Gets a user by his IRC&#45;ID.">
<polygon fill="white" stroke="black" points="413.5,-417 413.5,-447 508.5,-447 508.5,-417 413.5,-417"/>
<text text-anchor="start" x="421.5" y="-435" font-family="Helvetica,sans-Serif" font-size="10.00">server::ircUserList</text>
<text text-anchor="middle" x="461" y="-424" font-family="Helvetica,sans-Serif" font-size="10.00">::getUserByIrcId</text>
</a>
</g>
</g>
<!-- Node4&#45;&gt;Node5 -->
<g id="edge5" class="edge"><title>Node4&#45;&gt;Node5</title>
<path fill="none" stroke="midnightblue" d="M325.612,-432C349.271,-432 378.211,-432 403.168,-432"/>
<polygon fill="midnightblue" stroke="midnightblue" points="403.232,-435.5 413.232,-432 403.232,-428.5 403.232,-435.5"/>
</g>
<!-- Node4&#45;&gt;Node6 -->
<g id="edge6" class="edge"><title>Node4&#45;&gt;Node6</title>
<path fill="none" stroke="midnightblue" d="M325.612,-420.669C351.804,-414.302 384.467,-406.362 411.032,-399.904"/>
<polygon fill="midnightblue" stroke="midnightblue" points="411.999,-403.271 420.889,-397.508 410.346,-396.469 411.999,-403.271"/>
</g>
<!-- Node7 -->
<g id="node7" class="node"><title>Node7</title>
<g id="a_node7"><a xlink:href="../../d4/d08/classserver_1_1irc_user_list.xhtml#a7f99e64e1cabde876fa6a827c6614a4e" target="_top" xlink:title="Finds a user based on his nick and status.">
<polygon fill="white" stroke="black" points="413.5,-466 413.5,-496 508.5,-496 508.5,-466 413.5,-466"/>
<text text-anchor="start" x="421.5" y="-484" font-family="Helvetica,sans-Serif" font-size="10.00">server::ircUserList</text>
<text text-anchor="middle" x="461" y="-473" font-family="Helvetica,sans-Serif" font-size="10.00">::getUserByNick</text>
</a>
</g>
</g>
<!-- Node4&#45;&gt;Node7 -->
<g id="edge7" class="edge"><title>Node4&#45;&gt;Node7</title>
<path fill="none" stroke="midnightblue" d="M325.612,-444.619C349.377,-451.052 378.469,-458.928 403.5,-465.704"/>
<polygon fill="midnightblue" stroke="midnightblue" points="402.665,-469.104 413.232,-468.339 404.494,-462.347 402.665,-469.104"/>
</g>
<!-- Node13 -->
<g id="node13" class="node"><title>Node13</title>
<g id="a_node13"><a xlink:href="../../db/d8b/classshared_1_1events_1_1cls_event.xhtml#abd4a458aec7673de426a8995a349bf4b" target="_top" xlink:title="Gets the event type as a string.">
<polygon fill="white" stroke="black" points="400,-329 400,-359 522,-359 522,-329 400,-329"/>
<text text-anchor="start" x="408" y="-347" font-family="Helvetica,sans-Serif" font-size="10.00">shared::events::clsEvent</text>
<text text-anchor="middle" x="461" y="-336" font-family="Helvetica,sans-Serif" font-size="10.00">::getEventType</text>
</a>
</g>
</g>
<!-- Node12&#45;&gt;Node13 -->
<g id="edge14" class="edge"><title>Node12&#45;&gt;Node13</title>
<path fill="none" stroke="midnightblue" d="M339.019,-344C355.21,-344 372.876,-344 389.58,-344"/>
<polygon fill="midnightblue" stroke="midnightblue" points="389.835,-347.5 399.835,-344 389.835,-340.5 389.835,-347.5"/>
</g>
<!-- Node15 -->
<g id="node15" class="node"><title>Node15</title>
<g id="a_node15"><a xlink:href="../../d2/dc1/class_k4_u_1_1json_command.xhtml#a0b681a1fedfb2e89397b1f71e29edf78" target="_top" xlink:title="Transforms this object to a nice JSON string.">
<polygon fill="white" stroke="black" points="392,-39 392,-69 530,-69 530,-39 392,-39"/>
<text text-anchor="start" x="400" y="-57" font-family="Helvetica,sans-Serif" font-size="10.00">K4U::jsonCommand::toJson</text>
<text text-anchor="middle" x="461" y="-46" font-family="Helvetica,sans-Serif" font-size="10.00">String</text>
</a>
</g>
</g>
<!-- Node14&#45;&gt;Node15 -->
<g id="edge16" class="edge"><title>Node14&#45;&gt;Node15</title>
<path fill="none" stroke="midnightblue" d="M318.274,-88.4527C338.744,-83.4767 364.426,-77.2334 388.287,-71.4331"/>
<polygon fill="midnightblue" stroke="midnightblue" points="389.136,-74.8285 398.027,-69.0654 387.483,-68.0266 389.136,-74.8285"/>
</g>
<!-- Node14&#45;&gt;Node2 -->
<g id="edge20" class="edge"><title>Node14&#45;&gt;Node2</title>
<path fill="none" stroke="midnightblue" d="M324.674,-107.589C354.521,-113.855 393.07,-121.948 421.386,-127.893"/>
<polygon fill="midnightblue" stroke="midnightblue" points="420.814,-131.349 431.32,-129.979 422.253,-124.499 420.814,-131.349"/>
</g>
<!-- Node19 -->
<g id="node19" class="node"><title>Node19</title>
<g id="a_node19"><a xlink:href="../../dc/d4d/classserver_1_1ui_client.xhtml#ad3f8f8690155b186b54e40dcfee0df23" target="_top" xlink:title="Sends data to the socket.">
<polygon fill="white" stroke="black" points="407.5,-88.5 407.5,-107.5 514.5,-107.5 514.5,-88.5 407.5,-88.5"/>
<text text-anchor="middle" x="461" y="-95.5" font-family="Helvetica,sans-Serif" font-size="10.00">server::uiClient::send</text>
</a>
</g>
</g>
<!-- Node14&#45;&gt;Node19 -->
<g id="edge21" class="edge"><title>Node14&#45;&gt;Node19</title>
<path fill="none" stroke="midnightblue" d="M333.306,-98C353.441,-98 376.437,-98 397.262,-98"/>
<polygon fill="midnightblue" stroke="midnightblue" points="397.288,-101.5 407.288,-98 397.288,-94.5001 397.288,-101.5"/>
</g>
<!-- Node16 -->
<g id="node16" class="node"><title>Node16</title>
<g id="a_node16"><a xlink:href="../../d2/dc1/class_k4_u_1_1json_command.xhtml#ac6bc0d606265f47db9bae5a6a40cb244" target="_top" xlink:title="getCommandString">
<polygon fill="white" stroke="black" points="566.5,-39 566.5,-69 733.5,-69 733.5,-39 566.5,-39"/>
<text text-anchor="start" x="574.5" y="-57" font-family="Helvetica,sans-Serif" font-size="10.00">K4U::jsonCommand::getCommand</text>
<text text-anchor="middle" x="650" y="-46" font-family="Helvetica,sans-Serif" font-size="10.00">String</text>
</a>
</g>
</g>
<!-- Node15&#45;&gt;Node16 -->
<g id="edge17" class="edge"><title>Node15&#45;&gt;Node16</title>
<path fill="none" stroke="midnightblue" d="M530.04,-54C538.522,-54 547.306,-54 556.083,-54"/>
<polygon fill="midnightblue" stroke="midnightblue" points="556.366,-57.5001 566.366,-54 556.366,-50.5001 556.366,-57.5001"/>
</g>
<!-- Node17 -->
<g id="node17" class="node"><title>Node17</title>
<g id="a_node17"><a xlink:href="../../d2/dc1/class_k4_u_1_1json_command.xhtml#ab408a8b051e005a7156e19ea8a1f7f3a" target="_top" xlink:title="Gets all data items.">
<polygon fill="white" stroke="black" points="578.5,-0.5 578.5,-19.5 721.5,-19.5 721.5,-0.5 578.5,-0.5"/>
<text text-anchor="middle" x="650" y="-7.5" font-family="Helvetica,sans-Serif" font-size="10.00">K4U::jsonCommand::getData</text>
</a>
</g>
</g>
<!-- Node15&#45;&gt;Node17 -->
<g id="edge18" class="edge"><title>Node15&#45;&gt;Node17</title>
<path fill="none" stroke="midnightblue" d="M525.832,-38.9808C549.596,-33.3892 576.213,-27.1265 598.606,-21.8574"/>
<polygon fill="midnightblue" stroke="midnightblue" points="599.64,-25.2098 608.572,-19.5124 598.036,-18.3959 599.64,-25.2098"/>
</g>
<!-- Node18 -->
<g id="node18" class="node"><title>Node18</title>
<g id="a_node18"><a xlink:href="../../d2/d6d/namespace_qt_json.xhtml#ace7d6102379674932334bea04fb15c12" target="_top" xlink:title="QtJson::serialize">
<polygon fill="white" stroke="black" points="605.5,-88.5 605.5,-107.5 694.5,-107.5 694.5,-88.5 605.5,-88.5"/>
<text text-anchor="middle" x="650" y="-95.5" font-family="Helvetica,sans-Serif" font-size="10.00">QtJson::serialize</text>
</a>
</g>
</g>
<!-- Node15&#45;&gt;Node18 -->
<g id="edge19" class="edge"><title>Node15&#45;&gt;Node18</title>
<path fill="none" stroke="midnightblue" d="M525.832,-69.0192C549.596,-74.6108 576.213,-80.8735 598.606,-86.1426"/>
<polygon fill="midnightblue" stroke="midnightblue" points="598.036,-89.6041 608.572,-88.4876 599.64,-82.7902 598.036,-89.6041"/>
</g>
</g>
</svg>
        <g id="navigator" transform="translate(0 0)" fill="#404254">
                <rect fill="#f2f5e9" fill-opacity="0.5" stroke="#606060" stroke-width=".5" x="0" y="0" width="60" height="60"/>
                <use id="zoomplus" xlink:href="#zoomPlus" x="17" y="9" onmousedown="handleZoom(evt,'in')"/>
                <use id="zoomminus" xlink:href="#zoomMin" x="42" y="9" onmousedown="handleZoom(evt,'out')"/>
                <use id="reset" xlink:href="#resetDef" x="30" y="36" onmousedown="handleReset()"/>
                <g id="arrowUp" xlink:href="#dirArrow" transform="translate(30 24)" onmousedown="handlePan(0,-1)">
                  <use xlink:href="#rim" fill="#404040">
                        <set attributeName="fill" to="#808080" begin="arrowUp.mouseover" end="arrowUp.mouseout"/>
                  </use>
                  <path fill="none" stroke="white" stroke-width="1.5" d="M0,-3.0v7 M-2.5,-0.5L0,-3.0L2.5,-0.5"/>
                </g>
                <g id="arrowRight" xlink:href="#dirArrow" transform="rotate(90) translate(36 -43)" onmousedown="handlePan(1,0)">
                  <use xlink:href="#rim" fill="#404040">
                        <set attributeName="fill" to="#808080" begin="arrowRight.mouseover" end="arrowRight.mouseout"/>
                  </use>
                  <path fill="none" stroke="white" stroke-width="1.5" d="M0,-3.0v7 M-2.5,-0.5L0,-3.0L2.5,-0.5"/>
                </g>
                <g id="arrowDown" xlink:href="#dirArrow" transform="rotate(180) translate(-30 -48)" onmousedown="handlePan(0,1)">
                  <use xlink:href="#rim" fill="#404040">
                        <set attributeName="fill" to="#808080" begin="arrowDown.mouseover" end="arrowDown.mouseout"/>
                  </use>
                  <path fill="none" stroke="white" stroke-width="1.5" d="M0,-3.0v7 M-2.5,-0.5L0,-3.0L2.5,-0.5"/>
                </g>
                <g id="arrowLeft" xlink:href="#dirArrow" transform="rotate(270) translate(-36 17)" onmousedown="handlePan(-1,0)">
                  <use xlink:href="#rim" fill="#404040">
                        <set attributeName="fill" to="#808080" begin="arrowLeft.mouseover" end="arrowLeft.mouseout"/>
                  </use>
                  <path fill="none" stroke="white" stroke-width="1.5" d="M0,-3.0v7 M-2.5,-0.5L0,-3.0L2.5,-0.5"/>
                </g>
        </g>
        <svg viewBox="0 0 15 15" width="100%" height="30px" preserveAspectRatio="xMaxYMin meet">
         <g id="arrow_out" transform="scale(0.3 0.3)">
          <a xlink:href="classserver_1_1main_app_ae15deb9260c486854af7fac7b063fdf5_cgraph_org.svg" target="_base">
           <rect id="button" ry="5" rx="5" y="6" x="6" height="38" width="38"
                fill="#f2f5e9" fill-opacity="0.5" stroke="#606060" stroke-width="1.0"/>
           <path id="arrow"
             d="M 11.500037,31.436501 C 11.940474,20.09759 22.043105,11.32322 32.158766,21.979434 L 37.068811,17.246167 C 37.068811,17.246167 37.088388,32 37.088388,32 L 22.160133,31.978069 C 22.160133,31.978069 26.997745,27.140456 26.997745,27.140456 C 18.528582,18.264221 13.291696,25.230495 11.500037,31.436501 z"
             style="fill:#404040;"/>
          </a>
         </g>
        </svg>
</svg>
