<?xml version="1.0" encoding="UTF-8" standalone="no"?>
<!DOCTYPE svg PUBLIC "-//W3C//DTD SVG 1.1//EN"
 "http://www.w3.org/Graphics/SVG/1.1/DTD/svg11.dtd">
<!-- Generated by graphviz version 2.30.1 (20130303.0817)
 -->
<!-- Title: server::mainApp::doIrcReconnect Pages: 1 -->
<svg width="582pt" height="77pt"
 viewBox="0.00 0.00 582.00 77.00" xmlns="http://www.w3.org/2000/svg" xmlns:xlink="http://www.w3.org/1999/xlink">
<g id="graph0" class="graph" transform="scale(1 1) rotate(0) translate(4 73)">
<title>server::mainApp::doIrcReconnect</title>
<polygon fill="white" stroke="white" points="-4,5 -4,-73 579,-73 579,5 -4,5"/>
<!-- Node1 -->
<g id="node1" class="node"><title>Node1</title>
<polygon fill="#bfbfbf" stroke="black" points="0,-22.5 0,-41.5 160,-41.5 160,-22.5 0,-22.5"/>
<text text-anchor="middle" x="80" y="-29.5" font-family="Helvetica,sans-Serif" font-size="10.00">server::mainApp::doIrcReconnect</text>
</g>
<!-- Node2 -->
<g id="node2" class="node"><title>Node2</title>
<g id="a_node2"><a xlink:href="../../d1/d48/classserver_1_1main_app.html#a931aedd34bb38252acfc8880f9716fab" target="_top" xlink:title="Triggered when the IRC client cannot connect.">
<polygon fill="white" stroke="black" points="207.5,-39 207.5,-69 346.5,-69 346.5,-39 207.5,-39"/>
<text text-anchor="start" x="215.5" y="-57" font-family="Helvetica,sans-Serif" font-size="10.00">server::mainApp::ircConnect</text>
<text text-anchor="middle" x="277" y="-46" font-family="Helvetica,sans-Serif" font-size="10.00">TimeOut</text>
</a>
</g>
</g>
<!-- Node1&#45;&gt;Node2 -->
<g id="edge1" class="edge"><title>Node1&#45;&gt;Node2</title>
<path fill="none" stroke="midnightblue" d="M169.992,-42.0402C182.481,-43.4491 195.157,-44.8792 207.192,-46.2371"/>
<polygon fill="midnightblue" stroke="midnightblue" points="170.362,-38.5598 160.033,-40.9165 169.577,-45.5156 170.362,-38.5598"/>
</g>
<!-- Node5 -->
<g id="node5" class="node"><title>Node5</title>
<g id="a_node5"><a xlink:href="../../d1/d48/classserver_1_1main_app.html#af6e8c9d1f06514b33e5f88f9e66884be" target="_top" xlink:title="Triggered when the IRC client has disconnected.">
<polygon fill="white" stroke="black" points="196,-0.5 196,-19.5 358,-19.5 358,-0.5 196,-0.5"/>
<text text-anchor="middle" x="277" y="-7.5" font-family="Helvetica,sans-Serif" font-size="10.00">server::mainApp::ircDisconnected</text>
</a>
</g>
</g>
<!-- Node1&#45;&gt;Node5 -->
<g id="edge4" class="edge"><title>Node1&#45;&gt;Node5</title>
<path fill="none" stroke="midnightblue" d="M170.083,-21.9497C178.692,-20.9784 187.389,-19.9971 195.903,-19.0365"/>
<polygon fill="midnightblue" stroke="midnightblue" points="169.577,-18.4844 160.033,-23.0835 170.362,-25.4402 169.577,-18.4844"/>
</g>
<!-- Node3 -->
<g id="node3" class="node"><title>Node3</title>
<g id="a_node3"><a xlink:href="../../d1/d48/classserver_1_1main_app.html#af331bc3bf60e745f3ddc95ab3abe5188" target="_top" xlink:title="server::mainApp::run">
<polygon fill="white" stroke="black" points="394,-22.5 394,-41.5 500,-41.5 500,-22.5 394,-22.5"/>
<text text-anchor="middle" x="447" y="-29.5" font-family="Helvetica,sans-Serif" font-size="10.00">server::mainApp::run</text>
</a>
</g>
</g>
<!-- Node2&#45;&gt;Node3 -->
<g id="edge2" class="edge"><title>Node2&#45;&gt;Node3</title>
<path fill="none" stroke="midnightblue" d="M356.813,-43.6792C369.346,-42.0381 382.033,-40.3766 393.753,-38.8419"/>
<polygon fill="midnightblue" stroke="midnightblue" points="356.278,-40.2194 346.817,-44.9883 357.187,-47.1601 356.278,-40.2194"/>
</g>
<!-- Node4 -->
<g id="node4" class="node"><title>Node4</title>
<g id="a_node4"><a xlink:href="../../dc/d17/custom_irc_server_2main_8cpp.html#a0ddf1224851353fc92bfbff6f499fa97" target="_top" xlink:title="main">
<polygon fill="white" stroke="black" points="536,-22.5 536,-41.5 574,-41.5 574,-22.5 536,-22.5"/>
<text text-anchor="middle" x="555" y="-29.5" font-family="Helvetica,sans-Serif" font-size="10.00">main</text>
</a>
</g>
</g>
<!-- Node3&#45;&gt;Node4 -->
<g id="edge3" class="edge"><title>Node3&#45;&gt;Node4</title>
<path fill="none" stroke="midnightblue" d="M510.208,-32C519.464,-32 528.334,-32 535.64,-32"/>
<polygon fill="midnightblue" stroke="midnightblue" points="510.068,-28.5001 500.068,-32 510.068,-35.5001 510.068,-28.5001"/>
</g>
<!-- Node5&#45;&gt;Node3 -->
<g id="edge5" class="edge"><title>Node5&#45;&gt;Node3</title>
<path fill="none" stroke="midnightblue" d="M360.645,-20.8226C371.984,-22.3074 383.355,-23.7965 393.933,-25.1817"/>
<polygon fill="midnightblue" stroke="midnightblue" points="361.08,-17.3497 350.71,-19.5216 360.171,-24.2905 361.08,-17.3497"/>
</g>
</g>
</svg>
