<?xml version="1.0" encoding="UTF-8" standalone="no"?>
<!DOCTYPE svg PUBLIC "-//W3C//DTD SVG 1.1//EN"
 "http://www.w3.org/Graphics/SVG/1.1/DTD/svg11.dtd">
<!-- Generated by graphviz version 2.30.1 (20130303.0817)
 -->
<!-- Title: server::mainApp::ircDisconnected Pages: 1 -->
<svg width="1130pt" height="253pt"
 viewBox="0.00 0.00 1130.00 253.00" xmlns="http://www.w3.org/2000/svg" xmlns:xlink="http://www.w3.org/1999/xlink">
<g id="graph0" class="graph" transform="scale(1 1) rotate(0) translate(4 249)">
<title>server::mainApp::ircDisconnected</title>
<polygon fill="white" stroke="white" points="-4,5 -4,-249 1127,-249 1127,5 -4,5"/>
<!-- Node1 -->
<g id="node1" class="node"><title>Node1</title>
<polygon fill="#bfbfbf" stroke="black" points="0,-118.5 0,-137.5 162,-137.5 162,-118.5 0,-118.5"/>
<text text-anchor="middle" x="81" y="-125.5" font-family="Helvetica,sans-Serif" font-size="10.00">server::mainApp::ircDisconnected</text>
</g>
<!-- Node2 -->
<g id="node2" class="node"><title>Node2</title>
<g id="a_node2"><a xlink:href="../../d1/d48/classserver_1_1main_app.html#a7263ca5b3630b0a2774f556b96c333c8" target="_top" xlink:title="For logging to the clients.">
<polygon fill="white" stroke="black" points="394,-137.5 394,-156.5 552,-156.5 552,-137.5 394,-137.5"/>
<text text-anchor="middle" x="473" y="-144.5" font-family="Helvetica,sans-Serif" font-size="10.00">server::mainApp::serverMessage</text>
</a>
</g>
</g>
<!-- Node1&#45;&gt;Node2 -->
<g id="edge1" class="edge"><title>Node1&#45;&gt;Node2</title>
<path fill="none" stroke="midnightblue" d="M162.335,-131.914C226.812,-135.055 317.23,-139.46 383.722,-142.699"/>
<polygon fill="midnightblue" stroke="midnightblue" points="383.608,-146.198 393.766,-143.189 383.949,-139.206 383.608,-146.198"/>
</g>
<!-- Node15 -->
<g id="node15" class="node"><title>Node15</title>
<g id="a_node15"><a xlink:href="../../d1/d48/classserver_1_1main_app.html#aa9d4c2e1dc5216901c4f8743838d4561" target="_top" xlink:title="Emitted when the reconnect timer reaches 0.">
<polygon fill="white" stroke="black" points="198,-99.5 198,-118.5 358,-118.5 358,-99.5 198,-99.5"/>
<text text-anchor="middle" x="278" y="-106.5" font-family="Helvetica,sans-Serif" font-size="10.00">server::mainApp::doIrcReconnect</text>
</a>
</g>
</g>
<!-- Node1&#45;&gt;Node15 -->
<g id="edge15" class="edge"><title>Node1&#45;&gt;Node15</title>
<path fill="none" stroke="midnightblue" d="M162.158,-120.19C170.614,-119.366 179.25,-118.524 187.801,-117.691"/>
<polygon fill="midnightblue" stroke="midnightblue" points="188.169,-121.172 197.783,-116.719 187.49,-114.205 188.169,-121.172"/>
</g>
<!-- Node3 -->
<g id="node3" class="node"><title>Node3</title>
<g id="a_node3"><a xlink:href="../../d2/dc1/class_k4_u_1_1json_command.html#aa0629328322fb09be4494a0826bb19b5" target="_top" xlink:title="Adds data to the internal data map.">
<polygon fill="white" stroke="black" points="588.5,-225.5 588.5,-244.5 743.5,-244.5 743.5,-225.5 588.5,-225.5"/>
<text text-anchor="middle" x="666" y="-232.5" font-family="Helvetica,sans-Serif" font-size="10.00">K4U::jsonCommand::addToData</text>
</a>
</g>
</g>
<!-- Node2&#45;&gt;Node3 -->
<g id="edge2" class="edge"><title>Node2&#45;&gt;Node3</title>
<path fill="none" stroke="midnightblue" d="M487.369,-156.706C508.009,-171.278 549.303,-198.822 588,-215 594.911,-217.889 602.35,-220.452 609.782,-222.697"/>
<polygon fill="midnightblue" stroke="midnightblue" points="608.929,-226.093 619.505,-225.465 610.846,-219.36 608.929,-226.093"/>
</g>
<!-- Node4 -->
<g id="node4" class="node"><title>Node4</title>
<g id="a_node4"><a xlink:href="../../db/d8b/classshared_1_1events_1_1cls_event.html#a48d11c9b50a2569c1065f19ca87d0715" target="_top" xlink:title="Converts the current data to a QVariant for sending with JSON.">
<polygon fill="white" stroke="black" points="605,-176 605,-206 727,-206 727,-176 605,-176"/>
<text text-anchor="start" x="613" y="-194" font-family="Helvetica,sans-Serif" font-size="10.00">shared::events::clsEvent</text>
<text text-anchor="middle" x="666" y="-183" font-family="Helvetica,sans-Serif" font-size="10.00">::toVariant</text>
</a>
</g>
</g>
<!-- Node2&#45;&gt;Node4 -->
<g id="edge3" class="edge"><title>Node2&#45;&gt;Node4</title>
<path fill="none" stroke="midnightblue" d="M515.444,-156.547C538.599,-161.881 568.074,-168.672 594.726,-174.811"/>
<polygon fill="midnightblue" stroke="midnightblue" points="594.253,-178.294 604.784,-177.128 595.824,-171.473 594.253,-178.294"/>
</g>
<!-- Node6 -->
<g id="node6" class="node"><title>Node6</title>
<g id="a_node6"><a xlink:href="../../df/dd2/classserver_1_1ui_server.html#ab9e9ed944311c42f019c645c3e0539cf" target="_top" xlink:title="Sends a jsonCommand to all the clients.">
<polygon fill="white" stroke="black" points="611,-137.5 611,-156.5 721,-156.5 721,-137.5 611,-137.5"/>
<text text-anchor="middle" x="666" y="-144.5" font-family="Helvetica,sans-Serif" font-size="10.00">server::uiServer::send</text>
</a>
</g>
</g>
<!-- Node2&#45;&gt;Node6 -->
<g id="edge5" class="edge"><title>Node2&#45;&gt;Node6</title>
<path fill="none" stroke="midnightblue" d="M552.238,-147C568.38,-147 585.202,-147 600.776,-147"/>
<polygon fill="midnightblue" stroke="midnightblue" points="600.811,-150.5 610.811,-147 600.811,-143.5 600.811,-150.5"/>
</g>
<!-- Node14 -->
<g id="node14" class="node"><title>Node14</title>
<g id="a_node14"><a xlink:href="../../d1/d48/classserver_1_1main_app.html#a3f2522c9bfcd7593aad9c906d24b6016" target="_top" xlink:title="Adds an event to the history, checking for the maximum number.">
<polygon fill="white" stroke="black" points="595,-88 595,-118 737,-118 737,-88 595,-88"/>
<text text-anchor="start" x="603" y="-106" font-family="Helvetica,sans-Serif" font-size="10.00">server::mainApp::addToEvent</text>
<text text-anchor="middle" x="666" y="-95" font-family="Helvetica,sans-Serif" font-size="10.00">History</text>
</a>
</g>
</g>
<!-- Node2&#45;&gt;Node14 -->
<g id="edge14" class="edge"><title>Node2&#45;&gt;Node14</title>
<path fill="none" stroke="midnightblue" d="M515.444,-137.453C537.141,-132.455 564.387,-126.178 589.66,-120.356"/>
<polygon fill="midnightblue" stroke="midnightblue" points="590.644,-123.721 599.603,-118.065 589.072,-116.9 590.644,-123.721"/>
</g>
<!-- Node5 -->
<g id="node5" class="node"><title>Node5</title>
<g id="a_node5"><a xlink:href="../../db/d8b/classshared_1_1events_1_1cls_event.html#abd4a458aec7673de426a8995a349bf4b" target="_top" xlink:title="Gets the event type as a string.">
<polygon fill="white" stroke="black" points="788,-181 788,-211 910,-211 910,-181 788,-181"/>
<text text-anchor="start" x="796" y="-199" font-family="Helvetica,sans-Serif" font-size="10.00">shared::events::clsEvent</text>
<text text-anchor="middle" x="849" y="-188" font-family="Helvetica,sans-Serif" font-size="10.00">::getEventType</text>
</a>
</g>
</g>
<!-- Node4&#45;&gt;Node5 -->
<g id="edge4" class="edge"><title>Node4&#45;&gt;Node5</title>
<path fill="none" stroke="midnightblue" d="M727.019,-192.658C743.21,-193.105 760.876,-193.593 777.58,-194.055"/>
<polygon fill="midnightblue" stroke="midnightblue" points="777.742,-197.56 787.835,-194.338 777.935,-190.563 777.742,-197.56"/>
</g>
<!-- Node7 -->
<g id="node7" class="node"><title>Node7</title>
<g id="a_node7"><a xlink:href="../../d2/dc1/class_k4_u_1_1json_command.html#a0b681a1fedfb2e89397b1f71e29edf78" target="_top" xlink:title="Transforms this object to a nice JSON string.">
<polygon fill="white" stroke="black" points="780,-132 780,-162 918,-162 918,-132 780,-132"/>
<text text-anchor="start" x="788" y="-150" font-family="Helvetica,sans-Serif" font-size="10.00">K4U::jsonCommand::toJson</text>
<text text-anchor="middle" x="849" y="-139" font-family="Helvetica,sans-Serif" font-size="10.00">String</text>
</a>
</g>
</g>
<!-- Node6&#45;&gt;Node7 -->
<g id="edge6" class="edge"><title>Node6&#45;&gt;Node7</title>
<path fill="none" stroke="midnightblue" d="M721.306,-147C736.569,-147 753.477,-147 769.837,-147"/>
<polygon fill="midnightblue" stroke="midnightblue" points="769.932,-150.5 779.932,-147 769.932,-143.5 769.932,-150.5"/>
</g>
<!-- Node11 -->
<g id="node11" class="node"><title>Node11</title>
<g id="a_node11"><a xlink:href="../../d6/d75/namespace_k4_u.html#aaddaee50fab2801df390147891b0c09d" target="_top" xlink:title="K4U::endl">
<polygon fill="white" stroke="black" points="819.5,-52.5 819.5,-71.5 878.5,-71.5 878.5,-52.5 819.5,-52.5"/>
<text text-anchor="middle" x="849" y="-59.5" font-family="Helvetica,sans-Serif" font-size="10.00">K4U::endl</text>
</a>
</g>
</g>
<!-- Node6&#45;&gt;Node11 -->
<g id="edge10" class="edge"><title>Node6&#45;&gt;Node11</title>
<path fill="none" stroke="midnightblue" d="M721.38,-137.436C729.311,-134.766 737.113,-131.356 744,-127 765.065,-113.677 759.336,-97.9361 780,-84 788.796,-78.0682 799.301,-73.6447 809.393,-70.3836"/>
<polygon fill="midnightblue" stroke="midnightblue" points="810.652,-73.6621 819.269,-67.4972 808.689,-66.9432 810.652,-73.6621"/>
</g>
<!-- Node13 -->
<g id="node13" class="node"><title>Node13</title>
<g id="a_node13"><a xlink:href="../../dc/d4d/classserver_1_1ui_client.html#ad3f8f8690155b186b54e40dcfee0df23" target="_top" xlink:title="Sends data to the socket.">
<polygon fill="white" stroke="black" points="795.5,-93.5 795.5,-112.5 902.5,-112.5 902.5,-93.5 795.5,-93.5"/>
<text text-anchor="middle" x="849" y="-100.5" font-family="Helvetica,sans-Serif" font-size="10.00">server::uiClient::send</text>
</a>
</g>
</g>
<!-- Node6&#45;&gt;Node13 -->
<g id="edge13" class="edge"><title>Node6&#45;&gt;Node13</title>
<path fill="none" stroke="midnightblue" d="M706.274,-137.453C733.432,-130.851 769.766,-122.018 798.846,-114.949"/>
<polygon fill="midnightblue" stroke="midnightblue" points="799.912,-118.292 808.802,-112.529 798.259,-111.49 799.912,-118.292"/>
</g>
<!-- Node8 -->
<g id="node8" class="node"><title>Node8</title>
<g id="a_node8"><a xlink:href="../../d2/dc1/class_k4_u_1_1json_command.html#ac6bc0d606265f47db9bae5a6a40cb244" target="_top" xlink:title="getCommandString">
<polygon fill="white" stroke="black" points="954.5,-176 954.5,-206 1121.5,-206 1121.5,-176 954.5,-176"/>
<text text-anchor="start" x="962.5" y="-194" font-family="Helvetica,sans-Serif" font-size="10.00">K4U::jsonCommand::getCommand</text>
<text text-anchor="middle" x="1038" y="-183" font-family="Helvetica,sans-Serif" font-size="10.00">String</text>
</a>
</g>
</g>
<!-- Node7&#45;&gt;Node8 -->
<g id="edge7" class="edge"><title>Node7&#45;&gt;Node8</title>
<path fill="none" stroke="midnightblue" d="M913.832,-162.019C929.691,-165.751 946.821,-169.781 963.118,-173.616"/>
<polygon fill="midnightblue" stroke="midnightblue" points="962.603,-177.09 973.139,-175.974 964.206,-170.276 962.603,-177.09"/>
</g>
<!-- Node9 -->
<g id="node9" class="node"><title>Node9</title>
<g id="a_node9"><a xlink:href="../../d2/dc1/class_k4_u_1_1json_command.html#ab408a8b051e005a7156e19ea8a1f7f3a" target="_top" xlink:title="Gets all data items.">
<polygon fill="white" stroke="black" points="966.5,-137.5 966.5,-156.5 1109.5,-156.5 1109.5,-137.5 966.5,-137.5"/>
<text text-anchor="middle" x="1038" y="-144.5" font-family="Helvetica,sans-Serif" font-size="10.00">K4U::jsonCommand::getData</text>
</a>
</g>
</g>
<!-- Node7&#45;&gt;Node9 -->
<g id="edge8" class="edge"><title>Node7&#45;&gt;Node9</title>
<path fill="none" stroke="midnightblue" d="M918.04,-147C930.483,-147 943.577,-147 956.345,-147"/>
<polygon fill="midnightblue" stroke="midnightblue" points="956.496,-150.5 966.496,-147 956.496,-143.5 956.496,-150.5"/>
</g>
<!-- Node10 -->
<g id="node10" class="node"><title>Node10</title>
<g id="a_node10"><a xlink:href="../../d2/d6d/namespace_qt_json.html#ace7d6102379674932334bea04fb15c12" target="_top" xlink:title="QtJson::serialize">
<polygon fill="white" stroke="black" points="993.5,-99.5 993.5,-118.5 1082.5,-118.5 1082.5,-99.5 993.5,-99.5"/>
<text text-anchor="middle" x="1038" y="-106.5" font-family="Helvetica,sans-Serif" font-size="10.00">QtJson::serialize</text>
</a>
</g>
</g>
<!-- Node7&#45;&gt;Node10 -->
<g id="edge9" class="edge"><title>Node7&#45;&gt;Node10</title>
<path fill="none" stroke="midnightblue" d="M918.04,-133.174C939.57,-128.799 963.05,-124.027 983.418,-119.888"/>
<polygon fill="midnightblue" stroke="midnightblue" points="984.348,-123.271 993.451,-117.85 982.954,-116.411 984.348,-123.271"/>
</g>
<!-- Node12 -->
<g id="node12" class="node"><title>Node12</title>
<g id="a_node12"><a xlink:href="../../da/d64/class_k4_u_1_1cls_log.html#a81f179b2ccb3e2abeb9b47f5b83de935" target="_top" xlink:title="K4U::clsLog::doEndl">
<polygon fill="white" stroke="black" points="985,-52.5 985,-71.5 1091,-71.5 1091,-52.5 985,-52.5"/>
<text text-anchor="middle" x="1038" y="-59.5" font-family="Helvetica,sans-Serif" font-size="10.00">K4U::clsLog::doEndl</text>
</a>
</g>
</g>
<!-- Node11&#45;&gt;Node12 -->
<g id="edge11" class="edge"><title>Node11&#45;&gt;Node12</title>
<path fill="none" stroke="midnightblue" d="M878.809,-56.964C904.232,-55.3112 942.17,-54.8537 974.52,-55.5916"/>
<polygon fill="midnightblue" stroke="midnightblue" points="974.712,-59.0981 984.804,-55.8732 974.904,-52.1007 974.712,-59.0981"/>
</g>
<!-- Node12&#45;&gt;Node11 -->
<g id="edge12" class="edge"><title>Node12&#45;&gt;Node11</title>
<path fill="none" stroke="midnightblue" d="M984.804,-68.1268C954.411,-69.1062 916.73,-68.9312 888.94,-67.602"/>
<polygon fill="midnightblue" stroke="midnightblue" points="888.989,-64.0994 878.809,-67.036 888.598,-71.0885 888.989,-64.0994"/>
</g>
<!-- Node15&#45;&gt;Node2 -->
<g id="edge16" class="edge"><title>Node15&#45;&gt;Node2</title>
<path fill="none" stroke="midnightblue" d="M327.702,-118.589C353.859,-123.739 386.284,-130.123 413.767,-135.534"/>
<polygon fill="midnightblue" stroke="midnightblue" points="413.16,-138.982 423.648,-137.48 414.513,-132.114 413.16,-138.982"/>
</g>
<!-- Node16 -->
<g id="node16" class="node"><title>Node16</title>
<g id="a_node16"><a xlink:href="../../d1/d10/classserver_1_1irc_client.html#a43b0e50c5bf5ba76b5a09917e779c1ea" target="_top" xlink:title="connects to the IRC server. Sets the whole thing in motion">
<polygon fill="white" stroke="black" points="428.5,-44 428.5,-74 517.5,-74 517.5,-44 428.5,-44"/>
<text text-anchor="start" x="436.5" y="-62" font-family="Helvetica,sans-Serif" font-size="10.00">server::ircClient::</text>
<text text-anchor="middle" x="473" y="-51" font-family="Helvetica,sans-Serif" font-size="10.00">doConnect</text>
</a>
</g>
</g>
<!-- Node15&#45;&gt;Node16 -->
<g id="edge17" class="edge"><title>Node15&#45;&gt;Node16</title>
<path fill="none" stroke="midnightblue" d="M315.756,-99.4777C344.797,-91.9541 385.74,-81.3473 418.428,-72.8787"/>
<polygon fill="midnightblue" stroke="midnightblue" points="419.483,-76.2211 428.285,-70.325 417.727,-69.4448 419.483,-76.2211"/>
</g>
<!-- Node16&#45;&gt;Node11 -->
<g id="edge18" class="edge"><title>Node16&#45;&gt;Node11</title>
<path fill="none" stroke="midnightblue" d="M517.635,-59.35C591.13,-59.9395 738.465,-61.1214 808.837,-61.6859"/>
<polygon fill="midnightblue" stroke="midnightblue" points="809.017,-65.1873 819.045,-61.7677 809.074,-58.1875 809.017,-65.1873"/>
</g>
<!-- Node17 -->
<g id="node17" class="node"><title>Node17</title>
<g id="a_node17"><a xlink:href="../../d1/d10/classserver_1_1irc_client.html#a9f9877406894f9b49bce12d8ad094bd7" target="_top" xlink:title="server::ircClient::\lconnectTimeout">
<polygon fill="white" stroke="black" points="621.5,-0 621.5,-30 710.5,-30 710.5,-0 621.5,-0"/>
<text text-anchor="start" x="629.5" y="-18" font-family="Helvetica,sans-Serif" font-size="10.00">server::ircClient::</text>
<text text-anchor="middle" x="666" y="-7" font-family="Helvetica,sans-Serif" font-size="10.00">connectTimeout</text>
</a>
</g>
</g>
<!-- Node16&#45;&gt;Node17 -->
<g id="edge19" class="edge"><title>Node16&#45;&gt;Node17</title>
<path fill="none" stroke="midnightblue" d="M517.819,-48.9055C545.723,-42.4774 582.051,-34.1086 611.633,-27.294"/>
<polygon fill="midnightblue" stroke="midnightblue" points="612.426,-30.7031 621.385,-25.0475 610.854,-23.8818 612.426,-30.7031"/>
</g>
<!-- Node18 -->
<g id="node18" class="node"><title>Node18</title>
<g id="a_node18"><a xlink:href="../../d1/d10/classserver_1_1irc_client.html#a6e73d106182456e97f48db009a29642d" target="_top" xlink:title="Emitted when a connection cannot be made after MAX_CONNECT_TIMEOUT_IN_MS.">
<polygon fill="white" stroke="black" points="796.5,-0 796.5,-30 901.5,-30 901.5,-0 796.5,-0"/>
<text text-anchor="start" x="804.5" y="-18" font-family="Helvetica,sans-Serif" font-size="10.00">server::ircClient::</text>
<text text-anchor="middle" x="849" y="-7" font-family="Helvetica,sans-Serif" font-size="10.00">IRCConnectTimeOut</text>
</a>
</g>
</g>
<!-- Node17&#45;&gt;Node18 -->
<g id="edge20" class="edge"><title>Node17&#45;&gt;Node18</title>
<path fill="none" stroke="midnightblue" d="M710.815,-15C733.436,-15 761.415,-15 786.194,-15"/>
<polygon fill="midnightblue" stroke="midnightblue" points="786.231,-18.5001 796.231,-15 786.231,-11.5001 786.231,-18.5001"/>
</g>
</g>
</svg>
