<?xml version="1.0" encoding="UTF-8" standalone="no"?>
<!DOCTYPE svg PUBLIC "-//W3C//DTD SVG 1.1//EN"
 "http://www.w3.org/Graphics/SVG/1.1/DTD/svg11.dtd">
<!-- Generated by graphviz version 2.30.1 (20130303.0817)
 -->
<!-- Title: server::mainApp::userChangeStatus Pages: 1 -->
<!--zoomable 504 -->
<svg id="main" version="1.1" xmlns="http://www.w3.org/2000/svg" xmlns:xlink="http://www.w3.org/1999/xlink" xml:space="preserve" onload="init(evt)">
        <defs>
                <circle id="rim" cx="0" cy="0" r="7"/>
                <circle id="rim2" cx="0" cy="0" r="3.5"/>
                <g id="zoomPlus">
                        <use xlink:href="#rim" fill="#404040">
                                <set attributeName="fill" to="#808080" begin="zoomplus.mouseover" end="zoomplus.mouseout"/>
                        </use>
                        <path d="M-4,0h8M0,-4v8" fill="none" stroke="white" stroke-width="1.5" pointer-events="none"/>
                </g>
                <g id="zoomMin">
                        <use xlink:href="#rim" fill="#404040">
                                <set attributeName="fill" to="#808080" begin="zoomminus.mouseover" end="zoomminus.mouseout"/>
                        </use>
                        <path d="M-4,0h8" fill="none" stroke="white" stroke-width="1.5" pointer-events="none"/>
                </g>
                <g id="dirArrow">
                        <path fill="none" stroke="white" stroke-width="1.5" d="M0,-3.0v7 M-2.5,-0.5L0,-3.0L2.5,-0.5"/>
                </g>
               <g id="resetDef">
                       <use xlink:href="#rim2" fill="#404040">
                               <set attributeName="fill" to="#808080" begin="reset.mouseover" end="reset.mouseout"/>
                       </use>
               </g>
        </defs>

<script type="text/javascript">
var viewWidth = 722;
var viewHeight = 504;
var sectionId = 'dynsection-14';
</script>
<script xlink:href="../../svgpan.js"/>
<svg id="graph" class="graph">
<g id="viewport">
<title>server::mainApp::userChangeStatus</title>
<polygon fill="white" stroke="white" points="-4,5 -4,-500 719,-500 719,5 -4,5"/>
<!-- Node1 -->
<g id="node1" class="node"><title>Node1</title>
<polygon fill="#bfbfbf" stroke="black" points="0,-247 0,-277 144,-277 144,-247 0,-247"/>
<text text-anchor="start" x="8" y="-265" font-family="Helvetica,sans-Serif" font-size="10.00">server::mainApp::userChange</text>
<text text-anchor="middle" x="72" y="-254" font-family="Helvetica,sans-Serif" font-size="10.00">Status</text>
</g>
<!-- Node2 -->
<g id="node2" class="node"><title>Node2</title>
<g id="a_node2"><a xlink:href="../../d6/d75/namespace_k4_u.html#aaddaee50fab2801df390147891b0c09d" target="_top" xlink:title="K4U::endl">
<polygon fill="white" stroke="black" points="411.5,-126.5 411.5,-145.5 470.5,-145.5 470.5,-126.5 411.5,-126.5"/>
<text text-anchor="middle" x="441" y="-133.5" font-family="Helvetica,sans-Serif" font-size="10.00">K4U::endl</text>
</a>
</g>
</g>
<!-- Node1&#45;&gt;Node2 -->
<g id="edge1" class="edge"><title>Node1&#45;&gt;Node2</title>
<path fill="none" stroke="midnightblue" d="M82.659,-246.935C99.2164,-222.604 135.567,-175.333 180,-155 252.577,-121.788 348.542,-125.317 401.232,-130.728"/>
<polygon fill="midnightblue" stroke="midnightblue" points="401.16,-134.241 411.484,-131.862 401.93,-127.284 401.16,-134.241"/>
</g>
<!-- Node4 -->
<g id="node4" class="node"><title>Node4</title>
<g id="a_node4"><a xlink:href="../../d4/d08/classserver_1_1irc_user_list.html#af2d5bdaf2ccd658679c933390500f0e2" target="_top" xlink:title="Finds a user based on IRC&#45;ID or nick.">
<polygon fill="white" stroke="black" points="210.5,-417 210.5,-447 305.5,-447 305.5,-417 210.5,-417"/>
<text text-anchor="start" x="218.5" y="-435" font-family="Helvetica,sans-Serif" font-size="10.00">server::ircUserList</text>
<text text-anchor="middle" x="258" y="-424" font-family="Helvetica,sans-Serif" font-size="10.00">::getUser</text>
</a>
</g>
</g>
<!-- Node1&#45;&gt;Node4 -->
<g id="edge4" class="edge"><title>Node1&#45;&gt;Node4</title>
<path fill="none" stroke="midnightblue" d="M80.9174,-277.255C96.3423,-305.597 133.06,-366.694 180,-402 186.369,-406.79 193.599,-410.914 201.017,-414.435"/>
<polygon fill="midnightblue" stroke="midnightblue" points="199.899,-417.767 210.463,-418.578 202.71,-411.356 199.899,-417.767"/>
</g>
<!-- Node6 -->
<g id="node6" class="node"><title>Node6</title>
<g id="a_node6"><a xlink:href="../../d2/d29/classserver_1_1irc_user.html#a9b5683eaeb89557d6e1b1e57708aeb35" target="_top" xlink:title="server::ircUser::getName">
<polygon fill="white" stroke="black" points="379,-378.5 379,-397.5 503,-397.5 503,-378.5 379,-378.5"/>
<text text-anchor="middle" x="441" y="-385.5" font-family="Helvetica,sans-Serif" font-size="10.00">server::ircUser::getName</text>
</a>
</g>
</g>
<!-- Node1&#45;&gt;Node6 -->
<g id="edge8" class="edge"><title>Node1&#45;&gt;Node6</title>
<path fill="none" stroke="midnightblue" d="M82.9733,-277.297C99.7169,-301.488 136.004,-347.89 180,-368 239.473,-395.185 314.604,-398.06 368.791,-395.403"/>
<polygon fill="midnightblue" stroke="midnightblue" points="369.211,-398.885 378.997,-394.826 368.815,-391.897 369.211,-398.885"/>
</g>
<!-- Node8 -->
<g id="node8" class="node"><title>Node8</title>
<g id="a_node8"><a xlink:href="../../d2/d29/classserver_1_1irc_user.html#afb3f6602401d493fb06fc48973123bf9" target="_top" xlink:title="server::ircUser::setStatus">
<polygon fill="white" stroke="black" points="194.5,-290.5 194.5,-309.5 321.5,-309.5 321.5,-290.5 194.5,-290.5"/>
<text text-anchor="middle" x="258" y="-297.5" font-family="Helvetica,sans-Serif" font-size="10.00">server::ircUser::setStatus</text>
</a>
</g>
</g>
<!-- Node1&#45;&gt;Node8 -->
<g id="edge9" class="edge"><title>Node1&#45;&gt;Node8</title>
<path fill="none" stroke="midnightblue" d="M144.139,-276.692C162.822,-280.55 182.716,-284.659 200.515,-288.335"/>
<polygon fill="midnightblue" stroke="midnightblue" points="200.226,-291.849 210.728,-290.444 201.642,-284.993 200.226,-291.849"/>
</g>
<!-- Node9 -->
<g id="node9" class="node"><title>Node9</title>
<g id="a_node9"><a xlink:href="../../d2/d29/classserver_1_1irc_user.html#a7d729b6e71c3f381a1db0cec57520c39" target="_top" xlink:title="getId">
<polygon fill="white" stroke="black" points="205,-252.5 205,-271.5 311,-271.5 311,-252.5 205,-252.5"/>
<text text-anchor="middle" x="258" y="-259.5" font-family="Helvetica,sans-Serif" font-size="10.00">server::ircUser::getId</text>
</a>
</g>
</g>
<!-- Node1&#45;&gt;Node9 -->
<g id="edge10" class="edge"><title>Node1&#45;&gt;Node9</title>
<path fill="none" stroke="midnightblue" d="M144.139,-262C160.731,-262 178.277,-262 194.464,-262"/>
<polygon fill="midnightblue" stroke="midnightblue" points="194.88,-265.5 204.88,-262 194.88,-258.5 194.88,-265.5"/>
</g>
<!-- Node10 -->
<g id="node10" class="node"><title>Node10</title>
<g id="a_node10"><a xlink:href="../../d1/d48/classserver_1_1main_app.html#a3f2522c9bfcd7593aad9c906d24b6016" target="_top" xlink:title="Adds an event to the history, checking for the maximum number.">
<polygon fill="white" stroke="black" points="187,-203 187,-233 329,-233 329,-203 187,-203"/>
<text text-anchor="start" x="195" y="-221" font-family="Helvetica,sans-Serif" font-size="10.00">server::mainApp::addToEvent</text>
<text text-anchor="middle" x="258" y="-210" font-family="Helvetica,sans-Serif" font-size="10.00">History</text>
</a>
</g>
</g>
<!-- Node1&#45;&gt;Node10 -->
<g id="edge11" class="edge"><title>Node1&#45;&gt;Node10</title>
<path fill="none" stroke="midnightblue" d="M135.808,-246.981C151.413,-243.249 168.267,-239.219 184.303,-235.384"/>
<polygon fill="midnightblue" stroke="midnightblue" points="185.251,-238.756 194.163,-233.026 183.623,-231.948 185.251,-238.756"/>
</g>
<!-- Node11 -->
<g id="node11" class="node"><title>Node11</title>
<g id="a_node11"><a xlink:href="../../d2/dc1/class_k4_u_1_1json_command.html#aa0629328322fb09be4494a0826bb19b5" target="_top" xlink:title="Adds data to the internal data map.">
<polygon fill="white" stroke="black" points="180.5,-164.5 180.5,-183.5 335.5,-183.5 335.5,-164.5 180.5,-164.5"/>
<text text-anchor="middle" x="258" y="-171.5" font-family="Helvetica,sans-Serif" font-size="10.00">K4U::jsonCommand::addToData</text>
</a>
</g>
</g>
<!-- Node1&#45;&gt;Node11 -->
<g id="edge12" class="edge"><title>Node1&#45;&gt;Node11</title>
<path fill="none" stroke="midnightblue" d="M92.4585,-246.979C113.138,-231.671 147.3,-208.217 180,-194 186.618,-191.123 193.742,-188.587 200.89,-186.373"/>
<polygon fill="midnightblue" stroke="midnightblue" points="201.98,-189.701 210.607,-183.551 200.028,-182.978 201.98,-189.701"/>
</g>
<!-- Node12 -->
<g id="node12" class="node"><title>Node12</title>
<g id="a_node12"><a xlink:href="../../db/d8b/classshared_1_1events_1_1cls_event.html#a48d11c9b50a2569c1065f19ca87d0715" target="_top" xlink:title="Converts the current data to a QVariant for sending with JSON.">
<polygon fill="white" stroke="black" points="197,-329 197,-359 319,-359 319,-329 197,-329"/>
<text text-anchor="start" x="205" y="-347" font-family="Helvetica,sans-Serif" font-size="10.00">shared::events::clsEvent</text>
<text text-anchor="middle" x="258" y="-336" font-family="Helvetica,sans-Serif" font-size="10.00">::toVariant</text>
</a>
</g>
</g>
<!-- Node1&#45;&gt;Node12 -->
<g id="edge13" class="edge"><title>Node1&#45;&gt;Node12</title>
<path fill="none" stroke="midnightblue" d="M98.3243,-277.123C119.624,-289.441 151.135,-306.738 180,-319 185.387,-321.288 191.058,-323.494 196.78,-325.582"/>
<polygon fill="midnightblue" stroke="midnightblue" points="195.819,-328.955 206.413,-328.982 198.148,-322.354 195.819,-328.955"/>
</g>
<!-- Node14 -->
<g id="node14" class="node"><title>Node14</title>
<g id="a_node14"><a xlink:href="../../df/dd2/classserver_1_1ui_server.html#ab9e9ed944311c42f019c645c3e0539cf" target="_top" xlink:title="Sends a jsonCommand to all the clients.">
<polygon fill="white" stroke="black" points="203,-88.5 203,-107.5 313,-107.5 313,-88.5 203,-88.5"/>
<text text-anchor="middle" x="258" y="-95.5" font-family="Helvetica,sans-Serif" font-size="10.00">server::uiServer::send</text>
</a>
</g>
</g>
<!-- Node1&#45;&gt;Node14 -->
<g id="edge15" class="edge"><title>Node1&#45;&gt;Node14</title>
<path fill="none" stroke="midnightblue" d="M80.4597,-246.884C95.3683,-218.224 131.613,-155.832 180,-122 186.154,-117.697 193.108,-114.144 200.258,-111.215"/>
<polygon fill="midnightblue" stroke="midnightblue" points="201.9,-114.34 210.071,-107.597 199.478,-107.773 201.9,-114.34"/>
</g>
<!-- Node3 -->
<g id="node3" class="node"><title>Node3</title>
<g id="a_node3"><a xlink:href="../../da/d64/class_k4_u_1_1cls_log.html#a81f179b2ccb3e2abeb9b47f5b83de935" target="_top" xlink:title="K4U::clsLog::doEndl">
<polygon fill="white" stroke="black" points="577,-126.5 577,-145.5 683,-145.5 683,-126.5 577,-126.5"/>
<text text-anchor="middle" x="630" y="-133.5" font-family="Helvetica,sans-Serif" font-size="10.00">K4U::clsLog::doEndl</text>
</a>
</g>
</g>
<!-- Node2&#45;&gt;Node3 -->
<g id="edge2" class="edge"><title>Node2&#45;&gt;Node3</title>
<path fill="none" stroke="midnightblue" d="M470.809,-130.964C496.232,-129.311 534.17,-128.854 566.52,-129.592"/>
<polygon fill="midnightblue" stroke="midnightblue" points="566.712,-133.098 576.804,-129.873 566.904,-126.101 566.712,-133.098"/>
</g>
<!-- Node3&#45;&gt;Node2 -->
<g id="edge3" class="edge"><title>Node3&#45;&gt;Node2</title>
<path fill="none" stroke="midnightblue" d="M576.804,-142.127C546.411,-143.106 508.73,-142.931 480.94,-141.602"/>
<polygon fill="midnightblue" stroke="midnightblue" points="480.989,-138.099 470.809,-141.036 480.598,-145.088 480.989,-138.099"/>
</g>
<!-- Node5 -->
<g id="node5" class="node"><title>Node5</title>
<g id="a_node5"><a xlink:href="../../d4/d08/classserver_1_1irc_user_list.html#a105ff952c0e653bdc765adc58d3e702b" target="_top" xlink:title="Gets a user by his IRC&#45;ID.">
<polygon fill="white" stroke="black" points="393.5,-417 393.5,-447 488.5,-447 488.5,-417 393.5,-417"/>
<text text-anchor="start" x="401.5" y="-435" font-family="Helvetica,sans-Serif" font-size="10.00">server::ircUserList</text>
<text text-anchor="middle" x="441" y="-424" font-family="Helvetica,sans-Serif" font-size="10.00">::getUserByIrcId</text>
</a>
</g>
</g>
<!-- Node4&#45;&gt;Node5 -->
<g id="edge5" class="edge"><title>Node4&#45;&gt;Node5</title>
<path fill="none" stroke="midnightblue" d="M305.612,-432C329.271,-432 358.211,-432 383.168,-432"/>
<polygon fill="midnightblue" stroke="midnightblue" points="383.232,-435.5 393.232,-432 383.232,-428.5 383.232,-435.5"/>
</g>
<!-- Node4&#45;&gt;Node6 -->
<g id="edge6" class="edge"><title>Node4&#45;&gt;Node6</title>
<path fill="none" stroke="midnightblue" d="M305.612,-420.669C331.804,-414.302 364.467,-406.362 391.032,-399.904"/>
<polygon fill="midnightblue" stroke="midnightblue" points="391.999,-403.271 400.889,-397.508 390.346,-396.469 391.999,-403.271"/>
</g>
<!-- Node7 -->
<g id="node7" class="node"><title>Node7</title>
<g id="a_node7"><a xlink:href="../../d4/d08/classserver_1_1irc_user_list.html#a7f99e64e1cabde876fa6a827c6614a4e" target="_top" xlink:title="Finds a user based on his nick and status.">
<polygon fill="white" stroke="black" points="393.5,-466 393.5,-496 488.5,-496 488.5,-466 393.5,-466"/>
<text text-anchor="start" x="401.5" y="-484" font-family="Helvetica,sans-Serif" font-size="10.00">server::ircUserList</text>
<text text-anchor="middle" x="441" y="-473" font-family="Helvetica,sans-Serif" font-size="10.00">::getUserByNick</text>
</a>
</g>
</g>
<!-- Node4&#45;&gt;Node7 -->
<g id="edge7" class="edge"><title>Node4&#45;&gt;Node7</title>
<path fill="none" stroke="midnightblue" d="M305.612,-444.619C329.377,-451.052 358.469,-458.928 383.5,-465.704"/>
<polygon fill="midnightblue" stroke="midnightblue" points="382.665,-469.104 393.232,-468.339 384.494,-462.347 382.665,-469.104"/>
</g>
<!-- Node13 -->
<g id="node13" class="node"><title>Node13</title>
<g id="a_node13"><a xlink:href="../../db/d8b/classshared_1_1events_1_1cls_event.html#abd4a458aec7673de426a8995a349bf4b" target="_top" xlink:title="Gets the event type as a string.">
<polygon fill="white" stroke="black" points="380,-329 380,-359 502,-359 502,-329 380,-329"/>
<text text-anchor="start" x="388" y="-347" font-family="Helvetica,sans-Serif" font-size="10.00">shared::events::clsEvent</text>
<text text-anchor="middle" x="441" y="-336" font-family="Helvetica,sans-Serif" font-size="10.00">::getEventType</text>
</a>
</g>
</g>
<!-- Node12&#45;&gt;Node13 -->
<g id="edge14" class="edge"><title>Node12&#45;&gt;Node13</title>
<path fill="none" stroke="midnightblue" d="M319.019,-344C335.21,-344 352.876,-344 369.58,-344"/>
<polygon fill="midnightblue" stroke="midnightblue" points="369.835,-347.5 379.835,-344 369.835,-340.5 369.835,-347.5"/>
</g>
<!-- Node15 -->
<g id="node15" class="node"><title>Node15</title>
<g id="a_node15"><a xlink:href="../../d2/dc1/class_k4_u_1_1json_command.html#a0b681a1fedfb2e89397b1f71e29edf78" target="_top" xlink:title="Transforms this object to a nice JSON string.">
<polygon fill="white" stroke="black" points="372,-39 372,-69 510,-69 510,-39 372,-39"/>
<text text-anchor="start" x="380" y="-57" font-family="Helvetica,sans-Serif" font-size="10.00">K4U::jsonCommand::toJson</text>
<text text-anchor="middle" x="441" y="-46" font-family="Helvetica,sans-Serif" font-size="10.00">String</text>
</a>
</g>
</g>
<!-- Node14&#45;&gt;Node15 -->
<g id="edge16" class="edge"><title>Node14&#45;&gt;Node15</title>
<path fill="none" stroke="midnightblue" d="M298.274,-88.4527C318.744,-83.4767 344.426,-77.2334 368.287,-71.4331"/>
<polygon fill="midnightblue" stroke="midnightblue" points="369.136,-74.8285 378.027,-69.0654 367.483,-68.0266 369.136,-74.8285"/>
</g>
<!-- Node14&#45;&gt;Node2 -->
<g id="edge20" class="edge"><title>Node14&#45;&gt;Node2</title>
<path fill="none" stroke="midnightblue" d="M304.674,-107.589C334.521,-113.855 373.07,-121.948 401.386,-127.893"/>
<polygon fill="midnightblue" stroke="midnightblue" points="400.814,-131.349 411.32,-129.979 402.253,-124.499 400.814,-131.349"/>
</g>
<!-- Node19 -->
<g id="node19" class="node"><title>Node19</title>
<g id="a_node19"><a xlink:href="../../dc/d4d/classserver_1_1ui_client.html#ad3f8f8690155b186b54e40dcfee0df23" target="_top" xlink:title="Sends data to the socket.">
<polygon fill="white" stroke="black" points="387.5,-88.5 387.5,-107.5 494.5,-107.5 494.5,-88.5 387.5,-88.5"/>
<text text-anchor="middle" x="441" y="-95.5" font-family="Helvetica,sans-Serif" font-size="10.00">server::uiClient::send</text>
</a>
</g>
</g>
<!-- Node14&#45;&gt;Node19 -->
<g id="edge21" class="edge"><title>Node14&#45;&gt;Node19</title>
<path fill="none" stroke="midnightblue" d="M313.306,-98C333.441,-98 356.437,-98 377.262,-98"/>
<polygon fill="midnightblue" stroke="midnightblue" points="377.288,-101.5 387.288,-98 377.288,-94.5001 377.288,-101.5"/>
</g>
<!-- Node16 -->
<g id="node16" class="node"><title>Node16</title>
<g id="a_node16"><a xlink:href="../../d2/dc1/class_k4_u_1_1json_command.html#ac6bc0d606265f47db9bae5a6a40cb244" target="_top" xlink:title="getCommandString">
<polygon fill="white" stroke="black" points="546.5,-39 546.5,-69 713.5,-69 713.5,-39 546.5,-39"/>
<text text-anchor="start" x="554.5" y="-57" font-family="Helvetica,sans-Serif" font-size="10.00">K4U::jsonCommand::getCommand</text>
<text text-anchor="middle" x="630" y="-46" font-family="Helvetica,sans-Serif" font-size="10.00">String</text>
</a>
</g>
</g>
<!-- Node15&#45;&gt;Node16 -->
<g id="edge17" class="edge"><title>Node15&#45;&gt;Node16</title>
<path fill="none" stroke="midnightblue" d="M510.04,-54C518.522,-54 527.306,-54 536.083,-54"/>
<polygon fill="midnightblue" stroke="midnightblue" points="536.366,-57.5001 546.366,-54 536.366,-50.5001 536.366,-57.5001"/>
</g>
<!-- Node17 -->
<g id="node17" class="node"><title>Node17</title>
<g id="a_node17"><a xlink:href="../../d2/dc1/class_k4_u_1_1json_command.html#ab408a8b051e005a7156e19ea8a1f7f3a" target="_top" xlink:title="Gets all data items.">
<polygon fill="white" stroke="black" points="558.5,-0.5 558.5,-19.5 701.5,-19.5 701.5,-0.5 558.5,-0.5"/>
<text text-anchor="middle" x="630" y="-7.5" font-family="Helvetica,sans-Serif" font-size="10.00">K4U::jsonCommand::getData</text>
</a>
</g>
</g>
<!-- Node15&#45;&gt;Node17 -->
<g id="edge18" class="edge"><title>Node15&#45;&gt;Node17</title>
<path fill="none" stroke="midnightblue" d="M505.832,-38.9808C529.596,-33.3892 556.213,-27.1265 578.606,-21.8574"/>
<polygon fill="midnightblue" stroke="midnightblue" points="579.64,-25.2098 588.572,-19.5124 578.036,-18.3959 579.64,-25.2098"/>
</g>
<!-- Node18 -->
<g id="node18" class="node"><title>Node18</title>
<g id="a_node18"><a xlink:href="../../d2/d6d/namespace_qt_json.html#ace7d6102379674932334bea04fb15c12" target="_top" xlink:title="QtJson::serialize">
<polygon fill="white" stroke="black" points="585.5,-88.5 585.5,-107.5 674.5,-107.5 674.5,-88.5 585.5,-88.5"/>
<text text-anchor="middle" x="630" y="-95.5" font-family="Helvetica,sans-Serif" font-size="10.00">QtJson::serialize</text>
</a>
</g>
</g>
<!-- Node15&#45;&gt;Node18 -->
<g id="edge19" class="edge"><title>Node15&#45;&gt;Node18</title>
<path fill="none" stroke="midnightblue" d="M505.832,-69.0192C529.596,-74.6108 556.213,-80.8735 578.606,-86.1426"/>
<polygon fill="midnightblue" stroke="midnightblue" points="578.036,-89.6041 588.572,-88.4876 579.64,-82.7902 578.036,-89.6041"/>
</g>
</g>
</svg>
        <g id="navigator" transform="translate(0 0)" fill="#404254">
                <rect fill="#f2f5e9" fill-opacity="0.5" stroke="#606060" stroke-width=".5" x="0" y="0" width="60" height="60"/>
                <use id="zoomplus" xlink:href="#zoomPlus" x="17" y="9" onmousedown="handleZoom(evt,'in')"/>
                <use id="zoomminus" xlink:href="#zoomMin" x="42" y="9" onmousedown="handleZoom(evt,'out')"/>
                <use id="reset" xlink:href="#resetDef" x="30" y="36" onmousedown="handleReset()"/>
                <g id="arrowUp" xlink:href="#dirArrow" transform="translate(30 24)" onmousedown="handlePan(0,-1)">
                  <use xlink:href="#rim" fill="#404040">
                        <set attributeName="fill" to="#808080" begin="arrowUp.mouseover" end="arrowUp.mouseout"/>
                  </use>
                  <path fill="none" stroke="white" stroke-width="1.5" d="M0,-3.0v7 M-2.5,-0.5L0,-3.0L2.5,-0.5"/>
                </g>
                <g id="arrowRight" xlink:href="#dirArrow" transform="rotate(90) translate(36 -43)" onmousedown="handlePan(1,0)">
                  <use xlink:href="#rim" fill="#404040">
                        <set attributeName="fill" to="#808080" begin="arrowRight.mouseover" end="arrowRight.mouseout"/>
                  </use>
                  <path fill="none" stroke="white" stroke-width="1.5" d="M0,-3.0v7 M-2.5,-0.5L0,-3.0L2.5,-0.5"/>
                </g>
                <g id="arrowDown" xlink:href="#dirArrow" transform="rotate(180) translate(-30 -48)" onmousedown="handlePan(0,1)">
                  <use xlink:href="#rim" fill="#404040">
                        <set attributeName="fill" to="#808080" begin="arrowDown.mouseover" end="arrowDown.mouseout"/>
                  </use>
                  <path fill="none" stroke="white" stroke-width="1.5" d="M0,-3.0v7 M-2.5,-0.5L0,-3.0L2.5,-0.5"/>
                </g>
                <g id="arrowLeft" xlink:href="#dirArrow" transform="rotate(270) translate(-36 17)" onmousedown="handlePan(-1,0)">
                  <use xlink:href="#rim" fill="#404040">
                        <set attributeName="fill" to="#808080" begin="arrowLeft.mouseover" end="arrowLeft.mouseout"/>
                  </use>
                  <path fill="none" stroke="white" stroke-width="1.5" d="M0,-3.0v7 M-2.5,-0.5L0,-3.0L2.5,-0.5"/>
                </g>
        </g>
        <svg viewBox="0 0 15 15" width="100%" height="30px" preserveAspectRatio="xMaxYMin meet">
         <g id="arrow_out" transform="scale(0.3 0.3)">
          <a xlink:href="classserver_1_1main_app_aaa3dd74b510e2d797f21293a622a4f7d_cgraph_org.svg" target="_base">
           <rect id="button" ry="5" rx="5" y="6" x="6" height="38" width="38"
                fill="#f2f5e9" fill-opacity="0.5" stroke="#606060" stroke-width="1.0"/>
           <path id="arrow"
             d="M 11.500037,31.436501 C 11.940474,20.09759 22.043105,11.32322 32.158766,21.979434 L 37.068811,17.246167 C 37.068811,17.246167 37.088388,32 37.088388,32 L 22.160133,31.978069 C 22.160133,31.978069 26.997745,27.140456 26.997745,27.140456 C 18.528582,18.264221 13.291696,25.230495 11.500037,31.436501 z"
             style="fill:#404040;"/>
          </a>
         </g>
        </svg>
</svg>
