<?xml version="1.0" encoding="UTF-8" standalone="no"?>
<!DOCTYPE svg PUBLIC "-//W3C//DTD SVG 1.1//EN"
 "http://www.w3.org/Graphics/SVG/1.1/DTD/svg11.dtd">
<!-- Generated by graphviz version 2.30.1 (20130303.0817)
 -->
<!-- Title: server::mainApp::userChangeStatus Pages: 1 -->
<svg width="368pt" height="38pt"
 viewBox="0.00 0.00 368.00 38.00" xmlns="http://www.w3.org/2000/svg" xmlns:xlink="http://www.w3.org/1999/xlink">
<g id="graph0" class="graph" transform="scale(1 1) rotate(0) translate(4 34)">
<title>server::mainApp::userChangeStatus</title>
<polygon fill="white" stroke="white" points="-4,5 -4,-34 365,-34 365,5 -4,5"/>
<!-- Node1 -->
<g id="node1" class="node"><title>Node1</title>
<polygon fill="#bfbfbf" stroke="black" points="0,-0 0,-30 144,-30 144,-0 0,-0"/>
<text text-anchor="start" x="8" y="-18" font-family="Helvetica,sans-Serif" font-size="10.00">server::mainApp::userChange</text>
<text text-anchor="middle" x="72" y="-7" font-family="Helvetica,sans-Serif" font-size="10.00">Status</text>
</g>
<!-- Node2 -->
<g id="node2" class="node"><title>Node2</title>
<g id="a_node2"><a xlink:href="../../d1/d48/classserver_1_1main_app.html#af331bc3bf60e745f3ddc95ab3abe5188" target="_top" xlink:title="server::mainApp::run">
<polygon fill="white" stroke="black" points="180,-5.5 180,-24.5 286,-24.5 286,-5.5 180,-5.5"/>
<text text-anchor="middle" x="233" y="-12.5" font-family="Helvetica,sans-Serif" font-size="10.00">server::mainApp::run</text>
</a>
</g>
</g>
<!-- Node1&#45;&gt;Node2 -->
<g id="edge1" class="edge"><title>Node1&#45;&gt;Node2</title>
<path fill="none" stroke="midnightblue" d="M154.351,-15C163.069,-15 171.757,-15 179.996,-15"/>
<polygon fill="midnightblue" stroke="midnightblue" points="154.129,-11.5001 144.129,-15 154.129,-18.5001 154.129,-11.5001"/>
</g>
<!-- Node3 -->
<g id="node3" class="node"><title>Node3</title>
<g id="a_node3"><a xlink:href="../../dc/d17/custom_irc_server_2main_8cpp.html#a0ddf1224851353fc92bfbff6f499fa97" target="_top" xlink:title="main">
<polygon fill="white" stroke="black" points="322,-5.5 322,-24.5 360,-24.5 360,-5.5 322,-5.5"/>
<text text-anchor="middle" x="341" y="-12.5" font-family="Helvetica,sans-Serif" font-size="10.00">main</text>
</a>
</g>
</g>
<!-- Node2&#45;&gt;Node3 -->
<g id="edge2" class="edge"><title>Node2&#45;&gt;Node3</title>
<path fill="none" stroke="midnightblue" d="M296.208,-15C305.464,-15 314.334,-15 321.64,-15"/>
<polygon fill="midnightblue" stroke="midnightblue" points="296.068,-11.5001 286.068,-15 296.068,-18.5001 296.068,-11.5001"/>
</g>
</g>
</svg>
