<?xml version="1.0" encoding="UTF-8" standalone="no"?>
<!DOCTYPE svg PUBLIC "-//W3C//DTD SVG 1.1//EN"
 "http://www.w3.org/Graphics/SVG/1.1/DTD/svg11.dtd">
<!-- Generated by graphviz version 2.30.1 (20130303.0817)
 -->
<!-- Title: C++/customIrcClient/clsserverconn.cpp Pages: 1 -->
<svg width="1158pt" height="388pt"
 viewBox="0.00 0.00 1157.94 388.00" xmlns="http://www.w3.org/2000/svg" xmlns:xlink="http://www.w3.org/1999/xlink">
<g id="graph0" class="graph" transform="scale(1 1) rotate(0) translate(4 384)">
<title>C++/customIrcClient/clsserverconn.cpp</title>
<polygon fill="white" stroke="white" points="-4,5 -4,-384 1154.94,-384 1154.94,5 -4,5"/>
<!-- Node1 -->
<g id="node1" class="node"><title>Node1</title>
<polygon fill="#bfbfbf" stroke="black" points="154.942,-349 154.942,-379 260.942,-379 260.942,-349 154.942,-349"/>
<text text-anchor="start" x="162.942" y="-367" font-family="Helvetica,sans-Serif" font-size="10.00">C++/customIrcClient</text>
<text text-anchor="middle" x="207.942" y="-356" font-family="Helvetica,sans-Serif" font-size="10.00">/clsserverconn.cpp</text>
</g>
<!-- Node2 -->
<g id="node2" class="node"><title>Node2</title>
<g id="a_node2"><a xlink:href="../../d5/dbc/clsserverconn_8h.xhtml" target="_top" xlink:title="clsserverconn.h">
<polygon fill="white" stroke="black" points="284.942,-292.5 284.942,-311.5 368.942,-311.5 368.942,-292.5 284.942,-292.5"/>
<text text-anchor="middle" x="326.942" y="-299.5" font-family="Helvetica,sans-Serif" font-size="10.00">clsserverconn.h</text>
</a>
</g>
</g>
<!-- Node1&#45;&gt;Node2 -->
<g id="edge1" class="edge"><title>Node1&#45;&gt;Node2</title>
<path fill="none" stroke="midnightblue" d="M235.842,-348.933C255.471,-339.036 281.563,-325.88 300.791,-316.185"/>
<polygon fill="midnightblue" stroke="midnightblue" points="302.532,-319.227 309.885,-311.6 299.38,-312.977 302.532,-319.227"/>
</g>
<!-- Node21 -->
<g id="node21" class="node"><title>Node21</title>
<g id="a_node21"><a xlink:href="../../dc/d96/jsoncommand_8h.xhtml" target="_top" xlink:title="../resources/jsoncommand.h">
<polygon fill="white" stroke="black" points="12.9418,-168.5 12.9418,-187.5 152.942,-187.5 152.942,-168.5 12.9418,-168.5"/>
<text text-anchor="middle" x="82.9418" y="-175.5" font-family="Helvetica,sans-Serif" font-size="10.00">../resources/jsoncommand.h</text>
</a>
</g>
</g>
<!-- Node1&#45;&gt;Node21 -->
<g id="edge47" class="edge"><title>Node1&#45;&gt;Node21</title>
<path fill="none" stroke="midnightblue" d="M194.739,-348.909C176.658,-329.162 143.83,-291.665 120.942,-256 108.657,-236.857 97.5174,-213.181 90.5217,-197.175"/>
<polygon fill="midnightblue" stroke="midnightblue" points="93.7013,-195.708 86.5525,-187.889 87.2646,-198.46 93.7013,-195.708"/>
</g>
<!-- Node3 -->
<g id="node3" class="node"><title>Node3</title>
<polygon fill="white" stroke="#bfbfbf" points="138.442,-56.5 138.442,-75.5 191.442,-75.5 191.442,-56.5 138.442,-56.5"/>
<text text-anchor="middle" x="164.942" y="-63.5" font-family="Helvetica,sans-Serif" font-size="10.00">QObject</text>
</g>
<!-- Node2&#45;&gt;Node3 -->
<g id="edge2" class="edge"><title>Node2&#45;&gt;Node3</title>
<path fill="none" stroke="midnightblue" d="M284.831,-301.849C210.892,-300.692 60.2396,-285.836 3.94182,-188 -12.6587,-159.151 31.503,-116.472 36.9418,-112 63.2391,-90.3763 100.644,-78.8254 128.231,-72.866"/>
<polygon fill="midnightblue" stroke="midnightblue" points="129.165,-76.2483 138.279,-70.8465 127.786,-69.3855 129.165,-76.2483"/>
</g>
<!-- Node4 -->
<g id="node4" class="node"><title>Node4</title>
<polygon fill="white" stroke="#bfbfbf" points="246.942,-230.5 246.942,-249.5 316.942,-249.5 316.942,-230.5 246.942,-230.5"/>
<text text-anchor="middle" x="281.942" y="-237.5" font-family="Helvetica,sans-Serif" font-size="10.00">QTcpSocket</text>
</g>
<!-- Node2&#45;&gt;Node4 -->
<g id="edge3" class="edge"><title>Node2&#45;&gt;Node4</title>
<path fill="none" stroke="midnightblue" d="M320.494,-292.403C313.744,-283.403 302.972,-269.041 294.529,-257.782"/>
<polygon fill="midnightblue" stroke="midnightblue" points="297.177,-255.481 288.377,-249.581 291.577,-259.681 297.177,-255.481"/>
</g>
<!-- Node5 -->
<g id="node5" class="node"><title>Node5</title>
<polygon fill="white" stroke="#bfbfbf" points="334.942,-230.5 334.942,-249.5 408.942,-249.5 408.942,-230.5 334.942,-230.5"/>
<text text-anchor="middle" x="371.942" y="-237.5" font-family="Helvetica,sans-Serif" font-size="10.00">QTextStream</text>
</g>
<!-- Node2&#45;&gt;Node5 -->
<g id="edge4" class="edge"><title>Node2&#45;&gt;Node5</title>
<path fill="none" stroke="midnightblue" d="M333.389,-292.403C340.139,-283.403 350.911,-269.041 359.355,-257.782"/>
<polygon fill="midnightblue" stroke="midnightblue" points="362.306,-259.681 365.506,-249.581 356.706,-255.481 362.306,-259.681"/>
</g>
<!-- Node6 -->
<g id="node6" class="node"><title>Node6</title>
<polygon fill="white" stroke="#bfbfbf" points="427.442,-230.5 427.442,-249.5 472.442,-249.5 472.442,-230.5 427.442,-230.5"/>
<text text-anchor="middle" x="449.942" y="-237.5" font-family="Helvetica,sans-Serif" font-size="10.00">QTime</text>
</g>
<!-- Node2&#45;&gt;Node6 -->
<g id="edge5" class="edge"><title>Node2&#45;&gt;Node6</title>
<path fill="none" stroke="midnightblue" d="M344.565,-292.403C365.116,-282.379 399.306,-265.701 423.149,-254.07"/>
<polygon fill="midnightblue" stroke="midnightblue" points="424.898,-257.111 432.352,-249.581 421.829,-250.819 424.898,-257.111"/>
</g>
<!-- Node7 -->
<g id="node7" class="node"><title>Node7</title>
<g id="a_node7"><a xlink:href="../../d7/d62/clslog_8h.xhtml" target="_top" xlink:title="../resources/clslog.h">
<polygon fill="white" stroke="black" points="514.442,-56.5 514.442,-75.5 619.442,-75.5 619.442,-56.5 514.442,-56.5"/>
<text text-anchor="middle" x="566.942" y="-63.5" font-family="Helvetica,sans-Serif" font-size="10.00">../resources/clslog.h</text>
</a>
</g>
</g>
<!-- Node2&#45;&gt;Node7 -->
<g id="edge6" class="edge"><title>Node2&#45;&gt;Node7</title>
<path fill="none" stroke="midnightblue" d="M368.956,-299.735C433.785,-296.827 561.53,-287.273 664.942,-256 730.772,-236.092 767.532,-246.345 803.942,-188 808.648,-180.459 808.843,-175.416 803.942,-168 781.283,-133.714 669.028,-96.6062 607.485,-78.3958"/>
<polygon fill="midnightblue" stroke="midnightblue" points="608.283,-74.9826 597.703,-75.5339 606.318,-81.701 608.283,-74.9826"/>
</g>
<!-- Node13 -->
<g id="node13" class="node"><title>Node13</title>
<polygon fill="white" stroke="#bfbfbf" points="490.442,-230.5 490.442,-249.5 539.442,-249.5 539.442,-230.5 490.442,-230.5"/>
<text text-anchor="middle" x="514.942" y="-237.5" font-family="Helvetica,sans-Serif" font-size="10.00">QBuffer</text>
</g>
<!-- Node2&#45;&gt;Node13 -->
<g id="edge12" class="edge"><title>Node2&#45;&gt;Node13</title>
<path fill="none" stroke="midnightblue" d="M361.001,-292.425C392.484,-284.175 440.384,-270.8 480.942,-256 483.059,-255.227 485.232,-254.386 487.406,-253.51"/>
<polygon fill="midnightblue" stroke="midnightblue" points="488.928,-256.666 496.77,-249.543 486.197,-250.22 488.928,-256.666"/>
</g>
<!-- Node14 -->
<g id="node14" class="node"><title>Node14</title>
<g id="a_node14"><a xlink:href="../../d5/d98/custom_irc_client_2ircuser_8h.xhtml" target="_top" xlink:title="ircuser.h">
<polygon fill="white" stroke="black" points="841.942,-112.5 841.942,-131.5 895.942,-131.5 895.942,-112.5 841.942,-112.5"/>
<text text-anchor="middle" x="868.942" y="-119.5" font-family="Helvetica,sans-Serif" font-size="10.00">ircuser.h</text>
</a>
</g>
</g>
<!-- Node2&#45;&gt;Node14 -->
<g id="edge13" class="edge"><title>Node2&#45;&gt;Node14</title>
<path fill="none" stroke="midnightblue" d="M369.152,-300.08C485.208,-297.168 802.841,-286.465 837.942,-256 870.979,-227.326 872.497,-170.897 870.769,-141.616"/>
<polygon fill="midnightblue" stroke="midnightblue" points="874.248,-141.213 869.975,-131.518 867.27,-141.762 874.248,-141.213"/>
</g>
<!-- Node2&#45;&gt;Node21 -->
<g id="edge22" class="edge"><title>Node2&#45;&gt;Node21</title>
<path fill="none" stroke="midnightblue" d="M284.779,-294.696C251.257,-288.41 204.002,-276.635 166.942,-256 138.422,-240.12 111.771,-212.723 96.4271,-195.252"/>
<polygon fill="midnightblue" stroke="midnightblue" points="99.0079,-192.885 89.8444,-187.567 93.6914,-197.438 99.0079,-192.885"/>
</g>
<!-- Node23 -->
<g id="node23" class="node"><title>Node23</title>
<g id="a_node23"><a xlink:href="../../d4/d05/json_8h.xhtml" target="_top" xlink:title="json.h">
<polygon fill="white" stroke="black" points="190.442,-112.5 190.442,-131.5 233.442,-131.5 233.442,-112.5 190.442,-112.5"/>
<text text-anchor="middle" x="211.942" y="-119.5" font-family="Helvetica,sans-Serif" font-size="10.00">json.h</text>
</a>
</g>
</g>
<!-- Node2&#45;&gt;Node23 -->
<g id="edge29" class="edge"><title>Node2&#45;&gt;Node23</title>
<path fill="none" stroke="midnightblue" d="M284.895,-294.356C261.813,-288.386 234.912,-277.13 219.942,-256 195.731,-221.826 201.764,-169.465 207.372,-141.736"/>
<polygon fill="midnightblue" stroke="midnightblue" points="210.83,-142.311 209.586,-131.789 203.997,-140.79 210.83,-142.311"/>
</g>
<!-- Node25 -->
<g id="node25" class="node"><title>Node25</title>
<g id="a_node25"><a xlink:href="../../db/d97/clsevent_8h.xhtml" target="_top" xlink:title="../resources/clsevent.h">
<polygon fill="white" stroke="black" points="354.442,-112.5 354.442,-131.5 469.442,-131.5 469.442,-112.5 354.442,-112.5"/>
<text text-anchor="middle" x="411.942" y="-119.5" font-family="Helvetica,sans-Serif" font-size="10.00">../resources/clsevent.h</text>
</a>
</g>
</g>
<!-- Node2&#45;&gt;Node25 -->
<g id="edge30" class="edge"><title>Node2&#45;&gt;Node25</title>
<path fill="none" stroke="midnightblue" d="M290.24,-292.349C271.108,-285.775 249.369,-274.583 237.942,-256 217.455,-222.684 213.997,-198.925 237.942,-168 251.189,-150.891 301.156,-139.112 344.166,-131.909"/>
<polygon fill="midnightblue" stroke="midnightblue" points="344.756,-135.36 354.069,-130.309 343.639,-128.449 344.756,-135.36"/>
</g>
<!-- Node26 -->
<g id="node26" class="node"><title>Node26</title>
<g id="a_node26"><a xlink:href="../../db/dd2/events_8h.xhtml" target="_top" xlink:title="../resources/events\l/events.h">
<polygon fill="white" stroke="black" points="557.442,-225 557.442,-255 656.442,-255 656.442,-225 557.442,-225"/>
<text text-anchor="start" x="565.442" y="-243" font-family="Helvetica,sans-Serif" font-size="10.00">../resources/events</text>
<text text-anchor="middle" x="606.942" y="-232" font-family="Helvetica,sans-Serif" font-size="10.00">/events.h</text>
</a>
</g>
</g>
<!-- Node2&#45;&gt;Node26 -->
<g id="edge36" class="edge"><title>Node2&#45;&gt;Node26</title>
<path fill="none" stroke="midnightblue" d="M369.027,-293.055C411.499,-284.899 479.197,-271.519 547.353,-256.071"/>
<polygon fill="midnightblue" stroke="midnightblue" points="548.438,-259.413 557.409,-253.777 546.881,-252.589 548.438,-259.413"/>
</g>
<!-- Node8 -->
<g id="node8" class="node"><title>Node8</title>
<polygon fill="white" stroke="#bfbfbf" points="618.942,-0.5 618.942,-19.5 670.942,-19.5 670.942,-0.5 618.942,-0.5"/>
<text text-anchor="middle" x="644.942" y="-7.5" font-family="Helvetica,sans-Serif" font-size="10.00">QDebug</text>
</g>
<!-- Node7&#45;&gt;Node8 -->
<g id="edge7" class="edge"><title>Node7&#45;&gt;Node8</title>
<path fill="none" stroke="midnightblue" d="M579.474,-56.324C591.528,-47.979 609.969,-35.2122 624.211,-25.3524"/>
<polygon fill="midnightblue" stroke="midnightblue" points="626.211,-28.2243 632.441,-19.6545 622.227,-22.469 626.211,-28.2243"/>
</g>
<!-- Node9 -->
<g id="node9" class="node"><title>Node9</title>
<polygon fill="white" stroke="#bfbfbf" points="379.442,-0.5 379.442,-19.5 444.442,-19.5 444.442,-0.5 379.442,-0.5"/>
<text text-anchor="middle" x="411.942" y="-7.5" font-family="Helvetica,sans-Serif" font-size="10.00">QDateTime</text>
</g>
<!-- Node7&#45;&gt;Node9 -->
<g id="edge8" class="edge"><title>Node7&#45;&gt;Node9</title>
<path fill="none" stroke="midnightblue" d="M542.382,-56.4435C516.419,-47.3986 475.274,-33.064 446.145,-22.9158"/>
<polygon fill="midnightblue" stroke="midnightblue" points="446.982,-19.5013 436.387,-19.5164 444.679,-26.1116 446.982,-19.5013"/>
</g>
<!-- Node10 -->
<g id="node10" class="node"><title>Node10</title>
<polygon fill="white" stroke="#bfbfbf" points="689.442,-0.5 689.442,-19.5 730.442,-19.5 730.442,-0.5 689.442,-0.5"/>
<text text-anchor="middle" x="709.942" y="-7.5" font-family="Helvetica,sans-Serif" font-size="10.00">string</text>
</g>
<!-- Node7&#45;&gt;Node10 -->
<g id="edge9" class="edge"><title>Node7&#45;&gt;Node10</title>
<path fill="none" stroke="midnightblue" d="M589.601,-56.4435C613.902,-47.2666 652.624,-32.6446 679.556,-22.4744"/>
<polygon fill="midnightblue" stroke="midnightblue" points="681.128,-25.6222 689.246,-18.8151 678.655,-19.0736 681.128,-25.6222"/>
</g>
<!-- Node11 -->
<g id="node11" class="node"><title>Node11</title>
<polygon fill="white" stroke="#bfbfbf" points="462.942,-0.5 462.942,-19.5 516.942,-19.5 516.942,-0.5 462.942,-0.5"/>
<text text-anchor="middle" x="489.942" y="-7.5" font-family="Helvetica,sans-Serif" font-size="10.00">iostream</text>
</g>
<!-- Node7&#45;&gt;Node11 -->
<g id="edge10" class="edge"><title>Node7&#45;&gt;Node11</title>
<path fill="none" stroke="midnightblue" d="M554.57,-56.324C542.783,-48.0577 524.81,-35.4527 510.806,-25.6322"/>
<polygon fill="midnightblue" stroke="midnightblue" points="512.479,-22.5307 502.283,-19.6545 508.46,-28.2619 512.479,-22.5307"/>
</g>
<!-- Node12 -->
<g id="node12" class="node"><title>Node12</title>
<polygon fill="white" stroke="#bfbfbf" points="535.442,-0.5 535.442,-19.5 600.442,-19.5 600.442,-0.5 535.442,-0.5"/>
<text text-anchor="middle" x="567.942" y="-7.5" font-family="Helvetica,sans-Serif" font-size="10.00">QStringList</text>
</g>
<!-- Node7&#45;&gt;Node12 -->
<g id="edge11" class="edge"><title>Node7&#45;&gt;Node12</title>
<path fill="none" stroke="midnightblue" d="M567.107,-56.083C567.238,-49.0059 567.426,-38.8611 567.59,-29.9865"/>
<polygon fill="midnightblue" stroke="midnightblue" points="571.094,-29.8142 567.78,-19.7511 564.095,-29.6845 571.094,-29.8142"/>
</g>
<!-- Node14&#45;&gt;Node3 -->
<g id="edge14" class="edge"><title>Node14&#45;&gt;Node3</title>
<path fill="none" stroke="midnightblue" d="M841.661,-119.643C753.556,-115.138 468.717,-99.6095 233.942,-76 223.484,-74.9484 212.166,-73.5721 201.779,-72.2133"/>
<polygon fill="midnightblue" stroke="midnightblue" points="202.145,-68.7311 191.769,-70.8729 201.216,-75.6692 202.145,-68.7311"/>
</g>
<!-- Node15 -->
<g id="node15" class="node"><title>Node15</title>
<polygon fill="white" stroke="#bfbfbf" points="333.942,-56.5 333.942,-75.5 383.942,-75.5 383.942,-56.5 333.942,-56.5"/>
<text text-anchor="middle" x="358.942" y="-63.5" font-family="Helvetica,sans-Serif" font-size="10.00">QString</text>
</g>
<!-- Node14&#45;&gt;Node15 -->
<g id="edge15" class="edge"><title>Node14&#45;&gt;Node15</title>
<path fill="none" stroke="midnightblue" d="M841.882,-118.135C756.135,-109.056 490.443,-80.9236 394.204,-70.7336"/>
<polygon fill="midnightblue" stroke="midnightblue" points="394.426,-67.2377 384.113,-69.6652 393.689,-74.1988 394.426,-67.2377"/>
</g>
<!-- Node16 -->
<g id="node16" class="node"><title>Node16</title>
<polygon fill="white" stroke="#bfbfbf" points="637.442,-56.5 637.442,-75.5 684.442,-75.5 684.442,-56.5 637.442,-56.5"/>
<text text-anchor="middle" x="660.942" y="-63.5" font-family="Helvetica,sans-Serif" font-size="10.00">QColor</text>
</g>
<!-- Node14&#45;&gt;Node16 -->
<g id="edge16" class="edge"><title>Node14&#45;&gt;Node16</title>
<path fill="none" stroke="midnightblue" d="M841.929,-114.184C809.338,-105.931 752.639,-91.4854 694.452,-76.1066"/>
<polygon fill="midnightblue" stroke="midnightblue" points="695.287,-72.7071 684.724,-73.5304 693.494,-79.4738 695.287,-72.7071"/>
</g>
<!-- Node17 -->
<g id="node17" class="node"><title>Node17</title>
<polygon fill="white" stroke="#bfbfbf" points="702.942,-56.5 702.942,-75.5 786.942,-75.5 786.942,-56.5 702.942,-56.5"/>
<text text-anchor="middle" x="744.942" y="-63.5" font-family="Helvetica,sans-Serif" font-size="10.00">QGraphicsView</text>
</g>
<!-- Node14&#45;&gt;Node17 -->
<g id="edge17" class="edge"><title>Node14&#45;&gt;Node17</title>
<path fill="none" stroke="midnightblue" d="M849.294,-112.444C828.977,-103.596 797.039,-89.6875 773.844,-79.5865"/>
<polygon fill="midnightblue" stroke="midnightblue" points="775.064,-76.3002 764.498,-75.5164 772.269,-82.7181 775.064,-76.3002"/>
</g>
<!-- Node18 -->
<g id="node18" class="node"><title>Node18</title>
<polygon fill="white" stroke="#bfbfbf" points="804.942,-56.5 804.942,-75.5 934.942,-75.5 934.942,-56.5 804.942,-56.5"/>
<text text-anchor="middle" x="869.942" y="-63.5" font-family="Helvetica,sans-Serif" font-size="10.00">QNetworkAccessManager</text>
</g>
<!-- Node14&#45;&gt;Node18 -->
<g id="edge18" class="edge"><title>Node14&#45;&gt;Node18</title>
<path fill="none" stroke="midnightblue" d="M869.107,-112.083C869.238,-105.006 869.426,-94.8611 869.59,-85.9865"/>
<polygon fill="midnightblue" stroke="midnightblue" points="873.094,-85.8142 869.78,-75.7511 866.095,-85.6845 873.094,-85.8142"/>
</g>
<!-- Node19 -->
<g id="node19" class="node"><title>Node19</title>
<polygon fill="white" stroke="#bfbfbf" points="953.442,-56.5 953.442,-75.5 1048.44,-75.5 1048.44,-56.5 953.442,-56.5"/>
<text text-anchor="middle" x="1000.94" y="-63.5" font-family="Helvetica,sans-Serif" font-size="10.00">QNetworkRequest</text>
</g>
<!-- Node14&#45;&gt;Node19 -->
<g id="edge19" class="edge"><title>Node14&#45;&gt;Node19</title>
<path fill="none" stroke="midnightblue" d="M889.858,-112.444C911.678,-103.517 946.092,-89.4387 970.834,-79.3168"/>
<polygon fill="midnightblue" stroke="midnightblue" points="972.194,-82.5422 980.124,-75.5164 969.543,-76.0634 972.194,-82.5422"/>
</g>
<!-- Node20 -->
<g id="node20" class="node"><title>Node20</title>
<polygon fill="white" stroke="#bfbfbf" points="1066.94,-56.5 1066.94,-75.5 1150.94,-75.5 1150.94,-56.5 1066.94,-56.5"/>
<text text-anchor="middle" x="1108.94" y="-63.5" font-family="Helvetica,sans-Serif" font-size="10.00">QNetworkReply</text>
</g>
<!-- Node14&#45;&gt;Node20 -->
<g id="edge20" class="edge"><title>Node14&#45;&gt;Node20</title>
<path fill="none" stroke="midnightblue" d="M896.006,-114.91C936.033,-105.905 1011.6,-88.9012 1061.11,-77.7628"/>
<polygon fill="midnightblue" stroke="midnightblue" points="1061.96,-81.1586 1070.95,-75.5488 1060.42,-74.3293 1061.96,-81.1586"/>
</g>
<!-- Node14&#45;&gt;Node7 -->
<g id="edge21" class="edge"><title>Node14&#45;&gt;Node7</title>
<path fill="none" stroke="midnightblue" d="M841.631,-114.824C837.067,-113.844 832.376,-112.868 827.942,-112 760.327,-98.7571 682.446,-85.5998 629.482,-76.965"/>
<polygon fill="midnightblue" stroke="midnightblue" points="629.993,-73.5022 619.561,-75.353 628.87,-80.4116 629.993,-73.5022"/>
</g>
<!-- Node21&#45;&gt;Node3 -->
<g id="edge23" class="edge"><title>Node21&#45;&gt;Node3</title>
<path fill="none" stroke="midnightblue" d="M93.3008,-168.438C103.229,-159.891 118.244,-146.041 128.942,-132 140.156,-117.282 150.105,-98.6511 156.686,-85.1126"/>
<polygon fill="midnightblue" stroke="midnightblue" points="159.93,-86.4392 161.028,-75.9014 153.599,-83.4548 159.93,-86.4392"/>
</g>
<!-- Node22 -->
<g id="node22" class="node"><title>Node22</title>
<polygon fill="white" stroke="#bfbfbf" points="45.9418,-112.5 45.9418,-131.5 119.942,-131.5 119.942,-112.5 45.9418,-112.5"/>
<text text-anchor="middle" x="82.9418" y="-119.5" font-family="Helvetica,sans-Serif" font-size="10.00">QVariantMap</text>
</g>
<!-- Node21&#45;&gt;Node22 -->
<g id="edge24" class="edge"><title>Node21&#45;&gt;Node22</title>
<path fill="none" stroke="midnightblue" d="M82.9418,-168.083C82.9418,-161.006 82.9418,-150.861 82.9418,-141.986"/>
<polygon fill="midnightblue" stroke="midnightblue" points="86.4419,-141.751 82.9418,-131.751 79.4419,-141.751 86.4419,-141.751"/>
</g>
<!-- Node21&#45;&gt;Node23 -->
<g id="edge25" class="edge"><title>Node21&#45;&gt;Node23</title>
<path fill="none" stroke="midnightblue" d="M103.382,-168.444C124.612,-159.557 158.041,-145.563 182.197,-135.451"/>
<polygon fill="midnightblue" stroke="midnightblue" points="183.724,-138.606 191.597,-131.516 181.021,-132.149 183.724,-138.606"/>
</g>
<!-- Node21&#45;&gt;Node7 -->
<g id="edge28" class="edge"><title>Node21&#45;&gt;Node7</title>
<path fill="none" stroke="midnightblue" d="M115.64,-168.456C165.272,-155.592 262.663,-130.761 345.942,-112 402.465,-99.2663 467.483,-86.2184 512.291,-77.474"/>
<polygon fill="midnightblue" stroke="midnightblue" points="513.232,-80.8565 522.38,-75.5111 511.896,-73.9853 513.232,-80.8565"/>
</g>
<!-- Node24 -->
<g id="node24" class="node"><title>Node24</title>
<polygon fill="white" stroke="#bfbfbf" points="243.442,-56.5 243.442,-75.5 298.442,-75.5 298.442,-56.5 243.442,-56.5"/>
<text text-anchor="middle" x="270.942" y="-63.5" font-family="Helvetica,sans-Serif" font-size="10.00">QVariant</text>
</g>
<!-- Node23&#45;&gt;Node24 -->
<g id="edge26" class="edge"><title>Node23&#45;&gt;Node24</title>
<path fill="none" stroke="midnightblue" d="M221.421,-112.324C230.143,-104.341 243.285,-92.3128 253.84,-82.6529"/>
<polygon fill="midnightblue" stroke="midnightblue" points="256.276,-85.1674 261.29,-75.8339 251.55,-80.0036 256.276,-85.1674"/>
</g>
<!-- Node23&#45;&gt;Node15 -->
<g id="edge27" class="edge"><title>Node23&#45;&gt;Node15</title>
<path fill="none" stroke="midnightblue" d="M233.632,-113.032C258.065,-104.057 298.039,-89.3725 326.258,-79.0062"/>
<polygon fill="midnightblue" stroke="midnightblue" points="327.525,-82.2696 335.705,-75.536 325.111,-75.6989 327.525,-82.2696"/>
</g>
<!-- Node25&#45;&gt;Node3 -->
<g id="edge31" class="edge"><title>Node25&#45;&gt;Node3</title>
<path fill="none" stroke="midnightblue" d="M372.804,-112.444C325.759,-102.158 247.429,-85.0335 201.543,-75.0019"/>
<polygon fill="midnightblue" stroke="midnightblue" points="202.233,-71.5702 191.716,-72.8536 200.738,-78.4087 202.233,-71.5702"/>
</g>
<!-- Node25&#45;&gt;Node15 -->
<g id="edge32" class="edge"><title>Node25&#45;&gt;Node15</title>
<path fill="none" stroke="midnightblue" d="M403.19,-112.083C395.472,-104.22 384.037,-92.5688 374.725,-83.0813"/>
<polygon fill="midnightblue" stroke="midnightblue" points="377.033,-80.4363 367.531,-75.7511 372.038,-85.3396 377.033,-80.4363"/>
</g>
<!-- Node25&#45;&gt;Node24 -->
<g id="edge33" class="edge"><title>Node25&#45;&gt;Node24</title>
<path fill="none" stroke="midnightblue" d="M389.6,-112.444C366.189,-103.478 329.206,-89.314 302.752,-79.1827"/>
<polygon fill="midnightblue" stroke="midnightblue" points="303.77,-75.8245 293.179,-75.5164 301.266,-82.3615 303.77,-75.8245"/>
</g>
<!-- Node25&#45;&gt;Node9 -->
<g id="edge34" class="edge"><title>Node25&#45;&gt;Node9</title>
<path fill="none" stroke="midnightblue" d="M411.942,-112.368C411.942,-94.617 411.942,-53.6664 411.942,-29.5974"/>
<polygon fill="midnightblue" stroke="midnightblue" points="415.442,-29.5914 411.942,-19.5914 408.442,-29.5915 415.442,-29.5914"/>
</g>
<!-- Node25&#45;&gt;Node7 -->
<g id="edge35" class="edge"><title>Node25&#45;&gt;Node7</title>
<path fill="none" stroke="midnightblue" d="M436.502,-112.444C462.464,-103.399 503.61,-89.064 532.739,-78.9158"/>
<polygon fill="midnightblue" stroke="midnightblue" points="534.205,-82.1116 542.497,-75.5164 531.902,-75.5013 534.205,-82.1116"/>
</g>
<!-- Node27 -->
<g id="node27" class="node"><title>Node27</title>
<g id="a_node27"><a xlink:href="../../db/d70/eventchat_8h.xhtml" target="_top" xlink:title="eventchat.h">
<polygon fill="white" stroke="black" points="629.942,-168.5 629.942,-187.5 695.942,-187.5 695.942,-168.5 629.942,-168.5"/>
<text text-anchor="middle" x="662.942" y="-175.5" font-family="Helvetica,sans-Serif" font-size="10.00">eventchat.h</text>
</a>
</g>
</g>
<!-- Node26&#45;&gt;Node27 -->
<g id="edge37" class="edge"><title>Node26&#45;&gt;Node27</title>
<path fill="none" stroke="midnightblue" d="M620.213,-224.781C628.518,-215.882 639.24,-204.394 647.866,-195.152"/>
<polygon fill="midnightblue" stroke="midnightblue" points="650.529,-197.429 654.793,-187.731 645.411,-192.653 650.529,-197.429"/>
</g>
<!-- Node28 -->
<g id="node28" class="node"><title>Node28</title>
<g id="a_node28"><a xlink:href="../../d5/d02/eventuserjoin_8h.xhtml" target="_top" xlink:title="eventuserjoin.h">
<polygon fill="white" stroke="black" points="714.442,-168.5 714.442,-187.5 795.442,-187.5 795.442,-168.5 714.442,-168.5"/>
<text text-anchor="middle" x="754.942" y="-175.5" font-family="Helvetica,sans-Serif" font-size="10.00">eventuserjoin.h</text>
</a>
</g>
</g>
<!-- Node26&#45;&gt;Node28 -->
<g id="edge39" class="edge"><title>Node26&#45;&gt;Node28</title>
<path fill="none" stroke="midnightblue" d="M641.641,-224.933C666.722,-214.765 700.288,-201.157 724.364,-191.396"/>
<polygon fill="midnightblue" stroke="midnightblue" points="725.776,-194.601 733.728,-187.6 723.146,-188.114 725.776,-194.601"/>
</g>
<!-- Node29 -->
<g id="node29" class="node"><title>Node29</title>
<g id="a_node29"><a xlink:href="../../d7/d56/eventuserleave_8h.xhtml" target="_top" xlink:title="eventuserleave.h">
<polygon fill="white" stroke="black" points="246.942,-168.5 246.942,-187.5 334.942,-187.5 334.942,-168.5 246.942,-168.5"/>
<text text-anchor="middle" x="290.942" y="-175.5" font-family="Helvetica,sans-Serif" font-size="10.00">eventuserleave.h</text>
</a>
</g>
</g>
<!-- Node26&#45;&gt;Node29 -->
<g id="edge41" class="edge"><title>Node26&#45;&gt;Node29</title>
<path fill="none" stroke="midnightblue" d="M557.431,-226.123C554.226,-225.379 551.042,-224.665 547.942,-224 528.47,-219.826 414.482,-200.153 345.015,-188.243"/>
<polygon fill="midnightblue" stroke="midnightblue" points="345.553,-184.785 335.106,-186.545 344.371,-191.684 345.553,-184.785"/>
</g>
<!-- Node30 -->
<g id="node30" class="node"><title>Node30</title>
<g id="a_node30"><a xlink:href="../../db/db0/eventuserchangestatus_8h.xhtml" target="_top" xlink:title="eventuserchangestatus.h">
<polygon fill="white" stroke="black" points="352.442,-168.5 352.442,-187.5 477.442,-187.5 477.442,-168.5 352.442,-168.5"/>
<text text-anchor="middle" x="414.942" y="-175.5" font-family="Helvetica,sans-Serif" font-size="10.00">eventuserchangestatus.h</text>
</a>
</g>
</g>
<!-- Node26&#45;&gt;Node30 -->
<g id="edge43" class="edge"><title>Node26&#45;&gt;Node30</title>
<path fill="none" stroke="midnightblue" d="M561.926,-224.933C528.421,-214.462 483.244,-200.345 451.856,-190.536"/>
<polygon fill="midnightblue" stroke="midnightblue" points="452.771,-187.155 442.182,-187.513 450.683,-193.836 452.771,-187.155"/>
</g>
<!-- Node31 -->
<g id="node31" class="node"><title>Node31</title>
<g id="a_node31"><a xlink:href="../../d8/d44/eventuserchangenick_8h.xhtml" target="_top" xlink:title="eventuserchangenick.h">
<polygon fill="white" stroke="black" points="495.942,-168.5 495.942,-187.5 611.942,-187.5 611.942,-168.5 495.942,-168.5"/>
<text text-anchor="middle" x="553.942" y="-175.5" font-family="Helvetica,sans-Serif" font-size="10.00">eventuserchangenick.h</text>
</a>
</g>
</g>
<!-- Node26&#45;&gt;Node31 -->
<g id="edge45" class="edge"><title>Node26&#45;&gt;Node31</title>
<path fill="none" stroke="midnightblue" d="M594.382,-224.781C586.601,-215.972 576.578,-204.626 568.458,-195.433"/>
<polygon fill="midnightblue" stroke="midnightblue" points="570.897,-192.908 561.654,-187.731 565.651,-197.542 570.897,-192.908"/>
</g>
<!-- Node27&#45;&gt;Node25 -->
<g id="edge38" class="edge"><title>Node27&#45;&gt;Node25</title>
<path fill="none" stroke="midnightblue" d="M629.87,-169.885C586.904,-160.641 511.504,-144.42 461.638,-133.692"/>
<polygon fill="midnightblue" stroke="midnightblue" points="462.227,-130.238 451.714,-131.557 460.754,-137.082 462.227,-130.238"/>
</g>
<!-- Node28&#45;&gt;Node25 -->
<g id="edge40" class="edge"><title>Node28&#45;&gt;Node25</title>
<path fill="none" stroke="midnightblue" d="M714.298,-169.594C711.134,-169.045 707.987,-168.508 704.942,-168 627.802,-155.136 539.003,-141.688 479.566,-132.882"/>
<polygon fill="midnightblue" stroke="midnightblue" points="479.958,-129.402 469.553,-131.402 478.934,-136.327 479.958,-129.402"/>
</g>
<!-- Node29&#45;&gt;Node25 -->
<g id="edge42" class="edge"><title>Node29&#45;&gt;Node25</title>
<path fill="none" stroke="midnightblue" d="M310.115,-168.444C329.851,-159.636 360.827,-145.812 383.435,-135.722"/>
<polygon fill="midnightblue" stroke="midnightblue" points="385.153,-138.788 392.859,-131.516 382.3,-132.396 385.153,-138.788"/>
</g>
<!-- Node30&#45;&gt;Node25 -->
<g id="edge44" class="edge"><title>Node30&#45;&gt;Node25</title>
<path fill="none" stroke="midnightblue" d="M414.446,-168.083C414.053,-161.006 413.49,-150.861 412.997,-141.986"/>
<polygon fill="midnightblue" stroke="midnightblue" points="416.477,-141.542 412.428,-131.751 409.488,-141.93 416.477,-141.542"/>
</g>
<!-- Node31&#45;&gt;Node25 -->
<g id="edge46" class="edge"><title>Node31&#45;&gt;Node25</title>
<path fill="none" stroke="midnightblue" d="M531.441,-168.444C507.864,-159.478 470.619,-145.314 443.978,-135.183"/>
<polygon fill="midnightblue" stroke="midnightblue" points="444.928,-131.8 434.337,-131.516 442.44,-138.342 444.928,-131.8"/>
</g>
</g>
</svg>
