<?xml version="1.0" encoding="UTF-8" standalone="no"?>
<!DOCTYPE svg PUBLIC "-//W3C//DTD SVG 1.1//EN"
 "http://www.w3.org/Graphics/SVG/1.1/DTD/svg11.dtd">
<!-- Generated by graphviz version 2.30.1 (20130303.0817)
 -->
<!-- Title: C++/customIrcClient/clsserverconn.cpp Pages: 1 -->
<!--zoomable 388 -->
<svg id="main" version="1.1" xmlns="http://www.w3.org/2000/svg" xmlns:xlink="http://www.w3.org/1999/xlink" xml:space="preserve" onload="init(evt)">
        <defs>
                <circle id="rim" cx="0" cy="0" r="7"/>
                <circle id="rim2" cx="0" cy="0" r="3.5"/>
                <g id="zoomPlus">
                        <use xlink:href="#rim" fill="#404040">
                                <set attributeName="fill" to="#808080" begin="zoomplus.mouseover" end="zoomplus.mouseout"/>
                        </use>
                        <path d="M-4,0h8M0,-4v8" fill="none" stroke="white" stroke-width="1.5" pointer-events="none"/>
                </g>
                <g id="zoomMin">
                        <use xlink:href="#rim" fill="#404040">
                                <set attributeName="fill" to="#808080" begin="zoomminus.mouseover" end="zoomminus.mouseout"/>
                        </use>
                        <path d="M-4,0h8" fill="none" stroke="white" stroke-width="1.5" pointer-events="none"/>
                </g>
                <g id="dirArrow">
                        <path fill="none" stroke="white" stroke-width="1.5" d="M0,-3.0v7 M-2.5,-0.5L0,-3.0L2.5,-0.5"/>
                </g>
               <g id="resetDef">
                       <use xlink:href="#rim2" fill="#404040">
                               <set attributeName="fill" to="#808080" begin="reset.mouseover" end="reset.mouseout"/>
                       </use>
               </g>
        </defs>

<script type="text/javascript">
var viewWidth = 1394;
var viewHeight = 388;
var sectionId = 'dynsection-0';
</script>
<script xlink:href="../../svgpan.js"/>
<svg id="graph" class="graph">
<g id="viewport">
<title>C++/customIrcClient/clsserverconn.cpp</title>
<polygon fill="white" stroke="white" points="-4,5 -4,-384 1391,-384 1391,5 -4,5"/>
<!-- Node1 -->
<g id="node1" class="node"><title>Node1</title>
<polygon fill="#bfbfbf" stroke="black" points="511,-349 511,-379 617,-379 617,-349 511,-349"/>
<text text-anchor="start" x="519" y="-367" font-family="Helvetica,sans-Serif" font-size="10.00">C++/customIrcClient</text>
<text text-anchor="middle" x="564" y="-356" font-family="Helvetica,sans-Serif" font-size="10.00">/clsserverconn.cpp</text>
</g>
<!-- Node2 -->
<g id="node2" class="node"><title>Node2</title>
<g id="a_node2"><a xlink:href="../../d5/dbc/clsserverconn_8h.html" target="_top" xlink:title="clsserverconn.h">
<polygon fill="white" stroke="black" points="616,-292.5 616,-311.5 700,-311.5 700,-292.5 616,-292.5"/>
<text text-anchor="middle" x="658" y="-299.5" font-family="Helvetica,sans-Serif" font-size="10.00">clsserverconn.h</text>
</a>
</g>
</g>
<!-- Node1&#45;&gt;Node2 -->
<g id="edge1" class="edge"><title>Node1&#45;&gt;Node2</title>
<path fill="none" stroke="midnightblue" d="M586.277,-348.781C601.293,-339.196 621.017,-326.606 635.98,-317.056"/>
<polygon fill="midnightblue" stroke="midnightblue" points="638.05,-319.886 644.596,-311.556 634.284,-313.986 638.05,-319.886"/>
</g>
<!-- Node21 -->
<g id="node21" class="node"><title>Node21</title>
<g id="a_node21"><a xlink:href="../../dc/d96/jsoncommand_8h.html" target="_top" xlink:title="../resources/jsoncommand.h">
<polygon fill="white" stroke="black" points="395,-168.5 395,-187.5 535,-187.5 535,-168.5 395,-168.5"/>
<text text-anchor="middle" x="465" y="-175.5" font-family="Helvetica,sans-Serif" font-size="10.00">../resources/jsoncommand.h</text>
</a>
</g>
</g>
<!-- Node1&#45;&gt;Node21 -->
<g id="edge49" class="edge"><title>Node1&#45;&gt;Node21</title>
<path fill="none" stroke="midnightblue" d="M556.273,-348.826C545.125,-328.356 523.9,-289.319 506,-256 495.064,-235.644 482.599,-212.2 474.313,-196.58"/>
<polygon fill="midnightblue" stroke="midnightblue" points="477.306,-194.753 469.53,-187.557 471.121,-198.031 477.306,-194.753"/>
</g>
<!-- Node3 -->
<g id="node3" class="node"><title>Node3</title>
<polygon fill="white" stroke="#bfbfbf" points="530.5,-56.5 530.5,-75.5 583.5,-75.5 583.5,-56.5 530.5,-56.5"/>
<text text-anchor="middle" x="557" y="-63.5" font-family="Helvetica,sans-Serif" font-size="10.00">QObject</text>
</g>
<!-- Node2&#45;&gt;Node3 -->
<g id="edge2" class="edge"><title>Node2&#45;&gt;Node3</title>
<path fill="none" stroke="midnightblue" d="M647.072,-292.483C637.111,-284.176 622.669,-270.676 614,-256 580.499,-199.284 565.173,-121.197 559.614,-85.7978"/>
<polygon fill="midnightblue" stroke="midnightblue" points="563.073,-85.263 558.142,-75.8857 556.149,-86.2915 563.073,-85.263"/>
</g>
<!-- Node4 -->
<g id="node4" class="node"><title>Node4</title>
<polygon fill="white" stroke="#bfbfbf" points="705,-230.5 705,-249.5 775,-249.5 775,-230.5 705,-230.5"/>
<text text-anchor="middle" x="740" y="-237.5" font-family="Helvetica,sans-Serif" font-size="10.00">QTcpSocket</text>
</g>
<!-- Node2&#45;&gt;Node4 -->
<g id="edge3" class="edge"><title>Node2&#45;&gt;Node4</title>
<path fill="none" stroke="midnightblue" d="M669.749,-292.403C682.901,-282.78 704.434,-267.024 720.198,-255.489"/>
<polygon fill="midnightblue" stroke="midnightblue" points="722.27,-258.31 728.273,-249.581 718.136,-252.661 722.27,-258.31"/>
</g>
<!-- Node5 -->
<g id="node5" class="node"><title>Node5</title>
<polygon fill="white" stroke="#bfbfbf" points="793,-230.5 793,-249.5 867,-249.5 867,-230.5 793,-230.5"/>
<text text-anchor="middle" x="830" y="-237.5" font-family="Helvetica,sans-Serif" font-size="10.00">QTextStream</text>
</g>
<!-- Node2&#45;&gt;Node5 -->
<g id="edge4" class="edge"><title>Node2&#45;&gt;Node5</title>
<path fill="none" stroke="midnightblue" d="M682.643,-292.403C712.275,-282.067 762.185,-264.656 795.602,-252.999"/>
<polygon fill="midnightblue" stroke="midnightblue" points="797.113,-256.179 805.402,-249.581 794.807,-249.57 797.113,-256.179"/>
</g>
<!-- Node6 -->
<g id="node6" class="node"><title>Node6</title>
<polygon fill="white" stroke="#bfbfbf" points="885.5,-230.5 885.5,-249.5 930.5,-249.5 930.5,-230.5 885.5,-230.5"/>
<text text-anchor="middle" x="908" y="-237.5" font-family="Helvetica,sans-Serif" font-size="10.00">QTime</text>
</g>
<!-- Node2&#45;&gt;Node6 -->
<g id="edge5" class="edge"><title>Node2&#45;&gt;Node6</title>
<path fill="none" stroke="midnightblue" d="M700.151,-295.304C744.632,-288.603 816.408,-275.811 876,-256 878.129,-255.292 880.302,-254.481 882.464,-253.61"/>
<polygon fill="midnightblue" stroke="midnightblue" points="883.953,-256.778 891.694,-249.544 881.132,-250.372 883.953,-256.778"/>
</g>
<!-- Node7 -->
<g id="node7" class="node"><title>Node7</title>
<g id="a_node7"><a xlink:href="../../d7/d62/clslog_8h.html" target="_top" xlink:title="../resources/clslog.h">
<polygon fill="white" stroke="black" points="601.5,-56.5 601.5,-75.5 706.5,-75.5 706.5,-56.5 601.5,-56.5"/>
<text text-anchor="middle" x="654" y="-63.5" font-family="Helvetica,sans-Serif" font-size="10.00">../resources/clslog.h</text>
</a>
</g>
</g>
<!-- Node2&#45;&gt;Node7 -->
<g id="edge6" class="edge"><title>Node2&#45;&gt;Node7</title>
<path fill="none" stroke="midnightblue" d="M657.751,-292.374C657.504,-283.316 657.141,-268.659 657,-256 656.842,-241.779 655.628,-238.156 657,-224 661.863,-173.819 685.919,-161.22 675,-112 672.876,-102.426 668.493,-92.4756 664.279,-84.3735"/>
<polygon fill="midnightblue" stroke="midnightblue" points="667.298,-82.6012 659.384,-75.557 661.178,-85.9989 667.298,-82.6012"/>
</g>
<!-- Node13 -->
<g id="node13" class="node"><title>Node13</title>
<polygon fill="white" stroke="#bfbfbf" points="949,-230.5 949,-249.5 997,-249.5 997,-230.5 949,-230.5"/>
<text text-anchor="middle" x="973" y="-237.5" font-family="Helvetica,sans-Serif" font-size="10.00">QTimer</text>
</g>
<!-- Node2&#45;&gt;Node13 -->
<g id="edge12" class="edge"><title>Node2&#45;&gt;Node13</title>
<path fill="none" stroke="midnightblue" d="M700.166,-297.646C755.791,-292.455 856.316,-280.417 939,-256 941.49,-255.265 944.038,-254.39 946.564,-253.437"/>
<polygon fill="midnightblue" stroke="midnightblue" points="948.131,-256.576 956.026,-249.511 945.448,-250.111 948.131,-256.576"/>
</g>
<!-- Node14 -->
<g id="node14" class="node"><title>Node14</title>
<g id="a_node14"><a xlink:href="../../d5/d98/custom_irc_client_2ircuser_8h.html" target="_top" xlink:title="ircuser.h">
<polygon fill="white" stroke="black" points="340,-112.5 340,-131.5 394,-131.5 394,-112.5 340,-112.5"/>
<text text-anchor="middle" x="367" y="-119.5" font-family="Helvetica,sans-Serif" font-size="10.00">ircuser.h</text>
</a>
</g>
</g>
<!-- Node2&#45;&gt;Node14 -->
<g id="edge13" class="edge"><title>Node2&#45;&gt;Node14</title>
<path fill="none" stroke="midnightblue" d="M615.932,-296.192C555.021,-286.855 443.303,-260.356 386,-188 375.402,-174.619 370.714,-155.508 368.641,-141.471"/>
<polygon fill="midnightblue" stroke="midnightblue" points="372.114,-141.034 367.476,-131.508 365.161,-141.847 372.114,-141.034"/>
</g>
<!-- Node2&#45;&gt;Node21 -->
<g id="edge22" class="edge"><title>Node2&#45;&gt;Node21</title>
<path fill="none" stroke="midnightblue" d="M629.818,-292.416C606.999,-284.766 574.563,-272.267 549,-256 521.748,-238.657 495.087,-212.113 479.35,-195.16"/>
<polygon fill="midnightblue" stroke="midnightblue" points="481.869,-192.728 472.548,-187.691 476.693,-197.441 481.869,-192.728"/>
</g>
<!-- Node23 -->
<g id="node23" class="node"><title>Node23</title>
<g id="a_node23"><a xlink:href="../../d4/d05/json_8h.html" target="_top" xlink:title="json.h">
<polygon fill="white" stroke="black" points="623.5,-112.5 623.5,-131.5 666.5,-131.5 666.5,-112.5 623.5,-112.5"/>
<text text-anchor="middle" x="645" y="-119.5" font-family="Helvetica,sans-Serif" font-size="10.00">json.h</text>
</a>
</g>
</g>
<!-- Node2&#45;&gt;Node23 -->
<g id="edge29" class="edge"><title>Node2&#45;&gt;Node23</title>
<path fill="none" stroke="midnightblue" d="M648.98,-292.34C640.928,-283.932 629.702,-270.363 625,-256 612.832,-218.83 616.881,-206.259 625,-168 626.997,-158.591 631.101,-148.762 635.075,-140.698"/>
<polygon fill="midnightblue" stroke="midnightblue" points="638.307,-142.072 639.87,-131.593 632.113,-138.81 638.307,-142.072"/>
</g>
<!-- Node25 -->
<g id="node25" class="node"><title>Node25</title>
<g id="a_node25"><a xlink:href="../../db/d97/clsevent_8h.html" target="_top" xlink:title="../resources/clsevent.h">
<polygon fill="white" stroke="black" points="791.5,-112.5 791.5,-131.5 906.5,-131.5 906.5,-112.5 791.5,-112.5"/>
<text text-anchor="middle" x="849" y="-119.5" font-family="Helvetica,sans-Serif" font-size="10.00">../resources/clsevent.h</text>
</a>
</g>
</g>
<!-- Node2&#45;&gt;Node25 -->
<g id="edge30" class="edge"><title>Node2&#45;&gt;Node25</title>
<path fill="none" stroke="midnightblue" d="M657.871,-292.464C658,-269.09 661.655,-203.437 697,-168 719.166,-145.776 751.752,-134.423 781.072,-128.665"/>
<polygon fill="midnightblue" stroke="midnightblue" points="782.05,-132.046 791.285,-126.853 780.827,-125.154 782.05,-132.046"/>
</g>
<!-- Node26 -->
<g id="node26" class="node"><title>Node26</title>
<g id="a_node26"><a xlink:href="../../db/dd2/events_8h.html" target="_top" xlink:title="../resources/events\l/events.h">
<polygon fill="white" stroke="black" points="1015.5,-225 1015.5,-255 1114.5,-255 1114.5,-225 1015.5,-225"/>
<text text-anchor="start" x="1023.5" y="-243" font-family="Helvetica,sans-Serif" font-size="10.00">../resources/events</text>
<text text-anchor="middle" x="1065" y="-232" font-family="Helvetica,sans-Serif" font-size="10.00">/events.h</text>
</a>
</g>
</g>
<!-- Node2&#45;&gt;Node26 -->
<g id="edge36" class="edge"><title>Node2&#45;&gt;Node26</title>
<path fill="none" stroke="midnightblue" d="M700.041,-297.213C763.861,-291.105 889.143,-277.708 1005.09,-256.026"/>
<polygon fill="midnightblue" stroke="midnightblue" points="1006.03,-259.411 1015.2,-254.109 1004.72,-252.533 1006.03,-259.411"/>
</g>
<!-- Node8 -->
<g id="node8" class="node"><title>Node8</title>
<polygon fill="white" stroke="#bfbfbf" points="513,-0.5 513,-19.5 565,-19.5 565,-0.5 513,-0.5"/>
<text text-anchor="middle" x="539" y="-7.5" font-family="Helvetica,sans-Serif" font-size="10.00">QDebug</text>
</g>
<!-- Node7&#45;&gt;Node8 -->
<g id="edge7" class="edge"><title>Node7&#45;&gt;Node8</title>
<path fill="none" stroke="midnightblue" d="M635.778,-56.4435C617.104,-47.6751 587.844,-33.9355 566.383,-23.8579"/>
<polygon fill="midnightblue" stroke="midnightblue" points="567.676,-20.5988 557.137,-19.5164 564.701,-26.935 567.676,-20.5988"/>
</g>
<!-- Node9 -->
<g id="node9" class="node"><title>Node9</title>
<polygon fill="white" stroke="#bfbfbf" points="813.5,-0.5 813.5,-19.5 878.5,-19.5 878.5,-0.5 813.5,-0.5"/>
<text text-anchor="middle" x="846" y="-7.5" font-family="Helvetica,sans-Serif" font-size="10.00">QDateTime</text>
</g>
<!-- Node7&#45;&gt;Node9 -->
<g id="edge8" class="edge"><title>Node7&#45;&gt;Node9</title>
<path fill="none" stroke="midnightblue" d="M684.423,-56.4435C717.285,-47.2011 769.785,-32.4356 805.974,-22.2572"/>
<polygon fill="midnightblue" stroke="midnightblue" points="807.04,-25.5932 815.719,-19.5164 805.145,-18.8547 807.04,-25.5932"/>
</g>
<!-- Node10 -->
<g id="node10" class="node"><title>Node10</title>
<polygon fill="white" stroke="#bfbfbf" points="583.5,-0.5 583.5,-19.5 624.5,-19.5 624.5,-0.5 583.5,-0.5"/>
<text text-anchor="middle" x="604" y="-7.5" font-family="Helvetica,sans-Serif" font-size="10.00">string</text>
</g>
<!-- Node7&#45;&gt;Node10 -->
<g id="edge9" class="edge"><title>Node7&#45;&gt;Node10</title>
<path fill="none" stroke="midnightblue" d="M645.744,-56.083C638.535,-48.2982 627.89,-36.8015 619.154,-27.3665"/>
<polygon fill="midnightblue" stroke="midnightblue" points="621.465,-24.7108 612.103,-19.7511 616.329,-29.4666 621.465,-24.7108"/>
</g>
<!-- Node11 -->
<g id="node11" class="node"><title>Node11</title>
<polygon fill="white" stroke="#bfbfbf" points="643,-0.5 643,-19.5 697,-19.5 697,-0.5 643,-0.5"/>
<text text-anchor="middle" x="670" y="-7.5" font-family="Helvetica,sans-Serif" font-size="10.00">iostream</text>
</g>
<!-- Node7&#45;&gt;Node11 -->
<g id="edge10" class="edge"><title>Node7&#45;&gt;Node11</title>
<path fill="none" stroke="midnightblue" d="M656.642,-56.083C658.786,-48.8486 661.879,-38.4087 664.549,-29.3968"/>
<polygon fill="midnightblue" stroke="midnightblue" points="667.922,-30.3334 667.407,-19.7511 661.21,-28.3447 667.922,-30.3334"/>
</g>
<!-- Node12 -->
<g id="node12" class="node"><title>Node12</title>
<polygon fill="white" stroke="#bfbfbf" points="715.5,-0.5 715.5,-19.5 780.5,-19.5 780.5,-0.5 715.5,-0.5"/>
<text text-anchor="middle" x="748" y="-7.5" font-family="Helvetica,sans-Serif" font-size="10.00">QStringList</text>
</g>
<!-- Node7&#45;&gt;Node12 -->
<g id="edge11" class="edge"><title>Node7&#45;&gt;Node12</title>
<path fill="none" stroke="midnightblue" d="M669.103,-56.324C683.903,-47.8215 706.694,-34.7288 723.982,-24.7975"/>
<polygon fill="midnightblue" stroke="midnightblue" points="726.007,-27.6707 732.935,-19.6545 722.52,-21.6009 726.007,-27.6707"/>
</g>
<!-- Node14&#45;&gt;Node3 -->
<g id="edge14" class="edge"><title>Node14&#45;&gt;Node3</title>
<path fill="none" stroke="midnightblue" d="M394.222,-113.263C427.425,-103.827 483.675,-87.8397 520.58,-77.351"/>
<polygon fill="midnightblue" stroke="midnightblue" points="521.779,-80.649 530.441,-74.5484 519.865,-73.9157 521.779,-80.649"/>
</g>
<!-- Node15 -->
<g id="node15" class="node"><title>Node15</title>
<polygon fill="white" stroke="#bfbfbf" points="725,-56.5 725,-75.5 775,-75.5 775,-56.5 725,-56.5"/>
<text text-anchor="middle" x="750" y="-63.5" font-family="Helvetica,sans-Serif" font-size="10.00">QString</text>
</g>
<!-- Node14&#45;&gt;Node15 -->
<g id="edge15" class="edge"><title>Node14&#45;&gt;Node15</title>
<path fill="none" stroke="midnightblue" d="M394.073,-117.937C464.681,-109.877 653.234,-87.888 715,-76 715.1,-75.9807 715.2,-75.9613 715.301,-75.9418"/>
<polygon fill="midnightblue" stroke="midnightblue" points="715.823,-79.4103 724.849,-73.8622 714.333,-72.5706 715.823,-79.4103"/>
</g>
<!-- Node16 -->
<g id="node16" class="node"><title>Node16</title>
<polygon fill="white" stroke="#bfbfbf" points="-0.5,-56.5 -0.5,-75.5 46.5,-75.5 46.5,-56.5 -0.5,-56.5"/>
<text text-anchor="middle" x="23" y="-63.5" font-family="Helvetica,sans-Serif" font-size="10.00">QColor</text>
</g>
<!-- Node14&#45;&gt;Node16 -->
<g id="edge16" class="edge"><title>Node14&#45;&gt;Node16</title>
<path fill="none" stroke="midnightblue" d="M339.765,-118.196C287.03,-112.524 167.184,-98.4548 56.6861,-75.9044"/>
<polygon fill="midnightblue" stroke="midnightblue" points="57.2107,-72.4389 46.7089,-73.8395 55.792,-79.2936 57.2107,-72.4389"/>
</g>
<!-- Node17 -->
<g id="node17" class="node"><title>Node17</title>
<polygon fill="white" stroke="#bfbfbf" points="65,-56.5 65,-75.5 149,-75.5 149,-56.5 65,-56.5"/>
<text text-anchor="middle" x="107" y="-63.5" font-family="Helvetica,sans-Serif" font-size="10.00">QGraphicsView</text>
</g>
<!-- Node14&#45;&gt;Node17 -->
<g id="edge17" class="edge"><title>Node14&#45;&gt;Node17</title>
<path fill="none" stroke="midnightblue" d="M339.667,-115.323C296.585,-106.375 212.203,-88.8498 157.773,-77.5451"/>
<polygon fill="midnightblue" stroke="midnightblue" points="158.478,-74.1169 147.975,-75.5102 157.054,-80.9706 158.478,-74.1169"/>
</g>
<!-- Node18 -->
<g id="node18" class="node"><title>Node18</title>
<polygon fill="white" stroke="#bfbfbf" points="167,-56.5 167,-75.5 297,-75.5 297,-56.5 167,-56.5"/>
<text text-anchor="middle" x="232" y="-63.5" font-family="Helvetica,sans-Serif" font-size="10.00">QNetworkAccessManager</text>
</g>
<!-- Node14&#45;&gt;Node18 -->
<g id="edge18" class="edge"><title>Node14&#45;&gt;Node18</title>
<path fill="none" stroke="midnightblue" d="M345.609,-112.444C323.293,-103.517 288.097,-89.4387 262.792,-79.3168"/>
<polygon fill="midnightblue" stroke="midnightblue" points="263.876,-75.9807 253.291,-75.5164 261.276,-82.4801 263.876,-75.9807"/>
</g>
<!-- Node19 -->
<g id="node19" class="node"><title>Node19</title>
<polygon fill="white" stroke="#bfbfbf" points="315.5,-56.5 315.5,-75.5 410.5,-75.5 410.5,-56.5 315.5,-56.5"/>
<text text-anchor="middle" x="363" y="-63.5" font-family="Helvetica,sans-Serif" font-size="10.00">QNetworkRequest</text>
</g>
<!-- Node14&#45;&gt;Node19 -->
<g id="edge19" class="edge"><title>Node14&#45;&gt;Node19</title>
<path fill="none" stroke="midnightblue" d="M366.339,-112.083C365.815,-105.006 365.064,-94.8611 364.406,-85.9865"/>
<polygon fill="midnightblue" stroke="midnightblue" points="367.877,-85.4652 363.648,-75.7511 360.897,-85.9823 367.877,-85.4652"/>
</g>
<!-- Node20 -->
<g id="node20" class="node"><title>Node20</title>
<polygon fill="white" stroke="#bfbfbf" points="429,-56.5 429,-75.5 513,-75.5 513,-56.5 429,-56.5"/>
<text text-anchor="middle" x="471" y="-63.5" font-family="Helvetica,sans-Serif" font-size="10.00">QNetworkReply</text>
</g>
<!-- Node14&#45;&gt;Node20 -->
<g id="edge20" class="edge"><title>Node14&#45;&gt;Node20</title>
<path fill="none" stroke="midnightblue" d="M383.709,-112.324C400.312,-103.703 426.002,-90.3643 445.22,-80.3855"/>
<polygon fill="midnightblue" stroke="midnightblue" points="447.07,-83.3689 454.332,-75.6545 443.844,-77.1565 447.07,-83.3689"/>
</g>
<!-- Node14&#45;&gt;Node7 -->
<g id="edge21" class="edge"><title>Node14&#45;&gt;Node7</title>
<path fill="none" stroke="midnightblue" d="M394,-115.92C440.66,-107.141 537.272,-88.9627 598.687,-77.4073"/>
<polygon fill="midnightblue" stroke="midnightblue" points="599.422,-80.8306 608.602,-75.5418 598.127,-73.9513 599.422,-80.8306"/>
</g>
<!-- Node21&#45;&gt;Node3 -->
<g id="edge23" class="edge"><title>Node21&#45;&gt;Node3</title>
<path fill="none" stroke="midnightblue" d="M458.158,-168.295C448.692,-155.113 434.045,-129.747 446,-112 454.756,-99.0026 491.681,-85.7106 520.569,-76.9766"/>
<polygon fill="midnightblue" stroke="midnightblue" points="521.787,-80.2664 530.392,-74.0853 519.811,-73.5512 521.787,-80.2664"/>
</g>
<!-- Node22 -->
<g id="node22" class="node"><title>Node22</title>
<polygon fill="white" stroke="#bfbfbf" points="455,-112.5 455,-131.5 529,-131.5 529,-112.5 455,-112.5"/>
<text text-anchor="middle" x="492" y="-119.5" font-family="Helvetica,sans-Serif" font-size="10.00">QVariantMap</text>
</g>
<!-- Node21&#45;&gt;Node22 -->
<g id="edge24" class="edge"><title>Node21&#45;&gt;Node22</title>
<path fill="none" stroke="midnightblue" d="M469.459,-168.083C473.154,-160.691 478.523,-149.953 483.094,-140.811"/>
<polygon fill="midnightblue" stroke="midnightblue" points="486.283,-142.261 487.624,-131.751 480.022,-139.13 486.283,-142.261"/>
</g>
<!-- Node21&#45;&gt;Node23 -->
<g id="edge25" class="edge"><title>Node21&#45;&gt;Node23</title>
<path fill="none" stroke="midnightblue" d="M493.522,-168.444C526.222,-158.633 579.665,-142.6 613.548,-132.435"/>
<polygon fill="midnightblue" stroke="midnightblue" points="614.819,-135.709 623.391,-129.483 612.807,-129.004 614.819,-135.709"/>
</g>
<!-- Node21&#45;&gt;Node7 -->
<g id="edge28" class="edge"><title>Node21&#45;&gt;Node7</title>
<path fill="none" stroke="midnightblue" d="M479.831,-168.368C512.539,-149.332 591.088,-103.615 630.546,-80.6505"/>
<polygon fill="midnightblue" stroke="midnightblue" points="632.356,-83.6466 639.238,-75.5914 628.835,-77.5967 632.356,-83.6466"/>
</g>
<!-- Node24 -->
<g id="node24" class="node"><title>Node24</title>
<polygon fill="white" stroke="#bfbfbf" points="793.5,-56.5 793.5,-75.5 848.5,-75.5 848.5,-56.5 793.5,-56.5"/>
<text text-anchor="middle" x="821" y="-63.5" font-family="Helvetica,sans-Serif" font-size="10.00">QVariant</text>
</g>
<!-- Node23&#45;&gt;Node24 -->
<g id="edge26" class="edge"><title>Node23&#45;&gt;Node24</title>
<path fill="none" stroke="midnightblue" d="M666.581,-114.379C695.654,-105.458 747.852,-89.4431 783.437,-78.5249"/>
<polygon fill="midnightblue" stroke="midnightblue" points="784.918,-81.7317 793.452,-75.4523 782.865,-75.0396 784.918,-81.7317"/>
</g>
<!-- Node23&#45;&gt;Node15 -->
<g id="edge27" class="edge"><title>Node23&#45;&gt;Node15</title>
<path fill="none" stroke="midnightblue" d="M661.87,-112.324C678.709,-103.664 704.807,-90.2424 724.238,-80.249"/>
<polygon fill="midnightblue" stroke="midnightblue" points="725.88,-83.3405 733.172,-75.6545 722.678,-77.1155 725.88,-83.3405"/>
</g>
<!-- Node25&#45;&gt;Node3 -->
<g id="edge31" class="edge"><title>Node25&#45;&gt;Node3</title>
<path fill="none" stroke="midnightblue" d="M792.856,-112.469C742.87,-104.579 667.555,-91.9739 593.646,-76.2347"/>
<polygon fill="midnightblue" stroke="midnightblue" points="594.214,-72.7769 583.702,-74.0959 592.742,-79.6204 594.214,-72.7769"/>
</g>
<!-- Node25&#45;&gt;Node15 -->
<g id="edge32" class="edge"><title>Node25&#45;&gt;Node15</title>
<path fill="none" stroke="midnightblue" d="M833.094,-112.324C817.362,-103.743 793.058,-90.486 774.791,-80.5224"/>
<polygon fill="midnightblue" stroke="midnightblue" points="776.322,-77.3704 765.867,-75.6545 772.97,-83.5157 776.322,-77.3704"/>
</g>
<!-- Node25&#45;&gt;Node24 -->
<g id="edge33" class="edge"><title>Node25&#45;&gt;Node24</title>
<path fill="none" stroke="midnightblue" d="M844.376,-112.083C840.544,-104.691 834.976,-93.9533 830.235,-84.8111"/>
<polygon fill="midnightblue" stroke="midnightblue" points="833.248,-83.0175 825.538,-75.7511 827.034,-86.2398 833.248,-83.0175"/>
</g>
<!-- Node25&#45;&gt;Node9 -->
<g id="edge34" class="edge"><title>Node25&#45;&gt;Node9</title>
<path fill="none" stroke="midnightblue" d="M851.449,-112.17C854.607,-99.6691 859.42,-76.0931 857,-56 855.929,-47.1069 853.708,-37.4344 851.54,-29.344"/>
<polygon fill="midnightblue" stroke="midnightblue" points="854.844,-28.1668 848.73,-19.5139 848.113,-30.0908 854.844,-28.1668"/>
</g>
<!-- Node25&#45;&gt;Node7 -->
<g id="edge35" class="edge"><title>Node25&#45;&gt;Node7</title>
<path fill="none" stroke="midnightblue" d="M818.102,-112.444C784.726,-103.201 731.406,-88.4356 694.651,-78.2572"/>
<polygon fill="midnightblue" stroke="midnightblue" points="695.325,-74.8122 684.754,-75.5164 693.457,-81.5583 695.325,-74.8122"/>
</g>
<!-- Node27 -->
<g id="node27" class="node"><title>Node27</title>
<g id="a_node27"><a xlink:href="../../db/d70/eventchat_8h.html" target="_top" xlink:title="eventchat.h">
<polygon fill="white" stroke="black" points="1115,-168.5 1115,-187.5 1181,-187.5 1181,-168.5 1115,-168.5"/>
<text text-anchor="middle" x="1148" y="-175.5" font-family="Helvetica,sans-Serif" font-size="10.00">eventchat.h</text>
</a>
</g>
</g>
<!-- Node26&#45;&gt;Node27 -->
<g id="edge37" class="edge"><title>Node26&#45;&gt;Node27</title>
<path fill="none" stroke="midnightblue" d="M1084.67,-224.781C1097.6,-215.433 1114.49,-203.227 1127.57,-193.77"/>
<polygon fill="midnightblue" stroke="midnightblue" points="1129.87,-196.426 1135.92,-187.731 1125.77,-190.753 1129.87,-196.426"/>
</g>
<!-- Node28 -->
<g id="node28" class="node"><title>Node28</title>
<g id="a_node28"><a xlink:href="../../d5/d02/eventuserjoin_8h.html" target="_top" xlink:title="eventuserjoin.h">
<polygon fill="white" stroke="black" points="1199.5,-168.5 1199.5,-187.5 1280.5,-187.5 1280.5,-168.5 1199.5,-168.5"/>
<text text-anchor="middle" x="1240" y="-175.5" font-family="Helvetica,sans-Serif" font-size="10.00">eventuserjoin.h</text>
</a>
</g>
</g>
<!-- Node26&#45;&gt;Node28 -->
<g id="edge39" class="edge"><title>Node26&#45;&gt;Node28</title>
<path fill="none" stroke="midnightblue" d="M1106.03,-224.933C1136.3,-214.553 1177.03,-200.589 1205.61,-190.792"/>
<polygon fill="midnightblue" stroke="midnightblue" points="1206.85,-194.067 1215.17,-187.513 1204.58,-187.445 1206.85,-194.067"/>
</g>
<!-- Node29 -->
<g id="node29" class="node"><title>Node29</title>
<g id="a_node29"><a xlink:href="../../d7/d56/eventuserleave_8h.html" target="_top" xlink:title="eventuserleave.h">
<polygon fill="white" stroke="black" points="1299,-168.5 1299,-187.5 1387,-187.5 1387,-168.5 1299,-168.5"/>
<text text-anchor="middle" x="1343" y="-175.5" font-family="Helvetica,sans-Serif" font-size="10.00">eventuserleave.h</text>
</a>
</g>
</g>
<!-- Node26&#45;&gt;Node29 -->
<g id="edge41" class="edge"><title>Node26&#45;&gt;Node29</title>
<path fill="none" stroke="midnightblue" d="M1114.7,-228.273C1165.26,-217.362 1243.14,-200.553 1293.59,-189.664"/>
<polygon fill="midnightblue" stroke="midnightblue" points="1294.57,-193.033 1303.61,-187.502 1293.09,-186.191 1294.57,-193.033"/>
</g>
<!-- Node30 -->
<g id="node30" class="node"><title>Node30</title>
<g id="a_node30"><a xlink:href="../../db/db0/eventuserchangestatus_8h.html" target="_top" xlink:title="eventuserchangestatus.h">
<polygon fill="white" stroke="black" points="705.5,-168.5 705.5,-187.5 830.5,-187.5 830.5,-168.5 705.5,-168.5"/>
<text text-anchor="middle" x="768" y="-175.5" font-family="Helvetica,sans-Serif" font-size="10.00">eventuserchangestatus.h</text>
</a>
</g>
</g>
<!-- Node26&#45;&gt;Node30 -->
<g id="edge43" class="edge"><title>Node26&#45;&gt;Node30</title>
<path fill="none" stroke="midnightblue" d="M1015.48,-226.172C1012.28,-225.416 1009.1,-224.685 1006,-224 945.821,-210.674 876.533,-197.856 828.294,-189.333"/>
<polygon fill="midnightblue" stroke="midnightblue" points="828.786,-185.866 818.331,-187.581 827.573,-192.76 828.786,-185.866"/>
</g>
<!-- Node31 -->
<g id="node31" class="node"><title>Node31</title>
<g id="a_node31"><a xlink:href="../../d8/d44/eventuserchangenick_8h.html" target="_top" xlink:title="eventuserchangenick.h">
<polygon fill="white" stroke="black" points="849,-168.5 849,-187.5 965,-187.5 965,-168.5 849,-168.5"/>
<text text-anchor="middle" x="907" y="-175.5" font-family="Helvetica,sans-Serif" font-size="10.00">eventuserchangenick.h</text>
</a>
</g>
</g>
<!-- Node26&#45;&gt;Node31 -->
<g id="edge45" class="edge"><title>Node26&#45;&gt;Node31</title>
<path fill="none" stroke="midnightblue" d="M1027.96,-224.933C1001.06,-214.72 965.028,-201.036 939.301,-191.266"/>
<polygon fill="midnightblue" stroke="midnightblue" points="940.238,-187.878 929.647,-187.6 937.753,-194.422 940.238,-187.878"/>
</g>
<!-- Node32 -->
<g id="node32" class="node"><title>Node32</title>
<g id="a_node32"><a xlink:href="../../da/d66/eventservermessage_8h.html" target="_top" xlink:title="eventservermessage.h">
<polygon fill="white" stroke="black" points="983.5,-168.5 983.5,-187.5 1096.5,-187.5 1096.5,-168.5 983.5,-168.5"/>
<text text-anchor="middle" x="1040" y="-175.5" font-family="Helvetica,sans-Serif" font-size="10.00">eventservermessage.h</text>
</a>
</g>
</g>
<!-- Node26&#45;&gt;Node32 -->
<g id="edge47" class="edge"><title>Node26&#45;&gt;Node32</title>
<path fill="none" stroke="midnightblue" d="M1059.08,-224.781C1055.63,-216.512 1051.25,-206.006 1047.56,-197.145"/>
<polygon fill="midnightblue" stroke="midnightblue" points="1050.71,-195.615 1043.64,-187.731 1044.25,-198.307 1050.71,-195.615"/>
</g>
<!-- Node27&#45;&gt;Node25 -->
<g id="edge38" class="edge"><title>Node27&#45;&gt;Node25</title>
<path fill="none" stroke="midnightblue" d="M1114.69,-169.917C1111.42,-169.255 1108.15,-168.605 1105,-168 1038.74,-155.245 962.543,-142.038 910.625,-133.258"/>
<polygon fill="midnightblue" stroke="midnightblue" points="911.018,-129.775 900.575,-131.563 909.853,-136.677 911.018,-129.775"/>
</g>
<!-- Node28&#45;&gt;Node25 -->
<g id="edge40" class="edge"><title>Node28&#45;&gt;Node25</title>
<path fill="none" stroke="midnightblue" d="M1199.37,-169.522C1196.2,-168.989 1193.05,-168.476 1190,-168 1095.58,-153.28 985.947,-139.378 917.023,-131.024"/>
<polygon fill="midnightblue" stroke="midnightblue" points="917.086,-127.506 906.738,-129.782 916.246,-134.456 917.086,-127.506"/>
</g>
<!-- Node29&#45;&gt;Node25 -->
<g id="edge42" class="edge"><title>Node29&#45;&gt;Node25</title>
<path fill="none" stroke="midnightblue" d="M1298.83,-169.405C1295.51,-168.905 1292.2,-168.43 1289,-168 1157.73,-150.366 1003.6,-136.066 917.014,-128.612"/>
<polygon fill="midnightblue" stroke="midnightblue" points="917.057,-125.103 906.795,-127.738 916.46,-132.078 917.057,-125.103"/>
</g>
<!-- Node30&#45;&gt;Node25 -->
<g id="edge44" class="edge"><title>Node30&#45;&gt;Node25</title>
<path fill="none" stroke="midnightblue" d="M781.014,-168.324C793.532,-159.979 812.682,-147.212 827.471,-137.352"/>
<polygon fill="midnightblue" stroke="midnightblue" points="829.639,-140.114 836.018,-131.655 825.756,-134.289 829.639,-140.114"/>
</g>
<!-- Node31&#45;&gt;Node25 -->
<g id="edge46" class="edge"><title>Node31&#45;&gt;Node25</title>
<path fill="none" stroke="midnightblue" d="M897.681,-168.324C889.107,-160.341 876.188,-148.313 865.812,-138.653"/>
<polygon fill="midnightblue" stroke="midnightblue" points="868.192,-136.086 858.488,-131.834 863.422,-141.21 868.192,-136.086"/>
</g>
<!-- Node32&#45;&gt;Node25 -->
<g id="edge48" class="edge"><title>Node32&#45;&gt;Node25</title>
<path fill="none" stroke="midnightblue" d="M1009.74,-168.444C977.045,-159.201 924.818,-144.436 888.817,-134.257"/>
<polygon fill="midnightblue" stroke="midnightblue" points="889.698,-130.869 879.123,-131.516 887.794,-137.605 889.698,-130.869"/>
</g>
</g>
</svg>
        <g id="navigator" transform="translate(0 0)" fill="#404254">
                <rect fill="#f2f5e9" fill-opacity="0.5" stroke="#606060" stroke-width=".5" x="0" y="0" width="60" height="60"/>
                <use id="zoomplus" xlink:href="#zoomPlus" x="17" y="9" onmousedown="handleZoom(evt,'in')"/>
                <use id="zoomminus" xlink:href="#zoomMin" x="42" y="9" onmousedown="handleZoom(evt,'out')"/>
                <use id="reset" xlink:href="#resetDef" x="30" y="36" onmousedown="handleReset()"/>
                <g id="arrowUp" xlink:href="#dirArrow" transform="translate(30 24)" onmousedown="handlePan(0,-1)">
                  <use xlink:href="#rim" fill="#404040">
                        <set attributeName="fill" to="#808080" begin="arrowUp.mouseover" end="arrowUp.mouseout"/>
                  </use>
                  <path fill="none" stroke="white" stroke-width="1.5" d="M0,-3.0v7 M-2.5,-0.5L0,-3.0L2.5,-0.5"/>
                </g>
                <g id="arrowRight" xlink:href="#dirArrow" transform="rotate(90) translate(36 -43)" onmousedown="handlePan(1,0)">
                  <use xlink:href="#rim" fill="#404040">
                        <set attributeName="fill" to="#808080" begin="arrowRight.mouseover" end="arrowRight.mouseout"/>
                  </use>
                  <path fill="none" stroke="white" stroke-width="1.5" d="M0,-3.0v7 M-2.5,-0.5L0,-3.0L2.5,-0.5"/>
                </g>
                <g id="arrowDown" xlink:href="#dirArrow" transform="rotate(180) translate(-30 -48)" onmousedown="handlePan(0,1)">
                  <use xlink:href="#rim" fill="#404040">
                        <set attributeName="fill" to="#808080" begin="arrowDown.mouseover" end="arrowDown.mouseout"/>
                  </use>
                  <path fill="none" stroke="white" stroke-width="1.5" d="M0,-3.0v7 M-2.5,-0.5L0,-3.0L2.5,-0.5"/>
                </g>
                <g id="arrowLeft" xlink:href="#dirArrow" transform="rotate(270) translate(-36 17)" onmousedown="handlePan(-1,0)">
                  <use xlink:href="#rim" fill="#404040">
                        <set attributeName="fill" to="#808080" begin="arrowLeft.mouseover" end="arrowLeft.mouseout"/>
                  </use>
                  <path fill="none" stroke="white" stroke-width="1.5" d="M0,-3.0v7 M-2.5,-0.5L0,-3.0L2.5,-0.5"/>
                </g>
        </g>
        <svg viewBox="0 0 15 15" width="100%" height="30px" preserveAspectRatio="xMaxYMin meet">
         <g id="arrow_out" transform="scale(0.3 0.3)">
          <a xlink:href="clsserverconn_8cpp__incl_org.svg" target="_base">
           <rect id="button" ry="5" rx="5" y="6" x="6" height="38" width="38"
                fill="#f2f5e9" fill-opacity="0.5" stroke="#606060" stroke-width="1.0"/>
           <path id="arrow"
             d="M 11.500037,31.436501 C 11.940474,20.09759 22.043105,11.32322 32.158766,21.979434 L 37.068811,17.246167 C 37.068811,17.246167 37.088388,32 37.088388,32 L 22.160133,31.978069 C 22.160133,31.978069 26.997745,27.140456 26.997745,27.140456 C 18.528582,18.264221 13.291696,25.230495 11.500037,31.436501 z"
             style="fill:#404040;"/>
          </a>
         </g>
        </svg>
</svg>
