<?xml version="1.0" encoding="UTF-8" standalone="no"?>
<!DOCTYPE svg PUBLIC "-//W3C//DTD SVG 1.1//EN"
 "http://www.w3.org/Graphics/SVG/1.1/DTD/svg11.dtd">
<!-- Generated by graphviz version 2.30.1 (20130303.0817)
 -->
<!-- Title: server::ircClient Pages: 1 -->
<svg width="108pt" height="436pt"
 viewBox="0.00 0.00 108.00 436.00" xmlns="http://www.w3.org/2000/svg" xmlns:xlink="http://www.w3.org/1999/xlink">
<g id="graph0" class="graph" transform="scale(1 1) rotate(0) translate(4 432)">
<title>server::ircClient</title>
<polygon fill="white" stroke="white" points="-4,5 -4,-432 105,-432 105,5 -4,5"/>
<!-- Node1 -->
<g id="node1" class="node"><title>Node1</title>
<polygon fill="#bfbfbf" stroke="black" points="-0.5,-1 -0.5,-333 100.5,-333 100.5,-1 -0.5,-1"/>
<text text-anchor="middle" x="50" y="-321" font-family="Helvetica,sans-Serif" font-size="10.00">server::ircClient</text>
<polyline fill="none" stroke="black" points="-0.5,-314 100.5,-314 "/>
<text text-anchor="start" x="7.5" y="-302" font-family="Helvetica,sans-Serif" font-size="10.00">&#45; hostname</text>
<text text-anchor="start" x="7.5" y="-291" font-family="Helvetica,sans-Serif" font-size="10.00">&#45; port</text>
<text text-anchor="start" x="7.5" y="-280" font-family="Helvetica,sans-Serif" font-size="10.00">&#45; channel</text>
<text text-anchor="start" x="7.5" y="-269" font-family="Helvetica,sans-Serif" font-size="10.00">&#45; motdReceived</text>
<text text-anchor="start" x="7.5" y="-258" font-family="Helvetica,sans-Serif" font-size="10.00">&#45; sock</text>
<text text-anchor="start" x="7.5" y="-247" font-family="Helvetica,sans-Serif" font-size="10.00">&#45; buffer</text>
<text text-anchor="start" x="7.5" y="-236" font-family="Helvetica,sans-Serif" font-size="10.00">&#45; log</text>
<text text-anchor="start" x="7.5" y="-225" font-family="Helvetica,sans-Serif" font-size="10.00">and 9 more...</text>
<polyline fill="none" stroke="black" points="-0.5,-218 100.5,-218 "/>
<text text-anchor="start" x="7.5" y="-206" font-family="Helvetica,sans-Serif" font-size="10.00">+ ircClient()</text>
<text text-anchor="start" x="7.5" y="-195" font-family="Helvetica,sans-Serif" font-size="10.00">+ ~ircClient()</text>
<text text-anchor="start" x="7.5" y="-184" font-family="Helvetica,sans-Serif" font-size="10.00">+ doConnect()</text>
<text text-anchor="start" x="7.5" y="-173" font-family="Helvetica,sans-Serif" font-size="10.00">+ setOwnUser()</text>
<text text-anchor="start" x="7.5" y="-162" font-family="Helvetica,sans-Serif" font-size="10.00">+ sendChat()</text>
<text text-anchor="start" x="7.5" y="-151" font-family="Helvetica,sans-Serif" font-size="10.00">+ sendChat()</text>
<text text-anchor="start" x="7.5" y="-140" font-family="Helvetica,sans-Serif" font-size="10.00">+ sendChat()</text>
<text text-anchor="start" x="7.5" y="-129" font-family="Helvetica,sans-Serif" font-size="10.00">+ setUser()</text>
<text text-anchor="start" x="7.5" y="-118" font-family="Helvetica,sans-Serif" font-size="10.00">+ getOwnNick()</text>
<text text-anchor="start" x="7.5" y="-107" font-family="Helvetica,sans-Serif" font-size="10.00">+ setOwnNick()</text>
<text text-anchor="start" x="7.5" y="-96" font-family="Helvetica,sans-Serif" font-size="10.00">+ disconnected()</text>
<text text-anchor="start" x="7.5" y="-85" font-family="Helvetica,sans-Serif" font-size="10.00">+ sltConnected()</text>
<text text-anchor="start" x="7.5" y="-74" font-family="Helvetica,sans-Serif" font-size="10.00">+ readData()</text>
<text text-anchor="start" x="7.5" y="-63" font-family="Helvetica,sans-Serif" font-size="10.00">+ connectTimeout()</text>
<text text-anchor="start" x="7.5" y="-52" font-family="Helvetica,sans-Serif" font-size="10.00">+ checkForPing()</text>
<text text-anchor="start" x="7.5" y="-41" font-family="Helvetica,sans-Serif" font-size="10.00">&#45; init()</text>
<text text-anchor="start" x="7.5" y="-30" font-family="Helvetica,sans-Serif" font-size="10.00">&#45; send()</text>
<text text-anchor="start" x="7.5" y="-19" font-family="Helvetica,sans-Serif" font-size="10.00">&#45; handleCommand()</text>
<text text-anchor="start" x="7.5" y="-8" font-family="Helvetica,sans-Serif" font-size="10.00">&#45; sendPong()</text>
</g>
<!-- Node2 -->
<g id="node2" class="node"><title>Node2</title>
<polygon fill="white" stroke="#bfbfbf" points="23.5,-370.5 23.5,-427.5 76.5,-427.5 76.5,-370.5 23.5,-370.5"/>
<text text-anchor="middle" x="50" y="-415.5" font-family="Helvetica,sans-Serif" font-size="10.00">QObject</text>
<polyline fill="none" stroke="#bfbfbf" points="23.5,-408.5 76.5,-408.5 "/>
<text text-anchor="middle" x="50" y="-396.5" font-family="Helvetica,sans-Serif" font-size="10.00"> </text>
<polyline fill="none" stroke="#bfbfbf" points="23.5,-389.5 76.5,-389.5 "/>
<text text-anchor="middle" x="50" y="-377.5" font-family="Helvetica,sans-Serif" font-size="10.00"> </text>
</g>
<!-- Node2&#45;&gt;Node1 -->
<g id="edge1" class="edge"><title>Node2&#45;&gt;Node1</title>
<path fill="none" stroke="midnightblue" d="M50,-360.143C50,-352.008 50,-342.917 50,-333.235"/>
<polygon fill="none" stroke="midnightblue" points="46.5001,-360.257 50,-370.257 53.5001,-360.257 46.5001,-360.257"/>
</g>
</g>
</svg>
