<?xml version="1.0" encoding="UTF-8" standalone="no"?>
<!DOCTYPE svg PUBLIC "-//W3C//DTD SVG 1.1//EN"
 "http://www.w3.org/Graphics/SVG/1.1/DTD/svg11.dtd">
<!-- Generated by graphviz version 2.30.1 (20130303.0817)
 -->
<!-- Title: client::chatInput::keyPressEvent Pages: 1 -->
<svg width="366pt" height="87pt"
 viewBox="0.00 0.00 366.00 87.00" xmlns="http://www.w3.org/2000/svg" xmlns:xlink="http://www.w3.org/1999/xlink">
<g id="graph0" class="graph" transform="scale(1 1) rotate(0) translate(4 83)">
<title>client::chatInput::keyPressEvent</title>
<polygon fill="white" stroke="white" points="-4,5 -4,-83 363,-83 363,5 -4,5"/>
<!-- Node1 -->
<g id="node1" class="node"><title>Node1</title>
<polygon fill="#bfbfbf" stroke="black" points="0,-24 0,-54 92,-54 92,-24 0,-24"/>
<text text-anchor="start" x="8" y="-42" font-family="Helvetica,sans-Serif" font-size="10.00">client::chatInput::</text>
<text text-anchor="middle" x="46" y="-31" font-family="Helvetica,sans-Serif" font-size="10.00">keyPressEvent</text>
</g>
<!-- Node2 -->
<g id="node2" class="node"><title>Node2</title>
<g id="a_node2"><a xlink:href="../../d1/d34/classclient_1_1chat_input.xhtml#a16941b1cc04b2333d3d5328e23b4afdf" target="_top" xlink:title="client::chatInput::\lcheckForCommand">
<polygon fill="white" stroke="black" points="128.5,-24 128.5,-54 229.5,-54 229.5,-24 128.5,-24"/>
<text text-anchor="start" x="136.5" y="-42" font-family="Helvetica,sans-Serif" font-size="10.00">client::chatInput::</text>
<text text-anchor="middle" x="179" y="-31" font-family="Helvetica,sans-Serif" font-size="10.00">checkForCommand</text>
</a>
</g>
</g>
<!-- Node1&#45;&gt;Node2 -->
<g id="edge1" class="edge"><title>Node1&#45;&gt;Node2</title>
<path fill="none" stroke="midnightblue" d="M92.0828,-39C100.488,-39 109.391,-39 118.158,-39"/>
<polygon fill="midnightblue" stroke="midnightblue" points="118.349,-42.5001 128.349,-39 118.349,-35.5001 118.349,-42.5001"/>
</g>
<!-- Node3 -->
<g id="node3" class="node"><title>Node3</title>
<g id="a_node3"><a xlink:href="../../d1/d34/classclient_1_1chat_input.xhtml#a955c343e83632ba1cc0a0b089c06803e" target="_top" xlink:title="Emitted when the users presses enter and the chatbox contains a command.">
<polygon fill="white" stroke="black" points="266,-49 266,-79 358,-79 358,-49 266,-49"/>
<text text-anchor="start" x="274" y="-67" font-family="Helvetica,sans-Serif" font-size="10.00">client::chatInput::</text>
<text text-anchor="middle" x="312" y="-56" font-family="Helvetica,sans-Serif" font-size="10.00">commandGiven</text>
</a>
</g>
</g>
<!-- Node2&#45;&gt;Node3 -->
<g id="edge2" class="edge"><title>Node2&#45;&gt;Node3</title>
<path fill="none" stroke="midnightblue" d="M229.525,-48.4514C238.066,-50.0813 246.993,-51.7849 255.675,-53.4417"/>
<polygon fill="midnightblue" stroke="midnightblue" points="255.238,-56.9214 265.717,-55.3581 256.55,-50.0455 255.238,-56.9214"/>
</g>
<!-- Node4 -->
<g id="node4" class="node"><title>Node4</title>
<g id="a_node4"><a xlink:href="../../d1/d34/classclient_1_1chat_input.xhtml#abfb6a31b8691c93a03c3bda792e14f34" target="_top" xlink:title="Emitted when the user presses enter and the chatbox does not contain a command.">
<polygon fill="white" stroke="black" points="266,-0 266,-30 358,-30 358,-0 266,-0"/>
<text text-anchor="start" x="274" y="-18" font-family="Helvetica,sans-Serif" font-size="10.00">client::chatInput::</text>
<text text-anchor="middle" x="312" y="-7" font-family="Helvetica,sans-Serif" font-size="10.00">sendChat</text>
</a>
</g>
</g>
<!-- Node2&#45;&gt;Node4 -->
<g id="edge3" class="edge"><title>Node2&#45;&gt;Node4</title>
<path fill="none" stroke="midnightblue" d="M229.525,-29.9266C238.066,-28.3619 246.993,-26.7265 255.675,-25.1359"/>
<polygon fill="midnightblue" stroke="midnightblue" points="256.511,-28.541 265.717,-23.2962 255.25,-21.6556 256.511,-28.541"/>
</g>
</g>
</svg>
