<?xml version="1.0" encoding="UTF-8" standalone="no"?>
<!DOCTYPE svg PUBLIC "-//W3C//DTD SVG 1.1//EN"
 "http://www.w3.org/Graphics/SVG/1.1/DTD/svg11.dtd">
<!-- Generated by graphviz version 2.30.1 (20130303.0817)
 -->
<!-- Title: client::chatInput::checkForCommand Pages: 1 -->
<svg width="238pt" height="38pt"
 viewBox="0.00 0.00 238.00 38.00" xmlns="http://www.w3.org/2000/svg" xmlns:xlink="http://www.w3.org/1999/xlink">
<g id="graph0" class="graph" transform="scale(1 1) rotate(0) translate(4 34)">
<title>client::chatInput::checkForCommand</title>
<polygon fill="white" stroke="white" points="-4,5 -4,-34 235,-34 235,5 -4,5"/>
<!-- Node1 -->
<g id="node1" class="node"><title>Node1</title>
<polygon fill="#bfbfbf" stroke="black" points="0.5,-0 0.5,-30 101.5,-30 101.5,-0 0.5,-0"/>
<text text-anchor="start" x="8.5" y="-18" font-family="Helvetica,sans-Serif" font-size="10.00">client::chatInput::</text>
<text text-anchor="middle" x="51" y="-7" font-family="Helvetica,sans-Serif" font-size="10.00">checkForCommand</text>
</g>
<!-- Node2 -->
<g id="node2" class="node"><title>Node2</title>
<g id="a_node2"><a xlink:href="../../d1/d34/classclient_1_1chat_input.html#a18489fc74edbd3948434ec0be0e3fe7e" target="_top" xlink:title="client::chatInput::\lkeyPressEvent">
<polygon fill="white" stroke="black" points="138,-0 138,-30 230,-30 230,-0 138,-0"/>
<text text-anchor="start" x="146" y="-18" font-family="Helvetica,sans-Serif" font-size="10.00">client::chatInput::</text>
<text text-anchor="middle" x="184" y="-7" font-family="Helvetica,sans-Serif" font-size="10.00">keyPressEvent</text>
</a>
</g>
</g>
<!-- Node1&#45;&gt;Node2 -->
<g id="edge1" class="edge"><title>Node1&#45;&gt;Node2</title>
<path fill="none" stroke="midnightblue" d="M111.691,-15C120.437,-15 129.322,-15 137.717,-15"/>
<polygon fill="midnightblue" stroke="midnightblue" points="111.526,-11.5001 101.525,-15 111.525,-18.5001 111.526,-11.5001"/>
</g>
</g>
</svg>
