<?xml version="1.0" encoding="UTF-8" standalone="no"?>
<!DOCTYPE svg PUBLIC "-//W3C//DTD SVG 1.1//EN"
 "http://www.w3.org/Graphics/SVG/1.1/DTD/svg11.dtd">
<!-- Generated by graphviz version 2.30.1 (20130303.0817)
 -->
<!-- Title: client::chatInput::commandGiven Pages: 1 -->
<svg width="366pt" height="38pt"
 viewBox="0.00 0.00 366.00 38.00" xmlns="http://www.w3.org/2000/svg" xmlns:xlink="http://www.w3.org/1999/xlink">
<g id="graph0" class="graph" transform="scale(1 1) rotate(0) translate(4 34)">
<title>client::chatInput::commandGiven</title>
<polygon fill="white" stroke="white" points="-4,5 -4,-34 363,-34 363,5 -4,5"/>
<!-- Node1 -->
<g id="node1" class="node"><title>Node1</title>
<polygon fill="#bfbfbf" stroke="black" points="0,-0 0,-30 92,-30 92,-0 0,-0"/>
<text text-anchor="start" x="8" y="-18" font-family="Helvetica,sans-Serif" font-size="10.00">client::chatInput::</text>
<text text-anchor="middle" x="46" y="-7" font-family="Helvetica,sans-Serif" font-size="10.00">commandGiven</text>
</g>
<!-- Node2 -->
<g id="node2" class="node"><title>Node2</title>
<g id="a_node2"><a xlink:href="../../d1/d34/classclient_1_1chat_input.html#a16941b1cc04b2333d3d5328e23b4afdf" target="_top" xlink:title="client::chatInput::\lcheckForCommand">
<polygon fill="white" stroke="black" points="128.5,-0 128.5,-30 229.5,-30 229.5,-0 128.5,-0"/>
<text text-anchor="start" x="136.5" y="-18" font-family="Helvetica,sans-Serif" font-size="10.00">client::chatInput::</text>
<text text-anchor="middle" x="179" y="-7" font-family="Helvetica,sans-Serif" font-size="10.00">checkForCommand</text>
</a>
</g>
</g>
<!-- Node1&#45;&gt;Node2 -->
<g id="edge1" class="edge"><title>Node1&#45;&gt;Node2</title>
<path fill="none" stroke="midnightblue" d="M102.14,-15C110.838,-15 119.786,-15 128.349,-15"/>
<polygon fill="midnightblue" stroke="midnightblue" points="102.083,-11.5001 92.0828,-15 102.083,-18.5001 102.083,-11.5001"/>
</g>
<!-- Node3 -->
<g id="node3" class="node"><title>Node3</title>
<g id="a_node3"><a xlink:href="../../d1/d34/classclient_1_1chat_input.html#a18489fc74edbd3948434ec0be0e3fe7e" target="_top" xlink:title="client::chatInput::\lkeyPressEvent">
<polygon fill="white" stroke="black" points="266,-0 266,-30 358,-30 358,-0 266,-0"/>
<text text-anchor="start" x="274" y="-18" font-family="Helvetica,sans-Serif" font-size="10.00">client::chatInput::</text>
<text text-anchor="middle" x="312" y="-7" font-family="Helvetica,sans-Serif" font-size="10.00">keyPressEvent</text>
</a>
</g>
</g>
<!-- Node2&#45;&gt;Node3 -->
<g id="edge2" class="edge"><title>Node2&#45;&gt;Node3</title>
<path fill="none" stroke="midnightblue" d="M239.691,-15C248.437,-15 257.322,-15 265.717,-15"/>
<polygon fill="midnightblue" stroke="midnightblue" points="239.526,-11.5001 229.525,-15 239.525,-18.5001 239.526,-11.5001"/>
</g>
</g>
</svg>
