<?xml version="1.0" encoding="UTF-8" standalone="no"?>
<!DOCTYPE svg PUBLIC "-//W3C//DTD SVG 1.1//EN"
 "http://www.w3.org/Graphics/SVG/1.1/DTD/svg11.dtd">
<!-- Generated by graphviz version 2.30.1 (20130303.0817)
 -->
<!-- Title: client::chatInput::checkForCommand Pages: 1 -->
<svg width="238pt" height="87pt"
 viewBox="0.00 0.00 238.00 87.00" xmlns="http://www.w3.org/2000/svg" xmlns:xlink="http://www.w3.org/1999/xlink">
<g id="graph0" class="graph" transform="scale(1 1) rotate(0) translate(4 83)">
<title>client::chatInput::checkForCommand</title>
<polygon fill="white" stroke="white" points="-4,5 -4,-83 235,-83 235,5 -4,5"/>
<!-- Node1 -->
<g id="node1" class="node"><title>Node1</title>
<polygon fill="#bfbfbf" stroke="black" points="0.5,-24 0.5,-54 101.5,-54 101.5,-24 0.5,-24"/>
<text text-anchor="start" x="8.5" y="-42" font-family="Helvetica,sans-Serif" font-size="10.00">client::chatInput::</text>
<text text-anchor="middle" x="51" y="-31" font-family="Helvetica,sans-Serif" font-size="10.00">checkForCommand</text>
</g>
<!-- Node2 -->
<g id="node2" class="node"><title>Node2</title>
<g id="a_node2"><a xlink:href="../../d1/d34/classclient_1_1chat_input.html#a955c343e83632ba1cc0a0b089c06803e" target="_top" xlink:title="Emitted when the users presses enter and the chatbox contains a command.">
<polygon fill="white" stroke="black" points="138,-49 138,-79 230,-79 230,-49 138,-49"/>
<text text-anchor="start" x="146" y="-67" font-family="Helvetica,sans-Serif" font-size="10.00">client::chatInput::</text>
<text text-anchor="middle" x="184" y="-56" font-family="Helvetica,sans-Serif" font-size="10.00">commandGiven</text>
</a>
</g>
</g>
<!-- Node1&#45;&gt;Node2 -->
<g id="edge1" class="edge"><title>Node1&#45;&gt;Node2</title>
<path fill="none" stroke="midnightblue" d="M101.525,-48.4514C110.066,-50.0813 118.993,-51.7849 127.675,-53.4417"/>
<polygon fill="midnightblue" stroke="midnightblue" points="127.238,-56.9214 137.717,-55.3581 128.55,-50.0455 127.238,-56.9214"/>
</g>
<!-- Node3 -->
<g id="node3" class="node"><title>Node3</title>
<g id="a_node3"><a xlink:href="../../d1/d34/classclient_1_1chat_input.html#abfb6a31b8691c93a03c3bda792e14f34" target="_top" xlink:title="Emitted when the user presses enter and the chatbox does not contain a command.">
<polygon fill="white" stroke="black" points="138,-0 138,-30 230,-30 230,-0 138,-0"/>
<text text-anchor="start" x="146" y="-18" font-family="Helvetica,sans-Serif" font-size="10.00">client::chatInput::</text>
<text text-anchor="middle" x="184" y="-7" font-family="Helvetica,sans-Serif" font-size="10.00">sendChat</text>
</a>
</g>
</g>
<!-- Node1&#45;&gt;Node3 -->
<g id="edge2" class="edge"><title>Node1&#45;&gt;Node3</title>
<path fill="none" stroke="midnightblue" d="M101.525,-29.9266C110.066,-28.3619 118.993,-26.7265 127.675,-25.1359"/>
<polygon fill="midnightblue" stroke="midnightblue" points="128.511,-28.541 137.717,-23.2962 127.25,-21.6556 128.511,-28.541"/>
</g>
</g>
</svg>
