<?xml version="1.0" encoding="UTF-8" standalone="no"?>
<!DOCTYPE svg PUBLIC "-//W3C//DTD SVG 1.1//EN"
 "http://www.w3.org/Graphics/SVG/1.1/DTD/svg11.dtd">
<!-- Generated by graphviz version 2.30.1 (20130303.0817)
 -->
<!-- Title: client::clsUserEntry Pages: 1 -->
<svg width="108pt" height="204pt"
 viewBox="0.00 0.00 108.00 204.00" xmlns="http://www.w3.org/2000/svg" xmlns:xlink="http://www.w3.org/1999/xlink">
<g id="graph0" class="graph" transform="scale(1 1) rotate(0) translate(4 200)">
<title>client::clsUserEntry</title>
<polygon fill="white" stroke="white" points="-4,5 -4,-200 105,-200 105,5 -4,5"/>
<!-- Node1 -->
<g id="node1" class="node"><title>Node1</title>
<polygon fill="#bfbfbf" stroke="black" points="-1,-0.5 -1,-101.5 101,-101.5 101,-0.5 -1,-0.5"/>
<text text-anchor="middle" x="50" y="-89.5" font-family="Helvetica,sans-Serif" font-size="10.00">client::clsUserEntry</text>
<polyline fill="none" stroke="black" points="-1,-82.5 101,-82.5 "/>
<text text-anchor="start" x="7" y="-70.5" font-family="Helvetica,sans-Serif" font-size="10.00">&#45; ui</text>
<text text-anchor="start" x="7" y="-59.5" font-family="Helvetica,sans-Serif" font-size="10.00">&#45; user</text>
<polyline fill="none" stroke="black" points="-1,-52.5 101,-52.5 "/>
<text text-anchor="start" x="7" y="-40.5" font-family="Helvetica,sans-Serif" font-size="10.00">+ clsUserEntry()</text>
<text text-anchor="start" x="7" y="-29.5" font-family="Helvetica,sans-Serif" font-size="10.00">+ ~clsUserEntry()</text>
<text text-anchor="start" x="7" y="-18.5" font-family="Helvetica,sans-Serif" font-size="10.00">+ refresh()</text>
<text text-anchor="start" x="7" y="-7.5" font-family="Helvetica,sans-Serif" font-size="10.00">&#45; iconChanged()</text>
</g>
<!-- Node2 -->
<g id="node2" class="node"><title>Node2</title>
<polygon fill="white" stroke="#bfbfbf" points="22.5,-138.5 22.5,-195.5 77.5,-195.5 77.5,-138.5 22.5,-138.5"/>
<text text-anchor="middle" x="50" y="-183.5" font-family="Helvetica,sans-Serif" font-size="10.00">QWidget</text>
<polyline fill="none" stroke="#bfbfbf" points="22.5,-176.5 77.5,-176.5 "/>
<text text-anchor="middle" x="50" y="-164.5" font-family="Helvetica,sans-Serif" font-size="10.00"> </text>
<polyline fill="none" stroke="#bfbfbf" points="22.5,-157.5 77.5,-157.5 "/>
<text text-anchor="middle" x="50" y="-145.5" font-family="Helvetica,sans-Serif" font-size="10.00"> </text>
</g>
<!-- Node2&#45;&gt;Node1 -->
<g id="edge1" class="edge"><title>Node2&#45;&gt;Node1</title>
<path fill="none" stroke="midnightblue" d="M50,-128.354C50,-119.796 50,-110.578 50,-101.608"/>
<polygon fill="none" stroke="midnightblue" points="46.5001,-128.404 50,-138.404 53.5001,-128.404 46.5001,-128.404"/>
</g>
</g>
</svg>
