<?xml version="1.0" encoding="UTF-8" standalone="no"?>
<!DOCTYPE svg PUBLIC "-//W3C//DTD SVG 1.1//EN"
 "http://www.w3.org/Graphics/SVG/1.1/DTD/svg11.dtd">
<!-- Generated by graphviz version 2.30.1 (20130303.0817)
 -->
<!-- Title: client::chatBox::setAllUserNameSize Pages: 1 -->
<svg width="560pt" height="87pt"
 viewBox="0.00 0.00 560.00 87.00" xmlns="http://www.w3.org/2000/svg" xmlns:xlink="http://www.w3.org/1999/xlink">
<g id="graph0" class="graph" transform="scale(1 1) rotate(0) translate(4 83)">
<title>client::chatBox::setAllUserNameSize</title>
<polygon fill="white" stroke="white" points="-4,5 -4,-83 557,-83 557,5 -4,5"/>
<!-- Node1 -->
<g id="node1" class="node"><title>Node1</title>
<polygon fill="#bfbfbf" stroke="black" points="0.5,-24 0.5,-54 133.5,-54 133.5,-24 0.5,-24"/>
<text text-anchor="start" x="8.5" y="-42" font-family="Helvetica,sans-Serif" font-size="10.00">client::chatBox::setAllUser</text>
<text text-anchor="middle" x="67" y="-31" font-family="Helvetica,sans-Serif" font-size="10.00">NameSize</text>
</g>
<!-- Node2 -->
<g id="node2" class="node"><title>Node2</title>
<g id="a_node2"><a xlink:href="../../d5/dfb/classclient_1_1chat_entry.xhtml#ac3d69f6791e2497c86fe99c068b832b6" target="_top" xlink:title="Used for setting the width of the nick label after initializing.">
<polygon fill="white" stroke="black" points="170,-24 170,-54 264,-54 264,-24 170,-24"/>
<text text-anchor="start" x="178" y="-42" font-family="Helvetica,sans-Serif" font-size="10.00">client::chatEntry::</text>
<text text-anchor="middle" x="217" y="-31" font-family="Helvetica,sans-Serif" font-size="10.00">setUserWidth</text>
</a>
</g>
</g>
<!-- Node1&#45;&gt;Node2 -->
<g id="edge1" class="edge"><title>Node1&#45;&gt;Node2</title>
<path fill="none" stroke="midnightblue" d="M133.777,-39C142.449,-39 151.273,-39 159.766,-39"/>
<polygon fill="midnightblue" stroke="midnightblue" points="159.928,-42.5001 169.928,-39 159.928,-35.5001 159.928,-42.5001"/>
</g>
<!-- Node3 -->
<g id="node3" class="node"><title>Node3</title>
<g id="a_node3"><a xlink:href="../../d5/dfb/classclient_1_1chat_entry.xhtml#ae663e1a715924f6743c7e9d235ad334b" target="_top" xlink:title="client::chatEntry::\lcalculateMessageWidth">
<polygon fill="white" stroke="black" points="300.5,-24 300.5,-54 421.5,-54 421.5,-24 300.5,-24"/>
<text text-anchor="start" x="308.5" y="-42" font-family="Helvetica,sans-Serif" font-size="10.00">client::chatEntry::</text>
<text text-anchor="middle" x="361" y="-31" font-family="Helvetica,sans-Serif" font-size="10.00">calculateMessageWidth</text>
</a>
</g>
</g>
<!-- Node2&#45;&gt;Node3 -->
<g id="edge2" class="edge"><title>Node2&#45;&gt;Node3</title>
<path fill="none" stroke="midnightblue" d="M264.103,-39C272.517,-39 281.465,-39 290.384,-39"/>
<polygon fill="midnightblue" stroke="midnightblue" points="290.412,-42.5001 300.412,-39 290.412,-35.5001 290.412,-42.5001"/>
</g>
<!-- Node4 -->
<g id="node4" class="node"><title>Node4</title>
<g id="a_node4"><a xlink:href="../../d5/dfb/classclient_1_1chat_entry.xhtml#a23b44a93f980e59387a289c9282b5f78" target="_top" xlink:title="client::chatEntry::\lgetWidth">
<polygon fill="white" stroke="black" points="458,-49 458,-79 552,-79 552,-49 458,-49"/>
<text text-anchor="start" x="466" y="-67" font-family="Helvetica,sans-Serif" font-size="10.00">client::chatEntry::</text>
<text text-anchor="middle" x="505" y="-56" font-family="Helvetica,sans-Serif" font-size="10.00">getWidth</text>
</a>
</g>
</g>
<!-- Node3&#45;&gt;Node4 -->
<g id="edge3" class="edge"><title>Node3&#45;&gt;Node4</title>
<path fill="none" stroke="midnightblue" d="M421.809,-49.5298C430.417,-51.0452 439.25,-52.6003 447.784,-54.1028"/>
<polygon fill="midnightblue" stroke="midnightblue" points="447.179,-57.55 457.634,-55.837 448.393,-50.6561 447.179,-57.55"/>
</g>
<!-- Node5 -->
<g id="node5" class="node"><title>Node5</title>
<g id="a_node5"><a xlink:href="../../d5/dfb/classclient_1_1chat_entry.xhtml#aacb386fcc022798feb9dd02b43d56861" target="_top" xlink:title="client::chatEntry::\lgetHeight">
<polygon fill="white" stroke="black" points="458,-0 458,-30 552,-30 552,-0 458,-0"/>
<text text-anchor="start" x="466" y="-18" font-family="Helvetica,sans-Serif" font-size="10.00">client::chatEntry::</text>
<text text-anchor="middle" x="505" y="-7" font-family="Helvetica,sans-Serif" font-size="10.00">getHeight</text>
</a>
</g>
</g>
<!-- Node3&#45;&gt;Node5 -->
<g id="edge4" class="edge"><title>Node3&#45;&gt;Node5</title>
<path fill="none" stroke="midnightblue" d="M421.809,-28.8914C430.323,-27.4524 439.058,-25.9762 447.506,-24.5484"/>
<polygon fill="midnightblue" stroke="midnightblue" points="448.358,-27.9541 457.634,-22.8364 447.191,-21.052 448.358,-27.9541"/>
</g>
</g>
</svg>
