<?xml version="1.0" encoding="UTF-8" standalone="no"?>
<!DOCTYPE svg PUBLIC "-//W3C//DTD SVG 1.1//EN"
 "http://www.w3.org/Graphics/SVG/1.1/DTD/svg11.dtd">
<!-- Generated by graphviz version 2.30.1 (20130303.0817)
 -->
<!-- Title: C++/customIrcServer/functions.cpp Pages: 1 -->
<svg width="609pt" height="152pt"
 viewBox="0.00 0.00 609.00 152.00" xmlns="http://www.w3.org/2000/svg" xmlns:xlink="http://www.w3.org/1999/xlink">
<g id="graph0" class="graph" transform="scale(1 1) rotate(0) translate(4 148)">
<title>C++/customIrcServer/functions.cpp</title>
<polygon fill="white" stroke="white" points="-4,5 -4,-148 606,-148 606,5 -4,5"/>
<!-- Node1 -->
<g id="node1" class="node"><title>Node1</title>
<polygon fill="#bfbfbf" stroke="black" points="175,-113 175,-143 283,-143 283,-113 175,-113"/>
<text text-anchor="start" x="183" y="-131" font-family="Helvetica,sans-Serif" font-size="10.00">C++/customIrcServer</text>
<text text-anchor="middle" x="229" y="-120" font-family="Helvetica,sans-Serif" font-size="10.00">/functions.cpp</text>
</g>
<!-- Node2 -->
<g id="node2" class="node"><title>Node2</title>
<polygon fill="white" stroke="#bfbfbf" points="0,-56.5 0,-75.5 54,-75.5 54,-56.5 0,-56.5"/>
<text text-anchor="middle" x="27" y="-63.5" font-family="Helvetica,sans-Serif" font-size="10.00">iostream</text>
</g>
<!-- Node1&#45;&gt;Node2 -->
<g id="edge1" class="edge"><title>Node1&#45;&gt;Node2</title>
<path fill="none" stroke="midnightblue" d="M181.64,-112.933C145.709,-102.26 97.0189,-87.7977 63.9399,-77.9722"/>
<polygon fill="midnightblue" stroke="midnightblue" points="64.7892,-74.5734 54.2065,-75.0812 62.796,-81.2837 64.7892,-74.5734"/>
</g>
<!-- Node3 -->
<g id="node3" class="node"><title>Node3</title>
<polygon fill="white" stroke="#bfbfbf" points="72,-56.5 72,-75.5 120,-75.5 120,-56.5 72,-56.5"/>
<text text-anchor="middle" x="96" y="-63.5" font-family="Helvetica,sans-Serif" font-size="10.00">stdlib.h</text>
</g>
<!-- Node1&#45;&gt;Node3 -->
<g id="edge2" class="edge"><title>Node1&#45;&gt;Node3</title>
<path fill="none" stroke="midnightblue" d="M197.817,-112.933C175.579,-102.9 145.918,-89.5193 124.348,-79.7888"/>
<polygon fill="midnightblue" stroke="midnightblue" points="125.618,-76.5219 115.063,-75.6 122.739,-82.9027 125.618,-76.5219"/>
</g>
<!-- Node4 -->
<g id="node4" class="node"><title>Node4</title>
<polygon fill="white" stroke="#bfbfbf" points="138.5,-56.5 138.5,-75.5 187.5,-75.5 187.5,-56.5 138.5,-56.5"/>
<text text-anchor="middle" x="163" y="-63.5" font-family="Helvetica,sans-Serif" font-size="10.00">string.h</text>
</g>
<!-- Node1&#45;&gt;Node4 -->
<g id="edge3" class="edge"><title>Node1&#45;&gt;Node4</title>
<path fill="none" stroke="midnightblue" d="M213.359,-112.781C203.373,-103.703 190.422,-91.9291 180.155,-82.5951"/>
<polygon fill="midnightblue" stroke="midnightblue" points="182.357,-79.8675 172.604,-75.7305 177.649,-85.0471 182.357,-79.8675"/>
</g>
<!-- Node5 -->
<g id="node5" class="node"><title>Node5</title>
<polygon fill="white" stroke="#bfbfbf" points="206,-56.5 206,-75.5 252,-75.5 252,-56.5 206,-56.5"/>
<text text-anchor="middle" x="229" y="-63.5" font-family="Helvetica,sans-Serif" font-size="10.00">stdio.h</text>
</g>
<!-- Node1&#45;&gt;Node5 -->
<g id="edge4" class="edge"><title>Node1&#45;&gt;Node5</title>
<path fill="none" stroke="midnightblue" d="M229,-112.781C229,-104.781 229,-94.6887 229,-86.0168"/>
<polygon fill="midnightblue" stroke="midnightblue" points="232.5,-85.7305 229,-75.7305 225.5,-85.7306 232.5,-85.7305"/>
</g>
<!-- Node6 -->
<g id="node6" class="node"><title>Node6</title>
<polygon fill="white" stroke="#bfbfbf" points="270,-56.5 270,-75.5 322,-75.5 322,-56.5 270,-56.5"/>
<text text-anchor="middle" x="296" y="-63.5" font-family="Helvetica,sans-Serif" font-size="10.00">stdarg.h</text>
</g>
<!-- Node1&#45;&gt;Node6 -->
<g id="edge5" class="edge"><title>Node1&#45;&gt;Node6</title>
<path fill="none" stroke="midnightblue" d="M244.878,-112.781C255.015,-103.703 268.162,-91.9291 278.585,-82.5951"/>
<polygon fill="midnightblue" stroke="midnightblue" points="281.136,-85.0091 286.251,-75.7305 276.466,-79.7944 281.136,-85.0091"/>
</g>
<!-- Node7 -->
<g id="node7" class="node"><title>Node7</title>
<polygon fill="white" stroke="#bfbfbf" points="340,-56.5 340,-75.5 392,-75.5 392,-56.5 340,-56.5"/>
<text text-anchor="middle" x="366" y="-63.5" font-family="Helvetica,sans-Serif" font-size="10.00">QDebug</text>
</g>
<!-- Node1&#45;&gt;Node7 -->
<g id="edge6" class="edge"><title>Node1&#45;&gt;Node7</title>
<path fill="none" stroke="midnightblue" d="M261.12,-112.933C284.131,-102.855 314.856,-89.3986 337.099,-79.6575"/>
<polygon fill="midnightblue" stroke="midnightblue" points="338.607,-82.8178 346.363,-75.6 335.799,-76.4058 338.607,-82.8178"/>
</g>
<!-- Node8 -->
<g id="node8" class="node"><title>Node8</title>
<g id="a_node8"><a xlink:href="../../d8/d5c/functions_8h.xhtml" target="_top" xlink:title="functions.h">
<polygon fill="white" stroke="black" points="410,-56.5 410,-75.5 474,-75.5 474,-56.5 410,-56.5"/>
<text text-anchor="middle" x="442" y="-63.5" font-family="Helvetica,sans-Serif" font-size="10.00">functions.h</text>
</a>
</g>
</g>
<!-- Node1&#45;&gt;Node8 -->
<g id="edge7" class="edge"><title>Node1&#45;&gt;Node8</title>
<path fill="none" stroke="midnightblue" d="M278.939,-112.933C316.43,-102.372 367.096,-88.0998 401.949,-78.282"/>
<polygon fill="midnightblue" stroke="midnightblue" points="403.104,-81.593 411.78,-75.5127 401.206,-74.8553 403.104,-81.593"/>
</g>
<!-- Node9 -->
<g id="node9" class="node"><title>Node9</title>
<polygon fill="white" stroke="#bfbfbf" points="319.5,-0.5 319.5,-19.5 360.5,-19.5 360.5,-0.5 319.5,-0.5"/>
<text text-anchor="middle" x="340" y="-7.5" font-family="Helvetica,sans-Serif" font-size="10.00">string</text>
</g>
<!-- Node8&#45;&gt;Node9 -->
<g id="edge8" class="edge"><title>Node8&#45;&gt;Node9</title>
<path fill="none" stroke="midnightblue" d="M425.612,-56.324C409.329,-47.7034 384.133,-34.3643 365.284,-24.3855"/>
<polygon fill="midnightblue" stroke="midnightblue" points="366.823,-21.2402 356.347,-19.6545 363.548,-27.4267 366.823,-21.2402"/>
</g>
<!-- Node10 -->
<g id="node10" class="node"><title>Node10</title>
<polygon fill="white" stroke="#bfbfbf" points="379,-0.5 379,-19.5 429,-19.5 429,-0.5 379,-0.5"/>
<text text-anchor="middle" x="404" y="-7.5" font-family="Helvetica,sans-Serif" font-size="10.00">QString</text>
</g>
<!-- Node8&#45;&gt;Node10 -->
<g id="edge9" class="edge"><title>Node8&#45;&gt;Node10</title>
<path fill="none" stroke="midnightblue" d="M435.725,-56.083C430.358,-48.4554 422.482,-37.2645 415.921,-27.9408"/>
<polygon fill="midnightblue" stroke="midnightblue" points="418.775,-25.9149 410.158,-19.7511 413.051,-29.9434 418.775,-25.9149"/>
</g>
<!-- Node11 -->
<g id="node11" class="node"><title>Node11</title>
<polygon fill="white" stroke="#bfbfbf" points="447.5,-0.5 447.5,-19.5 512.5,-19.5 512.5,-0.5 447.5,-0.5"/>
<text text-anchor="middle" x="480" y="-7.5" font-family="Helvetica,sans-Serif" font-size="10.00">QStringList</text>
</g>
<!-- Node8&#45;&gt;Node11 -->
<g id="edge10" class="edge"><title>Node8&#45;&gt;Node11</title>
<path fill="none" stroke="midnightblue" d="M448.275,-56.083C453.642,-48.4554 461.518,-37.2645 468.079,-27.9408"/>
<polygon fill="midnightblue" stroke="midnightblue" points="470.949,-29.9434 473.842,-19.7511 465.225,-25.9149 470.949,-29.9434"/>
</g>
<!-- Node12 -->
<g id="node12" class="node"><title>Node12</title>
<polygon fill="white" stroke="#bfbfbf" points="530.5,-0.5 530.5,-19.5 601.5,-19.5 601.5,-0.5 530.5,-0.5"/>
<text text-anchor="middle" x="566" y="-7.5" font-family="Helvetica,sans-Serif" font-size="10.00">QVariantList</text>
</g>
<!-- Node8&#45;&gt;Node12 -->
<g id="edge11" class="edge"><title>Node8&#45;&gt;Node12</title>
<path fill="none" stroke="midnightblue" d="M461.648,-56.4435C481.965,-47.5961 513.903,-33.6875 537.098,-23.5865"/>
<polygon fill="midnightblue" stroke="midnightblue" points="538.673,-26.7181 546.444,-19.5164 535.878,-20.3002 538.673,-26.7181"/>
</g>
</g>
</svg>
