<?xml version="1.0" encoding="UTF-8" standalone="no"?>
<!DOCTYPE svg PUBLIC "-//W3C//DTD SVG 1.1//EN"
 "http://www.w3.org/Graphics/SVG/1.1/DTD/svg11.dtd">
<!-- Generated by graphviz version 2.30.1 (20130303.0817)
 -->
<!-- Title: C++/customIrcServer/clssettings.h Pages: 1 -->
<svg width="515pt" height="208pt"
 viewBox="0.00 0.00 515.00 208.00" xmlns="http://www.w3.org/2000/svg" xmlns:xlink="http://www.w3.org/1999/xlink">
<g id="graph0" class="graph" transform="scale(1 1) rotate(0) translate(4 204)">
<title>C++/customIrcServer/clssettings.h</title>
<polygon fill="white" stroke="white" points="-4,5 -4,-204 512,-204 512,5 -4,5"/>
<!-- Node1 -->
<g id="node1" class="node"><title>Node1</title>
<polygon fill="#bfbfbf" stroke="black" points="179,-169 179,-199 287,-199 287,-169 179,-169"/>
<text text-anchor="start" x="187" y="-187" font-family="Helvetica,sans-Serif" font-size="10.00">C++/customIrcServer</text>
<text text-anchor="middle" x="233" y="-176" font-family="Helvetica,sans-Serif" font-size="10.00">/clssettings.h</text>
</g>
<!-- Node2 -->
<g id="node2" class="node"><title>Node2</title>
<polygon fill="white" stroke="#bfbfbf" points="0,-0.5 0,-19.5 50,-19.5 50,-0.5 0,-0.5"/>
<text text-anchor="middle" x="25" y="-7.5" font-family="Helvetica,sans-Serif" font-size="10.00">QString</text>
</g>
<!-- Node1&#45;&gt;Node2 -->
<g id="edge1" class="edge"><title>Node1&#45;&gt;Node2</title>
<path fill="none" stroke="midnightblue" d="M178.971,-170.277C131.171,-155.949 63.9049,-127.61 30,-76 21.164,-62.5499 20.601,-43.9887 21.8467,-30.1434"/>
<polygon fill="midnightblue" stroke="midnightblue" points="25.3679,-30.2039 23.1767,-19.8381 18.4254,-29.3078 25.3679,-30.2039"/>
</g>
<!-- Node3 -->
<g id="node3" class="node"><title>Node3</title>
<polygon fill="white" stroke="#bfbfbf" points="261,-112.5 261,-131.5 301,-131.5 301,-112.5 261,-112.5"/>
<text text-anchor="middle" x="281" y="-119.5" font-family="Helvetica,sans-Serif" font-size="10.00">QFile</text>
</g>
<!-- Node1&#45;&gt;Node3 -->
<g id="edge2" class="edge"><title>Node1&#45;&gt;Node3</title>
<path fill="none" stroke="midnightblue" d="M244.375,-168.781C251.35,-160.062 260.314,-148.857 267.628,-139.715"/>
<polygon fill="midnightblue" stroke="midnightblue" points="270.502,-141.726 274.016,-131.731 265.036,-137.353 270.502,-141.726"/>
</g>
<!-- Node4 -->
<g id="node4" class="node"><title>Node4</title>
<polygon fill="white" stroke="#bfbfbf" points="319,-112.5 319,-131.5 421,-131.5 421,-112.5 319,-112.5"/>
<text text-anchor="middle" x="370" y="-119.5" font-family="Helvetica,sans-Serif" font-size="10.00">QXmlStreamReader</text>
</g>
<!-- Node1&#45;&gt;Node4 -->
<g id="edge3" class="edge"><title>Node1&#45;&gt;Node4</title>
<path fill="none" stroke="midnightblue" d="M265.12,-168.933C288.131,-158.855 318.856,-145.399 341.099,-135.657"/>
<polygon fill="midnightblue" stroke="midnightblue" points="342.607,-138.818 350.363,-131.6 339.799,-132.406 342.607,-138.818"/>
</g>
<!-- Node5 -->
<g id="node5" class="node"><title>Node5</title>
<polygon fill="white" stroke="#bfbfbf" points="351.5,-56.5 351.5,-75.5 404.5,-75.5 404.5,-56.5 351.5,-56.5"/>
<text text-anchor="middle" x="378" y="-63.5" font-family="Helvetica,sans-Serif" font-size="10.00">QVector</text>
</g>
<!-- Node1&#45;&gt;Node5 -->
<g id="edge4" class="edge"><title>Node1&#45;&gt;Node5</title>
<path fill="none" stroke="midnightblue" d="M233.056,-168.904C233.873,-153.11 237.559,-127.67 252,-112 258.34,-105.121 306.597,-89.0795 341.505,-78.1314"/>
<polygon fill="midnightblue" stroke="midnightblue" points="342.891,-81.3657 351.399,-75.0519 340.81,-74.682 342.891,-81.3657"/>
</g>
<!-- Node6 -->
<g id="node6" class="node"><title>Node6</title>
<g id="a_node6"><a xlink:href="../../d6/d32/custom_irc_server_2ircuser_8h.html" target="_top" xlink:title="ircuser.h">
<polygon fill="white" stroke="black" points="151,-112.5 151,-131.5 205,-131.5 205,-112.5 151,-112.5"/>
<text text-anchor="middle" x="178" y="-119.5" font-family="Helvetica,sans-Serif" font-size="10.00">ircuser.h</text>
</a>
</g>
</g>
<!-- Node1&#45;&gt;Node6 -->
<g id="edge5" class="edge"><title>Node1&#45;&gt;Node6</title>
<path fill="none" stroke="midnightblue" d="M219.966,-168.781C211.809,-159.882 201.278,-148.394 192.806,-139.152"/>
<polygon fill="midnightblue" stroke="midnightblue" points="195.34,-136.737 186.003,-131.731 190.18,-141.467 195.34,-136.737"/>
</g>
<!-- Node6&#45;&gt;Node2 -->
<g id="edge6" class="edge"><title>Node6&#45;&gt;Node2</title>
<path fill="none" stroke="midnightblue" d="M150.974,-119.014C121.046,-115.379 73.2978,-105.094 45,-76 33.0481,-63.7117 28.2201,-44.4547 26.2797,-30.086"/>
<polygon fill="midnightblue" stroke="midnightblue" points="29.7331,-29.4421 25.2618,-19.837 22.7674,-30.134 29.7331,-29.4421"/>
</g>
<!-- Node6&#45;&gt;Node5 -->
<g id="edge7" class="edge"><title>Node6&#45;&gt;Node5</title>
<path fill="none" stroke="midnightblue" d="M205.39,-113.605C240.721,-104.065 302.289,-87.4421 341.547,-76.8424"/>
<polygon fill="midnightblue" stroke="midnightblue" points="342.518,-80.2056 351.26,-74.2199 340.693,-73.4476 342.518,-80.2056"/>
</g>
<!-- Node7 -->
<g id="node7" class="node"><title>Node7</title>
<polygon fill="white" stroke="#bfbfbf" points="54,-56.5 54,-75.5 128,-75.5 128,-56.5 54,-56.5"/>
<text text-anchor="middle" x="91" y="-63.5" font-family="Helvetica,sans-Serif" font-size="10.00">QVariantMap</text>
</g>
<!-- Node6&#45;&gt;Node7 -->
<g id="edge8" class="edge"><title>Node6&#45;&gt;Node7</title>
<path fill="none" stroke="midnightblue" d="M164.022,-112.324C150.45,-103.9 129.62,-90.9709 113.675,-81.0741"/>
<polygon fill="midnightblue" stroke="midnightblue" points="115.286,-77.9544 104.943,-75.6545 111.594,-83.9019 115.286,-77.9544"/>
</g>
<!-- Node8 -->
<g id="node8" class="node"><title>Node8</title>
<g id="a_node8"><a xlink:href="../../d8/d5c/functions_8h.html" target="_top" xlink:title="functions.h">
<polygon fill="white" stroke="black" points="146,-56.5 146,-75.5 210,-75.5 210,-56.5 146,-56.5"/>
<text text-anchor="middle" x="178" y="-63.5" font-family="Helvetica,sans-Serif" font-size="10.00">functions.h</text>
</a>
</g>
</g>
<!-- Node6&#45;&gt;Node8 -->
<g id="edge9" class="edge"><title>Node6&#45;&gt;Node8</title>
<path fill="none" stroke="midnightblue" d="M178,-112.083C178,-105.006 178,-94.8611 178,-85.9865"/>
<polygon fill="midnightblue" stroke="midnightblue" points="181.5,-85.751 178,-75.7511 174.5,-85.7511 181.5,-85.751"/>
</g>
<!-- Node12 -->
<g id="node12" class="node"><title>Node12</title>
<g id="a_node12"><a xlink:href="../../d7/d62/clslog_8h.html" target="_top" xlink:title="../resources/clslog.h">
<polygon fill="white" stroke="black" points="228.5,-56.5 228.5,-75.5 333.5,-75.5 333.5,-56.5 228.5,-56.5"/>
<text text-anchor="middle" x="281" y="-63.5" font-family="Helvetica,sans-Serif" font-size="10.00">../resources/clslog.h</text>
</a>
</g>
</g>
<!-- Node6&#45;&gt;Node12 -->
<g id="edge14" class="edge"><title>Node6&#45;&gt;Node12</title>
<path fill="none" stroke="midnightblue" d="M194.549,-112.324C210.992,-103.703 236.435,-90.3643 255.468,-80.3855"/>
<polygon fill="midnightblue" stroke="midnightblue" points="257.261,-83.3977 264.492,-75.6545 254.011,-77.198 257.261,-83.3977"/>
</g>
<!-- Node9 -->
<g id="node9" class="node"><title>Node9</title>
<polygon fill="white" stroke="#bfbfbf" points="157.5,-0.5 157.5,-19.5 198.5,-19.5 198.5,-0.5 157.5,-0.5"/>
<text text-anchor="middle" x="178" y="-7.5" font-family="Helvetica,sans-Serif" font-size="10.00">string</text>
</g>
<!-- Node8&#45;&gt;Node9 -->
<g id="edge10" class="edge"><title>Node8&#45;&gt;Node9</title>
<path fill="none" stroke="midnightblue" d="M178,-56.083C178,-49.0059 178,-38.8611 178,-29.9865"/>
<polygon fill="midnightblue" stroke="midnightblue" points="181.5,-29.751 178,-19.7511 174.5,-29.7511 181.5,-29.751"/>
</g>
<!-- Node8&#45;&gt;Node2 -->
<g id="edge11" class="edge"><title>Node8&#45;&gt;Node2</title>
<path fill="none" stroke="midnightblue" d="M153.757,-56.4435C128.129,-47.3986 87.5148,-33.064 58.7616,-22.9158"/>
<polygon fill="midnightblue" stroke="midnightblue" points="59.7247,-19.5442 49.1299,-19.5164 57.3949,-26.1452 59.7247,-19.5442"/>
</g>
<!-- Node10 -->
<g id="node10" class="node"><title>Node10</title>
<polygon fill="white" stroke="#bfbfbf" points="216.5,-0.5 216.5,-19.5 281.5,-19.5 281.5,-0.5 216.5,-0.5"/>
<text text-anchor="middle" x="249" y="-7.5" font-family="Helvetica,sans-Serif" font-size="10.00">QStringList</text>
</g>
<!-- Node8&#45;&gt;Node10 -->
<g id="edge12" class="edge"><title>Node8&#45;&gt;Node10</title>
<path fill="none" stroke="midnightblue" d="M189.407,-56.324C200.109,-48.1849 216.341,-35.8395 229.163,-26.0874"/>
<polygon fill="midnightblue" stroke="midnightblue" points="231.544,-28.6734 237.385,-19.8339 227.307,-23.1018 231.544,-28.6734"/>
</g>
<!-- Node11 -->
<g id="node11" class="node"><title>Node11</title>
<polygon fill="white" stroke="#bfbfbf" points="68.5,-0.5 68.5,-19.5 139.5,-19.5 139.5,-0.5 68.5,-0.5"/>
<text text-anchor="middle" x="104" y="-7.5" font-family="Helvetica,sans-Serif" font-size="10.00">QVariantList</text>
</g>
<!-- Node8&#45;&gt;Node11 -->
<g id="edge13" class="edge"><title>Node8&#45;&gt;Node11</title>
<path fill="none" stroke="midnightblue" d="M166.111,-56.324C154.85,-48.1066 137.713,-35.6017 124.291,-25.8069"/>
<polygon fill="midnightblue" stroke="midnightblue" points="126.247,-22.9014 116.106,-19.8339 122.12,-28.5559 126.247,-22.9014"/>
</g>
<!-- Node13 -->
<g id="node13" class="node"><title>Node13</title>
<polygon fill="white" stroke="#bfbfbf" points="372,-0.5 372,-19.5 424,-19.5 424,-0.5 372,-0.5"/>
<text text-anchor="middle" x="398" y="-7.5" font-family="Helvetica,sans-Serif" font-size="10.00">QDebug</text>
</g>
<!-- Node12&#45;&gt;Node13 -->
<g id="edge15" class="edge"><title>Node12&#45;&gt;Node13</title>
<path fill="none" stroke="midnightblue" d="M299.539,-56.4435C318.623,-47.6356 348.575,-33.8116 370.436,-23.722"/>
<polygon fill="midnightblue" stroke="midnightblue" points="371.935,-26.8849 379.548,-19.5164 369.001,-20.5292 371.935,-26.8849"/>
</g>
<!-- Node14 -->
<g id="node14" class="node"><title>Node14</title>
<polygon fill="white" stroke="#bfbfbf" points="442.5,-0.5 442.5,-19.5 507.5,-19.5 507.5,-0.5 442.5,-0.5"/>
<text text-anchor="middle" x="475" y="-7.5" font-family="Helvetica,sans-Serif" font-size="10.00">QDateTime</text>
</g>
<!-- Node12&#45;&gt;Node14 -->
<g id="edge16" class="edge"><title>Node12&#45;&gt;Node14</title>
<path fill="none" stroke="midnightblue" d="M311.74,-56.4435C344.944,-47.2011 397.991,-32.4356 434.557,-22.2572"/>
<polygon fill="midnightblue" stroke="midnightblue" points="435.709,-25.5699 444.404,-19.5164 433.832,-18.8262 435.709,-25.5699"/>
</g>
<!-- Node12&#45;&gt;Node9 -->
<g id="edge17" class="edge"><title>Node12&#45;&gt;Node9</title>
<path fill="none" stroke="midnightblue" d="M264.451,-56.324C248.008,-47.7034 222.565,-34.3643 203.532,-24.3855"/>
<polygon fill="midnightblue" stroke="midnightblue" points="204.989,-21.198 194.508,-19.6545 201.739,-27.3977 204.989,-21.198"/>
</g>
<!-- Node15 -->
<g id="node15" class="node"><title>Node15</title>
<polygon fill="white" stroke="#bfbfbf" points="300,-0.5 300,-19.5 354,-19.5 354,-0.5 300,-0.5"/>
<text text-anchor="middle" x="327" y="-7.5" font-family="Helvetica,sans-Serif" font-size="10.00">iostream</text>
</g>
<!-- Node12&#45;&gt;Node15 -->
<g id="edge18" class="edge"><title>Node12&#45;&gt;Node15</title>
<path fill="none" stroke="midnightblue" d="M288.596,-56.083C295.227,-48.2982 305.021,-36.8015 313.058,-27.3665"/>
<polygon fill="midnightblue" stroke="midnightblue" points="315.725,-29.6332 319.545,-19.7511 310.396,-25.0939 315.725,-29.6332"/>
</g>
<!-- Node12&#45;&gt;Node10 -->
<g id="edge19" class="edge"><title>Node12&#45;&gt;Node10</title>
<path fill="none" stroke="midnightblue" d="M275.716,-56.083C271.289,-48.6127 264.837,-37.7244 259.382,-28.5199"/>
<polygon fill="midnightblue" stroke="midnightblue" points="262.295,-26.5697 254.186,-19.7511 256.273,-30.1383 262.295,-26.5697"/>
</g>
</g>
</svg>
