<?xml version="1.0" encoding="UTF-8" standalone="no"?>
<!DOCTYPE svg PUBLIC "-//W3C//DTD SVG 1.1//EN"
 "http://www.w3.org/Graphics/SVG/1.1/DTD/svg11.dtd">
<!-- Generated by graphviz version 2.30.1 (20130303.0817)
 -->
<!-- Title: shared::events::clsEvent::getData Pages: 1 -->
<!--zoomable 332 -->
<svg id="main" version="1.1" xmlns="http://www.w3.org/2000/svg" xmlns:xlink="http://www.w3.org/1999/xlink" xml:space="preserve" onload="init(evt)">
        <defs>
                <circle id="rim" cx="0" cy="0" r="7"/>
                <circle id="rim2" cx="0" cy="0" r="3.5"/>
                <g id="zoomPlus">
                        <use xlink:href="#rim" fill="#404040">
                                <set attributeName="fill" to="#808080" begin="zoomplus.mouseover" end="zoomplus.mouseout"/>
                        </use>
                        <path d="M-4,0h8M0,-4v8" fill="none" stroke="white" stroke-width="1.5" pointer-events="none"/>
                </g>
                <g id="zoomMin">
                        <use xlink:href="#rim" fill="#404040">
                                <set attributeName="fill" to="#808080" begin="zoomminus.mouseover" end="zoomminus.mouseout"/>
                        </use>
                        <path d="M-4,0h8" fill="none" stroke="white" stroke-width="1.5" pointer-events="none"/>
                </g>
                <g id="dirArrow">
                        <path fill="none" stroke="white" stroke-width="1.5" d="M0,-3.0v7 M-2.5,-0.5L0,-3.0L2.5,-0.5"/>
                </g>
               <g id="resetDef">
                       <use xlink:href="#rim2" fill="#404040">
                               <set attributeName="fill" to="#808080" begin="reset.mouseover" end="reset.mouseout"/>
                       </use>
               </g>
        </defs>

<script type="text/javascript">
var viewWidth = 604;
var viewHeight = 332;
var sectionId = 'dynsection-4';
</script>
<script xlink:href="../../svgpan.js"/>
<svg id="graph" class="graph">
<g id="viewport">
<title>shared::events::clsEvent::getData</title>
<polygon fill="white" stroke="white" points="-4,5 -4,-328 601,-328 601,5 -4,5"/>
<!-- Node1 -->
<g id="node1" class="node"><title>Node1</title>
<polygon fill="#bfbfbf" stroke="black" points="0,-147 0,-177 122,-177 122,-147 0,-147"/>
<text text-anchor="start" x="8" y="-165" font-family="Helvetica,sans-Serif" font-size="10.00">shared::events::clsEvent</text>
<text text-anchor="middle" x="61" y="-154" font-family="Helvetica,sans-Serif" font-size="10.00">::getData</text>
</g>
<!-- Node2 -->
<g id="node2" class="node"><title>Node2</title>
<g id="a_node2"><a xlink:href="../../d1/d68/classshared_1_1events_1_1event_chat.html#affa9c414f40d61277b690efd4013f550" target="_top" xlink:title="Gets the DB&#45;ID of the user that sent the message.">
<polygon fill="white" stroke="black" points="162,-294 162,-324 290,-324 290,-294 162,-294"/>
<text text-anchor="start" x="170" y="-312" font-family="Helvetica,sans-Serif" font-size="10.00">shared::events::eventChat</text>
<text text-anchor="middle" x="226" y="-301" font-family="Helvetica,sans-Serif" font-size="10.00">::getUser</text>
</a>
</g>
</g>
<!-- Node1&#45;&gt;Node2 -->
<g id="edge1" class="edge"><title>Node1&#45;&gt;Node2</title>
<path fill="none" stroke="midnightblue" d="M75.479,-186.225C91.7718,-213.484 121.587,-257.416 158,-284 163.214,-287.807 169.075,-291.098 175.103,-293.927"/>
<polygon fill="midnightblue" stroke="midnightblue" points="78.3542,-184.208 70.2914,-177.334 72.3082,-187.736 78.3542,-184.208"/>
</g>
<!-- Node5 -->
<g id="node5" class="node"><title>Node5</title>
<g id="a_node5"><a xlink:href="../../d1/d68/classshared_1_1events_1_1event_chat.html#a10a61f130fb402e63922cd0b34468c8e" target="_top" xlink:title="Gets the chat message.">
<polygon fill="white" stroke="black" points="162,-245 162,-275 290,-275 290,-245 162,-245"/>
<text text-anchor="start" x="170" y="-263" font-family="Helvetica,sans-Serif" font-size="10.00">shared::events::eventChat</text>
<text text-anchor="middle" x="226" y="-252" font-family="Helvetica,sans-Serif" font-size="10.00">::getMessage</text>
</a>
</g>
</g>
<!-- Node1&#45;&gt;Node5 -->
<g id="edge4" class="edge"><title>Node1&#45;&gt;Node5</title>
<path fill="none" stroke="midnightblue" d="M86.3279,-183.714C104.948,-199.507 131.802,-220.564 158,-235 164.633,-238.655 171.909,-241.988 179.145,-244.944"/>
<polygon fill="midnightblue" stroke="midnightblue" points="88.4932,-180.959 78.6315,-177.087 83.9257,-186.264 88.4932,-180.959"/>
</g>
<!-- Node6 -->
<g id="node6" class="node"><title>Node6</title>
<g id="a_node6"><a xlink:href="../../d6/dfe/classshared_1_1events_1_1event_server_message.html#a8d893e8dbb1289d2552a3a48d1323edd" target="_top" xlink:title="Gets the message.">
<polygon fill="white" stroke="black" points="158.5,-196 158.5,-226 293.5,-226 293.5,-196 158.5,-196"/>
<text text-anchor="start" x="166.5" y="-214" font-family="Helvetica,sans-Serif" font-size="10.00">shared::events::eventServer</text>
<text text-anchor="middle" x="226" y="-203" font-family="Helvetica,sans-Serif" font-size="10.00">Message::getMessage</text>
</a>
</g>
</g>
<!-- Node1&#45;&gt;Node6 -->
<g id="edge6" class="edge"><title>Node1&#45;&gt;Node6</title>
<path fill="none" stroke="midnightblue" d="M122.253,-180.113C139.582,-185.322 158.289,-190.946 174.93,-195.948"/>
<polygon fill="midnightblue" stroke="midnightblue" points="122.82,-176.629 112.235,-177.101 120.804,-183.332 122.82,-176.629"/>
</g>
<!-- Node8 -->
<g id="node8" class="node"><title>Node8</title>
<g id="a_node8"><a xlink:href="../../d6/dfe/classshared_1_1events_1_1event_server_message.html#a578aacc79570f1c7302c6c69be564ac1" target="_top" xlink:title="Gets the level of the message.">
<polygon fill="white" stroke="black" points="158.5,-147 158.5,-177 293.5,-177 293.5,-147 158.5,-147"/>
<text text-anchor="start" x="166.5" y="-165" font-family="Helvetica,sans-Serif" font-size="10.00">shared::events::eventServer</text>
<text text-anchor="middle" x="226" y="-154" font-family="Helvetica,sans-Serif" font-size="10.00">Message::getLevel</text>
</a>
</g>
</g>
<!-- Node1&#45;&gt;Node8 -->
<g id="edge9" class="edge"><title>Node1&#45;&gt;Node8</title>
<path fill="none" stroke="midnightblue" d="M132.307,-162C140.977,-162 149.82,-162 158.432,-162"/>
<polygon fill="midnightblue" stroke="midnightblue" points="132.232,-158.5 122.232,-162 132.232,-165.5 132.232,-158.5"/>
</g>
<!-- Node9 -->
<g id="node9" class="node"><title>Node9</title>
<g id="a_node9"><a xlink:href="../../dd/d05/classshared_1_1events_1_1event_user_join.html#ab1386fad8a4b2bb51e62589565090d5a" target="_top" xlink:title="Gets the DB&#45;ID of the user that joined.">
<polygon fill="white" stroke="black" points="162,-98 162,-128 290,-128 290,-98 162,-98"/>
<text text-anchor="start" x="170" y="-116" font-family="Helvetica,sans-Serif" font-size="10.00">shared::events::eventUser</text>
<text text-anchor="middle" x="226" y="-105" font-family="Helvetica,sans-Serif" font-size="10.00">Join::getUserId</text>
</a>
</g>
</g>
<!-- Node1&#45;&gt;Node9 -->
<g id="edge11" class="edge"><title>Node1&#45;&gt;Node9</title>
<path fill="none" stroke="midnightblue" d="M122.253,-143.887C139.582,-138.678 158.289,-133.054 174.93,-128.052"/>
<polygon fill="midnightblue" stroke="midnightblue" points="120.804,-140.668 112.235,-146.899 122.82,-147.371 120.804,-140.668"/>
</g>
<!-- Node10 -->
<g id="node10" class="node"><title>Node10</title>
<g id="a_node10"><a xlink:href="../../dd/d05/classshared_1_1events_1_1event_user_join.html#afd49e93a57440f97dd02ccbec353cdb8" target="_top" xlink:title="Gets a QVariantMap of the user that joined.">
<polygon fill="white" stroke="black" points="162,-49 162,-79 290,-79 290,-49 162,-49"/>
<text text-anchor="start" x="170" y="-67" font-family="Helvetica,sans-Serif" font-size="10.00">shared::events::eventUser</text>
<text text-anchor="middle" x="226" y="-56" font-family="Helvetica,sans-Serif" font-size="10.00">Join::getUser</text>
</a>
</g>
</g>
<!-- Node1&#45;&gt;Node10 -->
<g id="edge12" class="edge"><title>Node1&#45;&gt;Node10</title>
<path fill="none" stroke="midnightblue" d="M86.3279,-140.286C104.948,-124.493 131.802,-103.436 158,-89 164.633,-85.345 171.909,-82.0124 179.145,-79.0561"/>
<polygon fill="midnightblue" stroke="midnightblue" points="83.9257,-137.736 78.6315,-146.913 88.4932,-143.041 83.9257,-137.736"/>
</g>
<!-- Node12 -->
<g id="node12" class="node"><title>Node12</title>
<g id="a_node12"><a xlink:href="../../d9/d9f/classshared_1_1events_1_1event_user_leave.html#afb9cb12d52415109349d1469f1577353" target="_top" xlink:title="Gets the DB&#45;ID of the user that left.">
<polygon fill="white" stroke="black" points="162,-0 162,-30 290,-30 290,-0 162,-0"/>
<text text-anchor="start" x="170" y="-18" font-family="Helvetica,sans-Serif" font-size="10.00">shared::events::eventUser</text>
<text text-anchor="middle" x="226" y="-7" font-family="Helvetica,sans-Serif" font-size="10.00">Leave::getUserId</text>
</a>
</g>
</g>
<!-- Node1&#45;&gt;Node12 -->
<g id="edge15" class="edge"><title>Node1&#45;&gt;Node12</title>
<path fill="none" stroke="midnightblue" d="M75.479,-137.775C91.7718,-110.516 121.587,-66.5836 158,-40 163.214,-36.1933 169.075,-32.9015 175.103,-30.0726"/>
<polygon fill="midnightblue" stroke="midnightblue" points="72.3082,-136.264 70.2914,-146.666 78.3542,-139.792 72.3082,-136.264"/>
</g>
<!-- Node3 -->
<g id="node3" class="node"><title>Node3</title>
<g id="a_node3"><a xlink:href="../../d2/da4/classclient_1_1_main_window.html#a51e1634c12eb7373b01dce36a03afc9a" target="_top" xlink:title="Triggered when a chat has been received.">
<polygon fill="white" stroke="black" points="343.5,-245 343.5,-275 444.5,-275 444.5,-245 343.5,-245"/>
<text text-anchor="start" x="351.5" y="-263" font-family="Helvetica,sans-Serif" font-size="10.00">client::MainWindow</text>
<text text-anchor="middle" x="394" y="-252" font-family="Helvetica,sans-Serif" font-size="10.00">::chatReceived</text>
</a>
</g>
</g>
<!-- Node2&#45;&gt;Node3 -->
<g id="edge2" class="edge"><title>Node2&#45;&gt;Node3</title>
<path fill="none" stroke="midnightblue" d="M287.847,-291.039C306.133,-285.641 325.968,-279.787 343.432,-274.632"/>
<polygon fill="midnightblue" stroke="midnightblue" points="286.76,-287.711 278.16,-293.899 288.742,-294.424 286.76,-287.711"/>
</g>
<!-- Node4 -->
<g id="node4" class="node"><title>Node4</title>
<g id="a_node4"><a xlink:href="../../d2/da4/classclient_1_1_main_window.html#ab4aedce719340218169c114b31b54f70" target="_top" xlink:title="client::MainWindow\l::MainWindow">
<polygon fill="white" stroke="black" points="494.5,-122 494.5,-152 595.5,-152 595.5,-122 494.5,-122"/>
<text text-anchor="start" x="502.5" y="-140" font-family="Helvetica,sans-Serif" font-size="10.00">client::MainWindow</text>
<text text-anchor="middle" x="545" y="-129" font-family="Helvetica,sans-Serif" font-size="10.00">::MainWindow</text>
</a>
</g>
</g>
<!-- Node3&#45;&gt;Node4 -->
<g id="edge3" class="edge"><title>Node3&#45;&gt;Node4</title>
<path fill="none" stroke="midnightblue" d="M421.195,-238.376C451.13,-213.664 499.357,-173.853 525.58,-152.206"/>
<polygon fill="midnightblue" stroke="midnightblue" points="418.754,-235.852 413.27,-244.918 423.21,-241.251 418.754,-235.852"/>
</g>
<!-- Node5&#45;&gt;Node3 -->
<g id="edge5" class="edge"><title>Node5&#45;&gt;Node3</title>
<path fill="none" stroke="midnightblue" d="M300.237,-260C314.816,-260 329.802,-260 343.363,-260"/>
<polygon fill="midnightblue" stroke="midnightblue" points="300.231,-256.5 290.231,-260 300.231,-263.5 300.231,-256.5"/>
</g>
<!-- Node7 -->
<g id="node7" class="node"><title>Node7</title>
<g id="a_node7"><a xlink:href="../../d2/da4/classclient_1_1_main_window.html#ae738b40e6b83639304d84f3d9f117c75" target="_top" xlink:title="Triggered when the server sends us a message that should be displayed in the UI.">
<polygon fill="white" stroke="black" points="330.5,-147 330.5,-177 457.5,-177 457.5,-147 330.5,-147"/>
<text text-anchor="start" x="338.5" y="-165" font-family="Helvetica,sans-Serif" font-size="10.00">client::MainWindow</text>
<text text-anchor="middle" x="394" y="-154" font-family="Helvetica,sans-Serif" font-size="10.00">::serverMessageReceived</text>
</a>
</g>
</g>
<!-- Node6&#45;&gt;Node7 -->
<g id="edge7" class="edge"><title>Node6&#45;&gt;Node7</title>
<path fill="none" stroke="midnightblue" d="M287.868,-193.033C305.654,-187.783 324.902,-182.101 342.009,-177.052"/>
<polygon fill="midnightblue" stroke="midnightblue" points="286.76,-189.711 278.16,-195.899 288.742,-196.424 286.76,-189.711"/>
</g>
<!-- Node7&#45;&gt;Node4 -->
<g id="edge8" class="edge"><title>Node7&#45;&gt;Node4</title>
<path fill="none" stroke="midnightblue" d="M467.874,-149.773C476.871,-148.263 485.9,-146.748 494.435,-145.316"/>
<polygon fill="midnightblue" stroke="midnightblue" points="467.041,-146.364 457.758,-151.47 468.199,-153.267 467.041,-146.364"/>
</g>
<!-- Node8&#45;&gt;Node7 -->
<g id="edge10" class="edge"><title>Node8&#45;&gt;Node7</title>
<path fill="none" stroke="midnightblue" d="M303.639,-162C312.621,-162 321.704,-162 330.462,-162"/>
<polygon fill="midnightblue" stroke="midnightblue" points="303.562,-158.5 293.562,-162 303.562,-165.5 303.562,-158.5"/>
</g>
<!-- Node11 -->
<g id="node11" class="node"><title>Node11</title>
<g id="a_node11"><a xlink:href="../../d2/da4/classclient_1_1_main_window.html#a62f7f15ddd56fd52acd7ba01fa6354b4" target="_top" xlink:title="Triggered when a user enters the room.">
<polygon fill="white" stroke="black" points="343.5,-85 343.5,-115 444.5,-115 444.5,-85 343.5,-85"/>
<text text-anchor="start" x="351.5" y="-103" font-family="Helvetica,sans-Serif" font-size="10.00">client::MainWindow</text>
<text text-anchor="middle" x="394" y="-92" font-family="Helvetica,sans-Serif" font-size="10.00">::userEnter</text>
</a>
</g>
</g>
<!-- Node10&#45;&gt;Node11 -->
<g id="edge13" class="edge"><title>Node10&#45;&gt;Node11</title>
<path fill="none" stroke="midnightblue" d="M300.237,-79.8826C314.816,-83.0444 329.802,-86.2944 343.363,-89.2354"/>
<polygon fill="midnightblue" stroke="midnightblue" points="300.746,-76.4117 290.231,-77.7128 299.262,-83.2527 300.746,-76.4117"/>
</g>
<!-- Node11&#45;&gt;Node4 -->
<g id="edge14" class="edge"><title>Node11&#45;&gt;Node4</title>
<path fill="none" stroke="midnightblue" d="M454.55,-114.788C467.747,-118.065 481.596,-121.504 494.348,-124.67"/>
<polygon fill="midnightblue" stroke="midnightblue" points="455.164,-111.334 444.615,-112.32 453.477,-118.127 455.164,-111.334"/>
</g>
<!-- Node13 -->
<g id="node13" class="node"><title>Node13</title>
<g id="a_node13"><a xlink:href="../../d2/da4/classclient_1_1_main_window.html#a9f16758ff23f279a244806cae35a1604" target="_top" xlink:title="Triggered when a user leaves the room.">
<polygon fill="white" stroke="black" points="343.5,-12 343.5,-42 444.5,-42 444.5,-12 343.5,-12"/>
<text text-anchor="start" x="351.5" y="-30" font-family="Helvetica,sans-Serif" font-size="10.00">client::MainWindow</text>
<text text-anchor="middle" x="394" y="-19" font-family="Helvetica,sans-Serif" font-size="10.00">::userLeave</text>
</a>
</g>
</g>
<!-- Node12&#45;&gt;Node13 -->
<g id="edge16" class="edge"><title>Node12&#45;&gt;Node13</title>
<path fill="none" stroke="midnightblue" d="M300.237,-20.2942C314.816,-21.3481 329.802,-22.4315 343.363,-23.4118"/>
<polygon fill="midnightblue" stroke="midnightblue" points="300.457,-16.8011 290.231,-19.5709 299.953,-23.7829 300.457,-16.8011"/>
</g>
<!-- Node13&#45;&gt;Node4 -->
<g id="edge17" class="edge"><title>Node13&#45;&gt;Node4</title>
<path fill="none" stroke="midnightblue" d="M423.57,-48.0921C452.777,-69.6538 497.426,-102.617 523.363,-121.765"/>
<polygon fill="midnightblue" stroke="midnightblue" points="425.529,-45.188 415.405,-42.0644 421.372,-50.8196 425.529,-45.188"/>
</g>
</g>
</svg>
        <g id="navigator" transform="translate(0 0)" fill="#404254">
                <rect fill="#f2f5e9" fill-opacity="0.5" stroke="#606060" stroke-width=".5" x="0" y="0" width="60" height="60"/>
                <use id="zoomplus" xlink:href="#zoomPlus" x="17" y="9" onmousedown="handleZoom(evt,'in')"/>
                <use id="zoomminus" xlink:href="#zoomMin" x="42" y="9" onmousedown="handleZoom(evt,'out')"/>
                <use id="reset" xlink:href="#resetDef" x="30" y="36" onmousedown="handleReset()"/>
                <g id="arrowUp" xlink:href="#dirArrow" transform="translate(30 24)" onmousedown="handlePan(0,-1)">
                  <use xlink:href="#rim" fill="#404040">
                        <set attributeName="fill" to="#808080" begin="arrowUp.mouseover" end="arrowUp.mouseout"/>
                  </use>
                  <path fill="none" stroke="white" stroke-width="1.5" d="M0,-3.0v7 M-2.5,-0.5L0,-3.0L2.5,-0.5"/>
                </g>
                <g id="arrowRight" xlink:href="#dirArrow" transform="rotate(90) translate(36 -43)" onmousedown="handlePan(1,0)">
                  <use xlink:href="#rim" fill="#404040">
                        <set attributeName="fill" to="#808080" begin="arrowRight.mouseover" end="arrowRight.mouseout"/>
                  </use>
                  <path fill="none" stroke="white" stroke-width="1.5" d="M0,-3.0v7 M-2.5,-0.5L0,-3.0L2.5,-0.5"/>
                </g>
                <g id="arrowDown" xlink:href="#dirArrow" transform="rotate(180) translate(-30 -48)" onmousedown="handlePan(0,1)">
                  <use xlink:href="#rim" fill="#404040">
                        <set attributeName="fill" to="#808080" begin="arrowDown.mouseover" end="arrowDown.mouseout"/>
                  </use>
                  <path fill="none" stroke="white" stroke-width="1.5" d="M0,-3.0v7 M-2.5,-0.5L0,-3.0L2.5,-0.5"/>
                </g>
                <g id="arrowLeft" xlink:href="#dirArrow" transform="rotate(270) translate(-36 17)" onmousedown="handlePan(-1,0)">
                  <use xlink:href="#rim" fill="#404040">
                        <set attributeName="fill" to="#808080" begin="arrowLeft.mouseover" end="arrowLeft.mouseout"/>
                  </use>
                  <path fill="none" stroke="white" stroke-width="1.5" d="M0,-3.0v7 M-2.5,-0.5L0,-3.0L2.5,-0.5"/>
                </g>
        </g>
        <svg viewBox="0 0 15 15" width="100%" height="30px" preserveAspectRatio="xMaxYMin meet">
         <g id="arrow_out" transform="scale(0.3 0.3)">
          <a xlink:href="classshared_1_1events_1_1cls_event_ac3acc2e80a92d28a980a50595517bf4a_icgraph_org.svg" target="_base">
           <rect id="button" ry="5" rx="5" y="6" x="6" height="38" width="38"
                fill="#f2f5e9" fill-opacity="0.5" stroke="#606060" stroke-width="1.0"/>
           <path id="arrow"
             d="M 11.500037,31.436501 C 11.940474,20.09759 22.043105,11.32322 32.158766,21.979434 L 37.068811,17.246167 C 37.068811,17.246167 37.088388,32 37.088388,32 L 22.160133,31.978069 C 22.160133,31.978069 26.997745,27.140456 26.997745,27.140456 C 18.528582,18.264221 13.291696,25.230495 11.500037,31.436501 z"
             style="fill:#404040;"/>
          </a>
         </g>
        </svg>
</svg>
