<?xml version="1.0" encoding="UTF-8" standalone="no"?>
<!DOCTYPE svg PUBLIC "-//W3C//DTD SVG 1.1//EN"
 "http://www.w3.org/Graphics/SVG/1.1/DTD/svg11.dtd">
<!-- Generated by graphviz version 2.30.1 (20130303.0817)
 -->
<!-- Title: shared::events::clsEvent::toVariant Pages: 1 -->
<!--zoomable 399 -->
<svg id="main" version="1.1" xmlns="http://www.w3.org/2000/svg" xmlns:xlink="http://www.w3.org/1999/xlink" xml:space="preserve" onload="init(evt)">
        <defs>
                <circle id="rim" cx="0" cy="0" r="7"/>
                <circle id="rim2" cx="0" cy="0" r="3.5"/>
                <g id="zoomPlus">
                        <use xlink:href="#rim" fill="#404040">
                                <set attributeName="fill" to="#808080" begin="zoomplus.mouseover" end="zoomplus.mouseout"/>
                        </use>
                        <path d="M-4,0h8M0,-4v8" fill="none" stroke="white" stroke-width="1.5" pointer-events="none"/>
                </g>
                <g id="zoomMin">
                        <use xlink:href="#rim" fill="#404040">
                                <set attributeName="fill" to="#808080" begin="zoomminus.mouseover" end="zoomminus.mouseout"/>
                        </use>
                        <path d="M-4,0h8" fill="none" stroke="white" stroke-width="1.5" pointer-events="none"/>
                </g>
                <g id="dirArrow">
                        <path fill="none" stroke="white" stroke-width="1.5" d="M0,-3.0v7 M-2.5,-0.5L0,-3.0L2.5,-0.5"/>
                </g>
               <g id="resetDef">
                       <use xlink:href="#rim2" fill="#404040">
                               <set attributeName="fill" to="#808080" begin="reset.mouseover" end="reset.mouseout"/>
                       </use>
               </g>
        </defs>

<script type="text/javascript">
var viewWidth = 936;
var viewHeight = 399;
var sectionId = 'dynsection-10';
</script>
<script xlink:href="../../svgpan.js"/>
<svg id="graph" class="graph">
<g id="viewport">
<title>shared::events::clsEvent::toVariant</title>
<polygon fill="white" stroke="white" points="-4,5 -4,-394.789 933,-394.789 933,5 -4,5"/>
<!-- Node1 -->
<g id="node1" class="node"><title>Node1</title>
<polygon fill="#bfbfbf" stroke="black" points="0,-245.376 0,-275.376 122,-275.376 122,-245.376 0,-245.376"/>
<text text-anchor="start" x="8" y="-263.376" font-family="Helvetica,sans-Serif" font-size="10.00">shared::events::clsEvent</text>
<text text-anchor="middle" x="61" y="-252.376" font-family="Helvetica,sans-Serif" font-size="10.00">::toVariant</text>
</g>
<!-- Node2 -->
<g id="node2" class="node"><title>Node2</title>
<g id="a_node2"><a xlink:href="../../d1/d48/classserver_1_1main_app.html#a0970ee01d48b04ebc1390ffb8edecfc0" target="_top" xlink:title="Triggered when a chat has been received.">
<polygon fill="white" stroke="black" points="357,-364.876 357,-383.876 507,-383.876 507,-364.876 357,-364.876"/>
<text text-anchor="middle" x="432" y="-371.876" font-family="Helvetica,sans-Serif" font-size="10.00">server::mainApp::chatReceived</text>
</a>
</g>
</g>
<!-- Node1&#45;&gt;Node2 -->
<g id="edge1" class="edge"><title>Node1&#45;&gt;Node2</title>
<path fill="none" stroke="midnightblue" d="M79.2294,-283.719C96.5162,-305.149 125.227,-335.724 158,-350.376 220.873,-378.485 299.926,-382.48 356.761,-380.643"/>
<polygon fill="midnightblue" stroke="midnightblue" points="81.8896,-281.44 72.9664,-275.728 76.38,-285.758 81.8896,-281.44"/>
</g>
<!-- Node5 -->
<g id="node5" class="node"><title>Node5</title>
<g id="a_node5"><a xlink:href="../../d1/d48/classserver_1_1main_app.html#a92448c1219ad89999c983b04adaa4236" target="_top" xlink:title="Triggered when a user joins trough a JOIN message.">
<polygon fill="white" stroke="black" points="560.5,-326.876 560.5,-345.876 699.5,-345.876 699.5,-326.876 560.5,-326.876"/>
<text text-anchor="middle" x="630" y="-333.876" font-family="Helvetica,sans-Serif" font-size="10.00">server::mainApp::userOnline</text>
</a>
</g>
</g>
<!-- Node1&#45;&gt;Node5 -->
<g id="edge4" class="edge"><title>Node1&#45;&gt;Node5</title>
<path fill="none" stroke="midnightblue" d="M105.711,-279.41C121.865,-285.735 140.504,-292.219 158,-296.376 298.123,-329.673 467.482,-336.116 560.138,-336.875"/>
<polygon fill="midnightblue" stroke="midnightblue" points="106.59,-275.992 96.0064,-275.514 103.983,-282.488 106.59,-275.992"/>
</g>
<!-- Node6 -->
<g id="node6" class="node"><title>Node6</title>
<g id="a_node6"><a xlink:href="../../d1/d48/classserver_1_1main_app.html#aae86b15c001a235de78a90334e697b5f" target="_top" xlink:title="Triggered when a user leaves trough a PART message.">
<polygon fill="white" stroke="black" points="363,-288.876 363,-307.876 501,-307.876 501,-288.876 363,-288.876"/>
<text text-anchor="middle" x="432" y="-295.876" font-family="Helvetica,sans-Serif" font-size="10.00">server::mainApp::userOffline</text>
</a>
</g>
</g>
<!-- Node1&#45;&gt;Node6 -->
<g id="edge6" class="edge"><title>Node1&#45;&gt;Node6</title>
<path fill="none" stroke="midnightblue" d="M132.22,-271.088C140.892,-272.272 149.643,-273.4 158,-274.376 227.587,-282.502 307.443,-289.22 362.733,-293.462"/>
<polygon fill="midnightblue" stroke="midnightblue" points="132.49,-267.592 122.103,-269.679 131.524,-274.525 132.49,-267.592"/>
</g>
<!-- Node7 -->
<g id="node7" class="node"><title>Node7</title>
<g id="a_node7"><a xlink:href="../../d1/d48/classserver_1_1main_app.html#ae15deb9260c486854af7fac7b063fdf5" target="_top" xlink:title="Triggered when a user changes his nickname (nick|Status)">
<polygon fill="white" stroke="black" points="548,-250.876 548,-269.876 712,-269.876 712,-250.876 548,-250.876"/>
<text text-anchor="middle" x="630" y="-257.876" font-family="Helvetica,sans-Serif" font-size="10.00">server::mainApp::userChangeNick</text>
</a>
</g>
</g>
<!-- Node1&#45;&gt;Node7 -->
<g id="edge8" class="edge"><title>Node1&#45;&gt;Node7</title>
<path fill="none" stroke="midnightblue" d="M132.357,-260.376C237.772,-260.376 436.198,-260.376 547.677,-260.376"/>
<polygon fill="midnightblue" stroke="midnightblue" points="132.142,-256.876 122.142,-260.376 132.142,-263.876 132.142,-256.876"/>
</g>
<!-- Node8 -->
<g id="node8" class="node"><title>Node8</title>
<g id="a_node8"><a xlink:href="../../d1/d48/classserver_1_1main_app.html#aaa3dd74b510e2d797f21293a622a4f7d" target="_top" xlink:title="Triggered when a user changes his status (nick|Status)">
<polygon fill="white" stroke="black" points="165,-201.376 165,-231.376 309,-231.376 309,-201.376 165,-201.376"/>
<text text-anchor="start" x="173" y="-219.376" font-family="Helvetica,sans-Serif" font-size="10.00">server::mainApp::userChange</text>
<text text-anchor="middle" x="237" y="-208.376" font-family="Helvetica,sans-Serif" font-size="10.00">Status</text>
</a>
</g>
</g>
<!-- Node1&#45;&gt;Node8 -->
<g id="edge10" class="edge"><title>Node1&#45;&gt;Node8</title>
<path fill="none" stroke="midnightblue" d="M131.147,-242.891C146.181,-239.089 161.959,-235.099 176.578,-231.402"/>
<polygon fill="midnightblue" stroke="midnightblue" points="130.231,-239.512 121.394,-245.357 131.947,-246.298 130.231,-239.512"/>
</g>
<!-- Node9 -->
<g id="node9" class="node"><title>Node9</title>
<g id="a_node9"><a xlink:href="../../d1/d48/classserver_1_1main_app.html#aba9c03c1c353a57f43404bb149bee50b" target="_top" xlink:title="Triggered when a UI client wants all the events known to the server.">
<polygon fill="white" stroke="black" points="159.5,-162.876 159.5,-181.876 314.5,-181.876 314.5,-162.876 159.5,-162.876"/>
<text text-anchor="middle" x="237" y="-169.876" font-family="Helvetica,sans-Serif" font-size="10.00">server::mainApp::doSendEvents</text>
</a>
</g>
</g>
<!-- Node1&#45;&gt;Node9 -->
<g id="edge12" class="edge"><title>Node1&#45;&gt;Node9</title>
<path fill="none" stroke="midnightblue" d="M87.0955,-238.699C105.593,-223.734 131.963,-204.432 158,-192.376 167.134,-188.147 177.3,-184.714 187.195,-181.965"/>
<polygon fill="midnightblue" stroke="midnightblue" points="84.6676,-236.165 79.1804,-245.228 89.1219,-241.565 84.6676,-236.165"/>
</g>
<!-- Node10 -->
<g id="node10" class="node"><title>Node10</title>
<g id="a_node10"><a xlink:href="../../d1/d48/classserver_1_1main_app.html#a7263ca5b3630b0a2774f556b96c333c8" target="_top" xlink:title="For logging to the clients.">
<polygon fill="white" stroke="black" points="158,-79.8761 158,-98.8761 316,-98.8761 316,-79.8761 158,-79.8761"/>
<text text-anchor="middle" x="237" y="-86.8761" font-family="Helvetica,sans-Serif" font-size="10.00">server::mainApp::serverMessage</text>
</a>
</g>
</g>
<!-- Node1&#45;&gt;Node10 -->
<g id="edge14" class="edge"><title>Node1&#45;&gt;Node10</title>
<path fill="none" stroke="midnightblue" d="M80.9665,-237.256C99.68,-214.935 129.538,-180.609 158,-153.376 179.643,-132.668 207.174,-111.069 223.071,-99.0089"/>
<polygon fill="midnightblue" stroke="midnightblue" points="78.0751,-235.258 74.3661,-245.183 83.4546,-239.737 78.0751,-235.258"/>
</g>
<!-- Node3 -->
<g id="node3" class="node"><title>Node3</title>
<g id="a_node3"><a xlink:href="../../d1/d48/classserver_1_1main_app.html#af331bc3bf60e745f3ddc95ab3abe5188" target="_top" xlink:title="server::mainApp::run">
<polygon fill="white" stroke="black" points="748,-193.876 748,-212.876 854,-212.876 854,-193.876 748,-193.876"/>
<text text-anchor="middle" x="801" y="-200.876" font-family="Helvetica,sans-Serif" font-size="10.00">server::mainApp::run</text>
</a>
</g>
</g>
<!-- Node2&#45;&gt;Node3 -->
<g id="edge2" class="edge"><title>Node2&#45;&gt;Node3</title>
<path fill="none" stroke="midnightblue" d="M490.824,-385.336C550.831,-393.503 645.091,-397.046 712,-355.376 766.355,-321.525 790.75,-240.928 797.762,-213.057"/>
<polygon fill="midnightblue" stroke="midnightblue" points="491.164,-381.849 480.766,-383.88 490.161,-388.776 491.164,-381.849"/>
</g>
<!-- Node4 -->
<g id="node4" class="node"><title>Node4</title>
<g id="a_node4"><a xlink:href="../../dc/d17/custom_irc_server_2main_8cpp.html#a0ddf1224851353fc92bfbff6f499fa97" target="_top" xlink:title="main">
<polygon fill="white" stroke="black" points="890,-193.876 890,-212.876 928,-212.876 928,-193.876 890,-193.876"/>
<text text-anchor="middle" x="909" y="-200.876" font-family="Helvetica,sans-Serif" font-size="10.00">main</text>
</a>
</g>
</g>
<!-- Node3&#45;&gt;Node4 -->
<g id="edge3" class="edge"><title>Node3&#45;&gt;Node4</title>
<path fill="none" stroke="midnightblue" d="M864.208,-203.376C873.464,-203.376 882.334,-203.376 889.64,-203.376"/>
<polygon fill="midnightblue" stroke="midnightblue" points="864.068,-199.876 854.068,-203.376 864.068,-206.876 864.068,-199.876"/>
</g>
<!-- Node5&#45;&gt;Node3 -->
<g id="edge5" class="edge"><title>Node5&#45;&gt;Node3</title>
<path fill="none" stroke="midnightblue" d="M690.101,-323.479C697.805,-320.495 705.328,-316.842 712,-312.376 752.221,-285.456 783.086,-234.523 794.837,-213.177"/>
<polygon fill="midnightblue" stroke="midnightblue" points="688.933,-320.18 680.659,-326.797 691.253,-326.784 688.933,-320.18"/>
</g>
<!-- Node6&#45;&gt;Node3 -->
<g id="edge7" class="edge"><title>Node6&#45;&gt;Node3</title>
<path fill="none" stroke="midnightblue" d="M511.23,-306.004C568.875,-308.594 648.04,-305.68 712,-279.376 747.472,-264.788 778.764,-229.99 792.542,-213.017"/>
<polygon fill="midnightblue" stroke="midnightblue" points="511.254,-302.5 501.087,-305.482 510.894,-309.491 511.254,-302.5"/>
</g>
<!-- Node7&#45;&gt;Node3 -->
<g id="edge9" class="edge"><title>Node7&#45;&gt;Node3</title>
<path fill="none" stroke="midnightblue" d="M674.923,-247.977C686.994,-244.403 700.049,-240.382 712,-236.376 733.814,-229.065 758.294,-219.796 775.886,-212.945"/>
<polygon fill="midnightblue" stroke="midnightblue" points="673.674,-244.696 665.06,-250.865 675.641,-251.414 673.674,-244.696"/>
</g>
<!-- Node8&#45;&gt;Node3 -->
<g id="edge11" class="edge"><title>Node8&#45;&gt;Node3</title>
<path fill="none" stroke="midnightblue" d="M319.523,-214.49C436.728,-211.779 649.521,-206.857 747.743,-204.585"/>
<polygon fill="midnightblue" stroke="midnightblue" points="319.094,-210.999 309.178,-214.73 319.256,-217.997 319.094,-210.999"/>
</g>
<!-- Node9&#45;&gt;Node3 -->
<g id="edge13" class="edge"><title>Node9&#45;&gt;Node3</title>
<path fill="none" stroke="midnightblue" d="M324.774,-177.163C442.983,-183.683 650.969,-195.156 747.741,-200.494"/>
<polygon fill="midnightblue" stroke="midnightblue" points="324.849,-173.661 314.672,-176.605 324.464,-180.651 324.849,-173.661"/>
</g>
<!-- Node10&#45;&gt;Node3 -->
<g id="edge15" class="edge"><title>Node10&#45;&gt;Node3</title>
<path fill="none" stroke="midnightblue" d="M272.429,-102.448C294.831,-110.554 324.83,-120.667 352,-127.376 509.406,-166.246 552.388,-157.886 712,-186.376 725.02,-188.7 739.096,-191.355 752.091,-193.865"/>
<polygon fill="midnightblue" stroke="midnightblue" points="273.61,-99.1532 263.017,-98.9984 271.202,-105.726 273.61,-99.1532"/>
</g>
<!-- Node11 -->
<g id="node11" class="node"><title>Node11</title>
<g id="a_node11"><a xlink:href="../../d1/d48/classserver_1_1main_app.html#a931aedd34bb38252acfc8880f9716fab" target="_top" xlink:title="Triggered when the IRC client cannot connect.">
<polygon fill="white" stroke="black" points="560.5,-11.3761 560.5,-41.3761 699.5,-41.3761 699.5,-11.3761 560.5,-11.3761"/>
<text text-anchor="start" x="568.5" y="-29.3761" font-family="Helvetica,sans-Serif" font-size="10.00">server::mainApp::ircConnect</text>
<text text-anchor="middle" x="630" y="-18.3761" font-family="Helvetica,sans-Serif" font-size="10.00">TimeOut</text>
</a>
</g>
</g>
<!-- Node10&#45;&gt;Node11 -->
<g id="edge16" class="edge"><title>Node10&#45;&gt;Node11</title>
<path fill="none" stroke="midnightblue" d="M255.362,-72.9189C276.337,-54.2821 313.613,-24.9989 352,-13.3761 422.383,7.93427 507.393,-0.81464 564.517,-11.3384"/>
<polygon fill="midnightblue" stroke="midnightblue" points="252.941,-70.3896 247.906,-79.7117 257.655,-75.564 252.941,-70.3896"/>
</g>
<!-- Node12 -->
<g id="node12" class="node"><title>Node12</title>
<g id="a_node12"><a xlink:href="../../d1/d48/classserver_1_1main_app.html#a6e6e952e3048cfeefcdfeea7bbb5b83e" target="_top" xlink:title="Triggered when the IRC client has connected.">
<polygon fill="white" stroke="black" points="357.5,-98.8761 357.5,-117.876 506.5,-117.876 506.5,-98.8761 357.5,-98.8761"/>
<text text-anchor="middle" x="432" y="-105.876" font-family="Helvetica,sans-Serif" font-size="10.00">server::mainApp::ircConnected</text>
</a>
</g>
</g>
<!-- Node10&#45;&gt;Node12 -->
<g id="edge18" class="edge"><title>Node10&#45;&gt;Node12</title>
<path fill="none" stroke="midnightblue" d="M326.486,-98.0872C336.809,-99.1034 347.255,-100.132 357.348,-101.125"/>
<polygon fill="midnightblue" stroke="midnightblue" points="326.517,-94.5734 316.222,-97.0767 325.831,-101.54 326.517,-94.5734"/>
</g>
<!-- Node13 -->
<g id="node13" class="node"><title>Node13</title>
<g id="a_node13"><a xlink:href="../../d1/d48/classserver_1_1main_app.html#af6e8c9d1f06514b33e5f88f9e66884be" target="_top" xlink:title="Triggered when the IRC client has disconnected.">
<polygon fill="white" stroke="black" points="549,-60.8761 549,-79.8761 711,-79.8761 711,-60.8761 549,-60.8761"/>
<text text-anchor="middle" x="630" y="-67.8761" font-family="Helvetica,sans-Serif" font-size="10.00">server::mainApp::ircDisconnected</text>
</a>
</g>
</g>
<!-- Node10&#45;&gt;Node13 -->
<g id="edge20" class="edge"><title>Node10&#45;&gt;Node13</title>
<path fill="none" stroke="midnightblue" d="M326.282,-85.0862C393.13,-81.8378 484.193,-77.4128 548.937,-74.2666"/>
<polygon fill="midnightblue" stroke="midnightblue" points="326.003,-81.5955 316.185,-85.5768 326.343,-88.5873 326.003,-81.5955"/>
</g>
<!-- Node14 -->
<g id="node14" class="node"><title>Node14</title>
<g id="a_node14"><a xlink:href="../../d1/d48/classserver_1_1main_app.html#aa9d4c2e1dc5216901c4f8743838d4561" target="_top" xlink:title="Emitted when the reconnect timer reaches 0.">
<polygon fill="white" stroke="black" points="352,-22.8761 352,-41.8761 512,-41.8761 512,-22.8761 352,-22.8761"/>
<text text-anchor="middle" x="432" y="-29.8761" font-family="Helvetica,sans-Serif" font-size="10.00">server::mainApp::doIrcReconnect</text>
</a>
</g>
</g>
<!-- Node10&#45;&gt;Node14 -->
<g id="edge22" class="edge"><title>Node10&#45;&gt;Node14</title>
<path fill="none" stroke="midnightblue" d="M279.935,-76.9911C315.568,-66.4673 365.987,-51.5768 398.591,-41.9477"/>
<polygon fill="midnightblue" stroke="midnightblue" points="278.903,-73.6464 270.304,-79.8356 280.886,-80.3598 278.903,-73.6464"/>
</g>
<!-- Node11&#45;&gt;Node3 -->
<g id="edge17" class="edge"><title>Node11&#45;&gt;Node3</title>
<path fill="none" stroke="midnightblue" d="M704.843,-46.3402C707.337,-47.8952 709.734,-49.5708 712,-51.3761 761.607,-90.8948 788.696,-166.539 797.111,-193.517"/>
<polygon fill="midnightblue" stroke="midnightblue" points="706.489,-43.2512 696.04,-41.5042 703.119,-49.3864 706.489,-43.2512"/>
</g>
<!-- Node12&#45;&gt;Node3 -->
<g id="edge19" class="edge"><title>Node12&#45;&gt;Node3</title>
<path fill="none" stroke="midnightblue" d="M516.845,-103.014C573.84,-102.346 649.875,-107.394 712,-132.376 746.058,-146.072 777.315,-177.644 791.69,-193.668"/>
<polygon fill="midnightblue" stroke="midnightblue" points="516.728,-99.5153 506.792,-103.193 516.853,-106.514 516.728,-99.5153"/>
</g>
<!-- Node13&#45;&gt;Node3 -->
<g id="edge21" class="edge"><title>Node13&#45;&gt;Node3</title>
<path fill="none" stroke="midnightblue" d="M690.101,-83.2728C697.805,-86.2569 705.328,-89.9103 712,-94.3761 752.221,-121.296 783.086,-172.229 794.837,-193.575"/>
<polygon fill="midnightblue" stroke="midnightblue" points="691.253,-79.968 680.659,-79.9551 688.933,-86.5722 691.253,-79.968"/>
</g>
<!-- Node14&#45;&gt;Node11 -->
<g id="edge23" class="edge"><title>Node14&#45;&gt;Node11</title>
<path fill="none" stroke="midnightblue" d="M522.316,-29.6419C535.059,-29.2518 547.999,-28.8557 560.266,-28.4802"/>
<polygon fill="midnightblue" stroke="midnightblue" points="522.044,-26.1485 512.156,-29.953 522.258,-33.1453 522.044,-26.1485"/>
</g>
<!-- Node14&#45;&gt;Node13 -->
<g id="edge24" class="edge"><title>Node14&#45;&gt;Node13</title>
<path fill="none" stroke="midnightblue" d="M492.261,-43.8655C520.227,-49.2875 553.209,-55.6819 579.774,-60.8322"/>
<polygon fill="midnightblue" stroke="midnightblue" points="492.689,-40.3834 482.206,-41.9161 491.357,-47.2555 492.689,-40.3834"/>
</g>
</g>
</svg>
        <g id="navigator" transform="translate(0 0)" fill="#404254">
                <rect fill="#f2f5e9" fill-opacity="0.5" stroke="#606060" stroke-width=".5" x="0" y="0" width="60" height="60"/>
                <use id="zoomplus" xlink:href="#zoomPlus" x="17" y="9" onmousedown="handleZoom(evt,'in')"/>
                <use id="zoomminus" xlink:href="#zoomMin" x="42" y="9" onmousedown="handleZoom(evt,'out')"/>
                <use id="reset" xlink:href="#resetDef" x="30" y="36" onmousedown="handleReset()"/>
                <g id="arrowUp" xlink:href="#dirArrow" transform="translate(30 24)" onmousedown="handlePan(0,-1)">
                  <use xlink:href="#rim" fill="#404040">
                        <set attributeName="fill" to="#808080" begin="arrowUp.mouseover" end="arrowUp.mouseout"/>
                  </use>
                  <path fill="none" stroke="white" stroke-width="1.5" d="M0,-3.0v7 M-2.5,-0.5L0,-3.0L2.5,-0.5"/>
                </g>
                <g id="arrowRight" xlink:href="#dirArrow" transform="rotate(90) translate(36 -43)" onmousedown="handlePan(1,0)">
                  <use xlink:href="#rim" fill="#404040">
                        <set attributeName="fill" to="#808080" begin="arrowRight.mouseover" end="arrowRight.mouseout"/>
                  </use>
                  <path fill="none" stroke="white" stroke-width="1.5" d="M0,-3.0v7 M-2.5,-0.5L0,-3.0L2.5,-0.5"/>
                </g>
                <g id="arrowDown" xlink:href="#dirArrow" transform="rotate(180) translate(-30 -48)" onmousedown="handlePan(0,1)">
                  <use xlink:href="#rim" fill="#404040">
                        <set attributeName="fill" to="#808080" begin="arrowDown.mouseover" end="arrowDown.mouseout"/>
                  </use>
                  <path fill="none" stroke="white" stroke-width="1.5" d="M0,-3.0v7 M-2.5,-0.5L0,-3.0L2.5,-0.5"/>
                </g>
                <g id="arrowLeft" xlink:href="#dirArrow" transform="rotate(270) translate(-36 17)" onmousedown="handlePan(-1,0)">
                  <use xlink:href="#rim" fill="#404040">
                        <set attributeName="fill" to="#808080" begin="arrowLeft.mouseover" end="arrowLeft.mouseout"/>
                  </use>
                  <path fill="none" stroke="white" stroke-width="1.5" d="M0,-3.0v7 M-2.5,-0.5L0,-3.0L2.5,-0.5"/>
                </g>
        </g>
        <svg viewBox="0 0 15 15" width="100%" height="30px" preserveAspectRatio="xMaxYMin meet">
         <g id="arrow_out" transform="scale(0.3 0.3)">
          <a xlink:href="classshared_1_1events_1_1cls_event_a48d11c9b50a2569c1065f19ca87d0715_icgraph_org.svg" target="_base">
           <rect id="button" ry="5" rx="5" y="6" x="6" height="38" width="38"
                fill="#f2f5e9" fill-opacity="0.5" stroke="#606060" stroke-width="1.0"/>
           <path id="arrow"
             d="M 11.500037,31.436501 C 11.940474,20.09759 22.043105,11.32322 32.158766,21.979434 L 37.068811,17.246167 C 37.068811,17.246167 37.088388,32 37.088388,32 L 22.160133,31.978069 C 22.160133,31.978069 26.997745,27.140456 26.997745,27.140456 C 18.528582,18.264221 13.291696,25.230495 11.500037,31.436501 z"
             style="fill:#404040;"/>
          </a>
         </g>
        </svg>
</svg>
