<?xml version="1.0" encoding="UTF-8" standalone="no"?>
<!DOCTYPE svg PUBLIC "-//W3C//DTD SVG 1.1//EN"
 "http://www.w3.org/Graphics/SVG/1.1/DTD/svg11.dtd">
<!-- Generated by graphviz version 2.30.1 (20130303.0817)
 -->
<!-- Title: shared::events::clsEvent::getEventType Pages: 1 -->
<!--zoomable 399 -->
<svg id="main" version="1.1" xmlns="http://www.w3.org/2000/svg" xmlns:xlink="http://www.w3.org/1999/xlink" xml:space="preserve" onload="init(evt)">
        <defs>
                <circle id="rim" cx="0" cy="0" r="7"/>
                <circle id="rim2" cx="0" cy="0" r="3.5"/>
                <g id="zoomPlus">
                        <use xlink:href="#rim" fill="#404040">
                                <set attributeName="fill" to="#808080" begin="zoomplus.mouseover" end="zoomplus.mouseout"/>
                        </use>
                        <path d="M-4,0h8M0,-4v8" fill="none" stroke="white" stroke-width="1.5" pointer-events="none"/>
                </g>
                <g id="zoomMin">
                        <use xlink:href="#rim" fill="#404040">
                                <set attributeName="fill" to="#808080" begin="zoomminus.mouseover" end="zoomminus.mouseout"/>
                        </use>
                        <path d="M-4,0h8" fill="none" stroke="white" stroke-width="1.5" pointer-events="none"/>
                </g>
                <g id="dirArrow">
                        <path fill="none" stroke="white" stroke-width="1.5" d="M0,-3.0v7 M-2.5,-0.5L0,-3.0L2.5,-0.5"/>
                </g>
               <g id="resetDef">
                       <use xlink:href="#rim2" fill="#404040">
                               <set attributeName="fill" to="#808080" begin="reset.mouseover" end="reset.mouseout"/>
                       </use>
               </g>
        </defs>

<script type="text/javascript">
var viewWidth = 1094;
var viewHeight = 399;
var sectionId = 'dynsection-5';
</script>
<script xlink:href="../../svgpan.js"/>
<svg id="graph" class="graph">
<g id="viewport">
<title>shared::events::clsEvent::getEventType</title>
<polygon fill="white" stroke="white" points="-4,5 -4,-394.789 1091,-394.789 1091,5 -4,5"/>
<!-- Node1 -->
<g id="node1" class="node"><title>Node1</title>
<polygon fill="#bfbfbf" stroke="black" points="0,-245.376 0,-275.376 122,-275.376 122,-245.376 0,-245.376"/>
<text text-anchor="start" x="8" y="-263.376" font-family="Helvetica,sans-Serif" font-size="10.00">shared::events::clsEvent</text>
<text text-anchor="middle" x="61" y="-252.376" font-family="Helvetica,sans-Serif" font-size="10.00">::getEventType</text>
</g>
<!-- Node2 -->
<g id="node2" class="node"><title>Node2</title>
<g id="a_node2"><a xlink:href="../../db/d8b/classshared_1_1events_1_1cls_event.html#a48d11c9b50a2569c1065f19ca87d0715" target="_top" xlink:title="Converts the current data to a QVariant for sending with JSON.">
<polygon fill="white" stroke="black" points="158,-245.376 158,-275.376 280,-275.376 280,-245.376 158,-245.376"/>
<text text-anchor="start" x="166" y="-263.376" font-family="Helvetica,sans-Serif" font-size="10.00">shared::events::clsEvent</text>
<text text-anchor="middle" x="219" y="-252.376" font-family="Helvetica,sans-Serif" font-size="10.00">::toVariant</text>
</a>
</g>
</g>
<!-- Node1&#45;&gt;Node2 -->
<g id="edge1" class="edge"><title>Node1&#45;&gt;Node2</title>
<path fill="none" stroke="midnightblue" d="M132.538,-260.376C140.99,-260.376 149.56,-260.376 157.847,-260.376"/>
<polygon fill="midnightblue" stroke="midnightblue" points="132.314,-256.876 122.314,-260.376 132.314,-263.876 132.314,-256.876"/>
</g>
<!-- Node3 -->
<g id="node3" class="node"><title>Node3</title>
<g id="a_node3"><a xlink:href="../../d1/d48/classserver_1_1main_app.html#a0970ee01d48b04ebc1390ffb8edecfc0" target="_top" xlink:title="Triggered when a chat has been received.">
<polygon fill="white" stroke="black" points="515,-364.876 515,-383.876 665,-383.876 665,-364.876 515,-364.876"/>
<text text-anchor="middle" x="590" y="-371.876" font-family="Helvetica,sans-Serif" font-size="10.00">server::mainApp::chatReceived</text>
</a>
</g>
</g>
<!-- Node2&#45;&gt;Node3 -->
<g id="edge2" class="edge"><title>Node2&#45;&gt;Node3</title>
<path fill="none" stroke="midnightblue" d="M237.229,-283.719C254.516,-305.149 283.227,-335.724 316,-350.376 378.873,-378.485 457.926,-382.48 514.761,-380.643"/>
<polygon fill="midnightblue" stroke="midnightblue" points="239.89,-281.44 230.966,-275.728 234.38,-285.758 239.89,-281.44"/>
</g>
<!-- Node6 -->
<g id="node6" class="node"><title>Node6</title>
<g id="a_node6"><a xlink:href="../../d1/d48/classserver_1_1main_app.html#a92448c1219ad89999c983b04adaa4236" target="_top" xlink:title="Triggered when a user joins trough a JOIN message.">
<polygon fill="white" stroke="black" points="718.5,-326.876 718.5,-345.876 857.5,-345.876 857.5,-326.876 718.5,-326.876"/>
<text text-anchor="middle" x="788" y="-333.876" font-family="Helvetica,sans-Serif" font-size="10.00">server::mainApp::userOnline</text>
</a>
</g>
</g>
<!-- Node2&#45;&gt;Node6 -->
<g id="edge5" class="edge"><title>Node2&#45;&gt;Node6</title>
<path fill="none" stroke="midnightblue" d="M263.711,-279.41C279.865,-285.735 298.504,-292.219 316,-296.376 456.123,-329.673 625.482,-336.116 718.138,-336.875"/>
<polygon fill="midnightblue" stroke="midnightblue" points="264.59,-275.992 254.006,-275.514 261.983,-282.488 264.59,-275.992"/>
</g>
<!-- Node7 -->
<g id="node7" class="node"><title>Node7</title>
<g id="a_node7"><a xlink:href="../../d1/d48/classserver_1_1main_app.html#aae86b15c001a235de78a90334e697b5f" target="_top" xlink:title="Triggered when a user leaves trough a PART message.">
<polygon fill="white" stroke="black" points="521,-288.876 521,-307.876 659,-307.876 659,-288.876 521,-288.876"/>
<text text-anchor="middle" x="590" y="-295.876" font-family="Helvetica,sans-Serif" font-size="10.00">server::mainApp::userOffline</text>
</a>
</g>
</g>
<!-- Node2&#45;&gt;Node7 -->
<g id="edge7" class="edge"><title>Node2&#45;&gt;Node7</title>
<path fill="none" stroke="midnightblue" d="M290.22,-271.088C298.892,-272.272 307.643,-273.4 316,-274.376 385.587,-282.502 465.443,-289.22 520.733,-293.462"/>
<polygon fill="midnightblue" stroke="midnightblue" points="290.49,-267.592 280.103,-269.679 289.524,-274.525 290.49,-267.592"/>
</g>
<!-- Node8 -->
<g id="node8" class="node"><title>Node8</title>
<g id="a_node8"><a xlink:href="../../d1/d48/classserver_1_1main_app.html#ae15deb9260c486854af7fac7b063fdf5" target="_top" xlink:title="Triggered when a user changes his nickname (nick|Status)">
<polygon fill="white" stroke="black" points="706,-250.876 706,-269.876 870,-269.876 870,-250.876 706,-250.876"/>
<text text-anchor="middle" x="788" y="-257.876" font-family="Helvetica,sans-Serif" font-size="10.00">server::mainApp::userChangeNick</text>
</a>
</g>
</g>
<!-- Node2&#45;&gt;Node8 -->
<g id="edge9" class="edge"><title>Node2&#45;&gt;Node8</title>
<path fill="none" stroke="midnightblue" d="M290.357,-260.376C395.772,-260.376 594.198,-260.376 705.677,-260.376"/>
<polygon fill="midnightblue" stroke="midnightblue" points="290.142,-256.876 280.142,-260.376 290.142,-263.876 290.142,-256.876"/>
</g>
<!-- Node9 -->
<g id="node9" class="node"><title>Node9</title>
<g id="a_node9"><a xlink:href="../../d1/d48/classserver_1_1main_app.html#aaa3dd74b510e2d797f21293a622a4f7d" target="_top" xlink:title="Triggered when a user changes his status (nick|Status)">
<polygon fill="white" stroke="black" points="323,-201.376 323,-231.376 467,-231.376 467,-201.376 323,-201.376"/>
<text text-anchor="start" x="331" y="-219.376" font-family="Helvetica,sans-Serif" font-size="10.00">server::mainApp::userChange</text>
<text text-anchor="middle" x="395" y="-208.376" font-family="Helvetica,sans-Serif" font-size="10.00">Status</text>
</a>
</g>
</g>
<!-- Node2&#45;&gt;Node9 -->
<g id="edge11" class="edge"><title>Node2&#45;&gt;Node9</title>
<path fill="none" stroke="midnightblue" d="M289.147,-242.891C304.181,-239.089 319.959,-235.099 334.578,-231.402"/>
<polygon fill="midnightblue" stroke="midnightblue" points="288.231,-239.512 279.394,-245.357 289.947,-246.298 288.231,-239.512"/>
</g>
<!-- Node10 -->
<g id="node10" class="node"><title>Node10</title>
<g id="a_node10"><a xlink:href="../../d1/d48/classserver_1_1main_app.html#aba9c03c1c353a57f43404bb149bee50b" target="_top" xlink:title="Triggered when a UI client wants all the events known to the server.">
<polygon fill="white" stroke="black" points="317.5,-162.876 317.5,-181.876 472.5,-181.876 472.5,-162.876 317.5,-162.876"/>
<text text-anchor="middle" x="395" y="-169.876" font-family="Helvetica,sans-Serif" font-size="10.00">server::mainApp::doSendEvents</text>
</a>
</g>
</g>
<!-- Node2&#45;&gt;Node10 -->
<g id="edge13" class="edge"><title>Node2&#45;&gt;Node10</title>
<path fill="none" stroke="midnightblue" d="M245.096,-238.699C263.593,-223.734 289.963,-204.432 316,-192.376 325.134,-188.147 335.3,-184.714 345.195,-181.965"/>
<polygon fill="midnightblue" stroke="midnightblue" points="242.668,-236.165 237.18,-245.228 247.122,-241.565 242.668,-236.165"/>
</g>
<!-- Node11 -->
<g id="node11" class="node"><title>Node11</title>
<g id="a_node11"><a xlink:href="../../d1/d48/classserver_1_1main_app.html#a7263ca5b3630b0a2774f556b96c333c8" target="_top" xlink:title="For logging to the clients.">
<polygon fill="white" stroke="black" points="316,-79.8761 316,-98.8761 474,-98.8761 474,-79.8761 316,-79.8761"/>
<text text-anchor="middle" x="395" y="-86.8761" font-family="Helvetica,sans-Serif" font-size="10.00">server::mainApp::serverMessage</text>
</a>
</g>
</g>
<!-- Node2&#45;&gt;Node11 -->
<g id="edge15" class="edge"><title>Node2&#45;&gt;Node11</title>
<path fill="none" stroke="midnightblue" d="M238.966,-237.256C257.68,-214.935 287.538,-180.609 316,-153.376 337.643,-132.668 365.174,-111.069 381.071,-99.0089"/>
<polygon fill="midnightblue" stroke="midnightblue" points="236.075,-235.258 232.366,-245.183 241.455,-239.737 236.075,-235.258"/>
</g>
<!-- Node4 -->
<g id="node4" class="node"><title>Node4</title>
<g id="a_node4"><a xlink:href="../../d1/d48/classserver_1_1main_app.html#af331bc3bf60e745f3ddc95ab3abe5188" target="_top" xlink:title="server::mainApp::run">
<polygon fill="white" stroke="black" points="906,-193.876 906,-212.876 1012,-212.876 1012,-193.876 906,-193.876"/>
<text text-anchor="middle" x="959" y="-200.876" font-family="Helvetica,sans-Serif" font-size="10.00">server::mainApp::run</text>
</a>
</g>
</g>
<!-- Node3&#45;&gt;Node4 -->
<g id="edge3" class="edge"><title>Node3&#45;&gt;Node4</title>
<path fill="none" stroke="midnightblue" d="M648.824,-385.336C708.831,-393.503 803.091,-397.046 870,-355.376 924.355,-321.525 948.75,-240.928 955.762,-213.057"/>
<polygon fill="midnightblue" stroke="midnightblue" points="649.164,-381.849 638.766,-383.88 648.161,-388.776 649.164,-381.849"/>
</g>
<!-- Node5 -->
<g id="node5" class="node"><title>Node5</title>
<g id="a_node5"><a xlink:href="../../dc/d17/custom_irc_server_2main_8cpp.html#a0ddf1224851353fc92bfbff6f499fa97" target="_top" xlink:title="main">
<polygon fill="white" stroke="black" points="1048,-193.876 1048,-212.876 1086,-212.876 1086,-193.876 1048,-193.876"/>
<text text-anchor="middle" x="1067" y="-200.876" font-family="Helvetica,sans-Serif" font-size="10.00">main</text>
</a>
</g>
</g>
<!-- Node4&#45;&gt;Node5 -->
<g id="edge4" class="edge"><title>Node4&#45;&gt;Node5</title>
<path fill="none" stroke="midnightblue" d="M1022.21,-203.376C1031.46,-203.376 1040.33,-203.376 1047.64,-203.376"/>
<polygon fill="midnightblue" stroke="midnightblue" points="1022.07,-199.876 1012.07,-203.376 1022.07,-206.876 1022.07,-199.876"/>
</g>
<!-- Node6&#45;&gt;Node4 -->
<g id="edge6" class="edge"><title>Node6&#45;&gt;Node4</title>
<path fill="none" stroke="midnightblue" d="M848.101,-323.479C855.805,-320.495 863.328,-316.842 870,-312.376 910.221,-285.456 941.086,-234.523 952.837,-213.177"/>
<polygon fill="midnightblue" stroke="midnightblue" points="846.933,-320.18 838.659,-326.797 849.253,-326.784 846.933,-320.18"/>
</g>
<!-- Node7&#45;&gt;Node4 -->
<g id="edge8" class="edge"><title>Node7&#45;&gt;Node4</title>
<path fill="none" stroke="midnightblue" d="M669.23,-306.004C726.875,-308.594 806.04,-305.68 870,-279.376 905.472,-264.788 936.764,-229.99 950.542,-213.017"/>
<polygon fill="midnightblue" stroke="midnightblue" points="669.254,-302.5 659.087,-305.482 668.894,-309.491 669.254,-302.5"/>
</g>
<!-- Node8&#45;&gt;Node4 -->
<g id="edge10" class="edge"><title>Node8&#45;&gt;Node4</title>
<path fill="none" stroke="midnightblue" d="M832.923,-247.977C844.994,-244.403 858.049,-240.382 870,-236.376 891.814,-229.065 916.294,-219.796 933.886,-212.945"/>
<polygon fill="midnightblue" stroke="midnightblue" points="831.674,-244.696 823.06,-250.865 833.641,-251.414 831.674,-244.696"/>
</g>
<!-- Node9&#45;&gt;Node4 -->
<g id="edge12" class="edge"><title>Node9&#45;&gt;Node4</title>
<path fill="none" stroke="midnightblue" d="M477.523,-214.49C594.728,-211.779 807.521,-206.857 905.743,-204.585"/>
<polygon fill="midnightblue" stroke="midnightblue" points="477.094,-210.999 467.178,-214.73 477.256,-217.997 477.094,-210.999"/>
</g>
<!-- Node10&#45;&gt;Node4 -->
<g id="edge14" class="edge"><title>Node10&#45;&gt;Node4</title>
<path fill="none" stroke="midnightblue" d="M482.774,-177.163C600.983,-183.683 808.969,-195.156 905.741,-200.494"/>
<polygon fill="midnightblue" stroke="midnightblue" points="482.849,-173.661 472.672,-176.605 482.464,-180.651 482.849,-173.661"/>
</g>
<!-- Node11&#45;&gt;Node4 -->
<g id="edge16" class="edge"><title>Node11&#45;&gt;Node4</title>
<path fill="none" stroke="midnightblue" d="M430.429,-102.448C452.831,-110.554 482.83,-120.667 510,-127.376 667.406,-166.246 710.388,-157.886 870,-186.376 883.02,-188.7 897.096,-191.355 910.091,-193.865"/>
<polygon fill="midnightblue" stroke="midnightblue" points="431.61,-99.1532 421.017,-98.9984 429.202,-105.726 431.61,-99.1532"/>
</g>
<!-- Node12 -->
<g id="node12" class="node"><title>Node12</title>
<g id="a_node12"><a xlink:href="../../d1/d48/classserver_1_1main_app.html#a931aedd34bb38252acfc8880f9716fab" target="_top" xlink:title="Triggered when the IRC client cannot connect.">
<polygon fill="white" stroke="black" points="718.5,-11.3761 718.5,-41.3761 857.5,-41.3761 857.5,-11.3761 718.5,-11.3761"/>
<text text-anchor="start" x="726.5" y="-29.3761" font-family="Helvetica,sans-Serif" font-size="10.00">server::mainApp::ircConnect</text>
<text text-anchor="middle" x="788" y="-18.3761" font-family="Helvetica,sans-Serif" font-size="10.00">TimeOut</text>
</a>
</g>
</g>
<!-- Node11&#45;&gt;Node12 -->
<g id="edge17" class="edge"><title>Node11&#45;&gt;Node12</title>
<path fill="none" stroke="midnightblue" d="M413.362,-72.9189C434.337,-54.2821 471.613,-24.9989 510,-13.3761 580.383,7.93427 665.393,-0.81464 722.517,-11.3384"/>
<polygon fill="midnightblue" stroke="midnightblue" points="410.941,-70.3896 405.906,-79.7117 415.655,-75.564 410.941,-70.3896"/>
</g>
<!-- Node13 -->
<g id="node13" class="node"><title>Node13</title>
<g id="a_node13"><a xlink:href="../../d1/d48/classserver_1_1main_app.html#a6e6e952e3048cfeefcdfeea7bbb5b83e" target="_top" xlink:title="Triggered when the IRC client has connected.">
<polygon fill="white" stroke="black" points="515.5,-98.8761 515.5,-117.876 664.5,-117.876 664.5,-98.8761 515.5,-98.8761"/>
<text text-anchor="middle" x="590" y="-105.876" font-family="Helvetica,sans-Serif" font-size="10.00">server::mainApp::ircConnected</text>
</a>
</g>
</g>
<!-- Node11&#45;&gt;Node13 -->
<g id="edge19" class="edge"><title>Node11&#45;&gt;Node13</title>
<path fill="none" stroke="midnightblue" d="M484.486,-98.0872C494.809,-99.1034 505.255,-100.132 515.348,-101.125"/>
<polygon fill="midnightblue" stroke="midnightblue" points="484.517,-94.5734 474.222,-97.0767 483.831,-101.54 484.517,-94.5734"/>
</g>
<!-- Node14 -->
<g id="node14" class="node"><title>Node14</title>
<g id="a_node14"><a xlink:href="../../d1/d48/classserver_1_1main_app.html#af6e8c9d1f06514b33e5f88f9e66884be" target="_top" xlink:title="Triggered when the IRC client has disconnected.">
<polygon fill="white" stroke="black" points="707,-60.8761 707,-79.8761 869,-79.8761 869,-60.8761 707,-60.8761"/>
<text text-anchor="middle" x="788" y="-67.8761" font-family="Helvetica,sans-Serif" font-size="10.00">server::mainApp::ircDisconnected</text>
</a>
</g>
</g>
<!-- Node11&#45;&gt;Node14 -->
<g id="edge21" class="edge"><title>Node11&#45;&gt;Node14</title>
<path fill="none" stroke="midnightblue" d="M484.282,-85.0862C551.13,-81.8378 642.193,-77.4128 706.937,-74.2666"/>
<polygon fill="midnightblue" stroke="midnightblue" points="484.003,-81.5955 474.185,-85.5768 484.343,-88.5873 484.003,-81.5955"/>
</g>
<!-- Node15 -->
<g id="node15" class="node"><title>Node15</title>
<g id="a_node15"><a xlink:href="../../d1/d48/classserver_1_1main_app.html#aa9d4c2e1dc5216901c4f8743838d4561" target="_top" xlink:title="Emitted when the reconnect timer reaches 0.">
<polygon fill="white" stroke="black" points="510,-22.8761 510,-41.8761 670,-41.8761 670,-22.8761 510,-22.8761"/>
<text text-anchor="middle" x="590" y="-29.8761" font-family="Helvetica,sans-Serif" font-size="10.00">server::mainApp::doIrcReconnect</text>
</a>
</g>
</g>
<!-- Node11&#45;&gt;Node15 -->
<g id="edge23" class="edge"><title>Node11&#45;&gt;Node15</title>
<path fill="none" stroke="midnightblue" d="M437.935,-76.9911C473.568,-66.4673 523.987,-51.5768 556.591,-41.9477"/>
<polygon fill="midnightblue" stroke="midnightblue" points="436.903,-73.6464 428.304,-79.8356 438.886,-80.3598 436.903,-73.6464"/>
</g>
<!-- Node12&#45;&gt;Node4 -->
<g id="edge18" class="edge"><title>Node12&#45;&gt;Node4</title>
<path fill="none" stroke="midnightblue" d="M862.843,-46.3402C865.337,-47.8952 867.734,-49.5708 870,-51.3761 919.607,-90.8948 946.696,-166.539 955.111,-193.517"/>
<polygon fill="midnightblue" stroke="midnightblue" points="864.489,-43.2512 854.04,-41.5042 861.119,-49.3864 864.489,-43.2512"/>
</g>
<!-- Node13&#45;&gt;Node4 -->
<g id="edge20" class="edge"><title>Node13&#45;&gt;Node4</title>
<path fill="none" stroke="midnightblue" d="M674.845,-103.014C731.84,-102.346 807.875,-107.394 870,-132.376 904.058,-146.072 935.315,-177.644 949.69,-193.668"/>
<polygon fill="midnightblue" stroke="midnightblue" points="674.728,-99.5153 664.792,-103.193 674.853,-106.514 674.728,-99.5153"/>
</g>
<!-- Node14&#45;&gt;Node4 -->
<g id="edge22" class="edge"><title>Node14&#45;&gt;Node4</title>
<path fill="none" stroke="midnightblue" d="M848.101,-83.2728C855.805,-86.2569 863.328,-89.9103 870,-94.3761 910.221,-121.296 941.086,-172.229 952.837,-193.575"/>
<polygon fill="midnightblue" stroke="midnightblue" points="849.253,-79.968 838.659,-79.9551 846.933,-86.5722 849.253,-79.968"/>
</g>
<!-- Node15&#45;&gt;Node12 -->
<g id="edge24" class="edge"><title>Node15&#45;&gt;Node12</title>
<path fill="none" stroke="midnightblue" d="M680.316,-29.6419C693.059,-29.2518 705.999,-28.8557 718.266,-28.4802"/>
<polygon fill="midnightblue" stroke="midnightblue" points="680.044,-26.1485 670.156,-29.953 680.258,-33.1453 680.044,-26.1485"/>
</g>
<!-- Node15&#45;&gt;Node14 -->
<g id="edge25" class="edge"><title>Node15&#45;&gt;Node14</title>
<path fill="none" stroke="midnightblue" d="M650.261,-43.8655C678.227,-49.2875 711.209,-55.6819 737.774,-60.8322"/>
<polygon fill="midnightblue" stroke="midnightblue" points="650.689,-40.3834 640.206,-41.9161 649.357,-47.2555 650.689,-40.3834"/>
</g>
</g>
</svg>
        <g id="navigator" transform="translate(0 0)" fill="#404254">
                <rect fill="#f2f5e9" fill-opacity="0.5" stroke="#606060" stroke-width=".5" x="0" y="0" width="60" height="60"/>
                <use id="zoomplus" xlink:href="#zoomPlus" x="17" y="9" onmousedown="handleZoom(evt,'in')"/>
                <use id="zoomminus" xlink:href="#zoomMin" x="42" y="9" onmousedown="handleZoom(evt,'out')"/>
                <use id="reset" xlink:href="#resetDef" x="30" y="36" onmousedown="handleReset()"/>
                <g id="arrowUp" xlink:href="#dirArrow" transform="translate(30 24)" onmousedown="handlePan(0,-1)">
                  <use xlink:href="#rim" fill="#404040">
                        <set attributeName="fill" to="#808080" begin="arrowUp.mouseover" end="arrowUp.mouseout"/>
                  </use>
                  <path fill="none" stroke="white" stroke-width="1.5" d="M0,-3.0v7 M-2.5,-0.5L0,-3.0L2.5,-0.5"/>
                </g>
                <g id="arrowRight" xlink:href="#dirArrow" transform="rotate(90) translate(36 -43)" onmousedown="handlePan(1,0)">
                  <use xlink:href="#rim" fill="#404040">
                        <set attributeName="fill" to="#808080" begin="arrowRight.mouseover" end="arrowRight.mouseout"/>
                  </use>
                  <path fill="none" stroke="white" stroke-width="1.5" d="M0,-3.0v7 M-2.5,-0.5L0,-3.0L2.5,-0.5"/>
                </g>
                <g id="arrowDown" xlink:href="#dirArrow" transform="rotate(180) translate(-30 -48)" onmousedown="handlePan(0,1)">
                  <use xlink:href="#rim" fill="#404040">
                        <set attributeName="fill" to="#808080" begin="arrowDown.mouseover" end="arrowDown.mouseout"/>
                  </use>
                  <path fill="none" stroke="white" stroke-width="1.5" d="M0,-3.0v7 M-2.5,-0.5L0,-3.0L2.5,-0.5"/>
                </g>
                <g id="arrowLeft" xlink:href="#dirArrow" transform="rotate(270) translate(-36 17)" onmousedown="handlePan(-1,0)">
                  <use xlink:href="#rim" fill="#404040">
                        <set attributeName="fill" to="#808080" begin="arrowLeft.mouseover" end="arrowLeft.mouseout"/>
                  </use>
                  <path fill="none" stroke="white" stroke-width="1.5" d="M0,-3.0v7 M-2.5,-0.5L0,-3.0L2.5,-0.5"/>
                </g>
        </g>
        <svg viewBox="0 0 15 15" width="100%" height="30px" preserveAspectRatio="xMaxYMin meet">
         <g id="arrow_out" transform="scale(0.3 0.3)">
          <a xlink:href="classshared_1_1events_1_1cls_event_abd4a458aec7673de426a8995a349bf4b_icgraph_org.svg" target="_base">
           <rect id="button" ry="5" rx="5" y="6" x="6" height="38" width="38"
                fill="#f2f5e9" fill-opacity="0.5" stroke="#606060" stroke-width="1.0"/>
           <path id="arrow"
             d="M 11.500037,31.436501 C 11.940474,20.09759 22.043105,11.32322 32.158766,21.979434 L 37.068811,17.246167 C 37.068811,17.246167 37.088388,32 37.088388,32 L 22.160133,31.978069 C 22.160133,31.978069 26.997745,27.140456 26.997745,27.140456 C 18.528582,18.264221 13.291696,25.230495 11.500037,31.436501 z"
             style="fill:#404040;"/>
          </a>
         </g>
        </svg>
</svg>
