<?xml version="1.0" encoding="UTF-8" standalone="no"?>
<!DOCTYPE svg PUBLIC "-//W3C//DTD SVG 1.1//EN"
 "http://www.w3.org/Graphics/SVG/1.1/DTD/svg11.dtd">
<!-- Generated by graphviz version 2.30.1 (20130303.0817)
 -->
<!-- Title: shared::events::clsEvent::getType Pages: 1 -->
<svg width="716pt" height="61pt"
 viewBox="0.00 0.00 716.00 61.00" xmlns="http://www.w3.org/2000/svg" xmlns:xlink="http://www.w3.org/1999/xlink">
<g id="graph0" class="graph" transform="scale(1 1) rotate(0) translate(4 57)">
<title>shared::events::clsEvent::getType</title>
<polygon fill="white" stroke="white" points="-4,5 -4,-57 713,-57 713,5 -4,5"/>
<!-- Node1 -->
<g id="node1" class="node"><title>Node1</title>
<polygon fill="#bfbfbf" stroke="black" points="0,-1 0,-31 122,-31 122,-1 0,-1"/>
<text text-anchor="start" x="8" y="-19" font-family="Helvetica,sans-Serif" font-size="10.00">shared::events::clsEvent</text>
<text text-anchor="middle" x="61" y="-8" font-family="Helvetica,sans-Serif" font-size="10.00">::getType</text>
</g>
<!-- Node2 -->
<g id="node2" class="node"><title>Node2</title>
<g id="a_node2"><a xlink:href="../../d3/d65/classclient_1_1cls_server_conn.html#ad5d3a03440fdec33270247486fb5500c" target="_top" xlink:title="Event has been received by the client. Parse it.">
<polygon fill="white" stroke="black" points="158,-1 158,-31 272,-31 272,-1 158,-1"/>
<text text-anchor="start" x="166" y="-19" font-family="Helvetica,sans-Serif" font-size="10.00">client::clsServerConn</text>
<text text-anchor="middle" x="215" y="-8" font-family="Helvetica,sans-Serif" font-size="10.00">::handleEventReceived</text>
</a>
</g>
</g>
<!-- Node1&#45;&gt;Node2 -->
<g id="edge1" class="edge"><title>Node1&#45;&gt;Node2</title>
<path fill="none" stroke="midnightblue" d="M132.117,-16C140.734,-16 149.453,-16 157.826,-16"/>
<polygon fill="midnightblue" stroke="midnightblue" points="132.074,-12.5001 122.074,-16 132.074,-19.5001 132.074,-12.5001"/>
</g>
<!-- Node3 -->
<g id="node3" class="node"><title>Node3</title>
<g id="a_node3"><a xlink:href="../../d3/d65/classclient_1_1cls_server_conn.html#a25abb840bb0764068d9a72dfb1e403b5" target="_top" xlink:title="Event request has been done by us, and data has been returned.">
<polygon fill="white" stroke="black" points="308.5,-23 308.5,-53 419.5,-53 419.5,-23 308.5,-23"/>
<text text-anchor="start" x="316.5" y="-41" font-family="Helvetica,sans-Serif" font-size="10.00">client::clsServerConn</text>
<text text-anchor="middle" x="364" y="-30" font-family="Helvetica,sans-Serif" font-size="10.00">::handleEventRequest</text>
</a>
</g>
</g>
<!-- Node2&#45;&gt;Node3 -->
<g id="edge2" class="edge"><title>Node2&#45;&gt;Node3</title>
<path fill="none" stroke="midnightblue" d="M282.507,-25.9534C291.18,-27.2515 299.985,-28.5692 308.432,-29.8334"/>
<polygon fill="midnightblue" stroke="midnightblue" points="282.822,-22.4616 272.414,-24.4429 281.785,-29.3845 282.822,-22.4616"/>
</g>
<!-- Node4 -->
<g id="node4" class="node"><title>Node4</title>
<g id="a_node4"><a xlink:href="../../d3/d65/classclient_1_1cls_server_conn.html#a0f7c8da07639a563b9d88780eb22748e" target="_top" xlink:title="client::clsServerConn\l::readData">
<polygon fill="white" stroke="black" points="456,-1 456,-31 564,-31 564,-1 456,-1"/>
<text text-anchor="start" x="464" y="-19" font-family="Helvetica,sans-Serif" font-size="10.00">client::clsServerConn</text>
<text text-anchor="middle" x="510" y="-8" font-family="Helvetica,sans-Serif" font-size="10.00">::readData</text>
</a>
</g>
</g>
<!-- Node2&#45;&gt;Node4 -->
<g id="edge5" class="edge"><title>Node2&#45;&gt;Node4</title>
<path fill="none" stroke="midnightblue" d="M282.454,-14.3837C291.049,-14.2251 299.733,-14.0898 308,-14 357.775,-13.459 370.225,-13.4408 420,-14 431.591,-14.1302 444.029,-14.3558 455.823,-14.6097"/>
<polygon fill="midnightblue" stroke="midnightblue" points="282.365,-10.8847 272.436,-14.5794 282.502,-17.8834 282.365,-10.8847"/>
</g>
<!-- Node3&#45;&gt;Node4 -->
<g id="edge3" class="edge"><title>Node3&#45;&gt;Node4</title>
<path fill="none" stroke="midnightblue" d="M429.9,-28.0847C438.54,-26.7648 447.317,-25.4238 455.728,-24.1388"/>
<polygon fill="midnightblue" stroke="midnightblue" points="429.208,-24.6498 419.851,-29.62 430.265,-31.5695 429.208,-24.6498"/>
</g>
<!-- Node5 -->
<g id="node5" class="node"><title>Node5</title>
<g id="a_node5"><a xlink:href="../../d3/d65/classclient_1_1cls_server_conn.html#ad9d8caf021df2cd15ce27bcf207d86d0" target="_top" xlink:title="Constructor taking a hostname and port.">
<polygon fill="white" stroke="black" points="600,-1 600,-31 708,-31 708,-1 600,-1"/>
<text text-anchor="start" x="608" y="-19" font-family="Helvetica,sans-Serif" font-size="10.00">client::clsServerConn</text>
<text text-anchor="middle" x="654" y="-8" font-family="Helvetica,sans-Serif" font-size="10.00">::clsServerConn</text>
</a>
</g>
</g>
<!-- Node4&#45;&gt;Node5 -->
<g id="edge4" class="edge"><title>Node4&#45;&gt;Node5</title>
<path fill="none" stroke="midnightblue" d="M574.517,-16C582.996,-16 591.618,-16 599.894,-16"/>
<polygon fill="midnightblue" stroke="midnightblue" points="574.28,-12.5001 564.28,-16 574.28,-19.5001 574.28,-12.5001"/>
</g>
</g>
</svg>
