<?xml version="1.0" encoding="UTF-8" standalone="no"?>
<!DOCTYPE svg PUBLIC "-//W3C//DTD SVG 1.1//EN"
 "http://www.w3.org/Graphics/SVG/1.1/DTD/svg11.dtd">
<!-- Generated by graphviz version 2.30.1 (20130303.0817)
 -->
<!-- Title: shared::events::clsEvent::getTime Pages: 1 -->
<svg width="432pt" height="185pt"
 viewBox="0.00 0.00 432.00 185.00" xmlns="http://www.w3.org/2000/svg" xmlns:xlink="http://www.w3.org/1999/xlink">
<g id="graph0" class="graph" transform="scale(1 1) rotate(0) translate(4 181)">
<title>shared::events::clsEvent::getTime</title>
<polygon fill="white" stroke="white" points="-4,5 -4,-181 429,-181 429,5 -4,5"/>
<!-- Node1 -->
<g id="node1" class="node"><title>Node1</title>
<polygon fill="#bfbfbf" stroke="black" points="0,-73 0,-103 122,-103 122,-73 0,-73"/>
<text text-anchor="start" x="8" y="-91" font-family="Helvetica,sans-Serif" font-size="10.00">shared::events::clsEvent</text>
<text text-anchor="middle" x="61" y="-80" font-family="Helvetica,sans-Serif" font-size="10.00">::getTime</text>
</g>
<!-- Node2 -->
<g id="node2" class="node"><title>Node2</title>
<g id="a_node2"><a xlink:href="../../d2/da4/classclient_1_1_main_window.html#a51e1634c12eb7373b01dce36a03afc9a" target="_top" xlink:title="Triggered when a chat has been received.">
<polygon fill="white" stroke="black" points="171.5,-147 171.5,-177 272.5,-177 272.5,-147 171.5,-147"/>
<text text-anchor="start" x="179.5" y="-165" font-family="Helvetica,sans-Serif" font-size="10.00">client::MainWindow</text>
<text text-anchor="middle" x="222" y="-154" font-family="Helvetica,sans-Serif" font-size="10.00">::chatReceived</text>
</a>
</g>
</g>
<!-- Node1&#45;&gt;Node2 -->
<g id="edge1" class="edge"><title>Node1&#45;&gt;Node2</title>
<path fill="none" stroke="midnightblue" d="M98.6834,-107.749C116.412,-117.029 138.11,-128.002 158,-137 165.505,-140.395 173.616,-143.803 181.44,-146.962"/>
<polygon fill="midnightblue" stroke="midnightblue" points="100.284,-104.636 89.8052,-103.07 97.0202,-110.829 100.284,-104.636"/>
</g>
<!-- Node4 -->
<g id="node4" class="node"><title>Node4</title>
<g id="a_node4"><a xlink:href="../../d2/da4/classclient_1_1_main_window.html#a9f16758ff23f279a244806cae35a1604" target="_top" xlink:title="Triggered when a user leaves the room.">
<polygon fill="white" stroke="black" points="171.5,-98 171.5,-128 272.5,-128 272.5,-98 171.5,-98"/>
<text text-anchor="start" x="179.5" y="-116" font-family="Helvetica,sans-Serif" font-size="10.00">client::MainWindow</text>
<text text-anchor="middle" x="222" y="-105" font-family="Helvetica,sans-Serif" font-size="10.00">::userLeave</text>
</a>
</g>
</g>
<!-- Node1&#45;&gt;Node4 -->
<g id="edge3" class="edge"><title>Node1&#45;&gt;Node4</title>
<path fill="none" stroke="midnightblue" d="M132.143,-99.0288C145.384,-101.111 158.976,-103.248 171.422,-105.205"/>
<polygon fill="midnightblue" stroke="midnightblue" points="132.533,-95.5472 122.111,-97.4514 131.446,-102.462 132.533,-95.5472"/>
</g>
<!-- Node5 -->
<g id="node5" class="node"><title>Node5</title>
<g id="a_node5"><a xlink:href="../../d2/da4/classclient_1_1_main_window.html#a62f7f15ddd56fd52acd7ba01fa6354b4" target="_top" xlink:title="Triggered when a user enters the room.">
<polygon fill="white" stroke="black" points="171.5,-49 171.5,-79 272.5,-79 272.5,-49 171.5,-49"/>
<text text-anchor="start" x="179.5" y="-67" font-family="Helvetica,sans-Serif" font-size="10.00">client::MainWindow</text>
<text text-anchor="middle" x="222" y="-56" font-family="Helvetica,sans-Serif" font-size="10.00">::userEnter</text>
</a>
</g>
</g>
<!-- Node1&#45;&gt;Node5 -->
<g id="edge5" class="edge"><title>Node1&#45;&gt;Node5</title>
<path fill="none" stroke="midnightblue" d="M132.143,-77.4124C145.384,-75.4138 158.976,-73.3622 171.422,-71.4835"/>
<polygon fill="midnightblue" stroke="midnightblue" points="131.477,-73.9732 122.111,-78.9266 132.521,-80.8948 131.477,-73.9732"/>
</g>
<!-- Node6 -->
<g id="node6" class="node"><title>Node6</title>
<g id="a_node6"><a xlink:href="../../d2/da4/classclient_1_1_main_window.html#ae738b40e6b83639304d84f3d9f117c75" target="_top" xlink:title="Triggered when the server sends us a message that should be displayed in the UI.">
<polygon fill="white" stroke="black" points="158.5,-0 158.5,-30 285.5,-30 285.5,-0 158.5,-0"/>
<text text-anchor="start" x="166.5" y="-18" font-family="Helvetica,sans-Serif" font-size="10.00">client::MainWindow</text>
<text text-anchor="middle" x="222" y="-7" font-family="Helvetica,sans-Serif" font-size="10.00">::serverMessageReceived</text>
</a>
</g>
</g>
<!-- Node1&#45;&gt;Node6 -->
<g id="edge7" class="edge"><title>Node1&#45;&gt;Node6</title>
<path fill="none" stroke="midnightblue" d="M99.9889,-68.064C117.487,-59.1259 138.626,-48.6685 158,-40 165.519,-36.6359 173.636,-33.2424 181.462,-30.087"/>
<polygon fill="midnightblue" stroke="midnightblue" points="97.9695,-65.1668 90.6769,-72.8524 101.171,-71.392 97.9695,-65.1668"/>
</g>
<!-- Node3 -->
<g id="node3" class="node"><title>Node3</title>
<g id="a_node3"><a xlink:href="../../d2/da4/classclient_1_1_main_window.html#ab4aedce719340218169c114b31b54f70" target="_top" xlink:title="client::MainWindow\l::MainWindow">
<polygon fill="white" stroke="black" points="322.5,-73 322.5,-103 423.5,-103 423.5,-73 322.5,-73"/>
<text text-anchor="start" x="330.5" y="-91" font-family="Helvetica,sans-Serif" font-size="10.00">client::MainWindow</text>
<text text-anchor="middle" x="373" y="-80" font-family="Helvetica,sans-Serif" font-size="10.00">::MainWindow</text>
</a>
</g>
</g>
<!-- Node2&#45;&gt;Node3 -->
<g id="edge2" class="edge"><title>Node2&#45;&gt;Node3</title>
<path fill="none" stroke="midnightblue" d="M272.679,-143.048C277.219,-141.087 281.717,-139.057 286,-137 307.375,-126.732 330.696,-113.295 347.653,-103.09"/>
<polygon fill="midnightblue" stroke="midnightblue" points="271.223,-139.863 263.357,-146.96 273.932,-146.317 271.223,-139.863"/>
</g>
<!-- Node4&#45;&gt;Node3 -->
<g id="edge4" class="edge"><title>Node4&#45;&gt;Node3</title>
<path fill="none" stroke="midnightblue" d="M282.55,-103.008C295.747,-100.794 309.596,-98.4705 322.348,-96.3309"/>
<polygon fill="midnightblue" stroke="midnightblue" points="281.898,-99.5688 272.615,-104.675 283.056,-106.472 281.898,-99.5688"/>
</g>
<!-- Node5&#45;&gt;Node3 -->
<g id="edge6" class="edge"><title>Node5&#45;&gt;Node3</title>
<path fill="none" stroke="midnightblue" d="M282.55,-73.592C295.747,-75.7176 309.596,-77.9483 322.348,-80.0024"/>
<polygon fill="midnightblue" stroke="midnightblue" points="283.044,-70.1265 272.615,-71.9917 281.931,-77.0374 283.044,-70.1265"/>
</g>
<!-- Node6&#45;&gt;Node3 -->
<g id="edge8" class="edge"><title>Node6&#45;&gt;Node3</title>
<path fill="none" stroke="midnightblue" d="M272.659,-33.9924C277.204,-35.9444 281.708,-37.9617 286,-40 307.005,-49.9768 329.964,-62.9001 346.872,-72.8236"/>
<polygon fill="midnightblue" stroke="midnightblue" points="273.908,-30.721 263.332,-30.0911 271.207,-37.1788 273.908,-30.721"/>
</g>
</g>
</svg>
