<?xml version="1.0" encoding="UTF-8" standalone="no"?>
<!DOCTYPE svg PUBLIC "-//W3C//DTD SVG 1.1//EN"
 "http://www.w3.org/Graphics/SVG/1.1/DTD/svg11.dtd">
<!-- Generated by graphviz version 2.30.1 (20130303.0817)
 -->
<!-- Title: shared::events::clsEvent::addToData Pages: 1 -->
<svg width="354pt" height="283pt"
 viewBox="0.00 0.00 354.00 283.00" xmlns="http://www.w3.org/2000/svg" xmlns:xlink="http://www.w3.org/1999/xlink">
<g id="graph0" class="graph" transform="scale(1 1) rotate(0) translate(4 279)">
<title>shared::events::clsEvent::addToData</title>
<polygon fill="white" stroke="white" points="-4,5 -4,-279 351,-279 351,5 -4,5"/>
<!-- Node1 -->
<g id="node1" class="node"><title>Node1</title>
<polygon fill="#bfbfbf" stroke="black" points="0,-122 0,-152 122,-152 122,-122 0,-122"/>
<text text-anchor="start" x="8" y="-140" font-family="Helvetica,sans-Serif" font-size="10.00">shared::events::clsEvent</text>
<text text-anchor="middle" x="61" y="-129" font-family="Helvetica,sans-Serif" font-size="10.00">::addToData</text>
</g>
<!-- Node2 -->
<g id="node2" class="node"><title>Node2</title>
<g id="a_node2"><a xlink:href="../../d1/d68/classshared_1_1events_1_1event_chat.html#ae8e23aacd573c9d738fa092706012e98" target="_top" xlink:title="eventChat constructor taking a userId and a message">
<polygon fill="white" stroke="black" points="188,-245 188,-275 316,-275 316,-245 188,-245"/>
<text text-anchor="start" x="196" y="-263" font-family="Helvetica,sans-Serif" font-size="10.00">shared::events::eventChat</text>
<text text-anchor="middle" x="252" y="-252" font-family="Helvetica,sans-Serif" font-size="10.00">::eventChat</text>
</a>
</g>
</g>
<!-- Node1&#45;&gt;Node2 -->
<g id="edge1" class="edge"><title>Node1&#45;&gt;Node2</title>
<path fill="none" stroke="midnightblue" d="M78.6244,-160.057C95.9714,-182.455 125.185,-215.81 158,-235 167.092,-240.317 177.342,-244.531 187.628,-247.863"/>
<polygon fill="midnightblue" stroke="midnightblue" points="81.3995,-157.923 72.5742,-152.061 75.8175,-162.147 81.3995,-157.923"/>
</g>
<!-- Node3 -->
<g id="node3" class="node"><title>Node3</title>
<g id="a_node3"><a xlink:href="../../d6/dfe/classshared_1_1events_1_1event_server_message.html#ae12d1373b82828c26fe2e74439dd60eb" target="_top" xlink:title="eventServerMessage constructor taking a message">
<polygon fill="white" stroke="black" points="176,-196 176,-226 328,-226 328,-196 176,-196"/>
<text text-anchor="start" x="184" y="-214" font-family="Helvetica,sans-Serif" font-size="10.00">shared::events::eventServer</text>
<text text-anchor="middle" x="252" y="-203" font-family="Helvetica,sans-Serif" font-size="10.00">Message::eventServerMessage</text>
</a>
</g>
</g>
<!-- Node1&#45;&gt;Node3 -->
<g id="edge2" class="edge"><title>Node1&#45;&gt;Node3</title>
<path fill="none" stroke="midnightblue" d="M96.7188,-156.95C114.613,-166.653 137.031,-177.932 158,-186 167.518,-189.662 177.781,-192.998 187.893,-195.956"/>
<polygon fill="midnightblue" stroke="midnightblue" points="98.2536,-153.8 87.8051,-152.045 94.8787,-159.933 98.2536,-153.8"/>
</g>
<!-- Node4 -->
<g id="node4" class="node"><title>Node4</title>
<g id="a_node4"><a xlink:href="../../d5/de1/classshared_1_1events_1_1event_user_change_nick.html#af8377a977c01b8247ab744a190fe9a6b" target="_top" xlink:title="eventUserChangeNick constructor taking only a userId">
<polygon fill="white" stroke="black" points="167,-147 167,-177 337,-177 337,-147 167,-147"/>
<text text-anchor="start" x="175" y="-165" font-family="Helvetica,sans-Serif" font-size="10.00">shared::events::eventUser</text>
<text text-anchor="middle" x="252" y="-154" font-family="Helvetica,sans-Serif" font-size="10.00">ChangeNick::eventUserChangeNick</text>
</a>
</g>
</g>
<!-- Node1&#45;&gt;Node4 -->
<g id="edge3" class="edge"><title>Node1&#45;&gt;Node4</title>
<path fill="none" stroke="midnightblue" d="M132.272,-146.295C143.565,-147.789 155.353,-149.348 166.93,-150.88"/>
<polygon fill="midnightblue" stroke="midnightblue" points="132.433,-142.786 122.06,-144.945 131.515,-149.726 132.433,-142.786"/>
</g>
<!-- Node5 -->
<g id="node5" class="node"><title>Node5</title>
<g id="a_node5"><a xlink:href="../../d3/dcc/classshared_1_1events_1_1event_user_change_status.html#ac46b3eaa016315086bd75441ac1b7122" target="_top" xlink:title="eventUserChangeStatus constructor taking only a userId">
<polygon fill="white" stroke="black" points="158,-98 158,-128 346,-128 346,-98 158,-98"/>
<text text-anchor="start" x="166" y="-116" font-family="Helvetica,sans-Serif" font-size="10.00">shared::events::eventUser</text>
<text text-anchor="middle" x="252" y="-105" font-family="Helvetica,sans-Serif" font-size="10.00">ChangeStatus::eventUserChangeStatus</text>
</a>
</g>
</g>
<!-- Node1&#45;&gt;Node5 -->
<g id="edge4" class="edge"><title>Node1&#45;&gt;Node5</title>
<path fill="none" stroke="midnightblue" d="M132.173,-128.089C140.591,-127.02 149.287,-125.916 157.965,-124.814"/>
<polygon fill="midnightblue" stroke="midnightblue" points="131.54,-124.641 122.06,-129.373 132.422,-131.586 131.54,-124.641"/>
</g>
<!-- Node6 -->
<g id="node6" class="node"><title>Node6</title>
<g id="a_node6"><a xlink:href="../../dd/d05/classshared_1_1events_1_1event_user_join.html#ab486ae25fa5933ec647e5d19574d3f66" target="_top" xlink:title="eventUserJoin constructor taking a userId and a message">
<polygon fill="white" stroke="black" points="188,-49 188,-79 316,-79 316,-49 188,-49"/>
<text text-anchor="start" x="196" y="-67" font-family="Helvetica,sans-Serif" font-size="10.00">shared::events::eventUser</text>
<text text-anchor="middle" x="252" y="-56" font-family="Helvetica,sans-Serif" font-size="10.00">Join::eventUserJoin</text>
</a>
</g>
</g>
<!-- Node1&#45;&gt;Node6 -->
<g id="edge5" class="edge"><title>Node1&#45;&gt;Node6</title>
<path fill="none" stroke="midnightblue" d="M97.5296,-117.089C115.307,-107.686 137.382,-96.8344 158,-89 167.534,-85.3775 177.804,-82.0618 187.919,-79.1125"/>
<polygon fill="midnightblue" stroke="midnightblue" points="95.8122,-114.039 88.6556,-121.851 99.1221,-120.207 95.8122,-114.039"/>
</g>
<!-- Node7 -->
<g id="node7" class="node"><title>Node7</title>
<g id="a_node7"><a xlink:href="../../d9/d9f/classshared_1_1events_1_1event_user_leave.html#a76851237caa9a3624141051a812eece6" target="_top" xlink:title="eventUserLeave constructor taking only a userId">
<polygon fill="white" stroke="black" points="188,-0 188,-30 316,-30 316,-0 188,-0"/>
<text text-anchor="start" x="196" y="-18" font-family="Helvetica,sans-Serif" font-size="10.00">shared::events::eventUser</text>
<text text-anchor="middle" x="252" y="-7" font-family="Helvetica,sans-Serif" font-size="10.00">Leave::eventUserLeave</text>
</a>
</g>
</g>
<!-- Node1&#45;&gt;Node7 -->
<g id="edge6" class="edge"><title>Node1&#45;&gt;Node7</title>
<path fill="none" stroke="midnightblue" d="M79.1979,-113.52C96.6445,-91.364 125.631,-58.8175 158,-40 167.106,-34.7062 177.362,-30.5039 187.652,-27.1765"/>
<polygon fill="midnightblue" stroke="midnightblue" points="76.2003,-111.677 72.8793,-121.738 81.7495,-115.944 76.2003,-111.677"/>
</g>
</g>
</svg>
