<?xml version="1.0" encoding="UTF-8" standalone="no"?>
<!DOCTYPE svg PUBLIC "-//W3C//DTD SVG 1.1//EN"
 "http://www.w3.org/Graphics/SVG/1.1/DTD/svg11.dtd">
<!-- Generated by graphviz version 2.30.1 (20130303.0817)
 -->
<!-- Title: org.kde.necessitas.origo.QtActivity.onStop Pages: 1 -->
<svg width="526pt" height="38pt"
 viewBox="0.00 0.00 526.00 38.00" xmlns="http://www.w3.org/2000/svg" xmlns:xlink="http://www.w3.org/1999/xlink">
<g id="graph0" class="graph" transform="scale(1 1) rotate(0) translate(4 34)">
<title>org.kde.necessitas.origo.QtActivity.onStop</title>
<polygon fill="white" stroke="white" points="-4,5 -4,-34 523,-34 523,5 -4,5"/>
<!-- Node1 -->
<g id="node1" class="node"><title>Node1</title>
<polygon fill="#bfbfbf" stroke="black" points="0,-0 0,-30 126,-30 126,-0 0,-0"/>
<text text-anchor="start" x="8" y="-18" font-family="Helvetica,sans-Serif" font-size="10.00">org.kde.necessitas.origo.</text>
<text text-anchor="middle" x="63" y="-7" font-family="Helvetica,sans-Serif" font-size="10.00">QtActivity.onStop</text>
</g>
<!-- Node2 -->
<g id="node2" class="node"><title>Node2</title>
<g id="a_node2"><a xlink:href="../../d0/da0/classorg_1_1kde_1_1necessitas_1_1origo_1_1_qt_application.xhtml#a9007552e161bf57f2a75125825d4444b" target="_top" xlink:title="org.kde.necessitas.origo.\lQtApplication.invokeDelegate">
<polygon fill="white" stroke="black" points="162.5,-0 162.5,-30 305.5,-30 305.5,-0 162.5,-0"/>
<text text-anchor="start" x="170.5" y="-18" font-family="Helvetica,sans-Serif" font-size="10.00">org.kde.necessitas.origo.</text>
<text text-anchor="middle" x="234" y="-7" font-family="Helvetica,sans-Serif" font-size="10.00">QtApplication.invokeDelegate</text>
</a>
</g>
</g>
<!-- Node1&#45;&gt;Node2 -->
<g id="edge1" class="edge"><title>Node1&#45;&gt;Node2</title>
<path fill="none" stroke="midnightblue" d="M126.449,-15C134.829,-15 143.521,-15 152.161,-15"/>
<polygon fill="midnightblue" stroke="midnightblue" points="152.258,-18.5001 162.258,-15 152.258,-11.5001 152.258,-18.5001"/>
</g>
<!-- Node3 -->
<g id="node3" class="node"><title>Node3</title>
<g id="a_node3"><a xlink:href="../../d0/da0/classorg_1_1kde_1_1necessitas_1_1origo_1_1_qt_application.xhtml#a329e95a39e56530f3745aa0d8e057761" target="_top" xlink:title="org.kde.necessitas.origo.\lQtApplication.invokeDelegateMethod">
<polygon fill="white" stroke="black" points="342,-0 342,-30 518,-30 518,-0 342,-0"/>
<text text-anchor="start" x="350" y="-18" font-family="Helvetica,sans-Serif" font-size="10.00">org.kde.necessitas.origo.</text>
<text text-anchor="middle" x="430" y="-7" font-family="Helvetica,sans-Serif" font-size="10.00">QtApplication.invokeDelegateMethod</text>
</a>
</g>
</g>
<!-- Node2&#45;&gt;Node3 -->
<g id="edge2" class="edge"><title>Node2&#45;&gt;Node3</title>
<path fill="none" stroke="midnightblue" d="M305.587,-15C314.167,-15 323.046,-15 331.925,-15"/>
<polygon fill="midnightblue" stroke="midnightblue" points="331.934,-18.5001 341.934,-15 331.934,-11.5001 331.934,-18.5001"/>
</g>
</g>
</svg>
