<?xml version="1.0" encoding="UTF-8" standalone="no"?>
<!DOCTYPE svg PUBLIC "-//W3C//DTD SVG 1.1//EN"
 "http://www.w3.org/Graphics/SVG/1.1/DTD/svg11.dtd">
<!-- Generated by graphviz version 2.30.1 (20130303.0817)
 -->
<!-- Title: org.kde.necessitas.origo.QtActivity.loadApplication Pages: 1 -->
<svg width="466pt" height="87pt"
 viewBox="0.00 0.00 466.00 87.00" xmlns="http://www.w3.org/2000/svg" xmlns:xlink="http://www.w3.org/1999/xlink">
<g id="graph0" class="graph" transform="scale(1 1) rotate(0) translate(4 83)">
<title>org.kde.necessitas.origo.QtActivity.loadApplication</title>
<polygon fill="white" stroke="white" points="-4,5 -4,-83 463,-83 463,5 -4,5"/>
<!-- Node1 -->
<g id="node1" class="node"><title>Node1</title>
<polygon fill="#bfbfbf" stroke="black" points="0,-24 0,-54 128,-54 128,-24 0,-24"/>
<text text-anchor="start" x="8" y="-42" font-family="Helvetica,sans-Serif" font-size="10.00">org.kde.necessitas.origo.</text>
<text text-anchor="middle" x="64" y="-31" font-family="Helvetica,sans-Serif" font-size="10.00">QtActivity.loadApplication</text>
</g>
<!-- Node2 -->
<g id="node2" class="node"><title>Node2</title>
<g id="a_node2"><a xlink:href="../../db/d37/classorg_1_1kde_1_1necessitas_1_1origo_1_1_qt_activity.html#af3924b311d2966d6c7e48122899d3c35" target="_top" xlink:title="org.kde.necessitas.origo.\lQtActivity.startApp">
<polygon fill="white" stroke="black" points="164,-24 164,-54 290,-54 290,-24 164,-24"/>
<text text-anchor="start" x="172" y="-42" font-family="Helvetica,sans-Serif" font-size="10.00">org.kde.necessitas.origo.</text>
<text text-anchor="middle" x="227" y="-31" font-family="Helvetica,sans-Serif" font-size="10.00">QtActivity.startApp</text>
</a>
</g>
</g>
<!-- Node1&#45;&gt;Node2 -->
<g id="edge1" class="edge"><title>Node1&#45;&gt;Node2</title>
<path fill="none" stroke="midnightblue" d="M138.433,-39C146.912,-39 155.495,-39 163.804,-39"/>
<polygon fill="midnightblue" stroke="midnightblue" points="138.169,-35.5001 128.169,-39 138.169,-42.5001 138.169,-35.5001"/>
</g>
<!-- Node3 -->
<g id="node3" class="node"><title>Node3</title>
<g id="a_node3"><a xlink:href="../../db/d37/classorg_1_1kde_1_1necessitas_1_1origo_1_1_qt_activity.html#a8b40da707524bfa95b2f7f6b69ada582" target="_top" xlink:title="org.kde.necessitas.origo.\lQtActivity.onActivityResult">
<polygon fill="white" stroke="black" points="326.5,-49 326.5,-79 457.5,-79 457.5,-49 326.5,-49"/>
<text text-anchor="start" x="334.5" y="-67" font-family="Helvetica,sans-Serif" font-size="10.00">org.kde.necessitas.origo.</text>
<text text-anchor="middle" x="392" y="-56" font-family="Helvetica,sans-Serif" font-size="10.00">QtActivity.onActivityResult</text>
</a>
</g>
</g>
<!-- Node2&#45;&gt;Node3 -->
<g id="edge2" class="edge"><title>Node2&#45;&gt;Node3</title>
<path fill="none" stroke="midnightblue" d="M300.223,-50.0771C308.933,-51.413 317.786,-52.7708 326.377,-54.0885"/>
<polygon fill="midnightblue" stroke="midnightblue" points="300.503,-46.5793 290.088,-48.5227 299.442,-53.4984 300.503,-46.5793"/>
</g>
<!-- Node4 -->
<g id="node4" class="node"><title>Node4</title>
<g id="a_node4"><a xlink:href="../../db/d37/classorg_1_1kde_1_1necessitas_1_1origo_1_1_qt_activity.html#a1698da7cf3dc0ff8e1180f301e2ef1b0" target="_top" xlink:title="org.kde.necessitas.origo.\lQtActivity.onCreate">
<polygon fill="white" stroke="black" points="329,-0 329,-30 455,-30 455,-0 329,-0"/>
<text text-anchor="start" x="337" y="-18" font-family="Helvetica,sans-Serif" font-size="10.00">org.kde.necessitas.origo.</text>
<text text-anchor="middle" x="392" y="-7" font-family="Helvetica,sans-Serif" font-size="10.00">QtActivity.onCreate</text>
</a>
</g>
</g>
<!-- Node2&#45;&gt;Node4 -->
<g id="edge3" class="edge"><title>Node2&#45;&gt;Node4</title>
<path fill="none" stroke="midnightblue" d="M300.01,-28.3973C309.614,-26.9832 319.397,-25.5428 328.814,-24.1562"/>
<polygon fill="midnightblue" stroke="midnightblue" points="299.472,-24.9387 290.088,-29.8582 300.492,-31.8641 299.472,-24.9387"/>
</g>
</g>
</svg>
