<?xml version="1.0" encoding="UTF-8" standalone="no"?>
<!DOCTYPE svg PUBLIC "-//W3C//DTD SVG 1.1//EN"
 "http://www.w3.org/Graphics/SVG/1.1/DTD/svg11.dtd">
<!-- Generated by graphviz version 2.30.1 (20130303.0817)
 -->
<!-- Title: org.kde.necessitas.origo.QtActivity.onActivityResult Pages: 1 -->
<!--zoomable 109 -->
<svg id="main" version="1.1" xmlns="http://www.w3.org/2000/svg" xmlns:xlink="http://www.w3.org/1999/xlink" xml:space="preserve" onload="init(evt)">
        <defs>
                <circle id="rim" cx="0" cy="0" r="7"/>
                <circle id="rim2" cx="0" cy="0" r="3.5"/>
                <g id="zoomPlus">
                        <use xlink:href="#rim" fill="#404040">
                                <set attributeName="fill" to="#808080" begin="zoomplus.mouseover" end="zoomplus.mouseout"/>
                        </use>
                        <path d="M-4,0h8M0,-4v8" fill="none" stroke="white" stroke-width="1.5" pointer-events="none"/>
                </g>
                <g id="zoomMin">
                        <use xlink:href="#rim" fill="#404040">
                                <set attributeName="fill" to="#808080" begin="zoomminus.mouseover" end="zoomminus.mouseout"/>
                        </use>
                        <path d="M-4,0h8" fill="none" stroke="white" stroke-width="1.5" pointer-events="none"/>
                </g>
                <g id="dirArrow">
                        <path fill="none" stroke="white" stroke-width="1.5" d="M0,-3.0v7 M-2.5,-0.5L0,-3.0L2.5,-0.5"/>
                </g>
               <g id="resetDef">
                       <use xlink:href="#rim2" fill="#404040">
                               <set attributeName="fill" to="#808080" begin="reset.mouseover" end="reset.mouseout"/>
                       </use>
               </g>
        </defs>

<script type="text/javascript">
var viewWidth = 900;
var viewHeight = 109;
var sectionId = 'dynsection-8';
</script>
<script xlink:href="../../svgpan.js"/>
<svg id="graph" class="graph">
<g id="viewport">
<title>org.kde.necessitas.origo.QtActivity.onActivityResult</title>
<polygon fill="white" stroke="white" points="-4,5 -4,-105.314 897,-105.314 897,5 -4,5"/>
<!-- Node1 -->
<g id="node1" class="node"><title>Node1</title>
<polygon fill="#bfbfbf" stroke="black" points="0.5,-46.3138 0.5,-76.3138 131.5,-76.3138 131.5,-46.3138 0.5,-46.3138"/>
<text text-anchor="start" x="8.5" y="-64.3138" font-family="Helvetica,sans-Serif" font-size="10.00">org.kde.necessitas.origo.</text>
<text text-anchor="middle" x="66" y="-53.3138" font-family="Helvetica,sans-Serif" font-size="10.00">QtActivity.onActivityResult</text>
</g>
<!-- Node2 -->
<g id="node2" class="node"><title>Node2</title>
<g id="a_node2"><a xlink:href="../../d0/da0/classorg_1_1kde_1_1necessitas_1_1origo_1_1_qt_application.html#a329e95a39e56530f3745aa0d8e057761" target="_top" xlink:title="org.kde.necessitas.origo.\lQtApplication.invokeDelegateMethod">
<polygon fill="white" stroke="black" points="168,-71.3138 168,-101.314 344,-101.314 344,-71.3138 168,-71.3138"/>
<text text-anchor="start" x="176" y="-89.3138" font-family="Helvetica,sans-Serif" font-size="10.00">org.kde.necessitas.origo.</text>
<text text-anchor="middle" x="256" y="-78.3138" font-family="Helvetica,sans-Serif" font-size="10.00">QtApplication.invokeDelegateMethod</text>
</a>
</g>
</g>
<!-- Node1&#45;&gt;Node2 -->
<g id="edge1" class="edge"><title>Node1&#45;&gt;Node2</title>
<path fill="none" stroke="midnightblue" d="M131.699,-69.9173C140.188,-71.0462 149.031,-72.2221 157.911,-73.403"/>
<polygon fill="midnightblue" stroke="midnightblue" points="157.561,-76.8872 167.935,-74.736 158.484,-69.9483 157.561,-76.8872"/>
</g>
<!-- Node3 -->
<g id="node3" class="node"><title>Node3</title>
<g id="a_node3"><a xlink:href="../../db/d37/classorg_1_1kde_1_1necessitas_1_1origo_1_1_qt_activity.html#af3924b311d2966d6c7e48122899d3c35" target="_top" xlink:title="org.kde.necessitas.origo.\lQtActivity.startApp">
<polygon fill="white" stroke="black" points="193,-22.3138 193,-52.3138 319,-52.3138 319,-22.3138 193,-22.3138"/>
<text text-anchor="start" x="201" y="-40.3138" font-family="Helvetica,sans-Serif" font-size="10.00">org.kde.necessitas.origo.</text>
<text text-anchor="middle" x="256" y="-29.3138" font-family="Helvetica,sans-Serif" font-size="10.00">QtActivity.startApp</text>
</a>
</g>
</g>
<!-- Node1&#45;&gt;Node3 -->
<g id="edge2" class="edge"><title>Node1&#45;&gt;Node3</title>
<path fill="none" stroke="midnightblue" d="M131.699,-53.0543C148.059,-50.9658 165.735,-48.7093 182.455,-46.5749"/>
<polygon fill="midnightblue" stroke="midnightblue" points="183.245,-50.0025 192.721,-45.2643 182.358,-43.0589 183.245,-50.0025"/>
</g>
<!-- Node4 -->
<g id="node4" class="node"><title>Node4</title>
<g id="a_node4"><a xlink:href="../../db/d37/classorg_1_1kde_1_1necessitas_1_1origo_1_1_qt_activity.html#a6efdacbcdcd7cea2d7a3785d7300e9ab" target="_top" xlink:title="org.kde.necessitas.origo.\lQtActivity.loadApplication">
<polygon fill="white" stroke="black" points="380,-22.3138 380,-52.3138 508,-52.3138 508,-22.3138 380,-22.3138"/>
<text text-anchor="start" x="388" y="-40.3138" font-family="Helvetica,sans-Serif" font-size="10.00">org.kde.necessitas.origo.</text>
<text text-anchor="middle" x="444" y="-29.3138" font-family="Helvetica,sans-Serif" font-size="10.00">QtActivity.loadApplication</text>
</a>
</g>
</g>
<!-- Node3&#45;&gt;Node4 -->
<g id="edge3" class="edge"><title>Node3&#45;&gt;Node4</title>
<path fill="none" stroke="midnightblue" d="M319.194,-37.3138C335.373,-37.3138 352.955,-37.3138 369.652,-37.3138"/>
<polygon fill="midnightblue" stroke="midnightblue" points="369.913,-40.8139 379.913,-37.3138 369.913,-33.8139 369.913,-40.8139"/>
</g>
<!-- Node5 -->
<g id="node5" class="node"><title>Node5</title>
<g id="a_node5"><a xlink:href="../../db/d37/classorg_1_1kde_1_1necessitas_1_1origo_1_1_qt_activity.html#a03bce0e522e5d949a99f65ccf30916bf" target="_top" xlink:title="org.kde.necessitas.origo.\lQtActivity.downloadUpgradeMinistro">
<polygon fill="white" stroke="black" points="544.5,-70.3138 544.5,-100.314 717.5,-100.314 717.5,-70.3138 544.5,-70.3138"/>
<text text-anchor="start" x="552.5" y="-88.3138" font-family="Helvetica,sans-Serif" font-size="10.00">org.kde.necessitas.origo.</text>
<text text-anchor="middle" x="631" y="-77.3138" font-family="Helvetica,sans-Serif" font-size="10.00">QtActivity.downloadUpgradeMinistro</text>
</a>
</g>
</g>
<!-- Node3&#45;&gt;Node5 -->
<g id="edge7" class="edge"><title>Node3&#45;&gt;Node5</title>
<path fill="none" stroke="midnightblue" d="M319.057,-50.6389C338.502,-54.4862 360.084,-58.4217 380,-61.3138 430.753,-68.6836 487.642,-74.3476 534.316,-78.3175"/>
<polygon fill="midnightblue" stroke="midnightblue" points="534.162,-81.8167 544.419,-79.164 534.746,-74.8411 534.162,-81.8167"/>
</g>
<!-- Node6 -->
<g id="node6" class="node"><title>Node6</title>
<g id="a_node6"><a xlink:href="../../db/d37/classorg_1_1kde_1_1necessitas_1_1origo_1_1_qt_activity.html#a7fe5f4438970743566e67e12335d472f" target="_top" xlink:title="org.kde.necessitas.origo.\lQtActivity.ministroNotFound">
<polygon fill="white" stroke="black" points="754,-23.3138 754,-53.3138 892,-53.3138 892,-23.3138 754,-23.3138"/>
<text text-anchor="start" x="762" y="-41.3138" font-family="Helvetica,sans-Serif" font-size="10.00">org.kde.necessitas.origo.</text>
<text text-anchor="middle" x="823" y="-30.3138" font-family="Helvetica,sans-Serif" font-size="10.00">QtActivity.ministroNotFound</text>
</a>
</g>
</g>
<!-- Node3&#45;&gt;Node6 -->
<g id="edge8" class="edge"><title>Node3&#45;&gt;Node6</title>
<path fill="none" stroke="midnightblue" d="M319.239,-22.8303C338.595,-18.9584 360.082,-15.3001 380,-13.3138 529.481,1.59368 568.903,6.04095 718,-12.3138 732.633,-14.1152 748.169,-17.2914 762.647,-20.8191"/>
<polygon fill="midnightblue" stroke="midnightblue" points="761.925,-24.2465 772.477,-23.3049 763.641,-17.4601 761.925,-24.2465"/>
</g>
<!-- Node4&#45;&gt;Node5 -->
<g id="edge4" class="edge"><title>Node4&#45;&gt;Node5</title>
<path fill="none" stroke="midnightblue" d="M503.028,-52.3696C521.883,-57.2617 542.968,-62.7325 562.456,-67.7889"/>
<polygon fill="midnightblue" stroke="midnightblue" points="561.62,-71.1877 572.178,-70.3114 563.378,-64.4121 561.62,-71.1877"/>
</g>
<!-- Node7 -->
<g id="node7" class="node"><title>Node7</title>
<g id="a_node7"><a xlink:href="../../d0/da0/classorg_1_1kde_1_1necessitas_1_1origo_1_1_qt_application.html#afea43576f6f8633639f721ce8bff907e" target="_top" xlink:title="org.kde.necessitas.origo.\lQtApplication.setQtActivityDelegate">
<polygon fill="white" stroke="black" points="545,-21.3138 545,-51.3138 717,-51.3138 717,-21.3138 545,-21.3138"/>
<text text-anchor="start" x="553" y="-39.3138" font-family="Helvetica,sans-Serif" font-size="10.00">org.kde.necessitas.origo.</text>
<text text-anchor="middle" x="631" y="-28.3138" font-family="Helvetica,sans-Serif" font-size="10.00">QtApplication.setQtActivityDelegate</text>
</a>
</g>
</g>
<!-- Node4&#45;&gt;Node7 -->
<g id="edge6" class="edge"><title>Node4&#45;&gt;Node7</title>
<path fill="none" stroke="midnightblue" d="M508.149,-36.9724C516.743,-36.926 525.714,-36.8775 534.72,-36.8288"/>
<polygon fill="midnightblue" stroke="midnightblue" points="534.904,-40.3279 544.885,-36.7738 534.866,-33.3281 534.904,-40.3279"/>
</g>
<!-- Node5&#45;&gt;Node6 -->
<g id="edge5" class="edge"><title>Node5&#45;&gt;Node6</title>
<path fill="none" stroke="midnightblue" d="M692.64,-70.3135C711.321,-65.6923 732.051,-60.5643 751.345,-55.7916"/>
<polygon fill="midnightblue" stroke="midnightblue" points="752.418,-59.1318 761.285,-53.3328 750.737,-52.3366 752.418,-59.1318"/>
</g>
</g>
</svg>
        <g id="navigator" transform="translate(0 0)" fill="#404254">
                <rect fill="#f2f5e9" fill-opacity="0.5" stroke="#606060" stroke-width=".5" x="0" y="0" width="60" height="60"/>
                <use id="zoomplus" xlink:href="#zoomPlus" x="17" y="9" onmousedown="handleZoom(evt,'in')"/>
                <use id="zoomminus" xlink:href="#zoomMin" x="42" y="9" onmousedown="handleZoom(evt,'out')"/>
                <use id="reset" xlink:href="#resetDef" x="30" y="36" onmousedown="handleReset()"/>
                <g id="arrowUp" xlink:href="#dirArrow" transform="translate(30 24)" onmousedown="handlePan(0,-1)">
                  <use xlink:href="#rim" fill="#404040">
                        <set attributeName="fill" to="#808080" begin="arrowUp.mouseover" end="arrowUp.mouseout"/>
                  </use>
                  <path fill="none" stroke="white" stroke-width="1.5" d="M0,-3.0v7 M-2.5,-0.5L0,-3.0L2.5,-0.5"/>
                </g>
                <g id="arrowRight" xlink:href="#dirArrow" transform="rotate(90) translate(36 -43)" onmousedown="handlePan(1,0)">
                  <use xlink:href="#rim" fill="#404040">
                        <set attributeName="fill" to="#808080" begin="arrowRight.mouseover" end="arrowRight.mouseout"/>
                  </use>
                  <path fill="none" stroke="white" stroke-width="1.5" d="M0,-3.0v7 M-2.5,-0.5L0,-3.0L2.5,-0.5"/>
                </g>
                <g id="arrowDown" xlink:href="#dirArrow" transform="rotate(180) translate(-30 -48)" onmousedown="handlePan(0,1)">
                  <use xlink:href="#rim" fill="#404040">
                        <set attributeName="fill" to="#808080" begin="arrowDown.mouseover" end="arrowDown.mouseout"/>
                  </use>
                  <path fill="none" stroke="white" stroke-width="1.5" d="M0,-3.0v7 M-2.5,-0.5L0,-3.0L2.5,-0.5"/>
                </g>
                <g id="arrowLeft" xlink:href="#dirArrow" transform="rotate(270) translate(-36 17)" onmousedown="handlePan(-1,0)">
                  <use xlink:href="#rim" fill="#404040">
                        <set attributeName="fill" to="#808080" begin="arrowLeft.mouseover" end="arrowLeft.mouseout"/>
                  </use>
                  <path fill="none" stroke="white" stroke-width="1.5" d="M0,-3.0v7 M-2.5,-0.5L0,-3.0L2.5,-0.5"/>
                </g>
        </g>
        <svg viewBox="0 0 15 15" width="100%" height="30px" preserveAspectRatio="xMaxYMin meet">
         <g id="arrow_out" transform="scale(0.3 0.3)">
          <a xlink:href="classorg_1_1kde_1_1necessitas_1_1origo_1_1_qt_activity_a8b40da707524bfa95b2f7f6b69ada582_cgraph_org.svg" target="_base">
           <rect id="button" ry="5" rx="5" y="6" x="6" height="38" width="38"
                fill="#f2f5e9" fill-opacity="0.5" stroke="#606060" stroke-width="1.0"/>
           <path id="arrow"
             d="M 11.500037,31.436501 C 11.940474,20.09759 22.043105,11.32322 32.158766,21.979434 L 37.068811,17.246167 C 37.068811,17.246167 37.088388,32 37.088388,32 L 22.160133,31.978069 C 22.160133,31.978069 26.997745,27.140456 26.997745,27.140456 C 18.528582,18.264221 13.291696,25.230495 11.500037,31.436501 z"
             style="fill:#404040;"/>
          </a>
         </g>
        </svg>
</svg>
