<?xml version="1.0" encoding="UTF-8" standalone="no"?>
<!DOCTYPE svg PUBLIC "-//W3C//DTD SVG 1.1//EN"
 "http://www.w3.org/Graphics/SVG/1.1/DTD/svg11.dtd">
<!-- Generated by graphviz version 2.30.1 (20130303.0817)
 -->
<!-- Title: org.kde.necessitas.origo.QtActivity.startApp Pages: 1 -->
<svg width="682pt" height="109pt"
 viewBox="0.00 0.00 682.00 109.42" xmlns="http://www.w3.org/2000/svg" xmlns:xlink="http://www.w3.org/1999/xlink">
<g id="graph0" class="graph" transform="scale(1 1) rotate(0) translate(4 105.421)">
<title>org.kde.necessitas.origo.QtActivity.startApp</title>
<polygon fill="white" stroke="white" points="-4,5 -4,-105.421 679,-105.421 679,5 -4,5"/>
<!-- Node1 -->
<g id="node1" class="node"><title>Node1</title>
<polygon fill="#bfbfbf" stroke="black" points="0,-23.4211 0,-53.4211 126,-53.4211 126,-23.4211 0,-23.4211"/>
<text text-anchor="start" x="8" y="-41.4211" font-family="Helvetica,sans-Serif" font-size="10.00">org.kde.necessitas.origo.</text>
<text text-anchor="middle" x="63" y="-30.4211" font-family="Helvetica,sans-Serif" font-size="10.00">QtActivity.startApp</text>
</g>
<!-- Node2 -->
<g id="node2" class="node"><title>Node2</title>
<g id="a_node2"><a xlink:href="../../db/d37/classorg_1_1kde_1_1necessitas_1_1origo_1_1_qt_activity.xhtml#a6efdacbcdcd7cea2d7a3785d7300e9ab" target="_top" xlink:title="org.kde.necessitas.origo.\lQtActivity.loadApplication">
<polygon fill="white" stroke="black" points="162,-23.4211 162,-53.4211 290,-53.4211 290,-23.4211 162,-23.4211"/>
<text text-anchor="start" x="170" y="-41.4211" font-family="Helvetica,sans-Serif" font-size="10.00">org.kde.necessitas.origo.</text>
<text text-anchor="middle" x="226" y="-30.4211" font-family="Helvetica,sans-Serif" font-size="10.00">QtActivity.loadApplication</text>
</a>
</g>
</g>
<!-- Node1&#45;&gt;Node2 -->
<g id="edge1" class="edge"><title>Node1&#45;&gt;Node2</title>
<path fill="none" stroke="midnightblue" d="M126.247,-38.4211C134.551,-38.4211 143.128,-38.4211 151.6,-38.4211"/>
<polygon fill="midnightblue" stroke="midnightblue" points="151.856,-41.9212 161.856,-38.4211 151.856,-34.9212 151.856,-41.9212"/>
</g>
<!-- Node3 -->
<g id="node3" class="node"><title>Node3</title>
<g id="a_node3"><a xlink:href="../../db/d37/classorg_1_1kde_1_1necessitas_1_1origo_1_1_qt_activity.xhtml#a03bce0e522e5d949a99f65ccf30916bf" target="_top" xlink:title="org.kde.necessitas.origo.\lQtActivity.downloadUpgradeMinistro">
<polygon fill="white" stroke="black" points="326.5,-71.4211 326.5,-101.421 499.5,-101.421 499.5,-71.4211 326.5,-71.4211"/>
<text text-anchor="start" x="334.5" y="-89.4211" font-family="Helvetica,sans-Serif" font-size="10.00">org.kde.necessitas.origo.</text>
<text text-anchor="middle" x="413" y="-78.4211" font-family="Helvetica,sans-Serif" font-size="10.00">QtActivity.downloadUpgradeMinistro</text>
</a>
</g>
</g>
<!-- Node1&#45;&gt;Node3 -->
<g id="edge5" class="edge"><title>Node1&#45;&gt;Node3</title>
<path fill="none" stroke="midnightblue" d="M119.422,-53.471C133.248,-56.8163 148.097,-60.0641 162,-62.4211 212.563,-70.9934 269.438,-76.7549 316.15,-80.4788"/>
<polygon fill="midnightblue" stroke="midnightblue" points="316.021,-83.9793 326.262,-81.266 316.564,-77.0004 316.021,-83.9793"/>
</g>
<!-- Node4 -->
<g id="node4" class="node"><title>Node4</title>
<g id="a_node4"><a xlink:href="../../db/d37/classorg_1_1kde_1_1necessitas_1_1origo_1_1_qt_activity.xhtml#a7fe5f4438970743566e67e12335d472f" target="_top" xlink:title="org.kde.necessitas.origo.\lQtActivity.ministroNotFound">
<polygon fill="white" stroke="black" points="536,-24.4211 536,-54.4211 674,-54.4211 674,-24.4211 536,-24.4211"/>
<text text-anchor="start" x="544" y="-42.4211" font-family="Helvetica,sans-Serif" font-size="10.00">org.kde.necessitas.origo.</text>
<text text-anchor="middle" x="605" y="-31.4211" font-family="Helvetica,sans-Serif" font-size="10.00">QtActivity.ministroNotFound</text>
</a>
</g>
</g>
<!-- Node1&#45;&gt;Node4 -->
<g id="edge6" class="edge"><title>Node1&#45;&gt;Node4</title>
<path fill="none" stroke="midnightblue" d="M115.71,-23.3625C130.527,-19.7031 146.789,-16.3036 162,-14.4211 311.085,4.02978 350.903,4.93363 500,-13.4211 514.633,-15.2225 530.169,-18.3987 544.647,-21.9264"/>
<polygon fill="midnightblue" stroke="midnightblue" points="543.925,-25.3538 554.477,-24.4123 545.641,-18.5675 543.925,-25.3538"/>
</g>
<!-- Node2&#45;&gt;Node3 -->
<g id="edge2" class="edge"><title>Node2&#45;&gt;Node3</title>
<path fill="none" stroke="midnightblue" d="M285.028,-53.4769C303.883,-58.3691 324.968,-63.8398 344.456,-68.8962"/>
<polygon fill="midnightblue" stroke="midnightblue" points="343.62,-72.295 354.178,-71.4187 345.378,-65.5194 343.62,-72.295"/>
</g>
<!-- Node5 -->
<g id="node5" class="node"><title>Node5</title>
<g id="a_node5"><a xlink:href="../../d0/da0/classorg_1_1kde_1_1necessitas_1_1origo_1_1_qt_application.xhtml#afea43576f6f8633639f721ce8bff907e" target="_top" xlink:title="org.kde.necessitas.origo.\lQtApplication.setQtActivityDelegate">
<polygon fill="white" stroke="black" points="327,-22.4211 327,-52.4211 499,-52.4211 499,-22.4211 327,-22.4211"/>
<text text-anchor="start" x="335" y="-40.4211" font-family="Helvetica,sans-Serif" font-size="10.00">org.kde.necessitas.origo.</text>
<text text-anchor="middle" x="413" y="-29.4211" font-family="Helvetica,sans-Serif" font-size="10.00">QtApplication.setQtActivityDelegate</text>
</a>
</g>
</g>
<!-- Node2&#45;&gt;Node5 -->
<g id="edge4" class="edge"><title>Node2&#45;&gt;Node5</title>
<path fill="none" stroke="midnightblue" d="M290.149,-38.0797C298.743,-38.0333 307.714,-37.9848 316.72,-37.9361"/>
<polygon fill="midnightblue" stroke="midnightblue" points="316.904,-41.4353 326.885,-37.8812 316.866,-34.4354 316.904,-41.4353"/>
</g>
<!-- Node3&#45;&gt;Node4 -->
<g id="edge3" class="edge"><title>Node3&#45;&gt;Node4</title>
<path fill="none" stroke="midnightblue" d="M474.64,-71.4208C493.321,-66.7996 514.051,-61.6716 533.345,-56.8989"/>
<polygon fill="midnightblue" stroke="midnightblue" points="534.418,-60.2391 543.285,-54.4401 532.737,-53.4439 534.418,-60.2391"/>
</g>
</g>
</svg>
