<?xml version="1.0" encoding="UTF-8" standalone="no"?>
<!DOCTYPE svg PUBLIC "-//W3C//DTD SVG 1.1//EN"
 "http://www.w3.org/Graphics/SVG/1.1/DTD/svg11.dtd">
<!-- Generated by graphviz version 2.30.1 (20130303.0817)
 -->
<!-- Title: org.kde.necessitas.origo.QtActivity.onCreate Pages: 1 -->
<svg width="894pt" height="109pt"
 viewBox="0.00 0.00 894.00 109.31" xmlns="http://www.w3.org/2000/svg" xmlns:xlink="http://www.w3.org/1999/xlink">
<g id="graph0" class="graph" transform="scale(1 1) rotate(0) translate(4 105.314)">
<title>org.kde.necessitas.origo.QtActivity.onCreate</title>
<polygon fill="white" stroke="white" points="-4,5 -4,-105.314 891,-105.314 891,5 -4,5"/>
<!-- Node1 -->
<g id="node1" class="node"><title>Node1</title>
<polygon fill="#bfbfbf" stroke="black" points="0,-46.3138 0,-76.3138 126,-76.3138 126,-46.3138 0,-46.3138"/>
<text text-anchor="start" x="8" y="-64.3138" font-family="Helvetica,sans-Serif" font-size="10.00">org.kde.necessitas.origo.</text>
<text text-anchor="middle" x="63" y="-53.3138" font-family="Helvetica,sans-Serif" font-size="10.00">QtActivity.onCreate</text>
</g>
<!-- Node2 -->
<g id="node2" class="node"><title>Node2</title>
<g id="a_node2"><a xlink:href="../../d0/da0/classorg_1_1kde_1_1necessitas_1_1origo_1_1_qt_application.html#a329e95a39e56530f3745aa0d8e057761" target="_top" xlink:title="org.kde.necessitas.origo.\lQtApplication.invokeDelegateMethod">
<polygon fill="white" stroke="black" points="162,-71.3138 162,-101.314 338,-101.314 338,-71.3138 162,-71.3138"/>
<text text-anchor="start" x="170" y="-89.3138" font-family="Helvetica,sans-Serif" font-size="10.00">org.kde.necessitas.origo.</text>
<text text-anchor="middle" x="250" y="-78.3138" font-family="Helvetica,sans-Serif" font-size="10.00">QtApplication.invokeDelegateMethod</text>
</a>
</g>
</g>
<!-- Node1&#45;&gt;Node2 -->
<g id="edge1" class="edge"><title>Node1&#45;&gt;Node2</title>
<path fill="none" stroke="midnightblue" d="M126.117,-69.708C134.341,-70.8193 142.925,-71.9793 151.567,-73.1471"/>
<polygon fill="midnightblue" stroke="midnightblue" points="151.341,-76.6483 161.72,-74.5191 152.278,-69.7114 151.341,-76.6483"/>
</g>
<!-- Node3 -->
<g id="node3" class="node"><title>Node3</title>
<g id="a_node3"><a xlink:href="../../db/d37/classorg_1_1kde_1_1necessitas_1_1origo_1_1_qt_activity.html#af3924b311d2966d6c7e48122899d3c35" target="_top" xlink:title="org.kde.necessitas.origo.\lQtActivity.startApp">
<polygon fill="white" stroke="black" points="187,-22.3138 187,-52.3138 313,-52.3138 313,-22.3138 187,-22.3138"/>
<text text-anchor="start" x="195" y="-40.3138" font-family="Helvetica,sans-Serif" font-size="10.00">org.kde.necessitas.origo.</text>
<text text-anchor="middle" x="250" y="-29.3138" font-family="Helvetica,sans-Serif" font-size="10.00">QtActivity.startApp</text>
</a>
</g>
</g>
<!-- Node1&#45;&gt;Node3 -->
<g id="edge2" class="edge"><title>Node1&#45;&gt;Node3</title>
<path fill="none" stroke="midnightblue" d="M126.117,-53.2553C142.286,-51.1578 159.847,-48.8795 176.501,-46.7191"/>
<polygon fill="midnightblue" stroke="midnightblue" points="177.265,-50.1493 186.732,-45.3918 176.365,-43.2075 177.265,-50.1493"/>
</g>
<!-- Node4 -->
<g id="node4" class="node"><title>Node4</title>
<g id="a_node4"><a xlink:href="../../db/d37/classorg_1_1kde_1_1necessitas_1_1origo_1_1_qt_activity.html#a6efdacbcdcd7cea2d7a3785d7300e9ab" target="_top" xlink:title="org.kde.necessitas.origo.\lQtActivity.loadApplication">
<polygon fill="white" stroke="black" points="374,-22.3138 374,-52.3138 502,-52.3138 502,-22.3138 374,-22.3138"/>
<text text-anchor="start" x="382" y="-40.3138" font-family="Helvetica,sans-Serif" font-size="10.00">org.kde.necessitas.origo.</text>
<text text-anchor="middle" x="438" y="-29.3138" font-family="Helvetica,sans-Serif" font-size="10.00">QtActivity.loadApplication</text>
</a>
</g>
</g>
<!-- Node3&#45;&gt;Node4 -->
<g id="edge3" class="edge"><title>Node3&#45;&gt;Node4</title>
<path fill="none" stroke="midnightblue" d="M313.194,-37.3138C329.373,-37.3138 346.955,-37.3138 363.652,-37.3138"/>
<polygon fill="midnightblue" stroke="midnightblue" points="363.913,-40.8139 373.913,-37.3138 363.913,-33.8139 363.913,-40.8139"/>
</g>
<!-- Node5 -->
<g id="node5" class="node"><title>Node5</title>
<g id="a_node5"><a xlink:href="../../db/d37/classorg_1_1kde_1_1necessitas_1_1origo_1_1_qt_activity.html#a03bce0e522e5d949a99f65ccf30916bf" target="_top" xlink:title="org.kde.necessitas.origo.\lQtActivity.downloadUpgradeMinistro">
<polygon fill="white" stroke="black" points="538.5,-70.3138 538.5,-100.314 711.5,-100.314 711.5,-70.3138 538.5,-70.3138"/>
<text text-anchor="start" x="546.5" y="-88.3138" font-family="Helvetica,sans-Serif" font-size="10.00">org.kde.necessitas.origo.</text>
<text text-anchor="middle" x="625" y="-77.3138" font-family="Helvetica,sans-Serif" font-size="10.00">QtActivity.downloadUpgradeMinistro</text>
</a>
</g>
</g>
<!-- Node3&#45;&gt;Node5 -->
<g id="edge7" class="edge"><title>Node3&#45;&gt;Node5</title>
<path fill="none" stroke="midnightblue" d="M313.057,-50.6389C332.502,-54.4862 354.084,-58.4217 374,-61.3138 424.753,-68.6836 481.642,-74.3476 528.316,-78.3175"/>
<polygon fill="midnightblue" stroke="midnightblue" points="528.162,-81.8167 538.419,-79.164 528.746,-74.8411 528.162,-81.8167"/>
</g>
<!-- Node6 -->
<g id="node6" class="node"><title>Node6</title>
<g id="a_node6"><a xlink:href="../../db/d37/classorg_1_1kde_1_1necessitas_1_1origo_1_1_qt_activity.html#a7fe5f4438970743566e67e12335d472f" target="_top" xlink:title="org.kde.necessitas.origo.\lQtActivity.ministroNotFound">
<polygon fill="white" stroke="black" points="748,-23.3138 748,-53.3138 886,-53.3138 886,-23.3138 748,-23.3138"/>
<text text-anchor="start" x="756" y="-41.3138" font-family="Helvetica,sans-Serif" font-size="10.00">org.kde.necessitas.origo.</text>
<text text-anchor="middle" x="817" y="-30.3138" font-family="Helvetica,sans-Serif" font-size="10.00">QtActivity.ministroNotFound</text>
</a>
</g>
</g>
<!-- Node3&#45;&gt;Node6 -->
<g id="edge8" class="edge"><title>Node3&#45;&gt;Node6</title>
<path fill="none" stroke="midnightblue" d="M313.239,-22.8303C332.595,-18.9584 354.082,-15.3001 374,-13.3138 523.481,1.59368 562.903,6.04095 712,-12.3138 726.633,-14.1152 742.169,-17.2914 756.647,-20.8191"/>
<polygon fill="midnightblue" stroke="midnightblue" points="755.925,-24.2465 766.477,-23.3049 757.641,-17.4601 755.925,-24.2465"/>
</g>
<!-- Node4&#45;&gt;Node5 -->
<g id="edge4" class="edge"><title>Node4&#45;&gt;Node5</title>
<path fill="none" stroke="midnightblue" d="M497.028,-52.3696C515.883,-57.2617 536.968,-62.7325 556.456,-67.7889"/>
<polygon fill="midnightblue" stroke="midnightblue" points="555.62,-71.1877 566.178,-70.3114 557.378,-64.4121 555.62,-71.1877"/>
</g>
<!-- Node7 -->
<g id="node7" class="node"><title>Node7</title>
<g id="a_node7"><a xlink:href="../../d0/da0/classorg_1_1kde_1_1necessitas_1_1origo_1_1_qt_application.html#afea43576f6f8633639f721ce8bff907e" target="_top" xlink:title="org.kde.necessitas.origo.\lQtApplication.setQtActivityDelegate">
<polygon fill="white" stroke="black" points="539,-21.3138 539,-51.3138 711,-51.3138 711,-21.3138 539,-21.3138"/>
<text text-anchor="start" x="547" y="-39.3138" font-family="Helvetica,sans-Serif" font-size="10.00">org.kde.necessitas.origo.</text>
<text text-anchor="middle" x="625" y="-28.3138" font-family="Helvetica,sans-Serif" font-size="10.00">QtApplication.setQtActivityDelegate</text>
</a>
</g>
</g>
<!-- Node4&#45;&gt;Node7 -->
<g id="edge6" class="edge"><title>Node4&#45;&gt;Node7</title>
<path fill="none" stroke="midnightblue" d="M502.149,-36.9724C510.743,-36.926 519.714,-36.8775 528.72,-36.8288"/>
<polygon fill="midnightblue" stroke="midnightblue" points="528.904,-40.3279 538.885,-36.7738 528.866,-33.3281 528.904,-40.3279"/>
</g>
<!-- Node5&#45;&gt;Node6 -->
<g id="edge5" class="edge"><title>Node5&#45;&gt;Node6</title>
<path fill="none" stroke="midnightblue" d="M686.64,-70.3135C705.321,-65.6923 726.051,-60.5643 745.345,-55.7916"/>
<polygon fill="midnightblue" stroke="midnightblue" points="746.418,-59.1318 755.285,-53.3328 744.737,-52.3366 746.418,-59.1318"/>
</g>
</g>
</svg>
