<?xml version="1.0" encoding="UTF-8" standalone="no"?>
<!DOCTYPE svg PUBLIC "-//W3C//DTD SVG 1.1//EN"
 "http://www.w3.org/Graphics/SVG/1.1/DTD/svg11.dtd">
<!-- Generated by graphviz version 2.30.1 (20130303.0817)
 -->
<!-- Title: org.kde.necessitas.origo.QtActivity.downloadUpgradeMinistro Pages: 1 -->
<svg width="356pt" height="38pt"
 viewBox="0.00 0.00 356.00 38.00" xmlns="http://www.w3.org/2000/svg" xmlns:xlink="http://www.w3.org/1999/xlink">
<g id="graph0" class="graph" transform="scale(1 1) rotate(0) translate(4 34)">
<title>org.kde.necessitas.origo.QtActivity.downloadUpgradeMinistro</title>
<polygon fill="white" stroke="white" points="-4,5 -4,-34 353,-34 353,5 -4,5"/>
<!-- Node1 -->
<g id="node1" class="node"><title>Node1</title>
<polygon fill="#bfbfbf" stroke="black" points="0.5,-0 0.5,-30 173.5,-30 173.5,-0 0.5,-0"/>
<text text-anchor="start" x="8.5" y="-18" font-family="Helvetica,sans-Serif" font-size="10.00">org.kde.necessitas.origo.</text>
<text text-anchor="middle" x="87" y="-7" font-family="Helvetica,sans-Serif" font-size="10.00">QtActivity.downloadUpgradeMinistro</text>
</g>
<!-- Node2 -->
<g id="node2" class="node"><title>Node2</title>
<g id="a_node2"><a xlink:href="../../db/d37/classorg_1_1kde_1_1necessitas_1_1origo_1_1_qt_activity.html#a7fe5f4438970743566e67e12335d472f" target="_top" xlink:title="org.kde.necessitas.origo.\lQtActivity.ministroNotFound">
<polygon fill="white" stroke="black" points="210,-0 210,-30 348,-30 348,-0 210,-0"/>
<text text-anchor="start" x="218" y="-18" font-family="Helvetica,sans-Serif" font-size="10.00">org.kde.necessitas.origo.</text>
<text text-anchor="middle" x="279" y="-7" font-family="Helvetica,sans-Serif" font-size="10.00">QtActivity.ministroNotFound</text>
</a>
</g>
</g>
<!-- Node1&#45;&gt;Node2 -->
<g id="edge1" class="edge"><title>Node1&#45;&gt;Node2</title>
<path fill="none" stroke="midnightblue" d="M173.551,-15C182.259,-15 191.074,-15 199.699,-15"/>
<polygon fill="midnightblue" stroke="midnightblue" points="199.719,-18.5001 209.719,-15 199.719,-11.5001 199.719,-18.5001"/>
</g>
</g>
</svg>
