<?xml version="1.0" encoding="UTF-8" standalone="no"?>
<!DOCTYPE svg PUBLIC "-//W3C//DTD SVG 1.1//EN"
 "http://www.w3.org/Graphics/SVG/1.1/DTD/svg11.dtd">
<!-- Generated by graphviz version 2.30.1 (20130303.0817)
 -->
<!-- Title: org.kde.necessitas.origo.QtActivity.ministroNotFound Pages: 1 -->
<svg width="850pt" height="106pt"
 viewBox="0.00 0.00 850.00 106.00" xmlns="http://www.w3.org/2000/svg" xmlns:xlink="http://www.w3.org/1999/xlink">
<g id="graph0" class="graph" transform="scale(1 1) rotate(0) translate(4 102)">
<title>org.kde.necessitas.origo.QtActivity.ministroNotFound</title>
<polygon fill="white" stroke="white" points="-4,5 -4,-102 847,-102 847,5 -4,5"/>
<!-- Node1 -->
<g id="node1" class="node"><title>Node1</title>
<polygon fill="#bfbfbf" stroke="black" points="0,-8 0,-38 138,-38 138,-8 0,-8"/>
<text text-anchor="start" x="8" y="-26" font-family="Helvetica,sans-Serif" font-size="10.00">org.kde.necessitas.origo.</text>
<text text-anchor="middle" x="69" y="-15" font-family="Helvetica,sans-Serif" font-size="10.00">QtActivity.ministroNotFound</text>
</g>
<!-- Node2 -->
<g id="node2" class="node"><title>Node2</title>
<g id="a_node2"><a xlink:href="../../db/d37/classorg_1_1kde_1_1necessitas_1_1origo_1_1_qt_activity.html#a03bce0e522e5d949a99f65ccf30916bf" target="_top" xlink:title="org.kde.necessitas.origo.\lQtActivity.downloadUpgradeMinistro">
<polygon fill="white" stroke="black" points="174.5,-30 174.5,-60 347.5,-60 347.5,-30 174.5,-30"/>
<text text-anchor="start" x="182.5" y="-48" font-family="Helvetica,sans-Serif" font-size="10.00">org.kde.necessitas.origo.</text>
<text text-anchor="middle" x="261" y="-37" font-family="Helvetica,sans-Serif" font-size="10.00">QtActivity.downloadUpgradeMinistro</text>
</a>
</g>
</g>
<!-- Node1&#45;&gt;Node2 -->
<g id="edge1" class="edge"><title>Node1&#45;&gt;Node2</title>
<path fill="none" stroke="midnightblue" d="M148.064,-32.039C156.678,-33.0364 165.485,-34.0561 174.187,-35.0638"/>
<polygon fill="midnightblue" stroke="midnightblue" points="148.394,-28.5539 138.058,-30.8804 147.589,-35.5074 148.394,-28.5539"/>
</g>
<!-- Node4 -->
<g id="node4" class="node"><title>Node4</title>
<g id="a_node4"><a xlink:href="../../db/d37/classorg_1_1kde_1_1necessitas_1_1origo_1_1_qt_activity.html#af3924b311d2966d6c7e48122899d3c35" target="_top" xlink:title="org.kde.necessitas.origo.\lQtActivity.startApp">
<polygon fill="white" stroke="black" points="548,-24 548,-54 674,-54 674,-24 548,-24"/>
<text text-anchor="start" x="556" y="-42" font-family="Helvetica,sans-Serif" font-size="10.00">org.kde.necessitas.origo.</text>
<text text-anchor="middle" x="611" y="-31" font-family="Helvetica,sans-Serif" font-size="10.00">QtActivity.startApp</text>
</a>
</g>
</g>
<!-- Node1&#45;&gt;Node4 -->
<g id="edge7" class="edge"><title>Node1&#45;&gt;Node4</title>
<path fill="none" stroke="midnightblue" d="M148.364,-21.3317C157.014,-21.1956 165.693,-21.0799 174,-21 251.33,-20.2565 270.712,-18.3482 348,-21 416.464,-23.349 494.813,-29.1411 547.861,-33.5256"/>
<polygon fill="midnightblue" stroke="midnightblue" points="148.188,-17.8341 138.247,-21.5 148.304,-24.8331 148.188,-17.8341"/>
</g>
<!-- Node3 -->
<g id="node3" class="node"><title>Node3</title>
<g id="a_node3"><a xlink:href="../../db/d37/classorg_1_1kde_1_1necessitas_1_1origo_1_1_qt_activity.html#a6efdacbcdcd7cea2d7a3785d7300e9ab" target="_top" xlink:title="org.kde.necessitas.origo.\lQtActivity.loadApplication">
<polygon fill="white" stroke="black" points="384,-68 384,-98 512,-98 512,-68 384,-68"/>
<text text-anchor="start" x="392" y="-86" font-family="Helvetica,sans-Serif" font-size="10.00">org.kde.necessitas.origo.</text>
<text text-anchor="middle" x="448" y="-75" font-family="Helvetica,sans-Serif" font-size="10.00">QtActivity.loadApplication</text>
</a>
</g>
</g>
<!-- Node2&#45;&gt;Node3 -->
<g id="edge2" class="edge"><title>Node2&#45;&gt;Node3</title>
<path fill="none" stroke="midnightblue" d="M345.049,-62.0587C358.125,-64.7445 371.455,-67.4827 383.98,-70.0554"/>
<polygon fill="midnightblue" stroke="midnightblue" points="345.617,-58.6023 335.117,-60.0186 344.208,-65.4592 345.617,-58.6023"/>
</g>
<!-- Node2&#45;&gt;Node4 -->
<g id="edge6" class="edge"><title>Node2&#45;&gt;Node4</title>
<path fill="none" stroke="midnightblue" d="M357.921,-43.3462C418.491,-42.3019 494.987,-40.983 547.738,-40.0735"/>
<polygon fill="midnightblue" stroke="midnightblue" points="357.514,-39.8526 347.576,-43.5246 357.635,-46.8515 357.514,-39.8526"/>
</g>
<!-- Node3&#45;&gt;Node4 -->
<g id="edge3" class="edge"><title>Node3&#45;&gt;Node4</title>
<path fill="none" stroke="midnightblue" d="M513.777,-65.2971C527.448,-61.5608 541.749,-57.6525 555.018,-54.0262"/>
<polygon fill="midnightblue" stroke="midnightblue" points="512.68,-61.9683 503.957,-67.9808 514.526,-68.7206 512.68,-61.9683"/>
</g>
<!-- Node5 -->
<g id="node5" class="node"><title>Node5</title>
<g id="a_node5"><a xlink:href="../../db/d37/classorg_1_1kde_1_1necessitas_1_1origo_1_1_qt_activity.html#a8b40da707524bfa95b2f7f6b69ada582" target="_top" xlink:title="org.kde.necessitas.origo.\lQtActivity.onActivityResult">
<polygon fill="white" stroke="black" points="710.5,-49 710.5,-79 841.5,-79 841.5,-49 710.5,-49"/>
<text text-anchor="start" x="718.5" y="-67" font-family="Helvetica,sans-Serif" font-size="10.00">org.kde.necessitas.origo.</text>
<text text-anchor="middle" x="776" y="-56" font-family="Helvetica,sans-Serif" font-size="10.00">QtActivity.onActivityResult</text>
</a>
</g>
</g>
<!-- Node4&#45;&gt;Node5 -->
<g id="edge4" class="edge"><title>Node4&#45;&gt;Node5</title>
<path fill="none" stroke="midnightblue" d="M684.223,-50.0771C692.933,-51.413 701.786,-52.7708 710.377,-54.0885"/>
<polygon fill="midnightblue" stroke="midnightblue" points="684.503,-46.5793 674.088,-48.5227 683.442,-53.4984 684.503,-46.5793"/>
</g>
<!-- Node6 -->
<g id="node6" class="node"><title>Node6</title>
<g id="a_node6"><a xlink:href="../../db/d37/classorg_1_1kde_1_1necessitas_1_1origo_1_1_qt_activity.html#a1698da7cf3dc0ff8e1180f301e2ef1b0" target="_top" xlink:title="org.kde.necessitas.origo.\lQtActivity.onCreate">
<polygon fill="white" stroke="black" points="713,-0 713,-30 839,-30 839,-0 713,-0"/>
<text text-anchor="start" x="721" y="-18" font-family="Helvetica,sans-Serif" font-size="10.00">org.kde.necessitas.origo.</text>
<text text-anchor="middle" x="776" y="-7" font-family="Helvetica,sans-Serif" font-size="10.00">QtActivity.onCreate</text>
</a>
</g>
</g>
<!-- Node4&#45;&gt;Node6 -->
<g id="edge5" class="edge"><title>Node4&#45;&gt;Node6</title>
<path fill="none" stroke="midnightblue" d="M684.01,-28.3973C693.614,-26.9832 703.397,-25.5428 712.814,-24.1562"/>
<polygon fill="midnightblue" stroke="midnightblue" points="683.472,-24.9387 674.088,-29.8582 684.492,-31.8641 683.472,-24.9387"/>
</g>
</g>
</svg>
