<?xml version="1.0" encoding="UTF-8" standalone="no"?>
<!DOCTYPE svg PUBLIC "-//W3C//DTD SVG 1.1//EN"
 "http://www.w3.org/Graphics/SVG/1.1/DTD/svg11.dtd">
<!-- Generated by graphviz version 2.30.1 (20130303.0817)
 -->
<!-- Title: org.kde.necessitas.origo.QtActivity.downloadUpgradeMinistro Pages: 1 -->
<svg width="676pt" height="87pt"
 viewBox="0.00 0.00 676.00 87.00" xmlns="http://www.w3.org/2000/svg" xmlns:xlink="http://www.w3.org/1999/xlink">
<g id="graph0" class="graph" transform="scale(1 1) rotate(0) translate(4 83)">
<title>org.kde.necessitas.origo.QtActivity.downloadUpgradeMinistro</title>
<polygon fill="white" stroke="white" points="-4,5 -4,-83 673,-83 673,5 -4,5"/>
<!-- Node1 -->
<g id="node1" class="node"><title>Node1</title>
<polygon fill="#bfbfbf" stroke="black" points="0.5,-24 0.5,-54 173.5,-54 173.5,-24 0.5,-24"/>
<text text-anchor="start" x="8.5" y="-42" font-family="Helvetica,sans-Serif" font-size="10.00">org.kde.necessitas.origo.</text>
<text text-anchor="middle" x="87" y="-31" font-family="Helvetica,sans-Serif" font-size="10.00">QtActivity.downloadUpgradeMinistro</text>
</g>
<!-- Node2 -->
<g id="node2" class="node"><title>Node2</title>
<g id="a_node2"><a xlink:href="../../db/d37/classorg_1_1kde_1_1necessitas_1_1origo_1_1_qt_activity.html#a6efdacbcdcd7cea2d7a3785d7300e9ab" target="_top" xlink:title="org.kde.necessitas.origo.\lQtActivity.loadApplication">
<polygon fill="white" stroke="black" points="210,-46 210,-76 338,-76 338,-46 210,-46"/>
<text text-anchor="start" x="218" y="-64" font-family="Helvetica,sans-Serif" font-size="10.00">org.kde.necessitas.origo.</text>
<text text-anchor="middle" x="274" y="-53" font-family="Helvetica,sans-Serif" font-size="10.00">QtActivity.loadApplication</text>
</a>
</g>
</g>
<!-- Node1&#45;&gt;Node2 -->
<g id="edge1" class="edge"><title>Node1&#45;&gt;Node2</title>
<path fill="none" stroke="midnightblue" d="M183.75,-50.3865C192.625,-51.4419 201.46,-52.4926 209.928,-53.4996"/>
<polygon fill="midnightblue" stroke="midnightblue" points="184.074,-46.9004 173.73,-49.195 183.247,-53.8514 184.074,-46.9004"/>
</g>
<!-- Node3 -->
<g id="node3" class="node"><title>Node3</title>
<g id="a_node3"><a xlink:href="../../db/d37/classorg_1_1kde_1_1necessitas_1_1origo_1_1_qt_activity.html#af3924b311d2966d6c7e48122899d3c35" target="_top" xlink:title="org.kde.necessitas.origo.\lQtActivity.startApp">
<polygon fill="white" stroke="black" points="374,-24 374,-54 500,-54 500,-24 374,-24"/>
<text text-anchor="start" x="382" y="-42" font-family="Helvetica,sans-Serif" font-size="10.00">org.kde.necessitas.origo.</text>
<text text-anchor="middle" x="437" y="-31" font-family="Helvetica,sans-Serif" font-size="10.00">QtActivity.startApp</text>
</a>
</g>
</g>
<!-- Node1&#45;&gt;Node3 -->
<g id="edge5" class="edge"><title>Node1&#45;&gt;Node3</title>
<path fill="none" stroke="midnightblue" d="M183.684,-37.2823C192.58,-37.1676 201.458,-37.07 210,-37 266.887,-36.5337 281.114,-36.4196 338,-37 349.571,-37.1181 361.91,-37.3145 373.792,-37.5394"/>
<polygon fill="midnightblue" stroke="midnightblue" points="183.601,-33.783 173.65,-37.4186 183.696,-40.7824 183.601,-33.783"/>
</g>
<!-- Node2&#45;&gt;Node3 -->
<g id="edge2" class="edge"><title>Node2&#45;&gt;Node3</title>
<path fill="none" stroke="midnightblue" d="M348.154,-51.0038C356.723,-49.8329 365.404,-48.6466 373.804,-47.4988"/>
<polygon fill="midnightblue" stroke="midnightblue" points="347.603,-47.5464 338.169,-52.3682 348.551,-54.482 347.603,-47.5464"/>
</g>
<!-- Node4 -->
<g id="node4" class="node"><title>Node4</title>
<g id="a_node4"><a xlink:href="../../db/d37/classorg_1_1kde_1_1necessitas_1_1origo_1_1_qt_activity.html#a8b40da707524bfa95b2f7f6b69ada582" target="_top" xlink:title="org.kde.necessitas.origo.\lQtActivity.onActivityResult">
<polygon fill="white" stroke="black" points="536.5,-49 536.5,-79 667.5,-79 667.5,-49 536.5,-49"/>
<text text-anchor="start" x="544.5" y="-67" font-family="Helvetica,sans-Serif" font-size="10.00">org.kde.necessitas.origo.</text>
<text text-anchor="middle" x="602" y="-56" font-family="Helvetica,sans-Serif" font-size="10.00">QtActivity.onActivityResult</text>
</a>
</g>
</g>
<!-- Node3&#45;&gt;Node4 -->
<g id="edge3" class="edge"><title>Node3&#45;&gt;Node4</title>
<path fill="none" stroke="midnightblue" d="M510.223,-50.0771C518.933,-51.413 527.786,-52.7708 536.377,-54.0885"/>
<polygon fill="midnightblue" stroke="midnightblue" points="510.503,-46.5793 500.088,-48.5227 509.442,-53.4984 510.503,-46.5793"/>
</g>
<!-- Node5 -->
<g id="node5" class="node"><title>Node5</title>
<g id="a_node5"><a xlink:href="../../db/d37/classorg_1_1kde_1_1necessitas_1_1origo_1_1_qt_activity.html#a1698da7cf3dc0ff8e1180f301e2ef1b0" target="_top" xlink:title="org.kde.necessitas.origo.\lQtActivity.onCreate">
<polygon fill="white" stroke="black" points="539,-0 539,-30 665,-30 665,-0 539,-0"/>
<text text-anchor="start" x="547" y="-18" font-family="Helvetica,sans-Serif" font-size="10.00">org.kde.necessitas.origo.</text>
<text text-anchor="middle" x="602" y="-7" font-family="Helvetica,sans-Serif" font-size="10.00">QtActivity.onCreate</text>
</a>
</g>
</g>
<!-- Node3&#45;&gt;Node5 -->
<g id="edge4" class="edge"><title>Node3&#45;&gt;Node5</title>
<path fill="none" stroke="midnightblue" d="M510.01,-28.3973C519.614,-26.9832 529.397,-25.5428 538.814,-24.1562"/>
<polygon fill="midnightblue" stroke="midnightblue" points="509.472,-24.9387 500.088,-29.8582 510.492,-31.8641 509.472,-24.9387"/>
</g>
</g>
</svg>
