<?xml version="1.0" encoding="UTF-8" standalone="no"?>
<!DOCTYPE svg PUBLIC "-//W3C//DTD SVG 1.1//EN"
 "http://www.w3.org/Graphics/SVG/1.1/DTD/svg11.dtd">
<!-- Generated by graphviz version 2.30.1 (20130303.0817)
 -->
<!-- Title: org.kde.necessitas.origo.QtActivity.loadApplication Pages: 1 -->
<svg width="520pt" height="87pt"
 viewBox="0.00 0.00 520.00 87.00" xmlns="http://www.w3.org/2000/svg" xmlns:xlink="http://www.w3.org/1999/xlink">
<g id="graph0" class="graph" transform="scale(1 1) rotate(0) translate(4 83)">
<title>org.kde.necessitas.origo.QtActivity.loadApplication</title>
<polygon fill="white" stroke="white" points="-4,5 -4,-83 517,-83 517,5 -4,5"/>
<!-- Node1 -->
<g id="node1" class="node"><title>Node1</title>
<polygon fill="#bfbfbf" stroke="black" points="0,-24 0,-54 128,-54 128,-24 0,-24"/>
<text text-anchor="start" x="8" y="-42" font-family="Helvetica,sans-Serif" font-size="10.00">org.kde.necessitas.origo.</text>
<text text-anchor="middle" x="64" y="-31" font-family="Helvetica,sans-Serif" font-size="10.00">QtActivity.loadApplication</text>
</g>
<!-- Node2 -->
<g id="node2" class="node"><title>Node2</title>
<g id="a_node2"><a xlink:href="../../db/d37/classorg_1_1kde_1_1necessitas_1_1origo_1_1_qt_activity.html#a03bce0e522e5d949a99f65ccf30916bf" target="_top" xlink:title="org.kde.necessitas.origo.\lQtActivity.downloadUpgradeMinistro">
<polygon fill="white" stroke="black" points="164.5,-49 164.5,-79 337.5,-79 337.5,-49 164.5,-49"/>
<text text-anchor="start" x="172.5" y="-67" font-family="Helvetica,sans-Serif" font-size="10.00">org.kde.necessitas.origo.</text>
<text text-anchor="middle" x="251" y="-56" font-family="Helvetica,sans-Serif" font-size="10.00">QtActivity.downloadUpgradeMinistro</text>
</a>
</g>
</g>
<!-- Node1&#45;&gt;Node2 -->
<g id="edge1" class="edge"><title>Node1&#45;&gt;Node2</title>
<path fill="none" stroke="midnightblue" d="M128.149,-47.5337C136.591,-48.6744 145.397,-49.8644 154.242,-51.0597"/>
<polygon fill="midnightblue" stroke="midnightblue" points="153.85,-54.5384 164.228,-52.4092 154.787,-47.6015 153.85,-54.5384"/>
</g>
<!-- Node4 -->
<g id="node4" class="node"><title>Node4</title>
<g id="a_node4"><a xlink:href="../../d0/da0/classorg_1_1kde_1_1necessitas_1_1origo_1_1_qt_application.html#afea43576f6f8633639f721ce8bff907e" target="_top" xlink:title="org.kde.necessitas.origo.\lQtApplication.setQtActivityDelegate">
<polygon fill="white" stroke="black" points="165,-0 165,-30 337,-30 337,-0 165,-0"/>
<text text-anchor="start" x="173" y="-18" font-family="Helvetica,sans-Serif" font-size="10.00">org.kde.necessitas.origo.</text>
<text text-anchor="middle" x="251" y="-7" font-family="Helvetica,sans-Serif" font-size="10.00">QtApplication.setQtActivityDelegate</text>
</a>
</g>
</g>
<!-- Node1&#45;&gt;Node4 -->
<g id="edge3" class="edge"><title>Node1&#45;&gt;Node4</title>
<path fill="none" stroke="midnightblue" d="M128.149,-30.8077C136.743,-29.6928 145.714,-28.529 154.72,-27.3606"/>
<polygon fill="midnightblue" stroke="midnightblue" points="155.418,-30.7995 164.885,-26.0419 154.518,-23.8576 155.418,-30.7995"/>
</g>
<!-- Node3 -->
<g id="node3" class="node"><title>Node3</title>
<g id="a_node3"><a xlink:href="../../db/d37/classorg_1_1kde_1_1necessitas_1_1origo_1_1_qt_activity.html#a7fe5f4438970743566e67e12335d472f" target="_top" xlink:title="org.kde.necessitas.origo.\lQtActivity.ministroNotFound">
<polygon fill="white" stroke="black" points="374,-49 374,-79 512,-79 512,-49 374,-49"/>
<text text-anchor="start" x="382" y="-67" font-family="Helvetica,sans-Serif" font-size="10.00">org.kde.necessitas.origo.</text>
<text text-anchor="middle" x="443" y="-56" font-family="Helvetica,sans-Serif" font-size="10.00">QtActivity.ministroNotFound</text>
</a>
</g>
</g>
<!-- Node2&#45;&gt;Node3 -->
<g id="edge2" class="edge"><title>Node2&#45;&gt;Node3</title>
<path fill="none" stroke="midnightblue" d="M337.551,-64C346.259,-64 355.074,-64 363.699,-64"/>
<polygon fill="midnightblue" stroke="midnightblue" points="363.719,-67.5001 373.719,-64 363.719,-60.5001 363.719,-67.5001"/>
</g>
</g>
</svg>
