<?xml version="1.0" encoding="UTF-8" standalone="no"?>
<!DOCTYPE svg PUBLIC "-//W3C//DTD SVG 1.1//EN"
 "http://www.w3.org/Graphics/SVG/1.1/DTD/svg11.dtd">
<!-- Generated by graphviz version 2.30.1 (20130303.0817)
 -->
<!-- Title: org.kde.necessitas.origo.QtActivity.dispatchKeyEvent Pages: 1 -->
<svg width="360pt" height="38pt"
 viewBox="0.00 0.00 360.00 38.00" xmlns="http://www.w3.org/2000/svg" xmlns:xlink="http://www.w3.org/1999/xlink">
<g id="graph0" class="graph" transform="scale(1 1) rotate(0) translate(4 34)">
<title>org.kde.necessitas.origo.QtActivity.dispatchKeyEvent</title>
<polygon fill="white" stroke="white" points="-4,5 -4,-34 357,-34 357,5 -4,5"/>
<!-- Node1 -->
<g id="node1" class="node"><title>Node1</title>
<polygon fill="#bfbfbf" stroke="black" points="0,-0 0,-30 140,-30 140,-0 0,-0"/>
<text text-anchor="start" x="8" y="-18" font-family="Helvetica,sans-Serif" font-size="10.00">org.kde.necessitas.origo.</text>
<text text-anchor="middle" x="70" y="-7" font-family="Helvetica,sans-Serif" font-size="10.00">QtActivity.dispatchKeyEvent</text>
</g>
<!-- Node2 -->
<g id="node2" class="node"><title>Node2</title>
<g id="a_node2"><a xlink:href="../../d0/da0/classorg_1_1kde_1_1necessitas_1_1origo_1_1_qt_application.xhtml#a329e95a39e56530f3745aa0d8e057761" target="_top" xlink:title="org.kde.necessitas.origo.\lQtApplication.invokeDelegateMethod">
<polygon fill="white" stroke="black" points="176,-0 176,-30 352,-30 352,-0 176,-0"/>
<text text-anchor="start" x="184" y="-18" font-family="Helvetica,sans-Serif" font-size="10.00">org.kde.necessitas.origo.</text>
<text text-anchor="middle" x="264" y="-7" font-family="Helvetica,sans-Serif" font-size="10.00">QtApplication.invokeDelegateMethod</text>
</a>
</g>
</g>
<!-- Node1&#45;&gt;Node2 -->
<g id="edge1" class="edge"><title>Node1&#45;&gt;Node2</title>
<path fill="none" stroke="midnightblue" d="M140.045,-15C148.391,-15 157.032,-15 165.687,-15"/>
<polygon fill="midnightblue" stroke="midnightblue" points="165.837,-18.5001 175.837,-15 165.837,-11.5001 165.837,-18.5001"/>
</g>
</g>
</svg>
