<?xml version="1.0" encoding="UTF-8" standalone="no"?>
<!DOCTYPE svg PUBLIC "-//W3C//DTD SVG 1.1//EN"
 "http://www.w3.org/Graphics/SVG/1.1/DTD/svg11.dtd">
<!-- Generated by graphviz version 2.30.1 (20130303.0817)
 -->
<!-- Title: client::chatNotification::resizeEvent Pages: 1 -->
<svg width="436pt" height="87pt"
 viewBox="0.00 0.00 436.00 87.00" xmlns="http://www.w3.org/2000/svg" xmlns:xlink="http://www.w3.org/1999/xlink">
<g id="graph0" class="graph" transform="scale(1 1) rotate(0) translate(4 83)">
<title>client::chatNotification::resizeEvent</title>
<polygon fill="white" stroke="white" points="-4,5 -4,-83 433,-83 433,5 -4,5"/>
<!-- Node1 -->
<g id="node1" class="node"><title>Node1</title>
<polygon fill="#bfbfbf" stroke="black" points="0.5,-24 0.5,-54 113.5,-54 113.5,-24 0.5,-24"/>
<text text-anchor="start" x="8.5" y="-42" font-family="Helvetica,sans-Serif" font-size="10.00">client::chatNotification</text>
<text text-anchor="middle" x="57" y="-31" font-family="Helvetica,sans-Serif" font-size="10.00">::resizeEvent</text>
</g>
<!-- Node2 -->
<g id="node2" class="node"><title>Node2</title>
<g id="a_node2"><a xlink:href="../../d5/d17/classclient_1_1chat_notification.xhtml#a88bb5e2ae6d834567b46f1f0ea846e06" target="_top" xlink:title="Calculates the message width to detirmine it should be wrapped.">
<polygon fill="white" stroke="black" points="150.5,-24 150.5,-54 277.5,-54 277.5,-24 150.5,-24"/>
<text text-anchor="start" x="158.5" y="-42" font-family="Helvetica,sans-Serif" font-size="10.00">client::chatNotification</text>
<text text-anchor="middle" x="214" y="-31" font-family="Helvetica,sans-Serif" font-size="10.00">::calculateMessageWidth</text>
</a>
</g>
</g>
<!-- Node1&#45;&gt;Node2 -->
<g id="edge1" class="edge"><title>Node1&#45;&gt;Node2</title>
<path fill="none" stroke="midnightblue" d="M113.521,-39C122.23,-39 131.344,-39 140.369,-39"/>
<polygon fill="midnightblue" stroke="midnightblue" points="140.495,-42.5001 150.495,-39 140.495,-35.5001 140.495,-42.5001"/>
</g>
<!-- Node3 -->
<g id="node3" class="node"><title>Node3</title>
<g id="a_node3"><a xlink:href="../../d5/d17/classclient_1_1chat_notification.xhtml#a4629f1c83084f928a5efced7a79a1655" target="_top" xlink:title="client::chatNotification\l::getWidth">
<polygon fill="white" stroke="black" points="314.5,-49 314.5,-79 427.5,-79 427.5,-49 314.5,-49"/>
<text text-anchor="start" x="322.5" y="-67" font-family="Helvetica,sans-Serif" font-size="10.00">client::chatNotification</text>
<text text-anchor="middle" x="371" y="-56" font-family="Helvetica,sans-Serif" font-size="10.00">::getWidth</text>
</a>
</g>
</g>
<!-- Node2&#45;&gt;Node3 -->
<g id="edge2" class="edge"><title>Node2&#45;&gt;Node3</title>
<path fill="none" stroke="midnightblue" d="M277.598,-49.0964C286.388,-50.5142 295.445,-51.9749 304.291,-53.4018"/>
<polygon fill="midnightblue" stroke="midnightblue" points="303.735,-56.8572 314.165,-54.9943 304.85,-49.9465 303.735,-56.8572"/>
</g>
<!-- Node4 -->
<g id="node4" class="node"><title>Node4</title>
<g id="a_node4"><a xlink:href="../../d5/d17/classclient_1_1chat_notification.xhtml#ac3e7bb4220cd0accabf071539af0c19b" target="_top" xlink:title="client::chatNotification\l::getHeight">
<polygon fill="white" stroke="black" points="314.5,-0 314.5,-30 427.5,-30 427.5,-0 314.5,-0"/>
<text text-anchor="start" x="322.5" y="-18" font-family="Helvetica,sans-Serif" font-size="10.00">client::chatNotification</text>
<text text-anchor="middle" x="371" y="-7" font-family="Helvetica,sans-Serif" font-size="10.00">::getHeight</text>
</a>
</g>
</g>
<!-- Node2&#45;&gt;Node4 -->
<g id="edge3" class="edge"><title>Node2&#45;&gt;Node4</title>
<path fill="none" stroke="midnightblue" d="M277.598,-29.3075C286.294,-27.961 295.25,-26.5742 304.006,-25.2185"/>
<polygon fill="midnightblue" stroke="midnightblue" points="304.818,-28.6345 314.165,-23.6455 303.747,-21.7169 304.818,-28.6345"/>
</g>
</g>
</svg>
