<?xml version="1.0" encoding="UTF-8" standalone="no"?>
<!DOCTYPE svg PUBLIC "-//W3C//DTD SVG 1.1//EN"
 "http://www.w3.org/Graphics/SVG/1.1/DTD/svg11.dtd">
<!-- Generated by graphviz version 2.30.1 (20130303.0817)
 -->
<!-- Title: client::chatNotification::calculateMessageWidth Pages: 1 -->
<svg width="286pt" height="87pt"
 viewBox="0.00 0.00 286.00 87.00" xmlns="http://www.w3.org/2000/svg" xmlns:xlink="http://www.w3.org/1999/xlink">
<g id="graph0" class="graph" transform="scale(1 1) rotate(0) translate(4 83)">
<title>client::chatNotification::calculateMessageWidth</title>
<polygon fill="white" stroke="white" points="-4,5 -4,-83 283,-83 283,5 -4,5"/>
<!-- Node1 -->
<g id="node1" class="node"><title>Node1</title>
<polygon fill="#bfbfbf" stroke="black" points="0.5,-24 0.5,-54 127.5,-54 127.5,-24 0.5,-24"/>
<text text-anchor="start" x="8.5" y="-42" font-family="Helvetica,sans-Serif" font-size="10.00">client::chatNotification</text>
<text text-anchor="middle" x="64" y="-31" font-family="Helvetica,sans-Serif" font-size="10.00">::calculateMessageWidth</text>
</g>
<!-- Node2 -->
<g id="node2" class="node"><title>Node2</title>
<g id="a_node2"><a xlink:href="../../d5/d17/classclient_1_1chat_notification.html#ae2fcac96b85efe37fd12c38282120e18" target="_top" xlink:title="Constructor taking a message.">
<polygon fill="white" stroke="black" points="164.5,-49 164.5,-79 277.5,-79 277.5,-49 164.5,-49"/>
<text text-anchor="start" x="172.5" y="-67" font-family="Helvetica,sans-Serif" font-size="10.00">client::chatNotification</text>
<text text-anchor="middle" x="221" y="-56" font-family="Helvetica,sans-Serif" font-size="10.00">::chatNotification</text>
</a>
</g>
</g>
<!-- Node1&#45;&gt;Node2 -->
<g id="edge1" class="edge"><title>Node1&#45;&gt;Node2</title>
<path fill="none" stroke="midnightblue" d="M137.61,-50.7113C146.533,-52.1505 155.543,-53.6038 164.165,-54.9943"/>
<polygon fill="midnightblue" stroke="midnightblue" points="138.027,-47.2335 127.598,-49.0964 136.913,-54.1441 138.027,-47.2335"/>
</g>
<!-- Node3 -->
<g id="node3" class="node"><title>Node3</title>
<g id="a_node3"><a xlink:href="../../d5/d17/classclient_1_1chat_notification.html#ae6afe176382747d63b6e49b94741e82c" target="_top" xlink:title="client::chatNotification\l::resizeEvent">
<polygon fill="white" stroke="black" points="164.5,-0 164.5,-30 277.5,-30 277.5,-0 164.5,-0"/>
<text text-anchor="start" x="172.5" y="-18" font-family="Helvetica,sans-Serif" font-size="10.00">client::chatNotification</text>
<text text-anchor="middle" x="221" y="-7" font-family="Helvetica,sans-Serif" font-size="10.00">::resizeEvent</text>
</a>
</g>
</g>
<!-- Node1&#45;&gt;Node3 -->
<g id="edge2" class="edge"><title>Node1&#45;&gt;Node3</title>
<path fill="none" stroke="midnightblue" d="M137.61,-27.7571C146.533,-26.3755 155.543,-24.9804 164.165,-23.6455"/>
<polygon fill="midnightblue" stroke="midnightblue" points="136.944,-24.3184 127.598,-29.3075 138.015,-31.236 136.944,-24.3184"/>
</g>
</g>
</svg>
