<?xml version="1.0" encoding="UTF-8" standalone="no"?>
<!DOCTYPE svg PUBLIC "-//W3C//DTD SVG 1.1//EN"
 "http://www.w3.org/Graphics/SVG/1.1/DTD/svg11.dtd">
<!-- Generated by graphviz version 2.30.1 (20130303.0817)
 -->
<!-- Title: client::chatNotification::getHeight Pages: 1 -->
<svg width="436pt" height="87pt"
 viewBox="0.00 0.00 436.00 87.00" xmlns="http://www.w3.org/2000/svg" xmlns:xlink="http://www.w3.org/1999/xlink">
<g id="graph0" class="graph" transform="scale(1 1) rotate(0) translate(4 83)">
<title>client::chatNotification::getHeight</title>
<polygon fill="white" stroke="white" points="-4,5 -4,-83 433,-83 433,5 -4,5"/>
<!-- Node1 -->
<g id="node1" class="node"><title>Node1</title>
<polygon fill="#bfbfbf" stroke="black" points="0.5,-24 0.5,-54 113.5,-54 113.5,-24 0.5,-24"/>
<text text-anchor="start" x="8.5" y="-42" font-family="Helvetica,sans-Serif" font-size="10.00">client::chatNotification</text>
<text text-anchor="middle" x="57" y="-31" font-family="Helvetica,sans-Serif" font-size="10.00">::getHeight</text>
</g>
<!-- Node2 -->
<g id="node2" class="node"><title>Node2</title>
<g id="a_node2"><a xlink:href="../../d5/d17/classclient_1_1chat_notification.html#a88bb5e2ae6d834567b46f1f0ea846e06" target="_top" xlink:title="Calculates the message width to detirmine it should be wrapped.">
<polygon fill="white" stroke="black" points="150.5,-24 150.5,-54 277.5,-54 277.5,-24 150.5,-24"/>
<text text-anchor="start" x="158.5" y="-42" font-family="Helvetica,sans-Serif" font-size="10.00">client::chatNotification</text>
<text text-anchor="middle" x="214" y="-31" font-family="Helvetica,sans-Serif" font-size="10.00">::calculateMessageWidth</text>
</a>
</g>
</g>
<!-- Node1&#45;&gt;Node2 -->
<g id="edge1" class="edge"><title>Node1&#45;&gt;Node2</title>
<path fill="none" stroke="midnightblue" d="M123.788,-39C132.641,-39 141.702,-39 150.495,-39"/>
<polygon fill="midnightblue" stroke="midnightblue" points="123.521,-35.5001 113.521,-39 123.521,-42.5001 123.521,-35.5001"/>
</g>
<!-- Node3 -->
<g id="node3" class="node"><title>Node3</title>
<g id="a_node3"><a xlink:href="../../d5/d17/classclient_1_1chat_notification.html#ae2fcac96b85efe37fd12c38282120e18" target="_top" xlink:title="Constructor taking a message.">
<polygon fill="white" stroke="black" points="314.5,-49 314.5,-79 427.5,-79 427.5,-49 314.5,-49"/>
<text text-anchor="start" x="322.5" y="-67" font-family="Helvetica,sans-Serif" font-size="10.00">client::chatNotification</text>
<text text-anchor="middle" x="371" y="-56" font-family="Helvetica,sans-Serif" font-size="10.00">::chatNotification</text>
</a>
</g>
</g>
<!-- Node2&#45;&gt;Node3 -->
<g id="edge2" class="edge"><title>Node2&#45;&gt;Node3</title>
<path fill="none" stroke="midnightblue" d="M287.61,-50.7113C296.533,-52.1505 305.543,-53.6038 314.165,-54.9943"/>
<polygon fill="midnightblue" stroke="midnightblue" points="288.027,-47.2335 277.598,-49.0964 286.913,-54.1441 288.027,-47.2335"/>
</g>
<!-- Node4 -->
<g id="node4" class="node"><title>Node4</title>
<g id="a_node4"><a xlink:href="../../d5/d17/classclient_1_1chat_notification.html#ae6afe176382747d63b6e49b94741e82c" target="_top" xlink:title="client::chatNotification\l::resizeEvent">
<polygon fill="white" stroke="black" points="314.5,-0 314.5,-30 427.5,-30 427.5,-0 314.5,-0"/>
<text text-anchor="start" x="322.5" y="-18" font-family="Helvetica,sans-Serif" font-size="10.00">client::chatNotification</text>
<text text-anchor="middle" x="371" y="-7" font-family="Helvetica,sans-Serif" font-size="10.00">::resizeEvent</text>
</a>
</g>
</g>
<!-- Node2&#45;&gt;Node4 -->
<g id="edge3" class="edge"><title>Node2&#45;&gt;Node4</title>
<path fill="none" stroke="midnightblue" d="M287.61,-27.7571C296.533,-26.3755 305.543,-24.9804 314.165,-23.6455"/>
<polygon fill="midnightblue" stroke="midnightblue" points="286.944,-24.3184 277.598,-29.3075 288.015,-31.236 286.944,-24.3184"/>
</g>
</g>
</svg>
