<?xml version="1.0" encoding="UTF-8" standalone="no"?>
<!DOCTYPE svg PUBLIC "-//W3C//DTD SVG 1.1//EN"
 "http://www.w3.org/Graphics/SVG/1.1/DTD/svg11.dtd">
<!-- Generated by graphviz version 2.30.1 (20130303.0817)
 -->
<!-- Title: C++/customIrcClient/clssettings.h Pages: 1 -->
<svg width="908pt" height="208pt"
 viewBox="0.00 0.00 908.00 208.00" xmlns="http://www.w3.org/2000/svg" xmlns:xlink="http://www.w3.org/1999/xlink">
<g id="graph0" class="graph" transform="scale(1 1) rotate(0) translate(4 204)">
<title>C++/customIrcClient/clssettings.h</title>
<polygon fill="white" stroke="white" points="-4,5 -4,-204 905,-204 905,5 -4,5"/>
<!-- Node1 -->
<g id="node1" class="node"><title>Node1</title>
<polygon fill="#bfbfbf" stroke="black" points="109,-169 109,-199 215,-199 215,-169 109,-169"/>
<text text-anchor="start" x="117" y="-187" font-family="Helvetica,sans-Serif" font-size="10.00">C++/customIrcClient</text>
<text text-anchor="middle" x="162" y="-176" font-family="Helvetica,sans-Serif" font-size="10.00">/clssettings.h</text>
</g>
<!-- Node2 -->
<g id="node2" class="node"><title>Node2</title>
<polygon fill="white" stroke="#bfbfbf" points="0,-56.5 0,-75.5 50,-75.5 50,-56.5 0,-56.5"/>
<text text-anchor="middle" x="25" y="-63.5" font-family="Helvetica,sans-Serif" font-size="10.00">QString</text>
</g>
<!-- Node1&#45;&gt;Node2 -->
<g id="edge1" class="edge"><title>Node1&#45;&gt;Node2</title>
<path fill="none" stroke="midnightblue" d="M108.908,-170.932C86.0873,-163.266 60.8451,-151.067 44,-132 32.6983,-119.208 28.1046,-100.018 26.2453,-85.8027"/>
<polygon fill="midnightblue" stroke="midnightblue" points="29.7131,-85.3011 25.2645,-75.6855 22.7458,-85.9766 29.7131,-85.3011"/>
</g>
<!-- Node3 -->
<g id="node3" class="node"><title>Node3</title>
<polygon fill="white" stroke="#bfbfbf" points="53,-112.5 53,-131.5 93,-131.5 93,-112.5 53,-112.5"/>
<text text-anchor="middle" x="73" y="-119.5" font-family="Helvetica,sans-Serif" font-size="10.00">QFile</text>
</g>
<!-- Node1&#45;&gt;Node3 -->
<g id="edge2" class="edge"><title>Node1&#45;&gt;Node3</title>
<path fill="none" stroke="midnightblue" d="M140.908,-168.781C126.825,-159.286 108.368,-146.843 94.2512,-137.327"/>
<polygon fill="midnightblue" stroke="midnightblue" points="95.9392,-134.244 85.6909,-131.556 92.0262,-140.048 95.9392,-134.244"/>
</g>
<!-- Node4 -->
<g id="node4" class="node"><title>Node4</title>
<polygon fill="white" stroke="#bfbfbf" points="111,-112.5 111,-131.5 213,-131.5 213,-112.5 111,-112.5"/>
<text text-anchor="middle" x="162" y="-119.5" font-family="Helvetica,sans-Serif" font-size="10.00">QXmlStreamReader</text>
</g>
<!-- Node1&#45;&gt;Node4 -->
<g id="edge3" class="edge"><title>Node1&#45;&gt;Node4</title>
<path fill="none" stroke="midnightblue" d="M162,-168.781C162,-160.781 162,-150.689 162,-142.017"/>
<polygon fill="midnightblue" stroke="midnightblue" points="165.5,-141.73 162,-131.731 158.5,-141.731 165.5,-141.73"/>
</g>
<!-- Node5 -->
<g id="node5" class="node"><title>Node5</title>
<polygon fill="white" stroke="#bfbfbf" points="230.5,-112.5 230.5,-131.5 283.5,-131.5 283.5,-112.5 230.5,-112.5"/>
<text text-anchor="middle" x="257" y="-119.5" font-family="Helvetica,sans-Serif" font-size="10.00">QVector</text>
</g>
<!-- Node1&#45;&gt;Node5 -->
<g id="edge4" class="edge"><title>Node1&#45;&gt;Node5</title>
<path fill="none" stroke="midnightblue" d="M184.514,-168.781C199.69,-159.196 219.624,-146.606 234.745,-137.056"/>
<polygon fill="midnightblue" stroke="midnightblue" points="236.868,-139.855 243.453,-131.556 233.13,-133.936 236.868,-139.855"/>
</g>
<!-- Node6 -->
<g id="node6" class="node"><title>Node6</title>
<g id="a_node6"><a xlink:href="../../d5/d98/custom_irc_client_2ircuser_8h.xhtml" target="_top" xlink:title="ircuser.h">
<polygon fill="white" stroke="black" points="302,-112.5 302,-131.5 356,-131.5 356,-112.5 302,-112.5"/>
<text text-anchor="middle" x="329" y="-119.5" font-family="Helvetica,sans-Serif" font-size="10.00">ircuser.h</text>
</a>
</g>
</g>
<!-- Node1&#45;&gt;Node6 -->
<g id="edge5" class="edge"><title>Node1&#45;&gt;Node6</title>
<path fill="none" stroke="midnightblue" d="M201.154,-168.933C229.832,-158.629 268.341,-144.794 295.578,-135.008"/>
<polygon fill="midnightblue" stroke="midnightblue" points="296.836,-138.275 305.063,-131.6 294.469,-131.687 296.836,-138.275"/>
</g>
<!-- Node7 -->
<g id="node7" class="node"><title>Node7</title>
<polygon fill="white" stroke="#bfbfbf" points="68.5,-56.5 68.5,-75.5 121.5,-75.5 121.5,-56.5 68.5,-56.5"/>
<text text-anchor="middle" x="95" y="-63.5" font-family="Helvetica,sans-Serif" font-size="10.00">QObject</text>
</g>
<!-- Node6&#45;&gt;Node7 -->
<g id="edge6" class="edge"><title>Node6&#45;&gt;Node7</title>
<path fill="none" stroke="midnightblue" d="M301.937,-114.351C298.593,-113.549 295.219,-112.749 292,-112 223.25,-96.0013 203.409,-93.3937 131.71,-76.3551"/>
<polygon fill="midnightblue" stroke="midnightblue" points="132.27,-72.8904 121.73,-73.9703 130.643,-79.6987 132.27,-72.8904"/>
</g>
<!-- Node6&#45;&gt;Node2 -->
<g id="edge7" class="edge"><title>Node6&#45;&gt;Node2</title>
<path fill="none" stroke="midnightblue" d="M301.981,-114.148C298.629,-113.381 295.242,-112.645 292,-112 189.658,-91.6507 162.206,-97.0182 60,-76 59.9001,-75.9795 59.8001,-75.9588 59.7,-75.9381"/>
<polygon fill="midnightblue" stroke="midnightblue" points="60.692,-72.5741 50.1666,-73.7849 59.1498,-79.4021 60.692,-72.5741"/>
</g>
<!-- Node8 -->
<g id="node8" class="node"><title>Node8</title>
<polygon fill="white" stroke="#bfbfbf" points="139.5,-56.5 139.5,-75.5 186.5,-75.5 186.5,-56.5 139.5,-56.5"/>
<text text-anchor="middle" x="163" y="-63.5" font-family="Helvetica,sans-Serif" font-size="10.00">QColor</text>
</g>
<!-- Node6&#45;&gt;Node8 -->
<g id="edge8" class="edge"><title>Node6&#45;&gt;Node8</title>
<path fill="none" stroke="midnightblue" d="M302.697,-112.444C273.907,-103.078 227.683,-88.0415 196.364,-77.8532"/>
<polygon fill="midnightblue" stroke="midnightblue" points="197.352,-74.4942 186.76,-74.729 195.186,-81.1509 197.352,-74.4942"/>
</g>
<!-- Node9 -->
<g id="node9" class="node"><title>Node9</title>
<polygon fill="white" stroke="#bfbfbf" points="205,-56.5 205,-75.5 289,-75.5 289,-56.5 205,-56.5"/>
<text text-anchor="middle" x="247" y="-63.5" font-family="Helvetica,sans-Serif" font-size="10.00">QGraphicsView</text>
</g>
<!-- Node6&#45;&gt;Node9 -->
<g id="edge9" class="edge"><title>Node6&#45;&gt;Node9</title>
<path fill="none" stroke="midnightblue" d="M315.825,-112.324C303.153,-103.979 283.767,-91.2122 268.794,-81.3524"/>
<polygon fill="midnightblue" stroke="midnightblue" points="270.419,-78.2313 260.142,-75.6545 266.569,-84.0776 270.419,-78.2313"/>
</g>
<!-- Node10 -->
<g id="node10" class="node"><title>Node10</title>
<polygon fill="white" stroke="#bfbfbf" points="307,-56.5 307,-75.5 437,-75.5 437,-56.5 307,-56.5"/>
<text text-anchor="middle" x="372" y="-63.5" font-family="Helvetica,sans-Serif" font-size="10.00">QNetworkAccessManager</text>
</g>
<!-- Node6&#45;&gt;Node10 -->
<g id="edge10" class="edge"><title>Node6&#45;&gt;Node10</title>
<path fill="none" stroke="midnightblue" d="M336.101,-112.083C342.237,-104.377 351.27,-93.0333 358.739,-83.6531"/>
<polygon fill="midnightblue" stroke="midnightblue" points="361.54,-85.7542 365.032,-75.7511 356.064,-81.3936 361.54,-85.7542"/>
</g>
<!-- Node11 -->
<g id="node11" class="node"><title>Node11</title>
<polygon fill="white" stroke="#bfbfbf" points="455.5,-56.5 455.5,-75.5 550.5,-75.5 550.5,-56.5 455.5,-56.5"/>
<text text-anchor="middle" x="503" y="-63.5" font-family="Helvetica,sans-Serif" font-size="10.00">QNetworkRequest</text>
</g>
<!-- Node6&#45;&gt;Node11 -->
<g id="edge11" class="edge"><title>Node6&#45;&gt;Node11</title>
<path fill="none" stroke="midnightblue" d="M356.188,-112.562C385.638,-103.423 432.813,-88.7821 465.713,-78.5719"/>
<polygon fill="midnightblue" stroke="midnightblue" points="466.916,-81.8632 475.429,-75.5565 464.841,-75.1778 466.916,-81.8632"/>
</g>
<!-- Node12 -->
<g id="node12" class="node"><title>Node12</title>
<polygon fill="white" stroke="#bfbfbf" points="569,-56.5 569,-75.5 653,-75.5 653,-56.5 569,-56.5"/>
<text text-anchor="middle" x="611" y="-63.5" font-family="Helvetica,sans-Serif" font-size="10.00">QNetworkReply</text>
</g>
<!-- Node6&#45;&gt;Node12 -->
<g id="edge12" class="edge"><title>Node6&#45;&gt;Node12</title>
<path fill="none" stroke="midnightblue" d="M356.039,-115.822C402.563,-106.914 498.525,-88.5377 558.541,-77.0454"/>
<polygon fill="midnightblue" stroke="midnightblue" points="559.416,-80.4415 568.579,-75.1232 558.099,-73.5664 559.416,-80.4415"/>
</g>
<!-- Node13 -->
<g id="node13" class="node"><title>Node13</title>
<g id="a_node13"><a xlink:href="../../d7/d62/clslog_8h.xhtml" target="_top" xlink:title="../resources/clslog.h">
<polygon fill="white" stroke="black" points="671.5,-56.5 671.5,-75.5 776.5,-75.5 776.5,-56.5 671.5,-56.5"/>
<text text-anchor="middle" x="724" y="-63.5" font-family="Helvetica,sans-Serif" font-size="10.00">../resources/clslog.h</text>
</a>
</g>
</g>
<!-- Node6&#45;&gt;Node13 -->
<g id="edge13" class="edge"><title>Node6&#45;&gt;Node13</title>
<path fill="none" stroke="midnightblue" d="M356.121,-117.391C412.771,-109.838 547.795,-91.7578 661,-76 661.106,-75.9852 661.212,-75.9705 661.318,-75.9557"/>
<polygon fill="midnightblue" stroke="midnightblue" points="661.992,-79.3956 671.409,-74.5417 661.02,-72.4633 661.992,-79.3956"/>
</g>
<!-- Node14 -->
<g id="node14" class="node"><title>Node14</title>
<polygon fill="white" stroke="#bfbfbf" points="550,-0.5 550,-19.5 602,-19.5 602,-0.5 550,-0.5"/>
<text text-anchor="middle" x="576" y="-7.5" font-family="Helvetica,sans-Serif" font-size="10.00">QDebug</text>
</g>
<!-- Node13&#45;&gt;Node14 -->
<g id="edge14" class="edge"><title>Node13&#45;&gt;Node14</title>
<path fill="none" stroke="midnightblue" d="M700.549,-56.4435C675.867,-47.4381 636.815,-33.1891 609.023,-23.049"/>
<polygon fill="midnightblue" stroke="midnightblue" points="609.935,-19.6561 599.341,-19.5164 607.536,-26.2321 609.935,-19.6561"/>
</g>
<!-- Node15 -->
<g id="node15" class="node"><title>Node15</title>
<polygon fill="white" stroke="#bfbfbf" points="620.5,-0.5 620.5,-19.5 685.5,-19.5 685.5,-0.5 620.5,-0.5"/>
<text text-anchor="middle" x="653" y="-7.5" font-family="Helvetica,sans-Serif" font-size="10.00">QDateTime</text>
</g>
<!-- Node13&#45;&gt;Node15 -->
<g id="edge15" class="edge"><title>Node13&#45;&gt;Node15</title>
<path fill="none" stroke="midnightblue" d="M712.593,-56.324C701.891,-48.1849 685.659,-35.8395 672.837,-26.0874"/>
<polygon fill="midnightblue" stroke="midnightblue" points="674.693,-23.1018 664.615,-19.8339 670.456,-28.6734 674.693,-23.1018"/>
</g>
<!-- Node16 -->
<g id="node16" class="node"><title>Node16</title>
<polygon fill="white" stroke="#bfbfbf" points="703.5,-0.5 703.5,-19.5 744.5,-19.5 744.5,-0.5 703.5,-0.5"/>
<text text-anchor="middle" x="724" y="-7.5" font-family="Helvetica,sans-Serif" font-size="10.00">string</text>
</g>
<!-- Node13&#45;&gt;Node16 -->
<g id="edge16" class="edge"><title>Node13&#45;&gt;Node16</title>
<path fill="none" stroke="midnightblue" d="M724,-56.083C724,-49.0059 724,-38.8611 724,-29.9865"/>
<polygon fill="midnightblue" stroke="midnightblue" points="727.5,-29.751 724,-19.7511 720.5,-29.7511 727.5,-29.751"/>
</g>
<!-- Node17 -->
<g id="node17" class="node"><title>Node17</title>
<polygon fill="white" stroke="#bfbfbf" points="763,-0.5 763,-19.5 817,-19.5 817,-0.5 763,-0.5"/>
<text text-anchor="middle" x="790" y="-7.5" font-family="Helvetica,sans-Serif" font-size="10.00">iostream</text>
</g>
<!-- Node13&#45;&gt;Node17 -->
<g id="edge17" class="edge"><title>Node13&#45;&gt;Node17</title>
<path fill="none" stroke="midnightblue" d="M734.604,-56.324C744.456,-48.2631 759.351,-36.0765 771.215,-26.3695"/>
<polygon fill="midnightblue" stroke="midnightblue" points="773.68,-28.8752 779.203,-19.8339 769.247,-23.4575 773.68,-28.8752"/>
</g>
<!-- Node18 -->
<g id="node18" class="node"><title>Node18</title>
<polygon fill="white" stroke="#bfbfbf" points="835.5,-0.5 835.5,-19.5 900.5,-19.5 900.5,-0.5 835.5,-0.5"/>
<text text-anchor="middle" x="868" y="-7.5" font-family="Helvetica,sans-Serif" font-size="10.00">QStringList</text>
</g>
<!-- Node13&#45;&gt;Node18 -->
<g id="edge18" class="edge"><title>Node13&#45;&gt;Node18</title>
<path fill="none" stroke="midnightblue" d="M746.817,-56.4435C770.832,-47.4381 808.829,-33.1891 835.869,-23.049"/>
<polygon fill="midnightblue" stroke="midnightblue" points="837.155,-26.3049 845.29,-19.5164 834.697,-19.7506 837.155,-26.3049"/>
</g>
</g>
</svg>
