<?xml version="1.0" encoding="UTF-8" standalone="no"?>
<!DOCTYPE svg PUBLIC "-//W3C//DTD SVG 1.1//EN"
 "http://www.w3.org/Graphics/SVG/1.1/DTD/svg11.dtd">
<!-- Generated by graphviz version 2.30.1 (20130303.0817)
 -->
<!-- Title: org.kde.necessitas.origo.QtApplication.setQtActivityDelegate Pages: 1 -->
<svg width="674pt" height="87pt"
 viewBox="0.00 0.00 674.00 87.00" xmlns="http://www.w3.org/2000/svg" xmlns:xlink="http://www.w3.org/1999/xlink">
<g id="graph0" class="graph" transform="scale(1 1) rotate(0) translate(4 83)">
<title>org.kde.necessitas.origo.QtApplication.setQtActivityDelegate</title>
<polygon fill="white" stroke="white" points="-4,5 -4,-83 671,-83 671,5 -4,5"/>
<!-- Node1 -->
<g id="node1" class="node"><title>Node1</title>
<polygon fill="#bfbfbf" stroke="black" points="0,-24 0,-54 172,-54 172,-24 0,-24"/>
<text text-anchor="start" x="8" y="-42" font-family="Helvetica,sans-Serif" font-size="10.00">org.kde.necessitas.origo.</text>
<text text-anchor="middle" x="86" y="-31" font-family="Helvetica,sans-Serif" font-size="10.00">QtApplication.setQtActivityDelegate</text>
</g>
<!-- Node2 -->
<g id="node2" class="node"><title>Node2</title>
<g id="a_node2"><a xlink:href="../../db/d37/classorg_1_1kde_1_1necessitas_1_1origo_1_1_qt_activity.html#a6efdacbcdcd7cea2d7a3785d7300e9ab" target="_top" xlink:title="org.kde.necessitas.origo.\lQtActivity.loadApplication">
<polygon fill="white" stroke="black" points="208,-24 208,-54 336,-54 336,-24 208,-24"/>
<text text-anchor="start" x="216" y="-42" font-family="Helvetica,sans-Serif" font-size="10.00">org.kde.necessitas.origo.</text>
<text text-anchor="middle" x="272" y="-31" font-family="Helvetica,sans-Serif" font-size="10.00">QtActivity.loadApplication</text>
</a>
</g>
</g>
<!-- Node1&#45;&gt;Node2 -->
<g id="edge1" class="edge"><title>Node1&#45;&gt;Node2</title>
<path fill="none" stroke="midnightblue" d="M182.438,-39C191.102,-39 199.725,-39 207.999,-39"/>
<polygon fill="midnightblue" stroke="midnightblue" points="182.267,-35.5001 172.267,-39 182.267,-42.5001 182.267,-35.5001"/>
</g>
<!-- Node3 -->
<g id="node3" class="node"><title>Node3</title>
<g id="a_node3"><a xlink:href="../../db/d37/classorg_1_1kde_1_1necessitas_1_1origo_1_1_qt_activity.html#af3924b311d2966d6c7e48122899d3c35" target="_top" xlink:title="org.kde.necessitas.origo.\lQtActivity.startApp">
<polygon fill="white" stroke="black" points="372,-24 372,-54 498,-54 498,-24 372,-24"/>
<text text-anchor="start" x="380" y="-42" font-family="Helvetica,sans-Serif" font-size="10.00">org.kde.necessitas.origo.</text>
<text text-anchor="middle" x="435" y="-31" font-family="Helvetica,sans-Serif" font-size="10.00">QtActivity.startApp</text>
</a>
</g>
</g>
<!-- Node2&#45;&gt;Node3 -->
<g id="edge2" class="edge"><title>Node2&#45;&gt;Node3</title>
<path fill="none" stroke="midnightblue" d="M346.433,-39C354.912,-39 363.495,-39 371.804,-39"/>
<polygon fill="midnightblue" stroke="midnightblue" points="346.169,-35.5001 336.169,-39 346.169,-42.5001 346.169,-35.5001"/>
</g>
<!-- Node4 -->
<g id="node4" class="node"><title>Node4</title>
<g id="a_node4"><a xlink:href="../../db/d37/classorg_1_1kde_1_1necessitas_1_1origo_1_1_qt_activity.html#a8b40da707524bfa95b2f7f6b69ada582" target="_top" xlink:title="org.kde.necessitas.origo.\lQtActivity.onActivityResult">
<polygon fill="white" stroke="black" points="534.5,-49 534.5,-79 665.5,-79 665.5,-49 534.5,-49"/>
<text text-anchor="start" x="542.5" y="-67" font-family="Helvetica,sans-Serif" font-size="10.00">org.kde.necessitas.origo.</text>
<text text-anchor="middle" x="600" y="-56" font-family="Helvetica,sans-Serif" font-size="10.00">QtActivity.onActivityResult</text>
</a>
</g>
</g>
<!-- Node3&#45;&gt;Node4 -->
<g id="edge3" class="edge"><title>Node3&#45;&gt;Node4</title>
<path fill="none" stroke="midnightblue" d="M508.223,-50.0771C516.933,-51.413 525.786,-52.7708 534.377,-54.0885"/>
<polygon fill="midnightblue" stroke="midnightblue" points="508.503,-46.5793 498.088,-48.5227 507.442,-53.4984 508.503,-46.5793"/>
</g>
<!-- Node5 -->
<g id="node5" class="node"><title>Node5</title>
<g id="a_node5"><a xlink:href="../../db/d37/classorg_1_1kde_1_1necessitas_1_1origo_1_1_qt_activity.html#a1698da7cf3dc0ff8e1180f301e2ef1b0" target="_top" xlink:title="org.kde.necessitas.origo.\lQtActivity.onCreate">
<polygon fill="white" stroke="black" points="537,-0 537,-30 663,-30 663,-0 537,-0"/>
<text text-anchor="start" x="545" y="-18" font-family="Helvetica,sans-Serif" font-size="10.00">org.kde.necessitas.origo.</text>
<text text-anchor="middle" x="600" y="-7" font-family="Helvetica,sans-Serif" font-size="10.00">QtActivity.onCreate</text>
</a>
</g>
</g>
<!-- Node3&#45;&gt;Node5 -->
<g id="edge4" class="edge"><title>Node3&#45;&gt;Node5</title>
<path fill="none" stroke="midnightblue" d="M508.01,-28.3973C517.614,-26.9832 527.397,-25.5428 536.814,-24.1562"/>
<polygon fill="midnightblue" stroke="midnightblue" points="507.472,-24.9387 498.088,-29.8582 508.492,-31.8641 507.472,-24.9387"/>
</g>
</g>
</svg>
