<?xml version="1.0" encoding="UTF-8" standalone="no"?>
<!DOCTYPE svg PUBLIC "-//W3C//DTD SVG 1.1//EN"
 "http://www.w3.org/Graphics/SVG/1.1/DTD/svg11.dtd">
<!-- Generated by graphviz version 2.30.1 (20130303.0817)
 -->
<!-- Title: org.kde.necessitas.ministro.IMinistro Pages: 1 -->
<svg width="326pt" height="322pt"
 viewBox="0.00 0.00 326.00 322.00" xmlns="http://www.w3.org/2000/svg" xmlns:xlink="http://www.w3.org/1999/xlink">
<g id="graph0" class="graph" transform="scale(1 1) rotate(0) translate(4 318)">
<title>org.kde.necessitas.ministro.IMinistro</title>
<polygon fill="white" stroke="white" points="-4,5 -4,-318 323,-318 323,5 -4,5"/>
<!-- Node1 -->
<g id="node1" class="node"><title>Node1</title>
<polygon fill="#bfbfbf" stroke="black" points="94,-151 94,-219 234,-219 234,-151 94,-151"/>
<text text-anchor="start" x="102" y="-207" font-family="Helvetica,sans-Serif" font-size="10.00">org.kde.necessitas.ministro.</text>
<text text-anchor="middle" x="164" y="-196" font-family="Helvetica,sans-Serif" font-size="10.00">IMinistro</text>
<polyline fill="none" stroke="black" points="94,-189 234,-189 "/>
<text text-anchor="middle" x="164" y="-177" font-family="Helvetica,sans-Serif" font-size="10.00"> </text>
<polyline fill="none" stroke="black" points="94,-170 234,-170 "/>
<text text-anchor="start" x="102" y="-158" font-family="Helvetica,sans-Serif" font-size="10.00">+ requestLoader()</text>
</g>
<!-- Node3 -->
<g id="node3" class="node"><title>Node3</title>
<polygon fill="white" stroke="#bfbfbf" points="0,-1 0,-113 160,-113 160,-1 0,-1"/>
<text text-anchor="start" x="8" y="-101" font-family="Helvetica,sans-Serif" font-size="10.00">org.kde.necessitas.ministro.</text>
<text text-anchor="middle" x="80" y="-90" font-family="Helvetica,sans-Serif" font-size="10.00">IMinistro.Stub</text>
<polyline fill="none" stroke="#bfbfbf" points="0,-83 160,-83 "/>
<text text-anchor="start" x="8" y="-71" font-family="Helvetica,sans-Serif" font-size="10.00">~ TRANSACTION_requestLoader</text>
<text text-anchor="start" x="8" y="-60" font-family="Helvetica,sans-Serif" font-size="10.00">&#45; DESCRIPTOR</text>
<polyline fill="none" stroke="#bfbfbf" points="0,-53 160,-53 "/>
<text text-anchor="start" x="8" y="-41" font-family="Helvetica,sans-Serif" font-size="10.00">+ Stub()</text>
<text text-anchor="start" x="8" y="-30" font-family="Helvetica,sans-Serif" font-size="10.00">+ asBinder()</text>
<text text-anchor="start" x="8" y="-19" font-family="Helvetica,sans-Serif" font-size="10.00">+ onTransact()</text>
<text text-anchor="start" x="8" y="-8" font-family="Helvetica,sans-Serif" font-size="10.00">+ asInterface()</text>
</g>
<!-- Node1&#45;&gt;Node3 -->
<g id="edge2" class="edge"><title>Node1&#45;&gt;Node3</title>
<path fill="none" stroke="midnightblue" d="M136.358,-142.537C130.123,-133.184 123.408,-123.113 116.863,-113.294"/>
<polygon fill="none" stroke="midnightblue" points="133.471,-144.516 141.93,-150.895 139.295,-140.633 133.471,-144.516"/>
</g>
<!-- Node4 -->
<g id="node4" class="node"><title>Node4</title>
<polygon fill="white" stroke="#bfbfbf" points="178,-6.5 178,-107.5 318,-107.5 318,-6.5 178,-6.5"/>
<text text-anchor="start" x="186" y="-95.5" font-family="Helvetica,sans-Serif" font-size="10.00">org.kde.necessitas.ministro.</text>
<text text-anchor="middle" x="248" y="-84.5" font-family="Helvetica,sans-Serif" font-size="10.00">IMinistro.Stub.Proxy</text>
<polyline fill="none" stroke="#bfbfbf" points="178,-77.5 318,-77.5 "/>
<text text-anchor="start" x="186" y="-65.5" font-family="Helvetica,sans-Serif" font-size="10.00">&#45; mRemote</text>
<polyline fill="none" stroke="#bfbfbf" points="178,-58.5 318,-58.5 "/>
<text text-anchor="start" x="186" y="-46.5" font-family="Helvetica,sans-Serif" font-size="10.00">+ asBinder()</text>
<text text-anchor="start" x="186" y="-35.5" font-family="Helvetica,sans-Serif" font-size="10.00">+ getInterfaceDescriptor()</text>
<text text-anchor="start" x="186" y="-24.5" font-family="Helvetica,sans-Serif" font-size="10.00">+ requestLoader()</text>
<text text-anchor="start" x="186" y="-13.5" font-family="Helvetica,sans-Serif" font-size="10.00">~ Proxy()</text>
</g>
<!-- Node1&#45;&gt;Node4 -->
<g id="edge3" class="edge"><title>Node1&#45;&gt;Node4</title>
<path fill="none" stroke="midnightblue" d="M191.787,-142.319C199.116,-131.325 207.1,-119.35 214.688,-107.968"/>
<polygon fill="none" stroke="midnightblue" points="188.705,-140.633 186.07,-150.895 194.529,-144.516 188.705,-140.633"/>
</g>
<!-- Node2 -->
<g id="node2" class="node"><title>Node2</title>
<polygon fill="white" stroke="#bfbfbf" points="136,-256.5 136,-313.5 192,-313.5 192,-256.5 136,-256.5"/>
<text text-anchor="middle" x="164" y="-301.5" font-family="Helvetica,sans-Serif" font-size="10.00">IInterface</text>
<polyline fill="none" stroke="#bfbfbf" points="136,-294.5 192,-294.5 "/>
<text text-anchor="middle" x="164" y="-282.5" font-family="Helvetica,sans-Serif" font-size="10.00"> </text>
<polyline fill="none" stroke="#bfbfbf" points="136,-275.5 192,-275.5 "/>
<text text-anchor="middle" x="164" y="-263.5" font-family="Helvetica,sans-Serif" font-size="10.00"> </text>
</g>
<!-- Node2&#45;&gt;Node1 -->
<g id="edge1" class="edge"><title>Node2&#45;&gt;Node1</title>
<path fill="none" stroke="midnightblue" d="M164,-246.302C164,-237.395 164,-227.961 164,-219.266"/>
<polygon fill="none" stroke="midnightblue" points="160.5,-246.441 164,-256.441 167.5,-246.441 160.5,-246.441"/>
</g>
</g>
</svg>
