<?xml version="1.0" encoding="UTF-8" standalone="no"?>
<!DOCTYPE svg PUBLIC "-//W3C//DTD SVG 1.1//EN"
 "http://www.w3.org/Graphics/SVG/1.1/DTD/svg11.dtd">
<!-- Generated by graphviz version 2.30.1 (20130303.0817)
 -->
<!-- Title: QtJson::serialize Pages: 1 -->
<svg width="1226pt" height="701pt"
 viewBox="0.00 0.00 1226.00 701.23" xmlns="http://www.w3.org/2000/svg" xmlns:xlink="http://www.w3.org/1999/xlink">
<g id="graph0" class="graph" transform="scale(1 1) rotate(0) translate(4 697.233)">
<title>QtJson::serialize</title>
<polygon fill="white" stroke="white" points="-4,5 -4,-697.233 1223,-697.233 1223,5 -4,5"/>
<!-- Node1 -->
<g id="node1" class="node"><title>Node1</title>
<polygon fill="#bfbfbf" stroke="black" points="0.5,-450.733 0.5,-469.733 89.5,-469.733 89.5,-450.733 0.5,-450.733"/>
<text text-anchor="middle" x="45" y="-457.733" font-family="Helvetica,sans-Serif" font-size="10.00">QtJson::serialize</text>
</g>
<!-- Node2 -->
<g id="node2" class="node"><title>Node2</title>
<g id="a_node2"><a xlink:href="../../d2/d6d/namespace_qt_json.html#a1ff5b8ee653a95a99a35ccff4c347a4c" target="_top" xlink:title="QtJson::serialize">
<polygon fill="white" stroke="black" points="150.5,-472.733 150.5,-491.733 239.5,-491.733 239.5,-472.733 150.5,-472.733"/>
<text text-anchor="middle" x="195" y="-479.733" font-family="Helvetica,sans-Serif" font-size="10.00">QtJson::serialize</text>
</a>
</g>
</g>
<!-- Node1&#45;&gt;Node2 -->
<g id="edge1" class="edge"><title>Node1&#45;&gt;Node2</title>
<path fill="none" stroke="midnightblue" d="M99.7555,-468.223C116.421,-470.7 134.57,-473.398 150.452,-475.759"/>
<polygon fill="midnightblue" stroke="midnightblue" points="100.01,-464.723 89.6044,-466.714 98.9811,-471.647 100.01,-464.723"/>
</g>
<!-- Node3 -->
<g id="node3" class="node"><title>Node3</title>
<g id="a_node3"><a xlink:href="../../d2/dc1/class_k4_u_1_1json_command.html#a0b681a1fedfb2e89397b1f71e29edf78" target="_top" xlink:title="Transforms this object to a nice JSON string.">
<polygon fill="white" stroke="black" points="126,-423.233 126,-453.233 264,-453.233 264,-423.233 126,-423.233"/>
<text text-anchor="start" x="134" y="-441.233" font-family="Helvetica,sans-Serif" font-size="10.00">K4U::jsonCommand::toJson</text>
<text text-anchor="middle" x="195" y="-430.233" font-family="Helvetica,sans-Serif" font-size="10.00">String</text>
</a>
</g>
</g>
<!-- Node1&#45;&gt;Node3 -->
<g id="edge2" class="edge"><title>Node1&#45;&gt;Node3</title>
<path fill="none" stroke="midnightblue" d="M99.7722,-452.239C108.293,-450.973 117.202,-449.648 125.997,-448.341"/>
<polygon fill="midnightblue" stroke="midnightblue" points="98.9811,-448.818 89.6044,-453.751 100.01,-455.742 98.9811,-448.818"/>
</g>
<!-- Node4 -->
<g id="node4" class="node"><title>Node4</title>
<g id="a_node4"><a xlink:href="../../d3/d65/classclient_1_1cls_server_conn.html#a997f9cd3d63321807f60472308acc459" target="_top" xlink:title="Send a JSON command to the server.">
<polygon fill="white" stroke="black" points="301,-565.233 301,-595.233 409,-595.233 409,-565.233 301,-565.233"/>
<text text-anchor="start" x="309" y="-583.233" font-family="Helvetica,sans-Serif" font-size="10.00">client::clsServerConn</text>
<text text-anchor="middle" x="355" y="-572.233" font-family="Helvetica,sans-Serif" font-size="10.00">::sendCommand</text>
</a>
</g>
</g>
<!-- Node3&#45;&gt;Node4 -->
<g id="edge3" class="edge"><title>Node3&#45;&gt;Node4</title>
<path fill="none" stroke="midnightblue" d="M256.091,-458.073C258.842,-459.675 261.496,-461.393 264,-463.233 302.411,-491.457 332.516,-540.431 346.108,-565.104"/>
<polygon fill="midnightblue" stroke="midnightblue" points="257.519,-454.871 247.034,-453.344 254.278,-461.075 257.519,-454.871"/>
</g>
<!-- Node10 -->
<g id="node10" class="node"><title>Node10</title>
<g id="a_node10"><a xlink:href="../../df/dd2/classserver_1_1ui_server.html#ab9e9ed944311c42f019c645c3e0539cf" target="_top" xlink:title="Sends a jsonCommand to all the clients.">
<polygon fill="white" stroke="black" points="300,-236.733 300,-255.733 410,-255.733 410,-236.733 300,-236.733"/>
<text text-anchor="middle" x="355" y="-243.733" font-family="Helvetica,sans-Serif" font-size="10.00">server::uiServer::send</text>
</a>
</g>
</g>
<!-- Node3&#45;&gt;Node10 -->
<g id="edge12" class="edge"><title>Node3&#45;&gt;Node10</title>
<path fill="none" stroke="midnightblue" d="M214.793,-415.396C249.422,-373.315 321.965,-285.161 346.043,-255.902"/>
<polygon fill="midnightblue" stroke="midnightblue" points="212.05,-413.221 208.398,-423.167 217.455,-417.669 212.05,-413.221"/>
</g>
<!-- Node5 -->
<g id="node5" class="node"><title>Node5</title>
<g id="a_node5"><a xlink:href="../../d2/da4/classclient_1_1_main_window.html#aa32adfb179341040f2decbd0da19f1d9" target="_top" xlink:title="client::MainWindow\l::sendChat">
<polygon fill="white" stroke="black" points="474.5,-565.233 474.5,-595.233 575.5,-595.233 575.5,-565.233 474.5,-565.233"/>
<text text-anchor="start" x="482.5" y="-583.233" font-family="Helvetica,sans-Serif" font-size="10.00">client::MainWindow</text>
<text text-anchor="middle" x="525" y="-572.233" font-family="Helvetica,sans-Serif" font-size="10.00">::sendChat</text>
</a>
</g>
</g>
<!-- Node4&#45;&gt;Node5 -->
<g id="edge4" class="edge"><title>Node4&#45;&gt;Node5</title>
<path fill="none" stroke="midnightblue" d="M419.38,-580.233C437.558,-580.233 457.109,-580.233 474.333,-580.233"/>
<polygon fill="midnightblue" stroke="midnightblue" points="419.156,-576.733 409.156,-580.233 419.156,-583.733 419.156,-576.733"/>
</g>
<!-- Node7 -->
<g id="node7" class="node"><title>Node7</title>
<g id="a_node7"><a xlink:href="../../d2/da4/classclient_1_1_main_window.html#a75d241698eb127c089ed4703fbeb4999" target="_top" xlink:title="client::MainWindow\l::commandGiven">
<polygon fill="white" stroke="black" points="474.5,-516.233 474.5,-546.233 575.5,-546.233 575.5,-516.233 474.5,-516.233"/>
<text text-anchor="start" x="482.5" y="-534.233" font-family="Helvetica,sans-Serif" font-size="10.00">client::MainWindow</text>
<text text-anchor="middle" x="525" y="-523.233" font-family="Helvetica,sans-Serif" font-size="10.00">::commandGiven</text>
</a>
</g>
</g>
<!-- Node4&#45;&gt;Node7 -->
<g id="edge6" class="edge"><title>Node4&#45;&gt;Node7</title>
<path fill="none" stroke="midnightblue" d="M417.413,-562.32C436.166,-556.851 456.542,-550.908 474.407,-545.697"/>
<polygon fill="midnightblue" stroke="midnightblue" points="416.396,-558.971 407.776,-565.131 418.356,-565.691 416.396,-558.971"/>
</g>
<!-- Node8 -->
<g id="node8" class="node"><title>Node8</title>
<g id="a_node8"><a xlink:href="../../d2/da4/classclient_1_1_main_window.html#aae9222490d9f0d71ffa6585c35416bfb" target="_top" xlink:title="client::MainWindow\l::serverConnected">
<polygon fill="white" stroke="black" points="474.5,-663.233 474.5,-693.233 575.5,-693.233 575.5,-663.233 474.5,-663.233"/>
<text text-anchor="start" x="482.5" y="-681.233" font-family="Helvetica,sans-Serif" font-size="10.00">client::MainWindow</text>
<text text-anchor="middle" x="525" y="-670.233" font-family="Helvetica,sans-Serif" font-size="10.00">::serverConnected</text>
</a>
</g>
</g>
<!-- Node4&#45;&gt;Node8 -->
<g id="edge8" class="edge"><title>Node4&#45;&gt;Node8</title>
<path fill="none" stroke="midnightblue" d="M378.304,-602.316C395.548,-618.346 420.68,-639.537 446,-653.233 454.755,-657.968 464.555,-661.983 474.172,-665.318"/>
<polygon fill="midnightblue" stroke="midnightblue" points="380.629,-599.699 370.963,-595.36 375.814,-604.779 380.629,-599.699"/>
</g>
<!-- Node9 -->
<g id="node9" class="node"><title>Node9</title>
<g id="a_node9"><a xlink:href="../../d2/da4/classclient_1_1_main_window.html#a13044cd00c53dbbbc6b945c0dfd9b4b4" target="_top" xlink:title="Triggered when the user query came back.">
<polygon fill="white" stroke="black" points="468,-614.233 468,-644.233 582,-644.233 582,-614.233 468,-614.233"/>
<text text-anchor="start" x="476" y="-632.233" font-family="Helvetica,sans-Serif" font-size="10.00">client::MainWindow</text>
<text text-anchor="middle" x="525" y="-621.233" font-family="Helvetica,sans-Serif" font-size="10.00">::userQueryCompleted</text>
</a>
</g>
</g>
<!-- Node4&#45;&gt;Node9 -->
<g id="edge10" class="edge"><title>Node4&#45;&gt;Node9</title>
<path fill="none" stroke="midnightblue" d="M417.601,-598.2C435.601,-603.45 455.082,-609.131 472.395,-614.181"/>
<polygon fill="midnightblue" stroke="midnightblue" points="418.356,-594.774 407.776,-595.334 416.396,-601.494 418.356,-594.774"/>
</g>
<!-- Node6 -->
<g id="node6" class="node"><title>Node6</title>
<g id="a_node6"><a xlink:href="../../d2/da4/classclient_1_1_main_window.html#ab4aedce719340218169c114b31b54f70" target="_top" xlink:title="client::MainWindow\l::MainWindow">
<polygon fill="white" stroke="black" points="671.5,-590.233 671.5,-620.233 772.5,-620.233 772.5,-590.233 671.5,-590.233"/>
<text text-anchor="start" x="679.5" y="-608.233" font-family="Helvetica,sans-Serif" font-size="10.00">client::MainWindow</text>
<text text-anchor="middle" x="722" y="-597.233" font-family="Helvetica,sans-Serif" font-size="10.00">::MainWindow</text>
</a>
</g>
</g>
<!-- Node5&#45;&gt;Node6 -->
<g id="edge5" class="edge"><title>Node5&#45;&gt;Node6</title>
<path fill="none" stroke="midnightblue" d="M585.955,-587.919C613.335,-591.429 645.379,-595.538 671.379,-598.871"/>
<polygon fill="midnightblue" stroke="midnightblue" points="586.075,-584.406 575.711,-586.606 585.185,-591.349 586.075,-584.406"/>
</g>
<!-- Node7&#45;&gt;Node6 -->
<g id="edge7" class="edge"><title>Node7&#45;&gt;Node6</title>
<path fill="none" stroke="midnightblue" d="M584.809,-549.48C591.312,-551.676 597.815,-553.951 604,-556.233 632.409,-566.712 664.053,-580.07 687.262,-590.191"/>
<polygon fill="midnightblue" stroke="midnightblue" points="585.913,-546.158 575.319,-546.327 583.706,-552.801 585.913,-546.158"/>
</g>
<!-- Node8&#45;&gt;Node6 -->
<g id="edge9" class="edge"><title>Node8&#45;&gt;Node6</title>
<path fill="none" stroke="midnightblue" d="M584.51,-660.035C591.11,-657.818 597.717,-655.524 604,-653.233 632.052,-643.001 663.319,-630.094 686.468,-620.241"/>
<polygon fill="midnightblue" stroke="midnightblue" points="583.278,-656.756 574.884,-663.22 585.477,-663.401 583.278,-656.756"/>
</g>
<!-- Node9&#45;&gt;Node6 -->
<g id="edge11" class="edge"><title>Node9&#45;&gt;Node6</title>
<path fill="none" stroke="midnightblue" d="M592.242,-621.08C618.092,-617.898 647.221,-614.313 671.227,-611.359"/>
<polygon fill="midnightblue" stroke="midnightblue" points="591.638,-617.628 582.14,-622.323 592.493,-624.575 591.638,-617.628"/>
</g>
<!-- Node11 -->
<g id="node11" class="node"><title>Node11</title>
<g id="a_node11"><a xlink:href="../../d1/d48/classserver_1_1main_app.html#a0970ee01d48b04ebc1390ffb8edecfc0" target="_top" xlink:title="Triggered when a chat has been received.">
<polygon fill="white" stroke="black" points="846,-126.733 846,-145.733 996,-145.733 996,-126.733 846,-126.733"/>
<text text-anchor="middle" x="921" y="-133.733" font-family="Helvetica,sans-Serif" font-size="10.00">server::mainApp::chatReceived</text>
</a>
</g>
</g>
<!-- Node10&#45;&gt;Node11 -->
<g id="edge13" class="edge"><title>Node10&#45;&gt;Node11</title>
<path fill="none" stroke="midnightblue" d="M376.69,-230.629C394.247,-218.138 420.568,-201.126 446,-191.233 579.956,-139.124 750.058,-132.384 845.783,-133.452"/>
<polygon fill="midnightblue" stroke="midnightblue" points="374.388,-227.976 368.359,-236.688 378.505,-233.637 374.388,-227.976"/>
</g>
<!-- Node14 -->
<g id="node14" class="node"><title>Node14</title>
<g id="a_node14"><a xlink:href="../../d1/d48/classserver_1_1main_app.html#a92448c1219ad89999c983b04adaa4236" target="_top" xlink:title="Triggered when a user joins trough a JOIN message.">
<polygon fill="white" stroke="black" points="652.5,-85.7325 652.5,-104.733 791.5,-104.733 791.5,-85.7325 652.5,-85.7325"/>
<text text-anchor="middle" x="722" y="-92.7325" font-family="Helvetica,sans-Serif" font-size="10.00">server::mainApp::userOnline</text>
</a>
</g>
</g>
<!-- Node10&#45;&gt;Node14 -->
<g id="edge16" class="edge"><title>Node10&#45;&gt;Node14</title>
<path fill="none" stroke="midnightblue" d="M363.401,-226.942C375.67,-197.91 403.199,-143.777 446,-119.233 508.985,-83.1142 593.732,-81.34 652.426,-85.9098"/>
<polygon fill="midnightblue" stroke="midnightblue" points="360.08,-225.818 359.571,-236.401 366.568,-228.446 360.08,-225.818"/>
</g>
<!-- Node15 -->
<g id="node15" class="node"><title>Node15</title>
<g id="a_node15"><a xlink:href="../../d1/d48/classserver_1_1main_app.html#aae86b15c001a235de78a90334e697b5f" target="_top" xlink:title="Triggered when a user leaves trough a PART message.">
<polygon fill="white" stroke="black" points="852,-48.7325 852,-67.7325 990,-67.7325 990,-48.7325 852,-48.7325"/>
<text text-anchor="middle" x="921" y="-55.7325" font-family="Helvetica,sans-Serif" font-size="10.00">server::mainApp::userOffline</text>
</a>
</g>
</g>
<!-- Node10&#45;&gt;Node15 -->
<g id="edge18" class="edge"><title>Node10&#45;&gt;Node15</title>
<path fill="none" stroke="midnightblue" d="M360.048,-226.637C368.683,-190.429 392.643,-113.698 446,-80.2325 511.689,-39.0321 737.081,-46.529 851.779,-53.3827"/>
<polygon fill="midnightblue" stroke="midnightblue" points="356.613,-225.956 357.844,-236.479 363.444,-227.486 356.613,-225.956"/>
</g>
<!-- Node16 -->
<g id="node16" class="node"><title>Node16</title>
<g id="a_node16"><a xlink:href="../../d1/d48/classserver_1_1main_app.html#ae15deb9260c486854af7fac7b063fdf5" target="_top" xlink:title="Triggered when a user changes his nickname (nick|Status)">
<polygon fill="white" stroke="black" points="640,-9.73254 640,-28.7325 804,-28.7325 804,-9.73254 640,-9.73254"/>
<text text-anchor="middle" x="722" y="-16.7325" font-family="Helvetica,sans-Serif" font-size="10.00">server::mainApp::userChangeNick</text>
</a>
</g>
</g>
<!-- Node10&#45;&gt;Node16 -->
<g id="edge20" class="edge"><title>Node10&#45;&gt;Node16</title>
<path fill="none" stroke="midnightblue" d="M358.213,-226.437C364.045,-184.635 383.931,-87.5693 446,-43.2325 512.783,4.47144 613.277,-0.907581 672.495,-9.6973"/>
<polygon fill="midnightblue" stroke="midnightblue" points="354.729,-226.097 356.942,-236.458 361.673,-226.978 354.729,-226.097"/>
</g>
<!-- Node17 -->
<g id="node17" class="node"><title>Node17</title>
<g id="a_node17"><a xlink:href="../../d1/d48/classserver_1_1main_app.html#aaa3dd74b510e2d797f21293a622a4f7d" target="_top" xlink:title="Triggered when a user changes his status (nick|Status)">
<polygon fill="white" stroke="black" points="849,-470.233 849,-500.233 993,-500.233 993,-470.233 849,-470.233"/>
<text text-anchor="start" x="857" y="-488.233" font-family="Helvetica,sans-Serif" font-size="10.00">server::mainApp::userChange</text>
<text text-anchor="middle" x="921" y="-477.233" font-family="Helvetica,sans-Serif" font-size="10.00">Status</text>
</a>
</g>
</g>
<!-- Node10&#45;&gt;Node17 -->
<g id="edge22" class="edge"><title>Node10&#45;&gt;Node17</title>
<path fill="none" stroke="midnightblue" d="M357.665,-266.243C362.48,-309.853 380.588,-413.231 446,-459.233 509.032,-503.56 732.897,-497.001 848.996,-490.245"/>
<polygon fill="midnightblue" stroke="midnightblue" points="361.127,-265.679 356.669,-256.068 354.16,-266.361 361.127,-265.679"/>
</g>
<!-- Node18 -->
<g id="node18" class="node"><title>Node18</title>
<g id="a_node18"><a xlink:href="../../d1/d48/classserver_1_1main_app.html#aea819e4b8f297de7f1e3fc2f8513b0a4" target="_top" xlink:title="Triggered when a UI client wants all the users.">
<polygon fill="white" stroke="black" points="647.5,-439.733 647.5,-458.733 796.5,-458.733 796.5,-439.733 647.5,-439.733"/>
<text text-anchor="middle" x="722" y="-446.733" font-family="Helvetica,sans-Serif" font-size="10.00">server::mainApp::doUserQuery</text>
</a>
</g>
</g>
<!-- Node10&#45;&gt;Node18 -->
<g id="edge24" class="edge"><title>Node10&#45;&gt;Node18</title>
<path fill="none" stroke="midnightblue" d="M359.469,-266.06C367.297,-304.207 390.193,-387.381 446,-425.233 512.434,-470.292 609.662,-466.661 668.946,-458.766"/>
<polygon fill="midnightblue" stroke="midnightblue" points="362.893,-265.33 357.575,-256.167 356.018,-266.646 362.893,-265.33"/>
</g>
<!-- Node19 -->
<g id="node19" class="node"><title>Node19</title>
<g id="a_node19"><a xlink:href="../../d1/d48/classserver_1_1main_app.html#aba9c03c1c353a57f43404bb149bee50b" target="_top" xlink:title="Triggered when a UI client wants all the events known to the server.">
<polygon fill="white" stroke="black" points="843.5,-390.733 843.5,-409.733 998.5,-409.733 998.5,-390.733 843.5,-390.733"/>
<text text-anchor="middle" x="921" y="-397.733" font-family="Helvetica,sans-Serif" font-size="10.00">server::mainApp::doSendEvents</text>
</a>
</g>
</g>
<!-- Node10&#45;&gt;Node19 -->
<g id="edge26" class="edge"><title>Node10&#45;&gt;Node19</title>
<path fill="none" stroke="midnightblue" d="M377.167,-261.586C422.559,-293.46 533.781,-366.018 640,-392.233 707.28,-408.837 786.416,-409.435 843.363,-406.701"/>
<polygon fill="midnightblue" stroke="midnightblue" points="379.168,-258.714 368.988,-255.779 375.116,-264.422 379.168,-258.714"/>
</g>
<!-- Node20 -->
<g id="node20" class="node"><title>Node20</title>
<g id="a_node20"><a xlink:href="../../d1/d48/classserver_1_1main_app.html#a7263ca5b3630b0a2774f556b96c333c8" target="_top" xlink:title="For logging to the clients.">
<polygon fill="white" stroke="black" points="446,-268.733 446,-287.733 604,-287.733 604,-268.733 446,-268.733"/>
<text text-anchor="middle" x="525" y="-275.733" font-family="Helvetica,sans-Serif" font-size="10.00">server::mainApp::serverMessage</text>
</a>
</g>
</g>
<!-- Node10&#45;&gt;Node20 -->
<g id="edge28" class="edge"><title>Node10&#45;&gt;Node20</title>
<path fill="none" stroke="midnightblue" d="M415.988,-257.659C434.971,-261.275 455.741,-265.231 473.952,-268.7"/>
<polygon fill="midnightblue" stroke="midnightblue" points="416.429,-254.18 405.951,-255.747 415.119,-261.056 416.429,-254.18"/>
</g>
<!-- Node25 -->
<g id="node25" class="node"><title>Node25</title>
<g id="a_node25"><a xlink:href="../../df/dd2/classserver_1_1ui_server.html#a1d221672f6efb29189e6ce398f7b07e3" target="_top" xlink:title="Triggered when a client wants to change something about our own user.">
<polygon fill="white" stroke="black" points="465,-200.233 465,-230.233 585,-230.233 585,-200.233 465,-200.233"/>
<text text-anchor="start" x="473" y="-218.233" font-family="Helvetica,sans-Serif" font-size="10.00">server::uiServer::change</text>
<text text-anchor="middle" x="525" y="-207.233" font-family="Helvetica,sans-Serif" font-size="10.00">OwnUser</text>
</a>
</g>
</g>
<!-- Node10&#45;&gt;Node25 -->
<g id="edge39" class="edge"><title>Node10&#45;&gt;Node25</title>
<path fill="none" stroke="midnightblue" d="M417.697,-234.848C433.066,-232.012 449.508,-228.978 464.756,-226.165"/>
<polygon fill="midnightblue" stroke="midnightblue" points="416.975,-231.422 407.776,-236.679 418.245,-238.306 416.975,-231.422"/>
</g>
<!-- Node12 -->
<g id="node12" class="node"><title>Node12</title>
<g id="a_node12"><a xlink:href="../../d1/d48/classserver_1_1main_app.html#af331bc3bf60e745f3ddc95ab3abe5188" target="_top" xlink:title="server::mainApp::run">
<polygon fill="white" stroke="black" points="1038,-249.733 1038,-268.733 1144,-268.733 1144,-249.733 1038,-249.733"/>
<text text-anchor="middle" x="1091" y="-256.733" font-family="Helvetica,sans-Serif" font-size="10.00">server::mainApp::run</text>
</a>
</g>
</g>
<!-- Node11&#45;&gt;Node12 -->
<g id="edge14" class="edge"><title>Node11&#45;&gt;Node12</title>
<path fill="none" stroke="midnightblue" d="M983.706,-149.179C990.117,-151.69 996.347,-154.678 1002,-158.233 1040.79,-182.617 1071.99,-229.282 1084.31,-249.497"/>
<polygon fill="midnightblue" stroke="midnightblue" points="984.823,-145.862 974.228,-145.832 982.492,-152.462 984.823,-145.862"/>
</g>
<!-- Node13 -->
<g id="node13" class="node"><title>Node13</title>
<g id="a_node13"><a xlink:href="../../dc/d17/custom_irc_server_2main_8cpp.html#a0ddf1224851353fc92bfbff6f499fa97" target="_top" xlink:title="main">
<polygon fill="white" stroke="black" points="1180,-249.733 1180,-268.733 1218,-268.733 1218,-249.733 1180,-249.733"/>
<text text-anchor="middle" x="1199" y="-256.733" font-family="Helvetica,sans-Serif" font-size="10.00">main</text>
</a>
</g>
</g>
<!-- Node12&#45;&gt;Node13 -->
<g id="edge15" class="edge"><title>Node12&#45;&gt;Node13</title>
<path fill="none" stroke="midnightblue" d="M1154.21,-259.233C1163.46,-259.233 1172.33,-259.233 1179.64,-259.233"/>
<polygon fill="midnightblue" stroke="midnightblue" points="1154.07,-255.733 1144.07,-259.233 1154.07,-262.733 1154.07,-255.733"/>
</g>
<!-- Node14&#45;&gt;Node12 -->
<g id="edge17" class="edge"><title>Node14&#45;&gt;Node12</title>
<path fill="none" stroke="midnightblue" d="M788.402,-84.5629C848.4,-78.2429 937.482,-77.9114 1002,-117.233 1053.51,-148.628 1079.41,-222.748 1087.31,-249.439"/>
<polygon fill="midnightblue" stroke="midnightblue" points="787.831,-81.1051 778.291,-85.7133 788.623,-88.0602 787.831,-81.1051"/>
</g>
<!-- Node15&#45;&gt;Node12 -->
<g id="edge19" class="edge"><title>Node15&#45;&gt;Node12</title>
<path fill="none" stroke="midnightblue" d="M983.197,-71.55C989.982,-74.6621 996.438,-78.4999 1002,-83.2325 1057.16,-130.167 1081.31,-220.065 1087.98,-249.582"/>
<polygon fill="midnightblue" stroke="midnightblue" points="984.375,-68.2511 973.792,-67.7404 981.747,-74.739 984.375,-68.2511"/>
</g>
<!-- Node16&#45;&gt;Node12 -->
<g id="edge21" class="edge"><title>Node16&#45;&gt;Node12</title>
<path fill="none" stroke="midnightblue" d="M774.579,-7.8565C835.117,2.37169 935.648,9.24005 1002,-39.2325 1074.41,-92.1329 1087.31,-214.472 1089.55,-249.626"/>
<polygon fill="midnightblue" stroke="midnightblue" points="773.719,-4.45457 764.488,-9.65531 774.948,-11.3459 773.719,-4.45457"/>
</g>
<!-- Node17&#45;&gt;Node12 -->
<g id="edge23" class="edge"><title>Node17&#45;&gt;Node12</title>
<path fill="none" stroke="midnightblue" d="M986.725,-465.481C992.253,-462.259 997.458,-458.535 1002,-454.233 1059.71,-399.574 1082.43,-300.033 1088.33,-268.843"/>
<polygon fill="midnightblue" stroke="midnightblue" points="985.059,-462.402 977.821,-470.139 988.304,-468.605 985.059,-462.402"/>
</g>
<!-- Node18&#45;&gt;Node12 -->
<g id="edge25" class="edge"><title>Node18&#45;&gt;Node12</title>
<path fill="none" stroke="midnightblue" d="M803.636,-459.398C863.25,-462.714 943.834,-457.97 1002,-419.233 1057.67,-382.154 1081.35,-297.503 1087.96,-268.889"/>
<polygon fill="midnightblue" stroke="midnightblue" points="803.712,-455.896 793.508,-458.746 803.263,-462.881 803.712,-455.896"/>
</g>
<!-- Node19&#45;&gt;Node12 -->
<g id="edge27" class="edge"><title>Node19&#45;&gt;Node12</title>
<path fill="none" stroke="midnightblue" d="M971.307,-387.234C981.998,-383.12 992.836,-377.862 1002,-371.233 1042.07,-342.243 1073.24,-290.19 1084.96,-268.804"/>
<polygon fill="midnightblue" stroke="midnightblue" points="969.828,-384.045 961.582,-390.697 972.176,-390.64 969.828,-384.045"/>
</g>
<!-- Node20&#45;&gt;Node12 -->
<g id="edge29" class="edge"><title>Node20&#45;&gt;Node12</title>
<path fill="none" stroke="midnightblue" d="M596.835,-267.182C611.11,-265.092 626.023,-263.008 640,-261.233 799.875,-240.928 841.751,-223.13 1002,-240.233 1019.41,-242.09 1038.43,-245.959 1054.32,-249.724"/>
<polygon fill="midnightblue" stroke="midnightblue" points="595.955,-263.774 586.575,-268.7 596.979,-270.699 595.955,-263.774"/>
</g>
<!-- Node21 -->
<g id="node21" class="node"><title>Node21</title>
<g id="a_node21"><a xlink:href="../../d1/d48/classserver_1_1main_app.html#a931aedd34bb38252acfc8880f9716fab" target="_top" xlink:title="Triggered when the IRC client cannot connect.">
<polygon fill="white" stroke="black" points="851.5,-288.233 851.5,-318.233 990.5,-318.233 990.5,-288.233 851.5,-288.233"/>
<text text-anchor="start" x="859.5" y="-306.233" font-family="Helvetica,sans-Serif" font-size="10.00">server::mainApp::ircConnect</text>
<text text-anchor="middle" x="921" y="-295.233" font-family="Helvetica,sans-Serif" font-size="10.00">TimeOut</text>
</a>
</g>
</g>
<!-- Node20&#45;&gt;Node21 -->
<g id="edge30" class="edge"><title>Node20&#45;&gt;Node21</title>
<path fill="none" stroke="midnightblue" d="M557.131,-291.64C579.668,-300.59 611.119,-311.546 640,-316.233 711.452,-327.828 794.404,-321.559 851.368,-314.271"/>
<polygon fill="midnightblue" stroke="midnightblue" points="558.33,-288.349 547.748,-287.825 555.694,-294.834 558.33,-288.349"/>
</g>
<!-- Node22 -->
<g id="node22" class="node"><title>Node22</title>
<g id="a_node22"><a xlink:href="../../d1/d48/classserver_1_1main_app.html#a6e6e952e3048cfeefcdfeea7bbb5b83e" target="_top" xlink:title="Triggered when the IRC client has connected.">
<polygon fill="white" stroke="black" points="647.5,-363.733 647.5,-382.733 796.5,-382.733 796.5,-363.733 647.5,-363.733"/>
<text text-anchor="middle" x="722" y="-370.733" font-family="Helvetica,sans-Serif" font-size="10.00">server::mainApp::ircConnected</text>
</a>
</g>
</g>
<!-- Node20&#45;&gt;Node22 -->
<g id="edge32" class="edge"><title>Node20&#45;&gt;Node22</title>
<path fill="none" stroke="midnightblue" d="M547.004,-293.738C569.176,-309.51 605.609,-333.77 640,-349.233 652.976,-355.067 667.747,-359.925 681.091,-363.71"/>
<polygon fill="midnightblue" stroke="midnightblue" points="548.853,-290.756 538.695,-287.747 544.76,-296.434 548.853,-290.756"/>
</g>
<!-- Node23 -->
<g id="node23" class="node"><title>Node23</title>
<g id="a_node23"><a xlink:href="../../d1/d48/classserver_1_1main_app.html#af6e8c9d1f06514b33e5f88f9e66884be" target="_top" xlink:title="Triggered when the IRC client has disconnected.">
<polygon fill="white" stroke="black" points="840,-249.733 840,-268.733 1002,-268.733 1002,-249.733 840,-249.733"/>
<text text-anchor="middle" x="921" y="-256.733" font-family="Helvetica,sans-Serif" font-size="10.00">server::mainApp::ircDisconnected</text>
</a>
</g>
</g>
<!-- Node20&#45;&gt;Node23 -->
<g id="edge34" class="edge"><title>Node20&#45;&gt;Node23</title>
<path fill="none" stroke="midnightblue" d="M614.516,-273.964C682.084,-270.706 774.394,-266.254 839.808,-263.1"/>
<polygon fill="midnightblue" stroke="midnightblue" points="614.133,-270.478 604.313,-274.456 614.47,-277.47 614.133,-270.478"/>
</g>
<!-- Node24 -->
<g id="node24" class="node"><title>Node24</title>
<g id="a_node24"><a xlink:href="../../d1/d48/classserver_1_1main_app.html#aa9d4c2e1dc5216901c4f8743838d4561" target="_top" xlink:title="Emitted when the reconnect timer reaches 0.">
<polygon fill="white" stroke="black" points="642,-287.733 642,-306.733 802,-306.733 802,-287.733 642,-287.733"/>
<text text-anchor="middle" x="722" y="-294.733" font-family="Helvetica,sans-Serif" font-size="10.00">server::mainApp::doIrcReconnect</text>
</a>
</g>
</g>
<!-- Node20&#45;&gt;Node24 -->
<g id="edge36" class="edge"><title>Node20&#45;&gt;Node24</title>
<path fill="none" stroke="midnightblue" d="M614.145,-286.821C623.375,-287.72 632.717,-288.631 641.838,-289.519"/>
<polygon fill="midnightblue" stroke="midnightblue" points="614.483,-283.337 604.19,-285.851 613.804,-290.304 614.483,-283.337"/>
</g>
<!-- Node21&#45;&gt;Node12 -->
<g id="edge31" class="edge"><title>Node21&#45;&gt;Node12</title>
<path fill="none" stroke="midnightblue" d="M989.313,-285.603C1011.3,-279.845 1034.87,-273.671 1053.68,-268.745"/>
<polygon fill="midnightblue" stroke="midnightblue" points="988.133,-282.294 979.346,-288.213 989.907,-289.065 988.133,-282.294"/>
</g>
<!-- Node22&#45;&gt;Node12 -->
<g id="edge33" class="edge"><title>Node22&#45;&gt;Node12</title>
<path fill="none" stroke="midnightblue" d="M806.637,-370.157C863.702,-365.526 939.901,-354.27 1002,-327.233 1034.57,-313.051 1065.78,-284.126 1080.76,-268.978"/>
<polygon fill="midnightblue" stroke="midnightblue" points="806.278,-366.674 796.572,-370.921 806.808,-373.654 806.278,-366.674"/>
</g>
<!-- Node23&#45;&gt;Node12 -->
<g id="edge35" class="edge"><title>Node23&#45;&gt;Node12</title>
<path fill="none" stroke="midnightblue" d="M1012.34,-259.233C1021.07,-259.233 1029.71,-259.233 1037.88,-259.233"/>
<polygon fill="midnightblue" stroke="midnightblue" points="1012.06,-255.733 1002.06,-259.233 1012.06,-262.733 1012.06,-255.733"/>
</g>
<!-- Node24&#45;&gt;Node21 -->
<g id="edge37" class="edge"><title>Node24&#45;&gt;Node21</title>
<path fill="none" stroke="midnightblue" d="M812.639,-299.963C825.639,-300.359 838.846,-300.761 851.345,-301.142"/>
<polygon fill="midnightblue" stroke="midnightblue" points="812.378,-296.453 802.276,-299.647 812.165,-303.45 812.378,-296.453"/>
</g>
<!-- Node24&#45;&gt;Node23 -->
<g id="edge38" class="edge"><title>Node24&#45;&gt;Node23</title>
<path fill="none" stroke="midnightblue" d="M782.564,-285.743C810.672,-280.321 843.822,-273.927 870.523,-268.776"/>
<polygon fill="midnightblue" stroke="midnightblue" points="781.613,-282.362 772.457,-287.693 782.939,-289.235 781.613,-282.362"/>
</g>
<!-- Node26 -->
<g id="node26" class="node"><title>Node26</title>
<g id="a_node26"><a xlink:href="../../df/dd2/classserver_1_1ui_server.html#af8300a694de27369a5f5d1a95ed1cc37" target="_top" xlink:title="Triggered when a client connects.">
<polygon fill="white" stroke="black" points="663,-162.233 663,-192.233 781,-192.233 781,-162.233 663,-162.233"/>
<text text-anchor="start" x="671" y="-180.233" font-family="Helvetica,sans-Serif" font-size="10.00">server::uiServer::accept</text>
<text text-anchor="middle" x="722" y="-169.233" font-family="Helvetica,sans-Serif" font-size="10.00">Connection</text>
</a>
</g>
</g>
<!-- Node25&#45;&gt;Node26 -->
<g id="edge40" class="edge"><title>Node25&#45;&gt;Node26</title>
<path fill="none" stroke="midnightblue" d="M595.05,-201.777C617.216,-197.457 641.531,-192.719 662.836,-188.567"/>
<polygon fill="midnightblue" stroke="midnightblue" points="594.181,-198.38 585.036,-203.728 595.52,-205.251 594.181,-198.38"/>
</g>
<!-- Node27 -->
<g id="node27" class="node"><title>Node27</title>
<g id="a_node27"><a xlink:href="../../df/dd2/classserver_1_1ui_server.html#a55e34b95359692ea9002408075e18b1a" target="_top" xlink:title="uiServer constructor">
<polygon fill="white" stroke="black" points="859.5,-167.733 859.5,-186.733 982.5,-186.733 982.5,-167.733 859.5,-167.733"/>
<text text-anchor="middle" x="921" y="-174.733" font-family="Helvetica,sans-Serif" font-size="10.00">server::uiServer::uiServer</text>
</a>
</g>
</g>
<!-- Node26&#45;&gt;Node27 -->
<g id="edge41" class="edge"><title>Node26&#45;&gt;Node27</title>
<path fill="none" stroke="midnightblue" d="M791.052,-177.233C813.23,-177.233 837.692,-177.233 859.294,-177.233"/>
<polygon fill="midnightblue" stroke="midnightblue" points="791.041,-173.733 781.041,-177.233 791.041,-180.733 791.041,-173.733"/>
</g>
</g>
</svg>
