<?xml version="1.0" encoding="UTF-8" standalone="no"?>
<!DOCTYPE svg PUBLIC "-//W3C//DTD SVG 1.1//EN"
 "http://www.w3.org/Graphics/SVG/1.1/DTD/svg11.dtd">
<!-- Generated by graphviz version 2.30.1 (20130303.0817)
 -->
<!-- Title: server::ircUser::getName Pages: 1 -->
<svg width="766pt" height="377pt"
 viewBox="0.00 0.00 766.00 377.00" xmlns="http://www.w3.org/2000/svg" xmlns:xlink="http://www.w3.org/1999/xlink">
<g id="graph0" class="graph" transform="scale(1 1) rotate(0) translate(4 373)">
<title>server::ircUser::getName</title>
<polygon fill="white" stroke="white" points="-4,5 -4,-373 763,-373 763,5 -4,5"/>
<!-- Node1 -->
<g id="node1" class="node"><title>Node1</title>
<polygon fill="#bfbfbf" stroke="black" points="0,-175.5 0,-194.5 124,-194.5 124,-175.5 0,-175.5"/>
<text text-anchor="middle" x="62" y="-182.5" font-family="Helvetica,sans-Serif" font-size="10.00">server::ircUser::getName</text>
</g>
<!-- Node2 -->
<g id="node2" class="node"><title>Node2</title>
<g id="a_node2"><a xlink:href="../../d7/d81/classserver_1_1cls_settings.html#ab63cf5761cd958b9dea502caaecd268d" target="_top" xlink:title="getUserName">
<polygon fill="white" stroke="black" points="176.5,-290 176.5,-320 273.5,-320 273.5,-290 176.5,-290"/>
<text text-anchor="start" x="184.5" y="-308" font-family="Helvetica,sans-Serif" font-size="10.00">server::clsSettings</text>
<text text-anchor="middle" x="225" y="-297" font-family="Helvetica,sans-Serif" font-size="10.00">::getUserName</text>
</a>
</g>
</g>
<!-- Node1&#45;&gt;Node2 -->
<g id="edge1" class="edge"><title>Node1&#45;&gt;Node2</title>
<path fill="none" stroke="midnightblue" d="M78.4449,-202.25C96.5558,-221.742 128.166,-253.539 160,-275 168.242,-280.556 177.675,-285.6 186.721,-289.899"/>
<polygon fill="midnightblue" stroke="midnightblue" points="80.8821,-199.729 71.5482,-194.716 75.7188,-204.456 80.8821,-199.729"/>
</g>
<!-- Node5 -->
<g id="node5" class="node"><title>Node5</title>
<g id="a_node5"><a xlink:href="../../d4/d08/classserver_1_1irc_user_list.html#ae42c9f84545a97b504a25c399cc43666" target="_top" xlink:title="Removes a user from the list.">
<polygon fill="white" stroke="black" points="168.5,-213.5 168.5,-232.5 281.5,-232.5 281.5,-213.5 168.5,-213.5"/>
<text text-anchor="middle" x="225" y="-220.5" font-family="Helvetica,sans-Serif" font-size="10.00">server::ircUserList::del</text>
</a>
</g>
</g>
<!-- Node1&#45;&gt;Node5 -->
<g id="edge4" class="edge"><title>Node1&#45;&gt;Node5</title>
<path fill="none" stroke="midnightblue" d="M113.402,-196.896C136.032,-202.237 162.37,-208.454 183.665,-213.48"/>
<polygon fill="midnightblue" stroke="midnightblue" points="114.164,-193.48 103.627,-194.589 112.556,-200.293 114.164,-193.48"/>
</g>
<!-- Node7 -->
<g id="node7" class="node"><title>Node7</title>
<g id="a_node7"><a xlink:href="../../d4/d08/classserver_1_1irc_user_list.html#af2d5bdaf2ccd658679c933390500f0e2" target="_top" xlink:title="Finds a user based on IRC&#45;ID or nick.">
<polygon fill="white" stroke="black" points="177.5,-126 177.5,-156 272.5,-156 272.5,-126 177.5,-126"/>
<text text-anchor="start" x="185.5" y="-144" font-family="Helvetica,sans-Serif" font-size="10.00">server::ircUserList</text>
<text text-anchor="middle" x="225" y="-133" font-family="Helvetica,sans-Serif" font-size="10.00">::getUser</text>
</a>
</g>
</g>
<!-- Node1&#45;&gt;Node7 -->
<g id="edge7" class="edge"><title>Node1&#45;&gt;Node7</title>
<path fill="none" stroke="midnightblue" d="M107.845,-172.744C129.455,-166.838 155.36,-159.759 177.218,-153.785"/>
<polygon fill="midnightblue" stroke="midnightblue" points="106.658,-169.44 97.9346,-175.453 108.504,-176.193 106.658,-169.44"/>
</g>
<!-- Node11 -->
<g id="node11" class="node"><title>Node11</title>
<g id="a_node11"><a xlink:href="../../d1/d10/classserver_1_1irc_client.html#af618e7f589a052d90e2dadbc87e83429" target="_top" xlink:title="Handles a command sent from the irc server.">
<polygon fill="white" stroke="black" points="180.5,-0 180.5,-30 269.5,-30 269.5,-0 180.5,-0"/>
<text text-anchor="start" x="188.5" y="-18" font-family="Helvetica,sans-Serif" font-size="10.00">server::ircClient::</text>
<text text-anchor="middle" x="225" y="-7" font-family="Helvetica,sans-Serif" font-size="10.00">handleCommand</text>
</a>
</g>
</g>
<!-- Node1&#45;&gt;Node11 -->
<g id="edge15" class="edge"><title>Node1&#45;&gt;Node11</title>
<path fill="none" stroke="midnightblue" d="M71.9901,-166.043C86.7295,-136.693 118.583,-79.9989 160,-45 166.936,-39.1389 175.21,-34.1595 183.468,-30.0418"/>
<polygon fill="midnightblue" stroke="midnightblue" points="68.7588,-164.683 67.5027,-175.203 75.0451,-167.763 68.7588,-164.683"/>
</g>
<!-- Node8 -->
<g id="node8" class="node"><title>Node8</title>
<g id="a_node8"><a xlink:href="../../d1/d48/classserver_1_1main_app.html#a92448c1219ad89999c983b04adaa4236" target="_top" xlink:title="Triggered when a user joins trough a JOIN message.">
<polygon fill="white" stroke="black" points="338.5,-175.5 338.5,-194.5 477.5,-194.5 477.5,-175.5 338.5,-175.5"/>
<text text-anchor="middle" x="408" y="-182.5" font-family="Helvetica,sans-Serif" font-size="10.00">server::mainApp::userOnline</text>
</a>
</g>
</g>
<!-- Node1&#45;&gt;Node8 -->
<g id="edge19" class="edge"><title>Node1&#45;&gt;Node8</title>
<path fill="none" stroke="midnightblue" d="M134.244,-185C194.185,-185 279.343,-185 338.498,-185"/>
<polygon fill="midnightblue" stroke="midnightblue" points="134.104,-181.5 124.104,-185 134.104,-188.5 134.104,-181.5"/>
</g>
<!-- Node6 -->
<g id="node6" class="node"><title>Node6</title>
<g id="a_node6"><a xlink:href="../../d1/d48/classserver_1_1main_app.html#aae86b15c001a235de78a90334e697b5f" target="_top" xlink:title="Triggered when a user leaves trough a PART message.">
<polygon fill="white" stroke="black" points="339,-213.5 339,-232.5 477,-232.5 477,-213.5 339,-213.5"/>
<text text-anchor="middle" x="408" y="-220.5" font-family="Helvetica,sans-Serif" font-size="10.00">server::mainApp::userOffline</text>
</a>
</g>
</g>
<!-- Node1&#45;&gt;Node6 -->
<g id="edge20" class="edge"><title>Node1&#45;&gt;Node6</title>
<path fill="none" stroke="midnightblue" d="M82.5994,-200.8C101.241,-214.736 130.713,-234.032 160,-242 234.493,-262.267 325.957,-244.771 373.969,-232.505"/>
<polygon fill="midnightblue" stroke="midnightblue" points="84.6616,-197.97 74.6012,-194.648 80.3939,-203.519 84.6616,-197.97"/>
</g>
<!-- Node9 -->
<g id="node9" class="node"><title>Node9</title>
<g id="a_node9"><a xlink:href="../../d1/d48/classserver_1_1main_app.html#ae15deb9260c486854af7fac7b063fdf5" target="_top" xlink:title="Triggered when a user changes his nickname (nick|Status)">
<polygon fill="white" stroke="black" points="326,-134.5 326,-153.5 490,-153.5 490,-134.5 326,-134.5"/>
<text text-anchor="middle" x="408" y="-141.5" font-family="Helvetica,sans-Serif" font-size="10.00">server::mainApp::userChangeNick</text>
</a>
</g>
</g>
<!-- Node1&#45;&gt;Node9 -->
<g id="edge21" class="edge"><title>Node1&#45;&gt;Node9</title>
<path fill="none" stroke="midnightblue" d="M79.7242,-168.335C97.7618,-151.644 128.195,-127.038 160,-117 215.099,-99.6107 232.593,-110.462 290,-117 297.793,-117.888 336.86,-127.063 367.737,-134.475"/>
<polygon fill="midnightblue" stroke="midnightblue" points="77.1719,-165.932 72.3486,-175.366 82.0018,-170.999 77.1719,-165.932"/>
</g>
<!-- Node10 -->
<g id="node10" class="node"><title>Node10</title>
<g id="a_node10"><a xlink:href="../../d1/d48/classserver_1_1main_app.html#aaa3dd74b510e2d797f21293a622a4f7d" target="_top" xlink:title="Triggered when a user changes his status (nick|Status)">
<polygon fill="white" stroke="black" points="336,-85 336,-115 480,-115 480,-85 336,-85"/>
<text text-anchor="start" x="344" y="-103" font-family="Helvetica,sans-Serif" font-size="10.00">server::mainApp::userChange</text>
<text text-anchor="middle" x="408" y="-92" font-family="Helvetica,sans-Serif" font-size="10.00">Status</text>
</a>
</g>
</g>
<!-- Node1&#45;&gt;Node10 -->
<g id="edge22" class="edge"><title>Node1&#45;&gt;Node10</title>
<path fill="none" stroke="midnightblue" d="M76.9909,-167.727C94.1513,-148.037 125.272,-116.912 160,-104 216.379,-83.0377 285.118,-83.8433 335.753,-88.8573"/>
<polygon fill="midnightblue" stroke="midnightblue" points="74.3049,-165.483 70.5213,-175.379 79.6505,-170.002 74.3049,-165.483"/>
</g>
<!-- Node15 -->
<g id="node15" class="node"><title>Node15</title>
<g id="a_node15"><a xlink:href="../../d1/d48/classserver_1_1main_app.html#af498e3b109e1bc2b9f8e87b215efdb27" target="_top" xlink:title="Triggered when a UI client wants to change the status.">
<polygon fill="white" stroke="black" points="160,-339 160,-369 290,-369 290,-339 160,-339"/>
<text text-anchor="start" x="168" y="-357" font-family="Helvetica,sans-Serif" font-size="10.00">server::mainApp::ownUser</text>
<text text-anchor="middle" x="225" y="-346" font-family="Helvetica,sans-Serif" font-size="10.00">ChangeStatus</text>
</a>
</g>
</g>
<!-- Node1&#45;&gt;Node15 -->
<g id="edge23" class="edge"><title>Node1&#45;&gt;Node15</title>
<path fill="none" stroke="midnightblue" d="M71.1623,-203.959C85.1419,-234.356 116.432,-294.113 160,-329 164.749,-332.803 170.146,-336.082 175.744,-338.897"/>
<polygon fill="midnightblue" stroke="midnightblue" points="74.2209,-202.225 66.9476,-194.521 67.8292,-205.079 74.2209,-202.225"/>
</g>
<!-- Node3 -->
<g id="node3" class="node"><title>Node3</title>
<g id="a_node3"><a xlink:href="../../d1/d48/classserver_1_1main_app.html#af331bc3bf60e745f3ddc95ab3abe5188" target="_top" xlink:title="server::mainApp::run">
<polygon fill="white" stroke="black" points="526,-194.5 526,-213.5 632,-213.5 632,-194.5 526,-194.5"/>
<text text-anchor="middle" x="579" y="-201.5" font-family="Helvetica,sans-Serif" font-size="10.00">server::mainApp::run</text>
</a>
</g>
</g>
<!-- Node2&#45;&gt;Node3 -->
<g id="edge2" class="edge"><title>Node2&#45;&gt;Node3</title>
<path fill="none" stroke="midnightblue" d="M283.989,-294.178C338.024,-283.388 420.478,-265.111 490,-242 514.161,-233.968 540.875,-221.963 558.46,-213.604"/>
<polygon fill="midnightblue" stroke="midnightblue" points="283.039,-290.798 273.907,-296.17 284.396,-297.665 283.039,-290.798"/>
</g>
<!-- Node4 -->
<g id="node4" class="node"><title>Node4</title>
<g id="a_node4"><a xlink:href="../../dc/d17/custom_irc_server_2main_8cpp.html#a0ddf1224851353fc92bfbff6f499fa97" target="_top" xlink:title="main">
<polygon fill="white" stroke="black" points="694,-194.5 694,-213.5 732,-213.5 732,-194.5 694,-194.5"/>
<text text-anchor="middle" x="713" y="-201.5" font-family="Helvetica,sans-Serif" font-size="10.00">main</text>
</a>
</g>
</g>
<!-- Node3&#45;&gt;Node4 -->
<g id="edge3" class="edge"><title>Node3&#45;&gt;Node4</title>
<path fill="none" stroke="midnightblue" d="M642.227,-204C661.019,-204 680.221,-204 693.711,-204"/>
<polygon fill="midnightblue" stroke="midnightblue" points="642.17,-200.5 632.17,-204 642.17,-207.5 642.17,-200.5"/>
</g>
<!-- Node5&#45;&gt;Node6 -->
<g id="edge5" class="edge"><title>Node5&#45;&gt;Node6</title>
<path fill="none" stroke="midnightblue" d="M292.155,-223C307.402,-223 323.644,-223 338.969,-223"/>
<polygon fill="midnightblue" stroke="midnightblue" points="291.783,-219.5 281.783,-223 291.783,-226.5 291.783,-219.5"/>
</g>
<!-- Node6&#45;&gt;Node3 -->
<g id="edge6" class="edge"><title>Node6&#45;&gt;Node3</title>
<path fill="none" stroke="midnightblue" d="M487.214,-214.207C500.321,-212.733 513.631,-211.237 525.873,-209.86"/>
<polygon fill="midnightblue" stroke="midnightblue" points="486.798,-210.731 477.252,-215.327 487.58,-217.688 486.798,-210.731"/>
</g>
<!-- Node7&#45;&gt;Node8 -->
<g id="edge8" class="edge"><title>Node7&#45;&gt;Node8</title>
<path fill="none" stroke="midnightblue" d="M282.576,-154.753C310.294,-161.491 342.977,-169.436 367.889,-175.492"/>
<polygon fill="midnightblue" stroke="midnightblue" points="283.156,-151.292 272.612,-152.331 281.502,-158.094 283.156,-151.292"/>
</g>
<!-- Node7&#45;&gt;Node6 -->
<g id="edge10" class="edge"><title>Node7&#45;&gt;Node6</title>
<path fill="none" stroke="midnightblue" d="M253.918,-162.144C273.245,-175.865 300.064,-193.148 326,-204 335.061,-207.791 345.023,-210.909 354.769,-213.444"/>
<polygon fill="midnightblue" stroke="midnightblue" points="255.75,-159.15 245.595,-156.127 251.648,-164.822 255.75,-159.15"/>
</g>
<!-- Node7&#45;&gt;Node9 -->
<g id="edge11" class="edge"><title>Node7&#45;&gt;Node9</title>
<path fill="none" stroke="midnightblue" d="M282.788,-141.941C296.432,-142.167 311.269,-142.413 325.784,-142.654"/>
<polygon fill="midnightblue" stroke="midnightblue" points="282.669,-138.439 272.612,-141.773 282.553,-145.438 282.669,-138.439"/>
</g>
<!-- Node7&#45;&gt;Node10 -->
<g id="edge13" class="edge"><title>Node7&#45;&gt;Node10</title>
<path fill="none" stroke="midnightblue" d="M282.607,-128.177C301.047,-124 321.681,-119.326 340.762,-115.004"/>
<polygon fill="midnightblue" stroke="midnightblue" points="281.592,-124.819 272.612,-130.441 283.138,-131.646 281.592,-124.819"/>
</g>
<!-- Node8&#45;&gt;Node3 -->
<g id="edge9" class="edge"><title>Node8&#45;&gt;Node3</title>
<path fill="none" stroke="midnightblue" d="M487.999,-193.882C500.867,-195.328 513.906,-196.794 525.915,-198.144"/>
<polygon fill="midnightblue" stroke="midnightblue" points="488.067,-190.367 477.739,-192.728 487.285,-197.323 488.067,-190.367"/>
</g>
<!-- Node9&#45;&gt;Node3 -->
<g id="edge12" class="edge"><title>Node9&#45;&gt;Node3</title>
<path fill="none" stroke="midnightblue" d="M458.386,-156.209C468.906,-159.145 479.889,-162.464 490,-166 513.877,-174.35 540.423,-186.181 558.052,-194.415"/>
<polygon fill="midnightblue" stroke="midnightblue" points="459.052,-152.764 448.484,-153.518 457.216,-159.519 459.052,-152.764"/>
</g>
<!-- Node10&#45;&gt;Node3 -->
<g id="edge14" class="edge"><title>Node10&#45;&gt;Node3</title>
<path fill="none" stroke="midnightblue" d="M477.916,-118.95C482.088,-120.806 486.151,-122.819 490,-125 523.583,-144.026 555.3,-177.713 569.78,-194.267"/>
<polygon fill="midnightblue" stroke="midnightblue" points="479.227,-115.705 468.647,-115.138 476.564,-122.179 479.227,-115.705"/>
</g>
<!-- Node12 -->
<g id="node12" class="node"><title>Node12</title>
<g id="a_node12"><a xlink:href="../../d1/d10/classserver_1_1irc_client.html#a384327d5a800bd0d970cffaf1a6a55c1" target="_top" xlink:title="Reads data from the IRC Socket.">
<polygon fill="white" stroke="black" points="363.5,-0 363.5,-30 452.5,-30 452.5,-0 363.5,-0"/>
<text text-anchor="start" x="371.5" y="-18" font-family="Helvetica,sans-Serif" font-size="10.00">server::ircClient::</text>
<text text-anchor="middle" x="408" y="-7" font-family="Helvetica,sans-Serif" font-size="10.00">readData</text>
</a>
</g>
</g>
<!-- Node11&#45;&gt;Node12 -->
<g id="edge16" class="edge"><title>Node11&#45;&gt;Node12</title>
<path fill="none" stroke="midnightblue" d="M280.103,-15C306.671,-15 338.26,-15 363.275,-15"/>
<polygon fill="midnightblue" stroke="midnightblue" points="279.815,-11.5001 269.815,-15 279.815,-18.5001 279.815,-11.5001"/>
</g>
<!-- Node13 -->
<g id="node13" class="node"><title>Node13</title>
<g id="a_node13"><a xlink:href="../../d1/d10/classserver_1_1irc_client.html#a3991833ddcff72ca94d4c0ec588012ac" target="_top" xlink:title="Initializes the IRC Client. Does not yet connect!">
<polygon fill="white" stroke="black" points="528,-5.5 528,-24.5 630,-24.5 630,-5.5 528,-5.5"/>
<text text-anchor="middle" x="579" y="-12.5" font-family="Helvetica,sans-Serif" font-size="10.00">server::ircClient::init</text>
</a>
</g>
</g>
<!-- Node12&#45;&gt;Node13 -->
<g id="edge17" class="edge"><title>Node12&#45;&gt;Node13</title>
<path fill="none" stroke="midnightblue" d="M462.792,-15C483.599,-15 507.281,-15 527.739,-15"/>
<polygon fill="midnightblue" stroke="midnightblue" points="462.522,-11.5001 452.522,-15 462.522,-18.5001 462.522,-11.5001"/>
</g>
<!-- Node14 -->
<g id="node14" class="node"><title>Node14</title>
<g id="a_node14"><a xlink:href="../../d1/d10/classserver_1_1irc_client.html#a0f263c3a5ae9d82109842518b4866ab5" target="_top" xlink:title="ircClient constructor">
<polygon fill="white" stroke="black" points="668.5,-0 668.5,-30 757.5,-30 757.5,-0 668.5,-0"/>
<text text-anchor="start" x="676.5" y="-18" font-family="Helvetica,sans-Serif" font-size="10.00">server::ircClient::</text>
<text text-anchor="middle" x="713" y="-7" font-family="Helvetica,sans-Serif" font-size="10.00">ircClient</text>
</a>
</g>
</g>
<!-- Node13&#45;&gt;Node14 -->
<g id="edge18" class="edge"><title>Node13&#45;&gt;Node14</title>
<path fill="none" stroke="midnightblue" d="M640.399,-15C649.814,-15 659.382,-15 668.329,-15"/>
<polygon fill="midnightblue" stroke="midnightblue" points="640.28,-11.5001 630.28,-15 640.28,-18.5001 640.28,-11.5001"/>
</g>
<!-- Node15&#45;&gt;Node3 -->
<g id="edge24" class="edge"><title>Node15&#45;&gt;Node3</title>
<path fill="none" stroke="midnightblue" d="M300.091,-340.86C354.789,-329.186 429.86,-308.935 490,-277 522.609,-259.684 554.288,-228.994 569.174,-213.505"/>
<polygon fill="midnightblue" stroke="midnightblue" points="299.196,-337.471 290.123,-342.941 300.627,-344.323 299.196,-337.471"/>
</g>
</g>
</svg>
