<?xml version="1.0" encoding="UTF-8" standalone="no"?>
<!DOCTYPE svg PUBLIC "-//W3C//DTD SVG 1.1//EN"
 "http://www.w3.org/Graphics/SVG/1.1/DTD/svg11.dtd">
<!-- Generated by graphviz version 2.30.1 (20130303.0817)
 -->
<!-- Title: server::ircUser::setColor Pages: 1 -->
<svg width="674pt" height="47pt"
 viewBox="0.00 0.00 674.00 47.00" xmlns="http://www.w3.org/2000/svg" xmlns:xlink="http://www.w3.org/1999/xlink">
<g id="graph0" class="graph" transform="scale(1 1) rotate(0) translate(4 43)">
<title>server::ircUser::setColor</title>
<polygon fill="white" stroke="white" points="-4,5 -4,-43 671,-43 671,5 -4,5"/>
<!-- Node1 -->
<g id="node1" class="node"><title>Node1</title>
<polygon fill="#bfbfbf" stroke="black" points="0.5,-19.5 0.5,-38.5 121.5,-38.5 121.5,-19.5 0.5,-19.5"/>
<text text-anchor="middle" x="61" y="-26.5" font-family="Helvetica,sans-Serif" font-size="10.00">server::ircUser::setColor</text>
</g>
<!-- Node2 -->
<g id="node2" class="node"><title>Node2</title>
<g id="a_node2"><a xlink:href="../../d4/d08/classserver_1_1irc_user_list.html#a19af488638607e1cc77e94692e3cf3b1" target="_top" xlink:title="Adds a user to the list.">
<polygon fill="white" stroke="black" points="158,-19.5 158,-38.5 274,-38.5 274,-19.5 158,-19.5"/>
<text text-anchor="middle" x="216" y="-26.5" font-family="Helvetica,sans-Serif" font-size="10.00">server::ircUserList::add</text>
</a>
</g>
</g>
<!-- Node1&#45;&gt;Node2 -->
<g id="edge1" class="edge"><title>Node1&#45;&gt;Node2</title>
<path fill="none" stroke="midnightblue" d="M131.754,-29C140.48,-29 149.325,-29 157.828,-29"/>
<polygon fill="midnightblue" stroke="midnightblue" points="131.592,-25.5001 121.592,-29 131.592,-32.5001 131.592,-25.5001"/>
</g>
<!-- Node3 -->
<g id="node3" class="node"><title>Node3</title>
<g id="a_node3"><a xlink:href="../../d1/d48/classserver_1_1main_app.html#af331bc3bf60e745f3ddc95ab3abe5188" target="_top" xlink:title="server::mainApp::run">
<polygon fill="white" stroke="black" points="486,-19.5 486,-38.5 592,-38.5 592,-19.5 486,-19.5"/>
<text text-anchor="middle" x="539" y="-26.5" font-family="Helvetica,sans-Serif" font-size="10.00">server::mainApp::run</text>
</a>
</g>
</g>
<!-- Node2&#45;&gt;Node3 -->
<g id="edge2" class="edge"><title>Node2&#45;&gt;Node3</title>
<path fill="none" stroke="midnightblue" d="M284.152,-29C344.146,-29 430.812,-29 485.762,-29"/>
<polygon fill="midnightblue" stroke="midnightblue" points="284.019,-25.5001 274.018,-29 284.018,-32.5001 284.019,-25.5001"/>
</g>
<!-- Node5 -->
<g id="node5" class="node"><title>Node5</title>
<g id="a_node5"><a xlink:href="../../d1/d48/classserver_1_1main_app.html#a92448c1219ad89999c983b04adaa4236" target="_top" xlink:title="Triggered when a user joins trough a JOIN message.">
<polygon fill="white" stroke="black" points="310.5,-0.5 310.5,-19.5 449.5,-19.5 449.5,-0.5 310.5,-0.5"/>
<text text-anchor="middle" x="380" y="-7.5" font-family="Helvetica,sans-Serif" font-size="10.00">server::mainApp::userOnline</text>
</a>
</g>
</g>
<!-- Node2&#45;&gt;Node5 -->
<g id="edge4" class="edge"><title>Node2&#45;&gt;Node5</title>
<path fill="none" stroke="midnightblue" d="M284.18,-21.1208C292.861,-20.1028 301.759,-19.0591 310.462,-18.0385"/>
<polygon fill="midnightblue" stroke="midnightblue" points="283.639,-17.6602 274.115,-22.3013 284.455,-24.6125 283.639,-17.6602"/>
</g>
<!-- Node4 -->
<g id="node4" class="node"><title>Node4</title>
<g id="a_node4"><a xlink:href="../../dc/d17/custom_irc_server_2main_8cpp.html#a0ddf1224851353fc92bfbff6f499fa97" target="_top" xlink:title="main">
<polygon fill="white" stroke="black" points="628,-19.5 628,-38.5 666,-38.5 666,-19.5 628,-19.5"/>
<text text-anchor="middle" x="647" y="-26.5" font-family="Helvetica,sans-Serif" font-size="10.00">main</text>
</a>
</g>
</g>
<!-- Node3&#45;&gt;Node4 -->
<g id="edge3" class="edge"><title>Node3&#45;&gt;Node4</title>
<path fill="none" stroke="midnightblue" d="M602.208,-29C611.464,-29 620.334,-29 627.64,-29"/>
<polygon fill="midnightblue" stroke="midnightblue" points="602.068,-25.5001 592.068,-29 602.068,-32.5001 602.068,-25.5001"/>
</g>
<!-- Node5&#45;&gt;Node3 -->
<g id="edge5" class="edge"><title>Node5&#45;&gt;Node3</title>
<path fill="none" stroke="midnightblue" d="M460.059,-19.5677C468.763,-20.621 477.458,-21.6733 485.716,-22.6727"/>
<polygon fill="midnightblue" stroke="midnightblue" points="460.211,-16.0605 449.862,-18.3337 459.37,-23.0098 460.211,-16.0605"/>
</g>
</g>
</svg>
