<?xml version="1.0" encoding="UTF-8" standalone="no"?>
<!DOCTYPE svg PUBLIC "-//W3C//DTD SVG 1.1//EN"
 "http://www.w3.org/Graphics/SVG/1.1/DTD/svg11.dtd">
<!-- Generated by graphviz version 2.30.1 (20130303.0817)
 -->
<!-- Title: server::ircUser::setEmail Pages: 1 -->
<svg width="400pt" height="87pt"
 viewBox="0.00 0.00 400.00 87.00" xmlns="http://www.w3.org/2000/svg" xmlns:xlink="http://www.w3.org/1999/xlink">
<g id="graph0" class="graph" transform="scale(1 1) rotate(0) translate(4 83)">
<title>server::ircUser::setEmail</title>
<polygon fill="white" stroke="white" points="-4,5 -4,-83 397,-83 397,5 -4,5"/>
<!-- Node1 -->
<g id="node1" class="node"><title>Node1</title>
<polygon fill="#bfbfbf" stroke="black" points="0.5,-29.5 0.5,-48.5 123.5,-48.5 123.5,-29.5 0.5,-29.5"/>
<text text-anchor="middle" x="62" y="-36.5" font-family="Helvetica,sans-Serif" font-size="10.00">server::ircUser::setEmail</text>
</g>
<!-- Node2 -->
<g id="node2" class="node"><title>Node2</title>
<g id="a_node2"><a xlink:href="../../d7/d81/classserver_1_1cls_settings.html#aa4eefe64194d1d21f5c9414355f3f5f3" target="_top" xlink:title="readUsers">
<polygon fill="white" stroke="black" points="160.5,-49 160.5,-79 257.5,-79 257.5,-49 160.5,-49"/>
<text text-anchor="start" x="168.5" y="-67" font-family="Helvetica,sans-Serif" font-size="10.00">server::clsSettings</text>
<text text-anchor="middle" x="209" y="-56" font-family="Helvetica,sans-Serif" font-size="10.00">::readUsers</text>
</a>
</g>
</g>
<!-- Node1&#45;&gt;Node2 -->
<g id="edge1" class="edge"><title>Node1&#45;&gt;Node2</title>
<path fill="none" stroke="midnightblue" d="M128.144,-50.2317C139.036,-52.1096 150.152,-54.0262 160.495,-55.8095"/>
<polygon fill="midnightblue" stroke="midnightblue" points="128.681,-46.7728 118.232,-48.5227 127.492,-53.671 128.681,-46.7728"/>
</g>
<!-- Node4 -->
<g id="node4" class="node"><title>Node4</title>
<g id="a_node4"><a xlink:href="../../d7/d81/classserver_1_1cls_settings.html#abc09034b2b4c0e9419051b71a4d2d299" target="_top" xlink:title="readUserInfo">
<polygon fill="white" stroke="black" points="160.5,-0 160.5,-30 257.5,-30 257.5,-0 160.5,-0"/>
<text text-anchor="start" x="168.5" y="-18" font-family="Helvetica,sans-Serif" font-size="10.00">server::clsSettings</text>
<text text-anchor="middle" x="209" y="-7" font-family="Helvetica,sans-Serif" font-size="10.00">::readUserInfo</text>
</a>
</g>
</g>
<!-- Node1&#45;&gt;Node4 -->
<g id="edge3" class="edge"><title>Node1&#45;&gt;Node4</title>
<path fill="none" stroke="midnightblue" d="M130.655,-27.802C140.655,-26.1468 150.778,-24.4712 160.26,-22.9019"/>
<polygon fill="midnightblue" stroke="midnightblue" points="130.019,-24.3595 120.724,-29.4456 131.162,-31.2656 130.019,-24.3595"/>
</g>
<!-- Node3 -->
<g id="node3" class="node"><title>Node3</title>
<g id="a_node3"><a xlink:href="../../d7/d81/classserver_1_1cls_settings.html#aba9713d2408ce6ae7acb28a36647ebaf" target="_top" xlink:title="clsSettings Constructor">
<polygon fill="white" stroke="black" points="294.5,-24 294.5,-54 391.5,-54 391.5,-24 294.5,-24"/>
<text text-anchor="start" x="302.5" y="-42" font-family="Helvetica,sans-Serif" font-size="10.00">server::clsSettings</text>
<text text-anchor="middle" x="343" y="-31" font-family="Helvetica,sans-Serif" font-size="10.00">::clsSettings</text>
</a>
</g>
</g>
<!-- Node2&#45;&gt;Node3 -->
<g id="edge2" class="edge"><title>Node2&#45;&gt;Node3</title>
<path fill="none" stroke="midnightblue" d="M267.629,-53.0855C276.573,-51.3915 285.725,-49.6581 294.415,-48.0123"/>
<polygon fill="midnightblue" stroke="midnightblue" points="266.829,-49.6746 257.655,-54.9744 268.132,-56.5524 266.829,-49.6746"/>
</g>
<!-- Node4&#45;&gt;Node3 -->
<g id="edge4" class="edge"><title>Node4&#45;&gt;Node3</title>
<path fill="none" stroke="midnightblue" d="M267.629,-25.478C276.573,-27.1042 285.725,-28.7682 294.415,-30.3482"/>
<polygon fill="midnightblue" stroke="midnightblue" points="268.12,-22.0099 257.655,-23.6646 266.868,-28.897 268.12,-22.0099"/>
</g>
</g>
</svg>
