<?xml version="1.0" encoding="UTF-8" standalone="no"?>
<!DOCTYPE svg PUBLIC "-//W3C//DTD SVG 1.1//EN"
 "http://www.w3.org/Graphics/SVG/1.1/DTD/svg11.dtd">
<!-- Generated by graphviz version 2.30.1 (20130303.0817)
 -->
<!-- Title: server::ircUser::getId Pages: 1 -->
<!--zoomable 191 -->
<svg id="main" version="1.1" xmlns="http://www.w3.org/2000/svg" xmlns:xlink="http://www.w3.org/1999/xlink" xml:space="preserve" onload="init(evt)">
        <defs>
                <circle id="rim" cx="0" cy="0" r="7"/>
                <circle id="rim2" cx="0" cy="0" r="3.5"/>
                <g id="zoomPlus">
                        <use xlink:href="#rim" fill="#404040">
                                <set attributeName="fill" to="#808080" begin="zoomplus.mouseover" end="zoomplus.mouseout"/>
                        </use>
                        <path d="M-4,0h8M0,-4v8" fill="none" stroke="white" stroke-width="1.5" pointer-events="none"/>
                </g>
                <g id="zoomMin">
                        <use xlink:href="#rim" fill="#404040">
                                <set attributeName="fill" to="#808080" begin="zoomminus.mouseover" end="zoomminus.mouseout"/>
                        </use>
                        <path d="M-4,0h8" fill="none" stroke="white" stroke-width="1.5" pointer-events="none"/>
                </g>
                <g id="dirArrow">
                        <path fill="none" stroke="white" stroke-width="1.5" d="M0,-3.0v7 M-2.5,-0.5L0,-3.0L2.5,-0.5"/>
                </g>
               <g id="resetDef">
                       <use xlink:href="#rim2" fill="#404040">
                               <set attributeName="fill" to="#808080" begin="reset.mouseover" end="reset.mouseout"/>
                       </use>
               </g>
        </defs>

<script type="text/javascript">
var viewWidth = 530;
var viewHeight = 191;
var sectionId = 'dynsection-1';
</script>
<script xlink:href="../../svgpan.js"/>
<svg id="graph" class="graph">
<g id="viewport">
<title>server::ircUser::getId</title>
<polygon fill="white" stroke="white" points="-4,5 -4,-187 527,-187 527,5 -4,5"/>
<!-- Node1 -->
<g id="node1" class="node"><title>Node1</title>
<polygon fill="#bfbfbf" stroke="black" points="0,-87.5 0,-106.5 106,-106.5 106,-87.5 0,-87.5"/>
<text text-anchor="middle" x="53" y="-94.5" font-family="Helvetica,sans-Serif" font-size="10.00">server::ircUser::getId</text>
</g>
<!-- Node2 -->
<g id="node2" class="node"><title>Node2</title>
<g id="a_node2"><a xlink:href="../../d1/d48/classserver_1_1main_app.html#a0970ee01d48b04ebc1390ffb8edecfc0" target="_top" xlink:title="Triggered when a chat has been received.">
<polygon fill="white" stroke="black" points="149,-163.5 149,-182.5 299,-182.5 299,-163.5 149,-163.5"/>
<text text-anchor="middle" x="224" y="-170.5" font-family="Helvetica,sans-Serif" font-size="10.00">server::mainApp::chatReceived</text>
</a>
</g>
</g>
<!-- Node1&#45;&gt;Node2 -->
<g id="edge1" class="edge"><title>Node1&#45;&gt;Node2</title>
<path fill="none" stroke="midnightblue" d="M73.89,-112.755C91.0274,-125.601 116.9,-143.311 142,-154 150.904,-157.792 160.695,-160.9 170.3,-163.423"/>
<polygon fill="midnightblue" stroke="midnightblue" points="75.843,-109.842 65.7748,-106.543 71.5882,-115.4 75.843,-109.842"/>
</g>
<!-- Node5 -->
<g id="node5" class="node"><title>Node5</title>
<g id="a_node5"><a xlink:href="../../d1/d48/classserver_1_1main_app.html#a92448c1219ad89999c983b04adaa4236" target="_top" xlink:title="Triggered when a user joins trough a JOIN message.">
<polygon fill="white" stroke="black" points="154.5,-125.5 154.5,-144.5 293.5,-144.5 293.5,-125.5 154.5,-125.5"/>
<text text-anchor="middle" x="224" y="-132.5" font-family="Helvetica,sans-Serif" font-size="10.00">server::mainApp::userOnline</text>
</a>
</g>
</g>
<!-- Node1&#45;&gt;Node5 -->
<g id="edge4" class="edge"><title>Node1&#45;&gt;Node5</title>
<path fill="none" stroke="midnightblue" d="M106.587,-108.824C130.413,-114.182 158.207,-120.431 180.661,-125.48"/>
<polygon fill="midnightblue" stroke="midnightblue" points="107.17,-105.368 96.6458,-106.589 105.634,-112.198 107.17,-105.368"/>
</g>
<!-- Node6 -->
<g id="node6" class="node"><title>Node6</title>
<g id="a_node6"><a xlink:href="../../d1/d48/classserver_1_1main_app.html#aae86b15c001a235de78a90334e697b5f" target="_top" xlink:title="Triggered when a user leaves trough a PART message.">
<polygon fill="white" stroke="black" points="155,-87.5 155,-106.5 293,-106.5 293,-87.5 155,-87.5"/>
<text text-anchor="middle" x="224" y="-94.5" font-family="Helvetica,sans-Serif" font-size="10.00">server::mainApp::userOffline</text>
</a>
</g>
</g>
<!-- Node1&#45;&gt;Node6 -->
<g id="edge6" class="edge"><title>Node1&#45;&gt;Node6</title>
<path fill="none" stroke="midnightblue" d="M116.421,-97C128.954,-97 142.183,-97 154.898,-97"/>
<polygon fill="midnightblue" stroke="midnightblue" points="116.085,-93.5001 106.085,-97 116.085,-100.5 116.085,-93.5001"/>
</g>
<!-- Node7 -->
<g id="node7" class="node"><title>Node7</title>
<g id="a_node7"><a xlink:href="../../d1/d48/classserver_1_1main_app.html#ae15deb9260c486854af7fac7b063fdf5" target="_top" xlink:title="Triggered when a user changes his nickname (nick|Status)">
<polygon fill="white" stroke="black" points="142,-49.5 142,-68.5 306,-68.5 306,-49.5 142,-49.5"/>
<text text-anchor="middle" x="224" y="-56.5" font-family="Helvetica,sans-Serif" font-size="10.00">server::mainApp::userChangeNick</text>
</a>
</g>
</g>
<!-- Node1&#45;&gt;Node7 -->
<g id="edge8" class="edge"><title>Node1&#45;&gt;Node7</title>
<path fill="none" stroke="midnightblue" d="M106.587,-85.1757C130.413,-79.8184 158.207,-73.5689 180.661,-68.5201"/>
<polygon fill="midnightblue" stroke="midnightblue" points="105.634,-81.8024 96.6458,-87.411 107.17,-88.6319 105.634,-81.8024"/>
</g>
<!-- Node8 -->
<g id="node8" class="node"><title>Node8</title>
<g id="a_node8"><a xlink:href="../../d1/d48/classserver_1_1main_app.html#aaa3dd74b510e2d797f21293a622a4f7d" target="_top" xlink:title="Triggered when a user changes his status (nick|Status)">
<polygon fill="white" stroke="black" points="152,-0 152,-30 296,-30 296,-0 152,-0"/>
<text text-anchor="start" x="160" y="-18" font-family="Helvetica,sans-Serif" font-size="10.00">server::mainApp::userChange</text>
<text text-anchor="middle" x="224" y="-7" font-family="Helvetica,sans-Serif" font-size="10.00">Status</text>
</a>
</g>
</g>
<!-- Node1&#45;&gt;Node8 -->
<g id="edge10" class="edge"><title>Node1&#45;&gt;Node8</title>
<path fill="none" stroke="midnightblue" d="M74.6793,-81.2577C91.9346,-68.7127 117.564,-51.4166 142,-40 149.867,-36.3246 158.41,-33.0154 166.9,-30.0988"/>
<polygon fill="midnightblue" stroke="midnightblue" points="72.4293,-78.5685 66.4699,-87.3285 76.5913,-84.1968 72.4293,-78.5685"/>
</g>
<!-- Node3 -->
<g id="node3" class="node"><title>Node3</title>
<g id="a_node3"><a xlink:href="../../d1/d48/classserver_1_1main_app.html#af331bc3bf60e745f3ddc95ab3abe5188" target="_top" xlink:title="server::mainApp::run">
<polygon fill="white" stroke="black" points="342,-87.5 342,-106.5 448,-106.5 448,-87.5 342,-87.5"/>
<text text-anchor="middle" x="395" y="-94.5" font-family="Helvetica,sans-Serif" font-size="10.00">server::mainApp::run</text>
</a>
</g>
</g>
<!-- Node2&#45;&gt;Node3 -->
<g id="edge2" class="edge"><title>Node2&#45;&gt;Node3</title>
<path fill="none" stroke="midnightblue" d="M287.627,-160.61C293.931,-158.682 300.157,-156.488 306,-154 335.475,-141.448 366.016,-119.214 382.225,-106.543"/>
<polygon fill="midnightblue" stroke="midnightblue" points="286.367,-157.329 277.7,-163.423 288.275,-164.064 286.367,-157.329"/>
</g>
<!-- Node4 -->
<g id="node4" class="node"><title>Node4</title>
<g id="a_node4"><a xlink:href="../../dc/d17/custom_irc_server_2main_8cpp.html#a0ddf1224851353fc92bfbff6f499fa97" target="_top" xlink:title="main">
<polygon fill="white" stroke="black" points="484,-87.5 484,-106.5 522,-106.5 522,-87.5 484,-87.5"/>
<text text-anchor="middle" x="503" y="-94.5" font-family="Helvetica,sans-Serif" font-size="10.00">main</text>
</a>
</g>
</g>
<!-- Node3&#45;&gt;Node4 -->
<g id="edge3" class="edge"><title>Node3&#45;&gt;Node4</title>
<path fill="none" stroke="midnightblue" d="M458.208,-97C467.464,-97 476.334,-97 483.64,-97"/>
<polygon fill="midnightblue" stroke="midnightblue" points="458.068,-93.5001 448.068,-97 458.068,-100.5 458.068,-93.5001"/>
</g>
<!-- Node5&#45;&gt;Node3 -->
<g id="edge5" class="edge"><title>Node5&#45;&gt;Node3</title>
<path fill="none" stroke="midnightblue" d="M277.587,-123.176C301.413,-117.818 329.207,-111.569 351.661,-106.52"/>
<polygon fill="midnightblue" stroke="midnightblue" points="276.634,-119.802 267.646,-125.411 278.17,-126.632 276.634,-119.802"/>
</g>
<!-- Node6&#45;&gt;Node3 -->
<g id="edge7" class="edge"><title>Node6&#45;&gt;Node3</title>
<path fill="none" stroke="midnightblue" d="M303.6,-97C316.582,-97 329.751,-97 341.873,-97"/>
<polygon fill="midnightblue" stroke="midnightblue" points="303.252,-93.5001 293.252,-97 303.252,-100.5 303.252,-93.5001"/>
</g>
<!-- Node7&#45;&gt;Node3 -->
<g id="edge9" class="edge"><title>Node7&#45;&gt;Node3</title>
<path fill="none" stroke="midnightblue" d="M277.587,-70.8243C301.413,-76.1816 329.207,-82.4311 351.661,-87.4799"/>
<polygon fill="midnightblue" stroke="midnightblue" points="278.17,-67.3681 267.646,-68.589 276.634,-74.1976 278.17,-67.3681"/>
</g>
<!-- Node8&#45;&gt;Node3 -->
<g id="edge11" class="edge"><title>Node8&#45;&gt;Node3</title>
<path fill="none" stroke="midnightblue" d="M290.635,-33.5442C295.902,-35.5488 301.083,-37.7029 306,-40 334.695,-53.4067 365.037,-74.9212 381.53,-87.3285"/>
<polygon fill="midnightblue" stroke="midnightblue" points="291.695,-30.2055 281.1,-30.0988 289.316,-36.7889 291.695,-30.2055"/>
</g>
</g>
</svg>
        <g id="navigator" transform="translate(0 0)" fill="#404254">
                <rect fill="#f2f5e9" fill-opacity="0.5" stroke="#606060" stroke-width=".5" x="0" y="0" width="60" height="60"/>
                <use id="zoomplus" xlink:href="#zoomPlus" x="17" y="9" onmousedown="handleZoom(evt,'in')"/>
                <use id="zoomminus" xlink:href="#zoomMin" x="42" y="9" onmousedown="handleZoom(evt,'out')"/>
                <use id="reset" xlink:href="#resetDef" x="30" y="36" onmousedown="handleReset()"/>
                <g id="arrowUp" xlink:href="#dirArrow" transform="translate(30 24)" onmousedown="handlePan(0,-1)">
                  <use xlink:href="#rim" fill="#404040">
                        <set attributeName="fill" to="#808080" begin="arrowUp.mouseover" end="arrowUp.mouseout"/>
                  </use>
                  <path fill="none" stroke="white" stroke-width="1.5" d="M0,-3.0v7 M-2.5,-0.5L0,-3.0L2.5,-0.5"/>
                </g>
                <g id="arrowRight" xlink:href="#dirArrow" transform="rotate(90) translate(36 -43)" onmousedown="handlePan(1,0)">
                  <use xlink:href="#rim" fill="#404040">
                        <set attributeName="fill" to="#808080" begin="arrowRight.mouseover" end="arrowRight.mouseout"/>
                  </use>
                  <path fill="none" stroke="white" stroke-width="1.5" d="M0,-3.0v7 M-2.5,-0.5L0,-3.0L2.5,-0.5"/>
                </g>
                <g id="arrowDown" xlink:href="#dirArrow" transform="rotate(180) translate(-30 -48)" onmousedown="handlePan(0,1)">
                  <use xlink:href="#rim" fill="#404040">
                        <set attributeName="fill" to="#808080" begin="arrowDown.mouseover" end="arrowDown.mouseout"/>
                  </use>
                  <path fill="none" stroke="white" stroke-width="1.5" d="M0,-3.0v7 M-2.5,-0.5L0,-3.0L2.5,-0.5"/>
                </g>
                <g id="arrowLeft" xlink:href="#dirArrow" transform="rotate(270) translate(-36 17)" onmousedown="handlePan(-1,0)">
                  <use xlink:href="#rim" fill="#404040">
                        <set attributeName="fill" to="#808080" begin="arrowLeft.mouseover" end="arrowLeft.mouseout"/>
                  </use>
                  <path fill="none" stroke="white" stroke-width="1.5" d="M0,-3.0v7 M-2.5,-0.5L0,-3.0L2.5,-0.5"/>
                </g>
        </g>
        <svg viewBox="0 0 15 15" width="100%" height="30px" preserveAspectRatio="xMaxYMin meet">
         <g id="arrow_out" transform="scale(0.3 0.3)">
          <a xlink:href="classserver_1_1irc_user_a7d729b6e71c3f381a1db0cec57520c39_icgraph_org.svg" target="_base">
           <rect id="button" ry="5" rx="5" y="6" x="6" height="38" width="38"
                fill="#f2f5e9" fill-opacity="0.5" stroke="#606060" stroke-width="1.0"/>
           <path id="arrow"
             d="M 11.500037,31.436501 C 11.940474,20.09759 22.043105,11.32322 32.158766,21.979434 L 37.068811,17.246167 C 37.068811,17.246167 37.088388,32 37.088388,32 L 22.160133,31.978069 C 22.160133,31.978069 26.997745,27.140456 26.997745,27.140456 C 18.528582,18.264221 13.291696,25.230495 11.500037,31.436501 z"
             style="fill:#404040;"/>
          </a>
         </g>
        </svg>
</svg>
