<?xml version="1.0" encoding="UTF-8" standalone="no"?>
<!DOCTYPE svg PUBLIC "-//W3C//DTD SVG 1.1//EN"
 "http://www.w3.org/Graphics/SVG/1.1/DTD/svg11.dtd">
<!-- Generated by graphviz version 2.30.1 (20130303.0817)
 -->
<!-- Title: server::ircUser::setOnline Pages: 1 -->
<!--zoomable 202 -->
<svg id="main" version="1.1" xmlns="http://www.w3.org/2000/svg" xmlns:xlink="http://www.w3.org/1999/xlink" xml:space="preserve" onload="init(evt)">
        <defs>
                <circle id="rim" cx="0" cy="0" r="7"/>
                <circle id="rim2" cx="0" cy="0" r="3.5"/>
                <g id="zoomPlus">
                        <use xlink:href="#rim" fill="#404040">
                                <set attributeName="fill" to="#808080" begin="zoomplus.mouseover" end="zoomplus.mouseout"/>
                        </use>
                        <path d="M-4,0h8M0,-4v8" fill="none" stroke="white" stroke-width="1.5" pointer-events="none"/>
                </g>
                <g id="zoomMin">
                        <use xlink:href="#rim" fill="#404040">
                                <set attributeName="fill" to="#808080" begin="zoomminus.mouseover" end="zoomminus.mouseout"/>
                        </use>
                        <path d="M-4,0h8" fill="none" stroke="white" stroke-width="1.5" pointer-events="none"/>
                </g>
                <g id="dirArrow">
                        <path fill="none" stroke="white" stroke-width="1.5" d="M0,-3.0v7 M-2.5,-0.5L0,-3.0L2.5,-0.5"/>
                </g>
               <g id="resetDef">
                       <use xlink:href="#rim2" fill="#404040">
                               <set attributeName="fill" to="#808080" begin="reset.mouseover" end="reset.mouseout"/>
                       </use>
               </g>
        </defs>

<script type="text/javascript">
var viewWidth = 526;
var viewHeight = 202;
var sectionId = 'dynsection-9';
</script>
<script xlink:href="../../svgpan.js"/>
<svg id="graph" class="graph">
<g id="viewport">
<title>server::ircUser::setOnline</title>
<polygon fill="white" stroke="white" points="-4,5 -4,-198 523,-198 523,5 -4,5"/>
<!-- Node1 -->
<g id="node1" class="node"><title>Node1</title>
<polygon fill="#bfbfbf" stroke="black" points="0,-87.5 0,-106.5 126,-106.5 126,-87.5 0,-87.5"/>
<text text-anchor="middle" x="63" y="-94.5" font-family="Helvetica,sans-Serif" font-size="10.00">server::ircUser::setOnline</text>
</g>
<!-- Node2 -->
<g id="node2" class="node"><title>Node2</title>
<g id="a_node2"><a xlink:href="../../d7/d81/classserver_1_1cls_settings.html#abc09034b2b4c0e9419051b71a4d2d299" target="_top" xlink:title="readUserInfo">
<polygon fill="white" stroke="black" points="183.5,-164 183.5,-194 280.5,-194 280.5,-164 183.5,-164"/>
<text text-anchor="start" x="191.5" y="-182" font-family="Helvetica,sans-Serif" font-size="10.00">server::clsSettings</text>
<text text-anchor="middle" x="232" y="-171" font-family="Helvetica,sans-Serif" font-size="10.00">::readUserInfo</text>
</a>
</g>
</g>
<!-- Node1&#45;&gt;Node2 -->
<g id="edge1" class="edge"><title>Node1&#45;&gt;Node2</title>
<path fill="none" stroke="midnightblue" d="M90.0639,-111.54C109.649,-122.292 137.247,-137.074 162,-149 172.591,-154.103 184.263,-159.326 194.948,-163.953"/>
<polygon fill="midnightblue" stroke="midnightblue" points="91.587,-108.383 81.1406,-106.616 88.205,-114.512 91.587,-108.383"/>
</g>
<!-- Node4 -->
<g id="node4" class="node"><title>Node4</title>
<g id="a_node4"><a xlink:href="../../d1/d48/classserver_1_1main_app.html#af331bc3bf60e745f3ddc95ab3abe5188" target="_top" xlink:title="server::mainApp::run">
<polygon fill="white" stroke="black" points="338,-68.5 338,-87.5 444,-87.5 444,-68.5 338,-68.5"/>
<text text-anchor="middle" x="391" y="-75.5" font-family="Helvetica,sans-Serif" font-size="10.00">server::mainApp::run</text>
</a>
</g>
</g>
<!-- Node1&#45;&gt;Node4 -->
<g id="edge3" class="edge"><title>Node1&#45;&gt;Node4</title>
<path fill="none" stroke="midnightblue" d="M111.803,-108.654C160.213,-118.631 237.006,-129.433 302,-116 328.238,-110.577 356.28,-96.9452 373.478,-87.5747"/>
<polygon fill="midnightblue" stroke="midnightblue" points="112.429,-105.209 101.919,-106.547 110.969,-112.055 112.429,-105.209"/>
</g>
<!-- Node6 -->
<g id="node6" class="node"><title>Node6</title>
<g id="a_node6"><a xlink:href="../../d1/d48/classserver_1_1main_app.html#a92448c1219ad89999c983b04adaa4236" target="_top" xlink:title="Triggered when a user joins trough a JOIN message.">
<polygon fill="white" stroke="black" points="162.5,-87.5 162.5,-106.5 301.5,-106.5 301.5,-87.5 162.5,-87.5"/>
<text text-anchor="middle" x="232" y="-94.5" font-family="Helvetica,sans-Serif" font-size="10.00">server::mainApp::userOnline</text>
</a>
</g>
</g>
<!-- Node1&#45;&gt;Node6 -->
<g id="edge5" class="edge"><title>Node1&#45;&gt;Node6</title>
<path fill="none" stroke="midnightblue" d="M136.243,-97C144.895,-97 153.711,-97 162.31,-97"/>
<polygon fill="midnightblue" stroke="midnightblue" points="136.185,-93.5001 126.185,-97 136.185,-100.5 136.185,-93.5001"/>
</g>
<!-- Node7 -->
<g id="node7" class="node"><title>Node7</title>
<g id="a_node7"><a xlink:href="../../d1/d48/classserver_1_1main_app.html#aae86b15c001a235de78a90334e697b5f" target="_top" xlink:title="Triggered when a user leaves trough a PART message.">
<polygon fill="white" stroke="black" points="163,-49.5 163,-68.5 301,-68.5 301,-49.5 163,-49.5"/>
<text text-anchor="middle" x="232" y="-56.5" font-family="Helvetica,sans-Serif" font-size="10.00">server::mainApp::userOffline</text>
</a>
</g>
</g>
<!-- Node1&#45;&gt;Node7 -->
<g id="edge7" class="edge"><title>Node1&#45;&gt;Node7</title>
<path fill="none" stroke="midnightblue" d="M115.965,-85.1757C139.509,-79.8184 166.974,-73.5689 189.162,-68.5201"/>
<polygon fill="midnightblue" stroke="midnightblue" points="115.115,-81.7794 106.141,-87.411 116.668,-88.6049 115.115,-81.7794"/>
</g>
<!-- Node8 -->
<g id="node8" class="node"><title>Node8</title>
<g id="a_node8"><a xlink:href="../../d1/d48/classserver_1_1main_app.html#af498e3b109e1bc2b9f8e87b215efdb27" target="_top" xlink:title="Triggered when a UI client wants to change the status.">
<polygon fill="white" stroke="black" points="167,-0 167,-30 297,-30 297,-0 167,-0"/>
<text text-anchor="start" x="175" y="-18" font-family="Helvetica,sans-Serif" font-size="10.00">server::mainApp::ownUser</text>
<text text-anchor="middle" x="232" y="-7" font-family="Helvetica,sans-Serif" font-size="10.00">ChangeStatus</text>
</a>
</g>
</g>
<!-- Node1&#45;&gt;Node8 -->
<g id="edge9" class="edge"><title>Node1&#45;&gt;Node8</title>
<path fill="none" stroke="midnightblue" d="M86.9892,-82.0444C106.457,-69.77 135.37,-52.4463 162,-40 169.503,-36.4934 177.644,-33.1558 185.615,-30.1274"/>
<polygon fill="midnightblue" stroke="midnightblue" points="85.0487,-79.1306 78.4968,-87.4567 88.8108,-85.0337 85.0487,-79.1306"/>
</g>
<!-- Node3 -->
<g id="node3" class="node"><title>Node3</title>
<g id="a_node3"><a xlink:href="../../d7/d81/classserver_1_1cls_settings.html#aba9713d2408ce6ae7acb28a36647ebaf" target="_top" xlink:title="clsSettings Constructor">
<polygon fill="white" stroke="black" points="342.5,-164 342.5,-194 439.5,-194 439.5,-164 342.5,-164"/>
<text text-anchor="start" x="350.5" y="-182" font-family="Helvetica,sans-Serif" font-size="10.00">server::clsSettings</text>
<text text-anchor="middle" x="391" y="-171" font-family="Helvetica,sans-Serif" font-size="10.00">::clsSettings</text>
</a>
</g>
</g>
<!-- Node2&#45;&gt;Node3 -->
<g id="edge2" class="edge"><title>Node2&#45;&gt;Node3</title>
<path fill="none" stroke="midnightblue" d="M290.87,-179C307.811,-179 326.132,-179 342.36,-179"/>
<polygon fill="midnightblue" stroke="midnightblue" points="290.531,-175.5 280.531,-179 290.531,-182.5 290.531,-175.5"/>
</g>
<!-- Node5 -->
<g id="node5" class="node"><title>Node5</title>
<g id="a_node5"><a xlink:href="../../dc/d17/custom_irc_server_2main_8cpp.html#a0ddf1224851353fc92bfbff6f499fa97" target="_top" xlink:title="main">
<polygon fill="white" stroke="black" points="480,-68.5 480,-87.5 518,-87.5 518,-68.5 480,-68.5"/>
<text text-anchor="middle" x="499" y="-75.5" font-family="Helvetica,sans-Serif" font-size="10.00">main</text>
</a>
</g>
</g>
<!-- Node4&#45;&gt;Node5 -->
<g id="edge4" class="edge"><title>Node4&#45;&gt;Node5</title>
<path fill="none" stroke="midnightblue" d="M454.208,-78C463.464,-78 472.334,-78 479.64,-78"/>
<polygon fill="midnightblue" stroke="midnightblue" points="454.068,-74.5001 444.068,-78 454.068,-81.5001 454.068,-74.5001"/>
</g>
<!-- Node6&#45;&gt;Node4 -->
<g id="edge6" class="edge"><title>Node6&#45;&gt;Node4</title>
<path fill="none" stroke="midnightblue" d="M312.059,-87.4323C320.763,-86.379 329.458,-85.3267 337.716,-84.3273"/>
<polygon fill="midnightblue" stroke="midnightblue" points="311.37,-83.9902 301.862,-88.6663 312.211,-90.9395 311.37,-83.9902"/>
</g>
<!-- Node7&#45;&gt;Node4 -->
<g id="edge8" class="edge"><title>Node7&#45;&gt;Node4</title>
<path fill="none" stroke="midnightblue" d="M311.488,-68.4985C320.439,-69.5818 329.391,-70.6652 337.878,-71.6922"/>
<polygon fill="midnightblue" stroke="midnightblue" points="311.754,-65.0053 301.406,-67.2784 310.913,-71.9546 311.754,-65.0053"/>
</g>
<!-- Node8&#45;&gt;Node4 -->
<g id="edge10" class="edge"><title>Node8&#45;&gt;Node4</title>
<path fill="none" stroke="midnightblue" d="M285.311,-33.5781C290.962,-35.6966 296.613,-37.8632 302,-40 325.049,-49.1423 351.078,-60.5153 368.811,-68.4253"/>
<polygon fill="midnightblue" stroke="midnightblue" points="286.441,-30.2641 275.847,-30.0721 284.009,-36.8281 286.441,-30.2641"/>
</g>
</g>
</svg>
        <g id="navigator" transform="translate(0 0)" fill="#404254">
                <rect fill="#f2f5e9" fill-opacity="0.5" stroke="#606060" stroke-width=".5" x="0" y="0" width="60" height="60"/>
                <use id="zoomplus" xlink:href="#zoomPlus" x="17" y="9" onmousedown="handleZoom(evt,'in')"/>
                <use id="zoomminus" xlink:href="#zoomMin" x="42" y="9" onmousedown="handleZoom(evt,'out')"/>
                <use id="reset" xlink:href="#resetDef" x="30" y="36" onmousedown="handleReset()"/>
                <g id="arrowUp" xlink:href="#dirArrow" transform="translate(30 24)" onmousedown="handlePan(0,-1)">
                  <use xlink:href="#rim" fill="#404040">
                        <set attributeName="fill" to="#808080" begin="arrowUp.mouseover" end="arrowUp.mouseout"/>
                  </use>
                  <path fill="none" stroke="white" stroke-width="1.5" d="M0,-3.0v7 M-2.5,-0.5L0,-3.0L2.5,-0.5"/>
                </g>
                <g id="arrowRight" xlink:href="#dirArrow" transform="rotate(90) translate(36 -43)" onmousedown="handlePan(1,0)">
                  <use xlink:href="#rim" fill="#404040">
                        <set attributeName="fill" to="#808080" begin="arrowRight.mouseover" end="arrowRight.mouseout"/>
                  </use>
                  <path fill="none" stroke="white" stroke-width="1.5" d="M0,-3.0v7 M-2.5,-0.5L0,-3.0L2.5,-0.5"/>
                </g>
                <g id="arrowDown" xlink:href="#dirArrow" transform="rotate(180) translate(-30 -48)" onmousedown="handlePan(0,1)">
                  <use xlink:href="#rim" fill="#404040">
                        <set attributeName="fill" to="#808080" begin="arrowDown.mouseover" end="arrowDown.mouseout"/>
                  </use>
                  <path fill="none" stroke="white" stroke-width="1.5" d="M0,-3.0v7 M-2.5,-0.5L0,-3.0L2.5,-0.5"/>
                </g>
                <g id="arrowLeft" xlink:href="#dirArrow" transform="rotate(270) translate(-36 17)" onmousedown="handlePan(-1,0)">
                  <use xlink:href="#rim" fill="#404040">
                        <set attributeName="fill" to="#808080" begin="arrowLeft.mouseover" end="arrowLeft.mouseout"/>
                  </use>
                  <path fill="none" stroke="white" stroke-width="1.5" d="M0,-3.0v7 M-2.5,-0.5L0,-3.0L2.5,-0.5"/>
                </g>
        </g>
        <svg viewBox="0 0 15 15" width="100%" height="30px" preserveAspectRatio="xMaxYMin meet">
         <g id="arrow_out" transform="scale(0.3 0.3)">
          <a xlink:href="classserver_1_1irc_user_a692aec882619dc575ac64ec8fabf02e9_icgraph_org.svg" target="_base">
           <rect id="button" ry="5" rx="5" y="6" x="6" height="38" width="38"
                fill="#f2f5e9" fill-opacity="0.5" stroke="#606060" stroke-width="1.0"/>
           <path id="arrow"
             d="M 11.500037,31.436501 C 11.940474,20.09759 22.043105,11.32322 32.158766,21.979434 L 37.068811,17.246167 C 37.068811,17.246167 37.088388,32 37.088388,32 L 22.160133,31.978069 C 22.160133,31.978069 26.997745,27.140456 26.997745,27.140456 C 18.528582,18.264221 13.291696,25.230495 11.500037,31.436501 z"
             style="fill:#404040;"/>
          </a>
         </g>
        </svg>
</svg>
