<?xml version="1.0" encoding="UTF-8" standalone="no"?>
<!DOCTYPE svg PUBLIC "-//W3C//DTD SVG 1.1//EN"
 "http://www.w3.org/Graphics/SVG/1.1/DTD/svg11.dtd">
<!-- Generated by graphviz version 2.30.1 (20130303.0817)
 -->
<!-- Title: server::ircUser::toVariantMap Pages: 1 -->
<svg width="554pt" height="66pt"
 viewBox="0.00 0.00 554.00 66.00" xmlns="http://www.w3.org/2000/svg" xmlns:xlink="http://www.w3.org/1999/xlink">
<g id="graph0" class="graph" transform="scale(1 1) rotate(0) translate(4 62)">
<title>server::ircUser::toVariantMap</title>
<polygon fill="white" stroke="white" points="-4,5 -4,-62 551,-62 551,5 -4,5"/>
<!-- Node1 -->
<g id="node1" class="node"><title>Node1</title>
<polygon fill="#bfbfbf" stroke="black" points="0.5,-19.5 0.5,-38.5 143.5,-38.5 143.5,-19.5 0.5,-19.5"/>
<text text-anchor="middle" x="72" y="-26.5" font-family="Helvetica,sans-Serif" font-size="10.00">server::ircUser::toVariantMap</text>
</g>
<!-- Node2 -->
<g id="node2" class="node"><title>Node2</title>
<g id="a_node2"><a xlink:href="../../d1/d48/classserver_1_1main_app.html#a92448c1219ad89999c983b04adaa4236" target="_top" xlink:title="Triggered when a user joins trough a JOIN message.">
<polygon fill="white" stroke="black" points="185.5,-38.5 185.5,-57.5 324.5,-57.5 324.5,-38.5 185.5,-38.5"/>
<text text-anchor="middle" x="255" y="-45.5" font-family="Helvetica,sans-Serif" font-size="10.00">server::mainApp::userOnline</text>
</a>
</g>
</g>
<!-- Node1&#45;&gt;Node2 -->
<g id="edge1" class="edge"><title>Node1&#45;&gt;Node2</title>
<path fill="none" stroke="midnightblue" d="M153.791,-37.4808C164.333,-38.5874 175.053,-39.7127 185.369,-40.7956"/>
<polygon fill="midnightblue" stroke="midnightblue" points="154.068,-33.9907 143.757,-36.4275 153.337,-40.9525 154.068,-33.9907"/>
</g>
<!-- Node5 -->
<g id="node5" class="node"><title>Node5</title>
<g id="a_node5"><a xlink:href="../../d1/d48/classserver_1_1main_app.html#aea819e4b8f297de7f1e3fc2f8513b0a4" target="_top" xlink:title="Triggered when a UI client wants all the users.">
<polygon fill="white" stroke="black" points="180.5,-0.5 180.5,-19.5 329.5,-19.5 329.5,-0.5 180.5,-0.5"/>
<text text-anchor="middle" x="255" y="-7.5" font-family="Helvetica,sans-Serif" font-size="10.00">server::mainApp::doUserQuery</text>
</a>
</g>
</g>
<!-- Node1&#45;&gt;Node5 -->
<g id="edge4" class="edge"><title>Node1&#45;&gt;Node5</title>
<path fill="none" stroke="midnightblue" d="M153.975,-20.4999C162.744,-19.5794 171.633,-18.6463 180.308,-17.7356"/>
<polygon fill="midnightblue" stroke="midnightblue" points="153.337,-17.0475 143.757,-21.5725 154.068,-24.0093 153.337,-17.0475"/>
</g>
<!-- Node3 -->
<g id="node3" class="node"><title>Node3</title>
<g id="a_node3"><a xlink:href="../../d1/d48/classserver_1_1main_app.html#af331bc3bf60e745f3ddc95ab3abe5188" target="_top" xlink:title="server::mainApp::run">
<polygon fill="white" stroke="black" points="366,-19.5 366,-38.5 472,-38.5 472,-19.5 366,-19.5"/>
<text text-anchor="middle" x="419" y="-26.5" font-family="Helvetica,sans-Serif" font-size="10.00">server::mainApp::run</text>
</a>
</g>
</g>
<!-- Node2&#45;&gt;Node3 -->
<g id="edge2" class="edge"><title>Node2&#45;&gt;Node3</title>
<path fill="none" stroke="midnightblue" d="M334.79,-38.7592C345.352,-37.5205 355.963,-36.2759 365.906,-35.1098"/>
<polygon fill="midnightblue" stroke="midnightblue" points="334.227,-35.3012 324.703,-39.9423 335.042,-42.2535 334.227,-35.3012"/>
</g>
<!-- Node4 -->
<g id="node4" class="node"><title>Node4</title>
<g id="a_node4"><a xlink:href="../../dc/d17/custom_irc_server_2main_8cpp.html#a0ddf1224851353fc92bfbff6f499fa97" target="_top" xlink:title="main">
<polygon fill="white" stroke="black" points="508,-19.5 508,-38.5 546,-38.5 546,-19.5 508,-19.5"/>
<text text-anchor="middle" x="527" y="-26.5" font-family="Helvetica,sans-Serif" font-size="10.00">main</text>
</a>
</g>
</g>
<!-- Node3&#45;&gt;Node4 -->
<g id="edge3" class="edge"><title>Node3&#45;&gt;Node4</title>
<path fill="none" stroke="midnightblue" d="M482.208,-29C491.464,-29 500.334,-29 507.64,-29"/>
<polygon fill="midnightblue" stroke="midnightblue" points="482.068,-25.5001 472.068,-29 482.068,-32.5001 482.068,-25.5001"/>
</g>
<!-- Node5&#45;&gt;Node3 -->
<g id="edge5" class="edge"><title>Node5&#45;&gt;Node3</title>
<path fill="none" stroke="midnightblue" d="M339.909,-19.8412C348.787,-20.8824 357.617,-21.9181 365.974,-22.8982"/>
<polygon fill="midnightblue" stroke="midnightblue" points="340.229,-16.3548 329.889,-18.666 339.413,-23.3071 340.229,-16.3548"/>
</g>
</g>
</svg>
