<?xml version="1.0" encoding="UTF-8" standalone="no"?>
<!DOCTYPE svg PUBLIC "-//W3C//DTD SVG 1.1//EN"
 "http://www.w3.org/Graphics/SVG/1.1/DTD/svg11.dtd">
<!-- Generated by graphviz version 2.30.1 (20130303.0817)
 -->
<!-- Title: server::ircUser::isStandard Pages: 1 -->
<svg width="530pt" height="28pt"
 viewBox="0.00 0.00 530.00 28.00" xmlns="http://www.w3.org/2000/svg" xmlns:xlink="http://www.w3.org/1999/xlink">
<g id="graph0" class="graph" transform="scale(1 1) rotate(0) translate(4 24)">
<title>server::ircUser::isStandard</title>
<polygon fill="white" stroke="white" points="-4,5 -4,-24 527,-24 527,5 -4,5"/>
<!-- Node1 -->
<g id="node1" class="node"><title>Node1</title>
<polygon fill="#bfbfbf" stroke="black" points="0.5,-0.5 0.5,-19.5 131.5,-19.5 131.5,-0.5 0.5,-0.5"/>
<text text-anchor="middle" x="66" y="-7.5" font-family="Helvetica,sans-Serif" font-size="10.00">server::ircUser::isStandard</text>
</g>
<!-- Node2 -->
<g id="node2" class="node"><title>Node2</title>
<g id="a_node2"><a xlink:href="../../d1/d48/classserver_1_1main_app.html#aae86b15c001a235de78a90334e697b5f" target="_top" xlink:title="Triggered when a user leaves trough a PART message.">
<polygon fill="white" stroke="black" points="168,-0.5 168,-19.5 306,-19.5 306,-0.5 168,-0.5"/>
<text text-anchor="middle" x="237" y="-7.5" font-family="Helvetica,sans-Serif" font-size="10.00">server::mainApp::userOffline</text>
</a>
</g>
</g>
<!-- Node1&#45;&gt;Node2 -->
<g id="edge1" class="edge"><title>Node1&#45;&gt;Node2</title>
<path fill="none" stroke="midnightblue" d="M141.938,-10C150.597,-10 159.393,-10 167.954,-10"/>
<polygon fill="midnightblue" stroke="midnightblue" points="141.857,-6.5001 131.856,-10 141.856,-13.5001 141.857,-6.5001"/>
</g>
<!-- Node3 -->
<g id="node3" class="node"><title>Node3</title>
<g id="a_node3"><a xlink:href="../../d1/d48/classserver_1_1main_app.html#af331bc3bf60e745f3ddc95ab3abe5188" target="_top" xlink:title="server::mainApp::run">
<polygon fill="white" stroke="black" points="342,-0.5 342,-19.5 448,-19.5 448,-0.5 342,-0.5"/>
<text text-anchor="middle" x="395" y="-7.5" font-family="Helvetica,sans-Serif" font-size="10.00">server::mainApp::run</text>
</a>
</g>
</g>
<!-- Node2&#45;&gt;Node3 -->
<g id="edge2" class="edge"><title>Node2&#45;&gt;Node3</title>
<path fill="none" stroke="midnightblue" d="M316.695,-10C325.132,-10 333.559,-10 341.58,-10"/>
<polygon fill="midnightblue" stroke="midnightblue" points="316.424,-6.5001 306.424,-10 316.424,-13.5001 316.424,-6.5001"/>
</g>
<!-- Node4 -->
<g id="node4" class="node"><title>Node4</title>
<g id="a_node4"><a xlink:href="../../dc/d17/custom_irc_server_2main_8cpp.html#a0ddf1224851353fc92bfbff6f499fa97" target="_top" xlink:title="main">
<polygon fill="white" stroke="black" points="484,-0.5 484,-19.5 522,-19.5 522,-0.5 484,-0.5"/>
<text text-anchor="middle" x="503" y="-7.5" font-family="Helvetica,sans-Serif" font-size="10.00">main</text>
</a>
</g>
</g>
<!-- Node3&#45;&gt;Node4 -->
<g id="edge3" class="edge"><title>Node3&#45;&gt;Node4</title>
<path fill="none" stroke="midnightblue" d="M458.208,-10C467.464,-10 476.334,-10 483.64,-10"/>
<polygon fill="midnightblue" stroke="midnightblue" points="458.068,-6.5001 448.068,-10 458.068,-13.5001 458.068,-6.5001"/>
</g>
</g>
</svg>
