<?xml version="1.0" encoding="UTF-8" standalone="no"?>
<!DOCTYPE svg PUBLIC "-//W3C//DTD SVG 1.1//EN"
 "http://www.w3.org/Graphics/SVG/1.1/DTD/svg11.dtd">
<!-- Generated by graphviz version 2.30.1 (20130303.0817)
 -->
<!-- Title: main Pages: 1 -->
<svg width="226pt" height="66pt"
 viewBox="0.00 0.00 226.00 66.00" xmlns="http://www.w3.org/2000/svg" xmlns:xlink="http://www.w3.org/1999/xlink">
<g id="graph0" class="graph" transform="scale(1 1) rotate(0) translate(4 62)">
<title>main</title>
<polygon fill="white" stroke="white" points="-4,5 -4,-62 223,-62 223,5 -4,5"/>
<!-- Node1 -->
<g id="node1" class="node"><title>Node1</title>
<polygon fill="#bfbfbf" stroke="black" points="0,-19.5 0,-38.5 38,-38.5 38,-19.5 0,-19.5"/>
<text text-anchor="middle" x="19" y="-26.5" font-family="Helvetica,sans-Serif" font-size="10.00">main</text>
</g>
<!-- Node2 -->
<g id="node2" class="node"><title>Node2</title>
<g id="a_node2"><a xlink:href="../../d9/dc6/class_main_window.html#a9597b97cef9da0760a06e8e04ca3d138" target="_top" xlink:title="MainWindow::setOrientation">
<polygon fill="white" stroke="black" points="76.5,-38.5 76.5,-57.5 215.5,-57.5 215.5,-38.5 76.5,-38.5"/>
<text text-anchor="middle" x="146" y="-45.5" font-family="Helvetica,sans-Serif" font-size="10.00">MainWindow::setOrientation</text>
</a>
</g>
</g>
<!-- Node1&#45;&gt;Node2 -->
<g id="edge1" class="edge"><title>Node1&#45;&gt;Node2</title>
<path fill="none" stroke="midnightblue" d="M38.1761,-31.7628C47.5261,-33.184 59.6029,-35.0196 72.2555,-36.9428"/>
<polygon fill="midnightblue" stroke="midnightblue" points="72.0725,-40.4552 82.485,-38.4977 73.1245,-33.5346 72.0725,-40.4552"/>
</g>
<!-- Node3 -->
<g id="node3" class="node"><title>Node3</title>
<g id="a_node3"><a xlink:href="../../d9/dc6/class_main_window.html#ae66038a9d909fd409d781bf7c3f3ff2c" target="_top" xlink:title="MainWindow::showExpanded">
<polygon fill="white" stroke="black" points="74,-0.5 74,-19.5 218,-19.5 218,-0.5 74,-0.5"/>
<text text-anchor="middle" x="146" y="-7.5" font-family="Helvetica,sans-Serif" font-size="10.00">MainWindow::showExpanded</text>
</a>
</g>
</g>
<!-- Node1&#45;&gt;Node3 -->
<g id="edge2" class="edge"><title>Node1&#45;&gt;Node3</title>
<path fill="none" stroke="midnightblue" d="M38.1761,-26.2372C47.5261,-24.816 59.6029,-22.9804 72.2555,-21.0572"/>
<polygon fill="midnightblue" stroke="midnightblue" points="73.1245,-24.4654 82.485,-19.5023 72.0725,-17.5448 73.1245,-24.4654"/>
</g>
</g>
</svg>
