<?xml version="1.0" encoding="UTF-8" standalone="no"?>
<!DOCTYPE svg PUBLIC "-//W3C//DTD SVG 1.1//EN"
 "http://www.w3.org/Graphics/SVG/1.1/DTD/svg11.dtd">
<!-- Generated by graphviz version 2.30.1 (20130303.0817)
 -->
<!-- Title: C++/customIrcClient/ircuser.h Pages: 1 -->
<svg width="852pt" height="312pt"
 viewBox="0.00 0.00 852.00 312.00" xmlns="http://www.w3.org/2000/svg" xmlns:xlink="http://www.w3.org/1999/xlink">
<g id="graph0" class="graph" transform="scale(1 1) rotate(0) translate(4 308)">
<title>C++/customIrcClient/ircuser.h</title>
<polygon fill="white" stroke="white" points="-4,5 -4,-308 849,-308 849,5 -4,5"/>
<!-- Node1 -->
<g id="node1" class="node"><title>Node1</title>
<polygon fill="#bfbfbf" stroke="black" points="420,-273 420,-303 526,-303 526,-273 420,-273"/>
<text text-anchor="start" x="428" y="-291" font-family="Helvetica,sans-Serif" font-size="10.00">C++/customIrcClient</text>
<text text-anchor="middle" x="473" y="-280" font-family="Helvetica,sans-Serif" font-size="10.00">/ircuser.h</text>
</g>
<!-- Node2 -->
<g id="node2" class="node"><title>Node2</title>
<g id="a_node2"><a xlink:href="../../d3/d33/chatbox_8h.xhtml" target="_top" xlink:title="C++/customIrcClient\l/chatbox.h">
<polygon fill="white" stroke="black" points="82,-137 82,-167 188,-167 188,-137 82,-137"/>
<text text-anchor="start" x="90" y="-155" font-family="Helvetica,sans-Serif" font-size="10.00">C++/customIrcClient</text>
<text text-anchor="middle" x="135" y="-144" font-family="Helvetica,sans-Serif" font-size="10.00">/chatbox.h</text>
</a>
</g>
</g>
<!-- Node1&#45;&gt;Node2 -->
<g id="edge1" class="edge"><title>Node1&#45;&gt;Node2</title>
<path fill="none" stroke="midnightblue" d="M409.786,-285.06C327.541,-281.2 190.072,-269.749 154,-236 135.002,-218.225 133.146,-185.66 133.841,-167.043"/>
<polygon fill="midnightblue" stroke="midnightblue" points="409.632,-288.557 419.778,-285.505 409.943,-281.564 409.632,-288.557"/>
</g>
<!-- Node8 -->
<g id="node8" class="node"><title>Node8</title>
<g id="a_node8"><a xlink:href="../../d4/d48/chatentry_8h.xhtml" target="_top" xlink:title="C++/customIrcClient\l/chatentry.h">
<polygon fill="white" stroke="black" points="163,-205 163,-235 269,-235 269,-205 163,-205"/>
<text text-anchor="start" x="171" y="-223" font-family="Helvetica,sans-Serif" font-size="10.00">C++/customIrcClient</text>
<text text-anchor="middle" x="216" y="-212" font-family="Helvetica,sans-Serif" font-size="10.00">/chatentry.h</text>
</a>
</g>
</g>
<!-- Node1&#45;&gt;Node8 -->
<g id="edge7" class="edge"><title>Node1&#45;&gt;Node8</title>
<path fill="none" stroke="midnightblue" d="M409.915,-270.799C366.723,-259.707 310.085,-245.162 269.182,-234.658"/>
<polygon fill="midnightblue" stroke="midnightblue" points="409.193,-274.227 419.749,-273.325 410.934,-267.447 409.193,-274.227"/>
</g>
<!-- Node9 -->
<g id="node9" class="node"><title>Node9</title>
<g id="a_node9"><a xlink:href="../../d5/dbc/clsserverconn_8h.xhtml" target="_top" xlink:title="C++/customIrcClient\l/clsserverconn.h">
<polygon fill="white" stroke="black" points="287,-205 287,-235 393,-235 393,-205 287,-205"/>
<text text-anchor="start" x="295" y="-223" font-family="Helvetica,sans-Serif" font-size="10.00">C++/customIrcClient</text>
<text text-anchor="middle" x="340" y="-212" font-family="Helvetica,sans-Serif" font-size="10.00">/clsserverconn.h</text>
</a>
</g>
</g>
<!-- Node1&#45;&gt;Node9 -->
<g id="edge10" class="edge"><title>Node1&#45;&gt;Node9</title>
<path fill="none" stroke="midnightblue" d="M435.395,-268.339C414.15,-257.796 388.022,-244.83 368.485,-235.135"/>
<polygon fill="midnightblue" stroke="midnightblue" points="433.955,-271.531 444.468,-272.841 437.066,-265.261 433.955,-271.531"/>
</g>
<!-- Node11 -->
<g id="node11" class="node"><title>Node11</title>
<g id="a_node11"><a xlink:href="../../db/dd7/custom_irc_client_2clssettings_8h.xhtml" target="_top" xlink:title="C++/customIrcClient\l/clssettings.h">
<polygon fill="white" stroke="black" points="420,-205 420,-235 526,-235 526,-205 420,-205"/>
<text text-anchor="start" x="428" y="-223" font-family="Helvetica,sans-Serif" font-size="10.00">C++/customIrcClient</text>
<text text-anchor="middle" x="473" y="-212" font-family="Helvetica,sans-Serif" font-size="10.00">/clssettings.h</text>
</a>
</g>
</g>
<!-- Node1&#45;&gt;Node11 -->
<g id="edge13" class="edge"><title>Node1&#45;&gt;Node11</title>
<path fill="none" stroke="midnightblue" d="M473,-262.532C473,-253.361 473,-243.245 473,-235.293"/>
<polygon fill="midnightblue" stroke="midnightblue" points="469.5,-262.679 473,-272.679 476.5,-262.679 469.5,-262.679"/>
</g>
<!-- Node13 -->
<g id="node13" class="node"><title>Node13</title>
<g id="a_node13"><a xlink:href="../../dc/da0/clsuserentry_8h.xhtml" target="_top" xlink:title="C++/customIrcClient\l/desktop/clsuserentry.h">
<polygon fill="white" stroke="black" points="563.5,-205 563.5,-235 682.5,-235 682.5,-205 563.5,-205"/>
<text text-anchor="start" x="571.5" y="-223" font-family="Helvetica,sans-Serif" font-size="10.00">C++/customIrcClient</text>
<text text-anchor="middle" x="623" y="-212" font-family="Helvetica,sans-Serif" font-size="10.00">/desktop/clsuserentry.h</text>
</a>
</g>
</g>
<!-- Node1&#45;&gt;Node13 -->
<g id="edge16" class="edge"><title>Node1&#45;&gt;Node13</title>
<path fill="none" stroke="midnightblue" d="M514.481,-268.749C538.698,-258.093 568.785,-244.855 591.132,-235.022"/>
<polygon fill="midnightblue" stroke="midnightblue" points="512.922,-265.61 505.179,-272.841 515.742,-272.018 512.922,-265.61"/>
</g>
<!-- Node15 -->
<g id="node15" class="node"><title>Node15</title>
<g id="a_node15"><a xlink:href="../../da/d60/clsuserlist_8h.xhtml" target="_top" xlink:title="C++/customIrcClient\l/desktop/clsuserlist.h">
<polygon fill="white" stroke="black" points="716,-137 716,-167 826,-167 826,-137 716,-137"/>
<text text-anchor="start" x="724" y="-155" font-family="Helvetica,sans-Serif" font-size="10.00">C++/customIrcClient</text>
<text text-anchor="middle" x="771" y="-144" font-family="Helvetica,sans-Serif" font-size="10.00">/desktop/clsuserlist.h</text>
</a>
</g>
</g>
<!-- Node1&#45;&gt;Node15 -->
<g id="edge20" class="edge"><title>Node1&#45;&gt;Node15</title>
<path fill="none" stroke="midnightblue" d="M536.304,-281.805C581.787,-275.857 643.246,-263.14 691,-236 706.921,-226.952 740.96,-188.427 759.078,-167.191"/>
<polygon fill="midnightblue" stroke="midnightblue" points="535.768,-278.344 526.271,-283.041 536.624,-285.292 535.768,-278.344"/>
</g>
<!-- Node17 -->
<g id="node17" class="node"><title>Node17</title>
<g id="a_node17"><a xlink:href="../../d3/de6/custom_irc_client_2ircuser_8cpp.xhtml" target="_top" xlink:title="C++/customIrcClient\l/ircuser.cpp">
<polygon fill="white" stroke="black" points="739,-205 739,-235 845,-235 845,-205 739,-205"/>
<text text-anchor="start" x="747" y="-223" font-family="Helvetica,sans-Serif" font-size="10.00">C++/customIrcClient</text>
<text text-anchor="middle" x="792" y="-212" font-family="Helvetica,sans-Serif" font-size="10.00">/ircuser.cpp</text>
</a>
</g>
</g>
<!-- Node1&#45;&gt;Node17 -->
<g id="edge21" class="edge"><title>Node1&#45;&gt;Node17</title>
<path fill="none" stroke="midnightblue" d="M536.053,-274.613C587.072,-264.5 660.743,-249.694 725,-236 729.547,-235.031 734.263,-234.009 738.992,-232.973"/>
<polygon fill="midnightblue" stroke="midnightblue" points="535.291,-271.196 526.161,-276.571 536.651,-278.062 535.291,-271.196"/>
</g>
<!-- Node3 -->
<g id="node3" class="node"><title>Node3</title>
<g id="a_node3"><a xlink:href="../../de/da9/chatbox_8cpp.xhtml" target="_top" xlink:title="C++/customIrcClient\l/chatbox.cpp">
<polygon fill="white" stroke="black" points="-1,-69 -1,-99 105,-99 105,-69 -1,-69"/>
<text text-anchor="start" x="7" y="-87" font-family="Helvetica,sans-Serif" font-size="10.00">C++/customIrcClient</text>
<text text-anchor="middle" x="52" y="-76" font-family="Helvetica,sans-Serif" font-size="10.00">/chatbox.cpp</text>
</a>
</g>
</g>
<!-- Node2&#45;&gt;Node3 -->
<g id="edge2" class="edge"><title>Node2&#45;&gt;Node3</title>
<path fill="none" stroke="midnightblue" d="M108.98,-130.309C96.1945,-120.143 81.1207,-108.156 69.6895,-99.0663"/>
<polygon fill="midnightblue" stroke="midnightblue" points="106.985,-133.194 116.99,-136.679 111.342,-127.716 106.985,-133.194"/>
</g>
<!-- Node4 -->
<g id="node4" class="node"><title>Node4</title>
<g id="a_node4"><a xlink:href="../../d0/dc6/chatentry_8cpp.xhtml" target="_top" xlink:title="C++/customIrcClient\l/chatentry.cpp">
<polygon fill="white" stroke="black" points="123,-69 123,-99 229,-99 229,-69 123,-69"/>
<text text-anchor="start" x="131" y="-87" font-family="Helvetica,sans-Serif" font-size="10.00">C++/customIrcClient</text>
<text text-anchor="middle" x="176" y="-76" font-family="Helvetica,sans-Serif" font-size="10.00">/chatentry.cpp</text>
</a>
</g>
</g>
<!-- Node2&#45;&gt;Node4 -->
<g id="edge3" class="edge"><title>Node2&#45;&gt;Node4</title>
<path fill="none" stroke="midnightblue" d="M149.276,-128.019C155.21,-118.467 161.913,-107.677 167.121,-99.2931"/>
<polygon fill="midnightblue" stroke="midnightblue" points="146.2,-126.338 143.896,-136.679 152.146,-130.031 146.2,-126.338"/>
</g>
<!-- Node5 -->
<g id="node5" class="node"><title>Node5</title>
<g id="a_node5"><a xlink:href="../../d9/d53/mainwindow_8h.xhtml" target="_top" xlink:title="C++/customIrcClient\l/mainwindow.h">
<polygon fill="white" stroke="black" points="247,-69 247,-99 353,-99 353,-69 247,-69"/>
<text text-anchor="start" x="255" y="-87" font-family="Helvetica,sans-Serif" font-size="10.00">C++/customIrcClient</text>
<text text-anchor="middle" x="300" y="-76" font-family="Helvetica,sans-Serif" font-size="10.00">/mainwindow.h</text>
</a>
</g>
</g>
<!-- Node2&#45;&gt;Node5 -->
<g id="edge4" class="edge"><title>Node2&#45;&gt;Node5</title>
<path fill="none" stroke="midnightblue" d="M179.923,-133.031C206.681,-122.328 240.146,-108.942 264.945,-99.0218"/>
<polygon fill="midnightblue" stroke="midnightblue" points="178.382,-129.878 170.397,-136.841 180.981,-136.377 178.382,-129.878"/>
</g>
<!-- Node6 -->
<g id="node6" class="node"><title>Node6</title>
<g id="a_node6"><a xlink:href="../../df/d94/custom_irc_client_2main_8cpp.xhtml" target="_top" xlink:title="C++/customIrcClient\l/main.cpp">
<polygon fill="white" stroke="black" points="185,-1 185,-31 291,-31 291,-1 185,-1"/>
<text text-anchor="start" x="193" y="-19" font-family="Helvetica,sans-Serif" font-size="10.00">C++/customIrcClient</text>
<text text-anchor="middle" x="238" y="-8" font-family="Helvetica,sans-Serif" font-size="10.00">/main.cpp</text>
</a>
</g>
</g>
<!-- Node5&#45;&gt;Node6 -->
<g id="edge5" class="edge"><title>Node5&#45;&gt;Node6</title>
<path fill="none" stroke="midnightblue" d="M279.515,-61.1939C270.278,-51.3605 259.627,-40.0228 251.427,-31.2931"/>
<polygon fill="midnightblue" stroke="midnightblue" points="277.149,-63.7869 286.547,-68.679 282.251,-58.9941 277.149,-63.7869"/>
</g>
<!-- Node7 -->
<g id="node7" class="node"><title>Node7</title>
<g id="a_node7"><a xlink:href="../../d8/dd9/mainwindow_8cpp.xhtml" target="_top" xlink:title="C++/customIrcClient\l/mainwindow.cpp">
<polygon fill="white" stroke="black" points="309,-1 309,-31 415,-31 415,-1 309,-1"/>
<text text-anchor="start" x="317" y="-19" font-family="Helvetica,sans-Serif" font-size="10.00">C++/customIrcClient</text>
<text text-anchor="middle" x="362" y="-8" font-family="Helvetica,sans-Serif" font-size="10.00">/mainwindow.cpp</text>
</a>
</g>
</g>
<!-- Node5&#45;&gt;Node7 -->
<g id="edge6" class="edge"><title>Node5&#45;&gt;Node7</title>
<path fill="none" stroke="midnightblue" d="M320.485,-61.1939C329.722,-51.3605 340.373,-40.0228 348.573,-31.2931"/>
<polygon fill="midnightblue" stroke="midnightblue" points="317.749,-58.9941 313.453,-68.679 322.851,-63.7869 317.749,-58.9941"/>
</g>
<!-- Node8&#45;&gt;Node2 -->
<g id="edge8" class="edge"><title>Node8&#45;&gt;Node2</title>
<path fill="none" stroke="midnightblue" d="M190.607,-198.309C178.13,-188.143 163.419,-176.156 152.263,-167.066"/>
<polygon fill="midnightblue" stroke="midnightblue" points="188.461,-201.076 198.424,-204.679 192.883,-195.649 188.461,-201.076"/>
</g>
<!-- Node8&#45;&gt;Node4 -->
<g id="edge9" class="edge"><title>Node8&#45;&gt;Node4</title>
<path fill="none" stroke="midnightblue" d="M211.071,-194.721C207.461,-178.043 202.136,-155.483 196,-136 192,-123.3 186.394,-109.238 182.134,-99.1018"/>
<polygon fill="midnightblue" stroke="midnightblue" points="207.696,-195.678 213.186,-204.74 214.545,-194.232 207.696,-195.678"/>
</g>
<!-- Node10 -->
<g id="node10" class="node"><title>Node10</title>
<g id="a_node10"><a xlink:href="../../db/d1f/clsserverconn_8cpp.xhtml" target="_top" xlink:title="C++/customIrcClient\l/clsserverconn.cpp">
<polygon fill="white" stroke="black" points="282,-137 282,-167 388,-167 388,-137 282,-137"/>
<text text-anchor="start" x="290" y="-155" font-family="Helvetica,sans-Serif" font-size="10.00">C++/customIrcClient</text>
<text text-anchor="middle" x="335" y="-144" font-family="Helvetica,sans-Serif" font-size="10.00">/clsserverconn.cpp</text>
</a>
</g>
</g>
<!-- Node9&#45;&gt;Node10 -->
<g id="edge11" class="edge"><title>Node9&#45;&gt;Node10</title>
<path fill="none" stroke="midnightblue" d="M338.146,-194.532C337.452,-185.361 336.685,-175.245 336.083,-167.293"/>
<polygon fill="midnightblue" stroke="midnightblue" points="334.67,-194.972 338.915,-204.679 341.65,-194.443 334.67,-194.972"/>
</g>
<!-- Node9&#45;&gt;Node5 -->
<g id="edge12" class="edge"><title>Node9&#45;&gt;Node5</title>
<path fill="none" stroke="midnightblue" d="M301.932,-199.175C290.491,-191.151 279.31,-180.734 273,-168 261.629,-145.054 277.038,-116.232 288.825,-99.2922"/>
<polygon fill="midnightblue" stroke="midnightblue" points="300.363,-202.33 310.655,-204.843 304.177,-196.46 300.363,-202.33"/>
</g>
<!-- Node12 -->
<g id="node12" class="node"><title>Node12</title>
<g id="a_node12"><a xlink:href="../../df/dc0/custom_irc_client_2clssettings_8cpp.xhtml" target="_top" xlink:title="C++/customIrcClient\l/clssettings.cpp">
<polygon fill="white" stroke="black" points="444,-137 444,-167 550,-167 550,-137 444,-137"/>
<text text-anchor="start" x="452" y="-155" font-family="Helvetica,sans-Serif" font-size="10.00">C++/customIrcClient</text>
<text text-anchor="middle" x="497" y="-144" font-family="Helvetica,sans-Serif" font-size="10.00">/clssettings.cpp</text>
</a>
</g>
</g>
<!-- Node11&#45;&gt;Node12 -->
<g id="edge14" class="edge"><title>Node11&#45;&gt;Node12</title>
<path fill="none" stroke="midnightblue" d="M481.68,-195.129C485.072,-185.801 488.848,-175.418 491.803,-167.293"/>
<polygon fill="midnightblue" stroke="midnightblue" points="478.336,-194.085 478.208,-204.679 484.914,-196.477 478.336,-194.085"/>
</g>
<!-- Node11&#45;&gt;Node5 -->
<g id="edge15" class="edge"><title>Node11&#45;&gt;Node5</title>
<path fill="none" stroke="midnightblue" d="M455.707,-196.548C441.136,-178.641 419.03,-153.712 396,-136 376.552,-121.043 352.1,-108.125 332.741,-99.0324"/>
<polygon fill="midnightblue" stroke="midnightblue" points="453.251,-199.082 462.226,-204.713 458.721,-194.714 453.251,-199.082"/>
</g>
<!-- Node14 -->
<g id="node14" class="node"><title>Node14</title>
<g id="a_node14"><a xlink:href="../../dd/d08/clsuserentry_8cpp.xhtml" target="_top" xlink:title="C++/customIrcClient\l/desktop/clsuserentry.cpp">
<polygon fill="white" stroke="black" points="568.5,-137 568.5,-167 697.5,-167 697.5,-137 568.5,-137"/>
<text text-anchor="start" x="576.5" y="-155" font-family="Helvetica,sans-Serif" font-size="10.00">C++/customIrcClient</text>
<text text-anchor="middle" x="633" y="-144" font-family="Helvetica,sans-Serif" font-size="10.00">/desktop/clsuserentry.cpp</text>
</a>
</g>
</g>
<!-- Node13&#45;&gt;Node14 -->
<g id="edge17" class="edge"><title>Node13&#45;&gt;Node14</title>
<path fill="none" stroke="midnightblue" d="M626.707,-194.532C628.097,-185.361 629.63,-175.245 630.834,-167.293"/>
<polygon fill="midnightblue" stroke="midnightblue" points="623.207,-194.267 625.17,-204.679 630.128,-195.316 623.207,-194.267"/>
</g>
<!-- Node13&#45;&gt;Node15 -->
<g id="edge18" class="edge"><title>Node13&#45;&gt;Node15</title>
<path fill="none" stroke="midnightblue" d="M663.928,-200.749C687.822,-190.093 717.508,-176.855 739.557,-167.022"/>
<polygon fill="midnightblue" stroke="midnightblue" points="662.457,-197.572 654.75,-204.841 665.308,-203.965 662.457,-197.572"/>
</g>
<!-- Node16 -->
<g id="node16" class="node"><title>Node16</title>
<g id="a_node16"><a xlink:href="../../d6/d86/clsuserlist_8cpp.xhtml" target="_top" xlink:title="C++/customIrcClient\l/desktop/clsuserlist.cpp">
<polygon fill="white" stroke="black" points="711,-69 711,-99 831,-99 831,-69 711,-69"/>
<text text-anchor="start" x="719" y="-87" font-family="Helvetica,sans-Serif" font-size="10.00">C++/customIrcClient</text>
<text text-anchor="middle" x="771" y="-76" font-family="Helvetica,sans-Serif" font-size="10.00">/desktop/clsuserlist.cpp</text>
</a>
</g>
</g>
<!-- Node15&#45;&gt;Node16 -->
<g id="edge19" class="edge"><title>Node15&#45;&gt;Node16</title>
<path fill="none" stroke="midnightblue" d="M771,-126.532C771,-117.361 771,-107.245 771,-99.2931"/>
<polygon fill="midnightblue" stroke="midnightblue" points="767.5,-126.679 771,-136.679 774.5,-126.679 767.5,-126.679"/>
</g>
</g>
</svg>
