<?xml version="1.0" encoding="UTF-8" standalone="no"?>
<!DOCTYPE svg PUBLIC "-//W3C//DTD SVG 1.1//EN"
 "http://www.w3.org/Graphics/SVG/1.1/DTD/svg11.dtd">
<!-- Generated by graphviz version 2.30.1 (20130303.0817)
 -->
<!-- Title: client::clsServerConn::sendCommand Pages: 1 -->
<svg width="494pt" height="154pt"
 viewBox="0.00 0.00 494.00 154.00" xmlns="http://www.w3.org/2000/svg" xmlns:xlink="http://www.w3.org/1999/xlink">
<g id="graph0" class="graph" transform="scale(1 1) rotate(0) translate(4 150)">
<title>client::clsServerConn::sendCommand</title>
<polygon fill="white" stroke="white" points="-4,5 -4,-150 491,-150 491,5 -4,5"/>
<!-- Node1 -->
<g id="node1" class="node"><title>Node1</title>
<polygon fill="#bfbfbf" stroke="black" points="0,-99 0,-129 108,-129 108,-99 0,-99"/>
<text text-anchor="start" x="8" y="-117" font-family="Helvetica,sans-Serif" font-size="10.00">client::clsServerConn</text>
<text text-anchor="middle" x="54" y="-106" font-family="Helvetica,sans-Serif" font-size="10.00">::sendCommand</text>
</g>
<!-- Node2 -->
<g id="node2" class="node"><title>Node2</title>
<g id="a_node2"><a xlink:href="../../d6/d75/namespace_k4_u.xhtml#aaddaee50fab2801df390147891b0c09d" target="_top" xlink:title="K4U::endl">
<polygon fill="white" stroke="black" points="183.5,-126.5 183.5,-145.5 242.5,-145.5 242.5,-126.5 183.5,-126.5"/>
<text text-anchor="middle" x="213" y="-133.5" font-family="Helvetica,sans-Serif" font-size="10.00">K4U::endl</text>
</a>
</g>
</g>
<!-- Node1&#45;&gt;Node2 -->
<g id="edge1" class="edge"><title>Node1&#45;&gt;Node2</title>
<path fill="none" stroke="midnightblue" d="M108.153,-121.448C129.418,-124.428 153.462,-127.797 173.056,-130.543"/>
<polygon fill="midnightblue" stroke="midnightblue" points="172.758,-134.035 183.147,-131.957 173.729,-127.103 172.758,-134.035"/>
</g>
<!-- Node4 -->
<g id="node4" class="node"><title>Node4</title>
<g id="a_node4"><a xlink:href="../../d2/dc1/class_k4_u_1_1json_command.xhtml#a0b681a1fedfb2e89397b1f71e29edf78" target="_top" xlink:title="Transforms this object to a nice JSON string.">
<polygon fill="white" stroke="black" points="144,-55 144,-85 282,-85 282,-55 144,-55"/>
<text text-anchor="start" x="152" y="-73" font-family="Helvetica,sans-Serif" font-size="10.00">K4U::jsonCommand::toJson</text>
<text text-anchor="middle" x="213" y="-62" font-family="Helvetica,sans-Serif" font-size="10.00">String</text>
</a>
</g>
</g>
<!-- Node1&#45;&gt;Node4 -->
<g id="edge4" class="edge"><title>Node1&#45;&gt;Node4</title>
<path fill="none" stroke="midnightblue" d="M108.153,-99.1036C121.181,-95.4524 135.253,-91.5087 148.705,-87.7386"/>
<polygon fill="midnightblue" stroke="midnightblue" points="149.683,-91.0996 158.367,-85.0308 147.794,-84.3593 149.683,-91.0996"/>
</g>
<!-- Node3 -->
<g id="node3" class="node"><title>Node3</title>
<g id="a_node3"><a xlink:href="../../da/d64/class_k4_u_1_1cls_log.xhtml#a81f179b2ccb3e2abeb9b47f5b83de935" target="_top" xlink:title="K4U::clsLog::doEndl">
<polygon fill="white" stroke="black" points="349,-126.5 349,-145.5 455,-145.5 455,-126.5 349,-126.5"/>
<text text-anchor="middle" x="402" y="-133.5" font-family="Helvetica,sans-Serif" font-size="10.00">K4U::clsLog::doEndl</text>
</a>
</g>
</g>
<!-- Node2&#45;&gt;Node3 -->
<g id="edge2" class="edge"><title>Node2&#45;&gt;Node3</title>
<path fill="none" stroke="midnightblue" d="M242.809,-130.964C268.232,-129.311 306.17,-128.854 338.52,-129.592"/>
<polygon fill="midnightblue" stroke="midnightblue" points="338.712,-133.098 348.804,-129.873 338.904,-126.101 338.712,-133.098"/>
</g>
<!-- Node3&#45;&gt;Node2 -->
<g id="edge3" class="edge"><title>Node3&#45;&gt;Node2</title>
<path fill="none" stroke="midnightblue" d="M348.804,-142.127C318.411,-143.106 280.73,-142.931 252.94,-141.602"/>
<polygon fill="midnightblue" stroke="midnightblue" points="252.989,-138.099 242.809,-141.036 252.598,-145.088 252.989,-138.099"/>
</g>
<!-- Node5 -->
<g id="node5" class="node"><title>Node5</title>
<g id="a_node5"><a xlink:href="../../d2/dc1/class_k4_u_1_1json_command.xhtml#ac6bc0d606265f47db9bae5a6a40cb244" target="_top" xlink:title="getCommandString">
<polygon fill="white" stroke="black" points="318.5,-77 318.5,-107 485.5,-107 485.5,-77 318.5,-77"/>
<text text-anchor="start" x="326.5" y="-95" font-family="Helvetica,sans-Serif" font-size="10.00">K4U::jsonCommand::getCommand</text>
<text text-anchor="middle" x="402" y="-84" font-family="Helvetica,sans-Serif" font-size="10.00">String</text>
</a>
</g>
</g>
<!-- Node4&#45;&gt;Node5 -->
<g id="edge5" class="edge"><title>Node4&#45;&gt;Node5</title>
<path fill="none" stroke="midnightblue" d="M282.04,-78.0047C290.614,-79.0134 299.497,-80.0585 308.37,-81.1023"/>
<polygon fill="midnightblue" stroke="midnightblue" points="308.025,-84.5858 318.366,-82.2783 308.843,-77.6338 308.025,-84.5858"/>
</g>
<!-- Node6 -->
<g id="node6" class="node"><title>Node6</title>
<g id="a_node6"><a xlink:href="../../d2/dc1/class_k4_u_1_1json_command.xhtml#ab408a8b051e005a7156e19ea8a1f7f3a" target="_top" xlink:title="Gets all data items.">
<polygon fill="white" stroke="black" points="330.5,-38.5 330.5,-57.5 473.5,-57.5 473.5,-38.5 330.5,-38.5"/>
<text text-anchor="middle" x="402" y="-45.5" font-family="Helvetica,sans-Serif" font-size="10.00">K4U::jsonCommand::getData</text>
</a>
</g>
</g>
<!-- Node4&#45;&gt;Node6 -->
<g id="edge6" class="edge"><title>Node4&#45;&gt;Node6</title>
<path fill="none" stroke="midnightblue" d="M282.04,-61.9953C294.483,-60.5314 307.577,-58.991 320.345,-57.4889"/>
<polygon fill="midnightblue" stroke="midnightblue" points="320.973,-60.9391 330.496,-56.2946 320.155,-53.9871 320.973,-60.9391"/>
</g>
<!-- Node7 -->
<g id="node7" class="node"><title>Node7</title>
<g id="a_node7"><a xlink:href="../../d2/d6d/namespace_qt_json.xhtml#ace7d6102379674932334bea04fb15c12" target="_top" xlink:title="QtJson::serialize">
<polygon fill="white" stroke="black" points="357.5,-0.5 357.5,-19.5 446.5,-19.5 446.5,-0.5 357.5,-0.5"/>
<text text-anchor="middle" x="402" y="-7.5" font-family="Helvetica,sans-Serif" font-size="10.00">QtJson::serialize</text>
</a>
</g>
</g>
<!-- Node4&#45;&gt;Node7 -->
<g id="edge7" class="edge"><title>Node4&#45;&gt;Node7</title>
<path fill="none" stroke="midnightblue" d="M248.673,-54.8135C268.675,-46.4381 294.455,-36.2906 318,-29 327.328,-26.1118 337.368,-23.4491 347.131,-21.0878"/>
<polygon fill="midnightblue" stroke="midnightblue" points="348.226,-24.4263 357.165,-18.7393 346.63,-17.6105 348.226,-24.4263"/>
</g>
</g>
</svg>
