<?xml version="1.0" encoding="UTF-8" standalone="no"?>
<!DOCTYPE svg PUBLIC "-//W3C//DTD SVG 1.1//EN"
 "http://www.w3.org/Graphics/SVG/1.1/DTD/svg11.dtd">
<!-- Generated by graphviz version 2.30.1 (20130303.0817)
 -->
<!-- Title: client::clsServerConn::handleEventReceived Pages: 1 -->
<svg width="286pt" height="332pt"
 viewBox="0.00 0.00 286.00 332.00" xmlns="http://www.w3.org/2000/svg" xmlns:xlink="http://www.w3.org/1999/xlink">
<g id="graph0" class="graph" transform="scale(1 1) rotate(0) translate(4 328)">
<title>client::clsServerConn::handleEventReceived</title>
<polygon fill="white" stroke="white" points="-4,5 -4,-328 283,-328 283,5 -4,5"/>
<!-- Node1 -->
<g id="node1" class="node"><title>Node1</title>
<polygon fill="#bfbfbf" stroke="black" points="0,-147 0,-177 114,-177 114,-147 0,-147"/>
<text text-anchor="start" x="8" y="-165" font-family="Helvetica,sans-Serif" font-size="10.00">client::clsServerConn</text>
<text text-anchor="middle" x="57" y="-154" font-family="Helvetica,sans-Serif" font-size="10.00">::handleEventReceived</text>
</g>
<!-- Node2 -->
<g id="node2" class="node"><title>Node2</title>
<g id="a_node2"><a xlink:href="../../db/d8b/classshared_1_1events_1_1cls_event.html#a33943d736db49d2a7781325357f34063" target="_top" xlink:title="Gets this events type.">
<polygon fill="white" stroke="black" points="153,-294 153,-324 275,-324 275,-294 153,-294"/>
<text text-anchor="start" x="161" y="-312" font-family="Helvetica,sans-Serif" font-size="10.00">shared::events::clsEvent</text>
<text text-anchor="middle" x="214" y="-301" font-family="Helvetica,sans-Serif" font-size="10.00">::getType</text>
</a>
</g>
</g>
<!-- Node1&#45;&gt;Node2 -->
<g id="edge1" class="edge"><title>Node1&#45;&gt;Node2</title>
<path fill="none" stroke="midnightblue" d="M65.8489,-177.258C79.6417,-202.693 110.545,-253.93 150,-284 152.325,-285.772 154.792,-287.436 157.352,-288.995"/>
<polygon fill="midnightblue" stroke="midnightblue" points="155.886,-292.182 166.34,-293.902 159.24,-286.038 155.886,-292.182"/>
</g>
<!-- Node3 -->
<g id="node3" class="node"><title>Node3</title>
<g id="a_node3"><a xlink:href="../../d3/d65/classclient_1_1cls_server_conn.html#ada02a27f01478db29d10bde4c51110b4" target="_top" xlink:title="Emitted when a chat event has been received.">
<polygon fill="white" stroke="black" points="160,-245 160,-275 268,-275 268,-245 160,-245"/>
<text text-anchor="start" x="168" y="-263" font-family="Helvetica,sans-Serif" font-size="10.00">client::clsServerConn</text>
<text text-anchor="middle" x="214" y="-252" font-family="Helvetica,sans-Serif" font-size="10.00">::chatReceived</text>
</a>
</g>
</g>
<!-- Node1&#45;&gt;Node3 -->
<g id="edge2" class="edge"><title>Node1&#45;&gt;Node3</title>
<path fill="none" stroke="midnightblue" d="M73.8896,-177.022C91.4369,-193.01 121.052,-218.261 150,-235 153.454,-236.997 157.098,-238.904 160.822,-240.709"/>
<polygon fill="midnightblue" stroke="midnightblue" points="159.627,-244.011 170.177,-244.981 162.534,-237.643 159.627,-244.011"/>
</g>
<!-- Node4 -->
<g id="node4" class="node"><title>Node4</title>
<g id="a_node4"><a xlink:href="../../d3/d65/classclient_1_1cls_server_conn.html#a9f3b4fe1b687bdb31ab584493b8dde91" target="_top" xlink:title="Triggered when a user enters the channel.">
<polygon fill="white" stroke="black" points="160,-196 160,-226 268,-226 268,-196 160,-196"/>
<text text-anchor="start" x="168" y="-214" font-family="Helvetica,sans-Serif" font-size="10.00">client::clsServerConn</text>
<text text-anchor="middle" x="214" y="-203" font-family="Helvetica,sans-Serif" font-size="10.00">::userEnter</text>
</a>
</g>
</g>
<!-- Node1&#45;&gt;Node4 -->
<g id="edge3" class="edge"><title>Node1&#45;&gt;Node4</title>
<path fill="none" stroke="midnightblue" d="M105.77,-177.101C121.46,-182.062 139.066,-187.627 155.406,-192.793"/>
<polygon fill="midnightblue" stroke="midnightblue" points="154.798,-196.271 165.388,-195.948 156.908,-189.597 154.798,-196.271"/>
</g>
<!-- Node5 -->
<g id="node5" class="node"><title>Node5</title>
<g id="a_node5"><a xlink:href="../../d3/d65/classclient_1_1cls_server_conn.html#a89ac2b4edd0a40b0fbfb5504904752c9" target="_top" xlink:title="Triggered when a user left the channel.">
<polygon fill="white" stroke="black" points="160,-147 160,-177 268,-177 268,-147 160,-147"/>
<text text-anchor="start" x="168" y="-165" font-family="Helvetica,sans-Serif" font-size="10.00">client::clsServerConn</text>
<text text-anchor="middle" x="214" y="-154" font-family="Helvetica,sans-Serif" font-size="10.00">::userLeave</text>
</a>
</g>
</g>
<!-- Node1&#45;&gt;Node5 -->
<g id="edge4" class="edge"><title>Node1&#45;&gt;Node5</title>
<path fill="none" stroke="midnightblue" d="M114.397,-162C125.912,-162 138.1,-162 149.834,-162"/>
<polygon fill="midnightblue" stroke="midnightblue" points="150,-165.5 160,-162 150,-158.5 150,-165.5"/>
</g>
<!-- Node6 -->
<g id="node6" class="node"><title>Node6</title>
<g id="a_node6"><a xlink:href="../../d3/d65/classclient_1_1cls_server_conn.html#aa7679dfddcf23ffa4ce4febbc005995a" target="_top" xlink:title="Emitted when a user has changed his status (nick|status)">
<polygon fill="white" stroke="black" points="160,-98 160,-128 268,-128 268,-98 160,-98"/>
<text text-anchor="start" x="168" y="-116" font-family="Helvetica,sans-Serif" font-size="10.00">client::clsServerConn</text>
<text text-anchor="middle" x="214" y="-105" font-family="Helvetica,sans-Serif" font-size="10.00">::userStatusChange</text>
</a>
</g>
</g>
<!-- Node1&#45;&gt;Node6 -->
<g id="edge5" class="edge"><title>Node1&#45;&gt;Node6</title>
<path fill="none" stroke="midnightblue" d="M105.77,-146.899C121.46,-141.938 139.066,-136.373 155.406,-131.207"/>
<polygon fill="midnightblue" stroke="midnightblue" points="156.908,-134.403 165.388,-128.052 154.798,-127.729 156.908,-134.403"/>
</g>
<!-- Node7 -->
<g id="node7" class="node"><title>Node7</title>
<g id="a_node7"><a xlink:href="../../d3/d65/classclient_1_1cls_server_conn.html#af5b308ecbe7fda6ff5c7dd524e17817c" target="_top" xlink:title="Emitted when a user has changed his nick (nick|status)">
<polygon fill="white" stroke="black" points="160,-49 160,-79 268,-79 268,-49 160,-49"/>
<text text-anchor="start" x="168" y="-67" font-family="Helvetica,sans-Serif" font-size="10.00">client::clsServerConn</text>
<text text-anchor="middle" x="214" y="-56" font-family="Helvetica,sans-Serif" font-size="10.00">::userChangeNick</text>
</a>
</g>
</g>
<!-- Node1&#45;&gt;Node7 -->
<g id="edge6" class="edge"><title>Node1&#45;&gt;Node7</title>
<path fill="none" stroke="midnightblue" d="M73.8896,-146.978C91.4369,-130.99 121.052,-105.739 150,-89 153.454,-87.0028 157.098,-85.0961 160.822,-83.291"/>
<polygon fill="midnightblue" stroke="midnightblue" points="162.534,-86.3567 170.177,-79.0194 159.627,-79.989 162.534,-86.3567"/>
</g>
<!-- Node8 -->
<g id="node8" class="node"><title>Node8</title>
<g id="a_node8"><a xlink:href="../../d3/d65/classclient_1_1cls_server_conn.html#a7756cad0bea903cd816c1fb68cac65fe" target="_top" xlink:title="Triggered when the server wants us to know something.">
<polygon fill="white" stroke="black" points="150.5,-0 150.5,-30 277.5,-30 277.5,-0 150.5,-0"/>
<text text-anchor="start" x="158.5" y="-18" font-family="Helvetica,sans-Serif" font-size="10.00">client::clsServerConn</text>
<text text-anchor="middle" x="214" y="-7" font-family="Helvetica,sans-Serif" font-size="10.00">::serverMessageReceived</text>
</a>
</g>
</g>
<!-- Node1&#45;&gt;Node8 -->
<g id="edge7" class="edge"><title>Node1&#45;&gt;Node8</title>
<path fill="none" stroke="midnightblue" d="M65.8489,-146.742C79.6417,-121.307 110.545,-70.0698 150,-40 152.325,-38.2279 154.792,-36.5644 157.352,-35.005"/>
<polygon fill="midnightblue" stroke="midnightblue" points="159.24,-37.9619 166.34,-30.0977 155.886,-31.818 159.24,-37.9619"/>
</g>
</g>
</svg>
