<?xml version="1.0" encoding="UTF-8" standalone="no"?>
<!DOCTYPE svg PUBLIC "-//W3C//DTD SVG 1.1//EN"
 "http://www.w3.org/Graphics/SVG/1.1/DTD/svg11.dtd">
<!-- Generated by graphviz version 2.30.1 (20130303.0817)
 -->
<!-- Title: client::clsServerConn::handleCompletedQuery Pages: 1 -->
<svg width="312pt" height="77pt"
 viewBox="0.00 0.00 312.00 77.00" xmlns="http://www.w3.org/2000/svg" xmlns:xlink="http://www.w3.org/1999/xlink">
<g id="graph0" class="graph" transform="scale(1 1) rotate(0) translate(4 73)">
<title>client::clsServerConn::handleCompletedQuery</title>
<polygon fill="white" stroke="white" points="-4,5 -4,-73 309,-73 309,5 -4,5"/>
<!-- Node1 -->
<g id="node1" class="node"><title>Node1</title>
<polygon fill="#bfbfbf" stroke="black" points="0,-22 0,-52 124,-52 124,-22 0,-22"/>
<text text-anchor="start" x="8" y="-40" font-family="Helvetica,sans-Serif" font-size="10.00">client::clsServerConn</text>
<text text-anchor="middle" x="62" y="-29" font-family="Helvetica,sans-Serif" font-size="10.00">::handleCompletedQuery</text>
</g>
<!-- Node2 -->
<g id="node2" class="node"><title>Node2</title>
<g id="a_node2"><a xlink:href="../../d2/dc1/class_k4_u_1_1json_command.html#ae829f45e11a50fa00024a5d9951cd748" target="_top" xlink:title="Gets an item from the internal data map.">
<polygon fill="white" stroke="black" points="160.5,-49.5 160.5,-68.5 303.5,-68.5 303.5,-49.5 160.5,-49.5"/>
<text text-anchor="middle" x="232" y="-56.5" font-family="Helvetica,sans-Serif" font-size="10.00">K4U::jsonCommand::getData</text>
</a>
</g>
</g>
<!-- Node1&#45;&gt;Node2 -->
<g id="edge1" class="edge"><title>Node1&#45;&gt;Node2</title>
<path fill="none" stroke="midnightblue" d="M124.127,-45.0047C132.556,-46.1085 141.318,-47.2559 150.036,-48.3976"/>
<polygon fill="midnightblue" stroke="midnightblue" points="149.858,-51.904 160.227,-49.7322 150.767,-44.9633 149.858,-51.904"/>
</g>
<!-- Node3 -->
<g id="node3" class="node"><title>Node3</title>
<g id="a_node3"><a xlink:href="../../d3/d65/classclient_1_1cls_server_conn.html#abad7931f40972d90b51e696b878b58c4" target="_top" xlink:title="Emitted when the server has sent us all the users.">
<polygon fill="white" stroke="black" points="175,-0 175,-30 289,-30 289,-0 175,-0"/>
<text text-anchor="start" x="183" y="-18" font-family="Helvetica,sans-Serif" font-size="10.00">client::clsServerConn</text>
<text text-anchor="middle" x="232" y="-7" font-family="Helvetica,sans-Serif" font-size="10.00">::userQueryCompleted</text>
</a>
</g>
</g>
<!-- Node1&#45;&gt;Node3 -->
<g id="edge2" class="edge"><title>Node1&#45;&gt;Node3</title>
<path fill="none" stroke="midnightblue" d="M124.127,-28.9953C137.36,-27.2624 151.413,-25.4222 164.829,-23.6652"/>
<polygon fill="midnightblue" stroke="midnightblue" points="165.48,-27.11 174.941,-22.3411 164.571,-20.1692 165.48,-27.11"/>
</g>
</g>
</svg>
