<?xml version="1.0" encoding="UTF-8" standalone="no"?>
<!DOCTYPE svg PUBLIC "-//W3C//DTD SVG 1.1//EN"
 "http://www.w3.org/Graphics/SVG/1.1/DTD/svg11.dtd">
<!-- Generated by graphviz version 2.30.1 (20130303.0817)
 -->
<!-- Title: client::clsServerConn::handleEventRequest Pages: 1 -->
<svg width="464pt" height="332pt"
 viewBox="0.00 0.00 464.00 332.00" xmlns="http://www.w3.org/2000/svg" xmlns:xlink="http://www.w3.org/1999/xlink">
<g id="graph0" class="graph" transform="scale(1 1) rotate(0) translate(4 328)">
<title>client::clsServerConn::handleEventRequest</title>
<polygon fill="white" stroke="white" points="-4,5 -4,-328 461,-328 461,5 -4,5"/>
<!-- Node1 -->
<g id="node1" class="node"><title>Node1</title>
<polygon fill="#bfbfbf" stroke="black" points="0.5,-169 0.5,-199 111.5,-199 111.5,-169 0.5,-169"/>
<text text-anchor="start" x="8.5" y="-187" font-family="Helvetica,sans-Serif" font-size="10.00">client::clsServerConn</text>
<text text-anchor="middle" x="56" y="-176" font-family="Helvetica,sans-Serif" font-size="10.00">::handleEventRequest</text>
</g>
<!-- Node2 -->
<g id="node2" class="node"><title>Node2</title>
<g id="a_node2"><a xlink:href="../../d2/dc1/class_k4_u_1_1json_command.html#ae829f45e11a50fa00024a5d9951cd748" target="_top" xlink:title="Gets an item from the internal data map.">
<polygon fill="white" stroke="black" points="148.5,-196.5 148.5,-215.5 291.5,-215.5 291.5,-196.5 148.5,-196.5"/>
<text text-anchor="middle" x="220" y="-203.5" font-family="Helvetica,sans-Serif" font-size="10.00">K4U::jsonCommand::getData</text>
</a>
</g>
</g>
<!-- Node1&#45;&gt;Node2 -->
<g id="edge1" class="edge"><title>Node1&#45;&gt;Node2</title>
<path fill="none" stroke="midnightblue" d="M111.846,-191.448C120.609,-192.638 129.83,-193.89 139.033,-195.14"/>
<polygon fill="midnightblue" stroke="midnightblue" points="138.61,-198.615 148.99,-196.492 139.552,-191.678 138.61,-198.615"/>
</g>
<!-- Node3 -->
<g id="node3" class="node"><title>Node3</title>
<g id="a_node3"><a xlink:href="../../d3/d65/classclient_1_1cls_server_conn.html#ad5d3a03440fdec33270247486fb5500c" target="_top" xlink:title="Event has been received by the client. Parse it.">
<polygon fill="white" stroke="black" points="163,-147 163,-177 277,-177 277,-147 163,-147"/>
<text text-anchor="start" x="171" y="-165" font-family="Helvetica,sans-Serif" font-size="10.00">client::clsServerConn</text>
<text text-anchor="middle" x="220" y="-154" font-family="Helvetica,sans-Serif" font-size="10.00">::handleEventReceived</text>
</a>
</g>
</g>
<!-- Node1&#45;&gt;Node3 -->
<g id="edge2" class="edge"><title>Node1&#45;&gt;Node3</title>
<path fill="none" stroke="midnightblue" d="M111.846,-176.552C124.939,-174.774 139.054,-172.857 152.604,-171.017"/>
<polygon fill="midnightblue" stroke="midnightblue" points="153.392,-174.442 162.83,-169.628 152.45,-167.506 153.392,-174.442"/>
</g>
<!-- Node4 -->
<g id="node4" class="node"><title>Node4</title>
<g id="a_node4"><a xlink:href="../../db/d8b/classshared_1_1events_1_1cls_event.html#a33943d736db49d2a7781325357f34063" target="_top" xlink:title="Gets this events type.">
<polygon fill="white" stroke="black" points="331,-294 331,-324 453,-324 453,-294 331,-294"/>
<text text-anchor="start" x="339" y="-312" font-family="Helvetica,sans-Serif" font-size="10.00">shared::events::clsEvent</text>
<text text-anchor="middle" x="392" y="-301" font-family="Helvetica,sans-Serif" font-size="10.00">::getType</text>
</a>
</g>
</g>
<!-- Node3&#45;&gt;Node4 -->
<g id="edge3" class="edge"><title>Node3&#45;&gt;Node4</title>
<path fill="none" stroke="midnightblue" d="M277.294,-176.36C282.675,-179.278 287.714,-182.785 292,-187 324.788,-219.241 295.85,-251.122 328,-284 329.419,-285.451 330.933,-286.821 332.523,-288.112"/>
<polygon fill="midnightblue" stroke="midnightblue" points="330.787,-291.166 341.011,-293.944 334.751,-285.397 330.787,-291.166"/>
</g>
<!-- Node5 -->
<g id="node5" class="node"><title>Node5</title>
<g id="a_node5"><a xlink:href="../../d3/d65/classclient_1_1cls_server_conn.html#ada02a27f01478db29d10bde4c51110b4" target="_top" xlink:title="Emitted when a chat event has been received.">
<polygon fill="white" stroke="black" points="338,-245 338,-275 446,-275 446,-245 338,-245"/>
<text text-anchor="start" x="346" y="-263" font-family="Helvetica,sans-Serif" font-size="10.00">client::clsServerConn</text>
<text text-anchor="middle" x="392" y="-252" font-family="Helvetica,sans-Serif" font-size="10.00">::chatReceived</text>
</a>
</g>
</g>
<!-- Node3&#45;&gt;Node5 -->
<g id="edge4" class="edge"><title>Node3&#45;&gt;Node5</title>
<path fill="none" stroke="midnightblue" d="M274.698,-177.004C280.813,-179.826 286.732,-183.135 292,-187 313.501,-202.773 306.812,-218.808 328,-235 330.323,-236.775 332.788,-238.441 335.346,-240.002"/>
<polygon fill="midnightblue" stroke="midnightblue" points="333.877,-243.188 344.33,-244.914 337.235,-237.046 333.877,-243.188"/>
</g>
<!-- Node6 -->
<g id="node6" class="node"><title>Node6</title>
<g id="a_node6"><a xlink:href="../../d3/d65/classclient_1_1cls_server_conn.html#a9f3b4fe1b687bdb31ab584493b8dde91" target="_top" xlink:title="Triggered when a user enters the channel.">
<polygon fill="white" stroke="black" points="338,-196 338,-226 446,-226 446,-196 338,-196"/>
<text text-anchor="start" x="346" y="-214" font-family="Helvetica,sans-Serif" font-size="10.00">client::clsServerConn</text>
<text text-anchor="middle" x="392" y="-203" font-family="Helvetica,sans-Serif" font-size="10.00">::userEnter</text>
</a>
</g>
</g>
<!-- Node3&#45;&gt;Node6 -->
<g id="edge5" class="edge"><title>Node3&#45;&gt;Node6</title>
<path fill="none" stroke="midnightblue" d="M273.393,-177.101C291.007,-182.179 310.823,-187.89 329.098,-193.158"/>
<polygon fill="midnightblue" stroke="midnightblue" points="328.202,-196.542 338.78,-195.948 330.141,-189.816 328.202,-196.542"/>
</g>
<!-- Node7 -->
<g id="node7" class="node"><title>Node7</title>
<g id="a_node7"><a xlink:href="../../d3/d65/classclient_1_1cls_server_conn.html#a89ac2b4edd0a40b0fbfb5504904752c9" target="_top" xlink:title="Triggered when a user left the channel.">
<polygon fill="white" stroke="black" points="338,-147 338,-177 446,-177 446,-147 338,-147"/>
<text text-anchor="start" x="346" y="-165" font-family="Helvetica,sans-Serif" font-size="10.00">client::clsServerConn</text>
<text text-anchor="middle" x="392" y="-154" font-family="Helvetica,sans-Serif" font-size="10.00">::userLeave</text>
</a>
</g>
</g>
<!-- Node3&#45;&gt;Node7 -->
<g id="edge6" class="edge"><title>Node3&#45;&gt;Node7</title>
<path fill="none" stroke="midnightblue" d="M277.135,-162C293.314,-162 311.075,-162 327.658,-162"/>
<polygon fill="midnightblue" stroke="midnightblue" points="327.807,-165.5 337.807,-162 327.807,-158.5 327.807,-165.5"/>
</g>
<!-- Node8 -->
<g id="node8" class="node"><title>Node8</title>
<g id="a_node8"><a xlink:href="../../d3/d65/classclient_1_1cls_server_conn.html#aa7679dfddcf23ffa4ce4febbc005995a" target="_top" xlink:title="Emitted when a user has changed his status (nick|status)">
<polygon fill="white" stroke="black" points="338,-98 338,-128 446,-128 446,-98 338,-98"/>
<text text-anchor="start" x="346" y="-116" font-family="Helvetica,sans-Serif" font-size="10.00">client::clsServerConn</text>
<text text-anchor="middle" x="392" y="-105" font-family="Helvetica,sans-Serif" font-size="10.00">::userStatusChange</text>
</a>
</g>
</g>
<!-- Node3&#45;&gt;Node8 -->
<g id="edge7" class="edge"><title>Node3&#45;&gt;Node8</title>
<path fill="none" stroke="midnightblue" d="M273.393,-146.899C291.007,-141.821 310.823,-136.11 329.098,-130.842"/>
<polygon fill="midnightblue" stroke="midnightblue" points="330.141,-134.184 338.78,-128.052 328.202,-127.458 330.141,-134.184"/>
</g>
<!-- Node9 -->
<g id="node9" class="node"><title>Node9</title>
<g id="a_node9"><a xlink:href="../../d3/d65/classclient_1_1cls_server_conn.html#af5b308ecbe7fda6ff5c7dd524e17817c" target="_top" xlink:title="Emitted when a user has changed his nick (nick|status)">
<polygon fill="white" stroke="black" points="338,-49 338,-79 446,-79 446,-49 338,-49"/>
<text text-anchor="start" x="346" y="-67" font-family="Helvetica,sans-Serif" font-size="10.00">client::clsServerConn</text>
<text text-anchor="middle" x="392" y="-56" font-family="Helvetica,sans-Serif" font-size="10.00">::userChangeNick</text>
</a>
</g>
</g>
<!-- Node3&#45;&gt;Node9 -->
<g id="edge8" class="edge"><title>Node3&#45;&gt;Node9</title>
<path fill="none" stroke="midnightblue" d="M240.287,-146.905C261.1,-131.087 295.628,-106.194 328,-89 331.741,-87.0129 335.676,-85.0903 339.676,-83.2534"/>
<polygon fill="midnightblue" stroke="midnightblue" points="341.317,-86.3558 349.067,-79.1325 338.504,-79.9457 341.317,-86.3558"/>
</g>
<!-- Node10 -->
<g id="node10" class="node"><title>Node10</title>
<g id="a_node10"><a xlink:href="../../d3/d65/classclient_1_1cls_server_conn.html#a7756cad0bea903cd816c1fb68cac65fe" target="_top" xlink:title="Triggered when the server wants us to know something.">
<polygon fill="white" stroke="black" points="328.5,-0 328.5,-30 455.5,-30 455.5,-0 328.5,-0"/>
<text text-anchor="start" x="336.5" y="-18" font-family="Helvetica,sans-Serif" font-size="10.00">client::clsServerConn</text>
<text text-anchor="middle" x="392" y="-7" font-family="Helvetica,sans-Serif" font-size="10.00">::serverMessageReceived</text>
</a>
</g>
</g>
<!-- Node3&#45;&gt;Node10 -->
<g id="edge9" class="edge"><title>Node3&#45;&gt;Node10</title>
<path fill="none" stroke="midnightblue" d="M230.747,-146.807C247.699,-121.466 284.948,-70.3651 328,-40 330.644,-38.1349 333.448,-36.3819 336.345,-34.7387"/>
<polygon fill="midnightblue" stroke="midnightblue" points="337.978,-37.8348 345.255,-30.1352 334.765,-31.6158 337.978,-37.8348"/>
</g>
</g>
</svg>
