<?xml version="1.0" encoding="UTF-8" standalone="no"?>
<!DOCTYPE svg PUBLIC "-//W3C//DTD SVG 1.1//EN"
 "http://www.w3.org/Graphics/SVG/1.1/DTD/svg11.dtd">
<!-- Generated by graphviz version 2.30.1 (20130303.0817)
 -->
<!-- Title: client::clsServerConn::doConnect Pages: 1 -->
<svg width="536pt" height="87pt"
 viewBox="0.00 0.00 536.00 87.00" xmlns="http://www.w3.org/2000/svg" xmlns:xlink="http://www.w3.org/1999/xlink">
<g id="graph0" class="graph" transform="scale(1 1) rotate(0) translate(4 83)">
<title>client::clsServerConn::doConnect</title>
<polygon fill="white" stroke="white" points="-4,5 -4,-83 533,-83 533,5 -4,5"/>
<!-- Node1 -->
<g id="node1" class="node"><title>Node1</title>
<polygon fill="#bfbfbf" stroke="black" points="0,-24 0,-54 108,-54 108,-24 0,-24"/>
<text text-anchor="start" x="8" y="-42" font-family="Helvetica,sans-Serif" font-size="10.00">client::clsServerConn</text>
<text text-anchor="middle" x="54" y="-31" font-family="Helvetica,sans-Serif" font-size="10.00">::doConnect</text>
</g>
<!-- Node2 -->
<g id="node2" class="node"><title>Node2</title>
<g id="a_node2"><a xlink:href="../../d2/da4/classclient_1_1_main_window.html#a4714272984f1518ea739cc5c809d8579" target="_top" xlink:title="client::MainWindow\l::doReconnect">
<polygon fill="white" stroke="black" points="144.5,-24 144.5,-54 245.5,-54 245.5,-24 144.5,-24"/>
<text text-anchor="start" x="152.5" y="-42" font-family="Helvetica,sans-Serif" font-size="10.00">client::MainWindow</text>
<text text-anchor="middle" x="195" y="-31" font-family="Helvetica,sans-Serif" font-size="10.00">::doReconnect</text>
</a>
</g>
</g>
<!-- Node1&#45;&gt;Node2 -->
<g id="edge1" class="edge"><title>Node1&#45;&gt;Node2</title>
<path fill="none" stroke="midnightblue" d="M118.415,-39C127.071,-39 135.855,-39 144.223,-39"/>
<polygon fill="midnightblue" stroke="midnightblue" points="118.344,-35.5001 108.343,-39 118.343,-42.5001 118.344,-35.5001"/>
</g>
<!-- Node3 -->
<g id="node3" class="node"><title>Node3</title>
<g id="a_node3"><a xlink:href="../../d2/da4/classclient_1_1_main_window.html#a1453a7da1874881b67aa919390012e36" target="_top" xlink:title="client::MainWindow\l::serverDisconnected">
<polygon fill="white" stroke="black" points="282.5,-49 282.5,-79 389.5,-79 389.5,-49 282.5,-49"/>
<text text-anchor="start" x="290.5" y="-67" font-family="Helvetica,sans-Serif" font-size="10.00">client::MainWindow</text>
<text text-anchor="middle" x="336" y="-56" font-family="Helvetica,sans-Serif" font-size="10.00">::serverDisconnected</text>
</a>
</g>
</g>
<!-- Node2&#45;&gt;Node3 -->
<g id="edge2" class="edge"><title>Node2&#45;&gt;Node3</title>
<path fill="none" stroke="midnightblue" d="M255.658,-49.7298C264.508,-51.3216 273.575,-52.9524 282.27,-54.5163"/>
<polygon fill="midnightblue" stroke="midnightblue" points="256.251,-46.2805 245.79,-47.955 255.012,-53.1699 256.251,-46.2805"/>
</g>
<!-- Node5 -->
<g id="node5" class="node"><title>Node5</title>
<g id="a_node5"><a xlink:href="../../d2/da4/classclient_1_1_main_window.html#a6df87d6d4bb287478d307d7e45097187" target="_top" xlink:title="Triggered when we cannot connect to the server!">
<polygon fill="white" stroke="black" points="285,-0 285,-30 387,-30 387,-0 285,-0"/>
<text text-anchor="start" x="293" y="-18" font-family="Helvetica,sans-Serif" font-size="10.00">client::MainWindow</text>
<text text-anchor="middle" x="336" y="-7" font-family="Helvetica,sans-Serif" font-size="10.00">::connectedTimeout</text>
</a>
</g>
</g>
<!-- Node2&#45;&gt;Node5 -->
<g id="edge4" class="edge"><title>Node2&#45;&gt;Node5</title>
<path fill="none" stroke="midnightblue" d="M255.707,-28.6909C265.343,-27.0271 275.235,-25.3191 284.623,-23.6982"/>
<polygon fill="midnightblue" stroke="midnightblue" points="255.048,-25.2527 245.79,-30.4032 256.239,-32.1507 255.048,-25.2527"/>
</g>
<!-- Node4 -->
<g id="node4" class="node"><title>Node4</title>
<g id="a_node4"><a xlink:href="../../d2/da4/classclient_1_1_main_window.html#ab4aedce719340218169c114b31b54f70" target="_top" xlink:title="client::MainWindow\l::MainWindow">
<polygon fill="white" stroke="black" points="426.5,-24 426.5,-54 527.5,-54 527.5,-24 426.5,-24"/>
<text text-anchor="start" x="434.5" y="-42" font-family="Helvetica,sans-Serif" font-size="10.00">client::MainWindow</text>
<text text-anchor="middle" x="477" y="-31" font-family="Helvetica,sans-Serif" font-size="10.00">::MainWindow</text>
</a>
</g>
</g>
<!-- Node3&#45;&gt;Node4 -->
<g id="edge3" class="edge"><title>Node3&#45;&gt;Node4</title>
<path fill="none" stroke="midnightblue" d="M399.517,-52.7559C408.432,-51.1525 417.501,-49.5214 426.131,-47.9693"/>
<polygon fill="midnightblue" stroke="midnightblue" points="398.772,-49.3336 389.55,-54.5486 400.012,-56.2231 398.772,-49.3336"/>
</g>
<!-- Node5&#45;&gt;Node4 -->
<g id="edge5" class="edge"><title>Node5&#45;&gt;Node4</title>
<path fill="none" stroke="midnightblue" d="M397.201,-25.3945C406.933,-27.0747 416.912,-28.7978 426.357,-30.4286"/>
<polygon fill="midnightblue" stroke="midnightblue" points="397.632,-21.9171 387.182,-23.6646 396.441,-28.815 397.632,-21.9171"/>
</g>
</g>
</svg>
