<?xml version="1.0" encoding="UTF-8" standalone="no"?>
<!DOCTYPE svg PUBLIC "-//W3C//DTD SVG 1.1//EN"
 "http://www.w3.org/Graphics/SVG/1.1/DTD/svg11.dtd">
<!-- Generated by graphviz version 2.30.1 (20130303.0817)
 -->
<!-- Title: client::clsServerConn::handleCompletedQuery Pages: 1 -->
<svg width="420pt" height="38pt"
 viewBox="0.00 0.00 420.00 38.00" xmlns="http://www.w3.org/2000/svg" xmlns:xlink="http://www.w3.org/1999/xlink">
<g id="graph0" class="graph" transform="scale(1 1) rotate(0) translate(4 34)">
<title>client::clsServerConn::handleCompletedQuery</title>
<polygon fill="white" stroke="white" points="-4,5 -4,-34 417,-34 417,5 -4,5"/>
<!-- Node1 -->
<g id="node1" class="node"><title>Node1</title>
<polygon fill="#bfbfbf" stroke="black" points="0,-0 0,-30 124,-30 124,-0 0,-0"/>
<text text-anchor="start" x="8" y="-18" font-family="Helvetica,sans-Serif" font-size="10.00">client::clsServerConn</text>
<text text-anchor="middle" x="62" y="-7" font-family="Helvetica,sans-Serif" font-size="10.00">::handleCompletedQuery</text>
</g>
<!-- Node2 -->
<g id="node2" class="node"><title>Node2</title>
<g id="a_node2"><a xlink:href="../../d3/d65/classclient_1_1cls_server_conn.html#a0f7c8da07639a563b9d88780eb22748e" target="_top" xlink:title="client::clsServerConn\l::readData">
<polygon fill="white" stroke="black" points="160,-0 160,-30 268,-30 268,-0 160,-0"/>
<text text-anchor="start" x="168" y="-18" font-family="Helvetica,sans-Serif" font-size="10.00">client::clsServerConn</text>
<text text-anchor="middle" x="214" y="-7" font-family="Helvetica,sans-Serif" font-size="10.00">::readData</text>
</a>
</g>
</g>
<!-- Node1&#45;&gt;Node2 -->
<g id="edge1" class="edge"><title>Node1&#45;&gt;Node2</title>
<path fill="none" stroke="midnightblue" d="M134.089,-15C142.726,-15 151.431,-15 159.746,-15"/>
<polygon fill="midnightblue" stroke="midnightblue" points="134.011,-11.5001 124.011,-15 134.011,-18.5001 134.011,-11.5001"/>
</g>
<!-- Node3 -->
<g id="node3" class="node"><title>Node3</title>
<g id="a_node3"><a xlink:href="../../d3/d65/classclient_1_1cls_server_conn.html#ad9d8caf021df2cd15ce27bcf207d86d0" target="_top" xlink:title="Constructor taking a hostname and port.">
<polygon fill="white" stroke="black" points="304,-0 304,-30 412,-30 412,-0 304,-0"/>
<text text-anchor="start" x="312" y="-18" font-family="Helvetica,sans-Serif" font-size="10.00">client::clsServerConn</text>
<text text-anchor="middle" x="358" y="-7" font-family="Helvetica,sans-Serif" font-size="10.00">::clsServerConn</text>
</a>
</g>
</g>
<!-- Node2&#45;&gt;Node3 -->
<g id="edge2" class="edge"><title>Node2&#45;&gt;Node3</title>
<path fill="none" stroke="midnightblue" d="M278.517,-15C286.996,-15 295.618,-15 303.894,-15"/>
<polygon fill="midnightblue" stroke="midnightblue" points="278.28,-11.5001 268.28,-15 278.28,-18.5001 278.28,-11.5001"/>
</g>
</g>
</svg>
