<?xml version="1.0" encoding="UTF-8" standalone="no"?>
<!DOCTYPE svg PUBLIC "-//W3C//DTD SVG 1.1//EN"
 "http://www.w3.org/Graphics/SVG/1.1/DTD/svg11.dtd">
<!-- Generated by graphviz version 2.30.1 (20130303.0817)
 -->
<!-- Title: client::clsServerConn::srvConnected Pages: 1 -->
<svg width="402pt" height="77pt"
 viewBox="0.00 0.00 402.00 77.00" xmlns="http://www.w3.org/2000/svg" xmlns:xlink="http://www.w3.org/1999/xlink">
<g id="graph0" class="graph" transform="scale(1 1) rotate(0) translate(4 73)">
<title>client::clsServerConn::srvConnected</title>
<polygon fill="white" stroke="white" points="-4,5 -4,-73 399,-73 399,5 -4,5"/>
<!-- Node1 -->
<g id="node1" class="node"><title>Node1</title>
<polygon fill="#bfbfbf" stroke="black" points="0,-22 0,-52 108,-52 108,-22 0,-22"/>
<text text-anchor="start" x="8" y="-40" font-family="Helvetica,sans-Serif" font-size="10.00">client::clsServerConn</text>
<text text-anchor="middle" x="54" y="-29" font-family="Helvetica,sans-Serif" font-size="10.00">::srvConnected</text>
</g>
<!-- Node2 -->
<g id="node2" class="node"><title>Node2</title>
<g id="a_node2"><a xlink:href="../../d6/d75/namespace_k4_u.xhtml#aaddaee50fab2801df390147891b0c09d" target="_top" xlink:title="K4U::endl">
<polygon fill="white" stroke="black" points="168.5,-49.5 168.5,-68.5 227.5,-68.5 227.5,-49.5 168.5,-49.5"/>
<text text-anchor="middle" x="198" y="-56.5" font-family="Helvetica,sans-Serif" font-size="10.00">K4U::endl</text>
</a>
</g>
</g>
<!-- Node1&#45;&gt;Node2 -->
<g id="edge1" class="edge"><title>Node1&#45;&gt;Node2</title>
<path fill="none" stroke="midnightblue" d="M108.28,-45.2546C124.777,-47.8104 142.637,-50.5776 157.979,-52.9545"/>
<polygon fill="midnightblue" stroke="midnightblue" points="157.733,-56.458 168.151,-54.5304 158.804,-49.5405 157.733,-56.458"/>
</g>
<!-- Node4 -->
<g id="node4" class="node"><title>Node4</title>
<g id="a_node4"><a xlink:href="../../d3/d65/classclient_1_1cls_server_conn.xhtml#af4d99891fc606ce032facfd9e27692ca" target="_top" xlink:title="Emitted when the client has a succesfull connection to the server.">
<polygon fill="white" stroke="black" points="144,-0 144,-30 252,-30 252,-0 144,-0"/>
<text text-anchor="start" x="152" y="-18" font-family="Helvetica,sans-Serif" font-size="10.00">client::clsServerConn</text>
<text text-anchor="middle" x="198" y="-7" font-family="Helvetica,sans-Serif" font-size="10.00">::connected</text>
</a>
</g>
</g>
<!-- Node1&#45;&gt;Node4 -->
<g id="edge4" class="edge"><title>Node1&#45;&gt;Node4</title>
<path fill="none" stroke="midnightblue" d="M108.28,-28.7454C116.651,-27.4484 125.374,-26.0971 133.94,-24.7699"/>
<polygon fill="midnightblue" stroke="midnightblue" points="134.548,-28.2175 143.894,-23.2277 133.476,-21.3001 134.548,-28.2175"/>
</g>
<!-- Node3 -->
<g id="node3" class="node"><title>Node3</title>
<g id="a_node3"><a xlink:href="../../da/d64/class_k4_u_1_1cls_log.xhtml#a81f179b2ccb3e2abeb9b47f5b83de935" target="_top" xlink:title="K4U::clsLog::doEndl">
<polygon fill="white" stroke="black" points="288,-49.5 288,-68.5 394,-68.5 394,-49.5 288,-49.5"/>
<text text-anchor="middle" x="341" y="-56.5" font-family="Helvetica,sans-Serif" font-size="10.00">K4U::clsLog::doEndl</text>
</a>
</g>
</g>
<!-- Node2&#45;&gt;Node3 -->
<g id="edge2" class="edge"><title>Node2&#45;&gt;Node3</title>
<path fill="none" stroke="midnightblue" d="M227.533,-53.4514C241.996,-52.5038 260.163,-52.1168 277.652,-52.2903"/>
<polygon fill="midnightblue" stroke="midnightblue" points="277.782,-55.7928 287.838,-52.4572 277.897,-48.7937 277.782,-55.7928"/>
</g>
<!-- Node3&#45;&gt;Node2 -->
<g id="edge3" class="edge"><title>Node3&#45;&gt;Node2</title>
<path fill="none" stroke="midnightblue" d="M287.838,-65.5428C271.262,-65.9253 253.233,-65.7782 237.775,-65.1016"/>
<polygon fill="midnightblue" stroke="midnightblue" points="237.708,-61.593 227.533,-64.5486 237.33,-68.5828 237.708,-61.593"/>
</g>
</g>
</svg>
