<?xml version="1.0" encoding="UTF-8" standalone="no"?>
<!DOCTYPE svg PUBLIC "-//W3C//DTD SVG 1.1//EN"
 "http://www.w3.org/Graphics/SVG/1.1/DTD/svg11.dtd">
<!-- Generated by graphviz version 2.30.1 (20130303.0817)
 -->
<!-- Title: client::clsServerConn::checkForJsonCommand Pages: 1 -->
<svg width="482pt" height="66pt"
 viewBox="0.00 0.00 482.00 66.00" xmlns="http://www.w3.org/2000/svg" xmlns:xlink="http://www.w3.org/1999/xlink">
<g id="graph0" class="graph" transform="scale(1 1) rotate(0) translate(4 62)">
<title>client::clsServerConn::checkForJsonCommand</title>
<polygon fill="white" stroke="white" points="-4,5 -4,-62 479,-62 479,5 -4,5"/>
<!-- Node1 -->
<g id="node1" class="node"><title>Node1</title>
<polygon fill="#bfbfbf" stroke="black" points="0,-14 0,-44 128,-44 128,-14 0,-14"/>
<text text-anchor="start" x="8" y="-32" font-family="Helvetica,sans-Serif" font-size="10.00">client::clsServerConn</text>
<text text-anchor="middle" x="64" y="-21" font-family="Helvetica,sans-Serif" font-size="10.00">::checkForJsonCommand</text>
</g>
<!-- Node2 -->
<g id="node2" class="node"><title>Node2</title>
<g id="a_node2"><a xlink:href="../../d2/dc1/class_k4_u_1_1json_command.html#a2db6f8da6bc5a4c677201f044b69bb10" target="_top" xlink:title="getCommand">
<polygon fill="white" stroke="black" points="164.5,-38.5 164.5,-57.5 331.5,-57.5 331.5,-38.5 164.5,-38.5"/>
<text text-anchor="middle" x="248" y="-45.5" font-family="Helvetica,sans-Serif" font-size="10.00">K4U::jsonCommand::getCommand</text>
</a>
</g>
</g>
<!-- Node1&#45;&gt;Node2 -->
<g id="edge1" class="edge"><title>Node1&#45;&gt;Node2</title>
<path fill="none" stroke="midnightblue" d="M128.144,-35.592C136.648,-36.4797 145.511,-37.405 154.394,-38.3324"/>
<polygon fill="midnightblue" stroke="midnightblue" points="154.105,-41.8211 164.414,-39.3784 154.832,-34.8589 154.105,-41.8211"/>
</g>
<!-- Node3 -->
<g id="node3" class="node"><title>Node3</title>
<g id="a_node3"><a xlink:href="../../d6/d75/namespace_k4_u.html#aaddaee50fab2801df390147891b0c09d" target="_top" xlink:title="K4U::endl">
<polygon fill="white" stroke="black" points="218.5,-0.5 218.5,-19.5 277.5,-19.5 277.5,-0.5 218.5,-0.5"/>
<text text-anchor="middle" x="248" y="-7.5" font-family="Helvetica,sans-Serif" font-size="10.00">K4U::endl</text>
</a>
</g>
</g>
<!-- Node1&#45;&gt;Node3 -->
<g id="edge2" class="edge"><title>Node1&#45;&gt;Node3</title>
<path fill="none" stroke="midnightblue" d="M128.144,-22.408C154.676,-19.6383 184.703,-16.5035 207.939,-14.0778"/>
<polygon fill="midnightblue" stroke="midnightblue" points="208.518,-17.5365 218.1,-13.017 207.791,-10.5743 208.518,-17.5365"/>
</g>
<!-- Node4 -->
<g id="node4" class="node"><title>Node4</title>
<g id="a_node4"><a xlink:href="../../da/d64/class_k4_u_1_1cls_log.html#a81f179b2ccb3e2abeb9b47f5b83de935" target="_top" xlink:title="K4U::clsLog::doEndl">
<polygon fill="white" stroke="black" points="368,-0.5 368,-19.5 474,-19.5 474,-0.5 368,-0.5"/>
<text text-anchor="middle" x="421" y="-7.5" font-family="Helvetica,sans-Serif" font-size="10.00">K4U::clsLog::doEndl</text>
</a>
</g>
</g>
<!-- Node3&#45;&gt;Node4 -->
<g id="edge3" class="edge"><title>Node3&#45;&gt;Node4</title>
<path fill="none" stroke="midnightblue" d="M277.622,-4.80824C299.373,-3.37799 330.112,-2.93232 357.465,-3.47123"/>
<polygon fill="midnightblue" stroke="midnightblue" points="357.673,-6.97736 367.756,-3.72598 357.846,0.020499 357.673,-6.97736"/>
</g>
<!-- Node4&#45;&gt;Node3 -->
<g id="edge4" class="edge"><title>Node4&#45;&gt;Node3</title>
<path fill="none" stroke="midnightblue" d="M367.756,-16.274C341.934,-17.0506 311.318,-16.8769 287.64,-15.7531"/>
<polygon fill="midnightblue" stroke="midnightblue" points="287.802,-12.2568 277.622,-15.1918 287.41,-19.2458 287.802,-12.2568"/>
</g>
</g>
</svg>
