<?xml version="1.0" encoding="UTF-8" standalone="no"?>
<!DOCTYPE svg PUBLIC "-//W3C//DTD SVG 1.1//EN"
 "http://www.w3.org/Graphics/SVG/1.1/DTD/svg11.dtd">
<!-- Generated by graphviz version 2.30.1 (20130303.0817)
 -->
<!-- Title: client::clsServerConn::disconnected Pages: 1 -->
<svg width="404pt" height="60pt"
 viewBox="0.00 0.00 404.00 60.00" xmlns="http://www.w3.org/2000/svg" xmlns:xlink="http://www.w3.org/1999/xlink">
<g id="graph0" class="graph" transform="scale(1 1) rotate(0) translate(4 56)">
<title>client::clsServerConn::disconnected</title>
<polygon fill="white" stroke="white" points="-4,5 -4,-56 401,-56 401,5 -4,5"/>
<!-- Node1 -->
<g id="node1" class="node"><title>Node1</title>
<polygon fill="#bfbfbf" stroke="black" points="0,-22 0,-52 108,-52 108,-22 0,-22"/>
<text text-anchor="start" x="8" y="-40" font-family="Helvetica,sans-Serif" font-size="10.00">client::clsServerConn</text>
<text text-anchor="middle" x="54" y="-29" font-family="Helvetica,sans-Serif" font-size="10.00">::disconnected</text>
</g>
<!-- Node2 -->
<g id="node2" class="node"><title>Node2</title>
<g id="a_node2"><a xlink:href="../../d3/d65/classclient_1_1cls_server_conn.html#ad9d8caf021df2cd15ce27bcf207d86d0" target="_top" xlink:title="Constructor taking a hostname and port.">
<polygon fill="white" stroke="black" points="288,-22 288,-52 396,-52 396,-22 288,-22"/>
<text text-anchor="start" x="296" y="-40" font-family="Helvetica,sans-Serif" font-size="10.00">client::clsServerConn</text>
<text text-anchor="middle" x="342" y="-29" font-family="Helvetica,sans-Serif" font-size="10.00">::clsServerConn</text>
</a>
</g>
</g>
<!-- Node1&#45;&gt;Node2 -->
<g id="edge1" class="edge"><title>Node1&#45;&gt;Node2</title>
<path fill="none" stroke="midnightblue" d="M118.248,-38.5963C126.901,-38.7635 135.669,-38.9064 144,-39 191.997,-39.5392 204.003,-39.5392 252,-39 263.591,-38.8698 276.029,-38.6442 287.823,-38.3903"/>
<polygon fill="midnightblue" stroke="midnightblue" points="118.246,-35.0957 108.177,-38.3903 118.103,-42.0942 118.246,-35.0957"/>
</g>
<!-- Node3 -->
<g id="node3" class="node"><title>Node3</title>
<g id="a_node3"><a xlink:href="../../d3/d65/classclient_1_1cls_server_conn.html#acd2aa4131c06ed51738fb041c86ed640" target="_top" xlink:title="client::clsServerConn\l::srvDisconnected">
<polygon fill="white" stroke="black" points="144,-0 144,-30 252,-30 252,-0 144,-0"/>
<text text-anchor="start" x="152" y="-18" font-family="Helvetica,sans-Serif" font-size="10.00">client::clsServerConn</text>
<text text-anchor="middle" x="198" y="-7" font-family="Helvetica,sans-Serif" font-size="10.00">::srvDisconnected</text>
</a>
</g>
</g>
<!-- Node1&#45;&gt;Node3 -->
<g id="edge2" class="edge"><title>Node1&#45;&gt;Node3</title>
<path fill="none" stroke="midnightblue" d="M118.238,-27.2026C126.806,-25.8751 135.528,-24.5239 143.894,-23.2277"/>
<polygon fill="midnightblue" stroke="midnightblue" points="117.626,-23.7556 108.28,-28.7454 118.698,-30.673 117.626,-23.7556"/>
</g>
<!-- Node3&#45;&gt;Node2 -->
<g id="edge3" class="edge"><title>Node3&#45;&gt;Node2</title>
<path fill="none" stroke="midnightblue" d="M262.238,-24.7974C270.806,-26.1249 279.528,-27.4761 287.894,-28.7723"/>
<polygon fill="midnightblue" stroke="midnightblue" points="262.698,-21.327 252.28,-23.2546 261.626,-28.2444 262.698,-21.327"/>
</g>
</g>
</svg>
