<?xml version="1.0" encoding="UTF-8" standalone="no"?>
<!DOCTYPE svg PUBLIC "-//W3C//DTD SVG 1.1//EN"
 "http://www.w3.org/Graphics/SVG/1.1/DTD/svg11.dtd">
<!-- Generated by graphviz version 2.30.1 (20130303.0817)
 -->
<!-- Title: client::clsServerConn::userChangeNick Pages: 1 -->
<svg width="702pt" height="61pt"
 viewBox="0.00 0.00 702.00 61.00" xmlns="http://www.w3.org/2000/svg" xmlns:xlink="http://www.w3.org/1999/xlink">
<g id="graph0" class="graph" transform="scale(1 1) rotate(0) translate(4 57)">
<title>client::clsServerConn::userChangeNick</title>
<polygon fill="white" stroke="white" points="-4,5 -4,-57 699,-57 699,5 -4,5"/>
<!-- Node1 -->
<g id="node1" class="node"><title>Node1</title>
<polygon fill="#bfbfbf" stroke="black" points="0,-1 0,-31 108,-31 108,-1 0,-1"/>
<text text-anchor="start" x="8" y="-19" font-family="Helvetica,sans-Serif" font-size="10.00">client::clsServerConn</text>
<text text-anchor="middle" x="54" y="-8" font-family="Helvetica,sans-Serif" font-size="10.00">::userChangeNick</text>
</g>
<!-- Node2 -->
<g id="node2" class="node"><title>Node2</title>
<g id="a_node2"><a xlink:href="../../d3/d65/classclient_1_1cls_server_conn.html#ad5d3a03440fdec33270247486fb5500c" target="_top" xlink:title="Event has been received by the client. Parse it.">
<polygon fill="white" stroke="black" points="144,-1 144,-31 258,-31 258,-1 144,-1"/>
<text text-anchor="start" x="152" y="-19" font-family="Helvetica,sans-Serif" font-size="10.00">client::clsServerConn</text>
<text text-anchor="middle" x="201" y="-8" font-family="Helvetica,sans-Serif" font-size="10.00">::handleEventReceived</text>
</a>
</g>
</g>
<!-- Node1&#45;&gt;Node2 -->
<g id="edge1" class="edge"><title>Node1&#45;&gt;Node2</title>
<path fill="none" stroke="midnightblue" d="M118.41,-16C126.901,-16 135.56,-16 143.913,-16"/>
<polygon fill="midnightblue" stroke="midnightblue" points="118.169,-12.5001 108.169,-16 118.169,-19.5001 118.169,-12.5001"/>
</g>
<!-- Node3 -->
<g id="node3" class="node"><title>Node3</title>
<g id="a_node3"><a xlink:href="../../d3/d65/classclient_1_1cls_server_conn.html#a25abb840bb0764068d9a72dfb1e403b5" target="_top" xlink:title="Event request has been done by us, and data has been returned.">
<polygon fill="white" stroke="black" points="294.5,-23 294.5,-53 405.5,-53 405.5,-23 294.5,-23"/>
<text text-anchor="start" x="302.5" y="-41" font-family="Helvetica,sans-Serif" font-size="10.00">client::clsServerConn</text>
<text text-anchor="middle" x="350" y="-30" font-family="Helvetica,sans-Serif" font-size="10.00">::handleEventRequest</text>
</a>
</g>
</g>
<!-- Node2&#45;&gt;Node3 -->
<g id="edge2" class="edge"><title>Node2&#45;&gt;Node3</title>
<path fill="none" stroke="midnightblue" d="M268.507,-25.9534C277.18,-27.2515 285.985,-28.5692 294.432,-29.8334"/>
<polygon fill="midnightblue" stroke="midnightblue" points="268.822,-22.4616 258.414,-24.4429 267.785,-29.3845 268.822,-22.4616"/>
</g>
<!-- Node4 -->
<g id="node4" class="node"><title>Node4</title>
<g id="a_node4"><a xlink:href="../../d3/d65/classclient_1_1cls_server_conn.html#a0f7c8da07639a563b9d88780eb22748e" target="_top" xlink:title="client::clsServerConn\l::readData">
<polygon fill="white" stroke="black" points="442,-1 442,-31 550,-31 550,-1 442,-1"/>
<text text-anchor="start" x="450" y="-19" font-family="Helvetica,sans-Serif" font-size="10.00">client::clsServerConn</text>
<text text-anchor="middle" x="496" y="-8" font-family="Helvetica,sans-Serif" font-size="10.00">::readData</text>
</a>
</g>
</g>
<!-- Node2&#45;&gt;Node4 -->
<g id="edge5" class="edge"><title>Node2&#45;&gt;Node4</title>
<path fill="none" stroke="midnightblue" d="M268.454,-14.3837C277.049,-14.2251 285.733,-14.0898 294,-14 343.775,-13.459 356.225,-13.4408 406,-14 417.591,-14.1302 430.029,-14.3558 441.823,-14.6097"/>
<polygon fill="midnightblue" stroke="midnightblue" points="268.365,-10.8847 258.436,-14.5794 268.502,-17.8834 268.365,-10.8847"/>
</g>
<!-- Node3&#45;&gt;Node4 -->
<g id="edge3" class="edge"><title>Node3&#45;&gt;Node4</title>
<path fill="none" stroke="midnightblue" d="M415.9,-28.0847C424.54,-26.7648 433.317,-25.4238 441.728,-24.1388"/>
<polygon fill="midnightblue" stroke="midnightblue" points="415.208,-24.6498 405.851,-29.62 416.265,-31.5695 415.208,-24.6498"/>
</g>
<!-- Node5 -->
<g id="node5" class="node"><title>Node5</title>
<g id="a_node5"><a xlink:href="../../d3/d65/classclient_1_1cls_server_conn.html#ad9d8caf021df2cd15ce27bcf207d86d0" target="_top" xlink:title="Constructor taking a hostname and port.">
<polygon fill="white" stroke="black" points="586,-1 586,-31 694,-31 694,-1 586,-1"/>
<text text-anchor="start" x="594" y="-19" font-family="Helvetica,sans-Serif" font-size="10.00">client::clsServerConn</text>
<text text-anchor="middle" x="640" y="-8" font-family="Helvetica,sans-Serif" font-size="10.00">::clsServerConn</text>
</a>
</g>
</g>
<!-- Node4&#45;&gt;Node5 -->
<g id="edge4" class="edge"><title>Node4&#45;&gt;Node5</title>
<path fill="none" stroke="midnightblue" d="M560.517,-16C568.996,-16 577.618,-16 585.894,-16"/>
<polygon fill="midnightblue" stroke="midnightblue" points="560.28,-12.5001 550.28,-16 560.28,-19.5001 560.28,-12.5001"/>
</g>
</g>
</svg>
