<?xml version="1.0" encoding="UTF-8" standalone="no"?>
<!DOCTYPE svg PUBLIC "-//W3C//DTD SVG 1.1//EN"
 "http://www.w3.org/Graphics/SVG/1.1/DTD/svg11.dtd">
<!-- Generated by graphviz version 2.30.1 (20130303.0817)
 -->
<!-- Title: client::clsServerConn::readData Pages: 1 -->
<svg width="642pt" height="311pt"
 viewBox="0.00 0.00 642.00 311.00" xmlns="http://www.w3.org/2000/svg" xmlns:xlink="http://www.w3.org/1999/xlink">
<g id="graph0" class="graph" transform="scale(1 1) rotate(0) translate(4 307)">
<title>client::clsServerConn::readData</title>
<polygon fill="white" stroke="white" points="-4,5 -4,-307 639,-307 639,5 -4,5"/>
<!-- Node1 -->
<g id="node1" class="node"><title>Node1</title>
<polygon fill="#bfbfbf" stroke="black" points="0,-146 0,-176 108,-176 108,-146 0,-146"/>
<text text-anchor="start" x="8" y="-164" font-family="Helvetica,sans-Serif" font-size="10.00">client::clsServerConn</text>
<text text-anchor="middle" x="54" y="-153" font-family="Helvetica,sans-Serif" font-size="10.00">::readData</text>
</g>
<!-- Node2 -->
<g id="node2" class="node"><title>Node2</title>
<g id="a_node2"><a xlink:href="../../d3/d65/classclient_1_1cls_server_conn.xhtml#a8fc1a3ef72ba0480d521781f84983afe" target="_top" xlink:title="Adds data to buffer and checks for json commands.">
<polygon fill="white" stroke="black" points="144,-234 144,-264 272,-264 272,-234 144,-234"/>
<text text-anchor="start" x="152" y="-252" font-family="Helvetica,sans-Serif" font-size="10.00">client::clsServerConn</text>
<text text-anchor="middle" x="208" y="-241" font-family="Helvetica,sans-Serif" font-size="10.00">::checkForJsonCommand</text>
</a>
</g>
</g>
<!-- Node1&#45;&gt;Node2 -->
<g id="edge1" class="edge"><title>Node1&#45;&gt;Node2</title>
<path fill="none" stroke="midnightblue" d="M76.4429,-176.131C94.165,-188.352 120.191,-205.651 144,-219 150.393,-222.584 157.283,-226.15 164.078,-229.506"/>
<polygon fill="midnightblue" stroke="midnightblue" points="162.703,-232.729 173.229,-233.933 165.752,-226.427 162.703,-232.729"/>
</g>
<!-- Node3 -->
<g id="node3" class="node"><title>Node3</title>
<g id="a_node3"><a xlink:href="../../d2/dc1/class_k4_u_1_1json_command.xhtml#a2db6f8da6bc5a4c677201f044b69bb10" target="_top" xlink:title="getCommand">
<polygon fill="white" stroke="black" points="308.5,-283.5 308.5,-302.5 475.5,-302.5 475.5,-283.5 308.5,-283.5"/>
<text text-anchor="middle" x="392" y="-290.5" font-family="Helvetica,sans-Serif" font-size="10.00">K4U::jsonCommand::getCommand</text>
</a>
</g>
</g>
<!-- Node1&#45;&gt;Node3 -->
<g id="edge6" class="edge"><title>Node1&#45;&gt;Node3</title>
<path fill="none" stroke="midnightblue" d="M61.9808,-176.259C74.4217,-201.455 103.023,-251.14 144,-273 190.69,-297.907 249.534,-303.497 298.075,-302.583"/>
<polygon fill="midnightblue" stroke="midnightblue" points="298.371,-306.076 308.268,-302.293 298.173,-299.079 298.371,-306.076"/>
</g>
<!-- Node6 -->
<g id="node6" class="node"><title>Node6</title>
<g id="a_node6"><a xlink:href="../../d3/d65/classclient_1_1cls_server_conn.xhtml#ad5d3a03440fdec33270247486fb5500c" target="_top" xlink:title="Event has been received by the client. Parse it.">
<polygon fill="white" stroke="black" points="335,-146 335,-176 449,-176 449,-146 335,-146"/>
<text text-anchor="start" x="343" y="-164" font-family="Helvetica,sans-Serif" font-size="10.00">client::clsServerConn</text>
<text text-anchor="middle" x="392" y="-153" font-family="Helvetica,sans-Serif" font-size="10.00">::handleEventReceived</text>
</a>
</g>
</g>
<!-- Node1&#45;&gt;Node6 -->
<g id="edge7" class="edge"><title>Node1&#45;&gt;Node6</title>
<path fill="none" stroke="midnightblue" d="M101.643,-176.053C115.16,-179.737 130.039,-183.151 144,-185 200.396,-192.471 215.393,-190.651 272,-185 289.268,-183.276 307.738,-180.178 324.852,-176.769"/>
<polygon fill="midnightblue" stroke="midnightblue" points="325.661,-180.176 334.752,-174.733 324.252,-173.319 325.661,-180.176"/>
</g>
<!-- Node12 -->
<g id="node12" class="node"><title>Node12</title>
<g id="a_node12"><a xlink:href="../../d2/dc1/class_k4_u_1_1json_command.xhtml#ae829f45e11a50fa00024a5d9951cd748" target="_top" xlink:title="Gets an item from the internal data map.">
<polygon fill="white" stroke="black" points="320.5,-85.5 320.5,-104.5 463.5,-104.5 463.5,-85.5 320.5,-85.5"/>
<text text-anchor="middle" x="392" y="-92.5" font-family="Helvetica,sans-Serif" font-size="10.00">K4U::jsonCommand::getData</text>
</a>
</g>
</g>
<!-- Node1&#45;&gt;Node12 -->
<g id="edge13" class="edge"><title>Node1&#45;&gt;Node12</title>
<path fill="none" stroke="midnightblue" d="M107.505,-145.954C119.45,-142.779 132.12,-139.606 144,-137 200.841,-124.533 265.729,-113.626 314.73,-106.053"/>
<polygon fill="midnightblue" stroke="midnightblue" points="315.269,-109.512 324.623,-104.536 314.208,-102.592 315.269,-109.512"/>
</g>
<!-- Node13 -->
<g id="node13" class="node"><title>Node13</title>
<g id="a_node13"><a xlink:href="../../d3/d65/classclient_1_1cls_server_conn.xhtml#a034a72332abdeeb8dbd9483954a235dd" target="_top" xlink:title="The server has given us all the users. Handle it.">
<polygon fill="white" stroke="black" points="146,-9 146,-39 270,-39 270,-9 146,-9"/>
<text text-anchor="start" x="154" y="-27" font-family="Helvetica,sans-Serif" font-size="10.00">client::clsServerConn</text>
<text text-anchor="middle" x="208" y="-16" font-family="Helvetica,sans-Serif" font-size="10.00">::handleCompletedQuery</text>
</a>
</g>
</g>
<!-- Node1&#45;&gt;Node13 -->
<g id="edge14" class="edge"><title>Node1&#45;&gt;Node13</title>
<path fill="none" stroke="midnightblue" d="M63.4524,-145.869C77.382,-122.181 107.306,-76.2377 144,-49 146.471,-47.1655 149.095,-45.4449 151.815,-43.8341"/>
<polygon fill="midnightblue" stroke="midnightblue" points="153.585,-46.8565 160.757,-39.0579 150.288,-40.6821 153.585,-46.8565"/>
</g>
<!-- Node15 -->
<g id="node15" class="node"><title>Node15</title>
<g id="a_node15"><a xlink:href="../../d3/d65/classclient_1_1cls_server_conn.xhtml#a2f4257ed2b9677919567a060fb31887b" target="_top" xlink:title="Another client has changed our own user status.">
<polygon fill="white" stroke="black" points="146,-58 146,-88 270,-88 270,-58 146,-58"/>
<text text-anchor="start" x="154" y="-76" font-family="Helvetica,sans-Serif" font-size="10.00">client::clsServerConn</text>
<text text-anchor="middle" x="208" y="-65" font-family="Helvetica,sans-Serif" font-size="10.00">::handleOwnUserChange</text>
</a>
</g>
</g>
<!-- Node1&#45;&gt;Node15 -->
<g id="edge17" class="edge"><title>Node1&#45;&gt;Node15</title>
<path fill="none" stroke="midnightblue" d="M76.4429,-145.869C94.165,-133.648 120.191,-116.349 144,-103 150.393,-99.4158 157.283,-95.8501 164.078,-92.4944"/>
<polygon fill="midnightblue" stroke="midnightblue" points="165.752,-95.5727 173.229,-88.0666 162.703,-89.2715 165.752,-95.5727"/>
</g>
<!-- Node16 -->
<g id="node16" class="node"><title>Node16</title>
<g id="a_node16"><a xlink:href="../../d3/d65/classclient_1_1cls_server_conn.xhtml#a25abb840bb0764068d9a72dfb1e403b5" target="_top" xlink:title="Event request has been done by us, and data has been returned.">
<polygon fill="white" stroke="black" points="152.5,-146 152.5,-176 263.5,-176 263.5,-146 152.5,-146"/>
<text text-anchor="start" x="160.5" y="-164" font-family="Helvetica,sans-Serif" font-size="10.00">client::clsServerConn</text>
<text text-anchor="middle" x="208" y="-153" font-family="Helvetica,sans-Serif" font-size="10.00">::handleEventRequest</text>
</a>
</g>
</g>
<!-- Node1&#45;&gt;Node16 -->
<g id="edge19" class="edge"><title>Node1&#45;&gt;Node16</title>
<path fill="none" stroke="midnightblue" d="M108.162,-161C119.108,-161 130.751,-161 142.06,-161"/>
<polygon fill="midnightblue" stroke="midnightblue" points="142.323,-164.5 152.322,-161 142.322,-157.5 142.323,-164.5"/>
</g>
<!-- Node2&#45;&gt;Node3 -->
<g id="edge2" class="edge"><title>Node2&#45;&gt;Node3</title>
<path fill="none" stroke="midnightblue" d="M267.578,-264.022C280.855,-267.363 294.902,-270.847 308,-274 317.809,-276.361 328.287,-278.813 338.38,-281.141"/>
<polygon fill="midnightblue" stroke="midnightblue" points="337.777,-284.593 348.306,-283.419 339.342,-277.771 337.777,-284.593"/>
</g>
<!-- Node4 -->
<g id="node4" class="node"><title>Node4</title>
<g id="a_node4"><a xlink:href="../../d6/d75/namespace_k4_u.xhtml#aaddaee50fab2801df390147891b0c09d" target="_top" xlink:title="K4U::endl">
<polygon fill="white" stroke="black" points="362.5,-245.5 362.5,-264.5 421.5,-264.5 421.5,-245.5 362.5,-245.5"/>
<text text-anchor="middle" x="392" y="-252.5" font-family="Helvetica,sans-Serif" font-size="10.00">K4U::endl</text>
</a>
</g>
</g>
<!-- Node2&#45;&gt;Node4 -->
<g id="edge3" class="edge"><title>Node2&#45;&gt;Node4</title>
<path fill="none" stroke="midnightblue" d="M272.144,-251.082C298.676,-251.956 328.703,-252.946 351.939,-253.712"/>
<polygon fill="midnightblue" stroke="midnightblue" points="351.99,-257.216 362.1,-254.047 352.221,-250.22 351.99,-257.216"/>
</g>
<!-- Node5 -->
<g id="node5" class="node"><title>Node5</title>
<g id="a_node5"><a xlink:href="../../da/d64/class_k4_u_1_1cls_log.xhtml#a81f179b2ccb3e2abeb9b47f5b83de935" target="_top" xlink:title="K4U::clsLog::doEndl">
<polygon fill="white" stroke="black" points="520,-245.5 520,-264.5 626,-264.5 626,-245.5 520,-245.5"/>
<text text-anchor="middle" x="573" y="-252.5" font-family="Helvetica,sans-Serif" font-size="10.00">K4U::clsLog::doEndl</text>
</a>
</g>
</g>
<!-- Node4&#45;&gt;Node5 -->
<g id="edge4" class="edge"><title>Node4&#45;&gt;Node5</title>
<path fill="none" stroke="midnightblue" d="M421.759,-249.885C445.363,-248.343 479.639,-247.892 509.493,-248.531"/>
<polygon fill="midnightblue" stroke="midnightblue" points="509.756,-252.039 519.844,-248.802 509.94,-245.041 509.756,-252.039"/>
</g>
<!-- Node5&#45;&gt;Node4 -->
<g id="edge5" class="edge"><title>Node5&#45;&gt;Node4</title>
<path fill="none" stroke="midnightblue" d="M519.844,-261.198C491.742,-262.078 457.653,-261.906 431.894,-260.681"/>
<polygon fill="midnightblue" stroke="midnightblue" points="431.939,-257.178 421.759,-260.115 431.549,-264.167 431.939,-257.178"/>
</g>
<!-- Node7 -->
<g id="node7" class="node"><title>Node7</title>
<g id="a_node7"><a xlink:href="../../db/d8b/classshared_1_1events_1_1cls_event.xhtml#a33943d736db49d2a7781325357f34063" target="_top" xlink:title="Gets this events type.">
<polygon fill="white" stroke="black" points="512,-196 512,-226 634,-226 634,-196 512,-196"/>
<text text-anchor="start" x="520" y="-214" font-family="Helvetica,sans-Serif" font-size="10.00">shared::events::clsEvent</text>
<text text-anchor="middle" x="573" y="-203" font-family="Helvetica,sans-Serif" font-size="10.00">::getType</text>
</a>
</g>
</g>
<!-- Node6&#45;&gt;Node7 -->
<g id="edge8" class="edge"><title>Node6&#45;&gt;Node7</title>
<path fill="none" stroke="midnightblue" d="M446.706,-176.002C466.087,-181.415 488.149,-187.578 508.303,-193.207"/>
<polygon fill="midnightblue" stroke="midnightblue" points="507.45,-196.603 518.023,-195.923 509.333,-189.861 507.45,-196.603"/>
</g>
<!-- Node8 -->
<g id="node8" class="node"><title>Node8</title>
<g id="a_node8"><a xlink:href="../../d3/d65/classclient_1_1cls_server_conn.xhtml#ada02a27f01478db29d10bde4c51110b4" target="_top" xlink:title="Emitted when a chat event has been received.">
<polygon fill="white" stroke="black" points="519,-147 519,-177 627,-177 627,-147 519,-147"/>
<text text-anchor="start" x="527" y="-165" font-family="Helvetica,sans-Serif" font-size="10.00">client::clsServerConn</text>
<text text-anchor="middle" x="573" y="-154" font-family="Helvetica,sans-Serif" font-size="10.00">::chatReceived</text>
</a>
</g>
</g>
<!-- Node6&#45;&gt;Node8 -->
<g id="edge9" class="edge"><title>Node6&#45;&gt;Node8</title>
<path fill="none" stroke="midnightblue" d="M449.146,-161.314C468.005,-161.419 489.17,-161.537 508.55,-161.646"/>
<polygon fill="midnightblue" stroke="midnightblue" points="508.783,-165.147 518.802,-161.703 508.822,-158.147 508.783,-165.147"/>
</g>
<!-- Node9 -->
<g id="node9" class="node"><title>Node9</title>
<g id="a_node9"><a xlink:href="../../d3/d65/classclient_1_1cls_server_conn.xhtml#a9f3b4fe1b687bdb31ab584493b8dde91" target="_top" xlink:title="Triggered when a user enters the channel.">
<polygon fill="white" stroke="black" points="519,-98 519,-128 627,-128 627,-98 519,-98"/>
<text text-anchor="start" x="527" y="-116" font-family="Helvetica,sans-Serif" font-size="10.00">client::clsServerConn</text>
<text text-anchor="middle" x="573" y="-105" font-family="Helvetica,sans-Serif" font-size="10.00">::userEnter</text>
</a>
</g>
</g>
<!-- Node6&#45;&gt;Node9 -->
<g id="edge10" class="edge"><title>Node6&#45;&gt;Node9</title>
<path fill="none" stroke="midnightblue" d="M449.146,-145.944C468.179,-140.84 489.56,-135.107 509.085,-129.871"/>
<polygon fill="midnightblue" stroke="midnightblue" points="510.05,-133.236 518.802,-127.265 508.237,-126.475 510.05,-133.236"/>
</g>
<!-- Node10 -->
<g id="node10" class="node"><title>Node10</title>
<g id="a_node10"><a xlink:href="../../d3/d65/classclient_1_1cls_server_conn.xhtml#a89ac2b4edd0a40b0fbfb5504904752c9" target="_top" xlink:title="Triggered when a user left the channel.">
<polygon fill="white" stroke="black" points="519,-49 519,-79 627,-79 627,-49 519,-49"/>
<text text-anchor="start" x="527" y="-67" font-family="Helvetica,sans-Serif" font-size="10.00">client::clsServerConn</text>
<text text-anchor="middle" x="573" y="-56" font-family="Helvetica,sans-Serif" font-size="10.00">::userLeave</text>
</a>
</g>
</g>
<!-- Node6&#45;&gt;Node10 -->
<g id="edge11" class="edge"><title>Node6&#45;&gt;Node10</title>
<path fill="none" stroke="midnightblue" d="M421.04,-145.959C437.304,-137.029 458.054,-125.279 476,-114 492.493,-103.634 494.913,-98.3542 512,-89 515.519,-87.0737 519.217,-85.2004 522.977,-83.4024"/>
<polygon fill="midnightblue" stroke="midnightblue" points="524.745,-86.4424 532.385,-79.1011 521.835,-80.0763 524.745,-86.4424"/>
</g>
<!-- Node11 -->
<g id="node11" class="node"><title>Node11</title>
<g id="a_node11"><a xlink:href="../../d3/d65/classclient_1_1cls_server_conn.xhtml#aa7679dfddcf23ffa4ce4febbc005995a" target="_top" xlink:title="Emitted when a user has changed his status (nick|status)">
<polygon fill="white" stroke="black" points="519,-0 519,-30 627,-30 627,-0 519,-0"/>
<text text-anchor="start" x="527" y="-18" font-family="Helvetica,sans-Serif" font-size="10.00">client::clsServerConn</text>
<text text-anchor="middle" x="573" y="-7" font-family="Helvetica,sans-Serif" font-size="10.00">::userStatusChange</text>
</a>
</g>
</g>
<!-- Node6&#45;&gt;Node11 -->
<g id="edge12" class="edge"><title>Node6&#45;&gt;Node11</title>
<path fill="none" stroke="midnightblue" d="M430.187,-145.948C445.827,-138.204 463.301,-127.518 476,-114 501.042,-87.3431 485.399,-65.1013 512,-40 513.634,-38.4583 515.376,-37.0052 517.201,-35.6362"/>
<polygon fill="midnightblue" stroke="midnightblue" points="519.158,-38.5386 525.641,-30.1592 515.348,-32.6665 519.158,-38.5386"/>
</g>
<!-- Node13&#45;&gt;Node12 -->
<g id="edge15" class="edge"><title>Node13&#45;&gt;Node12</title>
<path fill="none" stroke="midnightblue" d="M247.598,-39.0573C279.987,-51.6926 325.811,-69.5693 356.876,-81.6878"/>
<polygon fill="midnightblue" stroke="midnightblue" points="355.819,-85.0324 366.407,-85.4062 358.363,-78.5111 355.819,-85.0324"/>
</g>
<!-- Node14 -->
<g id="node14" class="node"><title>Node14</title>
<g id="a_node14"><a xlink:href="../../d3/d65/classclient_1_1cls_server_conn.xhtml#abad7931f40972d90b51e696b878b58c4" target="_top" xlink:title="Emitted when the server has sent us all the users.">
<polygon fill="white" stroke="black" points="335,-9 335,-39 449,-39 449,-9 335,-9"/>
<text text-anchor="start" x="343" y="-27" font-family="Helvetica,sans-Serif" font-size="10.00">client::clsServerConn</text>
<text text-anchor="middle" x="392" y="-16" font-family="Helvetica,sans-Serif" font-size="10.00">::userQueryCompleted</text>
</a>
</g>
</g>
<!-- Node13&#45;&gt;Node14 -->
<g id="edge16" class="edge"><title>Node13&#45;&gt;Node14</title>
<path fill="none" stroke="midnightblue" d="M270.11,-24C287.716,-24 307.001,-24 324.895,-24"/>
<polygon fill="midnightblue" stroke="midnightblue" points="324.958,-27.5001 334.958,-24 324.958,-20.5001 324.958,-27.5001"/>
</g>
<!-- Node15&#45;&gt;Node12 -->
<g id="edge18" class="edge"><title>Node15&#45;&gt;Node12</title>
<path fill="none" stroke="midnightblue" d="M270.11,-80.3869C282.947,-81.9387 296.677,-83.5984 310.11,-85.2221"/>
<polygon fill="midnightblue" stroke="midnightblue" points="309.957,-88.7289 320.304,-86.4544 310.797,-81.7795 309.957,-88.7289"/>
</g>
<!-- Node16&#45;&gt;Node12 -->
<g id="edge20" class="edge"><title>Node16&#45;&gt;Node12</title>
<path fill="none" stroke="midnightblue" d="M250.754,-145.858C282.247,-134.438 324.999,-118.934 354.995,-108.057"/>
<polygon fill="midnightblue" stroke="midnightblue" points="356.436,-111.257 364.644,-104.558 354.049,-104.677 356.436,-111.257"/>
</g>
<!-- Node16&#45;&gt;Node6 -->
<g id="edge21" class="edge"><title>Node16&#45;&gt;Node6</title>
<path fill="none" stroke="midnightblue" d="M263.606,-161C282.864,-161 304.726,-161 324.835,-161"/>
<polygon fill="midnightblue" stroke="midnightblue" points="324.857,-164.5 334.857,-161 324.857,-157.5 324.857,-164.5"/>
</g>
</g>
</svg>
