<?xml version="1.0" encoding="UTF-8" standalone="no"?>
<!DOCTYPE svg PUBLIC "-//W3C//DTD SVG 1.1//EN"
 "http://www.w3.org/Graphics/SVG/1.1/DTD/svg11.dtd">
<!-- Generated by graphviz version 2.30.1 (20130303.0817)
 -->
<!-- Title: client::clsServerConn::handleEventReceived Pages: 1 -->
<svg width="558pt" height="61pt"
 viewBox="0.00 0.00 558.00 61.00" xmlns="http://www.w3.org/2000/svg" xmlns:xlink="http://www.w3.org/1999/xlink">
<g id="graph0" class="graph" transform="scale(1 1) rotate(0) translate(4 57)">
<title>client::clsServerConn::handleEventReceived</title>
<polygon fill="white" stroke="white" points="-4,5 -4,-57 555,-57 555,5 -4,5"/>
<!-- Node1 -->
<g id="node1" class="node"><title>Node1</title>
<polygon fill="#bfbfbf" stroke="black" points="0,-1 0,-31 114,-31 114,-1 0,-1"/>
<text text-anchor="start" x="8" y="-19" font-family="Helvetica,sans-Serif" font-size="10.00">client::clsServerConn</text>
<text text-anchor="middle" x="57" y="-8" font-family="Helvetica,sans-Serif" font-size="10.00">::handleEventReceived</text>
</g>
<!-- Node2 -->
<g id="node2" class="node"><title>Node2</title>
<g id="a_node2"><a xlink:href="../../d3/d65/classclient_1_1cls_server_conn.html#a25abb840bb0764068d9a72dfb1e403b5" target="_top" xlink:title="Event request has been done by us, and data has been returned.">
<polygon fill="white" stroke="black" points="150.5,-23 150.5,-53 261.5,-53 261.5,-23 150.5,-23"/>
<text text-anchor="start" x="158.5" y="-41" font-family="Helvetica,sans-Serif" font-size="10.00">client::clsServerConn</text>
<text text-anchor="middle" x="206" y="-30" font-family="Helvetica,sans-Serif" font-size="10.00">::handleEventRequest</text>
</a>
</g>
</g>
<!-- Node1&#45;&gt;Node2 -->
<g id="edge1" class="edge"><title>Node1&#45;&gt;Node2</title>
<path fill="none" stroke="midnightblue" d="M124.507,-25.9534C133.18,-27.2515 141.985,-28.5692 150.432,-29.8334"/>
<polygon fill="midnightblue" stroke="midnightblue" points="124.822,-22.4616 114.414,-24.4429 123.785,-29.3845 124.822,-22.4616"/>
</g>
<!-- Node3 -->
<g id="node3" class="node"><title>Node3</title>
<g id="a_node3"><a xlink:href="../../d3/d65/classclient_1_1cls_server_conn.html#a0f7c8da07639a563b9d88780eb22748e" target="_top" xlink:title="client::clsServerConn\l::readData">
<polygon fill="white" stroke="black" points="298,-1 298,-31 406,-31 406,-1 298,-1"/>
<text text-anchor="start" x="306" y="-19" font-family="Helvetica,sans-Serif" font-size="10.00">client::clsServerConn</text>
<text text-anchor="middle" x="352" y="-8" font-family="Helvetica,sans-Serif" font-size="10.00">::readData</text>
</a>
</g>
</g>
<!-- Node1&#45;&gt;Node3 -->
<g id="edge4" class="edge"><title>Node1&#45;&gt;Node3</title>
<path fill="none" stroke="midnightblue" d="M124.454,-14.3837C133.049,-14.2251 141.733,-14.0898 150,-14 199.775,-13.459 212.225,-13.4408 262,-14 273.591,-14.1302 286.029,-14.3558 297.823,-14.6097"/>
<polygon fill="midnightblue" stroke="midnightblue" points="124.365,-10.8847 114.436,-14.5794 124.502,-17.8834 124.365,-10.8847"/>
</g>
<!-- Node2&#45;&gt;Node3 -->
<g id="edge2" class="edge"><title>Node2&#45;&gt;Node3</title>
<path fill="none" stroke="midnightblue" d="M271.9,-28.0847C280.54,-26.7648 289.317,-25.4238 297.728,-24.1388"/>
<polygon fill="midnightblue" stroke="midnightblue" points="271.208,-24.6498 261.851,-29.62 272.265,-31.5695 271.208,-24.6498"/>
</g>
<!-- Node4 -->
<g id="node4" class="node"><title>Node4</title>
<g id="a_node4"><a xlink:href="../../d3/d65/classclient_1_1cls_server_conn.html#ad9d8caf021df2cd15ce27bcf207d86d0" target="_top" xlink:title="Constructor taking a hostname and port.">
<polygon fill="white" stroke="black" points="442,-1 442,-31 550,-31 550,-1 442,-1"/>
<text text-anchor="start" x="450" y="-19" font-family="Helvetica,sans-Serif" font-size="10.00">client::clsServerConn</text>
<text text-anchor="middle" x="496" y="-8" font-family="Helvetica,sans-Serif" font-size="10.00">::clsServerConn</text>
</a>
</g>
</g>
<!-- Node3&#45;&gt;Node4 -->
<g id="edge3" class="edge"><title>Node3&#45;&gt;Node4</title>
<path fill="none" stroke="midnightblue" d="M416.517,-16C424.996,-16 433.618,-16 441.894,-16"/>
<polygon fill="midnightblue" stroke="midnightblue" points="416.28,-12.5001 406.28,-16 416.28,-19.5001 416.28,-12.5001"/>
</g>
</g>
</svg>
