<?xml version="1.0" encoding="UTF-8" standalone="no"?>
<!DOCTYPE svg PUBLIC "-//W3C//DTD SVG 1.1//EN"
 "http://www.w3.org/Graphics/SVG/1.1/DTD/svg11.dtd">
<!-- Generated by graphviz version 2.30.1 (20130303.0817)
 -->
<!-- Title: client::clsServerConn::sendCommand Pages: 1 -->
<svg width="404pt" height="185pt"
 viewBox="0.00 0.00 404.00 185.00" xmlns="http://www.w3.org/2000/svg" xmlns:xlink="http://www.w3.org/1999/xlink">
<g id="graph0" class="graph" transform="scale(1 1) rotate(0) translate(4 181)">
<title>client::clsServerConn::sendCommand</title>
<polygon fill="white" stroke="white" points="-4,5 -4,-181 401,-181 401,5 -4,5"/>
<!-- Node1 -->
<g id="node1" class="node"><title>Node1</title>
<polygon fill="#bfbfbf" stroke="black" points="0,-73 0,-103 108,-103 108,-73 0,-73"/>
<text text-anchor="start" x="8" y="-91" font-family="Helvetica,sans-Serif" font-size="10.00">client::clsServerConn</text>
<text text-anchor="middle" x="54" y="-80" font-family="Helvetica,sans-Serif" font-size="10.00">::sendCommand</text>
</g>
<!-- Node2 -->
<g id="node2" class="node"><title>Node2</title>
<g id="a_node2"><a xlink:href="../../d2/da4/classclient_1_1_main_window.html#aa32adfb179341040f2decbd0da19f1d9" target="_top" xlink:title="client::MainWindow\l::sendChat">
<polygon fill="white" stroke="black" points="150.5,-147 150.5,-177 251.5,-177 251.5,-147 150.5,-147"/>
<text text-anchor="start" x="158.5" y="-165" font-family="Helvetica,sans-Serif" font-size="10.00">client::MainWindow</text>
<text text-anchor="middle" x="201" y="-154" font-family="Helvetica,sans-Serif" font-size="10.00">::sendChat</text>
</a>
</g>
</g>
<!-- Node1&#45;&gt;Node2 -->
<g id="edge1" class="edge"><title>Node1&#45;&gt;Node2</title>
<path fill="none" stroke="midnightblue" d="M90.2873,-108.312C106.486,-117.407 126.046,-128.069 144,-137 150.768,-140.367 158.09,-143.789 165.137,-146.977"/>
<polygon fill="midnightblue" stroke="midnightblue" points="91.6038,-105.036 81.1758,-103.164 88.1601,-111.131 91.6038,-105.036"/>
</g>
<!-- Node4 -->
<g id="node4" class="node"><title>Node4</title>
<g id="a_node4"><a xlink:href="../../d2/da4/classclient_1_1_main_window.html#a75d241698eb127c089ed4703fbeb4999" target="_top" xlink:title="client::MainWindow\l::commandGiven">
<polygon fill="white" stroke="black" points="150.5,-98 150.5,-128 251.5,-128 251.5,-98 150.5,-98"/>
<text text-anchor="start" x="158.5" y="-116" font-family="Helvetica,sans-Serif" font-size="10.00">client::MainWindow</text>
<text text-anchor="middle" x="201" y="-105" font-family="Helvetica,sans-Serif" font-size="10.00">::commandGiven</text>
</a>
</g>
</g>
<!-- Node1&#45;&gt;Node4 -->
<g id="edge3" class="edge"><title>Node1&#45;&gt;Node4</title>
<path fill="none" stroke="midnightblue" d="M118.297,-98.9134C128.98,-100.755 139.934,-102.644 150.21,-104.416"/>
<polygon fill="midnightblue" stroke="midnightblue" points="118.619,-95.4172 108.169,-97.1671 117.429,-102.315 118.619,-95.4172"/>
</g>
<!-- Node5 -->
<g id="node5" class="node"><title>Node5</title>
<g id="a_node5"><a xlink:href="../../d2/da4/classclient_1_1_main_window.html#aae9222490d9f0d71ffa6585c35416bfb" target="_top" xlink:title="client::MainWindow\l::serverConnected">
<polygon fill="white" stroke="black" points="150.5,-49 150.5,-79 251.5,-79 251.5,-49 150.5,-49"/>
<text text-anchor="start" x="158.5" y="-67" font-family="Helvetica,sans-Serif" font-size="10.00">client::MainWindow</text>
<text text-anchor="middle" x="201" y="-56" font-family="Helvetica,sans-Serif" font-size="10.00">::serverConnected</text>
</a>
</g>
</g>
<!-- Node1&#45;&gt;Node5 -->
<g id="edge5" class="edge"><title>Node1&#45;&gt;Node5</title>
<path fill="none" stroke="midnightblue" d="M118.297,-77.5232C128.98,-75.755 139.934,-73.942 150.21,-72.2411"/>
<polygon fill="midnightblue" stroke="midnightblue" points="117.464,-74.1135 108.169,-79.1996 118.607,-81.0195 117.464,-74.1135"/>
</g>
<!-- Node6 -->
<g id="node6" class="node"><title>Node6</title>
<g id="a_node6"><a xlink:href="../../d2/da4/classclient_1_1_main_window.html#a13044cd00c53dbbbc6b945c0dfd9b4b4" target="_top" xlink:title="Triggered when the user query came back.">
<polygon fill="white" stroke="black" points="144,-0 144,-30 258,-30 258,-0 144,-0"/>
<text text-anchor="start" x="152" y="-18" font-family="Helvetica,sans-Serif" font-size="10.00">client::MainWindow</text>
<text text-anchor="middle" x="201" y="-7" font-family="Helvetica,sans-Serif" font-size="10.00">::userQueryCompleted</text>
</a>
</g>
</g>
<!-- Node1&#45;&gt;Node6 -->
<g id="edge7" class="edge"><title>Node1&#45;&gt;Node6</title>
<path fill="none" stroke="midnightblue" d="M90.6882,-67.9637C106.825,-59.1092 126.224,-48.7463 144,-40 150.783,-36.6627 158.111,-33.2536 165.16,-30.0691"/>
<polygon fill="midnightblue" stroke="midnightblue" points="88.6649,-65.0827 81.6011,-72.9792 92.0474,-71.2112 88.6649,-65.0827"/>
</g>
<!-- Node3 -->
<g id="node3" class="node"><title>Node3</title>
<g id="a_node3"><a xlink:href="../../d2/da4/classclient_1_1_main_window.html#ab4aedce719340218169c114b31b54f70" target="_top" xlink:title="client::MainWindow\l::MainWindow">
<polygon fill="white" stroke="black" points="294.5,-73 294.5,-103 395.5,-103 395.5,-73 294.5,-73"/>
<text text-anchor="start" x="302.5" y="-91" font-family="Helvetica,sans-Serif" font-size="10.00">client::MainWindow</text>
<text text-anchor="middle" x="345" y="-80" font-family="Helvetica,sans-Serif" font-size="10.00">::MainWindow</text>
</a>
</g>
</g>
<!-- Node2&#45;&gt;Node3 -->
<g id="edge2" class="edge"><title>Node2&#45;&gt;Node3</title>
<path fill="none" stroke="midnightblue" d="M246.4,-142.662C250.346,-140.798 254.26,-138.894 258,-137 279.001,-126.361 302.154,-113.076 319.141,-103.024"/>
<polygon fill="midnightblue" stroke="midnightblue" points="244.805,-139.543 237.2,-146.919 247.745,-145.896 244.805,-139.543"/>
</g>
<!-- Node4&#45;&gt;Node3 -->
<g id="edge4" class="edge"><title>Node4&#45;&gt;Node3</title>
<path fill="none" stroke="midnightblue" d="M261.833,-102.466C272.586,-100.573 283.69,-98.618 294.123,-96.7811"/>
<polygon fill="midnightblue" stroke="midnightblue" points="260.906,-99.0752 251.665,-104.256 262.12,-105.969 260.906,-99.0752"/>
</g>
<!-- Node5&#45;&gt;Node3 -->
<g id="edge6" class="edge"><title>Node5&#45;&gt;Node3</title>
<path fill="none" stroke="midnightblue" d="M261.833,-74.1127C272.586,-75.9301 283.69,-77.8067 294.123,-79.5701"/>
<polygon fill="midnightblue" stroke="midnightblue" points="262.108,-70.6096 251.665,-72.394 260.942,-77.5117 262.108,-70.6096"/>
</g>
<!-- Node6&#45;&gt;Node3 -->
<g id="edge8" class="edge"><title>Node6&#45;&gt;Node3</title>
<path fill="none" stroke="midnightblue" d="M246.382,-34.3736C250.332,-36.2304 254.252,-38.1221 258,-40 278.638,-50.3402 301.425,-63.1231 318.355,-72.8969"/>
<polygon fill="midnightblue" stroke="midnightblue" points="247.723,-31.1378 237.176,-30.1274 244.791,-37.4942 247.723,-31.1378"/>
</g>
</g>
</svg>
