<?xml version="1.0" encoding="UTF-8" standalone="no"?>
<!DOCTYPE svg PUBLIC "-//W3C//DTD SVG 1.1//EN"
 "http://www.w3.org/Graphics/SVG/1.1/DTD/svg11.dtd">
<!-- Generated by graphviz version 2.30.1 (20130303.0817)
 -->
<!-- Title: client::clsServerConn::sgnConnectTimeout Pages: 1 -->
<svg width="826pt" height="87pt"
 viewBox="0.00 0.00 826.00 87.00" xmlns="http://www.w3.org/2000/svg" xmlns:xlink="http://www.w3.org/1999/xlink">
<g id="graph0" class="graph" transform="scale(1 1) rotate(0) translate(4 83)">
<title>client::clsServerConn::sgnConnectTimeout</title>
<polygon fill="white" stroke="white" points="-4,5 -4,-83 823,-83 823,5 -4,5"/>
<!-- Node1 -->
<g id="node1" class="node"><title>Node1</title>
<polygon fill="#bfbfbf" stroke="black" points="0.5,-24 0.5,-54 109.5,-54 109.5,-24 0.5,-24"/>
<text text-anchor="start" x="8.5" y="-42" font-family="Helvetica,sans-Serif" font-size="10.00">client::clsServerConn</text>
<text text-anchor="middle" x="55" y="-31" font-family="Helvetica,sans-Serif" font-size="10.00">::sgnConnectTimeout</text>
</g>
<!-- Node2 -->
<g id="node2" class="node"><title>Node2</title>
<g id="a_node2"><a xlink:href="../../d3/d65/classclient_1_1cls_server_conn.html#a5ec4520ae6b50789ef650436b6339d43" target="_top" xlink:title="client::clsServerConn\l::connectTimeout">
<polygon fill="white" stroke="black" points="146,-24 146,-54 254,-54 254,-24 146,-24"/>
<text text-anchor="start" x="154" y="-42" font-family="Helvetica,sans-Serif" font-size="10.00">client::clsServerConn</text>
<text text-anchor="middle" x="200" y="-31" font-family="Helvetica,sans-Serif" font-size="10.00">::connectTimeout</text>
</a>
</g>
</g>
<!-- Node1&#45;&gt;Node2 -->
<g id="edge1" class="edge"><title>Node1&#45;&gt;Node2</title>
<path fill="none" stroke="midnightblue" d="M119.82,-39C128.567,-39 137.469,-39 145.995,-39"/>
<polygon fill="midnightblue" stroke="midnightblue" points="119.655,-35.5001 109.655,-39 119.655,-42.5001 119.655,-35.5001"/>
</g>
<!-- Node3 -->
<g id="node3" class="node"><title>Node3</title>
<g id="a_node3"><a xlink:href="../../d3/d65/classclient_1_1cls_server_conn.html#af4589d93eb4b606423cb4b5e4a583f4e" target="_top" xlink:title="Actually connect.">
<polygon fill="white" stroke="black" points="290,-24 290,-54 398,-54 398,-24 290,-24"/>
<text text-anchor="start" x="298" y="-42" font-family="Helvetica,sans-Serif" font-size="10.00">client::clsServerConn</text>
<text text-anchor="middle" x="344" y="-31" font-family="Helvetica,sans-Serif" font-size="10.00">::doConnect</text>
</a>
</g>
</g>
<!-- Node2&#45;&gt;Node3 -->
<g id="edge2" class="edge"><title>Node2&#45;&gt;Node3</title>
<path fill="none" stroke="midnightblue" d="M264.517,-39C272.996,-39 281.618,-39 289.894,-39"/>
<polygon fill="midnightblue" stroke="midnightblue" points="264.28,-35.5001 254.28,-39 264.28,-42.5001 264.28,-35.5001"/>
</g>
<!-- Node4 -->
<g id="node4" class="node"><title>Node4</title>
<g id="a_node4"><a xlink:href="../../d2/da4/classclient_1_1_main_window.html#a4714272984f1518ea739cc5c809d8579" target="_top" xlink:title="client::MainWindow\l::doReconnect">
<polygon fill="white" stroke="black" points="434.5,-24 434.5,-54 535.5,-54 535.5,-24 434.5,-24"/>
<text text-anchor="start" x="442.5" y="-42" font-family="Helvetica,sans-Serif" font-size="10.00">client::MainWindow</text>
<text text-anchor="middle" x="485" y="-31" font-family="Helvetica,sans-Serif" font-size="10.00">::doReconnect</text>
</a>
</g>
</g>
<!-- Node3&#45;&gt;Node4 -->
<g id="edge3" class="edge"><title>Node3&#45;&gt;Node4</title>
<path fill="none" stroke="midnightblue" d="M408.415,-39C417.071,-39 425.855,-39 434.223,-39"/>
<polygon fill="midnightblue" stroke="midnightblue" points="408.344,-35.5001 398.343,-39 408.343,-42.5001 408.344,-35.5001"/>
</g>
<!-- Node5 -->
<g id="node5" class="node"><title>Node5</title>
<g id="a_node5"><a xlink:href="../../d2/da4/classclient_1_1_main_window.html#a1453a7da1874881b67aa919390012e36" target="_top" xlink:title="client::MainWindow\l::serverDisconnected">
<polygon fill="white" stroke="black" points="572.5,-49 572.5,-79 679.5,-79 679.5,-49 572.5,-49"/>
<text text-anchor="start" x="580.5" y="-67" font-family="Helvetica,sans-Serif" font-size="10.00">client::MainWindow</text>
<text text-anchor="middle" x="626" y="-56" font-family="Helvetica,sans-Serif" font-size="10.00">::serverDisconnected</text>
</a>
</g>
</g>
<!-- Node4&#45;&gt;Node5 -->
<g id="edge4" class="edge"><title>Node4&#45;&gt;Node5</title>
<path fill="none" stroke="midnightblue" d="M545.658,-49.7298C554.508,-51.3216 563.575,-52.9524 572.27,-54.5163"/>
<polygon fill="midnightblue" stroke="midnightblue" points="546.251,-46.2805 535.79,-47.955 545.012,-53.1699 546.251,-46.2805"/>
</g>
<!-- Node7 -->
<g id="node7" class="node"><title>Node7</title>
<g id="a_node7"><a xlink:href="../../d2/da4/classclient_1_1_main_window.html#a6df87d6d4bb287478d307d7e45097187" target="_top" xlink:title="Triggered when we cannot connect to the server!">
<polygon fill="white" stroke="black" points="575,-0 575,-30 677,-30 677,-0 575,-0"/>
<text text-anchor="start" x="583" y="-18" font-family="Helvetica,sans-Serif" font-size="10.00">client::MainWindow</text>
<text text-anchor="middle" x="626" y="-7" font-family="Helvetica,sans-Serif" font-size="10.00">::connectedTimeout</text>
</a>
</g>
</g>
<!-- Node4&#45;&gt;Node7 -->
<g id="edge6" class="edge"><title>Node4&#45;&gt;Node7</title>
<path fill="none" stroke="midnightblue" d="M545.707,-28.6909C555.343,-27.0271 565.235,-25.3191 574.623,-23.6982"/>
<polygon fill="midnightblue" stroke="midnightblue" points="545.048,-25.2527 535.79,-30.4032 546.239,-32.1507 545.048,-25.2527"/>
</g>
<!-- Node6 -->
<g id="node6" class="node"><title>Node6</title>
<g id="a_node6"><a xlink:href="../../d2/da4/classclient_1_1_main_window.html#ab4aedce719340218169c114b31b54f70" target="_top" xlink:title="client::MainWindow\l::MainWindow">
<polygon fill="white" stroke="black" points="716.5,-24 716.5,-54 817.5,-54 817.5,-24 716.5,-24"/>
<text text-anchor="start" x="724.5" y="-42" font-family="Helvetica,sans-Serif" font-size="10.00">client::MainWindow</text>
<text text-anchor="middle" x="767" y="-31" font-family="Helvetica,sans-Serif" font-size="10.00">::MainWindow</text>
</a>
</g>
</g>
<!-- Node5&#45;&gt;Node6 -->
<g id="edge5" class="edge"><title>Node5&#45;&gt;Node6</title>
<path fill="none" stroke="midnightblue" d="M689.517,-52.7559C698.432,-51.1525 707.501,-49.5214 716.131,-47.9693"/>
<polygon fill="midnightblue" stroke="midnightblue" points="688.772,-49.3336 679.55,-54.5486 690.012,-56.2231 688.772,-49.3336"/>
</g>
<!-- Node7&#45;&gt;Node6 -->
<g id="edge7" class="edge"><title>Node7&#45;&gt;Node6</title>
<path fill="none" stroke="midnightblue" d="M687.201,-25.3945C696.933,-27.0747 706.912,-28.7978 716.357,-30.4286"/>
<polygon fill="midnightblue" stroke="midnightblue" points="687.632,-21.9171 677.182,-23.6646 686.441,-28.815 687.632,-21.9171"/>
</g>
</g>
</svg>
