<?xml version="1.0" encoding="UTF-8" standalone="no"?>
<!DOCTYPE svg PUBLIC "-//W3C//DTD SVG 1.1//EN"
 "http://www.w3.org/Graphics/SVG/1.1/DTD/svg11.dtd">
<!-- Generated by graphviz version 2.30.1 (20130303.0817)
 -->
<!-- Title: client::clsServerConn::readData Pages: 1 -->
<svg width="648pt" height="397pt"
 viewBox="0.00 0.00 648.00 396.94" xmlns="http://www.w3.org/2000/svg" xmlns:xlink="http://www.w3.org/1999/xlink">
<g id="graph0" class="graph" transform="scale(1 1) rotate(0) translate(4 392.937)">
<title>client::clsServerConn::readData</title>
<polygon fill="white" stroke="white" points="-4,5 -4,-392.937 645,-392.937 645,5 -4,5"/>
<!-- Node1 -->
<g id="node1" class="node"><title>Node1</title>
<polygon fill="#bfbfbf" stroke="black" points="0,-218 0,-248 108,-248 108,-218 0,-218"/>
<text text-anchor="start" x="8" y="-236" font-family="Helvetica,sans-Serif" font-size="10.00">client::clsServerConn</text>
<text text-anchor="middle" x="54" y="-225" font-family="Helvetica,sans-Serif" font-size="10.00">::readData</text>
</g>
<!-- Node2 -->
<g id="node2" class="node"><title>Node2</title>
<g id="a_node2"><a xlink:href="../../d3/d65/classclient_1_1cls_server_conn.html#a8fc1a3ef72ba0480d521781f84983afe" target="_top" xlink:title="Adds data to buffer and checks for json commands.">
<polygon fill="white" stroke="black" points="144,-319 144,-349 272,-349 272,-319 144,-319"/>
<text text-anchor="start" x="152" y="-337" font-family="Helvetica,sans-Serif" font-size="10.00">client::clsServerConn</text>
<text text-anchor="middle" x="208" y="-326" font-family="Helvetica,sans-Serif" font-size="10.00">::checkForJsonCommand</text>
</a>
</g>
</g>
<!-- Node1&#45;&gt;Node2 -->
<g id="edge1" class="edge"><title>Node1&#45;&gt;Node2</title>
<path fill="none" stroke="midnightblue" d="M77.7559,-248.121C103.725,-265.376 146.361,-293.707 175.509,-313.075"/>
<polygon fill="midnightblue" stroke="midnightblue" points="173.823,-316.157 184.089,-318.776 177.697,-310.326 173.823,-316.157"/>
</g>
<!-- Node3 -->
<g id="node3" class="node"><title>Node3</title>
<g id="a_node3"><a xlink:href="../../d2/dc1/class_k4_u_1_1json_command.html#a2db6f8da6bc5a4c677201f044b69bb10" target="_top" xlink:title="getCommand">
<polygon fill="white" stroke="black" points="308.5,-368.5 308.5,-387.5 475.5,-387.5 475.5,-368.5 308.5,-368.5"/>
<text text-anchor="middle" x="392" y="-375.5" font-family="Helvetica,sans-Serif" font-size="10.00">K4U::jsonCommand::getCommand</text>
</a>
</g>
</g>
<!-- Node1&#45;&gt;Node3 -->
<g id="edge6" class="edge"><title>Node1&#45;&gt;Node3</title>
<path fill="none" stroke="midnightblue" d="M60.7418,-248.224C71.9885,-275.659 99.7531,-332.875 144,-358 194.051,-386.42 259.245,-390.598 310.087,-388.11"/>
<polygon fill="midnightblue" stroke="midnightblue" points="310.603,-391.586 320.381,-387.506 310.193,-384.598 310.603,-391.586"/>
</g>
<!-- Node6 -->
<g id="node6" class="node"><title>Node6</title>
<g id="a_node6"><a xlink:href="../../d3/d65/classclient_1_1cls_server_conn.html#ad5d3a03440fdec33270247486fb5500c" target="_top" xlink:title="Event has been received by the client. Parse it.">
<polygon fill="white" stroke="black" points="335,-196 335,-226 449,-226 449,-196 335,-196"/>
<text text-anchor="start" x="343" y="-214" font-family="Helvetica,sans-Serif" font-size="10.00">client::clsServerConn</text>
<text text-anchor="middle" x="392" y="-203" font-family="Helvetica,sans-Serif" font-size="10.00">::handleEventReceived</text>
</a>
</g>
</g>
<!-- Node1&#45;&gt;Node6 -->
<g id="edge7" class="edge"><title>Node1&#45;&gt;Node6</title>
<path fill="none" stroke="midnightblue" d="M101.643,-248.053C115.16,-251.737 130.039,-255.151 144,-257 200.396,-264.471 216.076,-267.433 272,-257 299.626,-251.846 329.098,-240.502 351.801,-230.37"/>
<polygon fill="midnightblue" stroke="midnightblue" points="353.451,-233.464 361.091,-226.123 350.541,-227.097 353.451,-233.464"/>
</g>
<!-- Node14 -->
<g id="node14" class="node"><title>Node14</title>
<g id="a_node14"><a xlink:href="../../d2/dc1/class_k4_u_1_1json_command.html#ae829f45e11a50fa00024a5d9951cd748" target="_top" xlink:title="Gets an item from the internal data map.">
<polygon fill="white" stroke="black" points="320.5,-146.5 320.5,-165.5 463.5,-165.5 463.5,-146.5 320.5,-146.5"/>
<text text-anchor="middle" x="392" y="-153.5" font-family="Helvetica,sans-Serif" font-size="10.00">K4U::jsonCommand::getData</text>
</a>
</g>
</g>
<!-- Node1&#45;&gt;Node14 -->
<g id="edge15" class="edge"><title>Node1&#45;&gt;Node14</title>
<path fill="none" stroke="midnightblue" d="M108.064,-218.206C119.865,-215.051 132.334,-211.823 144,-209 208.407,-193.417 282.827,-177.766 333.005,-167.556"/>
<polygon fill="midnightblue" stroke="midnightblue" points="333.915,-170.943 343.02,-165.525 332.523,-164.083 333.915,-170.943"/>
</g>
<!-- Node15 -->
<g id="node15" class="node"><title>Node15</title>
<g id="a_node15"><a xlink:href="../../d3/d65/classclient_1_1cls_server_conn.html#a034a72332abdeeb8dbd9483954a235dd" target="_top" xlink:title="The server has given us all the users. Handle it.">
<polygon fill="white" stroke="black" points="146,-81 146,-111 270,-111 270,-81 146,-81"/>
<text text-anchor="start" x="154" y="-99" font-family="Helvetica,sans-Serif" font-size="10.00">client::clsServerConn</text>
<text text-anchor="middle" x="208" y="-88" font-family="Helvetica,sans-Serif" font-size="10.00">::handleCompletedQuery</text>
</a>
</g>
</g>
<!-- Node1&#45;&gt;Node15 -->
<g id="edge16" class="edge"><title>Node1&#45;&gt;Node15</title>
<path fill="none" stroke="midnightblue" d="M63.4524,-217.869C77.382,-194.181 107.306,-148.238 144,-121 146.471,-119.166 149.095,-117.445 151.815,-115.834"/>
<polygon fill="midnightblue" stroke="midnightblue" points="153.585,-118.857 160.757,-111.058 150.288,-112.682 153.585,-118.857"/>
</g>
<!-- Node17 -->
<g id="node17" class="node"><title>Node17</title>
<g id="a_node17"><a xlink:href="../../d3/d65/classclient_1_1cls_server_conn.html#a2f4257ed2b9677919567a060fb31887b" target="_top" xlink:title="Another client has changed our own user status.">
<polygon fill="white" stroke="black" points="146,-130 146,-160 270,-160 270,-130 146,-130"/>
<text text-anchor="start" x="154" y="-148" font-family="Helvetica,sans-Serif" font-size="10.00">client::clsServerConn</text>
<text text-anchor="middle" x="208" y="-137" font-family="Helvetica,sans-Serif" font-size="10.00">::handleOwnUserChange</text>
</a>
</g>
</g>
<!-- Node1&#45;&gt;Node17 -->
<g id="edge19" class="edge"><title>Node1&#45;&gt;Node17</title>
<path fill="none" stroke="midnightblue" d="M76.4429,-217.869C94.165,-205.648 120.191,-188.349 144,-175 150.393,-171.416 157.283,-167.85 164.078,-164.494"/>
<polygon fill="midnightblue" stroke="midnightblue" points="165.752,-167.573 173.229,-160.067 162.703,-161.271 165.752,-167.573"/>
</g>
<!-- Node18 -->
<g id="node18" class="node"><title>Node18</title>
<g id="a_node18"><a xlink:href="../../d3/d65/classclient_1_1cls_server_conn.html#a25abb840bb0764068d9a72dfb1e403b5" target="_top" xlink:title="Event request has been done by us, and data has been returned.">
<polygon fill="white" stroke="black" points="152.5,-218 152.5,-248 263.5,-248 263.5,-218 152.5,-218"/>
<text text-anchor="start" x="160.5" y="-236" font-family="Helvetica,sans-Serif" font-size="10.00">client::clsServerConn</text>
<text text-anchor="middle" x="208" y="-225" font-family="Helvetica,sans-Serif" font-size="10.00">::handleEventRequest</text>
</a>
</g>
</g>
<!-- Node1&#45;&gt;Node18 -->
<g id="edge21" class="edge"><title>Node1&#45;&gt;Node18</title>
<path fill="none" stroke="midnightblue" d="M108.162,-233C119.108,-233 130.751,-233 142.06,-233"/>
<polygon fill="midnightblue" stroke="midnightblue" points="142.323,-236.5 152.322,-233 142.322,-229.5 142.323,-236.5"/>
</g>
<!-- Node2&#45;&gt;Node3 -->
<g id="edge2" class="edge"><title>Node2&#45;&gt;Node3</title>
<path fill="none" stroke="midnightblue" d="M267.578,-349.022C280.855,-352.363 294.902,-355.847 308,-359 317.809,-361.361 328.287,-363.813 338.38,-366.141"/>
<polygon fill="midnightblue" stroke="midnightblue" points="337.777,-369.593 348.306,-368.419 339.342,-362.771 337.777,-369.593"/>
</g>
<!-- Node4 -->
<g id="node4" class="node"><title>Node4</title>
<g id="a_node4"><a xlink:href="../../d6/d75/namespace_k4_u.html#aaddaee50fab2801df390147891b0c09d" target="_top" xlink:title="K4U::endl">
<polygon fill="white" stroke="black" points="362.5,-330.5 362.5,-349.5 421.5,-349.5 421.5,-330.5 362.5,-330.5"/>
<text text-anchor="middle" x="392" y="-337.5" font-family="Helvetica,sans-Serif" font-size="10.00">K4U::endl</text>
</a>
</g>
</g>
<!-- Node2&#45;&gt;Node4 -->
<g id="edge3" class="edge"><title>Node2&#45;&gt;Node4</title>
<path fill="none" stroke="midnightblue" d="M272.144,-336.082C298.676,-336.956 328.703,-337.946 351.939,-338.712"/>
<polygon fill="midnightblue" stroke="midnightblue" points="351.99,-342.216 362.1,-339.047 352.221,-335.22 351.99,-342.216"/>
</g>
<!-- Node5 -->
<g id="node5" class="node"><title>Node5</title>
<g id="a_node5"><a xlink:href="../../da/d64/class_k4_u_1_1cls_log.html#a81f179b2ccb3e2abeb9b47f5b83de935" target="_top" xlink:title="K4U::clsLog::doEndl">
<polygon fill="white" stroke="black" points="523,-343.5 523,-362.5 629,-362.5 629,-343.5 523,-343.5"/>
<text text-anchor="middle" x="576" y="-350.5" font-family="Helvetica,sans-Serif" font-size="10.00">K4U::clsLog::doEndl</text>
</a>
</g>
</g>
<!-- Node4&#45;&gt;Node5 -->
<g id="edge4" class="edge"><title>Node4&#45;&gt;Node5</title>
<path fill="none" stroke="midnightblue" d="M421.838,-336.971C447.163,-337.132 484.79,-339.398 516.412,-342.461"/>
<polygon fill="midnightblue" stroke="midnightblue" points="516.141,-345.951 526.444,-343.482 516.85,-338.987 516.141,-345.951"/>
</g>
<!-- Node5&#45;&gt;Node4 -->
<g id="edge5" class="edge"><title>Node5&#45;&gt;Node4</title>
<path fill="none" stroke="midnightblue" d="M522.833,-355.445C493.86,-354.293 458.423,-351.588 431.896,-348.429"/>
<polygon fill="midnightblue" stroke="midnightblue" points="432.2,-344.939 421.838,-347.149 431.317,-351.883 432.2,-344.939"/>
</g>
<!-- Node7 -->
<g id="node7" class="node"><title>Node7</title>
<g id="a_node7"><a xlink:href="../../db/d8b/classshared_1_1events_1_1cls_event.html#a33943d736db49d2a7781325357f34063" target="_top" xlink:title="Gets this events type.">
<polygon fill="white" stroke="black" points="515,-294 515,-324 637,-324 637,-294 515,-294"/>
<text text-anchor="start" x="523" y="-312" font-family="Helvetica,sans-Serif" font-size="10.00">shared::events::clsEvent</text>
<text text-anchor="middle" x="576" y="-301" font-family="Helvetica,sans-Serif" font-size="10.00">::getType</text>
</a>
</g>
</g>
<!-- Node6&#45;&gt;Node7 -->
<g id="edge8" class="edge"><title>Node6&#45;&gt;Node7</title>
<path fill="none" stroke="midnightblue" d="M415.148,-226.191C438.56,-241.862 476.887,-266.428 512,-284 516.015,-286.009 520.233,-287.975 524.504,-289.866"/>
<polygon fill="midnightblue" stroke="midnightblue" points="523.309,-293.161 533.88,-293.872 526.06,-286.724 523.309,-293.161"/>
</g>
<!-- Node8 -->
<g id="node8" class="node"><title>Node8</title>
<g id="a_node8"><a xlink:href="../../d3/d65/classclient_1_1cls_server_conn.html#ada02a27f01478db29d10bde4c51110b4" target="_top" xlink:title="Emitted when a chat event has been received.">
<polygon fill="white" stroke="black" points="522,-245 522,-275 630,-275 630,-245 522,-245"/>
<text text-anchor="start" x="530" y="-263" font-family="Helvetica,sans-Serif" font-size="10.00">client::clsServerConn</text>
<text text-anchor="middle" x="576" y="-252" font-family="Helvetica,sans-Serif" font-size="10.00">::chatReceived</text>
</a>
</g>
</g>
<!-- Node6&#45;&gt;Node8 -->
<g id="edge9" class="edge"><title>Node6&#45;&gt;Node8</title>
<path fill="none" stroke="midnightblue" d="M449.091,-226.101C469.017,-231.466 491.576,-237.54 512.038,-243.049"/>
<polygon fill="midnightblue" stroke="midnightblue" points="511.328,-246.482 521.894,-245.702 513.147,-239.723 511.328,-246.482"/>
</g>
<!-- Node9 -->
<g id="node9" class="node"><title>Node9</title>
<g id="a_node9"><a xlink:href="../../d3/d65/classclient_1_1cls_server_conn.html#a9f3b4fe1b687bdb31ab584493b8dde91" target="_top" xlink:title="Triggered when a user enters the channel.">
<polygon fill="white" stroke="black" points="522,-196 522,-226 630,-226 630,-196 522,-196"/>
<text text-anchor="start" x="530" y="-214" font-family="Helvetica,sans-Serif" font-size="10.00">client::clsServerConn</text>
<text text-anchor="middle" x="576" y="-203" font-family="Helvetica,sans-Serif" font-size="10.00">::userEnter</text>
</a>
</g>
</g>
<!-- Node6&#45;&gt;Node9 -->
<g id="edge10" class="edge"><title>Node6&#45;&gt;Node9</title>
<path fill="none" stroke="midnightblue" d="M449.091,-211C468.927,-211 491.371,-211 511.759,-211"/>
<polygon fill="midnightblue" stroke="midnightblue" points="511.894,-214.5 521.894,-211 511.894,-207.5 511.894,-214.5"/>
</g>
<!-- Node10 -->
<g id="node10" class="node"><title>Node10</title>
<g id="a_node10"><a xlink:href="../../d3/d65/classclient_1_1cls_server_conn.html#a89ac2b4edd0a40b0fbfb5504904752c9" target="_top" xlink:title="Triggered when a user left the channel.">
<polygon fill="white" stroke="black" points="522,-147 522,-177 630,-177 630,-147 522,-147"/>
<text text-anchor="start" x="530" y="-165" font-family="Helvetica,sans-Serif" font-size="10.00">client::clsServerConn</text>
<text text-anchor="middle" x="576" y="-154" font-family="Helvetica,sans-Serif" font-size="10.00">::userLeave</text>
</a>
</g>
</g>
<!-- Node6&#45;&gt;Node10 -->
<g id="edge11" class="edge"><title>Node6&#45;&gt;Node10</title>
<path fill="none" stroke="midnightblue" d="M449.091,-195.899C469.017,-190.534 491.576,-184.46 512.038,-178.951"/>
<polygon fill="midnightblue" stroke="midnightblue" points="513.147,-182.277 521.894,-176.298 511.328,-175.518 513.147,-182.277"/>
</g>
<!-- Node11 -->
<g id="node11" class="node"><title>Node11</title>
<g id="a_node11"><a xlink:href="../../d3/d65/classclient_1_1cls_server_conn.html#aa7679dfddcf23ffa4ce4febbc005995a" target="_top" xlink:title="Emitted when a user has changed his status (nick|status)">
<polygon fill="white" stroke="black" points="522,-98 522,-128 630,-128 630,-98 522,-98"/>
<text text-anchor="start" x="530" y="-116" font-family="Helvetica,sans-Serif" font-size="10.00">client::clsServerConn</text>
<text text-anchor="middle" x="576" y="-105" font-family="Helvetica,sans-Serif" font-size="10.00">::userStatusChange</text>
</a>
</g>
</g>
<!-- Node6&#45;&gt;Node11 -->
<g id="edge12" class="edge"><title>Node6&#45;&gt;Node11</title>
<path fill="none" stroke="midnightblue" d="M436.476,-195.894C449.738,-190.318 463.979,-183.298 476,-175 494.882,-161.966 492.915,-150.735 512,-138 514.877,-136.08 517.923,-134.272 521.063,-132.575"/>
<polygon fill="midnightblue" stroke="midnightblue" points="522.697,-135.671 530.093,-128.085 519.58,-129.403 522.697,-135.671"/>
</g>
<!-- Node12 -->
<g id="node12" class="node"><title>Node12</title>
<g id="a_node12"><a xlink:href="../../d3/d65/classclient_1_1cls_server_conn.html#af5b308ecbe7fda6ff5c7dd524e17817c" target="_top" xlink:title="Emitted when a user has changed his nick (nick|status)">
<polygon fill="white" stroke="black" points="522,-49 522,-79 630,-79 630,-49 522,-49"/>
<text text-anchor="start" x="530" y="-67" font-family="Helvetica,sans-Serif" font-size="10.00">client::clsServerConn</text>
<text text-anchor="middle" x="576" y="-56" font-family="Helvetica,sans-Serif" font-size="10.00">::userChangeNick</text>
</a>
</g>
</g>
<!-- Node6&#45;&gt;Node12 -->
<g id="edge13" class="edge"><title>Node6&#45;&gt;Node12</title>
<path fill="none" stroke="midnightblue" d="M444.664,-195.832C456.041,-190.639 467.282,-183.83 476,-175 505.111,-145.513 482.428,-118.025 512,-89 513.603,-87.4262 515.318,-85.948 517.119,-84.5601"/>
<polygon fill="midnightblue" stroke="midnightblue" points="519.068,-87.4671 525.483,-79.0351 515.21,-81.6262 519.068,-87.4671"/>
</g>
<!-- Node13 -->
<g id="node13" class="node"><title>Node13</title>
<g id="a_node13"><a xlink:href="../../d3/d65/classclient_1_1cls_server_conn.html#a7756cad0bea903cd816c1fb68cac65fe" target="_top" xlink:title="Triggered when the server wants us to know something.">
<polygon fill="white" stroke="black" points="512.5,-0 512.5,-30 639.5,-30 639.5,-0 512.5,-0"/>
<text text-anchor="start" x="520.5" y="-18" font-family="Helvetica,sans-Serif" font-size="10.00">client::clsServerConn</text>
<text text-anchor="middle" x="576" y="-7" font-family="Helvetica,sans-Serif" font-size="10.00">::serverMessageReceived</text>
</a>
</g>
</g>
<!-- Node6&#45;&gt;Node13 -->
<g id="edge14" class="edge"><title>Node6&#45;&gt;Node13</title>
<path fill="none" stroke="midnightblue" d="M447.272,-195.844C458.004,-190.711 468.312,-183.925 476,-175 516.527,-127.952 470.737,-86.4045 512,-40 513.183,-38.67 514.445,-37.4098 515.775,-36.216"/>
<polygon fill="midnightblue" stroke="midnightblue" points="518.09,-38.8563 524.022,-30.078 513.91,-33.2409 518.09,-38.8563"/>
</g>
<!-- Node15&#45;&gt;Node14 -->
<g id="edge17" class="edge"><title>Node15&#45;&gt;Node14</title>
<path fill="none" stroke="midnightblue" d="M254.926,-111.141C285.07,-121.078 324.041,-133.926 352.547,-143.323"/>
<polygon fill="midnightblue" stroke="midnightblue" points="351.568,-146.686 362.162,-146.493 353.76,-140.038 351.568,-146.686"/>
</g>
<!-- Node16 -->
<g id="node16" class="node"><title>Node16</title>
<g id="a_node16"><a xlink:href="../../d3/d65/classclient_1_1cls_server_conn.html#abad7931f40972d90b51e696b878b58c4" target="_top" xlink:title="Emitted when the server has sent us all the users.">
<polygon fill="white" stroke="black" points="335,-81 335,-111 449,-111 449,-81 335,-81"/>
<text text-anchor="start" x="343" y="-99" font-family="Helvetica,sans-Serif" font-size="10.00">client::clsServerConn</text>
<text text-anchor="middle" x="392" y="-88" font-family="Helvetica,sans-Serif" font-size="10.00">::userQueryCompleted</text>
</a>
</g>
</g>
<!-- Node15&#45;&gt;Node16 -->
<g id="edge18" class="edge"><title>Node15&#45;&gt;Node16</title>
<path fill="none" stroke="midnightblue" d="M270.11,-96C287.716,-96 307.001,-96 324.895,-96"/>
<polygon fill="midnightblue" stroke="midnightblue" points="324.958,-99.5001 334.958,-96 324.958,-92.5001 324.958,-99.5001"/>
</g>
<!-- Node17&#45;&gt;Node14 -->
<g id="edge20" class="edge"><title>Node17&#45;&gt;Node14</title>
<path fill="none" stroke="midnightblue" d="M270.11,-148.693C282.947,-149.469 296.677,-150.299 310.11,-151.111"/>
<polygon fill="midnightblue" stroke="midnightblue" points="310.111,-154.617 320.304,-151.727 310.534,-147.63 310.111,-154.617"/>
</g>
<!-- Node18&#45;&gt;Node14 -->
<g id="edge22" class="edge"><title>Node18&#45;&gt;Node14</title>
<path fill="none" stroke="midnightblue" d="M241.058,-217.777C264.831,-206.55 295.237,-192.339 308,-187 322.989,-180.73 339.738,-174.356 354.244,-169.032"/>
<polygon fill="midnightblue" stroke="midnightblue" points="355.678,-172.235 363.879,-165.528 353.285,-165.657 355.678,-172.235"/>
</g>
<!-- Node18&#45;&gt;Node6 -->
<g id="edge23" class="edge"><title>Node18&#45;&gt;Node6</title>
<path fill="none" stroke="midnightblue" d="M263.606,-226.399C282.864,-224.071 304.726,-221.429 324.835,-218.998"/>
<polygon fill="midnightblue" stroke="midnightblue" points="325.349,-222.461 334.857,-217.787 324.509,-215.512 325.349,-222.461"/>
</g>
</g>
</svg>
