<?xml version="1.0" encoding="UTF-8" standalone="no"?>
<!DOCTYPE svg PUBLIC "-//W3C//DTD SVG 1.1//EN"
 "http://www.w3.org/Graphics/SVG/1.1/DTD/svg11.dtd">
<!-- Generated by graphviz version 2.30.1 (20130303.0817)
 -->
<!-- Title: client::clsServerConn::doConnect Pages: 1 -->
<svg width="354pt" height="38pt"
 viewBox="0.00 0.00 354.00 38.00" xmlns="http://www.w3.org/2000/svg" xmlns:xlink="http://www.w3.org/1999/xlink">
<g id="graph0" class="graph" transform="scale(1 1) rotate(0) translate(4 34)">
<title>client::clsServerConn::doConnect</title>
<polygon fill="white" stroke="white" points="-4,5 -4,-34 351,-34 351,5 -4,5"/>
<!-- Node1 -->
<g id="node1" class="node"><title>Node1</title>
<polygon fill="#bfbfbf" stroke="black" points="0,-0 0,-30 108,-30 108,-0 0,-0"/>
<text text-anchor="start" x="8" y="-18" font-family="Helvetica,sans-Serif" font-size="10.00">client::clsServerConn</text>
<text text-anchor="middle" x="54" y="-7" font-family="Helvetica,sans-Serif" font-size="10.00">::doConnect</text>
</g>
<!-- Node2 -->
<g id="node2" class="node"><title>Node2</title>
<g id="a_node2"><a xlink:href="../../d6/d75/namespace_k4_u.xhtml#aaddaee50fab2801df390147891b0c09d" target="_top" xlink:title="K4U::endl">
<polygon fill="white" stroke="black" points="144.5,-5.5 144.5,-24.5 203.5,-24.5 203.5,-5.5 144.5,-5.5"/>
<text text-anchor="middle" x="174" y="-12.5" font-family="Helvetica,sans-Serif" font-size="10.00">K4U::endl</text>
</a>
</g>
</g>
<!-- Node1&#45;&gt;Node2 -->
<g id="edge1" class="edge"><title>Node1&#45;&gt;Node2</title>
<path fill="none" stroke="midnightblue" d="M108.132,-15C116.906,-15 125.855,-15 134.193,-15"/>
<polygon fill="midnightblue" stroke="midnightblue" points="134.367,-18.5001 144.367,-15 134.367,-11.5001 134.367,-18.5001"/>
</g>
<!-- Node3 -->
<g id="node3" class="node"><title>Node3</title>
<g id="a_node3"><a xlink:href="../../da/d64/class_k4_u_1_1cls_log.xhtml#a81f179b2ccb3e2abeb9b47f5b83de935" target="_top" xlink:title="K4U::clsLog::doEndl">
<polygon fill="white" stroke="black" points="240,-5.5 240,-24.5 346,-24.5 346,-5.5 240,-5.5"/>
<text text-anchor="middle" x="293" y="-12.5" font-family="Helvetica,sans-Serif" font-size="10.00">K4U::clsLog::doEndl</text>
</a>
</g>
</g>
<!-- Node2&#45;&gt;Node3 -->
<g id="edge2" class="edge"><title>Node2&#45;&gt;Node3</title>
<path fill="none" stroke="midnightblue" d="M203.621,-9.10292C211.584,-8.60447 220.557,-8.32449 229.654,-8.26299"/>
<polygon fill="midnightblue" stroke="midnightblue" points="229.922,-11.7635 239.93,-8.28638 229.938,-4.76353 229.922,-11.7635"/>
</g>
<!-- Node3&#45;&gt;Node2 -->
<g id="edge3" class="edge"><title>Node3&#45;&gt;Node2</title>
<path fill="none" stroke="midnightblue" d="M239.93,-21.7136C231.157,-21.8132 222.189,-21.7083 213.828,-21.3987"/>
<polygon fill="midnightblue" stroke="midnightblue" points="213.781,-17.8922 203.621,-20.8971 213.438,-24.8838 213.781,-17.8922"/>
</g>
</g>
</svg>
