<?xml version="1.0" encoding="UTF-8" standalone="no"?>
<!DOCTYPE svg PUBLIC "-//W3C//DTD SVG 1.1//EN"
 "http://www.w3.org/Graphics/SVG/1.1/DTD/svg11.dtd">
<!-- Generated by graphviz version 2.30.1 (20130303.0817)
 -->
<!-- Title: client::clsServerConn::handleEventRequest Pages: 1 -->
<svg width="458pt" height="234pt"
 viewBox="0.00 0.00 458.00 234.00" xmlns="http://www.w3.org/2000/svg" xmlns:xlink="http://www.w3.org/1999/xlink">
<g id="graph0" class="graph" transform="scale(1 1) rotate(0) translate(4 230)">
<title>client::clsServerConn::handleEventRequest</title>
<polygon fill="white" stroke="white" points="-4,5 -4,-230 455,-230 455,5 -4,5"/>
<!-- Node1 -->
<g id="node1" class="node"><title>Node1</title>
<polygon fill="#bfbfbf" stroke="black" points="0.5,-120 0.5,-150 111.5,-150 111.5,-120 0.5,-120"/>
<text text-anchor="start" x="8.5" y="-138" font-family="Helvetica,sans-Serif" font-size="10.00">client::clsServerConn</text>
<text text-anchor="middle" x="56" y="-127" font-family="Helvetica,sans-Serif" font-size="10.00">::handleEventRequest</text>
</g>
<!-- Node2 -->
<g id="node2" class="node"><title>Node2</title>
<g id="a_node2"><a xlink:href="../../d2/dc1/class_k4_u_1_1json_command.xhtml#ae829f45e11a50fa00024a5d9951cd748" target="_top" xlink:title="Gets an item from the internal data map.">
<polygon fill="white" stroke="black" points="148.5,-147.5 148.5,-166.5 291.5,-166.5 291.5,-147.5 148.5,-147.5"/>
<text text-anchor="middle" x="220" y="-154.5" font-family="Helvetica,sans-Serif" font-size="10.00">K4U::jsonCommand::getData</text>
</a>
</g>
</g>
<!-- Node1&#45;&gt;Node2 -->
<g id="edge1" class="edge"><title>Node1&#45;&gt;Node2</title>
<path fill="none" stroke="midnightblue" d="M111.846,-142.448C120.609,-143.638 129.83,-144.89 139.033,-146.14"/>
<polygon fill="midnightblue" stroke="midnightblue" points="138.61,-149.615 148.99,-147.492 139.552,-142.678 138.61,-149.615"/>
</g>
<!-- Node3 -->
<g id="node3" class="node"><title>Node3</title>
<g id="a_node3"><a xlink:href="../../d3/d65/classclient_1_1cls_server_conn.xhtml#ad5d3a03440fdec33270247486fb5500c" target="_top" xlink:title="Event has been received by the client. Parse it.">
<polygon fill="white" stroke="black" points="163,-98 163,-128 277,-128 277,-98 163,-98"/>
<text text-anchor="start" x="171" y="-116" font-family="Helvetica,sans-Serif" font-size="10.00">client::clsServerConn</text>
<text text-anchor="middle" x="220" y="-105" font-family="Helvetica,sans-Serif" font-size="10.00">::handleEventReceived</text>
</a>
</g>
</g>
<!-- Node1&#45;&gt;Node3 -->
<g id="edge2" class="edge"><title>Node1&#45;&gt;Node3</title>
<path fill="none" stroke="midnightblue" d="M111.846,-127.552C124.939,-125.774 139.054,-123.857 152.604,-122.017"/>
<polygon fill="midnightblue" stroke="midnightblue" points="153.392,-125.442 162.83,-120.628 152.45,-118.506 153.392,-125.442"/>
</g>
<!-- Node4 -->
<g id="node4" class="node"><title>Node4</title>
<g id="a_node4"><a xlink:href="../../db/d8b/classshared_1_1events_1_1cls_event.xhtml#a33943d736db49d2a7781325357f34063" target="_top" xlink:title="Gets this events type.">
<polygon fill="white" stroke="black" points="328,-196 328,-226 450,-226 450,-196 328,-196"/>
<text text-anchor="start" x="336" y="-214" font-family="Helvetica,sans-Serif" font-size="10.00">shared::events::clsEvent</text>
<text text-anchor="middle" x="389" y="-203" font-family="Helvetica,sans-Serif" font-size="10.00">::getType</text>
</a>
</g>
</g>
<!-- Node3&#45;&gt;Node4 -->
<g id="edge3" class="edge"><title>Node3&#45;&gt;Node4</title>
<path fill="none" stroke="midnightblue" d="M274.698,-128.004C280.813,-130.826 286.732,-134.135 292,-138 313.501,-153.773 306.951,-169.628 328,-186 330.255,-187.754 332.65,-189.405 335.136,-190.957"/>
<polygon fill="midnightblue" stroke="midnightblue" points="333.434,-194.015 343.867,-195.856 336.859,-187.91 333.434,-194.015"/>
</g>
<!-- Node5 -->
<g id="node5" class="node"><title>Node5</title>
<g id="a_node5"><a xlink:href="../../d3/d65/classclient_1_1cls_server_conn.xhtml#ada02a27f01478db29d10bde4c51110b4" target="_top" xlink:title="Emitted when a chat event has been received.">
<polygon fill="white" stroke="black" points="335,-147 335,-177 443,-177 443,-147 335,-147"/>
<text text-anchor="start" x="343" y="-165" font-family="Helvetica,sans-Serif" font-size="10.00">client::clsServerConn</text>
<text text-anchor="middle" x="389" y="-154" font-family="Helvetica,sans-Serif" font-size="10.00">::chatReceived</text>
</a>
</g>
</g>
<!-- Node3&#45;&gt;Node5 -->
<g id="edge4" class="edge"><title>Node3&#45;&gt;Node5</title>
<path fill="none" stroke="midnightblue" d="M272.468,-128.101C289.692,-133.155 309.059,-138.838 326.942,-144.085"/>
<polygon fill="midnightblue" stroke="midnightblue" points="326.121,-147.491 336.702,-146.948 328.092,-140.774 326.121,-147.491"/>
</g>
<!-- Node6 -->
<g id="node6" class="node"><title>Node6</title>
<g id="a_node6"><a xlink:href="../../d3/d65/classclient_1_1cls_server_conn.xhtml#a9f3b4fe1b687bdb31ab584493b8dde91" target="_top" xlink:title="Triggered when a user enters the channel.">
<polygon fill="white" stroke="black" points="335,-98 335,-128 443,-128 443,-98 335,-98"/>
<text text-anchor="start" x="343" y="-116" font-family="Helvetica,sans-Serif" font-size="10.00">client::clsServerConn</text>
<text text-anchor="middle" x="389" y="-105" font-family="Helvetica,sans-Serif" font-size="10.00">::userEnter</text>
</a>
</g>
</g>
<!-- Node3&#45;&gt;Node6 -->
<g id="edge5" class="edge"><title>Node3&#45;&gt;Node6</title>
<path fill="none" stroke="midnightblue" d="M277.073,-113C292.386,-113 309.083,-113 324.765,-113"/>
<polygon fill="midnightblue" stroke="midnightblue" points="324.899,-116.5 334.899,-113 324.899,-109.5 324.899,-116.5"/>
</g>
<!-- Node7 -->
<g id="node7" class="node"><title>Node7</title>
<g id="a_node7"><a xlink:href="../../d3/d65/classclient_1_1cls_server_conn.xhtml#a89ac2b4edd0a40b0fbfb5504904752c9" target="_top" xlink:title="Triggered when a user left the channel.">
<polygon fill="white" stroke="black" points="335,-49 335,-79 443,-79 443,-49 335,-49"/>
<text text-anchor="start" x="343" y="-67" font-family="Helvetica,sans-Serif" font-size="10.00">client::clsServerConn</text>
<text text-anchor="middle" x="389" y="-56" font-family="Helvetica,sans-Serif" font-size="10.00">::userLeave</text>
</a>
</g>
</g>
<!-- Node3&#45;&gt;Node7 -->
<g id="edge6" class="edge"><title>Node3&#45;&gt;Node7</title>
<path fill="none" stroke="midnightblue" d="M272.468,-97.8986C289.692,-92.8449 309.059,-87.1624 326.942,-81.9152"/>
<polygon fill="midnightblue" stroke="midnightblue" points="328.092,-85.2255 336.702,-79.0516 326.121,-78.5087 328.092,-85.2255"/>
</g>
<!-- Node8 -->
<g id="node8" class="node"><title>Node8</title>
<g id="a_node8"><a xlink:href="../../d3/d65/classclient_1_1cls_server_conn.xhtml#aa7679dfddcf23ffa4ce4febbc005995a" target="_top" xlink:title="Emitted when a user has changed his status (nick|status)">
<polygon fill="white" stroke="black" points="335,-0 335,-30 443,-30 443,-0 335,-0"/>
<text text-anchor="start" x="343" y="-18" font-family="Helvetica,sans-Serif" font-size="10.00">client::clsServerConn</text>
<text text-anchor="middle" x="389" y="-7" font-family="Helvetica,sans-Serif" font-size="10.00">::userStatusChange</text>
</a>
</g>
</g>
<!-- Node3&#45;&gt;Node8 -->
<g id="edge7" class="edge"><title>Node3&#45;&gt;Node8</title>
<path fill="none" stroke="midnightblue" d="M240.731,-97.7234C261.632,-81.9829 295.973,-57.3616 328,-40 331.683,-38.0034 335.56,-36.0602 339.496,-34.1968"/>
<polygon fill="midnightblue" stroke="midnightblue" points="341.069,-37.3267 348.728,-30.0062 338.176,-30.9527 341.069,-37.3267"/>
</g>
</g>
</svg>
