<?xml version="1.0" encoding="UTF-8" standalone="no"?>
<!DOCTYPE svg PUBLIC "-//W3C//DTD SVG 1.1//EN"
 "http://www.w3.org/Graphics/SVG/1.1/DTD/svg11.dtd">
<!-- Generated by graphviz version 2.30.1 (20130303.0817)
 -->
<!-- Title: server::uiClient::disconnected Pages: 1 -->
<svg width="462pt" height="55pt"
 viewBox="0.00 0.00 462.00 55.00" xmlns="http://www.w3.org/2000/svg" xmlns:xlink="http://www.w3.org/1999/xlink">
<g id="graph0" class="graph" transform="scale(1 1) rotate(0) translate(4 51)">
<title>server::uiClient::disconnected</title>
<polygon fill="white" stroke="white" points="-4,5 -4,-51 459,-51 459,5 -4,5"/>
<!-- Node1 -->
<g id="node1" class="node"><title>Node1</title>
<polygon fill="#bfbfbf" stroke="black" points="0,-27.5 0,-46.5 144,-46.5 144,-27.5 0,-27.5"/>
<text text-anchor="middle" x="72" y="-34.5" font-family="Helvetica,sans-Serif" font-size="10.00">server::uiClient::disconnected</text>
</g>
<!-- Node2 -->
<g id="node2" class="node"><title>Node2</title>
<g id="a_node2"><a xlink:href="../../dc/d4d/classserver_1_1ui_client.html#a215d811cbfada73ff8344ed7e5664113" target="_top" xlink:title="uiClient constructor">
<polygon fill="white" stroke="black" points="334.5,-27.5 334.5,-46.5 453.5,-46.5 453.5,-27.5 334.5,-27.5"/>
<text text-anchor="middle" x="394" y="-34.5" font-family="Helvetica,sans-Serif" font-size="10.00">server::uiClient::uiClient</text>
</a>
</g>
</g>
<!-- Node1&#45;&gt;Node2 -->
<g id="edge1" class="edge"><title>Node1&#45;&gt;Node2</title>
<path fill="none" stroke="midnightblue" d="M154.25,-38.6778C162.942,-38.8098 171.654,-38.922 180,-39 232.442,-39.4901 245.558,-39.552 298,-39 309.794,-38.8759 322.411,-38.6651 334.471,-38.4257"/>
<polygon fill="midnightblue" stroke="midnightblue" points="154.134,-35.1756 144.079,-38.5146 154.021,-42.1747 154.134,-35.1756"/>
</g>
<!-- Node3 -->
<g id="node3" class="node"><title>Node3</title>
<g id="a_node3"><a xlink:href="../../dc/d4d/classserver_1_1ui_client.html#aa66a0dc28bb1d07f22467b127ff90cc6" target="_top" xlink:title="server::uiClient::remove\lConnection">
<polygon fill="white" stroke="black" points="180.5,-0 180.5,-30 297.5,-30 297.5,-0 180.5,-0"/>
<text text-anchor="start" x="188.5" y="-18" font-family="Helvetica,sans-Serif" font-size="10.00">server::uiClient::remove</text>
<text text-anchor="middle" x="239" y="-7" font-family="Helvetica,sans-Serif" font-size="10.00">Connection</text>
</a>
</g>
</g>
<!-- Node1&#45;&gt;Node3 -->
<g id="edge2" class="edge"><title>Node1&#45;&gt;Node3</title>
<path fill="none" stroke="midnightblue" d="M154.606,-26.1193C163.314,-24.9581 172.036,-23.7952 180.383,-22.6822"/>
<polygon fill="midnightblue" stroke="midnightblue" points="153.861,-22.6874 144.412,-27.4784 154.787,-29.626 153.861,-22.6874"/>
</g>
<!-- Node3&#45;&gt;Node2 -->
<g id="edge3" class="edge"><title>Node3&#45;&gt;Node2</title>
<path fill="none" stroke="midnightblue" d="M307.749,-24.7418C316.606,-26.0153 325.622,-27.3117 334.313,-28.5613"/>
<polygon fill="midnightblue" stroke="midnightblue" points="308.239,-21.2762 297.843,-23.3173 307.243,-28.205 308.239,-21.2762"/>
</g>
</g>
</svg>
