<?xml version="1.0" encoding="UTF-8" standalone="no"?>
<!DOCTYPE svg PUBLIC "-//W3C//DTD SVG 1.1//EN"
 "http://www.w3.org/Graphics/SVG/1.1/DTD/svg11.dtd">
<!-- Generated by graphviz version 2.30.1 (20130303.0817)
 -->
<!-- Title: server::uiClient::uiClient Pages: 1 -->
<!--zoomable 432 -->
<svg id="main" version="1.1" xmlns="http://www.w3.org/2000/svg" xmlns:xlink="http://www.w3.org/1999/xlink" xml:space="preserve" onload="init(evt)">
        <defs>
                <circle id="rim" cx="0" cy="0" r="7"/>
                <circle id="rim2" cx="0" cy="0" r="3.5"/>
                <g id="zoomPlus">
                        <use xlink:href="#rim" fill="#404040">
                                <set attributeName="fill" to="#808080" begin="zoomplus.mouseover" end="zoomplus.mouseout"/>
                        </use>
                        <path d="M-4,0h8M0,-4v8" fill="none" stroke="white" stroke-width="1.5" pointer-events="none"/>
                </g>
                <g id="zoomMin">
                        <use xlink:href="#rim" fill="#404040">
                                <set attributeName="fill" to="#808080" begin="zoomminus.mouseover" end="zoomminus.mouseout"/>
                        </use>
                        <path d="M-4,0h8" fill="none" stroke="white" stroke-width="1.5" pointer-events="none"/>
                </g>
                <g id="dirArrow">
                        <path fill="none" stroke="white" stroke-width="1.5" d="M0,-3.0v7 M-2.5,-0.5L0,-3.0L2.5,-0.5"/>
                </g>
               <g id="resetDef">
                       <use xlink:href="#rim2" fill="#404040">
                               <set attributeName="fill" to="#808080" begin="reset.mouseover" end="reset.mouseout"/>
                       </use>
               </g>
        </defs>

<script type="text/javascript">
var viewWidth = 808;
var viewHeight = 432;
var sectionId = 'dynsection-2';
</script>
<script xlink:href="../../svgpan.js"/>
<svg id="graph" class="graph">
<g id="viewport">
<title>server::uiClient::uiClient</title>
<polygon fill="white" stroke="white" points="-4,5 -4,-428 805,-428 805,5 -4,5"/>
<!-- Node1 -->
<g id="node1" class="node"><title>Node1</title>
<polygon fill="#bfbfbf" stroke="black" points="0.5,-328.5 0.5,-347.5 119.5,-347.5 119.5,-328.5 0.5,-328.5"/>
<text text-anchor="middle" x="60" y="-335.5" font-family="Helvetica,sans-Serif" font-size="10.00">server::uiClient::uiClient</text>
</g>
<!-- Node2 -->
<g id="node2" class="node"><title>Node2</title>
<g id="a_node2"><a xlink:href="../../da/d64/class_k4_u_1_1cls_log.xhtml#acce6f46545b0de7dcc21b69dda54b246" target="_top" xlink:title="Sets a custom prefix, used for when more than one object uses the same log tag.">
<polygon fill="white" stroke="black" points="158,-404.5 158,-423.5 272,-423.5 272,-404.5 158,-404.5"/>
<text text-anchor="middle" x="215" y="-411.5" font-family="Helvetica,sans-Serif" font-size="10.00">K4U::clsLog::setPrefix</text>
</a>
</g>
</g>
<!-- Node1&#45;&gt;Node2 -->
<g id="edge1" class="edge"><title>Node1&#45;&gt;Node2</title>
<path fill="none" stroke="midnightblue" d="M77.194,-347.568C95.8811,-358.442 127.68,-376.439 156,-390 163.617,-393.647 171.936,-397.285 179.836,-400.586"/>
<polygon fill="midnightblue" stroke="midnightblue" points="178.608,-403.865 189.188,-404.422 181.264,-397.389 178.608,-403.865"/>
</g>
<!-- Node5 -->
<g id="node5" class="node"><title>Node5</title>
<g id="a_node5"><a xlink:href="../../d6/d75/namespace_k4_u.xhtml#aaddaee50fab2801df390147891b0c09d" target="_top" xlink:title="K4U::endl">
<polygon fill="white" stroke="black" points="544.5,-290.5 544.5,-309.5 603.5,-309.5 603.5,-290.5 544.5,-290.5"/>
<text text-anchor="middle" x="574" y="-297.5" font-family="Helvetica,sans-Serif" font-size="10.00">K4U::endl</text>
</a>
</g>
</g>
<!-- Node1&#45;&gt;Node5 -->
<g id="edge4" class="edge"><title>Node1&#45;&gt;Node5</title>
<path fill="none" stroke="midnightblue" d="M103.82,-347.505C176.746,-362.052 329.269,-385.331 454,-357 489.34,-348.973 526.447,-329.099 549.641,-315.085"/>
<polygon fill="midnightblue" stroke="midnightblue" points="551.73,-317.909 558.395,-309.673 548.048,-311.955 551.73,-317.909"/>
</g>
<!-- Node7 -->
<g id="node7" class="node"><title>Node7</title>
<g id="a_node7"><a xlink:href="../../dc/d4d/classserver_1_1ui_client.xhtml#a3d11b3850540e70abe814f3a3831a5f5" target="_top" xlink:title="Emitted when the user client disconnects.">
<polygon fill="white" stroke="black" points="310,-328.5 310,-347.5 454,-347.5 454,-328.5 310,-328.5"/>
<text text-anchor="middle" x="382" y="-335.5" font-family="Helvetica,sans-Serif" font-size="10.00">server::uiClient::disconnected</text>
</a>
</g>
</g>
<!-- Node1&#45;&gt;Node7 -->
<g id="edge7" class="edge"><title>Node1&#45;&gt;Node7</title>
<path fill="none" stroke="midnightblue" d="M119.693,-338C170.141,-338 243.416,-338 299.543,-338"/>
<polygon fill="midnightblue" stroke="midnightblue" points="299.814,-341.5 309.814,-338 299.814,-334.5 299.814,-341.5"/>
</g>
<!-- Node8 -->
<g id="node8" class="node"><title>Node8</title>
<g id="a_node8"><a xlink:href="../../dc/d4d/classserver_1_1ui_client.xhtml#aa66a0dc28bb1d07f22467b127ff90cc6" target="_top" xlink:title="server::uiClient::remove\lConnection">
<polygon fill="white" stroke="black" points="156.5,-279 156.5,-309 273.5,-309 273.5,-279 156.5,-279"/>
<text text-anchor="start" x="164.5" y="-297" font-family="Helvetica,sans-Serif" font-size="10.00">server::uiClient::remove</text>
<text text-anchor="middle" x="215" y="-286" font-family="Helvetica,sans-Serif" font-size="10.00">Connection</text>
</a>
</g>
</g>
<!-- Node1&#45;&gt;Node8 -->
<g id="edge8" class="edge"><title>Node1&#45;&gt;Node8</title>
<path fill="none" stroke="midnightblue" d="M94.1987,-328.453C111.04,-323.609 132.057,-317.565 151.764,-311.898"/>
<polygon fill="midnightblue" stroke="midnightblue" points="152.97,-315.193 161.614,-309.065 151.036,-308.466 152.97,-315.193"/>
</g>
<!-- Node9 -->
<g id="node9" class="node"><title>Node9</title>
<g id="a_node9"><a xlink:href="../../dc/d4d/classserver_1_1ui_client.xhtml#afdda23f96c586fdcb47f1abad7be99f5" target="_top" xlink:title="server::uiClient::receive\lMessage">
<polygon fill="white" stroke="black" points="157,-140 157,-170 273,-170 273,-140 157,-140"/>
<text text-anchor="start" x="165" y="-158" font-family="Helvetica,sans-Serif" font-size="10.00">server::uiClient::receive</text>
<text text-anchor="middle" x="215" y="-147" font-family="Helvetica,sans-Serif" font-size="10.00">Message</text>
</a>
</g>
</g>
<!-- Node1&#45;&gt;Node9 -->
<g id="edge11" class="edge"><title>Node1&#45;&gt;Node9</title>
<path fill="none" stroke="midnightblue" d="M69.0105,-328.419C92.4224,-300.416 161.201,-218.151 194.921,-177.82"/>
<polygon fill="midnightblue" stroke="midnightblue" points="197.636,-180.029 201.365,-170.112 192.266,-175.539 197.636,-180.029"/>
</g>
<!-- Node3 -->
<g id="node3" class="node"><title>Node3</title>
<g id="a_node3"><a xlink:href="../../da/d64/class_k4_u_1_1cls_log.xhtml#add7e9e8581a8d558c15c5f194dea4e5a" target="_top" xlink:title="K4U::clsLog::prefix">
<polygon fill="white" stroke="black" points="332.5,-404.5 332.5,-423.5 431.5,-423.5 431.5,-404.5 332.5,-404.5"/>
<text text-anchor="middle" x="382" y="-411.5" font-family="Helvetica,sans-Serif" font-size="10.00">K4U::clsLog::prefix</text>
</a>
</g>
</g>
<!-- Node2&#45;&gt;Node3 -->
<g id="edge2" class="edge"><title>Node2&#45;&gt;Node3</title>
<path fill="none" stroke="midnightblue" d="M272.322,-414C288.328,-414 305.8,-414 321.962,-414"/>
<polygon fill="midnightblue" stroke="midnightblue" points="322.365,-417.5 332.365,-414 322.365,-410.5 322.365,-417.5"/>
</g>
<!-- Node4 -->
<g id="node4" class="node"><title>Node4</title>
<g id="a_node4"><a xlink:href="../../da/d64/class_k4_u_1_1cls_log.xhtml#ad71c460835263e52b7c3d24063fa4ea0" target="_top" xlink:title="K4U::clsLog::getTag">
<polygon fill="white" stroke="black" points="522,-404.5 522,-423.5 626,-423.5 626,-404.5 522,-404.5"/>
<text text-anchor="middle" x="574" y="-411.5" font-family="Helvetica,sans-Serif" font-size="10.00">K4U::clsLog::getTag</text>
</a>
</g>
</g>
<!-- Node3&#45;&gt;Node4 -->
<g id="edge3" class="edge"><title>Node3&#45;&gt;Node4</title>
<path fill="none" stroke="midnightblue" d="M431.93,-414C456.294,-414 485.992,-414 511.843,-414"/>
<polygon fill="midnightblue" stroke="midnightblue" points="511.914,-417.5 521.914,-414 511.914,-410.5 511.914,-417.5"/>
</g>
<!-- Node6 -->
<g id="node6" class="node"><title>Node6</title>
<g id="a_node6"><a xlink:href="../../da/d64/class_k4_u_1_1cls_log.xhtml#a81f179b2ccb3e2abeb9b47f5b83de935" target="_top" xlink:title="K4U::clsLog::doEndl">
<polygon fill="white" stroke="black" points="694,-290.5 694,-309.5 800,-309.5 800,-290.5 694,-290.5"/>
<text text-anchor="middle" x="747" y="-297.5" font-family="Helvetica,sans-Serif" font-size="10.00">K4U::clsLog::doEndl</text>
</a>
</g>
</g>
<!-- Node5&#45;&gt;Node6 -->
<g id="edge5" class="edge"><title>Node5&#45;&gt;Node6</title>
<path fill="none" stroke="midnightblue" d="M603.622,-294.808C625.373,-293.378 656.112,-292.932 683.465,-293.471"/>
<polygon fill="midnightblue" stroke="midnightblue" points="683.673,-296.977 693.756,-293.726 683.846,-289.98 683.673,-296.977"/>
</g>
<!-- Node6&#45;&gt;Node5 -->
<g id="edge6" class="edge"><title>Node6&#45;&gt;Node5</title>
<path fill="none" stroke="midnightblue" d="M693.756,-306.274C667.934,-307.051 637.318,-306.877 613.64,-305.753"/>
<polygon fill="midnightblue" stroke="midnightblue" points="613.802,-302.257 603.622,-305.192 613.41,-309.246 613.802,-302.257"/>
</g>
<!-- Node8&#45;&gt;Node5 -->
<g id="edge9" class="edge"><title>Node8&#45;&gt;Node5</title>
<path fill="none" stroke="midnightblue" d="M273.755,-294.971C346.882,-296.2 470.908,-298.284 533.85,-299.342"/>
<polygon fill="midnightblue" stroke="midnightblue" points="534.082,-302.846 544.139,-299.515 534.2,-295.847 534.082,-302.846"/>
</g>
<!-- Node8&#45;&gt;Node7 -->
<g id="edge10" class="edge"><title>Node8&#45;&gt;Node7</title>
<path fill="none" stroke="midnightblue" d="M272.322,-309.019C292.833,-314.489 315.753,-320.601 335.237,-325.796"/>
<polygon fill="midnightblue" stroke="midnightblue" points="334.517,-329.227 345.081,-328.422 336.321,-322.463 334.517,-329.227"/>
</g>
<!-- Node10 -->
<g id="node10" class="node"><title>Node10</title>
<g id="a_node10"><a xlink:href="../../dc/d4d/classserver_1_1ui_client.xhtml#a8237b1a02c7877a7c853b6ef23995b9b" target="_top" xlink:title="Adds data to buffer and checks for json commands.">
<polygon fill="white" stroke="black" points="318.5,-241 318.5,-271 445.5,-271 445.5,-241 318.5,-241"/>
<text text-anchor="start" x="326.5" y="-259" font-family="Helvetica,sans-Serif" font-size="10.00">server::uiClient::checkFor</text>
<text text-anchor="middle" x="382" y="-248" font-family="Helvetica,sans-Serif" font-size="10.00">JsonCommand</text>
</a>
</g>
</g>
<!-- Node9&#45;&gt;Node10 -->
<g id="edge12" class="edge"><title>Node9&#45;&gt;Node10</title>
<path fill="none" stroke="midnightblue" d="M233.444,-170.277C251.654,-185.704 281.48,-209.544 310,-226 316.534,-229.77 323.634,-233.335 330.732,-236.601"/>
<polygon fill="midnightblue" stroke="midnightblue" points="329.798,-240.015 340.359,-240.863 332.632,-233.614 329.798,-240.015"/>
</g>
<!-- Node11 -->
<g id="node11" class="node"><title>Node11</title>
<g id="a_node11"><a xlink:href="../../d2/dc1/class_k4_u_1_1json_command.xhtml#a2db6f8da6bc5a4c677201f044b69bb10" target="_top" xlink:title="getCommand">
<polygon fill="white" stroke="black" points="490.5,-224.5 490.5,-243.5 657.5,-243.5 657.5,-224.5 490.5,-224.5"/>
<text text-anchor="middle" x="574" y="-231.5" font-family="Helvetica,sans-Serif" font-size="10.00">K4U::jsonCommand::getCommand</text>
</a>
</g>
</g>
<!-- Node9&#45;&gt;Node11 -->
<g id="edge15" class="edge"><title>Node9&#45;&gt;Node11</title>
<path fill="none" stroke="midnightblue" d="M247.991,-170.067C265.882,-177.946 288.791,-187.144 310,-193 365.541,-208.336 429.369,-218.459 480.236,-224.81"/>
<polygon fill="midnightblue" stroke="midnightblue" points="479.88,-228.292 490.231,-226.03 480.728,-221.344 479.88,-228.292"/>
</g>
<!-- Node12 -->
<g id="node12" class="node"><title>Node12</title>
<g id="a_node12"><a xlink:href="../../dc/d4d/classserver_1_1ui_client.xhtml#a970bb30d534e08d2537e2ef495ad7427" target="_top" xlink:title="Emitted when the client sends a chat.">
<polygon fill="white" stroke="black" points="310,-164.5 310,-183.5 454,-183.5 454,-164.5 310,-164.5"/>
<text text-anchor="middle" x="382" y="-171.5" font-family="Helvetica,sans-Serif" font-size="10.00">server::uiClient::chatReceived</text>
</a>
</g>
</g>
<!-- Node9&#45;&gt;Node12 -->
<g id="edge16" class="edge"><title>Node9&#45;&gt;Node12</title>
<path fill="none" stroke="midnightblue" d="M273.246,-161.592C281.835,-162.581 290.827,-163.616 299.8,-164.65"/>
<polygon fill="midnightblue" stroke="midnightblue" points="299.563,-168.145 309.898,-165.813 300.364,-161.191 299.563,-168.145"/>
</g>
<!-- Node13 -->
<g id="node13" class="node"><title>Node13</title>
<g id="a_node13"><a xlink:href="../../d2/dc1/class_k4_u_1_1json_command.xhtml#ae829f45e11a50fa00024a5d9951cd748" target="_top" xlink:title="Gets an item from the internal data map.">
<polygon fill="white" stroke="black" points="310.5,-126.5 310.5,-145.5 453.5,-145.5 453.5,-126.5 310.5,-126.5"/>
<text text-anchor="middle" x="382" y="-133.5" font-family="Helvetica,sans-Serif" font-size="10.00">K4U::jsonCommand::getData</text>
</a>
</g>
</g>
<!-- Node9&#45;&gt;Node13 -->
<g id="edge17" class="edge"><title>Node9&#45;&gt;Node13</title>
<path fill="none" stroke="midnightblue" d="M273.246,-148.408C282.064,-147.393 291.307,-146.328 300.517,-145.268"/>
<polygon fill="midnightblue" stroke="midnightblue" points="300.942,-148.742 310.476,-144.121 300.142,-141.788 300.942,-148.742"/>
</g>
<!-- Node14 -->
<g id="node14" class="node"><title>Node14</title>
<g id="a_node14"><a xlink:href="../../dc/d4d/classserver_1_1ui_client.xhtml#a334fdbafee59c9007c38466550572d83" target="_top" xlink:title="Emitted when the client wants all the users.">
<polygon fill="white" stroke="black" points="316.5,-88.5 316.5,-107.5 447.5,-107.5 447.5,-88.5 316.5,-88.5"/>
<text text-anchor="middle" x="382" y="-95.5" font-family="Helvetica,sans-Serif" font-size="10.00">server::uiClient::userQuery</text>
</a>
</g>
</g>
<!-- Node9&#45;&gt;Node14 -->
<g id="edge18" class="edge"><title>Node9&#45;&gt;Node14</title>
<path fill="none" stroke="midnightblue" d="M250.44,-139.895C268.062,-132.47 289.968,-123.701 310,-117 317.152,-114.608 324.786,-112.307 332.298,-110.184"/>
<polygon fill="midnightblue" stroke="midnightblue" points="333.338,-113.527 342.052,-107.501 331.482,-106.778 333.338,-113.527"/>
</g>
<!-- Node15 -->
<g id="node15" class="node"><title>Node15</title>
<g id="a_node15"><a xlink:href="../../dc/d4d/classserver_1_1ui_client.xhtml#af31e3f327761e528ddabb232d1224620" target="_top" xlink:title="Emitted when the clients wants to change our own user.">
<polygon fill="white" stroke="black" points="323,-39 323,-69 441,-69 441,-39 323,-39"/>
<text text-anchor="start" x="331" y="-57" font-family="Helvetica,sans-Serif" font-size="10.00">server::uiClient::change</text>
<text text-anchor="middle" x="382" y="-46" font-family="Helvetica,sans-Serif" font-size="10.00">OwnUser</text>
</a>
</g>
</g>
<!-- Node9&#45;&gt;Node15 -->
<g id="edge19" class="edge"><title>Node9&#45;&gt;Node15</title>
<path fill="none" stroke="midnightblue" d="M231.407,-139.722C249.089,-122.897 279.583,-95.9833 310,-79 313.723,-76.9215 317.649,-74.9668 321.668,-73.138"/>
<polygon fill="midnightblue" stroke="midnightblue" points="323.327,-76.2359 331.159,-69.1004 320.586,-69.7946 323.327,-76.2359"/>
</g>
<!-- Node16 -->
<g id="node16" class="node"><title>Node16</title>
<g id="a_node16"><a xlink:href="../../dc/d4d/classserver_1_1ui_client.xhtml#a06de500dff0e31a8367b1988e2a0b414" target="_top" xlink:title="Emitted when the client wants all the events.">
<polygon fill="white" stroke="black" points="317.5,-0.5 317.5,-19.5 446.5,-19.5 446.5,-0.5 317.5,-0.5"/>
<text text-anchor="middle" x="382" y="-7.5" font-family="Helvetica,sans-Serif" font-size="10.00">server::uiClient::getEvents</text>
</a>
</g>
</g>
<!-- Node9&#45;&gt;Node16 -->
<g id="edge20" class="edge"><title>Node9&#45;&gt;Node16</title>
<path fill="none" stroke="midnightblue" d="M223.244,-139.752C236.599,-113.306 267.653,-58.9893 310,-30 313.566,-27.5585 317.427,-25.4132 321.441,-23.5283"/>
<polygon fill="midnightblue" stroke="midnightblue" points="323.106,-26.628 331.022,-19.5863 320.442,-20.1545 323.106,-26.628"/>
</g>
<!-- Node10&#45;&gt;Node11 -->
<g id="edge13" class="edge"><title>Node10&#45;&gt;Node11</title>
<path fill="none" stroke="midnightblue" d="M445.74,-248.735C456.859,-247.448 468.647,-246.083 480.386,-244.724"/>
<polygon fill="midnightblue" stroke="midnightblue" points="481.141,-248.16 490.672,-243.533 480.336,-241.206 481.141,-248.16"/>
</g>
<!-- Node10&#45;&gt;Node5 -->
<g id="edge14" class="edge"><title>Node10&#45;&gt;Node5</title>
<path fill="none" stroke="midnightblue" d="M445.74,-270.529C475,-277.305 508.894,-285.154 534.343,-291.048"/>
<polygon fill="midnightblue" stroke="midnightblue" points="533.814,-294.518 544.346,-293.364 535.394,-287.698 533.814,-294.518"/>
</g>
</g>
</svg>
        <g id="navigator" transform="translate(0 0)" fill="#404254">
                <rect fill="#f2f5e9" fill-opacity="0.5" stroke="#606060" stroke-width=".5" x="0" y="0" width="60" height="60"/>
                <use id="zoomplus" xlink:href="#zoomPlus" x="17" y="9" onmousedown="handleZoom(evt,'in')"/>
                <use id="zoomminus" xlink:href="#zoomMin" x="42" y="9" onmousedown="handleZoom(evt,'out')"/>
                <use id="reset" xlink:href="#resetDef" x="30" y="36" onmousedown="handleReset()"/>
                <g id="arrowUp" xlink:href="#dirArrow" transform="translate(30 24)" onmousedown="handlePan(0,-1)">
                  <use xlink:href="#rim" fill="#404040">
                        <set attributeName="fill" to="#808080" begin="arrowUp.mouseover" end="arrowUp.mouseout"/>
                  </use>
                  <path fill="none" stroke="white" stroke-width="1.5" d="M0,-3.0v7 M-2.5,-0.5L0,-3.0L2.5,-0.5"/>
                </g>
                <g id="arrowRight" xlink:href="#dirArrow" transform="rotate(90) translate(36 -43)" onmousedown="handlePan(1,0)">
                  <use xlink:href="#rim" fill="#404040">
                        <set attributeName="fill" to="#808080" begin="arrowRight.mouseover" end="arrowRight.mouseout"/>
                  </use>
                  <path fill="none" stroke="white" stroke-width="1.5" d="M0,-3.0v7 M-2.5,-0.5L0,-3.0L2.5,-0.5"/>
                </g>
                <g id="arrowDown" xlink:href="#dirArrow" transform="rotate(180) translate(-30 -48)" onmousedown="handlePan(0,1)">
                  <use xlink:href="#rim" fill="#404040">
                        <set attributeName="fill" to="#808080" begin="arrowDown.mouseover" end="arrowDown.mouseout"/>
                  </use>
                  <path fill="none" stroke="white" stroke-width="1.5" d="M0,-3.0v7 M-2.5,-0.5L0,-3.0L2.5,-0.5"/>
                </g>
                <g id="arrowLeft" xlink:href="#dirArrow" transform="rotate(270) translate(-36 17)" onmousedown="handlePan(-1,0)">
                  <use xlink:href="#rim" fill="#404040">
                        <set attributeName="fill" to="#808080" begin="arrowLeft.mouseover" end="arrowLeft.mouseout"/>
                  </use>
                  <path fill="none" stroke="white" stroke-width="1.5" d="M0,-3.0v7 M-2.5,-0.5L0,-3.0L2.5,-0.5"/>
                </g>
        </g>
        <svg viewBox="0 0 15 15" width="100%" height="30px" preserveAspectRatio="xMaxYMin meet">
         <g id="arrow_out" transform="scale(0.3 0.3)">
          <a xlink:href="classserver_1_1ui_client_a215d811cbfada73ff8344ed7e5664113_cgraph_org.svg" target="_base">
           <rect id="button" ry="5" rx="5" y="6" x="6" height="38" width="38"
                fill="#f2f5e9" fill-opacity="0.5" stroke="#606060" stroke-width="1.0"/>
           <path id="arrow"
             d="M 11.500037,31.436501 C 11.940474,20.09759 22.043105,11.32322 32.158766,21.979434 L 37.068811,17.246167 C 37.068811,17.246167 37.088388,32 37.088388,32 L 22.160133,31.978069 C 22.160133,31.978069 26.997745,27.140456 26.997745,27.140456 C 18.528582,18.264221 13.291696,25.230495 11.500037,31.436501 z"
             style="fill:#404040;"/>
          </a>
         </g>
        </svg>
</svg>
