<?xml version="1.0" encoding="UTF-8" standalone="no"?>
<!DOCTYPE svg PUBLIC "-//W3C//DTD SVG 1.1//EN"
 "http://www.w3.org/Graphics/SVG/1.1/DTD/svg11.dtd">
<!-- Generated by graphviz version 2.30.1 (20130303.0817)
 -->
<!-- Title: server::uiClient::send Pages: 1 -->
<!--zoomable 503 -->
<svg id="main" version="1.1" xmlns="http://www.w3.org/2000/svg" xmlns:xlink="http://www.w3.org/1999/xlink" xml:space="preserve" onload="init(evt)">
        <defs>
                <circle id="rim" cx="0" cy="0" r="7"/>
                <circle id="rim2" cx="0" cy="0" r="3.5"/>
                <g id="zoomPlus">
                        <use xlink:href="#rim" fill="#404040">
                                <set attributeName="fill" to="#808080" begin="zoomplus.mouseover" end="zoomplus.mouseout"/>
                        </use>
                        <path d="M-4,0h8M0,-4v8" fill="none" stroke="white" stroke-width="1.5" pointer-events="none"/>
                </g>
                <g id="zoomMin">
                        <use xlink:href="#rim" fill="#404040">
                                <set attributeName="fill" to="#808080" begin="zoomminus.mouseover" end="zoomminus.mouseout"/>
                        </use>
                        <path d="M-4,0h8" fill="none" stroke="white" stroke-width="1.5" pointer-events="none"/>
                </g>
                <g id="dirArrow">
                        <path fill="none" stroke="white" stroke-width="1.5" d="M0,-3.0v7 M-2.5,-0.5L0,-3.0L2.5,-0.5"/>
                </g>
               <g id="resetDef">
                       <use xlink:href="#rim2" fill="#404040">
                               <set attributeName="fill" to="#808080" begin="reset.mouseover" end="reset.mouseout"/>
                       </use>
               </g>
        </defs>

<script type="text/javascript">
var viewWidth = 1068;
var viewHeight = 503;
var sectionId = 'dynsection-13';
</script>
<script xlink:href="../../svgpan.js"/>
<svg id="graph" class="graph">
<g id="viewport">
<title>server::uiClient::send</title>
<polygon fill="white" stroke="white" points="-4,5 -4,-498.572 1065,-498.572 1065,5 -4,5"/>
<!-- Node1 -->
<g id="node1" class="node"><title>Node1</title>
<polygon fill="#bfbfbf" stroke="black" points="0.5,-309.5 0.5,-328.5 107.5,-328.5 107.5,-309.5 0.5,-309.5"/>
<text text-anchor="middle" x="54" y="-316.5" font-family="Helvetica,sans-Serif" font-size="10.00">server::uiClient::send</text>
</g>
<!-- Node2 -->
<g id="node2" class="node"><title>Node2</title>
<g id="a_node2"><a xlink:href="../../df/dd2/classserver_1_1ui_server.html#ab9e9ed944311c42f019c645c3e0539cf" target="_top" xlink:title="Sends a jsonCommand to all the clients.">
<polygon fill="white" stroke="black" points="144,-309.5 144,-328.5 254,-328.5 254,-309.5 144,-309.5"/>
<text text-anchor="middle" x="199" y="-316.5" font-family="Helvetica,sans-Serif" font-size="10.00">server::uiServer::send</text>
</a>
</g>
</g>
<!-- Node1&#45;&gt;Node2 -->
<g id="edge1" class="edge"><title>Node1&#45;&gt;Node2</title>
<path fill="none" stroke="midnightblue" d="M117.918,-319C126.595,-319 135.443,-319 143.941,-319"/>
<polygon fill="midnightblue" stroke="midnightblue" points="117.842,-315.5 107.842,-319 117.842,-322.5 117.842,-315.5"/>
</g>
<!-- Node3 -->
<g id="node3" class="node"><title>Node3</title>
<g id="a_node3"><a xlink:href="../../d1/d48/classserver_1_1main_app.html#a0970ee01d48b04ebc1390ffb8edecfc0" target="_top" xlink:title="Triggered when a chat has been received.">
<polygon fill="white" stroke="black" points="489,-467.5 489,-486.5 639,-486.5 639,-467.5 489,-467.5"/>
<text text-anchor="middle" x="564" y="-474.5" font-family="Helvetica,sans-Serif" font-size="10.00">server::mainApp::chatReceived</text>
</a>
</g>
</g>
<!-- Node2&#45;&gt;Node3 -->
<g id="edge2" class="edge"><title>Node2&#45;&gt;Node3</title>
<path fill="none" stroke="midnightblue" d="M206.596,-338.038C218.189,-368.29 245.32,-426.61 290,-453 352.371,-489.84 437.115,-491.349 495.559,-486.522"/>
<polygon fill="midnightblue" stroke="midnightblue" points="209.867,-336.791 203.14,-328.606 203.294,-339.2 209.867,-336.791"/>
</g>
<!-- Node6 -->
<g id="node6" class="node"><title>Node6</title>
<g id="a_node6"><a xlink:href="../../d1/d48/classserver_1_1main_app.html#a92448c1219ad89999c983b04adaa4236" target="_top" xlink:title="Triggered when a user joins trough a JOIN message.">
<polygon fill="white" stroke="black" points="692.5,-429.5 692.5,-448.5 831.5,-448.5 831.5,-429.5 692.5,-429.5"/>
<text text-anchor="middle" x="762" y="-436.5" font-family="Helvetica,sans-Serif" font-size="10.00">server::mainApp::userOnline</text>
</a>
</g>
</g>
<!-- Node2&#45;&gt;Node6 -->
<g id="edge5" class="edge"><title>Node2&#45;&gt;Node6</title>
<path fill="none" stroke="midnightblue" d="M212.627,-336.655C228.234,-356.903 256.83,-389.205 290,-404 422.733,-463.205 597.456,-457.204 692.392,-447.909"/>
<polygon fill="midnightblue" stroke="midnightblue" points="215.366,-334.473 206.579,-328.553 209.757,-338.66 215.366,-334.473"/>
</g>
<!-- Node7 -->
<g id="node7" class="node"><title>Node7</title>
<g id="a_node7"><a xlink:href="../../d1/d48/classserver_1_1main_app.html#aae86b15c001a235de78a90334e697b5f" target="_top" xlink:title="Triggered when a user leaves trough a PART message.">
<polygon fill="white" stroke="black" points="495,-391.5 495,-410.5 633,-410.5 633,-391.5 495,-391.5"/>
<text text-anchor="middle" x="564" y="-398.5" font-family="Helvetica,sans-Serif" font-size="10.00">server::mainApp::userOffline</text>
</a>
</g>
</g>
<!-- Node2&#45;&gt;Node7 -->
<g id="edge7" class="edge"><title>Node2&#45;&gt;Node7</title>
<path fill="none" stroke="midnightblue" d="M219.111,-335.289C236.403,-349.006 263.195,-367.816 290,-377 357.065,-399.977 438.544,-404.338 494.939,-403.969"/>
<polygon fill="midnightblue" stroke="midnightblue" points="220.946,-332.269 210.985,-328.658 216.52,-337.692 220.946,-332.269"/>
</g>
<!-- Node8 -->
<g id="node8" class="node"><title>Node8</title>
<g id="a_node8"><a xlink:href="../../d1/d48/classserver_1_1main_app.html#ae15deb9260c486854af7fac7b063fdf5" target="_top" xlink:title="Triggered when a user changes his nickname (nick|Status)">
<polygon fill="white" stroke="black" points="680,-353.5 680,-372.5 844,-372.5 844,-353.5 680,-353.5"/>
<text text-anchor="middle" x="762" y="-360.5" font-family="Helvetica,sans-Serif" font-size="10.00">server::mainApp::userChangeNick</text>
</a>
</g>
</g>
<!-- Node2&#45;&gt;Node8 -->
<g id="edge9" class="edge"><title>Node2&#45;&gt;Node8</title>
<path fill="none" stroke="midnightblue" d="M239.114,-331.421C254.775,-335.869 273.084,-340.417 290,-343 425.519,-363.692 585.336,-365.869 679.638,-364.901"/>
<polygon fill="midnightblue" stroke="midnightblue" points="239.828,-327.983 229.247,-328.535 237.862,-334.702 239.828,-327.983"/>
</g>
<!-- Node9 -->
<g id="node9" class="node"><title>Node9</title>
<g id="a_node9"><a xlink:href="../../d1/d48/classserver_1_1main_app.html#aaa3dd74b510e2d797f21293a622a4f7d" target="_top" xlink:title="Triggered when a user changes his status (nick|Status)">
<polygon fill="white" stroke="black" points="297,-304 297,-334 441,-334 441,-304 297,-304"/>
<text text-anchor="start" x="305" y="-322" font-family="Helvetica,sans-Serif" font-size="10.00">server::mainApp::userChange</text>
<text text-anchor="middle" x="369" y="-311" font-family="Helvetica,sans-Serif" font-size="10.00">Status</text>
</a>
</g>
</g>
<!-- Node2&#45;&gt;Node9 -->
<g id="edge11" class="edge"><title>Node2&#45;&gt;Node9</title>
<path fill="none" stroke="midnightblue" d="M264.165,-319C274.854,-319 285.998,-319 296.848,-319"/>
<polygon fill="midnightblue" stroke="midnightblue" points="264.081,-315.5 254.081,-319 264.081,-322.5 264.081,-315.5"/>
</g>
<!-- Node10 -->
<g id="node10" class="node"><title>Node10</title>
<g id="a_node10"><a xlink:href="../../d1/d48/classserver_1_1main_app.html#aea819e4b8f297de7f1e3fc2f8513b0a4" target="_top" xlink:title="Triggered when a UI client wants all the users.">
<polygon fill="white" stroke="black" points="294.5,-265.5 294.5,-284.5 443.5,-284.5 443.5,-265.5 294.5,-265.5"/>
<text text-anchor="middle" x="369" y="-272.5" font-family="Helvetica,sans-Serif" font-size="10.00">server::mainApp::doUserQuery</text>
</a>
</g>
</g>
<!-- Node2&#45;&gt;Node10 -->
<g id="edge13" class="edge"><title>Node2&#45;&gt;Node10</title>
<path fill="none" stroke="midnightblue" d="M245.514,-306.772C259.751,-302.971 275.522,-298.786 290,-295 303.119,-291.569 317.495,-287.867 330.291,-284.591"/>
<polygon fill="midnightblue" stroke="midnightblue" points="244.215,-303.496 235.458,-309.46 246.023,-310.259 244.215,-303.496"/>
</g>
<!-- Node11 -->
<g id="node11" class="node"><title>Node11</title>
<g id="a_node11"><a xlink:href="../../d1/d48/classserver_1_1main_app.html#aba9c03c1c353a57f43404bb149bee50b" target="_top" xlink:title="Triggered when a UI client wants all the events known to the server.">
<polygon fill="white" stroke="black" points="291.5,-227.5 291.5,-246.5 446.5,-246.5 446.5,-227.5 291.5,-227.5"/>
<text text-anchor="middle" x="369" y="-234.5" font-family="Helvetica,sans-Serif" font-size="10.00">server::mainApp::doSendEvents</text>
</a>
</g>
</g>
<!-- Node2&#45;&gt;Node11 -->
<g id="edge15" class="edge"><title>Node2&#45;&gt;Node11</title>
<path fill="none" stroke="midnightblue" d="M218.5,-302.922C235.864,-288.627 263.119,-268.16 290,-256 298.381,-252.209 307.625,-249.109 316.73,-246.597"/>
<polygon fill="midnightblue" stroke="midnightblue" points="216.22,-300.267 210.816,-309.381 220.724,-305.626 216.22,-300.267"/>
</g>
<!-- Node12 -->
<g id="node12" class="node"><title>Node12</title>
<g id="a_node12"><a xlink:href="../../d1/d48/classserver_1_1main_app.html#a7263ca5b3630b0a2774f556b96c333c8" target="_top" xlink:title="For logging to the clients.">
<polygon fill="white" stroke="black" points="290,-144.5 290,-163.5 448,-163.5 448,-144.5 290,-144.5"/>
<text text-anchor="middle" x="369" y="-151.5" font-family="Helvetica,sans-Serif" font-size="10.00">server::mainApp::serverMessage</text>
</a>
</g>
</g>
<!-- Node2&#45;&gt;Node12 -->
<g id="edge17" class="edge"><title>Node2&#45;&gt;Node12</title>
<path fill="none" stroke="midnightblue" d="M214.236,-301.412C231.361,-280.648 261.389,-245.468 290,-218 311.607,-197.256 339.151,-175.669 355.059,-163.621"/>
<polygon fill="midnightblue" stroke="midnightblue" points="211.353,-299.408 207.728,-309.364 216.77,-303.842 211.353,-299.408"/>
</g>
<!-- Node17 -->
<g id="node17" class="node"><title>Node17</title>
<g id="a_node17"><a xlink:href="../../df/dd2/classserver_1_1ui_server.html#a1d221672f6efb29189e6ce398f7b07e3" target="_top" xlink:title="Triggered when a client wants to change something about our own user.">
<polygon fill="white" stroke="black" points="309,-38 309,-68 429,-68 429,-38 309,-38"/>
<text text-anchor="start" x="317" y="-56" font-family="Helvetica,sans-Serif" font-size="10.00">server::uiServer::change</text>
<text text-anchor="middle" x="369" y="-45" font-family="Helvetica,sans-Serif" font-size="10.00">OwnUser</text>
</a>
</g>
</g>
<!-- Node2&#45;&gt;Node17 -->
<g id="edge28" class="edge"><title>Node2&#45;&gt;Node17</title>
<path fill="none" stroke="midnightblue" d="M207.104,-299.848C220.432,-265.202 251.36,-190.562 290,-135 307.949,-109.191 333.93,-83.6119 350.892,-68.0571"/>
<polygon fill="midnightblue" stroke="midnightblue" points="203.811,-298.659 203.543,-309.251 210.358,-301.138 203.811,-298.659"/>
</g>
<!-- Node4 -->
<g id="node4" class="node"><title>Node4</title>
<g id="a_node4"><a xlink:href="../../d1/d48/classserver_1_1main_app.html#af331bc3bf60e745f3ddc95ab3abe5188" target="_top" xlink:title="server::mainApp::run">
<polygon fill="white" stroke="black" points="880,-277.5 880,-296.5 986,-296.5 986,-277.5 880,-277.5"/>
<text text-anchor="middle" x="933" y="-284.5" font-family="Helvetica,sans-Serif" font-size="10.00">server::mainApp::run</text>
</a>
</g>
</g>
<!-- Node3&#45;&gt;Node4 -->
<g id="edge3" class="edge"><title>Node3&#45;&gt;Node4</title>
<path fill="none" stroke="midnightblue" d="M619.858,-488.12C680.012,-497.162 776.896,-502.133 844,-458 903.418,-418.922 924.881,-326.493 930.415,-296.545"/>
<polygon fill="midnightblue" stroke="midnightblue" points="620.225,-484.635 609.799,-486.519 619.125,-491.548 620.225,-484.635"/>
</g>
<!-- Node5 -->
<g id="node5" class="node"><title>Node5</title>
<g id="a_node5"><a xlink:href="../../dc/d17/custom_irc_server_2main_8cpp.html#a0ddf1224851353fc92bfbff6f499fa97" target="_top" xlink:title="main">
<polygon fill="white" stroke="black" points="1022,-277.5 1022,-296.5 1060,-296.5 1060,-277.5 1022,-277.5"/>
<text text-anchor="middle" x="1041" y="-284.5" font-family="Helvetica,sans-Serif" font-size="10.00">main</text>
</a>
</g>
</g>
<!-- Node4&#45;&gt;Node5 -->
<g id="edge4" class="edge"><title>Node4&#45;&gt;Node5</title>
<path fill="none" stroke="midnightblue" d="M996.208,-287C1005.46,-287 1014.33,-287 1021.64,-287"/>
<polygon fill="midnightblue" stroke="midnightblue" points="996.068,-283.5 986.068,-287 996.068,-290.5 996.068,-283.5"/>
</g>
<!-- Node6&#45;&gt;Node4 -->
<g id="edge6" class="edge"><title>Node6&#45;&gt;Node4</title>
<path fill="none" stroke="midnightblue" d="M824.334,-425.795C831.311,-422.879 838.045,-419.326 844,-415 888.508,-382.666 917.962,-320.583 928.092,-296.696"/>
<polygon fill="midnightblue" stroke="midnightblue" points="822.86,-422.609 814.718,-429.389 825.31,-429.166 822.86,-422.609"/>
</g>
<!-- Node7&#45;&gt;Node4 -->
<g id="edge8" class="edge"><title>Node7&#45;&gt;Node4</title>
<path fill="none" stroke="midnightblue" d="M643.288,-410.648C701.472,-414.362 781.292,-411.968 844,-382 883.96,-362.903 914.531,-316.94 926.5,-296.769"/>
<polygon fill="midnightblue" stroke="midnightblue" points="643.273,-407.139 633.049,-409.918 642.775,-414.121 643.273,-407.139"/>
</g>
<!-- Node8&#45;&gt;Node4 -->
<g id="edge10" class="edge"><title>Node8&#45;&gt;Node4</title>
<path fill="none" stroke="midnightblue" d="M812.08,-350.566C822.778,-347.276 833.911,-343.395 844,-339 871.657,-326.95 901.388,-307.973 918.243,-296.583"/>
<polygon fill="midnightblue" stroke="midnightblue" points="811.018,-347.23 802.419,-353.419 813.001,-353.943 811.018,-347.23"/>
</g>
<!-- Node9&#45;&gt;Node4 -->
<g id="edge12" class="edge"><title>Node9&#45;&gt;Node4</title>
<path fill="none" stroke="midnightblue" d="M451.245,-317.378C545.75,-315.033 706.4,-309.629 844,-298 855.66,-297.015 868.153,-295.645 879.956,-294.206"/>
<polygon fill="midnightblue" stroke="midnightblue" points="451.095,-313.88 441.183,-317.622 451.265,-320.878 451.095,-313.88"/>
</g>
<!-- Node10&#45;&gt;Node4 -->
<g id="edge14" class="edge"><title>Node10&#45;&gt;Node4</title>
<path fill="none" stroke="midnightblue" d="M453.812,-276.79C571.544,-279.303 782.387,-283.805 879.903,-285.888"/>
<polygon fill="midnightblue" stroke="midnightblue" points="453.833,-273.289 443.76,-276.575 453.683,-280.288 453.833,-273.289"/>
</g>
<!-- Node11&#45;&gt;Node4 -->
<g id="edge16" class="edge"><title>Node11&#45;&gt;Node4</title>
<path fill="none" stroke="midnightblue" d="M456.939,-244.11C552.032,-251.982 708.919,-265.251 844,-278 855.62,-279.097 868.097,-280.335 879.897,-281.535"/>
<polygon fill="midnightblue" stroke="midnightblue" points="457.049,-240.607 446.794,-243.271 456.472,-247.583 457.049,-240.607"/>
</g>
<!-- Node12&#45;&gt;Node4 -->
<g id="edge18" class="edge"><title>Node12&#45;&gt;Node4</title>
<path fill="none" stroke="midnightblue" d="M398.256,-139.887C476.208,-103.145 698.155,-13.5195 844,-105 907.627,-144.909 926.371,-245.275 930.809,-277.134"/>
<polygon fill="midnightblue" stroke="midnightblue" points="396.568,-136.815 389.062,-144.293 399.593,-143.128 396.568,-136.815"/>
</g>
<!-- Node13 -->
<g id="node13" class="node"><title>Node13</title>
<g id="a_node13"><a xlink:href="../../d1/d48/classserver_1_1main_app.html#a931aedd34bb38252acfc8880f9716fab" target="_top" xlink:title="Triggered when the IRC client cannot connect.">
<polygon fill="white" stroke="black" points="692.5,-114 692.5,-144 831.5,-144 831.5,-114 692.5,-114"/>
<text text-anchor="start" x="700.5" y="-132" font-family="Helvetica,sans-Serif" font-size="10.00">server::mainApp::ircConnect</text>
<text text-anchor="middle" x="762" y="-121" font-family="Helvetica,sans-Serif" font-size="10.00">TimeOut</text>
</a>
</g>
</g>
<!-- Node12&#45;&gt;Node13 -->
<g id="edge19" class="edge"><title>Node12&#45;&gt;Node13</title>
<path fill="none" stroke="midnightblue" d="M401.131,-140.593C423.668,-131.643 455.119,-120.687 484,-116 554.332,-104.587 635.924,-110.715 692.249,-117.917"/>
<polygon fill="midnightblue" stroke="midnightblue" points="399.694,-137.399 391.748,-144.408 402.33,-143.884 399.694,-137.399"/>
</g>
<!-- Node14 -->
<g id="node14" class="node"><title>Node14</title>
<g id="a_node14"><a xlink:href="../../d1/d48/classserver_1_1main_app.html#a6e6e952e3048cfeefcdfeea7bbb5b83e" target="_top" xlink:title="Triggered when the IRC client has connected.">
<polygon fill="white" stroke="black" points="489.5,-201.5 489.5,-220.5 638.5,-220.5 638.5,-201.5 489.5,-201.5"/>
<text text-anchor="middle" x="564" y="-208.5" font-family="Helvetica,sans-Serif" font-size="10.00">server::mainApp::ircConnected</text>
</a>
</g>
</g>
<!-- Node12&#45;&gt;Node14 -->
<g id="edge21" class="edge"><title>Node12&#45;&gt;Node14</title>
<path fill="none" stroke="midnightblue" d="M411.935,-166.385C447.568,-176.909 497.987,-191.799 530.591,-201.428"/>
<polygon fill="midnightblue" stroke="midnightblue" points="412.886,-163.016 402.304,-163.541 410.903,-169.73 412.886,-163.016"/>
</g>
<!-- Node15 -->
<g id="node15" class="node"><title>Node15</title>
<g id="a_node15"><a xlink:href="../../d1/d48/classserver_1_1main_app.html#af6e8c9d1f06514b33e5f88f9e66884be" target="_top" xlink:title="Triggered when the IRC client has disconnected.">
<polygon fill="white" stroke="black" points="681,-163.5 681,-182.5 843,-182.5 843,-163.5 681,-163.5"/>
<text text-anchor="middle" x="762" y="-170.5" font-family="Helvetica,sans-Serif" font-size="10.00">server::mainApp::ircDisconnected</text>
</a>
</g>
</g>
<!-- Node12&#45;&gt;Node15 -->
<g id="edge23" class="edge"><title>Node12&#45;&gt;Node15</title>
<path fill="none" stroke="midnightblue" d="M458.282,-158.29C525.13,-161.538 616.193,-165.963 680.937,-169.109"/>
<polygon fill="midnightblue" stroke="midnightblue" points="458.343,-154.789 448.185,-157.799 458.003,-161.781 458.343,-154.789"/>
</g>
<!-- Node16 -->
<g id="node16" class="node"><title>Node16</title>
<g id="a_node16"><a xlink:href="../../d1/d48/classserver_1_1main_app.html#aa9d4c2e1dc5216901c4f8743838d4561" target="_top" xlink:title="Emitted when the reconnect timer reaches 0.">
<polygon fill="white" stroke="black" points="484,-125.5 484,-144.5 644,-144.5 644,-125.5 484,-125.5"/>
<text text-anchor="middle" x="564" y="-132.5" font-family="Helvetica,sans-Serif" font-size="10.00">server::mainApp::doIrcReconnect</text>
</a>
</g>
</g>
<!-- Node12&#45;&gt;Node16 -->
<g id="edge25" class="edge"><title>Node12&#45;&gt;Node16</title>
<path fill="none" stroke="midnightblue" d="M458.447,-145.293C466.877,-144.463 475.39,-143.625 483.725,-142.804"/>
<polygon fill="midnightblue" stroke="midnightblue" points="457.831,-141.836 448.222,-146.299 458.517,-148.803 457.831,-141.836"/>
</g>
<!-- Node13&#45;&gt;Node4 -->
<g id="edge20" class="edge"><title>Node13&#45;&gt;Node4</title>
<path fill="none" stroke="midnightblue" d="M836.079,-148.768C838.836,-150.379 841.489,-152.12 844,-154 889.43,-188.024 918.531,-252.843 928.323,-277.319"/>
<polygon fill="midnightblue" stroke="midnightblue" points="837.469,-145.547 826.981,-144.052 834.248,-151.761 837.469,-145.547"/>
</g>
<!-- Node14&#45;&gt;Node4 -->
<g id="edge22" class="edge"><title>Node14&#45;&gt;Node4</title>
<path fill="none" stroke="midnightblue" d="M649.013,-208.579C705.409,-209.272 780.686,-214.736 844,-235 873.408,-244.412 903.493,-265.053 919.749,-277.309"/>
<polygon fill="midnightblue" stroke="midnightblue" points="648.735,-205.077 638.709,-208.503 648.683,-212.077 648.735,-205.077"/>
</g>
<!-- Node15&#45;&gt;Node4 -->
<g id="edge24" class="edge"><title>Node15&#45;&gt;Node4</title>
<path fill="none" stroke="midnightblue" d="M819.663,-185.74C828.128,-188.779 836.516,-192.49 844,-197 880.124,-218.769 911.797,-258.868 925.198,-277.286"/>
<polygon fill="midnightblue" stroke="midnightblue" points="820.709,-182.4 810.116,-182.587 818.514,-189.046 820.709,-182.4"/>
</g>
<!-- Node16&#45;&gt;Node13 -->
<g id="edge26" class="edge"><title>Node16&#45;&gt;Node13</title>
<path fill="none" stroke="midnightblue" d="M654.316,-132.266C667.059,-131.876 679.999,-131.48 692.266,-131.104"/>
<polygon fill="midnightblue" stroke="midnightblue" points="654.044,-128.772 644.156,-132.577 654.258,-135.769 654.044,-128.772"/>
</g>
<!-- Node16&#45;&gt;Node15 -->
<g id="edge27" class="edge"><title>Node16&#45;&gt;Node15</title>
<path fill="none" stroke="midnightblue" d="M624.261,-146.489C652.227,-151.911 685.209,-158.306 711.774,-163.456"/>
<polygon fill="midnightblue" stroke="midnightblue" points="624.689,-143.007 614.206,-144.54 623.357,-149.879 624.689,-143.007"/>
</g>
<!-- Node18 -->
<g id="node18" class="node"><title>Node18</title>
<g id="a_node18"><a xlink:href="../../df/dd2/classserver_1_1ui_server.html#af8300a694de27369a5f5d1a95ed1cc37" target="_top" xlink:title="Triggered when a client connects.">
<polygon fill="white" stroke="black" points="505,-0 505,-30 623,-30 623,-0 505,-0"/>
<text text-anchor="start" x="513" y="-18" font-family="Helvetica,sans-Serif" font-size="10.00">server::uiServer::accept</text>
<text text-anchor="middle" x="564" y="-7" font-family="Helvetica,sans-Serif" font-size="10.00">Connection</text>
</a>
</g>
</g>
<!-- Node17&#45;&gt;Node18 -->
<g id="edge29" class="edge"><title>Node17&#45;&gt;Node18</title>
<path fill="none" stroke="midnightblue" d="M439.266,-39.3621C460.765,-35.1291 484.229,-30.5092 504.889,-26.4416"/>
<polygon fill="midnightblue" stroke="midnightblue" points="438.353,-35.9745 429.218,-41.3405 439.706,-42.8427 438.353,-35.9745"/>
</g>
<!-- Node19 -->
<g id="node19" class="node"><title>Node19</title>
<g id="a_node19"><a xlink:href="../../df/dd2/classserver_1_1ui_server.html#a55e34b95359692ea9002408075e18b1a" target="_top" xlink:title="uiServer constructor">
<polygon fill="white" stroke="black" points="700.5,-5.5 700.5,-24.5 823.5,-24.5 823.5,-5.5 700.5,-5.5"/>
<text text-anchor="middle" x="762" y="-12.5" font-family="Helvetica,sans-Serif" font-size="10.00">server::uiServer::uiServer</text>
</a>
</g>
</g>
<!-- Node18&#45;&gt;Node19 -->
<g id="edge30" class="edge"><title>Node18&#45;&gt;Node19</title>
<path fill="none" stroke="midnightblue" d="M633.215,-15C655.081,-15 679.133,-15 700.414,-15"/>
<polygon fill="midnightblue" stroke="midnightblue" points="633.011,-11.5001 623.011,-15 633.011,-18.5001 633.011,-11.5001"/>
</g>
</g>
</svg>
        <g id="navigator" transform="translate(0 0)" fill="#404254">
                <rect fill="#f2f5e9" fill-opacity="0.5" stroke="#606060" stroke-width=".5" x="0" y="0" width="60" height="60"/>
                <use id="zoomplus" xlink:href="#zoomPlus" x="17" y="9" onmousedown="handleZoom(evt,'in')"/>
                <use id="zoomminus" xlink:href="#zoomMin" x="42" y="9" onmousedown="handleZoom(evt,'out')"/>
                <use id="reset" xlink:href="#resetDef" x="30" y="36" onmousedown="handleReset()"/>
                <g id="arrowUp" xlink:href="#dirArrow" transform="translate(30 24)" onmousedown="handlePan(0,-1)">
                  <use xlink:href="#rim" fill="#404040">
                        <set attributeName="fill" to="#808080" begin="arrowUp.mouseover" end="arrowUp.mouseout"/>
                  </use>
                  <path fill="none" stroke="white" stroke-width="1.5" d="M0,-3.0v7 M-2.5,-0.5L0,-3.0L2.5,-0.5"/>
                </g>
                <g id="arrowRight" xlink:href="#dirArrow" transform="rotate(90) translate(36 -43)" onmousedown="handlePan(1,0)">
                  <use xlink:href="#rim" fill="#404040">
                        <set attributeName="fill" to="#808080" begin="arrowRight.mouseover" end="arrowRight.mouseout"/>
                  </use>
                  <path fill="none" stroke="white" stroke-width="1.5" d="M0,-3.0v7 M-2.5,-0.5L0,-3.0L2.5,-0.5"/>
                </g>
                <g id="arrowDown" xlink:href="#dirArrow" transform="rotate(180) translate(-30 -48)" onmousedown="handlePan(0,1)">
                  <use xlink:href="#rim" fill="#404040">
                        <set attributeName="fill" to="#808080" begin="arrowDown.mouseover" end="arrowDown.mouseout"/>
                  </use>
                  <path fill="none" stroke="white" stroke-width="1.5" d="M0,-3.0v7 M-2.5,-0.5L0,-3.0L2.5,-0.5"/>
                </g>
                <g id="arrowLeft" xlink:href="#dirArrow" transform="rotate(270) translate(-36 17)" onmousedown="handlePan(-1,0)">
                  <use xlink:href="#rim" fill="#404040">
                        <set attributeName="fill" to="#808080" begin="arrowLeft.mouseover" end="arrowLeft.mouseout"/>
                  </use>
                  <path fill="none" stroke="white" stroke-width="1.5" d="M0,-3.0v7 M-2.5,-0.5L0,-3.0L2.5,-0.5"/>
                </g>
        </g>
        <svg viewBox="0 0 15 15" width="100%" height="30px" preserveAspectRatio="xMaxYMin meet">
         <g id="arrow_out" transform="scale(0.3 0.3)">
          <a xlink:href="classserver_1_1ui_client_ad3f8f8690155b186b54e40dcfee0df23_icgraph_org.svg" target="_base">
           <rect id="button" ry="5" rx="5" y="6" x="6" height="38" width="38"
                fill="#f2f5e9" fill-opacity="0.5" stroke="#606060" stroke-width="1.0"/>
           <path id="arrow"
             d="M 11.500037,31.436501 C 11.940474,20.09759 22.043105,11.32322 32.158766,21.979434 L 37.068811,17.246167 C 37.068811,17.246167 37.088388,32 37.088388,32 L 22.160133,31.978069 C 22.160133,31.978069 26.997745,27.140456 26.997745,27.140456 C 18.528582,18.264221 13.291696,25.230495 11.500037,31.436501 z"
             style="fill:#404040;"/>
          </a>
         </g>
        </svg>
</svg>
