<?xml version="1.0" encoding="UTF-8" standalone="no"?>
<!DOCTYPE svg PUBLIC "-//W3C//DTD SVG 1.1//EN"
 "http://www.w3.org/Graphics/SVG/1.1/DTD/svg11.dtd">
<!-- Generated by graphviz version 2.30.1 (20130303.0817)
 -->
<!-- Title: server::uiClient::removeConnection Pages: 1 -->
<svg width="448pt" height="66pt"
 viewBox="0.00 0.00 448.00 66.00" xmlns="http://www.w3.org/2000/svg" xmlns:xlink="http://www.w3.org/1999/xlink">
<g id="graph0" class="graph" transform="scale(1 1) rotate(0) translate(4 62)">
<title>server::uiClient::removeConnection</title>
<polygon fill="white" stroke="white" points="-4,5 -4,-62 445,-62 445,5 -4,5"/>
<!-- Node1 -->
<g id="node1" class="node"><title>Node1</title>
<polygon fill="#bfbfbf" stroke="black" points="0.5,-14 0.5,-44 117.5,-44 117.5,-14 0.5,-14"/>
<text text-anchor="start" x="8.5" y="-32" font-family="Helvetica,sans-Serif" font-size="10.00">server::uiClient::remove</text>
<text text-anchor="middle" x="59" y="-21" font-family="Helvetica,sans-Serif" font-size="10.00">Connection</text>
</g>
<!-- Node2 -->
<g id="node2" class="node"><title>Node2</title>
<g id="a_node2"><a xlink:href="../../d6/d75/namespace_k4_u.xhtml#aaddaee50fab2801df390147891b0c09d" target="_top" xlink:title="K4U::endl">
<polygon fill="white" stroke="black" points="196.5,-38.5 196.5,-57.5 255.5,-57.5 255.5,-38.5 196.5,-38.5"/>
<text text-anchor="middle" x="226" y="-45.5" font-family="Helvetica,sans-Serif" font-size="10.00">K4U::endl</text>
</a>
</g>
</g>
<!-- Node1&#45;&gt;Node2 -->
<g id="edge1" class="edge"><title>Node1&#45;&gt;Node2</title>
<path fill="none" stroke="midnightblue" d="M117.709,-35.6453C140.342,-38.2515 165.72,-41.1738 186.11,-43.5217"/>
<polygon fill="midnightblue" stroke="midnightblue" points="185.942,-47.0255 196.277,-44.6925 186.743,-40.0714 185.942,-47.0255"/>
</g>
<!-- Node4 -->
<g id="node4" class="node"><title>Node4</title>
<g id="a_node4"><a xlink:href="../../dc/d4d/classserver_1_1ui_client.xhtml#a3d11b3850540e70abe814f3a3831a5f5" target="_top" xlink:title="Emitted when the user client disconnects.">
<polygon fill="white" stroke="black" points="154,-0.5 154,-19.5 298,-19.5 298,-0.5 154,-0.5"/>
<text text-anchor="middle" x="226" y="-7.5" font-family="Helvetica,sans-Serif" font-size="10.00">server::uiClient::disconnected</text>
</a>
</g>
</g>
<!-- Node1&#45;&gt;Node4 -->
<g id="edge4" class="edge"><title>Node1&#45;&gt;Node4</title>
<path fill="none" stroke="midnightblue" d="M117.709,-22.3547C126.217,-21.3751 135.112,-20.3507 143.985,-19.3291"/>
<polygon fill="midnightblue" stroke="midnightblue" points="144.436,-22.8003 153.97,-18.1792 143.635,-15.8462 144.436,-22.8003"/>
</g>
<!-- Node3 -->
<g id="node3" class="node"><title>Node3</title>
<g id="a_node3"><a xlink:href="../../da/d64/class_k4_u_1_1cls_log.xhtml#a81f179b2ccb3e2abeb9b47f5b83de935" target="_top" xlink:title="K4U::clsLog::doEndl">
<polygon fill="white" stroke="black" points="334,-38.5 334,-57.5 440,-57.5 440,-38.5 334,-38.5"/>
<text text-anchor="middle" x="387" y="-45.5" font-family="Helvetica,sans-Serif" font-size="10.00">K4U::clsLog::doEndl</text>
</a>
</g>
</g>
<!-- Node2&#45;&gt;Node3 -->
<g id="edge2" class="edge"><title>Node2&#45;&gt;Node3</title>
<path fill="none" stroke="midnightblue" d="M255.794,-42.6599C274.737,-41.421 300.272,-40.9986 323.711,-41.3926"/>
<polygon fill="midnightblue" stroke="midnightblue" points="323.875,-44.897 333.95,-41.6212 324.031,-37.8988 323.875,-44.897"/>
</g>
<!-- Node3&#45;&gt;Node2 -->
<g id="edge3" class="edge"><title>Node3&#45;&gt;Node2</title>
<path fill="none" stroke="midnightblue" d="M333.95,-54.3788C311.83,-55.0002 286.477,-54.8414 266.009,-53.9023"/>
<polygon fill="midnightblue" stroke="midnightblue" points="265.971,-50.395 255.794,-53.3401 265.586,-57.3844 265.971,-50.395"/>
</g>
</g>
</svg>
