<?xml version="1.0" encoding="UTF-8" standalone="no"?>
<!DOCTYPE svg PUBLIC "-//W3C//DTD SVG 1.1//EN"
 "http://www.w3.org/Graphics/SVG/1.1/DTD/svg11.dtd">
<!-- Generated by graphviz version 2.30.1 (20130303.0817)
 -->
<!-- Title: server::uiClient::chatReceived Pages: 1 -->
<svg width="460pt" height="38pt"
 viewBox="0.00 0.00 460.00 38.00" xmlns="http://www.w3.org/2000/svg" xmlns:xlink="http://www.w3.org/1999/xlink">
<g id="graph0" class="graph" transform="scale(1 1) rotate(0) translate(4 34)">
<title>server::uiClient::chatReceived</title>
<polygon fill="white" stroke="white" points="-4,5 -4,-34 457,-34 457,5 -4,5"/>
<!-- Node1 -->
<g id="node1" class="node"><title>Node1</title>
<polygon fill="#bfbfbf" stroke="black" points="0,-5.5 0,-24.5 144,-24.5 144,-5.5 0,-5.5"/>
<text text-anchor="middle" x="72" y="-12.5" font-family="Helvetica,sans-Serif" font-size="10.00">server::uiClient::chatReceived</text>
</g>
<!-- Node2 -->
<g id="node2" class="node"><title>Node2</title>
<g id="a_node2"><a xlink:href="../../dc/d4d/classserver_1_1ui_client.html#afdda23f96c586fdcb47f1abad7be99f5" target="_top" xlink:title="server::uiClient::receive\lMessage">
<polygon fill="white" stroke="black" points="180,-0 180,-30 296,-30 296,-0 180,-0"/>
<text text-anchor="start" x="188" y="-18" font-family="Helvetica,sans-Serif" font-size="10.00">server::uiClient::receive</text>
<text text-anchor="middle" x="238" y="-7" font-family="Helvetica,sans-Serif" font-size="10.00">Message</text>
</a>
</g>
</g>
<!-- Node1&#45;&gt;Node2 -->
<g id="edge1" class="edge"><title>Node1&#45;&gt;Node2</title>
<path fill="none" stroke="midnightblue" d="M154.686,-15C163.093,-15 171.506,-15 179.569,-15"/>
<polygon fill="midnightblue" stroke="midnightblue" points="154.456,-11.5001 144.456,-15 154.456,-18.5001 154.456,-11.5001"/>
</g>
<!-- Node3 -->
<g id="node3" class="node"><title>Node3</title>
<g id="a_node3"><a xlink:href="../../dc/d4d/classserver_1_1ui_client.html#a215d811cbfada73ff8344ed7e5664113" target="_top" xlink:title="uiClient constructor">
<polygon fill="white" stroke="black" points="332.5,-5.5 332.5,-24.5 451.5,-24.5 451.5,-5.5 332.5,-5.5"/>
<text text-anchor="middle" x="392" y="-12.5" font-family="Helvetica,sans-Serif" font-size="10.00">server::uiClient::uiClient</text>
</a>
</g>
</g>
<!-- Node2&#45;&gt;Node3 -->
<g id="edge2" class="edge"><title>Node2&#45;&gt;Node3</title>
<path fill="none" stroke="midnightblue" d="M306.182,-15C314.914,-15 323.804,-15 332.381,-15"/>
<polygon fill="midnightblue" stroke="midnightblue" points="306.032,-11.5001 296.032,-15 306.032,-18.5001 306.032,-11.5001"/>
</g>
</g>
</svg>
