<?xml version="1.0" encoding="UTF-8" standalone="no"?>
<!DOCTYPE svg PUBLIC "-//W3C//DTD SVG 1.1//EN"
 "http://www.w3.org/Graphics/SVG/1.1/DTD/svg11.dtd">
<!-- Generated by graphviz version 2.30.1 (20130303.0817)
 -->
<!-- Title: server::uiClient::checkForJsonCommand Pages: 1 -->
<svg width="444pt" height="38pt"
 viewBox="0.00 0.00 444.00 38.00" xmlns="http://www.w3.org/2000/svg" xmlns:xlink="http://www.w3.org/1999/xlink">
<g id="graph0" class="graph" transform="scale(1 1) rotate(0) translate(4 34)">
<title>server::uiClient::checkForJsonCommand</title>
<polygon fill="white" stroke="white" points="-4,5 -4,-34 441,-34 441,5 -4,5"/>
<!-- Node1 -->
<g id="node1" class="node"><title>Node1</title>
<polygon fill="#bfbfbf" stroke="black" points="0.5,-0 0.5,-30 127.5,-30 127.5,-0 0.5,-0"/>
<text text-anchor="start" x="8.5" y="-18" font-family="Helvetica,sans-Serif" font-size="10.00">server::uiClient::checkFor</text>
<text text-anchor="middle" x="64" y="-7" font-family="Helvetica,sans-Serif" font-size="10.00">JsonCommand</text>
</g>
<!-- Node2 -->
<g id="node2" class="node"><title>Node2</title>
<g id="a_node2"><a xlink:href="../../dc/d4d/classserver_1_1ui_client.html#afdda23f96c586fdcb47f1abad7be99f5" target="_top" xlink:title="server::uiClient::receive\lMessage">
<polygon fill="white" stroke="black" points="164,-0 164,-30 280,-30 280,-0 164,-0"/>
<text text-anchor="start" x="172" y="-18" font-family="Helvetica,sans-Serif" font-size="10.00">server::uiClient::receive</text>
<text text-anchor="middle" x="222" y="-7" font-family="Helvetica,sans-Serif" font-size="10.00">Message</text>
</a>
</g>
</g>
<!-- Node1&#45;&gt;Node2 -->
<g id="edge1" class="edge"><title>Node1&#45;&gt;Node2</title>
<path fill="none" stroke="midnightblue" d="M137.803,-15C146.592,-15 155.47,-15 163.987,-15"/>
<polygon fill="midnightblue" stroke="midnightblue" points="137.552,-11.5001 127.552,-15 137.552,-18.5001 137.552,-11.5001"/>
</g>
<!-- Node3 -->
<g id="node3" class="node"><title>Node3</title>
<g id="a_node3"><a xlink:href="../../dc/d4d/classserver_1_1ui_client.html#a215d811cbfada73ff8344ed7e5664113" target="_top" xlink:title="uiClient constructor">
<polygon fill="white" stroke="black" points="316.5,-5.5 316.5,-24.5 435.5,-24.5 435.5,-5.5 316.5,-5.5"/>
<text text-anchor="middle" x="376" y="-12.5" font-family="Helvetica,sans-Serif" font-size="10.00">server::uiClient::uiClient</text>
</a>
</g>
</g>
<!-- Node2&#45;&gt;Node3 -->
<g id="edge2" class="edge"><title>Node2&#45;&gt;Node3</title>
<path fill="none" stroke="midnightblue" d="M290.182,-15C298.914,-15 307.804,-15 316.381,-15"/>
<polygon fill="midnightblue" stroke="midnightblue" points="290.032,-11.5001 280.032,-15 290.032,-18.5001 290.032,-11.5001"/>
</g>
</g>
</svg>
