<?xml version="1.0" encoding="UTF-8" standalone="no"?>
<!DOCTYPE svg PUBLIC "-//W3C//DTD SVG 1.1//EN"
 "http://www.w3.org/Graphics/SVG/1.1/DTD/svg11.dtd">
<!-- Generated by graphviz version 2.30.1 (20130303.0817)
 -->
<!-- Title: server::uiClient::receiveMessage Pages: 1 -->
<!--zoomable 279 -->
<svg id="main" version="1.1" xmlns="http://www.w3.org/2000/svg" xmlns:xlink="http://www.w3.org/1999/xlink" xml:space="preserve" onload="init(evt)">
        <defs>
                <circle id="rim" cx="0" cy="0" r="7"/>
                <circle id="rim2" cx="0" cy="0" r="3.5"/>
                <g id="zoomPlus">
                        <use xlink:href="#rim" fill="#404040">
                                <set attributeName="fill" to="#808080" begin="zoomplus.mouseover" end="zoomplus.mouseout"/>
                        </use>
                        <path d="M-4,0h8M0,-4v8" fill="none" stroke="white" stroke-width="1.5" pointer-events="none"/>
                </g>
                <g id="zoomMin">
                        <use xlink:href="#rim" fill="#404040">
                                <set attributeName="fill" to="#808080" begin="zoomminus.mouseover" end="zoomminus.mouseout"/>
                        </use>
                        <path d="M-4,0h8" fill="none" stroke="white" stroke-width="1.5" pointer-events="none"/>
                </g>
                <g id="dirArrow">
                        <path fill="none" stroke="white" stroke-width="1.5" d="M0,-3.0v7 M-2.5,-0.5L0,-3.0L2.5,-0.5"/>
                </g>
               <g id="resetDef">
                       <use xlink:href="#rim2" fill="#404040">
                               <set attributeName="fill" to="#808080" begin="reset.mouseover" end="reset.mouseout"/>
                       </use>
               </g>
        </defs>

<script type="text/javascript">
var viewWidth = 650;
var viewHeight = 279;
var sectionId = 'dynsection-4';
</script>
<script xlink:href="../../svgpan.js"/>
<svg id="graph" class="graph">
<g id="viewport">
<title>server::uiClient::receiveMessage</title>
<polygon fill="white" stroke="white" points="-4,5 -4,-274.577 647,-274.577 647,5 -4,5"/>
<!-- Node1 -->
<g id="node1" class="node"><title>Node1</title>
<polygon fill="#bfbfbf" stroke="black" points="0,-121 0,-151 116,-151 116,-121 0,-121"/>
<text text-anchor="start" x="8" y="-139" font-family="Helvetica,sans-Serif" font-size="10.00">server::uiClient::receive</text>
<text text-anchor="middle" x="58" y="-128" font-family="Helvetica,sans-Serif" font-size="10.00">Message</text>
</g>
<!-- Node2 -->
<g id="node2" class="node"><title>Node2</title>
<g id="a_node2"><a xlink:href="../../dc/d4d/classserver_1_1ui_client.xhtml#a8237b1a02c7877a7c853b6ef23995b9b" target="_top" xlink:title="Adds data to buffer and checks for json commands.">
<polygon fill="white" stroke="black" points="160.5,-203 160.5,-233 287.5,-233 287.5,-203 160.5,-203"/>
<text text-anchor="start" x="168.5" y="-221" font-family="Helvetica,sans-Serif" font-size="10.00">server::uiClient::checkFor</text>
<text text-anchor="middle" x="224" y="-210" font-family="Helvetica,sans-Serif" font-size="10.00">JsonCommand</text>
</a>
</g>
</g>
<!-- Node1&#45;&gt;Node2 -->
<g id="edge1" class="edge"><title>Node1&#45;&gt;Node2</title>
<path fill="none" stroke="midnightblue" d="M80.8064,-151.194C99.1972,-163.554 126.522,-180.874 152,-193 156.602,-195.19 161.45,-197.293 166.361,-199.285"/>
<polygon fill="midnightblue" stroke="midnightblue" points="165.249,-202.608 175.838,-202.971 167.787,-196.084 165.249,-202.608"/>
</g>
<!-- Node3 -->
<g id="node3" class="node"><title>Node3</title>
<g id="a_node3"><a xlink:href="../../d2/dc1/class_k4_u_1_1json_command.xhtml#a2db6f8da6bc5a4c677201f044b69bb10" target="_top" xlink:title="getCommand">
<polygon fill="white" stroke="black" points="332.5,-249.5 332.5,-268.5 499.5,-268.5 499.5,-249.5 332.5,-249.5"/>
<text text-anchor="middle" x="416" y="-256.5" font-family="Helvetica,sans-Serif" font-size="10.00">K4U::jsonCommand::getCommand</text>
</a>
</g>
</g>
<!-- Node1&#45;&gt;Node3 -->
<g id="edge6" class="edge"><title>Node1&#45;&gt;Node3</title>
<path fill="none" stroke="midnightblue" d="M67.1165,-151.321C80.8947,-175.545 111.369,-221.991 152,-242 208.783,-269.963 280.994,-272.669 335.379,-269.25"/>
<polygon fill="midnightblue" stroke="midnightblue" points="335.937,-272.719 345.663,-268.517 335.44,-265.736 335.937,-272.719"/>
</g>
<!-- Node6 -->
<g id="node6" class="node"><title>Node6</title>
<g id="a_node6"><a xlink:href="../../dc/d4d/classserver_1_1ui_client.xhtml#a970bb30d534e08d2537e2ef495ad7427" target="_top" xlink:title="Emitted when the client sends a chat.">
<polygon fill="white" stroke="black" points="152,-164.5 152,-183.5 296,-183.5 296,-164.5 152,-164.5"/>
<text text-anchor="middle" x="224" y="-171.5" font-family="Helvetica,sans-Serif" font-size="10.00">server::uiClient::chatReceived</text>
</a>
</g>
</g>
<!-- Node1&#45;&gt;Node6 -->
<g id="edge7" class="edge"><title>Node1&#45;&gt;Node6</title>
<path fill="none" stroke="midnightblue" d="M116.359,-149.291C134.427,-153.477 154.255,-158.071 171.861,-162.151"/>
<polygon fill="midnightblue" stroke="midnightblue" points="171.408,-165.638 181.94,-164.486 172.988,-158.819 171.408,-165.638"/>
</g>
<!-- Node7 -->
<g id="node7" class="node"><title>Node7</title>
<g id="a_node7"><a xlink:href="../../d2/dc1/class_k4_u_1_1json_command.xhtml#ae829f45e11a50fa00024a5d9951cd748" target="_top" xlink:title="Gets an item from the internal data map.">
<polygon fill="white" stroke="black" points="152.5,-126.5 152.5,-145.5 295.5,-145.5 295.5,-126.5 152.5,-126.5"/>
<text text-anchor="middle" x="224" y="-133.5" font-family="Helvetica,sans-Serif" font-size="10.00">K4U::jsonCommand::getData</text>
</a>
</g>
</g>
<!-- Node1&#45;&gt;Node7 -->
<g id="edge8" class="edge"><title>Node1&#45;&gt;Node7</title>
<path fill="none" stroke="midnightblue" d="M116.359,-136C124.724,-136 133.467,-136 142.191,-136"/>
<polygon fill="midnightblue" stroke="midnightblue" points="142.401,-139.5 152.401,-136 142.401,-132.5 142.401,-139.5"/>
</g>
<!-- Node8 -->
<g id="node8" class="node"><title>Node8</title>
<g id="a_node8"><a xlink:href="../../dc/d4d/classserver_1_1ui_client.xhtml#a334fdbafee59c9007c38466550572d83" target="_top" xlink:title="Emitted when the client wants all the users.">
<polygon fill="white" stroke="black" points="158.5,-88.5 158.5,-107.5 289.5,-107.5 289.5,-88.5 158.5,-88.5"/>
<text text-anchor="middle" x="224" y="-95.5" font-family="Helvetica,sans-Serif" font-size="10.00">server::uiClient::userQuery</text>
</a>
</g>
</g>
<!-- Node1&#45;&gt;Node8 -->
<g id="edge9" class="edge"><title>Node1&#45;&gt;Node8</title>
<path fill="none" stroke="midnightblue" d="M116.359,-122.709C134.427,-118.523 154.255,-113.929 171.861,-109.849"/>
<polygon fill="midnightblue" stroke="midnightblue" points="172.988,-113.181 181.94,-107.514 171.408,-106.362 172.988,-113.181"/>
</g>
<!-- Node9 -->
<g id="node9" class="node"><title>Node9</title>
<g id="a_node9"><a xlink:href="../../dc/d4d/classserver_1_1ui_client.xhtml#af31e3f327761e528ddabb232d1224620" target="_top" xlink:title="Emitted when the clients wants to change our own user.">
<polygon fill="white" stroke="black" points="165,-39 165,-69 283,-69 283,-39 165,-39"/>
<text text-anchor="start" x="173" y="-57" font-family="Helvetica,sans-Serif" font-size="10.00">server::uiClient::change</text>
<text text-anchor="middle" x="224" y="-46" font-family="Helvetica,sans-Serif" font-size="10.00">OwnUser</text>
</a>
</g>
</g>
<!-- Node1&#45;&gt;Node9 -->
<g id="edge10" class="edge"><title>Node1&#45;&gt;Node9</title>
<path fill="none" stroke="midnightblue" d="M80.8064,-120.806C99.1972,-108.446 126.522,-91.1257 152,-79 156.602,-76.8098 161.45,-74.7067 166.361,-72.715"/>
<polygon fill="midnightblue" stroke="midnightblue" points="167.787,-75.9159 175.838,-69.0286 165.249,-69.3922 167.787,-75.9159"/>
</g>
<!-- Node10 -->
<g id="node10" class="node"><title>Node10</title>
<g id="a_node10"><a xlink:href="../../dc/d4d/classserver_1_1ui_client.xhtml#a06de500dff0e31a8367b1988e2a0b414" target="_top" xlink:title="Emitted when the client wants all the events.">
<polygon fill="white" stroke="black" points="159.5,-0.5 159.5,-19.5 288.5,-19.5 288.5,-0.5 159.5,-0.5"/>
<text text-anchor="middle" x="224" y="-7.5" font-family="Helvetica,sans-Serif" font-size="10.00">server::uiClient::getEvents</text>
</a>
</g>
</g>
<!-- Node1&#45;&gt;Node10 -->
<g id="edge11" class="edge"><title>Node1&#45;&gt;Node10</title>
<path fill="none" stroke="midnightblue" d="M68.1293,-120.887C82.8642,-97.7947 114.104,-53.8966 152,-30 156.052,-27.4449 160.436,-25.2095 164.968,-23.2549"/>
<polygon fill="midnightblue" stroke="midnightblue" points="166.339,-26.4774 174.42,-19.6248 163.83,-19.9428 166.339,-26.4774"/>
</g>
<!-- Node2&#45;&gt;Node3 -->
<g id="edge2" class="edge"><title>Node2&#45;&gt;Node3</title>
<path fill="none" stroke="midnightblue" d="M287.74,-231.539C311.467,-236.659 338.242,-242.436 361.089,-247.367"/>
<polygon fill="midnightblue" stroke="midnightblue" points="360.438,-250.807 370.951,-249.495 361.915,-243.964 360.438,-250.807"/>
</g>
<!-- Node4 -->
<g id="node4" class="node"><title>Node4</title>
<g id="a_node4"><a xlink:href="../../d6/d75/namespace_k4_u.xhtml#aaddaee50fab2801df390147891b0c09d" target="_top" xlink:title="K4U::endl">
<polygon fill="white" stroke="black" points="386.5,-208.5 386.5,-227.5 445.5,-227.5 445.5,-208.5 386.5,-208.5"/>
<text text-anchor="middle" x="416" y="-215.5" font-family="Helvetica,sans-Serif" font-size="10.00">K4U::endl</text>
</a>
</g>
</g>
<!-- Node2&#45;&gt;Node4 -->
<g id="edge3" class="edge"><title>Node2&#45;&gt;Node4</title>
<path fill="none" stroke="midnightblue" d="M287.74,-218C317,-218 350.894,-218 376.343,-218"/>
<polygon fill="midnightblue" stroke="midnightblue" points="376.346,-221.5 386.346,-218 376.346,-214.5 376.346,-221.5"/>
</g>
<!-- Node5 -->
<g id="node5" class="node"><title>Node5</title>
<g id="a_node5"><a xlink:href="../../da/d64/class_k4_u_1_1cls_log.xhtml#a81f179b2ccb3e2abeb9b47f5b83de935" target="_top" xlink:title="K4U::clsLog::doEndl">
<polygon fill="white" stroke="black" points="536,-208.5 536,-227.5 642,-227.5 642,-208.5 536,-208.5"/>
<text text-anchor="middle" x="589" y="-215.5" font-family="Helvetica,sans-Serif" font-size="10.00">K4U::clsLog::doEndl</text>
</a>
</g>
</g>
<!-- Node4&#45;&gt;Node5 -->
<g id="edge4" class="edge"><title>Node4&#45;&gt;Node5</title>
<path fill="none" stroke="midnightblue" d="M445.622,-212.808C467.373,-211.378 498.112,-210.932 525.465,-211.471"/>
<polygon fill="midnightblue" stroke="midnightblue" points="525.673,-214.977 535.756,-211.726 525.846,-207.98 525.673,-214.977"/>
</g>
<!-- Node5&#45;&gt;Node4 -->
<g id="edge5" class="edge"><title>Node5&#45;&gt;Node4</title>
<path fill="none" stroke="midnightblue" d="M535.756,-224.274C509.934,-225.051 479.318,-224.877 455.64,-223.753"/>
<polygon fill="midnightblue" stroke="midnightblue" points="455.802,-220.257 445.622,-223.192 455.41,-227.246 455.802,-220.257"/>
</g>
</g>
</svg>
        <g id="navigator" transform="translate(0 0)" fill="#404254">
                <rect fill="#f2f5e9" fill-opacity="0.5" stroke="#606060" stroke-width=".5" x="0" y="0" width="60" height="60"/>
                <use id="zoomplus" xlink:href="#zoomPlus" x="17" y="9" onmousedown="handleZoom(evt,'in')"/>
                <use id="zoomminus" xlink:href="#zoomMin" x="42" y="9" onmousedown="handleZoom(evt,'out')"/>
                <use id="reset" xlink:href="#resetDef" x="30" y="36" onmousedown="handleReset()"/>
                <g id="arrowUp" xlink:href="#dirArrow" transform="translate(30 24)" onmousedown="handlePan(0,-1)">
                  <use xlink:href="#rim" fill="#404040">
                        <set attributeName="fill" to="#808080" begin="arrowUp.mouseover" end="arrowUp.mouseout"/>
                  </use>
                  <path fill="none" stroke="white" stroke-width="1.5" d="M0,-3.0v7 M-2.5,-0.5L0,-3.0L2.5,-0.5"/>
                </g>
                <g id="arrowRight" xlink:href="#dirArrow" transform="rotate(90) translate(36 -43)" onmousedown="handlePan(1,0)">
                  <use xlink:href="#rim" fill="#404040">
                        <set attributeName="fill" to="#808080" begin="arrowRight.mouseover" end="arrowRight.mouseout"/>
                  </use>
                  <path fill="none" stroke="white" stroke-width="1.5" d="M0,-3.0v7 M-2.5,-0.5L0,-3.0L2.5,-0.5"/>
                </g>
                <g id="arrowDown" xlink:href="#dirArrow" transform="rotate(180) translate(-30 -48)" onmousedown="handlePan(0,1)">
                  <use xlink:href="#rim" fill="#404040">
                        <set attributeName="fill" to="#808080" begin="arrowDown.mouseover" end="arrowDown.mouseout"/>
                  </use>
                  <path fill="none" stroke="white" stroke-width="1.5" d="M0,-3.0v7 M-2.5,-0.5L0,-3.0L2.5,-0.5"/>
                </g>
                <g id="arrowLeft" xlink:href="#dirArrow" transform="rotate(270) translate(-36 17)" onmousedown="handlePan(-1,0)">
                  <use xlink:href="#rim" fill="#404040">
                        <set attributeName="fill" to="#808080" begin="arrowLeft.mouseover" end="arrowLeft.mouseout"/>
                  </use>
                  <path fill="none" stroke="white" stroke-width="1.5" d="M0,-3.0v7 M-2.5,-0.5L0,-3.0L2.5,-0.5"/>
                </g>
        </g>
        <svg viewBox="0 0 15 15" width="100%" height="30px" preserveAspectRatio="xMaxYMin meet">
         <g id="arrow_out" transform="scale(0.3 0.3)">
          <a xlink:href="classserver_1_1ui_client_afdda23f96c586fdcb47f1abad7be99f5_cgraph_org.svg" target="_base">
           <rect id="button" ry="5" rx="5" y="6" x="6" height="38" width="38"
                fill="#f2f5e9" fill-opacity="0.5" stroke="#606060" stroke-width="1.0"/>
           <path id="arrow"
             d="M 11.500037,31.436501 C 11.940474,20.09759 22.043105,11.32322 32.158766,21.979434 L 37.068811,17.246167 C 37.068811,17.246167 37.088388,32 37.088388,32 L 22.160133,31.978069 C 22.160133,31.978069 26.997745,27.140456 26.997745,27.140456 C 18.528582,18.264221 13.291696,25.230495 11.500037,31.436501 z"
             style="fill:#404040;"/>
          </a>
         </g>
        </svg>
</svg>
