<?xml version="1.0" encoding="UTF-8" standalone="no"?>
<!DOCTYPE svg PUBLIC "-//W3C//DTD SVG 1.1//EN"
 "http://www.w3.org/Graphics/SVG/1.1/DTD/svg11.dtd">
<!-- Generated by graphviz version 2.30.1 (20130303.0817)
 -->
<!-- Title: server::uiClient::changeOwnUser Pages: 1 -->
<svg width="434pt" height="38pt"
 viewBox="0.00 0.00 434.00 38.00" xmlns="http://www.w3.org/2000/svg" xmlns:xlink="http://www.w3.org/1999/xlink">
<g id="graph0" class="graph" transform="scale(1 1) rotate(0) translate(4 34)">
<title>server::uiClient::changeOwnUser</title>
<polygon fill="white" stroke="white" points="-4,5 -4,-34 431,-34 431,5 -4,5"/>
<!-- Node1 -->
<g id="node1" class="node"><title>Node1</title>
<polygon fill="#bfbfbf" stroke="black" points="0,-0 0,-30 118,-30 118,-0 0,-0"/>
<text text-anchor="start" x="8" y="-18" font-family="Helvetica,sans-Serif" font-size="10.00">server::uiClient::change</text>
<text text-anchor="middle" x="59" y="-7" font-family="Helvetica,sans-Serif" font-size="10.00">OwnUser</text>
</g>
<!-- Node2 -->
<g id="node2" class="node"><title>Node2</title>
<g id="a_node2"><a xlink:href="../../dc/d4d/classserver_1_1ui_client.html#afdda23f96c586fdcb47f1abad7be99f5" target="_top" xlink:title="server::uiClient::receive\lMessage">
<polygon fill="white" stroke="black" points="154,-0 154,-30 270,-30 270,-0 154,-0"/>
<text text-anchor="start" x="162" y="-18" font-family="Helvetica,sans-Serif" font-size="10.00">server::uiClient::receive</text>
<text text-anchor="middle" x="212" y="-7" font-family="Helvetica,sans-Serif" font-size="10.00">Message</text>
</a>
</g>
</g>
<!-- Node1&#45;&gt;Node2 -->
<g id="edge1" class="edge"><title>Node1&#45;&gt;Node2</title>
<path fill="none" stroke="midnightblue" d="M128.571,-15C136.995,-15 145.536,-15 153.769,-15"/>
<polygon fill="midnightblue" stroke="midnightblue" points="128.381,-11.5001 118.381,-15 128.381,-18.5001 128.381,-11.5001"/>
</g>
<!-- Node3 -->
<g id="node3" class="node"><title>Node3</title>
<g id="a_node3"><a xlink:href="../../dc/d4d/classserver_1_1ui_client.html#a215d811cbfada73ff8344ed7e5664113" target="_top" xlink:title="uiClient constructor">
<polygon fill="white" stroke="black" points="306.5,-5.5 306.5,-24.5 425.5,-24.5 425.5,-5.5 306.5,-5.5"/>
<text text-anchor="middle" x="366" y="-12.5" font-family="Helvetica,sans-Serif" font-size="10.00">server::uiClient::uiClient</text>
</a>
</g>
</g>
<!-- Node2&#45;&gt;Node3 -->
<g id="edge2" class="edge"><title>Node2&#45;&gt;Node3</title>
<path fill="none" stroke="midnightblue" d="M280.182,-15C288.914,-15 297.804,-15 306.381,-15"/>
<polygon fill="midnightblue" stroke="midnightblue" points="280.032,-11.5001 270.032,-15 280.032,-18.5001 280.032,-11.5001"/>
</g>
</g>
</svg>
