<?xml version="1.0" encoding="UTF-8" standalone="no"?>
<!DOCTYPE svg PUBLIC "-//W3C//DTD SVG 1.1//EN"
 "http://www.w3.org/Graphics/SVG/1.1/DTD/svg11.dtd">
<!-- Generated by graphviz version 2.30.1 (20130303.0817)
 -->
<!-- Title: client::chatEntry::getWidth Pages: 1 -->
<svg width="834pt" height="147pt"
 viewBox="0.00 0.00 834.00 147.00" xmlns="http://www.w3.org/2000/svg" xmlns:xlink="http://www.w3.org/1999/xlink">
<g id="graph0" class="graph" transform="scale(1 1) rotate(0) translate(4 143)">
<title>client::chatEntry::getWidth</title>
<polygon fill="white" stroke="white" points="-4,5 -4,-143 831,-143 831,5 -4,5"/>
<!-- Node1 -->
<g id="node1" class="node"><title>Node1</title>
<polygon fill="#bfbfbf" stroke="black" points="0,-109 0,-139 94,-139 94,-109 0,-109"/>
<text text-anchor="start" x="8" y="-127" font-family="Helvetica,sans-Serif" font-size="10.00">client::chatEntry::</text>
<text text-anchor="middle" x="47" y="-116" font-family="Helvetica,sans-Serif" font-size="10.00">getWidth</text>
</g>
<!-- Node2 -->
<g id="node2" class="node"><title>Node2</title>
<g id="a_node2"><a xlink:href="../../d5/dfb/classclient_1_1chat_entry.html#a153e1d0693c3069839e04878844b431f" target="_top" xlink:title="client::chatEntry::init">
<polygon fill="white" stroke="black" points="588.5,-76.5 588.5,-95.5 695.5,-95.5 695.5,-76.5 588.5,-76.5"/>
<text text-anchor="middle" x="642" y="-83.5" font-family="Helvetica,sans-Serif" font-size="10.00">client::chatEntry::init</text>
</a>
</g>
</g>
<!-- Node1&#45;&gt;Node2 -->
<g id="edge1" class="edge"><title>Node1&#45;&gt;Node2</title>
<path fill="none" stroke="midnightblue" d="M104.085,-124.004C197.344,-123.461 390.07,-120.007 552,-102 565.887,-100.456 580.875,-98.0514 594.52,-95.5716"/>
<polygon fill="midnightblue" stroke="midnightblue" points="104.006,-120.504 94.0234,-124.053 104.04,-127.504 104.006,-120.504"/>
</g>
<!-- Node4 -->
<g id="node4" class="node"><title>Node4</title>
<g id="a_node4"><a xlink:href="../../d5/dfb/classclient_1_1chat_entry.html#ae663e1a715924f6743c7e9d235ad334b" target="_top" xlink:title="client::chatEntry::\lcalculateMessageWidth">
<polygon fill="white" stroke="black" points="130.5,-68 130.5,-98 251.5,-98 251.5,-68 130.5,-68"/>
<text text-anchor="start" x="138.5" y="-86" font-family="Helvetica,sans-Serif" font-size="10.00">client::chatEntry::</text>
<text text-anchor="middle" x="191" y="-75" font-family="Helvetica,sans-Serif" font-size="10.00">calculateMessageWidth</text>
</a>
</g>
</g>
<!-- Node1&#45;&gt;Node4 -->
<g id="edge3" class="edge"><title>Node1&#45;&gt;Node4</title>
<path fill="none" stroke="midnightblue" d="M103.766,-107.898C114.951,-104.669 126.665,-101.287 137.726,-98.0931"/>
<polygon fill="midnightblue" stroke="midnightblue" points="102.74,-104.552 94.1033,-110.688 104.682,-111.277 102.74,-104.552"/>
</g>
<!-- Node3 -->
<g id="node3" class="node"><title>Node3</title>
<g id="a_node3"><a xlink:href="../../d5/dfb/classclient_1_1chat_entry.html#a242327cb4a358fdbc182147d2fadf00c" target="_top" xlink:title="Constructor not taking a time.">
<polygon fill="white" stroke="black" points="732,-71 732,-101 826,-101 826,-71 732,-71"/>
<text text-anchor="start" x="740" y="-89" font-family="Helvetica,sans-Serif" font-size="10.00">client::chatEntry::</text>
<text text-anchor="middle" x="779" y="-78" font-family="Helvetica,sans-Serif" font-size="10.00">chatEntry</text>
</a>
</g>
</g>
<!-- Node2&#45;&gt;Node3 -->
<g id="edge2" class="edge"><title>Node2&#45;&gt;Node3</title>
<path fill="none" stroke="midnightblue" d="M705.822,-86C714.617,-86 723.52,-86 731.927,-86"/>
<polygon fill="midnightblue" stroke="midnightblue" points="705.581,-82.5001 695.581,-86 705.581,-89.5001 705.581,-82.5001"/>
</g>
<!-- Node4&#45;&gt;Node2 -->
<g id="edge4" class="edge"><title>Node4&#45;&gt;Node2</title>
<path fill="none" stroke="midnightblue" d="M261.89,-87.0653C270.678,-87.4512 279.546,-87.78 288,-88 394.601,-90.7742 519.368,-88.8533 588.36,-87.338"/>
<polygon fill="midnightblue" stroke="midnightblue" points="261.793,-83.5571 251.641,-86.5891 261.468,-90.5495 261.793,-83.5571"/>
</g>
<!-- Node5 -->
<g id="node5" class="node"><title>Node5</title>
<g id="a_node5"><a xlink:href="../../d5/dfb/classclient_1_1chat_entry.html#ac3d69f6791e2497c86fe99c068b832b6" target="_top" xlink:title="Used for setting the width of the nick label after initializing.">
<polygon fill="white" stroke="black" points="288,-49 288,-79 382,-79 382,-49 288,-49"/>
<text text-anchor="start" x="296" y="-67" font-family="Helvetica,sans-Serif" font-size="10.00">client::chatEntry::</text>
<text text-anchor="middle" x="335" y="-56" font-family="Helvetica,sans-Serif" font-size="10.00">setUserWidth</text>
</a>
</g>
</g>
<!-- Node4&#45;&gt;Node5 -->
<g id="edge5" class="edge"><title>Node4&#45;&gt;Node5</title>
<path fill="none" stroke="midnightblue" d="M261.986,-73.6357C270.689,-72.4711 279.413,-71.3038 287.634,-70.2038"/>
<polygon fill="midnightblue" stroke="midnightblue" points="261.257,-70.202 251.809,-74.9974 262.185,-77.1401 261.257,-70.202"/>
</g>
<!-- Node7 -->
<g id="node7" class="node"><title>Node7</title>
<g id="a_node7"><a xlink:href="../../d5/dfb/classclient_1_1chat_entry.html#a853a6468432e8f44e66d335b9dc7ece9" target="_top" xlink:title="client::chatEntry::\lresizeEvent">
<polygon fill="white" stroke="black" points="288,-0 288,-30 382,-30 382,-0 288,-0"/>
<text text-anchor="start" x="296" y="-18" font-family="Helvetica,sans-Serif" font-size="10.00">client::chatEntry::</text>
<text text-anchor="middle" x="335" y="-7" font-family="Helvetica,sans-Serif" font-size="10.00">resizeEvent</text>
</a>
</g>
</g>
<!-- Node4&#45;&gt;Node7 -->
<g id="edge9" class="edge"><title>Node4&#45;&gt;Node7</title>
<path fill="none" stroke="midnightblue" d="M232.703,-63.5082C254.918,-52.8705 282.002,-39.9005 302.574,-30.0492"/>
<polygon fill="midnightblue" stroke="midnightblue" points="231.022,-60.4328 223.514,-67.9086 234.045,-66.7462 231.022,-60.4328"/>
</g>
<!-- Node6 -->
<g id="node6" class="node"><title>Node6</title>
<g id="a_node6"><a xlink:href="../../da/d72/classclient_1_1chat_box.html#a0d33977310a176a78d228eaeb1a0c39d" target="_top" xlink:title="Sets all the user name labels to the same size.">
<polygon fill="white" stroke="black" points="418.5,-49 418.5,-79 551.5,-79 551.5,-49 418.5,-49"/>
<text text-anchor="start" x="426.5" y="-67" font-family="Helvetica,sans-Serif" font-size="10.00">client::chatBox::setAllUser</text>
<text text-anchor="middle" x="485" y="-56" font-family="Helvetica,sans-Serif" font-size="10.00">NameSize</text>
</a>
</g>
</g>
<!-- Node5&#45;&gt;Node6 -->
<g id="edge6" class="edge"><title>Node5&#45;&gt;Node6</title>
<path fill="none" stroke="midnightblue" d="M392.258,-64C400.818,-64 409.715,-64 418.452,-64"/>
<polygon fill="midnightblue" stroke="midnightblue" points="392.017,-60.5001 382.017,-64 392.017,-67.5001 392.017,-60.5001"/>
</g>
<!-- Node5&#45;&gt;Node2 -->
<g id="edge8" class="edge"><title>Node5&#45;&gt;Node2</title>
<path fill="none" stroke="midnightblue" d="M388.749,-46.1774C398.376,-43.6099 408.41,-41.3746 418,-40 476.953,-31.55 494.131,-25.9291 552,-40 580.9,-47.0271 610.902,-65.1908 627.639,-76.4779"/>
<polygon fill="midnightblue" stroke="midnightblue" points="387.576,-42.8714 378.899,-48.951 389.473,-49.6094 387.576,-42.8714"/>
</g>
<!-- Node6&#45;&gt;Node2 -->
<g id="edge7" class="edge"><title>Node6&#45;&gt;Node2</title>
<path fill="none" stroke="midnightblue" d="M561.815,-74.7609C570.778,-76.033 579.771,-77.3095 588.315,-78.5221"/>
<polygon fill="midnightblue" stroke="midnightblue" points="562.127,-71.2701 551.734,-73.33 561.143,-78.2006 562.127,-71.2701"/>
</g>
</g>
</svg>
