<?xml version="1.0" encoding="UTF-8" standalone="no"?>
<!DOCTYPE svg PUBLIC "-//W3C//DTD SVG 1.1//EN"
 "http://www.w3.org/Graphics/SVG/1.1/DTD/svg11.dtd">
<!-- Generated by graphviz version 2.30.1 (20130303.0817)
 -->
<!-- Title: client::chatEntry::setUserWidth Pages: 1 -->
<svg width="546pt" height="61pt"
 viewBox="0.00 0.00 546.00 61.00" xmlns="http://www.w3.org/2000/svg" xmlns:xlink="http://www.w3.org/1999/xlink">
<g id="graph0" class="graph" transform="scale(1 1) rotate(0) translate(4 57)">
<title>client::chatEntry::setUserWidth</title>
<polygon fill="white" stroke="white" points="-4,5 -4,-57 543,-57 543,5 -4,5"/>
<!-- Node1 -->
<g id="node1" class="node"><title>Node1</title>
<polygon fill="#bfbfbf" stroke="black" points="0,-1 0,-31 94,-31 94,-1 0,-1"/>
<text text-anchor="start" x="8" y="-19" font-family="Helvetica,sans-Serif" font-size="10.00">client::chatEntry::</text>
<text text-anchor="middle" x="47" y="-8" font-family="Helvetica,sans-Serif" font-size="10.00">setUserWidth</text>
</g>
<!-- Node2 -->
<g id="node2" class="node"><title>Node2</title>
<g id="a_node2"><a xlink:href="../../da/d72/classclient_1_1chat_box.html#a0d33977310a176a78d228eaeb1a0c39d" target="_top" xlink:title="Sets all the user name labels to the same size.">
<polygon fill="white" stroke="black" points="130.5,-23 130.5,-53 263.5,-53 263.5,-23 130.5,-23"/>
<text text-anchor="start" x="138.5" y="-41" font-family="Helvetica,sans-Serif" font-size="10.00">client::chatBox::setAllUser</text>
<text text-anchor="middle" x="197" y="-30" font-family="Helvetica,sans-Serif" font-size="10.00">NameSize</text>
</a>
</g>
</g>
<!-- Node1&#45;&gt;Node2 -->
<g id="edge1" class="edge"><title>Node1&#45;&gt;Node2</title>
<path fill="none" stroke="midnightblue" d="M103.976,-24.3207C112.623,-25.6061 121.619,-26.9433 130.452,-28.2564"/>
<polygon fill="midnightblue" stroke="midnightblue" points="104.423,-20.8488 94.0168,-22.8403 103.394,-27.7727 104.423,-20.8488"/>
</g>
<!-- Node3 -->
<g id="node3" class="node"><title>Node3</title>
<g id="a_node3"><a xlink:href="../../d5/dfb/classclient_1_1chat_entry.html#a153e1d0693c3069839e04878844b431f" target="_top" xlink:title="client::chatEntry::init">
<polygon fill="white" stroke="black" points="300.5,-6.5 300.5,-25.5 407.5,-25.5 407.5,-6.5 300.5,-6.5"/>
<text text-anchor="middle" x="354" y="-13.5" font-family="Helvetica,sans-Serif" font-size="10.00">client::chatEntry::init</text>
</a>
</g>
</g>
<!-- Node1&#45;&gt;Node3 -->
<g id="edge4" class="edge"><title>Node1&#45;&gt;Node3</title>
<path fill="none" stroke="midnightblue" d="M104.642,-14.4383C113.14,-14.2562 121.8,-14.1 130,-14 189.551,-13.2739 204.448,-13.331 264,-14 275.745,-14.132 288.361,-14.3618 300.295,-14.6199"/>
<polygon fill="midnightblue" stroke="midnightblue" points="104.316,-10.9447 94.3979,-14.6711 104.475,-17.9429 104.316,-10.9447"/>
</g>
<!-- Node2&#45;&gt;Node3 -->
<g id="edge2" class="edge"><title>Node2&#45;&gt;Node3</title>
<path fill="none" stroke="midnightblue" d="M273.815,-27.2391C282.778,-25.967 291.771,-24.6905 300.315,-23.4779"/>
<polygon fill="midnightblue" stroke="midnightblue" points="273.143,-23.7994 263.734,-28.67 274.127,-30.7299 273.143,-23.7994"/>
</g>
<!-- Node4 -->
<g id="node4" class="node"><title>Node4</title>
<g id="a_node4"><a xlink:href="../../d5/dfb/classclient_1_1chat_entry.html#a242327cb4a358fdbc182147d2fadf00c" target="_top" xlink:title="Constructor not taking a time.">
<polygon fill="white" stroke="black" points="444,-1 444,-31 538,-31 538,-1 444,-1"/>
<text text-anchor="start" x="452" y="-19" font-family="Helvetica,sans-Serif" font-size="10.00">client::chatEntry::</text>
<text text-anchor="middle" x="491" y="-8" font-family="Helvetica,sans-Serif" font-size="10.00">chatEntry</text>
</a>
</g>
</g>
<!-- Node3&#45;&gt;Node4 -->
<g id="edge3" class="edge"><title>Node3&#45;&gt;Node4</title>
<path fill="none" stroke="midnightblue" d="M417.822,-16C426.617,-16 435.52,-16 443.927,-16"/>
<polygon fill="midnightblue" stroke="midnightblue" points="417.581,-12.5001 407.581,-16 417.581,-19.5001 417.581,-12.5001"/>
</g>
</g>
</svg>
