<?xml version="1.0" encoding="UTF-8" standalone="no"?>
<!DOCTYPE svg PUBLIC "-//W3C//DTD SVG 1.1//EN"
 "http://www.w3.org/Graphics/SVG/1.1/DTD/svg11.dtd">
<!-- Generated by graphviz version 2.30.1 (20130303.0817)
 -->
<!-- Title: client::chatEntry::chatEntry Pages: 1 -->
<!--zoomable 221 -->
<svg id="main" version="1.1" xmlns="http://www.w3.org/2000/svg" xmlns:xlink="http://www.w3.org/1999/xlink" xml:space="preserve" onload="init(evt)">
        <defs>
                <circle id="rim" cx="0" cy="0" r="7"/>
                <circle id="rim2" cx="0" cy="0" r="3.5"/>
                <g id="zoomPlus">
                        <use xlink:href="#rim" fill="#404040">
                                <set attributeName="fill" to="#808080" begin="zoomplus.mouseover" end="zoomplus.mouseout"/>
                        </use>
                        <path d="M-4,0h8M0,-4v8" fill="none" stroke="white" stroke-width="1.5" pointer-events="none"/>
                </g>
                <g id="zoomMin">
                        <use xlink:href="#rim" fill="#404040">
                                <set attributeName="fill" to="#808080" begin="zoomminus.mouseover" end="zoomminus.mouseout"/>
                        </use>
                        <path d="M-4,0h8" fill="none" stroke="white" stroke-width="1.5" pointer-events="none"/>
                </g>
                <g id="dirArrow">
                        <path fill="none" stroke="white" stroke-width="1.5" d="M0,-3.0v7 M-2.5,-0.5L0,-3.0L2.5,-0.5"/>
                </g>
               <g id="resetDef">
                       <use xlink:href="#rim2" fill="#404040">
                               <set attributeName="fill" to="#808080" begin="reset.mouseover" end="reset.mouseout"/>
                       </use>
               </g>
        </defs>

<script type="text/javascript">
var viewWidth = 834;
var viewHeight = 221;
var sectionId = 'dynsection-3';
</script>
<script xlink:href="../../svgpan.js"/>
<svg id="graph" class="graph">
<g id="viewport">
<title>client::chatEntry::chatEntry</title>
<polygon fill="white" stroke="white" points="-4,5 -4,-216.639 831,-216.639 831,5 -4,5"/>
<!-- Node1 -->
<g id="node1" class="node"><title>Node1</title>
<polygon fill="#bfbfbf" stroke="black" points="0,-92.6387 0,-122.639 94,-122.639 94,-92.6387 0,-92.6387"/>
<text text-anchor="start" x="8" y="-110.639" font-family="Helvetica,sans-Serif" font-size="10.00">client::chatEntry::</text>
<text text-anchor="middle" x="47" y="-99.6387" font-family="Helvetica,sans-Serif" font-size="10.00">chatEntry</text>
</g>
<!-- Node2 -->
<g id="node2" class="node"><title>Node2</title>
<g id="a_node2"><a xlink:href="../../d5/dfb/classclient_1_1chat_entry.html#a153e1d0693c3069839e04878844b431f" target="_top" xlink:title="client::chatEntry::init">
<polygon fill="white" stroke="black" points="130.5,-98.1387 130.5,-117.139 237.5,-117.139 237.5,-98.1387 130.5,-98.1387"/>
<text text-anchor="middle" x="184" y="-105.139" font-family="Helvetica,sans-Serif" font-size="10.00">client::chatEntry::init</text>
</a>
</g>
</g>
<!-- Node1&#45;&gt;Node2 -->
<g id="edge1" class="edge"><title>Node1&#45;&gt;Node2</title>
<path fill="none" stroke="midnightblue" d="M94.0818,-107.639C102.427,-107.639 111.259,-107.639 119.99,-107.639"/>
<polygon fill="midnightblue" stroke="midnightblue" points="120.159,-111.139 130.159,-107.639 120.159,-104.139 120.159,-111.139"/>
</g>
<!-- Node3 -->
<g id="node3" class="node"><title>Node3</title>
<g id="a_node3"><a xlink:href="../../d6/d69/classclient_1_1irc_user.html#aba9ee79c126657f6d31b349f9aa45491" target="_top" xlink:title="client::ircUser::getNick">
<polygon fill="white" stroke="black" points="283,-193.139 283,-212.139 399,-212.139 399,-193.139 283,-193.139"/>
<text text-anchor="middle" x="341" y="-200.139" font-family="Helvetica,sans-Serif" font-size="10.00">client::ircUser::getNick</text>
</a>
</g>
</g>
<!-- Node2&#45;&gt;Node3 -->
<g id="edge2" class="edge"><title>Node2&#45;&gt;Node3</title>
<path fill="none" stroke="midnightblue" d="M193.619,-117.303C208.473,-133.383 240.539,-165.639 274,-183.639 278.177,-185.886 282.65,-187.893 287.226,-189.682"/>
<polygon fill="midnightblue" stroke="midnightblue" points="286.106,-192.998 296.7,-193.05 288.451,-186.402 286.106,-192.998"/>
</g>
<!-- Node4 -->
<g id="node4" class="node"><title>Node4</title>
<g id="a_node4"><a xlink:href="../../d6/d69/classclient_1_1irc_user.html#a7d4549d1722c3dea93d83114c70b8aae" target="_top" xlink:title="client::ircUser::getColor">
<polygon fill="white" stroke="black" points="281.5,-155.139 281.5,-174.139 400.5,-174.139 400.5,-155.139 281.5,-155.139"/>
<text text-anchor="middle" x="341" y="-162.139" font-family="Helvetica,sans-Serif" font-size="10.00">client::ircUser::getColor</text>
</a>
</g>
</g>
<!-- Node2&#45;&gt;Node4 -->
<g id="edge3" class="edge"><title>Node2&#45;&gt;Node4</title>
<path fill="none" stroke="midnightblue" d="M210.689,-117.213C228.458,-123.823 252.652,-132.8 274,-140.639 283.786,-144.232 294.397,-148.102 304.19,-151.664"/>
<polygon fill="midnightblue" stroke="midnightblue" points="303.057,-154.975 313.651,-155.1 305.447,-148.396 303.057,-154.975"/>
</g>
<!-- Node5 -->
<g id="node5" class="node"><title>Node5</title>
<g id="a_node5"><a xlink:href="../../d5/dfb/classclient_1_1chat_entry.html#a23b44a93f980e59387a289c9282b5f78" target="_top" xlink:title="client::chatEntry::\lgetWidth">
<polygon fill="white" stroke="black" points="732,-95.6387 732,-125.639 826,-125.639 826,-95.6387 732,-95.6387"/>
<text text-anchor="start" x="740" y="-113.639" font-family="Helvetica,sans-Serif" font-size="10.00">client::chatEntry::</text>
<text text-anchor="middle" x="779" y="-102.639" font-family="Helvetica,sans-Serif" font-size="10.00">getWidth</text>
</a>
</g>
</g>
<!-- Node2&#45;&gt;Node5 -->
<g id="edge4" class="edge"><title>Node2&#45;&gt;Node5</title>
<path fill="none" stroke="midnightblue" d="M237.625,-107.905C348.812,-108.467 606.802,-109.773 721.397,-110.352"/>
<polygon fill="midnightblue" stroke="midnightblue" points="721.684,-113.854 731.702,-110.405 721.72,-106.854 721.684,-113.854"/>
</g>
<!-- Node6 -->
<g id="node6" class="node"><title>Node6</title>
<g id="a_node6"><a xlink:href="../../d5/dfb/classclient_1_1chat_entry.html#ac3d69f6791e2497c86fe99c068b832b6" target="_top" xlink:title="Used for setting the width of the nick label after initializing.">
<polygon fill="white" stroke="black" points="444,-38.6387 444,-68.6387 538,-68.6387 538,-38.6387 444,-38.6387"/>
<text text-anchor="start" x="452" y="-56.6387" font-family="Helvetica,sans-Serif" font-size="10.00">client::chatEntry::</text>
<text text-anchor="middle" x="491" y="-45.6387" font-family="Helvetica,sans-Serif" font-size="10.00">setUserWidth</text>
</a>
</g>
</g>
<!-- Node2&#45;&gt;Node6 -->
<g id="edge5" class="edge"><title>Node2&#45;&gt;Node6</title>
<path fill="none" stroke="midnightblue" d="M237.737,-98.5349C282.937,-90.7036 349.774,-79.0557 408,-68.6387 416.294,-67.1549 425.056,-65.5702 433.645,-64.0073"/>
<polygon fill="midnightblue" stroke="midnightblue" points="434.4,-67.4274 443.61,-62.1898 433.144,-60.541 434.4,-67.4274"/>
</g>
<!-- Node9 -->
<g id="node9" class="node"><title>Node9</title>
<g id="a_node9"><a xlink:href="../../da/d72/classclient_1_1chat_box.html#a0d33977310a176a78d228eaeb1a0c39d" target="_top" xlink:title="Sets all the user name labels to the same size.">
<polygon fill="white" stroke="black" points="274.5,-29.6387 274.5,-59.6387 407.5,-59.6387 407.5,-29.6387 274.5,-29.6387"/>
<text text-anchor="start" x="282.5" y="-47.6387" font-family="Helvetica,sans-Serif" font-size="10.00">client::chatBox::setAllUser</text>
<text text-anchor="middle" x="341" y="-36.6387" font-family="Helvetica,sans-Serif" font-size="10.00">NameSize</text>
</a>
</g>
</g>
<!-- Node2&#45;&gt;Node9 -->
<g id="edge9" class="edge"><title>Node2&#45;&gt;Node9</title>
<path fill="none" stroke="midnightblue" d="M208.541,-98.0704C230.965,-88.9561 265.354,-74.9787 293.335,-63.6057"/>
<polygon fill="midnightblue" stroke="midnightblue" points="294.989,-66.7116 302.935,-59.7038 292.353,-60.2268 294.989,-66.7116"/>
</g>
<!-- Node7 -->
<g id="node7" class="node"><title>Node7</title>
<g id="a_node7"><a xlink:href="../../d5/dfb/classclient_1_1chat_entry.html#ae663e1a715924f6743c7e9d235ad334b" target="_top" xlink:title="client::chatEntry::\lcalculateMessageWidth">
<polygon fill="white" stroke="black" points="574.5,-38.6387 574.5,-68.6387 695.5,-68.6387 695.5,-38.6387 574.5,-38.6387"/>
<text text-anchor="start" x="582.5" y="-56.6387" font-family="Helvetica,sans-Serif" font-size="10.00">client::chatEntry::</text>
<text text-anchor="middle" x="635" y="-45.6387" font-family="Helvetica,sans-Serif" font-size="10.00">calculateMessageWidth</text>
</a>
</g>
</g>
<!-- Node2&#45;&gt;Node7 -->
<g id="edge11" class="edge"><title>Node2&#45;&gt;Node7</title>
<path fill="none" stroke="midnightblue" d="M191.105,-97.8825C203.766,-78.6961 234.982,-36.5415 274,-20.6387 378.496,21.951 513.783,-11.5596 585.069,-35.2847"/>
<polygon fill="midnightblue" stroke="midnightblue" points="584.098,-38.6515 594.693,-38.5585 586.353,-32.0245 584.098,-38.6515"/>
</g>
<!-- Node6&#45;&gt;Node7 -->
<g id="edge6" class="edge"><title>Node6&#45;&gt;Node7</title>
<path fill="none" stroke="midnightblue" d="M538.103,-53.6387C546.517,-53.6387 555.465,-53.6387 564.384,-53.6387"/>
<polygon fill="midnightblue" stroke="midnightblue" points="564.412,-57.1388 574.412,-53.6387 564.412,-50.1388 564.412,-57.1388"/>
</g>
<!-- Node7&#45;&gt;Node5 -->
<g id="edge7" class="edge"><title>Node7&#45;&gt;Node5</title>
<path fill="none" stroke="midnightblue" d="M673.681,-68.7641C691.173,-75.7855 712.154,-84.2077 730.699,-91.6517"/>
<polygon fill="midnightblue" stroke="midnightblue" points="729.559,-94.9656 740.143,-95.4428 732.167,-88.4694 729.559,-94.9656"/>
</g>
<!-- Node8 -->
<g id="node8" class="node"><title>Node8</title>
<g id="a_node8"><a xlink:href="../../d5/dfb/classclient_1_1chat_entry.html#aacb386fcc022798feb9dd02b43d56861" target="_top" xlink:title="client::chatEntry::\lgetHeight">
<polygon fill="white" stroke="black" points="732,-38.6387 732,-68.6387 826,-68.6387 826,-38.6387 732,-38.6387"/>
<text text-anchor="start" x="740" y="-56.6387" font-family="Helvetica,sans-Serif" font-size="10.00">client::chatEntry::</text>
<text text-anchor="middle" x="779" y="-45.6387" font-family="Helvetica,sans-Serif" font-size="10.00">getHeight</text>
</a>
</g>
</g>
<!-- Node7&#45;&gt;Node8 -->
<g id="edge8" class="edge"><title>Node7&#45;&gt;Node8</title>
<path fill="none" stroke="midnightblue" d="M695.809,-53.6387C704.323,-53.6387 713.058,-53.6387 721.506,-53.6387"/>
<polygon fill="midnightblue" stroke="midnightblue" points="721.634,-57.1388 731.634,-53.6387 721.634,-50.1388 721.634,-57.1388"/>
</g>
<!-- Node9&#45;&gt;Node6 -->
<g id="edge10" class="edge"><title>Node9&#45;&gt;Node6</title>
<path fill="none" stroke="midnightblue" d="M407.777,-48.6387C416.449,-49.166 425.273,-49.7027 433.766,-50.2191"/>
<polygon fill="midnightblue" stroke="midnightblue" points="433.734,-53.7235 443.928,-50.8371 434.159,-46.7364 433.734,-53.7235"/>
</g>
</g>
</svg>
        <g id="navigator" transform="translate(0 0)" fill="#404254">
                <rect fill="#f2f5e9" fill-opacity="0.5" stroke="#606060" stroke-width=".5" x="0" y="0" width="60" height="60"/>
                <use id="zoomplus" xlink:href="#zoomPlus" x="17" y="9" onmousedown="handleZoom(evt,'in')"/>
                <use id="zoomminus" xlink:href="#zoomMin" x="42" y="9" onmousedown="handleZoom(evt,'out')"/>
                <use id="reset" xlink:href="#resetDef" x="30" y="36" onmousedown="handleReset()"/>
                <g id="arrowUp" xlink:href="#dirArrow" transform="translate(30 24)" onmousedown="handlePan(0,-1)">
                  <use xlink:href="#rim" fill="#404040">
                        <set attributeName="fill" to="#808080" begin="arrowUp.mouseover" end="arrowUp.mouseout"/>
                  </use>
                  <path fill="none" stroke="white" stroke-width="1.5" d="M0,-3.0v7 M-2.5,-0.5L0,-3.0L2.5,-0.5"/>
                </g>
                <g id="arrowRight" xlink:href="#dirArrow" transform="rotate(90) translate(36 -43)" onmousedown="handlePan(1,0)">
                  <use xlink:href="#rim" fill="#404040">
                        <set attributeName="fill" to="#808080" begin="arrowRight.mouseover" end="arrowRight.mouseout"/>
                  </use>
                  <path fill="none" stroke="white" stroke-width="1.5" d="M0,-3.0v7 M-2.5,-0.5L0,-3.0L2.5,-0.5"/>
                </g>
                <g id="arrowDown" xlink:href="#dirArrow" transform="rotate(180) translate(-30 -48)" onmousedown="handlePan(0,1)">
                  <use xlink:href="#rim" fill="#404040">
                        <set attributeName="fill" to="#808080" begin="arrowDown.mouseover" end="arrowDown.mouseout"/>
                  </use>
                  <path fill="none" stroke="white" stroke-width="1.5" d="M0,-3.0v7 M-2.5,-0.5L0,-3.0L2.5,-0.5"/>
                </g>
                <g id="arrowLeft" xlink:href="#dirArrow" transform="rotate(270) translate(-36 17)" onmousedown="handlePan(-1,0)">
                  <use xlink:href="#rim" fill="#404040">
                        <set attributeName="fill" to="#808080" begin="arrowLeft.mouseover" end="arrowLeft.mouseout"/>
                  </use>
                  <path fill="none" stroke="white" stroke-width="1.5" d="M0,-3.0v7 M-2.5,-0.5L0,-3.0L2.5,-0.5"/>
                </g>
        </g>
        <svg viewBox="0 0 15 15" width="100%" height="30px" preserveAspectRatio="xMaxYMin meet">
         <g id="arrow_out" transform="scale(0.3 0.3)">
          <a xlink:href="classclient_1_1chat_entry_a0e3b3fa3e530a8ddfe86c2c714620dc3_cgraph_org.svg" target="_base">
           <rect id="button" ry="5" rx="5" y="6" x="6" height="38" width="38"
                fill="#f2f5e9" fill-opacity="0.5" stroke="#606060" stroke-width="1.0"/>
           <path id="arrow"
             d="M 11.500037,31.436501 C 11.940474,20.09759 22.043105,11.32322 32.158766,21.979434 L 37.068811,17.246167 C 37.068811,17.246167 37.088388,32 37.088388,32 L 22.160133,31.978069 C 22.160133,31.978069 26.997745,27.140456 26.997745,27.140456 C 18.528582,18.264221 13.291696,25.230495 11.500037,31.436501 z"
             style="fill:#404040;"/>
          </a>
         </g>
        </svg>
</svg>
