<?xml version="1.0" encoding="UTF-8" standalone="no"?>
<!DOCTYPE svg PUBLIC "-//W3C//DTD SVG 1.1//EN"
 "http://www.w3.org/Graphics/SVG/1.1/DTD/svg11.dtd">
<!-- Generated by graphviz version 2.30.1 (20130303.0817)
 -->
<!-- Title: client::chatEntry::getHeight Pages: 1 -->
<svg width="834pt" height="107pt"
 viewBox="0.00 0.00 834.00 107.22" xmlns="http://www.w3.org/2000/svg" xmlns:xlink="http://www.w3.org/1999/xlink">
<g id="graph0" class="graph" transform="scale(1 1) rotate(0) translate(4 103.221)">
<title>client::chatEntry::getHeight</title>
<polygon fill="white" stroke="white" points="-4,5 -4,-103.221 831,-103.221 831,5 -4,5"/>
<!-- Node1 -->
<g id="node1" class="node"><title>Node1</title>
<polygon fill="#bfbfbf" stroke="black" points="0,-49 0,-79 94,-79 94,-49 0,-49"/>
<text text-anchor="start" x="8" y="-67" font-family="Helvetica,sans-Serif" font-size="10.00">client::chatEntry::</text>
<text text-anchor="middle" x="47" y="-56" font-family="Helvetica,sans-Serif" font-size="10.00">getHeight</text>
</g>
<!-- Node2 -->
<g id="node2" class="node"><title>Node2</title>
<g id="a_node2"><a xlink:href="../../d5/dfb/classclient_1_1chat_entry.html#ae663e1a715924f6743c7e9d235ad334b" target="_top" xlink:title="client::chatEntry::\lcalculateMessageWidth">
<polygon fill="white" stroke="black" points="130.5,-49 130.5,-79 251.5,-79 251.5,-49 130.5,-49"/>
<text text-anchor="start" x="138.5" y="-67" font-family="Helvetica,sans-Serif" font-size="10.00">client::chatEntry::</text>
<text text-anchor="middle" x="191" y="-56" font-family="Helvetica,sans-Serif" font-size="10.00">calculateMessageWidth</text>
</a>
</g>
</g>
<!-- Node1&#45;&gt;Node2 -->
<g id="edge1" class="edge"><title>Node1&#45;&gt;Node2</title>
<path fill="none" stroke="midnightblue" d="M104.364,-64C112.926,-64 121.784,-64 130.412,-64"/>
<polygon fill="midnightblue" stroke="midnightblue" points="104.103,-60.5001 94.1033,-64 104.103,-67.5001 104.103,-60.5001"/>
</g>
<!-- Node3 -->
<g id="node3" class="node"><title>Node3</title>
<g id="a_node3"><a xlink:href="../../d5/dfb/classclient_1_1chat_entry.html#a153e1d0693c3069839e04878844b431f" target="_top" xlink:title="client::chatEntry::init">
<polygon fill="white" stroke="black" points="588.5,-54.5 588.5,-73.5 695.5,-73.5 695.5,-54.5 588.5,-54.5"/>
<text text-anchor="middle" x="642" y="-61.5" font-family="Helvetica,sans-Serif" font-size="10.00">client::chatEntry::init</text>
</a>
</g>
</g>
<!-- Node2&#45;&gt;Node3 -->
<g id="edge2" class="edge"><title>Node2&#45;&gt;Node3</title>
<path fill="none" stroke="midnightblue" d="M252.133,-81.4207C263.928,-84.158 276.278,-86.5569 288,-88 404.454,-102.336 435.683,-103.408 552,-88 572.783,-85.247 595.601,-79.027 612.929,-73.6091"/>
<polygon fill="midnightblue" stroke="midnightblue" points="252.925,-78.0114 242.382,-79.0554 251.275,-84.8141 252.925,-78.0114"/>
</g>
<!-- Node5 -->
<g id="node5" class="node"><title>Node5</title>
<g id="a_node5"><a xlink:href="../../d5/dfb/classclient_1_1chat_entry.html#ac3d69f6791e2497c86fe99c068b832b6" target="_top" xlink:title="Used for setting the width of the nick label after initializing.">
<polygon fill="white" stroke="black" points="288,-49 288,-79 382,-79 382,-49 288,-49"/>
<text text-anchor="start" x="296" y="-67" font-family="Helvetica,sans-Serif" font-size="10.00">client::chatEntry::</text>
<text text-anchor="middle" x="335" y="-56" font-family="Helvetica,sans-Serif" font-size="10.00">setUserWidth</text>
</a>
</g>
</g>
<!-- Node2&#45;&gt;Node5 -->
<g id="edge4" class="edge"><title>Node2&#45;&gt;Node5</title>
<path fill="none" stroke="midnightblue" d="M261.986,-64C270.689,-64 279.413,-64 287.634,-64"/>
<polygon fill="midnightblue" stroke="midnightblue" points="261.809,-60.5001 251.809,-64 261.809,-67.5001 261.809,-60.5001"/>
</g>
<!-- Node7 -->
<g id="node7" class="node"><title>Node7</title>
<g id="a_node7"><a xlink:href="../../d5/dfb/classclient_1_1chat_entry.html#a853a6468432e8f44e66d335b9dc7ece9" target="_top" xlink:title="client::chatEntry::\lresizeEvent">
<polygon fill="white" stroke="black" points="288,-0 288,-30 382,-30 382,-0 288,-0"/>
<text text-anchor="start" x="296" y="-18" font-family="Helvetica,sans-Serif" font-size="10.00">client::chatEntry::</text>
<text text-anchor="middle" x="335" y="-7" font-family="Helvetica,sans-Serif" font-size="10.00">resizeEvent</text>
</a>
</g>
</g>
<!-- Node2&#45;&gt;Node7 -->
<g id="edge8" class="edge"><title>Node2&#45;&gt;Node7</title>
<path fill="none" stroke="midnightblue" d="M245.292,-45.6104C260.078,-40.5084 275.957,-35.0289 290.137,-30.1359"/>
<polygon fill="midnightblue" stroke="midnightblue" points="244.075,-42.328 235.763,-48.8986 246.358,-48.9451 244.075,-42.328"/>
</g>
<!-- Node4 -->
<g id="node4" class="node"><title>Node4</title>
<g id="a_node4"><a xlink:href="../../d5/dfb/classclient_1_1chat_entry.html#a242327cb4a358fdbc182147d2fadf00c" target="_top" xlink:title="Constructor not taking a time.">
<polygon fill="white" stroke="black" points="732,-49 732,-79 826,-79 826,-49 732,-49"/>
<text text-anchor="start" x="740" y="-67" font-family="Helvetica,sans-Serif" font-size="10.00">client::chatEntry::</text>
<text text-anchor="middle" x="779" y="-56" font-family="Helvetica,sans-Serif" font-size="10.00">chatEntry</text>
</a>
</g>
</g>
<!-- Node3&#45;&gt;Node4 -->
<g id="edge3" class="edge"><title>Node3&#45;&gt;Node4</title>
<path fill="none" stroke="midnightblue" d="M705.822,-64C714.617,-64 723.52,-64 731.927,-64"/>
<polygon fill="midnightblue" stroke="midnightblue" points="705.581,-60.5001 695.581,-64 705.581,-67.5001 705.581,-60.5001"/>
</g>
<!-- Node6 -->
<g id="node6" class="node"><title>Node6</title>
<g id="a_node6"><a xlink:href="../../da/d72/classclient_1_1chat_box.html#a0d33977310a176a78d228eaeb1a0c39d" target="_top" xlink:title="Sets all the user name labels to the same size.">
<polygon fill="white" stroke="black" points="418.5,-49 418.5,-79 551.5,-79 551.5,-49 418.5,-49"/>
<text text-anchor="start" x="426.5" y="-67" font-family="Helvetica,sans-Serif" font-size="10.00">client::chatBox::setAllUser</text>
<text text-anchor="middle" x="485" y="-56" font-family="Helvetica,sans-Serif" font-size="10.00">NameSize</text>
</a>
</g>
</g>
<!-- Node5&#45;&gt;Node6 -->
<g id="edge5" class="edge"><title>Node5&#45;&gt;Node6</title>
<path fill="none" stroke="midnightblue" d="M392.258,-64C400.818,-64 409.715,-64 418.452,-64"/>
<polygon fill="midnightblue" stroke="midnightblue" points="392.017,-60.5001 382.017,-64 392.017,-67.5001 392.017,-60.5001"/>
</g>
<!-- Node5&#45;&gt;Node3 -->
<g id="edge7" class="edge"><title>Node5&#45;&gt;Node3</title>
<path fill="none" stroke="midnightblue" d="M388.749,-46.1774C398.376,-43.6099 408.41,-41.3746 418,-40 476.953,-31.55 492.96,-32.1793 552,-40 572.783,-42.753 595.601,-48.973 612.929,-54.3909"/>
<polygon fill="midnightblue" stroke="midnightblue" points="387.576,-42.8714 378.899,-48.951 389.473,-49.6094 387.576,-42.8714"/>
</g>
<!-- Node6&#45;&gt;Node3 -->
<g id="edge6" class="edge"><title>Node6&#45;&gt;Node3</title>
<path fill="none" stroke="midnightblue" d="M561.815,-64C570.778,-64 579.771,-64 588.315,-64"/>
<polygon fill="midnightblue" stroke="midnightblue" points="561.734,-60.5001 551.734,-64 561.734,-67.5001 561.734,-60.5001"/>
</g>
</g>
</svg>
