<?xml version="1.0" encoding="UTF-8" standalone="no"?>
<!DOCTYPE svg PUBLIC "-//W3C//DTD SVG 1.1//EN"
 "http://www.w3.org/Graphics/SVG/1.1/DTD/svg11.dtd">
<!-- Generated by graphviz version 2.30.1 (20130303.0817)
 -->
<!-- Title: client::chatEntry::calculateMessageWidth Pages: 1 -->
<!--zoomable 107 -->
<svg id="main" version="1.1" xmlns="http://www.w3.org/2000/svg" xmlns:xlink="http://www.w3.org/1999/xlink" xml:space="preserve" onload="init(evt)">
        <defs>
                <circle id="rim" cx="0" cy="0" r="7"/>
                <circle id="rim2" cx="0" cy="0" r="3.5"/>
                <g id="zoomPlus">
                        <use xlink:href="#rim" fill="#404040">
                                <set attributeName="fill" to="#808080" begin="zoomplus.mouseover" end="zoomplus.mouseout"/>
                        </use>
                        <path d="M-4,0h8M0,-4v8" fill="none" stroke="white" stroke-width="1.5" pointer-events="none"/>
                </g>
                <g id="zoomMin">
                        <use xlink:href="#rim" fill="#404040">
                                <set attributeName="fill" to="#808080" begin="zoomminus.mouseover" end="zoomminus.mouseout"/>
                        </use>
                        <path d="M-4,0h8" fill="none" stroke="white" stroke-width="1.5" pointer-events="none"/>
                </g>
                <g id="dirArrow">
                        <path fill="none" stroke="white" stroke-width="1.5" d="M0,-3.0v7 M-2.5,-0.5L0,-3.0L2.5,-0.5"/>
                </g>
               <g id="resetDef">
                       <use xlink:href="#rim2" fill="#404040">
                               <set attributeName="fill" to="#808080" begin="reset.mouseover" end="reset.mouseout"/>
                       </use>
               </g>
        </defs>

<script type="text/javascript">
var viewWidth = 704;
var viewHeight = 107;
var sectionId = 'dynsection-5';
</script>
<script xlink:href="../../svgpan.js"/>
<svg id="graph" class="graph">
<g id="viewport">
<title>client::chatEntry::calculateMessageWidth</title>
<polygon fill="white" stroke="white" points="-4,5 -4,-103.221 701,-103.221 701,5 -4,5"/>
<!-- Node1 -->
<g id="node1" class="node"><title>Node1</title>
<polygon fill="#bfbfbf" stroke="black" points="0.5,-49 0.5,-79 121.5,-79 121.5,-49 0.5,-49"/>
<text text-anchor="start" x="8.5" y="-67" font-family="Helvetica,sans-Serif" font-size="10.00">client::chatEntry::</text>
<text text-anchor="middle" x="61" y="-56" font-family="Helvetica,sans-Serif" font-size="10.00">calculateMessageWidth</text>
</g>
<!-- Node2 -->
<g id="node2" class="node"><title>Node2</title>
<g id="a_node2"><a xlink:href="../../d5/dfb/classclient_1_1chat_entry.html#a153e1d0693c3069839e04878844b431f" target="_top" xlink:title="client::chatEntry::init">
<polygon fill="white" stroke="black" points="458.5,-54.5 458.5,-73.5 565.5,-73.5 565.5,-54.5 458.5,-54.5"/>
<text text-anchor="middle" x="512" y="-61.5" font-family="Helvetica,sans-Serif" font-size="10.00">client::chatEntry::init</text>
</a>
</g>
</g>
<!-- Node1&#45;&gt;Node2 -->
<g id="edge1" class="edge"><title>Node1&#45;&gt;Node2</title>
<path fill="none" stroke="midnightblue" d="M122.133,-81.4207C133.928,-84.158 146.278,-86.5569 158,-88 274.454,-102.336 305.683,-103.408 422,-88 442.783,-85.247 465.601,-79.027 482.929,-73.6091"/>
<polygon fill="midnightblue" stroke="midnightblue" points="122.925,-78.0114 112.382,-79.0554 121.275,-84.8141 122.925,-78.0114"/>
</g>
<!-- Node4 -->
<g id="node4" class="node"><title>Node4</title>
<g id="a_node4"><a xlink:href="../../d5/dfb/classclient_1_1chat_entry.html#ac3d69f6791e2497c86fe99c068b832b6" target="_top" xlink:title="Used for setting the width of the nick label after initializing.">
<polygon fill="white" stroke="black" points="158,-49 158,-79 252,-79 252,-49 158,-49"/>
<text text-anchor="start" x="166" y="-67" font-family="Helvetica,sans-Serif" font-size="10.00">client::chatEntry::</text>
<text text-anchor="middle" x="205" y="-56" font-family="Helvetica,sans-Serif" font-size="10.00">setUserWidth</text>
</a>
</g>
</g>
<!-- Node1&#45;&gt;Node4 -->
<g id="edge3" class="edge"><title>Node1&#45;&gt;Node4</title>
<path fill="none" stroke="midnightblue" d="M131.986,-64C140.689,-64 149.413,-64 157.634,-64"/>
<polygon fill="midnightblue" stroke="midnightblue" points="131.809,-60.5001 121.809,-64 131.809,-67.5001 131.809,-60.5001"/>
</g>
<!-- Node6 -->
<g id="node6" class="node"><title>Node6</title>
<g id="a_node6"><a xlink:href="../../d5/dfb/classclient_1_1chat_entry.html#a853a6468432e8f44e66d335b9dc7ece9" target="_top" xlink:title="client::chatEntry::\lresizeEvent">
<polygon fill="white" stroke="black" points="158,-0 158,-30 252,-30 252,-0 158,-0"/>
<text text-anchor="start" x="166" y="-18" font-family="Helvetica,sans-Serif" font-size="10.00">client::chatEntry::</text>
<text text-anchor="middle" x="205" y="-7" font-family="Helvetica,sans-Serif" font-size="10.00">resizeEvent</text>
</a>
</g>
</g>
<!-- Node1&#45;&gt;Node6 -->
<g id="edge7" class="edge"><title>Node1&#45;&gt;Node6</title>
<path fill="none" stroke="midnightblue" d="M115.292,-45.6104C130.078,-40.5084 145.957,-35.0289 160.137,-30.1359"/>
<polygon fill="midnightblue" stroke="midnightblue" points="114.075,-42.328 105.763,-48.8986 116.358,-48.9451 114.075,-42.328"/>
</g>
<!-- Node3 -->
<g id="node3" class="node"><title>Node3</title>
<g id="a_node3"><a xlink:href="../../d5/dfb/classclient_1_1chat_entry.html#a242327cb4a358fdbc182147d2fadf00c" target="_top" xlink:title="Constructor not taking a time.">
<polygon fill="white" stroke="black" points="602,-49 602,-79 696,-79 696,-49 602,-49"/>
<text text-anchor="start" x="610" y="-67" font-family="Helvetica,sans-Serif" font-size="10.00">client::chatEntry::</text>
<text text-anchor="middle" x="649" y="-56" font-family="Helvetica,sans-Serif" font-size="10.00">chatEntry</text>
</a>
</g>
</g>
<!-- Node2&#45;&gt;Node3 -->
<g id="edge2" class="edge"><title>Node2&#45;&gt;Node3</title>
<path fill="none" stroke="midnightblue" d="M575.822,-64C584.617,-64 593.52,-64 601.927,-64"/>
<polygon fill="midnightblue" stroke="midnightblue" points="575.581,-60.5001 565.581,-64 575.581,-67.5001 575.581,-60.5001"/>
</g>
<!-- Node5 -->
<g id="node5" class="node"><title>Node5</title>
<g id="a_node5"><a xlink:href="../../da/d72/classclient_1_1chat_box.html#a0d33977310a176a78d228eaeb1a0c39d" target="_top" xlink:title="Sets all the user name labels to the same size.">
<polygon fill="white" stroke="black" points="288.5,-49 288.5,-79 421.5,-79 421.5,-49 288.5,-49"/>
<text text-anchor="start" x="296.5" y="-67" font-family="Helvetica,sans-Serif" font-size="10.00">client::chatBox::setAllUser</text>
<text text-anchor="middle" x="355" y="-56" font-family="Helvetica,sans-Serif" font-size="10.00">NameSize</text>
</a>
</g>
</g>
<!-- Node4&#45;&gt;Node5 -->
<g id="edge4" class="edge"><title>Node4&#45;&gt;Node5</title>
<path fill="none" stroke="midnightblue" d="M262.258,-64C270.818,-64 279.715,-64 288.452,-64"/>
<polygon fill="midnightblue" stroke="midnightblue" points="262.017,-60.5001 252.017,-64 262.017,-67.5001 262.017,-60.5001"/>
</g>
<!-- Node4&#45;&gt;Node2 -->
<g id="edge6" class="edge"><title>Node4&#45;&gt;Node2</title>
<path fill="none" stroke="midnightblue" d="M258.749,-46.1774C268.376,-43.6099 278.41,-41.3746 288,-40 346.953,-31.55 362.96,-32.1793 422,-40 442.783,-42.753 465.601,-48.973 482.929,-54.3909"/>
<polygon fill="midnightblue" stroke="midnightblue" points="257.576,-42.8714 248.899,-48.951 259.473,-49.6094 257.576,-42.8714"/>
</g>
<!-- Node5&#45;&gt;Node2 -->
<g id="edge5" class="edge"><title>Node5&#45;&gt;Node2</title>
<path fill="none" stroke="midnightblue" d="M431.815,-64C440.778,-64 449.771,-64 458.315,-64"/>
<polygon fill="midnightblue" stroke="midnightblue" points="431.734,-60.5001 421.734,-64 431.734,-67.5001 431.734,-60.5001"/>
</g>
</g>
</svg>
        <g id="navigator" transform="translate(0 0)" fill="#404254">
                <rect fill="#f2f5e9" fill-opacity="0.5" stroke="#606060" stroke-width=".5" x="0" y="0" width="60" height="60"/>
                <use id="zoomplus" xlink:href="#zoomPlus" x="17" y="9" onmousedown="handleZoom(evt,'in')"/>
                <use id="zoomminus" xlink:href="#zoomMin" x="42" y="9" onmousedown="handleZoom(evt,'out')"/>
                <use id="reset" xlink:href="#resetDef" x="30" y="36" onmousedown="handleReset()"/>
                <g id="arrowUp" xlink:href="#dirArrow" transform="translate(30 24)" onmousedown="handlePan(0,-1)">
                  <use xlink:href="#rim" fill="#404040">
                        <set attributeName="fill" to="#808080" begin="arrowUp.mouseover" end="arrowUp.mouseout"/>
                  </use>
                  <path fill="none" stroke="white" stroke-width="1.5" d="M0,-3.0v7 M-2.5,-0.5L0,-3.0L2.5,-0.5"/>
                </g>
                <g id="arrowRight" xlink:href="#dirArrow" transform="rotate(90) translate(36 -43)" onmousedown="handlePan(1,0)">
                  <use xlink:href="#rim" fill="#404040">
                        <set attributeName="fill" to="#808080" begin="arrowRight.mouseover" end="arrowRight.mouseout"/>
                  </use>
                  <path fill="none" stroke="white" stroke-width="1.5" d="M0,-3.0v7 M-2.5,-0.5L0,-3.0L2.5,-0.5"/>
                </g>
                <g id="arrowDown" xlink:href="#dirArrow" transform="rotate(180) translate(-30 -48)" onmousedown="handlePan(0,1)">
                  <use xlink:href="#rim" fill="#404040">
                        <set attributeName="fill" to="#808080" begin="arrowDown.mouseover" end="arrowDown.mouseout"/>
                  </use>
                  <path fill="none" stroke="white" stroke-width="1.5" d="M0,-3.0v7 M-2.5,-0.5L0,-3.0L2.5,-0.5"/>
                </g>
                <g id="arrowLeft" xlink:href="#dirArrow" transform="rotate(270) translate(-36 17)" onmousedown="handlePan(-1,0)">
                  <use xlink:href="#rim" fill="#404040">
                        <set attributeName="fill" to="#808080" begin="arrowLeft.mouseover" end="arrowLeft.mouseout"/>
                  </use>
                  <path fill="none" stroke="white" stroke-width="1.5" d="M0,-3.0v7 M-2.5,-0.5L0,-3.0L2.5,-0.5"/>
                </g>
        </g>
        <svg viewBox="0 0 15 15" width="100%" height="30px" preserveAspectRatio="xMaxYMin meet">
         <g id="arrow_out" transform="scale(0.3 0.3)">
          <a xlink:href="classclient_1_1chat_entry_ae663e1a715924f6743c7e9d235ad334b_icgraph_org.svg" target="_base">
           <rect id="button" ry="5" rx="5" y="6" x="6" height="38" width="38"
                fill="#f2f5e9" fill-opacity="0.5" stroke="#606060" stroke-width="1.0"/>
           <path id="arrow"
             d="M 11.500037,31.436501 C 11.940474,20.09759 22.043105,11.32322 32.158766,21.979434 L 37.068811,17.246167 C 37.068811,17.246167 37.088388,32 37.088388,32 L 22.160133,31.978069 C 22.160133,31.978069 26.997745,27.140456 26.997745,27.140456 C 18.528582,18.264221 13.291696,25.230495 11.500037,31.436501 z"
             style="fill:#404040;"/>
          </a>
         </g>
        </svg>
</svg>
