<?xml version="1.0" encoding="UTF-8" standalone="no"?>
<!DOCTYPE svg PUBLIC "-//W3C//DTD SVG 1.1//EN"
 "http://www.w3.org/Graphics/SVG/1.1/DTD/svg11.dtd">
<!-- Generated by graphviz version 2.30.1 (20130303.0817)
 -->
<!-- Title: client::chatEntry::calculateMessageWidth Pages: 1 -->
<svg width="260pt" height="87pt"
 viewBox="0.00 0.00 260.00 87.00" xmlns="http://www.w3.org/2000/svg" xmlns:xlink="http://www.w3.org/1999/xlink">
<g id="graph0" class="graph" transform="scale(1 1) rotate(0) translate(4 83)">
<title>client::chatEntry::calculateMessageWidth</title>
<polygon fill="white" stroke="white" points="-4,5 -4,-83 257,-83 257,5 -4,5"/>
<!-- Node1 -->
<g id="node1" class="node"><title>Node1</title>
<polygon fill="#bfbfbf" stroke="black" points="0.5,-24 0.5,-54 121.5,-54 121.5,-24 0.5,-24"/>
<text text-anchor="start" x="8.5" y="-42" font-family="Helvetica,sans-Serif" font-size="10.00">client::chatEntry::</text>
<text text-anchor="middle" x="61" y="-31" font-family="Helvetica,sans-Serif" font-size="10.00">calculateMessageWidth</text>
</g>
<!-- Node2 -->
<g id="node2" class="node"><title>Node2</title>
<g id="a_node2"><a xlink:href="../../d5/dfb/classclient_1_1chat_entry.html#a23b44a93f980e59387a289c9282b5f78" target="_top" xlink:title="client::chatEntry::\lgetWidth">
<polygon fill="white" stroke="black" points="158,-49 158,-79 252,-79 252,-49 158,-49"/>
<text text-anchor="start" x="166" y="-67" font-family="Helvetica,sans-Serif" font-size="10.00">client::chatEntry::</text>
<text text-anchor="middle" x="205" y="-56" font-family="Helvetica,sans-Serif" font-size="10.00">getWidth</text>
</a>
</g>
</g>
<!-- Node1&#45;&gt;Node2 -->
<g id="edge1" class="edge"><title>Node1&#45;&gt;Node2</title>
<path fill="none" stroke="midnightblue" d="M121.809,-49.5298C130.417,-51.0452 139.25,-52.6003 147.784,-54.1028"/>
<polygon fill="midnightblue" stroke="midnightblue" points="147.179,-57.55 157.634,-55.837 148.393,-50.6561 147.179,-57.55"/>
</g>
<!-- Node3 -->
<g id="node3" class="node"><title>Node3</title>
<g id="a_node3"><a xlink:href="../../d5/dfb/classclient_1_1chat_entry.html#aacb386fcc022798feb9dd02b43d56861" target="_top" xlink:title="client::chatEntry::\lgetHeight">
<polygon fill="white" stroke="black" points="158,-0 158,-30 252,-30 252,-0 158,-0"/>
<text text-anchor="start" x="166" y="-18" font-family="Helvetica,sans-Serif" font-size="10.00">client::chatEntry::</text>
<text text-anchor="middle" x="205" y="-7" font-family="Helvetica,sans-Serif" font-size="10.00">getHeight</text>
</a>
</g>
</g>
<!-- Node1&#45;&gt;Node3 -->
<g id="edge2" class="edge"><title>Node1&#45;&gt;Node3</title>
<path fill="none" stroke="midnightblue" d="M121.809,-28.8914C130.323,-27.4524 139.058,-25.9762 147.506,-24.5484"/>
<polygon fill="midnightblue" stroke="midnightblue" points="148.358,-27.9541 157.634,-22.8364 147.191,-21.052 148.358,-27.9541"/>
</g>
</g>
</svg>
