<?xml version="1.0" encoding="UTF-8" standalone="no"?>
<!DOCTYPE svg PUBLIC "-//W3C//DTD SVG 1.1//EN"
 "http://www.w3.org/Graphics/SVG/1.1/DTD/svg11.dtd">
<!-- Generated by graphviz version 2.30.1 (20130303.0817)
 -->
<!-- Title: client::chatEntry::init Pages: 1 -->
<svg width="704pt" height="221pt"
 viewBox="0.00 0.00 704.00 220.64" xmlns="http://www.w3.org/2000/svg" xmlns:xlink="http://www.w3.org/1999/xlink">
<g id="graph0" class="graph" transform="scale(1 1) rotate(0) translate(4 216.639)">
<title>client::chatEntry::init</title>
<polygon fill="white" stroke="white" points="-4,5 -4,-216.639 701,-216.639 701,5 -4,5"/>
<!-- Node1 -->
<g id="node1" class="node"><title>Node1</title>
<polygon fill="#bfbfbf" stroke="black" points="0.5,-98.1387 0.5,-117.139 107.5,-117.139 107.5,-98.1387 0.5,-98.1387"/>
<text text-anchor="middle" x="54" y="-105.139" font-family="Helvetica,sans-Serif" font-size="10.00">client::chatEntry::init</text>
</g>
<!-- Node2 -->
<g id="node2" class="node"><title>Node2</title>
<g id="a_node2"><a xlink:href="../../d6/d69/classclient_1_1irc_user.html#aba9ee79c126657f6d31b349f9aa45491" target="_top" xlink:title="client::ircUser::getNick">
<polygon fill="white" stroke="black" points="153,-193.139 153,-212.139 269,-212.139 269,-193.139 153,-193.139"/>
<text text-anchor="middle" x="211" y="-200.139" font-family="Helvetica,sans-Serif" font-size="10.00">client::ircUser::getNick</text>
</a>
</g>
</g>
<!-- Node1&#45;&gt;Node2 -->
<g id="edge1" class="edge"><title>Node1&#45;&gt;Node2</title>
<path fill="none" stroke="midnightblue" d="M63.6188,-117.303C78.4733,-133.383 110.539,-165.639 144,-183.639 148.177,-185.886 152.65,-187.893 157.226,-189.682"/>
<polygon fill="midnightblue" stroke="midnightblue" points="156.106,-192.998 166.7,-193.05 158.451,-186.402 156.106,-192.998"/>
</g>
<!-- Node3 -->
<g id="node3" class="node"><title>Node3</title>
<g id="a_node3"><a xlink:href="../../d6/d69/classclient_1_1irc_user.html#a7d4549d1722c3dea93d83114c70b8aae" target="_top" xlink:title="client::ircUser::getColor">
<polygon fill="white" stroke="black" points="151.5,-155.139 151.5,-174.139 270.5,-174.139 270.5,-155.139 151.5,-155.139"/>
<text text-anchor="middle" x="211" y="-162.139" font-family="Helvetica,sans-Serif" font-size="10.00">client::ircUser::getColor</text>
</a>
</g>
</g>
<!-- Node1&#45;&gt;Node3 -->
<g id="edge2" class="edge"><title>Node1&#45;&gt;Node3</title>
<path fill="none" stroke="midnightblue" d="M80.6889,-117.213C98.4577,-123.823 122.652,-132.8 144,-140.639 153.786,-144.232 164.397,-148.102 174.19,-151.664"/>
<polygon fill="midnightblue" stroke="midnightblue" points="173.057,-154.975 183.651,-155.1 175.447,-148.396 173.057,-154.975"/>
</g>
<!-- Node4 -->
<g id="node4" class="node"><title>Node4</title>
<g id="a_node4"><a xlink:href="../../d5/dfb/classclient_1_1chat_entry.html#a23b44a93f980e59387a289c9282b5f78" target="_top" xlink:title="client::chatEntry::\lgetWidth">
<polygon fill="white" stroke="black" points="602,-95.6387 602,-125.639 696,-125.639 696,-95.6387 602,-95.6387"/>
<text text-anchor="start" x="610" y="-113.639" font-family="Helvetica,sans-Serif" font-size="10.00">client::chatEntry::</text>
<text text-anchor="middle" x="649" y="-102.639" font-family="Helvetica,sans-Serif" font-size="10.00">getWidth</text>
</a>
</g>
</g>
<!-- Node1&#45;&gt;Node4 -->
<g id="edge3" class="edge"><title>Node1&#45;&gt;Node4</title>
<path fill="none" stroke="midnightblue" d="M107.625,-107.905C218.812,-108.467 476.802,-109.773 591.397,-110.352"/>
<polygon fill="midnightblue" stroke="midnightblue" points="591.684,-113.854 601.702,-110.405 591.72,-106.854 591.684,-113.854"/>
</g>
<!-- Node5 -->
<g id="node5" class="node"><title>Node5</title>
<g id="a_node5"><a xlink:href="../../d5/dfb/classclient_1_1chat_entry.html#ac3d69f6791e2497c86fe99c068b832b6" target="_top" xlink:title="Used for setting the width of the nick label after initializing.">
<polygon fill="white" stroke="black" points="314,-38.6387 314,-68.6387 408,-68.6387 408,-38.6387 314,-38.6387"/>
<text text-anchor="start" x="322" y="-56.6387" font-family="Helvetica,sans-Serif" font-size="10.00">client::chatEntry::</text>
<text text-anchor="middle" x="361" y="-45.6387" font-family="Helvetica,sans-Serif" font-size="10.00">setUserWidth</text>
</a>
</g>
</g>
<!-- Node1&#45;&gt;Node5 -->
<g id="edge4" class="edge"><title>Node1&#45;&gt;Node5</title>
<path fill="none" stroke="midnightblue" d="M107.737,-98.5349C152.937,-90.7036 219.774,-79.0557 278,-68.6387 286.294,-67.1549 295.056,-65.5702 303.645,-64.0073"/>
<polygon fill="midnightblue" stroke="midnightblue" points="304.4,-67.4274 313.61,-62.1898 303.144,-60.541 304.4,-67.4274"/>
</g>
<!-- Node8 -->
<g id="node8" class="node"><title>Node8</title>
<g id="a_node8"><a xlink:href="../../da/d72/classclient_1_1chat_box.html#a0d33977310a176a78d228eaeb1a0c39d" target="_top" xlink:title="Sets all the user name labels to the same size.">
<polygon fill="white" stroke="black" points="144.5,-29.6387 144.5,-59.6387 277.5,-59.6387 277.5,-29.6387 144.5,-29.6387"/>
<text text-anchor="start" x="152.5" y="-47.6387" font-family="Helvetica,sans-Serif" font-size="10.00">client::chatBox::setAllUser</text>
<text text-anchor="middle" x="211" y="-36.6387" font-family="Helvetica,sans-Serif" font-size="10.00">NameSize</text>
</a>
</g>
</g>
<!-- Node1&#45;&gt;Node8 -->
<g id="edge8" class="edge"><title>Node1&#45;&gt;Node8</title>
<path fill="none" stroke="midnightblue" d="M78.5412,-98.0704C100.965,-88.9561 135.354,-74.9787 163.335,-63.6057"/>
<polygon fill="midnightblue" stroke="midnightblue" points="164.989,-66.7116 172.935,-59.7038 162.353,-60.2268 164.989,-66.7116"/>
</g>
<!-- Node6 -->
<g id="node6" class="node"><title>Node6</title>
<g id="a_node6"><a xlink:href="../../d5/dfb/classclient_1_1chat_entry.html#ae663e1a715924f6743c7e9d235ad334b" target="_top" xlink:title="client::chatEntry::\lcalculateMessageWidth">
<polygon fill="white" stroke="black" points="444.5,-38.6387 444.5,-68.6387 565.5,-68.6387 565.5,-38.6387 444.5,-38.6387"/>
<text text-anchor="start" x="452.5" y="-56.6387" font-family="Helvetica,sans-Serif" font-size="10.00">client::chatEntry::</text>
<text text-anchor="middle" x="505" y="-45.6387" font-family="Helvetica,sans-Serif" font-size="10.00">calculateMessageWidth</text>
</a>
</g>
</g>
<!-- Node1&#45;&gt;Node6 -->
<g id="edge10" class="edge"><title>Node1&#45;&gt;Node6</title>
<path fill="none" stroke="midnightblue" d="M61.1054,-97.8825C73.7662,-78.6961 104.982,-36.5415 144,-20.6387 248.496,21.951 383.783,-11.5596 455.069,-35.2847"/>
<polygon fill="midnightblue" stroke="midnightblue" points="454.098,-38.6515 464.693,-38.5585 456.353,-32.0245 454.098,-38.6515"/>
</g>
<!-- Node5&#45;&gt;Node6 -->
<g id="edge5" class="edge"><title>Node5&#45;&gt;Node6</title>
<path fill="none" stroke="midnightblue" d="M408.103,-53.6387C416.517,-53.6387 425.465,-53.6387 434.384,-53.6387"/>
<polygon fill="midnightblue" stroke="midnightblue" points="434.412,-57.1388 444.412,-53.6387 434.412,-50.1388 434.412,-57.1388"/>
</g>
<!-- Node6&#45;&gt;Node4 -->
<g id="edge6" class="edge"><title>Node6&#45;&gt;Node4</title>
<path fill="none" stroke="midnightblue" d="M543.681,-68.7641C561.173,-75.7855 582.154,-84.2077 600.699,-91.6517"/>
<polygon fill="midnightblue" stroke="midnightblue" points="599.559,-94.9656 610.143,-95.4428 602.167,-88.4694 599.559,-94.9656"/>
</g>
<!-- Node7 -->
<g id="node7" class="node"><title>Node7</title>
<g id="a_node7"><a xlink:href="../../d5/dfb/classclient_1_1chat_entry.html#aacb386fcc022798feb9dd02b43d56861" target="_top" xlink:title="client::chatEntry::\lgetHeight">
<polygon fill="white" stroke="black" points="602,-38.6387 602,-68.6387 696,-68.6387 696,-38.6387 602,-38.6387"/>
<text text-anchor="start" x="610" y="-56.6387" font-family="Helvetica,sans-Serif" font-size="10.00">client::chatEntry::</text>
<text text-anchor="middle" x="649" y="-45.6387" font-family="Helvetica,sans-Serif" font-size="10.00">getHeight</text>
</a>
</g>
</g>
<!-- Node6&#45;&gt;Node7 -->
<g id="edge7" class="edge"><title>Node6&#45;&gt;Node7</title>
<path fill="none" stroke="midnightblue" d="M565.809,-53.6387C574.323,-53.6387 583.058,-53.6387 591.506,-53.6387"/>
<polygon fill="midnightblue" stroke="midnightblue" points="591.634,-57.1388 601.634,-53.6387 591.634,-50.1388 591.634,-57.1388"/>
</g>
<!-- Node8&#45;&gt;Node5 -->
<g id="edge9" class="edge"><title>Node8&#45;&gt;Node5</title>
<path fill="none" stroke="midnightblue" d="M277.777,-48.6387C286.449,-49.166 295.273,-49.7027 303.766,-50.2191"/>
<polygon fill="midnightblue" stroke="midnightblue" points="303.734,-53.7235 313.928,-50.8371 304.159,-46.7364 303.734,-53.7235"/>
</g>
</g>
</svg>
