<?xml version="1.0" encoding="UTF-8" standalone="no"?>
<!DOCTYPE svg PUBLIC "-//W3C//DTD SVG 1.1//EN"
 "http://www.w3.org/Graphics/SVG/1.1/DTD/svg11.dtd">
<!-- Generated by graphviz version 2.30.1 (20130303.0817)
 -->
<!-- Title: server::clsSettings::clsSettings Pages: 1 -->
<svg width="402pt" height="224pt"
 viewBox="0.00 0.00 402.00 224.00" xmlns="http://www.w3.org/2000/svg" xmlns:xlink="http://www.w3.org/1999/xlink">
<g id="graph0" class="graph" transform="scale(1 1) rotate(0) translate(4 220)">
<title>server::clsSettings::clsSettings</title>
<polygon fill="white" stroke="white" points="-4,5 -4,-220 399,-220 399,5 -4,5"/>
<!-- Node1 -->
<g id="node1" class="node"><title>Node1</title>
<polygon fill="#bfbfbf" stroke="black" points="0.5,-98 0.5,-128 97.5,-128 97.5,-98 0.5,-98"/>
<text text-anchor="start" x="8.5" y="-116" font-family="Helvetica,sans-Serif" font-size="10.00">server::clsSettings</text>
<text text-anchor="middle" x="49" y="-105" font-family="Helvetica,sans-Serif" font-size="10.00">::clsSettings</text>
</g>
<!-- Node2 -->
<g id="node2" class="node"><title>Node2</title>
<g id="a_node2"><a xlink:href="../../d6/d75/namespace_k4_u.html#aaddaee50fab2801df390147891b0c09d" target="_top" xlink:title="K4U::endl">
<polygon fill="white" stroke="black" points="153.5,-196.5 153.5,-215.5 212.5,-215.5 212.5,-196.5 153.5,-196.5"/>
<text text-anchor="middle" x="183" y="-203.5" font-family="Helvetica,sans-Serif" font-size="10.00">K4U::endl</text>
</a>
</g>
</g>
<!-- Node1&#45;&gt;Node2 -->
<g id="edge1" class="edge"><title>Node1&#45;&gt;Node2</title>
<path fill="none" stroke="midnightblue" d="M64.3151,-128.037C80.1718,-144.038 107.072,-169.3 134,-186 137.625,-188.248 141.547,-190.348 145.533,-192.277"/>
<polygon fill="midnightblue" stroke="midnightblue" points="144.284,-195.553 154.84,-196.459 147.153,-189.168 144.284,-195.553"/>
</g>
<!-- Node4 -->
<g id="node4" class="node"><title>Node4</title>
<g id="a_node4"><a xlink:href="../../d7/d81/classserver_1_1cls_settings.html#a52c740c0cbe7683fe82797a11a4fffd0" target="_top" xlink:title="readServer">
<polygon fill="white" stroke="black" points="134.5,-147 134.5,-177 231.5,-177 231.5,-147 134.5,-147"/>
<text text-anchor="start" x="142.5" y="-165" font-family="Helvetica,sans-Serif" font-size="10.00">server::clsSettings</text>
<text text-anchor="middle" x="183" y="-154" font-family="Helvetica,sans-Serif" font-size="10.00">::readServer</text>
</a>
</g>
</g>
<!-- Node1&#45;&gt;Node4 -->
<g id="edge4" class="edge"><title>Node1&#45;&gt;Node4</title>
<path fill="none" stroke="midnightblue" d="M90.6814,-128.101C103.604,-132.899 118.053,-138.262 131.577,-143.282"/>
<polygon fill="midnightblue" stroke="midnightblue" points="130.633,-146.665 141.226,-146.864 133.069,-140.103 130.633,-146.665"/>
</g>
<!-- Node5 -->
<g id="node5" class="node"><title>Node5</title>
<g id="a_node5"><a xlink:href="../../d7/d81/classserver_1_1cls_settings.html#aa4eefe64194d1d21f5c9414355f3f5f3" target="_top" xlink:title="readUsers">
<polygon fill="white" stroke="black" points="134.5,-98 134.5,-128 231.5,-128 231.5,-98 134.5,-98"/>
<text text-anchor="start" x="142.5" y="-116" font-family="Helvetica,sans-Serif" font-size="10.00">server::clsSettings</text>
<text text-anchor="middle" x="183" y="-105" font-family="Helvetica,sans-Serif" font-size="10.00">::readUsers</text>
</a>
</g>
</g>
<!-- Node1&#45;&gt;Node5 -->
<g id="edge5" class="edge"><title>Node1&#45;&gt;Node5</title>
<path fill="none" stroke="midnightblue" d="M97.655,-113C106.254,-113 115.303,-113 124.155,-113"/>
<polygon fill="midnightblue" stroke="midnightblue" points="124.415,-116.5 134.415,-113 124.415,-109.5 124.415,-116.5"/>
</g>
<!-- Node7 -->
<g id="node7" class="node"><title>Node7</title>
<g id="a_node7"><a xlink:href="../../d7/d81/classserver_1_1cls_settings.html#abc09034b2b4c0e9419051b71a4d2d299" target="_top" xlink:title="readUserInfo">
<polygon fill="white" stroke="black" points="134.5,-49 134.5,-79 231.5,-79 231.5,-49 134.5,-49"/>
<text text-anchor="start" x="142.5" y="-67" font-family="Helvetica,sans-Serif" font-size="10.00">server::clsSettings</text>
<text text-anchor="middle" x="183" y="-56" font-family="Helvetica,sans-Serif" font-size="10.00">::readUserInfo</text>
</a>
</g>
</g>
<!-- Node1&#45;&gt;Node7 -->
<g id="edge7" class="edge"><title>Node1&#45;&gt;Node7</title>
<path fill="none" stroke="midnightblue" d="M90.6814,-97.8986C103.604,-93.1015 118.053,-87.7378 131.577,-82.7177"/>
<polygon fill="midnightblue" stroke="midnightblue" points="133.069,-85.8973 141.226,-79.1359 130.633,-79.3348 133.069,-85.8973"/>
</g>
<!-- Node9 -->
<g id="node9" class="node"><title>Node9</title>
<g id="a_node9"><a xlink:href="../../d7/d81/classserver_1_1cls_settings.html#adbc68e6d583e346496479ace0f590000" target="_top" xlink:title="readUiSettings">
<polygon fill="white" stroke="black" points="134.5,-0 134.5,-30 231.5,-30 231.5,-0 134.5,-0"/>
<text text-anchor="start" x="142.5" y="-18" font-family="Helvetica,sans-Serif" font-size="10.00">server::clsSettings</text>
<text text-anchor="middle" x="183" y="-7" font-family="Helvetica,sans-Serif" font-size="10.00">::readUiSettings</text>
</a>
</g>
</g>
<!-- Node1&#45;&gt;Node9 -->
<g id="edge10" class="edge"><title>Node1&#45;&gt;Node9</title>
<path fill="none" stroke="midnightblue" d="M65.1947,-97.8265C81.3628,-82.1702 108.129,-57.6166 134,-40 136.403,-38.3639 138.926,-36.7582 141.505,-35.1993"/>
<polygon fill="midnightblue" stroke="midnightblue" points="143.46,-38.1126 150.397,-30.1039 139.98,-32.0391 143.46,-38.1126"/>
</g>
<!-- Node3 -->
<g id="node3" class="node"><title>Node3</title>
<g id="a_node3"><a xlink:href="../../da/d64/class_k4_u_1_1cls_log.html#a81f179b2ccb3e2abeb9b47f5b83de935" target="_top" xlink:title="K4U::clsLog::doEndl">
<polygon fill="white" stroke="black" points="278,-196.5 278,-215.5 384,-215.5 384,-196.5 278,-196.5"/>
<text text-anchor="middle" x="331" y="-203.5" font-family="Helvetica,sans-Serif" font-size="10.00">K4U::clsLog::doEndl</text>
</a>
</g>
</g>
<!-- Node2&#45;&gt;Node3 -->
<g id="edge2" class="edge"><title>Node2&#45;&gt;Node3</title>
<path fill="none" stroke="midnightblue" d="M212.845,-200.496C228.554,-199.476 248.632,-199.082 267.712,-199.315"/>
<polygon fill="midnightblue" stroke="midnightblue" points="267.809,-202.817 277.872,-199.501 267.938,-195.818 267.809,-202.817"/>
</g>
<!-- Node3&#45;&gt;Node2 -->
<g id="edge3" class="edge"><title>Node3&#45;&gt;Node2</title>
<path fill="none" stroke="midnightblue" d="M277.872,-212.499C259.751,-212.946 239.757,-212.796 222.895,-212.047"/>
<polygon fill="midnightblue" stroke="midnightblue" points="223.019,-208.549 212.845,-211.504 222.641,-215.539 223.019,-208.549"/>
</g>
<!-- Node6 -->
<g id="node6" class="node"><title>Node6</title>
<g id="a_node6"><a xlink:href="../../d2/d29/classserver_1_1irc_user.html#a8a8c4f9d36cf2572239b5b49b794f8c7" target="_top" xlink:title="server::ircUser::setEmail">
<polygon fill="white" stroke="black" points="269.5,-98.5 269.5,-117.5 392.5,-117.5 392.5,-98.5 269.5,-98.5"/>
<text text-anchor="middle" x="331" y="-105.5" font-family="Helvetica,sans-Serif" font-size="10.00">server::ircUser::setEmail</text>
</a>
</g>
</g>
<!-- Node5&#45;&gt;Node6 -->
<g id="edge6" class="edge"><title>Node5&#45;&gt;Node6</title>
<path fill="none" stroke="midnightblue" d="M231.806,-111.363C240.6,-111.062 249.951,-110.741 259.253,-110.423"/>
<polygon fill="midnightblue" stroke="midnightblue" points="259.424,-113.919 269.298,-110.079 259.184,-106.923 259.424,-113.919"/>
</g>
<!-- Node7&#45;&gt;Node6 -->
<g id="edge8" class="edge"><title>Node7&#45;&gt;Node6</title>
<path fill="none" stroke="midnightblue" d="M231.806,-78.4072C250.02,-83.8964 270.619,-90.1044 288.23,-95.4118"/>
<polygon fill="midnightblue" stroke="midnightblue" points="287.629,-98.886 298.213,-98.4204 289.649,-92.1837 287.629,-98.886"/>
</g>
<!-- Node8 -->
<g id="node8" class="node"><title>Node8</title>
<g id="a_node8"><a xlink:href="../../d2/d29/classserver_1_1irc_user.html#a692aec882619dc575ac64ec8fabf02e9" target="_top" xlink:title="server::ircUser::setOnline">
<polygon fill="white" stroke="black" points="268,-54.5 268,-73.5 394,-73.5 394,-54.5 268,-54.5"/>
<text text-anchor="middle" x="331" y="-61.5" font-family="Helvetica,sans-Serif" font-size="10.00">server::ircUser::setOnline</text>
</a>
</g>
</g>
<!-- Node7&#45;&gt;Node8 -->
<g id="edge9" class="edge"><title>Node7&#45;&gt;Node8</title>
<path fill="none" stroke="midnightblue" d="M231.806,-64C240.114,-64 248.919,-64 257.71,-64"/>
<polygon fill="midnightblue" stroke="midnightblue" points="257.994,-67.5001 267.994,-64 257.994,-60.5001 257.994,-67.5001"/>
</g>
</g>
</svg>
