<?xml version="1.0" encoding="UTF-8" standalone="no"?>
<!DOCTYPE svg PUBLIC "-//W3C//DTD SVG 1.1//EN"
 "http://www.w3.org/Graphics/SVG/1.1/DTD/svg11.dtd">
<!-- Generated by graphviz version 2.30.1 (20130303.0817)
 -->
<!-- Title: server::clsSettings::readUserInfo Pages: 1 -->
<svg width="268pt" height="66pt"
 viewBox="0.00 0.00 268.00 66.00" xmlns="http://www.w3.org/2000/svg" xmlns:xlink="http://www.w3.org/1999/xlink">
<g id="graph0" class="graph" transform="scale(1 1) rotate(0) translate(4 62)">
<title>server::clsSettings::readUserInfo</title>
<polygon fill="white" stroke="white" points="-4,5 -4,-62 265,-62 265,5 -4,5"/>
<!-- Node1 -->
<g id="node1" class="node"><title>Node1</title>
<polygon fill="#bfbfbf" stroke="black" points="0.5,-14 0.5,-44 97.5,-44 97.5,-14 0.5,-14"/>
<text text-anchor="start" x="8.5" y="-32" font-family="Helvetica,sans-Serif" font-size="10.00">server::clsSettings</text>
<text text-anchor="middle" x="49" y="-21" font-family="Helvetica,sans-Serif" font-size="10.00">::readUserInfo</text>
</g>
<!-- Node2 -->
<g id="node2" class="node"><title>Node2</title>
<g id="a_node2"><a xlink:href="../../d2/d29/classserver_1_1irc_user.html#a8a8c4f9d36cf2572239b5b49b794f8c7" target="_top" xlink:title="server::ircUser::setEmail">
<polygon fill="white" stroke="black" points="135.5,-38.5 135.5,-57.5 258.5,-57.5 258.5,-38.5 135.5,-38.5"/>
<text text-anchor="middle" x="197" y="-45.5" font-family="Helvetica,sans-Serif" font-size="10.00">server::ircUser::setEmail</text>
</a>
</g>
</g>
<!-- Node1&#45;&gt;Node2 -->
<g id="edge1" class="edge"><title>Node1&#45;&gt;Node2</title>
<path fill="none" stroke="midnightblue" d="M97.8059,-35.2213C106.6,-36.3658 115.951,-37.5827 125.253,-38.7932"/>
<polygon fill="midnightblue" stroke="midnightblue" points="124.93,-42.2806 135.298,-40.1005 125.834,-35.3392 124.93,-42.2806"/>
</g>
<!-- Node3 -->
<g id="node3" class="node"><title>Node3</title>
<g id="a_node3"><a xlink:href="../../d2/d29/classserver_1_1irc_user.html#a692aec882619dc575ac64ec8fabf02e9" target="_top" xlink:title="server::ircUser::setOnline">
<polygon fill="white" stroke="black" points="134,-0.5 134,-19.5 260,-19.5 260,-0.5 134,-0.5"/>
<text text-anchor="middle" x="197" y="-7.5" font-family="Helvetica,sans-Serif" font-size="10.00">server::ircUser::setOnline</text>
</a>
</g>
</g>
<!-- Node1&#45;&gt;Node3 -->
<g id="edge2" class="edge"><title>Node1&#45;&gt;Node3</title>
<path fill="none" stroke="midnightblue" d="M97.8059,-22.7787C106.205,-21.6857 115.111,-20.5267 123.997,-19.3702"/>
<polygon fill="midnightblue" stroke="midnightblue" points="124.529,-22.8306 133.994,-18.0693 123.625,-15.8892 124.529,-22.8306"/>
</g>
</g>
</svg>
