<?xml version="1.0" encoding="UTF-8" standalone="no"?>
<!DOCTYPE svg PUBLIC "-//W3C//DTD SVG 1.1//EN"
 "http://www.w3.org/Graphics/SVG/1.1/DTD/svg11.dtd">
<!-- Generated by graphviz version 2.30.1 (20130303.0817)
 -->
<!-- Title: C++/customIrcServer/ircclient.h Pages: 1 -->
<!--zoomable 208 -->
<svg id="main" version="1.1" xmlns="http://www.w3.org/2000/svg" xmlns:xlink="http://www.w3.org/1999/xlink" xml:space="preserve" onload="init(evt)">
        <defs>
                <circle id="rim" cx="0" cy="0" r="7"/>
                <circle id="rim2" cx="0" cy="0" r="3.5"/>
                <g id="zoomPlus">
                        <use xlink:href="#rim" fill="#404040">
                                <set attributeName="fill" to="#808080" begin="zoomplus.mouseover" end="zoomplus.mouseout"/>
                        </use>
                        <path d="M-4,0h8M0,-4v8" fill="none" stroke="white" stroke-width="1.5" pointer-events="none"/>
                </g>
                <g id="zoomMin">
                        <use xlink:href="#rim" fill="#404040">
                                <set attributeName="fill" to="#808080" begin="zoomminus.mouseover" end="zoomminus.mouseout"/>
                        </use>
                        <path d="M-4,0h8" fill="none" stroke="white" stroke-width="1.5" pointer-events="none"/>
                </g>
                <g id="dirArrow">
                        <path fill="none" stroke="white" stroke-width="1.5" d="M0,-3.0v7 M-2.5,-0.5L0,-3.0L2.5,-0.5"/>
                </g>
               <g id="resetDef">
                       <use xlink:href="#rim2" fill="#404040">
                               <set attributeName="fill" to="#808080" begin="reset.mouseover" end="reset.mouseout"/>
                       </use>
               </g>
        </defs>

<script type="text/javascript">
var viewWidth = 691;
var viewHeight = 208;
var sectionId = 'dynsection-0';
</script>
<script xlink:href="../../svgpan.js"/>
<svg id="graph" class="graph">
<g id="viewport">
<title>C++/customIrcServer/ircclient.h</title>
<polygon fill="white" stroke="white" points="-4,5 -4,-204 687.682,-204 687.682,5 -4,5"/>
<!-- Node1 -->
<g id="node1" class="node"><title>Node1</title>
<polygon fill="#bfbfbf" stroke="black" points="270.682,-169 270.682,-199 378.682,-199 378.682,-169 270.682,-169"/>
<text text-anchor="start" x="278.682" y="-187" font-family="Helvetica,sans-Serif" font-size="10.00">C++/customIrcServer</text>
<text text-anchor="middle" x="324.682" y="-176" font-family="Helvetica,sans-Serif" font-size="10.00">/ircclient.h</text>
</g>
<!-- Node2 -->
<g id="node2" class="node"><title>Node2</title>
<polygon fill="white" stroke="#bfbfbf" points="12.1818,-56.5 12.1818,-75.5 65.1818,-75.5 65.1818,-56.5 12.1818,-56.5"/>
<text text-anchor="middle" x="38.6818" y="-63.5" font-family="Helvetica,sans-Serif" font-size="10.00">QVector</text>
</g>
<!-- Node1&#45;&gt;Node2 -->
<g id="edge1" class="edge"><title>Node1&#45;&gt;Node2</title>
<path fill="none" stroke="midnightblue" d="M270.651,-171.954C233.937,-163.449 184.771,-150.078 143.682,-132 112.057,-118.086 78.6394,-95.9323 58.2181,-81.4262"/>
<polygon fill="midnightblue" stroke="midnightblue" points="60.2124,-78.5492 50.0539,-75.5402 56.1187,-84.2274 60.2124,-78.5492"/>
</g>
<!-- Node3 -->
<g id="node3" class="node"><title>Node3</title>
<polygon fill="white" stroke="#bfbfbf" points="372.182,-112.5 372.182,-131.5 421.182,-131.5 421.182,-112.5 372.182,-112.5"/>
<text text-anchor="middle" x="396.682" y="-119.5" font-family="Helvetica,sans-Serif" font-size="10.00">QBuffer</text>
</g>
<!-- Node1&#45;&gt;Node3 -->
<g id="edge2" class="edge"><title>Node1&#45;&gt;Node3</title>
<path fill="none" stroke="midnightblue" d="M341.745,-168.781C352.747,-159.613 367.047,-147.696 378.299,-138.319"/>
<polygon fill="midnightblue" stroke="midnightblue" points="380.764,-140.821 386.205,-131.731 376.282,-135.444 380.764,-140.821"/>
</g>
<!-- Node4 -->
<g id="node4" class="node"><title>Node4</title>
<polygon fill="white" stroke="#bfbfbf" points="63.6818,-0.5 63.6818,-19.5 113.682,-19.5 113.682,-0.5 63.6818,-0.5"/>
<text text-anchor="middle" x="88.6818" y="-7.5" font-family="Helvetica,sans-Serif" font-size="10.00">QString</text>
</g>
<!-- Node1&#45;&gt;Node4 -->
<g id="edge3" class="edge"><title>Node1&#45;&gt;Node4</title>
<path fill="none" stroke="midnightblue" d="M270.645,-173.692C186.559,-157.882 31.1586,-122.879 3.68176,-76 -11.0879,-50.8012 24.3465,-32.0369 53.8888,-21.3084"/>
<polygon fill="midnightblue" stroke="midnightblue" points="55.2752,-24.5331 63.6006,-17.9804 53.006,-17.9111 55.2752,-24.5331"/>
</g>
<!-- Node5 -->
<g id="node5" class="node"><title>Node5</title>
<polygon fill="white" stroke="#bfbfbf" points="439.682,-112.5 439.682,-131.5 509.682,-131.5 509.682,-112.5 439.682,-112.5"/>
<text text-anchor="middle" x="474.682" y="-119.5" font-family="Helvetica,sans-Serif" font-size="10.00">QTcpSocket</text>
</g>
<!-- Node1&#45;&gt;Node5 -->
<g id="edge4" class="edge"><title>Node1&#45;&gt;Node5</title>
<path fill="none" stroke="midnightblue" d="M359.85,-168.933C385.27,-158.765 419.289,-145.157 443.691,-135.396"/>
<polygon fill="midnightblue" stroke="midnightblue" points="445.197,-138.564 453.182,-131.6 442.597,-132.064 445.197,-138.564"/>
</g>
<!-- Node6 -->
<g id="node6" class="node"><title>Node6</title>
<polygon fill="white" stroke="#bfbfbf" points="280.182,-0.5 280.182,-19.5 345.182,-19.5 345.182,-0.5 280.182,-0.5"/>
<text text-anchor="middle" x="312.682" y="-7.5" font-family="Helvetica,sans-Serif" font-size="10.00">QStringList</text>
</g>
<!-- Node1&#45;&gt;Node6 -->
<g id="edge5" class="edge"><title>Node1&#45;&gt;Node6</title>
<path fill="none" stroke="midnightblue" d="M323.7,-168.925C321.547,-138.073 316.413,-64.4842 313.99,-29.7549"/>
<polygon fill="midnightblue" stroke="midnightblue" points="317.468,-29.3168 313.281,-19.5847 310.485,-29.804 317.468,-29.3168"/>
</g>
<!-- Node7 -->
<g id="node7" class="node"><title>Node7</title>
<polygon fill="white" stroke="#bfbfbf" points="527.682,-112.5 527.682,-131.5 601.682,-131.5 601.682,-112.5 527.682,-112.5"/>
<text text-anchor="middle" x="564.682" y="-119.5" font-family="Helvetica,sans-Serif" font-size="10.00">QTextStream</text>
</g>
<!-- Node1&#45;&gt;Node7 -->
<g id="edge6" class="edge"><title>Node1&#45;&gt;Node7</title>
<path fill="none" stroke="midnightblue" d="M378.842,-169.46C421.666,-158.754 480.692,-143.997 520.643,-134.01"/>
<polygon fill="midnightblue" stroke="midnightblue" points="521.515,-137.4 530.367,-131.579 519.817,-130.609 521.515,-137.4"/>
</g>
<!-- Node8 -->
<g id="node8" class="node"><title>Node8</title>
<g id="a_node8"><a xlink:href="../../df/df2/irc_codes_8h.xhtml" target="_top" xlink:title="ircCodes.h">
<polygon fill="white" stroke="black" points="620.182,-112.5 620.182,-131.5 683.182,-131.5 683.182,-112.5 620.182,-112.5"/>
<text text-anchor="middle" x="651.682" y="-119.5" font-family="Helvetica,sans-Serif" font-size="10.00">ircCodes.h</text>
</a>
</g>
</g>
<!-- Node1&#45;&gt;Node8 -->
<g id="edge7" class="edge"><title>Node1&#45;&gt;Node8</title>
<path fill="none" stroke="midnightblue" d="M378.832,-174.001C434.3,-164.636 523.266,-149.206 609.918,-132.088"/>
<polygon fill="midnightblue" stroke="midnightblue" points="610.797,-135.482 619.924,-130.101 609.434,-128.616 610.797,-135.482"/>
</g>
<!-- Node9 -->
<g id="node9" class="node"><title>Node9</title>
<g id="a_node9"><a xlink:href="../../d8/d5c/functions_8h.xhtml" target="_top" xlink:title="functions.h">
<polygon fill="white" stroke="black" points="213.682,-56.5 213.682,-75.5 277.682,-75.5 277.682,-56.5 213.682,-56.5"/>
<text text-anchor="middle" x="245.682" y="-63.5" font-family="Helvetica,sans-Serif" font-size="10.00">functions.h</text>
</a>
</g>
</g>
<!-- Node1&#45;&gt;Node9 -->
<g id="edge8" class="edge"><title>Node1&#45;&gt;Node9</title>
<path fill="none" stroke="midnightblue" d="M314.995,-168.776C300.437,-147.401 272.964,-107.06 257.333,-84.1083"/>
<polygon fill="midnightblue" stroke="midnightblue" points="260.133,-82.0021 251.612,-75.707 254.348,-85.9424 260.133,-82.0021"/>
</g>
<!-- Node12 -->
<g id="node12" class="node"><title>Node12</title>
<g id="a_node12"><a xlink:href="../../d7/d62/clslog_8h.xhtml" target="_top" xlink:title="../resources/clslog.h">
<polygon fill="white" stroke="black" points="334.182,-56.5 334.182,-75.5 439.182,-75.5 439.182,-56.5 334.182,-56.5"/>
<text text-anchor="middle" x="386.682" y="-63.5" font-family="Helvetica,sans-Serif" font-size="10.00">../resources/clslog.h</text>
</a>
</g>
</g>
<!-- Node1&#45;&gt;Node12 -->
<g id="edge13" class="edge"><title>Node1&#45;&gt;Node12</title>
<path fill="none" stroke="midnightblue" d="M332.284,-168.776C343.607,-147.591 364.888,-107.776 377.208,-84.7245"/>
<polygon fill="midnightblue" stroke="midnightblue" points="380.401,-86.1761 382.028,-75.707 374.227,-82.8765 380.401,-86.1761"/>
</g>
<!-- Node16 -->
<g id="node16" class="node"><title>Node16</title>
<g id="a_node16"><a xlink:href="../../d6/d32/custom_irc_server_2ircuser_8h.xhtml" target="_top" xlink:title="ircuser.h">
<polygon fill="white" stroke="black" points="152.682,-112.5 152.682,-131.5 206.682,-131.5 206.682,-112.5 152.682,-112.5"/>
<text text-anchor="middle" x="179.682" y="-119.5" font-family="Helvetica,sans-Serif" font-size="10.00">ircuser.h</text>
</a>
</g>
</g>
<!-- Node1&#45;&gt;Node16 -->
<g id="edge19" class="edge"><title>Node1&#45;&gt;Node16</title>
<path fill="none" stroke="midnightblue" d="M290.686,-168.933C266.223,-158.81 233.52,-145.278 209.955,-135.527"/>
<polygon fill="midnightblue" stroke="midnightblue" points="211.044,-132.19 200.465,-131.6 208.367,-138.658 211.044,-132.19"/>
</g>
<!-- Node10 -->
<g id="node10" class="node"><title>Node10</title>
<polygon fill="white" stroke="#bfbfbf" points="221.182,-0.5 221.182,-19.5 262.182,-19.5 262.182,-0.5 221.182,-0.5"/>
<text text-anchor="middle" x="241.682" y="-7.5" font-family="Helvetica,sans-Serif" font-size="10.00">string</text>
</g>
<!-- Node9&#45;&gt;Node10 -->
<g id="edge9" class="edge"><title>Node9&#45;&gt;Node10</title>
<path fill="none" stroke="midnightblue" d="M245.021,-56.083C244.497,-49.0059 243.746,-38.8611 243.088,-29.9865"/>
<polygon fill="midnightblue" stroke="midnightblue" points="246.559,-29.4652 242.33,-19.7511 239.578,-29.9823 246.559,-29.4652"/>
</g>
<!-- Node9&#45;&gt;Node4 -->
<g id="edge10" class="edge"><title>Node9&#45;&gt;Node4</title>
<path fill="none" stroke="midnightblue" d="M220.805,-56.4435C194.392,-47.3591 152.467,-32.9388 122.94,-22.7831"/>
<polygon fill="midnightblue" stroke="midnightblue" points="124.037,-19.4593 113.442,-19.5164 121.76,-26.0787 124.037,-19.4593"/>
</g>
<!-- Node9&#45;&gt;Node6 -->
<g id="edge11" class="edge"><title>Node9&#45;&gt;Node6</title>
<path fill="none" stroke="midnightblue" d="M256.446,-56.324C266.448,-48.2631 281.568,-36.0765 293.612,-26.3695"/>
<polygon fill="midnightblue" stroke="midnightblue" points="296.132,-28.8343 301.721,-19.8339 291.739,-23.3841 296.132,-28.8343"/>
</g>
<!-- Node11 -->
<g id="node11" class="node"><title>Node11</title>
<polygon fill="white" stroke="#bfbfbf" points="132.182,-0.5 132.182,-19.5 203.182,-19.5 203.182,-0.5 132.182,-0.5"/>
<text text-anchor="middle" x="167.682" y="-7.5" font-family="Helvetica,sans-Serif" font-size="10.00">QVariantList</text>
</g>
<!-- Node9&#45;&gt;Node11 -->
<g id="edge12" class="edge"><title>Node9&#45;&gt;Node11</title>
<path fill="none" stroke="midnightblue" d="M233.15,-56.324C221.096,-47.979 202.655,-35.2122 188.413,-25.3524"/>
<polygon fill="midnightblue" stroke="midnightblue" points="190.397,-22.469 180.183,-19.6545 186.412,-28.2243 190.397,-22.469"/>
</g>
<!-- Node13 -->
<g id="node13" class="node"><title>Node13</title>
<polygon fill="white" stroke="#bfbfbf" points="363.682,-0.5 363.682,-19.5 415.682,-19.5 415.682,-0.5 363.682,-0.5"/>
<text text-anchor="middle" x="389.682" y="-7.5" font-family="Helvetica,sans-Serif" font-size="10.00">QDebug</text>
</g>
<!-- Node12&#45;&gt;Node13 -->
<g id="edge14" class="edge"><title>Node12&#45;&gt;Node13</title>
<path fill="none" stroke="midnightblue" d="M387.177,-56.083C387.57,-49.0059 388.134,-38.8611 388.627,-29.9865"/>
<polygon fill="midnightblue" stroke="midnightblue" points="392.135,-29.9299 389.196,-19.7511 385.146,-29.5415 392.135,-29.9299"/>
</g>
<!-- Node14 -->
<g id="node14" class="node"><title>Node14</title>
<polygon fill="white" stroke="#bfbfbf" points="434.182,-0.5 434.182,-19.5 499.182,-19.5 499.182,-0.5 434.182,-0.5"/>
<text text-anchor="middle" x="466.682" y="-7.5" font-family="Helvetica,sans-Serif" font-size="10.00">QDateTime</text>
</g>
<!-- Node12&#45;&gt;Node14 -->
<g id="edge15" class="edge"><title>Node12&#45;&gt;Node14</title>
<path fill="none" stroke="midnightblue" d="M399.535,-56.324C411.898,-47.979 430.812,-35.2122 445.419,-25.3524"/>
<polygon fill="midnightblue" stroke="midnightblue" points="447.53,-28.1503 453.86,-19.6545 443.614,-22.3483 447.53,-28.1503"/>
</g>
<!-- Node12&#45;&gt;Node10 -->
<g id="edge16" class="edge"><title>Node12&#45;&gt;Node10</title>
<path fill="none" stroke="midnightblue" d="M363.706,-56.4435C338.814,-47.1732 299.001,-32.3464 271.662,-22.1652"/>
<polygon fill="midnightblue" stroke="midnightblue" points="272.798,-18.8534 262.206,-18.6433 270.355,-25.4133 272.798,-18.8534"/>
</g>
<!-- Node15 -->
<g id="node15" class="node"><title>Node15</title>
<polygon fill="white" stroke="#bfbfbf" points="517.682,-0.5 517.682,-19.5 571.682,-19.5 571.682,-0.5 517.682,-0.5"/>
<text text-anchor="middle" x="544.682" y="-7.5" font-family="Helvetica,sans-Serif" font-size="10.00">iostream</text>
</g>
<!-- Node12&#45;&gt;Node15 -->
<g id="edge17" class="edge"><title>Node12&#45;&gt;Node15</title>
<path fill="none" stroke="midnightblue" d="M411.717,-56.4435C438.298,-47.3591 480.491,-32.9388 510.205,-22.7831"/>
<polygon fill="midnightblue" stroke="midnightblue" points="511.433,-26.0625 519.763,-19.5164 509.169,-19.4386 511.433,-26.0625"/>
</g>
<!-- Node12&#45;&gt;Node6 -->
<g id="edge18" class="edge"><title>Node12&#45;&gt;Node6</title>
<path fill="none" stroke="midnightblue" d="M374.792,-56.324C363.532,-48.1066 346.395,-35.6017 332.973,-25.8069"/>
<polygon fill="midnightblue" stroke="midnightblue" points="334.929,-22.9014 324.787,-19.8339 330.802,-28.5559 334.929,-22.9014"/>
</g>
<!-- Node16&#45;&gt;Node4 -->
<g id="edge20" class="edge"><title>Node16&#45;&gt;Node4</title>
<path fill="none" stroke="midnightblue" d="M160.815,-112.433C145.893,-104.793 125.503,-92.2993 112.682,-76 102.001,-62.4221 95.751,-43.6229 92.3217,-29.7333"/>
<polygon fill="midnightblue" stroke="midnightblue" points="95.7122,-28.8548 90.1454,-19.8403 88.8756,-30.3587 95.7122,-28.8548"/>
</g>
<!-- Node16&#45;&gt;Node2 -->
<g id="edge21" class="edge"><title>Node16&#45;&gt;Node2</title>
<path fill="none" stroke="midnightblue" d="M157.34,-112.444C133.929,-103.478 96.9462,-89.314 70.4921,-79.1827"/>
<polygon fill="midnightblue" stroke="midnightblue" points="71.5095,-75.8245 60.9191,-75.5164 69.0059,-82.3615 71.5095,-75.8245"/>
</g>
<!-- Node17 -->
<g id="node17" class="node"><title>Node17</title>
<polygon fill="white" stroke="#bfbfbf" points="121.682,-56.5 121.682,-75.5 195.682,-75.5 195.682,-56.5 121.682,-56.5"/>
<text text-anchor="middle" x="158.682" y="-63.5" font-family="Helvetica,sans-Serif" font-size="10.00">QVariantMap</text>
</g>
<!-- Node16&#45;&gt;Node17 -->
<g id="edge22" class="edge"><title>Node16&#45;&gt;Node17</title>
<path fill="none" stroke="midnightblue" d="M176.214,-112.083C173.37,-104.77 169.252,-94.1814 165.722,-85.1034"/>
<polygon fill="midnightblue" stroke="midnightblue" points="168.971,-83.8025 162.085,-75.7511 162.447,-86.3397 168.971,-83.8025"/>
</g>
<!-- Node16&#45;&gt;Node9 -->
<g id="edge23" class="edge"><title>Node16&#45;&gt;Node9</title>
<path fill="none" stroke="midnightblue" d="M190.286,-112.324C200.138,-104.263 215.033,-92.0765 226.897,-82.3695"/>
<polygon fill="midnightblue" stroke="midnightblue" points="229.362,-84.8752 234.885,-75.8339 224.929,-79.4575 229.362,-84.8752"/>
</g>
<!-- Node16&#45;&gt;Node12 -->
<g id="edge24" class="edge"><title>Node16&#45;&gt;Node12</title>
<path fill="none" stroke="midnightblue" d="M206.743,-113.94C241.672,-104.829 302.842,-88.8713 344.048,-78.122"/>
<polygon fill="midnightblue" stroke="midnightblue" points="345.014,-81.487 353.807,-75.576 343.247,-74.7137 345.014,-81.487"/>
</g>
</g>
</svg>
        <g id="navigator" transform="translate(0 0)" fill="#404254">
                <rect fill="#f2f5e9" fill-opacity="0.5" stroke="#606060" stroke-width=".5" x="0" y="0" width="60" height="60"/>
                <use id="zoomplus" xlink:href="#zoomPlus" x="17" y="9" onmousedown="handleZoom(evt,'in')"/>
                <use id="zoomminus" xlink:href="#zoomMin" x="42" y="9" onmousedown="handleZoom(evt,'out')"/>
                <use id="reset" xlink:href="#resetDef" x="30" y="36" onmousedown="handleReset()"/>
                <g id="arrowUp" xlink:href="#dirArrow" transform="translate(30 24)" onmousedown="handlePan(0,-1)">
                  <use xlink:href="#rim" fill="#404040">
                        <set attributeName="fill" to="#808080" begin="arrowUp.mouseover" end="arrowUp.mouseout"/>
                  </use>
                  <path fill="none" stroke="white" stroke-width="1.5" d="M0,-3.0v7 M-2.5,-0.5L0,-3.0L2.5,-0.5"/>
                </g>
                <g id="arrowRight" xlink:href="#dirArrow" transform="rotate(90) translate(36 -43)" onmousedown="handlePan(1,0)">
                  <use xlink:href="#rim" fill="#404040">
                        <set attributeName="fill" to="#808080" begin="arrowRight.mouseover" end="arrowRight.mouseout"/>
                  </use>
                  <path fill="none" stroke="white" stroke-width="1.5" d="M0,-3.0v7 M-2.5,-0.5L0,-3.0L2.5,-0.5"/>
                </g>
                <g id="arrowDown" xlink:href="#dirArrow" transform="rotate(180) translate(-30 -48)" onmousedown="handlePan(0,1)">
                  <use xlink:href="#rim" fill="#404040">
                        <set attributeName="fill" to="#808080" begin="arrowDown.mouseover" end="arrowDown.mouseout"/>
                  </use>
                  <path fill="none" stroke="white" stroke-width="1.5" d="M0,-3.0v7 M-2.5,-0.5L0,-3.0L2.5,-0.5"/>
                </g>
                <g id="arrowLeft" xlink:href="#dirArrow" transform="rotate(270) translate(-36 17)" onmousedown="handlePan(-1,0)">
                  <use xlink:href="#rim" fill="#404040">
                        <set attributeName="fill" to="#808080" begin="arrowLeft.mouseover" end="arrowLeft.mouseout"/>
                  </use>
                  <path fill="none" stroke="white" stroke-width="1.5" d="M0,-3.0v7 M-2.5,-0.5L0,-3.0L2.5,-0.5"/>
                </g>
        </g>
        <svg viewBox="0 0 15 15" width="100%" height="30px" preserveAspectRatio="xMaxYMin meet">
         <g id="arrow_out" transform="scale(0.3 0.3)">
          <a xlink:href="ircclient_8h__incl_org.svg" target="_base">
           <rect id="button" ry="5" rx="5" y="6" x="6" height="38" width="38"
                fill="#f2f5e9" fill-opacity="0.5" stroke="#606060" stroke-width="1.0"/>
           <path id="arrow"
             d="M 11.500037,31.436501 C 11.940474,20.09759 22.043105,11.32322 32.158766,21.979434 L 37.068811,17.246167 C 37.068811,17.246167 37.088388,32 37.088388,32 L 22.160133,31.978069 C 22.160133,31.978069 26.997745,27.140456 26.997745,27.140456 C 18.528582,18.264221 13.291696,25.230495 11.500037,31.436501 z"
             style="fill:#404040;"/>
          </a>
         </g>
        </svg>
</svg>
