<?xml version="1.0" encoding="UTF-8" standalone="no"?>
<!DOCTYPE svg PUBLIC "-//W3C//DTD SVG 1.1//EN"
 "http://www.w3.org/Graphics/SVG/1.1/DTD/svg11.dtd">
<!-- Generated by graphviz version 2.30.1 (20130303.0817)
 -->
<!-- Title: C++/customIrcServer/ircclient.h Pages: 1 -->
<svg width="757pt" height="208pt"
 viewBox="0.00 0.00 756.68 208.00" xmlns="http://www.w3.org/2000/svg" xmlns:xlink="http://www.w3.org/1999/xlink">
<g id="graph0" class="graph" transform="scale(1 1) rotate(0) translate(4 204)">
<title>C++/customIrcServer/ircclient.h</title>
<polygon fill="white" stroke="white" points="-4,5 -4,-204 753.682,-204 753.682,5 -4,5"/>
<!-- Node1 -->
<g id="node1" class="node"><title>Node1</title>
<polygon fill="#bfbfbf" stroke="black" points="289.682,-169 289.682,-199 397.682,-199 397.682,-169 289.682,-169"/>
<text text-anchor="start" x="297.682" y="-187" font-family="Helvetica,sans-Serif" font-size="10.00">C++/customIrcServer</text>
<text text-anchor="middle" x="343.682" y="-176" font-family="Helvetica,sans-Serif" font-size="10.00">/ircclient.h</text>
</g>
<!-- Node2 -->
<g id="node2" class="node"><title>Node2</title>
<polygon fill="white" stroke="#bfbfbf" points="12.1818,-56.5 12.1818,-75.5 65.1818,-75.5 65.1818,-56.5 12.1818,-56.5"/>
<text text-anchor="middle" x="38.6818" y="-63.5" font-family="Helvetica,sans-Serif" font-size="10.00">QVector</text>
</g>
<!-- Node1&#45;&gt;Node2 -->
<g id="edge1" class="edge"><title>Node1&#45;&gt;Node2</title>
<path fill="none" stroke="midnightblue" d="M289.602,-173.849C248.514,-165.802 191.168,-152.189 143.682,-132 111.886,-118.482 78.5126,-96.2256 58.1476,-81.5892"/>
<polygon fill="midnightblue" stroke="midnightblue" points="60.1484,-78.7164 50.0085,-75.645 56.0199,-84.3694 60.1484,-78.7164"/>
</g>
<!-- Node3 -->
<g id="node3" class="node"><title>Node3</title>
<polygon fill="white" stroke="#bfbfbf" points="371.682,-112.5 371.682,-131.5 419.682,-131.5 419.682,-112.5 371.682,-112.5"/>
<text text-anchor="middle" x="395.682" y="-119.5" font-family="Helvetica,sans-Serif" font-size="10.00">QTimer</text>
</g>
<!-- Node1&#45;&gt;Node3 -->
<g id="edge2" class="edge"><title>Node1&#45;&gt;Node3</title>
<path fill="none" stroke="midnightblue" d="M356.005,-168.781C363.639,-159.972 373.472,-148.626 381.44,-139.433"/>
<polygon fill="midnightblue" stroke="midnightblue" points="384.211,-141.58 388.115,-131.731 378.921,-136.995 384.211,-141.58"/>
</g>
<!-- Node4 -->
<g id="node4" class="node"><title>Node4</title>
<polygon fill="white" stroke="#bfbfbf" points="438.182,-112.5 438.182,-131.5 487.182,-131.5 487.182,-112.5 438.182,-112.5"/>
<text text-anchor="middle" x="462.682" y="-119.5" font-family="Helvetica,sans-Serif" font-size="10.00">QBuffer</text>
</g>
<!-- Node1&#45;&gt;Node4 -->
<g id="edge3" class="edge"><title>Node1&#45;&gt;Node4</title>
<path fill="none" stroke="midnightblue" d="M371.582,-168.933C391.211,-159.036 417.303,-145.88 436.531,-136.185"/>
<polygon fill="midnightblue" stroke="midnightblue" points="438.272,-139.227 445.625,-131.6 435.12,-132.977 438.272,-139.227"/>
</g>
<!-- Node5 -->
<g id="node5" class="node"><title>Node5</title>
<polygon fill="white" stroke="#bfbfbf" points="63.6818,-0.5 63.6818,-19.5 113.682,-19.5 113.682,-0.5 63.6818,-0.5"/>
<text text-anchor="middle" x="88.6818" y="-7.5" font-family="Helvetica,sans-Serif" font-size="10.00">QString</text>
</g>
<!-- Node1&#45;&gt;Node5 -->
<g id="edge4" class="edge"><title>Node1&#45;&gt;Node5</title>
<path fill="none" stroke="midnightblue" d="M289.627,-174.809C201.321,-160.093 32.9785,-125.984 3.68176,-76 -11.0879,-50.8012 24.3465,-32.0369 53.8888,-21.3084"/>
<polygon fill="midnightblue" stroke="midnightblue" points="55.2752,-24.5331 63.6006,-17.9804 53.006,-17.9111 55.2752,-24.5331"/>
</g>
<!-- Node6 -->
<g id="node6" class="node"><title>Node6</title>
<polygon fill="white" stroke="#bfbfbf" points="505.682,-112.5 505.682,-131.5 575.682,-131.5 575.682,-112.5 505.682,-112.5"/>
<text text-anchor="middle" x="540.682" y="-119.5" font-family="Helvetica,sans-Serif" font-size="10.00">QTcpSocket</text>
</g>
<!-- Node1&#45;&gt;Node6 -->
<g id="edge5" class="edge"><title>Node1&#45;&gt;Node6</title>
<path fill="none" stroke="midnightblue" d="M389.87,-168.933C424.247,-158.462 470.601,-144.345 502.806,-134.536"/>
<polygon fill="midnightblue" stroke="midnightblue" points="504.185,-137.774 512.732,-131.513 502.146,-131.078 504.185,-137.774"/>
</g>
<!-- Node7 -->
<g id="node7" class="node"><title>Node7</title>
<polygon fill="white" stroke="#bfbfbf" points="280.182,-0.5 280.182,-19.5 345.182,-19.5 345.182,-0.5 280.182,-0.5"/>
<text text-anchor="middle" x="312.682" y="-7.5" font-family="Helvetica,sans-Serif" font-size="10.00">QStringList</text>
</g>
<!-- Node1&#45;&gt;Node7 -->
<g id="edge6" class="edge"><title>Node1&#45;&gt;Node7</title>
<path fill="none" stroke="midnightblue" d="M341.145,-168.925C335.584,-138.073 322.321,-64.4842 316.062,-29.7549"/>
<polygon fill="midnightblue" stroke="midnightblue" points="319.447,-28.8053 314.229,-19.5847 312.558,-30.0469 319.447,-28.8053"/>
</g>
<!-- Node8 -->
<g id="node8" class="node"><title>Node8</title>
<polygon fill="white" stroke="#bfbfbf" points="593.682,-112.5 593.682,-131.5 667.682,-131.5 667.682,-112.5 593.682,-112.5"/>
<text text-anchor="middle" x="630.682" y="-119.5" font-family="Helvetica,sans-Serif" font-size="10.00">QTextStream</text>
</g>
<!-- Node1&#45;&gt;Node8 -->
<g id="edge7" class="edge"><title>Node1&#45;&gt;Node8</title>
<path fill="none" stroke="midnightblue" d="M398.002,-171.644C451.518,-160.456 532.45,-143.536 583.391,-132.887"/>
<polygon fill="midnightblue" stroke="midnightblue" points="584.402,-136.251 593.474,-130.779 582.969,-129.399 584.402,-136.251"/>
</g>
<!-- Node9 -->
<g id="node9" class="node"><title>Node9</title>
<g id="a_node9"><a xlink:href="../../df/df2/irc_codes_8h.html" target="_top" xlink:title="ircCodes.h">
<polygon fill="white" stroke="black" points="686.182,-112.5 686.182,-131.5 749.182,-131.5 749.182,-112.5 686.182,-112.5"/>
<text text-anchor="middle" x="717.682" y="-119.5" font-family="Helvetica,sans-Serif" font-size="10.00">ircCodes.h</text>
</a>
</g>
</g>
<!-- Node1&#45;&gt;Node9 -->
<g id="edge8" class="edge"><title>Node1&#45;&gt;Node9</title>
<path fill="none" stroke="midnightblue" d="M397.788,-175.8C461.76,-167.045 571.652,-151.248 675.872,-132.047"/>
<polygon fill="midnightblue" stroke="midnightblue" points="676.745,-135.445 685.939,-130.179 675.468,-128.563 676.745,-135.445"/>
</g>
<!-- Node10 -->
<g id="node10" class="node"><title>Node10</title>
<g id="a_node10"><a xlink:href="../../d8/d5c/functions_8h.html" target="_top" xlink:title="functions.h">
<polygon fill="white" stroke="black" points="213.682,-56.5 213.682,-75.5 277.682,-75.5 277.682,-56.5 213.682,-56.5"/>
<text text-anchor="middle" x="245.682" y="-63.5" font-family="Helvetica,sans-Serif" font-size="10.00">functions.h</text>
</a>
</g>
</g>
<!-- Node1&#45;&gt;Node10 -->
<g id="edge9" class="edge"><title>Node1&#45;&gt;Node10</title>
<path fill="none" stroke="midnightblue" d="M327.934,-168.95C317.223,-159.067 302.997,-145.285 291.682,-132 278.698,-116.756 265.681,-97.9535 256.824,-84.4997"/>
<polygon fill="midnightblue" stroke="midnightblue" points="259.547,-82.2644 251.171,-75.7758 253.672,-86.0712 259.547,-82.2644"/>
</g>
<!-- Node13 -->
<g id="node13" class="node"><title>Node13</title>
<g id="a_node13"><a xlink:href="../../d7/d62/clslog_8h.html" target="_top" xlink:title="../resources/clslog.h">
<polygon fill="white" stroke="black" points="334.182,-56.5 334.182,-75.5 439.182,-75.5 439.182,-56.5 334.182,-56.5"/>
<text text-anchor="middle" x="386.682" y="-63.5" font-family="Helvetica,sans-Serif" font-size="10.00">../resources/clslog.h</text>
</a>
</g>
</g>
<!-- Node1&#45;&gt;Node13 -->
<g id="edge14" class="edge"><title>Node1&#45;&gt;Node13</title>
<path fill="none" stroke="midnightblue" d="M346.475,-168.82C349.572,-154.266 355.143,-131.111 362.682,-112 366.377,-102.631 371.527,-92.7033 376.109,-84.5634"/>
<polygon fill="midnightblue" stroke="midnightblue" points="379.275,-86.0819 381.281,-75.6786 373.225,-82.5604 379.275,-86.0819"/>
</g>
<!-- Node17 -->
<g id="node17" class="node"><title>Node17</title>
<g id="a_node17"><a xlink:href="../../d6/d32/custom_irc_server_2ircuser_8h.html" target="_top" xlink:title="ircuser.h">
<polygon fill="white" stroke="black" points="152.682,-112.5 152.682,-131.5 206.682,-131.5 206.682,-112.5 152.682,-112.5"/>
<text text-anchor="middle" x="179.682" y="-119.5" font-family="Helvetica,sans-Serif" font-size="10.00">ircuser.h</text>
</a>
</g>
</g>
<!-- Node1&#45;&gt;Node17 -->
<g id="edge20" class="edge"><title>Node1&#45;&gt;Node17</title>
<path fill="none" stroke="midnightblue" d="M305.231,-168.933C277.192,-158.674 239.582,-144.915 212.856,-135.137"/>
<polygon fill="midnightblue" stroke="midnightblue" points="213.782,-131.749 203.188,-131.6 211.377,-138.323 213.782,-131.749"/>
</g>
<!-- Node11 -->
<g id="node11" class="node"><title>Node11</title>
<polygon fill="white" stroke="#bfbfbf" points="221.182,-0.5 221.182,-19.5 262.182,-19.5 262.182,-0.5 221.182,-0.5"/>
<text text-anchor="middle" x="241.682" y="-7.5" font-family="Helvetica,sans-Serif" font-size="10.00">string</text>
</g>
<!-- Node10&#45;&gt;Node11 -->
<g id="edge10" class="edge"><title>Node10&#45;&gt;Node11</title>
<path fill="none" stroke="midnightblue" d="M245.021,-56.083C244.497,-49.0059 243.746,-38.8611 243.088,-29.9865"/>
<polygon fill="midnightblue" stroke="midnightblue" points="246.559,-29.4652 242.33,-19.7511 239.578,-29.9823 246.559,-29.4652"/>
</g>
<!-- Node10&#45;&gt;Node5 -->
<g id="edge11" class="edge"><title>Node10&#45;&gt;Node5</title>
<path fill="none" stroke="midnightblue" d="M220.805,-56.4435C194.392,-47.3591 152.467,-32.9388 122.94,-22.7831"/>
<polygon fill="midnightblue" stroke="midnightblue" points="124.037,-19.4593 113.442,-19.5164 121.76,-26.0787 124.037,-19.4593"/>
</g>
<!-- Node10&#45;&gt;Node7 -->
<g id="edge12" class="edge"><title>Node10&#45;&gt;Node7</title>
<path fill="none" stroke="midnightblue" d="M256.446,-56.324C266.448,-48.2631 281.568,-36.0765 293.612,-26.3695"/>
<polygon fill="midnightblue" stroke="midnightblue" points="296.132,-28.8343 301.721,-19.8339 291.739,-23.3841 296.132,-28.8343"/>
</g>
<!-- Node12 -->
<g id="node12" class="node"><title>Node12</title>
<polygon fill="white" stroke="#bfbfbf" points="132.182,-0.5 132.182,-19.5 203.182,-19.5 203.182,-0.5 132.182,-0.5"/>
<text text-anchor="middle" x="167.682" y="-7.5" font-family="Helvetica,sans-Serif" font-size="10.00">QVariantList</text>
</g>
<!-- Node10&#45;&gt;Node12 -->
<g id="edge13" class="edge"><title>Node10&#45;&gt;Node12</title>
<path fill="none" stroke="midnightblue" d="M233.15,-56.324C221.096,-47.979 202.655,-35.2122 188.413,-25.3524"/>
<polygon fill="midnightblue" stroke="midnightblue" points="190.397,-22.469 180.183,-19.6545 186.412,-28.2243 190.397,-22.469"/>
</g>
<!-- Node14 -->
<g id="node14" class="node"><title>Node14</title>
<polygon fill="white" stroke="#bfbfbf" points="363.682,-0.5 363.682,-19.5 415.682,-19.5 415.682,-0.5 363.682,-0.5"/>
<text text-anchor="middle" x="389.682" y="-7.5" font-family="Helvetica,sans-Serif" font-size="10.00">QDebug</text>
</g>
<!-- Node13&#45;&gt;Node14 -->
<g id="edge15" class="edge"><title>Node13&#45;&gt;Node14</title>
<path fill="none" stroke="midnightblue" d="M387.177,-56.083C387.57,-49.0059 388.134,-38.8611 388.627,-29.9865"/>
<polygon fill="midnightblue" stroke="midnightblue" points="392.135,-29.9299 389.196,-19.7511 385.146,-29.5415 392.135,-29.9299"/>
</g>
<!-- Node15 -->
<g id="node15" class="node"><title>Node15</title>
<polygon fill="white" stroke="#bfbfbf" points="434.182,-0.5 434.182,-19.5 499.182,-19.5 499.182,-0.5 434.182,-0.5"/>
<text text-anchor="middle" x="466.682" y="-7.5" font-family="Helvetica,sans-Serif" font-size="10.00">QDateTime</text>
</g>
<!-- Node13&#45;&gt;Node15 -->
<g id="edge16" class="edge"><title>Node13&#45;&gt;Node15</title>
<path fill="none" stroke="midnightblue" d="M399.535,-56.324C411.898,-47.979 430.812,-35.2122 445.419,-25.3524"/>
<polygon fill="midnightblue" stroke="midnightblue" points="447.53,-28.1503 453.86,-19.6545 443.614,-22.3483 447.53,-28.1503"/>
</g>
<!-- Node13&#45;&gt;Node11 -->
<g id="edge17" class="edge"><title>Node13&#45;&gt;Node11</title>
<path fill="none" stroke="midnightblue" d="M363.706,-56.4435C338.814,-47.1732 299.001,-32.3464 271.662,-22.1652"/>
<polygon fill="midnightblue" stroke="midnightblue" points="272.798,-18.8534 262.206,-18.6433 270.355,-25.4133 272.798,-18.8534"/>
</g>
<!-- Node16 -->
<g id="node16" class="node"><title>Node16</title>
<polygon fill="white" stroke="#bfbfbf" points="517.682,-0.5 517.682,-19.5 571.682,-19.5 571.682,-0.5 517.682,-0.5"/>
<text text-anchor="middle" x="544.682" y="-7.5" font-family="Helvetica,sans-Serif" font-size="10.00">iostream</text>
</g>
<!-- Node13&#45;&gt;Node16 -->
<g id="edge18" class="edge"><title>Node13&#45;&gt;Node16</title>
<path fill="none" stroke="midnightblue" d="M411.717,-56.4435C438.298,-47.3591 480.491,-32.9388 510.205,-22.7831"/>
<polygon fill="midnightblue" stroke="midnightblue" points="511.433,-26.0625 519.763,-19.5164 509.169,-19.4386 511.433,-26.0625"/>
</g>
<!-- Node13&#45;&gt;Node7 -->
<g id="edge19" class="edge"><title>Node13&#45;&gt;Node7</title>
<path fill="none" stroke="midnightblue" d="M374.792,-56.324C363.532,-48.1066 346.395,-35.6017 332.973,-25.8069"/>
<polygon fill="midnightblue" stroke="midnightblue" points="334.929,-22.9014 324.787,-19.8339 330.802,-28.5559 334.929,-22.9014"/>
</g>
<!-- Node17&#45;&gt;Node5 -->
<g id="edge21" class="edge"><title>Node17&#45;&gt;Node5</title>
<path fill="none" stroke="midnightblue" d="M160.815,-112.433C145.893,-104.793 125.503,-92.2993 112.682,-76 102.001,-62.4221 95.751,-43.6229 92.3217,-29.7333"/>
<polygon fill="midnightblue" stroke="midnightblue" points="95.7122,-28.8548 90.1454,-19.8403 88.8756,-30.3587 95.7122,-28.8548"/>
</g>
<!-- Node17&#45;&gt;Node2 -->
<g id="edge22" class="edge"><title>Node17&#45;&gt;Node2</title>
<path fill="none" stroke="midnightblue" d="M157.34,-112.444C133.929,-103.478 96.9462,-89.314 70.4921,-79.1827"/>
<polygon fill="midnightblue" stroke="midnightblue" points="71.5095,-75.8245 60.9191,-75.5164 69.0059,-82.3615 71.5095,-75.8245"/>
</g>
<!-- Node18 -->
<g id="node18" class="node"><title>Node18</title>
<polygon fill="white" stroke="#bfbfbf" points="121.682,-56.5 121.682,-75.5 195.682,-75.5 195.682,-56.5 121.682,-56.5"/>
<text text-anchor="middle" x="158.682" y="-63.5" font-family="Helvetica,sans-Serif" font-size="10.00">QVariantMap</text>
</g>
<!-- Node17&#45;&gt;Node18 -->
<g id="edge23" class="edge"><title>Node17&#45;&gt;Node18</title>
<path fill="none" stroke="midnightblue" d="M176.214,-112.083C173.37,-104.77 169.252,-94.1814 165.722,-85.1034"/>
<polygon fill="midnightblue" stroke="midnightblue" points="168.971,-83.8025 162.085,-75.7511 162.447,-86.3397 168.971,-83.8025"/>
</g>
<!-- Node17&#45;&gt;Node10 -->
<g id="edge24" class="edge"><title>Node17&#45;&gt;Node10</title>
<path fill="none" stroke="midnightblue" d="M190.286,-112.324C200.138,-104.263 215.033,-92.0765 226.897,-82.3695"/>
<polygon fill="midnightblue" stroke="midnightblue" points="229.362,-84.8752 234.885,-75.8339 224.929,-79.4575 229.362,-84.8752"/>
</g>
<!-- Node17&#45;&gt;Node13 -->
<g id="edge25" class="edge"><title>Node17&#45;&gt;Node13</title>
<path fill="none" stroke="midnightblue" d="M206.743,-113.94C241.672,-104.829 302.842,-88.8713 344.048,-78.122"/>
<polygon fill="midnightblue" stroke="midnightblue" points="345.014,-81.487 353.807,-75.576 343.247,-74.7137 345.014,-81.487"/>
</g>
</g>
</svg>
