<?xml version="1.0" encoding="UTF-8" standalone="no"?>
<!DOCTYPE svg PUBLIC "-//W3C//DTD SVG 1.1//EN"
 "http://www.w3.org/Graphics/SVG/1.1/DTD/svg11.dtd">
<!-- Generated by graphviz version 2.30.1 (20130303.0817)
 -->
<!-- Title: server::uiServer Pages: 1 -->
<svg width="171pt" height="416pt"
 viewBox="0.00 0.00 171.00 416.00" xmlns="http://www.w3.org/2000/svg" xmlns:xlink="http://www.w3.org/1999/xlink">
<g id="graph0" class="graph" transform="scale(1 1) rotate(0) translate(4 412)">
<title>server::uiServer</title>
<polygon fill="white" stroke="white" points="-4,5 -4,-412 168,-412 168,5 -4,5"/>
<!-- Node1 -->
<g id="node1" class="node"><title>Node1</title>
<polygon fill="#bfbfbf" stroke="black" points="24.5,-1 24.5,-179 131.5,-179 131.5,-1 24.5,-1"/>
<text text-anchor="middle" x="78" y="-167" font-family="Helvetica,sans-Serif" font-size="10.00">server::uiServer</text>
<polyline fill="none" stroke="black" points="24.5,-160 131.5,-160 "/>
<text text-anchor="start" x="32.5" y="-148" font-family="Helvetica,sans-Serif" font-size="10.00">&#45; connections</text>
<text text-anchor="start" x="32.5" y="-137" font-family="Helvetica,sans-Serif" font-size="10.00">&#45; port</text>
<polyline fill="none" stroke="black" points="24.5,-130 131.5,-130 "/>
<text text-anchor="start" x="32.5" y="-118" font-family="Helvetica,sans-Serif" font-size="10.00">+ uiServer()</text>
<text text-anchor="start" x="32.5" y="-107" font-family="Helvetica,sans-Serif" font-size="10.00">+ ~uiServer()</text>
<text text-anchor="start" x="32.5" y="-96" font-family="Helvetica,sans-Serif" font-size="10.00">+ startListen()</text>
<text text-anchor="start" x="32.5" y="-85" font-family="Helvetica,sans-Serif" font-size="10.00">+ send()</text>
<text text-anchor="start" x="32.5" y="-74" font-family="Helvetica,sans-Serif" font-size="10.00">+ send()</text>
<text text-anchor="start" x="32.5" y="-63" font-family="Helvetica,sans-Serif" font-size="10.00">&#45; acceptConnection()</text>
<text text-anchor="start" x="32.5" y="-52" font-family="Helvetica,sans-Serif" font-size="10.00">&#45; lostConnection()</text>
<text text-anchor="start" x="32.5" y="-41" font-family="Helvetica,sans-Serif" font-size="10.00">&#45; chatReceived()</text>
<text text-anchor="start" x="32.5" y="-30" font-family="Helvetica,sans-Serif" font-size="10.00">&#45; doUserQuery()</text>
<text text-anchor="start" x="32.5" y="-19" font-family="Helvetica,sans-Serif" font-size="10.00">&#45; doSendEvents()</text>
<text text-anchor="start" x="32.5" y="-8" font-family="Helvetica,sans-Serif" font-size="10.00">&#45; changeOwnUser()</text>
</g>
<!-- Node2 -->
<g id="node2" class="node"><title>Node2</title>
<polygon fill="white" stroke="#bfbfbf" points="0,-289.5 0,-346.5 66,-346.5 66,-289.5 0,-289.5"/>
<text text-anchor="middle" x="33" y="-334.5" font-family="Helvetica,sans-Serif" font-size="10.00">QTcpServer</text>
<polyline fill="none" stroke="#bfbfbf" points="0,-327.5 66,-327.5 "/>
<text text-anchor="middle" x="33" y="-315.5" font-family="Helvetica,sans-Serif" font-size="10.00"> </text>
<polyline fill="none" stroke="#bfbfbf" points="0,-308.5 66,-308.5 "/>
<text text-anchor="middle" x="33" y="-296.5" font-family="Helvetica,sans-Serif" font-size="10.00"> </text>
</g>
<!-- Node2&#45;&gt;Node1 -->
<g id="edge1" class="edge"><title>Node2&#45;&gt;Node1</title>
<path fill="none" stroke="midnightblue" d="M40.4936,-279.366C45.9392,-252.016 53.5403,-213.842 60.477,-179.004"/>
<polygon fill="none" stroke="midnightblue" points="37.0382,-278.797 38.5179,-289.288 43.9034,-280.164 37.0382,-278.797"/>
</g>
<!-- Node3 -->
<g id="node3" class="node"><title>Node3</title>
<g id="a_node3"><a xlink:href="../../da/d64/class_k4_u_1_1cls_log.xhtml" target="_top" xlink:title="Custom logging class.">
<polygon fill="white" stroke="black" points="84.5,-229 84.5,-407 163.5,-407 163.5,-229 84.5,-229"/>
<text text-anchor="middle" x="124" y="-395" font-family="Helvetica,sans-Serif" font-size="10.00">K4U::clsLog</text>
<polyline fill="none" stroke="black" points="84.5,-388 163.5,-388 "/>
<text text-anchor="start" x="92.5" y="-376" font-family="Helvetica,sans-Serif" font-size="10.00">&#45; isFirst</text>
<text text-anchor="start" x="92.5" y="-365" font-family="Helvetica,sans-Serif" font-size="10.00">&#45; tag</text>
<text text-anchor="start" x="92.5" y="-354" font-family="Helvetica,sans-Serif" font-size="10.00">&#45; prf</text>
<polyline fill="none" stroke="black" points="84.5,-347 163.5,-347 "/>
<text text-anchor="start" x="92.5" y="-335" font-family="Helvetica,sans-Serif" font-size="10.00">+ clsLog()</text>
<text text-anchor="start" x="92.5" y="-324" font-family="Helvetica,sans-Serif" font-size="10.00">+ operator&lt;&lt;()</text>
<text text-anchor="start" x="92.5" y="-313" font-family="Helvetica,sans-Serif" font-size="10.00">+ operator&lt;&lt;()</text>
<text text-anchor="start" x="92.5" y="-302" font-family="Helvetica,sans-Serif" font-size="10.00">+ operator&lt;&lt;()</text>
<text text-anchor="start" x="92.5" y="-291" font-family="Helvetica,sans-Serif" font-size="10.00">+ operator&lt;&lt;()</text>
<text text-anchor="start" x="92.5" y="-280" font-family="Helvetica,sans-Serif" font-size="10.00">+ operator&lt;&lt;()</text>
<text text-anchor="start" x="92.5" y="-269" font-family="Helvetica,sans-Serif" font-size="10.00">+ operator&lt;&lt;()</text>
<text text-anchor="start" x="92.5" y="-258" font-family="Helvetica,sans-Serif" font-size="10.00">and 9 more...</text>
<text text-anchor="start" x="92.5" y="-247" font-family="Helvetica,sans-Serif" font-size="10.00">&#45; prefix()</text>
<text text-anchor="start" x="92.5" y="-236" font-family="Helvetica,sans-Serif" font-size="10.00">&#45; getTag()</text>
</a>
</g>
</g>
<!-- Node3&#45;&gt;Node1 -->
<g id="edge2" class="edge"><title>Node3&#45;&gt;Node1</title>
<path fill="none" stroke="#404040" d="M106.083,-228.975C103.56,-216.578 100.951,-203.757 98.3852,-191.153"/>
<polygon fill="none" stroke="#404040" points="98.3368,-190.915 93.2204,-185.833 95.9433,-179.156 101.06,-184.238 98.3368,-190.915"/>
<text text-anchor="middle" x="110.5" y="-201.5" font-family="Helvetica,sans-Serif" font-size="10.00"> &#45;log</text>
</g>
</g>
</svg>
