<?xml version="1.0" encoding="UTF-8" standalone="no"?>
<!DOCTYPE svg PUBLIC "-//W3C//DTD SVG 1.1//EN"
 "http://www.w3.org/Graphics/SVG/1.1/DTD/svg11.dtd">
<!-- Generated by graphviz version 2.30.1 (20130303.0817)
 -->
<!-- Title: org.kde.necessitas.ministro.IMinistroCallback Pages: 1 -->
<svg width="321pt" height="322pt"
 viewBox="0.00 0.00 321.00 322.00" xmlns="http://www.w3.org/2000/svg" xmlns:xlink="http://www.w3.org/1999/xlink">
<g id="graph0" class="graph" transform="scale(1 1) rotate(0) translate(4 318)">
<title>org.kde.necessitas.ministro.IMinistroCallback</title>
<polygon fill="white" stroke="white" points="-4,5 -4,-318 318,-318 318,5 -4,5"/>
<!-- Node1 -->
<g id="node1" class="node"><title>Node1</title>
<polygon fill="#bfbfbf" stroke="black" points="89,-151 89,-219 229,-219 229,-151 89,-151"/>
<text text-anchor="start" x="97" y="-207" font-family="Helvetica,sans-Serif" font-size="10.00">org.kde.necessitas.ministro.</text>
<text text-anchor="middle" x="159" y="-196" font-family="Helvetica,sans-Serif" font-size="10.00">IMinistroCallback</text>
<polyline fill="none" stroke="black" points="89,-189 229,-189 "/>
<text text-anchor="middle" x="159" y="-177" font-family="Helvetica,sans-Serif" font-size="10.00"> </text>
<polyline fill="none" stroke="black" points="89,-170 229,-170 "/>
<text text-anchor="start" x="97" y="-158" font-family="Helvetica,sans-Serif" font-size="10.00">+ loaderReady()</text>
</g>
<!-- Node3 -->
<g id="node3" class="node"><title>Node3</title>
<polygon fill="white" stroke="#bfbfbf" points="0,-1 0,-113 152,-113 152,-1 0,-1"/>
<text text-anchor="start" x="8" y="-101" font-family="Helvetica,sans-Serif" font-size="10.00">org.kde.necessitas.ministro.</text>
<text text-anchor="middle" x="76" y="-90" font-family="Helvetica,sans-Serif" font-size="10.00">IMinistroCallback.Stub</text>
<polyline fill="none" stroke="#bfbfbf" points="0,-83 152,-83 "/>
<text text-anchor="start" x="8" y="-71" font-family="Helvetica,sans-Serif" font-size="10.00">~ TRANSACTION_loaderReady</text>
<text text-anchor="start" x="8" y="-60" font-family="Helvetica,sans-Serif" font-size="10.00">&#45; DESCRIPTOR</text>
<polyline fill="none" stroke="#bfbfbf" points="0,-53 152,-53 "/>
<text text-anchor="start" x="8" y="-41" font-family="Helvetica,sans-Serif" font-size="10.00">+ Stub()</text>
<text text-anchor="start" x="8" y="-30" font-family="Helvetica,sans-Serif" font-size="10.00">+ asBinder()</text>
<text text-anchor="start" x="8" y="-19" font-family="Helvetica,sans-Serif" font-size="10.00">+ onTransact()</text>
<text text-anchor="start" x="8" y="-8" font-family="Helvetica,sans-Serif" font-size="10.00">+ asInterface()</text>
</g>
<!-- Node1&#45;&gt;Node3 -->
<g id="edge2" class="edge"><title>Node1&#45;&gt;Node3</title>
<path fill="none" stroke="midnightblue" d="M131.687,-142.537C125.526,-133.184 118.892,-123.113 112.424,-113.294"/>
<polygon fill="none" stroke="midnightblue" points="128.769,-144.469 137.193,-150.895 134.614,-140.619 128.769,-144.469"/>
</g>
<!-- Node4 -->
<g id="node4" class="node"><title>Node4</title>
<polygon fill="white" stroke="#bfbfbf" points="170.5,-6.5 170.5,-107.5 313.5,-107.5 313.5,-6.5 170.5,-6.5"/>
<text text-anchor="start" x="178.5" y="-95.5" font-family="Helvetica,sans-Serif" font-size="10.00">org.kde.necessitas.ministro.</text>
<text text-anchor="middle" x="242" y="-84.5" font-family="Helvetica,sans-Serif" font-size="10.00">IMinistroCallback.Stub.Proxy</text>
<polyline fill="none" stroke="#bfbfbf" points="170.5,-77.5 313.5,-77.5 "/>
<text text-anchor="start" x="178.5" y="-65.5" font-family="Helvetica,sans-Serif" font-size="10.00">&#45; mRemote</text>
<polyline fill="none" stroke="#bfbfbf" points="170.5,-58.5 313.5,-58.5 "/>
<text text-anchor="start" x="178.5" y="-46.5" font-family="Helvetica,sans-Serif" font-size="10.00">+ asBinder()</text>
<text text-anchor="start" x="178.5" y="-35.5" font-family="Helvetica,sans-Serif" font-size="10.00">+ getInterfaceDescriptor()</text>
<text text-anchor="start" x="178.5" y="-24.5" font-family="Helvetica,sans-Serif" font-size="10.00">+ loaderReady()</text>
<text text-anchor="start" x="178.5" y="-13.5" font-family="Helvetica,sans-Serif" font-size="10.00">~ Proxy()</text>
</g>
<!-- Node1&#45;&gt;Node4 -->
<g id="edge3" class="edge"><title>Node1&#45;&gt;Node4</title>
<path fill="none" stroke="midnightblue" d="M186.457,-142.319C193.698,-131.325 201.587,-119.35 209.084,-107.968"/>
<polygon fill="none" stroke="midnightblue" points="183.386,-140.619 180.807,-150.895 189.231,-144.469 183.386,-140.619"/>
</g>
<!-- Node2 -->
<g id="node2" class="node"><title>Node2</title>
<polygon fill="white" stroke="#bfbfbf" points="104,-256.5 104,-313.5 214,-313.5 214,-256.5 104,-256.5"/>
<text text-anchor="middle" x="159" y="-301.5" font-family="Helvetica,sans-Serif" font-size="10.00">android::os::IInterface</text>
<polyline fill="none" stroke="#bfbfbf" points="104,-294.5 214,-294.5 "/>
<text text-anchor="middle" x="159" y="-282.5" font-family="Helvetica,sans-Serif" font-size="10.00"> </text>
<polyline fill="none" stroke="#bfbfbf" points="104,-275.5 214,-275.5 "/>
<text text-anchor="middle" x="159" y="-263.5" font-family="Helvetica,sans-Serif" font-size="10.00"> </text>
</g>
<!-- Node2&#45;&gt;Node1 -->
<g id="edge1" class="edge"><title>Node2&#45;&gt;Node1</title>
<path fill="none" stroke="midnightblue" d="M159,-246.302C159,-237.395 159,-227.961 159,-219.266"/>
<polygon fill="none" stroke="midnightblue" points="155.5,-246.441 159,-256.441 162.5,-246.441 155.5,-246.441"/>
</g>
</g>
</svg>
