<?xml version="1.0" encoding="UTF-8" standalone="no"?>
<!DOCTYPE svg PUBLIC "-//W3C//DTD SVG 1.1//EN"
 "http://www.w3.org/Graphics/SVG/1.1/DTD/svg11.dtd">
<!-- Generated by graphviz version 2.30.1 (20130303.0817)
 -->
<!-- Title: C++/customIrcClient/chatentry.h Pages: 1 -->
<svg width="908pt" height="208pt"
 viewBox="0.00 0.00 908.00 208.00" xmlns="http://www.w3.org/2000/svg" xmlns:xlink="http://www.w3.org/1999/xlink">
<g id="graph0" class="graph" transform="scale(1 1) rotate(0) translate(4 204)">
<title>C++/customIrcClient/chatentry.h</title>
<polygon fill="white" stroke="white" points="-4,5 -4,-204 905,-204 905,5 -4,5"/>
<!-- Node1 -->
<g id="node1" class="node"><title>Node1</title>
<polygon fill="#bfbfbf" stroke="black" points="157,-169 157,-199 263,-199 263,-169 157,-169"/>
<text text-anchor="start" x="165" y="-187" font-family="Helvetica,sans-Serif" font-size="10.00">C++/customIrcClient</text>
<text text-anchor="middle" x="210" y="-176" font-family="Helvetica,sans-Serif" font-size="10.00">/chatentry.h</text>
</g>
<!-- Node2 -->
<g id="node2" class="node"><title>Node2</title>
<polygon fill="white" stroke="#bfbfbf" points="84,-112.5 84,-131.5 136,-131.5 136,-112.5 84,-112.5"/>
<text text-anchor="middle" x="110" y="-119.5" font-family="Helvetica,sans-Serif" font-size="10.00">QFrame</text>
</g>
<!-- Node1&#45;&gt;Node2 -->
<g id="edge1" class="edge"><title>Node1&#45;&gt;Node2</title>
<path fill="none" stroke="midnightblue" d="M186.554,-168.933C170.436,-159.262 149.132,-146.479 133.091,-136.855"/>
<polygon fill="midnightblue" stroke="midnightblue" points="134.709,-133.744 124.333,-131.6 131.108,-139.746 134.709,-133.744"/>
</g>
<!-- Node3 -->
<g id="node3" class="node"><title>Node3</title>
<polygon fill="white" stroke="#bfbfbf" points="154.5,-112.5 154.5,-131.5 201.5,-131.5 201.5,-112.5 154.5,-112.5"/>
<text text-anchor="middle" x="178" y="-119.5" font-family="Helvetica,sans-Serif" font-size="10.00">QLabel</text>
</g>
<!-- Node1&#45;&gt;Node3 -->
<g id="edge2" class="edge"><title>Node1&#45;&gt;Node3</title>
<path fill="none" stroke="midnightblue" d="M202.416,-168.781C197.91,-160.332 192.159,-149.548 187.37,-140.569"/>
<polygon fill="midnightblue" stroke="midnightblue" points="190.45,-138.907 182.656,-131.731 184.274,-142.201 190.45,-138.907"/>
</g>
<!-- Node4 -->
<g id="node4" class="node"><title>Node4</title>
<polygon fill="white" stroke="#bfbfbf" points="219.5,-112.5 219.5,-131.5 264.5,-131.5 264.5,-112.5 219.5,-112.5"/>
<text text-anchor="middle" x="242" y="-119.5" font-family="Helvetica,sans-Serif" font-size="10.00">QTime</text>
</g>
<!-- Node1&#45;&gt;Node4 -->
<g id="edge3" class="edge"><title>Node1&#45;&gt;Node4</title>
<path fill="none" stroke="midnightblue" d="M217.584,-168.781C222.09,-160.332 227.841,-149.548 232.63,-140.569"/>
<polygon fill="midnightblue" stroke="midnightblue" points="235.726,-142.201 237.344,-131.731 229.55,-138.907 235.726,-142.201"/>
</g>
<!-- Node5 -->
<g id="node5" class="node"><title>Node5</title>
<g id="a_node5"><a xlink:href="../../d5/d98/custom_irc_client_2ircuser_8h.html" target="_top" xlink:title="ircuser.h">
<polygon fill="white" stroke="black" points="283,-112.5 283,-131.5 337,-131.5 337,-112.5 283,-112.5"/>
<text text-anchor="middle" x="310" y="-119.5" font-family="Helvetica,sans-Serif" font-size="10.00">ircuser.h</text>
</a>
</g>
</g>
<!-- Node1&#45;&gt;Node5 -->
<g id="edge4" class="edge"><title>Node1&#45;&gt;Node5</title>
<path fill="none" stroke="midnightblue" d="M233.446,-168.933C249.564,-159.262 270.868,-146.479 286.909,-136.855"/>
<polygon fill="midnightblue" stroke="midnightblue" points="288.892,-139.746 295.667,-131.6 285.291,-133.744 288.892,-139.746"/>
</g>
<!-- Node6 -->
<g id="node6" class="node"><title>Node6</title>
<polygon fill="white" stroke="#bfbfbf" points="-0.5,-56.5 -0.5,-75.5 52.5,-75.5 52.5,-56.5 -0.5,-56.5"/>
<text text-anchor="middle" x="26" y="-63.5" font-family="Helvetica,sans-Serif" font-size="10.00">QObject</text>
</g>
<!-- Node5&#45;&gt;Node6 -->
<g id="edge5" class="edge"><title>Node5&#45;&gt;Node6</title>
<path fill="none" stroke="midnightblue" d="M282.971,-114.195C279.621,-113.42 276.237,-112.669 273,-112 182.929,-93.3852 156.82,-95.3887 62.6344,-75.9872"/>
<polygon fill="midnightblue" stroke="midnightblue" points="63.1883,-72.5275 52.6842,-73.9108 61.7583,-79.3799 63.1883,-72.5275"/>
</g>
<!-- Node7 -->
<g id="node7" class="node"><title>Node7</title>
<polygon fill="white" stroke="#bfbfbf" points="71,-56.5 71,-75.5 121,-75.5 121,-56.5 71,-56.5"/>
<text text-anchor="middle" x="96" y="-63.5" font-family="Helvetica,sans-Serif" font-size="10.00">QString</text>
</g>
<!-- Node5&#45;&gt;Node7 -->
<g id="edge6" class="edge"><title>Node5&#45;&gt;Node7</title>
<path fill="none" stroke="midnightblue" d="M282.83,-114.331C249.423,-106.105 190.736,-91.5665 131.19,-76.2815"/>
<polygon fill="midnightblue" stroke="midnightblue" points="131.798,-72.8241 121.241,-73.7228 130.054,-79.6034 131.798,-72.8241"/>
</g>
<!-- Node8 -->
<g id="node8" class="node"><title>Node8</title>
<polygon fill="white" stroke="#bfbfbf" points="139.5,-56.5 139.5,-75.5 186.5,-75.5 186.5,-56.5 139.5,-56.5"/>
<text text-anchor="middle" x="163" y="-63.5" font-family="Helvetica,sans-Serif" font-size="10.00">QColor</text>
</g>
<!-- Node5&#45;&gt;Node8 -->
<g id="edge7" class="edge"><title>Node5&#45;&gt;Node8</title>
<path fill="none" stroke="midnightblue" d="M286.707,-112.444C262.193,-103.438 223.404,-89.1891 195.8,-79.049"/>
<polygon fill="midnightblue" stroke="midnightblue" points="196.777,-75.6793 186.184,-75.5164 194.363,-82.25 196.777,-75.6793"/>
</g>
<!-- Node9 -->
<g id="node9" class="node"><title>Node9</title>
<polygon fill="white" stroke="#bfbfbf" points="205,-56.5 205,-75.5 289,-75.5 289,-56.5 205,-56.5"/>
<text text-anchor="middle" x="247" y="-63.5" font-family="Helvetica,sans-Serif" font-size="10.00">QGraphicsView</text>
</g>
<!-- Node5&#45;&gt;Node9 -->
<g id="edge8" class="edge"><title>Node5&#45;&gt;Node9</title>
<path fill="none" stroke="midnightblue" d="M299.878,-112.324C290.474,-104.263 276.256,-92.0765 264.931,-82.3695"/>
<polygon fill="midnightblue" stroke="midnightblue" points="267.177,-79.6844 257.306,-75.8339 262.621,-84.9993 267.177,-79.6844"/>
</g>
<!-- Node10 -->
<g id="node10" class="node"><title>Node10</title>
<polygon fill="white" stroke="#bfbfbf" points="307,-56.5 307,-75.5 437,-75.5 437,-56.5 307,-56.5"/>
<text text-anchor="middle" x="372" y="-63.5" font-family="Helvetica,sans-Serif" font-size="10.00">QNetworkAccessManager</text>
</g>
<!-- Node5&#45;&gt;Node10 -->
<g id="edge9" class="edge"><title>Node5&#45;&gt;Node10</title>
<path fill="none" stroke="midnightblue" d="M319.961,-112.324C329.127,-104.341 342.937,-92.3128 354.028,-82.6529"/>
<polygon fill="midnightblue" stroke="midnightblue" points="356.615,-85.041 361.857,-75.8339 352.018,-79.7624 356.615,-85.041"/>
</g>
<!-- Node11 -->
<g id="node11" class="node"><title>Node11</title>
<polygon fill="white" stroke="#bfbfbf" points="455.5,-56.5 455.5,-75.5 550.5,-75.5 550.5,-56.5 455.5,-56.5"/>
<text text-anchor="middle" x="503" y="-63.5" font-family="Helvetica,sans-Serif" font-size="10.00">QNetworkRequest</text>
</g>
<!-- Node5&#45;&gt;Node11 -->
<g id="edge10" class="edge"><title>Node5&#45;&gt;Node11</title>
<path fill="none" stroke="midnightblue" d="M337.243,-113.378C369.959,-104.224 425.124,-88.7892 462.753,-78.2607"/>
<polygon fill="midnightblue" stroke="midnightblue" points="463.706,-81.6288 472.393,-75.5637 461.82,-74.8876 463.706,-81.6288"/>
</g>
<!-- Node12 -->
<g id="node12" class="node"><title>Node12</title>
<polygon fill="white" stroke="#bfbfbf" points="569,-56.5 569,-75.5 653,-75.5 653,-56.5 569,-56.5"/>
<text text-anchor="middle" x="611" y="-63.5" font-family="Helvetica,sans-Serif" font-size="10.00">QNetworkReply</text>
</g>
<!-- Node5&#45;&gt;Node12 -->
<g id="edge11" class="edge"><title>Node5&#45;&gt;Node12</title>
<path fill="none" stroke="midnightblue" d="M337.243,-116.113C387.244,-107.142 494.43,-87.913 558.849,-76.356"/>
<polygon fill="midnightblue" stroke="midnightblue" points="559.581,-79.7807 568.806,-74.5698 558.345,-72.8907 559.581,-79.7807"/>
</g>
<!-- Node13 -->
<g id="node13" class="node"><title>Node13</title>
<g id="a_node13"><a xlink:href="../../d7/d62/clslog_8h.html" target="_top" xlink:title="../resources/clslog.h">
<polygon fill="white" stroke="black" points="671.5,-56.5 671.5,-75.5 776.5,-75.5 776.5,-56.5 671.5,-56.5"/>
<text text-anchor="middle" x="724" y="-63.5" font-family="Helvetica,sans-Serif" font-size="10.00">../resources/clslog.h</text>
</a>
</g>
</g>
<!-- Node5&#45;&gt;Node13 -->
<g id="edge12" class="edge"><title>Node5&#45;&gt;Node13</title>
<path fill="none" stroke="midnightblue" d="M337.325,-117.633C396.409,-110.322 540.458,-92.3363 661,-76 661.106,-75.9856 661.212,-75.9712 661.318,-75.9568"/>
<polygon fill="midnightblue" stroke="midnightblue" points="661.983,-79.3986 671.413,-74.5701 661.03,-72.4637 661.983,-79.3986"/>
</g>
<!-- Node14 -->
<g id="node14" class="node"><title>Node14</title>
<polygon fill="white" stroke="#bfbfbf" points="550,-0.5 550,-19.5 602,-19.5 602,-0.5 550,-0.5"/>
<text text-anchor="middle" x="576" y="-7.5" font-family="Helvetica,sans-Serif" font-size="10.00">QDebug</text>
</g>
<!-- Node13&#45;&gt;Node14 -->
<g id="edge13" class="edge"><title>Node13&#45;&gt;Node14</title>
<path fill="none" stroke="midnightblue" d="M700.549,-56.4435C675.867,-47.4381 636.815,-33.1891 609.023,-23.049"/>
<polygon fill="midnightblue" stroke="midnightblue" points="609.935,-19.6561 599.341,-19.5164 607.536,-26.2321 609.935,-19.6561"/>
</g>
<!-- Node15 -->
<g id="node15" class="node"><title>Node15</title>
<polygon fill="white" stroke="#bfbfbf" points="620.5,-0.5 620.5,-19.5 685.5,-19.5 685.5,-0.5 620.5,-0.5"/>
<text text-anchor="middle" x="653" y="-7.5" font-family="Helvetica,sans-Serif" font-size="10.00">QDateTime</text>
</g>
<!-- Node13&#45;&gt;Node15 -->
<g id="edge14" class="edge"><title>Node13&#45;&gt;Node15</title>
<path fill="none" stroke="midnightblue" d="M712.593,-56.324C701.891,-48.1849 685.659,-35.8395 672.837,-26.0874"/>
<polygon fill="midnightblue" stroke="midnightblue" points="674.693,-23.1018 664.615,-19.8339 670.456,-28.6734 674.693,-23.1018"/>
</g>
<!-- Node16 -->
<g id="node16" class="node"><title>Node16</title>
<polygon fill="white" stroke="#bfbfbf" points="703.5,-0.5 703.5,-19.5 744.5,-19.5 744.5,-0.5 703.5,-0.5"/>
<text text-anchor="middle" x="724" y="-7.5" font-family="Helvetica,sans-Serif" font-size="10.00">string</text>
</g>
<!-- Node13&#45;&gt;Node16 -->
<g id="edge15" class="edge"><title>Node13&#45;&gt;Node16</title>
<path fill="none" stroke="midnightblue" d="M724,-56.083C724,-49.0059 724,-38.8611 724,-29.9865"/>
<polygon fill="midnightblue" stroke="midnightblue" points="727.5,-29.751 724,-19.7511 720.5,-29.7511 727.5,-29.751"/>
</g>
<!-- Node17 -->
<g id="node17" class="node"><title>Node17</title>
<polygon fill="white" stroke="#bfbfbf" points="763,-0.5 763,-19.5 817,-19.5 817,-0.5 763,-0.5"/>
<text text-anchor="middle" x="790" y="-7.5" font-family="Helvetica,sans-Serif" font-size="10.00">iostream</text>
</g>
<!-- Node13&#45;&gt;Node17 -->
<g id="edge16" class="edge"><title>Node13&#45;&gt;Node17</title>
<path fill="none" stroke="midnightblue" d="M734.604,-56.324C744.456,-48.2631 759.351,-36.0765 771.215,-26.3695"/>
<polygon fill="midnightblue" stroke="midnightblue" points="773.68,-28.8752 779.203,-19.8339 769.247,-23.4575 773.68,-28.8752"/>
</g>
<!-- Node18 -->
<g id="node18" class="node"><title>Node18</title>
<polygon fill="white" stroke="#bfbfbf" points="835.5,-0.5 835.5,-19.5 900.5,-19.5 900.5,-0.5 835.5,-0.5"/>
<text text-anchor="middle" x="868" y="-7.5" font-family="Helvetica,sans-Serif" font-size="10.00">QStringList</text>
</g>
<!-- Node13&#45;&gt;Node18 -->
<g id="edge17" class="edge"><title>Node13&#45;&gt;Node18</title>
<path fill="none" stroke="midnightblue" d="M746.817,-56.4435C770.832,-47.4381 808.829,-33.1891 835.869,-23.049"/>
<polygon fill="midnightblue" stroke="midnightblue" points="837.155,-26.3049 845.29,-19.5164 834.697,-19.7506 837.155,-26.3049"/>
</g>
</g>
</svg>
