<?xml version="1.0" encoding="UTF-8" standalone="no"?>
<!DOCTYPE svg PUBLIC "-//W3C//DTD SVG 1.1//EN"
 "http://www.w3.org/Graphics/SVG/1.1/DTD/svg11.dtd">
<!-- Generated by graphviz version 2.30.1 (20130303.0817)
 -->
<!-- Title: C++/resources/clsevent.h Pages: 1 -->
<svg width="1347pt" height="368pt"
 viewBox="0.00 0.00 1346.85 368.00" xmlns="http://www.w3.org/2000/svg" xmlns:xlink="http://www.w3.org/1999/xlink">
<g id="graph0" class="graph" transform="scale(1 1) rotate(0) translate(4 364)">
<title>C++/resources/clsevent.h</title>
<polygon fill="white" stroke="white" points="-4,5 -4,-364 1343.85,-364 1343.85,5 -4,5"/>
<!-- Node1 -->
<g id="node1" class="node"><title>Node1</title>
<polygon fill="#bfbfbf" stroke="black" points="525.847,-340.5 525.847,-359.5 653.847,-359.5 653.847,-340.5 525.847,-340.5"/>
<text text-anchor="middle" x="589.847" y="-347.5" font-family="Helvetica,sans-Serif" font-size="10.00">C++/resources/clsevent.h</text>
</g>
<!-- Node2 -->
<g id="node2" class="node"><title>Node2</title>
<g id="a_node2"><a xlink:href="../../d3/d33/chatbox_8h.xhtml" target="_top" xlink:title="C++/customIrcClient\l/chatbox.h">
<polygon fill="white" stroke="black" points="76.8471,-273 76.8471,-303 182.847,-303 182.847,-273 76.8471,-273"/>
<text text-anchor="start" x="84.8471" y="-291" font-family="Helvetica,sans-Serif" font-size="10.00">C++/customIrcClient</text>
<text text-anchor="middle" x="129.847" y="-280" font-family="Helvetica,sans-Serif" font-size="10.00">/chatbox.h</text>
</a>
</g>
</g>
<!-- Node1&#45;&gt;Node2 -->
<g id="edge1" class="edge"><title>Node1&#45;&gt;Node2</title>
<path fill="none" stroke="midnightblue" d="M515.484,-339.3C422.355,-327.153 265.097,-306.641 183.136,-295.951"/>
<polygon fill="midnightblue" stroke="midnightblue" points="515.033,-342.771 525.402,-340.594 515.938,-335.83 515.033,-342.771"/>
</g>
<!-- Node8 -->
<g id="node8" class="node"><title>Node8</title>
<g id="a_node8"><a xlink:href="../../d5/dbc/clsserverconn_8h.xhtml" target="_top" xlink:title="C++/customIrcClient\l/clsserverconn.h">
<polygon fill="white" stroke="black" points="311.847,-137 311.847,-167 417.847,-167 417.847,-137 311.847,-137"/>
<text text-anchor="start" x="319.847" y="-155" font-family="Helvetica,sans-Serif" font-size="10.00">C++/customIrcClient</text>
<text text-anchor="middle" x="364.847" y="-144" font-family="Helvetica,sans-Serif" font-size="10.00">/clsserverconn.h</text>
</a>
</g>
</g>
<!-- Node1&#45;&gt;Node8 -->
<g id="edge7" class="edge"><title>Node1&#45;&gt;Node8</title>
<path fill="none" stroke="midnightblue" d="M515.439,-346.466C447.169,-342.389 353.208,-331.751 329.847,-304 301.225,-269.999 316.682,-246.45 329.847,-204 334.11,-190.256 343.499,-176.927 351.481,-167.344"/>
<polygon fill="midnightblue" stroke="midnightblue" points="515.556,-349.978 525.736,-347.043 515.948,-342.989 515.556,-349.978"/>
</g>
<!-- Node10 -->
<g id="node10" class="node"><title>Node10</title>
<g id="a_node10"><a xlink:href="../../db/d70/eventchat_8h.xhtml" target="_top" xlink:title="C++/resources/events\l/eventchat.h">
<polygon fill="white" stroke="black" points="338.847,-273 338.847,-303 450.847,-303 450.847,-273 338.847,-273"/>
<text text-anchor="start" x="346.847" y="-291" font-family="Helvetica,sans-Serif" font-size="10.00">C++/resources/events</text>
<text text-anchor="middle" x="394.847" y="-280" font-family="Helvetica,sans-Serif" font-size="10.00">/eventchat.h</text>
</a>
</g>
</g>
<!-- Node1&#45;&gt;Node10 -->
<g id="edge10" class="edge"><title>Node1&#45;&gt;Node10</title>
<path fill="none" stroke="midnightblue" d="M552.069,-337.376C520.16,-327.558 474.37,-313.468 440.429,-303.025"/>
<polygon fill="midnightblue" stroke="midnightblue" points="551.321,-340.808 561.908,-340.403 553.38,-334.117 551.321,-340.808"/>
</g>
<!-- Node16 -->
<g id="node16" class="node"><title>Node16</title>
<g id="a_node16"><a xlink:href="../../d5/d02/eventuserjoin_8h.xhtml" target="_top" xlink:title="C++/resources/events\l/eventuserjoin.h">
<polygon fill="white" stroke="black" points="468.847,-273 468.847,-303 580.847,-303 580.847,-273 468.847,-273"/>
<text text-anchor="start" x="476.847" y="-291" font-family="Helvetica,sans-Serif" font-size="10.00">C++/resources/events</text>
<text text-anchor="middle" x="524.847" y="-280" font-family="Helvetica,sans-Serif" font-size="10.00">/eventuserjoin.h</text>
</a>
</g>
</g>
<!-- Node1&#45;&gt;Node16 -->
<g id="edge17" class="edge"><title>Node1&#45;&gt;Node16</title>
<path fill="none" stroke="midnightblue" d="M573.074,-333.517C562.914,-324.138 550.052,-312.266 540.166,-303.141"/>
<polygon fill="midnightblue" stroke="midnightblue" points="570.812,-336.192 580.534,-340.403 575.56,-331.049 570.812,-336.192"/>
</g>
<!-- Node18 -->
<g id="node18" class="node"><title>Node18</title>
<g id="a_node18"><a xlink:href="../../d7/d56/eventuserleave_8h.xhtml" target="_top" xlink:title="C++/resources/events\l/eventuserleave.h">
<polygon fill="white" stroke="black" points="598.847,-273 598.847,-303 710.847,-303 710.847,-273 598.847,-273"/>
<text text-anchor="start" x="606.847" y="-291" font-family="Helvetica,sans-Serif" font-size="10.00">C++/resources/events</text>
<text text-anchor="middle" x="654.847" y="-280" font-family="Helvetica,sans-Serif" font-size="10.00">/eventuserleave.h</text>
</a>
</g>
</g>
<!-- Node1&#45;&gt;Node18 -->
<g id="edge20" class="edge"><title>Node1&#45;&gt;Node18</title>
<path fill="none" stroke="midnightblue" d="M606.62,-333.517C616.781,-324.138 629.642,-312.266 639.528,-303.141"/>
<polygon fill="midnightblue" stroke="midnightblue" points="604.134,-331.049 599.16,-340.403 608.882,-336.192 604.134,-331.049"/>
</g>
<!-- Node20 -->
<g id="node20" class="node"><title>Node20</title>
<g id="a_node20"><a xlink:href="../../db/db0/eventuserchangestatus_8h.xhtml" target="_top" xlink:title="C++/resources/events\l/eventuserchangestatus.h">
<polygon fill="white" stroke="black" points="728.847,-273 728.847,-303 856.847,-303 856.847,-273 728.847,-273"/>
<text text-anchor="start" x="736.847" y="-291" font-family="Helvetica,sans-Serif" font-size="10.00">C++/resources/events</text>
<text text-anchor="middle" x="792.847" y="-280" font-family="Helvetica,sans-Serif" font-size="10.00">/eventuserchangestatus.h</text>
</a>
</g>
</g>
<!-- Node1&#45;&gt;Node20 -->
<g id="edge23" class="edge"><title>Node1&#45;&gt;Node20</title>
<path fill="none" stroke="midnightblue" d="M628.745,-337.503C661.981,-327.68 709.909,-313.514 745.395,-303.025"/>
<polygon fill="midnightblue" stroke="midnightblue" points="627.53,-334.212 618.932,-340.403 629.514,-340.925 627.53,-334.212"/>
</g>
<!-- Node22 -->
<g id="node22" class="node"><title>Node22</title>
<g id="a_node22"><a xlink:href="../../d8/d44/eventuserchangenick_8h.xhtml" target="_top" xlink:title="C++/resources/events\l/eventuserchangenick.h">
<polygon fill="white" stroke="black" points="875.347,-273 875.347,-303 994.347,-303 994.347,-273 875.347,-273"/>
<text text-anchor="start" x="883.347" y="-291" font-family="Helvetica,sans-Serif" font-size="10.00">C++/resources/events</text>
<text text-anchor="middle" x="934.847" y="-280" font-family="Helvetica,sans-Serif" font-size="10.00">/eventuserchangenick.h</text>
</a>
</g>
</g>
<!-- Node1&#45;&gt;Node22 -->
<g id="edge26" class="edge"><title>Node1&#45;&gt;Node22</title>
<path fill="none" stroke="midnightblue" d="M657.769,-338.942C713.742,-330.409 795.128,-317.442 865.847,-304 868.858,-303.428 871.939,-302.824 875.047,-302.201"/>
<polygon fill="midnightblue" stroke="midnightblue" points="656.983,-335.521 647.621,-340.482 658.033,-342.441 656.983,-335.521"/>
</g>
<!-- Node5 -->
<g id="node5" class="node"><title>Node5</title>
<g id="a_node5"><a xlink:href="../../d9/d53/mainwindow_8h.xhtml" target="_top" xlink:title="C++/customIrcClient\l/mainwindow.h">
<polygon fill="white" stroke="black" points="198.847,-69 198.847,-99 304.847,-99 304.847,-69 198.847,-69"/>
<text text-anchor="start" x="206.847" y="-87" font-family="Helvetica,sans-Serif" font-size="10.00">C++/customIrcClient</text>
<text text-anchor="middle" x="251.847" y="-76" font-family="Helvetica,sans-Serif" font-size="10.00">/mainwindow.h</text>
</a>
</g>
</g>
<!-- Node1&#45;&gt;Node5 -->
<g id="edge29" class="edge"><title>Node1&#45;&gt;Node5</title>
<path fill="none" stroke="midnightblue" d="M515.322,-345.942C443.068,-341.44 340.193,-330.463 310.847,-304 249.876,-249.019 249.084,-138.327 250.89,-99.1425"/>
<polygon fill="midnightblue" stroke="midnightblue" points="515.558,-349.462 525.748,-346.561 515.973,-342.475 515.558,-349.462"/>
</g>
<!-- Node12 -->
<g id="node12" class="node"><title>Node12</title>
<g id="a_node12"><a xlink:href="../../db/df6/mainapp_8h.xhtml" target="_top" xlink:title="C++/customIrcServer\l/mainapp.h">
<polygon fill="white" stroke="black" points="859.847,-137 859.847,-167 967.847,-167 967.847,-137 859.847,-137"/>
<text text-anchor="start" x="867.847" y="-155" font-family="Helvetica,sans-Serif" font-size="10.00">C++/customIrcServer</text>
<text text-anchor="middle" x="913.847" y="-144" font-family="Helvetica,sans-Serif" font-size="10.00">/mainapp.h</text>
</a>
</g>
</g>
<!-- Node1&#45;&gt;Node12 -->
<g id="edge30" class="edge"><title>Node1&#45;&gt;Node12</title>
<path fill="none" stroke="midnightblue" d="M664.188,-346.606C804.834,-340.209 1100.51,-317.184 1152.85,-236 1197.05,-167.424 1051.28,-154.666 967.948,-152.828"/>
<polygon fill="midnightblue" stroke="midnightblue" points="663.764,-343.121 653.926,-347.056 664.07,-350.115 663.764,-343.121"/>
</g>
<!-- Node24 -->
<g id="node24" class="node"><title>Node24</title>
<g id="a_node24"><a xlink:href="../../da/de6/clsevent_8cpp.xhtml" target="_top" xlink:title="C++/resources/clsevent.cpp">
<polygon fill="white" stroke="black" points="1200.85,-278.5 1200.85,-297.5 1338.85,-297.5 1338.85,-278.5 1200.85,-278.5"/>
<text text-anchor="middle" x="1269.85" y="-285.5" font-family="Helvetica,sans-Serif" font-size="10.00">C++/resources/clsevent.cpp</text>
</a>
</g>
</g>
<!-- Node1&#45;&gt;Node24 -->
<g id="edge31" class="edge"><title>Node1&#45;&gt;Node24</title>
<path fill="none" stroke="midnightblue" d="M664.403,-345.864C777.645,-340.54 999.632,-327.908 1186.85,-304 1200.07,-302.312 1214.37,-299.929 1227.33,-297.558"/>
<polygon fill="midnightblue" stroke="midnightblue" points="663.946,-342.381 654.12,-346.341 664.271,-349.373 663.946,-342.381"/>
</g>
<!-- Node3 -->
<g id="node3" class="node"><title>Node3</title>
<g id="a_node3"><a xlink:href="../../de/da9/chatbox_8cpp.xhtml" target="_top" xlink:title="C++/customIrcClient\l/chatbox.cpp">
<polygon fill="white" stroke="black" points="138.847,-205 138.847,-235 244.847,-235 244.847,-205 138.847,-205"/>
<text text-anchor="start" x="146.847" y="-223" font-family="Helvetica,sans-Serif" font-size="10.00">C++/customIrcClient</text>
<text text-anchor="middle" x="191.847" y="-212" font-family="Helvetica,sans-Serif" font-size="10.00">/chatbox.cpp</text>
</a>
</g>
</g>
<!-- Node2&#45;&gt;Node3 -->
<g id="edge2" class="edge"><title>Node2&#45;&gt;Node3</title>
<path fill="none" stroke="midnightblue" d="M150.332,-265.194C159.569,-255.36 170.22,-244.023 178.42,-235.293"/>
<polygon fill="midnightblue" stroke="midnightblue" points="147.596,-262.994 143.3,-272.679 152.698,-267.787 147.596,-262.994"/>
</g>
<!-- Node4 -->
<g id="node4" class="node"><title>Node4</title>
<g id="a_node4"><a xlink:href="../../d0/dc6/chatentry_8cpp.xhtml" target="_top" xlink:title="C++/customIrcClient\l/chatentry.cpp">
<polygon fill="white" stroke="black" points="14.8471,-205 14.8471,-235 120.847,-235 120.847,-205 14.8471,-205"/>
<text text-anchor="start" x="22.8471" y="-223" font-family="Helvetica,sans-Serif" font-size="10.00">C++/customIrcClient</text>
<text text-anchor="middle" x="67.8471" y="-212" font-family="Helvetica,sans-Serif" font-size="10.00">/chatentry.cpp</text>
</a>
</g>
</g>
<!-- Node2&#45;&gt;Node4 -->
<g id="edge3" class="edge"><title>Node2&#45;&gt;Node4</title>
<path fill="none" stroke="midnightblue" d="M109.363,-265.194C100.125,-255.36 89.4746,-244.023 81.2739,-235.293"/>
<polygon fill="midnightblue" stroke="midnightblue" points="106.996,-267.787 116.394,-272.679 112.098,-262.994 106.996,-267.787"/>
</g>
<!-- Node2&#45;&gt;Node5 -->
<g id="edge4" class="edge"><title>Node2&#45;&gt;Node5</title>
<path fill="none" stroke="midnightblue" d="M66.9371,-276.348C43.7314,-269.04 19.7348,-256.728 5.84713,-236 -2.06908,-224.185 -1.70897,-216.049 5.84713,-204 47.9409,-136.877 139.801,-106.688 198.585,-93.8098"/>
<polygon fill="midnightblue" stroke="midnightblue" points="66.2244,-279.785 76.8022,-279.184 68.1585,-273.058 66.2244,-279.785"/>
</g>
<!-- Node6 -->
<g id="node6" class="node"><title>Node6</title>
<g id="a_node6"><a xlink:href="../../df/d94/custom_irc_client_2main_8cpp.xhtml" target="_top" xlink:title="C++/customIrcClient\l/main.cpp">
<polygon fill="white" stroke="black" points="136.847,-1 136.847,-31 242.847,-31 242.847,-1 136.847,-1"/>
<text text-anchor="start" x="144.847" y="-19" font-family="Helvetica,sans-Serif" font-size="10.00">C++/customIrcClient</text>
<text text-anchor="middle" x="189.847" y="-8" font-family="Helvetica,sans-Serif" font-size="10.00">/main.cpp</text>
</a>
</g>
</g>
<!-- Node5&#45;&gt;Node6 -->
<g id="edge5" class="edge"><title>Node5&#45;&gt;Node6</title>
<path fill="none" stroke="midnightblue" d="M231.363,-61.1939C222.125,-51.3605 211.475,-40.0228 203.274,-31.2931"/>
<polygon fill="midnightblue" stroke="midnightblue" points="228.996,-63.7869 238.394,-68.679 234.098,-58.9941 228.996,-63.7869"/>
</g>
<!-- Node7 -->
<g id="node7" class="node"><title>Node7</title>
<g id="a_node7"><a xlink:href="../../d8/dd9/mainwindow_8cpp.xhtml" target="_top" xlink:title="C++/customIrcClient\l/mainwindow.cpp">
<polygon fill="white" stroke="black" points="260.847,-1 260.847,-31 366.847,-31 366.847,-1 260.847,-1"/>
<text text-anchor="start" x="268.847" y="-19" font-family="Helvetica,sans-Serif" font-size="10.00">C++/customIrcClient</text>
<text text-anchor="middle" x="313.847" y="-8" font-family="Helvetica,sans-Serif" font-size="10.00">/mainwindow.cpp</text>
</a>
</g>
</g>
<!-- Node5&#45;&gt;Node7 -->
<g id="edge6" class="edge"><title>Node5&#45;&gt;Node7</title>
<path fill="none" stroke="midnightblue" d="M272.332,-61.1939C281.569,-51.3605 292.22,-40.0228 300.42,-31.2931"/>
<polygon fill="midnightblue" stroke="midnightblue" points="269.596,-58.9941 265.3,-68.679 274.698,-63.7869 269.596,-58.9941"/>
</g>
<!-- Node9 -->
<g id="node9" class="node"><title>Node9</title>
<g id="a_node9"><a xlink:href="../../db/d1f/clsserverconn_8cpp.xhtml" target="_top" xlink:title="C++/customIrcClient\l/clsserverconn.cpp">
<polygon fill="white" stroke="black" points="322.847,-69 322.847,-99 428.847,-99 428.847,-69 322.847,-69"/>
<text text-anchor="start" x="330.847" y="-87" font-family="Helvetica,sans-Serif" font-size="10.00">C++/customIrcClient</text>
<text text-anchor="middle" x="375.847" y="-76" font-family="Helvetica,sans-Serif" font-size="10.00">/clsserverconn.cpp</text>
</a>
</g>
</g>
<!-- Node8&#45;&gt;Node9 -->
<g id="edge8" class="edge"><title>Node8&#45;&gt;Node9</title>
<path fill="none" stroke="midnightblue" d="M368.925,-126.532C370.454,-117.361 372.14,-107.245 373.465,-99.2931"/>
<polygon fill="midnightblue" stroke="midnightblue" points="365.426,-126.24 367.234,-136.679 372.33,-127.39 365.426,-126.24"/>
</g>
<!-- Node8&#45;&gt;Node5 -->
<g id="edge9" class="edge"><title>Node8&#45;&gt;Node5</title>
<path fill="none" stroke="midnightblue" d="M331.677,-131.626C313.854,-121.217 292.275,-108.613 276.048,-99.1352"/>
<polygon fill="midnightblue" stroke="midnightblue" points="330.206,-134.82 340.606,-136.841 333.736,-128.776 330.206,-134.82"/>
</g>
<!-- Node11 -->
<g id="node11" class="node"><title>Node11</title>
<g id="a_node11"><a xlink:href="../../db/dd2/events_8h.xhtml" target="_top" xlink:title="C++/resources/events\l/events.h">
<polygon fill="white" stroke="black" points="598.847,-205 598.847,-235 710.847,-235 710.847,-205 598.847,-205"/>
<text text-anchor="start" x="606.847" y="-223" font-family="Helvetica,sans-Serif" font-size="10.00">C++/resources/events</text>
<text text-anchor="middle" x="654.847" y="-212" font-family="Helvetica,sans-Serif" font-size="10.00">/events.h</text>
</a>
</g>
</g>
<!-- Node10&#45;&gt;Node11 -->
<g id="edge11" class="edge"><title>Node10&#45;&gt;Node11</title>
<path fill="none" stroke="midnightblue" d="M460.099,-270.436C503.056,-259.532 558.679,-245.412 599.475,-235.056"/>
<polygon fill="midnightblue" stroke="midnightblue" points="459.136,-267.069 450.305,-272.922 460.859,-273.854 459.136,-267.069"/>
</g>
<!-- Node15 -->
<g id="node15" class="node"><title>Node15</title>
<g id="a_node15"><a xlink:href="../../db/df5/eventchat_8cpp.xhtml" target="_top" xlink:title="C++/resources/events\l/eventchat.cpp">
<polygon fill="white" stroke="black" points="338.847,-205 338.847,-235 450.847,-235 450.847,-205 338.847,-205"/>
<text text-anchor="start" x="346.847" y="-223" font-family="Helvetica,sans-Serif" font-size="10.00">C++/resources/events</text>
<text text-anchor="middle" x="394.847" y="-212" font-family="Helvetica,sans-Serif" font-size="10.00">/eventchat.cpp</text>
</a>
</g>
</g>
<!-- Node10&#45;&gt;Node15 -->
<g id="edge16" class="edge"><title>Node10&#45;&gt;Node15</title>
<path fill="none" stroke="midnightblue" d="M394.847,-262.532C394.847,-253.361 394.847,-243.245 394.847,-235.293"/>
<polygon fill="midnightblue" stroke="midnightblue" points="391.347,-262.679 394.847,-272.679 398.347,-262.679 391.347,-262.679"/>
</g>
<!-- Node11&#45;&gt;Node8 -->
<g id="edge12" class="edge"><title>Node11&#45;&gt;Node8</title>
<path fill="none" stroke="midnightblue" d="M588.518,-203.904C536.83,-192.141 466.014,-176.024 418.015,-165.1"/>
<polygon fill="midnightblue" stroke="midnightblue" points="588.061,-207.39 598.588,-206.196 589.614,-200.564 588.061,-207.39"/>
</g>
<!-- Node11&#45;&gt;Node12 -->
<g id="edge13" class="edge"><title>Node11&#45;&gt;Node12</title>
<path fill="none" stroke="midnightblue" d="M719.916,-202.419C763.011,-191.437 818.881,-177.2 859.576,-166.83"/>
<polygon fill="midnightblue" stroke="midnightblue" points="718.917,-199.061 710.091,-204.922 720.646,-205.844 718.917,-199.061"/>
</g>
<!-- Node13 -->
<g id="node13" class="node"><title>Node13</title>
<g id="a_node13"><a xlink:href="../../dc/d17/custom_irc_server_2main_8cpp.xhtml" target="_top" xlink:title="C++/customIrcServer\l/main.cpp">
<polygon fill="white" stroke="black" points="796.847,-69 796.847,-99 904.847,-99 904.847,-69 796.847,-69"/>
<text text-anchor="start" x="804.847" y="-87" font-family="Helvetica,sans-Serif" font-size="10.00">C++/customIrcServer</text>
<text text-anchor="middle" x="850.847" y="-76" font-family="Helvetica,sans-Serif" font-size="10.00">/main.cpp</text>
</a>
</g>
</g>
<!-- Node12&#45;&gt;Node13 -->
<g id="edge14" class="edge"><title>Node12&#45;&gt;Node13</title>
<path fill="none" stroke="midnightblue" d="M893.032,-129.194C883.646,-119.36 872.823,-108.023 864.491,-99.2931"/>
<polygon fill="midnightblue" stroke="midnightblue" points="890.741,-131.862 900.177,-136.679 895.804,-127.029 890.741,-131.862"/>
</g>
<!-- Node14 -->
<g id="node14" class="node"><title>Node14</title>
<g id="a_node14"><a xlink:href="../../d8/d88/mainapp_8cpp.xhtml" target="_top" xlink:title="C++/customIrcServer\l/mainapp.cpp">
<polygon fill="white" stroke="black" points="922.847,-69 922.847,-99 1030.85,-99 1030.85,-69 922.847,-69"/>
<text text-anchor="start" x="930.847" y="-87" font-family="Helvetica,sans-Serif" font-size="10.00">C++/customIrcServer</text>
<text text-anchor="middle" x="976.847" y="-76" font-family="Helvetica,sans-Serif" font-size="10.00">/mainapp.cpp</text>
</a>
</g>
</g>
<!-- Node12&#45;&gt;Node14 -->
<g id="edge15" class="edge"><title>Node12&#45;&gt;Node14</title>
<path fill="none" stroke="midnightblue" d="M934.662,-129.194C944.049,-119.36 954.871,-108.023 963.204,-99.2931"/>
<polygon fill="midnightblue" stroke="midnightblue" points="931.89,-127.029 927.517,-136.679 936.954,-131.862 931.89,-127.029"/>
</g>
<!-- Node16&#45;&gt;Node11 -->
<g id="edge18" class="edge"><title>Node16&#45;&gt;Node11</title>
<path fill="none" stroke="midnightblue" d="M561.884,-268.197C582.598,-257.68 607.994,-244.787 627.005,-235.135"/>
<polygon fill="midnightblue" stroke="midnightblue" points="560.068,-265.194 552.735,-272.841 563.237,-271.435 560.068,-265.194"/>
</g>
<!-- Node17 -->
<g id="node17" class="node"><title>Node17</title>
<g id="a_node17"><a xlink:href="../../d0/ddb/eventuserjoin_8cpp.xhtml" target="_top" xlink:title="C++/resources/events\l/eventuserjoin.cpp">
<polygon fill="white" stroke="black" points="468.847,-205 468.847,-235 580.847,-235 580.847,-205 468.847,-205"/>
<text text-anchor="start" x="476.847" y="-223" font-family="Helvetica,sans-Serif" font-size="10.00">C++/resources/events</text>
<text text-anchor="middle" x="524.847" y="-212" font-family="Helvetica,sans-Serif" font-size="10.00">/eventuserjoin.cpp</text>
</a>
</g>
</g>
<!-- Node16&#45;&gt;Node17 -->
<g id="edge19" class="edge"><title>Node16&#45;&gt;Node17</title>
<path fill="none" stroke="midnightblue" d="M524.847,-262.532C524.847,-253.361 524.847,-243.245 524.847,-235.293"/>
<polygon fill="midnightblue" stroke="midnightblue" points="521.347,-262.679 524.847,-272.679 528.347,-262.679 521.347,-262.679"/>
</g>
<!-- Node18&#45;&gt;Node11 -->
<g id="edge21" class="edge"><title>Node18&#45;&gt;Node11</title>
<path fill="none" stroke="midnightblue" d="M654.847,-262.532C654.847,-253.361 654.847,-243.245 654.847,-235.293"/>
<polygon fill="midnightblue" stroke="midnightblue" points="651.347,-262.679 654.847,-272.679 658.347,-262.679 651.347,-262.679"/>
</g>
<!-- Node19 -->
<g id="node19" class="node"><title>Node19</title>
<g id="a_node19"><a xlink:href="../../df/d4c/eventuserleave_8cpp.xhtml" target="_top" xlink:title="C++/resources/events\l/eventuserleave.cpp">
<polygon fill="white" stroke="black" points="728.847,-205 728.847,-235 840.847,-235 840.847,-205 728.847,-205"/>
<text text-anchor="start" x="736.847" y="-223" font-family="Helvetica,sans-Serif" font-size="10.00">C++/resources/events</text>
<text text-anchor="middle" x="784.847" y="-212" font-family="Helvetica,sans-Serif" font-size="10.00">/eventuserleave.cpp</text>
</a>
</g>
</g>
<!-- Node18&#45;&gt;Node19 -->
<g id="edge22" class="edge"><title>Node18&#45;&gt;Node19</title>
<path fill="none" stroke="midnightblue" d="M691.884,-268.197C712.598,-257.68 737.994,-244.787 757.005,-235.135"/>
<polygon fill="midnightblue" stroke="midnightblue" points="690.068,-265.194 682.735,-272.841 693.237,-271.435 690.068,-265.194"/>
</g>
<!-- Node20&#45;&gt;Node11 -->
<g id="edge24" class="edge"><title>Node20&#45;&gt;Node11</title>
<path fill="none" stroke="midnightblue" d="M754.124,-268.48C732.028,-257.913 704.765,-244.874 684.403,-235.135"/>
<polygon fill="midnightblue" stroke="midnightblue" points="752.711,-271.684 763.243,-272.841 755.731,-265.369 752.711,-271.684"/>
</g>
<!-- Node21 -->
<g id="node21" class="node"><title>Node21</title>
<g id="a_node21"><a xlink:href="../../da/d88/eventuserchangestatus_8cpp.xhtml" target="_top" xlink:title="C++/resources/events\l/eventuserchangestatus.cpp">
<polygon fill="white" stroke="black" points="858.847,-205 858.847,-235 996.847,-235 996.847,-205 858.847,-205"/>
<text text-anchor="start" x="866.847" y="-223" font-family="Helvetica,sans-Serif" font-size="10.00">C++/resources/events</text>
<text text-anchor="middle" x="927.847" y="-212" font-family="Helvetica,sans-Serif" font-size="10.00">/eventuserchangestatus.cpp</text>
</a>
</g>
</g>
<!-- Node20&#45;&gt;Node21 -->
<g id="edge25" class="edge"><title>Node20&#45;&gt;Node21</title>
<path fill="none" stroke="midnightblue" d="M831.018,-268.339C852.582,-257.796 879.103,-244.83 898.934,-235.135"/>
<polygon fill="midnightblue" stroke="midnightblue" points="829.255,-265.305 821.808,-272.841 832.329,-271.594 829.255,-265.305"/>
</g>
<!-- Node22&#45;&gt;Node11 -->
<g id="edge27" class="edge"><title>Node22&#45;&gt;Node11</title>
<path fill="none" stroke="midnightblue" d="M865.215,-270.587C817.688,-259.384 755.539,-244.734 711.14,-234.269"/>
<polygon fill="midnightblue" stroke="midnightblue" points="864.587,-274.035 875.124,-272.922 866.193,-267.221 864.587,-274.035"/>
</g>
<!-- Node23 -->
<g id="node23" class="node"><title>Node23</title>
<g id="a_node23"><a xlink:href="../../dd/d4b/eventuserchangenick_8cpp.xhtml" target="_top" xlink:title="C++/resources/events\l/eventuserchangenick.cpp">
<polygon fill="white" stroke="black" points="1015.35,-205 1015.35,-235 1144.35,-235 1144.35,-205 1015.35,-205"/>
<text text-anchor="start" x="1023.35" y="-223" font-family="Helvetica,sans-Serif" font-size="10.00">C++/resources/events</text>
<text text-anchor="middle" x="1079.85" y="-212" font-family="Helvetica,sans-Serif" font-size="10.00">/eventuserchangenick.cpp</text>
</a>
</g>
</g>
<!-- Node22&#45;&gt;Node23 -->
<g id="edge28" class="edge"><title>Node22&#45;&gt;Node23</title>
<path fill="none" stroke="midnightblue" d="M975.256,-268.607C998.612,-257.976 1027.53,-244.811 1049.04,-235.022"/>
<polygon fill="midnightblue" stroke="midnightblue" points="973.605,-265.513 965.953,-272.841 976.505,-271.884 973.605,-265.513"/>
</g>
</g>
</svg>
