<?xml version="1.0" encoding="UTF-8" standalone="no"?>
<!DOCTYPE svg PUBLIC "-//W3C//DTD SVG 1.1//EN"
 "http://www.w3.org/Graphics/SVG/1.1/DTD/svg11.dtd">
<!-- Generated by graphviz version 2.30.1 (20130303.0817)
 -->
<!-- Title: C++/resources/clsevent.h Pages: 1 -->
<!--zoomable 368 -->
<svg id="main" version="1.1" xmlns="http://www.w3.org/2000/svg" xmlns:xlink="http://www.w3.org/1999/xlink" xml:space="preserve" onload="init(evt)">
        <defs>
                <circle id="rim" cx="0" cy="0" r="7"/>
                <circle id="rim2" cx="0" cy="0" r="3.5"/>
                <g id="zoomPlus">
                        <use xlink:href="#rim" fill="#404040">
                                <set attributeName="fill" to="#808080" begin="zoomplus.mouseover" end="zoomplus.mouseout"/>
                        </use>
                        <path d="M-4,0h8M0,-4v8" fill="none" stroke="white" stroke-width="1.5" pointer-events="none"/>
                </g>
                <g id="zoomMin">
                        <use xlink:href="#rim" fill="#404040">
                                <set attributeName="fill" to="#808080" begin="zoomminus.mouseover" end="zoomminus.mouseout"/>
                        </use>
                        <path d="M-4,0h8" fill="none" stroke="white" stroke-width="1.5" pointer-events="none"/>
                </g>
                <g id="dirArrow">
                        <path fill="none" stroke="white" stroke-width="1.5" d="M0,-3.0v7 M-2.5,-0.5L0,-3.0L2.5,-0.5"/>
                </g>
               <g id="resetDef">
                       <use xlink:href="#rim2" fill="#404040">
                               <set attributeName="fill" to="#808080" begin="reset.mouseover" end="reset.mouseout"/>
                       </use>
               </g>
        </defs>

<script type="text/javascript">
var viewWidth = 1491;
var viewHeight = 368;
var sectionId = 'dynsection-1';
</script>
<script xlink:href="../../svgpan.js"/>
<svg id="graph" class="graph">
<g id="viewport">
<title>C++/resources/clsevent.h</title>
<polygon fill="white" stroke="white" points="-4,5 -4,-364 1487.85,-364 1487.85,5 -4,5"/>
<!-- Node1 -->
<g id="node1" class="node"><title>Node1</title>
<polygon fill="#bfbfbf" stroke="black" points="590.847,-340.5 590.847,-359.5 718.847,-359.5 718.847,-340.5 590.847,-340.5"/>
<text text-anchor="middle" x="654.847" y="-347.5" font-family="Helvetica,sans-Serif" font-size="10.00">C++/resources/clsevent.h</text>
</g>
<!-- Node2 -->
<g id="node2" class="node"><title>Node2</title>
<g id="a_node2"><a xlink:href="../../d3/d33/chatbox_8h.html" target="_top" xlink:title="C++/customIrcClient\l/chatbox.h">
<polygon fill="white" stroke="black" points="76.8471,-273 76.8471,-303 182.847,-303 182.847,-273 76.8471,-273"/>
<text text-anchor="start" x="84.8471" y="-291" font-family="Helvetica,sans-Serif" font-size="10.00">C++/customIrcClient</text>
<text text-anchor="middle" x="129.847" y="-280" font-family="Helvetica,sans-Serif" font-size="10.00">/chatbox.h</text>
</a>
</g>
</g>
<!-- Node1&#45;&gt;Node2 -->
<g id="edge1" class="edge"><title>Node1&#45;&gt;Node2</title>
<path fill="none" stroke="midnightblue" d="M580.299,-340.587C500.694,-331.59 370.848,-316.875 258.847,-304 233.872,-301.129 206.181,-297.913 182.878,-295.198"/>
<polygon fill="midnightblue" stroke="midnightblue" points="580.382,-344.119 590.712,-341.764 581.168,-337.163 580.382,-344.119"/>
</g>
<!-- Node8 -->
<g id="node8" class="node"><title>Node8</title>
<g id="a_node8"><a xlink:href="../../d5/dbc/clsserverconn_8h.html" target="_top" xlink:title="C++/customIrcClient\l/clsserverconn.h">
<polygon fill="white" stroke="black" points="311.847,-137 311.847,-167 417.847,-167 417.847,-137 311.847,-137"/>
<text text-anchor="start" x="319.847" y="-155" font-family="Helvetica,sans-Serif" font-size="10.00">C++/customIrcClient</text>
<text text-anchor="middle" x="364.847" y="-144" font-family="Helvetica,sans-Serif" font-size="10.00">/clsserverconn.h</text>
</a>
</g>
</g>
<!-- Node1&#45;&gt;Node8 -->
<g id="edge7" class="edge"><title>Node1&#45;&gt;Node8</title>
<path fill="none" stroke="midnightblue" d="M580.354,-349.539C494.667,-348.381 361.665,-340.527 329.847,-304 300.655,-270.487 316.682,-246.45 329.847,-204 334.11,-190.256 343.499,-176.927 351.481,-167.344"/>
<polygon fill="midnightblue" stroke="midnightblue" points="580.522,-353.041 590.559,-349.649 580.597,-346.041 580.522,-353.041"/>
</g>
<!-- Node10 -->
<g id="node10" class="node"><title>Node10</title>
<g id="a_node10"><a xlink:href="../../db/d70/eventchat_8h.html" target="_top" xlink:title="C++/resources/events\l/eventchat.h">
<polygon fill="white" stroke="black" points="338.847,-273 338.847,-303 450.847,-303 450.847,-273 338.847,-273"/>
<text text-anchor="start" x="346.847" y="-291" font-family="Helvetica,sans-Serif" font-size="10.00">C++/resources/events</text>
<text text-anchor="middle" x="394.847" y="-280" font-family="Helvetica,sans-Serif" font-size="10.00">/eventchat.h</text>
</a>
</g>
</g>
<!-- Node1&#45;&gt;Node10 -->
<g id="edge10" class="edge"><title>Node1&#45;&gt;Node10</title>
<path fill="none" stroke="midnightblue" d="M608.012,-338.192C564.034,-328.043 498.168,-312.843 451.305,-302.029"/>
<polygon fill="midnightblue" stroke="midnightblue" points="607.341,-341.629 617.872,-340.467 608.915,-334.808 607.341,-341.629"/>
</g>
<!-- Node16 -->
<g id="node16" class="node"><title>Node16</title>
<g id="a_node16"><a xlink:href="../../d5/d02/eventuserjoin_8h.html" target="_top" xlink:title="C++/resources/events\l/eventuserjoin.h">
<polygon fill="white" stroke="black" points="468.847,-273 468.847,-303 580.847,-303 580.847,-273 468.847,-273"/>
<text text-anchor="start" x="476.847" y="-291" font-family="Helvetica,sans-Serif" font-size="10.00">C++/resources/events</text>
<text text-anchor="middle" x="524.847" y="-280" font-family="Helvetica,sans-Serif" font-size="10.00">/eventuserjoin.h</text>
</a>
</g>
</g>
<!-- Node1&#45;&gt;Node16 -->
<g id="edge17" class="edge"><title>Node1&#45;&gt;Node16</title>
<path fill="none" stroke="midnightblue" d="M626.881,-336.093C605.872,-326.396 577.116,-313.124 555.486,-303.141"/>
<polygon fill="midnightblue" stroke="midnightblue" points="625.675,-339.391 636.221,-340.403 628.608,-333.035 625.675,-339.391"/>
</g>
<!-- Node18 -->
<g id="node18" class="node"><title>Node18</title>
<g id="a_node18"><a xlink:href="../../d7/d56/eventuserleave_8h.html" target="_top" xlink:title="C++/resources/events\l/eventuserleave.h">
<polygon fill="white" stroke="black" points="598.847,-273 598.847,-303 710.847,-303 710.847,-273 598.847,-273"/>
<text text-anchor="start" x="606.847" y="-291" font-family="Helvetica,sans-Serif" font-size="10.00">C++/resources/events</text>
<text text-anchor="middle" x="654.847" y="-280" font-family="Helvetica,sans-Serif" font-size="10.00">/eventuserleave.h</text>
</a>
</g>
</g>
<!-- Node1&#45;&gt;Node18 -->
<g id="edge20" class="edge"><title>Node1&#45;&gt;Node18</title>
<path fill="none" stroke="midnightblue" d="M654.847,-330.371C654.847,-321.585 654.847,-311.272 654.847,-303.141"/>
<polygon fill="midnightblue" stroke="midnightblue" points="651.347,-330.403 654.847,-340.403 658.347,-330.403 651.347,-330.403"/>
</g>
<!-- Node20 -->
<g id="node20" class="node"><title>Node20</title>
<g id="a_node20"><a xlink:href="../../db/db0/eventuserchangestatus_8h.html" target="_top" xlink:title="C++/resources/events\l/eventuserchangestatus.h">
<polygon fill="white" stroke="black" points="728.847,-273 728.847,-303 856.847,-303 856.847,-273 728.847,-273"/>
<text text-anchor="start" x="736.847" y="-291" font-family="Helvetica,sans-Serif" font-size="10.00">C++/resources/events</text>
<text text-anchor="middle" x="792.847" y="-280" font-family="Helvetica,sans-Serif" font-size="10.00">/eventuserchangestatus.h</text>
</a>
</g>
</g>
<!-- Node1&#45;&gt;Node20 -->
<g id="edge23" class="edge"><title>Node1&#45;&gt;Node20</title>
<path fill="none" stroke="midnightblue" d="M683.963,-336.341C706.399,-326.586 737.401,-313.107 760.589,-303.025"/>
<polygon fill="midnightblue" stroke="midnightblue" points="682.394,-333.206 674.619,-340.403 685.185,-339.626 682.394,-333.206"/>
</g>
<!-- Node22 -->
<g id="node22" class="node"><title>Node22</title>
<g id="a_node22"><a xlink:href="../../d8/d44/eventuserchangenick_8h.html" target="_top" xlink:title="C++/resources/events\l/eventuserchangenick.h">
<polygon fill="white" stroke="black" points="875.347,-273 875.347,-303 994.347,-303 994.347,-273 875.347,-273"/>
<text text-anchor="start" x="883.347" y="-291" font-family="Helvetica,sans-Serif" font-size="10.00">C++/resources/events</text>
<text text-anchor="middle" x="934.847" y="-280" font-family="Helvetica,sans-Serif" font-size="10.00">/eventuserchangenick.h</text>
</a>
</g>
</g>
<!-- Node1&#45;&gt;Node22 -->
<g id="edge26" class="edge"><title>Node1&#45;&gt;Node22</title>
<path fill="none" stroke="midnightblue" d="M705.186,-338.323C747.941,-329.24 810.931,-315.825 865.847,-304 868.843,-303.355 871.912,-302.693 875.011,-302.023"/>
<polygon fill="midnightblue" stroke="midnightblue" points="704.362,-334.919 695.307,-340.42 705.816,-341.767 704.362,-334.919"/>
</g>
<!-- Node24 -->
<g id="node24" class="node"><title>Node24</title>
<g id="a_node24"><a xlink:href="../../da/d66/eventservermessage_8h.html" target="_top" xlink:title="C++/resources/events\l/eventservermessage.h">
<polygon fill="white" stroke="black" points="1012.85,-273 1012.85,-303 1128.85,-303 1128.85,-273 1012.85,-273"/>
<text text-anchor="start" x="1020.85" y="-291" font-family="Helvetica,sans-Serif" font-size="10.00">C++/resources/events</text>
<text text-anchor="middle" x="1070.85" y="-280" font-family="Helvetica,sans-Serif" font-size="10.00">/eventservermessage.h</text>
</a>
</g>
</g>
<!-- Node1&#45;&gt;Node24 -->
<g id="edge29" class="edge"><title>Node1&#45;&gt;Node24</title>
<path fill="none" stroke="midnightblue" d="M729.062,-341.329C799.714,-333.573 908.898,-320.403 1002.85,-304 1006.06,-303.439 1009.36,-302.829 1012.68,-302.187"/>
<polygon fill="midnightblue" stroke="midnightblue" points="728.486,-337.871 718.924,-342.434 729.244,-344.83 728.486,-337.871"/>
</g>
<!-- Node5 -->
<g id="node5" class="node"><title>Node5</title>
<g id="a_node5"><a xlink:href="../../d9/d53/mainwindow_8h.html" target="_top" xlink:title="C++/customIrcClient\l/mainwindow.h">
<polygon fill="white" stroke="black" points="198.847,-69 198.847,-99 304.847,-99 304.847,-69 198.847,-69"/>
<text text-anchor="start" x="206.847" y="-87" font-family="Helvetica,sans-Serif" font-size="10.00">C++/customIrcClient</text>
<text text-anchor="middle" x="251.847" y="-76" font-family="Helvetica,sans-Serif" font-size="10.00">/mainwindow.h</text>
</a>
</g>
</g>
<!-- Node1&#45;&gt;Node5 -->
<g id="edge32" class="edge"><title>Node1&#45;&gt;Node5</title>
<path fill="none" stroke="midnightblue" d="M580.813,-348.666C491.908,-346.711 349.855,-338.134 310.847,-304 249.062,-249.935 248.782,-138.667 250.806,-99.2371"/>
<polygon fill="midnightblue" stroke="midnightblue" points="580.78,-352.166 590.847,-348.864 580.918,-345.168 580.78,-352.166"/>
</g>
<!-- Node12 -->
<g id="node12" class="node"><title>Node12</title>
<g id="a_node12"><a xlink:href="../../db/df6/mainapp_8h.html" target="_top" xlink:title="C++/customIrcServer\l/mainapp.h">
<polygon fill="white" stroke="black" points="996.847,-137 996.847,-167 1104.85,-167 1104.85,-137 996.847,-137"/>
<text text-anchor="start" x="1004.85" y="-155" font-family="Helvetica,sans-Serif" font-size="10.00">C++/customIrcServer</text>
<text text-anchor="middle" x="1050.85" y="-144" font-family="Helvetica,sans-Serif" font-size="10.00">/mainapp.h</text>
</a>
</g>
</g>
<!-- Node1&#45;&gt;Node12 -->
<g id="edge33" class="edge"><title>Node1&#45;&gt;Node12</title>
<path fill="none" stroke="midnightblue" d="M729.472,-348.626C885.271,-345.963 1235.85,-329.491 1297.85,-236 1344.66,-165.405 1190.85,-153.677 1104.85,-152.469"/>
<polygon fill="midnightblue" stroke="midnightblue" points="728.991,-345.133 719.047,-348.788 729.101,-352.132 728.991,-345.133"/>
</g>
<!-- Node26 -->
<g id="node26" class="node"><title>Node26</title>
<g id="a_node26"><a xlink:href="../../da/de6/clsevent_8cpp.html" target="_top" xlink:title="C++/resources/clsevent.cpp">
<polygon fill="white" stroke="black" points="1344.85,-278.5 1344.85,-297.5 1482.85,-297.5 1482.85,-278.5 1344.85,-278.5"/>
<text text-anchor="middle" x="1413.85" y="-285.5" font-family="Helvetica,sans-Serif" font-size="10.00">C++/resources/clsevent.cpp</text>
</a>
</g>
</g>
<!-- Node1&#45;&gt;Node26 -->
<g id="edge34" class="edge"><title>Node1&#45;&gt;Node26</title>
<path fill="none" stroke="midnightblue" d="M729.113,-346.784C853.839,-342.454 1113.12,-330.834 1330.85,-304 1344.22,-302.352 1358.7,-299.951 1371.76,-297.552"/>
<polygon fill="midnightblue" stroke="midnightblue" points="728.791,-343.293 718.916,-347.133 729.03,-350.289 728.791,-343.293"/>
</g>
<!-- Node3 -->
<g id="node3" class="node"><title>Node3</title>
<g id="a_node3"><a xlink:href="../../de/da9/chatbox_8cpp.html" target="_top" xlink:title="C++/customIrcClient\l/chatbox.cpp">
<polygon fill="white" stroke="black" points="138.847,-205 138.847,-235 244.847,-235 244.847,-205 138.847,-205"/>
<text text-anchor="start" x="146.847" y="-223" font-family="Helvetica,sans-Serif" font-size="10.00">C++/customIrcClient</text>
<text text-anchor="middle" x="191.847" y="-212" font-family="Helvetica,sans-Serif" font-size="10.00">/chatbox.cpp</text>
</a>
</g>
</g>
<!-- Node2&#45;&gt;Node3 -->
<g id="edge2" class="edge"><title>Node2&#45;&gt;Node3</title>
<path fill="none" stroke="midnightblue" d="M150.332,-265.194C159.569,-255.36 170.22,-244.023 178.42,-235.293"/>
<polygon fill="midnightblue" stroke="midnightblue" points="147.596,-262.994 143.3,-272.679 152.698,-267.787 147.596,-262.994"/>
</g>
<!-- Node4 -->
<g id="node4" class="node"><title>Node4</title>
<g id="a_node4"><a xlink:href="../../d0/dc6/chatentry_8cpp.html" target="_top" xlink:title="C++/customIrcClient\l/chatentry.cpp">
<polygon fill="white" stroke="black" points="14.8471,-205 14.8471,-235 120.847,-235 120.847,-205 14.8471,-205"/>
<text text-anchor="start" x="22.8471" y="-223" font-family="Helvetica,sans-Serif" font-size="10.00">C++/customIrcClient</text>
<text text-anchor="middle" x="67.8471" y="-212" font-family="Helvetica,sans-Serif" font-size="10.00">/chatentry.cpp</text>
</a>
</g>
</g>
<!-- Node2&#45;&gt;Node4 -->
<g id="edge3" class="edge"><title>Node2&#45;&gt;Node4</title>
<path fill="none" stroke="midnightblue" d="M109.363,-265.194C100.125,-255.36 89.4746,-244.023 81.2739,-235.293"/>
<polygon fill="midnightblue" stroke="midnightblue" points="106.996,-267.787 116.394,-272.679 112.098,-262.994 106.996,-267.787"/>
</g>
<!-- Node2&#45;&gt;Node5 -->
<g id="edge4" class="edge"><title>Node2&#45;&gt;Node5</title>
<path fill="none" stroke="midnightblue" d="M66.9371,-276.348C43.7314,-269.04 19.7348,-256.728 5.84713,-236 -2.06908,-224.185 -1.70897,-216.049 5.84713,-204 47.9409,-136.877 139.801,-106.688 198.585,-93.8098"/>
<polygon fill="midnightblue" stroke="midnightblue" points="66.2244,-279.785 76.8022,-279.184 68.1585,-273.058 66.2244,-279.785"/>
</g>
<!-- Node6 -->
<g id="node6" class="node"><title>Node6</title>
<g id="a_node6"><a xlink:href="../../df/d94/custom_irc_client_2main_8cpp.html" target="_top" xlink:title="C++/customIrcClient\l/main.cpp">
<polygon fill="white" stroke="black" points="136.847,-1 136.847,-31 242.847,-31 242.847,-1 136.847,-1"/>
<text text-anchor="start" x="144.847" y="-19" font-family="Helvetica,sans-Serif" font-size="10.00">C++/customIrcClient</text>
<text text-anchor="middle" x="189.847" y="-8" font-family="Helvetica,sans-Serif" font-size="10.00">/main.cpp</text>
</a>
</g>
</g>
<!-- Node5&#45;&gt;Node6 -->
<g id="edge5" class="edge"><title>Node5&#45;&gt;Node6</title>
<path fill="none" stroke="midnightblue" d="M231.363,-61.1939C222.125,-51.3605 211.475,-40.0228 203.274,-31.2931"/>
<polygon fill="midnightblue" stroke="midnightblue" points="228.996,-63.7869 238.394,-68.679 234.098,-58.9941 228.996,-63.7869"/>
</g>
<!-- Node7 -->
<g id="node7" class="node"><title>Node7</title>
<g id="a_node7"><a xlink:href="../../d8/dd9/mainwindow_8cpp.html" target="_top" xlink:title="C++/customIrcClient\l/mainwindow.cpp">
<polygon fill="white" stroke="black" points="260.847,-1 260.847,-31 366.847,-31 366.847,-1 260.847,-1"/>
<text text-anchor="start" x="268.847" y="-19" font-family="Helvetica,sans-Serif" font-size="10.00">C++/customIrcClient</text>
<text text-anchor="middle" x="313.847" y="-8" font-family="Helvetica,sans-Serif" font-size="10.00">/mainwindow.cpp</text>
</a>
</g>
</g>
<!-- Node5&#45;&gt;Node7 -->
<g id="edge6" class="edge"><title>Node5&#45;&gt;Node7</title>
<path fill="none" stroke="midnightblue" d="M272.332,-61.1939C281.569,-51.3605 292.22,-40.0228 300.42,-31.2931"/>
<polygon fill="midnightblue" stroke="midnightblue" points="269.596,-58.9941 265.3,-68.679 274.698,-63.7869 269.596,-58.9941"/>
</g>
<!-- Node9 -->
<g id="node9" class="node"><title>Node9</title>
<g id="a_node9"><a xlink:href="../../db/d1f/clsserverconn_8cpp.html" target="_top" xlink:title="C++/customIrcClient\l/clsserverconn.cpp">
<polygon fill="white" stroke="black" points="322.847,-69 322.847,-99 428.847,-99 428.847,-69 322.847,-69"/>
<text text-anchor="start" x="330.847" y="-87" font-family="Helvetica,sans-Serif" font-size="10.00">C++/customIrcClient</text>
<text text-anchor="middle" x="375.847" y="-76" font-family="Helvetica,sans-Serif" font-size="10.00">/clsserverconn.cpp</text>
</a>
</g>
</g>
<!-- Node8&#45;&gt;Node9 -->
<g id="edge8" class="edge"><title>Node8&#45;&gt;Node9</title>
<path fill="none" stroke="midnightblue" d="M368.925,-126.532C370.454,-117.361 372.14,-107.245 373.465,-99.2931"/>
<polygon fill="midnightblue" stroke="midnightblue" points="365.426,-126.24 367.234,-136.679 372.33,-127.39 365.426,-126.24"/>
</g>
<!-- Node8&#45;&gt;Node5 -->
<g id="edge9" class="edge"><title>Node8&#45;&gt;Node5</title>
<path fill="none" stroke="midnightblue" d="M331.677,-131.626C313.854,-121.217 292.275,-108.613 276.048,-99.1352"/>
<polygon fill="midnightblue" stroke="midnightblue" points="330.206,-134.82 340.606,-136.841 333.736,-128.776 330.206,-134.82"/>
</g>
<!-- Node11 -->
<g id="node11" class="node"><title>Node11</title>
<g id="a_node11"><a xlink:href="../../db/dd2/events_8h.html" target="_top" xlink:title="C++/resources/events\l/events.h">
<polygon fill="white" stroke="black" points="728.847,-205 728.847,-235 840.847,-235 840.847,-205 728.847,-205"/>
<text text-anchor="start" x="736.847" y="-223" font-family="Helvetica,sans-Serif" font-size="10.00">C++/resources/events</text>
<text text-anchor="middle" x="784.847" y="-212" font-family="Helvetica,sans-Serif" font-size="10.00">/events.h</text>
</a>
</g>
</g>
<!-- Node10&#45;&gt;Node11 -->
<g id="edge11" class="edge"><title>Node10&#45;&gt;Node11</title>
<path fill="none" stroke="midnightblue" d="M461.038,-271.88C575.86,-251.22 607.65,-256.326 718.847,-236 722.084,-235.408 725.402,-234.767 728.745,-234.093"/>
<polygon fill="midnightblue" stroke="midnightblue" points="460.362,-268.445 451.154,-273.684 461.62,-275.331 460.362,-268.445"/>
</g>
<!-- Node15 -->
<g id="node15" class="node"><title>Node15</title>
<g id="a_node15"><a xlink:href="../../db/df5/eventchat_8cpp.html" target="_top" xlink:title="C++/resources/events\l/eventchat.cpp">
<polygon fill="white" stroke="black" points="338.847,-205 338.847,-235 450.847,-235 450.847,-205 338.847,-205"/>
<text text-anchor="start" x="346.847" y="-223" font-family="Helvetica,sans-Serif" font-size="10.00">C++/resources/events</text>
<text text-anchor="middle" x="394.847" y="-212" font-family="Helvetica,sans-Serif" font-size="10.00">/eventchat.cpp</text>
</a>
</g>
</g>
<!-- Node10&#45;&gt;Node15 -->
<g id="edge16" class="edge"><title>Node10&#45;&gt;Node15</title>
<path fill="none" stroke="midnightblue" d="M394.847,-262.532C394.847,-253.361 394.847,-243.245 394.847,-235.293"/>
<polygon fill="midnightblue" stroke="midnightblue" points="391.347,-262.679 394.847,-272.679 398.347,-262.679 391.347,-262.679"/>
</g>
<!-- Node11&#45;&gt;Node8 -->
<g id="edge12" class="edge"><title>Node11&#45;&gt;Node8</title>
<path fill="none" stroke="midnightblue" d="M719.151,-204.056C719.049,-204.038 718.948,-204.019 718.847,-204 612.768,-184.337 487.613,-167.872 418.142,-159.322"/>
<polygon fill="midnightblue" stroke="midnightblue" points="718.256,-207.448 728.741,-205.926 719.596,-200.577 718.256,-207.448"/>
</g>
<!-- Node11&#45;&gt;Node12 -->
<g id="edge13" class="edge"><title>Node11&#45;&gt;Node12</title>
<path fill="none" stroke="midnightblue" d="M850.874,-202.617C895.787,-191.474 954.487,-176.909 996.655,-166.446"/>
<polygon fill="midnightblue" stroke="midnightblue" points="849.797,-199.278 840.934,-205.084 851.482,-206.072 849.797,-199.278"/>
</g>
<!-- Node13 -->
<g id="node13" class="node"><title>Node13</title>
<g id="a_node13"><a xlink:href="../../dc/d17/custom_irc_server_2main_8cpp.html" target="_top" xlink:title="C++/customIrcServer\l/main.cpp">
<polygon fill="white" stroke="black" points="933.847,-69 933.847,-99 1041.85,-99 1041.85,-69 933.847,-69"/>
<text text-anchor="start" x="941.847" y="-87" font-family="Helvetica,sans-Serif" font-size="10.00">C++/customIrcServer</text>
<text text-anchor="middle" x="987.847" y="-76" font-family="Helvetica,sans-Serif" font-size="10.00">/main.cpp</text>
</a>
</g>
</g>
<!-- Node12&#45;&gt;Node13 -->
<g id="edge14" class="edge"><title>Node12&#45;&gt;Node13</title>
<path fill="none" stroke="midnightblue" d="M1030.03,-129.194C1020.65,-119.36 1009.82,-108.023 1001.49,-99.2931"/>
<polygon fill="midnightblue" stroke="midnightblue" points="1027.74,-131.862 1037.18,-136.679 1032.8,-127.029 1027.74,-131.862"/>
</g>
<!-- Node14 -->
<g id="node14" class="node"><title>Node14</title>
<g id="a_node14"><a xlink:href="../../d8/d88/mainapp_8cpp.html" target="_top" xlink:title="C++/customIrcServer\l/mainapp.cpp">
<polygon fill="white" stroke="black" points="1059.85,-69 1059.85,-99 1167.85,-99 1167.85,-69 1059.85,-69"/>
<text text-anchor="start" x="1067.85" y="-87" font-family="Helvetica,sans-Serif" font-size="10.00">C++/customIrcServer</text>
<text text-anchor="middle" x="1113.85" y="-76" font-family="Helvetica,sans-Serif" font-size="10.00">/mainapp.cpp</text>
</a>
</g>
</g>
<!-- Node12&#45;&gt;Node14 -->
<g id="edge15" class="edge"><title>Node12&#45;&gt;Node14</title>
<path fill="none" stroke="midnightblue" d="M1071.66,-129.194C1081.05,-119.36 1091.87,-108.023 1100.2,-99.2931"/>
<polygon fill="midnightblue" stroke="midnightblue" points="1068.89,-127.029 1064.52,-136.679 1073.95,-131.862 1068.89,-127.029"/>
</g>
<!-- Node16&#45;&gt;Node11 -->
<g id="edge18" class="edge"><title>Node16&#45;&gt;Node11</title>
<path fill="none" stroke="midnightblue" d="M590.099,-270.436C633.056,-259.532 688.679,-245.412 729.475,-235.056"/>
<polygon fill="midnightblue" stroke="midnightblue" points="589.136,-267.069 580.305,-272.922 590.859,-273.854 589.136,-267.069"/>
</g>
<!-- Node17 -->
<g id="node17" class="node"><title>Node17</title>
<g id="a_node17"><a xlink:href="../../d0/ddb/eventuserjoin_8cpp.html" target="_top" xlink:title="C++/resources/events\l/eventuserjoin.cpp">
<polygon fill="white" stroke="black" points="468.847,-205 468.847,-235 580.847,-235 580.847,-205 468.847,-205"/>
<text text-anchor="start" x="476.847" y="-223" font-family="Helvetica,sans-Serif" font-size="10.00">C++/resources/events</text>
<text text-anchor="middle" x="524.847" y="-212" font-family="Helvetica,sans-Serif" font-size="10.00">/eventuserjoin.cpp</text>
</a>
</g>
</g>
<!-- Node16&#45;&gt;Node17 -->
<g id="edge19" class="edge"><title>Node16&#45;&gt;Node17</title>
<path fill="none" stroke="midnightblue" d="M524.847,-262.532C524.847,-253.361 524.847,-243.245 524.847,-235.293"/>
<polygon fill="midnightblue" stroke="midnightblue" points="521.347,-262.679 524.847,-272.679 528.347,-262.679 521.347,-262.679"/>
</g>
<!-- Node18&#45;&gt;Node11 -->
<g id="edge21" class="edge"><title>Node18&#45;&gt;Node11</title>
<path fill="none" stroke="midnightblue" d="M691.884,-268.197C712.598,-257.68 737.994,-244.787 757.005,-235.135"/>
<polygon fill="midnightblue" stroke="midnightblue" points="690.068,-265.194 682.735,-272.841 693.237,-271.435 690.068,-265.194"/>
</g>
<!-- Node19 -->
<g id="node19" class="node"><title>Node19</title>
<g id="a_node19"><a xlink:href="../../df/d4c/eventuserleave_8cpp.html" target="_top" xlink:title="C++/resources/events\l/eventuserleave.cpp">
<polygon fill="white" stroke="black" points="598.847,-205 598.847,-235 710.847,-235 710.847,-205 598.847,-205"/>
<text text-anchor="start" x="606.847" y="-223" font-family="Helvetica,sans-Serif" font-size="10.00">C++/resources/events</text>
<text text-anchor="middle" x="654.847" y="-212" font-family="Helvetica,sans-Serif" font-size="10.00">/eventuserleave.cpp</text>
</a>
</g>
</g>
<!-- Node18&#45;&gt;Node19 -->
<g id="edge22" class="edge"><title>Node18&#45;&gt;Node19</title>
<path fill="none" stroke="midnightblue" d="M654.847,-262.532C654.847,-253.361 654.847,-243.245 654.847,-235.293"/>
<polygon fill="midnightblue" stroke="midnightblue" points="651.347,-262.679 654.847,-272.679 658.347,-262.679 651.347,-262.679"/>
</g>
<!-- Node20&#45;&gt;Node11 -->
<g id="edge24" class="edge"><title>Node20&#45;&gt;Node11</title>
<path fill="none" stroke="midnightblue" d="M789.881,-262.532C788.77,-253.361 787.543,-243.245 786.58,-235.293"/>
<polygon fill="midnightblue" stroke="midnightblue" points="786.433,-263.173 791.111,-272.679 793.382,-262.33 786.433,-263.173"/>
</g>
<!-- Node21 -->
<g id="node21" class="node"><title>Node21</title>
<g id="a_node21"><a xlink:href="../../da/d88/eventuserchangestatus_8cpp.html" target="_top" xlink:title="C++/resources/events\l/eventuserchangestatus.cpp">
<polygon fill="white" stroke="black" points="858.847,-205 858.847,-235 996.847,-235 996.847,-205 858.847,-205"/>
<text text-anchor="start" x="866.847" y="-223" font-family="Helvetica,sans-Serif" font-size="10.00">C++/resources/events</text>
<text text-anchor="middle" x="927.847" y="-212" font-family="Helvetica,sans-Serif" font-size="10.00">/eventuserchangestatus.cpp</text>
</a>
</g>
</g>
<!-- Node20&#45;&gt;Node21 -->
<g id="edge25" class="edge"><title>Node20&#45;&gt;Node21</title>
<path fill="none" stroke="midnightblue" d="M831.018,-268.339C852.582,-257.796 879.103,-244.83 898.934,-235.135"/>
<polygon fill="midnightblue" stroke="midnightblue" points="829.255,-265.305 821.808,-272.841 832.329,-271.594 829.255,-265.305"/>
</g>
<!-- Node22&#45;&gt;Node11 -->
<g id="edge27" class="edge"><title>Node22&#45;&gt;Node11</title>
<path fill="none" stroke="midnightblue" d="M893.367,-268.749C869.149,-258.093 839.062,-244.855 816.715,-235.022"/>
<polygon fill="midnightblue" stroke="midnightblue" points="892.106,-272.018 902.668,-272.841 894.925,-265.61 892.106,-272.018"/>
</g>
<!-- Node23 -->
<g id="node23" class="node"><title>Node23</title>
<g id="a_node23"><a xlink:href="../../dd/d4b/eventuserchangenick_8cpp.html" target="_top" xlink:title="C++/resources/events\l/eventuserchangenick.cpp">
<polygon fill="white" stroke="black" points="1015.35,-205 1015.35,-235 1144.35,-235 1144.35,-205 1015.35,-205"/>
<text text-anchor="start" x="1023.35" y="-223" font-family="Helvetica,sans-Serif" font-size="10.00">C++/resources/events</text>
<text text-anchor="middle" x="1079.85" y="-212" font-family="Helvetica,sans-Serif" font-size="10.00">/eventuserchangenick.cpp</text>
</a>
</g>
</g>
<!-- Node22&#45;&gt;Node23 -->
<g id="edge28" class="edge"><title>Node22&#45;&gt;Node23</title>
<path fill="none" stroke="midnightblue" d="M975.256,-268.607C998.612,-257.976 1027.53,-244.811 1049.04,-235.022"/>
<polygon fill="midnightblue" stroke="midnightblue" points="973.605,-265.513 965.953,-272.841 976.505,-271.884 973.605,-265.513"/>
</g>
<!-- Node24&#45;&gt;Node11 -->
<g id="edge30" class="edge"><title>Node24&#45;&gt;Node11</title>
<path fill="none" stroke="midnightblue" d="M1002.67,-271.267C953.309,-259.876 887.388,-244.663 841.039,-233.967"/>
<polygon fill="midnightblue" stroke="midnightblue" points="1002.1,-274.726 1012.63,-273.564 1003.67,-267.905 1002.1,-274.726"/>
</g>
<!-- Node25 -->
<g id="node25" class="node"><title>Node25</title>
<g id="a_node25"><a xlink:href="../../d3/d54/eventservermessage_8cpp.html" target="_top" xlink:title="C++/resources/events\l/eventservermessage.cpp">
<polygon fill="white" stroke="black" points="1162.85,-205 1162.85,-235 1288.85,-235 1288.85,-205 1162.85,-205"/>
<text text-anchor="start" x="1170.85" y="-223" font-family="Helvetica,sans-Serif" font-size="10.00">C++/resources/events</text>
<text text-anchor="middle" x="1225.85" y="-212" font-family="Helvetica,sans-Serif" font-size="10.00">/eventservermessage.cpp</text>
</a>
</g>
</g>
<!-- Node24&#45;&gt;Node25 -->
<g id="edge31" class="edge"><title>Node24&#45;&gt;Node25</title>
<path fill="none" stroke="midnightblue" d="M1113.38,-268.89C1138.46,-258.21 1169.72,-244.898 1192.92,-235.022"/>
<polygon fill="midnightblue" stroke="midnightblue" points="1111.93,-265.703 1104.1,-272.841 1114.67,-272.144 1111.93,-265.703"/>
</g>
</g>
</svg>
        <g id="navigator" transform="translate(0 0)" fill="#404254">
                <rect fill="#f2f5e9" fill-opacity="0.5" stroke="#606060" stroke-width=".5" x="0" y="0" width="60" height="60"/>
                <use id="zoomplus" xlink:href="#zoomPlus" x="17" y="9" onmousedown="handleZoom(evt,'in')"/>
                <use id="zoomminus" xlink:href="#zoomMin" x="42" y="9" onmousedown="handleZoom(evt,'out')"/>
                <use id="reset" xlink:href="#resetDef" x="30" y="36" onmousedown="handleReset()"/>
                <g id="arrowUp" xlink:href="#dirArrow" transform="translate(30 24)" onmousedown="handlePan(0,-1)">
                  <use xlink:href="#rim" fill="#404040">
                        <set attributeName="fill" to="#808080" begin="arrowUp.mouseover" end="arrowUp.mouseout"/>
                  </use>
                  <path fill="none" stroke="white" stroke-width="1.5" d="M0,-3.0v7 M-2.5,-0.5L0,-3.0L2.5,-0.5"/>
                </g>
                <g id="arrowRight" xlink:href="#dirArrow" transform="rotate(90) translate(36 -43)" onmousedown="handlePan(1,0)">
                  <use xlink:href="#rim" fill="#404040">
                        <set attributeName="fill" to="#808080" begin="arrowRight.mouseover" end="arrowRight.mouseout"/>
                  </use>
                  <path fill="none" stroke="white" stroke-width="1.5" d="M0,-3.0v7 M-2.5,-0.5L0,-3.0L2.5,-0.5"/>
                </g>
                <g id="arrowDown" xlink:href="#dirArrow" transform="rotate(180) translate(-30 -48)" onmousedown="handlePan(0,1)">
                  <use xlink:href="#rim" fill="#404040">
                        <set attributeName="fill" to="#808080" begin="arrowDown.mouseover" end="arrowDown.mouseout"/>
                  </use>
                  <path fill="none" stroke="white" stroke-width="1.5" d="M0,-3.0v7 M-2.5,-0.5L0,-3.0L2.5,-0.5"/>
                </g>
                <g id="arrowLeft" xlink:href="#dirArrow" transform="rotate(270) translate(-36 17)" onmousedown="handlePan(-1,0)">
                  <use xlink:href="#rim" fill="#404040">
                        <set attributeName="fill" to="#808080" begin="arrowLeft.mouseover" end="arrowLeft.mouseout"/>
                  </use>
                  <path fill="none" stroke="white" stroke-width="1.5" d="M0,-3.0v7 M-2.5,-0.5L0,-3.0L2.5,-0.5"/>
                </g>
        </g>
        <svg viewBox="0 0 15 15" width="100%" height="30px" preserveAspectRatio="xMaxYMin meet">
         <g id="arrow_out" transform="scale(0.3 0.3)">
          <a xlink:href="clsevent_8h__dep__incl_org.svg" target="_base">
           <rect id="button" ry="5" rx="5" y="6" x="6" height="38" width="38"
                fill="#f2f5e9" fill-opacity="0.5" stroke="#606060" stroke-width="1.0"/>
           <path id="arrow"
             d="M 11.500037,31.436501 C 11.940474,20.09759 22.043105,11.32322 32.158766,21.979434 L 37.068811,17.246167 C 37.068811,17.246167 37.088388,32 37.088388,32 L 22.160133,31.978069 C 22.160133,31.978069 26.997745,27.140456 26.997745,27.140456 C 18.528582,18.264221 13.291696,25.230495 11.500037,31.436501 z"
             style="fill:#404040;"/>
          </a>
         </g>
        </svg>
</svg>
