<?xml version="1.0" encoding="UTF-8" standalone="no"?>
<!DOCTYPE svg PUBLIC "-//W3C//DTD SVG 1.1//EN"
 "http://www.w3.org/Graphics/SVG/1.1/DTD/svg11.dtd">
<!-- Generated by graphviz version 2.30.1 (20130303.0817)
 -->
<!-- Title: client::clsNotify Pages: 1 -->
<svg width="90pt" height="172pt"
 viewBox="0.00 0.00 90.00 172.00" xmlns="http://www.w3.org/2000/svg" xmlns:xlink="http://www.w3.org/1999/xlink">
<g id="graph0" class="graph" transform="scale(1 1) rotate(0) translate(4 168)">
<title>client::clsNotify</title>
<polygon fill="white" stroke="white" points="-4,5 -4,-168 87,-168 87,5 -4,5"/>
<!-- Node1 -->
<g id="node1" class="node"><title>Node1</title>
<polygon fill="#bfbfbf" stroke="black" points="-0.5,-1 -0.5,-69 82.5,-69 82.5,-1 -0.5,-1"/>
<text text-anchor="middle" x="41" y="-57" font-family="Helvetica,sans-Serif" font-size="10.00">client::clsNotify</text>
<polyline fill="none" stroke="black" points="-0.5,-50 82.5,-50 "/>
<text text-anchor="middle" x="41" y="-38" font-family="Helvetica,sans-Serif" font-size="10.00"> </text>
<polyline fill="none" stroke="black" points="-0.5,-31 82.5,-31 "/>
<text text-anchor="start" x="7.5" y="-19" font-family="Helvetica,sans-Serif" font-size="10.00">+ clsNotify()</text>
<text text-anchor="start" x="7.5" y="-8" font-family="Helvetica,sans-Serif" font-size="10.00">+ show()</text>
</g>
<!-- Node2 -->
<g id="node2" class="node"><title>Node2</title>
<polygon fill="white" stroke="#bfbfbf" points="14.5,-106.5 14.5,-163.5 67.5,-163.5 67.5,-106.5 14.5,-106.5"/>
<text text-anchor="middle" x="41" y="-151.5" font-family="Helvetica,sans-Serif" font-size="10.00">QObject</text>
<polyline fill="none" stroke="#bfbfbf" points="14.5,-144.5 67.5,-144.5 "/>
<text text-anchor="middle" x="41" y="-132.5" font-family="Helvetica,sans-Serif" font-size="10.00"> </text>
<polyline fill="none" stroke="#bfbfbf" points="14.5,-125.5 67.5,-125.5 "/>
<text text-anchor="middle" x="41" y="-113.5" font-family="Helvetica,sans-Serif" font-size="10.00"> </text>
</g>
<!-- Node2&#45;&gt;Node1 -->
<g id="edge1" class="edge"><title>Node2&#45;&gt;Node1</title>
<path fill="none" stroke="midnightblue" d="M41,-96.3023C41,-87.3951 41,-77.9608 41,-69.2659"/>
<polygon fill="none" stroke="midnightblue" points="37.5001,-96.4407 41,-106.441 44.5001,-96.4408 37.5001,-96.4407"/>
</g>
</g>
</svg>
