<?xml version="1.0" encoding="UTF-8" standalone="no"?>
<!DOCTYPE svg PUBLIC "-//W3C//DTD SVG 1.1//EN"
 "http://www.w3.org/Graphics/SVG/1.1/DTD/svg11.dtd">
<!-- Generated by graphviz version 2.30.1 (20130303.0817)
 -->
<!-- Title: client::MainWindow Pages: 1 -->
<svg width="549pt" height="664pt"
 viewBox="0.00 0.00 549.00 664.00" xmlns="http://www.w3.org/2000/svg" xmlns:xlink="http://www.w3.org/1999/xlink">
<g id="graph0" class="graph" transform="scale(1 1) rotate(0) translate(4 660)">
<title>client::MainWindow</title>
<polygon fill="white" stroke="white" points="-4,5 -4,-660 546,-660 546,5 -4,5"/>
<!-- Node1 -->
<g id="node1" class="node"><title>Node1</title>
<polygon fill="#bfbfbf" stroke="black" points="202,-0.5 202,-167.5 334,-167.5 334,-0.5 202,-0.5"/>
<text text-anchor="middle" x="268" y="-155.5" font-family="Helvetica,sans-Serif" font-size="10.00">client::MainWindow</text>
<polyline fill="none" stroke="black" points="202,-148.5 334,-148.5 "/>
<text text-anchor="start" x="210" y="-136.5" font-family="Helvetica,sans-Serif" font-size="10.00">&#45; ui</text>
<text text-anchor="start" x="210" y="-125.5" font-family="Helvetica,sans-Serif" font-size="10.00">&#45; users</text>
<polyline fill="none" stroke="black" points="202,-118.5 334,-118.5 "/>
<text text-anchor="start" x="210" y="-106.5" font-family="Helvetica,sans-Serif" font-size="10.00">+ MainWindow()</text>
<text text-anchor="start" x="210" y="-95.5" font-family="Helvetica,sans-Serif" font-size="10.00">+ ~MainWindow()</text>
<text text-anchor="start" x="210" y="-84.5" font-family="Helvetica,sans-Serif" font-size="10.00">&#45; sendChat()</text>
<text text-anchor="start" x="210" y="-73.5" font-family="Helvetica,sans-Serif" font-size="10.00">&#45; commandGiven()</text>
<text text-anchor="start" x="210" y="-62.5" font-family="Helvetica,sans-Serif" font-size="10.00">&#45; moveScrollBarToBottom()</text>
<text text-anchor="start" x="210" y="-51.5" font-family="Helvetica,sans-Serif" font-size="10.00">&#45; serverConnected()</text>
<text text-anchor="start" x="210" y="-40.5" font-family="Helvetica,sans-Serif" font-size="10.00">&#45; serverDisconnected()</text>
<text text-anchor="start" x="210" y="-29.5" font-family="Helvetica,sans-Serif" font-size="10.00">&#45; chatReceived()</text>
<text text-anchor="start" x="210" y="-18.5" font-family="Helvetica,sans-Serif" font-size="10.00">&#45; userQueryCompleted()</text>
<text text-anchor="start" x="210" y="-7.5" font-family="Helvetica,sans-Serif" font-size="10.00">and 4 more...</text>
</g>
<!-- Node2 -->
<g id="node2" class="node"><title>Node2</title>
<polygon fill="white" stroke="#bfbfbf" points="0,-293.5 0,-350.5 80,-350.5 80,-293.5 0,-293.5"/>
<text text-anchor="middle" x="40" y="-338.5" font-family="Helvetica,sans-Serif" font-size="10.00">QMainWindow</text>
<polyline fill="none" stroke="#bfbfbf" points="0,-331.5 80,-331.5 "/>
<text text-anchor="middle" x="40" y="-319.5" font-family="Helvetica,sans-Serif" font-size="10.00"> </text>
<polyline fill="none" stroke="#bfbfbf" points="0,-312.5 80,-312.5 "/>
<text text-anchor="middle" x="40" y="-300.5" font-family="Helvetica,sans-Serif" font-size="10.00"> </text>
</g>
<!-- Node2&#45;&gt;Node1 -->
<g id="edge1" class="edge"><title>Node2&#45;&gt;Node1</title>
<path fill="none" stroke="midnightblue" d="M52.0092,-284.023C60.1717,-262.642 72.4984,-236.083 89,-216 120.293,-177.915 165.043,-145.165 201.97,-121.936"/>
<polygon fill="none" stroke="midnightblue" points="48.7125,-282.848 48.5519,-293.441 55.2837,-285.26 48.7125,-282.848"/>
</g>
<!-- Node3 -->
<g id="node3" class="node"><title>Node3</title>
<g id="a_node3"><a xlink:href="../../d3/d65/classclient_1_1cls_server_conn.xhtml" target="_top" xlink:title="Class that has a connection to the server.">
<polygon fill="white" stroke="black" points="98,-216.5 98,-427.5 232,-427.5 232,-216.5 98,-216.5"/>
<text text-anchor="middle" x="165" y="-415.5" font-family="Helvetica,sans-Serif" font-size="10.00">client::clsServerConn</text>
<polyline fill="none" stroke="black" points="98,-408.5 232,-408.5 "/>
<text text-anchor="start" x="106" y="-396.5" font-family="Helvetica,sans-Serif" font-size="10.00">&#45; hostName</text>
<text text-anchor="start" x="106" y="-385.5" font-family="Helvetica,sans-Serif" font-size="10.00">&#45; port</text>
<text text-anchor="start" x="106" y="-374.5" font-family="Helvetica,sans-Serif" font-size="10.00">&#45; sock</text>
<text text-anchor="start" x="106" y="-363.5" font-family="Helvetica,sans-Serif" font-size="10.00">&#45; buffer</text>
<text text-anchor="start" x="106" y="-352.5" font-family="Helvetica,sans-Serif" font-size="10.00">&#45; depth</text>
<polyline fill="none" stroke="black" points="98,-345.5 232,-345.5 "/>
<text text-anchor="start" x="106" y="-333.5" font-family="Helvetica,sans-Serif" font-size="10.00">+ clsServerConn()</text>
<text text-anchor="start" x="106" y="-322.5" font-family="Helvetica,sans-Serif" font-size="10.00">+ doConnect()</text>
<text text-anchor="start" x="106" y="-311.5" font-family="Helvetica,sans-Serif" font-size="10.00">+ sendCommand()</text>
<text text-anchor="start" x="106" y="-300.5" font-family="Helvetica,sans-Serif" font-size="10.00">+ srvDisconnected()</text>
<text text-anchor="start" x="106" y="-289.5" font-family="Helvetica,sans-Serif" font-size="10.00">+ srvConnected()</text>
<text text-anchor="start" x="106" y="-278.5" font-family="Helvetica,sans-Serif" font-size="10.00">+ readData()</text>
<text text-anchor="start" x="106" y="-267.5" font-family="Helvetica,sans-Serif" font-size="10.00">&#45; checkForJsonCommand()</text>
<text text-anchor="start" x="106" y="-256.5" font-family="Helvetica,sans-Serif" font-size="10.00">&#45; handleCompletedQuery()</text>
<text text-anchor="start" x="106" y="-245.5" font-family="Helvetica,sans-Serif" font-size="10.00">&#45; handleOwnUserChange()</text>
<text text-anchor="start" x="106" y="-234.5" font-family="Helvetica,sans-Serif" font-size="10.00">&#45; handleEventRequest()</text>
<text text-anchor="start" x="106" y="-223.5" font-family="Helvetica,sans-Serif" font-size="10.00">&#45; handleEventReceived()</text>
</a>
</g>
</g>
<!-- Node3&#45;&gt;Node1 -->
<g id="edge2" class="edge"><title>Node3&#45;&gt;Node1</title>
<path fill="none" stroke="#404040" d="M208.901,-216.222C213.288,-205.993 217.707,-195.785 222,-186 223.069,-183.563 224.157,-181.095 225.258,-178.606"/>
<polygon fill="none" stroke="#404040" points="225.279,-178.559 224.063,-171.451 230.157,-167.594 231.373,-174.702 225.279,-178.559"/>
<text text-anchor="middle" x="238" y="-189.5" font-family="Helvetica,sans-Serif" font-size="10.00"> &#45;server</text>
</g>
<!-- Node4 -->
<g id="node4" class="node"><title>Node4</title>
<polygon fill="white" stroke="#bfbfbf" points="138.5,-537.5 138.5,-594.5 191.5,-594.5 191.5,-537.5 138.5,-537.5"/>
<text text-anchor="middle" x="165" y="-582.5" font-family="Helvetica,sans-Serif" font-size="10.00">QObject</text>
<polyline fill="none" stroke="#bfbfbf" points="138.5,-575.5 191.5,-575.5 "/>
<text text-anchor="middle" x="165" y="-563.5" font-family="Helvetica,sans-Serif" font-size="10.00"> </text>
<polyline fill="none" stroke="#bfbfbf" points="138.5,-556.5 191.5,-556.5 "/>
<text text-anchor="middle" x="165" y="-544.5" font-family="Helvetica,sans-Serif" font-size="10.00"> </text>
</g>
<!-- Node4&#45;&gt;Node3 -->
<g id="edge3" class="edge"><title>Node4&#45;&gt;Node3</title>
<path fill="none" stroke="midnightblue" d="M165,-527.153C165,-500.351 165,-463.007 165,-427.578"/>
<polygon fill="none" stroke="midnightblue" points="161.5,-527.239 165,-537.24 168.5,-527.24 161.5,-527.239"/>
</g>
<!-- Node5 -->
<g id="node5" class="node"><title>Node5</title>
<g id="a_node5"><a xlink:href="../../da/d64/class_k4_u_1_1cls_log.xhtml" target="_top" xlink:title="Custom logging class.">
<polygon fill="white" stroke="black" points="219.5,-477 219.5,-655 298.5,-655 298.5,-477 219.5,-477"/>
<text text-anchor="middle" x="259" y="-643" font-family="Helvetica,sans-Serif" font-size="10.00">K4U::clsLog</text>
<polyline fill="none" stroke="black" points="219.5,-636 298.5,-636 "/>
<text text-anchor="start" x="227.5" y="-624" font-family="Helvetica,sans-Serif" font-size="10.00">&#45; isFirst</text>
<text text-anchor="start" x="227.5" y="-613" font-family="Helvetica,sans-Serif" font-size="10.00">&#45; tag</text>
<text text-anchor="start" x="227.5" y="-602" font-family="Helvetica,sans-Serif" font-size="10.00">&#45; prf</text>
<polyline fill="none" stroke="black" points="219.5,-595 298.5,-595 "/>
<text text-anchor="start" x="227.5" y="-583" font-family="Helvetica,sans-Serif" font-size="10.00">+ clsLog()</text>
<text text-anchor="start" x="227.5" y="-572" font-family="Helvetica,sans-Serif" font-size="10.00">+ operator&lt;&lt;()</text>
<text text-anchor="start" x="227.5" y="-561" font-family="Helvetica,sans-Serif" font-size="10.00">+ operator&lt;&lt;()</text>
<text text-anchor="start" x="227.5" y="-550" font-family="Helvetica,sans-Serif" font-size="10.00">+ operator&lt;&lt;()</text>
<text text-anchor="start" x="227.5" y="-539" font-family="Helvetica,sans-Serif" font-size="10.00">+ operator&lt;&lt;()</text>
<text text-anchor="start" x="227.5" y="-528" font-family="Helvetica,sans-Serif" font-size="10.00">+ operator&lt;&lt;()</text>
<text text-anchor="start" x="227.5" y="-517" font-family="Helvetica,sans-Serif" font-size="10.00">+ operator&lt;&lt;()</text>
<text text-anchor="start" x="227.5" y="-506" font-family="Helvetica,sans-Serif" font-size="10.00">and 9 more...</text>
<text text-anchor="start" x="227.5" y="-495" font-family="Helvetica,sans-Serif" font-size="10.00">&#45; prefix()</text>
<text text-anchor="start" x="227.5" y="-484" font-family="Helvetica,sans-Serif" font-size="10.00">&#45; getTag()</text>
</a>
</g>
</g>
<!-- Node5&#45;&gt;Node3 -->
<g id="edge4" class="edge"><title>Node5&#45;&gt;Node3</title>
<path fill="none" stroke="#404040" d="M224.798,-476.948C220.055,-464.738 215.125,-452.045 210.22,-439.417"/>
<polygon fill="none" stroke="#404040" points="210.074,-439.041 204.173,-434.897 205.729,-427.855 211.63,-432 210.074,-439.041"/>
<text text-anchor="middle" x="224.5" y="-449.5" font-family="Helvetica,sans-Serif" font-size="10.00"> &#45;log</text>
</g>
<!-- Node5&#45;&gt;Node1 -->
<g id="edge5" class="edge"><title>Node5&#45;&gt;Node1</title>
<path fill="none" stroke="#404040" d="M260.651,-476.961C262.229,-392.779 264.602,-266.224 266.222,-179.846"/>
<polygon fill="none" stroke="#404040" points="266.225,-179.666 262.338,-173.592 266.45,-167.669 270.337,-173.743 266.225,-179.666"/>
<text text-anchor="middle" x="275.5" y="-319.5" font-family="Helvetica,sans-Serif" font-size="10.00"> &#45;log</text>
</g>
<!-- Node6 -->
<g id="node6" class="node"><title>Node6</title>
<g id="a_node6"><a xlink:href="../../d5/d08/classclient_1_1cls_settings.xhtml" target="_top" xlink:title="Settings class containing all the variables needed for the client.">
<polygon fill="white" stroke="black" points="305.5,-271.5 305.5,-372.5 400.5,-372.5 400.5,-271.5 305.5,-271.5"/>
<text text-anchor="middle" x="353" y="-360.5" font-family="Helvetica,sans-Serif" font-size="10.00">client::clsSettings</text>
<polyline fill="none" stroke="black" points="305.5,-353.5 400.5,-353.5 "/>
<text text-anchor="start" x="313.5" y="-341.5" font-family="Helvetica,sans-Serif" font-size="10.00">&#45; server</text>
<text text-anchor="start" x="313.5" y="-330.5" font-family="Helvetica,sans-Serif" font-size="10.00">&#45; port</text>
<polyline fill="none" stroke="black" points="305.5,-323.5 400.5,-323.5 "/>
<text text-anchor="start" x="313.5" y="-311.5" font-family="Helvetica,sans-Serif" font-size="10.00">+ clsSettings()</text>
<text text-anchor="start" x="313.5" y="-300.5" font-family="Helvetica,sans-Serif" font-size="10.00">+ getServer()</text>
<text text-anchor="start" x="313.5" y="-289.5" font-family="Helvetica,sans-Serif" font-size="10.00">+ getPort()</text>
<text text-anchor="start" x="313.5" y="-278.5" font-family="Helvetica,sans-Serif" font-size="10.00">&#45; readServer()</text>
</a>
</g>
</g>
<!-- Node6&#45;&gt;Node1 -->
<g id="edge6" class="edge"><title>Node6&#45;&gt;Node1</title>
<path fill="none" stroke="#404040" d="M335.078,-271.239C325.447,-244.501 313.252,-210.64 301.908,-179.146"/>
<polygon fill="none" stroke="#404040" points="301.841,-178.957 296.044,-174.667 297.774,-167.667 303.571,-171.957 301.841,-178.957"/>
<text text-anchor="middle" x="328.5" y="-189.5" font-family="Helvetica,sans-Serif" font-size="10.00"> &#45;settings</text>
</g>
<!-- Node7 -->
<g id="node7" class="node"><title>Node7</title>
<g id="a_node7"><a xlink:href="../../da/d72/classclient_1_1chat_box.xhtml" target="_top" xlink:title="UI Segment containing the chatbox.">
<polygon fill="white" stroke="black" points="419,-238.5 419,-405.5 541,-405.5 541,-238.5 419,-238.5"/>
<text text-anchor="middle" x="480" y="-393.5" font-family="Helvetica,sans-Serif" font-size="10.00">client::chatBox</text>
<polyline fill="none" stroke="black" points="419,-386.5 541,-386.5 "/>
<text text-anchor="start" x="427" y="-374.5" font-family="Helvetica,sans-Serif" font-size="10.00">&#45; ui</text>
<text text-anchor="start" x="427" y="-363.5" font-family="Helvetica,sans-Serif" font-size="10.00">&#45; entries</text>
<text text-anchor="start" x="427" y="-352.5" font-family="Helvetica,sans-Serif" font-size="10.00">&#45; widthOfNick</text>
<polyline fill="none" stroke="black" points="419,-345.5 541,-345.5 "/>
<text text-anchor="start" x="427" y="-333.5" font-family="Helvetica,sans-Serif" font-size="10.00">+ chatBox()</text>
<text text-anchor="start" x="427" y="-322.5" font-family="Helvetica,sans-Serif" font-size="10.00">+ ~chatBox()</text>
<text text-anchor="start" x="427" y="-311.5" font-family="Helvetica,sans-Serif" font-size="10.00">+ addChat()</text>
<text text-anchor="start" x="427" y="-300.5" font-family="Helvetica,sans-Serif" font-size="10.00">+ addChat()</text>
<text text-anchor="start" x="427" y="-289.5" font-family="Helvetica,sans-Serif" font-size="10.00">+ addMessage()</text>
<text text-anchor="start" x="427" y="-278.5" font-family="Helvetica,sans-Serif" font-size="10.00">+ addMessage()</text>
<text text-anchor="start" x="427" y="-267.5" font-family="Helvetica,sans-Serif" font-size="10.00">+ addMessage()</text>
<text text-anchor="start" x="427" y="-256.5" font-family="Helvetica,sans-Serif" font-size="10.00">+ addMessage()</text>
<text text-anchor="start" x="427" y="-245.5" font-family="Helvetica,sans-Serif" font-size="10.00">+ setAllUserNameSize()</text>
</a>
</g>
</g>
<!-- Node7&#45;&gt;Node1 -->
<g id="edge7" class="edge"><title>Node7&#45;&gt;Node1</title>
<path fill="none" stroke="#404040" d="M426.711,-238.266C420.964,-230.561 415.013,-223.019 409,-216 389.13,-192.805 365.473,-169.473 343.267,-149.059"/>
<polygon fill="none" stroke="#404040" points="343.061,-148.871 335.931,-147.792 334.185,-140.795 341.315,-141.874 343.061,-148.871"/>
<text text-anchor="middle" x="400.5" y="-189.5" font-family="Helvetica,sans-Serif" font-size="10.00"> &#45;cb</text>
</g>
<!-- Node8 -->
<g id="node8" class="node"><title>Node8</title>
<polygon fill="white" stroke="#bfbfbf" points="452.5,-537.5 452.5,-594.5 507.5,-594.5 507.5,-537.5 452.5,-537.5"/>
<text text-anchor="middle" x="480" y="-582.5" font-family="Helvetica,sans-Serif" font-size="10.00">QWidget</text>
<polyline fill="none" stroke="#bfbfbf" points="452.5,-575.5 507.5,-575.5 "/>
<text text-anchor="middle" x="480" y="-563.5" font-family="Helvetica,sans-Serif" font-size="10.00"> </text>
<polyline fill="none" stroke="#bfbfbf" points="452.5,-556.5 507.5,-556.5 "/>
<text text-anchor="middle" x="480" y="-544.5" font-family="Helvetica,sans-Serif" font-size="10.00"> </text>
</g>
<!-- Node8&#45;&gt;Node7 -->
<g id="edge8" class="edge"><title>Node8&#45;&gt;Node7</title>
<path fill="none" stroke="midnightblue" d="M480,-526.87C480,-494.477 480,-446.834 480,-405.748"/>
<polygon fill="none" stroke="midnightblue" points="476.5,-527.239 480,-537.24 483.5,-527.24 476.5,-527.239"/>
</g>
</g>
</svg>
