<?xml version="1.0" encoding="UTF-8" standalone="no"?>
<!DOCTYPE svg PUBLIC "-//W3C//DTD SVG 1.1//EN"
 "http://www.w3.org/Graphics/SVG/1.1/DTD/svg11.dtd">
<!-- Generated by graphviz version 2.30.1 (20130303.0817)
 -->
<!-- Title: client::MainWindow Pages: 1 -->
<!--zoomable 730 -->
<svg id="main" version="1.1" xmlns="http://www.w3.org/2000/svg" xmlns:xlink="http://www.w3.org/1999/xlink" xml:space="preserve" onload="init(evt)">
        <defs>
                <circle id="rim" cx="0" cy="0" r="7"/>
                <circle id="rim2" cx="0" cy="0" r="3.5"/>
                <g id="zoomPlus">
                        <use xlink:href="#rim" fill="#404040">
                                <set attributeName="fill" to="#808080" begin="zoomplus.mouseover" end="zoomplus.mouseout"/>
                        </use>
                        <path d="M-4,0h8M0,-4v8" fill="none" stroke="white" stroke-width="1.5" pointer-events="none"/>
                </g>
                <g id="zoomMin">
                        <use xlink:href="#rim" fill="#404040">
                                <set attributeName="fill" to="#808080" begin="zoomminus.mouseover" end="zoomminus.mouseout"/>
                        </use>
                        <path d="M-4,0h8" fill="none" stroke="white" stroke-width="1.5" pointer-events="none"/>
                </g>
                <g id="dirArrow">
                        <path fill="none" stroke="white" stroke-width="1.5" d="M0,-3.0v7 M-2.5,-0.5L0,-3.0L2.5,-0.5"/>
                </g>
               <g id="resetDef">
                       <use xlink:href="#rim2" fill="#404040">
                               <set attributeName="fill" to="#808080" begin="reset.mouseover" end="reset.mouseout"/>
                       </use>
               </g>
        </defs>

<script type="text/javascript">
var viewWidth = 549;
var viewHeight = 730;
var sectionId = 'dynsection-1';
</script>
<script xlink:href="../../svgpan.js"/>
<svg id="graph" class="graph">
<g id="viewport">
<title>client::MainWindow</title>
<polygon fill="white" stroke="white" points="-4,5 -4,-726 546,-726 546,5 -4,5"/>
<!-- Node1 -->
<g id="node1" class="node"><title>Node1</title>
<polygon fill="#bfbfbf" stroke="black" points="202,-0.5 202,-189.5 334,-189.5 334,-0.5 202,-0.5"/>
<text text-anchor="middle" x="268" y="-177.5" font-family="Helvetica,sans-Serif" font-size="10.00">client::MainWindow</text>
<polyline fill="none" stroke="black" points="202,-170.5 334,-170.5 "/>
<text text-anchor="start" x="210" y="-158.5" font-family="Helvetica,sans-Serif" font-size="10.00">&#45; ui</text>
<text text-anchor="start" x="210" y="-147.5" font-family="Helvetica,sans-Serif" font-size="10.00">&#45; users</text>
<text text-anchor="start" x="210" y="-136.5" font-family="Helvetica,sans-Serif" font-size="10.00">&#45; reconnectTimer</text>
<polyline fill="none" stroke="black" points="202,-129.5 334,-129.5 "/>
<text text-anchor="start" x="210" y="-117.5" font-family="Helvetica,sans-Serif" font-size="10.00">+ MainWindow()</text>
<text text-anchor="start" x="210" y="-106.5" font-family="Helvetica,sans-Serif" font-size="10.00">+ ~MainWindow()</text>
<text text-anchor="start" x="210" y="-95.5" font-family="Helvetica,sans-Serif" font-size="10.00">+ showMessage()</text>
<text text-anchor="start" x="210" y="-84.5" font-family="Helvetica,sans-Serif" font-size="10.00">&#45; sendChat()</text>
<text text-anchor="start" x="210" y="-73.5" font-family="Helvetica,sans-Serif" font-size="10.00">&#45; commandGiven()</text>
<text text-anchor="start" x="210" y="-62.5" font-family="Helvetica,sans-Serif" font-size="10.00">&#45; moveScrollBarToBottom()</text>
<text text-anchor="start" x="210" y="-51.5" font-family="Helvetica,sans-Serif" font-size="10.00">&#45; serverConnected()</text>
<text text-anchor="start" x="210" y="-40.5" font-family="Helvetica,sans-Serif" font-size="10.00">&#45; serverDisconnected()</text>
<text text-anchor="start" x="210" y="-29.5" font-family="Helvetica,sans-Serif" font-size="10.00">&#45; chatReceived()</text>
<text text-anchor="start" x="210" y="-18.5" font-family="Helvetica,sans-Serif" font-size="10.00">&#45; userQueryCompleted()</text>
<text text-anchor="start" x="210" y="-7.5" font-family="Helvetica,sans-Serif" font-size="10.00">and 7 more...</text>
</g>
<!-- Node2 -->
<g id="node2" class="node"><title>Node2</title>
<polygon fill="white" stroke="#bfbfbf" points="0,-337.5 0,-394.5 80,-394.5 80,-337.5 0,-337.5"/>
<text text-anchor="middle" x="40" y="-382.5" font-family="Helvetica,sans-Serif" font-size="10.00">QMainWindow</text>
<polyline fill="none" stroke="#bfbfbf" points="0,-375.5 80,-375.5 "/>
<text text-anchor="middle" x="40" y="-363.5" font-family="Helvetica,sans-Serif" font-size="10.00"> </text>
<polyline fill="none" stroke="#bfbfbf" points="0,-356.5 80,-356.5 "/>
<text text-anchor="middle" x="40" y="-344.5" font-family="Helvetica,sans-Serif" font-size="10.00"> </text>
</g>
<!-- Node2&#45;&gt;Node1 -->
<g id="edge1" class="edge"><title>Node2&#45;&gt;Node1</title>
<path fill="none" stroke="midnightblue" d="M48.758,-327.636C56.3176,-300.863 69.1952,-264.925 89,-238 119.32,-196.779 164.535,-161.044 201.935,-135.734"/>
<polygon fill="none" stroke="midnightblue" points="45.3465,-326.844 46.1177,-337.411 52.1043,-328.67 45.3465,-326.844"/>
</g>
<!-- Node3 -->
<g id="node3" class="node"><title>Node3</title>
<g id="a_node3"><a xlink:href="../../d3/d65/classclient_1_1cls_server_conn.html" target="_top" xlink:title="Class that has a connection to the server.">
<polygon fill="white" stroke="black" points="98,-238.5 98,-493.5 232,-493.5 232,-238.5 98,-238.5"/>
<text text-anchor="middle" x="165" y="-481.5" font-family="Helvetica,sans-Serif" font-size="10.00">client::clsServerConn</text>
<polyline fill="none" stroke="black" points="98,-474.5 232,-474.5 "/>
<text text-anchor="start" x="106" y="-462.5" font-family="Helvetica,sans-Serif" font-size="10.00">&#45; hostName</text>
<text text-anchor="start" x="106" y="-451.5" font-family="Helvetica,sans-Serif" font-size="10.00">&#45; port</text>
<text text-anchor="start" x="106" y="-440.5" font-family="Helvetica,sans-Serif" font-size="10.00">&#45; sock</text>
<text text-anchor="start" x="106" y="-429.5" font-family="Helvetica,sans-Serif" font-size="10.00">&#45; buffer</text>
<text text-anchor="start" x="106" y="-418.5" font-family="Helvetica,sans-Serif" font-size="10.00">&#45; depth</text>
<text text-anchor="start" x="106" y="-407.5" font-family="Helvetica,sans-Serif" font-size="10.00">&#45; connectTimer</text>
<text text-anchor="start" x="106" y="-396.5" font-family="Helvetica,sans-Serif" font-size="10.00">&#45; isConnected</text>
<text text-anchor="start" x="106" y="-385.5" font-family="Helvetica,sans-Serif" font-size="10.00">&#45; isConnecting</text>
<polyline fill="none" stroke="black" points="98,-378.5 232,-378.5 "/>
<text text-anchor="start" x="106" y="-366.5" font-family="Helvetica,sans-Serif" font-size="10.00">+ clsServerConn()</text>
<text text-anchor="start" x="106" y="-355.5" font-family="Helvetica,sans-Serif" font-size="10.00">+ doConnect()</text>
<text text-anchor="start" x="106" y="-344.5" font-family="Helvetica,sans-Serif" font-size="10.00">+ sendCommand()</text>
<text text-anchor="start" x="106" y="-333.5" font-family="Helvetica,sans-Serif" font-size="10.00">+ srvDisconnected()</text>
<text text-anchor="start" x="106" y="-322.5" font-family="Helvetica,sans-Serif" font-size="10.00">+ srvConnected()</text>
<text text-anchor="start" x="106" y="-311.5" font-family="Helvetica,sans-Serif" font-size="10.00">+ readData()</text>
<text text-anchor="start" x="106" y="-300.5" font-family="Helvetica,sans-Serif" font-size="10.00">+ connectTimeout()</text>
<text text-anchor="start" x="106" y="-289.5" font-family="Helvetica,sans-Serif" font-size="10.00">&#45; checkForJsonCommand()</text>
<text text-anchor="start" x="106" y="-278.5" font-family="Helvetica,sans-Serif" font-size="10.00">&#45; handleCompletedQuery()</text>
<text text-anchor="start" x="106" y="-267.5" font-family="Helvetica,sans-Serif" font-size="10.00">&#45; handleOwnUserChange()</text>
<text text-anchor="start" x="106" y="-256.5" font-family="Helvetica,sans-Serif" font-size="10.00">&#45; handleEventRequest()</text>
<text text-anchor="start" x="106" y="-245.5" font-family="Helvetica,sans-Serif" font-size="10.00">&#45; handleEventReceived()</text>
</a>
</g>
</g>
<!-- Node3&#45;&gt;Node1 -->
<g id="edge2" class="edge"><title>Node3&#45;&gt;Node1</title>
<path fill="none" stroke="#404040" d="M210.435,-238.437C214.295,-228.12 218.183,-217.872 222,-208 222.903,-205.664 223.822,-203.303 224.753,-200.924"/>
<polygon fill="none" stroke="#404040" points="224.781,-200.853 223.263,-193.803 229.186,-189.69 230.704,-196.74 224.781,-200.853"/>
<text text-anchor="middle" x="238" y="-211.5" font-family="Helvetica,sans-Serif" font-size="10.00"> &#45;server</text>
</g>
<!-- Node4 -->
<g id="node4" class="node"><title>Node4</title>
<polygon fill="white" stroke="#bfbfbf" points="138.5,-603.5 138.5,-660.5 191.5,-660.5 191.5,-603.5 138.5,-603.5"/>
<text text-anchor="middle" x="165" y="-648.5" font-family="Helvetica,sans-Serif" font-size="10.00">QObject</text>
<polyline fill="none" stroke="#bfbfbf" points="138.5,-641.5 191.5,-641.5 "/>
<text text-anchor="middle" x="165" y="-629.5" font-family="Helvetica,sans-Serif" font-size="10.00"> </text>
<polyline fill="none" stroke="#bfbfbf" points="138.5,-622.5 191.5,-622.5 "/>
<text text-anchor="middle" x="165" y="-610.5" font-family="Helvetica,sans-Serif" font-size="10.00"> </text>
</g>
<!-- Node4&#45;&gt;Node3 -->
<g id="edge3" class="edge"><title>Node4&#45;&gt;Node3</title>
<path fill="none" stroke="midnightblue" d="M165,-592.98C165,-566.646 165,-529.945 165,-493.768"/>
<polygon fill="none" stroke="midnightblue" points="161.5,-593.246 165,-603.246 168.5,-593.246 161.5,-593.246"/>
</g>
<!-- Node5 -->
<g id="node5" class="node"><title>Node5</title>
<g id="a_node5"><a xlink:href="../../da/d64/class_k4_u_1_1cls_log.html" target="_top" xlink:title="Custom logging class.">
<polygon fill="white" stroke="black" points="219.5,-543 219.5,-721 298.5,-721 298.5,-543 219.5,-543"/>
<text text-anchor="middle" x="259" y="-709" font-family="Helvetica,sans-Serif" font-size="10.00">K4U::clsLog</text>
<polyline fill="none" stroke="black" points="219.5,-702 298.5,-702 "/>
<text text-anchor="start" x="227.5" y="-690" font-family="Helvetica,sans-Serif" font-size="10.00">&#45; isFirst</text>
<text text-anchor="start" x="227.5" y="-679" font-family="Helvetica,sans-Serif" font-size="10.00">&#45; tag</text>
<text text-anchor="start" x="227.5" y="-668" font-family="Helvetica,sans-Serif" font-size="10.00">&#45; prf</text>
<polyline fill="none" stroke="black" points="219.5,-661 298.5,-661 "/>
<text text-anchor="start" x="227.5" y="-649" font-family="Helvetica,sans-Serif" font-size="10.00">+ clsLog()</text>
<text text-anchor="start" x="227.5" y="-638" font-family="Helvetica,sans-Serif" font-size="10.00">+ operator&lt;&lt;()</text>
<text text-anchor="start" x="227.5" y="-627" font-family="Helvetica,sans-Serif" font-size="10.00">+ operator&lt;&lt;()</text>
<text text-anchor="start" x="227.5" y="-616" font-family="Helvetica,sans-Serif" font-size="10.00">+ operator&lt;&lt;()</text>
<text text-anchor="start" x="227.5" y="-605" font-family="Helvetica,sans-Serif" font-size="10.00">+ operator&lt;&lt;()</text>
<text text-anchor="start" x="227.5" y="-594" font-family="Helvetica,sans-Serif" font-size="10.00">+ operator&lt;&lt;()</text>
<text text-anchor="start" x="227.5" y="-583" font-family="Helvetica,sans-Serif" font-size="10.00">+ operator&lt;&lt;()</text>
<text text-anchor="start" x="227.5" y="-572" font-family="Helvetica,sans-Serif" font-size="10.00">and 9 more...</text>
<text text-anchor="start" x="227.5" y="-561" font-family="Helvetica,sans-Serif" font-size="10.00">&#45; prefix()</text>
<text text-anchor="start" x="227.5" y="-550" font-family="Helvetica,sans-Serif" font-size="10.00">&#45; getTag()</text>
</a>
</g>
</g>
<!-- Node5&#45;&gt;Node3 -->
<g id="edge4" class="edge"><title>Node5&#45;&gt;Node3</title>
<path fill="none" stroke="#404040" d="M227.569,-542.725C223.278,-530.675 218.792,-518.076 214.278,-505.399"/>
<polygon fill="none" stroke="#404040" points="214.155,-505.053 208.374,-500.742 210.13,-493.748 215.911,-498.059 214.155,-505.053"/>
<text text-anchor="middle" x="230.5" y="-515.5" font-family="Helvetica,sans-Serif" font-size="10.00"> &#45;log</text>
</g>
<!-- Node5&#45;&gt;Node1 -->
<g id="edge5" class="edge"><title>Node5&#45;&gt;Node1</title>
<path fill="none" stroke="#404040" d="M260.481,-542.955C262.055,-449.419 264.542,-301.551 266.221,-201.762"/>
<polygon fill="none" stroke="#404040" points="266.225,-201.532 262.326,-195.466 266.427,-189.534 270.325,-195.6 266.225,-201.532"/>
<text text-anchor="middle" x="275.5" y="-363.5" font-family="Helvetica,sans-Serif" font-size="10.00"> &#45;log</text>
</g>
<!-- Node6 -->
<g id="node6" class="node"><title>Node6</title>
<g id="a_node6"><a xlink:href="../../d5/d08/classclient_1_1cls_settings.html" target="_top" xlink:title="Settings class containing all the variables needed for the client.">
<polygon fill="white" stroke="black" points="305.5,-315.5 305.5,-416.5 400.5,-416.5 400.5,-315.5 305.5,-315.5"/>
<text text-anchor="middle" x="353" y="-404.5" font-family="Helvetica,sans-Serif" font-size="10.00">client::clsSettings</text>
<polyline fill="none" stroke="black" points="305.5,-397.5 400.5,-397.5 "/>
<text text-anchor="start" x="313.5" y="-385.5" font-family="Helvetica,sans-Serif" font-size="10.00">&#45; server</text>
<text text-anchor="start" x="313.5" y="-374.5" font-family="Helvetica,sans-Serif" font-size="10.00">&#45; port</text>
<polyline fill="none" stroke="black" points="305.5,-367.5 400.5,-367.5 "/>
<text text-anchor="start" x="313.5" y="-355.5" font-family="Helvetica,sans-Serif" font-size="10.00">+ clsSettings()</text>
<text text-anchor="start" x="313.5" y="-344.5" font-family="Helvetica,sans-Serif" font-size="10.00">+ getServer()</text>
<text text-anchor="start" x="313.5" y="-333.5" font-family="Helvetica,sans-Serif" font-size="10.00">+ getPort()</text>
<text text-anchor="start" x="313.5" y="-322.5" font-family="Helvetica,sans-Serif" font-size="10.00">&#45; readServer()</text>
</a>
</g>
</g>
<!-- Node6&#45;&gt;Node1 -->
<g id="edge6" class="edge"><title>Node6&#45;&gt;Node1</title>
<path fill="none" stroke="#404040" d="M337.311,-315.348C327.203,-283.362 313.677,-240.554 301.257,-201.249"/>
<polygon fill="none" stroke="#404040" points="301.232,-201.168 295.61,-196.652 297.616,-189.726 303.238,-194.242 301.232,-201.168"/>
<text text-anchor="middle" x="326.5" y="-211.5" font-family="Helvetica,sans-Serif" font-size="10.00"> &#45;settings</text>
</g>
<!-- Node7 -->
<g id="node7" class="node"><title>Node7</title>
<g id="a_node7"><a xlink:href="../../da/d72/classclient_1_1chat_box.html" target="_top" xlink:title="UI Segment containing the chatbox.">
<polygon fill="white" stroke="black" points="419,-277 419,-455 541,-455 541,-277 419,-277"/>
<text text-anchor="middle" x="480" y="-443" font-family="Helvetica,sans-Serif" font-size="10.00">client::chatBox</text>
<polyline fill="none" stroke="black" points="419,-436 541,-436 "/>
<text text-anchor="start" x="427" y="-424" font-family="Helvetica,sans-Serif" font-size="10.00">&#45; ui</text>
<text text-anchor="start" x="427" y="-413" font-family="Helvetica,sans-Serif" font-size="10.00">&#45; entries</text>
<text text-anchor="start" x="427" y="-402" font-family="Helvetica,sans-Serif" font-size="10.00">&#45; widthOfNick</text>
<polyline fill="none" stroke="black" points="419,-395 541,-395 "/>
<text text-anchor="start" x="427" y="-383" font-family="Helvetica,sans-Serif" font-size="10.00">+ chatBox()</text>
<text text-anchor="start" x="427" y="-372" font-family="Helvetica,sans-Serif" font-size="10.00">+ ~chatBox()</text>
<text text-anchor="start" x="427" y="-361" font-family="Helvetica,sans-Serif" font-size="10.00">+ addChat()</text>
<text text-anchor="start" x="427" y="-350" font-family="Helvetica,sans-Serif" font-size="10.00">+ addChat()</text>
<text text-anchor="start" x="427" y="-339" font-family="Helvetica,sans-Serif" font-size="10.00">+ addMessage()</text>
<text text-anchor="start" x="427" y="-328" font-family="Helvetica,sans-Serif" font-size="10.00">+ addMessage()</text>
<text text-anchor="start" x="427" y="-317" font-family="Helvetica,sans-Serif" font-size="10.00">+ addMessage()</text>
<text text-anchor="start" x="427" y="-306" font-family="Helvetica,sans-Serif" font-size="10.00">+ addMessage()</text>
<text text-anchor="start" x="427" y="-295" font-family="Helvetica,sans-Serif" font-size="10.00">+ addMessage()</text>
<text text-anchor="start" x="427" y="-284" font-family="Helvetica,sans-Serif" font-size="10.00">+ setAllUserNameSize()</text>
</a>
</g>
</g>
<!-- Node7&#45;&gt;Node1 -->
<g id="edge7" class="edge"><title>Node7&#45;&gt;Node1</title>
<path fill="none" stroke="#404040" d="M434.913,-276.944C426.868,-263.51 418.122,-250.104 409,-238 389.44,-212.045 365.346,-186.097 342.645,-163.617"/>
<polygon fill="none" stroke="#404040" points="342.6,-163.573 335.515,-162.234 334.025,-155.178 341.111,-156.517 342.6,-163.573"/>
<text text-anchor="middle" x="401.5" y="-211.5" font-family="Helvetica,sans-Serif" font-size="10.00"> &#45;cb</text>
</g>
<!-- Node8 -->
<g id="node8" class="node"><title>Node8</title>
<polygon fill="white" stroke="#bfbfbf" points="452.5,-603.5 452.5,-660.5 507.5,-660.5 507.5,-603.5 452.5,-603.5"/>
<text text-anchor="middle" x="480" y="-648.5" font-family="Helvetica,sans-Serif" font-size="10.00">QWidget</text>
<polyline fill="none" stroke="#bfbfbf" points="452.5,-641.5 507.5,-641.5 "/>
<text text-anchor="middle" x="480" y="-629.5" font-family="Helvetica,sans-Serif" font-size="10.00"> </text>
<polyline fill="none" stroke="#bfbfbf" points="452.5,-622.5 507.5,-622.5 "/>
<text text-anchor="middle" x="480" y="-610.5" font-family="Helvetica,sans-Serif" font-size="10.00"> </text>
</g>
<!-- Node8&#45;&gt;Node7 -->
<g id="edge8" class="edge"><title>Node8&#45;&gt;Node7</title>
<path fill="none" stroke="midnightblue" d="M480,-593.225C480,-557.384 480,-502.182 480,-455.282"/>
<polygon fill="none" stroke="midnightblue" points="476.5,-593.246 480,-603.246 483.5,-593.246 476.5,-593.246"/>
</g>
</g>
</svg>
        <g id="navigator" transform="translate(0 0)" fill="#404254">
                <rect fill="#f2f5e9" fill-opacity="0.5" stroke="#606060" stroke-width=".5" x="0" y="0" width="60" height="60"/>
                <use id="zoomplus" xlink:href="#zoomPlus" x="17" y="9" onmousedown="handleZoom(evt,'in')"/>
                <use id="zoomminus" xlink:href="#zoomMin" x="42" y="9" onmousedown="handleZoom(evt,'out')"/>
                <use id="reset" xlink:href="#resetDef" x="30" y="36" onmousedown="handleReset()"/>
                <g id="arrowUp" xlink:href="#dirArrow" transform="translate(30 24)" onmousedown="handlePan(0,-1)">
                  <use xlink:href="#rim" fill="#404040">
                        <set attributeName="fill" to="#808080" begin="arrowUp.mouseover" end="arrowUp.mouseout"/>
                  </use>
                  <path fill="none" stroke="white" stroke-width="1.5" d="M0,-3.0v7 M-2.5,-0.5L0,-3.0L2.5,-0.5"/>
                </g>
                <g id="arrowRight" xlink:href="#dirArrow" transform="rotate(90) translate(36 -43)" onmousedown="handlePan(1,0)">
                  <use xlink:href="#rim" fill="#404040">
                        <set attributeName="fill" to="#808080" begin="arrowRight.mouseover" end="arrowRight.mouseout"/>
                  </use>
                  <path fill="none" stroke="white" stroke-width="1.5" d="M0,-3.0v7 M-2.5,-0.5L0,-3.0L2.5,-0.5"/>
                </g>
                <g id="arrowDown" xlink:href="#dirArrow" transform="rotate(180) translate(-30 -48)" onmousedown="handlePan(0,1)">
                  <use xlink:href="#rim" fill="#404040">
                        <set attributeName="fill" to="#808080" begin="arrowDown.mouseover" end="arrowDown.mouseout"/>
                  </use>
                  <path fill="none" stroke="white" stroke-width="1.5" d="M0,-3.0v7 M-2.5,-0.5L0,-3.0L2.5,-0.5"/>
                </g>
                <g id="arrowLeft" xlink:href="#dirArrow" transform="rotate(270) translate(-36 17)" onmousedown="handlePan(-1,0)">
                  <use xlink:href="#rim" fill="#404040">
                        <set attributeName="fill" to="#808080" begin="arrowLeft.mouseover" end="arrowLeft.mouseout"/>
                  </use>
                  <path fill="none" stroke="white" stroke-width="1.5" d="M0,-3.0v7 M-2.5,-0.5L0,-3.0L2.5,-0.5"/>
                </g>
        </g>
        <svg viewBox="0 0 15 15" width="100%" height="30px" preserveAspectRatio="xMaxYMin meet">
         <g id="arrow_out" transform="scale(0.3 0.3)">
          <a xlink:href="classclient_1_1_main_window__coll__graph_org.svg" target="_base">
           <rect id="button" ry="5" rx="5" y="6" x="6" height="38" width="38"
                fill="#f2f5e9" fill-opacity="0.5" stroke="#606060" stroke-width="1.0"/>
           <path id="arrow"
             d="M 11.500037,31.436501 C 11.940474,20.09759 22.043105,11.32322 32.158766,21.979434 L 37.068811,17.246167 C 37.068811,17.246167 37.088388,32 37.088388,32 L 22.160133,31.978069 C 22.160133,31.978069 26.997745,27.140456 26.997745,27.140456 C 18.528582,18.264221 13.291696,25.230495 11.500037,31.436501 z"
             style="fill:#404040;"/>
          </a>
         </g>
        </svg>
</svg>
