<?xml version="1.0" encoding="UTF-8" standalone="no"?>
<!DOCTYPE svg PUBLIC "-//W3C//DTD SVG 1.1//EN"
 "http://www.w3.org/Graphics/SVG/1.1/DTD/svg11.dtd">
<!-- Generated by graphviz version 2.30.1 (20130303.0817)
 -->
<!-- Title: server::getNickAndStatus Pages: 1 -->
<svg width="816pt" height="61pt"
 viewBox="0.00 0.00 816.00 61.00" xmlns="http://www.w3.org/2000/svg" xmlns:xlink="http://www.w3.org/1999/xlink">
<g id="graph0" class="graph" transform="scale(1 1) rotate(0) translate(4 57)">
<title>server::getNickAndStatus</title>
<polygon fill="white" stroke="white" points="-4,5 -4,-57 813,-57 813,5 -4,5"/>
<!-- Node1 -->
<g id="node1" class="node"><title>Node1</title>
<polygon fill="#bfbfbf" stroke="black" points="0.5,-6.5 0.5,-25.5 127.5,-25.5 127.5,-6.5 0.5,-6.5"/>
<text text-anchor="middle" x="64" y="-13.5" font-family="Helvetica,sans-Serif" font-size="10.00">server::getNickAndStatus</text>
</g>
<!-- Node2 -->
<g id="node2" class="node"><title>Node2</title>
<g id="a_node2"><a xlink:href="../../d9/db1/namespaceserver.html#a4ab136076f9a5f1ae8a6d78020f07c07" target="_top" xlink:title="Converts an IRC&#45;ID to a nickAndStatus (nick|status)">
<polygon fill="white" stroke="black" points="164.5,-23 164.5,-53 291.5,-53 291.5,-23 164.5,-23"/>
<text text-anchor="start" x="172.5" y="-41" font-family="Helvetica,sans-Serif" font-size="10.00">server::getNickAndStatus</text>
<text text-anchor="middle" x="228" y="-30" font-family="Helvetica,sans-Serif" font-size="10.00">FromId</text>
</a>
</g>
</g>
<!-- Node1&#45;&gt;Node2 -->
<g id="edge1" class="edge"><title>Node1&#45;&gt;Node2</title>
<path fill="none" stroke="midnightblue" d="M137.598,-25.859C146.496,-27.0674 155.531,-28.2943 164.266,-29.4806"/>
<polygon fill="midnightblue" stroke="midnightblue" points="138.013,-22.3834 127.633,-24.5058 137.071,-29.3197 138.013,-22.3834"/>
</g>
<!-- Node3 -->
<g id="node3" class="node"><title>Node3</title>
<g id="a_node3"><a xlink:href="../../d1/d10/classserver_1_1irc_client.html#af618e7f589a052d90e2dadbc87e83429" target="_top" xlink:title="Handles a command sent from the irc server.">
<polygon fill="white" stroke="black" points="328.5,-1 328.5,-31 417.5,-31 417.5,-1 328.5,-1"/>
<text text-anchor="start" x="336.5" y="-19" font-family="Helvetica,sans-Serif" font-size="10.00">server::ircClient::</text>
<text text-anchor="middle" x="373" y="-8" font-family="Helvetica,sans-Serif" font-size="10.00">handleCommand</text>
</a>
</g>
</g>
<!-- Node1&#45;&gt;Node3 -->
<g id="edge6" class="edge"><title>Node1&#45;&gt;Node3</title>
<path fill="none" stroke="midnightblue" d="M137.86,-14.3608C146.667,-14.2121 155.537,-14.0855 164,-14 220.886,-13.4255 235.116,-13.2891 292,-14 303.808,-14.1476 316.595,-14.4176 328.408,-14.7126"/>
<polygon fill="midnightblue" stroke="midnightblue" points="137.514,-10.8663 127.578,-14.5444 137.639,-17.8652 137.514,-10.8663"/>
</g>
<!-- Node2&#45;&gt;Node3 -->
<g id="edge2" class="edge"><title>Node2&#45;&gt;Node3</title>
<path fill="none" stroke="midnightblue" d="M301.866,-26.7898C310.867,-25.405 319.839,-24.0247 328.212,-22.7367"/>
<polygon fill="midnightblue" stroke="midnightblue" points="301.073,-23.3705 291.722,-28.3505 302.138,-30.2891 301.073,-23.3705"/>
</g>
<!-- Node4 -->
<g id="node4" class="node"><title>Node4</title>
<g id="a_node4"><a xlink:href="../../d1/d10/classserver_1_1irc_client.html#a384327d5a800bd0d970cffaf1a6a55c1" target="_top" xlink:title="Reads data from the IRC Socket.">
<polygon fill="white" stroke="black" points="454.5,-1 454.5,-31 543.5,-31 543.5,-1 454.5,-1"/>
<text text-anchor="start" x="462.5" y="-19" font-family="Helvetica,sans-Serif" font-size="10.00">server::ircClient::</text>
<text text-anchor="middle" x="499" y="-8" font-family="Helvetica,sans-Serif" font-size="10.00">readData</text>
</a>
</g>
</g>
<!-- Node3&#45;&gt;Node4 -->
<g id="edge3" class="edge"><title>Node3&#45;&gt;Node4</title>
<path fill="none" stroke="midnightblue" d="M427.908,-16C436.712,-16 445.738,-16 454.259,-16"/>
<polygon fill="midnightblue" stroke="midnightblue" points="427.718,-12.5001 417.718,-16 427.718,-19.5001 427.718,-12.5001"/>
</g>
<!-- Node5 -->
<g id="node5" class="node"><title>Node5</title>
<g id="a_node5"><a xlink:href="../../d1/d10/classserver_1_1irc_client.html#a3991833ddcff72ca94d4c0ec588012ac" target="_top" xlink:title="Initializes the IRC Client. Does not yet connect!">
<polygon fill="white" stroke="black" points="580,-6.5 580,-25.5 682,-25.5 682,-6.5 580,-6.5"/>
<text text-anchor="middle" x="631" y="-13.5" font-family="Helvetica,sans-Serif" font-size="10.00">server::ircClient::init</text>
</a>
</g>
</g>
<!-- Node4&#45;&gt;Node5 -->
<g id="edge4" class="edge"><title>Node4&#45;&gt;Node5</title>
<path fill="none" stroke="midnightblue" d="M553.689,-16C562.383,-16 571.355,-16 579.958,-16"/>
<polygon fill="midnightblue" stroke="midnightblue" points="553.65,-12.5001 543.65,-16 553.65,-19.5001 553.65,-12.5001"/>
</g>
<!-- Node6 -->
<g id="node6" class="node"><title>Node6</title>
<g id="a_node6"><a xlink:href="../../d1/d10/classserver_1_1irc_client.html#a0f263c3a5ae9d82109842518b4866ab5" target="_top" xlink:title="ircClient constructor">
<polygon fill="white" stroke="black" points="718.5,-1 718.5,-31 807.5,-31 807.5,-1 718.5,-1"/>
<text text-anchor="start" x="726.5" y="-19" font-family="Helvetica,sans-Serif" font-size="10.00">server::ircClient::</text>
<text text-anchor="middle" x="763" y="-8" font-family="Helvetica,sans-Serif" font-size="10.00">ircClient</text>
</a>
</g>
</g>
<!-- Node5&#45;&gt;Node6 -->
<g id="edge5" class="edge"><title>Node5&#45;&gt;Node6</title>
<path fill="none" stroke="midnightblue" d="M692.395,-16C701.103,-16 709.921,-16 718.222,-16"/>
<polygon fill="midnightblue" stroke="midnightblue" points="692.261,-12.5001 682.261,-16 692.261,-19.5001 692.261,-12.5001"/>
</g>
</g>
</svg>
