<?xml version="1.0" encoding="UTF-8" standalone="no"?>
<!DOCTYPE svg PUBLIC "-//W3C//DTD SVG 1.1//EN"
 "http://www.w3.org/Graphics/SVG/1.1/DTD/svg11.dtd">
<!-- Generated by graphviz version 2.30.1 (20130303.0817)
 -->
<!-- Title: server::qts Pages: 1 -->
<svg width="790pt" height="229pt"
 viewBox="0.00 0.00 790.00 228.78" xmlns="http://www.w3.org/2000/svg" xmlns:xlink="http://www.w3.org/1999/xlink">
<g id="graph0" class="graph" transform="scale(1 1) rotate(0) translate(4 224.778)">
<title>server::qts</title>
<polygon fill="white" stroke="white" points="-4,5 -4,-224.778 787,-224.778 787,5 -4,5"/>
<!-- Node1 -->
<g id="node1" class="node"><title>Node1</title>
<polygon fill="#bfbfbf" stroke="black" points="0,-139.5 0,-158.5 62,-158.5 62,-139.5 0,-139.5"/>
<text text-anchor="middle" x="31" y="-146.5" font-family="Helvetica,sans-Serif" font-size="10.00">server::qts</text>
</g>
<!-- Node2 -->
<g id="node2" class="node"><title>Node2</title>
<g id="a_node2"><a xlink:href="../../d1/d10/classserver_1_1irc_client.html#af618e7f589a052d90e2dadbc87e83429" target="_top" xlink:title="Handles a command sent from the irc server.">
<polygon fill="white" stroke="black" points="244.5,-175 244.5,-205 333.5,-205 333.5,-175 244.5,-175"/>
<text text-anchor="start" x="252.5" y="-193" font-family="Helvetica,sans-Serif" font-size="10.00">server::ircClient::</text>
<text text-anchor="middle" x="289" y="-182" font-family="Helvetica,sans-Serif" font-size="10.00">handleCommand</text>
</a>
</g>
</g>
<!-- Node1&#45;&gt;Node2 -->
<g id="edge1" class="edge"><title>Node1&#45;&gt;Node2</title>
<path fill="none" stroke="midnightblue" d="M72.1964,-155.438C119.01,-162.935 196.07,-175.277 244.324,-183.005"/>
<polygon fill="midnightblue" stroke="midnightblue" points="72.5469,-151.949 62.1192,-153.824 71.4399,-158.861 72.5469,-151.949"/>
</g>
<!-- Node6 -->
<g id="node6" class="node"><title>Node6</title>
<g id="a_node6"><a xlink:href="../../d1/d10/classserver_1_1irc_client.html#a6b62de4b4dc3c1f7f0fe7c6f91c1cf05" target="_top" xlink:title="Sends a chat message to a certain channel.">
<polygon fill="white" stroke="black" points="244.5,-0 244.5,-30 333.5,-30 333.5,-0 244.5,-0"/>
<text text-anchor="start" x="252.5" y="-18" font-family="Helvetica,sans-Serif" font-size="10.00">server::ircClient::</text>
<text text-anchor="middle" x="289" y="-7" font-family="Helvetica,sans-Serif" font-size="10.00">sendChat</text>
</a>
</g>
</g>
<!-- Node1&#45;&gt;Node6 -->
<g id="edge5" class="edge"><title>Node1&#45;&gt;Node6</title>
<path fill="none" stroke="midnightblue" d="M51.6518,-132.633C64.3812,-122.489 81.5894,-109.608 98,-100 147.429,-71.0622 208.484,-45.374 247.822,-30.0044"/>
<polygon fill="midnightblue" stroke="midnightblue" points="49.1835,-130.129 43.6196,-139.145 53.5917,-135.566 49.1835,-130.129"/>
</g>
<!-- Node10 -->
<g id="node10" class="node"><title>Node10</title>
<g id="a_node10"><a xlink:href="../../d1/d10/classserver_1_1irc_client.html#a2c1954be24f18aef7d8ec6a7a3e7f29c" target="_top" xlink:title="Sends a message to the IRC server.">
<polygon fill="white" stroke="black" points="98,-109.5 98,-128.5 208,-128.5 208,-109.5 98,-109.5"/>
<text text-anchor="middle" x="153" y="-116.5" font-family="Helvetica,sans-Serif" font-size="10.00">server::ircClient::send</text>
</a>
</g>
</g>
<!-- Node1&#45;&gt;Node10 -->
<g id="edge9" class="edge"><title>Node1&#45;&gt;Node10</title>
<path fill="none" stroke="midnightblue" d="M72.2397,-138.94C85.7126,-135.572 100.682,-131.83 113.98,-128.505"/>
<polygon fill="midnightblue" stroke="midnightblue" points="71.1336,-135.609 62.2811,-141.43 72.8314,-142.4 71.1336,-135.609"/>
</g>
<!-- Node3 -->
<g id="node3" class="node"><title>Node3</title>
<g id="a_node3"><a xlink:href="../../d1/d10/classserver_1_1irc_client.html#a384327d5a800bd0d970cffaf1a6a55c1" target="_top" xlink:title="Reads data from the IRC Socket.">
<polygon fill="white" stroke="black" points="397.5,-169 397.5,-199 486.5,-199 486.5,-169 397.5,-169"/>
<text text-anchor="start" x="405.5" y="-187" font-family="Helvetica,sans-Serif" font-size="10.00">server::ircClient::</text>
<text text-anchor="middle" x="442" y="-176" font-family="Helvetica,sans-Serif" font-size="10.00">readData</text>
</a>
</g>
</g>
<!-- Node1&#45;&gt;Node3 -->
<g id="edge18" class="edge"><title>Node1&#45;&gt;Node3</title>
<path fill="none" stroke="midnightblue" d="M56.7479,-163.745C68.8446,-170.427 83.8217,-177.945 98,-183 197.647,-218.525 229.197,-228.414 334,-214 355.406,-211.056 378.563,-204.946 397.84,-199.003"/>
<polygon fill="midnightblue" stroke="midnightblue" points="58.1588,-160.521 47.7345,-158.628 54.703,-166.608 58.1588,-160.521"/>
</g>
<!-- Node2&#45;&gt;Node3 -->
<g id="edge2" class="edge"><title>Node2&#45;&gt;Node3</title>
<path fill="none" stroke="midnightblue" d="M343.799,-187.862C361.384,-187.164 380.686,-186.397 397.423,-185.732"/>
<polygon fill="midnightblue" stroke="midnightblue" points="343.529,-184.37 333.675,-188.265 343.807,-191.365 343.529,-184.37"/>
</g>
<!-- Node4 -->
<g id="node4" class="node"><title>Node4</title>
<g id="a_node4"><a xlink:href="../../d1/d10/classserver_1_1irc_client.html#a3991833ddcff72ca94d4c0ec588012ac" target="_top" xlink:title="Initializes the IRC Client. Does not yet connect!">
<polygon fill="white" stroke="black" points="552,-141.5 552,-160.5 654,-160.5 654,-141.5 552,-141.5"/>
<text text-anchor="middle" x="603" y="-148.5" font-family="Helvetica,sans-Serif" font-size="10.00">server::ircClient::init</text>
</a>
</g>
</g>
<!-- Node3&#45;&gt;Node4 -->
<g id="edge3" class="edge"><title>Node3&#45;&gt;Node4</title>
<path fill="none" stroke="midnightblue" d="M496.709,-172.853C515.975,-168.854 537.508,-164.385 556.056,-160.536"/>
<polygon fill="midnightblue" stroke="midnightblue" points="495.948,-169.436 486.868,-174.895 497.371,-176.29 495.948,-169.436"/>
</g>
<!-- Node5 -->
<g id="node5" class="node"><title>Node5</title>
<g id="a_node5"><a xlink:href="../../d1/d10/classserver_1_1irc_client.html#a0f263c3a5ae9d82109842518b4866ab5" target="_top" xlink:title="ircClient constructor">
<polygon fill="white" stroke="black" points="692.5,-136 692.5,-166 781.5,-166 781.5,-136 692.5,-136"/>
<text text-anchor="start" x="700.5" y="-154" font-family="Helvetica,sans-Serif" font-size="10.00">server::ircClient::</text>
<text text-anchor="middle" x="737" y="-143" font-family="Helvetica,sans-Serif" font-size="10.00">ircClient</text>
</a>
</g>
</g>
<!-- Node4&#45;&gt;Node5 -->
<g id="edge4" class="edge"><title>Node4&#45;&gt;Node5</title>
<path fill="none" stroke="midnightblue" d="M664.399,-151C673.814,-151 683.382,-151 692.329,-151"/>
<polygon fill="midnightblue" stroke="midnightblue" points="664.28,-147.5 654.28,-151 664.28,-154.5 664.28,-147.5"/>
</g>
<!-- Node7 -->
<g id="node7" class="node"><title>Node7</title>
<g id="a_node7"><a xlink:href="../../d1/d48/classserver_1_1main_app.html#a022d0310199da514b250fec2541ada4a" target="_top" xlink:title="Triggered when a UI client wants to send a chat message.">
<polygon fill="white" stroke="black" points="370.5,-6.5 370.5,-25.5 513.5,-25.5 513.5,-6.5 370.5,-6.5"/>
<text text-anchor="middle" x="442" y="-13.5" font-family="Helvetica,sans-Serif" font-size="10.00">server::mainApp::uiSendChat</text>
</a>
</g>
</g>
<!-- Node6&#45;&gt;Node7 -->
<g id="edge6" class="edge"><title>Node6&#45;&gt;Node7</title>
<path fill="none" stroke="midnightblue" d="M343.915,-15.357C352.502,-15.4139 361.495,-15.4735 370.398,-15.5324"/>
<polygon fill="midnightblue" stroke="midnightblue" points="343.698,-11.8556 333.675,-15.2892 343.652,-18.8555 343.698,-11.8556"/>
</g>
<!-- Node8 -->
<g id="node8" class="node"><title>Node8</title>
<g id="a_node8"><a xlink:href="../../d1/d48/classserver_1_1main_app.html#af331bc3bf60e745f3ddc95ab3abe5188" target="_top" xlink:title="server::mainApp::run">
<polygon fill="white" stroke="black" points="550,-29.5 550,-48.5 656,-48.5 656,-29.5 550,-29.5"/>
<text text-anchor="middle" x="603" y="-36.5" font-family="Helvetica,sans-Serif" font-size="10.00">server::mainApp::run</text>
</a>
</g>
</g>
<!-- Node7&#45;&gt;Node8 -->
<g id="edge7" class="edge"><title>Node7&#45;&gt;Node8</title>
<path fill="none" stroke="midnightblue" d="M519.04,-26.9995C529.511,-28.5141 540.062,-30.0404 549.965,-31.4729"/>
<polygon fill="midnightblue" stroke="midnightblue" points="519.447,-23.522 509.049,-25.5543 518.445,-30.4499 519.447,-23.522"/>
</g>
<!-- Node9 -->
<g id="node9" class="node"><title>Node9</title>
<g id="a_node9"><a xlink:href="../../dc/d17/custom_irc_server_2main_8cpp.html#a0ddf1224851353fc92bfbff6f499fa97" target="_top" xlink:title="main">
<polygon fill="white" stroke="black" points="718,-29.5 718,-48.5 756,-48.5 756,-29.5 718,-29.5"/>
<text text-anchor="middle" x="737" y="-36.5" font-family="Helvetica,sans-Serif" font-size="10.00">main</text>
</a>
</g>
</g>
<!-- Node8&#45;&gt;Node9 -->
<g id="edge8" class="edge"><title>Node8&#45;&gt;Node9</title>
<path fill="none" stroke="midnightblue" d="M666.227,-39C685.019,-39 704.221,-39 717.711,-39"/>
<polygon fill="midnightblue" stroke="midnightblue" points="666.17,-35.5001 656.17,-39 666.17,-42.5001 666.17,-35.5001"/>
</g>
<!-- Node11 -->
<g id="node11" class="node"><title>Node11</title>
<g id="a_node11"><a xlink:href="../../d1/d10/classserver_1_1irc_client.html#a31910635c17bd56be644084746653ba8" target="_top" xlink:title="server::ircClient::\lsltConnected">
<polygon fill="white" stroke="black" points="397.5,-104 397.5,-134 486.5,-134 486.5,-104 397.5,-104"/>
<text text-anchor="start" x="405.5" y="-122" font-family="Helvetica,sans-Serif" font-size="10.00">server::ircClient::</text>
<text text-anchor="middle" x="442" y="-111" font-family="Helvetica,sans-Serif" font-size="10.00">sltConnected</text>
</a>
</g>
</g>
<!-- Node10&#45;&gt;Node11 -->
<g id="edge10" class="edge"><title>Node10&#45;&gt;Node11</title>
<path fill="none" stroke="midnightblue" d="M218.57,-119C273.073,-119 349.629,-119 397.227,-119"/>
<polygon fill="midnightblue" stroke="midnightblue" points="218.32,-115.5 208.32,-119 218.32,-122.5 218.32,-115.5"/>
</g>
<!-- Node10&#45;&gt;Node2 -->
<g id="edge12" class="edge"><title>Node10&#45;&gt;Node2</title>
<path fill="none" stroke="midnightblue" d="M181.183,-133.403C203.945,-145.463 236.328,-162.622 259.462,-174.879"/>
<polygon fill="midnightblue" stroke="midnightblue" points="182.547,-130.165 172.072,-128.575 179.269,-136.35 182.547,-130.165"/>
</g>
<!-- Node10&#45;&gt;Node6 -->
<g id="edge13" class="edge"><title>Node10&#45;&gt;Node6</title>
<path fill="none" stroke="midnightblue" d="M170.902,-102.277C188.365,-85.4659 216.826,-59.3406 244,-40 248.867,-36.5358 254.254,-33.148 259.539,-30.0405"/>
<polygon fill="midnightblue" stroke="midnightblue" points="168.424,-99.8051 163.697,-109.287 173.305,-104.822 168.424,-99.8051"/>
</g>
<!-- Node12 -->
<g id="node12" class="node"><title>Node12</title>
<g id="a_node12"><a xlink:href="../../d1/d10/classserver_1_1irc_client.html#aef3233c03f42190f1c89b77c357e9f7f" target="_top" xlink:title="Sets our own nickname.">
<polygon fill="white" stroke="black" points="244.5,-49 244.5,-79 333.5,-79 333.5,-49 244.5,-49"/>
<text text-anchor="start" x="252.5" y="-67" font-family="Helvetica,sans-Serif" font-size="10.00">server::ircClient::</text>
<text text-anchor="middle" x="289" y="-56" font-family="Helvetica,sans-Serif" font-size="10.00">setOwnNick</text>
</a>
</g>
</g>
<!-- Node10&#45;&gt;Node12 -->
<g id="edge14" class="edge"><title>Node10&#45;&gt;Node12</title>
<path fill="none" stroke="midnightblue" d="M186.736,-105.564C206.263,-97.5487 231.104,-87.3528 251.295,-79.0654"/>
<polygon fill="midnightblue" stroke="midnightblue" points="185.263,-102.385 177.341,-109.42 187.921,-108.86 185.263,-102.385"/>
</g>
<!-- Node10&#45;&gt;Node3 -->
<g id="edge17" class="edge"><title>Node10&#45;&gt;Node3</title>
<path fill="none" stroke="midnightblue" d="M205.896,-130.753C260.669,-143.159 346.039,-162.493 397.436,-174.134"/>
<polygon fill="midnightblue" stroke="midnightblue" points="206.566,-127.317 196.04,-128.521 205.019,-134.144 206.566,-127.317"/>
</g>
<!-- Node11&#45;&gt;Node4 -->
<g id="edge11" class="edge"><title>Node11&#45;&gt;Node4</title>
<path fill="none" stroke="midnightblue" d="M496.753,-129.818C515.524,-133.596 536.443,-137.806 554.654,-141.471"/>
<polygon fill="midnightblue" stroke="midnightblue" points="497.362,-126.371 486.868,-127.829 495.981,-133.233 497.362,-126.371"/>
</g>
<!-- Node13 -->
<g id="node13" class="node"><title>Node13</title>
<g id="a_node13"><a xlink:href="../../d1/d48/classserver_1_1main_app.html#af498e3b109e1bc2b9f8e87b215efdb27" target="_top" xlink:title="Triggered when a UI client wants to change the status.">
<polygon fill="white" stroke="black" points="377,-47 377,-77 507,-77 507,-47 377,-47"/>
<text text-anchor="start" x="385" y="-65" font-family="Helvetica,sans-Serif" font-size="10.00">server::mainApp::ownUser</text>
<text text-anchor="middle" x="442" y="-54" font-family="Helvetica,sans-Serif" font-size="10.00">ChangeStatus</text>
</a>
</g>
</g>
<!-- Node12&#45;&gt;Node13 -->
<g id="edge15" class="edge"><title>Node12&#45;&gt;Node13</title>
<path fill="none" stroke="midnightblue" d="M343.745,-63.2881C354.486,-63.1459 365.87,-62.9951 376.92,-62.8487"/>
<polygon fill="midnightblue" stroke="midnightblue" points="343.628,-59.7893 333.675,-63.4215 343.721,-66.7887 343.628,-59.7893"/>
</g>
<!-- Node13&#45;&gt;Node8 -->
<g id="edge16" class="edge"><title>Node13&#45;&gt;Node8</title>
<path fill="none" stroke="midnightblue" d="M517.238,-51.2612C528.221,-49.6724 539.339,-48.0641 549.748,-46.5584"/>
<polygon fill="midnightblue" stroke="midnightblue" points="516.609,-47.8156 507.213,-52.7113 517.611,-54.7435 516.609,-47.8156"/>
</g>
</g>
</svg>
