<?xml version="1.0" encoding="UTF-8" standalone="no"?>
<!DOCTYPE svg PUBLIC "-//W3C//DTD SVG 1.1//EN"
 "http://www.w3.org/Graphics/SVG/1.1/DTD/svg11.dtd">
<!-- Generated by graphviz version 2.30.1 (20130303.0817)
 -->
<!-- Title: server::getColor Pages: 1 -->
<svg width="636pt" height="47pt"
 viewBox="0.00 0.00 636.00 47.00" xmlns="http://www.w3.org/2000/svg" xmlns:xlink="http://www.w3.org/1999/xlink">
<g id="graph0" class="graph" transform="scale(1 1) rotate(0) translate(4 43)">
<title>server::getColor</title>
<polygon fill="white" stroke="white" points="-4,5 -4,-43 633,-43 633,5 -4,5"/>
<!-- Node1 -->
<g id="node1" class="node"><title>Node1</title>
<polygon fill="#bfbfbf" stroke="black" points="0,-19.5 0,-38.5 84,-38.5 84,-19.5 0,-19.5"/>
<text text-anchor="middle" x="42" y="-26.5" font-family="Helvetica,sans-Serif" font-size="10.00">server::getColor</text>
</g>
<!-- Node2 -->
<g id="node2" class="node"><title>Node2</title>
<g id="a_node2"><a xlink:href="../../d4/d08/classserver_1_1irc_user_list.html#a19af488638607e1cc77e94692e3cf3b1" target="_top" xlink:title="Adds a user to the list.">
<polygon fill="white" stroke="black" points="120,-19.5 120,-38.5 236,-38.5 236,-19.5 120,-19.5"/>
<text text-anchor="middle" x="178" y="-26.5" font-family="Helvetica,sans-Serif" font-size="10.00">server::ircUserList::add</text>
</a>
</g>
</g>
<!-- Node1&#45;&gt;Node2 -->
<g id="edge1" class="edge"><title>Node1&#45;&gt;Node2</title>
<path fill="none" stroke="midnightblue" d="M94.5564,-29C102.828,-29 111.431,-29 119.824,-29"/>
<polygon fill="midnightblue" stroke="midnightblue" points="94.2978,-25.5001 84.2978,-29 94.2978,-32.5001 94.2978,-25.5001"/>
</g>
<!-- Node3 -->
<g id="node3" class="node"><title>Node3</title>
<g id="a_node3"><a xlink:href="../../d1/d48/classserver_1_1main_app.html#af331bc3bf60e745f3ddc95ab3abe5188" target="_top" xlink:title="server::mainApp::run">
<polygon fill="white" stroke="black" points="448,-19.5 448,-38.5 554,-38.5 554,-19.5 448,-19.5"/>
<text text-anchor="middle" x="501" y="-26.5" font-family="Helvetica,sans-Serif" font-size="10.00">server::mainApp::run</text>
</a>
</g>
</g>
<!-- Node2&#45;&gt;Node3 -->
<g id="edge2" class="edge"><title>Node2&#45;&gt;Node3</title>
<path fill="none" stroke="midnightblue" d="M246.152,-29C306.146,-29 392.812,-29 447.762,-29"/>
<polygon fill="midnightblue" stroke="midnightblue" points="246.019,-25.5001 236.018,-29 246.018,-32.5001 246.019,-25.5001"/>
</g>
<!-- Node5 -->
<g id="node5" class="node"><title>Node5</title>
<g id="a_node5"><a xlink:href="../../d1/d48/classserver_1_1main_app.html#a92448c1219ad89999c983b04adaa4236" target="_top" xlink:title="Triggered when a user joins trough a JOIN message.">
<polygon fill="white" stroke="black" points="272.5,-0.5 272.5,-19.5 411.5,-19.5 411.5,-0.5 272.5,-0.5"/>
<text text-anchor="middle" x="342" y="-7.5" font-family="Helvetica,sans-Serif" font-size="10.00">server::mainApp::userOnline</text>
</a>
</g>
</g>
<!-- Node2&#45;&gt;Node5 -->
<g id="edge4" class="edge"><title>Node2&#45;&gt;Node5</title>
<path fill="none" stroke="midnightblue" d="M246.18,-21.1208C254.861,-20.1028 263.759,-19.0591 272.462,-18.0385"/>
<polygon fill="midnightblue" stroke="midnightblue" points="245.639,-17.6602 236.115,-22.3013 246.455,-24.6125 245.639,-17.6602"/>
</g>
<!-- Node4 -->
<g id="node4" class="node"><title>Node4</title>
<g id="a_node4"><a xlink:href="../../dc/d17/custom_irc_server_2main_8cpp.html#a0ddf1224851353fc92bfbff6f499fa97" target="_top" xlink:title="main">
<polygon fill="white" stroke="black" points="590,-19.5 590,-38.5 628,-38.5 628,-19.5 590,-19.5"/>
<text text-anchor="middle" x="609" y="-26.5" font-family="Helvetica,sans-Serif" font-size="10.00">main</text>
</a>
</g>
</g>
<!-- Node3&#45;&gt;Node4 -->
<g id="edge3" class="edge"><title>Node3&#45;&gt;Node4</title>
<path fill="none" stroke="midnightblue" d="M564.208,-29C573.464,-29 582.334,-29 589.64,-29"/>
<polygon fill="midnightblue" stroke="midnightblue" points="564.068,-25.5001 554.068,-29 564.068,-32.5001 564.068,-25.5001"/>
</g>
<!-- Node5&#45;&gt;Node3 -->
<g id="edge5" class="edge"><title>Node5&#45;&gt;Node3</title>
<path fill="none" stroke="midnightblue" d="M422.059,-19.5677C430.763,-20.621 439.458,-21.6733 447.716,-22.6727"/>
<polygon fill="midnightblue" stroke="midnightblue" points="422.211,-16.0605 411.862,-18.3337 421.37,-23.0098 422.211,-16.0605"/>
</g>
</g>
</svg>
