<?xml version="1.0" encoding="UTF-8" standalone="no"?>
<!DOCTYPE svg PUBLIC "-//W3C//DTD SVG 1.1//EN"
 "http://www.w3.org/Graphics/SVG/1.1/DTD/svg11.dtd">
<!-- Generated by graphviz version 2.30.1 (20130303.0817)
 -->
<!-- Title: K4U::jsonCommand::getData Pages: 1 -->
<!--zoomable 701 -->
<svg id="main" version="1.1" xmlns="http://www.w3.org/2000/svg" xmlns:xlink="http://www.w3.org/1999/xlink" xml:space="preserve" onload="init(evt)">
        <defs>
                <circle id="rim" cx="0" cy="0" r="7"/>
                <circle id="rim2" cx="0" cy="0" r="3.5"/>
                <g id="zoomPlus">
                        <use xlink:href="#rim" fill="#404040">
                                <set attributeName="fill" to="#808080" begin="zoomplus.mouseover" end="zoomplus.mouseout"/>
                        </use>
                        <path d="M-4,0h8M0,-4v8" fill="none" stroke="white" stroke-width="1.5" pointer-events="none"/>
                </g>
                <g id="zoomMin">
                        <use xlink:href="#rim" fill="#404040">
                                <set attributeName="fill" to="#808080" begin="zoomminus.mouseover" end="zoomminus.mouseout"/>
                        </use>
                        <path d="M-4,0h8" fill="none" stroke="white" stroke-width="1.5" pointer-events="none"/>
                </g>
                <g id="dirArrow">
                        <path fill="none" stroke="white" stroke-width="1.5" d="M0,-3.0v7 M-2.5,-0.5L0,-3.0L2.5,-0.5"/>
                </g>
               <g id="resetDef">
                       <use xlink:href="#rim2" fill="#404040">
                               <set attributeName="fill" to="#808080" begin="reset.mouseover" end="reset.mouseout"/>
                       </use>
               </g>
        </defs>

<script type="text/javascript">
var viewWidth = 1280;
var viewHeight = 701;
var sectionId = 'dynsection-6';
</script>
<script xlink:href="../../svgpan.js"/>
<svg id="graph" class="graph">
<g id="viewport">
<title>K4U::jsonCommand::getData</title>
<polygon fill="white" stroke="white" points="-4,5 -4,-697.233 1277,-697.233 1277,5 -4,5"/>
<!-- Node1 -->
<g id="node1" class="node"><title>Node1</title>
<polygon fill="#bfbfbf" stroke="black" points="0.5,-428.733 0.5,-447.733 143.5,-447.733 143.5,-428.733 0.5,-428.733"/>
<text text-anchor="middle" x="72" y="-435.733" font-family="Helvetica,sans-Serif" font-size="10.00">K4U::jsonCommand::getData</text>
</g>
<!-- Node2 -->
<g id="node2" class="node"><title>Node2</title>
<g id="a_node2"><a xlink:href="../../d2/dc1/class_k4_u_1_1json_command.html#a0b681a1fedfb2e89397b1f71e29edf78" target="_top" xlink:title="Transforms this object to a nice JSON string.">
<polygon fill="white" stroke="black" points="180,-423.233 180,-453.233 318,-453.233 318,-423.233 180,-423.233"/>
<text text-anchor="start" x="188" y="-441.233" font-family="Helvetica,sans-Serif" font-size="10.00">K4U::jsonCommand::toJson</text>
<text text-anchor="middle" x="249" y="-430.233" font-family="Helvetica,sans-Serif" font-size="10.00">String</text>
</a>
</g>
</g>
<!-- Node1&#45;&gt;Node2 -->
<g id="edge1" class="edge"><title>Node1&#45;&gt;Node2</title>
<path fill="none" stroke="midnightblue" d="M153.842,-438.233C162.556,-438.233 171.358,-438.233 179.9,-438.233"/>
<polygon fill="midnightblue" stroke="midnightblue" points="153.675,-434.733 143.675,-438.233 153.675,-441.733 153.675,-434.733"/>
</g>
<!-- Node3 -->
<g id="node3" class="node"><title>Node3</title>
<g id="a_node3"><a xlink:href="../../d3/d65/classclient_1_1cls_server_conn.html#a997f9cd3d63321807f60472308acc459" target="_top" xlink:title="Send a JSON command to the server.">
<polygon fill="white" stroke="black" points="355,-565.233 355,-595.233 463,-595.233 463,-565.233 355,-565.233"/>
<text text-anchor="start" x="363" y="-583.233" font-family="Helvetica,sans-Serif" font-size="10.00">client::clsServerConn</text>
<text text-anchor="middle" x="409" y="-572.233" font-family="Helvetica,sans-Serif" font-size="10.00">::sendCommand</text>
</a>
</g>
</g>
<!-- Node2&#45;&gt;Node3 -->
<g id="edge2" class="edge"><title>Node2&#45;&gt;Node3</title>
<path fill="none" stroke="midnightblue" d="M274.612,-460.352C307.049,-489.505 363.26,-540.023 391.213,-565.145"/>
<polygon fill="midnightblue" stroke="midnightblue" points="276.686,-457.51 266.909,-453.429 272.007,-462.717 276.686,-457.51"/>
</g>
<!-- Node9 -->
<g id="node9" class="node"><title>Node9</title>
<g id="a_node9"><a xlink:href="../../df/dd2/classserver_1_1ui_server.html#ab9e9ed944311c42f019c645c3e0539cf" target="_top" xlink:title="Sends a jsonCommand to all the clients.">
<polygon fill="white" stroke="black" points="354,-236.733 354,-255.733 464,-255.733 464,-236.733 354,-236.733"/>
<text text-anchor="middle" x="409" y="-243.733" font-family="Helvetica,sans-Serif" font-size="10.00">server::uiServer::send</text>
</a>
</g>
</g>
<!-- Node2&#45;&gt;Node9 -->
<g id="edge11" class="edge"><title>Node2&#45;&gt;Node9</title>
<path fill="none" stroke="midnightblue" d="M268.793,-415.396C303.422,-373.315 375.965,-285.161 400.043,-255.902"/>
<polygon fill="midnightblue" stroke="midnightblue" points="266.05,-413.221 262.398,-423.167 271.455,-417.669 266.05,-413.221"/>
</g>
<!-- Node4 -->
<g id="node4" class="node"><title>Node4</title>
<g id="a_node4"><a xlink:href="../../d2/da4/classclient_1_1_main_window.html#aa32adfb179341040f2decbd0da19f1d9" target="_top" xlink:title="client::MainWindow\l::sendChat">
<polygon fill="white" stroke="black" points="528.5,-565.233 528.5,-595.233 629.5,-595.233 629.5,-565.233 528.5,-565.233"/>
<text text-anchor="start" x="536.5" y="-583.233" font-family="Helvetica,sans-Serif" font-size="10.00">client::MainWindow</text>
<text text-anchor="middle" x="579" y="-572.233" font-family="Helvetica,sans-Serif" font-size="10.00">::sendChat</text>
</a>
</g>
</g>
<!-- Node3&#45;&gt;Node4 -->
<g id="edge3" class="edge"><title>Node3&#45;&gt;Node4</title>
<path fill="none" stroke="midnightblue" d="M473.38,-580.233C491.558,-580.233 511.109,-580.233 528.333,-580.233"/>
<polygon fill="midnightblue" stroke="midnightblue" points="473.156,-576.733 463.156,-580.233 473.156,-583.733 473.156,-576.733"/>
</g>
<!-- Node6 -->
<g id="node6" class="node"><title>Node6</title>
<g id="a_node6"><a xlink:href="../../d2/da4/classclient_1_1_main_window.html#a75d241698eb127c089ed4703fbeb4999" target="_top" xlink:title="client::MainWindow\l::commandGiven">
<polygon fill="white" stroke="black" points="528.5,-516.233 528.5,-546.233 629.5,-546.233 629.5,-516.233 528.5,-516.233"/>
<text text-anchor="start" x="536.5" y="-534.233" font-family="Helvetica,sans-Serif" font-size="10.00">client::MainWindow</text>
<text text-anchor="middle" x="579" y="-523.233" font-family="Helvetica,sans-Serif" font-size="10.00">::commandGiven</text>
</a>
</g>
</g>
<!-- Node3&#45;&gt;Node6 -->
<g id="edge5" class="edge"><title>Node3&#45;&gt;Node6</title>
<path fill="none" stroke="midnightblue" d="M471.413,-562.32C490.166,-556.851 510.542,-550.908 528.407,-545.697"/>
<polygon fill="midnightblue" stroke="midnightblue" points="470.396,-558.971 461.776,-565.131 472.356,-565.691 470.396,-558.971"/>
</g>
<!-- Node7 -->
<g id="node7" class="node"><title>Node7</title>
<g id="a_node7"><a xlink:href="../../d2/da4/classclient_1_1_main_window.html#aae9222490d9f0d71ffa6585c35416bfb" target="_top" xlink:title="client::MainWindow\l::serverConnected">
<polygon fill="white" stroke="black" points="528.5,-663.233 528.5,-693.233 629.5,-693.233 629.5,-663.233 528.5,-663.233"/>
<text text-anchor="start" x="536.5" y="-681.233" font-family="Helvetica,sans-Serif" font-size="10.00">client::MainWindow</text>
<text text-anchor="middle" x="579" y="-670.233" font-family="Helvetica,sans-Serif" font-size="10.00">::serverConnected</text>
</a>
</g>
</g>
<!-- Node3&#45;&gt;Node7 -->
<g id="edge7" class="edge"><title>Node3&#45;&gt;Node7</title>
<path fill="none" stroke="midnightblue" d="M432.304,-602.316C449.548,-618.346 474.68,-639.537 500,-653.233 508.755,-657.968 518.555,-661.983 528.172,-665.318"/>
<polygon fill="midnightblue" stroke="midnightblue" points="434.629,-599.699 424.963,-595.36 429.814,-604.779 434.629,-599.699"/>
</g>
<!-- Node8 -->
<g id="node8" class="node"><title>Node8</title>
<g id="a_node8"><a xlink:href="../../d2/da4/classclient_1_1_main_window.html#a13044cd00c53dbbbc6b945c0dfd9b4b4" target="_top" xlink:title="Triggered when the user query came back.">
<polygon fill="white" stroke="black" points="522,-614.233 522,-644.233 636,-644.233 636,-614.233 522,-614.233"/>
<text text-anchor="start" x="530" y="-632.233" font-family="Helvetica,sans-Serif" font-size="10.00">client::MainWindow</text>
<text text-anchor="middle" x="579" y="-621.233" font-family="Helvetica,sans-Serif" font-size="10.00">::userQueryCompleted</text>
</a>
</g>
</g>
<!-- Node3&#45;&gt;Node8 -->
<g id="edge9" class="edge"><title>Node3&#45;&gt;Node8</title>
<path fill="none" stroke="midnightblue" d="M471.601,-598.2C489.601,-603.45 509.082,-609.131 526.395,-614.181"/>
<polygon fill="midnightblue" stroke="midnightblue" points="472.356,-594.774 461.776,-595.334 470.396,-601.494 472.356,-594.774"/>
</g>
<!-- Node5 -->
<g id="node5" class="node"><title>Node5</title>
<g id="a_node5"><a xlink:href="../../d2/da4/classclient_1_1_main_window.html#ab4aedce719340218169c114b31b54f70" target="_top" xlink:title="client::MainWindow\l::MainWindow">
<polygon fill="white" stroke="black" points="725.5,-590.233 725.5,-620.233 826.5,-620.233 826.5,-590.233 725.5,-590.233"/>
<text text-anchor="start" x="733.5" y="-608.233" font-family="Helvetica,sans-Serif" font-size="10.00">client::MainWindow</text>
<text text-anchor="middle" x="776" y="-597.233" font-family="Helvetica,sans-Serif" font-size="10.00">::MainWindow</text>
</a>
</g>
</g>
<!-- Node4&#45;&gt;Node5 -->
<g id="edge4" class="edge"><title>Node4&#45;&gt;Node5</title>
<path fill="none" stroke="midnightblue" d="M639.955,-587.919C667.335,-591.429 699.379,-595.538 725.379,-598.871"/>
<polygon fill="midnightblue" stroke="midnightblue" points="640.075,-584.406 629.711,-586.606 639.185,-591.349 640.075,-584.406"/>
</g>
<!-- Node6&#45;&gt;Node5 -->
<g id="edge6" class="edge"><title>Node6&#45;&gt;Node5</title>
<path fill="none" stroke="midnightblue" d="M638.809,-549.48C645.312,-551.676 651.815,-553.951 658,-556.233 686.409,-566.712 718.053,-580.07 741.262,-590.191"/>
<polygon fill="midnightblue" stroke="midnightblue" points="639.913,-546.158 629.319,-546.327 637.706,-552.801 639.913,-546.158"/>
</g>
<!-- Node7&#45;&gt;Node5 -->
<g id="edge8" class="edge"><title>Node7&#45;&gt;Node5</title>
<path fill="none" stroke="midnightblue" d="M638.51,-660.035C645.11,-657.818 651.717,-655.524 658,-653.233 686.052,-643.001 717.319,-630.094 740.468,-620.241"/>
<polygon fill="midnightblue" stroke="midnightblue" points="637.278,-656.756 628.884,-663.22 639.477,-663.401 637.278,-656.756"/>
</g>
<!-- Node8&#45;&gt;Node5 -->
<g id="edge10" class="edge"><title>Node8&#45;&gt;Node5</title>
<path fill="none" stroke="midnightblue" d="M646.242,-621.08C672.092,-617.898 701.221,-614.313 725.227,-611.359"/>
<polygon fill="midnightblue" stroke="midnightblue" points="645.638,-617.628 636.14,-622.323 646.493,-624.575 645.638,-617.628"/>
</g>
<!-- Node10 -->
<g id="node10" class="node"><title>Node10</title>
<g id="a_node10"><a xlink:href="../../d1/d48/classserver_1_1main_app.html#a0970ee01d48b04ebc1390ffb8edecfc0" target="_top" xlink:title="Triggered when a chat has been received.">
<polygon fill="white" stroke="black" points="900,-126.733 900,-145.733 1050,-145.733 1050,-126.733 900,-126.733"/>
<text text-anchor="middle" x="975" y="-133.733" font-family="Helvetica,sans-Serif" font-size="10.00">server::mainApp::chatReceived</text>
</a>
</g>
</g>
<!-- Node9&#45;&gt;Node10 -->
<g id="edge12" class="edge"><title>Node9&#45;&gt;Node10</title>
<path fill="none" stroke="midnightblue" d="M430.69,-230.629C448.247,-218.138 474.568,-201.126 500,-191.233 633.956,-139.124 804.058,-132.384 899.783,-133.452"/>
<polygon fill="midnightblue" stroke="midnightblue" points="428.388,-227.976 422.359,-236.688 432.505,-233.637 428.388,-227.976"/>
</g>
<!-- Node13 -->
<g id="node13" class="node"><title>Node13</title>
<g id="a_node13"><a xlink:href="../../d1/d48/classserver_1_1main_app.html#a92448c1219ad89999c983b04adaa4236" target="_top" xlink:title="Triggered when a user joins trough a JOIN message.">
<polygon fill="white" stroke="black" points="706.5,-85.7325 706.5,-104.733 845.5,-104.733 845.5,-85.7325 706.5,-85.7325"/>
<text text-anchor="middle" x="776" y="-92.7325" font-family="Helvetica,sans-Serif" font-size="10.00">server::mainApp::userOnline</text>
</a>
</g>
</g>
<!-- Node9&#45;&gt;Node13 -->
<g id="edge15" class="edge"><title>Node9&#45;&gt;Node13</title>
<path fill="none" stroke="midnightblue" d="M417.401,-226.942C429.67,-197.91 457.199,-143.777 500,-119.233 562.985,-83.1142 647.732,-81.34 706.426,-85.9098"/>
<polygon fill="midnightblue" stroke="midnightblue" points="414.08,-225.818 413.571,-236.401 420.568,-228.446 414.08,-225.818"/>
</g>
<!-- Node14 -->
<g id="node14" class="node"><title>Node14</title>
<g id="a_node14"><a xlink:href="../../d1/d48/classserver_1_1main_app.html#aae86b15c001a235de78a90334e697b5f" target="_top" xlink:title="Triggered when a user leaves trough a PART message.">
<polygon fill="white" stroke="black" points="906,-48.7325 906,-67.7325 1044,-67.7325 1044,-48.7325 906,-48.7325"/>
<text text-anchor="middle" x="975" y="-55.7325" font-family="Helvetica,sans-Serif" font-size="10.00">server::mainApp::userOffline</text>
</a>
</g>
</g>
<!-- Node9&#45;&gt;Node14 -->
<g id="edge17" class="edge"><title>Node9&#45;&gt;Node14</title>
<path fill="none" stroke="midnightblue" d="M414.048,-226.637C422.683,-190.429 446.643,-113.698 500,-80.2325 565.689,-39.0321 791.081,-46.529 905.779,-53.3827"/>
<polygon fill="midnightblue" stroke="midnightblue" points="410.613,-225.956 411.844,-236.479 417.444,-227.486 410.613,-225.956"/>
</g>
<!-- Node15 -->
<g id="node15" class="node"><title>Node15</title>
<g id="a_node15"><a xlink:href="../../d1/d48/classserver_1_1main_app.html#ae15deb9260c486854af7fac7b063fdf5" target="_top" xlink:title="Triggered when a user changes his nickname (nick|Status)">
<polygon fill="white" stroke="black" points="694,-9.73254 694,-28.7325 858,-28.7325 858,-9.73254 694,-9.73254"/>
<text text-anchor="middle" x="776" y="-16.7325" font-family="Helvetica,sans-Serif" font-size="10.00">server::mainApp::userChangeNick</text>
</a>
</g>
</g>
<!-- Node9&#45;&gt;Node15 -->
<g id="edge19" class="edge"><title>Node9&#45;&gt;Node15</title>
<path fill="none" stroke="midnightblue" d="M412.213,-226.437C418.045,-184.635 437.931,-87.5693 500,-43.2325 566.783,4.47144 667.277,-0.907581 726.495,-9.6973"/>
<polygon fill="midnightblue" stroke="midnightblue" points="408.729,-226.097 410.942,-236.458 415.673,-226.978 408.729,-226.097"/>
</g>
<!-- Node16 -->
<g id="node16" class="node"><title>Node16</title>
<g id="a_node16"><a xlink:href="../../d1/d48/classserver_1_1main_app.html#aaa3dd74b510e2d797f21293a622a4f7d" target="_top" xlink:title="Triggered when a user changes his status (nick|Status)">
<polygon fill="white" stroke="black" points="903,-470.233 903,-500.233 1047,-500.233 1047,-470.233 903,-470.233"/>
<text text-anchor="start" x="911" y="-488.233" font-family="Helvetica,sans-Serif" font-size="10.00">server::mainApp::userChange</text>
<text text-anchor="middle" x="975" y="-477.233" font-family="Helvetica,sans-Serif" font-size="10.00">Status</text>
</a>
</g>
</g>
<!-- Node9&#45;&gt;Node16 -->
<g id="edge21" class="edge"><title>Node9&#45;&gt;Node16</title>
<path fill="none" stroke="midnightblue" d="M411.665,-266.243C416.48,-309.853 434.588,-413.231 500,-459.233 563.032,-503.56 786.897,-497.001 902.996,-490.245"/>
<polygon fill="midnightblue" stroke="midnightblue" points="415.127,-265.679 410.669,-256.068 408.16,-266.361 415.127,-265.679"/>
</g>
<!-- Node17 -->
<g id="node17" class="node"><title>Node17</title>
<g id="a_node17"><a xlink:href="../../d1/d48/classserver_1_1main_app.html#aea819e4b8f297de7f1e3fc2f8513b0a4" target="_top" xlink:title="Triggered when a UI client wants all the users.">
<polygon fill="white" stroke="black" points="701.5,-439.733 701.5,-458.733 850.5,-458.733 850.5,-439.733 701.5,-439.733"/>
<text text-anchor="middle" x="776" y="-446.733" font-family="Helvetica,sans-Serif" font-size="10.00">server::mainApp::doUserQuery</text>
</a>
</g>
</g>
<!-- Node9&#45;&gt;Node17 -->
<g id="edge23" class="edge"><title>Node9&#45;&gt;Node17</title>
<path fill="none" stroke="midnightblue" d="M413.469,-266.06C421.297,-304.207 444.193,-387.381 500,-425.233 566.434,-470.292 663.662,-466.661 722.946,-458.766"/>
<polygon fill="midnightblue" stroke="midnightblue" points="416.893,-265.33 411.575,-256.167 410.018,-266.646 416.893,-265.33"/>
</g>
<!-- Node18 -->
<g id="node18" class="node"><title>Node18</title>
<g id="a_node18"><a xlink:href="../../d1/d48/classserver_1_1main_app.html#aba9c03c1c353a57f43404bb149bee50b" target="_top" xlink:title="Triggered when a UI client wants all the events known to the server.">
<polygon fill="white" stroke="black" points="897.5,-390.733 897.5,-409.733 1052.5,-409.733 1052.5,-390.733 897.5,-390.733"/>
<text text-anchor="middle" x="975" y="-397.733" font-family="Helvetica,sans-Serif" font-size="10.00">server::mainApp::doSendEvents</text>
</a>
</g>
</g>
<!-- Node9&#45;&gt;Node18 -->
<g id="edge25" class="edge"><title>Node9&#45;&gt;Node18</title>
<path fill="none" stroke="midnightblue" d="M431.167,-261.586C476.559,-293.46 587.781,-366.018 694,-392.233 761.28,-408.837 840.416,-409.435 897.363,-406.701"/>
<polygon fill="midnightblue" stroke="midnightblue" points="433.168,-258.714 422.988,-255.779 429.116,-264.422 433.168,-258.714"/>
</g>
<!-- Node19 -->
<g id="node19" class="node"><title>Node19</title>
<g id="a_node19"><a xlink:href="../../d1/d48/classserver_1_1main_app.html#a7263ca5b3630b0a2774f556b96c333c8" target="_top" xlink:title="For logging to the clients.">
<polygon fill="white" stroke="black" points="500,-268.733 500,-287.733 658,-287.733 658,-268.733 500,-268.733"/>
<text text-anchor="middle" x="579" y="-275.733" font-family="Helvetica,sans-Serif" font-size="10.00">server::mainApp::serverMessage</text>
</a>
</g>
</g>
<!-- Node9&#45;&gt;Node19 -->
<g id="edge27" class="edge"><title>Node9&#45;&gt;Node19</title>
<path fill="none" stroke="midnightblue" d="M469.988,-257.659C488.971,-261.275 509.741,-265.231 527.952,-268.7"/>
<polygon fill="midnightblue" stroke="midnightblue" points="470.429,-254.18 459.951,-255.747 469.119,-261.056 470.429,-254.18"/>
</g>
<!-- Node24 -->
<g id="node24" class="node"><title>Node24</title>
<g id="a_node24"><a xlink:href="../../df/dd2/classserver_1_1ui_server.html#a1d221672f6efb29189e6ce398f7b07e3" target="_top" xlink:title="Triggered when a client wants to change something about our own user.">
<polygon fill="white" stroke="black" points="519,-200.233 519,-230.233 639,-230.233 639,-200.233 519,-200.233"/>
<text text-anchor="start" x="527" y="-218.233" font-family="Helvetica,sans-Serif" font-size="10.00">server::uiServer::change</text>
<text text-anchor="middle" x="579" y="-207.233" font-family="Helvetica,sans-Serif" font-size="10.00">OwnUser</text>
</a>
</g>
</g>
<!-- Node9&#45;&gt;Node24 -->
<g id="edge38" class="edge"><title>Node9&#45;&gt;Node24</title>
<path fill="none" stroke="midnightblue" d="M471.697,-234.848C487.066,-232.012 503.508,-228.978 518.756,-226.165"/>
<polygon fill="midnightblue" stroke="midnightblue" points="470.975,-231.422 461.776,-236.679 472.245,-238.306 470.975,-231.422"/>
</g>
<!-- Node11 -->
<g id="node11" class="node"><title>Node11</title>
<g id="a_node11"><a xlink:href="../../d1/d48/classserver_1_1main_app.html#af331bc3bf60e745f3ddc95ab3abe5188" target="_top" xlink:title="server::mainApp::run">
<polygon fill="white" stroke="black" points="1092,-249.733 1092,-268.733 1198,-268.733 1198,-249.733 1092,-249.733"/>
<text text-anchor="middle" x="1145" y="-256.733" font-family="Helvetica,sans-Serif" font-size="10.00">server::mainApp::run</text>
</a>
</g>
</g>
<!-- Node10&#45;&gt;Node11 -->
<g id="edge13" class="edge"><title>Node10&#45;&gt;Node11</title>
<path fill="none" stroke="midnightblue" d="M1037.71,-149.179C1044.12,-151.69 1050.35,-154.678 1056,-158.233 1094.79,-182.617 1125.99,-229.282 1138.31,-249.497"/>
<polygon fill="midnightblue" stroke="midnightblue" points="1038.82,-145.862 1028.23,-145.832 1036.49,-152.462 1038.82,-145.862"/>
</g>
<!-- Node12 -->
<g id="node12" class="node"><title>Node12</title>
<g id="a_node12"><a xlink:href="../../dc/d17/custom_irc_server_2main_8cpp.html#a0ddf1224851353fc92bfbff6f499fa97" target="_top" xlink:title="main">
<polygon fill="white" stroke="black" points="1234,-249.733 1234,-268.733 1272,-268.733 1272,-249.733 1234,-249.733"/>
<text text-anchor="middle" x="1253" y="-256.733" font-family="Helvetica,sans-Serif" font-size="10.00">main</text>
</a>
</g>
</g>
<!-- Node11&#45;&gt;Node12 -->
<g id="edge14" class="edge"><title>Node11&#45;&gt;Node12</title>
<path fill="none" stroke="midnightblue" d="M1208.21,-259.233C1217.46,-259.233 1226.33,-259.233 1233.64,-259.233"/>
<polygon fill="midnightblue" stroke="midnightblue" points="1208.07,-255.733 1198.07,-259.233 1208.07,-262.733 1208.07,-255.733"/>
</g>
<!-- Node13&#45;&gt;Node11 -->
<g id="edge16" class="edge"><title>Node13&#45;&gt;Node11</title>
<path fill="none" stroke="midnightblue" d="M842.402,-84.5629C902.4,-78.2429 991.482,-77.9114 1056,-117.233 1107.51,-148.628 1133.41,-222.748 1141.31,-249.439"/>
<polygon fill="midnightblue" stroke="midnightblue" points="841.831,-81.1051 832.291,-85.7133 842.623,-88.0602 841.831,-81.1051"/>
</g>
<!-- Node14&#45;&gt;Node11 -->
<g id="edge18" class="edge"><title>Node14&#45;&gt;Node11</title>
<path fill="none" stroke="midnightblue" d="M1037.2,-71.55C1043.98,-74.6621 1050.44,-78.4999 1056,-83.2325 1111.16,-130.167 1135.31,-220.065 1141.98,-249.582"/>
<polygon fill="midnightblue" stroke="midnightblue" points="1038.38,-68.2511 1027.79,-67.7404 1035.75,-74.739 1038.38,-68.2511"/>
</g>
<!-- Node15&#45;&gt;Node11 -->
<g id="edge20" class="edge"><title>Node15&#45;&gt;Node11</title>
<path fill="none" stroke="midnightblue" d="M828.579,-7.8565C889.117,2.37169 989.648,9.24005 1056,-39.2325 1128.41,-92.1329 1141.31,-214.472 1143.55,-249.626"/>
<polygon fill="midnightblue" stroke="midnightblue" points="827.719,-4.45457 818.488,-9.65531 828.948,-11.3459 827.719,-4.45457"/>
</g>
<!-- Node16&#45;&gt;Node11 -->
<g id="edge22" class="edge"><title>Node16&#45;&gt;Node11</title>
<path fill="none" stroke="midnightblue" d="M1040.72,-465.481C1046.25,-462.259 1051.46,-458.535 1056,-454.233 1113.71,-399.574 1136.43,-300.033 1142.33,-268.843"/>
<polygon fill="midnightblue" stroke="midnightblue" points="1039.06,-462.402 1031.82,-470.139 1042.3,-468.605 1039.06,-462.402"/>
</g>
<!-- Node17&#45;&gt;Node11 -->
<g id="edge24" class="edge"><title>Node17&#45;&gt;Node11</title>
<path fill="none" stroke="midnightblue" d="M857.636,-459.398C917.25,-462.714 997.834,-457.97 1056,-419.233 1111.67,-382.154 1135.35,-297.503 1141.96,-268.889"/>
<polygon fill="midnightblue" stroke="midnightblue" points="857.712,-455.896 847.508,-458.746 857.263,-462.881 857.712,-455.896"/>
</g>
<!-- Node18&#45;&gt;Node11 -->
<g id="edge26" class="edge"><title>Node18&#45;&gt;Node11</title>
<path fill="none" stroke="midnightblue" d="M1025.31,-387.234C1036,-383.12 1046.84,-377.862 1056,-371.233 1096.07,-342.243 1127.24,-290.19 1138.96,-268.804"/>
<polygon fill="midnightblue" stroke="midnightblue" points="1023.83,-384.045 1015.58,-390.697 1026.18,-390.64 1023.83,-384.045"/>
</g>
<!-- Node19&#45;&gt;Node11 -->
<g id="edge28" class="edge"><title>Node19&#45;&gt;Node11</title>
<path fill="none" stroke="midnightblue" d="M650.835,-267.182C665.11,-265.092 680.023,-263.008 694,-261.233 853.875,-240.928 895.751,-223.13 1056,-240.233 1073.41,-242.09 1092.43,-245.959 1108.32,-249.724"/>
<polygon fill="midnightblue" stroke="midnightblue" points="649.955,-263.774 640.575,-268.7 650.979,-270.699 649.955,-263.774"/>
</g>
<!-- Node20 -->
<g id="node20" class="node"><title>Node20</title>
<g id="a_node20"><a xlink:href="../../d1/d48/classserver_1_1main_app.html#a931aedd34bb38252acfc8880f9716fab" target="_top" xlink:title="Triggered when the IRC client cannot connect.">
<polygon fill="white" stroke="black" points="905.5,-288.233 905.5,-318.233 1044.5,-318.233 1044.5,-288.233 905.5,-288.233"/>
<text text-anchor="start" x="913.5" y="-306.233" font-family="Helvetica,sans-Serif" font-size="10.00">server::mainApp::ircConnect</text>
<text text-anchor="middle" x="975" y="-295.233" font-family="Helvetica,sans-Serif" font-size="10.00">TimeOut</text>
</a>
</g>
</g>
<!-- Node19&#45;&gt;Node20 -->
<g id="edge29" class="edge"><title>Node19&#45;&gt;Node20</title>
<path fill="none" stroke="midnightblue" d="M611.131,-291.64C633.668,-300.59 665.119,-311.546 694,-316.233 765.452,-327.828 848.404,-321.559 905.368,-314.271"/>
<polygon fill="midnightblue" stroke="midnightblue" points="612.33,-288.349 601.748,-287.825 609.694,-294.834 612.33,-288.349"/>
</g>
<!-- Node21 -->
<g id="node21" class="node"><title>Node21</title>
<g id="a_node21"><a xlink:href="../../d1/d48/classserver_1_1main_app.html#a6e6e952e3048cfeefcdfeea7bbb5b83e" target="_top" xlink:title="Triggered when the IRC client has connected.">
<polygon fill="white" stroke="black" points="701.5,-363.733 701.5,-382.733 850.5,-382.733 850.5,-363.733 701.5,-363.733"/>
<text text-anchor="middle" x="776" y="-370.733" font-family="Helvetica,sans-Serif" font-size="10.00">server::mainApp::ircConnected</text>
</a>
</g>
</g>
<!-- Node19&#45;&gt;Node21 -->
<g id="edge31" class="edge"><title>Node19&#45;&gt;Node21</title>
<path fill="none" stroke="midnightblue" d="M601.004,-293.738C623.176,-309.51 659.609,-333.77 694,-349.233 706.976,-355.067 721.747,-359.925 735.091,-363.71"/>
<polygon fill="midnightblue" stroke="midnightblue" points="602.853,-290.756 592.695,-287.747 598.76,-296.434 602.853,-290.756"/>
</g>
<!-- Node22 -->
<g id="node22" class="node"><title>Node22</title>
<g id="a_node22"><a xlink:href="../../d1/d48/classserver_1_1main_app.html#af6e8c9d1f06514b33e5f88f9e66884be" target="_top" xlink:title="Triggered when the IRC client has disconnected.">
<polygon fill="white" stroke="black" points="894,-249.733 894,-268.733 1056,-268.733 1056,-249.733 894,-249.733"/>
<text text-anchor="middle" x="975" y="-256.733" font-family="Helvetica,sans-Serif" font-size="10.00">server::mainApp::ircDisconnected</text>
</a>
</g>
</g>
<!-- Node19&#45;&gt;Node22 -->
<g id="edge33" class="edge"><title>Node19&#45;&gt;Node22</title>
<path fill="none" stroke="midnightblue" d="M668.516,-273.964C736.084,-270.706 828.394,-266.254 893.808,-263.1"/>
<polygon fill="midnightblue" stroke="midnightblue" points="668.133,-270.478 658.313,-274.456 668.47,-277.47 668.133,-270.478"/>
</g>
<!-- Node23 -->
<g id="node23" class="node"><title>Node23</title>
<g id="a_node23"><a xlink:href="../../d1/d48/classserver_1_1main_app.html#aa9d4c2e1dc5216901c4f8743838d4561" target="_top" xlink:title="Emitted when the reconnect timer reaches 0.">
<polygon fill="white" stroke="black" points="696,-287.733 696,-306.733 856,-306.733 856,-287.733 696,-287.733"/>
<text text-anchor="middle" x="776" y="-294.733" font-family="Helvetica,sans-Serif" font-size="10.00">server::mainApp::doIrcReconnect</text>
</a>
</g>
</g>
<!-- Node19&#45;&gt;Node23 -->
<g id="edge35" class="edge"><title>Node19&#45;&gt;Node23</title>
<path fill="none" stroke="midnightblue" d="M668.145,-286.821C677.375,-287.72 686.717,-288.631 695.838,-289.519"/>
<polygon fill="midnightblue" stroke="midnightblue" points="668.483,-283.337 658.19,-285.851 667.804,-290.304 668.483,-283.337"/>
</g>
<!-- Node20&#45;&gt;Node11 -->
<g id="edge30" class="edge"><title>Node20&#45;&gt;Node11</title>
<path fill="none" stroke="midnightblue" d="M1043.31,-285.603C1065.3,-279.845 1088.87,-273.671 1107.68,-268.745"/>
<polygon fill="midnightblue" stroke="midnightblue" points="1042.13,-282.294 1033.35,-288.213 1043.91,-289.065 1042.13,-282.294"/>
</g>
<!-- Node21&#45;&gt;Node11 -->
<g id="edge32" class="edge"><title>Node21&#45;&gt;Node11</title>
<path fill="none" stroke="midnightblue" d="M860.637,-370.157C917.702,-365.526 993.901,-354.27 1056,-327.233 1088.57,-313.051 1119.78,-284.126 1134.76,-268.978"/>
<polygon fill="midnightblue" stroke="midnightblue" points="860.278,-366.674 850.572,-370.921 860.808,-373.654 860.278,-366.674"/>
</g>
<!-- Node22&#45;&gt;Node11 -->
<g id="edge34" class="edge"><title>Node22&#45;&gt;Node11</title>
<path fill="none" stroke="midnightblue" d="M1066.34,-259.233C1075.07,-259.233 1083.71,-259.233 1091.88,-259.233"/>
<polygon fill="midnightblue" stroke="midnightblue" points="1066.06,-255.733 1056.06,-259.233 1066.06,-262.733 1066.06,-255.733"/>
</g>
<!-- Node23&#45;&gt;Node20 -->
<g id="edge36" class="edge"><title>Node23&#45;&gt;Node20</title>
<path fill="none" stroke="midnightblue" d="M866.639,-299.963C879.639,-300.359 892.846,-300.761 905.345,-301.142"/>
<polygon fill="midnightblue" stroke="midnightblue" points="866.378,-296.453 856.276,-299.647 866.165,-303.45 866.378,-296.453"/>
</g>
<!-- Node23&#45;&gt;Node22 -->
<g id="edge37" class="edge"><title>Node23&#45;&gt;Node22</title>
<path fill="none" stroke="midnightblue" d="M836.564,-285.743C864.672,-280.321 897.822,-273.927 924.523,-268.776"/>
<polygon fill="midnightblue" stroke="midnightblue" points="835.613,-282.362 826.457,-287.693 836.939,-289.235 835.613,-282.362"/>
</g>
<!-- Node25 -->
<g id="node25" class="node"><title>Node25</title>
<g id="a_node25"><a xlink:href="../../df/dd2/classserver_1_1ui_server.html#af8300a694de27369a5f5d1a95ed1cc37" target="_top" xlink:title="Triggered when a client connects.">
<polygon fill="white" stroke="black" points="717,-162.233 717,-192.233 835,-192.233 835,-162.233 717,-162.233"/>
<text text-anchor="start" x="725" y="-180.233" font-family="Helvetica,sans-Serif" font-size="10.00">server::uiServer::accept</text>
<text text-anchor="middle" x="776" y="-169.233" font-family="Helvetica,sans-Serif" font-size="10.00">Connection</text>
</a>
</g>
</g>
<!-- Node24&#45;&gt;Node25 -->
<g id="edge39" class="edge"><title>Node24&#45;&gt;Node25</title>
<path fill="none" stroke="midnightblue" d="M649.05,-201.777C671.216,-197.457 695.531,-192.719 716.836,-188.567"/>
<polygon fill="midnightblue" stroke="midnightblue" points="648.181,-198.38 639.036,-203.728 649.52,-205.251 648.181,-198.38"/>
</g>
<!-- Node26 -->
<g id="node26" class="node"><title>Node26</title>
<g id="a_node26"><a xlink:href="../../df/dd2/classserver_1_1ui_server.html#a55e34b95359692ea9002408075e18b1a" target="_top" xlink:title="uiServer constructor">
<polygon fill="white" stroke="black" points="913.5,-167.733 913.5,-186.733 1036.5,-186.733 1036.5,-167.733 913.5,-167.733"/>
<text text-anchor="middle" x="975" y="-174.733" font-family="Helvetica,sans-Serif" font-size="10.00">server::uiServer::uiServer</text>
</a>
</g>
</g>
<!-- Node25&#45;&gt;Node26 -->
<g id="edge40" class="edge"><title>Node25&#45;&gt;Node26</title>
<path fill="none" stroke="midnightblue" d="M845.052,-177.233C867.23,-177.233 891.692,-177.233 913.294,-177.233"/>
<polygon fill="midnightblue" stroke="midnightblue" points="845.041,-173.733 835.041,-177.233 845.041,-180.733 845.041,-173.733"/>
</g>
</g>
</svg>
        <g id="navigator" transform="translate(0 0)" fill="#404254">
                <rect fill="#f2f5e9" fill-opacity="0.5" stroke="#606060" stroke-width=".5" x="0" y="0" width="60" height="60"/>
                <use id="zoomplus" xlink:href="#zoomPlus" x="17" y="9" onmousedown="handleZoom(evt,'in')"/>
                <use id="zoomminus" xlink:href="#zoomMin" x="42" y="9" onmousedown="handleZoom(evt,'out')"/>
                <use id="reset" xlink:href="#resetDef" x="30" y="36" onmousedown="handleReset()"/>
                <g id="arrowUp" xlink:href="#dirArrow" transform="translate(30 24)" onmousedown="handlePan(0,-1)">
                  <use xlink:href="#rim" fill="#404040">
                        <set attributeName="fill" to="#808080" begin="arrowUp.mouseover" end="arrowUp.mouseout"/>
                  </use>
                  <path fill="none" stroke="white" stroke-width="1.5" d="M0,-3.0v7 M-2.5,-0.5L0,-3.0L2.5,-0.5"/>
                </g>
                <g id="arrowRight" xlink:href="#dirArrow" transform="rotate(90) translate(36 -43)" onmousedown="handlePan(1,0)">
                  <use xlink:href="#rim" fill="#404040">
                        <set attributeName="fill" to="#808080" begin="arrowRight.mouseover" end="arrowRight.mouseout"/>
                  </use>
                  <path fill="none" stroke="white" stroke-width="1.5" d="M0,-3.0v7 M-2.5,-0.5L0,-3.0L2.5,-0.5"/>
                </g>
                <g id="arrowDown" xlink:href="#dirArrow" transform="rotate(180) translate(-30 -48)" onmousedown="handlePan(0,1)">
                  <use xlink:href="#rim" fill="#404040">
                        <set attributeName="fill" to="#808080" begin="arrowDown.mouseover" end="arrowDown.mouseout"/>
                  </use>
                  <path fill="none" stroke="white" stroke-width="1.5" d="M0,-3.0v7 M-2.5,-0.5L0,-3.0L2.5,-0.5"/>
                </g>
                <g id="arrowLeft" xlink:href="#dirArrow" transform="rotate(270) translate(-36 17)" onmousedown="handlePan(-1,0)">
                  <use xlink:href="#rim" fill="#404040">
                        <set attributeName="fill" to="#808080" begin="arrowLeft.mouseover" end="arrowLeft.mouseout"/>
                  </use>
                  <path fill="none" stroke="white" stroke-width="1.5" d="M0,-3.0v7 M-2.5,-0.5L0,-3.0L2.5,-0.5"/>
                </g>
        </g>
        <svg viewBox="0 0 15 15" width="100%" height="30px" preserveAspectRatio="xMaxYMin meet">
         <g id="arrow_out" transform="scale(0.3 0.3)">
          <a xlink:href="class_k4_u_1_1json_command_ab408a8b051e005a7156e19ea8a1f7f3a_icgraph_org.svg" target="_base">
           <rect id="button" ry="5" rx="5" y="6" x="6" height="38" width="38"
                fill="#f2f5e9" fill-opacity="0.5" stroke="#606060" stroke-width="1.0"/>
           <path id="arrow"
             d="M 11.500037,31.436501 C 11.940474,20.09759 22.043105,11.32322 32.158766,21.979434 L 37.068811,17.246167 C 37.068811,17.246167 37.088388,32 37.088388,32 L 22.160133,31.978069 C 22.160133,31.978069 26.997745,27.140456 26.997745,27.140456 C 18.528582,18.264221 13.291696,25.230495 11.500037,31.436501 z"
             style="fill:#404040;"/>
          </a>
         </g>
        </svg>
</svg>
