<?xml version="1.0" encoding="UTF-8" standalone="no"?>
<!DOCTYPE svg PUBLIC "-//W3C//DTD SVG 1.1//EN"
 "http://www.w3.org/Graphics/SVG/1.1/DTD/svg11.dtd">
<!-- Generated by graphviz version 2.30.1 (20130303.0817)
 -->
<!-- Title: K4U::jsonCommand::getData Pages: 1 -->
<!--zoomable 312 -->
<svg id="main" version="1.1" xmlns="http://www.w3.org/2000/svg" xmlns:xlink="http://www.w3.org/1999/xlink" xml:space="preserve" onload="init(evt)">
        <defs>
                <circle id="rim" cx="0" cy="0" r="7"/>
                <circle id="rim2" cx="0" cy="0" r="3.5"/>
                <g id="zoomPlus">
                        <use xlink:href="#rim" fill="#404040">
                                <set attributeName="fill" to="#808080" begin="zoomplus.mouseover" end="zoomplus.mouseout"/>
                        </use>
                        <path d="M-4,0h8M0,-4v8" fill="none" stroke="white" stroke-width="1.5" pointer-events="none"/>
                </g>
                <g id="zoomMin">
                        <use xlink:href="#rim" fill="#404040">
                                <set attributeName="fill" to="#808080" begin="zoomminus.mouseover" end="zoomminus.mouseout"/>
                        </use>
                        <path d="M-4,0h8" fill="none" stroke="white" stroke-width="1.5" pointer-events="none"/>
                </g>
                <g id="dirArrow">
                        <path fill="none" stroke="white" stroke-width="1.5" d="M0,-3.0v7 M-2.5,-0.5L0,-3.0L2.5,-0.5"/>
                </g>
               <g id="resetDef">
                       <use xlink:href="#rim2" fill="#404040">
                               <set attributeName="fill" to="#808080" begin="reset.mouseover" end="reset.mouseout"/>
                       </use>
               </g>
        </defs>

<script type="text/javascript">
var viewWidth = 628;
var viewHeight = 312;
var sectionId = 'dynsection-5';
</script>
<script xlink:href="../../svgpan.js"/>
<svg id="graph" class="graph">
<g id="viewport">
<title>K4U::jsonCommand::getData</title>
<polygon fill="white" stroke="white" points="-4,5 -4,-308 625,-308 625,5 -4,5"/>
<!-- Node1 -->
<g id="node1" class="node"><title>Node1</title>
<polygon fill="#bfbfbf" stroke="black" points="0.5,-137.5 0.5,-156.5 143.5,-156.5 143.5,-137.5 0.5,-137.5"/>
<text text-anchor="middle" x="72" y="-144.5" font-family="Helvetica,sans-Serif" font-size="10.00">K4U::jsonCommand::getData</text>
</g>
<!-- Node2 -->
<g id="node2" class="node"><title>Node2</title>
<g id="a_node2"><a xlink:href="../../d3/d65/classclient_1_1cls_server_conn.html#a034a72332abdeeb8dbd9483954a235dd" target="_top" xlink:title="The server has given us all the users. Handle it.">
<polygon fill="white" stroke="black" points="180,-274 180,-304 304,-304 304,-274 180,-274"/>
<text text-anchor="start" x="188" y="-292" font-family="Helvetica,sans-Serif" font-size="10.00">client::clsServerConn</text>
<text text-anchor="middle" x="242" y="-281" font-family="Helvetica,sans-Serif" font-size="10.00">::handleCompletedQuery</text>
</a>
</g>
</g>
<!-- Node1&#45;&gt;Node2 -->
<g id="edge1" class="edge"><title>Node1&#45;&gt;Node2</title>
<path fill="none" stroke="midnightblue" d="M85.5197,-165.102C103.738,-190.28 139.798,-235.933 180,-264 185.349,-267.734 191.34,-271.045 197.422,-273.936"/>
<polygon fill="midnightblue" stroke="midnightblue" points="88.284,-162.949 79.6403,-156.822 82.5767,-167.002 88.284,-162.949"/>
</g>
<!-- Node5 -->
<g id="node5" class="node"><title>Node5</title>
<g id="a_node5"><a xlink:href="../../d3/d65/classclient_1_1cls_server_conn.html#a2f4257ed2b9677919567a060fb31887b" target="_top" xlink:title="Another client has changed our own user status.">
<polygon fill="white" stroke="black" points="180,-225 180,-255 304,-255 304,-225 180,-225"/>
<text text-anchor="start" x="188" y="-243" font-family="Helvetica,sans-Serif" font-size="10.00">client::clsServerConn</text>
<text text-anchor="middle" x="242" y="-232" font-family="Helvetica,sans-Serif" font-size="10.00">::handleOwnUserChange</text>
</a>
</g>
</g>
<!-- Node1&#45;&gt;Node5 -->
<g id="edge4" class="edge"><title>Node1&#45;&gt;Node5</title>
<path fill="none" stroke="midnightblue" d="M94.6583,-162.378C115.807,-177.001 149.212,-199.068 180,-215 186.709,-218.472 194.013,-221.815 201.159,-224.865"/>
<polygon fill="midnightblue" stroke="midnightblue" points="96.5921,-159.46 86.3885,-156.607 92.5859,-165.2 96.5921,-159.46"/>
</g>
<!-- Node6 -->
<g id="node6" class="node"><title>Node6</title>
<g id="a_node6"><a xlink:href="../../d3/d65/classclient_1_1cls_server_conn.html#a25abb840bb0764068d9a72dfb1e403b5" target="_top" xlink:title="Event request has been done by us, and data has been returned.">
<polygon fill="white" stroke="black" points="186.5,-176 186.5,-206 297.5,-206 297.5,-176 186.5,-176"/>
<text text-anchor="start" x="194.5" y="-194" font-family="Helvetica,sans-Serif" font-size="10.00">client::clsServerConn</text>
<text text-anchor="middle" x="242" y="-183" font-family="Helvetica,sans-Serif" font-size="10.00">::handleEventRequest</text>
</a>
</g>
</g>
<!-- Node1&#45;&gt;Node6 -->
<g id="edge6" class="edge"><title>Node1&#45;&gt;Node6</title>
<path fill="none" stroke="midnightblue" d="M119.312,-159.129C140.089,-164.571 164.748,-171.029 186.417,-176.704"/>
<polygon fill="midnightblue" stroke="midnightblue" points="120.014,-155.695 109.453,-156.547 118.24,-162.467 120.014,-155.695"/>
</g>
<!-- Node3 -->
<g id="node3" class="node"><title>Node3</title>
<g id="a_node3"><a xlink:href="../../d3/d65/classclient_1_1cls_server_conn.html#a0f7c8da07639a563b9d88780eb22748e" target="_top" xlink:title="client::clsServerConn\l::readData">
<polygon fill="white" stroke="black" points="346,-200 346,-230 454,-230 454,-200 346,-200"/>
<text text-anchor="start" x="354" y="-218" font-family="Helvetica,sans-Serif" font-size="10.00">client::clsServerConn</text>
<text text-anchor="middle" x="400" y="-207" font-family="Helvetica,sans-Serif" font-size="10.00">::readData</text>
</a>
</g>
</g>
<!-- Node1&#45;&gt;Node3 -->
<g id="edge8" class="edge"><title>Node1&#45;&gt;Node3</title>
<path fill="none" stroke="midnightblue" d="M153.744,-146.509C198.727,-148.083 255.315,-153.153 304,-167 329.772,-174.33 356.827,-188.756 375.443,-199.887"/>
<polygon fill="midnightblue" stroke="midnightblue" points="153.846,-143.011 143.746,-146.21 153.636,-150.008 153.846,-143.011"/>
</g>
<!-- Node7 -->
<g id="node7" class="node"><title>Node7</title>
<g id="a_node7"><a xlink:href="../../dc/d4d/classserver_1_1ui_client.html#afdda23f96c586fdcb47f1abad7be99f5" target="_top" xlink:title="server::uiClient::receive\lMessage">
<polygon fill="white" stroke="black" points="184,-88 184,-118 300,-118 300,-88 184,-88"/>
<text text-anchor="start" x="192" y="-106" font-family="Helvetica,sans-Serif" font-size="10.00">server::uiClient::receive</text>
<text text-anchor="middle" x="242" y="-95" font-family="Helvetica,sans-Serif" font-size="10.00">Message</text>
</a>
</g>
</g>
<!-- Node1&#45;&gt;Node7 -->
<g id="edge9" class="edge"><title>Node1&#45;&gt;Node7</title>
<path fill="none" stroke="midnightblue" d="M119.235,-134.891C139.199,-129.662 162.757,-123.492 183.806,-117.979"/>
<polygon fill="midnightblue" stroke="midnightblue" points="118.24,-131.533 109.453,-137.453 120.014,-138.305 118.24,-131.533"/>
</g>
<!-- Node9 -->
<g id="node9" class="node"><title>Node9</title>
<g id="a_node9"><a xlink:href="../../df/dd2/classserver_1_1ui_server.html#a1d221672f6efb29189e6ce398f7b07e3" target="_top" xlink:title="Triggered when a client wants to change something about our own user.">
<polygon fill="white" stroke="black" points="182,-39 182,-69 302,-69 302,-39 182,-39"/>
<text text-anchor="start" x="190" y="-57" font-family="Helvetica,sans-Serif" font-size="10.00">server::uiServer::change</text>
<text text-anchor="middle" x="242" y="-46" font-family="Helvetica,sans-Serif" font-size="10.00">OwnUser</text>
</a>
</g>
</g>
<!-- Node1&#45;&gt;Node9 -->
<g id="edge11" class="edge"><title>Node1&#45;&gt;Node9</title>
<path fill="none" stroke="midnightblue" d="M94.6583,-131.622C115.807,-116.999 149.212,-94.9325 180,-79 186.709,-75.5283 194.013,-72.185 201.159,-69.1347"/>
<polygon fill="midnightblue" stroke="midnightblue" points="92.5859,-128.8 86.3885,-137.393 96.5921,-134.54 92.5859,-128.8"/>
</g>
<!-- Node12 -->
<g id="node12" class="node"><title>Node12</title>
<g id="a_node12"><a xlink:href="../../d6/d75/namespace_k4_u.html#ac6dc12e99e9f8aac74f9b654ddbb199a" target="_top" xlink:title="K4U::operator\&lt;\&lt;">
<polygon fill="white" stroke="black" points="197.5,-0.5 197.5,-19.5 286.5,-19.5 286.5,-0.5 197.5,-0.5"/>
<text text-anchor="middle" x="242" y="-7.5" font-family="Helvetica,sans-Serif" font-size="10.00">K4U::operator&lt;&lt;</text>
</a>
</g>
</g>
<!-- Node1&#45;&gt;Node12 -->
<g id="edge14" class="edge"><title>Node1&#45;&gt;Node12</title>
<path fill="none" stroke="midnightblue" d="M84.979,-128.874C102.782,-103.29 138.606,-56.7324 180,-30 186.647,-25.7072 194.299,-22.2572 201.888,-19.5126"/>
<polygon fill="midnightblue" stroke="midnightblue" points="81.9938,-127.04 79.2586,-137.275 87.7798,-130.98 81.9938,-127.04"/>
</g>
<!-- Node2&#45;&gt;Node3 -->
<g id="edge2" class="edge"><title>Node2&#45;&gt;Node3</title>
<path fill="none" stroke="midnightblue" d="M290.608,-269.961C295.157,-268 299.681,-265.994 304,-264 327.082,-253.342 352.667,-240.058 371.464,-230.011"/>
<polygon fill="midnightblue" stroke="midnightblue" points="289.137,-266.783 281.293,-273.904 291.866,-273.229 289.137,-266.783"/>
</g>
<!-- Node4 -->
<g id="node4" class="node"><title>Node4</title>
<g id="a_node4"><a xlink:href="../../d3/d65/classclient_1_1cls_server_conn.html#ad9d8caf021df2cd15ce27bcf207d86d0" target="_top" xlink:title="Constructor taking a hostname and port.">
<polygon fill="white" stroke="black" points="504,-200 504,-230 612,-230 612,-200 504,-200"/>
<text text-anchor="start" x="512" y="-218" font-family="Helvetica,sans-Serif" font-size="10.00">client::clsServerConn</text>
<text text-anchor="middle" x="558" y="-207" font-family="Helvetica,sans-Serif" font-size="10.00">::clsServerConn</text>
</a>
</g>
</g>
<!-- Node3&#45;&gt;Node4 -->
<g id="edge3" class="edge"><title>Node3&#45;&gt;Node4</title>
<path fill="none" stroke="midnightblue" d="M464.595,-215C477.68,-215 491.327,-215 503.99,-215"/>
<polygon fill="midnightblue" stroke="midnightblue" points="464.25,-211.5 454.25,-215 464.25,-218.5 464.25,-211.5"/>
</g>
<!-- Node5&#45;&gt;Node3 -->
<g id="edge5" class="edge"><title>Node5&#45;&gt;Node3</title>
<path fill="none" stroke="midnightblue" d="M314.232,-228.585C324.767,-226.896 335.469,-225.181 345.559,-223.564"/>
<polygon fill="midnightblue" stroke="midnightblue" points="313.528,-225.153 304.208,-230.191 314.635,-232.065 313.528,-225.153"/>
</g>
<!-- Node6&#45;&gt;Node3 -->
<g id="edge7" class="edge"><title>Node6&#45;&gt;Node3</title>
<path fill="none" stroke="midnightblue" d="M307.616,-200.941C320.318,-202.895 333.508,-204.924 345.784,-206.813"/>
<polygon fill="midnightblue" stroke="midnightblue" points="307.977,-197.455 297.561,-199.394 306.913,-204.374 307.977,-197.455"/>
</g>
<!-- Node8 -->
<g id="node8" class="node"><title>Node8</title>
<g id="a_node8"><a xlink:href="../../dc/d4d/classserver_1_1ui_client.html#a215d811cbfada73ff8344ed7e5664113" target="_top" xlink:title="uiClient constructor">
<polygon fill="white" stroke="black" points="340.5,-93.5 340.5,-112.5 459.5,-112.5 459.5,-93.5 340.5,-93.5"/>
<text text-anchor="middle" x="400" y="-100.5" font-family="Helvetica,sans-Serif" font-size="10.00">server::uiClient::uiClient</text>
</a>
</g>
</g>
<!-- Node7&#45;&gt;Node8 -->
<g id="edge10" class="edge"><title>Node7&#45;&gt;Node8</title>
<path fill="none" stroke="midnightblue" d="M310.5,-103C320.489,-103 330.711,-103 340.497,-103"/>
<polygon fill="midnightblue" stroke="midnightblue" points="310.203,-99.5001 300.203,-103 310.203,-106.5 310.203,-99.5001"/>
</g>
<!-- Node10 -->
<g id="node10" class="node"><title>Node10</title>
<g id="a_node10"><a xlink:href="../../df/dd2/classserver_1_1ui_server.html#af8300a694de27369a5f5d1a95ed1cc37" target="_top" xlink:title="Triggered when a client connects.">
<polygon fill="white" stroke="black" points="341,-39 341,-69 459,-69 459,-39 341,-39"/>
<text text-anchor="start" x="349" y="-57" font-family="Helvetica,sans-Serif" font-size="10.00">server::uiServer::accept</text>
<text text-anchor="middle" x="400" y="-46" font-family="Helvetica,sans-Serif" font-size="10.00">Connection</text>
</a>
</g>
</g>
<!-- Node9&#45;&gt;Node10 -->
<g id="edge12" class="edge"><title>Node9&#45;&gt;Node10</title>
<path fill="none" stroke="midnightblue" d="M312.558,-54C321.983,-54 331.575,-54 340.774,-54"/>
<polygon fill="midnightblue" stroke="midnightblue" points="312.422,-50.5001 302.422,-54 312.422,-57.5001 312.422,-50.5001"/>
</g>
<!-- Node11 -->
<g id="node11" class="node"><title>Node11</title>
<g id="a_node11"><a xlink:href="../../df/dd2/classserver_1_1ui_server.html#a55e34b95359692ea9002408075e18b1a" target="_top" xlink:title="uiServer constructor">
<polygon fill="white" stroke="black" points="496.5,-44.5 496.5,-63.5 619.5,-63.5 619.5,-44.5 496.5,-44.5"/>
<text text-anchor="middle" x="558" y="-51.5" font-family="Helvetica,sans-Serif" font-size="10.00">server::uiServer::uiServer</text>
</a>
</g>
</g>
<!-- Node10&#45;&gt;Node11 -->
<g id="edge13" class="edge"><title>Node10&#45;&gt;Node11</title>
<path fill="none" stroke="midnightblue" d="M469.165,-54C478.181,-54 487.374,-54 496.254,-54"/>
<polygon fill="midnightblue" stroke="midnightblue" points="469.089,-50.5001 459.089,-54 469.089,-57.5001 469.089,-50.5001"/>
</g>
</g>
</svg>
        <g id="navigator" transform="translate(0 0)" fill="#404254">
                <rect fill="#f2f5e9" fill-opacity="0.5" stroke="#606060" stroke-width=".5" x="0" y="0" width="60" height="60"/>
                <use id="zoomplus" xlink:href="#zoomPlus" x="17" y="9" onmousedown="handleZoom(evt,'in')"/>
                <use id="zoomminus" xlink:href="#zoomMin" x="42" y="9" onmousedown="handleZoom(evt,'out')"/>
                <use id="reset" xlink:href="#resetDef" x="30" y="36" onmousedown="handleReset()"/>
                <g id="arrowUp" xlink:href="#dirArrow" transform="translate(30 24)" onmousedown="handlePan(0,-1)">
                  <use xlink:href="#rim" fill="#404040">
                        <set attributeName="fill" to="#808080" begin="arrowUp.mouseover" end="arrowUp.mouseout"/>
                  </use>
                  <path fill="none" stroke="white" stroke-width="1.5" d="M0,-3.0v7 M-2.5,-0.5L0,-3.0L2.5,-0.5"/>
                </g>
                <g id="arrowRight" xlink:href="#dirArrow" transform="rotate(90) translate(36 -43)" onmousedown="handlePan(1,0)">
                  <use xlink:href="#rim" fill="#404040">
                        <set attributeName="fill" to="#808080" begin="arrowRight.mouseover" end="arrowRight.mouseout"/>
                  </use>
                  <path fill="none" stroke="white" stroke-width="1.5" d="M0,-3.0v7 M-2.5,-0.5L0,-3.0L2.5,-0.5"/>
                </g>
                <g id="arrowDown" xlink:href="#dirArrow" transform="rotate(180) translate(-30 -48)" onmousedown="handlePan(0,1)">
                  <use xlink:href="#rim" fill="#404040">
                        <set attributeName="fill" to="#808080" begin="arrowDown.mouseover" end="arrowDown.mouseout"/>
                  </use>
                  <path fill="none" stroke="white" stroke-width="1.5" d="M0,-3.0v7 M-2.5,-0.5L0,-3.0L2.5,-0.5"/>
                </g>
                <g id="arrowLeft" xlink:href="#dirArrow" transform="rotate(270) translate(-36 17)" onmousedown="handlePan(-1,0)">
                  <use xlink:href="#rim" fill="#404040">
                        <set attributeName="fill" to="#808080" begin="arrowLeft.mouseover" end="arrowLeft.mouseout"/>
                  </use>
                  <path fill="none" stroke="white" stroke-width="1.5" d="M0,-3.0v7 M-2.5,-0.5L0,-3.0L2.5,-0.5"/>
                </g>
        </g>
        <svg viewBox="0 0 15 15" width="100%" height="30px" preserveAspectRatio="xMaxYMin meet">
         <g id="arrow_out" transform="scale(0.3 0.3)">
          <a xlink:href="class_k4_u_1_1json_command_ae829f45e11a50fa00024a5d9951cd748_icgraph_org.svg" target="_base">
           <rect id="button" ry="5" rx="5" y="6" x="6" height="38" width="38"
                fill="#f2f5e9" fill-opacity="0.5" stroke="#606060" stroke-width="1.0"/>
           <path id="arrow"
             d="M 11.500037,31.436501 C 11.940474,20.09759 22.043105,11.32322 32.158766,21.979434 L 37.068811,17.246167 C 37.068811,17.246167 37.088388,32 37.088388,32 L 22.160133,31.978069 C 22.160133,31.978069 26.997745,27.140456 26.997745,27.140456 C 18.528582,18.264221 13.291696,25.230495 11.500037,31.436501 z"
             style="fill:#404040;"/>
          </a>
         </g>
        </svg>
</svg>
