<?xml version="1.0" encoding="UTF-8" standalone="no"?>
<!DOCTYPE svg PUBLIC "-//W3C//DTD SVG 1.1//EN"
 "http://www.w3.org/Graphics/SVG/1.1/DTD/svg11.dtd">
<!-- Generated by graphviz version 2.30.1 (20130303.0817)
 -->
<!-- Title: K4U::jsonCommand::getCommandString Pages: 1 -->
<svg width="1304pt" height="701pt"
 viewBox="0.00 0.00 1304.00 701.23" xmlns="http://www.w3.org/2000/svg" xmlns:xlink="http://www.w3.org/1999/xlink">
<g id="graph0" class="graph" transform="scale(1 1) rotate(0) translate(4 697.233)">
<title>K4U::jsonCommand::getCommandString</title>
<polygon fill="white" stroke="white" points="-4,5 -4,-697.233 1301,-697.233 1301,5 -4,5"/>
<!-- Node1 -->
<g id="node1" class="node"><title>Node1</title>
<polygon fill="#bfbfbf" stroke="black" points="0.5,-351.233 0.5,-381.233 167.5,-381.233 167.5,-351.233 0.5,-351.233"/>
<text text-anchor="start" x="8.5" y="-369.233" font-family="Helvetica,sans-Serif" font-size="10.00">K4U::jsonCommand::getCommand</text>
<text text-anchor="middle" x="84" y="-358.233" font-family="Helvetica,sans-Serif" font-size="10.00">String</text>
</g>
<!-- Node2 -->
<g id="node2" class="node"><title>Node2</title>
<g id="a_node2"><a xlink:href="../../d2/dc1/class_k4_u_1_1json_command.html#a0b681a1fedfb2e89397b1f71e29edf78" target="_top" xlink:title="Transforms this object to a nice JSON string.">
<polygon fill="white" stroke="black" points="204,-373.233 204,-403.233 342,-403.233 342,-373.233 204,-373.233"/>
<text text-anchor="start" x="212" y="-391.233" font-family="Helvetica,sans-Serif" font-size="10.00">K4U::jsonCommand::toJson</text>
<text text-anchor="middle" x="273" y="-380.233" font-family="Helvetica,sans-Serif" font-size="10.00">String</text>
</a>
</g>
</g>
<!-- Node1&#45;&gt;Node2 -->
<g id="edge1" class="edge"><title>Node1&#45;&gt;Node2</title>
<path fill="none" stroke="midnightblue" d="M177.556,-377.122C186.425,-378.165 195.305,-379.21 203.877,-380.218"/>
<polygon fill="midnightblue" stroke="midnightblue" points="177.906,-373.639 167.565,-375.946 177.088,-380.591 177.906,-373.639"/>
</g>
<!-- Node27 -->
<g id="node27" class="node"><title>Node27</title>
<g id="a_node27"><a xlink:href="../../d6/d75/namespace_k4_u.html#ac6dc12e99e9f8aac74f9b654ddbb199a" target="_top" xlink:title="K4U::operator\&lt;\&lt;">
<polygon fill="white" stroke="black" points="228.5,-334.733 228.5,-353.733 317.5,-353.733 317.5,-334.733 228.5,-334.733"/>
<text text-anchor="middle" x="273" y="-341.733" font-family="Helvetica,sans-Serif" font-size="10.00">K4U::operator&lt;&lt;</text>
</a>
</g>
</g>
<!-- Node1&#45;&gt;Node27 -->
<g id="edge41" class="edge"><title>Node1&#45;&gt;Node27</title>
<path fill="none" stroke="midnightblue" d="M177.912,-355.302C195.522,-353.23 213.16,-351.155 228.326,-349.371"/>
<polygon fill="midnightblue" stroke="midnightblue" points="177.088,-351.874 167.565,-356.519 177.906,-358.827 177.088,-351.874"/>
</g>
<!-- Node3 -->
<g id="node3" class="node"><title>Node3</title>
<g id="a_node3"><a xlink:href="../../d3/d65/classclient_1_1cls_server_conn.html#a997f9cd3d63321807f60472308acc459" target="_top" xlink:title="Send a JSON command to the server.">
<polygon fill="white" stroke="black" points="379,-565.233 379,-595.233 487,-595.233 487,-565.233 379,-565.233"/>
<text text-anchor="start" x="387" y="-583.233" font-family="Helvetica,sans-Serif" font-size="10.00">client::clsServerConn</text>
<text text-anchor="middle" x="433" y="-572.233" font-family="Helvetica,sans-Serif" font-size="10.00">::sendCommand</text>
</a>
</g>
</g>
<!-- Node2&#45;&gt;Node3 -->
<g id="edge2" class="edge"><title>Node2&#45;&gt;Node3</title>
<path fill="none" stroke="midnightblue" d="M292.83,-411.115C325.488,-450.8 391.784,-531.362 419.441,-564.971"/>
<polygon fill="midnightblue" stroke="midnightblue" points="295.455,-408.796 286.398,-403.298 290.05,-413.244 295.455,-408.796"/>
</g>
<!-- Node9 -->
<g id="node9" class="node"><title>Node9</title>
<g id="a_node9"><a xlink:href="../../df/dd2/classserver_1_1ui_server.html#ab9e9ed944311c42f019c645c3e0539cf" target="_top" xlink:title="Sends a jsonCommand to all the clients.">
<polygon fill="white" stroke="black" points="378,-236.733 378,-255.733 488,-255.733 488,-236.733 378,-236.733"/>
<text text-anchor="middle" x="433" y="-243.733" font-family="Helvetica,sans-Serif" font-size="10.00">server::uiServer::send</text>
</a>
</g>
</g>
<!-- Node2&#45;&gt;Node9 -->
<g id="edge11" class="edge"><title>Node2&#45;&gt;Node9</title>
<path fill="none" stroke="midnightblue" d="M334.091,-368.392C336.842,-366.79 339.496,-365.072 342,-363.233 383.509,-332.732 415.318,-278 427.07,-255.89"/>
<polygon fill="midnightblue" stroke="midnightblue" points="332.278,-365.39 325.034,-373.121 335.519,-371.595 332.278,-365.39"/>
</g>
<!-- Node4 -->
<g id="node4" class="node"><title>Node4</title>
<g id="a_node4"><a xlink:href="../../d2/da4/classclient_1_1_main_window.html#aa32adfb179341040f2decbd0da19f1d9" target="_top" xlink:title="client::MainWindow\l::sendChat">
<polygon fill="white" stroke="black" points="552.5,-565.233 552.5,-595.233 653.5,-595.233 653.5,-565.233 552.5,-565.233"/>
<text text-anchor="start" x="560.5" y="-583.233" font-family="Helvetica,sans-Serif" font-size="10.00">client::MainWindow</text>
<text text-anchor="middle" x="603" y="-572.233" font-family="Helvetica,sans-Serif" font-size="10.00">::sendChat</text>
</a>
</g>
</g>
<!-- Node3&#45;&gt;Node4 -->
<g id="edge3" class="edge"><title>Node3&#45;&gt;Node4</title>
<path fill="none" stroke="midnightblue" d="M497.38,-580.233C515.558,-580.233 535.109,-580.233 552.333,-580.233"/>
<polygon fill="midnightblue" stroke="midnightblue" points="497.156,-576.733 487.156,-580.233 497.156,-583.733 497.156,-576.733"/>
</g>
<!-- Node6 -->
<g id="node6" class="node"><title>Node6</title>
<g id="a_node6"><a xlink:href="../../d2/da4/classclient_1_1_main_window.html#a75d241698eb127c089ed4703fbeb4999" target="_top" xlink:title="client::MainWindow\l::commandGiven">
<polygon fill="white" stroke="black" points="552.5,-516.233 552.5,-546.233 653.5,-546.233 653.5,-516.233 552.5,-516.233"/>
<text text-anchor="start" x="560.5" y="-534.233" font-family="Helvetica,sans-Serif" font-size="10.00">client::MainWindow</text>
<text text-anchor="middle" x="603" y="-523.233" font-family="Helvetica,sans-Serif" font-size="10.00">::commandGiven</text>
</a>
</g>
</g>
<!-- Node3&#45;&gt;Node6 -->
<g id="edge5" class="edge"><title>Node3&#45;&gt;Node6</title>
<path fill="none" stroke="midnightblue" d="M495.413,-562.32C514.166,-556.851 534.542,-550.908 552.407,-545.697"/>
<polygon fill="midnightblue" stroke="midnightblue" points="494.396,-558.971 485.776,-565.131 496.356,-565.691 494.396,-558.971"/>
</g>
<!-- Node7 -->
<g id="node7" class="node"><title>Node7</title>
<g id="a_node7"><a xlink:href="../../d2/da4/classclient_1_1_main_window.html#aae9222490d9f0d71ffa6585c35416bfb" target="_top" xlink:title="client::MainWindow\l::serverConnected">
<polygon fill="white" stroke="black" points="552.5,-663.233 552.5,-693.233 653.5,-693.233 653.5,-663.233 552.5,-663.233"/>
<text text-anchor="start" x="560.5" y="-681.233" font-family="Helvetica,sans-Serif" font-size="10.00">client::MainWindow</text>
<text text-anchor="middle" x="603" y="-670.233" font-family="Helvetica,sans-Serif" font-size="10.00">::serverConnected</text>
</a>
</g>
</g>
<!-- Node3&#45;&gt;Node7 -->
<g id="edge7" class="edge"><title>Node3&#45;&gt;Node7</title>
<path fill="none" stroke="midnightblue" d="M456.304,-602.316C473.548,-618.346 498.68,-639.537 524,-653.233 532.755,-657.968 542.555,-661.983 552.172,-665.318"/>
<polygon fill="midnightblue" stroke="midnightblue" points="458.629,-599.699 448.963,-595.36 453.814,-604.779 458.629,-599.699"/>
</g>
<!-- Node8 -->
<g id="node8" class="node"><title>Node8</title>
<g id="a_node8"><a xlink:href="../../d2/da4/classclient_1_1_main_window.html#a13044cd00c53dbbbc6b945c0dfd9b4b4" target="_top" xlink:title="Triggered when the user query came back.">
<polygon fill="white" stroke="black" points="546,-614.233 546,-644.233 660,-644.233 660,-614.233 546,-614.233"/>
<text text-anchor="start" x="554" y="-632.233" font-family="Helvetica,sans-Serif" font-size="10.00">client::MainWindow</text>
<text text-anchor="middle" x="603" y="-621.233" font-family="Helvetica,sans-Serif" font-size="10.00">::userQueryCompleted</text>
</a>
</g>
</g>
<!-- Node3&#45;&gt;Node8 -->
<g id="edge9" class="edge"><title>Node3&#45;&gt;Node8</title>
<path fill="none" stroke="midnightblue" d="M495.601,-598.2C513.601,-603.45 533.082,-609.131 550.395,-614.181"/>
<polygon fill="midnightblue" stroke="midnightblue" points="496.356,-594.774 485.776,-595.334 494.396,-601.494 496.356,-594.774"/>
</g>
<!-- Node5 -->
<g id="node5" class="node"><title>Node5</title>
<g id="a_node5"><a xlink:href="../../d2/da4/classclient_1_1_main_window.html#ab4aedce719340218169c114b31b54f70" target="_top" xlink:title="client::MainWindow\l::MainWindow">
<polygon fill="white" stroke="black" points="749.5,-590.233 749.5,-620.233 850.5,-620.233 850.5,-590.233 749.5,-590.233"/>
<text text-anchor="start" x="757.5" y="-608.233" font-family="Helvetica,sans-Serif" font-size="10.00">client::MainWindow</text>
<text text-anchor="middle" x="800" y="-597.233" font-family="Helvetica,sans-Serif" font-size="10.00">::MainWindow</text>
</a>
</g>
</g>
<!-- Node4&#45;&gt;Node5 -->
<g id="edge4" class="edge"><title>Node4&#45;&gt;Node5</title>
<path fill="none" stroke="midnightblue" d="M663.955,-587.919C691.335,-591.429 723.379,-595.538 749.379,-598.871"/>
<polygon fill="midnightblue" stroke="midnightblue" points="664.075,-584.406 653.711,-586.606 663.185,-591.349 664.075,-584.406"/>
</g>
<!-- Node6&#45;&gt;Node5 -->
<g id="edge6" class="edge"><title>Node6&#45;&gt;Node5</title>
<path fill="none" stroke="midnightblue" d="M662.809,-549.48C669.312,-551.676 675.815,-553.951 682,-556.233 710.409,-566.712 742.053,-580.07 765.262,-590.191"/>
<polygon fill="midnightblue" stroke="midnightblue" points="663.913,-546.158 653.319,-546.327 661.706,-552.801 663.913,-546.158"/>
</g>
<!-- Node7&#45;&gt;Node5 -->
<g id="edge8" class="edge"><title>Node7&#45;&gt;Node5</title>
<path fill="none" stroke="midnightblue" d="M662.51,-660.035C669.11,-657.818 675.717,-655.524 682,-653.233 710.052,-643.001 741.319,-630.094 764.468,-620.241"/>
<polygon fill="midnightblue" stroke="midnightblue" points="661.278,-656.756 652.884,-663.22 663.477,-663.401 661.278,-656.756"/>
</g>
<!-- Node8&#45;&gt;Node5 -->
<g id="edge10" class="edge"><title>Node8&#45;&gt;Node5</title>
<path fill="none" stroke="midnightblue" d="M670.242,-621.08C696.092,-617.898 725.221,-614.313 749.227,-611.359"/>
<polygon fill="midnightblue" stroke="midnightblue" points="669.638,-617.628 660.14,-622.323 670.493,-624.575 669.638,-617.628"/>
</g>
<!-- Node10 -->
<g id="node10" class="node"><title>Node10</title>
<g id="a_node10"><a xlink:href="../../d1/d48/classserver_1_1main_app.html#a0970ee01d48b04ebc1390ffb8edecfc0" target="_top" xlink:title="Triggered when a chat has been received.">
<polygon fill="white" stroke="black" points="924,-126.733 924,-145.733 1074,-145.733 1074,-126.733 924,-126.733"/>
<text text-anchor="middle" x="999" y="-133.733" font-family="Helvetica,sans-Serif" font-size="10.00">server::mainApp::chatReceived</text>
</a>
</g>
</g>
<!-- Node9&#45;&gt;Node10 -->
<g id="edge12" class="edge"><title>Node9&#45;&gt;Node10</title>
<path fill="none" stroke="midnightblue" d="M454.69,-230.629C472.247,-218.138 498.568,-201.126 524,-191.233 657.956,-139.124 828.058,-132.384 923.783,-133.452"/>
<polygon fill="midnightblue" stroke="midnightblue" points="452.388,-227.976 446.359,-236.688 456.505,-233.637 452.388,-227.976"/>
</g>
<!-- Node13 -->
<g id="node13" class="node"><title>Node13</title>
<g id="a_node13"><a xlink:href="../../d1/d48/classserver_1_1main_app.html#a92448c1219ad89999c983b04adaa4236" target="_top" xlink:title="Triggered when a user joins trough a JOIN message.">
<polygon fill="white" stroke="black" points="730.5,-85.7325 730.5,-104.733 869.5,-104.733 869.5,-85.7325 730.5,-85.7325"/>
<text text-anchor="middle" x="800" y="-92.7325" font-family="Helvetica,sans-Serif" font-size="10.00">server::mainApp::userOnline</text>
</a>
</g>
</g>
<!-- Node9&#45;&gt;Node13 -->
<g id="edge15" class="edge"><title>Node9&#45;&gt;Node13</title>
<path fill="none" stroke="midnightblue" d="M441.401,-226.942C453.67,-197.91 481.199,-143.777 524,-119.233 586.985,-83.1142 671.732,-81.34 730.426,-85.9098"/>
<polygon fill="midnightblue" stroke="midnightblue" points="438.08,-225.818 437.571,-236.401 444.568,-228.446 438.08,-225.818"/>
</g>
<!-- Node14 -->
<g id="node14" class="node"><title>Node14</title>
<g id="a_node14"><a xlink:href="../../d1/d48/classserver_1_1main_app.html#aae86b15c001a235de78a90334e697b5f" target="_top" xlink:title="Triggered when a user leaves trough a PART message.">
<polygon fill="white" stroke="black" points="930,-48.7325 930,-67.7325 1068,-67.7325 1068,-48.7325 930,-48.7325"/>
<text text-anchor="middle" x="999" y="-55.7325" font-family="Helvetica,sans-Serif" font-size="10.00">server::mainApp::userOffline</text>
</a>
</g>
</g>
<!-- Node9&#45;&gt;Node14 -->
<g id="edge17" class="edge"><title>Node9&#45;&gt;Node14</title>
<path fill="none" stroke="midnightblue" d="M438.003,-226.512C446.562,-190.076 470.401,-112.865 524,-79.2325 589.674,-38.0227 815.073,-46.0647 929.776,-53.2076"/>
<polygon fill="midnightblue" stroke="midnightblue" points="434.554,-225.898 435.821,-236.417 441.39,-227.404 434.554,-225.898"/>
</g>
<!-- Node15 -->
<g id="node15" class="node"><title>Node15</title>
<g id="a_node15"><a xlink:href="../../d1/d48/classserver_1_1main_app.html#ae15deb9260c486854af7fac7b063fdf5" target="_top" xlink:title="Triggered when a user changes his nickname (nick|Status)">
<polygon fill="white" stroke="black" points="718,-9.73254 718,-28.7325 882,-28.7325 882,-9.73254 718,-9.73254"/>
<text text-anchor="middle" x="800" y="-16.7325" font-family="Helvetica,sans-Serif" font-size="10.00">server::mainApp::userChangeNick</text>
</a>
</g>
</g>
<!-- Node9&#45;&gt;Node15 -->
<g id="edge19" class="edge"><title>Node9&#45;&gt;Node15</title>
<path fill="none" stroke="midnightblue" d="M436.213,-226.437C442.045,-184.635 461.931,-87.5693 524,-43.2325 590.783,4.47144 691.277,-0.907581 750.495,-9.6973"/>
<polygon fill="midnightblue" stroke="midnightblue" points="432.729,-226.097 434.942,-236.458 439.673,-226.978 432.729,-226.097"/>
</g>
<!-- Node16 -->
<g id="node16" class="node"><title>Node16</title>
<g id="a_node16"><a xlink:href="../../d1/d48/classserver_1_1main_app.html#aaa3dd74b510e2d797f21293a622a4f7d" target="_top" xlink:title="Triggered when a user changes his status (nick|Status)">
<polygon fill="white" stroke="black" points="927,-470.233 927,-500.233 1071,-500.233 1071,-470.233 927,-470.233"/>
<text text-anchor="start" x="935" y="-488.233" font-family="Helvetica,sans-Serif" font-size="10.00">server::mainApp::userChange</text>
<text text-anchor="middle" x="999" y="-477.233" font-family="Helvetica,sans-Serif" font-size="10.00">Status</text>
</a>
</g>
</g>
<!-- Node9&#45;&gt;Node16 -->
<g id="edge21" class="edge"><title>Node9&#45;&gt;Node16</title>
<path fill="none" stroke="midnightblue" d="M435.705,-266.143C440.6,-309.534 458.858,-412.401 524,-458.233 587.03,-502.578 810.896,-496.545 926.995,-490.07"/>
<polygon fill="midnightblue" stroke="midnightblue" points="439.17,-265.618 434.689,-256.018 432.205,-266.317 439.17,-265.618"/>
</g>
<!-- Node17 -->
<g id="node17" class="node"><title>Node17</title>
<g id="a_node17"><a xlink:href="../../d1/d48/classserver_1_1main_app.html#aea819e4b8f297de7f1e3fc2f8513b0a4" target="_top" xlink:title="Triggered when a UI client wants all the users.">
<polygon fill="white" stroke="black" points="725.5,-439.733 725.5,-458.733 874.5,-458.733 874.5,-439.733 725.5,-439.733"/>
<text text-anchor="middle" x="800" y="-446.733" font-family="Helvetica,sans-Serif" font-size="10.00">server::mainApp::doUserQuery</text>
</a>
</g>
</g>
<!-- Node9&#45;&gt;Node17 -->
<g id="edge23" class="edge"><title>Node9&#45;&gt;Node17</title>
<path fill="none" stroke="midnightblue" d="M437.469,-266.06C445.297,-304.207 468.193,-387.381 524,-425.233 590.434,-470.292 687.662,-466.661 746.946,-458.766"/>
<polygon fill="midnightblue" stroke="midnightblue" points="440.893,-265.33 435.575,-256.167 434.018,-266.646 440.893,-265.33"/>
</g>
<!-- Node18 -->
<g id="node18" class="node"><title>Node18</title>
<g id="a_node18"><a xlink:href="../../d1/d48/classserver_1_1main_app.html#aba9c03c1c353a57f43404bb149bee50b" target="_top" xlink:title="Triggered when a UI client wants all the events known to the server.">
<polygon fill="white" stroke="black" points="921.5,-390.733 921.5,-409.733 1076.5,-409.733 1076.5,-390.733 921.5,-390.733"/>
<text text-anchor="middle" x="999" y="-397.733" font-family="Helvetica,sans-Serif" font-size="10.00">server::mainApp::doSendEvents</text>
</a>
</g>
</g>
<!-- Node9&#45;&gt;Node18 -->
<g id="edge25" class="edge"><title>Node9&#45;&gt;Node18</title>
<path fill="none" stroke="midnightblue" d="M455.167,-261.586C500.559,-293.46 611.781,-366.018 718,-392.233 785.28,-408.837 864.416,-409.435 921.363,-406.701"/>
<polygon fill="midnightblue" stroke="midnightblue" points="457.168,-258.714 446.988,-255.779 453.116,-264.422 457.168,-258.714"/>
</g>
<!-- Node19 -->
<g id="node19" class="node"><title>Node19</title>
<g id="a_node19"><a xlink:href="../../d1/d48/classserver_1_1main_app.html#a7263ca5b3630b0a2774f556b96c333c8" target="_top" xlink:title="For logging to the clients.">
<polygon fill="white" stroke="black" points="524,-268.733 524,-287.733 682,-287.733 682,-268.733 524,-268.733"/>
<text text-anchor="middle" x="603" y="-275.733" font-family="Helvetica,sans-Serif" font-size="10.00">server::mainApp::serverMessage</text>
</a>
</g>
</g>
<!-- Node9&#45;&gt;Node19 -->
<g id="edge27" class="edge"><title>Node9&#45;&gt;Node19</title>
<path fill="none" stroke="midnightblue" d="M493.988,-257.659C512.971,-261.275 533.741,-265.231 551.952,-268.7"/>
<polygon fill="midnightblue" stroke="midnightblue" points="494.429,-254.18 483.951,-255.747 493.119,-261.056 494.429,-254.18"/>
</g>
<!-- Node24 -->
<g id="node24" class="node"><title>Node24</title>
<g id="a_node24"><a xlink:href="../../df/dd2/classserver_1_1ui_server.html#a1d221672f6efb29189e6ce398f7b07e3" target="_top" xlink:title="Triggered when a client wants to change something about our own user.">
<polygon fill="white" stroke="black" points="543,-200.233 543,-230.233 663,-230.233 663,-200.233 543,-200.233"/>
<text text-anchor="start" x="551" y="-218.233" font-family="Helvetica,sans-Serif" font-size="10.00">server::uiServer::change</text>
<text text-anchor="middle" x="603" y="-207.233" font-family="Helvetica,sans-Serif" font-size="10.00">OwnUser</text>
</a>
</g>
</g>
<!-- Node9&#45;&gt;Node24 -->
<g id="edge38" class="edge"><title>Node9&#45;&gt;Node24</title>
<path fill="none" stroke="midnightblue" d="M495.697,-234.848C511.066,-232.012 527.508,-228.978 542.756,-226.165"/>
<polygon fill="midnightblue" stroke="midnightblue" points="494.975,-231.422 485.776,-236.679 496.245,-238.306 494.975,-231.422"/>
</g>
<!-- Node11 -->
<g id="node11" class="node"><title>Node11</title>
<g id="a_node11"><a xlink:href="../../d1/d48/classserver_1_1main_app.html#af331bc3bf60e745f3ddc95ab3abe5188" target="_top" xlink:title="server::mainApp::run">
<polygon fill="white" stroke="black" points="1116,-249.733 1116,-268.733 1222,-268.733 1222,-249.733 1116,-249.733"/>
<text text-anchor="middle" x="1169" y="-256.733" font-family="Helvetica,sans-Serif" font-size="10.00">server::mainApp::run</text>
</a>
</g>
</g>
<!-- Node10&#45;&gt;Node11 -->
<g id="edge13" class="edge"><title>Node10&#45;&gt;Node11</title>
<path fill="none" stroke="midnightblue" d="M1061.71,-149.179C1068.12,-151.69 1074.35,-154.678 1080,-158.233 1118.79,-182.617 1149.99,-229.282 1162.31,-249.497"/>
<polygon fill="midnightblue" stroke="midnightblue" points="1062.82,-145.862 1052.23,-145.832 1060.49,-152.462 1062.82,-145.862"/>
</g>
<!-- Node12 -->
<g id="node12" class="node"><title>Node12</title>
<g id="a_node12"><a xlink:href="../../dc/d17/custom_irc_server_2main_8cpp.html#a0ddf1224851353fc92bfbff6f499fa97" target="_top" xlink:title="main">
<polygon fill="white" stroke="black" points="1258,-249.733 1258,-268.733 1296,-268.733 1296,-249.733 1258,-249.733"/>
<text text-anchor="middle" x="1277" y="-256.733" font-family="Helvetica,sans-Serif" font-size="10.00">main</text>
</a>
</g>
</g>
<!-- Node11&#45;&gt;Node12 -->
<g id="edge14" class="edge"><title>Node11&#45;&gt;Node12</title>
<path fill="none" stroke="midnightblue" d="M1232.21,-259.233C1241.46,-259.233 1250.33,-259.233 1257.64,-259.233"/>
<polygon fill="midnightblue" stroke="midnightblue" points="1232.07,-255.733 1222.07,-259.233 1232.07,-262.733 1232.07,-255.733"/>
</g>
<!-- Node13&#45;&gt;Node11 -->
<g id="edge16" class="edge"><title>Node13&#45;&gt;Node11</title>
<path fill="none" stroke="midnightblue" d="M866.402,-84.5629C926.4,-78.2429 1015.48,-77.9114 1080,-117.233 1131.51,-148.628 1157.41,-222.748 1165.31,-249.439"/>
<polygon fill="midnightblue" stroke="midnightblue" points="865.831,-81.1051 856.291,-85.7133 866.623,-88.0602 865.831,-81.1051"/>
</g>
<!-- Node14&#45;&gt;Node11 -->
<g id="edge18" class="edge"><title>Node14&#45;&gt;Node11</title>
<path fill="none" stroke="midnightblue" d="M1061.2,-71.55C1067.98,-74.6621 1074.44,-78.4999 1080,-83.2325 1135.16,-130.167 1159.31,-220.065 1165.98,-249.582"/>
<polygon fill="midnightblue" stroke="midnightblue" points="1062.38,-68.2511 1051.79,-67.7404 1059.75,-74.739 1062.38,-68.2511"/>
</g>
<!-- Node15&#45;&gt;Node11 -->
<g id="edge20" class="edge"><title>Node15&#45;&gt;Node11</title>
<path fill="none" stroke="midnightblue" d="M852.579,-7.8565C913.117,2.37169 1013.65,9.24005 1080,-39.2325 1152.41,-92.1329 1165.31,-214.472 1167.55,-249.626"/>
<polygon fill="midnightblue" stroke="midnightblue" points="851.719,-4.45457 842.488,-9.65531 852.948,-11.3459 851.719,-4.45457"/>
</g>
<!-- Node16&#45;&gt;Node11 -->
<g id="edge22" class="edge"><title>Node16&#45;&gt;Node11</title>
<path fill="none" stroke="midnightblue" d="M1064.72,-465.481C1070.25,-462.259 1075.46,-458.535 1080,-454.233 1137.71,-399.574 1160.43,-300.033 1166.33,-268.843"/>
<polygon fill="midnightblue" stroke="midnightblue" points="1063.06,-462.402 1055.82,-470.139 1066.3,-468.605 1063.06,-462.402"/>
</g>
<!-- Node17&#45;&gt;Node11 -->
<g id="edge24" class="edge"><title>Node17&#45;&gt;Node11</title>
<path fill="none" stroke="midnightblue" d="M881.636,-459.398C941.25,-462.714 1021.83,-457.97 1080,-419.233 1135.67,-382.154 1159.35,-297.503 1165.96,-268.889"/>
<polygon fill="midnightblue" stroke="midnightblue" points="881.712,-455.896 871.508,-458.746 881.263,-462.881 881.712,-455.896"/>
</g>
<!-- Node18&#45;&gt;Node11 -->
<g id="edge26" class="edge"><title>Node18&#45;&gt;Node11</title>
<path fill="none" stroke="midnightblue" d="M1049.31,-387.234C1060,-383.12 1070.84,-377.862 1080,-371.233 1120.07,-342.243 1151.24,-290.19 1162.96,-268.804"/>
<polygon fill="midnightblue" stroke="midnightblue" points="1047.83,-384.045 1039.58,-390.697 1050.18,-390.64 1047.83,-384.045"/>
</g>
<!-- Node19&#45;&gt;Node11 -->
<g id="edge28" class="edge"><title>Node19&#45;&gt;Node11</title>
<path fill="none" stroke="midnightblue" d="M670.26,-267.117C685.891,-264.676 702.513,-262.228 718,-260.233 877.813,-239.642 919.776,-223.133 1080,-240.233 1097.41,-242.09 1116.43,-245.959 1132.32,-249.724"/>
<polygon fill="midnightblue" stroke="midnightblue" points="669.484,-263.696 660.153,-268.715 670.577,-270.611 669.484,-263.696"/>
</g>
<!-- Node20 -->
<g id="node20" class="node"><title>Node20</title>
<g id="a_node20"><a xlink:href="../../d1/d48/classserver_1_1main_app.html#a931aedd34bb38252acfc8880f9716fab" target="_top" xlink:title="Triggered when the IRC client cannot connect.">
<polygon fill="white" stroke="black" points="929.5,-288.233 929.5,-318.233 1068.5,-318.233 1068.5,-288.233 929.5,-288.233"/>
<text text-anchor="start" x="937.5" y="-306.233" font-family="Helvetica,sans-Serif" font-size="10.00">server::mainApp::ircConnect</text>
<text text-anchor="middle" x="999" y="-295.233" font-family="Helvetica,sans-Serif" font-size="10.00">TimeOut</text>
</a>
</g>
</g>
<!-- Node19&#45;&gt;Node20 -->
<g id="edge29" class="edge"><title>Node19&#45;&gt;Node20</title>
<path fill="none" stroke="midnightblue" d="M635.131,-291.64C657.668,-300.59 689.119,-311.546 718,-316.233 789.452,-327.828 872.404,-321.559 929.368,-314.271"/>
<polygon fill="midnightblue" stroke="midnightblue" points="636.33,-288.349 625.748,-287.825 633.694,-294.834 636.33,-288.349"/>
</g>
<!-- Node21 -->
<g id="node21" class="node"><title>Node21</title>
<g id="a_node21"><a xlink:href="../../d1/d48/classserver_1_1main_app.html#a6e6e952e3048cfeefcdfeea7bbb5b83e" target="_top" xlink:title="Triggered when the IRC client has connected.">
<polygon fill="white" stroke="black" points="725.5,-363.733 725.5,-382.733 874.5,-382.733 874.5,-363.733 725.5,-363.733"/>
<text text-anchor="middle" x="800" y="-370.733" font-family="Helvetica,sans-Serif" font-size="10.00">server::mainApp::ircConnected</text>
</a>
</g>
</g>
<!-- Node19&#45;&gt;Node21 -->
<g id="edge31" class="edge"><title>Node19&#45;&gt;Node21</title>
<path fill="none" stroke="midnightblue" d="M625.004,-293.738C647.176,-309.51 683.609,-333.77 718,-349.233 730.976,-355.067 745.747,-359.925 759.091,-363.71"/>
<polygon fill="midnightblue" stroke="midnightblue" points="626.853,-290.756 616.695,-287.747 622.76,-296.434 626.853,-290.756"/>
</g>
<!-- Node22 -->
<g id="node22" class="node"><title>Node22</title>
<g id="a_node22"><a xlink:href="../../d1/d48/classserver_1_1main_app.html#af6e8c9d1f06514b33e5f88f9e66884be" target="_top" xlink:title="Triggered when the IRC client has disconnected.">
<polygon fill="white" stroke="black" points="918,-249.733 918,-268.733 1080,-268.733 1080,-249.733 918,-249.733"/>
<text text-anchor="middle" x="999" y="-256.733" font-family="Helvetica,sans-Serif" font-size="10.00">server::mainApp::ircDisconnected</text>
</a>
</g>
</g>
<!-- Node19&#45;&gt;Node22 -->
<g id="edge33" class="edge"><title>Node19&#45;&gt;Node22</title>
<path fill="none" stroke="midnightblue" d="M692.516,-273.964C760.084,-270.706 852.394,-266.254 917.808,-263.1"/>
<polygon fill="midnightblue" stroke="midnightblue" points="692.133,-270.478 682.313,-274.456 692.47,-277.47 692.133,-270.478"/>
</g>
<!-- Node23 -->
<g id="node23" class="node"><title>Node23</title>
<g id="a_node23"><a xlink:href="../../d1/d48/classserver_1_1main_app.html#aa9d4c2e1dc5216901c4f8743838d4561" target="_top" xlink:title="Emitted when the reconnect timer reaches 0.">
<polygon fill="white" stroke="black" points="720,-287.733 720,-306.733 880,-306.733 880,-287.733 720,-287.733"/>
<text text-anchor="middle" x="800" y="-294.733" font-family="Helvetica,sans-Serif" font-size="10.00">server::mainApp::doIrcReconnect</text>
</a>
</g>
</g>
<!-- Node19&#45;&gt;Node23 -->
<g id="edge35" class="edge"><title>Node19&#45;&gt;Node23</title>
<path fill="none" stroke="midnightblue" d="M692.145,-286.821C701.375,-287.72 710.717,-288.631 719.838,-289.519"/>
<polygon fill="midnightblue" stroke="midnightblue" points="692.483,-283.337 682.19,-285.851 691.804,-290.304 692.483,-283.337"/>
</g>
<!-- Node20&#45;&gt;Node11 -->
<g id="edge30" class="edge"><title>Node20&#45;&gt;Node11</title>
<path fill="none" stroke="midnightblue" d="M1067.31,-285.603C1089.3,-279.845 1112.87,-273.671 1131.68,-268.745"/>
<polygon fill="midnightblue" stroke="midnightblue" points="1066.13,-282.294 1057.35,-288.213 1067.91,-289.065 1066.13,-282.294"/>
</g>
<!-- Node21&#45;&gt;Node11 -->
<g id="edge32" class="edge"><title>Node21&#45;&gt;Node11</title>
<path fill="none" stroke="midnightblue" d="M884.637,-370.157C941.702,-365.526 1017.9,-354.27 1080,-327.233 1112.57,-313.051 1143.78,-284.126 1158.76,-268.978"/>
<polygon fill="midnightblue" stroke="midnightblue" points="884.278,-366.674 874.572,-370.921 884.808,-373.654 884.278,-366.674"/>
</g>
<!-- Node22&#45;&gt;Node11 -->
<g id="edge34" class="edge"><title>Node22&#45;&gt;Node11</title>
<path fill="none" stroke="midnightblue" d="M1090.34,-259.233C1099.07,-259.233 1107.71,-259.233 1115.88,-259.233"/>
<polygon fill="midnightblue" stroke="midnightblue" points="1090.06,-255.733 1080.06,-259.233 1090.06,-262.733 1090.06,-255.733"/>
</g>
<!-- Node23&#45;&gt;Node20 -->
<g id="edge36" class="edge"><title>Node23&#45;&gt;Node20</title>
<path fill="none" stroke="midnightblue" d="M890.639,-299.963C903.639,-300.359 916.846,-300.761 929.345,-301.142"/>
<polygon fill="midnightblue" stroke="midnightblue" points="890.378,-296.453 880.276,-299.647 890.165,-303.45 890.378,-296.453"/>
</g>
<!-- Node23&#45;&gt;Node22 -->
<g id="edge37" class="edge"><title>Node23&#45;&gt;Node22</title>
<path fill="none" stroke="midnightblue" d="M860.564,-285.743C888.672,-280.321 921.822,-273.927 948.523,-268.776"/>
<polygon fill="midnightblue" stroke="midnightblue" points="859.613,-282.362 850.457,-287.693 860.939,-289.235 859.613,-282.362"/>
</g>
<!-- Node25 -->
<g id="node25" class="node"><title>Node25</title>
<g id="a_node25"><a xlink:href="../../df/dd2/classserver_1_1ui_server.html#af8300a694de27369a5f5d1a95ed1cc37" target="_top" xlink:title="Triggered when a client connects.">
<polygon fill="white" stroke="black" points="741,-162.233 741,-192.233 859,-192.233 859,-162.233 741,-162.233"/>
<text text-anchor="start" x="749" y="-180.233" font-family="Helvetica,sans-Serif" font-size="10.00">server::uiServer::accept</text>
<text text-anchor="middle" x="800" y="-169.233" font-family="Helvetica,sans-Serif" font-size="10.00">Connection</text>
</a>
</g>
</g>
<!-- Node24&#45;&gt;Node25 -->
<g id="edge39" class="edge"><title>Node24&#45;&gt;Node25</title>
<path fill="none" stroke="midnightblue" d="M673.05,-201.777C695.216,-197.457 719.531,-192.719 740.836,-188.567"/>
<polygon fill="midnightblue" stroke="midnightblue" points="672.181,-198.38 663.036,-203.728 673.52,-205.251 672.181,-198.38"/>
</g>
<!-- Node26 -->
<g id="node26" class="node"><title>Node26</title>
<g id="a_node26"><a xlink:href="../../df/dd2/classserver_1_1ui_server.html#a55e34b95359692ea9002408075e18b1a" target="_top" xlink:title="uiServer constructor">
<polygon fill="white" stroke="black" points="937.5,-167.733 937.5,-186.733 1060.5,-186.733 1060.5,-167.733 937.5,-167.733"/>
<text text-anchor="middle" x="999" y="-174.733" font-family="Helvetica,sans-Serif" font-size="10.00">server::uiServer::uiServer</text>
</a>
</g>
</g>
<!-- Node25&#45;&gt;Node26 -->
<g id="edge40" class="edge"><title>Node25&#45;&gt;Node26</title>
<path fill="none" stroke="midnightblue" d="M869.052,-177.233C891.23,-177.233 915.692,-177.233 937.294,-177.233"/>
<polygon fill="midnightblue" stroke="midnightblue" points="869.041,-173.733 859.041,-177.233 869.041,-180.733 869.041,-173.733"/>
</g>
</g>
</svg>
