<?xml version="1.0" encoding="UTF-8" standalone="no"?>
<!DOCTYPE svg PUBLIC "-//W3C//DTD SVG 1.1//EN"
 "http://www.w3.org/Graphics/SVG/1.1/DTD/svg11.dtd">
<!-- Generated by graphviz version 2.30.1 (20130303.0817)
 -->
<!-- Title: K4U::jsonCommand::addToData Pages: 1 -->
<!--zoomable 539 -->
<svg id="main" version="1.1" xmlns="http://www.w3.org/2000/svg" xmlns:xlink="http://www.w3.org/1999/xlink" xml:space="preserve" onload="init(evt)">
        <defs>
                <circle id="rim" cx="0" cy="0" r="7"/>
                <circle id="rim2" cx="0" cy="0" r="3.5"/>
                <g id="zoomPlus">
                        <use xlink:href="#rim" fill="#404040">
                                <set attributeName="fill" to="#808080" begin="zoomplus.mouseover" end="zoomplus.mouseout"/>
                        </use>
                        <path d="M-4,0h8M0,-4v8" fill="none" stroke="white" stroke-width="1.5" pointer-events="none"/>
                </g>
                <g id="zoomMin">
                        <use xlink:href="#rim" fill="#404040">
                                <set attributeName="fill" to="#808080" begin="zoomminus.mouseover" end="zoomminus.mouseout"/>
                        </use>
                        <path d="M-4,0h8" fill="none" stroke="white" stroke-width="1.5" pointer-events="none"/>
                </g>
                <g id="dirArrow">
                        <path fill="none" stroke="white" stroke-width="1.5" d="M0,-3.0v7 M-2.5,-0.5L0,-3.0L2.5,-0.5"/>
                </g>
               <g id="resetDef">
                       <use xlink:href="#rim2" fill="#404040">
                               <set attributeName="fill" to="#808080" begin="reset.mouseover" end="reset.mouseout"/>
                       </use>
               </g>
        </defs>

<script type="text/javascript">
var viewWidth = 972;
var viewHeight = 539;
var sectionId = 'dynsection-2';
</script>
<script xlink:href="../../svgpan.js"/>
<svg id="graph" class="graph">
<g id="viewport">
<title>K4U::jsonCommand::addToData</title>
<polygon fill="white" stroke="white" points="-4,5 -4,-535.48 969,-535.48 969,5 -4,5"/>
<!-- Node1 -->
<g id="node1" class="node"><title>Node1</title>
<polygon fill="#bfbfbf" stroke="black" points="0.5,-317.98 0.5,-336.98 155.5,-336.98 155.5,-317.98 0.5,-317.98"/>
<text text-anchor="middle" x="78" y="-324.98" font-family="Helvetica,sans-Serif" font-size="10.00">K4U::jsonCommand::addToData</text>
</g>
<!-- Node2 -->
<g id="node2" class="node"><title>Node2</title>
<g id="a_node2"><a xlink:href="../../d2/da4/classclient_1_1_main_window.html#aa32adfb179341040f2decbd0da19f1d9" target="_top" xlink:title="client::MainWindow\l::sendChat">
<polygon fill="white" stroke="black" points="220.5,-500.48 220.5,-530.48 321.5,-530.48 321.5,-500.48 220.5,-500.48"/>
<text text-anchor="start" x="228.5" y="-518.48" font-family="Helvetica,sans-Serif" font-size="10.00">client::MainWindow</text>
<text text-anchor="middle" x="271" y="-507.48" font-family="Helvetica,sans-Serif" font-size="10.00">::sendChat</text>
</a>
</g>
</g>
<!-- Node1&#45;&gt;Node2 -->
<g id="edge1" class="edge"><title>Node1&#45;&gt;Node2</title>
<path fill="none" stroke="midnightblue" d="M87.0993,-346.465C102.523,-380.384 139.335,-451.482 192,-490.48 200.343,-496.657 210.27,-501.345 220.199,-504.889"/>
<polygon fill="midnightblue" stroke="midnightblue" points="90.2513,-344.939 83.0054,-337.209 83.8495,-347.77 90.2513,-344.939"/>
</g>
<!-- Node4 -->
<g id="node4" class="node"><title>Node4</title>
<g id="a_node4"><a xlink:href="../../d2/da4/classclient_1_1_main_window.html#a75d241698eb127c089ed4703fbeb4999" target="_top" xlink:title="client::MainWindow\l::commandGiven">
<polygon fill="white" stroke="black" points="220.5,-451.48 220.5,-481.48 321.5,-481.48 321.5,-451.48 220.5,-451.48"/>
<text text-anchor="start" x="228.5" y="-469.48" font-family="Helvetica,sans-Serif" font-size="10.00">client::MainWindow</text>
<text text-anchor="middle" x="271" y="-458.48" font-family="Helvetica,sans-Serif" font-size="10.00">::commandGiven</text>
</a>
</g>
</g>
<!-- Node1&#45;&gt;Node4 -->
<g id="edge3" class="edge"><title>Node1&#45;&gt;Node4</title>
<path fill="none" stroke="midnightblue" d="M93.2386,-345.07C113.154,-368.686 151.462,-410.652 192,-436.48 201.177,-442.327 211.672,-447.323 221.924,-451.465"/>
<polygon fill="midnightblue" stroke="midnightblue" points="95.8418,-342.726 86.7636,-337.264 90.454,-347.195 95.8418,-342.726"/>
</g>
<!-- Node5 -->
<g id="node5" class="node"><title>Node5</title>
<g id="a_node5"><a xlink:href="../../d1/d48/classserver_1_1main_app.html#a0970ee01d48b04ebc1390ffb8edecfc0" target="_top" xlink:title="Triggered when a chat has been received.">
<polygon fill="white" stroke="black" points="592,-414.98 592,-433.98 742,-433.98 742,-414.98 592,-414.98"/>
<text text-anchor="middle" x="667" y="-421.98" font-family="Helvetica,sans-Serif" font-size="10.00">server::mainApp::chatReceived</text>
</a>
</g>
</g>
<!-- Node1&#45;&gt;Node5 -->
<g id="edge5" class="edge"><title>Node1&#45;&gt;Node5</title>
<path fill="none" stroke="midnightblue" d="M102.294,-342.47C124.432,-355.912 159.133,-374.943 192,-384.48 329.013,-424.235 496.953,-428.551 591.691,-427.154"/>
<polygon fill="midnightblue" stroke="midnightblue" points="103.961,-339.386 93.6172,-337.095 100.275,-345.336 103.961,-339.386"/>
</g>
<!-- Node8 -->
<g id="node8" class="node"><title>Node8</title>
<g id="a_node8"><a xlink:href="../../d1/d48/classserver_1_1main_app.html#a92448c1219ad89999c983b04adaa4236" target="_top" xlink:title="Triggered when a user joins trough a JOIN message.">
<polygon fill="white" stroke="black" points="398.5,-374.98 398.5,-393.98 537.5,-393.98 537.5,-374.98 398.5,-374.98"/>
<text text-anchor="middle" x="468" y="-381.98" font-family="Helvetica,sans-Serif" font-size="10.00">server::mainApp::userOnline</text>
</a>
</g>
</g>
<!-- Node1&#45;&gt;Node8 -->
<g id="edge8" class="edge"><title>Node1&#45;&gt;Node8</title>
<path fill="none" stroke="midnightblue" d="M115.599,-340.16C137.505,-347.246 166.046,-355.607 192,-360.48 261.592,-373.546 342.457,-379.524 398.401,-382.244"/>
<polygon fill="midnightblue" stroke="midnightblue" points="116.628,-336.814 106.035,-337.011 114.439,-343.463 116.628,-336.814"/>
</g>
<!-- Node9 -->
<g id="node9" class="node"><title>Node9</title>
<g id="a_node9"><a xlink:href="../../d1/d48/classserver_1_1main_app.html#aae86b15c001a235de78a90334e697b5f" target="_top" xlink:title="Triggered when a user leaves trough a PART message.">
<polygon fill="white" stroke="black" points="598,-338.98 598,-357.98 736,-357.98 736,-338.98 598,-338.98"/>
<text text-anchor="middle" x="667" y="-345.98" font-family="Helvetica,sans-Serif" font-size="10.00">server::mainApp::userOffline</text>
</a>
</g>
</g>
<!-- Node1&#45;&gt;Node9 -->
<g id="edge10" class="edge"><title>Node1&#45;&gt;Node9</title>
<path fill="none" stroke="midnightblue" d="M165.619,-331.405C174.528,-331.781 183.446,-332.146 192,-332.48 336.394,-338.111 505.578,-343.541 597.702,-346.399"/>
<polygon fill="midnightblue" stroke="midnightblue" points="165.724,-327.907 155.584,-330.977 165.425,-334.9 165.724,-327.907"/>
</g>
<!-- Node10 -->
<g id="node10" class="node"><title>Node10</title>
<g id="a_node10"><a xlink:href="../../d1/d48/classserver_1_1main_app.html#ae15deb9260c486854af7fac7b063fdf5" target="_top" xlink:title="Triggered when a user changes his nickname (nick|Status)">
<polygon fill="white" stroke="black" points="386,-298.98 386,-317.98 550,-317.98 550,-298.98 386,-298.98"/>
<text text-anchor="middle" x="468" y="-305.98" font-family="Helvetica,sans-Serif" font-size="10.00">server::mainApp::userChangeNick</text>
</a>
</g>
</g>
<!-- Node1&#45;&gt;Node10 -->
<g id="edge12" class="edge"><title>Node1&#45;&gt;Node10</title>
<path fill="none" stroke="midnightblue" d="M166.004,-323.219C231.801,-319.997 321.493,-315.605 385.821,-312.455"/>
<polygon fill="midnightblue" stroke="midnightblue" points="165.473,-319.741 155.656,-323.726 165.816,-326.733 165.473,-319.741"/>
</g>
<!-- Node11 -->
<g id="node11" class="node"><title>Node11</title>
<g id="a_node11"><a xlink:href="../../d1/d48/classserver_1_1main_app.html#aaa3dd74b510e2d797f21293a622a4f7d" target="_top" xlink:title="Triggered when a user changes his status (nick|Status)">
<polygon fill="white" stroke="black" points="595,-251.48 595,-281.48 739,-281.48 739,-251.48 595,-251.48"/>
<text text-anchor="start" x="603" y="-269.48" font-family="Helvetica,sans-Serif" font-size="10.00">server::mainApp::userChange</text>
<text text-anchor="middle" x="667" y="-258.48" font-family="Helvetica,sans-Serif" font-size="10.00">Status</text>
</a>
</g>
</g>
<!-- Node1&#45;&gt;Node11 -->
<g id="edge14" class="edge"><title>Node1&#45;&gt;Node11</title>
<path fill="none" stroke="midnightblue" d="M154.128,-316.545C166.763,-314.792 179.748,-313.042 192,-311.48 278.078,-300.507 299.637,-297.922 386,-289.48 456.995,-282.54 538.256,-276.023 594.884,-271.711"/>
<polygon fill="midnightblue" stroke="midnightblue" points="153.509,-313.098 144.091,-317.949 154.479,-320.03 153.509,-313.098"/>
</g>
<!-- Node12 -->
<g id="node12" class="node"><title>Node12</title>
<g id="a_node12"><a xlink:href="../../d1/d48/classserver_1_1main_app.html#aea819e4b8f297de7f1e3fc2f8513b0a4" target="_top" xlink:title="Triggered when a UI client wants all the users.">
<polygon fill="white" stroke="black" points="196.5,-219.98 196.5,-238.98 345.5,-238.98 345.5,-219.98 196.5,-219.98"/>
<text text-anchor="middle" x="271" y="-226.98" font-family="Helvetica,sans-Serif" font-size="10.00">server::mainApp::doUserQuery</text>
</a>
</g>
</g>
<!-- Node1&#45;&gt;Node12 -->
<g id="edge16" class="edge"><title>Node1&#45;&gt;Node12</title>
<path fill="none" stroke="midnightblue" d="M99.8713,-311.959C121.89,-296.128 158.037,-271.657 192,-255.48 205.66,-248.973 221.381,-243.397 235.114,-239.097"/>
<polygon fill="midnightblue" stroke="midnightblue" points="97.6434,-309.251 91.6175,-317.965 101.763,-314.911 97.6434,-309.251"/>
</g>
<!-- Node13 -->
<g id="node13" class="node"><title>Node13</title>
<g id="a_node13"><a xlink:href="../../d1/d48/classserver_1_1main_app.html#aba9c03c1c353a57f43404bb149bee50b" target="_top" xlink:title="Triggered when a UI client wants all the events known to the server.">
<polygon fill="white" stroke="black" points="193.5,-177.98 193.5,-196.98 348.5,-196.98 348.5,-177.98 193.5,-177.98"/>
<text text-anchor="middle" x="271" y="-184.98" font-family="Helvetica,sans-Serif" font-size="10.00">server::mainApp::doSendEvents</text>
</a>
</g>
</g>
<!-- Node1&#45;&gt;Node13 -->
<g id="edge18" class="edge"><title>Node1&#45;&gt;Node13</title>
<path fill="none" stroke="midnightblue" d="M91.5326,-309.547C110.407,-283.859 148.575,-236.792 192,-210.48 201.418,-204.773 212.338,-200.409 222.971,-197.099"/>
<polygon fill="midnightblue" stroke="midnightblue" points="88.6853,-307.511 85.6841,-317.672 94.3667,-311.601 88.6853,-307.511"/>
</g>
<!-- Node14 -->
<g id="node14" class="node"><title>Node14</title>
<g id="a_node14"><a xlink:href="../../d1/d48/classserver_1_1main_app.html#a7263ca5b3630b0a2774f556b96c333c8" target="_top" xlink:title="For logging to the clients.">
<polygon fill="white" stroke="black" points="192,-79.9799 192,-98.9799 350,-98.9799 350,-79.9799 192,-79.9799"/>
<text text-anchor="middle" x="271" y="-86.9799" font-family="Helvetica,sans-Serif" font-size="10.00">server::mainApp::serverMessage</text>
</a>
</g>
</g>
<!-- Node1&#45;&gt;Node14 -->
<g id="edge20" class="edge"><title>Node1&#45;&gt;Node14</title>
<path fill="none" stroke="midnightblue" d="M90.6777,-309.08C110.249,-278.718 151.521,-216.689 192,-168.48 214.309,-141.91 243.808,-113.648 259.357,-99.2087"/>
<polygon fill="midnightblue" stroke="midnightblue" points="87.5598,-307.459 85.1142,-317.767 93.4547,-311.234 87.5598,-307.459"/>
</g>
<!-- Node3 -->
<g id="node3" class="node"><title>Node3</title>
<g id="a_node3"><a xlink:href="../../d2/da4/classclient_1_1_main_window.html#ab4aedce719340218169c114b31b54f70" target="_top" xlink:title="client::MainWindow\l::MainWindow">
<polygon fill="white" stroke="black" points="417.5,-476.48 417.5,-506.48 518.5,-506.48 518.5,-476.48 417.5,-476.48"/>
<text text-anchor="start" x="425.5" y="-494.48" font-family="Helvetica,sans-Serif" font-size="10.00">client::MainWindow</text>
<text text-anchor="middle" x="468" y="-483.48" font-family="Helvetica,sans-Serif" font-size="10.00">::MainWindow</text>
</a>
</g>
</g>
<!-- Node2&#45;&gt;Node3 -->
<g id="edge2" class="edge"><title>Node2&#45;&gt;Node3</title>
<path fill="none" stroke="midnightblue" d="M331.955,-508.101C359.335,-504.731 391.379,-500.787 417.379,-497.587"/>
<polygon fill="midnightblue" stroke="midnightblue" points="331.209,-504.666 321.711,-509.362 332.064,-511.614 331.209,-504.666"/>
</g>
<!-- Node4&#45;&gt;Node3 -->
<g id="edge4" class="edge"><title>Node4&#45;&gt;Node3</title>
<path fill="none" stroke="midnightblue" d="M331.955,-474.166C359.335,-477.677 391.379,-481.785 417.379,-485.118"/>
<polygon fill="midnightblue" stroke="midnightblue" points="332.075,-470.653 321.711,-472.853 331.185,-477.596 332.075,-470.653"/>
</g>
<!-- Node6 -->
<g id="node6" class="node"><title>Node6</title>
<g id="a_node6"><a xlink:href="../../d1/d48/classserver_1_1main_app.html#af331bc3bf60e745f3ddc95ab3abe5188" target="_top" xlink:title="server::mainApp::run">
<polygon fill="white" stroke="black" points="784,-212.98 784,-231.98 890,-231.98 890,-212.98 784,-212.98"/>
<text text-anchor="middle" x="837" y="-219.98" font-family="Helvetica,sans-Serif" font-size="10.00">server::mainApp::run</text>
</a>
</g>
</g>
<!-- Node5&#45;&gt;Node6 -->
<g id="edge6" class="edge"><title>Node5&#45;&gt;Node6</title>
<path fill="none" stroke="midnightblue" d="M731.446,-410.955C737.407,-408.106 743.057,-404.656 748,-400.48 803.824,-353.312 827.539,-262.195 834.042,-232.267"/>
<polygon fill="midnightblue" stroke="midnightblue" points="729.754,-407.869 721.879,-414.957 732.455,-414.327 729.754,-407.869"/>
</g>
<!-- Node7 -->
<g id="node7" class="node"><title>Node7</title>
<g id="a_node7"><a xlink:href="../../dc/d17/custom_irc_server_2main_8cpp.html#a0ddf1224851353fc92bfbff6f499fa97" target="_top" xlink:title="main">
<polygon fill="white" stroke="black" points="926,-212.98 926,-231.98 964,-231.98 964,-212.98 926,-212.98"/>
<text text-anchor="middle" x="945" y="-219.98" font-family="Helvetica,sans-Serif" font-size="10.00">main</text>
</a>
</g>
</g>
<!-- Node6&#45;&gt;Node7 -->
<g id="edge7" class="edge"><title>Node6&#45;&gt;Node7</title>
<path fill="none" stroke="midnightblue" d="M900.208,-222.48C909.464,-222.48 918.334,-222.48 925.64,-222.48"/>
<polygon fill="midnightblue" stroke="midnightblue" points="900.068,-218.98 890.068,-222.48 900.068,-225.98 900.068,-218.98"/>
</g>
<!-- Node8&#45;&gt;Node6 -->
<g id="edge9" class="edge"><title>Node8&#45;&gt;Node6</title>
<path fill="none" stroke="midnightblue" d="M525.565,-395.516C585.337,-404.056 680.156,-408.433 748,-367.48 800.689,-335.675 826,-259.156 833.518,-232.132"/>
<polygon fill="midnightblue" stroke="midnightblue" points="525.967,-392.037 515.556,-394 524.919,-398.958 525.967,-392.037"/>
</g>
<!-- Node9&#45;&gt;Node6 -->
<g id="edge11" class="edge"><title>Node9&#45;&gt;Node6</title>
<path fill="none" stroke="midnightblue" d="M725.646,-335.538C733.481,-332.552 741.166,-328.91 748,-324.48 786.66,-299.415 817.932,-252.524 830.292,-232.242"/>
<polygon fill="midnightblue" stroke="midnightblue" points="724.362,-332.278 716.062,-338.863 726.657,-338.891 724.362,-332.278"/>
</g>
<!-- Node10&#45;&gt;Node6 -->
<g id="edge13" class="edge"><title>Node10&#45;&gt;Node6</title>
<path fill="none" stroke="midnightblue" d="M560.334,-315.85C616.239,-317.17 688.262,-313.044 748,-290.48 781.595,-277.79 812.827,-247.643 827.395,-232.106"/>
<polygon fill="midnightblue" stroke="midnightblue" points="560.19,-312.344 550.09,-315.543 559.981,-319.341 560.19,-312.344"/>
</g>
<!-- Node11&#45;&gt;Node6 -->
<g id="edge15" class="edge"><title>Node11&#45;&gt;Node6</title>
<path fill="none" stroke="midnightblue" d="M735.313,-248.85C757.298,-243.092 780.873,-236.918 799.68,-231.992"/>
<polygon fill="midnightblue" stroke="midnightblue" points="734.133,-245.541 725.346,-251.461 735.907,-252.313 734.133,-245.541"/>
</g>
<!-- Node12&#45;&gt;Node6 -->
<g id="edge17" class="edge"><title>Node12&#45;&gt;Node6</title>
<path fill="none" stroke="midnightblue" d="M355.813,-228.44C473.88,-226.974 685.684,-224.346 783.656,-223.13"/>
<polygon fill="midnightblue" stroke="midnightblue" points="355.689,-224.941 345.733,-228.565 355.776,-231.94 355.689,-224.941"/>
</g>
<!-- Node13&#45;&gt;Node6 -->
<g id="edge19" class="edge"><title>Node13&#45;&gt;Node6</title>
<path fill="none" stroke="midnightblue" d="M358.794,-192.866C477.507,-200.233 686.827,-213.223 783.881,-219.246"/>
<polygon fill="midnightblue" stroke="midnightblue" points="358.848,-189.363 348.651,-192.237 358.415,-196.349 358.848,-189.363"/>
</g>
<!-- Node14&#45;&gt;Node6 -->
<g id="edge21" class="edge"><title>Node14&#45;&gt;Node6</title>
<path fill="none" stroke="midnightblue" d="M299.837,-75.5807C377.631,-38.8967 601.208,51.5942 748,-40.4799 811.627,-80.3894 830.371,-180.755 834.809,-212.614"/>
<polygon fill="midnightblue" stroke="midnightblue" points="298.178,-72.4949 290.673,-79.9739 301.204,-78.8071 298.178,-72.4949"/>
</g>
<!-- Node15 -->
<g id="node15" class="node"><title>Node15</title>
<g id="a_node15"><a xlink:href="../../d1/d48/classserver_1_1main_app.html#a931aedd34bb38252acfc8880f9716fab" target="_top" xlink:title="Triggered when the IRC client cannot connect.">
<polygon fill="white" stroke="black" points="597.5,-49.4799 597.5,-79.4799 736.5,-79.4799 736.5,-49.4799 597.5,-49.4799"/>
<text text-anchor="start" x="605.5" y="-67.4799" font-family="Helvetica,sans-Serif" font-size="10.00">server::mainApp::ircConnect</text>
<text text-anchor="middle" x="667" y="-56.4799" font-family="Helvetica,sans-Serif" font-size="10.00">TimeOut</text>
</a>
</g>
</g>
<!-- Node14&#45;&gt;Node15 -->
<g id="edge22" class="edge"><title>Node14&#45;&gt;Node15</title>
<path fill="none" stroke="midnightblue" d="M303.131,-76.0728C325.668,-67.1229 357.119,-56.1666 386,-51.4799 457.452,-39.8848 540.404,-46.1536 597.368,-53.4413"/>
<polygon fill="midnightblue" stroke="midnightblue" points="301.694,-72.8789 293.748,-79.8875 304.33,-79.3634 301.694,-72.8789"/>
</g>
<!-- Node16 -->
<g id="node16" class="node"><title>Node16</title>
<g id="a_node16"><a xlink:href="../../d1/d48/classserver_1_1main_app.html#a6e6e952e3048cfeefcdfeea7bbb5b83e" target="_top" xlink:title="Triggered when the IRC client has connected.">
<polygon fill="white" stroke="black" points="393.5,-136.98 393.5,-155.98 542.5,-155.98 542.5,-136.98 393.5,-136.98"/>
<text text-anchor="middle" x="468" y="-143.98" font-family="Helvetica,sans-Serif" font-size="10.00">server::mainApp::ircConnected</text>
</a>
</g>
</g>
<!-- Node14&#45;&gt;Node16 -->
<g id="edge24" class="edge"><title>Node14&#45;&gt;Node16</title>
<path fill="none" stroke="midnightblue" d="M314.37,-101.865C350.372,-112.389 401.314,-127.279 434.255,-136.908"/>
<polygon fill="midnightblue" stroke="midnightblue" points="315.219,-98.4667 304.639,-99.0204 313.255,-105.186 315.219,-98.4667"/>
</g>
<!-- Node17 -->
<g id="node17" class="node"><title>Node17</title>
<g id="a_node17"><a xlink:href="../../d1/d48/classserver_1_1main_app.html#af6e8c9d1f06514b33e5f88f9e66884be" target="_top" xlink:title="Triggered when the IRC client has disconnected.">
<polygon fill="white" stroke="black" points="586,-98.9799 586,-117.98 748,-117.98 748,-98.9799 586,-98.9799"/>
<text text-anchor="middle" x="667" y="-105.98" font-family="Helvetica,sans-Serif" font-size="10.00">server::mainApp::ircDisconnected</text>
</a>
</g>
</g>
<!-- Node14&#45;&gt;Node17 -->
<g id="edge26" class="edge"><title>Node14&#45;&gt;Node17</title>
<path fill="none" stroke="midnightblue" d="M360.516,-93.7484C428.084,-97.0068 520.394,-101.458 585.808,-104.613"/>
<polygon fill="midnightblue" stroke="midnightblue" points="360.47,-90.2422 350.313,-93.2564 360.133,-97.2341 360.47,-90.2422"/>
</g>
<!-- Node18 -->
<g id="node18" class="node"><title>Node18</title>
<g id="a_node18"><a xlink:href="../../d1/d48/classserver_1_1main_app.html#aa9d4c2e1dc5216901c4f8743838d4561" target="_top" xlink:title="Emitted when the reconnect timer reaches 0.">
<polygon fill="white" stroke="black" points="388,-60.9799 388,-79.9799 548,-79.9799 548,-60.9799 388,-60.9799"/>
<text text-anchor="middle" x="468" y="-67.9799" font-family="Helvetica,sans-Serif" font-size="10.00">server::mainApp::doIrcReconnect</text>
</a>
</g>
</g>
<!-- Node14&#45;&gt;Node18 -->
<g id="edge28" class="edge"><title>Node14&#45;&gt;Node18</title>
<path fill="none" stroke="midnightblue" d="M360.145,-80.8914C369.375,-79.9921 378.717,-79.0818 387.838,-78.1931"/>
<polygon fill="midnightblue" stroke="midnightblue" points="359.804,-77.408 350.19,-81.8613 360.483,-84.375 359.804,-77.408"/>
</g>
<!-- Node15&#45;&gt;Node6 -->
<g id="edge23" class="edge"><title>Node15&#45;&gt;Node6</title>
<path fill="none" stroke="midnightblue" d="M740.179,-84.2907C742.9,-85.89 745.521,-87.6165 748,-89.4799 793.37,-123.584 822.507,-188.354 832.316,-212.808"/>
<polygon fill="midnightblue" stroke="midnightblue" points="741.678,-81.1253 731.193,-79.6034 738.44,-87.3316 741.678,-81.1253"/>
</g>
<!-- Node16&#45;&gt;Node6 -->
<g id="edge25" class="edge"><title>Node16&#45;&gt;Node6</title>
<path fill="none" stroke="midnightblue" d="M553.013,-144.059C609.409,-144.752 684.686,-150.216 748,-170.48 777.408,-179.892 807.493,-200.532 823.749,-212.789"/>
<polygon fill="midnightblue" stroke="midnightblue" points="552.735,-140.557 542.709,-143.983 552.683,-147.557 552.735,-140.557"/>
</g>
<!-- Node17&#45;&gt;Node6 -->
<g id="edge27" class="edge"><title>Node17&#45;&gt;Node6</title>
<path fill="none" stroke="midnightblue" d="M723.657,-121.177C732.122,-124.228 740.518,-127.954 748,-132.48 784.087,-154.31 815.778,-194.378 829.191,-212.777"/>
<polygon fill="midnightblue" stroke="midnightblue" points="724.71,-117.839 714.116,-118.013 722.506,-124.483 724.71,-117.839"/>
</g>
<!-- Node18&#45;&gt;Node15 -->
<g id="edge29" class="edge"><title>Node18&#45;&gt;Node15</title>
<path fill="none" stroke="midnightblue" d="M558.639,-67.7497C571.639,-67.3538 584.846,-66.9516 597.345,-66.5709"/>
<polygon fill="midnightblue" stroke="midnightblue" points="558.165,-64.2625 548.276,-68.0654 558.378,-71.2592 558.165,-64.2625"/>
</g>
<!-- Node18&#45;&gt;Node17 -->
<g id="edge30" class="edge"><title>Node18&#45;&gt;Node17</title>
<path fill="none" stroke="midnightblue" d="M528.564,-81.9693C556.672,-87.3912 589.822,-93.7857 616.523,-98.936"/>
<polygon fill="midnightblue" stroke="midnightblue" points="528.939,-78.4773 518.457,-80.0198 527.613,-85.3506 528.939,-78.4773"/>
</g>
</g>
</svg>
        <g id="navigator" transform="translate(0 0)" fill="#404254">
                <rect fill="#f2f5e9" fill-opacity="0.5" stroke="#606060" stroke-width=".5" x="0" y="0" width="60" height="60"/>
                <use id="zoomplus" xlink:href="#zoomPlus" x="17" y="9" onmousedown="handleZoom(evt,'in')"/>
                <use id="zoomminus" xlink:href="#zoomMin" x="42" y="9" onmousedown="handleZoom(evt,'out')"/>
                <use id="reset" xlink:href="#resetDef" x="30" y="36" onmousedown="handleReset()"/>
                <g id="arrowUp" xlink:href="#dirArrow" transform="translate(30 24)" onmousedown="handlePan(0,-1)">
                  <use xlink:href="#rim" fill="#404040">
                        <set attributeName="fill" to="#808080" begin="arrowUp.mouseover" end="arrowUp.mouseout"/>
                  </use>
                  <path fill="none" stroke="white" stroke-width="1.5" d="M0,-3.0v7 M-2.5,-0.5L0,-3.0L2.5,-0.5"/>
                </g>
                <g id="arrowRight" xlink:href="#dirArrow" transform="rotate(90) translate(36 -43)" onmousedown="handlePan(1,0)">
                  <use xlink:href="#rim" fill="#404040">
                        <set attributeName="fill" to="#808080" begin="arrowRight.mouseover" end="arrowRight.mouseout"/>
                  </use>
                  <path fill="none" stroke="white" stroke-width="1.5" d="M0,-3.0v7 M-2.5,-0.5L0,-3.0L2.5,-0.5"/>
                </g>
                <g id="arrowDown" xlink:href="#dirArrow" transform="rotate(180) translate(-30 -48)" onmousedown="handlePan(0,1)">
                  <use xlink:href="#rim" fill="#404040">
                        <set attributeName="fill" to="#808080" begin="arrowDown.mouseover" end="arrowDown.mouseout"/>
                  </use>
                  <path fill="none" stroke="white" stroke-width="1.5" d="M0,-3.0v7 M-2.5,-0.5L0,-3.0L2.5,-0.5"/>
                </g>
                <g id="arrowLeft" xlink:href="#dirArrow" transform="rotate(270) translate(-36 17)" onmousedown="handlePan(-1,0)">
                  <use xlink:href="#rim" fill="#404040">
                        <set attributeName="fill" to="#808080" begin="arrowLeft.mouseover" end="arrowLeft.mouseout"/>
                  </use>
                  <path fill="none" stroke="white" stroke-width="1.5" d="M0,-3.0v7 M-2.5,-0.5L0,-3.0L2.5,-0.5"/>
                </g>
        </g>
        <svg viewBox="0 0 15 15" width="100%" height="30px" preserveAspectRatio="xMaxYMin meet">
         <g id="arrow_out" transform="scale(0.3 0.3)">
          <a xlink:href="class_k4_u_1_1json_command_aa0629328322fb09be4494a0826bb19b5_icgraph_org.svg" target="_base">
           <rect id="button" ry="5" rx="5" y="6" x="6" height="38" width="38"
                fill="#f2f5e9" fill-opacity="0.5" stroke="#606060" stroke-width="1.0"/>
           <path id="arrow"
             d="M 11.500037,31.436501 C 11.940474,20.09759 22.043105,11.32322 32.158766,21.979434 L 37.068811,17.246167 C 37.068811,17.246167 37.088388,32 37.088388,32 L 22.160133,31.978069 C 22.160133,31.978069 26.997745,27.140456 26.997745,27.140456 C 18.528582,18.264221 13.291696,25.230495 11.500037,31.436501 z"
             style="fill:#404040;"/>
          </a>
         </g>
        </svg>
</svg>
