<?xml version="1.0" encoding="UTF-8" standalone="no"?>
<!DOCTYPE svg PUBLIC "-//W3C//DTD SVG 1.1//EN"
 "http://www.w3.org/Graphics/SVG/1.1/DTD/svg11.dtd">
<!-- Generated by graphviz version 2.30.1 (20130303.0817)
 -->
<!-- Title: K4U::jsonCommand::toJsonString Pages: 1 -->
<svg width="1100pt" height="701pt"
 viewBox="0.00 0.00 1100.00 701.23" xmlns="http://www.w3.org/2000/svg" xmlns:xlink="http://www.w3.org/1999/xlink">
<g id="graph0" class="graph" transform="scale(1 1) rotate(0) translate(4 697.233)">
<title>K4U::jsonCommand::toJsonString</title>
<polygon fill="white" stroke="white" points="-4,5 -4,-697.233 1097,-697.233 1097,5 -4,5"/>
<!-- Node1 -->
<g id="node1" class="node"><title>Node1</title>
<polygon fill="#bfbfbf" stroke="black" points="0,-423.233 0,-453.233 138,-453.233 138,-423.233 0,-423.233"/>
<text text-anchor="start" x="8" y="-441.233" font-family="Helvetica,sans-Serif" font-size="10.00">K4U::jsonCommand::toJson</text>
<text text-anchor="middle" x="69" y="-430.233" font-family="Helvetica,sans-Serif" font-size="10.00">String</text>
</g>
<!-- Node2 -->
<g id="node2" class="node"><title>Node2</title>
<g id="a_node2"><a xlink:href="../../d3/d65/classclient_1_1cls_server_conn.html#a997f9cd3d63321807f60472308acc459" target="_top" xlink:title="Send a JSON command to the server.">
<polygon fill="white" stroke="black" points="175,-565.233 175,-595.233 283,-595.233 283,-565.233 175,-565.233"/>
<text text-anchor="start" x="183" y="-583.233" font-family="Helvetica,sans-Serif" font-size="10.00">client::clsServerConn</text>
<text text-anchor="middle" x="229" y="-572.233" font-family="Helvetica,sans-Serif" font-size="10.00">::sendCommand</text>
</a>
</g>
</g>
<!-- Node1&#45;&gt;Node2 -->
<g id="edge1" class="edge"><title>Node1&#45;&gt;Node2</title>
<path fill="none" stroke="midnightblue" d="M94.6118,-460.352C127.049,-489.505 183.26,-540.023 211.213,-565.145"/>
<polygon fill="midnightblue" stroke="midnightblue" points="96.686,-457.51 86.9088,-453.429 92.0068,-462.717 96.686,-457.51"/>
</g>
<!-- Node8 -->
<g id="node8" class="node"><title>Node8</title>
<g id="a_node8"><a xlink:href="../../df/dd2/classserver_1_1ui_server.html#ab9e9ed944311c42f019c645c3e0539cf" target="_top" xlink:title="Sends a jsonCommand to all the clients.">
<polygon fill="white" stroke="black" points="174,-236.733 174,-255.733 284,-255.733 284,-236.733 174,-236.733"/>
<text text-anchor="middle" x="229" y="-243.733" font-family="Helvetica,sans-Serif" font-size="10.00">server::uiServer::send</text>
</a>
</g>
</g>
<!-- Node1&#45;&gt;Node8 -->
<g id="edge10" class="edge"><title>Node1&#45;&gt;Node8</title>
<path fill="none" stroke="midnightblue" d="M88.7927,-415.396C123.422,-373.315 195.965,-285.161 220.043,-255.902"/>
<polygon fill="midnightblue" stroke="midnightblue" points="86.0497,-413.221 82.398,-423.167 91.4549,-417.669 86.0497,-413.221"/>
</g>
<!-- Node3 -->
<g id="node3" class="node"><title>Node3</title>
<g id="a_node3"><a xlink:href="../../d2/da4/classclient_1_1_main_window.html#aa32adfb179341040f2decbd0da19f1d9" target="_top" xlink:title="client::MainWindow\l::sendChat">
<polygon fill="white" stroke="black" points="348.5,-565.233 348.5,-595.233 449.5,-595.233 449.5,-565.233 348.5,-565.233"/>
<text text-anchor="start" x="356.5" y="-583.233" font-family="Helvetica,sans-Serif" font-size="10.00">client::MainWindow</text>
<text text-anchor="middle" x="399" y="-572.233" font-family="Helvetica,sans-Serif" font-size="10.00">::sendChat</text>
</a>
</g>
</g>
<!-- Node2&#45;&gt;Node3 -->
<g id="edge2" class="edge"><title>Node2&#45;&gt;Node3</title>
<path fill="none" stroke="midnightblue" d="M293.38,-580.233C311.558,-580.233 331.109,-580.233 348.333,-580.233"/>
<polygon fill="midnightblue" stroke="midnightblue" points="293.156,-576.733 283.156,-580.233 293.156,-583.733 293.156,-576.733"/>
</g>
<!-- Node5 -->
<g id="node5" class="node"><title>Node5</title>
<g id="a_node5"><a xlink:href="../../d2/da4/classclient_1_1_main_window.html#a75d241698eb127c089ed4703fbeb4999" target="_top" xlink:title="client::MainWindow\l::commandGiven">
<polygon fill="white" stroke="black" points="348.5,-516.233 348.5,-546.233 449.5,-546.233 449.5,-516.233 348.5,-516.233"/>
<text text-anchor="start" x="356.5" y="-534.233" font-family="Helvetica,sans-Serif" font-size="10.00">client::MainWindow</text>
<text text-anchor="middle" x="399" y="-523.233" font-family="Helvetica,sans-Serif" font-size="10.00">::commandGiven</text>
</a>
</g>
</g>
<!-- Node2&#45;&gt;Node5 -->
<g id="edge4" class="edge"><title>Node2&#45;&gt;Node5</title>
<path fill="none" stroke="midnightblue" d="M291.413,-562.32C310.166,-556.851 330.542,-550.908 348.407,-545.697"/>
<polygon fill="midnightblue" stroke="midnightblue" points="290.396,-558.971 281.776,-565.131 292.356,-565.691 290.396,-558.971"/>
</g>
<!-- Node6 -->
<g id="node6" class="node"><title>Node6</title>
<g id="a_node6"><a xlink:href="../../d2/da4/classclient_1_1_main_window.html#aae9222490d9f0d71ffa6585c35416bfb" target="_top" xlink:title="client::MainWindow\l::serverConnected">
<polygon fill="white" stroke="black" points="348.5,-663.233 348.5,-693.233 449.5,-693.233 449.5,-663.233 348.5,-663.233"/>
<text text-anchor="start" x="356.5" y="-681.233" font-family="Helvetica,sans-Serif" font-size="10.00">client::MainWindow</text>
<text text-anchor="middle" x="399" y="-670.233" font-family="Helvetica,sans-Serif" font-size="10.00">::serverConnected</text>
</a>
</g>
</g>
<!-- Node2&#45;&gt;Node6 -->
<g id="edge6" class="edge"><title>Node2&#45;&gt;Node6</title>
<path fill="none" stroke="midnightblue" d="M252.304,-602.316C269.548,-618.346 294.68,-639.537 320,-653.233 328.755,-657.968 338.555,-661.983 348.172,-665.318"/>
<polygon fill="midnightblue" stroke="midnightblue" points="254.629,-599.699 244.963,-595.36 249.814,-604.779 254.629,-599.699"/>
</g>
<!-- Node7 -->
<g id="node7" class="node"><title>Node7</title>
<g id="a_node7"><a xlink:href="../../d2/da4/classclient_1_1_main_window.html#a13044cd00c53dbbbc6b945c0dfd9b4b4" target="_top" xlink:title="Triggered when the user query came back.">
<polygon fill="white" stroke="black" points="342,-614.233 342,-644.233 456,-644.233 456,-614.233 342,-614.233"/>
<text text-anchor="start" x="350" y="-632.233" font-family="Helvetica,sans-Serif" font-size="10.00">client::MainWindow</text>
<text text-anchor="middle" x="399" y="-621.233" font-family="Helvetica,sans-Serif" font-size="10.00">::userQueryCompleted</text>
</a>
</g>
</g>
<!-- Node2&#45;&gt;Node7 -->
<g id="edge8" class="edge"><title>Node2&#45;&gt;Node7</title>
<path fill="none" stroke="midnightblue" d="M291.601,-598.2C309.601,-603.45 329.082,-609.131 346.395,-614.181"/>
<polygon fill="midnightblue" stroke="midnightblue" points="292.356,-594.774 281.776,-595.334 290.396,-601.494 292.356,-594.774"/>
</g>
<!-- Node4 -->
<g id="node4" class="node"><title>Node4</title>
<g id="a_node4"><a xlink:href="../../d2/da4/classclient_1_1_main_window.html#ab4aedce719340218169c114b31b54f70" target="_top" xlink:title="client::MainWindow\l::MainWindow">
<polygon fill="white" stroke="black" points="545.5,-590.233 545.5,-620.233 646.5,-620.233 646.5,-590.233 545.5,-590.233"/>
<text text-anchor="start" x="553.5" y="-608.233" font-family="Helvetica,sans-Serif" font-size="10.00">client::MainWindow</text>
<text text-anchor="middle" x="596" y="-597.233" font-family="Helvetica,sans-Serif" font-size="10.00">::MainWindow</text>
</a>
</g>
</g>
<!-- Node3&#45;&gt;Node4 -->
<g id="edge3" class="edge"><title>Node3&#45;&gt;Node4</title>
<path fill="none" stroke="midnightblue" d="M459.955,-587.919C487.335,-591.429 519.379,-595.538 545.379,-598.871"/>
<polygon fill="midnightblue" stroke="midnightblue" points="460.075,-584.406 449.711,-586.606 459.185,-591.349 460.075,-584.406"/>
</g>
<!-- Node5&#45;&gt;Node4 -->
<g id="edge5" class="edge"><title>Node5&#45;&gt;Node4</title>
<path fill="none" stroke="midnightblue" d="M458.809,-549.48C465.312,-551.676 471.815,-553.951 478,-556.233 506.409,-566.712 538.053,-580.07 561.262,-590.191"/>
<polygon fill="midnightblue" stroke="midnightblue" points="459.913,-546.158 449.319,-546.327 457.706,-552.801 459.913,-546.158"/>
</g>
<!-- Node6&#45;&gt;Node4 -->
<g id="edge7" class="edge"><title>Node6&#45;&gt;Node4</title>
<path fill="none" stroke="midnightblue" d="M458.51,-660.035C465.11,-657.818 471.717,-655.524 478,-653.233 506.052,-643.001 537.319,-630.094 560.468,-620.241"/>
<polygon fill="midnightblue" stroke="midnightblue" points="457.278,-656.756 448.884,-663.22 459.477,-663.401 457.278,-656.756"/>
</g>
<!-- Node7&#45;&gt;Node4 -->
<g id="edge9" class="edge"><title>Node7&#45;&gt;Node4</title>
<path fill="none" stroke="midnightblue" d="M466.242,-621.08C492.092,-617.898 521.221,-614.313 545.227,-611.359"/>
<polygon fill="midnightblue" stroke="midnightblue" points="465.638,-617.628 456.14,-622.323 466.493,-624.575 465.638,-617.628"/>
</g>
<!-- Node9 -->
<g id="node9" class="node"><title>Node9</title>
<g id="a_node9"><a xlink:href="../../d1/d48/classserver_1_1main_app.html#a0970ee01d48b04ebc1390ffb8edecfc0" target="_top" xlink:title="Triggered when a chat has been received.">
<polygon fill="white" stroke="black" points="720,-126.733 720,-145.733 870,-145.733 870,-126.733 720,-126.733"/>
<text text-anchor="middle" x="795" y="-133.733" font-family="Helvetica,sans-Serif" font-size="10.00">server::mainApp::chatReceived</text>
</a>
</g>
</g>
<!-- Node8&#45;&gt;Node9 -->
<g id="edge11" class="edge"><title>Node8&#45;&gt;Node9</title>
<path fill="none" stroke="midnightblue" d="M250.69,-230.629C268.247,-218.138 294.568,-201.126 320,-191.233 453.956,-139.124 624.058,-132.384 719.783,-133.452"/>
<polygon fill="midnightblue" stroke="midnightblue" points="248.388,-227.976 242.359,-236.688 252.505,-233.637 248.388,-227.976"/>
</g>
<!-- Node12 -->
<g id="node12" class="node"><title>Node12</title>
<g id="a_node12"><a xlink:href="../../d1/d48/classserver_1_1main_app.html#a92448c1219ad89999c983b04adaa4236" target="_top" xlink:title="Triggered when a user joins trough a JOIN message.">
<polygon fill="white" stroke="black" points="526.5,-85.7325 526.5,-104.733 665.5,-104.733 665.5,-85.7325 526.5,-85.7325"/>
<text text-anchor="middle" x="596" y="-92.7325" font-family="Helvetica,sans-Serif" font-size="10.00">server::mainApp::userOnline</text>
</a>
</g>
</g>
<!-- Node8&#45;&gt;Node12 -->
<g id="edge14" class="edge"><title>Node8&#45;&gt;Node12</title>
<path fill="none" stroke="midnightblue" d="M237.401,-226.942C249.67,-197.91 277.199,-143.777 320,-119.233 382.985,-83.1142 467.732,-81.34 526.426,-85.9098"/>
<polygon fill="midnightblue" stroke="midnightblue" points="234.08,-225.818 233.571,-236.401 240.568,-228.446 234.08,-225.818"/>
</g>
<!-- Node13 -->
<g id="node13" class="node"><title>Node13</title>
<g id="a_node13"><a xlink:href="../../d1/d48/classserver_1_1main_app.html#aae86b15c001a235de78a90334e697b5f" target="_top" xlink:title="Triggered when a user leaves trough a PART message.">
<polygon fill="white" stroke="black" points="726,-48.7325 726,-67.7325 864,-67.7325 864,-48.7325 726,-48.7325"/>
<text text-anchor="middle" x="795" y="-55.7325" font-family="Helvetica,sans-Serif" font-size="10.00">server::mainApp::userOffline</text>
</a>
</g>
</g>
<!-- Node8&#45;&gt;Node13 -->
<g id="edge16" class="edge"><title>Node8&#45;&gt;Node13</title>
<path fill="none" stroke="midnightblue" d="M234.048,-226.637C242.683,-190.429 266.643,-113.698 320,-80.2325 385.689,-39.0321 611.081,-46.529 725.779,-53.3827"/>
<polygon fill="midnightblue" stroke="midnightblue" points="230.613,-225.956 231.844,-236.479 237.444,-227.486 230.613,-225.956"/>
</g>
<!-- Node14 -->
<g id="node14" class="node"><title>Node14</title>
<g id="a_node14"><a xlink:href="../../d1/d48/classserver_1_1main_app.html#ae15deb9260c486854af7fac7b063fdf5" target="_top" xlink:title="Triggered when a user changes his nickname (nick|Status)">
<polygon fill="white" stroke="black" points="514,-9.73254 514,-28.7325 678,-28.7325 678,-9.73254 514,-9.73254"/>
<text text-anchor="middle" x="596" y="-16.7325" font-family="Helvetica,sans-Serif" font-size="10.00">server::mainApp::userChangeNick</text>
</a>
</g>
</g>
<!-- Node8&#45;&gt;Node14 -->
<g id="edge18" class="edge"><title>Node8&#45;&gt;Node14</title>
<path fill="none" stroke="midnightblue" d="M232.213,-226.437C238.045,-184.635 257.931,-87.5693 320,-43.2325 386.783,4.47144 487.277,-0.907581 546.495,-9.6973"/>
<polygon fill="midnightblue" stroke="midnightblue" points="228.729,-226.097 230.942,-236.458 235.673,-226.978 228.729,-226.097"/>
</g>
<!-- Node15 -->
<g id="node15" class="node"><title>Node15</title>
<g id="a_node15"><a xlink:href="../../d1/d48/classserver_1_1main_app.html#aaa3dd74b510e2d797f21293a622a4f7d" target="_top" xlink:title="Triggered when a user changes his status (nick|Status)">
<polygon fill="white" stroke="black" points="723,-470.233 723,-500.233 867,-500.233 867,-470.233 723,-470.233"/>
<text text-anchor="start" x="731" y="-488.233" font-family="Helvetica,sans-Serif" font-size="10.00">server::mainApp::userChange</text>
<text text-anchor="middle" x="795" y="-477.233" font-family="Helvetica,sans-Serif" font-size="10.00">Status</text>
</a>
</g>
</g>
<!-- Node8&#45;&gt;Node15 -->
<g id="edge20" class="edge"><title>Node8&#45;&gt;Node15</title>
<path fill="none" stroke="midnightblue" d="M231.665,-266.243C236.48,-309.853 254.588,-413.231 320,-459.233 383.032,-503.56 606.897,-497.001 722.996,-490.245"/>
<polygon fill="midnightblue" stroke="midnightblue" points="235.127,-265.679 230.669,-256.068 228.16,-266.361 235.127,-265.679"/>
</g>
<!-- Node16 -->
<g id="node16" class="node"><title>Node16</title>
<g id="a_node16"><a xlink:href="../../d1/d48/classserver_1_1main_app.html#aea819e4b8f297de7f1e3fc2f8513b0a4" target="_top" xlink:title="Triggered when a UI client wants all the users.">
<polygon fill="white" stroke="black" points="521.5,-439.733 521.5,-458.733 670.5,-458.733 670.5,-439.733 521.5,-439.733"/>
<text text-anchor="middle" x="596" y="-446.733" font-family="Helvetica,sans-Serif" font-size="10.00">server::mainApp::doUserQuery</text>
</a>
</g>
</g>
<!-- Node8&#45;&gt;Node16 -->
<g id="edge22" class="edge"><title>Node8&#45;&gt;Node16</title>
<path fill="none" stroke="midnightblue" d="M233.469,-266.06C241.297,-304.207 264.193,-387.381 320,-425.233 386.434,-470.292 483.662,-466.661 542.946,-458.766"/>
<polygon fill="midnightblue" stroke="midnightblue" points="236.893,-265.33 231.575,-256.167 230.018,-266.646 236.893,-265.33"/>
</g>
<!-- Node17 -->
<g id="node17" class="node"><title>Node17</title>
<g id="a_node17"><a xlink:href="../../d1/d48/classserver_1_1main_app.html#aba9c03c1c353a57f43404bb149bee50b" target="_top" xlink:title="Triggered when a UI client wants all the events known to the server.">
<polygon fill="white" stroke="black" points="717.5,-390.733 717.5,-409.733 872.5,-409.733 872.5,-390.733 717.5,-390.733"/>
<text text-anchor="middle" x="795" y="-397.733" font-family="Helvetica,sans-Serif" font-size="10.00">server::mainApp::doSendEvents</text>
</a>
</g>
</g>
<!-- Node8&#45;&gt;Node17 -->
<g id="edge24" class="edge"><title>Node8&#45;&gt;Node17</title>
<path fill="none" stroke="midnightblue" d="M251.167,-261.586C296.559,-293.46 407.781,-366.018 514,-392.233 581.28,-408.837 660.416,-409.435 717.363,-406.701"/>
<polygon fill="midnightblue" stroke="midnightblue" points="253.168,-258.714 242.988,-255.779 249.116,-264.422 253.168,-258.714"/>
</g>
<!-- Node18 -->
<g id="node18" class="node"><title>Node18</title>
<g id="a_node18"><a xlink:href="../../d1/d48/classserver_1_1main_app.html#a7263ca5b3630b0a2774f556b96c333c8" target="_top" xlink:title="For logging to the clients.">
<polygon fill="white" stroke="black" points="320,-268.733 320,-287.733 478,-287.733 478,-268.733 320,-268.733"/>
<text text-anchor="middle" x="399" y="-275.733" font-family="Helvetica,sans-Serif" font-size="10.00">server::mainApp::serverMessage</text>
</a>
</g>
</g>
<!-- Node8&#45;&gt;Node18 -->
<g id="edge26" class="edge"><title>Node8&#45;&gt;Node18</title>
<path fill="none" stroke="midnightblue" d="M289.988,-257.659C308.971,-261.275 329.741,-265.231 347.952,-268.7"/>
<polygon fill="midnightblue" stroke="midnightblue" points="290.429,-254.18 279.951,-255.747 289.119,-261.056 290.429,-254.18"/>
</g>
<!-- Node23 -->
<g id="node23" class="node"><title>Node23</title>
<g id="a_node23"><a xlink:href="../../df/dd2/classserver_1_1ui_server.html#a1d221672f6efb29189e6ce398f7b07e3" target="_top" xlink:title="Triggered when a client wants to change something about our own user.">
<polygon fill="white" stroke="black" points="339,-200.233 339,-230.233 459,-230.233 459,-200.233 339,-200.233"/>
<text text-anchor="start" x="347" y="-218.233" font-family="Helvetica,sans-Serif" font-size="10.00">server::uiServer::change</text>
<text text-anchor="middle" x="399" y="-207.233" font-family="Helvetica,sans-Serif" font-size="10.00">OwnUser</text>
</a>
</g>
</g>
<!-- Node8&#45;&gt;Node23 -->
<g id="edge37" class="edge"><title>Node8&#45;&gt;Node23</title>
<path fill="none" stroke="midnightblue" d="M291.697,-234.848C307.066,-232.012 323.508,-228.978 338.756,-226.165"/>
<polygon fill="midnightblue" stroke="midnightblue" points="290.975,-231.422 281.776,-236.679 292.245,-238.306 290.975,-231.422"/>
</g>
<!-- Node10 -->
<g id="node10" class="node"><title>Node10</title>
<g id="a_node10"><a xlink:href="../../d1/d48/classserver_1_1main_app.html#af331bc3bf60e745f3ddc95ab3abe5188" target="_top" xlink:title="server::mainApp::run">
<polygon fill="white" stroke="black" points="912,-249.733 912,-268.733 1018,-268.733 1018,-249.733 912,-249.733"/>
<text text-anchor="middle" x="965" y="-256.733" font-family="Helvetica,sans-Serif" font-size="10.00">server::mainApp::run</text>
</a>
</g>
</g>
<!-- Node9&#45;&gt;Node10 -->
<g id="edge12" class="edge"><title>Node9&#45;&gt;Node10</title>
<path fill="none" stroke="midnightblue" d="M857.706,-149.179C864.117,-151.69 870.347,-154.678 876,-158.233 914.788,-182.617 945.991,-229.282 958.313,-249.497"/>
<polygon fill="midnightblue" stroke="midnightblue" points="858.823,-145.862 848.228,-145.832 856.492,-152.462 858.823,-145.862"/>
</g>
<!-- Node11 -->
<g id="node11" class="node"><title>Node11</title>
<g id="a_node11"><a xlink:href="../../dc/d17/custom_irc_server_2main_8cpp.html#a0ddf1224851353fc92bfbff6f499fa97" target="_top" xlink:title="main">
<polygon fill="white" stroke="black" points="1054,-249.733 1054,-268.733 1092,-268.733 1092,-249.733 1054,-249.733"/>
<text text-anchor="middle" x="1073" y="-256.733" font-family="Helvetica,sans-Serif" font-size="10.00">main</text>
</a>
</g>
</g>
<!-- Node10&#45;&gt;Node11 -->
<g id="edge13" class="edge"><title>Node10&#45;&gt;Node11</title>
<path fill="none" stroke="midnightblue" d="M1028.21,-259.233C1037.46,-259.233 1046.33,-259.233 1053.64,-259.233"/>
<polygon fill="midnightblue" stroke="midnightblue" points="1028.07,-255.733 1018.07,-259.233 1028.07,-262.733 1028.07,-255.733"/>
</g>
<!-- Node12&#45;&gt;Node10 -->
<g id="edge15" class="edge"><title>Node12&#45;&gt;Node10</title>
<path fill="none" stroke="midnightblue" d="M662.402,-84.5629C722.4,-78.2429 811.482,-77.9114 876,-117.233 927.513,-148.628 953.411,-222.748 961.312,-249.439"/>
<polygon fill="midnightblue" stroke="midnightblue" points="661.831,-81.1051 652.291,-85.7133 662.623,-88.0602 661.831,-81.1051"/>
</g>
<!-- Node13&#45;&gt;Node10 -->
<g id="edge17" class="edge"><title>Node13&#45;&gt;Node10</title>
<path fill="none" stroke="midnightblue" d="M857.197,-71.55C863.982,-74.6621 870.438,-78.4999 876,-83.2325 931.158,-130.167 955.31,-220.065 961.983,-249.582"/>
<polygon fill="midnightblue" stroke="midnightblue" points="858.375,-68.2511 847.792,-67.7404 855.747,-74.739 858.375,-68.2511"/>
</g>
<!-- Node14&#45;&gt;Node10 -->
<g id="edge19" class="edge"><title>Node14&#45;&gt;Node10</title>
<path fill="none" stroke="midnightblue" d="M648.579,-7.8565C709.117,2.37169 809.648,9.24005 876,-39.2325 948.413,-92.1329 961.312,-214.472 963.545,-249.626"/>
<polygon fill="midnightblue" stroke="midnightblue" points="647.719,-4.45457 638.488,-9.65531 648.948,-11.3459 647.719,-4.45457"/>
</g>
<!-- Node15&#45;&gt;Node10 -->
<g id="edge21" class="edge"><title>Node15&#45;&gt;Node10</title>
<path fill="none" stroke="midnightblue" d="M860.725,-465.481C866.253,-462.259 871.458,-458.535 876,-454.233 933.707,-399.574 956.429,-300.033 962.331,-268.843"/>
<polygon fill="midnightblue" stroke="midnightblue" points="859.059,-462.402 851.821,-470.139 862.304,-468.605 859.059,-462.402"/>
</g>
<!-- Node16&#45;&gt;Node10 -->
<g id="edge23" class="edge"><title>Node16&#45;&gt;Node10</title>
<path fill="none" stroke="midnightblue" d="M677.636,-459.398C737.25,-462.714 817.834,-457.97 876,-419.233 931.674,-382.154 955.355,-297.503 961.959,-268.889"/>
<polygon fill="midnightblue" stroke="midnightblue" points="677.712,-455.896 667.508,-458.746 677.263,-462.881 677.712,-455.896"/>
</g>
<!-- Node17&#45;&gt;Node10 -->
<g id="edge25" class="edge"><title>Node17&#45;&gt;Node10</title>
<path fill="none" stroke="midnightblue" d="M845.307,-387.234C855.998,-383.12 866.836,-377.862 876,-371.233 916.07,-342.243 947.242,-290.19 958.962,-268.804"/>
<polygon fill="midnightblue" stroke="midnightblue" points="843.828,-384.045 835.582,-390.697 846.176,-390.64 843.828,-384.045"/>
</g>
<!-- Node18&#45;&gt;Node10 -->
<g id="edge27" class="edge"><title>Node18&#45;&gt;Node10</title>
<path fill="none" stroke="midnightblue" d="M470.835,-267.182C485.11,-265.092 500.023,-263.008 514,-261.233 673.875,-240.928 715.751,-223.13 876,-240.233 893.407,-242.09 912.426,-245.959 928.316,-249.724"/>
<polygon fill="midnightblue" stroke="midnightblue" points="469.955,-263.774 460.575,-268.7 470.979,-270.699 469.955,-263.774"/>
</g>
<!-- Node19 -->
<g id="node19" class="node"><title>Node19</title>
<g id="a_node19"><a xlink:href="../../d1/d48/classserver_1_1main_app.html#a931aedd34bb38252acfc8880f9716fab" target="_top" xlink:title="Triggered when the IRC client cannot connect.">
<polygon fill="white" stroke="black" points="725.5,-288.233 725.5,-318.233 864.5,-318.233 864.5,-288.233 725.5,-288.233"/>
<text text-anchor="start" x="733.5" y="-306.233" font-family="Helvetica,sans-Serif" font-size="10.00">server::mainApp::ircConnect</text>
<text text-anchor="middle" x="795" y="-295.233" font-family="Helvetica,sans-Serif" font-size="10.00">TimeOut</text>
</a>
</g>
</g>
<!-- Node18&#45;&gt;Node19 -->
<g id="edge28" class="edge"><title>Node18&#45;&gt;Node19</title>
<path fill="none" stroke="midnightblue" d="M431.131,-291.64C453.668,-300.59 485.119,-311.546 514,-316.233 585.452,-327.828 668.404,-321.559 725.368,-314.271"/>
<polygon fill="midnightblue" stroke="midnightblue" points="432.33,-288.349 421.748,-287.825 429.694,-294.834 432.33,-288.349"/>
</g>
<!-- Node20 -->
<g id="node20" class="node"><title>Node20</title>
<g id="a_node20"><a xlink:href="../../d1/d48/classserver_1_1main_app.html#a6e6e952e3048cfeefcdfeea7bbb5b83e" target="_top" xlink:title="Triggered when the IRC client has connected.">
<polygon fill="white" stroke="black" points="521.5,-363.733 521.5,-382.733 670.5,-382.733 670.5,-363.733 521.5,-363.733"/>
<text text-anchor="middle" x="596" y="-370.733" font-family="Helvetica,sans-Serif" font-size="10.00">server::mainApp::ircConnected</text>
</a>
</g>
</g>
<!-- Node18&#45;&gt;Node20 -->
<g id="edge30" class="edge"><title>Node18&#45;&gt;Node20</title>
<path fill="none" stroke="midnightblue" d="M421.004,-293.738C443.176,-309.51 479.609,-333.77 514,-349.233 526.976,-355.067 541.747,-359.925 555.091,-363.71"/>
<polygon fill="midnightblue" stroke="midnightblue" points="422.853,-290.756 412.695,-287.747 418.76,-296.434 422.853,-290.756"/>
</g>
<!-- Node21 -->
<g id="node21" class="node"><title>Node21</title>
<g id="a_node21"><a xlink:href="../../d1/d48/classserver_1_1main_app.html#af6e8c9d1f06514b33e5f88f9e66884be" target="_top" xlink:title="Triggered when the IRC client has disconnected.">
<polygon fill="white" stroke="black" points="714,-249.733 714,-268.733 876,-268.733 876,-249.733 714,-249.733"/>
<text text-anchor="middle" x="795" y="-256.733" font-family="Helvetica,sans-Serif" font-size="10.00">server::mainApp::ircDisconnected</text>
</a>
</g>
</g>
<!-- Node18&#45;&gt;Node21 -->
<g id="edge32" class="edge"><title>Node18&#45;&gt;Node21</title>
<path fill="none" stroke="midnightblue" d="M488.516,-273.964C556.084,-270.706 648.394,-266.254 713.808,-263.1"/>
<polygon fill="midnightblue" stroke="midnightblue" points="488.133,-270.478 478.313,-274.456 488.47,-277.47 488.133,-270.478"/>
</g>
<!-- Node22 -->
<g id="node22" class="node"><title>Node22</title>
<g id="a_node22"><a xlink:href="../../d1/d48/classserver_1_1main_app.html#aa9d4c2e1dc5216901c4f8743838d4561" target="_top" xlink:title="Emitted when the reconnect timer reaches 0.">
<polygon fill="white" stroke="black" points="516,-287.733 516,-306.733 676,-306.733 676,-287.733 516,-287.733"/>
<text text-anchor="middle" x="596" y="-294.733" font-family="Helvetica,sans-Serif" font-size="10.00">server::mainApp::doIrcReconnect</text>
</a>
</g>
</g>
<!-- Node18&#45;&gt;Node22 -->
<g id="edge34" class="edge"><title>Node18&#45;&gt;Node22</title>
<path fill="none" stroke="midnightblue" d="M488.145,-286.821C497.375,-287.72 506.717,-288.631 515.838,-289.519"/>
<polygon fill="midnightblue" stroke="midnightblue" points="488.483,-283.337 478.19,-285.851 487.804,-290.304 488.483,-283.337"/>
</g>
<!-- Node19&#45;&gt;Node10 -->
<g id="edge29" class="edge"><title>Node19&#45;&gt;Node10</title>
<path fill="none" stroke="midnightblue" d="M863.313,-285.603C885.298,-279.845 908.873,-273.671 927.68,-268.745"/>
<polygon fill="midnightblue" stroke="midnightblue" points="862.133,-282.294 853.346,-288.213 863.907,-289.065 862.133,-282.294"/>
</g>
<!-- Node20&#45;&gt;Node10 -->
<g id="edge31" class="edge"><title>Node20&#45;&gt;Node10</title>
<path fill="none" stroke="midnightblue" d="M680.637,-370.157C737.702,-365.526 813.901,-354.27 876,-327.233 908.572,-313.051 939.783,-284.126 954.762,-268.978"/>
<polygon fill="midnightblue" stroke="midnightblue" points="680.278,-366.674 670.572,-370.921 680.808,-373.654 680.278,-366.674"/>
</g>
<!-- Node21&#45;&gt;Node10 -->
<g id="edge33" class="edge"><title>Node21&#45;&gt;Node10</title>
<path fill="none" stroke="midnightblue" d="M886.335,-259.233C895.069,-259.233 903.71,-259.233 911.879,-259.233"/>
<polygon fill="midnightblue" stroke="midnightblue" points="886.064,-255.733 876.064,-259.233 886.064,-262.733 886.064,-255.733"/>
</g>
<!-- Node22&#45;&gt;Node19 -->
<g id="edge35" class="edge"><title>Node22&#45;&gt;Node19</title>
<path fill="none" stroke="midnightblue" d="M686.639,-299.963C699.639,-300.359 712.846,-300.761 725.345,-301.142"/>
<polygon fill="midnightblue" stroke="midnightblue" points="686.378,-296.453 676.276,-299.647 686.165,-303.45 686.378,-296.453"/>
</g>
<!-- Node22&#45;&gt;Node21 -->
<g id="edge36" class="edge"><title>Node22&#45;&gt;Node21</title>
<path fill="none" stroke="midnightblue" d="M656.564,-285.743C684.672,-280.321 717.822,-273.927 744.523,-268.776"/>
<polygon fill="midnightblue" stroke="midnightblue" points="655.613,-282.362 646.457,-287.693 656.939,-289.235 655.613,-282.362"/>
</g>
<!-- Node24 -->
<g id="node24" class="node"><title>Node24</title>
<g id="a_node24"><a xlink:href="../../df/dd2/classserver_1_1ui_server.html#af8300a694de27369a5f5d1a95ed1cc37" target="_top" xlink:title="Triggered when a client connects.">
<polygon fill="white" stroke="black" points="537,-162.233 537,-192.233 655,-192.233 655,-162.233 537,-162.233"/>
<text text-anchor="start" x="545" y="-180.233" font-family="Helvetica,sans-Serif" font-size="10.00">server::uiServer::accept</text>
<text text-anchor="middle" x="596" y="-169.233" font-family="Helvetica,sans-Serif" font-size="10.00">Connection</text>
</a>
</g>
</g>
<!-- Node23&#45;&gt;Node24 -->
<g id="edge38" class="edge"><title>Node23&#45;&gt;Node24</title>
<path fill="none" stroke="midnightblue" d="M469.05,-201.777C491.216,-197.457 515.531,-192.719 536.836,-188.567"/>
<polygon fill="midnightblue" stroke="midnightblue" points="468.181,-198.38 459.036,-203.728 469.52,-205.251 468.181,-198.38"/>
</g>
<!-- Node25 -->
<g id="node25" class="node"><title>Node25</title>
<g id="a_node25"><a xlink:href="../../df/dd2/classserver_1_1ui_server.html#a55e34b95359692ea9002408075e18b1a" target="_top" xlink:title="uiServer constructor">
<polygon fill="white" stroke="black" points="733.5,-167.733 733.5,-186.733 856.5,-186.733 856.5,-167.733 733.5,-167.733"/>
<text text-anchor="middle" x="795" y="-174.733" font-family="Helvetica,sans-Serif" font-size="10.00">server::uiServer::uiServer</text>
</a>
</g>
</g>
<!-- Node24&#45;&gt;Node25 -->
<g id="edge39" class="edge"><title>Node24&#45;&gt;Node25</title>
<path fill="none" stroke="midnightblue" d="M665.052,-177.233C687.23,-177.233 711.692,-177.233 733.294,-177.233"/>
<polygon fill="midnightblue" stroke="midnightblue" points="665.041,-173.733 655.041,-177.233 665.041,-180.733 665.041,-173.733"/>
</g>
</g>
</svg>
