<?xml version="1.0" encoding="UTF-8" standalone="no"?>
<!DOCTYPE svg PUBLIC "-//W3C//DTD SVG 1.1//EN"
 "http://www.w3.org/Graphics/SVG/1.1/DTD/svg11.dtd">
<!-- Generated by graphviz version 2.30.1 (20130303.0817)
 -->
<!-- Title: K4U::jsonCommand::jsonCommand Pages: 1 -->
<svg width="394pt" height="66pt"
 viewBox="0.00 0.00 394.00 66.00" xmlns="http://www.w3.org/2000/svg" xmlns:xlink="http://www.w3.org/1999/xlink">
<g id="graph0" class="graph" transform="scale(1 1) rotate(0) translate(4 62)">
<title>K4U::jsonCommand::jsonCommand</title>
<polygon fill="white" stroke="white" points="-4,5 -4,-62 391,-62 391,5 -4,5"/>
<!-- Node1 -->
<g id="node1" class="node"><title>Node1</title>
<polygon fill="#bfbfbf" stroke="black" points="0,-19.5 0,-38.5 172,-38.5 172,-19.5 0,-19.5"/>
<text text-anchor="middle" x="86" y="-26.5" font-family="Helvetica,sans-Serif" font-size="10.00">K4U::jsonCommand::jsonCommand</text>
</g>
<!-- Node2 -->
<g id="node2" class="node"><title>Node2</title>
<g id="a_node2"><a xlink:href="../../d2/d6d/namespace_qt_json.html#ad92865ae39b2b148f6c788d7cf28c894" target="_top" xlink:title="QtJson::parse">
<polygon fill="white" stroke="black" points="258.5,-38.5 258.5,-57.5 335.5,-57.5 335.5,-38.5 258.5,-38.5"/>
<text text-anchor="middle" x="297" y="-45.5" font-family="Helvetica,sans-Serif" font-size="10.00">QtJson::parse</text>
</a>
</g>
</g>
<!-- Node1&#45;&gt;Node2 -->
<g id="edge1" class="edge"><title>Node1&#45;&gt;Node2</title>
<path fill="none" stroke="midnightblue" d="M172.008,-36.728C198.077,-39.0979 225.824,-41.6204 248.445,-43.6769"/>
<polygon fill="midnightblue" stroke="midnightblue" points="248.178,-47.1669 258.454,-44.5867 248.812,-40.1957 248.178,-47.1669"/>
</g>
<!-- Node3 -->
<g id="node3" class="node"><title>Node3</title>
<g id="a_node3"><a xlink:href="../../d2/dc1/class_k4_u_1_1json_command.html#af6610a609295d3aa428d46260a33e1de" target="_top" xlink:title="K4U::jsonCommand::setCommandInt">
<polygon fill="white" stroke="black" points="208,-0.5 208,-19.5 386,-19.5 386,-0.5 208,-0.5"/>
<text text-anchor="middle" x="297" y="-7.5" font-family="Helvetica,sans-Serif" font-size="10.00">K4U::jsonCommand::setCommandInt</text>
</a>
</g>
</g>
<!-- Node1&#45;&gt;Node3 -->
<g id="edge2" class="edge"><title>Node1&#45;&gt;Node3</title>
<path fill="none" stroke="midnightblue" d="M172.008,-21.272C180.456,-20.504 189.08,-19.72 197.649,-18.941"/>
<polygon fill="midnightblue" stroke="midnightblue" points="198.026,-22.4212 207.668,-18.0302 197.392,-15.45 198.026,-22.4212"/>
</g>
</g>
</svg>
