<?xml version="1.0" encoding="UTF-8" standalone="no"?>
<!DOCTYPE svg PUBLIC "-//W3C//DTD SVG 1.1//EN"
 "http://www.w3.org/Graphics/SVG/1.1/DTD/svg11.dtd">
<!-- Generated by graphviz version 2.30.1 (20130303.0817)
 -->
<!-- Title: K4U::jsonCommand::getCommand Pages: 1 -->
<svg width="648pt" height="141pt"
 viewBox="0.00 0.00 648.00 140.95" xmlns="http://www.w3.org/2000/svg" xmlns:xlink="http://www.w3.org/1999/xlink">
<g id="graph0" class="graph" transform="scale(1 1) rotate(0) translate(4 136.947)">
<title>K4U::jsonCommand::getCommand</title>
<polygon fill="white" stroke="white" points="-4,5 -4,-136.947 645,-136.947 645,5 -4,5"/>
<!-- Node1 -->
<g id="node1" class="node"><title>Node1</title>
<polygon fill="#bfbfbf" stroke="black" points="0.5,-42.4469 0.5,-61.4469 167.5,-61.4469 167.5,-42.4469 0.5,-42.4469"/>
<text text-anchor="middle" x="84" y="-49.4469" font-family="Helvetica,sans-Serif" font-size="10.00">K4U::jsonCommand::getCommand</text>
</g>
<!-- Node2 -->
<g id="node2" class="node"><title>Node2</title>
<g id="a_node2"><a xlink:href="../../d3/d65/classclient_1_1cls_server_conn.html#a8fc1a3ef72ba0480d521781f84983afe" target="_top" xlink:title="Adds data to buffer and checks for json commands.">
<polygon fill="white" stroke="black" points="204,-102.947 204,-132.947 332,-132.947 332,-102.947 204,-102.947"/>
<text text-anchor="start" x="212" y="-120.947" font-family="Helvetica,sans-Serif" font-size="10.00">client::clsServerConn</text>
<text text-anchor="middle" x="268" y="-109.947" font-family="Helvetica,sans-Serif" font-size="10.00">::checkForJsonCommand</text>
</a>
</g>
</g>
<!-- Node1&#45;&gt;Node2 -->
<g id="edge1" class="edge"><title>Node1&#45;&gt;Node2</title>
<path fill="none" stroke="midnightblue" d="M121.123,-65.0464C151.143,-75.9329 193.881,-91.4312 225.341,-102.84"/>
<polygon fill="midnightblue" stroke="midnightblue" points="122.059,-61.6627 111.464,-61.5439 119.672,-68.2434 122.059,-61.6627"/>
</g>
<!-- Node3 -->
<g id="node3" class="node"><title>Node3</title>
<g id="a_node3"><a xlink:href="../../d3/d65/classclient_1_1cls_server_conn.html#a0f7c8da07639a563b9d88780eb22748e" target="_top" xlink:title="client::clsServerConn\l::readData">
<polygon fill="white" stroke="black" points="372,-70.9469 372,-100.947 480,-100.947 480,-70.9469 372,-70.9469"/>
<text text-anchor="start" x="380" y="-88.9469" font-family="Helvetica,sans-Serif" font-size="10.00">client::clsServerConn</text>
<text text-anchor="middle" x="426" y="-77.9469" font-family="Helvetica,sans-Serif" font-size="10.00">::readData</text>
</a>
</g>
</g>
<!-- Node1&#45;&gt;Node3 -->
<g id="edge4" class="edge"><title>Node1&#45;&gt;Node3</title>
<path fill="none" stroke="midnightblue" d="M177.977,-61.2446C240.304,-67.4773 320.146,-75.4615 371.922,-80.6391"/>
<polygon fill="midnightblue" stroke="midnightblue" points="178.037,-57.7333 167.739,-60.2208 177.341,-64.6985 178.037,-57.7333"/>
</g>
<!-- Node5 -->
<g id="node5" class="node"><title>Node5</title>
<g id="a_node5"><a xlink:href="../../dc/d4d/classserver_1_1ui_client.html#a8237b1a02c7877a7c853b6ef23995b9b" target="_top" xlink:title="Adds data to buffer and checks for json commands.">
<polygon fill="white" stroke="black" points="204.5,-14.9469 204.5,-44.9469 331.5,-44.9469 331.5,-14.9469 204.5,-14.9469"/>
<text text-anchor="start" x="212.5" y="-32.9469" font-family="Helvetica,sans-Serif" font-size="10.00">server::uiClient::checkFor</text>
<text text-anchor="middle" x="268" y="-21.9469" font-family="Helvetica,sans-Serif" font-size="10.00">JsonCommand</text>
</a>
</g>
</g>
<!-- Node1&#45;&gt;Node5 -->
<g id="edge5" class="edge"><title>Node1&#45;&gt;Node5</title>
<path fill="none" stroke="midnightblue" d="M173.979,-41.1913C184.218,-39.9535 194.492,-38.7116 204.281,-37.5283"/>
<polygon fill="midnightblue" stroke="midnightblue" points="173.277,-37.7505 163.769,-42.4253 174.117,-44.6999 173.277,-37.7505"/>
</g>
<!-- Node6 -->
<g id="node6" class="node"><title>Node6</title>
<g id="a_node6"><a xlink:href="../../dc/d4d/classserver_1_1ui_client.html#afdda23f96c586fdcb47f1abad7be99f5" target="_top" xlink:title="server::uiClient::receive\lMessage">
<polygon fill="white" stroke="black" points="368,-2.9469 368,-32.9469 484,-32.9469 484,-2.9469 368,-2.9469"/>
<text text-anchor="start" x="376" y="-20.9469" font-family="Helvetica,sans-Serif" font-size="10.00">server::uiClient::receive</text>
<text text-anchor="middle" x="426" y="-9.9469" font-family="Helvetica,sans-Serif" font-size="10.00">Message</text>
</a>
</g>
</g>
<!-- Node1&#45;&gt;Node6 -->
<g id="edge8" class="edge"><title>Node1&#45;&gt;Node6</title>
<path fill="none" stroke="midnightblue" d="M112.374,-38.0174C135.96,-26.8431 171.275,-12.0517 204,-5.9469 258.96,4.30587 322.836,-0.972268 367.739,-7.43901"/>
<polygon fill="midnightblue" stroke="midnightblue" points="110.805,-34.8885 103.331,-42.398 113.857,-41.1883 110.805,-34.8885"/>
</g>
<!-- Node2&#45;&gt;Node3 -->
<g id="edge2" class="edge"><title>Node2&#45;&gt;Node3</title>
<path fill="none" stroke="midnightblue" d="M341.982,-102.976C352.024,-100.916 362.178,-98.8334 371.774,-96.8651"/>
<polygon fill="midnightblue" stroke="midnightblue" points="341.094,-99.5854 332.002,-105.024 342.501,-106.443 341.094,-99.5854"/>
</g>
<!-- Node4 -->
<g id="node4" class="node"><title>Node4</title>
<g id="a_node4"><a xlink:href="../../d3/d65/classclient_1_1cls_server_conn.html#ad9d8caf021df2cd15ce27bcf207d86d0" target="_top" xlink:title="Constructor taking a hostname and port.">
<polygon fill="white" stroke="black" points="526,-70.9469 526,-100.947 634,-100.947 634,-70.9469 526,-70.9469"/>
<text text-anchor="start" x="534" y="-88.9469" font-family="Helvetica,sans-Serif" font-size="10.00">client::clsServerConn</text>
<text text-anchor="middle" x="580" y="-77.9469" font-family="Helvetica,sans-Serif" font-size="10.00">::clsServerConn</text>
</a>
</g>
</g>
<!-- Node3&#45;&gt;Node4 -->
<g id="edge3" class="edge"><title>Node3&#45;&gt;Node4</title>
<path fill="none" stroke="midnightblue" d="M490.396,-85.9469C502.196,-85.9469 514.414,-85.9469 525.868,-85.9469"/>
<polygon fill="midnightblue" stroke="midnightblue" points="490.162,-82.447 480.162,-85.9469 490.162,-89.447 490.162,-82.447"/>
</g>
<!-- Node5&#45;&gt;Node6 -->
<g id="edge6" class="edge"><title>Node5&#45;&gt;Node6</title>
<path fill="none" stroke="midnightblue" d="M341.803,-24.3467C350.592,-23.6706 359.47,-22.9877 367.987,-22.3325"/>
<polygon fill="midnightblue" stroke="midnightblue" points="341.254,-20.8784 331.552,-25.1352 341.791,-27.8578 341.254,-20.8784"/>
</g>
<!-- Node7 -->
<g id="node7" class="node"><title>Node7</title>
<g id="a_node7"><a xlink:href="../../dc/d4d/classserver_1_1ui_client.html#a215d811cbfada73ff8344ed7e5664113" target="_top" xlink:title="uiClient constructor">
<polygon fill="white" stroke="black" points="520.5,-8.4469 520.5,-27.4469 639.5,-27.4469 639.5,-8.4469 520.5,-8.4469"/>
<text text-anchor="middle" x="580" y="-15.4469" font-family="Helvetica,sans-Serif" font-size="10.00">server::uiClient::uiClient</text>
</a>
</g>
</g>
<!-- Node6&#45;&gt;Node7 -->
<g id="edge7" class="edge"><title>Node6&#45;&gt;Node7</title>
<path fill="none" stroke="midnightblue" d="M494.182,-17.9469C502.914,-17.9469 511.804,-17.9469 520.381,-17.9469"/>
<polygon fill="midnightblue" stroke="midnightblue" points="494.032,-14.447 484.032,-17.9469 494.032,-21.447 494.032,-14.447"/>
</g>
</g>
</svg>
