<?xml version="1.0" encoding="UTF-8" standalone="no"?>
<!DOCTYPE svg PUBLIC "-//W3C//DTD SVG 1.1//EN"
 "http://www.w3.org/Graphics/SVG/1.1/DTD/svg11.dtd">
<!-- Generated by graphviz version 2.30.1 (20130303.0817)
 -->
<!-- Title: server::ircClient::connectTimeout Pages: 1 -->
<svg width="846pt" height="165pt"
 viewBox="0.00 0.00 846.00 165.00" xmlns="http://www.w3.org/2000/svg" xmlns:xlink="http://www.w3.org/1999/xlink">
<g id="graph0" class="graph" transform="scale(1 1) rotate(0) translate(4 161)">
<title>server::ircClient::connectTimeout</title>
<polygon fill="white" stroke="white" points="-4,5 -4,-161 843,-161 843,5 -4,5"/>
<!-- Node1 -->
<g id="node1" class="node"><title>Node1</title>
<polygon fill="#bfbfbf" stroke="black" points="0.5,-105 0.5,-135 89.5,-135 89.5,-105 0.5,-105"/>
<text text-anchor="start" x="8.5" y="-123" font-family="Helvetica,sans-Serif" font-size="10.00">server::ircClient::</text>
<text text-anchor="middle" x="45" y="-112" font-family="Helvetica,sans-Serif" font-size="10.00">connectTimeout</text>
</g>
<!-- Node2 -->
<g id="node2" class="node"><title>Node2</title>
<g id="a_node2"><a xlink:href="../../d1/d10/classserver_1_1irc_client.html#a3991833ddcff72ca94d4c0ec588012ac" target="_top" xlink:title="Initializes the IRC Client. Does not yet connect!">
<polygon fill="white" stroke="black" points="126,-132.5 126,-151.5 228,-151.5 228,-132.5 126,-132.5"/>
<text text-anchor="middle" x="177" y="-139.5" font-family="Helvetica,sans-Serif" font-size="10.00">server::ircClient::init</text>
</a>
</g>
</g>
<!-- Node1&#45;&gt;Node2 -->
<g id="edge1" class="edge"><title>Node1&#45;&gt;Node2</title>
<path fill="none" stroke="midnightblue" d="M99.6888,-129.086C108.383,-130.557 117.355,-132.075 125.958,-133.531"/>
<polygon fill="midnightblue" stroke="midnightblue" points="100.094,-125.605 89.6498,-127.387 98.9255,-132.506 100.094,-125.605"/>
</g>
<!-- Node4 -->
<g id="node4" class="node"><title>Node4</title>
<g id="a_node4"><a xlink:href="../../d1/d10/classserver_1_1irc_client.html#a43b0e50c5bf5ba76b5a09917e779c1ea" target="_top" xlink:title="connects to the IRC server. Sets the whole thing in motion">
<polygon fill="white" stroke="black" points="132.5,-83 132.5,-113 221.5,-113 221.5,-83 132.5,-83"/>
<text text-anchor="start" x="140.5" y="-101" font-family="Helvetica,sans-Serif" font-size="10.00">server::ircClient::</text>
<text text-anchor="middle" x="177" y="-90" font-family="Helvetica,sans-Serif" font-size="10.00">doConnect</text>
</a>
</g>
</g>
<!-- Node1&#45;&gt;Node4 -->
<g id="edge3" class="edge"><title>Node1&#45;&gt;Node4</title>
<path fill="none" stroke="midnightblue" d="M99.8288,-110.891C110.623,-109.064 121.842,-107.165 132.244,-105.405"/>
<polygon fill="midnightblue" stroke="midnightblue" points="98.9255,-107.494 89.6498,-112.613 100.094,-114.395 98.9255,-107.494"/>
</g>
<!-- Node3 -->
<g id="node3" class="node"><title>Node3</title>
<g id="a_node3"><a xlink:href="../../d1/d10/classserver_1_1irc_client.html#a0f263c3a5ae9d82109842518b4866ab5" target="_top" xlink:title="ircClient constructor">
<polygon fill="white" stroke="black" points="299.5,-127 299.5,-157 388.5,-157 388.5,-127 299.5,-127"/>
<text text-anchor="start" x="307.5" y="-145" font-family="Helvetica,sans-Serif" font-size="10.00">server::ircClient::</text>
<text text-anchor="middle" x="344" y="-134" font-family="Helvetica,sans-Serif" font-size="10.00">ircClient</text>
</a>
</g>
</g>
<!-- Node2&#45;&gt;Node3 -->
<g id="edge2" class="edge"><title>Node2&#45;&gt;Node3</title>
<path fill="none" stroke="midnightblue" d="M238.437,-142C258.608,-142 280.677,-142 299.321,-142"/>
<polygon fill="midnightblue" stroke="midnightblue" points="238.402,-138.5 228.402,-142 238.402,-145.5 238.402,-138.5"/>
</g>
<!-- Node5 -->
<g id="node5" class="node"><title>Node5</title>
<g id="a_node5"><a xlink:href="../../d1/d48/classserver_1_1main_app.html#af331bc3bf60e745f3ddc95ab3abe5188" target="_top" xlink:title="server::mainApp::run">
<polygon fill="white" stroke="black" points="658,-44.5 658,-63.5 764,-63.5 764,-44.5 658,-44.5"/>
<text text-anchor="middle" x="711" y="-51.5" font-family="Helvetica,sans-Serif" font-size="10.00">server::mainApp::run</text>
</a>
</g>
</g>
<!-- Node4&#45;&gt;Node5 -->
<g id="edge4" class="edge"><title>Node4&#45;&gt;Node5</title>
<path fill="none" stroke="midnightblue" d="M231.866,-99.3907C315.79,-100.702 482.598,-99.8724 622,-78 642.181,-74.8335 664.369,-68.7641 681.416,-63.5215"/>
<polygon fill="midnightblue" stroke="midnightblue" points="231.864,-95.8903 221.805,-99.2169 231.743,-102.889 231.864,-95.8903"/>
</g>
<!-- Node7 -->
<g id="node7" class="node"><title>Node7</title>
<g id="a_node7"><a xlink:href="../../d1/d48/classserver_1_1main_app.html#aa9d4c2e1dc5216901c4f8743838d4561" target="_top" xlink:title="Emitted when the reconnect timer reaches 0.">
<polygon fill="white" stroke="black" points="264,-44.5 264,-63.5 424,-63.5 424,-44.5 264,-44.5"/>
<text text-anchor="middle" x="344" y="-51.5" font-family="Helvetica,sans-Serif" font-size="10.00">server::mainApp::doIrcReconnect</text>
</a>
</g>
</g>
<!-- Node4&#45;&gt;Node7 -->
<g id="edge6" class="edge"><title>Node4&#45;&gt;Node7</title>
<path fill="none" stroke="midnightblue" d="M231.776,-83.6598C256.562,-77.0501 285.301,-69.3864 307.356,-63.505"/>
<polygon fill="midnightblue" stroke="midnightblue" points="230.544,-80.3658 221.784,-86.3243 232.348,-87.1295 230.544,-80.3658"/>
</g>
<!-- Node6 -->
<g id="node6" class="node"><title>Node6</title>
<g id="a_node6"><a xlink:href="../../dc/d17/custom_irc_server_2main_8cpp.html#a0ddf1224851353fc92bfbff6f499fa97" target="_top" xlink:title="main">
<polygon fill="white" stroke="black" points="800,-44.5 800,-63.5 838,-63.5 838,-44.5 800,-44.5"/>
<text text-anchor="middle" x="819" y="-51.5" font-family="Helvetica,sans-Serif" font-size="10.00">main</text>
</a>
</g>
</g>
<!-- Node5&#45;&gt;Node6 -->
<g id="edge5" class="edge"><title>Node5&#45;&gt;Node6</title>
<path fill="none" stroke="midnightblue" d="M774.208,-54C783.464,-54 792.334,-54 799.64,-54"/>
<polygon fill="midnightblue" stroke="midnightblue" points="774.068,-50.5001 764.068,-54 774.068,-57.5001 774.068,-50.5001"/>
</g>
<!-- Node8 -->
<g id="node8" class="node"><title>Node8</title>
<g id="a_node8"><a xlink:href="../../d1/d48/classserver_1_1main_app.html#a931aedd34bb38252acfc8880f9716fab" target="_top" xlink:title="Triggered when the IRC client cannot connect.">
<polygon fill="white" stroke="black" points="471.5,-39 471.5,-69 610.5,-69 610.5,-39 471.5,-39"/>
<text text-anchor="start" x="479.5" y="-57" font-family="Helvetica,sans-Serif" font-size="10.00">server::mainApp::ircConnect</text>
<text text-anchor="middle" x="541" y="-46" font-family="Helvetica,sans-Serif" font-size="10.00">TimeOut</text>
</a>
</g>
</g>
<!-- Node7&#45;&gt;Node8 -->
<g id="edge7" class="edge"><title>Node7&#45;&gt;Node8</title>
<path fill="none" stroke="midnightblue" d="M434.363,-54C446.732,-54 459.276,-54 471.192,-54"/>
<polygon fill="midnightblue" stroke="midnightblue" points="434.033,-50.5001 424.033,-54 434.033,-57.5001 434.033,-50.5001"/>
</g>
<!-- Node9 -->
<g id="node9" class="node"><title>Node9</title>
<g id="a_node9"><a xlink:href="../../d1/d48/classserver_1_1main_app.html#af6e8c9d1f06514b33e5f88f9e66884be" target="_top" xlink:title="Triggered when the IRC client has disconnected.">
<polygon fill="white" stroke="black" points="460,-0.5 460,-19.5 622,-19.5 622,-0.5 460,-0.5"/>
<text text-anchor="middle" x="541" y="-7.5" font-family="Helvetica,sans-Serif" font-size="10.00">server::mainApp::ircDisconnected</text>
</a>
</g>
</g>
<!-- Node7&#45;&gt;Node9 -->
<g id="edge9" class="edge"><title>Node7&#45;&gt;Node9</title>
<path fill="none" stroke="midnightblue" d="M397.225,-42.2159C428.703,-35.1131 468.275,-26.184 497.77,-19.5287"/>
<polygon fill="midnightblue" stroke="midnightblue" points="396.296,-38.8373 387.312,-44.4527 397.837,-45.6657 396.296,-38.8373"/>
</g>
<!-- Node8&#45;&gt;Node5 -->
<g id="edge8" class="edge"><title>Node8&#45;&gt;Node5</title>
<path fill="none" stroke="midnightblue" d="M621.185,-54C633.597,-54 646.149,-54 657.753,-54"/>
<polygon fill="midnightblue" stroke="midnightblue" points="620.817,-50.5001 610.817,-54 620.817,-57.5001 620.817,-50.5001"/>
</g>
<!-- Node9&#45;&gt;Node5 -->
<g id="edge10" class="edge"><title>Node9&#45;&gt;Node5</title>
<path fill="none" stroke="midnightblue" d="M591.119,-22.1047C601.336,-24.6715 612.027,-27.3938 622,-30 639.773,-34.6446 659.507,-40.0077 675.777,-44.4846"/>
<polygon fill="midnightblue" stroke="midnightblue" points="591.655,-18.631 581.105,-19.5997 589.957,-25.4218 591.655,-18.631"/>
</g>
</g>
</svg>
