<?xml version="1.0" encoding="UTF-8" standalone="no"?>
<!DOCTYPE svg PUBLIC "-//W3C//DTD SVG 1.1//EN"
 "http://www.w3.org/Graphics/SVG/1.1/DTD/svg11.dtd">
<!-- Generated by graphviz version 2.30.1 (20130303.0817)
 -->
<!-- Title: server::ircClient::setOwnNick Pages: 1 -->
<svg width="484pt" height="66pt"
 viewBox="0.00 0.00 484.00 66.00" xmlns="http://www.w3.org/2000/svg" xmlns:xlink="http://www.w3.org/1999/xlink">
<g id="graph0" class="graph" transform="scale(1 1) rotate(0) translate(4 62)">
<title>server::ircClient::setOwnNick</title>
<polygon fill="white" stroke="white" points="-4,5 -4,-62 481,-62 481,5 -4,5"/>
<!-- Node1 -->
<g id="node1" class="node"><title>Node1</title>
<polygon fill="#bfbfbf" stroke="black" points="0.5,-14 0.5,-44 89.5,-44 89.5,-14 0.5,-14"/>
<text text-anchor="start" x="8.5" y="-32" font-family="Helvetica,sans-Serif" font-size="10.00">server::ircClient::</text>
<text text-anchor="middle" x="45" y="-21" font-family="Helvetica,sans-Serif" font-size="10.00">setOwnNick</text>
</g>
<!-- Node2 -->
<g id="node2" class="node"><title>Node2</title>
<g id="a_node2"><a xlink:href="../../d1/d10/classserver_1_1irc_client.html#a2c1954be24f18aef7d8ec6a7a3e7f29c" target="_top" xlink:title="Sends a message to the IRC server.">
<polygon fill="white" stroke="black" points="126,-19.5 126,-38.5 236,-38.5 236,-19.5 126,-19.5"/>
<text text-anchor="middle" x="181" y="-26.5" font-family="Helvetica,sans-Serif" font-size="10.00">server::ircClient::send</text>
</a>
</g>
</g>
<!-- Node1&#45;&gt;Node2 -->
<g id="edge1" class="edge"><title>Node1&#45;&gt;Node2</title>
<path fill="none" stroke="midnightblue" d="M89.506,-29C97.9456,-29 106.955,-29 115.895,-29"/>
<polygon fill="midnightblue" stroke="midnightblue" points="115.926,-32.5001 125.926,-29 115.926,-25.5001 115.926,-32.5001"/>
</g>
<!-- Node3 -->
<g id="node3" class="node"><title>Node3</title>
<g id="a_node3"><a xlink:href="../../d6/d75/namespace_k4_u.html#aaddaee50fab2801df390147891b0c09d" target="_top" xlink:title="K4U::endl">
<polygon fill="white" stroke="black" points="273.5,-38.5 273.5,-57.5 332.5,-57.5 332.5,-38.5 273.5,-38.5"/>
<text text-anchor="middle" x="303" y="-45.5" font-family="Helvetica,sans-Serif" font-size="10.00">K4U::endl</text>
</a>
</g>
</g>
<!-- Node2&#45;&gt;Node3 -->
<g id="edge2" class="edge"><title>Node2&#45;&gt;Node3</title>
<path fill="none" stroke="midnightblue" d="M236.032,-37.5551C245.143,-38.9976 254.439,-40.4695 263.069,-41.8359"/>
<polygon fill="midnightblue" stroke="midnightblue" points="262.784,-45.3343 273.208,-43.4413 263.879,-38.4204 262.784,-45.3343"/>
</g>
<!-- Node5 -->
<g id="node5" class="node"><title>Node5</title>
<g id="a_node5"><a xlink:href="../../d9/db1/namespaceserver.html#a5975bac26af821c5aa25ca3b66ab35a9" target="_top" xlink:title="Shorthand to convert a QString to a std::string.">
<polygon fill="white" stroke="black" points="272,-0.5 272,-19.5 334,-19.5 334,-0.5 272,-0.5"/>
<text text-anchor="middle" x="303" y="-7.5" font-family="Helvetica,sans-Serif" font-size="10.00">server::qts</text>
</a>
</g>
</g>
<!-- Node2&#45;&gt;Node5 -->
<g id="edge5" class="edge"><title>Node2&#45;&gt;Node5</title>
<path fill="none" stroke="midnightblue" d="M236.032,-20.4449C244.693,-19.0736 253.521,-17.6758 261.785,-16.3673"/>
<polygon fill="midnightblue" stroke="midnightblue" points="262.567,-19.7872 271.897,-14.7663 261.472,-12.8733 262.567,-19.7872"/>
</g>
<!-- Node4 -->
<g id="node4" class="node"><title>Node4</title>
<g id="a_node4"><a xlink:href="../../da/d64/class_k4_u_1_1cls_log.html#a81f179b2ccb3e2abeb9b47f5b83de935" target="_top" xlink:title="K4U::clsLog::doEndl">
<polygon fill="white" stroke="black" points="370,-38.5 370,-57.5 476,-57.5 476,-38.5 370,-38.5"/>
<text text-anchor="middle" x="423" y="-45.5" font-family="Helvetica,sans-Serif" font-size="10.00">K4U::clsLog::doEndl</text>
</a>
</g>
</g>
<!-- Node3&#45;&gt;Node4 -->
<g id="edge3" class="edge"><title>Node3&#45;&gt;Node4</title>
<path fill="none" stroke="midnightblue" d="M332.565,-42.1218C340.779,-41.6046 350.078,-41.3176 359.496,-41.2606"/>
<polygon fill="midnightblue" stroke="midnightblue" points="359.708,-44.7611 369.717,-41.289 359.727,-37.7611 359.708,-44.7611"/>
</g>
<!-- Node4&#45;&gt;Node3 -->
<g id="edge4" class="edge"><title>Node4&#45;&gt;Node3</title>
<path fill="none" stroke="midnightblue" d="M369.717,-54.711C360.638,-54.8169 351.344,-54.7072 342.71,-54.3819"/>
<polygon fill="midnightblue" stroke="midnightblue" points="342.726,-50.8785 332.565,-53.8782 342.379,-57.8699 342.726,-50.8785"/>
</g>
</g>
</svg>
