<?xml version="1.0" encoding="UTF-8" standalone="no"?>
<!DOCTYPE svg PUBLIC "-//W3C//DTD SVG 1.1//EN"
 "http://www.w3.org/Graphics/SVG/1.1/DTD/svg11.dtd">
<!-- Generated by graphviz version 2.30.1 (20130303.0817)
 -->
<!-- Title: server::ircClient::init Pages: 1 -->
<svg width="832pt" height="666pt"
 viewBox="0.00 0.00 832.00 665.67" xmlns="http://www.w3.org/2000/svg" xmlns:xlink="http://www.w3.org/1999/xlink">
<g id="graph0" class="graph" transform="scale(1 1) rotate(0) translate(4 661.669)">
<title>server::ircClient::init</title>
<polygon fill="white" stroke="white" points="-4,5 -4,-661.669 829,-661.669 829,5 -4,5"/>
<!-- Node1 -->
<g id="node1" class="node"><title>Node1</title>
<polygon fill="#bfbfbf" stroke="black" points="0,-50.1686 0,-69.1686 102,-69.1686 102,-50.1686 0,-50.1686"/>
<text text-anchor="middle" x="51" y="-57.1686" font-family="Helvetica,sans-Serif" font-size="10.00">server::ircClient::init</text>
</g>
<!-- Node2 -->
<g id="node2" class="node"><title>Node2</title>
<g id="a_node2"><a xlink:href="../../d6/d75/namespace_k4_u.xhtml#aaddaee50fab2801df390147891b0c09d" target="_top" xlink:title="K4U::endl">
<polygon fill="white" stroke="black" points="588.5,-69.1686 588.5,-88.1686 647.5,-88.1686 647.5,-69.1686 588.5,-69.1686"/>
<text text-anchor="middle" x="618" y="-76.1686" font-family="Helvetica,sans-Serif" font-size="10.00">K4U::endl</text>
</a>
</g>
</g>
<!-- Node1&#45;&gt;Node2 -->
<g id="edge1" class="edge"><title>Node1&#45;&gt;Node2</title>
<path fill="none" stroke="midnightblue" d="M64.8584,-50.1506C80.9779,-38.8676 109.915,-20.708 138,-13.6686 302.327,27.5184 505.337,-36.6665 583.846,-65.6533"/>
<polygon fill="midnightblue" stroke="midnightblue" points="582.631,-68.9356 593.224,-69.1684 585.088,-62.381 582.631,-68.9356"/>
</g>
<!-- Node4 -->
<g id="node4" class="node"><title>Node4</title>
<g id="a_node4"><a xlink:href="../../d1/d10/classserver_1_1irc_client.xhtml#a384327d5a800bd0d970cffaf1a6a55c1" target="_top" xlink:title="server::ircClient::\lreadData">
<polygon fill="white" stroke="black" points="138.5,-145.669 138.5,-175.669 227.5,-175.669 227.5,-145.669 138.5,-145.669"/>
<text text-anchor="start" x="146.5" y="-163.669" font-family="Helvetica,sans-Serif" font-size="10.00">server::ircClient::</text>
<text text-anchor="middle" x="183" y="-152.669" font-family="Helvetica,sans-Serif" font-size="10.00">readData</text>
</a>
</g>
</g>
<!-- Node1&#45;&gt;Node4 -->
<g id="edge4" class="edge"><title>Node1&#45;&gt;Node4</title>
<path fill="none" stroke="midnightblue" d="M64.4649,-69.3529C85.0832,-85.3717 126.766,-117.756 154.538,-139.333"/>
<polygon fill="midnightblue" stroke="midnightblue" points="152.627,-142.281 162.671,-145.652 156.922,-136.753 152.627,-142.281"/>
</g>
<!-- Node17 -->
<g id="node17" class="node"><title>Node17</title>
<g id="a_node17"><a xlink:href="../../d1/d10/classserver_1_1irc_client.xhtml#ae88cbd04e92e76e7658657c0f14f107a" target="_top" xlink:title="server::ircClient::\lconnected">
<polygon fill="white" stroke="black" points="264.5,-63.6686 264.5,-93.6686 353.5,-93.6686 353.5,-63.6686 264.5,-63.6686"/>
<text text-anchor="start" x="272.5" y="-81.6686" font-family="Helvetica,sans-Serif" font-size="10.00">server::ircClient::</text>
<text text-anchor="middle" x="309" y="-70.6686" font-family="Helvetica,sans-Serif" font-size="10.00">connected</text>
</a>
</g>
</g>
<!-- Node1&#45;&gt;Node17 -->
<g id="edge23" class="edge"><title>Node1&#45;&gt;Node17</title>
<path fill="none" stroke="midnightblue" d="M102.272,-63.3997C146.041,-66.6482 209.326,-71.3451 254.125,-74.6701"/>
<polygon fill="midnightblue" stroke="midnightblue" points="254.008,-78.171 264.24,-75.4208 254.526,-71.1902 254.008,-78.171"/>
</g>
<!-- Node18 -->
<g id="node18" class="node"><title>Node18</title>
<g id="a_node18"><a xlink:href="../../d1/d10/classserver_1_1irc_client.xhtml#a32607649043e6053ff2ef9980df91800" target="_top" xlink:title="server::ircClient::\ldisconnected">
<polygon fill="white" stroke="black" points="138.5,-22.6686 138.5,-52.6686 227.5,-52.6686 227.5,-22.6686 138.5,-22.6686"/>
<text text-anchor="start" x="146.5" y="-40.6686" font-family="Helvetica,sans-Serif" font-size="10.00">server::ircClient::</text>
<text text-anchor="middle" x="183" y="-29.6686" font-family="Helvetica,sans-Serif" font-size="10.00">disconnected</text>
</a>
</g>
</g>
<!-- Node1&#45;&gt;Node18 -->
<g id="edge25" class="edge"><title>Node1&#45;&gt;Node18</title>
<path fill="none" stroke="midnightblue" d="M102.261,-51.1628C110.786,-49.7202 119.668,-48.2171 128.277,-46.7601"/>
<polygon fill="midnightblue" stroke="midnightblue" points="128.946,-50.1969 138.222,-45.0773 127.778,-43.295 128.946,-50.1969"/>
</g>
<!-- Node3 -->
<g id="node3" class="node"><title>Node3</title>
<g id="a_node3"><a xlink:href="../../da/d64/class_k4_u_1_1cls_log.xhtml#a81f179b2ccb3e2abeb9b47f5b83de935" target="_top" xlink:title="K4U::clsLog::doEndl">
<polygon fill="white" stroke="black" points="718,-69.1686 718,-88.1686 824,-88.1686 824,-69.1686 718,-69.1686"/>
<text text-anchor="middle" x="771" y="-76.1686" font-family="Helvetica,sans-Serif" font-size="10.00">K4U::clsLog::doEndl</text>
</a>
</g>
</g>
<!-- Node2&#45;&gt;Node3 -->
<g id="edge2" class="edge"><title>Node2&#45;&gt;Node3</title>
<path fill="none" stroke="midnightblue" d="M647.757,-73.2338C664.744,-72.1237 686.935,-71.7163 707.742,-72.0118"/>
<polygon fill="midnightblue" stroke="midnightblue" points="707.747,-75.5125 717.815,-72.2132 707.888,-68.5139 707.747,-75.5125"/>
</g>
<!-- Node3&#45;&gt;Node2 -->
<g id="edge3" class="edge"><title>Node3&#45;&gt;Node2</title>
<path fill="none" stroke="midnightblue" d="M717.815,-85.124C698.097,-85.6375 676.027,-85.4798 657.754,-84.6509"/>
<polygon fill="midnightblue" stroke="midnightblue" points="657.934,-81.1556 647.757,-84.1035 657.551,-88.1451 657.934,-81.1556"/>
</g>
<!-- Node4&#45;&gt;Node2 -->
<g id="edge5" class="edge"><title>Node4&#45;&gt;Node2</title>
<path fill="none" stroke="midnightblue" d="M227.5,-152.431C312.061,-136.417 497.38,-101.322 578.117,-86.0321"/>
<polygon fill="midnightblue" stroke="midnightblue" points="579.167,-89.3956 588.341,-84.096 577.864,-82.5179 579.167,-89.3956"/>
</g>
<!-- Node5 -->
<g id="node5" class="node"><title>Node5</title>
<g id="a_node5"><a xlink:href="../../d1/d10/classserver_1_1irc_client.xhtml#a2c1954be24f18aef7d8ec6a7a3e7f29c" target="_top" xlink:title="Sends a message to the IRC server.">
<polygon fill="white" stroke="black" points="399,-151.169 399,-170.169 509,-170.169 509,-151.169 399,-151.169"/>
<text text-anchor="middle" x="454" y="-158.169" font-family="Helvetica,sans-Serif" font-size="10.00">server::ircClient::send</text>
</a>
</g>
</g>
<!-- Node4&#45;&gt;Node5 -->
<g id="edge6" class="edge"><title>Node4&#45;&gt;Node5</title>
<path fill="none" stroke="midnightblue" d="M227.518,-160.669C271.2,-160.669 338.984,-160.669 388.832,-160.669"/>
<polygon fill="midnightblue" stroke="midnightblue" points="388.866,-164.169 398.866,-160.669 388.866,-157.169 388.866,-164.169"/>
</g>
<!-- Node6 -->
<g id="node6" class="node"><title>Node6</title>
<g id="a_node6"><a xlink:href="../../d9/db1/namespaceserver.xhtml#a5975bac26af821c5aa25ca3b66ab35a9" target="_top" xlink:title="server::qts">
<polygon fill="white" stroke="black" points="587,-189.169 587,-208.169 649,-208.169 649,-189.169 587,-189.169"/>
<text text-anchor="middle" x="618" y="-196.169" font-family="Helvetica,sans-Serif" font-size="10.00">server::qts</text>
</a>
</g>
</g>
<!-- Node4&#45;&gt;Node6 -->
<g id="edge9" class="edge"><title>Node4&#45;&gt;Node6</title>
<path fill="none" stroke="midnightblue" d="M227.889,-169.207C239.587,-171.247 252.242,-173.244 264,-174.669 376.641,-188.315 510.514,-194.764 576.334,-197.297"/>
<polygon fill="midnightblue" stroke="midnightblue" points="576.554,-200.807 586.678,-197.684 576.816,-193.812 576.554,-200.807"/>
</g>
<!-- Node7 -->
<g id="node7" class="node"><title>Node7</title>
<g id="a_node7"><a xlink:href="../../d1/d10/classserver_1_1irc_client.xhtml#af618e7f589a052d90e2dadbc87e83429" target="_top" xlink:title="Handles a command sent from the irc server.">
<polygon fill="white" stroke="black" points="264.5,-375.669 264.5,-405.669 353.5,-405.669 353.5,-375.669 264.5,-375.669"/>
<text text-anchor="start" x="272.5" y="-393.669" font-family="Helvetica,sans-Serif" font-size="10.00">server::ircClient::</text>
<text text-anchor="middle" x="309" y="-382.669" font-family="Helvetica,sans-Serif" font-size="10.00">handleCommand</text>
</a>
</g>
</g>
<!-- Node4&#45;&gt;Node7 -->
<g id="edge10" class="edge"><title>Node4&#45;&gt;Node7</title>
<path fill="none" stroke="midnightblue" d="M192.136,-175.76C213.156,-214.748 269.412,-319.094 295.003,-366.561"/>
<polygon fill="midnightblue" stroke="midnightblue" points="292.008,-368.381 299.834,-375.522 298.169,-365.059 292.008,-368.381"/>
</g>
<!-- Node5&#45;&gt;Node2 -->
<g id="edge7" class="edge"><title>Node5&#45;&gt;Node2</title>
<path fill="none" stroke="midnightblue" d="M483.018,-151.129C494.088,-147.068 506.812,-142.031 518,-136.669 544.827,-123.81 574.047,-106.214 593.737,-93.7855"/>
<polygon fill="midnightblue" stroke="midnightblue" points="595.778,-96.6356 602.328,-88.3084 592.014,-90.7331 595.778,-96.6356"/>
</g>
<!-- Node5&#45;&gt;Node6 -->
<g id="edge8" class="edge"><title>Node5&#45;&gt;Node6</title>
<path fill="none" stroke="midnightblue" d="M495.879,-170.258C520.759,-176.094 552.394,-183.514 577.095,-189.308"/>
<polygon fill="midnightblue" stroke="midnightblue" points="576.338,-192.726 586.873,-191.602 577.937,-185.911 576.338,-192.726"/>
</g>
<!-- Node7&#45;&gt;Node6 -->
<g id="edge11" class="edge"><title>Node7&#45;&gt;Node6</title>
<path fill="none" stroke="midnightblue" d="M314.684,-375.567C324.158,-347.606 348.316,-287.792 390,-256.669 419.379,-234.732 519.954,-214.928 576.88,-205.132"/>
<polygon fill="midnightblue" stroke="midnightblue" points="577.7,-208.543 586.974,-203.421 576.53,-201.642 577.7,-208.543"/>
</g>
<!-- Node7&#45;&gt;Node5 -->
<g id="edge12" class="edge"><title>Node7&#45;&gt;Node5</title>
<path fill="none" stroke="midnightblue" d="M315.237,-375.338C326.166,-344.597 353.454,-273.978 390,-222.669 402.238,-205.486 419.5,-188.879 432.86,-177.184"/>
<polygon fill="midnightblue" stroke="midnightblue" points="435.265,-179.733 440.595,-170.576 430.718,-174.411 435.265,-179.733"/>
</g>
<!-- Node8 -->
<g id="node8" class="node"><title>Node8</title>
<g id="a_node8"><a xlink:href="../../d9/db1/namespaceserver.xhtml#ab14f85d7268f4938433c3bd76aefd61e" target="_top" xlink:title="server::inCommand">
<polygon fill="white" stroke="black" points="404,-540.169 404,-559.169 504,-559.169 504,-540.169 404,-540.169"/>
<text text-anchor="middle" x="454" y="-547.169" font-family="Helvetica,sans-Serif" font-size="10.00">server::inCommand</text>
</a>
</g>
</g>
<!-- Node7&#45;&gt;Node8 -->
<g id="edge13" class="edge"><title>Node7&#45;&gt;Node8</title>
<path fill="none" stroke="midnightblue" d="M314.693,-406.1C324.182,-434.716 348.364,-496.138 390,-529.669 392.765,-531.895 395.782,-533.876 398.949,-535.638"/>
<polygon fill="midnightblue" stroke="midnightblue" points="397.657,-538.899 408.19,-540.044 400.67,-532.581 397.657,-538.899"/>
</g>
<!-- Node9 -->
<g id="node9" class="node"><title>Node9</title>
<g id="a_node9"><a xlink:href="../../d1/d10/classserver_1_1irc_client.xhtml#a1cd3512aac27b016945c5b66d0c777d1" target="_top" xlink:title="Emitted when a user comes online with a JOIN message.">
<polygon fill="white" stroke="black" points="409.5,-490.669 409.5,-520.669 498.5,-520.669 498.5,-490.669 409.5,-490.669"/>
<text text-anchor="start" x="417.5" y="-508.669" font-family="Helvetica,sans-Serif" font-size="10.00">server::ircClient::</text>
<text text-anchor="middle" x="454" y="-497.669" font-family="Helvetica,sans-Serif" font-size="10.00">userOnline</text>
</a>
</g>
</g>
<!-- Node7&#45;&gt;Node9 -->
<g id="edge14" class="edge"><title>Node7&#45;&gt;Node9</title>
<path fill="none" stroke="midnightblue" d="M319.959,-405.694C333.653,-425.331 360.034,-459.682 390,-480.669 393.215,-482.92 396.662,-485.01 400.226,-486.941"/>
<polygon fill="midnightblue" stroke="midnightblue" points="398.746,-490.114 409.26,-491.418 401.854,-483.842 398.746,-490.114"/>
</g>
<!-- Node10 -->
<g id="node10" class="node"><title>Node10</title>
<g id="a_node10"><a xlink:href="../../d9/db1/namespaceserver.xhtml#abefc8e9cd145a8a00676c9bf43b877ef" target="_top" xlink:title="server::getNickAndStatus">
<polygon fill="white" stroke="black" points="554.5,-493.169 554.5,-512.169 681.5,-512.169 681.5,-493.169 554.5,-493.169"/>
<text text-anchor="middle" x="618" y="-500.169" font-family="Helvetica,sans-Serif" font-size="10.00">server::getNickAndStatus</text>
</a>
</g>
</g>
<!-- Node7&#45;&gt;Node10 -->
<g id="edge15" class="edge"><title>Node7&#45;&gt;Node10</title>
<path fill="none" stroke="midnightblue" d="M353.793,-394.194C397.005,-398.881 464.218,-409.462 518,-432.669 549.007,-446.048 580.031,-470.149 598.874,-486.279"/>
<polygon fill="midnightblue" stroke="midnightblue" points="596.798,-489.114 606.63,-493.062 601.406,-483.845 596.798,-489.114"/>
</g>
<!-- Node11 -->
<g id="node11" class="node"><title>Node11</title>
<g id="a_node11"><a xlink:href="../../d1/d10/classserver_1_1irc_client.xhtml#aa59470840fe4135454af200bf5259874" target="_top" xlink:title="Emitted when a chatmessage has been received.">
<polygon fill="white" stroke="black" points="409.5,-441.669 409.5,-471.669 498.5,-471.669 498.5,-441.669 409.5,-441.669"/>
<text text-anchor="start" x="417.5" y="-459.669" font-family="Helvetica,sans-Serif" font-size="10.00">server::ircClient::</text>
<text text-anchor="middle" x="454" y="-448.669" font-family="Helvetica,sans-Serif" font-size="10.00">chatReceived</text>
</a>
</g>
</g>
<!-- Node7&#45;&gt;Node11 -->
<g id="edge16" class="edge"><title>Node7&#45;&gt;Node11</title>
<path fill="none" stroke="midnightblue" d="M342.807,-405.81C363.063,-415.159 389.247,-427.244 411.009,-437.288"/>
<polygon fill="midnightblue" stroke="midnightblue" points="409.799,-440.585 420.346,-441.597 412.733,-434.229 409.799,-440.585"/>
</g>
<!-- Node12 -->
<g id="node12" class="node"><title>Node12</title>
<g id="a_node12"><a xlink:href="../../d9/db1/namespaceserver.xhtml#a4ab136076f9a5f1ae8a6d78020f07c07" target="_top" xlink:title="server::getNickAndStatus\lFromId">
<polygon fill="white" stroke="black" points="390.5,-578.669 390.5,-608.669 517.5,-608.669 517.5,-578.669 390.5,-578.669"/>
<text text-anchor="start" x="398.5" y="-596.669" font-family="Helvetica,sans-Serif" font-size="10.00">server::getNickAndStatus</text>
<text text-anchor="middle" x="454" y="-585.669" font-family="Helvetica,sans-Serif" font-size="10.00">FromId</text>
</a>
</g>
</g>
<!-- Node7&#45;&gt;Node12 -->
<g id="edge17" class="edge"><title>Node7&#45;&gt;Node12</title>
<path fill="none" stroke="midnightblue" d="M312.78,-405.772C319.747,-439.536 341.029,-521.835 390,-568.669 391.624,-570.222 393.356,-571.682 395.171,-573.055"/>
<polygon fill="midnightblue" stroke="midnightblue" points="393.293,-576.008 403.583,-578.531 397.112,-570.142 393.293,-576.008"/>
</g>
<!-- Node13 -->
<g id="node13" class="node"><title>Node13</title>
<g id="a_node13"><a xlink:href="../../d1/d10/classserver_1_1irc_client.xhtml#afa10a5c7c8ee0a4cfdae135d6737a0a2" target="_top" xlink:title="Emitted when a user changes his status (nick|Status)">
<polygon fill="white" stroke="black" points="405.5,-353.669 405.5,-383.669 502.5,-383.669 502.5,-353.669 405.5,-353.669"/>
<text text-anchor="start" x="413.5" y="-371.669" font-family="Helvetica,sans-Serif" font-size="10.00">server::ircClient::</text>
<text text-anchor="middle" x="454" y="-360.669" font-family="Helvetica,sans-Serif" font-size="10.00">userChangeStatus</text>
</a>
</g>
</g>
<!-- Node7&#45;&gt;Node13 -->
<g id="edge19" class="edge"><title>Node7&#45;&gt;Node13</title>
<path fill="none" stroke="midnightblue" d="M353.682,-383.948C366.834,-381.925 381.475,-379.672 395.386,-377.532"/>
<polygon fill="midnightblue" stroke="midnightblue" points="396.004,-380.979 405.355,-375.999 394.939,-374.06 396.004,-380.979"/>
</g>
<!-- Node14 -->
<g id="node14" class="node"><title>Node14</title>
<g id="a_node14"><a xlink:href="../../d9/db1/namespaceserver.xhtml#a19c09df3c1cb9feb973f1383aa20d0af" target="_top" xlink:title="server::getId">
<polygon fill="white" stroke="black" points="419.5,-315.169 419.5,-334.169 488.5,-334.169 488.5,-315.169 419.5,-315.169"/>
<text text-anchor="middle" x="454" y="-322.169" font-family="Helvetica,sans-Serif" font-size="10.00">server::getId</text>
</a>
</g>
</g>
<!-- Node7&#45;&gt;Node14 -->
<g id="edge20" class="edge"><title>Node7&#45;&gt;Node14</title>
<path fill="none" stroke="midnightblue" d="M333.109,-375.608C348.726,-365.88 370.057,-353.446 390,-344.669 396.281,-341.904 403.064,-339.34 409.774,-337.034"/>
<polygon fill="midnightblue" stroke="midnightblue" points="411.074,-340.29 419.483,-333.845 408.89,-333.64 411.074,-340.29"/>
</g>
<!-- Node15 -->
<g id="node15" class="node"><title>Node15</title>
<g id="a_node15"><a xlink:href="../../d1/d10/classserver_1_1irc_client.xhtml#a566c94db09896197fdb8e982756b8c1e" target="_top" xlink:title="Emitted when a user changes his nickname (nick|Status)">
<polygon fill="white" stroke="black" points="409.5,-265.669 409.5,-295.669 498.5,-295.669 498.5,-265.669 409.5,-265.669"/>
<text text-anchor="start" x="417.5" y="-283.669" font-family="Helvetica,sans-Serif" font-size="10.00">server::ircClient::</text>
<text text-anchor="middle" x="454" y="-272.669" font-family="Helvetica,sans-Serif" font-size="10.00">userChangeNick</text>
</a>
</g>
</g>
<!-- Node7&#45;&gt;Node15 -->
<g id="edge21" class="edge"><title>Node7&#45;&gt;Node15</title>
<path fill="none" stroke="midnightblue" d="M320.875,-375.546C334.966,-356.893 361.168,-325.255 390,-305.669 393.247,-303.463 396.718,-301.407 400.298,-299.5"/>
<polygon fill="midnightblue" stroke="midnightblue" points="401.917,-302.605 409.361,-295.066 398.841,-296.317 401.917,-302.605"/>
</g>
<!-- Node16 -->
<g id="node16" class="node"><title>Node16</title>
<g id="a_node16"><a xlink:href="../../d1/d10/classserver_1_1irc_client.xhtml#a1ba37565db4acdfae3163d8d7217d9f2" target="_top" xlink:title="Emitted when a user leaves the room with a PART message.">
<polygon fill="white" stroke="black" points="409.5,-627.669 409.5,-657.669 498.5,-657.669 498.5,-627.669 409.5,-627.669"/>
<text text-anchor="start" x="417.5" y="-645.669" font-family="Helvetica,sans-Serif" font-size="10.00">server::ircClient::</text>
<text text-anchor="middle" x="454" y="-634.669" font-family="Helvetica,sans-Serif" font-size="10.00">userOffline</text>
</a>
</g>
</g>
<!-- Node7&#45;&gt;Node16 -->
<g id="edge22" class="edge"><title>Node7&#45;&gt;Node16</title>
<path fill="none" stroke="midnightblue" d="M311.107,-405.872C314.815,-445.917 330.185,-555.478 390,-617.669 393.112,-620.905 396.697,-623.731 400.543,-626.199"/>
<polygon fill="midnightblue" stroke="midnightblue" points="398.856,-629.266 409.3,-631.047 402.246,-623.141 398.856,-629.266"/>
</g>
<!-- Node12&#45;&gt;Node10 -->
<g id="edge18" class="edge"><title>Node12&#45;&gt;Node10</title>
<path fill="none" stroke="midnightblue" d="M496.565,-578.616C503.83,-575.58 511.226,-572.22 518,-568.669 546.399,-553.78 576.757,-532.681 596.257,-518.377"/>
<polygon fill="midnightblue" stroke="midnightblue" points="598.462,-521.1 604.407,-512.33 594.29,-515.478 598.462,-521.1"/>
</g>
<!-- Node17&#45;&gt;Node5 -->
<g id="edge24" class="edge"><title>Node17&#45;&gt;Node5</title>
<path fill="none" stroke="midnightblue" d="M336.228,-93.7087C362.224,-108.615 401.783,-131.3 427.516,-146.056"/>
<polygon fill="midnightblue" stroke="midnightblue" points="425.905,-149.166 436.321,-151.104 429.387,-143.093 425.905,-149.166"/>
</g>
<!-- Node18&#45;&gt;Node2 -->
<g id="edge26" class="edge"><title>Node18&#45;&gt;Node2</title>
<path fill="none" stroke="midnightblue" d="M227.5,-41.7876C312.061,-49.7945 497.38,-67.342 578.117,-74.9869"/>
<polygon fill="midnightblue" stroke="midnightblue" points="578.056,-78.4966 588.341,-75.9549 578.715,-71.5278 578.056,-78.4966"/>
</g>
</g>
</svg>
