<?xml version="1.0" encoding="UTF-8" standalone="no"?>
<!DOCTYPE svg PUBLIC "-//W3C//DTD SVG 1.1//EN"
 "http://www.w3.org/Graphics/SVG/1.1/DTD/svg11.dtd">
<!-- Generated by graphviz version 2.30.1 (20130303.0817)
 -->
<!-- Title: server::ircClient::ircClient Pages: 1 -->
<!--zoomable 666 -->
<svg id="main" version="1.1" xmlns="http://www.w3.org/2000/svg" xmlns:xlink="http://www.w3.org/1999/xlink" xml:space="preserve" onload="init(evt)">
        <defs>
                <circle id="rim" cx="0" cy="0" r="7"/>
                <circle id="rim2" cx="0" cy="0" r="3.5"/>
                <g id="zoomPlus">
                        <use xlink:href="#rim" fill="#404040">
                                <set attributeName="fill" to="#808080" begin="zoomplus.mouseover" end="zoomplus.mouseout"/>
                        </use>
                        <path d="M-4,0h8M0,-4v8" fill="none" stroke="white" stroke-width="1.5" pointer-events="none"/>
                </g>
                <g id="zoomMin">
                        <use xlink:href="#rim" fill="#404040">
                                <set attributeName="fill" to="#808080" begin="zoomminus.mouseover" end="zoomminus.mouseout"/>
                        </use>
                        <path d="M-4,0h8" fill="none" stroke="white" stroke-width="1.5" pointer-events="none"/>
                </g>
                <g id="dirArrow">
                        <path fill="none" stroke="white" stroke-width="1.5" d="M0,-3.0v7 M-2.5,-0.5L0,-3.0L2.5,-0.5"/>
                </g>
               <g id="resetDef">
                       <use xlink:href="#rim2" fill="#404040">
                               <set attributeName="fill" to="#808080" begin="reset.mouseover" end="reset.mouseout"/>
                       </use>
               </g>
        </defs>

<script type="text/javascript">
var viewWidth = 958;
var viewHeight = 666;
var sectionId = 'dynsection-2';
</script>
<script xlink:href="../../svgpan.js"/>
<svg id="graph" class="graph">
<g id="viewport">
<title>server::ircClient::ircClient</title>
<polygon fill="white" stroke="white" points="-4,5 -4,-661.669 955,-661.669 955,5 -4,5"/>
<!-- Node1 -->
<g id="node1" class="node"><title>Node1</title>
<polygon fill="#bfbfbf" stroke="black" points="0.5,-44.6686 0.5,-74.6686 89.5,-74.6686 89.5,-44.6686 0.5,-44.6686"/>
<text text-anchor="start" x="8.5" y="-62.6686" font-family="Helvetica,sans-Serif" font-size="10.00">server::ircClient::</text>
<text text-anchor="middle" x="45" y="-51.6686" font-family="Helvetica,sans-Serif" font-size="10.00">ircClient</text>
</g>
<!-- Node2 -->
<g id="node2" class="node"><title>Node2</title>
<g id="a_node2"><a xlink:href="../../d1/d10/classserver_1_1irc_client.xhtml#a3991833ddcff72ca94d4c0ec588012ac" target="_top" xlink:title="Initializes the IRC Client. Does not yet connect!">
<polygon fill="white" stroke="black" points="126,-50.1686 126,-69.1686 228,-69.1686 228,-50.1686 126,-50.1686"/>
<text text-anchor="middle" x="177" y="-57.1686" font-family="Helvetica,sans-Serif" font-size="10.00">server::ircClient::init</text>
</a>
</g>
</g>
<!-- Node1&#45;&gt;Node2 -->
<g id="edge1" class="edge"><title>Node1&#45;&gt;Node2</title>
<path fill="none" stroke="midnightblue" d="M89.6498,-59.6686C98.0264,-59.6686 106.935,-59.6686 115.728,-59.6686"/>
<polygon fill="midnightblue" stroke="midnightblue" points="115.958,-63.1687 125.958,-59.6686 115.958,-56.1687 115.958,-63.1687"/>
</g>
<!-- Node3 -->
<g id="node3" class="node"><title>Node3</title>
<g id="a_node3"><a xlink:href="../../d6/d75/namespace_k4_u.xhtml#aaddaee50fab2801df390147891b0c09d" target="_top" xlink:title="K4U::endl">
<polygon fill="white" stroke="black" points="714.5,-69.1686 714.5,-88.1686 773.5,-88.1686 773.5,-69.1686 714.5,-69.1686"/>
<text text-anchor="middle" x="744" y="-76.1686" font-family="Helvetica,sans-Serif" font-size="10.00">K4U::endl</text>
</a>
</g>
</g>
<!-- Node2&#45;&gt;Node3 -->
<g id="edge2" class="edge"><title>Node2&#45;&gt;Node3</title>
<path fill="none" stroke="midnightblue" d="M190.858,-50.1506C206.978,-38.8676 235.915,-20.708 264,-13.6686 428.327,27.5184 631.337,-36.6665 709.846,-65.6533"/>
<polygon fill="midnightblue" stroke="midnightblue" points="708.631,-68.9356 719.224,-69.1684 711.088,-62.381 708.631,-68.9356"/>
</g>
<!-- Node5 -->
<g id="node5" class="node"><title>Node5</title>
<g id="a_node5"><a xlink:href="../../d1/d10/classserver_1_1irc_client.xhtml#a384327d5a800bd0d970cffaf1a6a55c1" target="_top" xlink:title="server::ircClient::\lreadData">
<polygon fill="white" stroke="black" points="264.5,-145.669 264.5,-175.669 353.5,-175.669 353.5,-145.669 264.5,-145.669"/>
<text text-anchor="start" x="272.5" y="-163.669" font-family="Helvetica,sans-Serif" font-size="10.00">server::ircClient::</text>
<text text-anchor="middle" x="309" y="-152.669" font-family="Helvetica,sans-Serif" font-size="10.00">readData</text>
</a>
</g>
</g>
<!-- Node2&#45;&gt;Node5 -->
<g id="edge5" class="edge"><title>Node2&#45;&gt;Node5</title>
<path fill="none" stroke="midnightblue" d="M190.465,-69.3529C211.083,-85.3717 252.766,-117.756 280.538,-139.333"/>
<polygon fill="midnightblue" stroke="midnightblue" points="278.627,-142.281 288.671,-145.652 282.922,-136.753 278.627,-142.281"/>
</g>
<!-- Node18 -->
<g id="node18" class="node"><title>Node18</title>
<g id="a_node18"><a xlink:href="../../d1/d10/classserver_1_1irc_client.xhtml#ae88cbd04e92e76e7658657c0f14f107a" target="_top" xlink:title="server::ircClient::\lconnected">
<polygon fill="white" stroke="black" points="390.5,-63.6686 390.5,-93.6686 479.5,-93.6686 479.5,-63.6686 390.5,-63.6686"/>
<text text-anchor="start" x="398.5" y="-81.6686" font-family="Helvetica,sans-Serif" font-size="10.00">server::ircClient::</text>
<text text-anchor="middle" x="435" y="-70.6686" font-family="Helvetica,sans-Serif" font-size="10.00">connected</text>
</a>
</g>
</g>
<!-- Node2&#45;&gt;Node18 -->
<g id="edge24" class="edge"><title>Node2&#45;&gt;Node18</title>
<path fill="none" stroke="midnightblue" d="M228.272,-63.3997C272.041,-66.6482 335.326,-71.3451 380.125,-74.6701"/>
<polygon fill="midnightblue" stroke="midnightblue" points="380.008,-78.171 390.24,-75.4208 380.526,-71.1902 380.008,-78.171"/>
</g>
<!-- Node19 -->
<g id="node19" class="node"><title>Node19</title>
<g id="a_node19"><a xlink:href="../../d1/d10/classserver_1_1irc_client.xhtml#a32607649043e6053ff2ef9980df91800" target="_top" xlink:title="server::ircClient::\ldisconnected">
<polygon fill="white" stroke="black" points="264.5,-22.6686 264.5,-52.6686 353.5,-52.6686 353.5,-22.6686 264.5,-22.6686"/>
<text text-anchor="start" x="272.5" y="-40.6686" font-family="Helvetica,sans-Serif" font-size="10.00">server::ircClient::</text>
<text text-anchor="middle" x="309" y="-29.6686" font-family="Helvetica,sans-Serif" font-size="10.00">disconnected</text>
</a>
</g>
</g>
<!-- Node2&#45;&gt;Node19 -->
<g id="edge26" class="edge"><title>Node2&#45;&gt;Node19</title>
<path fill="none" stroke="midnightblue" d="M228.261,-51.1628C236.786,-49.7202 245.668,-48.2171 254.277,-46.7601"/>
<polygon fill="midnightblue" stroke="midnightblue" points="254.946,-50.1969 264.222,-45.0773 253.778,-43.295 254.946,-50.1969"/>
</g>
<!-- Node4 -->
<g id="node4" class="node"><title>Node4</title>
<g id="a_node4"><a xlink:href="../../da/d64/class_k4_u_1_1cls_log.xhtml#a81f179b2ccb3e2abeb9b47f5b83de935" target="_top" xlink:title="K4U::clsLog::doEndl">
<polygon fill="white" stroke="black" points="844,-69.1686 844,-88.1686 950,-88.1686 950,-69.1686 844,-69.1686"/>
<text text-anchor="middle" x="897" y="-76.1686" font-family="Helvetica,sans-Serif" font-size="10.00">K4U::clsLog::doEndl</text>
</a>
</g>
</g>
<!-- Node3&#45;&gt;Node4 -->
<g id="edge3" class="edge"><title>Node3&#45;&gt;Node4</title>
<path fill="none" stroke="midnightblue" d="M773.757,-73.2338C790.744,-72.1237 812.935,-71.7163 833.742,-72.0118"/>
<polygon fill="midnightblue" stroke="midnightblue" points="833.747,-75.5125 843.815,-72.2132 833.888,-68.5139 833.747,-75.5125"/>
</g>
<!-- Node4&#45;&gt;Node3 -->
<g id="edge4" class="edge"><title>Node4&#45;&gt;Node3</title>
<path fill="none" stroke="midnightblue" d="M843.815,-85.124C824.097,-85.6375 802.027,-85.4798 783.754,-84.6509"/>
<polygon fill="midnightblue" stroke="midnightblue" points="783.934,-81.1556 773.757,-84.1035 783.551,-88.1451 783.934,-81.1556"/>
</g>
<!-- Node5&#45;&gt;Node3 -->
<g id="edge6" class="edge"><title>Node5&#45;&gt;Node3</title>
<path fill="none" stroke="midnightblue" d="M353.5,-152.431C438.061,-136.417 623.38,-101.322 704.117,-86.0321"/>
<polygon fill="midnightblue" stroke="midnightblue" points="705.167,-89.3956 714.341,-84.096 703.864,-82.5179 705.167,-89.3956"/>
</g>
<!-- Node6 -->
<g id="node6" class="node"><title>Node6</title>
<g id="a_node6"><a xlink:href="../../d1/d10/classserver_1_1irc_client.xhtml#a2c1954be24f18aef7d8ec6a7a3e7f29c" target="_top" xlink:title="Sends a message to the IRC server.">
<polygon fill="white" stroke="black" points="525,-151.169 525,-170.169 635,-170.169 635,-151.169 525,-151.169"/>
<text text-anchor="middle" x="580" y="-158.169" font-family="Helvetica,sans-Serif" font-size="10.00">server::ircClient::send</text>
</a>
</g>
</g>
<!-- Node5&#45;&gt;Node6 -->
<g id="edge7" class="edge"><title>Node5&#45;&gt;Node6</title>
<path fill="none" stroke="midnightblue" d="M353.518,-160.669C397.2,-160.669 464.984,-160.669 514.832,-160.669"/>
<polygon fill="midnightblue" stroke="midnightblue" points="514.866,-164.169 524.866,-160.669 514.866,-157.169 514.866,-164.169"/>
</g>
<!-- Node7 -->
<g id="node7" class="node"><title>Node7</title>
<g id="a_node7"><a xlink:href="../../d9/db1/namespaceserver.xhtml#a5975bac26af821c5aa25ca3b66ab35a9" target="_top" xlink:title="server::qts">
<polygon fill="white" stroke="black" points="713,-189.169 713,-208.169 775,-208.169 775,-189.169 713,-189.169"/>
<text text-anchor="middle" x="744" y="-196.169" font-family="Helvetica,sans-Serif" font-size="10.00">server::qts</text>
</a>
</g>
</g>
<!-- Node5&#45;&gt;Node7 -->
<g id="edge10" class="edge"><title>Node5&#45;&gt;Node7</title>
<path fill="none" stroke="midnightblue" d="M353.889,-169.207C365.587,-171.247 378.242,-173.244 390,-174.669 502.641,-188.315 636.514,-194.764 702.334,-197.297"/>
<polygon fill="midnightblue" stroke="midnightblue" points="702.554,-200.807 712.678,-197.684 702.816,-193.812 702.554,-200.807"/>
</g>
<!-- Node8 -->
<g id="node8" class="node"><title>Node8</title>
<g id="a_node8"><a xlink:href="../../d1/d10/classserver_1_1irc_client.xhtml#af618e7f589a052d90e2dadbc87e83429" target="_top" xlink:title="Handles a command sent from the irc server.">
<polygon fill="white" stroke="black" points="390.5,-375.669 390.5,-405.669 479.5,-405.669 479.5,-375.669 390.5,-375.669"/>
<text text-anchor="start" x="398.5" y="-393.669" font-family="Helvetica,sans-Serif" font-size="10.00">server::ircClient::</text>
<text text-anchor="middle" x="435" y="-382.669" font-family="Helvetica,sans-Serif" font-size="10.00">handleCommand</text>
</a>
</g>
</g>
<!-- Node5&#45;&gt;Node8 -->
<g id="edge11" class="edge"><title>Node5&#45;&gt;Node8</title>
<path fill="none" stroke="midnightblue" d="M318.136,-175.76C339.156,-214.748 395.412,-319.094 421.003,-366.561"/>
<polygon fill="midnightblue" stroke="midnightblue" points="418.008,-368.381 425.834,-375.522 424.169,-365.059 418.008,-368.381"/>
</g>
<!-- Node6&#45;&gt;Node3 -->
<g id="edge8" class="edge"><title>Node6&#45;&gt;Node3</title>
<path fill="none" stroke="midnightblue" d="M609.018,-151.129C620.088,-147.068 632.812,-142.031 644,-136.669 670.827,-123.81 700.047,-106.214 719.737,-93.7855"/>
<polygon fill="midnightblue" stroke="midnightblue" points="721.778,-96.6356 728.328,-88.3084 718.014,-90.7331 721.778,-96.6356"/>
</g>
<!-- Node6&#45;&gt;Node7 -->
<g id="edge9" class="edge"><title>Node6&#45;&gt;Node7</title>
<path fill="none" stroke="midnightblue" d="M621.879,-170.258C646.759,-176.094 678.394,-183.514 703.095,-189.308"/>
<polygon fill="midnightblue" stroke="midnightblue" points="702.338,-192.726 712.873,-191.602 703.937,-185.911 702.338,-192.726"/>
</g>
<!-- Node8&#45;&gt;Node7 -->
<g id="edge12" class="edge"><title>Node8&#45;&gt;Node7</title>
<path fill="none" stroke="midnightblue" d="M440.684,-375.567C450.158,-347.606 474.316,-287.792 516,-256.669 545.379,-234.732 645.954,-214.928 702.88,-205.132"/>
<polygon fill="midnightblue" stroke="midnightblue" points="703.7,-208.543 712.974,-203.421 702.53,-201.642 703.7,-208.543"/>
</g>
<!-- Node8&#45;&gt;Node6 -->
<g id="edge13" class="edge"><title>Node8&#45;&gt;Node6</title>
<path fill="none" stroke="midnightblue" d="M441.237,-375.338C452.166,-344.597 479.454,-273.978 516,-222.669 528.238,-205.486 545.5,-188.879 558.86,-177.184"/>
<polygon fill="midnightblue" stroke="midnightblue" points="561.265,-179.733 566.595,-170.576 556.718,-174.411 561.265,-179.733"/>
</g>
<!-- Node9 -->
<g id="node9" class="node"><title>Node9</title>
<g id="a_node9"><a xlink:href="../../d9/db1/namespaceserver.xhtml#ab14f85d7268f4938433c3bd76aefd61e" target="_top" xlink:title="server::inCommand">
<polygon fill="white" stroke="black" points="530,-540.169 530,-559.169 630,-559.169 630,-540.169 530,-540.169"/>
<text text-anchor="middle" x="580" y="-547.169" font-family="Helvetica,sans-Serif" font-size="10.00">server::inCommand</text>
</a>
</g>
</g>
<!-- Node8&#45;&gt;Node9 -->
<g id="edge14" class="edge"><title>Node8&#45;&gt;Node9</title>
<path fill="none" stroke="midnightblue" d="M440.693,-406.1C450.182,-434.716 474.364,-496.138 516,-529.669 518.765,-531.895 521.782,-533.876 524.949,-535.638"/>
<polygon fill="midnightblue" stroke="midnightblue" points="523.657,-538.899 534.19,-540.044 526.67,-532.581 523.657,-538.899"/>
</g>
<!-- Node10 -->
<g id="node10" class="node"><title>Node10</title>
<g id="a_node10"><a xlink:href="../../d1/d10/classserver_1_1irc_client.xhtml#a1cd3512aac27b016945c5b66d0c777d1" target="_top" xlink:title="Emitted when a user comes online with a JOIN message.">
<polygon fill="white" stroke="black" points="535.5,-490.669 535.5,-520.669 624.5,-520.669 624.5,-490.669 535.5,-490.669"/>
<text text-anchor="start" x="543.5" y="-508.669" font-family="Helvetica,sans-Serif" font-size="10.00">server::ircClient::</text>
<text text-anchor="middle" x="580" y="-497.669" font-family="Helvetica,sans-Serif" font-size="10.00">userOnline</text>
</a>
</g>
</g>
<!-- Node8&#45;&gt;Node10 -->
<g id="edge15" class="edge"><title>Node8&#45;&gt;Node10</title>
<path fill="none" stroke="midnightblue" d="M445.959,-405.694C459.653,-425.331 486.034,-459.682 516,-480.669 519.215,-482.92 522.662,-485.01 526.226,-486.941"/>
<polygon fill="midnightblue" stroke="midnightblue" points="524.746,-490.114 535.26,-491.418 527.854,-483.842 524.746,-490.114"/>
</g>
<!-- Node11 -->
<g id="node11" class="node"><title>Node11</title>
<g id="a_node11"><a xlink:href="../../d9/db1/namespaceserver.xhtml#abefc8e9cd145a8a00676c9bf43b877ef" target="_top" xlink:title="server::getNickAndStatus">
<polygon fill="white" stroke="black" points="680.5,-493.169 680.5,-512.169 807.5,-512.169 807.5,-493.169 680.5,-493.169"/>
<text text-anchor="middle" x="744" y="-500.169" font-family="Helvetica,sans-Serif" font-size="10.00">server::getNickAndStatus</text>
</a>
</g>
</g>
<!-- Node8&#45;&gt;Node11 -->
<g id="edge16" class="edge"><title>Node8&#45;&gt;Node11</title>
<path fill="none" stroke="midnightblue" d="M479.793,-394.194C523.005,-398.881 590.218,-409.462 644,-432.669 675.007,-446.048 706.031,-470.149 724.874,-486.279"/>
<polygon fill="midnightblue" stroke="midnightblue" points="722.798,-489.114 732.63,-493.062 727.406,-483.845 722.798,-489.114"/>
</g>
<!-- Node12 -->
<g id="node12" class="node"><title>Node12</title>
<g id="a_node12"><a xlink:href="../../d1/d10/classserver_1_1irc_client.xhtml#aa59470840fe4135454af200bf5259874" target="_top" xlink:title="Emitted when a chatmessage has been received.">
<polygon fill="white" stroke="black" points="535.5,-441.669 535.5,-471.669 624.5,-471.669 624.5,-441.669 535.5,-441.669"/>
<text text-anchor="start" x="543.5" y="-459.669" font-family="Helvetica,sans-Serif" font-size="10.00">server::ircClient::</text>
<text text-anchor="middle" x="580" y="-448.669" font-family="Helvetica,sans-Serif" font-size="10.00">chatReceived</text>
</a>
</g>
</g>
<!-- Node8&#45;&gt;Node12 -->
<g id="edge17" class="edge"><title>Node8&#45;&gt;Node12</title>
<path fill="none" stroke="midnightblue" d="M468.807,-405.81C489.063,-415.159 515.247,-427.244 537.009,-437.288"/>
<polygon fill="midnightblue" stroke="midnightblue" points="535.799,-440.585 546.346,-441.597 538.733,-434.229 535.799,-440.585"/>
</g>
<!-- Node13 -->
<g id="node13" class="node"><title>Node13</title>
<g id="a_node13"><a xlink:href="../../d9/db1/namespaceserver.xhtml#a4ab136076f9a5f1ae8a6d78020f07c07" target="_top" xlink:title="server::getNickAndStatus\lFromId">
<polygon fill="white" stroke="black" points="516.5,-578.669 516.5,-608.669 643.5,-608.669 643.5,-578.669 516.5,-578.669"/>
<text text-anchor="start" x="524.5" y="-596.669" font-family="Helvetica,sans-Serif" font-size="10.00">server::getNickAndStatus</text>
<text text-anchor="middle" x="580" y="-585.669" font-family="Helvetica,sans-Serif" font-size="10.00">FromId</text>
</a>
</g>
</g>
<!-- Node8&#45;&gt;Node13 -->
<g id="edge18" class="edge"><title>Node8&#45;&gt;Node13</title>
<path fill="none" stroke="midnightblue" d="M438.78,-405.772C445.747,-439.536 467.029,-521.835 516,-568.669 517.624,-570.222 519.356,-571.682 521.171,-573.055"/>
<polygon fill="midnightblue" stroke="midnightblue" points="519.293,-576.008 529.583,-578.531 523.112,-570.142 519.293,-576.008"/>
</g>
<!-- Node14 -->
<g id="node14" class="node"><title>Node14</title>
<g id="a_node14"><a xlink:href="../../d1/d10/classserver_1_1irc_client.xhtml#afa10a5c7c8ee0a4cfdae135d6737a0a2" target="_top" xlink:title="Emitted when a user changes his status (nick|Status)">
<polygon fill="white" stroke="black" points="531.5,-353.669 531.5,-383.669 628.5,-383.669 628.5,-353.669 531.5,-353.669"/>
<text text-anchor="start" x="539.5" y="-371.669" font-family="Helvetica,sans-Serif" font-size="10.00">server::ircClient::</text>
<text text-anchor="middle" x="580" y="-360.669" font-family="Helvetica,sans-Serif" font-size="10.00">userChangeStatus</text>
</a>
</g>
</g>
<!-- Node8&#45;&gt;Node14 -->
<g id="edge20" class="edge"><title>Node8&#45;&gt;Node14</title>
<path fill="none" stroke="midnightblue" d="M479.682,-383.948C492.834,-381.925 507.475,-379.672 521.386,-377.532"/>
<polygon fill="midnightblue" stroke="midnightblue" points="522.004,-380.979 531.355,-375.999 520.939,-374.06 522.004,-380.979"/>
</g>
<!-- Node15 -->
<g id="node15" class="node"><title>Node15</title>
<g id="a_node15"><a xlink:href="../../d9/db1/namespaceserver.xhtml#a19c09df3c1cb9feb973f1383aa20d0af" target="_top" xlink:title="server::getId">
<polygon fill="white" stroke="black" points="545.5,-315.169 545.5,-334.169 614.5,-334.169 614.5,-315.169 545.5,-315.169"/>
<text text-anchor="middle" x="580" y="-322.169" font-family="Helvetica,sans-Serif" font-size="10.00">server::getId</text>
</a>
</g>
</g>
<!-- Node8&#45;&gt;Node15 -->
<g id="edge21" class="edge"><title>Node8&#45;&gt;Node15</title>
<path fill="none" stroke="midnightblue" d="M459.109,-375.608C474.726,-365.88 496.057,-353.446 516,-344.669 522.281,-341.904 529.064,-339.34 535.774,-337.034"/>
<polygon fill="midnightblue" stroke="midnightblue" points="537.074,-340.29 545.483,-333.845 534.89,-333.64 537.074,-340.29"/>
</g>
<!-- Node16 -->
<g id="node16" class="node"><title>Node16</title>
<g id="a_node16"><a xlink:href="../../d1/d10/classserver_1_1irc_client.xhtml#a566c94db09896197fdb8e982756b8c1e" target="_top" xlink:title="Emitted when a user changes his nickname (nick|Status)">
<polygon fill="white" stroke="black" points="535.5,-265.669 535.5,-295.669 624.5,-295.669 624.5,-265.669 535.5,-265.669"/>
<text text-anchor="start" x="543.5" y="-283.669" font-family="Helvetica,sans-Serif" font-size="10.00">server::ircClient::</text>
<text text-anchor="middle" x="580" y="-272.669" font-family="Helvetica,sans-Serif" font-size="10.00">userChangeNick</text>
</a>
</g>
</g>
<!-- Node8&#45;&gt;Node16 -->
<g id="edge22" class="edge"><title>Node8&#45;&gt;Node16</title>
<path fill="none" stroke="midnightblue" d="M446.875,-375.546C460.966,-356.893 487.168,-325.255 516,-305.669 519.247,-303.463 522.718,-301.407 526.298,-299.5"/>
<polygon fill="midnightblue" stroke="midnightblue" points="527.917,-302.605 535.361,-295.066 524.841,-296.317 527.917,-302.605"/>
</g>
<!-- Node17 -->
<g id="node17" class="node"><title>Node17</title>
<g id="a_node17"><a xlink:href="../../d1/d10/classserver_1_1irc_client.xhtml#a1ba37565db4acdfae3163d8d7217d9f2" target="_top" xlink:title="Emitted when a user leaves the room with a PART message.">
<polygon fill="white" stroke="black" points="535.5,-627.669 535.5,-657.669 624.5,-657.669 624.5,-627.669 535.5,-627.669"/>
<text text-anchor="start" x="543.5" y="-645.669" font-family="Helvetica,sans-Serif" font-size="10.00">server::ircClient::</text>
<text text-anchor="middle" x="580" y="-634.669" font-family="Helvetica,sans-Serif" font-size="10.00">userOffline</text>
</a>
</g>
</g>
<!-- Node8&#45;&gt;Node17 -->
<g id="edge23" class="edge"><title>Node8&#45;&gt;Node17</title>
<path fill="none" stroke="midnightblue" d="M437.107,-405.872C440.815,-445.917 456.185,-555.478 516,-617.669 519.112,-620.905 522.697,-623.731 526.543,-626.199"/>
<polygon fill="midnightblue" stroke="midnightblue" points="524.856,-629.266 535.3,-631.047 528.246,-623.141 524.856,-629.266"/>
</g>
<!-- Node13&#45;&gt;Node11 -->
<g id="edge19" class="edge"><title>Node13&#45;&gt;Node11</title>
<path fill="none" stroke="midnightblue" d="M622.565,-578.616C629.83,-575.58 637.226,-572.22 644,-568.669 672.399,-553.78 702.757,-532.681 722.257,-518.377"/>
<polygon fill="midnightblue" stroke="midnightblue" points="724.462,-521.1 730.407,-512.33 720.29,-515.478 724.462,-521.1"/>
</g>
<!-- Node18&#45;&gt;Node6 -->
<g id="edge25" class="edge"><title>Node18&#45;&gt;Node6</title>
<path fill="none" stroke="midnightblue" d="M462.228,-93.7087C488.224,-108.615 527.783,-131.3 553.516,-146.056"/>
<polygon fill="midnightblue" stroke="midnightblue" points="551.905,-149.166 562.321,-151.104 555.387,-143.093 551.905,-149.166"/>
</g>
<!-- Node19&#45;&gt;Node3 -->
<g id="edge27" class="edge"><title>Node19&#45;&gt;Node3</title>
<path fill="none" stroke="midnightblue" d="M353.5,-41.7876C438.061,-49.7945 623.38,-67.342 704.117,-74.9869"/>
<polygon fill="midnightblue" stroke="midnightblue" points="704.056,-78.4966 714.341,-75.9549 704.715,-71.5278 704.056,-78.4966"/>
</g>
</g>
</svg>
        <g id="navigator" transform="translate(0 0)" fill="#404254">
                <rect fill="#f2f5e9" fill-opacity="0.5" stroke="#606060" stroke-width=".5" x="0" y="0" width="60" height="60"/>
                <use id="zoomplus" xlink:href="#zoomPlus" x="17" y="9" onmousedown="handleZoom(evt,'in')"/>
                <use id="zoomminus" xlink:href="#zoomMin" x="42" y="9" onmousedown="handleZoom(evt,'out')"/>
                <use id="reset" xlink:href="#resetDef" x="30" y="36" onmousedown="handleReset()"/>
                <g id="arrowUp" xlink:href="#dirArrow" transform="translate(30 24)" onmousedown="handlePan(0,-1)">
                  <use xlink:href="#rim" fill="#404040">
                        <set attributeName="fill" to="#808080" begin="arrowUp.mouseover" end="arrowUp.mouseout"/>
                  </use>
                  <path fill="none" stroke="white" stroke-width="1.5" d="M0,-3.0v7 M-2.5,-0.5L0,-3.0L2.5,-0.5"/>
                </g>
                <g id="arrowRight" xlink:href="#dirArrow" transform="rotate(90) translate(36 -43)" onmousedown="handlePan(1,0)">
                  <use xlink:href="#rim" fill="#404040">
                        <set attributeName="fill" to="#808080" begin="arrowRight.mouseover" end="arrowRight.mouseout"/>
                  </use>
                  <path fill="none" stroke="white" stroke-width="1.5" d="M0,-3.0v7 M-2.5,-0.5L0,-3.0L2.5,-0.5"/>
                </g>
                <g id="arrowDown" xlink:href="#dirArrow" transform="rotate(180) translate(-30 -48)" onmousedown="handlePan(0,1)">
                  <use xlink:href="#rim" fill="#404040">
                        <set attributeName="fill" to="#808080" begin="arrowDown.mouseover" end="arrowDown.mouseout"/>
                  </use>
                  <path fill="none" stroke="white" stroke-width="1.5" d="M0,-3.0v7 M-2.5,-0.5L0,-3.0L2.5,-0.5"/>
                </g>
                <g id="arrowLeft" xlink:href="#dirArrow" transform="rotate(270) translate(-36 17)" onmousedown="handlePan(-1,0)">
                  <use xlink:href="#rim" fill="#404040">
                        <set attributeName="fill" to="#808080" begin="arrowLeft.mouseover" end="arrowLeft.mouseout"/>
                  </use>
                  <path fill="none" stroke="white" stroke-width="1.5" d="M0,-3.0v7 M-2.5,-0.5L0,-3.0L2.5,-0.5"/>
                </g>
        </g>
        <svg viewBox="0 0 15 15" width="100%" height="30px" preserveAspectRatio="xMaxYMin meet">
         <g id="arrow_out" transform="scale(0.3 0.3)">
          <a xlink:href="classserver_1_1irc_client_a0f263c3a5ae9d82109842518b4866ab5_cgraph_org.svg" target="_base">
           <rect id="button" ry="5" rx="5" y="6" x="6" height="38" width="38"
                fill="#f2f5e9" fill-opacity="0.5" stroke="#606060" stroke-width="1.0"/>
           <path id="arrow"
             d="M 11.500037,31.436501 C 11.940474,20.09759 22.043105,11.32322 32.158766,21.979434 L 37.068811,17.246167 C 37.068811,17.246167 37.088388,32 37.088388,32 L 22.160133,31.978069 C 22.160133,31.978069 26.997745,27.140456 26.997745,27.140456 C 18.528582,18.264221 13.291696,25.230495 11.500037,31.436501 z"
             style="fill:#404040;"/>
          </a>
         </g>
        </svg>
</svg>
