<?xml version="1.0" encoding="UTF-8" standalone="no"?>
<!DOCTYPE svg PUBLIC "-//W3C//DTD SVG 1.1//EN"
 "http://www.w3.org/Graphics/SVG/1.1/DTD/svg11.dtd">
<!-- Generated by graphviz version 2.30.1 (20130303.0817)
 -->
<!-- Title: server::ircClient::connectTimeout Pages: 1 -->
<svg width="240pt" height="38pt"
 viewBox="0.00 0.00 240.00 38.00" xmlns="http://www.w3.org/2000/svg" xmlns:xlink="http://www.w3.org/1999/xlink">
<g id="graph0" class="graph" transform="scale(1 1) rotate(0) translate(4 34)">
<title>server::ircClient::connectTimeout</title>
<polygon fill="white" stroke="white" points="-4,5 -4,-34 237,-34 237,5 -4,5"/>
<!-- Node1 -->
<g id="node1" class="node"><title>Node1</title>
<polygon fill="#bfbfbf" stroke="black" points="0.5,-0 0.5,-30 89.5,-30 89.5,-0 0.5,-0"/>
<text text-anchor="start" x="8.5" y="-18" font-family="Helvetica,sans-Serif" font-size="10.00">server::ircClient::</text>
<text text-anchor="middle" x="45" y="-7" font-family="Helvetica,sans-Serif" font-size="10.00">connectTimeout</text>
</g>
<!-- Node2 -->
<g id="node2" class="node"><title>Node2</title>
<g id="a_node2"><a xlink:href="../../d1/d10/classserver_1_1irc_client.html#a6e73d106182456e97f48db009a29642d" target="_top" xlink:title="Emitted when a connection cannot be made after MAX_CONNECT_TIMEOUT_IN_MS.">
<polygon fill="white" stroke="black" points="126.5,-0 126.5,-30 231.5,-30 231.5,-0 126.5,-0"/>
<text text-anchor="start" x="134.5" y="-18" font-family="Helvetica,sans-Serif" font-size="10.00">server::ircClient::</text>
<text text-anchor="middle" x="179" y="-7" font-family="Helvetica,sans-Serif" font-size="10.00">IRCConnectTimeOut</text>
</a>
</g>
</g>
<!-- Node1&#45;&gt;Node2 -->
<g id="edge1" class="edge"><title>Node1&#45;&gt;Node2</title>
<path fill="none" stroke="midnightblue" d="M89.5876,-15C98.0991,-15 107.175,-15 116.148,-15"/>
<polygon fill="midnightblue" stroke="midnightblue" points="116.2,-18.5001 126.2,-15 116.2,-11.5001 116.2,-18.5001"/>
</g>
</g>
</svg>
