<?xml version="1.0" encoding="UTF-8" standalone="no"?>
<!DOCTYPE svg PUBLIC "-//W3C//DTD SVG 1.1//EN"
 "http://www.w3.org/Graphics/SVG/1.1/DTD/svg11.dtd">
<!-- Generated by graphviz version 2.30.1 (20130303.0817)
 -->
<!-- Title: server::ircClient::handleCommand Pages: 1 -->
<svg width="568pt" height="519pt"
 viewBox="0.00 0.00 568.00 519.43" xmlns="http://www.w3.org/2000/svg" xmlns:xlink="http://www.w3.org/1999/xlink">
<g id="graph0" class="graph" transform="scale(1 1) rotate(0) translate(4 515.433)">
<title>server::ircClient::handleCommand</title>
<polygon fill="white" stroke="white" points="-4,5 -4,-515.433 565,-515.433 565,5 -4,5"/>
<!-- Node1 -->
<g id="node1" class="node"><title>Node1</title>
<polygon fill="#bfbfbf" stroke="black" points="0.5,-252 0.5,-282 89.5,-282 89.5,-252 0.5,-252"/>
<text text-anchor="start" x="8.5" y="-270" font-family="Helvetica,sans-Serif" font-size="10.00">server::ircClient::</text>
<text text-anchor="middle" x="45" y="-259" font-family="Helvetica,sans-Serif" font-size="10.00">handleCommand</text>
</g>
<!-- Node2 -->
<g id="node2" class="node"><title>Node2</title>
<g id="a_node2"><a xlink:href="../../d9/db1/namespaceserver.html#a5975bac26af821c5aa25ca3b66ab35a9" target="_top" xlink:title="Shorthand to convert a QString to a std::string.">
<polygon fill="white" stroke="black" points="323,-487.5 323,-506.5 385,-506.5 385,-487.5 323,-487.5"/>
<text text-anchor="middle" x="354" y="-494.5" font-family="Helvetica,sans-Serif" font-size="10.00">server::qts</text>
</a>
</g>
</g>
<!-- Node1&#45;&gt;Node2 -->
<g id="edge1" class="edge"><title>Node1&#45;&gt;Node2</title>
<path fill="none" stroke="midnightblue" d="M46.5706,-282.154C48.9642,-321.876 61.3995,-429.302 126,-478 180.101,-518.783 263.45,-513.491 312.673,-505.527"/>
<polygon fill="midnightblue" stroke="midnightblue" points="313.38,-508.957 322.636,-503.802 312.186,-502.059 313.38,-508.957"/>
</g>
<!-- Node3 -->
<g id="node3" class="node"><title>Node3</title>
<g id="a_node3"><a xlink:href="../../d1/d10/classserver_1_1irc_client.html#a2c1954be24f18aef7d8ec6a7a3e7f29c" target="_top" xlink:title="Sends a message to the IRC server.">
<polygon fill="white" stroke="black" points="135,-449.5 135,-468.5 245,-468.5 245,-449.5 135,-449.5"/>
<text text-anchor="middle" x="190" y="-456.5" font-family="Helvetica,sans-Serif" font-size="10.00">server::ircClient::send</text>
</a>
</g>
</g>
<!-- Node1&#45;&gt;Node3 -->
<g id="edge2" class="edge"><title>Node1&#45;&gt;Node3</title>
<path fill="none" stroke="midnightblue" d="M48.6878,-282.234C55.4179,-315.826 76.1643,-396.705 126,-440 127.962,-441.704 130.073,-443.256 132.29,-444.669"/>
<polygon fill="midnightblue" stroke="midnightblue" points="130.813,-447.847 141.285,-449.455 134.102,-441.668 130.813,-447.847"/>
</g>
<!-- Node6 -->
<g id="node6" class="node"><title>Node6</title>
<g id="a_node6"><a xlink:href="../../d9/db1/namespaceserver.html#ab14f85d7268f4938433c3bd76aefd61e" target="_top" xlink:title="Just an instring command. Checks if search is in command.">
<polygon fill="white" stroke="black" points="140,-411.5 140,-430.5 240,-430.5 240,-411.5 140,-411.5"/>
<text text-anchor="middle" x="190" y="-418.5" font-family="Helvetica,sans-Serif" font-size="10.00">server::inCommand</text>
</a>
</g>
</g>
<!-- Node1&#45;&gt;Node6 -->
<g id="edge7" class="edge"><title>Node1&#45;&gt;Node6</title>
<path fill="none" stroke="midnightblue" d="M51.0082,-282.314C60.8689,-310.089 85.4365,-368.864 126,-401 128.915,-403.309 132.101,-405.354 135.444,-407.165"/>
<polygon fill="midnightblue" stroke="midnightblue" points="134.035,-410.37 144.577,-411.432 136.998,-404.028 134.035,-410.37"/>
</g>
<!-- Node7 -->
<g id="node7" class="node"><title>Node7</title>
<g id="a_node7"><a xlink:href="../../d1/d10/classserver_1_1irc_client.html#a1cd3512aac27b016945c5b66d0c777d1" target="_top" xlink:title="Emitted when a user comes online with a JOIN message.">
<polygon fill="white" stroke="black" points="145.5,-362 145.5,-392 234.5,-392 234.5,-362 145.5,-362"/>
<text text-anchor="start" x="153.5" y="-380" font-family="Helvetica,sans-Serif" font-size="10.00">server::ircClient::</text>
<text text-anchor="middle" x="190" y="-369" font-family="Helvetica,sans-Serif" font-size="10.00">userOnline</text>
</a>
</g>
</g>
<!-- Node1&#45;&gt;Node7 -->
<g id="edge8" class="edge"><title>Node1&#45;&gt;Node7</title>
<path fill="none" stroke="midnightblue" d="M58.3054,-282.112C73.0161,-299.459 99.0461,-327.964 126,-347 131.195,-350.669 136.909,-354.095 142.71,-357.223"/>
<polygon fill="midnightblue" stroke="midnightblue" points="141.339,-360.453 151.837,-361.886 144.524,-354.219 141.339,-360.453"/>
</g>
<!-- Node8 -->
<g id="node8" class="node"><title>Node8</title>
<g id="a_node8"><a xlink:href="../../d9/db1/namespaceserver.html#abefc8e9cd145a8a00676c9bf43b877ef" target="_top" xlink:title="Converts a nickname to a nickAndStatus (nick|status)">
<polygon fill="white" stroke="black" points="290.5,-257.5 290.5,-276.5 417.5,-276.5 417.5,-257.5 290.5,-257.5"/>
<text text-anchor="middle" x="354" y="-264.5" font-family="Helvetica,sans-Serif" font-size="10.00">server::getNickAndStatus</text>
</a>
</g>
</g>
<!-- Node1&#45;&gt;Node8 -->
<g id="edge9" class="edge"><title>Node1&#45;&gt;Node8</title>
<path fill="none" stroke="midnightblue" d="M65.4192,-282.065C80.8711,-293.046 103.556,-307.007 126,-313 180.963,-327.675 198.451,-325.275 254,-313 281.195,-306.991 309.79,-292.723 329.217,-281.658"/>
<polygon fill="midnightblue" stroke="midnightblue" points="331.109,-284.606 337.971,-276.533 327.573,-278.565 331.109,-284.606"/>
</g>
<!-- Node9 -->
<g id="node9" class="node"><title>Node9</title>
<g id="a_node9"><a xlink:href="../../d1/d10/classserver_1_1irc_client.html#aa59470840fe4135454af200bf5259874" target="_top" xlink:title="Emitted when a chatmessage has been received.">
<polygon fill="white" stroke="black" points="145.5,-274 145.5,-304 234.5,-304 234.5,-274 145.5,-274"/>
<text text-anchor="start" x="153.5" y="-292" font-family="Helvetica,sans-Serif" font-size="10.00">server::ircClient::</text>
<text text-anchor="middle" x="190" y="-281" font-family="Helvetica,sans-Serif" font-size="10.00">chatReceived</text>
</a>
</g>
</g>
<!-- Node1&#45;&gt;Node9 -->
<g id="edge10" class="edge"><title>Node1&#45;&gt;Node9</title>
<path fill="none" stroke="midnightblue" d="M89.6817,-273.72C103.963,-275.917 119.999,-278.384 134.95,-280.685"/>
<polygon fill="midnightblue" stroke="midnightblue" points="134.677,-284.184 145.093,-282.245 135.742,-277.265 134.677,-284.184"/>
</g>
<!-- Node10 -->
<g id="node10" class="node"><title>Node10</title>
<g id="a_node10"><a xlink:href="../../d2/d29/classserver_1_1irc_user.html#a9b5683eaeb89557d6e1b1e57708aeb35" target="_top" xlink:title="server::ircUser::getName">
<polygon fill="white" stroke="black" points="128,-235.5 128,-254.5 252,-254.5 252,-235.5 128,-235.5"/>
<text text-anchor="middle" x="190" y="-242.5" font-family="Helvetica,sans-Serif" font-size="10.00">server::ircUser::getName</text>
</a>
</g>
</g>
<!-- Node1&#45;&gt;Node10 -->
<g id="edge11" class="edge"><title>Node1&#45;&gt;Node10</title>
<path fill="none" stroke="midnightblue" d="M89.6817,-260.28C98.6429,-258.901 108.295,-257.416 117.936,-255.933"/>
<polygon fill="midnightblue" stroke="midnightblue" points="118.599,-259.372 127.95,-254.392 117.534,-252.454 118.599,-259.372"/>
</g>
<!-- Node11 -->
<g id="node11" class="node"><title>Node11</title>
<g id="a_node11"><a xlink:href="../../d9/db1/namespaceserver.html#a4ab136076f9a5f1ae8a6d78020f07c07" target="_top" xlink:title="Converts an IRC&#45;ID to a nickAndStatus (nick|status)">
<polygon fill="white" stroke="black" points="126.5,-186 126.5,-216 253.5,-216 253.5,-186 126.5,-186"/>
<text text-anchor="start" x="134.5" y="-204" font-family="Helvetica,sans-Serif" font-size="10.00">server::getNickAndStatus</text>
<text text-anchor="middle" x="190" y="-193" font-family="Helvetica,sans-Serif" font-size="10.00">FromId</text>
</a>
</g>
</g>
<!-- Node1&#45;&gt;Node11 -->
<g id="edge12" class="edge"><title>Node1&#45;&gt;Node11</title>
<path fill="none" stroke="midnightblue" d="M73.8164,-251.913C89.0545,-243.86 108.375,-233.991 126,-226 130.454,-223.98 135.123,-221.958 139.819,-219.986"/>
<polygon fill="midnightblue" stroke="midnightblue" points="141.52,-223.07 149.436,-216.028 138.856,-216.597 141.52,-223.07"/>
</g>
<!-- Node12 -->
<g id="node12" class="node"><title>Node12</title>
<g id="a_node12"><a xlink:href="../../d1/d10/classserver_1_1irc_client.html#afa10a5c7c8ee0a4cfdae135d6737a0a2" target="_top" xlink:title="Emitted when a user changes his status (nick|Status)">
<polygon fill="white" stroke="black" points="141.5,-137 141.5,-167 238.5,-167 238.5,-137 141.5,-137"/>
<text text-anchor="start" x="149.5" y="-155" font-family="Helvetica,sans-Serif" font-size="10.00">server::ircClient::</text>
<text text-anchor="middle" x="190" y="-144" font-family="Helvetica,sans-Serif" font-size="10.00">userChangeStatus</text>
</a>
</g>
</g>
<!-- Node1&#45;&gt;Node12 -->
<g id="edge14" class="edge"><title>Node1&#45;&gt;Node12</title>
<path fill="none" stroke="midnightblue" d="M55.9588,-251.974C69.6528,-232.338 96.0336,-197.987 126,-177 128.699,-175.11 131.561,-173.334 134.518,-171.67"/>
<polygon fill="midnightblue" stroke="midnightblue" points="136.305,-174.688 143.608,-167.013 133.112,-168.458 136.305,-174.688"/>
</g>
<!-- Node13 -->
<g id="node13" class="node"><title>Node13</title>
<g id="a_node13"><a xlink:href="../../d9/db1/namespaceserver.html#ad244a00644a29a6c927a6ee9dd351351" target="_top" xlink:title="Converts a full IRC&#45;ID to something without the nickname.">
<polygon fill="white" stroke="black" points="155.5,-98.5 155.5,-117.5 224.5,-117.5 224.5,-98.5 155.5,-98.5"/>
<text text-anchor="middle" x="190" y="-105.5" font-family="Helvetica,sans-Serif" font-size="10.00">server::getId</text>
</a>
</g>
</g>
<!-- Node1&#45;&gt;Node13 -->
<g id="edge15" class="edge"><title>Node1&#45;&gt;Node13</title>
<path fill="none" stroke="midnightblue" d="M50.6932,-251.568C60.1818,-222.953 84.3636,-161.531 126,-128 131.776,-123.349 138.65,-119.771 145.701,-117.022"/>
<polygon fill="midnightblue" stroke="midnightblue" points="146.986,-120.282 155.337,-113.763 144.743,-113.651 146.986,-120.282"/>
</g>
<!-- Node14 -->
<g id="node14" class="node"><title>Node14</title>
<g id="a_node14"><a xlink:href="../../d1/d10/classserver_1_1irc_client.html#a566c94db09896197fdb8e982756b8c1e" target="_top" xlink:title="Emitted when a user changes his nickname (nick|Status)">
<polygon fill="white" stroke="black" points="145.5,-49 145.5,-79 234.5,-79 234.5,-49 145.5,-49"/>
<text text-anchor="start" x="153.5" y="-67" font-family="Helvetica,sans-Serif" font-size="10.00">server::ircClient::</text>
<text text-anchor="middle" x="190" y="-56" font-family="Helvetica,sans-Serif" font-size="10.00">userChangeNick</text>
</a>
</g>
</g>
<!-- Node1&#45;&gt;Node14 -->
<g id="edge16" class="edge"><title>Node1&#45;&gt;Node14</title>
<path fill="none" stroke="midnightblue" d="M48.7795,-251.897C55.747,-218.132 77.0289,-135.833 126,-89 129.109,-86.0264 132.616,-83.3922 136.342,-81.0612"/>
<polygon fill="midnightblue" stroke="midnightblue" points="138.244,-84.0108 145.353,-76.1551 134.897,-77.8629 138.244,-84.0108"/>
</g>
<!-- Node15 -->
<g id="node15" class="node"><title>Node15</title>
<g id="a_node15"><a xlink:href="../../d1/d10/classserver_1_1irc_client.html#a1ba37565db4acdfae3163d8d7217d9f2" target="_top" xlink:title="Emitted when a user leaves the room with a PART message.">
<polygon fill="white" stroke="black" points="145.5,-0 145.5,-30 234.5,-30 234.5,-0 145.5,-0"/>
<text text-anchor="start" x="153.5" y="-18" font-family="Helvetica,sans-Serif" font-size="10.00">server::ircClient::</text>
<text text-anchor="middle" x="190" y="-7" font-family="Helvetica,sans-Serif" font-size="10.00">userOffline</text>
</a>
</g>
</g>
<!-- Node1&#45;&gt;Node15 -->
<g id="edge17" class="edge"><title>Node1&#45;&gt;Node15</title>
<path fill="none" stroke="midnightblue" d="M47.1073,-251.796C50.8149,-211.752 66.1851,-102.19 126,-40 129.112,-36.7639 132.697,-33.9372 136.543,-31.4695"/>
<polygon fill="midnightblue" stroke="midnightblue" points="138.246,-34.5272 145.3,-26.6217 134.856,-28.403 138.246,-34.5272"/>
</g>
<!-- Node4 -->
<g id="node4" class="node"><title>Node4</title>
<g id="a_node4"><a xlink:href="../../d6/d75/namespace_k4_u.html#aaddaee50fab2801df390147891b0c09d" target="_top" xlink:title="K4U::endl">
<polygon fill="white" stroke="black" points="324.5,-449.5 324.5,-468.5 383.5,-468.5 383.5,-449.5 324.5,-449.5"/>
<text text-anchor="middle" x="354" y="-456.5" font-family="Helvetica,sans-Serif" font-size="10.00">K4U::endl</text>
</a>
</g>
</g>
<!-- Node3&#45;&gt;Node4 -->
<g id="edge3" class="edge"><title>Node3&#45;&gt;Node4</title>
<path fill="none" stroke="midnightblue" d="M245.394,-459C267.938,-459 293.574,-459 314.167,-459"/>
<polygon fill="midnightblue" stroke="midnightblue" points="314.434,-462.5 324.434,-459 314.434,-455.5 314.434,-462.5"/>
</g>
<!-- Node3&#45;&gt;Node2 -->
<g id="edge6" class="edge"><title>Node3&#45;&gt;Node2</title>
<path fill="none" stroke="midnightblue" d="M231.879,-468.589C256.759,-474.425 288.394,-481.846 313.095,-487.639"/>
<polygon fill="midnightblue" stroke="midnightblue" points="312.338,-491.057 322.873,-489.933 313.937,-484.242 312.338,-491.057"/>
</g>
<!-- Node5 -->
<g id="node5" class="node"><title>Node5</title>
<g id="a_node5"><a xlink:href="../../da/d64/class_k4_u_1_1cls_log.html#a81f179b2ccb3e2abeb9b47f5b83de935" target="_top" xlink:title="K4U::clsLog::doEndl">
<polygon fill="white" stroke="black" points="454,-449.5 454,-468.5 560,-468.5 560,-449.5 454,-449.5"/>
<text text-anchor="middle" x="507" y="-456.5" font-family="Helvetica,sans-Serif" font-size="10.00">K4U::clsLog::doEndl</text>
</a>
</g>
</g>
<!-- Node4&#45;&gt;Node5 -->
<g id="edge4" class="edge"><title>Node4&#45;&gt;Node5</title>
<path fill="none" stroke="midnightblue" d="M383.757,-453.565C400.744,-452.455 422.935,-452.048 443.742,-452.343"/>
<polygon fill="midnightblue" stroke="midnightblue" points="443.747,-455.844 453.815,-452.545 443.888,-448.845 443.747,-455.844"/>
</g>
<!-- Node5&#45;&gt;Node4 -->
<g id="edge5" class="edge"><title>Node5&#45;&gt;Node4</title>
<path fill="none" stroke="midnightblue" d="M453.815,-465.455C434.097,-465.969 412.027,-465.811 393.754,-464.982"/>
<polygon fill="midnightblue" stroke="midnightblue" points="393.934,-461.487 383.757,-464.435 393.551,-468.476 393.934,-461.487"/>
</g>
<!-- Node11&#45;&gt;Node8 -->
<g id="edge13" class="edge"><title>Node11&#45;&gt;Node8</title>
<path fill="none" stroke="midnightblue" d="M229.35,-216.113C237.496,-219.353 246.039,-222.772 254,-226 276.417,-235.089 301.603,-245.523 320.962,-253.59"/>
<polygon fill="midnightblue" stroke="midnightblue" points="319.656,-256.838 330.233,-257.459 322.352,-250.378 319.656,-256.838"/>
</g>
</g>
</svg>
