<?xml version="1.0" encoding="UTF-8" standalone="no"?>
<!DOCTYPE svg PUBLIC "-//W3C//DTD SVG 1.1//EN"
 "http://www.w3.org/Graphics/SVG/1.1/DTD/svg11.dtd">
<!-- Generated by graphviz version 2.30.1 (20130303.0817)
 -->
<!-- Title: server::ircClient::ircClient Pages: 1 -->
<!--zoomable 864 -->
<svg id="main" version="1.1" xmlns="http://www.w3.org/2000/svg" xmlns:xlink="http://www.w3.org/1999/xlink" xml:space="preserve" onload="init(evt)">
        <defs>
                <circle id="rim" cx="0" cy="0" r="7"/>
                <circle id="rim2" cx="0" cy="0" r="3.5"/>
                <g id="zoomPlus">
                        <use xlink:href="#rim" fill="#404040">
                                <set attributeName="fill" to="#808080" begin="zoomplus.mouseover" end="zoomplus.mouseout"/>
                        </use>
                        <path d="M-4,0h8M0,-4v8" fill="none" stroke="white" stroke-width="1.5" pointer-events="none"/>
                </g>
                <g id="zoomMin">
                        <use xlink:href="#rim" fill="#404040">
                                <set attributeName="fill" to="#808080" begin="zoomminus.mouseover" end="zoomminus.mouseout"/>
                        </use>
                        <path d="M-4,0h8" fill="none" stroke="white" stroke-width="1.5" pointer-events="none"/>
                </g>
                <g id="dirArrow">
                        <path fill="none" stroke="white" stroke-width="1.5" d="M0,-3.0v7 M-2.5,-0.5L0,-3.0L2.5,-0.5"/>
                </g>
               <g id="resetDef">
                       <use xlink:href="#rim2" fill="#404040">
                               <set attributeName="fill" to="#808080" begin="reset.mouseover" end="reset.mouseout"/>
                       </use>
               </g>
        </defs>

<script type="text/javascript">
var viewWidth = 974;
var viewHeight = 864;
var sectionId = 'dynsection-2';
</script>
<script xlink:href="../../svgpan.js"/>
<svg id="graph" class="graph">
<g id="viewport">
<title>server::ircClient::ircClient</title>
<polygon fill="white" stroke="white" points="-4,5 -4,-860 971,-860 971,5 -4,5"/>
<!-- Node1 -->
<g id="node1" class="node"><title>Node1</title>
<polygon fill="#bfbfbf" stroke="black" points="0.5,-120 0.5,-150 89.5,-150 89.5,-120 0.5,-120"/>
<text text-anchor="start" x="8.5" y="-138" font-family="Helvetica,sans-Serif" font-size="10.00">server::ircClient::</text>
<text text-anchor="middle" x="45" y="-127" font-family="Helvetica,sans-Serif" font-size="10.00">ircClient</text>
</g>
<!-- Node2 -->
<g id="node2" class="node"><title>Node2</title>
<g id="a_node2"><a xlink:href="../../d1/d10/classserver_1_1irc_client.html#a3991833ddcff72ca94d4c0ec588012ac" target="_top" xlink:title="Initializes the IRC Client. Does not yet connect!">
<polygon fill="white" stroke="black" points="126,-125.5 126,-144.5 228,-144.5 228,-125.5 126,-125.5"/>
<text text-anchor="middle" x="177" y="-132.5" font-family="Helvetica,sans-Serif" font-size="10.00">server::ircClient::init</text>
</a>
</g>
</g>
<!-- Node1&#45;&gt;Node2 -->
<g id="edge1" class="edge"><title>Node1&#45;&gt;Node2</title>
<path fill="none" stroke="midnightblue" d="M89.6498,-135C98.0264,-135 106.935,-135 115.728,-135"/>
<polygon fill="midnightblue" stroke="midnightblue" points="115.958,-138.5 125.958,-135 115.958,-131.5 115.958,-138.5"/>
</g>
<!-- Node3 -->
<g id="node3" class="node"><title>Node3</title>
<g id="a_node3"><a xlink:href="../../d6/d75/namespace_k4_u.html#aaddaee50fab2801df390147891b0c09d" target="_top" xlink:title="K4U::endl">
<polygon fill="white" stroke="black" points="730.5,-191.5 730.5,-210.5 789.5,-210.5 789.5,-191.5 730.5,-191.5"/>
<text text-anchor="middle" x="760" y="-198.5" font-family="Helvetica,sans-Serif" font-size="10.00">K4U::endl</text>
</a>
</g>
</g>
<!-- Node2&#45;&gt;Node3 -->
<g id="edge2" class="edge"><title>Node2&#45;&gt;Node3</title>
<path fill="none" stroke="midnightblue" d="M228.039,-140.684C341.82,-153.61 617.976,-184.98 720.149,-196.587"/>
<polygon fill="midnightblue" stroke="midnightblue" points="719.996,-200.092 730.328,-197.743 720.787,-193.136 719.996,-200.092"/>
</g>
<!-- Node5 -->
<g id="node5" class="node"><title>Node5</title>
<g id="a_node5"><a xlink:href="../../d1/d10/classserver_1_1irc_client.html#a384327d5a800bd0d970cffaf1a6a55c1" target="_top" xlink:title="Reads data from the IRC Socket.">
<polygon fill="white" stroke="black" points="264.5,-306 264.5,-336 353.5,-336 353.5,-306 264.5,-306"/>
<text text-anchor="start" x="272.5" y="-324" font-family="Helvetica,sans-Serif" font-size="10.00">server::ircClient::</text>
<text text-anchor="middle" x="309" y="-313" font-family="Helvetica,sans-Serif" font-size="10.00">readData</text>
</a>
</g>
</g>
<!-- Node2&#45;&gt;Node5 -->
<g id="edge5" class="edge"><title>Node2&#45;&gt;Node5</title>
<path fill="none" stroke="midnightblue" d="M184.806,-144.738C204.664,-173.151 262.937,-256.525 291.64,-297.593"/>
<polygon fill="midnightblue" stroke="midnightblue" points="288.857,-299.72 297.454,-305.912 294.595,-295.71 288.857,-299.72"/>
</g>
<!-- Node19 -->
<g id="node19" class="node"><title>Node19</title>
<g id="a_node19"><a xlink:href="../../d1/d10/classserver_1_1irc_client.html#a31910635c17bd56be644084746653ba8" target="_top" xlink:title="server::ircClient::\lsltConnected">
<polygon fill="white" stroke="black" points="264.5,-186 264.5,-216 353.5,-216 353.5,-186 264.5,-186"/>
<text text-anchor="start" x="272.5" y="-204" font-family="Helvetica,sans-Serif" font-size="10.00">server::ircClient::</text>
<text text-anchor="middle" x="309" y="-193" font-family="Helvetica,sans-Serif" font-size="10.00">sltConnected</text>
</a>
</g>
</g>
<!-- Node2&#45;&gt;Node19 -->
<g id="edge25" class="edge"><title>Node2&#45;&gt;Node19</title>
<path fill="none" stroke="midnightblue" d="M196.903,-144.597C215.678,-154.129 245.024,-169.027 268.841,-181.119"/>
<polygon fill="midnightblue" stroke="midnightblue" points="267.494,-184.361 277.996,-185.767 270.663,-178.119 267.494,-184.361"/>
</g>
<!-- Node21 -->
<g id="node21" class="node"><title>Node21</title>
<g id="a_node21"><a xlink:href="../../d1/d10/classserver_1_1irc_client.html#a32607649043e6053ff2ef9980df91800" target="_top" xlink:title="server::ircClient::\ldisconnected">
<polygon fill="white" stroke="black" points="264.5,-98 264.5,-128 353.5,-128 353.5,-98 264.5,-98"/>
<text text-anchor="start" x="272.5" y="-116" font-family="Helvetica,sans-Serif" font-size="10.00">server::ircClient::</text>
<text text-anchor="middle" x="309" y="-105" font-family="Helvetica,sans-Serif" font-size="10.00">disconnected</text>
</a>
</g>
</g>
<!-- Node2&#45;&gt;Node21 -->
<g id="edge28" class="edge"><title>Node2&#45;&gt;Node21</title>
<path fill="none" stroke="midnightblue" d="M228.261,-126.494C236.786,-125.052 245.668,-123.548 254.277,-122.092"/>
<polygon fill="midnightblue" stroke="midnightblue" points="254.946,-125.528 264.222,-120.409 253.778,-118.626 254.946,-125.528"/>
</g>
<!-- Node23 -->
<g id="node23" class="node"><title>Node23</title>
<g id="a_node23"><a xlink:href="../../d1/d10/classserver_1_1irc_client.html#a6ea26ab5da3d338c84927312832f5b69" target="_top" xlink:title="Runs every CHECK_PING_INTERVAL to check if the last ping was there.">
<polygon fill="white" stroke="black" points="264.5,-49 264.5,-79 353.5,-79 353.5,-49 264.5,-49"/>
<text text-anchor="start" x="272.5" y="-67" font-family="Helvetica,sans-Serif" font-size="10.00">server::ircClient::</text>
<text text-anchor="middle" x="309" y="-56" font-family="Helvetica,sans-Serif" font-size="10.00">checkForPing</text>
</a>
</g>
</g>
<!-- Node2&#45;&gt;Node23 -->
<g id="edge31" class="edge"><title>Node2&#45;&gt;Node23</title>
<path fill="none" stroke="midnightblue" d="M195.532,-125.425C214.914,-114.839 246.677,-97.4921 271.513,-83.9278"/>
<polygon fill="midnightblue" stroke="midnightblue" points="273.215,-86.9861 280.313,-79.1211 269.859,-80.8427 273.215,-86.9861"/>
</g>
<!-- Node24 -->
<g id="node24" class="node"><title>Node24</title>
<g id="a_node24"><a xlink:href="../../d1/d10/classserver_1_1irc_client.html#a9f9877406894f9b49bce12d8ad094bd7" target="_top" xlink:title="server::ircClient::\lconnectTimeout">
<polygon fill="white" stroke="black" points="264.5,-0 264.5,-30 353.5,-30 353.5,-0 264.5,-0"/>
<text text-anchor="start" x="272.5" y="-18" font-family="Helvetica,sans-Serif" font-size="10.00">server::ircClient::</text>
<text text-anchor="middle" x="309" y="-7" font-family="Helvetica,sans-Serif" font-size="10.00">connectTimeout</text>
</a>
</g>
</g>
<!-- Node2&#45;&gt;Node24 -->
<g id="edge33" class="edge"><title>Node2&#45;&gt;Node24</title>
<path fill="none" stroke="midnightblue" d="M184.975,-125.452C198.633,-107.216 230.502,-66.8612 264,-40 265.782,-38.571 267.656,-37.1743 269.585,-35.8182"/>
<polygon fill="midnightblue" stroke="midnightblue" points="271.808,-38.5476 278.278,-30.1577 267.988,-32.6816 271.808,-38.5476"/>
</g>
<!-- Node4 -->
<g id="node4" class="node"><title>Node4</title>
<g id="a_node4"><a xlink:href="../../da/d64/class_k4_u_1_1cls_log.html#a81f179b2ccb3e2abeb9b47f5b83de935" target="_top" xlink:title="K4U::clsLog::doEndl">
<polygon fill="white" stroke="black" points="860,-191.5 860,-210.5 966,-210.5 966,-191.5 860,-191.5"/>
<text text-anchor="middle" x="913" y="-198.5" font-family="Helvetica,sans-Serif" font-size="10.00">K4U::clsLog::doEndl</text>
</a>
</g>
</g>
<!-- Node3&#45;&gt;Node4 -->
<g id="edge3" class="edge"><title>Node3&#45;&gt;Node4</title>
<path fill="none" stroke="midnightblue" d="M789.757,-195.565C806.744,-194.455 828.935,-194.048 849.742,-194.343"/>
<polygon fill="midnightblue" stroke="midnightblue" points="849.747,-197.844 859.815,-194.545 849.888,-190.845 849.747,-197.844"/>
</g>
<!-- Node4&#45;&gt;Node3 -->
<g id="edge4" class="edge"><title>Node4&#45;&gt;Node3</title>
<path fill="none" stroke="midnightblue" d="M859.815,-207.455C840.097,-207.969 818.027,-207.811 799.754,-206.982"/>
<polygon fill="midnightblue" stroke="midnightblue" points="799.934,-203.487 789.757,-206.435 799.551,-210.476 799.934,-203.487"/>
</g>
<!-- Node5&#45;&gt;Node3 -->
<g id="edge6" class="edge"><title>Node5&#45;&gt;Node3</title>
<path fill="none" stroke="midnightblue" d="M353.87,-309.275C441.673,-285.809 637.69,-233.422 720.692,-211.238"/>
<polygon fill="midnightblue" stroke="midnightblue" points="721.714,-214.588 730.472,-208.625 719.907,-207.825 721.714,-214.588"/>
</g>
<!-- Node6 -->
<g id="node6" class="node"><title>Node6</title>
<g id="a_node6"><a xlink:href="../../d1/d10/classserver_1_1irc_client.html#a2c1954be24f18aef7d8ec6a7a3e7f29c" target="_top" xlink:title="Sends a message to the IRC server.">
<polygon fill="white" stroke="black" points="541,-311.5 541,-330.5 651,-330.5 651,-311.5 541,-311.5"/>
<text text-anchor="middle" x="596" y="-318.5" font-family="Helvetica,sans-Serif" font-size="10.00">server::ircClient::send</text>
</a>
</g>
</g>
<!-- Node5&#45;&gt;Node6 -->
<g id="edge7" class="edge"><title>Node5&#45;&gt;Node6</title>
<path fill="none" stroke="midnightblue" d="M353.596,-321C400.839,-321 476.701,-321 530.769,-321"/>
<polygon fill="midnightblue" stroke="midnightblue" points="530.938,-324.5 540.938,-321 530.938,-317.5 530.938,-324.5"/>
</g>
<!-- Node7 -->
<g id="node7" class="node"><title>Node7</title>
<g id="a_node7"><a xlink:href="../../d9/db1/namespaceserver.html#a5975bac26af821c5aa25ca3b66ab35a9" target="_top" xlink:title="Shorthand to convert a QString to a std::string.">
<polygon fill="white" stroke="black" points="729,-349.5 729,-368.5 791,-368.5 791,-349.5 729,-349.5"/>
<text text-anchor="middle" x="760" y="-356.5" font-family="Helvetica,sans-Serif" font-size="10.00">server::qts</text>
</a>
</g>
</g>
<!-- Node5&#45;&gt;Node7 -->
<g id="edge10" class="edge"><title>Node5&#45;&gt;Node7</title>
<path fill="none" stroke="midnightblue" d="M353.887,-329.561C365.584,-331.602 378.24,-333.593 390,-335 508.895,-349.227 650.422,-355.463 718.486,-357.8"/>
<polygon fill="midnightblue" stroke="midnightblue" points="718.654,-361.307 728.765,-358.142 718.887,-354.311 718.654,-361.307"/>
</g>
<!-- Node8 -->
<g id="node8" class="node"><title>Node8</title>
<g id="a_node8"><a xlink:href="../../d1/d10/classserver_1_1irc_client.html#af618e7f589a052d90e2dadbc87e83429" target="_top" xlink:title="Handles a command sent from the irc server.">
<polygon fill="white" stroke="black" points="398.5,-563 398.5,-593 487.5,-593 487.5,-563 398.5,-563"/>
<text text-anchor="start" x="406.5" y="-581" font-family="Helvetica,sans-Serif" font-size="10.00">server::ircClient::</text>
<text text-anchor="middle" x="443" y="-570" font-family="Helvetica,sans-Serif" font-size="10.00">handleCommand</text>
</a>
</g>
</g>
<!-- Node5&#45;&gt;Node8 -->
<g id="edge11" class="edge"><title>Node5&#45;&gt;Node8</title>
<path fill="none" stroke="midnightblue" d="M317.862,-336.307C339.964,-379.338 402.779,-501.637 429.607,-553.871"/>
<polygon fill="midnightblue" stroke="midnightblue" points="426.497,-555.477 434.179,-562.773 432.724,-552.279 426.497,-555.477"/>
</g>
<!-- Node6&#45;&gt;Node3 -->
<g id="edge8" class="edge"><title>Node6&#45;&gt;Node3</title>
<path fill="none" stroke="midnightblue" d="M609.983,-311.383C637.828,-290.757 703.518,-242.098 737.619,-216.838"/>
<polygon fill="midnightblue" stroke="midnightblue" points="740.003,-219.428 745.955,-210.663 735.836,-213.803 740.003,-219.428"/>
</g>
<!-- Node6&#45;&gt;Node7 -->
<g id="edge9" class="edge"><title>Node6&#45;&gt;Node7</title>
<path fill="none" stroke="midnightblue" d="M637.879,-330.589C662.759,-336.425 694.394,-343.846 719.095,-349.639"/>
<polygon fill="midnightblue" stroke="midnightblue" points="718.338,-353.057 728.873,-351.933 719.937,-346.242 718.338,-353.057"/>
</g>
<!-- Node8&#45;&gt;Node7 -->
<g id="edge12" class="edge"><title>Node8&#45;&gt;Node7</title>
<path fill="none" stroke="midnightblue" d="M474.906,-593.11C519.749,-612.636 603.641,-639.896 660,-602 736.994,-550.229 754.14,-427.024 757.933,-378.819"/>
<polygon fill="midnightblue" stroke="midnightblue" points="761.431,-378.96 758.611,-368.747 754.447,-378.489 761.431,-378.96"/>
</g>
<!-- Node8&#45;&gt;Node6 -->
<g id="edge13" class="edge"><title>Node8&#45;&gt;Node6</title>
<path fill="none" stroke="midnightblue" d="M448.263,-562.835C458.583,-527.865 487.391,-439.838 532,-378 543.467,-362.103 560.006,-347.351 573.26,-336.839"/>
<polygon fill="midnightblue" stroke="midnightblue" points="575.615,-339.443 581.41,-330.573 571.349,-333.893 575.615,-339.443"/>
</g>
<!-- Node9 -->
<g id="node9" class="node"><title>Node9</title>
<g id="a_node9"><a xlink:href="../../d9/db1/namespaceserver.html#ab14f85d7268f4938433c3bd76aefd61e" target="_top" xlink:title="Just an instring command. Checks if search is in command.">
<polygon fill="white" stroke="black" points="546,-387.5 546,-406.5 646,-406.5 646,-387.5 546,-387.5"/>
<text text-anchor="middle" x="596" y="-394.5" font-family="Helvetica,sans-Serif" font-size="10.00">server::inCommand</text>
</a>
</g>
</g>
<!-- Node8&#45;&gt;Node9 -->
<g id="edge14" class="edge"><title>Node8&#45;&gt;Node9</title>
<path fill="none" stroke="midnightblue" d="M448.15,-562.644C457.561,-530.73 483.562,-456.896 532,-417 534.74,-414.743 537.738,-412.739 540.892,-410.961"/>
<polygon fill="midnightblue" stroke="midnightblue" points="542.616,-414.015 550.106,-406.521 539.578,-407.709 542.616,-414.015"/>
</g>
<!-- Node10 -->
<g id="node10" class="node"><title>Node10</title>
<g id="a_node10"><a xlink:href="../../d1/d10/classserver_1_1irc_client.html#a1cd3512aac27b016945c5b66d0c777d1" target="_top" xlink:title="Emitted when a user comes online with a JOIN message.">
<polygon fill="white" stroke="black" points="551.5,-826 551.5,-856 640.5,-856 640.5,-826 551.5,-826"/>
<text text-anchor="start" x="559.5" y="-844" font-family="Helvetica,sans-Serif" font-size="10.00">server::ircClient::</text>
<text text-anchor="middle" x="596" y="-833" font-family="Helvetica,sans-Serif" font-size="10.00">userOnline</text>
</a>
</g>
</g>
<!-- Node8&#45;&gt;Node10 -->
<g id="edge15" class="edge"><title>Node8&#45;&gt;Node10</title>
<path fill="none" stroke="midnightblue" d="M445.369,-593.05C449.897,-634.3 467.976,-750.447 532,-816 535.137,-819.212 538.739,-822.022 542.597,-824.478"/>
<polygon fill="midnightblue" stroke="midnightblue" points="540.922,-827.552 551.37,-829.31 544.299,-821.42 540.922,-827.552"/>
</g>
<!-- Node11 -->
<g id="node11" class="node"><title>Node11</title>
<g id="a_node11"><a xlink:href="../../d9/db1/namespaceserver.html#abefc8e9cd145a8a00676c9bf43b877ef" target="_top" xlink:title="Converts a nickname to a nickAndStatus (nick|status)">
<polygon fill="white" stroke="black" points="696.5,-760.5 696.5,-779.5 823.5,-779.5 823.5,-760.5 696.5,-760.5"/>
<text text-anchor="middle" x="760" y="-767.5" font-family="Helvetica,sans-Serif" font-size="10.00">server::getNickAndStatus</text>
</a>
</g>
</g>
<!-- Node8&#45;&gt;Node11 -->
<g id="edge16" class="edge"><title>Node8&#45;&gt;Node11</title>
<path fill="none" stroke="midnightblue" d="M448.252,-593.257C457.705,-624.146 483.55,-694.022 532,-728 556.493,-745.177 629.615,-756.603 686.32,-763.144"/>
<polygon fill="midnightblue" stroke="midnightblue" points="686.014,-766.632 696.342,-764.27 686.795,-759.676 686.014,-766.632"/>
</g>
<!-- Node12 -->
<g id="node12" class="node"><title>Node12</title>
<g id="a_node12"><a xlink:href="../../d1/d10/classserver_1_1irc_client.html#aa59470840fe4135454af200bf5259874" target="_top" xlink:title="Emitted when a chatmessage has been received.">
<polygon fill="white" stroke="black" points="551.5,-689 551.5,-719 640.5,-719 640.5,-689 551.5,-689"/>
<text text-anchor="start" x="559.5" y="-707" font-family="Helvetica,sans-Serif" font-size="10.00">server::ircClient::</text>
<text text-anchor="middle" x="596" y="-696" font-family="Helvetica,sans-Serif" font-size="10.00">chatReceived</text>
</a>
</g>
</g>
<!-- Node8&#45;&gt;Node12 -->
<g id="edge17" class="edge"><title>Node8&#45;&gt;Node12</title>
<path fill="none" stroke="midnightblue" d="M453.628,-593.025C468.206,-614.708 497.83,-654.816 532,-679 535.204,-681.268 538.643,-683.369 542.201,-685.309"/>
<polygon fill="midnightblue" stroke="midnightblue" points="540.713,-688.478 551.225,-689.8 543.832,-682.211 540.713,-688.478"/>
</g>
<!-- Node13 -->
<g id="node13" class="node"><title>Node13</title>
<g id="a_node13"><a xlink:href="../../d2/d29/classserver_1_1irc_user.html#a9b5683eaeb89557d6e1b1e57708aeb35" target="_top" xlink:title="server::ircUser::getName">
<polygon fill="white" stroke="black" points="534,-650.5 534,-669.5 658,-669.5 658,-650.5 534,-650.5"/>
<text text-anchor="middle" x="596" y="-657.5" font-family="Helvetica,sans-Serif" font-size="10.00">server::ircUser::getName</text>
</a>
</g>
</g>
<!-- Node8&#45;&gt;Node13 -->
<g id="edge18" class="edge"><title>Node8&#45;&gt;Node13</title>
<path fill="none" stroke="midnightblue" d="M464.203,-593.161C481.558,-605.726 507.571,-623.488 532,-636 539.712,-639.95 548.232,-643.623 556.448,-646.848"/>
<polygon fill="midnightblue" stroke="midnightblue" points="555.295,-650.154 565.887,-650.418 557.772,-643.606 555.295,-650.154"/>
</g>
<!-- Node14 -->
<g id="node14" class="node"><title>Node14</title>
<g id="a_node14"><a xlink:href="../../d9/db1/namespaceserver.html#a4ab136076f9a5f1ae8a6d78020f07c07" target="_top" xlink:title="Converts an IRC&#45;ID to a nickAndStatus (nick|status)">
<polygon fill="white" stroke="black" points="532.5,-777 532.5,-807 659.5,-807 659.5,-777 532.5,-777"/>
<text text-anchor="start" x="540.5" y="-795" font-family="Helvetica,sans-Serif" font-size="10.00">server::getNickAndStatus</text>
<text text-anchor="middle" x="596" y="-784" font-family="Helvetica,sans-Serif" font-size="10.00">FromId</text>
</a>
</g>
</g>
<!-- Node8&#45;&gt;Node14 -->
<g id="edge19" class="edge"><title>Node8&#45;&gt;Node14</title>
<path fill="none" stroke="midnightblue" d="M447.53,-593.122C456.234,-627.384 481.755,-711.84 532,-762 535.657,-765.651 539.845,-768.918 544.284,-771.828"/>
<polygon fill="midnightblue" stroke="midnightblue" points="542.666,-774.936 553.059,-776.991 546.215,-768.903 542.666,-774.936"/>
</g>
<!-- Node15 -->
<g id="node15" class="node"><title>Node15</title>
<g id="a_node15"><a xlink:href="../../d1/d10/classserver_1_1irc_client.html#afa10a5c7c8ee0a4cfdae135d6737a0a2" target="_top" xlink:title="Emitted when a user changes his status (nick|Status)">
<polygon fill="white" stroke="black" points="547.5,-563 547.5,-593 644.5,-593 644.5,-563 547.5,-563"/>
<text text-anchor="start" x="555.5" y="-581" font-family="Helvetica,sans-Serif" font-size="10.00">server::ircClient::</text>
<text text-anchor="middle" x="596" y="-570" font-family="Helvetica,sans-Serif" font-size="10.00">userChangeStatus</text>
</a>
</g>
</g>
<!-- Node8&#45;&gt;Node15 -->
<g id="edge21" class="edge"><title>Node8&#45;&gt;Node15</title>
<path fill="none" stroke="midnightblue" d="M487.675,-578C503.184,-578 520.885,-578 537.378,-578"/>
<polygon fill="midnightblue" stroke="midnightblue" points="537.461,-581.5 547.461,-578 537.461,-574.5 537.461,-581.5"/>
</g>
<!-- Node16 -->
<g id="node16" class="node"><title>Node16</title>
<g id="a_node16"><a xlink:href="../../d9/db1/namespaceserver.html#ad244a00644a29a6c927a6ee9dd351351" target="_top" xlink:title="Converts a full IRC&#45;ID to something without the nickname.">
<polygon fill="white" stroke="black" points="561.5,-524.5 561.5,-543.5 630.5,-543.5 630.5,-524.5 561.5,-524.5"/>
<text text-anchor="middle" x="596" y="-531.5" font-family="Helvetica,sans-Serif" font-size="10.00">server::getId</text>
</a>
</g>
</g>
<!-- Node8&#45;&gt;Node16 -->
<g id="edge22" class="edge"><title>Node8&#45;&gt;Node16</title>
<path fill="none" stroke="midnightblue" d="M487.675,-565.273C507.943,-559.368 531.955,-552.371 552.123,-546.494"/>
<polygon fill="midnightblue" stroke="midnightblue" points="553.358,-549.78 561.979,-543.622 551.399,-543.059 553.358,-549.78"/>
</g>
<!-- Node17 -->
<g id="node17" class="node"><title>Node17</title>
<g id="a_node17"><a xlink:href="../../d1/d10/classserver_1_1irc_client.html#a566c94db09896197fdb8e982756b8c1e" target="_top" xlink:title="Emitted when a user changes his nickname (nick|Status)">
<polygon fill="white" stroke="black" points="551.5,-475 551.5,-505 640.5,-505 640.5,-475 551.5,-475"/>
<text text-anchor="start" x="559.5" y="-493" font-family="Helvetica,sans-Serif" font-size="10.00">server::ircClient::</text>
<text text-anchor="middle" x="596" y="-482" font-family="Helvetica,sans-Serif" font-size="10.00">userChangeNick</text>
</a>
</g>
</g>
<!-- Node8&#45;&gt;Node17 -->
<g id="edge23" class="edge"><title>Node8&#45;&gt;Node17</title>
<path fill="none" stroke="midnightblue" d="M462.347,-562.834C479.568,-549.103 506.435,-528.951 532,-515 535.719,-512.971 539.637,-511.018 543.626,-509.16"/>
<polygon fill="midnightblue" stroke="midnightblue" points="545.275,-512.257 552.999,-505.006 542.439,-505.858 545.275,-512.257"/>
</g>
<!-- Node18 -->
<g id="node18" class="node"><title>Node18</title>
<g id="a_node18"><a xlink:href="../../d1/d10/classserver_1_1irc_client.html#a1ba37565db4acdfae3163d8d7217d9f2" target="_top" xlink:title="Emitted when a user leaves the room with a PART message.">
<polygon fill="white" stroke="black" points="551.5,-426 551.5,-456 640.5,-456 640.5,-426 551.5,-426"/>
<text text-anchor="start" x="559.5" y="-444" font-family="Helvetica,sans-Serif" font-size="10.00">server::ircClient::</text>
<text text-anchor="middle" x="596" y="-433" font-family="Helvetica,sans-Serif" font-size="10.00">userOffline</text>
</a>
</g>
</g>
<!-- Node8&#45;&gt;Node18 -->
<g id="edge24" class="edge"><title>Node8&#45;&gt;Node18</title>
<path fill="none" stroke="midnightblue" d="M452.315,-562.865C466.03,-539.171 495.54,-493.22 532,-466 535.197,-463.613 538.652,-461.42 542.242,-459.411"/>
<polygon fill="midnightblue" stroke="midnightblue" points="544.026,-462.431 551.368,-454.792 540.865,-456.185 544.026,-462.431"/>
</g>
<!-- Node14&#45;&gt;Node11 -->
<g id="edge20" class="edge"><title>Node14&#45;&gt;Node11</title>
<path fill="none" stroke="midnightblue" d="M659.633,-783.494C668.367,-782.308 677.401,-781.081 686.3,-779.873"/>
<polygon fill="midnightblue" stroke="midnightblue" points="686.828,-783.333 696.266,-778.519 685.886,-776.397 686.828,-783.333"/>
</g>
<!-- Node19&#45;&gt;Node6 -->
<g id="edge26" class="edge"><title>Node19&#45;&gt;Node6</title>
<path fill="none" stroke="midnightblue" d="M345.807,-216.077C401.822,-239.662 509.303,-284.917 562.928,-307.496"/>
<polygon fill="midnightblue" stroke="midnightblue" points="561.714,-310.783 572.289,-311.438 564.431,-304.331 561.714,-310.783"/>
</g>
<!-- Node20 -->
<g id="node20" class="node"><title>Node20</title>
<g id="a_node20"><a xlink:href="../../d1/d10/classserver_1_1irc_client.html#a47c67bb9fd8640adf17a6ae01f8b7154" target="_top" xlink:title="Emitted when the connection has been established.">
<polygon fill="white" stroke="black" points="398.5,-186 398.5,-216 487.5,-216 487.5,-186 398.5,-186"/>
<text text-anchor="start" x="406.5" y="-204" font-family="Helvetica,sans-Serif" font-size="10.00">server::ircClient::</text>
<text text-anchor="middle" x="443" y="-193" font-family="Helvetica,sans-Serif" font-size="10.00">IRCConnected</text>
</a>
</g>
</g>
<!-- Node19&#45;&gt;Node20 -->
<g id="edge27" class="edge"><title>Node19&#45;&gt;Node20</title>
<path fill="none" stroke="midnightblue" d="M353.588,-201C364.739,-201 376.859,-201 388.448,-201"/>
<polygon fill="midnightblue" stroke="midnightblue" points="388.458,-204.5 398.458,-201 388.458,-197.5 388.458,-204.5"/>
</g>
<!-- Node21&#45;&gt;Node3 -->
<g id="edge29" class="edge"><title>Node21&#45;&gt;Node3</title>
<path fill="none" stroke="midnightblue" d="M353.755,-110.662C421.217,-108.395 553.928,-109.287 660,-143 689.336,-152.324 719.328,-171.524 738.495,-185.281"/>
<polygon fill="midnightblue" stroke="midnightblue" points="736.612,-188.241 746.741,-191.346 740.759,-182.602 736.612,-188.241"/>
</g>
<!-- Node22 -->
<g id="node22" class="node"><title>Node22</title>
<g id="a_node22"><a xlink:href="../../d1/d10/classserver_1_1irc_client.html#acb710c977bd5411f99dc8fdaf92e91a4" target="_top" xlink:title="Emitted when the connection was cut!">
<polygon fill="white" stroke="black" points="397,-51 397,-81 489,-81 489,-51 397,-51"/>
<text text-anchor="start" x="405" y="-69" font-family="Helvetica,sans-Serif" font-size="10.00">server::ircClient::</text>
<text text-anchor="middle" x="443" y="-58" font-family="Helvetica,sans-Serif" font-size="10.00">IRCDisconnected</text>
</a>
</g>
</g>
<!-- Node21&#45;&gt;Node22 -->
<g id="edge30" class="edge"><title>Node21&#45;&gt;Node22</title>
<path fill="none" stroke="midnightblue" d="M352.129,-97.9997C364.274,-93.6753 377.665,-88.907 390.319,-84.4015"/>
<polygon fill="midnightblue" stroke="midnightblue" points="391.572,-87.6706 399.819,-81.019 389.224,-81.0762 391.572,-87.6706"/>
</g>
<!-- Node23&#45;&gt;Node22 -->
<g id="edge32" class="edge"><title>Node23&#45;&gt;Node22</title>
<path fill="none" stroke="midnightblue" d="M353.588,-64.6604C364.059,-64.8191 375.384,-64.9907 386.321,-65.1564"/>
<polygon fill="midnightblue" stroke="midnightblue" points="386.596,-68.6609 396.648,-65.3129 386.702,-61.6617 386.596,-68.6609"/>
</g>
<!-- Node25 -->
<g id="node25" class="node"><title>Node25</title>
<g id="a_node25"><a xlink:href="../../d1/d10/classserver_1_1irc_client.html#a6e73d106182456e97f48db009a29642d" target="_top" xlink:title="Emitted when a connection cannot be made after MAX_CONNECT_TIMEOUT_IN_MS.">
<polygon fill="white" stroke="black" points="390.5,-0 390.5,-30 495.5,-30 495.5,-0 390.5,-0"/>
<text text-anchor="start" x="398.5" y="-18" font-family="Helvetica,sans-Serif" font-size="10.00">server::ircClient::</text>
<text text-anchor="middle" x="443" y="-7" font-family="Helvetica,sans-Serif" font-size="10.00">IRCConnectTimeOut</text>
</a>
</g>
</g>
<!-- Node24&#45;&gt;Node25 -->
<g id="edge34" class="edge"><title>Node24&#45;&gt;Node25</title>
<path fill="none" stroke="midnightblue" d="M353.588,-15C362.099,-15 371.175,-15 380.148,-15"/>
<polygon fill="midnightblue" stroke="midnightblue" points="380.2,-18.5001 390.2,-15 380.2,-11.5001 380.2,-18.5001"/>
</g>
</g>
</svg>
        <g id="navigator" transform="translate(0 0)" fill="#404254">
                <rect fill="#f2f5e9" fill-opacity="0.5" stroke="#606060" stroke-width=".5" x="0" y="0" width="60" height="60"/>
                <use id="zoomplus" xlink:href="#zoomPlus" x="17" y="9" onmousedown="handleZoom(evt,'in')"/>
                <use id="zoomminus" xlink:href="#zoomMin" x="42" y="9" onmousedown="handleZoom(evt,'out')"/>
                <use id="reset" xlink:href="#resetDef" x="30" y="36" onmousedown="handleReset()"/>
                <g id="arrowUp" xlink:href="#dirArrow" transform="translate(30 24)" onmousedown="handlePan(0,-1)">
                  <use xlink:href="#rim" fill="#404040">
                        <set attributeName="fill" to="#808080" begin="arrowUp.mouseover" end="arrowUp.mouseout"/>
                  </use>
                  <path fill="none" stroke="white" stroke-width="1.5" d="M0,-3.0v7 M-2.5,-0.5L0,-3.0L2.5,-0.5"/>
                </g>
                <g id="arrowRight" xlink:href="#dirArrow" transform="rotate(90) translate(36 -43)" onmousedown="handlePan(1,0)">
                  <use xlink:href="#rim" fill="#404040">
                        <set attributeName="fill" to="#808080" begin="arrowRight.mouseover" end="arrowRight.mouseout"/>
                  </use>
                  <path fill="none" stroke="white" stroke-width="1.5" d="M0,-3.0v7 M-2.5,-0.5L0,-3.0L2.5,-0.5"/>
                </g>
                <g id="arrowDown" xlink:href="#dirArrow" transform="rotate(180) translate(-30 -48)" onmousedown="handlePan(0,1)">
                  <use xlink:href="#rim" fill="#404040">
                        <set attributeName="fill" to="#808080" begin="arrowDown.mouseover" end="arrowDown.mouseout"/>
                  </use>
                  <path fill="none" stroke="white" stroke-width="1.5" d="M0,-3.0v7 M-2.5,-0.5L0,-3.0L2.5,-0.5"/>
                </g>
                <g id="arrowLeft" xlink:href="#dirArrow" transform="rotate(270) translate(-36 17)" onmousedown="handlePan(-1,0)">
                  <use xlink:href="#rim" fill="#404040">
                        <set attributeName="fill" to="#808080" begin="arrowLeft.mouseover" end="arrowLeft.mouseout"/>
                  </use>
                  <path fill="none" stroke="white" stroke-width="1.5" d="M0,-3.0v7 M-2.5,-0.5L0,-3.0L2.5,-0.5"/>
                </g>
        </g>
        <svg viewBox="0 0 15 15" width="100%" height="30px" preserveAspectRatio="xMaxYMin meet">
         <g id="arrow_out" transform="scale(0.3 0.3)">
          <a xlink:href="classserver_1_1irc_client_a0f263c3a5ae9d82109842518b4866ab5_cgraph_org.svg" target="_base">
           <rect id="button" ry="5" rx="5" y="6" x="6" height="38" width="38"
                fill="#f2f5e9" fill-opacity="0.5" stroke="#606060" stroke-width="1.0"/>
           <path id="arrow"
             d="M 11.500037,31.436501 C 11.940474,20.09759 22.043105,11.32322 32.158766,21.979434 L 37.068811,17.246167 C 37.068811,17.246167 37.088388,32 37.088388,32 L 22.160133,31.978069 C 22.160133,31.978069 26.997745,27.140456 26.997745,27.140456 C 18.528582,18.264221 13.291696,25.230495 11.500037,31.436501 z"
             style="fill:#404040;"/>
          </a>
         </g>
        </svg>
</svg>
