<?xml version="1.0" encoding="UTF-8" standalone="no"?>
<!DOCTYPE svg PUBLIC "-//W3C//DTD SVG 1.1//EN"
 "http://www.w3.org/Graphics/SVG/1.1/DTD/svg11.dtd">
<!-- Generated by graphviz version 2.30.1 (20130303.0817)
 -->
<!-- Title: server::ircClient::sltConnected Pages: 1 -->
<svg width="484pt" height="96pt"
 viewBox="0.00 0.00 484.00 96.00" xmlns="http://www.w3.org/2000/svg" xmlns:xlink="http://www.w3.org/1999/xlink">
<g id="graph0" class="graph" transform="scale(1 1) rotate(0) translate(4 92)">
<title>server::ircClient::sltConnected</title>
<polygon fill="white" stroke="white" points="-4,5 -4,-92 481,-92 481,5 -4,5"/>
<!-- Node1 -->
<g id="node1" class="node"><title>Node1</title>
<polygon fill="#bfbfbf" stroke="black" points="0.5,-22 0.5,-52 89.5,-52 89.5,-22 0.5,-22"/>
<text text-anchor="start" x="8.5" y="-40" font-family="Helvetica,sans-Serif" font-size="10.00">server::ircClient::</text>
<text text-anchor="middle" x="45" y="-29" font-family="Helvetica,sans-Serif" font-size="10.00">sltConnected</text>
</g>
<!-- Node2 -->
<g id="node2" class="node"><title>Node2</title>
<g id="a_node2"><a xlink:href="../../d1/d10/classserver_1_1irc_client.html#a2c1954be24f18aef7d8ec6a7a3e7f29c" target="_top" xlink:title="Sends a message to the IRC server.">
<polygon fill="white" stroke="black" points="126,-49.5 126,-68.5 236,-68.5 236,-49.5 126,-49.5"/>
<text text-anchor="middle" x="181" y="-56.5" font-family="Helvetica,sans-Serif" font-size="10.00">server::ircClient::send</text>
</a>
</g>
</g>
<!-- Node1&#45;&gt;Node2 -->
<g id="edge1" class="edge"><title>Node1&#45;&gt;Node2</title>
<path fill="none" stroke="midnightblue" d="M89.506,-44.1428C97.9456,-45.5284 106.955,-47.0075 115.895,-48.4753"/>
<polygon fill="midnightblue" stroke="midnightblue" points="115.491,-51.9557 125.926,-50.1221 116.625,-45.0482 115.491,-51.9557"/>
</g>
<!-- Node6 -->
<g id="node6" class="node"><title>Node6</title>
<g id="a_node6"><a xlink:href="../../d1/d10/classserver_1_1irc_client.html#a47c67bb9fd8640adf17a6ae01f8b7154" target="_top" xlink:title="Emitted when the connection has been established.">
<polygon fill="white" stroke="black" points="136.5,-0 136.5,-30 225.5,-30 225.5,-0 136.5,-0"/>
<text text-anchor="start" x="144.5" y="-18" font-family="Helvetica,sans-Serif" font-size="10.00">server::ircClient::</text>
<text text-anchor="middle" x="181" y="-7" font-family="Helvetica,sans-Serif" font-size="10.00">IRCConnected</text>
</a>
</g>
</g>
<!-- Node1&#45;&gt;Node6 -->
<g id="edge6" class="edge"><title>Node1&#45;&gt;Node6</title>
<path fill="none" stroke="midnightblue" d="M89.506,-29.8572C101.208,-27.936 114.004,-25.8351 126.194,-23.8338"/>
<polygon fill="midnightblue" stroke="midnightblue" points="126.953,-27.2562 136.254,-22.1822 125.819,-20.3486 126.953,-27.2562"/>
</g>
<!-- Node3 -->
<g id="node3" class="node"><title>Node3</title>
<g id="a_node3"><a xlink:href="../../d6/d75/namespace_k4_u.html#aaddaee50fab2801df390147891b0c09d" target="_top" xlink:title="K4U::endl">
<polygon fill="white" stroke="black" points="273.5,-68.5 273.5,-87.5 332.5,-87.5 332.5,-68.5 273.5,-68.5"/>
<text text-anchor="middle" x="303" y="-75.5" font-family="Helvetica,sans-Serif" font-size="10.00">K4U::endl</text>
</a>
</g>
</g>
<!-- Node2&#45;&gt;Node3 -->
<g id="edge2" class="edge"><title>Node2&#45;&gt;Node3</title>
<path fill="none" stroke="midnightblue" d="M236.032,-67.5551C245.143,-68.9976 254.439,-70.4695 263.069,-71.8359"/>
<polygon fill="midnightblue" stroke="midnightblue" points="262.784,-75.3343 273.208,-73.4413 263.879,-68.4204 262.784,-75.3343"/>
</g>
<!-- Node5 -->
<g id="node5" class="node"><title>Node5</title>
<g id="a_node5"><a xlink:href="../../d9/db1/namespaceserver.html#a5975bac26af821c5aa25ca3b66ab35a9" target="_top" xlink:title="Shorthand to convert a QString to a std::string.">
<polygon fill="white" stroke="black" points="272,-30.5 272,-49.5 334,-49.5 334,-30.5 272,-30.5"/>
<text text-anchor="middle" x="303" y="-37.5" font-family="Helvetica,sans-Serif" font-size="10.00">server::qts</text>
</a>
</g>
</g>
<!-- Node2&#45;&gt;Node5 -->
<g id="edge5" class="edge"><title>Node2&#45;&gt;Node5</title>
<path fill="none" stroke="midnightblue" d="M236.032,-50.4449C244.693,-49.0736 253.521,-47.6758 261.785,-46.3673"/>
<polygon fill="midnightblue" stroke="midnightblue" points="262.567,-49.7872 271.897,-44.7663 261.472,-42.8733 262.567,-49.7872"/>
</g>
<!-- Node4 -->
<g id="node4" class="node"><title>Node4</title>
<g id="a_node4"><a xlink:href="../../da/d64/class_k4_u_1_1cls_log.html#a81f179b2ccb3e2abeb9b47f5b83de935" target="_top" xlink:title="K4U::clsLog::doEndl">
<polygon fill="white" stroke="black" points="370,-68.5 370,-87.5 476,-87.5 476,-68.5 370,-68.5"/>
<text text-anchor="middle" x="423" y="-75.5" font-family="Helvetica,sans-Serif" font-size="10.00">K4U::clsLog::doEndl</text>
</a>
</g>
</g>
<!-- Node3&#45;&gt;Node4 -->
<g id="edge3" class="edge"><title>Node3&#45;&gt;Node4</title>
<path fill="none" stroke="midnightblue" d="M332.565,-72.1218C340.779,-71.6046 350.078,-71.3176 359.496,-71.2606"/>
<polygon fill="midnightblue" stroke="midnightblue" points="359.708,-74.7611 369.717,-71.289 359.727,-67.7611 359.708,-74.7611"/>
</g>
<!-- Node4&#45;&gt;Node3 -->
<g id="edge4" class="edge"><title>Node4&#45;&gt;Node3</title>
<path fill="none" stroke="midnightblue" d="M369.717,-84.711C360.638,-84.8169 351.344,-84.7072 342.71,-84.3819"/>
<polygon fill="midnightblue" stroke="midnightblue" points="342.726,-80.8785 332.565,-83.8782 342.379,-87.8699 342.726,-80.8785"/>
</g>
</g>
</svg>
