<?xml version="1.0" encoding="UTF-8" standalone="no"?>
<!DOCTYPE svg PUBLIC "-//W3C//DTD SVG 1.1//EN"
 "http://www.w3.org/Graphics/SVG/1.1/DTD/svg11.dtd">
<!-- Generated by graphviz version 2.30.1 (20130303.0817)
 -->
<!-- Title: server::ircClient::send Pages: 1 -->
<svg width="692pt" height="219pt"
 viewBox="0.00 0.00 692.00 219.00" xmlns="http://www.w3.org/2000/svg" xmlns:xlink="http://www.w3.org/1999/xlink">
<g id="graph0" class="graph" transform="scale(1 1) rotate(0) translate(4 215)">
<title>server::ircClient::send</title>
<polygon fill="white" stroke="white" points="-4,5 -4,-215 689,-215 689,5 -4,5"/>
<!-- Node1 -->
<g id="node1" class="node"><title>Node1</title>
<polygon fill="#bfbfbf" stroke="black" points="0,-98.5 0,-117.5 110,-117.5 110,-98.5 0,-98.5"/>
<text text-anchor="middle" x="55" y="-105.5" font-family="Helvetica,sans-Serif" font-size="10.00">server::ircClient::send</text>
</g>
<!-- Node2 -->
<g id="node2" class="node"><title>Node2</title>
<g id="a_node2"><a xlink:href="../../d1/d10/classserver_1_1irc_client.html#a31910635c17bd56be644084746653ba8" target="_top" xlink:title="server::ircClient::\lsltConnected">
<polygon fill="white" stroke="black" points="299.5,-181 299.5,-211 388.5,-211 388.5,-181 299.5,-181"/>
<text text-anchor="start" x="307.5" y="-199" font-family="Helvetica,sans-Serif" font-size="10.00">server::ircClient::</text>
<text text-anchor="middle" x="344" y="-188" font-family="Helvetica,sans-Serif" font-size="10.00">sltConnected</text>
</a>
</g>
</g>
<!-- Node1&#45;&gt;Node2 -->
<g id="edge1" class="edge"><title>Node1&#45;&gt;Node2</title>
<path fill="none" stroke="midnightblue" d="M72.7671,-125.256C89.6223,-141.403 117.176,-164.683 146,-176 195.919,-195.598 258.153,-198.738 299.156,-198.2"/>
<polygon fill="midnightblue" stroke="midnightblue" points="74.9717,-122.515 65.3934,-117.986 70.0571,-127.499 74.9717,-122.515"/>
</g>
<!-- Node5 -->
<g id="node5" class="node"><title>Node5</title>
<g id="a_node5"><a xlink:href="../../d1/d10/classserver_1_1irc_client.html#af618e7f589a052d90e2dadbc87e83429" target="_top" xlink:title="Handles a command sent from the irc server.">
<polygon fill="white" stroke="black" points="146.5,-137 146.5,-167 235.5,-167 235.5,-137 146.5,-137"/>
<text text-anchor="start" x="154.5" y="-155" font-family="Helvetica,sans-Serif" font-size="10.00">server::ircClient::</text>
<text text-anchor="middle" x="191" y="-144" font-family="Helvetica,sans-Serif" font-size="10.00">handleCommand</text>
</a>
</g>
</g>
<!-- Node1&#45;&gt;Node5 -->
<g id="edge4" class="edge"><title>Node1&#45;&gt;Node5</title>
<path fill="none" stroke="midnightblue" d="M94.7589,-120.727C110.939,-126.04 129.808,-132.236 146.464,-137.704"/>
<polygon fill="midnightblue" stroke="midnightblue" points="95.6688,-117.342 85.076,-117.547 93.485,-123.992 95.6688,-117.342"/>
</g>
<!-- Node7 -->
<g id="node7" class="node"><title>Node7</title>
<g id="a_node7"><a xlink:href="../../d1/d10/classserver_1_1irc_client.html#a6b62de4b4dc3c1f7f0fe7c6f91c1cf05" target="_top" xlink:title="Sends a chat message to a certain channel.">
<polygon fill="white" stroke="black" points="146.5,-49 146.5,-79 235.5,-79 235.5,-49 146.5,-49"/>
<text text-anchor="start" x="154.5" y="-67" font-family="Helvetica,sans-Serif" font-size="10.00">server::ircClient::</text>
<text text-anchor="middle" x="191" y="-56" font-family="Helvetica,sans-Serif" font-size="10.00">sendChat</text>
</a>
</g>
</g>
<!-- Node1&#45;&gt;Node7 -->
<g id="edge7" class="edge"><title>Node1&#45;&gt;Node7</title>
<path fill="none" stroke="midnightblue" d="M94.7589,-95.2732C110.939,-89.9604 129.808,-83.7644 146.464,-78.2955"/>
<polygon fill="midnightblue" stroke="midnightblue" points="93.485,-92.0076 85.076,-98.4527 95.6688,-98.6582 93.485,-92.0076"/>
</g>
<!-- Node11 -->
<g id="node11" class="node"><title>Node11</title>
<g id="a_node11"><a xlink:href="../../d1/d10/classserver_1_1irc_client.html#aef3233c03f42190f1c89b77c357e9f7f" target="_top" xlink:title="Sets our own nickname.">
<polygon fill="white" stroke="black" points="146.5,-0 146.5,-30 235.5,-30 235.5,-0 146.5,-0"/>
<text text-anchor="start" x="154.5" y="-18" font-family="Helvetica,sans-Serif" font-size="10.00">server::ircClient::</text>
<text text-anchor="middle" x="191" y="-7" font-family="Helvetica,sans-Serif" font-size="10.00">setOwnNick</text>
</a>
</g>
</g>
<!-- Node1&#45;&gt;Node11 -->
<g id="edge11" class="edge"><title>Node1&#45;&gt;Node11</title>
<path fill="none" stroke="midnightblue" d="M75.538,-92.0629C93.4146,-77.7683 120.833,-56.5563 146,-40 151.138,-36.62 156.756,-33.2192 162.207,-30.0618"/>
<polygon fill="midnightblue" stroke="midnightblue" points="73.1718,-89.4746 67.5803,-98.4738 77.5634,-94.9257 73.1718,-89.4746"/>
</g>
<!-- Node6 -->
<g id="node6" class="node"><title>Node6</title>
<g id="a_node6"><a xlink:href="../../d1/d10/classserver_1_1irc_client.html#a384327d5a800bd0d970cffaf1a6a55c1" target="_top" xlink:title="Reads data from the IRC Socket.">
<polygon fill="white" stroke="black" points="299.5,-132 299.5,-162 388.5,-162 388.5,-132 299.5,-132"/>
<text text-anchor="start" x="307.5" y="-150" font-family="Helvetica,sans-Serif" font-size="10.00">server::ircClient::</text>
<text text-anchor="middle" x="344" y="-139" font-family="Helvetica,sans-Serif" font-size="10.00">readData</text>
</a>
</g>
</g>
<!-- Node1&#45;&gt;Node6 -->
<g id="edge14" class="edge"><title>Node1&#45;&gt;Node6</title>
<path fill="none" stroke="midnightblue" d="M120.446,-114.134C154.816,-117.664 197.785,-122.49 236,-128 256.915,-131.016 280.01,-135.029 299.374,-138.59"/>
<polygon fill="midnightblue" stroke="midnightblue" points="120.373,-110.609 110.07,-113.081 119.666,-117.573 120.373,-110.609"/>
</g>
<!-- Node3 -->
<g id="node3" class="node"><title>Node3</title>
<g id="a_node3"><a xlink:href="../../d1/d10/classserver_1_1irc_client.html#a3991833ddcff72ca94d4c0ec588012ac" target="_top" xlink:title="Initializes the IRC Client. Does not yet connect!">
<polygon fill="white" stroke="black" points="454,-161.5 454,-180.5 556,-180.5 556,-161.5 454,-161.5"/>
<text text-anchor="middle" x="505" y="-168.5" font-family="Helvetica,sans-Serif" font-size="10.00">server::ircClient::init</text>
</a>
</g>
</g>
<!-- Node2&#45;&gt;Node3 -->
<g id="edge2" class="edge"><title>Node2&#45;&gt;Node3</title>
<path fill="none" stroke="midnightblue" d="M399.056,-187.501C416.781,-184.714 436.392,-181.63 453.818,-178.89"/>
<polygon fill="midnightblue" stroke="midnightblue" points="398.203,-184.092 388.868,-189.102 399.291,-191.007 398.203,-184.092"/>
</g>
<!-- Node4 -->
<g id="node4" class="node"><title>Node4</title>
<g id="a_node4"><a xlink:href="../../d1/d10/classserver_1_1irc_client.html#a0f263c3a5ae9d82109842518b4866ab5" target="_top" xlink:title="ircClient constructor">
<polygon fill="white" stroke="black" points="594.5,-156 594.5,-186 683.5,-186 683.5,-156 594.5,-156"/>
<text text-anchor="start" x="602.5" y="-174" font-family="Helvetica,sans-Serif" font-size="10.00">server::ircClient::</text>
<text text-anchor="middle" x="639" y="-163" font-family="Helvetica,sans-Serif" font-size="10.00">ircClient</text>
</a>
</g>
</g>
<!-- Node3&#45;&gt;Node4 -->
<g id="edge3" class="edge"><title>Node3&#45;&gt;Node4</title>
<path fill="none" stroke="midnightblue" d="M566.399,-171C575.814,-171 585.382,-171 594.329,-171"/>
<polygon fill="midnightblue" stroke="midnightblue" points="566.28,-167.5 556.28,-171 566.28,-174.5 566.28,-167.5"/>
</g>
<!-- Node5&#45;&gt;Node6 -->
<g id="edge5" class="edge"><title>Node5&#45;&gt;Node6</title>
<path fill="none" stroke="midnightblue" d="M245.799,-150.219C263.384,-149.636 282.686,-148.997 299.423,-148.443"/>
<polygon fill="midnightblue" stroke="midnightblue" points="245.554,-146.725 235.675,-150.554 245.786,-153.721 245.554,-146.725"/>
</g>
<!-- Node6&#45;&gt;Node3 -->
<g id="edge6" class="edge"><title>Node6&#45;&gt;Node3</title>
<path fill="none" stroke="midnightblue" d="M399.056,-155.159C416.781,-157.835 436.392,-160.795 453.818,-163.425"/>
<polygon fill="midnightblue" stroke="midnightblue" points="399.279,-151.653 388.868,-153.622 398.234,-158.575 399.279,-151.653"/>
</g>
<!-- Node8 -->
<g id="node8" class="node"><title>Node8</title>
<g id="a_node8"><a xlink:href="../../d1/d48/classserver_1_1main_app.html#a022d0310199da514b250fec2541ada4a" target="_top" xlink:title="Triggered when a UI client wants to send a chat message.">
<polygon fill="white" stroke="black" points="272.5,-53.5 272.5,-72.5 415.5,-72.5 415.5,-53.5 272.5,-53.5"/>
<text text-anchor="middle" x="344" y="-60.5" font-family="Helvetica,sans-Serif" font-size="10.00">server::mainApp::uiSendChat</text>
</a>
</g>
</g>
<!-- Node7&#45;&gt;Node8 -->
<g id="edge8" class="edge"><title>Node7&#45;&gt;Node8</title>
<path fill="none" stroke="midnightblue" d="M245.915,-63.643C254.502,-63.5861 263.495,-63.5265 272.398,-63.4676"/>
<polygon fill="midnightblue" stroke="midnightblue" points="245.652,-60.1445 235.675,-63.7108 245.698,-67.1444 245.652,-60.1445"/>
</g>
<!-- Node9 -->
<g id="node9" class="node"><title>Node9</title>
<g id="a_node9"><a xlink:href="../../d1/d48/classserver_1_1main_app.html#af331bc3bf60e745f3ddc95ab3abe5188" target="_top" xlink:title="server::mainApp::run">
<polygon fill="white" stroke="black" points="452,-30.5 452,-49.5 558,-49.5 558,-30.5 452,-30.5"/>
<text text-anchor="middle" x="505" y="-37.5" font-family="Helvetica,sans-Serif" font-size="10.00">server::mainApp::run</text>
</a>
</g>
</g>
<!-- Node8&#45;&gt;Node9 -->
<g id="edge9" class="edge"><title>Node8&#45;&gt;Node9</title>
<path fill="none" stroke="midnightblue" d="M421.04,-52.0005C431.511,-50.4859 442.062,-48.9596 451.965,-47.5271"/>
<polygon fill="midnightblue" stroke="midnightblue" points="420.445,-48.5501 411.049,-53.4457 421.447,-55.478 420.445,-48.5501"/>
</g>
<!-- Node10 -->
<g id="node10" class="node"><title>Node10</title>
<g id="a_node10"><a xlink:href="../../dc/d17/custom_irc_server_2main_8cpp.html#a0ddf1224851353fc92bfbff6f499fa97" target="_top" xlink:title="main">
<polygon fill="white" stroke="black" points="620,-30.5 620,-49.5 658,-49.5 658,-30.5 620,-30.5"/>
<text text-anchor="middle" x="639" y="-37.5" font-family="Helvetica,sans-Serif" font-size="10.00">main</text>
</a>
</g>
</g>
<!-- Node9&#45;&gt;Node10 -->
<g id="edge10" class="edge"><title>Node9&#45;&gt;Node10</title>
<path fill="none" stroke="midnightblue" d="M568.227,-40C587.019,-40 606.221,-40 619.711,-40"/>
<polygon fill="midnightblue" stroke="midnightblue" points="568.17,-36.5001 558.17,-40 568.17,-43.5001 568.17,-36.5001"/>
</g>
<!-- Node12 -->
<g id="node12" class="node"><title>Node12</title>
<g id="a_node12"><a xlink:href="../../d1/d48/classserver_1_1main_app.html#af498e3b109e1bc2b9f8e87b215efdb27" target="_top" xlink:title="Triggered when a UI client wants to change the status.">
<polygon fill="white" stroke="black" points="279,-2 279,-32 409,-32 409,-2 279,-2"/>
<text text-anchor="start" x="287" y="-20" font-family="Helvetica,sans-Serif" font-size="10.00">server::mainApp::ownUser</text>
<text text-anchor="middle" x="344" y="-9" font-family="Helvetica,sans-Serif" font-size="10.00">ChangeStatus</text>
</a>
</g>
</g>
<!-- Node11&#45;&gt;Node12 -->
<g id="edge12" class="edge"><title>Node11&#45;&gt;Node12</title>
<path fill="none" stroke="midnightblue" d="M245.745,-15.7119C256.486,-15.8541 267.87,-16.0049 278.92,-16.1513"/>
<polygon fill="midnightblue" stroke="midnightblue" points="245.721,-12.2113 235.675,-15.5785 245.628,-19.2107 245.721,-12.2113"/>
</g>
<!-- Node12&#45;&gt;Node9 -->
<g id="edge13" class="edge"><title>Node12&#45;&gt;Node9</title>
<path fill="none" stroke="midnightblue" d="M419.238,-27.7388C430.221,-29.3276 441.339,-30.9359 451.748,-32.4416"/>
<polygon fill="midnightblue" stroke="midnightblue" points="419.611,-24.2565 409.213,-26.2887 418.609,-31.1844 419.611,-24.2565"/>
</g>
</g>
</svg>
