<?xml version="1.0" encoding="UTF-8" standalone="no"?>
<!DOCTYPE svg PUBLIC "-//W3C//DTD SVG 1.1//EN"
 "http://www.w3.org/Graphics/SVG/1.1/DTD/svg11.dtd">
<!-- Generated by graphviz version 2.30.1 (20130303.0817)
 -->
<!-- Title: server::ircClient::sendChat Pages: 1 -->
<svg width="494pt" height="38pt"
 viewBox="0.00 0.00 494.00 38.00" xmlns="http://www.w3.org/2000/svg" xmlns:xlink="http://www.w3.org/1999/xlink">
<g id="graph0" class="graph" transform="scale(1 1) rotate(0) translate(4 34)">
<title>server::ircClient::sendChat</title>
<polygon fill="white" stroke="white" points="-4,5 -4,-34 491,-34 491,5 -4,5"/>
<!-- Node1 -->
<g id="node1" class="node"><title>Node1</title>
<polygon fill="#bfbfbf" stroke="black" points="0.5,-0 0.5,-30 89.5,-30 89.5,-0 0.5,-0"/>
<text text-anchor="start" x="8.5" y="-18" font-family="Helvetica,sans-Serif" font-size="10.00">server::ircClient::</text>
<text text-anchor="middle" x="45" y="-7" font-family="Helvetica,sans-Serif" font-size="10.00">sendChat</text>
</g>
<!-- Node2 -->
<g id="node2" class="node"><title>Node2</title>
<g id="a_node2"><a xlink:href="../../d1/d48/classserver_1_1main_app.html#a022d0310199da514b250fec2541ada4a" target="_top" xlink:title="Triggered when a UI client wants to send a chat message.">
<polygon fill="white" stroke="black" points="126.5,-5.5 126.5,-24.5 269.5,-24.5 269.5,-5.5 126.5,-5.5"/>
<text text-anchor="middle" x="198" y="-12.5" font-family="Helvetica,sans-Serif" font-size="10.00">server::mainApp::uiSendChat</text>
</a>
</g>
</g>
<!-- Node1&#45;&gt;Node2 -->
<g id="edge1" class="edge"><title>Node1&#45;&gt;Node2</title>
<path fill="none" stroke="midnightblue" d="M99.9145,-15C108.502,-15 117.495,-15 126.398,-15"/>
<polygon fill="midnightblue" stroke="midnightblue" points="99.6755,-11.5001 89.6755,-15 99.6754,-18.5001 99.6755,-11.5001"/>
</g>
<!-- Node3 -->
<g id="node3" class="node"><title>Node3</title>
<g id="a_node3"><a xlink:href="../../d1/d48/classserver_1_1main_app.html#af331bc3bf60e745f3ddc95ab3abe5188" target="_top" xlink:title="server::mainApp::run">
<polygon fill="white" stroke="black" points="306,-5.5 306,-24.5 412,-24.5 412,-5.5 306,-5.5"/>
<text text-anchor="middle" x="359" y="-12.5" font-family="Helvetica,sans-Serif" font-size="10.00">server::mainApp::run</text>
</a>
</g>
</g>
<!-- Node2&#45;&gt;Node3 -->
<g id="edge2" class="edge"><title>Node2&#45;&gt;Node3</title>
<path fill="none" stroke="midnightblue" d="M279.923,-15C288.673,-15 297.401,-15 305.681,-15"/>
<polygon fill="midnightblue" stroke="midnightblue" points="279.666,-11.5001 269.666,-15 279.666,-18.5001 279.666,-11.5001"/>
</g>
<!-- Node4 -->
<g id="node4" class="node"><title>Node4</title>
<g id="a_node4"><a xlink:href="../../dc/d17/custom_irc_server_2main_8cpp.html#a0ddf1224851353fc92bfbff6f499fa97" target="_top" xlink:title="main">
<polygon fill="white" stroke="black" points="448,-5.5 448,-24.5 486,-24.5 486,-5.5 448,-5.5"/>
<text text-anchor="middle" x="467" y="-12.5" font-family="Helvetica,sans-Serif" font-size="10.00">main</text>
</a>
</g>
</g>
<!-- Node3&#45;&gt;Node4 -->
<g id="edge3" class="edge"><title>Node3&#45;&gt;Node4</title>
<path fill="none" stroke="midnightblue" d="M422.208,-15C431.464,-15 440.334,-15 447.64,-15"/>
<polygon fill="midnightblue" stroke="midnightblue" points="422.068,-11.5001 412.068,-15 422.068,-18.5001 422.068,-11.5001"/>
</g>
</g>
</svg>
