<?xml version="1.0" encoding="UTF-8" standalone="no"?>
<!DOCTYPE svg PUBLIC "-//W3C//DTD SVG 1.1//EN"
 "http://www.w3.org/Graphics/SVG/1.1/DTD/svg11.dtd">
<!-- Generated by graphviz version 2.30.1 (20130303.0817)
 -->
<!-- Title: server::ircClient::setOwnNick Pages: 1 -->
<svg width="480pt" height="38pt"
 viewBox="0.00 0.00 480.00 38.00" xmlns="http://www.w3.org/2000/svg" xmlns:xlink="http://www.w3.org/1999/xlink">
<g id="graph0" class="graph" transform="scale(1 1) rotate(0) translate(4 34)">
<title>server::ircClient::setOwnNick</title>
<polygon fill="white" stroke="white" points="-4,5 -4,-34 477,-34 477,5 -4,5"/>
<!-- Node1 -->
<g id="node1" class="node"><title>Node1</title>
<polygon fill="#bfbfbf" stroke="black" points="0.5,-0 0.5,-30 89.5,-30 89.5,-0 0.5,-0"/>
<text text-anchor="start" x="8.5" y="-18" font-family="Helvetica,sans-Serif" font-size="10.00">server::ircClient::</text>
<text text-anchor="middle" x="45" y="-7" font-family="Helvetica,sans-Serif" font-size="10.00">setOwnNick</text>
</g>
<!-- Node2 -->
<g id="node2" class="node"><title>Node2</title>
<g id="a_node2"><a xlink:href="../../d1/d48/classserver_1_1main_app.html#af498e3b109e1bc2b9f8e87b215efdb27" target="_top" xlink:title="Triggered when a UI client wants to change the status.">
<polygon fill="white" stroke="black" points="126,-0 126,-30 256,-30 256,-0 126,-0"/>
<text text-anchor="start" x="134" y="-18" font-family="Helvetica,sans-Serif" font-size="10.00">server::mainApp::ownUser</text>
<text text-anchor="middle" x="191" y="-7" font-family="Helvetica,sans-Serif" font-size="10.00">ChangeStatus</text>
</a>
</g>
</g>
<!-- Node1&#45;&gt;Node2 -->
<g id="edge1" class="edge"><title>Node1&#45;&gt;Node2</title>
<path fill="none" stroke="midnightblue" d="M99.7518,-15C108.254,-15 117.121,-15 125.832,-15"/>
<polygon fill="midnightblue" stroke="midnightblue" points="99.5956,-11.5001 89.5955,-15 99.5955,-18.5001 99.5956,-11.5001"/>
</g>
<!-- Node3 -->
<g id="node3" class="node"><title>Node3</title>
<g id="a_node3"><a xlink:href="../../d1/d48/classserver_1_1main_app.html#af331bc3bf60e745f3ddc95ab3abe5188" target="_top" xlink:title="server::mainApp::run">
<polygon fill="white" stroke="black" points="292,-5.5 292,-24.5 398,-24.5 398,-5.5 292,-5.5"/>
<text text-anchor="middle" x="345" y="-12.5" font-family="Helvetica,sans-Serif" font-size="10.00">server::mainApp::run</text>
</a>
</g>
</g>
<!-- Node2&#45;&gt;Node3 -->
<g id="edge2" class="edge"><title>Node2&#45;&gt;Node3</title>
<path fill="none" stroke="midnightblue" d="M266.084,-15C274.691,-15 283.331,-15 291.562,-15"/>
<polygon fill="midnightblue" stroke="midnightblue" points="266.021,-11.5001 256.021,-15 266.021,-18.5001 266.021,-11.5001"/>
</g>
<!-- Node4 -->
<g id="node4" class="node"><title>Node4</title>
<g id="a_node4"><a xlink:href="../../dc/d17/custom_irc_server_2main_8cpp.html#a0ddf1224851353fc92bfbff6f499fa97" target="_top" xlink:title="main">
<polygon fill="white" stroke="black" points="434,-5.5 434,-24.5 472,-24.5 472,-5.5 434,-5.5"/>
<text text-anchor="middle" x="453" y="-12.5" font-family="Helvetica,sans-Serif" font-size="10.00">main</text>
</a>
</g>
</g>
<!-- Node3&#45;&gt;Node4 -->
<g id="edge3" class="edge"><title>Node3&#45;&gt;Node4</title>
<path fill="none" stroke="midnightblue" d="M408.208,-15C417.464,-15 426.334,-15 433.64,-15"/>
<polygon fill="midnightblue" stroke="midnightblue" points="408.068,-11.5001 398.068,-15 408.068,-18.5001 408.068,-11.5001"/>
</g>
</g>
</svg>
