<?xml version="1.0" encoding="UTF-8" standalone="no"?>
<!DOCTYPE svg PUBLIC "-//W3C//DTD SVG 1.1//EN"
 "http://www.w3.org/Graphics/SVG/1.1/DTD/svg11.dtd">
<!-- Generated by graphviz version 2.30.1 (20130303.0817)
 -->
<!-- Title: server::ircClient::IRCDisconnected Pages: 1 -->
<svg width="490pt" height="87pt"
 viewBox="0.00 0.00 490.00 87.00" xmlns="http://www.w3.org/2000/svg" xmlns:xlink="http://www.w3.org/1999/xlink">
<g id="graph0" class="graph" transform="scale(1 1) rotate(0) translate(4 83)">
<title>server::ircClient::IRCDisconnected</title>
<polygon fill="white" stroke="white" points="-4,5 -4,-83 487,-83 487,5 -4,5"/>
<!-- Node1 -->
<g id="node1" class="node"><title>Node1</title>
<polygon fill="#bfbfbf" stroke="black" points="0,-24 0,-54 92,-54 92,-24 0,-24"/>
<text text-anchor="start" x="8" y="-42" font-family="Helvetica,sans-Serif" font-size="10.00">server::ircClient::</text>
<text text-anchor="middle" x="46" y="-31" font-family="Helvetica,sans-Serif" font-size="10.00">IRCDisconnected</text>
</g>
<!-- Node2 -->
<g id="node2" class="node"><title>Node2</title>
<g id="a_node2"><a xlink:href="../../d1/d10/classserver_1_1irc_client.html#a32607649043e6053ff2ef9980df91800" target="_top" xlink:title="server::ircClient::\ldisconnected">
<polygon fill="white" stroke="black" points="128.5,-49 128.5,-79 217.5,-79 217.5,-49 128.5,-49"/>
<text text-anchor="start" x="136.5" y="-67" font-family="Helvetica,sans-Serif" font-size="10.00">server::ircClient::</text>
<text text-anchor="middle" x="173" y="-56" font-family="Helvetica,sans-Serif" font-size="10.00">disconnected</text>
</a>
</g>
</g>
<!-- Node1&#45;&gt;Node2 -->
<g id="edge1" class="edge"><title>Node1&#45;&gt;Node2</title>
<path fill="none" stroke="midnightblue" d="M102.211,-50.0421C110.909,-51.7819 119.799,-53.5598 128.193,-55.2387"/>
<polygon fill="midnightblue" stroke="midnightblue" points="102.62,-46.5548 92.1279,-48.0256 101.247,-53.4188 102.62,-46.5548"/>
</g>
<!-- Node5 -->
<g id="node5" class="node"><title>Node5</title>
<g id="a_node5"><a xlink:href="../../d1/d10/classserver_1_1irc_client.html#a6ea26ab5da3d338c84927312832f5b69" target="_top" xlink:title="Runs every CHECK_PING_INTERVAL to check if the last ping was there.">
<polygon fill="white" stroke="black" points="128.5,-0 128.5,-30 217.5,-30 217.5,-0 128.5,-0"/>
<text text-anchor="start" x="136.5" y="-18" font-family="Helvetica,sans-Serif" font-size="10.00">server::ircClient::</text>
<text text-anchor="middle" x="173" y="-7" font-family="Helvetica,sans-Serif" font-size="10.00">checkForPing</text>
</a>
</g>
</g>
<!-- Node1&#45;&gt;Node5 -->
<g id="edge4" class="edge"><title>Node1&#45;&gt;Node5</title>
<path fill="none" stroke="midnightblue" d="M102.211,-28.3996C110.909,-26.7294 119.799,-25.0226 128.193,-23.4109"/>
<polygon fill="midnightblue" stroke="midnightblue" points="101.289,-25.0126 92.1279,-30.3354 102.608,-31.887 101.289,-25.0126"/>
</g>
<!-- Node3 -->
<g id="node3" class="node"><title>Node3</title>
<g id="a_node3"><a xlink:href="../../d1/d10/classserver_1_1irc_client.html#a3991833ddcff72ca94d4c0ec588012ac" target="_top" xlink:title="Initializes the IRC Client. Does not yet connect!">
<polygon fill="white" stroke="black" points="254,-29.5 254,-48.5 356,-48.5 356,-29.5 254,-29.5"/>
<text text-anchor="middle" x="305" y="-36.5" font-family="Helvetica,sans-Serif" font-size="10.00">server::ircClient::init</text>
</a>
</g>
</g>
<!-- Node2&#45;&gt;Node3 -->
<g id="edge2" class="edge"><title>Node2&#45;&gt;Node3</title>
<path fill="none" stroke="midnightblue" d="M227.531,-53.7056C236.427,-51.9948 245.619,-50.2271 254.412,-48.5361"/>
<polygon fill="midnightblue" stroke="midnightblue" points="226.809,-50.2802 217.65,-55.6058 228.131,-57.1543 226.809,-50.2802"/>
</g>
<!-- Node4 -->
<g id="node4" class="node"><title>Node4</title>
<g id="a_node4"><a xlink:href="../../d1/d10/classserver_1_1irc_client.html#a0f263c3a5ae9d82109842518b4866ab5" target="_top" xlink:title="ircClient constructor">
<polygon fill="white" stroke="black" points="392.5,-24 392.5,-54 481.5,-54 481.5,-24 392.5,-24"/>
<text text-anchor="start" x="400.5" y="-42" font-family="Helvetica,sans-Serif" font-size="10.00">server::ircClient::</text>
<text text-anchor="middle" x="437" y="-31" font-family="Helvetica,sans-Serif" font-size="10.00">ircClient</text>
</a>
</g>
</g>
<!-- Node3&#45;&gt;Node4 -->
<g id="edge3" class="edge"><title>Node3&#45;&gt;Node4</title>
<path fill="none" stroke="midnightblue" d="M366.395,-39C375.103,-39 383.921,-39 392.222,-39"/>
<polygon fill="midnightblue" stroke="midnightblue" points="366.261,-35.5001 356.261,-39 366.261,-42.5001 366.261,-35.5001"/>
</g>
<!-- Node5&#45;&gt;Node3 -->
<g id="edge5" class="edge"><title>Node5&#45;&gt;Node3</title>
<path fill="none" stroke="midnightblue" d="M227.689,-24.9118C236.383,-26.5168 245.355,-28.1733 253.958,-29.7615"/>
<polygon fill="midnightblue" stroke="midnightblue" points="228.119,-21.4321 217.65,-23.0584 226.848,-28.3158 228.119,-21.4321"/>
</g>
</g>
</svg>
