<?xml version="1.0" encoding="UTF-8" standalone="no"?>
<!DOCTYPE svg PUBLIC "-//W3C//DTD SVG 1.1//EN"
 "http://www.w3.org/Graphics/SVG/1.1/DTD/svg11.dtd">
<!-- Generated by graphviz version 2.30.1 (20130303.0817)
 -->
<!-- Title: server::ircClient::doConnect Pages: 1 -->
<svg width="708pt" height="99pt"
 viewBox="0.00 0.00 708.00 99.00" xmlns="http://www.w3.org/2000/svg" xmlns:xlink="http://www.w3.org/1999/xlink">
<g id="graph0" class="graph" transform="scale(1 1) rotate(0) translate(4 95)">
<title>server::ircClient::doConnect</title>
<polygon fill="white" stroke="white" points="-4,5 -4,-95 705,-95 705,5 -4,5"/>
<!-- Node1 -->
<g id="node1" class="node"><title>Node1</title>
<polygon fill="#bfbfbf" stroke="black" points="0.5,-61 0.5,-91 89.5,-91 89.5,-61 0.5,-61"/>
<text text-anchor="start" x="8.5" y="-79" font-family="Helvetica,sans-Serif" font-size="10.00">server::ircClient::</text>
<text text-anchor="middle" x="45" y="-68" font-family="Helvetica,sans-Serif" font-size="10.00">doConnect</text>
</g>
<!-- Node2 -->
<g id="node2" class="node"><title>Node2</title>
<g id="a_node2"><a xlink:href="../../d1/d48/classserver_1_1main_app.html#af331bc3bf60e745f3ddc95ab3abe5188" target="_top" xlink:title="server::mainApp::run">
<polygon fill="white" stroke="black" points="520,-44.5 520,-63.5 626,-63.5 626,-44.5 520,-44.5"/>
<text text-anchor="middle" x="573" y="-51.5" font-family="Helvetica,sans-Serif" font-size="10.00">server::mainApp::run</text>
</a>
</g>
</g>
<!-- Node1&#45;&gt;Node2 -->
<g id="edge1" class="edge"><title>Node1&#45;&gt;Node2</title>
<path fill="none" stroke="midnightblue" d="M99.9674,-80.987C182.946,-87.5893 346.671,-96.3908 484,-78 504.561,-75.2465 527.123,-69.0265 544.253,-63.6087"/>
<polygon fill="midnightblue" stroke="midnightblue" points="100.024,-77.4801 89.772,-80.1543 99.4538,-84.4568 100.024,-77.4801"/>
</g>
<!-- Node4 -->
<g id="node4" class="node"><title>Node4</title>
<g id="a_node4"><a xlink:href="../../d1/d48/classserver_1_1main_app.html#aa9d4c2e1dc5216901c4f8743838d4561" target="_top" xlink:title="Emitted when the reconnect timer reaches 0.">
<polygon fill="white" stroke="black" points="126,-44.5 126,-63.5 286,-63.5 286,-44.5 126,-44.5"/>
<text text-anchor="middle" x="206" y="-51.5" font-family="Helvetica,sans-Serif" font-size="10.00">server::mainApp::doIrcReconnect</text>
</a>
</g>
</g>
<!-- Node1&#45;&gt;Node4 -->
<g id="edge3" class="edge"><title>Node1&#45;&gt;Node4</title>
<path fill="none" stroke="midnightblue" d="M99.8857,-68.5441C111.56,-66.9288 124.059,-65.1994 136.218,-63.5171"/>
<polygon fill="midnightblue" stroke="midnightblue" points="99.2942,-65.0925 89.8683,-69.9302 100.254,-72.0265 99.2942,-65.0925"/>
</g>
<!-- Node3 -->
<g id="node3" class="node"><title>Node3</title>
<g id="a_node3"><a xlink:href="../../dc/d17/custom_irc_server_2main_8cpp.html#a0ddf1224851353fc92bfbff6f499fa97" target="_top" xlink:title="main">
<polygon fill="white" stroke="black" points="662,-44.5 662,-63.5 700,-63.5 700,-44.5 662,-44.5"/>
<text text-anchor="middle" x="681" y="-51.5" font-family="Helvetica,sans-Serif" font-size="10.00">main</text>
</a>
</g>
</g>
<!-- Node2&#45;&gt;Node3 -->
<g id="edge2" class="edge"><title>Node2&#45;&gt;Node3</title>
<path fill="none" stroke="midnightblue" d="M636.208,-54C645.464,-54 654.334,-54 661.64,-54"/>
<polygon fill="midnightblue" stroke="midnightblue" points="636.068,-50.5001 626.068,-54 636.068,-57.5001 636.068,-50.5001"/>
</g>
<!-- Node5 -->
<g id="node5" class="node"><title>Node5</title>
<g id="a_node5"><a xlink:href="../../d1/d48/classserver_1_1main_app.html#a931aedd34bb38252acfc8880f9716fab" target="_top" xlink:title="Triggered when the IRC client cannot connect.">
<polygon fill="white" stroke="black" points="333.5,-39 333.5,-69 472.5,-69 472.5,-39 333.5,-39"/>
<text text-anchor="start" x="341.5" y="-57" font-family="Helvetica,sans-Serif" font-size="10.00">server::mainApp::ircConnect</text>
<text text-anchor="middle" x="403" y="-46" font-family="Helvetica,sans-Serif" font-size="10.00">TimeOut</text>
</a>
</g>
</g>
<!-- Node4&#45;&gt;Node5 -->
<g id="edge4" class="edge"><title>Node4&#45;&gt;Node5</title>
<path fill="none" stroke="midnightblue" d="M296.363,-54C308.732,-54 321.276,-54 333.192,-54"/>
<polygon fill="midnightblue" stroke="midnightblue" points="296.033,-50.5001 286.033,-54 296.033,-57.5001 296.033,-50.5001"/>
</g>
<!-- Node6 -->
<g id="node6" class="node"><title>Node6</title>
<g id="a_node6"><a xlink:href="../../d1/d48/classserver_1_1main_app.html#af6e8c9d1f06514b33e5f88f9e66884be" target="_top" xlink:title="Triggered when the IRC client has disconnected.">
<polygon fill="white" stroke="black" points="322,-0.5 322,-19.5 484,-19.5 484,-0.5 322,-0.5"/>
<text text-anchor="middle" x="403" y="-7.5" font-family="Helvetica,sans-Serif" font-size="10.00">server::mainApp::ircDisconnected</text>
</a>
</g>
</g>
<!-- Node4&#45;&gt;Node6 -->
<g id="edge6" class="edge"><title>Node4&#45;&gt;Node6</title>
<path fill="none" stroke="midnightblue" d="M259.225,-42.2159C290.703,-35.1131 330.275,-26.184 359.77,-19.5287"/>
<polygon fill="midnightblue" stroke="midnightblue" points="258.296,-38.8373 249.312,-44.4527 259.837,-45.6657 258.296,-38.8373"/>
</g>
<!-- Node5&#45;&gt;Node2 -->
<g id="edge5" class="edge"><title>Node5&#45;&gt;Node2</title>
<path fill="none" stroke="midnightblue" d="M483.185,-54C495.597,-54 508.149,-54 519.753,-54"/>
<polygon fill="midnightblue" stroke="midnightblue" points="482.817,-50.5001 472.817,-54 482.817,-57.5001 482.817,-50.5001"/>
</g>
<!-- Node6&#45;&gt;Node2 -->
<g id="edge7" class="edge"><title>Node6&#45;&gt;Node2</title>
<path fill="none" stroke="midnightblue" d="M453.119,-22.1047C463.336,-24.6715 474.027,-27.3938 484,-30 501.773,-34.6446 521.507,-40.0077 537.777,-44.4846"/>
<polygon fill="midnightblue" stroke="midnightblue" points="453.655,-18.631 443.105,-19.5997 451.957,-25.4218 453.655,-18.631"/>
</g>
</g>
</svg>
