<?xml version="1.0" encoding="UTF-8" standalone="no"?>
<!DOCTYPE svg PUBLIC "-//W3C//DTD SVG 1.1//EN"
 "http://www.w3.org/Graphics/SVG/1.1/DTD/svg11.dtd">
<!-- Generated by graphviz version 2.30.1 (20130303.0817)
 -->
<!-- Title: server::ircClient::init Pages: 1 -->
<!--zoomable 864 -->
<svg id="main" version="1.1" xmlns="http://www.w3.org/2000/svg" xmlns:xlink="http://www.w3.org/1999/xlink" xml:space="preserve" onload="init(evt)">
        <defs>
                <circle id="rim" cx="0" cy="0" r="7"/>
                <circle id="rim2" cx="0" cy="0" r="3.5"/>
                <g id="zoomPlus">
                        <use xlink:href="#rim" fill="#404040">
                                <set attributeName="fill" to="#808080" begin="zoomplus.mouseover" end="zoomplus.mouseout"/>
                        </use>
                        <path d="M-4,0h8M0,-4v8" fill="none" stroke="white" stroke-width="1.5" pointer-events="none"/>
                </g>
                <g id="zoomMin">
                        <use xlink:href="#rim" fill="#404040">
                                <set attributeName="fill" to="#808080" begin="zoomminus.mouseover" end="zoomminus.mouseout"/>
                        </use>
                        <path d="M-4,0h8" fill="none" stroke="white" stroke-width="1.5" pointer-events="none"/>
                </g>
                <g id="dirArrow">
                        <path fill="none" stroke="white" stroke-width="1.5" d="M0,-3.0v7 M-2.5,-0.5L0,-3.0L2.5,-0.5"/>
                </g>
               <g id="resetDef">
                       <use xlink:href="#rim2" fill="#404040">
                               <set attributeName="fill" to="#808080" begin="reset.mouseover" end="reset.mouseout"/>
                       </use>
               </g>
        </defs>

<script type="text/javascript">
var viewWidth = 848;
var viewHeight = 864;
var sectionId = 'dynsection-8';
</script>
<script xlink:href="../../svgpan.js"/>
<svg id="graph" class="graph">
<g id="viewport">
<title>server::ircClient::init</title>
<polygon fill="white" stroke="white" points="-4,5 -4,-860 845,-860 845,5 -4,5"/>
<!-- Node1 -->
<g id="node1" class="node"><title>Node1</title>
<polygon fill="#bfbfbf" stroke="black" points="0,-125.5 0,-144.5 102,-144.5 102,-125.5 0,-125.5"/>
<text text-anchor="middle" x="51" y="-132.5" font-family="Helvetica,sans-Serif" font-size="10.00">server::ircClient::init</text>
</g>
<!-- Node2 -->
<g id="node2" class="node"><title>Node2</title>
<g id="a_node2"><a xlink:href="../../d6/d75/namespace_k4_u.html#aaddaee50fab2801df390147891b0c09d" target="_top" xlink:title="K4U::endl">
<polygon fill="white" stroke="black" points="604.5,-191.5 604.5,-210.5 663.5,-210.5 663.5,-191.5 604.5,-191.5"/>
<text text-anchor="middle" x="634" y="-198.5" font-family="Helvetica,sans-Serif" font-size="10.00">K4U::endl</text>
</a>
</g>
</g>
<!-- Node1&#45;&gt;Node2 -->
<g id="edge1" class="edge"><title>Node1&#45;&gt;Node2</title>
<path fill="none" stroke="midnightblue" d="M102.039,-140.684C215.82,-153.61 491.976,-184.98 594.149,-196.587"/>
<polygon fill="midnightblue" stroke="midnightblue" points="593.996,-200.092 604.328,-197.743 594.787,-193.136 593.996,-200.092"/>
</g>
<!-- Node4 -->
<g id="node4" class="node"><title>Node4</title>
<g id="a_node4"><a xlink:href="../../d1/d10/classserver_1_1irc_client.html#a384327d5a800bd0d970cffaf1a6a55c1" target="_top" xlink:title="Reads data from the IRC Socket.">
<polygon fill="white" stroke="black" points="138.5,-306 138.5,-336 227.5,-336 227.5,-306 138.5,-306"/>
<text text-anchor="start" x="146.5" y="-324" font-family="Helvetica,sans-Serif" font-size="10.00">server::ircClient::</text>
<text text-anchor="middle" x="183" y="-313" font-family="Helvetica,sans-Serif" font-size="10.00">readData</text>
</a>
</g>
</g>
<!-- Node1&#45;&gt;Node4 -->
<g id="edge4" class="edge"><title>Node1&#45;&gt;Node4</title>
<path fill="none" stroke="midnightblue" d="M58.8063,-144.738C78.6644,-173.151 136.937,-256.525 165.64,-297.593"/>
<polygon fill="midnightblue" stroke="midnightblue" points="162.857,-299.72 171.454,-305.912 168.595,-295.71 162.857,-299.72"/>
</g>
<!-- Node18 -->
<g id="node18" class="node"><title>Node18</title>
<g id="a_node18"><a xlink:href="../../d1/d10/classserver_1_1irc_client.html#a31910635c17bd56be644084746653ba8" target="_top" xlink:title="server::ircClient::\lsltConnected">
<polygon fill="white" stroke="black" points="138.5,-186 138.5,-216 227.5,-216 227.5,-186 138.5,-186"/>
<text text-anchor="start" x="146.5" y="-204" font-family="Helvetica,sans-Serif" font-size="10.00">server::ircClient::</text>
<text text-anchor="middle" x="183" y="-193" font-family="Helvetica,sans-Serif" font-size="10.00">sltConnected</text>
</a>
</g>
</g>
<!-- Node1&#45;&gt;Node18 -->
<g id="edge24" class="edge"><title>Node1&#45;&gt;Node18</title>
<path fill="none" stroke="midnightblue" d="M70.9031,-144.597C89.6778,-154.129 119.024,-169.027 142.841,-181.119"/>
<polygon fill="midnightblue" stroke="midnightblue" points="141.494,-184.361 151.996,-185.767 144.663,-178.119 141.494,-184.361"/>
</g>
<!-- Node20 -->
<g id="node20" class="node"><title>Node20</title>
<g id="a_node20"><a xlink:href="../../d1/d10/classserver_1_1irc_client.html#a32607649043e6053ff2ef9980df91800" target="_top" xlink:title="server::ircClient::\ldisconnected">
<polygon fill="white" stroke="black" points="138.5,-98 138.5,-128 227.5,-128 227.5,-98 138.5,-98"/>
<text text-anchor="start" x="146.5" y="-116" font-family="Helvetica,sans-Serif" font-size="10.00">server::ircClient::</text>
<text text-anchor="middle" x="183" y="-105" font-family="Helvetica,sans-Serif" font-size="10.00">disconnected</text>
</a>
</g>
</g>
<!-- Node1&#45;&gt;Node20 -->
<g id="edge27" class="edge"><title>Node1&#45;&gt;Node20</title>
<path fill="none" stroke="midnightblue" d="M102.261,-126.494C110.786,-125.052 119.668,-123.548 128.277,-122.092"/>
<polygon fill="midnightblue" stroke="midnightblue" points="128.946,-125.528 138.222,-120.409 127.778,-118.626 128.946,-125.528"/>
</g>
<!-- Node22 -->
<g id="node22" class="node"><title>Node22</title>
<g id="a_node22"><a xlink:href="../../d1/d10/classserver_1_1irc_client.html#a6ea26ab5da3d338c84927312832f5b69" target="_top" xlink:title="Runs every CHECK_PING_INTERVAL to check if the last ping was there.">
<polygon fill="white" stroke="black" points="138.5,-49 138.5,-79 227.5,-79 227.5,-49 138.5,-49"/>
<text text-anchor="start" x="146.5" y="-67" font-family="Helvetica,sans-Serif" font-size="10.00">server::ircClient::</text>
<text text-anchor="middle" x="183" y="-56" font-family="Helvetica,sans-Serif" font-size="10.00">checkForPing</text>
</a>
</g>
</g>
<!-- Node1&#45;&gt;Node22 -->
<g id="edge30" class="edge"><title>Node1&#45;&gt;Node22</title>
<path fill="none" stroke="midnightblue" d="M69.5324,-125.425C88.9141,-114.839 120.677,-97.4921 145.513,-83.9278"/>
<polygon fill="midnightblue" stroke="midnightblue" points="147.215,-86.9861 154.313,-79.1211 143.859,-80.8427 147.215,-86.9861"/>
</g>
<!-- Node23 -->
<g id="node23" class="node"><title>Node23</title>
<g id="a_node23"><a xlink:href="../../d1/d10/classserver_1_1irc_client.html#a9f9877406894f9b49bce12d8ad094bd7" target="_top" xlink:title="server::ircClient::\lconnectTimeout">
<polygon fill="white" stroke="black" points="138.5,-0 138.5,-30 227.5,-30 227.5,-0 138.5,-0"/>
<text text-anchor="start" x="146.5" y="-18" font-family="Helvetica,sans-Serif" font-size="10.00">server::ircClient::</text>
<text text-anchor="middle" x="183" y="-7" font-family="Helvetica,sans-Serif" font-size="10.00">connectTimeout</text>
</a>
</g>
</g>
<!-- Node1&#45;&gt;Node23 -->
<g id="edge32" class="edge"><title>Node1&#45;&gt;Node23</title>
<path fill="none" stroke="midnightblue" d="M58.9755,-125.452C72.6327,-107.216 104.502,-66.8612 138,-40 139.782,-38.571 141.656,-37.1743 143.585,-35.8182"/>
<polygon fill="midnightblue" stroke="midnightblue" points="145.808,-38.5476 152.278,-30.1577 141.988,-32.6816 145.808,-38.5476"/>
</g>
<!-- Node3 -->
<g id="node3" class="node"><title>Node3</title>
<g id="a_node3"><a xlink:href="../../da/d64/class_k4_u_1_1cls_log.html#a81f179b2ccb3e2abeb9b47f5b83de935" target="_top" xlink:title="K4U::clsLog::doEndl">
<polygon fill="white" stroke="black" points="734,-191.5 734,-210.5 840,-210.5 840,-191.5 734,-191.5"/>
<text text-anchor="middle" x="787" y="-198.5" font-family="Helvetica,sans-Serif" font-size="10.00">K4U::clsLog::doEndl</text>
</a>
</g>
</g>
<!-- Node2&#45;&gt;Node3 -->
<g id="edge2" class="edge"><title>Node2&#45;&gt;Node3</title>
<path fill="none" stroke="midnightblue" d="M663.757,-195.565C680.744,-194.455 702.935,-194.048 723.742,-194.343"/>
<polygon fill="midnightblue" stroke="midnightblue" points="723.747,-197.844 733.815,-194.545 723.888,-190.845 723.747,-197.844"/>
</g>
<!-- Node3&#45;&gt;Node2 -->
<g id="edge3" class="edge"><title>Node3&#45;&gt;Node2</title>
<path fill="none" stroke="midnightblue" d="M733.815,-207.455C714.097,-207.969 692.027,-207.811 673.754,-206.982"/>
<polygon fill="midnightblue" stroke="midnightblue" points="673.934,-203.487 663.757,-206.435 673.551,-210.476 673.934,-203.487"/>
</g>
<!-- Node4&#45;&gt;Node2 -->
<g id="edge5" class="edge"><title>Node4&#45;&gt;Node2</title>
<path fill="none" stroke="midnightblue" d="M227.87,-309.275C315.673,-285.809 511.69,-233.422 594.692,-211.238"/>
<polygon fill="midnightblue" stroke="midnightblue" points="595.714,-214.588 604.472,-208.625 593.907,-207.825 595.714,-214.588"/>
</g>
<!-- Node5 -->
<g id="node5" class="node"><title>Node5</title>
<g id="a_node5"><a xlink:href="../../d1/d10/classserver_1_1irc_client.html#a2c1954be24f18aef7d8ec6a7a3e7f29c" target="_top" xlink:title="Sends a message to the IRC server.">
<polygon fill="white" stroke="black" points="415,-311.5 415,-330.5 525,-330.5 525,-311.5 415,-311.5"/>
<text text-anchor="middle" x="470" y="-318.5" font-family="Helvetica,sans-Serif" font-size="10.00">server::ircClient::send</text>
</a>
</g>
</g>
<!-- Node4&#45;&gt;Node5 -->
<g id="edge6" class="edge"><title>Node4&#45;&gt;Node5</title>
<path fill="none" stroke="midnightblue" d="M227.596,-321C274.839,-321 350.701,-321 404.769,-321"/>
<polygon fill="midnightblue" stroke="midnightblue" points="404.938,-324.5 414.938,-321 404.938,-317.5 404.938,-324.5"/>
</g>
<!-- Node6 -->
<g id="node6" class="node"><title>Node6</title>
<g id="a_node6"><a xlink:href="../../d9/db1/namespaceserver.html#a5975bac26af821c5aa25ca3b66ab35a9" target="_top" xlink:title="Shorthand to convert a QString to a std::string.">
<polygon fill="white" stroke="black" points="603,-349.5 603,-368.5 665,-368.5 665,-349.5 603,-349.5"/>
<text text-anchor="middle" x="634" y="-356.5" font-family="Helvetica,sans-Serif" font-size="10.00">server::qts</text>
</a>
</g>
</g>
<!-- Node4&#45;&gt;Node6 -->
<g id="edge9" class="edge"><title>Node4&#45;&gt;Node6</title>
<path fill="none" stroke="midnightblue" d="M227.887,-329.561C239.584,-331.602 252.24,-333.593 264,-335 382.895,-349.227 524.422,-355.463 592.486,-357.8"/>
<polygon fill="midnightblue" stroke="midnightblue" points="592.654,-361.307 602.765,-358.142 592.887,-354.311 592.654,-361.307"/>
</g>
<!-- Node7 -->
<g id="node7" class="node"><title>Node7</title>
<g id="a_node7"><a xlink:href="../../d1/d10/classserver_1_1irc_client.html#af618e7f589a052d90e2dadbc87e83429" target="_top" xlink:title="Handles a command sent from the irc server.">
<polygon fill="white" stroke="black" points="272.5,-563 272.5,-593 361.5,-593 361.5,-563 272.5,-563"/>
<text text-anchor="start" x="280.5" y="-581" font-family="Helvetica,sans-Serif" font-size="10.00">server::ircClient::</text>
<text text-anchor="middle" x="317" y="-570" font-family="Helvetica,sans-Serif" font-size="10.00">handleCommand</text>
</a>
</g>
</g>
<!-- Node4&#45;&gt;Node7 -->
<g id="edge10" class="edge"><title>Node4&#45;&gt;Node7</title>
<path fill="none" stroke="midnightblue" d="M191.862,-336.307C213.964,-379.338 276.779,-501.637 303.607,-553.871"/>
<polygon fill="midnightblue" stroke="midnightblue" points="300.497,-555.477 308.179,-562.773 306.724,-552.279 300.497,-555.477"/>
</g>
<!-- Node5&#45;&gt;Node2 -->
<g id="edge7" class="edge"><title>Node5&#45;&gt;Node2</title>
<path fill="none" stroke="midnightblue" d="M483.983,-311.383C511.828,-290.757 577.518,-242.098 611.619,-216.838"/>
<polygon fill="midnightblue" stroke="midnightblue" points="614.003,-219.428 619.955,-210.663 609.836,-213.803 614.003,-219.428"/>
</g>
<!-- Node5&#45;&gt;Node6 -->
<g id="edge8" class="edge"><title>Node5&#45;&gt;Node6</title>
<path fill="none" stroke="midnightblue" d="M511.879,-330.589C536.759,-336.425 568.394,-343.846 593.095,-349.639"/>
<polygon fill="midnightblue" stroke="midnightblue" points="592.338,-353.057 602.873,-351.933 593.937,-346.242 592.338,-353.057"/>
</g>
<!-- Node7&#45;&gt;Node6 -->
<g id="edge11" class="edge"><title>Node7&#45;&gt;Node6</title>
<path fill="none" stroke="midnightblue" d="M348.906,-593.11C393.749,-612.636 477.641,-639.896 534,-602 610.994,-550.229 628.14,-427.024 631.933,-378.819"/>
<polygon fill="midnightblue" stroke="midnightblue" points="635.431,-378.96 632.611,-368.747 628.447,-378.489 635.431,-378.96"/>
</g>
<!-- Node7&#45;&gt;Node5 -->
<g id="edge12" class="edge"><title>Node7&#45;&gt;Node5</title>
<path fill="none" stroke="midnightblue" d="M322.263,-562.835C332.583,-527.865 361.391,-439.838 406,-378 417.467,-362.103 434.006,-347.351 447.26,-336.839"/>
<polygon fill="midnightblue" stroke="midnightblue" points="449.615,-339.443 455.41,-330.573 445.349,-333.893 449.615,-339.443"/>
</g>
<!-- Node8 -->
<g id="node8" class="node"><title>Node8</title>
<g id="a_node8"><a xlink:href="../../d9/db1/namespaceserver.html#ab14f85d7268f4938433c3bd76aefd61e" target="_top" xlink:title="Just an instring command. Checks if search is in command.">
<polygon fill="white" stroke="black" points="420,-387.5 420,-406.5 520,-406.5 520,-387.5 420,-387.5"/>
<text text-anchor="middle" x="470" y="-394.5" font-family="Helvetica,sans-Serif" font-size="10.00">server::inCommand</text>
</a>
</g>
</g>
<!-- Node7&#45;&gt;Node8 -->
<g id="edge13" class="edge"><title>Node7&#45;&gt;Node8</title>
<path fill="none" stroke="midnightblue" d="M322.15,-562.644C331.561,-530.73 357.562,-456.896 406,-417 408.74,-414.743 411.738,-412.739 414.892,-410.961"/>
<polygon fill="midnightblue" stroke="midnightblue" points="416.616,-414.015 424.106,-406.521 413.578,-407.709 416.616,-414.015"/>
</g>
<!-- Node9 -->
<g id="node9" class="node"><title>Node9</title>
<g id="a_node9"><a xlink:href="../../d1/d10/classserver_1_1irc_client.html#a1cd3512aac27b016945c5b66d0c777d1" target="_top" xlink:title="Emitted when a user comes online with a JOIN message.">
<polygon fill="white" stroke="black" points="425.5,-826 425.5,-856 514.5,-856 514.5,-826 425.5,-826"/>
<text text-anchor="start" x="433.5" y="-844" font-family="Helvetica,sans-Serif" font-size="10.00">server::ircClient::</text>
<text text-anchor="middle" x="470" y="-833" font-family="Helvetica,sans-Serif" font-size="10.00">userOnline</text>
</a>
</g>
</g>
<!-- Node7&#45;&gt;Node9 -->
<g id="edge14" class="edge"><title>Node7&#45;&gt;Node9</title>
<path fill="none" stroke="midnightblue" d="M319.369,-593.05C323.897,-634.3 341.976,-750.447 406,-816 409.137,-819.212 412.739,-822.022 416.597,-824.478"/>
<polygon fill="midnightblue" stroke="midnightblue" points="414.922,-827.552 425.37,-829.31 418.299,-821.42 414.922,-827.552"/>
</g>
<!-- Node10 -->
<g id="node10" class="node"><title>Node10</title>
<g id="a_node10"><a xlink:href="../../d9/db1/namespaceserver.html#abefc8e9cd145a8a00676c9bf43b877ef" target="_top" xlink:title="Converts a nickname to a nickAndStatus (nick|status)">
<polygon fill="white" stroke="black" points="570.5,-760.5 570.5,-779.5 697.5,-779.5 697.5,-760.5 570.5,-760.5"/>
<text text-anchor="middle" x="634" y="-767.5" font-family="Helvetica,sans-Serif" font-size="10.00">server::getNickAndStatus</text>
</a>
</g>
</g>
<!-- Node7&#45;&gt;Node10 -->
<g id="edge15" class="edge"><title>Node7&#45;&gt;Node10</title>
<path fill="none" stroke="midnightblue" d="M322.252,-593.257C331.705,-624.146 357.55,-694.022 406,-728 430.493,-745.177 503.615,-756.603 560.32,-763.144"/>
<polygon fill="midnightblue" stroke="midnightblue" points="560.014,-766.632 570.342,-764.27 560.795,-759.676 560.014,-766.632"/>
</g>
<!-- Node11 -->
<g id="node11" class="node"><title>Node11</title>
<g id="a_node11"><a xlink:href="../../d1/d10/classserver_1_1irc_client.html#aa59470840fe4135454af200bf5259874" target="_top" xlink:title="Emitted when a chatmessage has been received.">
<polygon fill="white" stroke="black" points="425.5,-689 425.5,-719 514.5,-719 514.5,-689 425.5,-689"/>
<text text-anchor="start" x="433.5" y="-707" font-family="Helvetica,sans-Serif" font-size="10.00">server::ircClient::</text>
<text text-anchor="middle" x="470" y="-696" font-family="Helvetica,sans-Serif" font-size="10.00">chatReceived</text>
</a>
</g>
</g>
<!-- Node7&#45;&gt;Node11 -->
<g id="edge16" class="edge"><title>Node7&#45;&gt;Node11</title>
<path fill="none" stroke="midnightblue" d="M327.628,-593.025C342.206,-614.708 371.83,-654.816 406,-679 409.204,-681.268 412.643,-683.369 416.201,-685.309"/>
<polygon fill="midnightblue" stroke="midnightblue" points="414.713,-688.478 425.225,-689.8 417.832,-682.211 414.713,-688.478"/>
</g>
<!-- Node12 -->
<g id="node12" class="node"><title>Node12</title>
<g id="a_node12"><a xlink:href="../../d2/d29/classserver_1_1irc_user.html#a9b5683eaeb89557d6e1b1e57708aeb35" target="_top" xlink:title="server::ircUser::getName">
<polygon fill="white" stroke="black" points="408,-650.5 408,-669.5 532,-669.5 532,-650.5 408,-650.5"/>
<text text-anchor="middle" x="470" y="-657.5" font-family="Helvetica,sans-Serif" font-size="10.00">server::ircUser::getName</text>
</a>
</g>
</g>
<!-- Node7&#45;&gt;Node12 -->
<g id="edge17" class="edge"><title>Node7&#45;&gt;Node12</title>
<path fill="none" stroke="midnightblue" d="M338.203,-593.161C355.558,-605.726 381.571,-623.488 406,-636 413.712,-639.95 422.232,-643.623 430.448,-646.848"/>
<polygon fill="midnightblue" stroke="midnightblue" points="429.295,-650.154 439.887,-650.418 431.772,-643.606 429.295,-650.154"/>
</g>
<!-- Node13 -->
<g id="node13" class="node"><title>Node13</title>
<g id="a_node13"><a xlink:href="../../d9/db1/namespaceserver.html#a4ab136076f9a5f1ae8a6d78020f07c07" target="_top" xlink:title="Converts an IRC&#45;ID to a nickAndStatus (nick|status)">
<polygon fill="white" stroke="black" points="406.5,-777 406.5,-807 533.5,-807 533.5,-777 406.5,-777"/>
<text text-anchor="start" x="414.5" y="-795" font-family="Helvetica,sans-Serif" font-size="10.00">server::getNickAndStatus</text>
<text text-anchor="middle" x="470" y="-784" font-family="Helvetica,sans-Serif" font-size="10.00">FromId</text>
</a>
</g>
</g>
<!-- Node7&#45;&gt;Node13 -->
<g id="edge18" class="edge"><title>Node7&#45;&gt;Node13</title>
<path fill="none" stroke="midnightblue" d="M321.53,-593.122C330.234,-627.384 355.755,-711.84 406,-762 409.657,-765.651 413.845,-768.918 418.284,-771.828"/>
<polygon fill="midnightblue" stroke="midnightblue" points="416.666,-774.936 427.059,-776.991 420.215,-768.903 416.666,-774.936"/>
</g>
<!-- Node14 -->
<g id="node14" class="node"><title>Node14</title>
<g id="a_node14"><a xlink:href="../../d1/d10/classserver_1_1irc_client.html#afa10a5c7c8ee0a4cfdae135d6737a0a2" target="_top" xlink:title="Emitted when a user changes his status (nick|Status)">
<polygon fill="white" stroke="black" points="421.5,-563 421.5,-593 518.5,-593 518.5,-563 421.5,-563"/>
<text text-anchor="start" x="429.5" y="-581" font-family="Helvetica,sans-Serif" font-size="10.00">server::ircClient::</text>
<text text-anchor="middle" x="470" y="-570" font-family="Helvetica,sans-Serif" font-size="10.00">userChangeStatus</text>
</a>
</g>
</g>
<!-- Node7&#45;&gt;Node14 -->
<g id="edge20" class="edge"><title>Node7&#45;&gt;Node14</title>
<path fill="none" stroke="midnightblue" d="M361.675,-578C377.184,-578 394.885,-578 411.378,-578"/>
<polygon fill="midnightblue" stroke="midnightblue" points="411.461,-581.5 421.461,-578 411.461,-574.5 411.461,-581.5"/>
</g>
<!-- Node15 -->
<g id="node15" class="node"><title>Node15</title>
<g id="a_node15"><a xlink:href="../../d9/db1/namespaceserver.html#ad244a00644a29a6c927a6ee9dd351351" target="_top" xlink:title="Converts a full IRC&#45;ID to something without the nickname.">
<polygon fill="white" stroke="black" points="435.5,-524.5 435.5,-543.5 504.5,-543.5 504.5,-524.5 435.5,-524.5"/>
<text text-anchor="middle" x="470" y="-531.5" font-family="Helvetica,sans-Serif" font-size="10.00">server::getId</text>
</a>
</g>
</g>
<!-- Node7&#45;&gt;Node15 -->
<g id="edge21" class="edge"><title>Node7&#45;&gt;Node15</title>
<path fill="none" stroke="midnightblue" d="M361.675,-565.273C381.943,-559.368 405.955,-552.371 426.123,-546.494"/>
<polygon fill="midnightblue" stroke="midnightblue" points="427.358,-549.78 435.979,-543.622 425.399,-543.059 427.358,-549.78"/>
</g>
<!-- Node16 -->
<g id="node16" class="node"><title>Node16</title>
<g id="a_node16"><a xlink:href="../../d1/d10/classserver_1_1irc_client.html#a566c94db09896197fdb8e982756b8c1e" target="_top" xlink:title="Emitted when a user changes his nickname (nick|Status)">
<polygon fill="white" stroke="black" points="425.5,-475 425.5,-505 514.5,-505 514.5,-475 425.5,-475"/>
<text text-anchor="start" x="433.5" y="-493" font-family="Helvetica,sans-Serif" font-size="10.00">server::ircClient::</text>
<text text-anchor="middle" x="470" y="-482" font-family="Helvetica,sans-Serif" font-size="10.00">userChangeNick</text>
</a>
</g>
</g>
<!-- Node7&#45;&gt;Node16 -->
<g id="edge22" class="edge"><title>Node7&#45;&gt;Node16</title>
<path fill="none" stroke="midnightblue" d="M336.347,-562.834C353.568,-549.103 380.435,-528.951 406,-515 409.719,-512.971 413.637,-511.018 417.626,-509.16"/>
<polygon fill="midnightblue" stroke="midnightblue" points="419.275,-512.257 426.999,-505.006 416.439,-505.858 419.275,-512.257"/>
</g>
<!-- Node17 -->
<g id="node17" class="node"><title>Node17</title>
<g id="a_node17"><a xlink:href="../../d1/d10/classserver_1_1irc_client.html#a1ba37565db4acdfae3163d8d7217d9f2" target="_top" xlink:title="Emitted when a user leaves the room with a PART message.">
<polygon fill="white" stroke="black" points="425.5,-426 425.5,-456 514.5,-456 514.5,-426 425.5,-426"/>
<text text-anchor="start" x="433.5" y="-444" font-family="Helvetica,sans-Serif" font-size="10.00">server::ircClient::</text>
<text text-anchor="middle" x="470" y="-433" font-family="Helvetica,sans-Serif" font-size="10.00">userOffline</text>
</a>
</g>
</g>
<!-- Node7&#45;&gt;Node17 -->
<g id="edge23" class="edge"><title>Node7&#45;&gt;Node17</title>
<path fill="none" stroke="midnightblue" d="M326.315,-562.865C340.03,-539.171 369.54,-493.22 406,-466 409.197,-463.613 412.652,-461.42 416.242,-459.411"/>
<polygon fill="midnightblue" stroke="midnightblue" points="418.026,-462.431 425.368,-454.792 414.865,-456.185 418.026,-462.431"/>
</g>
<!-- Node13&#45;&gt;Node10 -->
<g id="edge19" class="edge"><title>Node13&#45;&gt;Node10</title>
<path fill="none" stroke="midnightblue" d="M533.633,-783.494C542.367,-782.308 551.401,-781.081 560.3,-779.873"/>
<polygon fill="midnightblue" stroke="midnightblue" points="560.828,-783.333 570.266,-778.519 559.886,-776.397 560.828,-783.333"/>
</g>
<!-- Node18&#45;&gt;Node5 -->
<g id="edge25" class="edge"><title>Node18&#45;&gt;Node5</title>
<path fill="none" stroke="midnightblue" d="M219.807,-216.077C275.822,-239.662 383.303,-284.917 436.928,-307.496"/>
<polygon fill="midnightblue" stroke="midnightblue" points="435.714,-310.783 446.289,-311.438 438.431,-304.331 435.714,-310.783"/>
</g>
<!-- Node19 -->
<g id="node19" class="node"><title>Node19</title>
<g id="a_node19"><a xlink:href="../../d1/d10/classserver_1_1irc_client.html#a47c67bb9fd8640adf17a6ae01f8b7154" target="_top" xlink:title="Emitted when the connection has been established.">
<polygon fill="white" stroke="black" points="272.5,-186 272.5,-216 361.5,-216 361.5,-186 272.5,-186"/>
<text text-anchor="start" x="280.5" y="-204" font-family="Helvetica,sans-Serif" font-size="10.00">server::ircClient::</text>
<text text-anchor="middle" x="317" y="-193" font-family="Helvetica,sans-Serif" font-size="10.00">IRCConnected</text>
</a>
</g>
</g>
<!-- Node18&#45;&gt;Node19 -->
<g id="edge26" class="edge"><title>Node18&#45;&gt;Node19</title>
<path fill="none" stroke="midnightblue" d="M227.588,-201C238.739,-201 250.859,-201 262.448,-201"/>
<polygon fill="midnightblue" stroke="midnightblue" points="262.458,-204.5 272.458,-201 262.458,-197.5 262.458,-204.5"/>
</g>
<!-- Node20&#45;&gt;Node2 -->
<g id="edge28" class="edge"><title>Node20&#45;&gt;Node2</title>
<path fill="none" stroke="midnightblue" d="M227.755,-110.662C295.217,-108.395 427.928,-109.287 534,-143 563.336,-152.324 593.328,-171.524 612.495,-185.281"/>
<polygon fill="midnightblue" stroke="midnightblue" points="610.612,-188.241 620.741,-191.346 614.759,-182.602 610.612,-188.241"/>
</g>
<!-- Node21 -->
<g id="node21" class="node"><title>Node21</title>
<g id="a_node21"><a xlink:href="../../d1/d10/classserver_1_1irc_client.html#acb710c977bd5411f99dc8fdaf92e91a4" target="_top" xlink:title="Emitted when the connection was cut!">
<polygon fill="white" stroke="black" points="271,-51 271,-81 363,-81 363,-51 271,-51"/>
<text text-anchor="start" x="279" y="-69" font-family="Helvetica,sans-Serif" font-size="10.00">server::ircClient::</text>
<text text-anchor="middle" x="317" y="-58" font-family="Helvetica,sans-Serif" font-size="10.00">IRCDisconnected</text>
</a>
</g>
</g>
<!-- Node20&#45;&gt;Node21 -->
<g id="edge29" class="edge"><title>Node20&#45;&gt;Node21</title>
<path fill="none" stroke="midnightblue" d="M226.129,-97.9997C238.274,-93.6753 251.665,-88.907 264.319,-84.4015"/>
<polygon fill="midnightblue" stroke="midnightblue" points="265.572,-87.6706 273.819,-81.019 263.224,-81.0762 265.572,-87.6706"/>
</g>
<!-- Node22&#45;&gt;Node21 -->
<g id="edge31" class="edge"><title>Node22&#45;&gt;Node21</title>
<path fill="none" stroke="midnightblue" d="M227.588,-64.6604C238.059,-64.8191 249.384,-64.9907 260.321,-65.1564"/>
<polygon fill="midnightblue" stroke="midnightblue" points="260.596,-68.6609 270.648,-65.3129 260.702,-61.6617 260.596,-68.6609"/>
</g>
<!-- Node24 -->
<g id="node24" class="node"><title>Node24</title>
<g id="a_node24"><a xlink:href="../../d1/d10/classserver_1_1irc_client.html#a6e73d106182456e97f48db009a29642d" target="_top" xlink:title="Emitted when a connection cannot be made after MAX_CONNECT_TIMEOUT_IN_MS.">
<polygon fill="white" stroke="black" points="264.5,-0 264.5,-30 369.5,-30 369.5,-0 264.5,-0"/>
<text text-anchor="start" x="272.5" y="-18" font-family="Helvetica,sans-Serif" font-size="10.00">server::ircClient::</text>
<text text-anchor="middle" x="317" y="-7" font-family="Helvetica,sans-Serif" font-size="10.00">IRCConnectTimeOut</text>
</a>
</g>
</g>
<!-- Node23&#45;&gt;Node24 -->
<g id="edge33" class="edge"><title>Node23&#45;&gt;Node24</title>
<path fill="none" stroke="midnightblue" d="M227.588,-15C236.099,-15 245.175,-15 254.148,-15"/>
<polygon fill="midnightblue" stroke="midnightblue" points="254.2,-18.5001 264.2,-15 254.2,-11.5001 254.2,-18.5001"/>
</g>
</g>
</svg>
        <g id="navigator" transform="translate(0 0)" fill="#404254">
                <rect fill="#f2f5e9" fill-opacity="0.5" stroke="#606060" stroke-width=".5" x="0" y="0" width="60" height="60"/>
                <use id="zoomplus" xlink:href="#zoomPlus" x="17" y="9" onmousedown="handleZoom(evt,'in')"/>
                <use id="zoomminus" xlink:href="#zoomMin" x="42" y="9" onmousedown="handleZoom(evt,'out')"/>
                <use id="reset" xlink:href="#resetDef" x="30" y="36" onmousedown="handleReset()"/>
                <g id="arrowUp" xlink:href="#dirArrow" transform="translate(30 24)" onmousedown="handlePan(0,-1)">
                  <use xlink:href="#rim" fill="#404040">
                        <set attributeName="fill" to="#808080" begin="arrowUp.mouseover" end="arrowUp.mouseout"/>
                  </use>
                  <path fill="none" stroke="white" stroke-width="1.5" d="M0,-3.0v7 M-2.5,-0.5L0,-3.0L2.5,-0.5"/>
                </g>
                <g id="arrowRight" xlink:href="#dirArrow" transform="rotate(90) translate(36 -43)" onmousedown="handlePan(1,0)">
                  <use xlink:href="#rim" fill="#404040">
                        <set attributeName="fill" to="#808080" begin="arrowRight.mouseover" end="arrowRight.mouseout"/>
                  </use>
                  <path fill="none" stroke="white" stroke-width="1.5" d="M0,-3.0v7 M-2.5,-0.5L0,-3.0L2.5,-0.5"/>
                </g>
                <g id="arrowDown" xlink:href="#dirArrow" transform="rotate(180) translate(-30 -48)" onmousedown="handlePan(0,1)">
                  <use xlink:href="#rim" fill="#404040">
                        <set attributeName="fill" to="#808080" begin="arrowDown.mouseover" end="arrowDown.mouseout"/>
                  </use>
                  <path fill="none" stroke="white" stroke-width="1.5" d="M0,-3.0v7 M-2.5,-0.5L0,-3.0L2.5,-0.5"/>
                </g>
                <g id="arrowLeft" xlink:href="#dirArrow" transform="rotate(270) translate(-36 17)" onmousedown="handlePan(-1,0)">
                  <use xlink:href="#rim" fill="#404040">
                        <set attributeName="fill" to="#808080" begin="arrowLeft.mouseover" end="arrowLeft.mouseout"/>
                  </use>
                  <path fill="none" stroke="white" stroke-width="1.5" d="M0,-3.0v7 M-2.5,-0.5L0,-3.0L2.5,-0.5"/>
                </g>
        </g>
        <svg viewBox="0 0 15 15" width="100%" height="30px" preserveAspectRatio="xMaxYMin meet">
         <g id="arrow_out" transform="scale(0.3 0.3)">
          <a xlink:href="classserver_1_1irc_client_a3991833ddcff72ca94d4c0ec588012ac_cgraph_org.svg" target="_base">
           <rect id="button" ry="5" rx="5" y="6" x="6" height="38" width="38"
                fill="#f2f5e9" fill-opacity="0.5" stroke="#606060" stroke-width="1.0"/>
           <path id="arrow"
             d="M 11.500037,31.436501 C 11.940474,20.09759 22.043105,11.32322 32.158766,21.979434 L 37.068811,17.246167 C 37.068811,17.246167 37.088388,32 37.088388,32 L 22.160133,31.978069 C 22.160133,31.978069 26.997745,27.140456 26.997745,27.140456 C 18.528582,18.264221 13.291696,25.230495 11.500037,31.436501 z"
             style="fill:#404040;"/>
          </a>
         </g>
        </svg>
</svg>
