<?xml version="1.0" encoding="UTF-8" standalone="no"?>
<!DOCTYPE svg PUBLIC "-//W3C//DTD SVG 1.1//EN"
 "http://www.w3.org/Graphics/SVG/1.1/DTD/svg11.dtd">
<!-- Generated by graphviz version 2.30.1 (20130303.0817)
 -->
<!-- Title: server::ircClient::send Pages: 1 -->
<svg width="358pt" height="66pt"
 viewBox="0.00 0.00 358.00 66.00" xmlns="http://www.w3.org/2000/svg" xmlns:xlink="http://www.w3.org/1999/xlink">
<g id="graph0" class="graph" transform="scale(1 1) rotate(0) translate(4 62)">
<title>server::ircClient::send</title>
<polygon fill="white" stroke="white" points="-4,5 -4,-62 355,-62 355,5 -4,5"/>
<!-- Node1 -->
<g id="node1" class="node"><title>Node1</title>
<polygon fill="#bfbfbf" stroke="black" points="0,-19.5 0,-38.5 110,-38.5 110,-19.5 0,-19.5"/>
<text text-anchor="middle" x="55" y="-26.5" font-family="Helvetica,sans-Serif" font-size="10.00">server::ircClient::send</text>
</g>
<!-- Node2 -->
<g id="node2" class="node"><title>Node2</title>
<g id="a_node2"><a xlink:href="../../d6/d75/namespace_k4_u.xhtml#aaddaee50fab2801df390147891b0c09d" target="_top" xlink:title="K4U::endl">
<polygon fill="white" stroke="black" points="147.5,-38.5 147.5,-57.5 206.5,-57.5 206.5,-38.5 147.5,-38.5"/>
<text text-anchor="middle" x="177" y="-45.5" font-family="Helvetica,sans-Serif" font-size="10.00">K4U::endl</text>
</a>
</g>
</g>
<!-- Node1&#45;&gt;Node2 -->
<g id="edge1" class="edge"><title>Node1&#45;&gt;Node2</title>
<path fill="none" stroke="midnightblue" d="M110.032,-37.5551C119.143,-38.9976 128.439,-40.4695 137.069,-41.8359"/>
<polygon fill="midnightblue" stroke="midnightblue" points="136.784,-45.3343 147.208,-43.4413 137.879,-38.4204 136.784,-45.3343"/>
</g>
<!-- Node4 -->
<g id="node4" class="node"><title>Node4</title>
<g id="a_node4"><a xlink:href="../../d9/db1/namespaceserver.xhtml#a5975bac26af821c5aa25ca3b66ab35a9" target="_top" xlink:title="server::qts">
<polygon fill="white" stroke="black" points="146,-0.5 146,-19.5 208,-19.5 208,-0.5 146,-0.5"/>
<text text-anchor="middle" x="177" y="-7.5" font-family="Helvetica,sans-Serif" font-size="10.00">server::qts</text>
</a>
</g>
</g>
<!-- Node1&#45;&gt;Node4 -->
<g id="edge4" class="edge"><title>Node1&#45;&gt;Node4</title>
<path fill="none" stroke="midnightblue" d="M110.032,-20.4449C118.693,-19.0736 127.521,-17.6758 135.785,-16.3673"/>
<polygon fill="midnightblue" stroke="midnightblue" points="136.567,-19.7872 145.897,-14.7663 135.472,-12.8733 136.567,-19.7872"/>
</g>
<!-- Node3 -->
<g id="node3" class="node"><title>Node3</title>
<g id="a_node3"><a xlink:href="../../da/d64/class_k4_u_1_1cls_log.xhtml#a81f179b2ccb3e2abeb9b47f5b83de935" target="_top" xlink:title="K4U::clsLog::doEndl">
<polygon fill="white" stroke="black" points="244,-38.5 244,-57.5 350,-57.5 350,-38.5 244,-38.5"/>
<text text-anchor="middle" x="297" y="-45.5" font-family="Helvetica,sans-Serif" font-size="10.00">K4U::clsLog::doEndl</text>
</a>
</g>
</g>
<!-- Node2&#45;&gt;Node3 -->
<g id="edge2" class="edge"><title>Node2&#45;&gt;Node3</title>
<path fill="none" stroke="midnightblue" d="M206.565,-42.1218C214.779,-41.6046 224.078,-41.3176 233.496,-41.2606"/>
<polygon fill="midnightblue" stroke="midnightblue" points="233.708,-44.7611 243.717,-41.289 233.727,-37.7611 233.708,-44.7611"/>
</g>
<!-- Node3&#45;&gt;Node2 -->
<g id="edge3" class="edge"><title>Node3&#45;&gt;Node2</title>
<path fill="none" stroke="midnightblue" d="M243.717,-54.711C234.638,-54.8169 225.344,-54.7072 216.71,-54.3819"/>
<polygon fill="midnightblue" stroke="midnightblue" points="216.726,-50.8785 206.565,-53.8782 216.379,-57.8699 216.726,-50.8785"/>
</g>
</g>
</svg>
