<?xml version="1.0" encoding="UTF-8" standalone="no"?>
<!DOCTYPE svg PUBLIC "-//W3C//DTD SVG 1.1//EN"
 "http://www.w3.org/Graphics/SVG/1.1/DTD/svg11.dtd">
<!-- Generated by graphviz version 2.30.1 (20130303.0817)
 -->
<!-- Title: server::ircClient::handleCommand Pages: 1 -->
<svg width="568pt" height="480pt"
 viewBox="0.00 0.00 568.00 479.75" xmlns="http://www.w3.org/2000/svg" xmlns:xlink="http://www.w3.org/1999/xlink">
<g id="graph0" class="graph" transform="scale(1 1) rotate(0) translate(4 475.746)">
<title>server::ircClient::handleCommand</title>
<polygon fill="white" stroke="white" points="-4,5 -4,-475.746 565,-475.746 565,5 -4,5"/>
<!-- Node1 -->
<g id="node1" class="node"><title>Node1</title>
<polygon fill="#bfbfbf" stroke="black" points="0.5,-235 0.5,-265 89.5,-265 89.5,-235 0.5,-235"/>
<text text-anchor="start" x="8.5" y="-253" font-family="Helvetica,sans-Serif" font-size="10.00">server::ircClient::</text>
<text text-anchor="middle" x="45" y="-242" font-family="Helvetica,sans-Serif" font-size="10.00">handleCommand</text>
</g>
<!-- Node2 -->
<g id="node2" class="node"><title>Node2</title>
<g id="a_node2"><a xlink:href="../../d9/db1/namespaceserver.xhtml#a5975bac26af821c5aa25ca3b66ab35a9" target="_top" xlink:title="server::qts">
<polygon fill="white" stroke="black" points="323,-448.5 323,-467.5 385,-467.5 385,-448.5 323,-448.5"/>
<text text-anchor="middle" x="354" y="-455.5" font-family="Helvetica,sans-Serif" font-size="10.00">server::qts</text>
</a>
</g>
</g>
<!-- Node1&#45;&gt;Node2 -->
<g id="edge1" class="edge"><title>Node1&#45;&gt;Node2</title>
<path fill="none" stroke="midnightblue" d="M47.305,-265.219C51.3638,-302.123 67.2806,-396.461 126,-439 180.866,-478.747 263.956,-473.806 312.925,-466.187"/>
<polygon fill="midnightblue" stroke="midnightblue" points="313.545,-469.632 322.834,-464.535 312.394,-462.727 313.545,-469.632"/>
</g>
<!-- Node3 -->
<g id="node3" class="node"><title>Node3</title>
<g id="a_node3"><a xlink:href="../../d1/d10/classserver_1_1irc_client.xhtml#a2c1954be24f18aef7d8ec6a7a3e7f29c" target="_top" xlink:title="Sends a message to the IRC server.">
<polygon fill="white" stroke="black" points="135,-410.5 135,-429.5 245,-429.5 245,-410.5 135,-410.5"/>
<text text-anchor="middle" x="190" y="-417.5" font-family="Helvetica,sans-Serif" font-size="10.00">server::ircClient::send</text>
</a>
</g>
</g>
<!-- Node1&#45;&gt;Node3 -->
<g id="edge2" class="edge"><title>Node1&#45;&gt;Node3</title>
<path fill="none" stroke="midnightblue" d="M49.8513,-265.375C58.2892,-295.876 81.3184,-364.254 126,-401 128.233,-402.837 130.641,-404.496 133.167,-405.995"/>
<polygon fill="midnightblue" stroke="midnightblue" points="131.62,-409.135 142.127,-410.499 134.764,-402.88 131.62,-409.135"/>
</g>
<!-- Node6 -->
<g id="node6" class="node"><title>Node6</title>
<g id="a_node6"><a xlink:href="../../d9/db1/namespaceserver.xhtml#ab14f85d7268f4938433c3bd76aefd61e" target="_top" xlink:title="server::inCommand">
<polygon fill="white" stroke="black" points="140,-372.5 140,-391.5 240,-391.5 240,-372.5 140,-372.5"/>
<text text-anchor="middle" x="190" y="-379.5" font-family="Helvetica,sans-Serif" font-size="10.00">server::inCommand</text>
</a>
</g>
</g>
<!-- Node1&#45;&gt;Node6 -->
<g id="edge7" class="edge"><title>Node1&#45;&gt;Node6</title>
<path fill="none" stroke="midnightblue" d="M52.7985,-265.065C64.3932,-289.084 90.2533,-335.993 126,-362 129.248,-364.363 132.785,-366.454 136.472,-368.302"/>
<polygon fill="midnightblue" stroke="midnightblue" points="135.301,-371.61 145.865,-372.416 138.11,-365.198 135.301,-371.61"/>
</g>
<!-- Node7 -->
<g id="node7" class="node"><title>Node7</title>
<g id="a_node7"><a xlink:href="../../d1/d10/classserver_1_1irc_client.xhtml#a1cd3512aac27b016945c5b66d0c777d1" target="_top" xlink:title="Emitted when a user comes online with a JOIN message.">
<polygon fill="white" stroke="black" points="145.5,-323 145.5,-353 234.5,-353 234.5,-323 145.5,-323"/>
<text text-anchor="start" x="153.5" y="-341" font-family="Helvetica,sans-Serif" font-size="10.00">server::ircClient::</text>
<text text-anchor="middle" x="190" y="-330" font-family="Helvetica,sans-Serif" font-size="10.00">userOnline</text>
</a>
</g>
</g>
<!-- Node1&#45;&gt;Node7 -->
<g id="edge8" class="edge"><title>Node1&#45;&gt;Node7</title>
<path fill="none" stroke="midnightblue" d="M64.726,-265.087C80.5269,-277.442 104.022,-294.949 126,-308 132.019,-311.574 138.53,-315.063 145.005,-318.323"/>
<polygon fill="midnightblue" stroke="midnightblue" points="143.882,-321.67 154.403,-322.919 146.958,-315.382 143.882,-321.67"/>
</g>
<!-- Node8 -->
<g id="node8" class="node"><title>Node8</title>
<g id="a_node8"><a xlink:href="../../d9/db1/namespaceserver.xhtml#abefc8e9cd145a8a00676c9bf43b877ef" target="_top" xlink:title="server::getNickAndStatus">
<polygon fill="white" stroke="black" points="290.5,-238.5 290.5,-257.5 417.5,-257.5 417.5,-238.5 290.5,-238.5"/>
<text text-anchor="middle" x="354" y="-245.5" font-family="Helvetica,sans-Serif" font-size="10.00">server::getNickAndStatus</text>
</a>
</g>
</g>
<!-- Node1&#45;&gt;Node8 -->
<g id="edge9" class="edge"><title>Node1&#45;&gt;Node8</title>
<path fill="none" stroke="midnightblue" d="M87.8281,-265.048C99.9764,-268.732 113.375,-272.147 126,-274 182.286,-282.261 197.58,-281.285 254,-274 274.372,-271.369 296.532,-265.813 314.711,-260.51"/>
<polygon fill="midnightblue" stroke="midnightblue" points="315.794,-263.839 324.364,-257.61 313.78,-257.135 315.794,-263.839"/>
</g>
<!-- Node9 -->
<g id="node9" class="node"><title>Node9</title>
<g id="a_node9"><a xlink:href="../../d1/d10/classserver_1_1irc_client.xhtml#aa59470840fe4135454af200bf5259874" target="_top" xlink:title="Emitted when a chatmessage has been received.">
<polygon fill="white" stroke="black" points="145.5,-235 145.5,-265 234.5,-265 234.5,-235 145.5,-235"/>
<text text-anchor="start" x="153.5" y="-253" font-family="Helvetica,sans-Serif" font-size="10.00">server::ircClient::</text>
<text text-anchor="middle" x="190" y="-242" font-family="Helvetica,sans-Serif" font-size="10.00">chatReceived</text>
</a>
</g>
</g>
<!-- Node1&#45;&gt;Node9 -->
<g id="edge10" class="edge"><title>Node1&#45;&gt;Node9</title>
<path fill="none" stroke="midnightblue" d="M89.6817,-250C103.963,-250 119.999,-250 134.95,-250"/>
<polygon fill="midnightblue" stroke="midnightblue" points="135.093,-253.5 145.093,-250 135.093,-246.5 135.093,-253.5"/>
</g>
<!-- Node10 -->
<g id="node10" class="node"><title>Node10</title>
<g id="a_node10"><a xlink:href="../../d9/db1/namespaceserver.xhtml#a4ab136076f9a5f1ae8a6d78020f07c07" target="_top" xlink:title="server::getNickAndStatus\lFromId">
<polygon fill="white" stroke="black" points="126.5,-186 126.5,-216 253.5,-216 253.5,-186 126.5,-186"/>
<text text-anchor="start" x="134.5" y="-204" font-family="Helvetica,sans-Serif" font-size="10.00">server::getNickAndStatus</text>
<text text-anchor="middle" x="190" y="-193" font-family="Helvetica,sans-Serif" font-size="10.00">FromId</text>
</a>
</g>
</g>
<!-- Node1&#45;&gt;Node10 -->
<g id="edge11" class="edge"><title>Node1&#45;&gt;Node10</title>
<path fill="none" stroke="midnightblue" d="M89.6817,-235.032C104.1,-230.091 120.307,-224.538 135.381,-219.373"/>
<polygon fill="midnightblue" stroke="midnightblue" points="136.768,-222.598 145.093,-216.045 134.498,-215.976 136.768,-222.598"/>
</g>
<!-- Node11 -->
<g id="node11" class="node"><title>Node11</title>
<g id="a_node11"><a xlink:href="../../d1/d10/classserver_1_1irc_client.xhtml#afa10a5c7c8ee0a4cfdae135d6737a0a2" target="_top" xlink:title="Emitted when a user changes his status (nick|Status)">
<polygon fill="white" stroke="black" points="141.5,-137 141.5,-167 238.5,-167 238.5,-137 141.5,-137"/>
<text text-anchor="start" x="149.5" y="-155" font-family="Helvetica,sans-Serif" font-size="10.00">server::ircClient::</text>
<text text-anchor="middle" x="190" y="-144" font-family="Helvetica,sans-Serif" font-size="10.00">userChangeStatus</text>
</a>
</g>
</g>
<!-- Node1&#45;&gt;Node11 -->
<g id="edge13" class="edge"><title>Node1&#45;&gt;Node11</title>
<path fill="none" stroke="midnightblue" d="M59.4395,-234.826C74.3752,-218.708 99.8535,-193.346 126,-177 129.127,-175.045 132.433,-173.194 135.827,-171.45"/>
<polygon fill="midnightblue" stroke="midnightblue" points="137.44,-174.559 144.955,-167.09 134.423,-168.243 137.44,-174.559"/>
</g>
<!-- Node12 -->
<g id="node12" class="node"><title>Node12</title>
<g id="a_node12"><a xlink:href="../../d9/db1/namespaceserver.xhtml#a19c09df3c1cb9feb973f1383aa20d0af" target="_top" xlink:title="server::getId">
<polygon fill="white" stroke="black" points="155.5,-98.5 155.5,-117.5 224.5,-117.5 224.5,-98.5 155.5,-98.5"/>
<text text-anchor="middle" x="190" y="-105.5" font-family="Helvetica,sans-Serif" font-size="10.00">server::getId</text>
</a>
</g>
</g>
<!-- Node1&#45;&gt;Node12 -->
<g id="edge14" class="edge"><title>Node1&#45;&gt;Node12</title>
<path fill="none" stroke="midnightblue" d="M51.9044,-234.84C62.7005,-209.082 88.0611,-156.775 126,-128 131.846,-123.566 138.701,-120.099 145.698,-117.393"/>
<polygon fill="midnightblue" stroke="midnightblue" points="146.898,-120.682 155.244,-114.156 144.649,-114.053 146.898,-120.682"/>
</g>
<!-- Node13 -->
<g id="node13" class="node"><title>Node13</title>
<g id="a_node13"><a xlink:href="../../d1/d10/classserver_1_1irc_client.xhtml#a566c94db09896197fdb8e982756b8c1e" target="_top" xlink:title="Emitted when a user changes his nickname (nick|Status)">
<polygon fill="white" stroke="black" points="145.5,-49 145.5,-79 234.5,-79 234.5,-49 145.5,-49"/>
<text text-anchor="start" x="153.5" y="-67" font-family="Helvetica,sans-Serif" font-size="10.00">server::ircClient::</text>
<text text-anchor="middle" x="190" y="-56" font-family="Helvetica,sans-Serif" font-size="10.00">userChangeNick</text>
</a>
</g>
</g>
<!-- Node1&#45;&gt;Node13 -->
<g id="edge15" class="edge"><title>Node1&#45;&gt;Node13</title>
<path fill="none" stroke="midnightblue" d="M49.5782,-234.92C57.767,-203.529 80.7473,-130.628 126,-89 129.118,-86.132 132.604,-83.5763 136.295,-81.3017"/>
<polygon fill="midnightblue" stroke="midnightblue" points="138.064,-84.3239 145.197,-76.4898 134.735,-78.1659 138.064,-84.3239"/>
</g>
<!-- Node14 -->
<g id="node14" class="node"><title>Node14</title>
<g id="a_node14"><a xlink:href="../../d1/d10/classserver_1_1irc_client.xhtml#a1ba37565db4acdfae3163d8d7217d9f2" target="_top" xlink:title="Emitted when a user leaves the room with a PART message.">
<polygon fill="white" stroke="black" points="145.5,-0 145.5,-30 234.5,-30 234.5,-0 145.5,-0"/>
<text text-anchor="start" x="153.5" y="-18" font-family="Helvetica,sans-Serif" font-size="10.00">server::ircClient::</text>
<text text-anchor="middle" x="190" y="-7" font-family="Helvetica,sans-Serif" font-size="10.00">userOffline</text>
</a>
</g>
</g>
<!-- Node1&#45;&gt;Node14 -->
<g id="edge16" class="edge"><title>Node1&#45;&gt;Node14</title>
<path fill="none" stroke="midnightblue" d="M47.6081,-234.82C52.4083,-196.861 69.9744,-96.8035 126,-40 129.153,-36.8033 132.765,-34.0042 136.631,-31.5551"/>
<polygon fill="midnightblue" stroke="midnightblue" points="138.333,-34.6136 145.415,-26.7343 134.965,-28.4769 138.333,-34.6136"/>
</g>
<!-- Node4 -->
<g id="node4" class="node"><title>Node4</title>
<g id="a_node4"><a xlink:href="../../d6/d75/namespace_k4_u.xhtml#aaddaee50fab2801df390147891b0c09d" target="_top" xlink:title="K4U::endl">
<polygon fill="white" stroke="black" points="324.5,-410.5 324.5,-429.5 383.5,-429.5 383.5,-410.5 324.5,-410.5"/>
<text text-anchor="middle" x="354" y="-417.5" font-family="Helvetica,sans-Serif" font-size="10.00">K4U::endl</text>
</a>
</g>
</g>
<!-- Node3&#45;&gt;Node4 -->
<g id="edge3" class="edge"><title>Node3&#45;&gt;Node4</title>
<path fill="none" stroke="midnightblue" d="M245.394,-420C267.938,-420 293.574,-420 314.167,-420"/>
<polygon fill="midnightblue" stroke="midnightblue" points="314.434,-423.5 324.434,-420 314.434,-416.5 314.434,-423.5"/>
</g>
<!-- Node3&#45;&gt;Node2 -->
<g id="edge6" class="edge"><title>Node3&#45;&gt;Node2</title>
<path fill="none" stroke="midnightblue" d="M231.879,-429.589C256.759,-435.425 288.394,-442.846 313.095,-448.639"/>
<polygon fill="midnightblue" stroke="midnightblue" points="312.338,-452.057 322.873,-450.933 313.937,-445.242 312.338,-452.057"/>
</g>
<!-- Node5 -->
<g id="node5" class="node"><title>Node5</title>
<g id="a_node5"><a xlink:href="../../da/d64/class_k4_u_1_1cls_log.xhtml#a81f179b2ccb3e2abeb9b47f5b83de935" target="_top" xlink:title="K4U::clsLog::doEndl">
<polygon fill="white" stroke="black" points="454,-410.5 454,-429.5 560,-429.5 560,-410.5 454,-410.5"/>
<text text-anchor="middle" x="507" y="-417.5" font-family="Helvetica,sans-Serif" font-size="10.00">K4U::clsLog::doEndl</text>
</a>
</g>
</g>
<!-- Node4&#45;&gt;Node5 -->
<g id="edge4" class="edge"><title>Node4&#45;&gt;Node5</title>
<path fill="none" stroke="midnightblue" d="M383.757,-414.565C400.744,-413.455 422.935,-413.048 443.742,-413.343"/>
<polygon fill="midnightblue" stroke="midnightblue" points="443.747,-416.844 453.815,-413.545 443.888,-409.845 443.747,-416.844"/>
</g>
<!-- Node5&#45;&gt;Node4 -->
<g id="edge5" class="edge"><title>Node5&#45;&gt;Node4</title>
<path fill="none" stroke="midnightblue" d="M453.815,-426.455C434.097,-426.969 412.027,-426.811 393.754,-425.982"/>
<polygon fill="midnightblue" stroke="midnightblue" points="393.934,-422.487 383.757,-425.435 393.551,-429.476 393.934,-422.487"/>
</g>
<!-- Node10&#45;&gt;Node8 -->
<g id="edge12" class="edge"><title>Node10&#45;&gt;Node8</title>
<path fill="none" stroke="midnightblue" d="M242.703,-216C264.507,-222.326 289.585,-229.602 310.313,-235.615"/>
<polygon fill="midnightblue" stroke="midnightblue" points="309.526,-239.032 320.106,-238.457 311.477,-232.309 309.526,-239.032"/>
</g>
</g>
</svg>
