<?xml version="1.0" encoding="UTF-8" standalone="no"?>
<!DOCTYPE svg PUBLIC "-//W3C//DTD SVG 1.1//EN"
 "http://www.w3.org/Graphics/SVG/1.1/DTD/svg11.dtd">
<!-- Generated by graphviz version 2.30.1 (20130303.0817)
 -->
<!-- Title: server::ircClient::readData Pages: 1 -->
<svg width="694pt" height="533pt"
 viewBox="0.00 0.00 694.00 533.00" xmlns="http://www.w3.org/2000/svg" xmlns:xlink="http://www.w3.org/1999/xlink">
<g id="graph0" class="graph" transform="scale(1 1) rotate(0) translate(4 529)">
<title>server::ircClient::readData</title>
<polygon fill="white" stroke="white" points="-4,5 -4,-529 691,-529 691,5 -4,5"/>
<!-- Node1 -->
<g id="node1" class="node"><title>Node1</title>
<polygon fill="#bfbfbf" stroke="black" points="0.5,-462 0.5,-492 89.5,-492 89.5,-462 0.5,-462"/>
<text text-anchor="start" x="8.5" y="-480" font-family="Helvetica,sans-Serif" font-size="10.00">server::ircClient::</text>
<text text-anchor="middle" x="45" y="-469" font-family="Helvetica,sans-Serif" font-size="10.00">readData</text>
</g>
<!-- Node2 -->
<g id="node2" class="node"><title>Node2</title>
<g id="a_node2"><a xlink:href="../../d6/d75/namespace_k4_u.xhtml#aaddaee50fab2801df390147891b0c09d" target="_top" xlink:title="K4U::endl">
<polygon fill="white" stroke="black" points="450.5,-505.5 450.5,-524.5 509.5,-524.5 509.5,-505.5 450.5,-505.5"/>
<text text-anchor="middle" x="480" y="-512.5" font-family="Helvetica,sans-Serif" font-size="10.00">K4U::endl</text>
</a>
</g>
</g>
<!-- Node1&#45;&gt;Node2 -->
<g id="edge1" class="edge"><title>Node1&#45;&gt;Node2</title>
<path fill="none" stroke="midnightblue" d="M89.6982,-490.943C101.397,-494.295 114.101,-497.598 126,-500 238.203,-522.654 374.399,-520.251 439.986,-517.284"/>
<polygon fill="midnightblue" stroke="midnightblue" points="440.448,-520.766 450.268,-516.788 440.11,-513.774 440.448,-520.766"/>
</g>
<!-- Node4 -->
<g id="node4" class="node"><title>Node4</title>
<g id="a_node4"><a xlink:href="../../d1/d10/classserver_1_1irc_client.xhtml#a2c1954be24f18aef7d8ec6a7a3e7f29c" target="_top" xlink:title="Sends a message to the IRC server.">
<polygon fill="white" stroke="black" points="261,-486.5 261,-505.5 371,-505.5 371,-486.5 261,-486.5"/>
<text text-anchor="middle" x="316" y="-493.5" font-family="Helvetica,sans-Serif" font-size="10.00">server::ircClient::send</text>
</a>
</g>
</g>
<!-- Node1&#45;&gt;Node4 -->
<g id="edge4" class="edge"><title>Node1&#45;&gt;Node4</title>
<path fill="none" stroke="midnightblue" d="M89.5185,-480.074C133.2,-483.159 200.984,-487.947 250.832,-491.468"/>
<polygon fill="midnightblue" stroke="midnightblue" points="250.644,-494.963 260.866,-492.176 251.137,-487.98 250.644,-494.963"/>
</g>
<!-- Node5 -->
<g id="node5" class="node"><title>Node5</title>
<g id="a_node5"><a xlink:href="../../d9/db1/namespaceserver.xhtml#a5975bac26af821c5aa25ca3b66ab35a9" target="_top" xlink:title="server::qts">
<polygon fill="white" stroke="black" points="449,-448.5 449,-467.5 511,-467.5 511,-448.5 449,-448.5"/>
<text text-anchor="middle" x="480" y="-455.5" font-family="Helvetica,sans-Serif" font-size="10.00">server::qts</text>
</a>
</g>
</g>
<!-- Node1&#45;&gt;Node5 -->
<g id="edge7" class="edge"><title>Node1&#45;&gt;Node5</title>
<path fill="none" stroke="midnightblue" d="M89.5002,-475.091C173.548,-471.403 357.135,-463.347 438.636,-459.771"/>
<polygon fill="midnightblue" stroke="midnightblue" points="439.141,-463.252 448.978,-459.317 438.834,-456.259 439.141,-463.252"/>
</g>
<!-- Node6 -->
<g id="node6" class="node"><title>Node6</title>
<g id="a_node6"><a xlink:href="../../d1/d10/classserver_1_1irc_client.xhtml#af618e7f589a052d90e2dadbc87e83429" target="_top" xlink:title="Handles a command sent from the irc server.">
<polygon fill="white" stroke="black" points="126.5,-257 126.5,-287 215.5,-287 215.5,-257 126.5,-257"/>
<text text-anchor="start" x="134.5" y="-275" font-family="Helvetica,sans-Serif" font-size="10.00">server::ircClient::</text>
<text text-anchor="middle" x="171" y="-264" font-family="Helvetica,sans-Serif" font-size="10.00">handleCommand</text>
</a>
</g>
</g>
<!-- Node1&#45;&gt;Node6 -->
<g id="edge8" class="edge"><title>Node1&#45;&gt;Node6</title>
<path fill="none" stroke="midnightblue" d="M55.118,-461.926C76.4818,-426.607 129.91,-338.278 155.669,-295.693"/>
<polygon fill="midnightblue" stroke="midnightblue" points="158.688,-297.464 160.869,-287.096 152.698,-293.841 158.688,-297.464"/>
</g>
<!-- Node3 -->
<g id="node3" class="node"><title>Node3</title>
<g id="a_node3"><a xlink:href="../../da/d64/class_k4_u_1_1cls_log.xhtml#a81f179b2ccb3e2abeb9b47f5b83de935" target="_top" xlink:title="K4U::clsLog::doEndl">
<polygon fill="white" stroke="black" points="580,-505.5 580,-524.5 686,-524.5 686,-505.5 580,-505.5"/>
<text text-anchor="middle" x="633" y="-512.5" font-family="Helvetica,sans-Serif" font-size="10.00">K4U::clsLog::doEndl</text>
</a>
</g>
</g>
<!-- Node2&#45;&gt;Node3 -->
<g id="edge2" class="edge"><title>Node2&#45;&gt;Node3</title>
<path fill="none" stroke="midnightblue" d="M509.757,-509.565C526.744,-508.455 548.935,-508.048 569.742,-508.343"/>
<polygon fill="midnightblue" stroke="midnightblue" points="569.747,-511.844 579.815,-508.545 569.888,-504.845 569.747,-511.844"/>
</g>
<!-- Node3&#45;&gt;Node2 -->
<g id="edge3" class="edge"><title>Node3&#45;&gt;Node2</title>
<path fill="none" stroke="midnightblue" d="M579.815,-521.455C560.097,-521.969 538.027,-521.811 519.754,-520.982"/>
<polygon fill="midnightblue" stroke="midnightblue" points="519.934,-517.487 509.757,-520.435 519.551,-524.476 519.934,-517.487"/>
</g>
<!-- Node4&#45;&gt;Node2 -->
<g id="edge5" class="edge"><title>Node4&#45;&gt;Node2</title>
<path fill="none" stroke="midnightblue" d="M371.394,-502.38C394.041,-505.036 419.809,-508.058 440.45,-510.479"/>
<polygon fill="midnightblue" stroke="midnightblue" points="440.094,-513.961 450.434,-511.65 440.91,-507.009 440.094,-513.961"/>
</g>
<!-- Node4&#45;&gt;Node5 -->
<g id="edge6" class="edge"><title>Node4&#45;&gt;Node5</title>
<path fill="none" stroke="midnightblue" d="M357.879,-486.411C382.759,-480.575 414.394,-473.154 439.095,-467.361"/>
<polygon fill="midnightblue" stroke="midnightblue" points="439.937,-470.758 448.873,-465.067 438.338,-463.943 439.937,-470.758"/>
</g>
<!-- Node6&#45;&gt;Node5 -->
<g id="edge9" class="edge"><title>Node6&#45;&gt;Node5</title>
<path fill="none" stroke="midnightblue" d="M215.577,-286.178C268.002,-303.677 352.414,-333.395 380,-352 416.492,-376.611 449.306,-417.032 466.451,-440.199"/>
<polygon fill="midnightblue" stroke="midnightblue" points="463.719,-442.394 472.423,-448.435 469.387,-438.285 463.719,-442.394"/>
</g>
<!-- Node6&#45;&gt;Node4 -->
<g id="edge10" class="edge"><title>Node6&#45;&gt;Node4</title>
<path fill="none" stroke="midnightblue" d="M177.076,-287.369C187.716,-318.16 214.51,-388.757 252,-439 263.722,-454.71 280.251,-469.469 293.437,-480.032"/>
<polygon fill="midnightblue" stroke="midnightblue" points="291.494,-482.955 301.536,-486.335 295.794,-477.431 291.494,-482.955"/>
</g>
<!-- Node7 -->
<g id="node7" class="node"><title>Node7</title>
<g id="a_node7"><a xlink:href="../../d9/db1/namespaceserver.xhtml#ab14f85d7268f4938433c3bd76aefd61e" target="_top" xlink:title="server::inCommand">
<polygon fill="white" stroke="black" points="266,-410.5 266,-429.5 366,-429.5 366,-410.5 266,-410.5"/>
<text text-anchor="middle" x="316" y="-417.5" font-family="Helvetica,sans-Serif" font-size="10.00">server::inCommand</text>
</a>
</g>
</g>
<!-- Node6&#45;&gt;Node7 -->
<g id="edge11" class="edge"><title>Node6&#45;&gt;Node7</title>
<path fill="none" stroke="midnightblue" d="M177.366,-287.051C187.648,-313.756 212.66,-369.481 252,-400 254.986,-402.317 258.247,-404.369 261.662,-406.185"/>
<polygon fill="midnightblue" stroke="midnightblue" points="260.433,-409.472 270.981,-410.464 263.354,-403.11 260.433,-409.472"/>
</g>
<!-- Node8 -->
<g id="node8" class="node"><title>Node8</title>
<g id="a_node8"><a xlink:href="../../d1/d10/classserver_1_1irc_client.xhtml#a1cd3512aac27b016945c5b66d0c777d1" target="_top" xlink:title="Emitted when a user comes online with a JOIN message.">
<polygon fill="white" stroke="black" points="271.5,-361 271.5,-391 360.5,-391 360.5,-361 271.5,-361"/>
<text text-anchor="start" x="279.5" y="-379" font-family="Helvetica,sans-Serif" font-size="10.00">server::ircClient::</text>
<text text-anchor="middle" x="316" y="-368" font-family="Helvetica,sans-Serif" font-size="10.00">userOnline</text>
</a>
</g>
</g>
<!-- Node6&#45;&gt;Node8 -->
<g id="edge12" class="edge"><title>Node6&#45;&gt;Node8</title>
<path fill="none" stroke="midnightblue" d="M185.617,-287.059C200.704,-303.122 226.312,-328.597 252,-346 257.526,-349.743 263.591,-353.265 269.707,-356.487"/>
<polygon fill="midnightblue" stroke="midnightblue" points="268.142,-359.617 278.649,-360.984 271.287,-353.364 268.142,-359.617"/>
</g>
<!-- Node9 -->
<g id="node9" class="node"><title>Node9</title>
<g id="a_node9"><a xlink:href="../../d9/db1/namespaceserver.xhtml#abefc8e9cd145a8a00676c9bf43b877ef" target="_top" xlink:title="server::getNickAndStatus">
<polygon fill="white" stroke="black" points="416.5,-145.5 416.5,-164.5 543.5,-164.5 543.5,-145.5 416.5,-145.5"/>
<text text-anchor="middle" x="480" y="-152.5" font-family="Helvetica,sans-Serif" font-size="10.00">server::getNickAndStatus</text>
</a>
</g>
</g>
<!-- Node6&#45;&gt;Node9 -->
<g id="edge13" class="edge"><title>Node6&#45;&gt;Node9</title>
<path fill="none" stroke="midnightblue" d="M215.742,-282.981C259.514,-291.616 327.685,-298.53 380,-274 424.426,-253.17 455.839,-201.522 470.204,-173.611"/>
<polygon fill="midnightblue" stroke="midnightblue" points="473.413,-175.016 474.717,-164.502 467.141,-171.908 473.413,-175.016"/>
</g>
<!-- Node10 -->
<g id="node10" class="node"><title>Node10</title>
<g id="a_node10"><a xlink:href="../../d1/d10/classserver_1_1irc_client.xhtml#aa59470840fe4135454af200bf5259874" target="_top" xlink:title="Emitted when a chatmessage has been received.">
<polygon fill="white" stroke="black" points="271.5,-235 271.5,-265 360.5,-265 360.5,-235 271.5,-235"/>
<text text-anchor="start" x="279.5" y="-253" font-family="Helvetica,sans-Serif" font-size="10.00">server::ircClient::</text>
<text text-anchor="middle" x="316" y="-242" font-family="Helvetica,sans-Serif" font-size="10.00">chatReceived</text>
</a>
</g>
</g>
<!-- Node6&#45;&gt;Node10 -->
<g id="edge14" class="edge"><title>Node6&#45;&gt;Node10</title>
<path fill="none" stroke="midnightblue" d="M215.682,-265.28C229.963,-263.083 245.999,-260.616 260.95,-258.315"/>
<polygon fill="midnightblue" stroke="midnightblue" points="261.742,-261.735 271.093,-256.755 260.677,-254.816 261.742,-261.735"/>
</g>
<!-- Node11 -->
<g id="node11" class="node"><title>Node11</title>
<g id="a_node11"><a xlink:href="../../d9/db1/namespaceserver.xhtml#a4ab136076f9a5f1ae8a6d78020f07c07" target="_top" xlink:title="server::getNickAndStatus\lFromId">
<polygon fill="white" stroke="black" points="252.5,-0 252.5,-30 379.5,-30 379.5,-0 252.5,-0"/>
<text text-anchor="start" x="260.5" y="-18" font-family="Helvetica,sans-Serif" font-size="10.00">server::getNickAndStatus</text>
<text text-anchor="middle" x="316" y="-7" font-family="Helvetica,sans-Serif" font-size="10.00">FromId</text>
</a>
</g>
</g>
<!-- Node6&#45;&gt;Node11 -->
<g id="edge15" class="edge"><title>Node6&#45;&gt;Node11</title>
<path fill="none" stroke="midnightblue" d="M172.975,-256.764C176.373,-216.099 191.08,-103.77 252,-40 253.372,-38.5642 254.836,-37.209 256.376,-35.9301"/>
<polygon fill="midnightblue" stroke="midnightblue" points="258.435,-38.7604 264.61,-30.1508 254.414,-33.0307 258.435,-38.7604"/>
</g>
<!-- Node12 -->
<g id="node12" class="node"><title>Node12</title>
<g id="a_node12"><a xlink:href="../../d1/d10/classserver_1_1irc_client.xhtml#afa10a5c7c8ee0a4cfdae135d6737a0a2" target="_top" xlink:title="Emitted when a user changes his status (nick|Status)">
<polygon fill="white" stroke="black" points="267.5,-186 267.5,-216 364.5,-216 364.5,-186 267.5,-186"/>
<text text-anchor="start" x="275.5" y="-204" font-family="Helvetica,sans-Serif" font-size="10.00">server::ircClient::</text>
<text text-anchor="middle" x="316" y="-193" font-family="Helvetica,sans-Serif" font-size="10.00">userChangeStatus</text>
</a>
</g>
</g>
<!-- Node6&#45;&gt;Node12 -->
<g id="edge17" class="edge"><title>Node6&#45;&gt;Node12</title>
<path fill="none" stroke="midnightblue" d="M196.017,-256.976C211.654,-247.5 232.667,-235.334 252,-226 256.278,-223.934 260.774,-221.898 265.313,-219.934"/>
<polygon fill="midnightblue" stroke="midnightblue" points="266.77,-223.118 274.632,-216.017 264.057,-216.665 266.77,-223.118"/>
</g>
<!-- Node13 -->
<g id="node13" class="node"><title>Node13</title>
<g id="a_node13"><a xlink:href="../../d9/db1/namespaceserver.xhtml#a19c09df3c1cb9feb973f1383aa20d0af" target="_top" xlink:title="server::getId">
<polygon fill="white" stroke="black" points="281.5,-147.5 281.5,-166.5 350.5,-166.5 350.5,-147.5 281.5,-147.5"/>
<text text-anchor="middle" x="316" y="-154.5" font-family="Helvetica,sans-Serif" font-size="10.00">server::getId</text>
</a>
</g>
</g>
<!-- Node6&#45;&gt;Node13 -->
<g id="edge18" class="edge"><title>Node6&#45;&gt;Node13</title>
<path fill="none" stroke="midnightblue" d="M180.868,-256.856C193.878,-235.924 220.09,-198.326 252,-177 257.897,-173.059 264.62,-169.855 271.425,-167.262"/>
<polygon fill="midnightblue" stroke="midnightblue" points="273.025,-170.415 281.368,-163.885 270.774,-163.786 273.025,-170.415"/>
</g>
<!-- Node14 -->
<g id="node14" class="node"><title>Node14</title>
<g id="a_node14"><a xlink:href="../../d1/d10/classserver_1_1irc_client.xhtml#a566c94db09896197fdb8e982756b8c1e" target="_top" xlink:title="Emitted when a user changes his nickname (nick|Status)">
<polygon fill="white" stroke="black" points="271.5,-98 271.5,-128 360.5,-128 360.5,-98 271.5,-98"/>
<text text-anchor="start" x="279.5" y="-116" font-family="Helvetica,sans-Serif" font-size="10.00">server::ircClient::</text>
<text text-anchor="middle" x="316" y="-105" font-family="Helvetica,sans-Serif" font-size="10.00">userChangeNick</text>
</a>
</g>
</g>
<!-- Node6&#45;&gt;Node14 -->
<g id="edge19" class="edge"><title>Node6&#45;&gt;Node14</title>
<path fill="none" stroke="midnightblue" d="M177.232,-256.958C187.456,-229.625 212.592,-171.543 252,-138 255.087,-135.372 258.485,-132.999 262.053,-130.859"/>
<polygon fill="midnightblue" stroke="midnightblue" points="264,-133.788 271.194,-126.01 260.72,-127.604 264,-133.788"/>
</g>
<!-- Node15 -->
<g id="node15" class="node"><title>Node15</title>
<g id="a_node15"><a xlink:href="../../d1/d10/classserver_1_1irc_client.xhtml#a1ba37565db4acdfae3163d8d7217d9f2" target="_top" xlink:title="Emitted when a user leaves the room with a PART message.">
<polygon fill="white" stroke="black" points="271.5,-49 271.5,-79 360.5,-79 360.5,-49 271.5,-49"/>
<text text-anchor="start" x="279.5" y="-67" font-family="Helvetica,sans-Serif" font-size="10.00">server::ircClient::</text>
<text text-anchor="middle" x="316" y="-56" font-family="Helvetica,sans-Serif" font-size="10.00">userOffline</text>
</a>
</g>
</g>
<!-- Node6&#45;&gt;Node15 -->
<g id="edge20" class="edge"><title>Node6&#45;&gt;Node15</title>
<path fill="none" stroke="midnightblue" d="M174.551,-256.995C181.146,-222.623 201.879,-137.428 252,-89 255.094,-86.0105 258.589,-83.3649 262.308,-81.0261"/>
<polygon fill="midnightblue" stroke="midnightblue" points="264.211,-83.9748 271.308,-76.1079 260.854,-77.8322 264.211,-83.9748"/>
</g>
<!-- Node11&#45;&gt;Node9 -->
<g id="edge16" class="edge"><title>Node11&#45;&gt;Node9</title>
<path fill="none" stroke="midnightblue" d="M362.776,-30.0902C368.814,-32.9501 374.728,-36.2454 380,-40 418.054,-67.104 450.895,-111.844 467.483,-136.778"/>
<polygon fill="midnightblue" stroke="midnightblue" points="464.633,-138.815 473.021,-145.287 470.499,-134.997 464.633,-138.815"/>
</g>
</g>
</svg>
