<?xml version="1.0" encoding="UTF-8" standalone="no"?>
<!DOCTYPE svg PUBLIC "-//W3C//DTD SVG 1.1//EN"
 "http://www.w3.org/Graphics/SVG/1.1/DTD/svg11.dtd">
<!-- Generated by graphviz version 2.30.1 (20130303.0817)
 -->
<!-- Title: server::ircClient::IRCConnectTimeOut Pages: 1 -->
<svg width="988pt" height="165pt"
 viewBox="0.00 0.00 988.00 165.00" xmlns="http://www.w3.org/2000/svg" xmlns:xlink="http://www.w3.org/1999/xlink">
<g id="graph0" class="graph" transform="scale(1 1) rotate(0) translate(4 161)">
<title>server::ircClient::IRCConnectTimeOut</title>
<polygon fill="white" stroke="white" points="-4,5 -4,-161 985,-161 985,5 -4,5"/>
<!-- Node1 -->
<g id="node1" class="node"><title>Node1</title>
<polygon fill="#bfbfbf" stroke="black" points="0.5,-105 0.5,-135 105.5,-135 105.5,-105 0.5,-105"/>
<text text-anchor="start" x="8.5" y="-123" font-family="Helvetica,sans-Serif" font-size="10.00">server::ircClient::</text>
<text text-anchor="middle" x="53" y="-112" font-family="Helvetica,sans-Serif" font-size="10.00">IRCConnectTimeOut</text>
</g>
<!-- Node2 -->
<g id="node2" class="node"><title>Node2</title>
<g id="a_node2"><a xlink:href="../../d1/d10/classserver_1_1irc_client.html#a9f9877406894f9b49bce12d8ad094bd7" target="_top" xlink:title="server::ircClient::\lconnectTimeout">
<polygon fill="white" stroke="black" points="142.5,-105 142.5,-135 231.5,-135 231.5,-105 142.5,-105"/>
<text text-anchor="start" x="150.5" y="-123" font-family="Helvetica,sans-Serif" font-size="10.00">server::ircClient::</text>
<text text-anchor="middle" x="187" y="-112" font-family="Helvetica,sans-Serif" font-size="10.00">connectTimeout</text>
</a>
</g>
</g>
<!-- Node1&#45;&gt;Node2 -->
<g id="edge1" class="edge"><title>Node1&#45;&gt;Node2</title>
<path fill="none" stroke="midnightblue" d="M115.86,-120C124.849,-120 133.94,-120 142.464,-120"/>
<polygon fill="midnightblue" stroke="midnightblue" points="115.791,-116.5 105.791,-120 115.791,-123.5 115.791,-116.5"/>
</g>
<!-- Node3 -->
<g id="node3" class="node"><title>Node3</title>
<g id="a_node3"><a xlink:href="../../d1/d10/classserver_1_1irc_client.html#a3991833ddcff72ca94d4c0ec588012ac" target="_top" xlink:title="Initializes the IRC Client. Does not yet connect!">
<polygon fill="white" stroke="black" points="268,-132.5 268,-151.5 370,-151.5 370,-132.5 268,-132.5"/>
<text text-anchor="middle" x="319" y="-139.5" font-family="Helvetica,sans-Serif" font-size="10.00">server::ircClient::init</text>
</a>
</g>
</g>
<!-- Node2&#45;&gt;Node3 -->
<g id="edge2" class="edge"><title>Node2&#45;&gt;Node3</title>
<path fill="none" stroke="midnightblue" d="M241.689,-129.086C250.383,-130.557 259.355,-132.075 267.958,-133.531"/>
<polygon fill="midnightblue" stroke="midnightblue" points="242.094,-125.605 231.65,-127.387 240.926,-132.506 242.094,-125.605"/>
</g>
<!-- Node5 -->
<g id="node5" class="node"><title>Node5</title>
<g id="a_node5"><a xlink:href="../../d1/d10/classserver_1_1irc_client.html#a43b0e50c5bf5ba76b5a09917e779c1ea" target="_top" xlink:title="connects to the IRC server. Sets the whole thing in motion">
<polygon fill="white" stroke="black" points="274.5,-83 274.5,-113 363.5,-113 363.5,-83 274.5,-83"/>
<text text-anchor="start" x="282.5" y="-101" font-family="Helvetica,sans-Serif" font-size="10.00">server::ircClient::</text>
<text text-anchor="middle" x="319" y="-90" font-family="Helvetica,sans-Serif" font-size="10.00">doConnect</text>
</a>
</g>
</g>
<!-- Node2&#45;&gt;Node5 -->
<g id="edge4" class="edge"><title>Node2&#45;&gt;Node5</title>
<path fill="none" stroke="midnightblue" d="M241.829,-110.891C252.623,-109.064 263.842,-107.165 274.244,-105.405"/>
<polygon fill="midnightblue" stroke="midnightblue" points="240.926,-107.494 231.65,-112.613 242.094,-114.395 240.926,-107.494"/>
</g>
<!-- Node4 -->
<g id="node4" class="node"><title>Node4</title>
<g id="a_node4"><a xlink:href="../../d1/d10/classserver_1_1irc_client.html#a0f263c3a5ae9d82109842518b4866ab5" target="_top" xlink:title="ircClient constructor">
<polygon fill="white" stroke="black" points="441.5,-127 441.5,-157 530.5,-157 530.5,-127 441.5,-127"/>
<text text-anchor="start" x="449.5" y="-145" font-family="Helvetica,sans-Serif" font-size="10.00">server::ircClient::</text>
<text text-anchor="middle" x="486" y="-134" font-family="Helvetica,sans-Serif" font-size="10.00">ircClient</text>
</a>
</g>
</g>
<!-- Node3&#45;&gt;Node4 -->
<g id="edge3" class="edge"><title>Node3&#45;&gt;Node4</title>
<path fill="none" stroke="midnightblue" d="M380.437,-142C400.608,-142 422.677,-142 441.321,-142"/>
<polygon fill="midnightblue" stroke="midnightblue" points="380.402,-138.5 370.402,-142 380.402,-145.5 380.402,-138.5"/>
</g>
<!-- Node6 -->
<g id="node6" class="node"><title>Node6</title>
<g id="a_node6"><a xlink:href="../../d1/d48/classserver_1_1main_app.html#af331bc3bf60e745f3ddc95ab3abe5188" target="_top" xlink:title="server::mainApp::run">
<polygon fill="white" stroke="black" points="800,-44.5 800,-63.5 906,-63.5 906,-44.5 800,-44.5"/>
<text text-anchor="middle" x="853" y="-51.5" font-family="Helvetica,sans-Serif" font-size="10.00">server::mainApp::run</text>
</a>
</g>
</g>
<!-- Node5&#45;&gt;Node6 -->
<g id="edge5" class="edge"><title>Node5&#45;&gt;Node6</title>
<path fill="none" stroke="midnightblue" d="M373.866,-99.3907C457.79,-100.702 624.598,-99.8724 764,-78 784.181,-74.8335 806.369,-68.7641 823.416,-63.5215"/>
<polygon fill="midnightblue" stroke="midnightblue" points="373.864,-95.8903 363.805,-99.2169 373.743,-102.889 373.864,-95.8903"/>
</g>
<!-- Node8 -->
<g id="node8" class="node"><title>Node8</title>
<g id="a_node8"><a xlink:href="../../d1/d48/classserver_1_1main_app.html#aa9d4c2e1dc5216901c4f8743838d4561" target="_top" xlink:title="Emitted when the reconnect timer reaches 0.">
<polygon fill="white" stroke="black" points="406,-44.5 406,-63.5 566,-63.5 566,-44.5 406,-44.5"/>
<text text-anchor="middle" x="486" y="-51.5" font-family="Helvetica,sans-Serif" font-size="10.00">server::mainApp::doIrcReconnect</text>
</a>
</g>
</g>
<!-- Node5&#45;&gt;Node8 -->
<g id="edge7" class="edge"><title>Node5&#45;&gt;Node8</title>
<path fill="none" stroke="midnightblue" d="M373.776,-83.6598C398.562,-77.0501 427.301,-69.3864 449.356,-63.505"/>
<polygon fill="midnightblue" stroke="midnightblue" points="372.544,-80.3658 363.784,-86.3243 374.348,-87.1295 372.544,-80.3658"/>
</g>
<!-- Node7 -->
<g id="node7" class="node"><title>Node7</title>
<g id="a_node7"><a xlink:href="../../dc/d17/custom_irc_server_2main_8cpp.html#a0ddf1224851353fc92bfbff6f499fa97" target="_top" xlink:title="main">
<polygon fill="white" stroke="black" points="942,-44.5 942,-63.5 980,-63.5 980,-44.5 942,-44.5"/>
<text text-anchor="middle" x="961" y="-51.5" font-family="Helvetica,sans-Serif" font-size="10.00">main</text>
</a>
</g>
</g>
<!-- Node6&#45;&gt;Node7 -->
<g id="edge6" class="edge"><title>Node6&#45;&gt;Node7</title>
<path fill="none" stroke="midnightblue" d="M916.208,-54C925.464,-54 934.334,-54 941.64,-54"/>
<polygon fill="midnightblue" stroke="midnightblue" points="916.068,-50.5001 906.068,-54 916.068,-57.5001 916.068,-50.5001"/>
</g>
<!-- Node9 -->
<g id="node9" class="node"><title>Node9</title>
<g id="a_node9"><a xlink:href="../../d1/d48/classserver_1_1main_app.html#a931aedd34bb38252acfc8880f9716fab" target="_top" xlink:title="Triggered when the IRC client cannot connect.">
<polygon fill="white" stroke="black" points="613.5,-39 613.5,-69 752.5,-69 752.5,-39 613.5,-39"/>
<text text-anchor="start" x="621.5" y="-57" font-family="Helvetica,sans-Serif" font-size="10.00">server::mainApp::ircConnect</text>
<text text-anchor="middle" x="683" y="-46" font-family="Helvetica,sans-Serif" font-size="10.00">TimeOut</text>
</a>
</g>
</g>
<!-- Node8&#45;&gt;Node9 -->
<g id="edge8" class="edge"><title>Node8&#45;&gt;Node9</title>
<path fill="none" stroke="midnightblue" d="M576.363,-54C588.732,-54 601.276,-54 613.192,-54"/>
<polygon fill="midnightblue" stroke="midnightblue" points="576.033,-50.5001 566.033,-54 576.033,-57.5001 576.033,-50.5001"/>
</g>
<!-- Node10 -->
<g id="node10" class="node"><title>Node10</title>
<g id="a_node10"><a xlink:href="../../d1/d48/classserver_1_1main_app.html#af6e8c9d1f06514b33e5f88f9e66884be" target="_top" xlink:title="Triggered when the IRC client has disconnected.">
<polygon fill="white" stroke="black" points="602,-0.5 602,-19.5 764,-19.5 764,-0.5 602,-0.5"/>
<text text-anchor="middle" x="683" y="-7.5" font-family="Helvetica,sans-Serif" font-size="10.00">server::mainApp::ircDisconnected</text>
</a>
</g>
</g>
<!-- Node8&#45;&gt;Node10 -->
<g id="edge10" class="edge"><title>Node8&#45;&gt;Node10</title>
<path fill="none" stroke="midnightblue" d="M539.225,-42.2159C570.703,-35.1131 610.275,-26.184 639.77,-19.5287"/>
<polygon fill="midnightblue" stroke="midnightblue" points="538.296,-38.8373 529.312,-44.4527 539.837,-45.6657 538.296,-38.8373"/>
</g>
<!-- Node9&#45;&gt;Node6 -->
<g id="edge9" class="edge"><title>Node9&#45;&gt;Node6</title>
<path fill="none" stroke="midnightblue" d="M763.185,-54C775.597,-54 788.149,-54 799.753,-54"/>
<polygon fill="midnightblue" stroke="midnightblue" points="762.817,-50.5001 752.817,-54 762.817,-57.5001 762.817,-50.5001"/>
</g>
<!-- Node10&#45;&gt;Node6 -->
<g id="edge11" class="edge"><title>Node10&#45;&gt;Node6</title>
<path fill="none" stroke="midnightblue" d="M733.119,-22.1047C743.336,-24.6715 754.027,-27.3938 764,-30 781.773,-34.6446 801.507,-40.0077 817.777,-44.4846"/>
<polygon fill="midnightblue" stroke="midnightblue" points="733.655,-18.631 723.105,-19.5997 731.957,-25.4218 733.655,-18.631"/>
</g>
</g>
</svg>
