<?xml version="1.0" encoding="UTF-8" standalone="no"?>
<!DOCTYPE svg PUBLIC "-//W3C//DTD SVG 1.1//EN"
 "http://www.w3.org/Graphics/SVG/1.1/DTD/svg11.dtd">
<!-- Generated by graphviz version 2.30.1 (20130303.0817)
 -->
<!-- Title: server::ircClient::disconnected Pages: 1 -->
<svg width="368pt" height="77pt"
 viewBox="0.00 0.00 368.00 77.00" xmlns="http://www.w3.org/2000/svg" xmlns:xlink="http://www.w3.org/1999/xlink">
<g id="graph0" class="graph" transform="scale(1 1) rotate(0) translate(4 73)">
<title>server::ircClient::disconnected</title>
<polygon fill="white" stroke="white" points="-4,5 -4,-73 365,-73 365,5 -4,5"/>
<!-- Node1 -->
<g id="node1" class="node"><title>Node1</title>
<polygon fill="#bfbfbf" stroke="black" points="0.5,-22 0.5,-52 89.5,-52 89.5,-22 0.5,-22"/>
<text text-anchor="start" x="8.5" y="-40" font-family="Helvetica,sans-Serif" font-size="10.00">server::ircClient::</text>
<text text-anchor="middle" x="45" y="-29" font-family="Helvetica,sans-Serif" font-size="10.00">disconnected</text>
</g>
<!-- Node2 -->
<g id="node2" class="node"><title>Node2</title>
<g id="a_node2"><a xlink:href="../../d6/d75/namespace_k4_u.html#aaddaee50fab2801df390147891b0c09d" target="_top" xlink:title="K4U::endl">
<polygon fill="white" stroke="black" points="142.5,-49.5 142.5,-68.5 201.5,-68.5 201.5,-49.5 142.5,-49.5"/>
<text text-anchor="middle" x="172" y="-56.5" font-family="Helvetica,sans-Serif" font-size="10.00">K4U::endl</text>
</a>
</g>
</g>
<!-- Node1&#45;&gt;Node2 -->
<g id="edge1" class="edge"><title>Node1&#45;&gt;Node2</title>
<path fill="none" stroke="midnightblue" d="M89.7189,-44.6945C103.632,-47.1433 118.915,-49.833 132.436,-52.2128"/>
<polygon fill="midnightblue" stroke="midnightblue" points="131.926,-55.6767 142.381,-53.9631 133.139,-48.7826 131.926,-55.6767"/>
</g>
<!-- Node4 -->
<g id="node4" class="node"><title>Node4</title>
<g id="a_node4"><a xlink:href="../../d1/d10/classserver_1_1irc_client.html#acb710c977bd5411f99dc8fdaf92e91a4" target="_top" xlink:title="Emitted when the connection was cut!">
<polygon fill="white" stroke="black" points="126,-0 126,-30 218,-30 218,-0 126,-0"/>
<text text-anchor="start" x="134" y="-18" font-family="Helvetica,sans-Serif" font-size="10.00">server::ircClient::</text>
<text text-anchor="middle" x="172" y="-7" font-family="Helvetica,sans-Serif" font-size="10.00">IRCDisconnected</text>
</a>
</g>
</g>
<!-- Node1&#45;&gt;Node4 -->
<g id="edge4" class="edge"><title>Node1&#45;&gt;Node4</title>
<path fill="none" stroke="midnightblue" d="M89.7189,-29.3055C98.1189,-27.8271 107.018,-26.2609 115.727,-24.728"/>
<polygon fill="midnightblue" stroke="midnightblue" points="116.581,-28.1317 125.822,-22.9513 115.367,-21.2377 116.581,-28.1317"/>
</g>
<!-- Node3 -->
<g id="node3" class="node"><title>Node3</title>
<g id="a_node3"><a xlink:href="../../da/d64/class_k4_u_1_1cls_log.html#a81f179b2ccb3e2abeb9b47f5b83de935" target="_top" xlink:title="K4U::clsLog::doEndl">
<polygon fill="white" stroke="black" points="254,-49.5 254,-68.5 360,-68.5 360,-49.5 254,-49.5"/>
<text text-anchor="middle" x="307" y="-56.5" font-family="Helvetica,sans-Serif" font-size="10.00">K4U::clsLog::doEndl</text>
</a>
</g>
</g>
<!-- Node2&#45;&gt;Node3 -->
<g id="edge2" class="edge"><title>Node2&#45;&gt;Node3</title>
<path fill="none" stroke="midnightblue" d="M201.532,-53.3427C213.935,-52.5369 228.988,-52.1767 243.76,-52.2623"/>
<polygon fill="midnightblue" stroke="midnightblue" points="243.862,-55.7638 253.906,-52.3928 243.952,-48.7644 243.862,-55.7638"/>
</g>
<!-- Node3&#45;&gt;Node2 -->
<g id="edge3" class="edge"><title>Node3&#45;&gt;Node2</title>
<path fill="none" stroke="midnightblue" d="M253.906,-65.6072C239.838,-65.8901 224.867,-65.7526 211.677,-65.1948"/>
<polygon fill="midnightblue" stroke="midnightblue" points="211.703,-61.6914 201.532,-64.6573 211.333,-68.6816 211.703,-61.6914"/>
</g>
</g>
</svg>
