<?xml version="1.0" encoding="UTF-8" standalone="no"?>
<!DOCTYPE svg PUBLIC "-//W3C//DTD SVG 1.1//EN"
 "http://www.w3.org/Graphics/SVG/1.1/DTD/svg11.dtd">
<!-- Generated by graphviz version 2.30.1 (20130303.0817)
 -->
<!-- Title: server::ircClient::sendChat Pages: 1 -->
<svg width="484pt" height="115pt"
 viewBox="0.00 0.00 484.00 115.00" xmlns="http://www.w3.org/2000/svg" xmlns:xlink="http://www.w3.org/1999/xlink">
<g id="graph0" class="graph" transform="scale(1 1) rotate(0) translate(4 111)">
<title>server::ircClient::sendChat</title>
<polygon fill="white" stroke="white" points="-4,5 -4,-111 481,-111 481,5 -4,5"/>
<!-- Node1 -->
<g id="node1" class="node"><title>Node1</title>
<polygon fill="#bfbfbf" stroke="black" points="0.5,-44 0.5,-74 89.5,-74 89.5,-44 0.5,-44"/>
<text text-anchor="start" x="8.5" y="-62" font-family="Helvetica,sans-Serif" font-size="10.00">server::ircClient::</text>
<text text-anchor="middle" x="45" y="-51" font-family="Helvetica,sans-Serif" font-size="10.00">sendChat</text>
</g>
<!-- Node2 -->
<g id="node2" class="node"><title>Node2</title>
<g id="a_node2"><a xlink:href="../../d1/d10/classserver_1_1irc_client.xhtml#a2c1954be24f18aef7d8ec6a7a3e7f29c" target="_top" xlink:title="Sends a message to the IRC server.">
<polygon fill="white" stroke="black" points="126,-87.5 126,-106.5 236,-106.5 236,-87.5 126,-87.5"/>
<text text-anchor="middle" x="181" y="-94.5" font-family="Helvetica,sans-Serif" font-size="10.00">server::ircClient::send</text>
</a>
</g>
</g>
<!-- Node1&#45;&gt;Node2 -->
<g id="edge1" class="edge"><title>Node1&#45;&gt;Node2</title>
<path fill="none" stroke="midnightblue" d="M89.506,-71.3375C104.677,-75.6396 121.687,-80.4635 136.83,-84.7579"/>
<polygon fill="midnightblue" stroke="midnightblue" points="135.898,-88.1315 146.474,-87.4926 137.808,-81.397 135.898,-88.1315"/>
</g>
<!-- Node5 -->
<g id="node5" class="node"><title>Node5</title>
<g id="a_node5"><a xlink:href="../../d9/db1/namespaceserver.xhtml#a5975bac26af821c5aa25ca3b66ab35a9" target="_top" xlink:title="server::qts">
<polygon fill="white" stroke="black" points="272,-49.5 272,-68.5 334,-68.5 334,-49.5 272,-49.5"/>
<text text-anchor="middle" x="303" y="-56.5" font-family="Helvetica,sans-Serif" font-size="10.00">server::qts</text>
</a>
</g>
</g>
<!-- Node1&#45;&gt;Node5 -->
<g id="edge6" class="edge"><title>Node1&#45;&gt;Node5</title>
<path fill="none" stroke="midnightblue" d="M89.7171,-59C137.911,-59 214.8,-59 261.619,-59"/>
<polygon fill="midnightblue" stroke="midnightblue" points="261.7,-62.5001 271.7,-59 261.7,-55.5001 261.7,-62.5001"/>
</g>
<!-- Node6 -->
<g id="node6" class="node"><title>Node6</title>
<g id="a_node6"><a xlink:href="../../d1/d10/classserver_1_1irc_client.xhtml#aa59470840fe4135454af200bf5259874" target="_top" xlink:title="Emitted when a chatmessage has been received.">
<polygon fill="white" stroke="black" points="136.5,-0 136.5,-30 225.5,-30 225.5,-0 136.5,-0"/>
<text text-anchor="start" x="144.5" y="-18" font-family="Helvetica,sans-Serif" font-size="10.00">server::ircClient::</text>
<text text-anchor="middle" x="181" y="-7" font-family="Helvetica,sans-Serif" font-size="10.00">chatReceived</text>
</a>
</g>
</g>
<!-- Node1&#45;&gt;Node6 -->
<g id="edge7" class="edge"><title>Node1&#45;&gt;Node6</title>
<path fill="none" stroke="midnightblue" d="M89.506,-44.7145C101.325,-40.8336 114.26,-36.5861 126.56,-32.5475"/>
<polygon fill="midnightblue" stroke="midnightblue" points="127.845,-35.8095 136.254,-29.3644 125.661,-29.1589 127.845,-35.8095"/>
</g>
<!-- Node3 -->
<g id="node3" class="node"><title>Node3</title>
<g id="a_node3"><a xlink:href="../../d6/d75/namespace_k4_u.xhtml#aaddaee50fab2801df390147891b0c09d" target="_top" xlink:title="K4U::endl">
<polygon fill="white" stroke="black" points="273.5,-87.5 273.5,-106.5 332.5,-106.5 332.5,-87.5 273.5,-87.5"/>
<text text-anchor="middle" x="303" y="-94.5" font-family="Helvetica,sans-Serif" font-size="10.00">K4U::endl</text>
</a>
</g>
</g>
<!-- Node2&#45;&gt;Node3 -->
<g id="edge2" class="edge"><title>Node2&#45;&gt;Node3</title>
<path fill="none" stroke="midnightblue" d="M236.032,-97C245.143,-97 254.439,-97 263.069,-97"/>
<polygon fill="midnightblue" stroke="midnightblue" points="263.208,-100.5 273.208,-97 263.208,-93.5001 263.208,-100.5"/>
</g>
<!-- Node2&#45;&gt;Node5 -->
<g id="edge5" class="edge"><title>Node2&#45;&gt;Node5</title>
<path fill="none" stroke="midnightblue" d="M212.281,-87.411C227.346,-82.6406 245.754,-76.8112 261.967,-71.6771"/>
<polygon fill="midnightblue" stroke="midnightblue" points="263.252,-74.9416 271.729,-68.5859 261.139,-68.2682 263.252,-74.9416"/>
</g>
<!-- Node4 -->
<g id="node4" class="node"><title>Node4</title>
<g id="a_node4"><a xlink:href="../../da/d64/class_k4_u_1_1cls_log.xhtml#a81f179b2ccb3e2abeb9b47f5b83de935" target="_top" xlink:title="K4U::clsLog::doEndl">
<polygon fill="white" stroke="black" points="370,-87.5 370,-106.5 476,-106.5 476,-87.5 370,-87.5"/>
<text text-anchor="middle" x="423" y="-94.5" font-family="Helvetica,sans-Serif" font-size="10.00">K4U::clsLog::doEndl</text>
</a>
</g>
</g>
<!-- Node3&#45;&gt;Node4 -->
<g id="edge3" class="edge"><title>Node3&#45;&gt;Node4</title>
<path fill="none" stroke="midnightblue" d="M332.565,-91.1218C340.779,-90.6046 350.078,-90.3176 359.496,-90.2606"/>
<polygon fill="midnightblue" stroke="midnightblue" points="359.708,-93.7611 369.717,-90.289 359.727,-86.7611 359.708,-93.7611"/>
</g>
<!-- Node4&#45;&gt;Node3 -->
<g id="edge4" class="edge"><title>Node4&#45;&gt;Node3</title>
<path fill="none" stroke="midnightblue" d="M369.717,-103.711C360.638,-103.817 351.344,-103.707 342.71,-103.382"/>
<polygon fill="midnightblue" stroke="midnightblue" points="342.726,-99.8785 332.565,-102.878 342.379,-106.87 342.726,-99.8785"/>
</g>
</g>
</svg>
