<?xml version="1.0" encoding="UTF-8" standalone="no"?>
<!DOCTYPE svg PUBLIC "-//W3C//DTD SVG 1.1//EN"
 "http://www.w3.org/Graphics/SVG/1.1/DTD/svg11.dtd">
<!-- Generated by graphviz version 2.30.1 (20130303.0817)
 -->
<!-- Title: server::ircClient::readData Pages: 1 -->
<svg width="694pt" height="573pt"
 viewBox="0.00 0.00 694.00 573.00" xmlns="http://www.w3.org/2000/svg" xmlns:xlink="http://www.w3.org/1999/xlink">
<g id="graph0" class="graph" transform="scale(1 1) rotate(0) translate(4 569)">
<title>server::ircClient::readData</title>
<polygon fill="white" stroke="white" points="-4,5 -4,-569 691,-569 691,5 -4,5"/>
<!-- Node1 -->
<g id="node1" class="node"><title>Node1</title>
<polygon fill="#bfbfbf" stroke="black" points="0.5,-502 0.5,-532 89.5,-532 89.5,-502 0.5,-502"/>
<text text-anchor="start" x="8.5" y="-520" font-family="Helvetica,sans-Serif" font-size="10.00">server::ircClient::</text>
<text text-anchor="middle" x="45" y="-509" font-family="Helvetica,sans-Serif" font-size="10.00">readData</text>
</g>
<!-- Node2 -->
<g id="node2" class="node"><title>Node2</title>
<g id="a_node2"><a xlink:href="../../d6/d75/namespace_k4_u.html#aaddaee50fab2801df390147891b0c09d" target="_top" xlink:title="K4U::endl">
<polygon fill="white" stroke="black" points="450.5,-545.5 450.5,-564.5 509.5,-564.5 509.5,-545.5 450.5,-545.5"/>
<text text-anchor="middle" x="480" y="-552.5" font-family="Helvetica,sans-Serif" font-size="10.00">K4U::endl</text>
</a>
</g>
</g>
<!-- Node1&#45;&gt;Node2 -->
<g id="edge1" class="edge"><title>Node1&#45;&gt;Node2</title>
<path fill="none" stroke="midnightblue" d="M89.6982,-530.943C101.397,-534.295 114.101,-537.598 126,-540 238.203,-562.654 374.399,-560.251 439.986,-557.284"/>
<polygon fill="midnightblue" stroke="midnightblue" points="440.448,-560.766 450.268,-556.788 440.11,-553.774 440.448,-560.766"/>
</g>
<!-- Node4 -->
<g id="node4" class="node"><title>Node4</title>
<g id="a_node4"><a xlink:href="../../d1/d10/classserver_1_1irc_client.html#a2c1954be24f18aef7d8ec6a7a3e7f29c" target="_top" xlink:title="Sends a message to the IRC server.">
<polygon fill="white" stroke="black" points="261,-526.5 261,-545.5 371,-545.5 371,-526.5 261,-526.5"/>
<text text-anchor="middle" x="316" y="-533.5" font-family="Helvetica,sans-Serif" font-size="10.00">server::ircClient::send</text>
</a>
</g>
</g>
<!-- Node1&#45;&gt;Node4 -->
<g id="edge4" class="edge"><title>Node1&#45;&gt;Node4</title>
<path fill="none" stroke="midnightblue" d="M89.5185,-520.074C133.2,-523.159 200.984,-527.947 250.832,-531.468"/>
<polygon fill="midnightblue" stroke="midnightblue" points="250.644,-534.963 260.866,-532.176 251.137,-527.98 250.644,-534.963"/>
</g>
<!-- Node5 -->
<g id="node5" class="node"><title>Node5</title>
<g id="a_node5"><a xlink:href="../../d9/db1/namespaceserver.html#a5975bac26af821c5aa25ca3b66ab35a9" target="_top" xlink:title="Shorthand to convert a QString to a std::string.">
<polygon fill="white" stroke="black" points="449,-488.5 449,-507.5 511,-507.5 511,-488.5 449,-488.5"/>
<text text-anchor="middle" x="480" y="-495.5" font-family="Helvetica,sans-Serif" font-size="10.00">server::qts</text>
</a>
</g>
</g>
<!-- Node1&#45;&gt;Node5 -->
<g id="edge7" class="edge"><title>Node1&#45;&gt;Node5</title>
<path fill="none" stroke="midnightblue" d="M89.5002,-515.091C173.548,-511.403 357.135,-503.347 438.636,-499.771"/>
<polygon fill="midnightblue" stroke="midnightblue" points="439.141,-503.252 448.978,-499.317 438.834,-496.259 439.141,-503.252"/>
</g>
<!-- Node6 -->
<g id="node6" class="node"><title>Node6</title>
<g id="a_node6"><a xlink:href="../../d1/d10/classserver_1_1irc_client.html#af618e7f589a052d90e2dadbc87e83429" target="_top" xlink:title="Handles a command sent from the irc server.">
<polygon fill="white" stroke="black" points="126.5,-258 126.5,-288 215.5,-288 215.5,-258 126.5,-258"/>
<text text-anchor="start" x="134.5" y="-276" font-family="Helvetica,sans-Serif" font-size="10.00">server::ircClient::</text>
<text text-anchor="middle" x="171" y="-265" font-family="Helvetica,sans-Serif" font-size="10.00">handleCommand</text>
</a>
</g>
</g>
<!-- Node1&#45;&gt;Node6 -->
<g id="edge8" class="edge"><title>Node1&#45;&gt;Node6</title>
<path fill="none" stroke="midnightblue" d="M53.7568,-501.737C74.6337,-460.656 132.15,-347.48 157.603,-297.394"/>
<polygon fill="midnightblue" stroke="midnightblue" points="160.836,-298.758 162.246,-288.258 154.595,-295.587 160.836,-298.758"/>
</g>
<!-- Node3 -->
<g id="node3" class="node"><title>Node3</title>
<g id="a_node3"><a xlink:href="../../da/d64/class_k4_u_1_1cls_log.html#a81f179b2ccb3e2abeb9b47f5b83de935" target="_top" xlink:title="K4U::clsLog::doEndl">
<polygon fill="white" stroke="black" points="580,-545.5 580,-564.5 686,-564.5 686,-545.5 580,-545.5"/>
<text text-anchor="middle" x="633" y="-552.5" font-family="Helvetica,sans-Serif" font-size="10.00">K4U::clsLog::doEndl</text>
</a>
</g>
</g>
<!-- Node2&#45;&gt;Node3 -->
<g id="edge2" class="edge"><title>Node2&#45;&gt;Node3</title>
<path fill="none" stroke="midnightblue" d="M509.757,-549.565C526.744,-548.455 548.935,-548.048 569.742,-548.343"/>
<polygon fill="midnightblue" stroke="midnightblue" points="569.747,-551.844 579.815,-548.545 569.888,-544.845 569.747,-551.844"/>
</g>
<!-- Node3&#45;&gt;Node2 -->
<g id="edge3" class="edge"><title>Node3&#45;&gt;Node2</title>
<path fill="none" stroke="midnightblue" d="M579.815,-561.455C560.097,-561.969 538.027,-561.811 519.754,-560.982"/>
<polygon fill="midnightblue" stroke="midnightblue" points="519.934,-557.487 509.757,-560.435 519.551,-564.476 519.934,-557.487"/>
</g>
<!-- Node4&#45;&gt;Node2 -->
<g id="edge5" class="edge"><title>Node4&#45;&gt;Node2</title>
<path fill="none" stroke="midnightblue" d="M371.394,-542.38C394.041,-545.036 419.809,-548.058 440.45,-550.479"/>
<polygon fill="midnightblue" stroke="midnightblue" points="440.094,-553.961 450.434,-551.65 440.91,-547.009 440.094,-553.961"/>
</g>
<!-- Node4&#45;&gt;Node5 -->
<g id="edge6" class="edge"><title>Node4&#45;&gt;Node5</title>
<path fill="none" stroke="midnightblue" d="M357.879,-526.411C382.759,-520.575 414.394,-513.154 439.095,-507.361"/>
<polygon fill="midnightblue" stroke="midnightblue" points="439.937,-510.758 448.873,-505.067 438.338,-503.943 439.937,-510.758"/>
</g>
<!-- Node6&#45;&gt;Node5 -->
<g id="edge9" class="edge"><title>Node6&#45;&gt;Node5</title>
<path fill="none" stroke="midnightblue" d="M178.42,-288.354C189.647,-313.35 215.206,-362.778 252,-390 299.914,-425.449 326.393,-403.948 380,-430 409.599,-444.385 440.331,-466.879 459.548,-482.016"/>
<polygon fill="midnightblue" stroke="midnightblue" points="457.527,-484.881 467.522,-488.397 461.901,-479.416 457.527,-484.881"/>
</g>
<!-- Node6&#45;&gt;Node4 -->
<g id="edge10" class="edge"><title>Node6&#45;&gt;Node4</title>
<path fill="none" stroke="midnightblue" d="M175.366,-288.01C183.824,-323.481 208.464,-414.28 252,-478 263.145,-494.313 279.696,-509.319 293.037,-519.979"/>
<polygon fill="midnightblue" stroke="midnightblue" points="291.198,-522.981 301.251,-526.326 295.479,-517.442 291.198,-522.981"/>
</g>
<!-- Node7 -->
<g id="node7" class="node"><title>Node7</title>
<g id="a_node7"><a xlink:href="../../d9/db1/namespaceserver.html#ab14f85d7268f4938433c3bd76aefd61e" target="_top" xlink:title="Just an instring command. Checks if search is in command.">
<polygon fill="white" stroke="black" points="266,-0.5 266,-19.5 366,-19.5 366,-0.5 266,-0.5"/>
<text text-anchor="middle" x="316" y="-7.5" font-family="Helvetica,sans-Serif" font-size="10.00">server::inCommand</text>
</a>
</g>
</g>
<!-- Node6&#45;&gt;Node7 -->
<g id="edge11" class="edge"><title>Node6&#45;&gt;Node7</title>
<path fill="none" stroke="midnightblue" d="M172.736,-257.869C175.554,-216.4 188.977,-99.6602 252,-34 255.799,-30.0419 260.319,-26.7286 265.169,-23.9567"/>
<polygon fill="midnightblue" stroke="midnightblue" points="266.741,-27.084 274.17,-19.5297 263.652,-20.8026 266.741,-27.084"/>
</g>
<!-- Node8 -->
<g id="node8" class="node"><title>Node8</title>
<g id="a_node8"><a xlink:href="../../d1/d10/classserver_1_1irc_client.html#a1cd3512aac27b016945c5b66d0c777d1" target="_top" xlink:title="Emitted when a user comes online with a JOIN message.">
<polygon fill="white" stroke="black" points="271.5,-439 271.5,-469 360.5,-469 360.5,-439 271.5,-439"/>
<text text-anchor="start" x="279.5" y="-457" font-family="Helvetica,sans-Serif" font-size="10.00">server::ircClient::</text>
<text text-anchor="middle" x="316" y="-446" font-family="Helvetica,sans-Serif" font-size="10.00">userOnline</text>
</a>
</g>
</g>
<!-- Node6&#45;&gt;Node8 -->
<g id="edge12" class="edge"><title>Node6&#45;&gt;Node8</title>
<path fill="none" stroke="midnightblue" d="M176.491,-288.274C185.928,-317.997 210.442,-384.183 252,-424 255.785,-427.626 260.089,-430.883 264.631,-433.793"/>
<polygon fill="midnightblue" stroke="midnightblue" points="263.171,-436.992 273.58,-438.965 266.673,-430.931 263.171,-436.992"/>
</g>
<!-- Node9 -->
<g id="node9" class="node"><title>Node9</title>
<g id="a_node9"><a xlink:href="../../d9/db1/namespaceserver.html#abefc8e9cd145a8a00676c9bf43b877ef" target="_top" xlink:title="Converts a nickname to a nickAndStatus (nick|status)">
<polygon fill="white" stroke="black" points="416.5,-197.5 416.5,-216.5 543.5,-216.5 543.5,-197.5 416.5,-197.5"/>
<text text-anchor="middle" x="480" y="-204.5" font-family="Helvetica,sans-Serif" font-size="10.00">server::getNickAndStatus</text>
</a>
</g>
</g>
<!-- Node6&#45;&gt;Node9 -->
<g id="edge13" class="edge"><title>Node6&#45;&gt;Node9</title>
<path fill="none" stroke="midnightblue" d="M172.51,-257.962C174.755,-218.598 186.859,-112.504 252,-68 298.973,-35.908 329.434,-41.9342 380,-68 429.212,-93.3678 459.331,-155.769 472.008,-187.618"/>
<polygon fill="midnightblue" stroke="midnightblue" points="468.809,-189.052 475.641,-197.15 475.35,-186.559 468.809,-189.052"/>
</g>
<!-- Node10 -->
<g id="node10" class="node"><title>Node10</title>
<g id="a_node10"><a xlink:href="../../d1/d10/classserver_1_1irc_client.html#aa59470840fe4135454af200bf5259874" target="_top" xlink:title="Emitted when a chatmessage has been received.">
<polygon fill="white" stroke="black" points="271.5,-302 271.5,-332 360.5,-332 360.5,-302 271.5,-302"/>
<text text-anchor="start" x="279.5" y="-320" font-family="Helvetica,sans-Serif" font-size="10.00">server::ircClient::</text>
<text text-anchor="middle" x="316" y="-309" font-family="Helvetica,sans-Serif" font-size="10.00">chatReceived</text>
</a>
</g>
</g>
<!-- Node6&#45;&gt;Node10 -->
<g id="edge14" class="edge"><title>Node6&#45;&gt;Node10</title>
<path fill="none" stroke="midnightblue" d="M215.682,-286.441C230.1,-290.877 246.307,-295.864 261.381,-300.502"/>
<polygon fill="midnightblue" stroke="midnightblue" points="260.506,-303.894 271.093,-303.49 262.565,-297.204 260.506,-303.894"/>
</g>
<!-- Node11 -->
<g id="node11" class="node"><title>Node11</title>
<g id="a_node11"><a xlink:href="../../d2/d29/classserver_1_1irc_user.html#a9b5683eaeb89557d6e1b1e57708aeb35" target="_top" xlink:title="server::ircUser::getName">
<polygon fill="white" stroke="black" points="254,-263.5 254,-282.5 378,-282.5 378,-263.5 254,-263.5"/>
<text text-anchor="middle" x="316" y="-270.5" font-family="Helvetica,sans-Serif" font-size="10.00">server::ircUser::getName</text>
</a>
</g>
</g>
<!-- Node6&#45;&gt;Node11 -->
<g id="edge15" class="edge"><title>Node6&#45;&gt;Node11</title>
<path fill="none" stroke="midnightblue" d="M215.682,-273C224.643,-273 234.295,-273 243.936,-273"/>
<polygon fill="midnightblue" stroke="midnightblue" points="243.95,-276.5 253.95,-273 243.95,-269.5 243.95,-276.5"/>
</g>
<!-- Node12 -->
<g id="node12" class="node"><title>Node12</title>
<g id="a_node12"><a xlink:href="../../d9/db1/namespaceserver.html#a4ab136076f9a5f1ae8a6d78020f07c07" target="_top" xlink:title="Converts an IRC&#45;ID to a nickAndStatus (nick|status)">
<polygon fill="white" stroke="black" points="252.5,-351 252.5,-381 379.5,-381 379.5,-351 252.5,-351"/>
<text text-anchor="start" x="260.5" y="-369" font-family="Helvetica,sans-Serif" font-size="10.00">server::getNickAndStatus</text>
<text text-anchor="middle" x="316" y="-358" font-family="Helvetica,sans-Serif" font-size="10.00">FromId</text>
</a>
</g>
</g>
<!-- Node6&#45;&gt;Node12 -->
<g id="edge16" class="edge"><title>Node6&#45;&gt;Node12</title>
<path fill="none" stroke="midnightblue" d="M186.766,-288.178C202.001,-303.17 227.002,-325.977 252,-341 255.215,-342.932 258.606,-344.771 262.079,-346.509"/>
<polygon fill="midnightblue" stroke="midnightblue" points="260.861,-349.803 271.402,-350.872 263.828,-343.463 260.861,-349.803"/>
</g>
<!-- Node13 -->
<g id="node13" class="node"><title>Node13</title>
<g id="a_node13"><a xlink:href="../../d1/d10/classserver_1_1irc_client.html#afa10a5c7c8ee0a4cfdae135d6737a0a2" target="_top" xlink:title="Emitted when a user changes his status (nick|Status)">
<polygon fill="white" stroke="black" points="267.5,-214 267.5,-244 364.5,-244 364.5,-214 267.5,-214"/>
<text text-anchor="start" x="275.5" y="-232" font-family="Helvetica,sans-Serif" font-size="10.00">server::ircClient::</text>
<text text-anchor="middle" x="316" y="-221" font-family="Helvetica,sans-Serif" font-size="10.00">userChangeStatus</text>
</a>
</g>
</g>
<!-- Node6&#45;&gt;Node13 -->
<g id="edge18" class="edge"><title>Node6&#45;&gt;Node13</title>
<path fill="none" stroke="midnightblue" d="M215.682,-259.559C228.962,-255.473 243.759,-250.92 257.791,-246.603"/>
<polygon fill="midnightblue" stroke="midnightblue" points="258.827,-249.946 267.355,-243.66 256.768,-243.256 258.827,-249.946"/>
</g>
<!-- Node14 -->
<g id="node14" class="node"><title>Node14</title>
<g id="a_node14"><a xlink:href="../../d9/db1/namespaceserver.html#ad244a00644a29a6c927a6ee9dd351351" target="_top" xlink:title="Converts a full IRC&#45;ID to something without the nickname.">
<polygon fill="white" stroke="black" points="281.5,-175.5 281.5,-194.5 350.5,-194.5 350.5,-175.5 281.5,-175.5"/>
<text text-anchor="middle" x="316" y="-182.5" font-family="Helvetica,sans-Serif" font-size="10.00">server::getId</text>
</a>
</g>
</g>
<!-- Node6&#45;&gt;Node14 -->
<g id="edge19" class="edge"><title>Node6&#45;&gt;Node14</title>
<path fill="none" stroke="midnightblue" d="M186.269,-257.733C201.306,-242.452 226.329,-219.223 252,-205 258.07,-201.637 264.787,-198.747 271.507,-196.294"/>
<polygon fill="midnightblue" stroke="midnightblue" points="272.917,-199.513 281.28,-193.009 270.686,-192.878 272.917,-199.513"/>
</g>
<!-- Node15 -->
<g id="node15" class="node"><title>Node15</title>
<g id="a_node15"><a xlink:href="../../d1/d10/classserver_1_1irc_client.html#a566c94db09896197fdb8e982756b8c1e" target="_top" xlink:title="Emitted when a user changes his nickname (nick|Status)">
<polygon fill="white" stroke="black" points="271.5,-126 271.5,-156 360.5,-156 360.5,-126 271.5,-126"/>
<text text-anchor="start" x="279.5" y="-144" font-family="Helvetica,sans-Serif" font-size="10.00">server::ircClient::</text>
<text text-anchor="middle" x="316" y="-133" font-family="Helvetica,sans-Serif" font-size="10.00">userChangeNick</text>
</a>
</g>
</g>
<!-- Node6&#45;&gt;Node15 -->
<g id="edge20" class="edge"><title>Node6&#45;&gt;Node15</title>
<path fill="none" stroke="midnightblue" d="M179.786,-257.779C192.186,-234.914 218.478,-191.657 252,-166 255.168,-163.575 258.602,-161.354 262.177,-159.325"/>
<polygon fill="midnightblue" stroke="midnightblue" points="263.967,-162.341 271.277,-154.672 260.78,-156.108 263.967,-162.341"/>
</g>
<!-- Node16 -->
<g id="node16" class="node"><title>Node16</title>
<g id="a_node16"><a xlink:href="../../d1/d10/classserver_1_1irc_client.html#a1ba37565db4acdfae3163d8d7217d9f2" target="_top" xlink:title="Emitted when a user leaves the room with a PART message.">
<polygon fill="white" stroke="black" points="271.5,-77 271.5,-107 360.5,-107 360.5,-77 271.5,-77"/>
<text text-anchor="start" x="279.5" y="-95" font-family="Helvetica,sans-Serif" font-size="10.00">server::ircClient::</text>
<text text-anchor="middle" x="316" y="-84" font-family="Helvetica,sans-Serif" font-size="10.00">userOffline</text>
</a>
</g>
</g>
<!-- Node6&#45;&gt;Node16 -->
<g id="edge21" class="edge"><title>Node6&#45;&gt;Node16</title>
<path fill="none" stroke="midnightblue" d="M175.846,-257.919C184.405,-227.245 207.839,-157.109 252,-117 255.136,-114.152 258.636,-111.61 262.335,-109.346"/>
<polygon fill="midnightblue" stroke="midnightblue" points="264.103,-112.369 271.251,-104.549 260.786,-106.204 264.103,-112.369"/>
</g>
<!-- Node12&#45;&gt;Node9 -->
<g id="edge17" class="edge"><title>Node12&#45;&gt;Node9</title>
<path fill="none" stroke="midnightblue" d="M363.695,-350.948C369.463,-348.106 375.058,-344.805 380,-341 422.028,-308.642 454.643,-253.883 469.766,-225.42"/>
<polygon fill="midnightblue" stroke="midnightblue" points="472.88,-227.018 474.372,-216.529 466.664,-223.798 472.88,-227.018"/>
</g>
</g>
</svg>
