<?xml version="1.0" encoding="UTF-8" standalone="no"?>
<!DOCTYPE svg PUBLIC "-//W3C//DTD SVG 1.1//EN"
 "http://www.w3.org/Graphics/SVG/1.1/DTD/svg11.dtd">
<!-- Generated by graphviz version 2.30.1 (20130303.0817)
 -->
<!-- Title: server::ircClient::chatReceived Pages: 1 -->
<!--zoomable 87 -->
<svg id="main" version="1.1" xmlns="http://www.w3.org/2000/svg" xmlns:xlink="http://www.w3.org/1999/xlink" xml:space="preserve" onload="init(evt)">
        <defs>
                <circle id="rim" cx="0" cy="0" r="7"/>
                <circle id="rim2" cx="0" cy="0" r="3.5"/>
                <g id="zoomPlus">
                        <use xlink:href="#rim" fill="#404040">
                                <set attributeName="fill" to="#808080" begin="zoomplus.mouseover" end="zoomplus.mouseout"/>
                        </use>
                        <path d="M-4,0h8M0,-4v8" fill="none" stroke="white" stroke-width="1.5" pointer-events="none"/>
                </g>
                <g id="zoomMin">
                        <use xlink:href="#rim" fill="#404040">
                                <set attributeName="fill" to="#808080" begin="zoomminus.mouseover" end="zoomminus.mouseout"/>
                        </use>
                        <path d="M-4,0h8" fill="none" stroke="white" stroke-width="1.5" pointer-events="none"/>
                </g>
                <g id="dirArrow">
                        <path fill="none" stroke="white" stroke-width="1.5" d="M0,-3.0v7 M-2.5,-0.5L0,-3.0L2.5,-0.5"/>
                </g>
               <g id="resetDef">
                       <use xlink:href="#rim2" fill="#404040">
                               <set attributeName="fill" to="#808080" begin="reset.mouseover" end="reset.mouseout"/>
                       </use>
               </g>
        </defs>

<script type="text/javascript">
var viewWidth = 672;
var viewHeight = 87;
var sectionId = 'dynsection-3';
</script>
<script xlink:href="../../svgpan.js"/>
<svg id="graph" class="graph">
<g id="viewport">
<title>server::ircClient::chatReceived</title>
<polygon fill="white" stroke="white" points="-4,5 -4,-83 669,-83 669,5 -4,5"/>
<!-- Node1 -->
<g id="node1" class="node"><title>Node1</title>
<polygon fill="#bfbfbf" stroke="black" points="0.5,-24 0.5,-54 89.5,-54 89.5,-24 0.5,-24"/>
<text text-anchor="start" x="8.5" y="-42" font-family="Helvetica,sans-Serif" font-size="10.00">server::ircClient::</text>
<text text-anchor="middle" x="45" y="-31" font-family="Helvetica,sans-Serif" font-size="10.00">chatReceived</text>
</g>
<!-- Node2 -->
<g id="node2" class="node"><title>Node2</title>
<g id="a_node2"><a xlink:href="../../d1/d10/classserver_1_1irc_client.html#af618e7f589a052d90e2dadbc87e83429" target="_top" xlink:title="Handles a command sent from the irc server.">
<polygon fill="white" stroke="black" points="126.5,-49 126.5,-79 215.5,-79 215.5,-49 126.5,-49"/>
<text text-anchor="start" x="134.5" y="-67" font-family="Helvetica,sans-Serif" font-size="10.00">server::ircClient::</text>
<text text-anchor="middle" x="171" y="-56" font-family="Helvetica,sans-Serif" font-size="10.00">handleCommand</text>
</a>
</g>
</g>
<!-- Node1&#45;&gt;Node2 -->
<g id="edge1" class="edge"><title>Node1&#45;&gt;Node2</title>
<path fill="none" stroke="midnightblue" d="M99.6211,-49.8107C108.516,-51.6041 117.646,-53.4447 126.259,-55.1813"/>
<polygon fill="midnightblue" stroke="midnightblue" points="100.212,-46.3595 89.7178,-47.8141 98.8288,-53.2215 100.212,-46.3595"/>
</g>
<!-- Node6 -->
<g id="node6" class="node"><title>Node6</title>
<g id="a_node6"><a xlink:href="../../d1/d10/classserver_1_1irc_client.html#a6b62de4b4dc3c1f7f0fe7c6f91c1cf05" target="_top" xlink:title="Sends a chat message to a certain channel.">
<polygon fill="white" stroke="black" points="126.5,-0 126.5,-30 215.5,-30 215.5,-0 126.5,-0"/>
<text text-anchor="start" x="134.5" y="-18" font-family="Helvetica,sans-Serif" font-size="10.00">server::ircClient::</text>
<text text-anchor="middle" x="171" y="-7" font-family="Helvetica,sans-Serif" font-size="10.00">sendChat</text>
</a>
</g>
</g>
<!-- Node1&#45;&gt;Node6 -->
<g id="edge5" class="edge"><title>Node1&#45;&gt;Node6</title>
<path fill="none" stroke="midnightblue" d="M99.6211,-28.6217C108.516,-26.9001 117.646,-25.1331 126.259,-23.466"/>
<polygon fill="midnightblue" stroke="midnightblue" points="98.8705,-25.202 89.7178,-30.5385 100.201,-32.0744 98.8705,-25.202"/>
</g>
<!-- Node3 -->
<g id="node3" class="node"><title>Node3</title>
<g id="a_node3"><a xlink:href="../../d1/d10/classserver_1_1irc_client.html#a384327d5a800bd0d970cffaf1a6a55c1" target="_top" xlink:title="Reads data from the IRC Socket.">
<polygon fill="white" stroke="black" points="279.5,-49 279.5,-79 368.5,-79 368.5,-49 279.5,-49"/>
<text text-anchor="start" x="287.5" y="-67" font-family="Helvetica,sans-Serif" font-size="10.00">server::ircClient::</text>
<text text-anchor="middle" x="324" y="-56" font-family="Helvetica,sans-Serif" font-size="10.00">readData</text>
</a>
</g>
</g>
<!-- Node2&#45;&gt;Node3 -->
<g id="edge2" class="edge"><title>Node2&#45;&gt;Node3</title>
<path fill="none" stroke="midnightblue" d="M225.799,-64C243.384,-64 262.686,-64 279.423,-64"/>
<polygon fill="midnightblue" stroke="midnightblue" points="225.675,-60.5001 215.675,-64 225.675,-67.5001 225.675,-60.5001"/>
</g>
<!-- Node4 -->
<g id="node4" class="node"><title>Node4</title>
<g id="a_node4"><a xlink:href="../../d1/d10/classserver_1_1irc_client.html#a3991833ddcff72ca94d4c0ec588012ac" target="_top" xlink:title="Initializes the IRC Client. Does not yet connect!">
<polygon fill="white" stroke="black" points="434,-54.5 434,-73.5 536,-73.5 536,-54.5 434,-54.5"/>
<text text-anchor="middle" x="485" y="-61.5" font-family="Helvetica,sans-Serif" font-size="10.00">server::ircClient::init</text>
</a>
</g>
</g>
<!-- Node3&#45;&gt;Node4 -->
<g id="edge3" class="edge"><title>Node3&#45;&gt;Node4</title>
<path fill="none" stroke="midnightblue" d="M379.056,-64C396.781,-64 416.392,-64 433.818,-64"/>
<polygon fill="midnightblue" stroke="midnightblue" points="378.868,-60.5001 368.868,-64 378.868,-67.5001 378.868,-60.5001"/>
</g>
<!-- Node5 -->
<g id="node5" class="node"><title>Node5</title>
<g id="a_node5"><a xlink:href="../../d1/d10/classserver_1_1irc_client.html#a0f263c3a5ae9d82109842518b4866ab5" target="_top" xlink:title="ircClient constructor">
<polygon fill="white" stroke="black" points="574.5,-49 574.5,-79 663.5,-79 663.5,-49 574.5,-49"/>
<text text-anchor="start" x="582.5" y="-67" font-family="Helvetica,sans-Serif" font-size="10.00">server::ircClient::</text>
<text text-anchor="middle" x="619" y="-56" font-family="Helvetica,sans-Serif" font-size="10.00">ircClient</text>
</a>
</g>
</g>
<!-- Node4&#45;&gt;Node5 -->
<g id="edge4" class="edge"><title>Node4&#45;&gt;Node5</title>
<path fill="none" stroke="midnightblue" d="M546.399,-64C555.814,-64 565.382,-64 574.329,-64"/>
<polygon fill="midnightblue" stroke="midnightblue" points="546.28,-60.5001 536.28,-64 546.28,-67.5001 546.28,-60.5001"/>
</g>
<!-- Node7 -->
<g id="node7" class="node"><title>Node7</title>
<g id="a_node7"><a xlink:href="../../d1/d48/classserver_1_1main_app.html#a022d0310199da514b250fec2541ada4a" target="_top" xlink:title="Triggered when a UI client wants to send a chat message.">
<polygon fill="white" stroke="black" points="252.5,-5.5 252.5,-24.5 395.5,-24.5 395.5,-5.5 252.5,-5.5"/>
<text text-anchor="middle" x="324" y="-12.5" font-family="Helvetica,sans-Serif" font-size="10.00">server::mainApp::uiSendChat</text>
</a>
</g>
</g>
<!-- Node6&#45;&gt;Node7 -->
<g id="edge6" class="edge"><title>Node6&#45;&gt;Node7</title>
<path fill="none" stroke="midnightblue" d="M225.915,-15C234.502,-15 243.495,-15 252.398,-15"/>
<polygon fill="midnightblue" stroke="midnightblue" points="225.675,-11.5001 215.675,-15 225.675,-18.5001 225.675,-11.5001"/>
</g>
<!-- Node8 -->
<g id="node8" class="node"><title>Node8</title>
<g id="a_node8"><a xlink:href="../../d1/d48/classserver_1_1main_app.html#af331bc3bf60e745f3ddc95ab3abe5188" target="_top" xlink:title="server::mainApp::run">
<polygon fill="white" stroke="black" points="432,-5.5 432,-24.5 538,-24.5 538,-5.5 432,-5.5"/>
<text text-anchor="middle" x="485" y="-12.5" font-family="Helvetica,sans-Serif" font-size="10.00">server::mainApp::run</text>
</a>
</g>
</g>
<!-- Node7&#45;&gt;Node8 -->
<g id="edge7" class="edge"><title>Node7&#45;&gt;Node8</title>
<path fill="none" stroke="midnightblue" d="M405.923,-15C414.673,-15 423.401,-15 431.681,-15"/>
<polygon fill="midnightblue" stroke="midnightblue" points="405.666,-11.5001 395.666,-15 405.666,-18.5001 405.666,-11.5001"/>
</g>
<!-- Node9 -->
<g id="node9" class="node"><title>Node9</title>
<g id="a_node9"><a xlink:href="../../dc/d17/custom_irc_server_2main_8cpp.html#a0ddf1224851353fc92bfbff6f499fa97" target="_top" xlink:title="main">
<polygon fill="white" stroke="black" points="600,-5.5 600,-24.5 638,-24.5 638,-5.5 600,-5.5"/>
<text text-anchor="middle" x="619" y="-12.5" font-family="Helvetica,sans-Serif" font-size="10.00">main</text>
</a>
</g>
</g>
<!-- Node8&#45;&gt;Node9 -->
<g id="edge8" class="edge"><title>Node8&#45;&gt;Node9</title>
<path fill="none" stroke="midnightblue" d="M548.227,-15C567.019,-15 586.221,-15 599.711,-15"/>
<polygon fill="midnightblue" stroke="midnightblue" points="548.17,-11.5001 538.17,-15 548.17,-18.5001 548.17,-11.5001"/>
</g>
</g>
</svg>
        <g id="navigator" transform="translate(0 0)" fill="#404254">
                <rect fill="#f2f5e9" fill-opacity="0.5" stroke="#606060" stroke-width=".5" x="0" y="0" width="60" height="60"/>
                <use id="zoomplus" xlink:href="#zoomPlus" x="17" y="9" onmousedown="handleZoom(evt,'in')"/>
                <use id="zoomminus" xlink:href="#zoomMin" x="42" y="9" onmousedown="handleZoom(evt,'out')"/>
                <use id="reset" xlink:href="#resetDef" x="30" y="36" onmousedown="handleReset()"/>
                <g id="arrowUp" xlink:href="#dirArrow" transform="translate(30 24)" onmousedown="handlePan(0,-1)">
                  <use xlink:href="#rim" fill="#404040">
                        <set attributeName="fill" to="#808080" begin="arrowUp.mouseover" end="arrowUp.mouseout"/>
                  </use>
                  <path fill="none" stroke="white" stroke-width="1.5" d="M0,-3.0v7 M-2.5,-0.5L0,-3.0L2.5,-0.5"/>
                </g>
                <g id="arrowRight" xlink:href="#dirArrow" transform="rotate(90) translate(36 -43)" onmousedown="handlePan(1,0)">
                  <use xlink:href="#rim" fill="#404040">
                        <set attributeName="fill" to="#808080" begin="arrowRight.mouseover" end="arrowRight.mouseout"/>
                  </use>
                  <path fill="none" stroke="white" stroke-width="1.5" d="M0,-3.0v7 M-2.5,-0.5L0,-3.0L2.5,-0.5"/>
                </g>
                <g id="arrowDown" xlink:href="#dirArrow" transform="rotate(180) translate(-30 -48)" onmousedown="handlePan(0,1)">
                  <use xlink:href="#rim" fill="#404040">
                        <set attributeName="fill" to="#808080" begin="arrowDown.mouseover" end="arrowDown.mouseout"/>
                  </use>
                  <path fill="none" stroke="white" stroke-width="1.5" d="M0,-3.0v7 M-2.5,-0.5L0,-3.0L2.5,-0.5"/>
                </g>
                <g id="arrowLeft" xlink:href="#dirArrow" transform="rotate(270) translate(-36 17)" onmousedown="handlePan(-1,0)">
                  <use xlink:href="#rim" fill="#404040">
                        <set attributeName="fill" to="#808080" begin="arrowLeft.mouseover" end="arrowLeft.mouseout"/>
                  </use>
                  <path fill="none" stroke="white" stroke-width="1.5" d="M0,-3.0v7 M-2.5,-0.5L0,-3.0L2.5,-0.5"/>
                </g>
        </g>
        <svg viewBox="0 0 15 15" width="100%" height="30px" preserveAspectRatio="xMaxYMin meet">
         <g id="arrow_out" transform="scale(0.3 0.3)">
          <a xlink:href="classserver_1_1irc_client_aa59470840fe4135454af200bf5259874_icgraph_org.svg" target="_base">
           <rect id="button" ry="5" rx="5" y="6" x="6" height="38" width="38"
                fill="#f2f5e9" fill-opacity="0.5" stroke="#606060" stroke-width="1.0"/>
           <path id="arrow"
             d="M 11.500037,31.436501 C 11.940474,20.09759 22.043105,11.32322 32.158766,21.979434 L 37.068811,17.246167 C 37.068811,17.246167 37.088388,32 37.088388,32 L 22.160133,31.978069 C 22.160133,31.978069 26.997745,27.140456 26.997745,27.140456 C 18.528582,18.264221 13.291696,25.230495 11.500037,31.436501 z"
             style="fill:#404040;"/>
          </a>
         </g>
        </svg>
</svg>
