<?xml version="1.0" encoding="UTF-8" standalone="no"?>
<!DOCTYPE svg PUBLIC "-//W3C//DTD SVG 1.1//EN"
 "http://www.w3.org/Graphics/SVG/1.1/DTD/svg11.dtd">
<!-- Generated by graphviz version 2.30.1 (20130303.0817)
 -->
<!-- Title: server::uiServer::doUserQuery Pages: 1 -->
<svg width="290pt" height="38pt"
 viewBox="0.00 0.00 290.00 38.00" xmlns="http://www.w3.org/2000/svg" xmlns:xlink="http://www.w3.org/1999/xlink">
<g id="graph0" class="graph" transform="scale(1 1) rotate(0) translate(4 34)">
<title>server::uiServer::doUserQuery</title>
<polygon fill="white" stroke="white" points="-4,5 -4,-34 287,-34 287,5 -4,5"/>
<!-- Node1 -->
<g id="node1" class="node"><title>Node1</title>
<polygon fill="#bfbfbf" stroke="black" points="0.5,-0 0.5,-30 119.5,-30 119.5,-0 0.5,-0"/>
<text text-anchor="start" x="8.5" y="-18" font-family="Helvetica,sans-Serif" font-size="10.00">server::uiServer::doUser</text>
<text text-anchor="middle" x="60" y="-7" font-family="Helvetica,sans-Serif" font-size="10.00">Query</text>
</g>
<!-- Node2 -->
<g id="node2" class="node"><title>Node2</title>
<g id="a_node2"><a xlink:href="../../df/dd2/classserver_1_1ui_server.xhtml#a8ac8c9444c217209d1e30983d60cad97" target="_top" xlink:title="Emitted when a client wants all the users.">
<polygon fill="white" stroke="black" points="156.5,-0 156.5,-30 281.5,-30 281.5,-0 156.5,-0"/>
<text text-anchor="start" x="164.5" y="-18" font-family="Helvetica,sans-Serif" font-size="10.00">server::uiServer::sgnUser</text>
<text text-anchor="middle" x="219" y="-7" font-family="Helvetica,sans-Serif" font-size="10.00">Query</text>
</a>
</g>
</g>
<!-- Node1&#45;&gt;Node2 -->
<g id="edge1" class="edge"><title>Node1&#45;&gt;Node2</title>
<path fill="none" stroke="midnightblue" d="M119.908,-15C128.476,-15 137.376,-15 146.164,-15"/>
<polygon fill="midnightblue" stroke="midnightblue" points="146.403,-18.5001 156.403,-15 146.403,-11.5001 146.403,-18.5001"/>
</g>
</g>
</svg>
