<?xml version="1.0" encoding="UTF-8" standalone="no"?>
<!DOCTYPE svg PUBLIC "-//W3C//DTD SVG 1.1//EN"
 "http://www.w3.org/Graphics/SVG/1.1/DTD/svg11.dtd">
<!-- Generated by graphviz version 2.30.1 (20130303.0817)
 -->
<!-- Title: server::uiServer::sgnChatReceived Pages: 1 -->
<svg width="630pt" height="38pt"
 viewBox="0.00 0.00 630.00 38.00" xmlns="http://www.w3.org/2000/svg" xmlns:xlink="http://www.w3.org/1999/xlink">
<g id="graph0" class="graph" transform="scale(1 1) rotate(0) translate(4 34)">
<title>server::uiServer::sgnChatReceived</title>
<polygon fill="white" stroke="white" points="-4,5 -4,-34 627,-34 627,5 -4,5"/>
<!-- Node1 -->
<g id="node1" class="node"><title>Node1</title>
<polygon fill="#bfbfbf" stroke="black" points="0.5,-0 0.5,-30 125.5,-30 125.5,-0 0.5,-0"/>
<text text-anchor="start" x="8.5" y="-18" font-family="Helvetica,sans-Serif" font-size="10.00">server::uiServer::sgnChat</text>
<text text-anchor="middle" x="63" y="-7" font-family="Helvetica,sans-Serif" font-size="10.00">Received</text>
</g>
<!-- Node2 -->
<g id="node2" class="node"><title>Node2</title>
<g id="a_node2"><a xlink:href="../../df/dd2/classserver_1_1ui_server.html#ad6b939c26280e2c3c4a6306e0599a10a" target="_top" xlink:title="Triggered when a client sends a chatmessage.">
<polygon fill="white" stroke="black" points="162,-5.5 162,-24.5 308,-24.5 308,-5.5 162,-5.5"/>
<text text-anchor="middle" x="235" y="-12.5" font-family="Helvetica,sans-Serif" font-size="10.00">server::uiServer::chatReceived</text>
</a>
</g>
</g>
<!-- Node1&#45;&gt;Node2 -->
<g id="edge1" class="edge"><title>Node1&#45;&gt;Node2</title>
<path fill="none" stroke="midnightblue" d="M136.116,-15C144.619,-15 153.298,-15 161.802,-15"/>
<polygon fill="midnightblue" stroke="midnightblue" points="135.855,-11.5001 125.855,-15 135.855,-18.5001 135.855,-11.5001"/>
</g>
<!-- Node3 -->
<g id="node3" class="node"><title>Node3</title>
<g id="a_node3"><a xlink:href="../../df/dd2/classserver_1_1ui_server.html#af8300a694de27369a5f5d1a95ed1cc37" target="_top" xlink:title="Triggered when a client connects.">
<polygon fill="white" stroke="black" points="344,-0 344,-30 462,-30 462,-0 344,-0"/>
<text text-anchor="start" x="352" y="-18" font-family="Helvetica,sans-Serif" font-size="10.00">server::uiServer::accept</text>
<text text-anchor="middle" x="403" y="-7" font-family="Helvetica,sans-Serif" font-size="10.00">Connection</text>
</a>
</g>
</g>
<!-- Node2&#45;&gt;Node3 -->
<g id="edge2" class="edge"><title>Node2&#45;&gt;Node3</title>
<path fill="none" stroke="midnightblue" d="M318.401,-15C327.005,-15 335.617,-15 343.868,-15"/>
<polygon fill="midnightblue" stroke="midnightblue" points="318.327,-11.5001 308.327,-15 318.327,-18.5001 318.327,-11.5001"/>
</g>
<!-- Node4 -->
<g id="node4" class="node"><title>Node4</title>
<g id="a_node4"><a xlink:href="../../df/dd2/classserver_1_1ui_server.html#a55e34b95359692ea9002408075e18b1a" target="_top" xlink:title="uiServer constructor">
<polygon fill="white" stroke="black" points="498.5,-5.5 498.5,-24.5 621.5,-24.5 621.5,-5.5 498.5,-5.5"/>
<text text-anchor="middle" x="560" y="-12.5" font-family="Helvetica,sans-Serif" font-size="10.00">server::uiServer::uiServer</text>
</a>
</g>
</g>
<!-- Node3&#45;&gt;Node4 -->
<g id="edge3" class="edge"><title>Node3&#45;&gt;Node4</title>
<path fill="none" stroke="midnightblue" d="M472.286,-15C480.998,-15 489.868,-15 498.447,-15"/>
<polygon fill="midnightblue" stroke="midnightblue" points="472.157,-11.5001 462.157,-15 472.157,-18.5001 472.157,-11.5001"/>
</g>
</g>
</svg>
