<?xml version="1.0" encoding="UTF-8" standalone="no"?>
<!DOCTYPE svg PUBLIC "-//W3C//DTD SVG 1.1//EN"
 "http://www.w3.org/Graphics/SVG/1.1/DTD/svg11.dtd">
<!-- Generated by graphviz version 2.30.1 (20130303.0817)
 -->
<!-- Title: server::uiServer::lostConnection Pages: 1 -->
<svg width="476pt" height="38pt"
 viewBox="0.00 0.00 476.00 38.00" xmlns="http://www.w3.org/2000/svg" xmlns:xlink="http://www.w3.org/1999/xlink">
<g id="graph0" class="graph" transform="scale(1 1) rotate(0) translate(4 34)">
<title>server::uiServer::lostConnection</title>
<polygon fill="white" stroke="white" points="-4,5 -4,-34 473,-34 473,5 -4,5"/>
<!-- Node1 -->
<g id="node1" class="node"><title>Node1</title>
<polygon fill="#bfbfbf" stroke="black" points="0.5,-5.5 0.5,-24.5 153.5,-24.5 153.5,-5.5 0.5,-5.5"/>
<text text-anchor="middle" x="77" y="-12.5" font-family="Helvetica,sans-Serif" font-size="10.00">server::uiServer::lostConnection</text>
</g>
<!-- Node2 -->
<g id="node2" class="node"><title>Node2</title>
<g id="a_node2"><a xlink:href="../../df/dd2/classserver_1_1ui_server.html#af8300a694de27369a5f5d1a95ed1cc37" target="_top" xlink:title="Triggered when a client connects.">
<polygon fill="white" stroke="black" points="190,-0 190,-30 308,-30 308,-0 190,-0"/>
<text text-anchor="start" x="198" y="-18" font-family="Helvetica,sans-Serif" font-size="10.00">server::uiServer::accept</text>
<text text-anchor="middle" x="249" y="-7" font-family="Helvetica,sans-Serif" font-size="10.00">Connection</text>
</a>
</g>
</g>
<!-- Node1&#45;&gt;Node2 -->
<g id="edge1" class="edge"><title>Node1&#45;&gt;Node2</title>
<path fill="none" stroke="midnightblue" d="M163.558,-15C172.434,-15 181.301,-15 189.773,-15"/>
<polygon fill="midnightblue" stroke="midnightblue" points="163.555,-11.5001 153.554,-15 163.554,-18.5001 163.555,-11.5001"/>
</g>
<!-- Node3 -->
<g id="node3" class="node"><title>Node3</title>
<g id="a_node3"><a xlink:href="../../df/dd2/classserver_1_1ui_server.html#a55e34b95359692ea9002408075e18b1a" target="_top" xlink:title="uiServer constructor">
<polygon fill="white" stroke="black" points="344.5,-5.5 344.5,-24.5 467.5,-24.5 467.5,-5.5 344.5,-5.5"/>
<text text-anchor="middle" x="406" y="-12.5" font-family="Helvetica,sans-Serif" font-size="10.00">server::uiServer::uiServer</text>
</a>
</g>
</g>
<!-- Node2&#45;&gt;Node3 -->
<g id="edge2" class="edge"><title>Node2&#45;&gt;Node3</title>
<path fill="none" stroke="midnightblue" d="M318.286,-15C326.998,-15 335.868,-15 344.447,-15"/>
<polygon fill="midnightblue" stroke="midnightblue" points="318.157,-11.5001 308.157,-15 318.157,-18.5001 318.157,-11.5001"/>
</g>
</g>
</svg>
