<?xml version="1.0" encoding="UTF-8" standalone="no"?>
<!DOCTYPE svg PUBLIC "-//W3C//DTD SVG 1.1//EN"
 "http://www.w3.org/Graphics/SVG/1.1/DTD/svg11.dtd">
<!-- Generated by graphviz version 2.30.1 (20130303.0817)
 -->
<!-- Title: server::uiServer::doUserQuery Pages: 1 -->
<svg width="442pt" height="38pt"
 viewBox="0.00 0.00 442.00 38.00" xmlns="http://www.w3.org/2000/svg" xmlns:xlink="http://www.w3.org/1999/xlink">
<g id="graph0" class="graph" transform="scale(1 1) rotate(0) translate(4 34)">
<title>server::uiServer::doUserQuery</title>
<polygon fill="white" stroke="white" points="-4,5 -4,-34 439,-34 439,5 -4,5"/>
<!-- Node1 -->
<g id="node1" class="node"><title>Node1</title>
<polygon fill="#bfbfbf" stroke="black" points="0.5,-0 0.5,-30 119.5,-30 119.5,-0 0.5,-0"/>
<text text-anchor="start" x="8.5" y="-18" font-family="Helvetica,sans-Serif" font-size="10.00">server::uiServer::doUser</text>
<text text-anchor="middle" x="60" y="-7" font-family="Helvetica,sans-Serif" font-size="10.00">Query</text>
</g>
<!-- Node2 -->
<g id="node2" class="node"><title>Node2</title>
<g id="a_node2"><a xlink:href="../../df/dd2/classserver_1_1ui_server.html#af8300a694de27369a5f5d1a95ed1cc37" target="_top" xlink:title="Triggered when a client connects.">
<polygon fill="white" stroke="black" points="156,-0 156,-30 274,-30 274,-0 156,-0"/>
<text text-anchor="start" x="164" y="-18" font-family="Helvetica,sans-Serif" font-size="10.00">server::uiServer::accept</text>
<text text-anchor="middle" x="215" y="-7" font-family="Helvetica,sans-Serif" font-size="10.00">Connection</text>
</a>
</g>
</g>
<!-- Node1&#45;&gt;Node2 -->
<g id="edge1" class="edge"><title>Node1&#45;&gt;Node2</title>
<path fill="none" stroke="midnightblue" d="M129.858,-15C138.573,-15 147.422,-15 155.946,-15"/>
<polygon fill="midnightblue" stroke="midnightblue" points="129.716,-11.5001 119.716,-15 129.716,-18.5001 129.716,-11.5001"/>
</g>
<!-- Node3 -->
<g id="node3" class="node"><title>Node3</title>
<g id="a_node3"><a xlink:href="../../df/dd2/classserver_1_1ui_server.html#a55e34b95359692ea9002408075e18b1a" target="_top" xlink:title="uiServer constructor">
<polygon fill="white" stroke="black" points="310.5,-5.5 310.5,-24.5 433.5,-24.5 433.5,-5.5 310.5,-5.5"/>
<text text-anchor="middle" x="372" y="-12.5" font-family="Helvetica,sans-Serif" font-size="10.00">server::uiServer::uiServer</text>
</a>
</g>
</g>
<!-- Node2&#45;&gt;Node3 -->
<g id="edge2" class="edge"><title>Node2&#45;&gt;Node3</title>
<path fill="none" stroke="midnightblue" d="M284.286,-15C292.998,-15 301.868,-15 310.447,-15"/>
<polygon fill="midnightblue" stroke="midnightblue" points="284.157,-11.5001 274.157,-15 284.157,-18.5001 284.157,-11.5001"/>
</g>
</g>
</svg>
