<?xml version="1.0" encoding="UTF-8" standalone="no"?>
<!DOCTYPE svg PUBLIC "-//W3C//DTD SVG 1.1//EN"
 "http://www.w3.org/Graphics/SVG/1.1/DTD/svg11.dtd">
<!-- Generated by graphviz version 2.30.1 (20130303.0817)
 -->
<!-- Title: server::uiServer::send Pages: 1 -->
<svg width="496pt" height="191pt"
 viewBox="0.00 0.00 496.00 191.00" xmlns="http://www.w3.org/2000/svg" xmlns:xlink="http://www.w3.org/1999/xlink">
<g id="graph0" class="graph" transform="scale(1 1) rotate(0) translate(4 187)">
<title>server::uiServer::send</title>
<polygon fill="white" stroke="white" points="-4,5 -4,-187 493,-187 493,5 -4,5"/>
<!-- Node1 -->
<g id="node1" class="node"><title>Node1</title>
<polygon fill="#bfbfbf" stroke="black" points="0,-38.5 0,-57.5 110,-57.5 110,-38.5 0,-38.5"/>
<text text-anchor="middle" x="55" y="-45.5" font-family="Helvetica,sans-Serif" font-size="10.00">server::uiServer::send</text>
</g>
<!-- Node2 -->
<g id="node2" class="node"><title>Node2</title>
<g id="a_node2"><a xlink:href="../../d2/dc1/class_k4_u_1_1json_command.html#a0b681a1fedfb2e89397b1f71e29edf78" target="_top" xlink:title="Transforms this object to a nice JSON string.">
<polygon fill="white" stroke="black" points="146,-93 146,-123 284,-123 284,-93 146,-93"/>
<text text-anchor="start" x="154" y="-111" font-family="Helvetica,sans-Serif" font-size="10.00">K4U::jsonCommand::toJson</text>
<text text-anchor="middle" x="215" y="-100" font-family="Helvetica,sans-Serif" font-size="10.00">String</text>
</a>
</g>
</g>
<!-- Node1&#45;&gt;Node2 -->
<g id="edge1" class="edge"><title>Node1&#45;&gt;Node2</title>
<path fill="none" stroke="midnightblue" d="M81.0356,-57.5072C103.453,-66.0201 136.975,-78.75 164.751,-89.2978"/>
<polygon fill="midnightblue" stroke="midnightblue" points="163.717,-92.6491 174.308,-92.9272 166.202,-86.105 163.717,-92.6491"/>
</g>
<!-- Node6 -->
<g id="node6" class="node"><title>Node6</title>
<g id="a_node6"><a xlink:href="../../d6/d75/namespace_k4_u.html#aaddaee50fab2801df390147891b0c09d" target="_top" xlink:title="K4U::endl">
<polygon fill="white" stroke="black" points="185.5,-38.5 185.5,-57.5 244.5,-57.5 244.5,-38.5 185.5,-38.5"/>
<text text-anchor="middle" x="215" y="-45.5" font-family="Helvetica,sans-Serif" font-size="10.00">K4U::endl</text>
</a>
</g>
</g>
<!-- Node1&#45;&gt;Node6 -->
<g id="edge5" class="edge"><title>Node1&#45;&gt;Node6</title>
<path fill="none" stroke="midnightblue" d="M110.375,-48C131.712,-48 155.713,-48 175.24,-48"/>
<polygon fill="midnightblue" stroke="midnightblue" points="175.293,-51.5001 185.293,-48 175.293,-44.5001 175.293,-51.5001"/>
</g>
<!-- Node8 -->
<g id="node8" class="node"><title>Node8</title>
<g id="a_node8"><a xlink:href="../../dc/d4d/classserver_1_1ui_client.html#ad3f8f8690155b186b54e40dcfee0df23" target="_top" xlink:title="Sends data to the socket.">
<polygon fill="white" stroke="black" points="161.5,-0.5 161.5,-19.5 268.5,-19.5 268.5,-0.5 161.5,-0.5"/>
<text text-anchor="middle" x="215" y="-7.5" font-family="Helvetica,sans-Serif" font-size="10.00">server::uiClient::send</text>
</a>
</g>
</g>
<!-- Node1&#45;&gt;Node8 -->
<g id="edge8" class="edge"><title>Node1&#45;&gt;Node8</title>
<path fill="none" stroke="midnightblue" d="M95.8701,-38.411C116.72,-33.3965 142.435,-27.2119 164.543,-21.8947"/>
<polygon fill="midnightblue" stroke="midnightblue" points="165.512,-25.2615 174.417,-19.5201 163.875,-18.4555 165.512,-25.2615"/>
</g>
<!-- Node3 -->
<g id="node3" class="node"><title>Node3</title>
<g id="a_node3"><a xlink:href="../../d2/dc1/class_k4_u_1_1json_command.html#ac6bc0d606265f47db9bae5a6a40cb244" target="_top" xlink:title="getCommandString">
<polygon fill="white" stroke="black" points="320.5,-153 320.5,-183 487.5,-183 487.5,-153 320.5,-153"/>
<text text-anchor="start" x="328.5" y="-171" font-family="Helvetica,sans-Serif" font-size="10.00">K4U::jsonCommand::getCommand</text>
<text text-anchor="middle" x="404" y="-160" font-family="Helvetica,sans-Serif" font-size="10.00">String</text>
</a>
</g>
</g>
<!-- Node2&#45;&gt;Node3 -->
<g id="edge2" class="edge"><title>Node2&#45;&gt;Node3</title>
<path fill="none" stroke="midnightblue" d="M259.668,-123.043C278.225,-129.345 300.125,-136.664 320,-143 327.178,-145.288 334.723,-147.638 342.216,-149.937"/>
<polygon fill="midnightblue" stroke="midnightblue" points="341.417,-153.352 352.003,-152.921 343.458,-146.656 341.417,-153.352"/>
</g>
<!-- Node4 -->
<g id="node4" class="node"><title>Node4</title>
<g id="a_node4"><a xlink:href="../../d2/dc1/class_k4_u_1_1json_command.html#ab408a8b051e005a7156e19ea8a1f7f3a" target="_top" xlink:title="Gets all data items.">
<polygon fill="white" stroke="black" points="332.5,-114.5 332.5,-133.5 475.5,-133.5 475.5,-114.5 332.5,-114.5"/>
<text text-anchor="middle" x="404" y="-121.5" font-family="Helvetica,sans-Serif" font-size="10.00">K4U::jsonCommand::getData</text>
</a>
</g>
</g>
<!-- Node2&#45;&gt;Node4 -->
<g id="edge3" class="edge"><title>Node2&#45;&gt;Node4</title>
<path fill="none" stroke="midnightblue" d="M284.04,-113.822C296.483,-114.886 309.577,-116.007 322.345,-117.099"/>
<polygon fill="midnightblue" stroke="midnightblue" points="322.234,-120.602 332.496,-117.968 322.831,-113.628 322.234,-120.602"/>
</g>
<!-- Node5 -->
<g id="node5" class="node"><title>Node5</title>
<g id="a_node5"><a xlink:href="../../d2/d6d/namespace_qt_json.html#ace7d6102379674932334bea04fb15c12" target="_top" xlink:title="QtJson::serialize">
<polygon fill="white" stroke="black" points="359.5,-76.5 359.5,-95.5 448.5,-95.5 448.5,-76.5 359.5,-76.5"/>
<text text-anchor="middle" x="404" y="-83.5" font-family="Helvetica,sans-Serif" font-size="10.00">QtJson::serialize</text>
</a>
</g>
</g>
<!-- Node2&#45;&gt;Node5 -->
<g id="edge4" class="edge"><title>Node2&#45;&gt;Node5</title>
<path fill="none" stroke="midnightblue" d="M284.04,-99.9953C305.57,-97.4623 329.05,-94.7 349.418,-92.3038"/>
<polygon fill="midnightblue" stroke="midnightblue" points="349.928,-95.768 359.451,-91.1234 349.11,-88.8159 349.928,-95.768"/>
</g>
<!-- Node7 -->
<g id="node7" class="node"><title>Node7</title>
<g id="a_node7"><a xlink:href="../../da/d64/class_k4_u_1_1cls_log.html#a81f179b2ccb3e2abeb9b47f5b83de935" target="_top" xlink:title="K4U::clsLog::doEndl">
<polygon fill="white" stroke="black" points="351,-38.5 351,-57.5 457,-57.5 457,-38.5 351,-38.5"/>
<text text-anchor="middle" x="404" y="-45.5" font-family="Helvetica,sans-Serif" font-size="10.00">K4U::clsLog::doEndl</text>
</a>
</g>
</g>
<!-- Node6&#45;&gt;Node7 -->
<g id="edge6" class="edge"><title>Node6&#45;&gt;Node7</title>
<path fill="none" stroke="midnightblue" d="M244.809,-42.964C270.232,-41.3112 308.17,-40.8537 340.52,-41.5916"/>
<polygon fill="midnightblue" stroke="midnightblue" points="340.712,-45.0981 350.804,-41.8732 340.904,-38.1007 340.712,-45.0981"/>
</g>
<!-- Node7&#45;&gt;Node6 -->
<g id="edge7" class="edge"><title>Node7&#45;&gt;Node6</title>
<path fill="none" stroke="midnightblue" d="M350.804,-54.1268C320.411,-55.1062 282.73,-54.9312 254.94,-53.602"/>
<polygon fill="midnightblue" stroke="midnightblue" points="254.989,-50.0994 244.809,-53.036 254.598,-57.0885 254.989,-50.0994"/>
</g>
</g>
</svg>
