<?xml version="1.0" encoding="UTF-8" standalone="no"?>
<!DOCTYPE svg PUBLIC "-//W3C//DTD SVG 1.1//EN"
 "http://www.w3.org/Graphics/SVG/1.1/DTD/svg11.dtd">
<!-- Generated by graphviz version 2.30.1 (20130303.0817)
 -->
<!-- Title: server::uiServer::uiServer Pages: 1 -->
<!--zoomable 281 -->
<svg id="main" version="1.1" xmlns="http://www.w3.org/2000/svg" xmlns:xlink="http://www.w3.org/1999/xlink" xml:space="preserve" onload="init(evt)">
        <defs>
                <circle id="rim" cx="0" cy="0" r="7"/>
                <circle id="rim2" cx="0" cy="0" r="3.5"/>
                <g id="zoomPlus">
                        <use xlink:href="#rim" fill="#404040">
                                <set attributeName="fill" to="#808080" begin="zoomplus.mouseover" end="zoomplus.mouseout"/>
                        </use>
                        <path d="M-4,0h8M0,-4v8" fill="none" stroke="white" stroke-width="1.5" pointer-events="none"/>
                </g>
                <g id="zoomMin">
                        <use xlink:href="#rim" fill="#404040">
                                <set attributeName="fill" to="#808080" begin="zoomminus.mouseover" end="zoomminus.mouseout"/>
                        </use>
                        <path d="M-4,0h8" fill="none" stroke="white" stroke-width="1.5" pointer-events="none"/>
                </g>
                <g id="dirArrow">
                        <path fill="none" stroke="white" stroke-width="1.5" d="M0,-3.0v7 M-2.5,-0.5L0,-3.0L2.5,-0.5"/>
                </g>
               <g id="resetDef">
                       <use xlink:href="#rim2" fill="#404040">
                               <set attributeName="fill" to="#808080" begin="reset.mouseover" end="reset.mouseout"/>
                       </use>
               </g>
        </defs>

<script type="text/javascript">
var viewWidth = 1034;
var viewHeight = 281;
var sectionId = 'dynsection-2';
</script>
<script xlink:href="../../svgpan.js"/>
<svg id="graph" class="graph">
<g id="viewport">
<title>server::uiServer::uiServer</title>
<polygon fill="white" stroke="white" points="-4,5 -4,-277 1031,-277 1031,5 -4,5"/>
<!-- Node1 -->
<g id="node1" class="node"><title>Node1</title>
<polygon fill="#bfbfbf" stroke="black" points="0.5,-171.5 0.5,-190.5 123.5,-190.5 123.5,-171.5 0.5,-171.5"/>
<text text-anchor="middle" x="62" y="-178.5" font-family="Helvetica,sans-Serif" font-size="10.00">server::uiServer::uiServer</text>
</g>
<!-- Node2 -->
<g id="node2" class="node"><title>Node2</title>
<g id="a_node2"><a xlink:href="../../df/dd2/classserver_1_1ui_server.html#af8300a694de27369a5f5d1a95ed1cc37" target="_top" xlink:title="Triggered when a client connects.">
<polygon fill="white" stroke="black" points="160,-166 160,-196 278,-196 278,-166 160,-166"/>
<text text-anchor="start" x="168" y="-184" font-family="Helvetica,sans-Serif" font-size="10.00">server::uiServer::accept</text>
<text text-anchor="middle" x="219" y="-173" font-family="Helvetica,sans-Serif" font-size="10.00">Connection</text>
</a>
</g>
</g>
<!-- Node1&#45;&gt;Node2 -->
<g id="edge1" class="edge"><title>Node1&#45;&gt;Node2</title>
<path fill="none" stroke="midnightblue" d="M123.815,-181C132.35,-181 141.167,-181 149.827,-181"/>
<polygon fill="midnightblue" stroke="midnightblue" points="149.894,-184.5 159.894,-181 149.894,-177.5 149.894,-184.5"/>
</g>
<!-- Node3 -->
<g id="node3" class="node"><title>Node3</title>
<g id="a_node3"><a xlink:href="../../df/dd2/classserver_1_1ui_server.html#a7d6448c91d341e29919ebc10047ef4a4" target="_top" xlink:title="Triggered when a client disconnects.">
<polygon fill="white" stroke="black" points="314.5,-253.5 314.5,-272.5 467.5,-272.5 467.5,-253.5 314.5,-253.5"/>
<text text-anchor="middle" x="391" y="-260.5" font-family="Helvetica,sans-Serif" font-size="10.00">server::uiServer::lostConnection</text>
</a>
</g>
</g>
<!-- Node2&#45;&gt;Node3 -->
<g id="edge2" class="edge"><title>Node2&#45;&gt;Node3</title>
<path fill="none" stroke="midnightblue" d="M238.306,-196.093C256.472,-210.361 285.629,-231.408 314,-244 319.495,-246.439 325.358,-248.602 331.299,-250.512"/>
<polygon fill="midnightblue" stroke="midnightblue" points="330.735,-253.996 341.318,-253.491 332.73,-247.286 330.735,-253.996"/>
</g>
<!-- Node4 -->
<g id="node4" class="node"><title>Node4</title>
<g id="a_node4"><a xlink:href="../../df/dd2/classserver_1_1ui_server.html#ad6b939c26280e2c3c4a6306e0599a10a" target="_top" xlink:title="Triggered when a client sends a chatmessage.">
<polygon fill="white" stroke="black" points="318,-215.5 318,-234.5 464,-234.5 464,-215.5 318,-215.5"/>
<text text-anchor="middle" x="391" y="-222.5" font-family="Helvetica,sans-Serif" font-size="10.00">server::uiServer::chatReceived</text>
</a>
</g>
</g>
<!-- Node2&#45;&gt;Node4 -->
<g id="edge3" class="edge"><title>Node2&#45;&gt;Node4</title>
<path fill="none" stroke="midnightblue" d="M278.029,-196.019C299.341,-201.535 323.176,-207.704 343.36,-212.928"/>
<polygon fill="midnightblue" stroke="midnightblue" points="342.689,-216.37 353.247,-215.488 344.443,-209.593 342.689,-216.37"/>
</g>
<!-- Node6 -->
<g id="node6" class="node"><title>Node6</title>
<g id="a_node6"><a xlink:href="../../df/dd2/classserver_1_1ui_server.html#af5f79bcf932095d2b0976581409e0376" target="_top" xlink:title="Triggered when a client wants all the users.">
<polygon fill="white" stroke="black" points="331.5,-166 331.5,-196 450.5,-196 450.5,-166 331.5,-166"/>
<text text-anchor="start" x="339.5" y="-184" font-family="Helvetica,sans-Serif" font-size="10.00">server::uiServer::doUser</text>
<text text-anchor="middle" x="391" y="-173" font-family="Helvetica,sans-Serif" font-size="10.00">Query</text>
</a>
</g>
</g>
<!-- Node2&#45;&gt;Node6 -->
<g id="edge5" class="edge"><title>Node2&#45;&gt;Node6</title>
<path fill="none" stroke="midnightblue" d="M278.029,-181C291.884,-181 306.805,-181 321.096,-181"/>
<polygon fill="midnightblue" stroke="midnightblue" points="321.366,-184.5 331.366,-181 321.366,-177.5 321.366,-184.5"/>
</g>
<!-- Node8 -->
<g id="node8" class="node"><title>Node8</title>
<g id="a_node8"><a xlink:href="../../df/dd2/classserver_1_1ui_server.html#a1d221672f6efb29189e6ce398f7b07e3" target="_top" xlink:title="Triggered when a client wants to change something about our own user.">
<polygon fill="white" stroke="black" points="331,-98 331,-128 451,-128 451,-98 331,-98"/>
<text text-anchor="start" x="339" y="-116" font-family="Helvetica,sans-Serif" font-size="10.00">server::uiServer::change</text>
<text text-anchor="middle" x="391" y="-105" font-family="Helvetica,sans-Serif" font-size="10.00">OwnUser</text>
</a>
</g>
</g>
<!-- Node2&#45;&gt;Node8 -->
<g id="edge7" class="edge"><title>Node2&#45;&gt;Node8</title>
<path fill="none" stroke="midnightblue" d="M257.729,-165.909C282.819,-155.872 315.967,-142.613 342.803,-131.879"/>
<polygon fill="midnightblue" stroke="midnightblue" points="344.392,-135.013 352.377,-128.049 341.792,-128.514 344.392,-135.013"/>
</g>
<!-- Node19 -->
<g id="node19" class="node"><title>Node19</title>
<g id="a_node19"><a xlink:href="../../df/dd2/classserver_1_1ui_server.html#acab729e9722d3a3c432c65248757c2f1" target="_top" xlink:title="Triggered when a client wants all the events.">
<polygon fill="white" stroke="black" points="330,-30 330,-60 452,-60 452,-30 330,-30"/>
<text text-anchor="start" x="338" y="-48" font-family="Helvetica,sans-Serif" font-size="10.00">server::uiServer::doSend</text>
<text text-anchor="middle" x="391" y="-37" font-family="Helvetica,sans-Serif" font-size="10.00">Events</text>
</a>
</g>
</g>
<!-- Node2&#45;&gt;Node19 -->
<g id="edge19" class="edge"><title>Node2&#45;&gt;Node19</title>
<path fill="none" stroke="midnightblue" d="M233.316,-165.795C250.675,-146.511 282.544,-112.899 314,-89 325.527,-80.2421 338.959,-71.9277 351.296,-64.9327"/>
<polygon fill="midnightblue" stroke="midnightblue" points="352.994,-67.9936 360.044,-60.0849 349.601,-61.871 352.994,-67.9936"/>
</g>
<!-- Node5 -->
<g id="node5" class="node"><title>Node5</title>
<g id="a_node5"><a xlink:href="../../df/dd2/classserver_1_1ui_server.html#af8accf173f4aa7dc5f59c56016645726" target="_top" xlink:title="Emitted when a chatmessage has been send from a client.">
<polygon fill="white" stroke="black" points="513.5,-225 513.5,-255 638.5,-255 638.5,-225 513.5,-225"/>
<text text-anchor="start" x="521.5" y="-243" font-family="Helvetica,sans-Serif" font-size="10.00">server::uiServer::sgnChat</text>
<text text-anchor="middle" x="576" y="-232" font-family="Helvetica,sans-Serif" font-size="10.00">Received</text>
</a>
</g>
</g>
<!-- Node4&#45;&gt;Node5 -->
<g id="edge4" class="edge"><title>Node4&#45;&gt;Node5</title>
<path fill="none" stroke="midnightblue" d="M464.064,-230.907C476.928,-231.961 490.33,-233.06 503.187,-234.114"/>
<polygon fill="midnightblue" stroke="midnightblue" points="503.108,-237.619 513.361,-234.948 503.68,-230.642 503.108,-237.619"/>
</g>
<!-- Node7 -->
<g id="node7" class="node"><title>Node7</title>
<g id="a_node7"><a xlink:href="../../df/dd2/classserver_1_1ui_server.html#a8ac8c9444c217209d1e30983d60cad97" target="_top" xlink:title="Emitted when a client wants all the users.">
<polygon fill="white" stroke="black" points="513.5,-176 513.5,-206 638.5,-206 638.5,-176 513.5,-176"/>
<text text-anchor="start" x="521.5" y="-194" font-family="Helvetica,sans-Serif" font-size="10.00">server::uiServer::sgnUser</text>
<text text-anchor="middle" x="576" y="-183" font-family="Helvetica,sans-Serif" font-size="10.00">Query</text>
</a>
</g>
</g>
<!-- Node6&#45;&gt;Node7 -->
<g id="edge6" class="edge"><title>Node6&#45;&gt;Node7</title>
<path fill="none" stroke="midnightblue" d="M450.657,-184.205C467.349,-185.117 485.723,-186.121 503.105,-187.071"/>
<polygon fill="midnightblue" stroke="midnightblue" points="503.029,-190.572 513.206,-187.623 503.411,-183.583 503.029,-190.572"/>
</g>
<!-- Node9 -->
<g id="node9" class="node"><title>Node9</title>
<g id="a_node9"><a xlink:href="../../d2/dc1/class_k4_u_1_1json_command.html#ae829f45e11a50fa00024a5d9951cd748" target="_top" xlink:title="Gets an item from the internal data map.">
<polygon fill="white" stroke="black" points="504.5,-137.5 504.5,-156.5 647.5,-156.5 647.5,-137.5 504.5,-137.5"/>
<text text-anchor="middle" x="576" y="-144.5" font-family="Helvetica,sans-Serif" font-size="10.00">K4U::jsonCommand::getData</text>
</a>
</g>
</g>
<!-- Node8&#45;&gt;Node9 -->
<g id="edge8" class="edge"><title>Node8&#45;&gt;Node9</title>
<path fill="none" stroke="midnightblue" d="M451.162,-123.992C471.173,-127.71 493.551,-131.867 513.723,-135.615"/>
<polygon fill="midnightblue" stroke="midnightblue" points="513.264,-139.09 523.735,-137.475 514.543,-132.208 513.264,-139.09"/>
</g>
<!-- Node10 -->
<g id="node10" class="node"><title>Node10</title>
<g id="a_node10"><a xlink:href="../../df/dd2/classserver_1_1ui_server.html#afcd9f0421bb52f2b83be4fa924958211" target="_top" xlink:title="Emitted when a client wants to change our own status.">
<polygon fill="white" stroke="black" points="507.5,-88 507.5,-118 644.5,-118 644.5,-88 507.5,-88"/>
<text text-anchor="start" x="515.5" y="-106" font-family="Helvetica,sans-Serif" font-size="10.00">server::uiServer::sgnChange</text>
<text text-anchor="middle" x="576" y="-95" font-family="Helvetica,sans-Serif" font-size="10.00">OwnUserStatus</text>
</a>
</g>
</g>
<!-- Node8&#45;&gt;Node10 -->
<g id="edge9" class="edge"><title>Node8&#45;&gt;Node10</title>
<path fill="none" stroke="midnightblue" d="M451.162,-109.767C465.896,-108.962 481.914,-108.087 497.389,-107.241"/>
<polygon fill="midnightblue" stroke="midnightblue" points="497.667,-110.731 507.461,-106.691 497.285,-103.742 497.667,-110.731"/>
</g>
<!-- Node11 -->
<g id="node11" class="node"><title>Node11</title>
<g id="a_node11"><a xlink:href="../../df/dd2/classserver_1_1ui_server.html#ab9e9ed944311c42f019c645c3e0539cf" target="_top" xlink:title="Sends a jsonCommand to all the clients.">
<polygon fill="white" stroke="black" points="521,-49.5 521,-68.5 631,-68.5 631,-49.5 521,-49.5"/>
<text text-anchor="middle" x="576" y="-56.5" font-family="Helvetica,sans-Serif" font-size="10.00">server::uiServer::send</text>
</a>
</g>
</g>
<!-- Node8&#45;&gt;Node11 -->
<g id="edge10" class="edge"><title>Node8&#45;&gt;Node11</title>
<path fill="none" stroke="midnightblue" d="M440.726,-97.975C460.357,-91.9826 483.229,-85.0775 504,-79 512.662,-76.4655 521.936,-73.8107 530.828,-71.2939"/>
<polygon fill="midnightblue" stroke="midnightblue" points="531.977,-74.6065 540.653,-68.5248 530.078,-67.869 531.977,-74.6065"/>
</g>
<!-- Node12 -->
<g id="node12" class="node"><title>Node12</title>
<g id="a_node12"><a xlink:href="../../d2/dc1/class_k4_u_1_1json_command.html#a0b681a1fedfb2e89397b1f71e29edf78" target="_top" xlink:title="Transforms this object to a nice JSON string.">
<polygon fill="white" stroke="black" points="684,-104 684,-134 822,-134 822,-104 684,-104"/>
<text text-anchor="start" x="692" y="-122" font-family="Helvetica,sans-Serif" font-size="10.00">K4U::jsonCommand::toJson</text>
<text text-anchor="middle" x="753" y="-111" font-family="Helvetica,sans-Serif" font-size="10.00">String</text>
</a>
</g>
</g>
<!-- Node11&#45;&gt;Node12 -->
<g id="edge11" class="edge"><title>Node11&#45;&gt;Node12</title>
<path fill="none" stroke="midnightblue" d="M613.317,-68.5325C624.506,-71.656 636.82,-75.2841 648,-79 667.052,-85.332 687.748,-93.104 705.625,-100.108"/>
<polygon fill="midnightblue" stroke="midnightblue" points="704.652,-103.486 715.238,-103.906 707.224,-96.9759 704.652,-103.486"/>
</g>
<!-- Node16 -->
<g id="node16" class="node"><title>Node16</title>
<g id="a_node16"><a xlink:href="../../d6/d75/namespace_k4_u.html#aaddaee50fab2801df390147891b0c09d" target="_top" xlink:title="K4U::endl">
<polygon fill="white" stroke="black" points="723.5,-49.5 723.5,-68.5 782.5,-68.5 782.5,-49.5 723.5,-49.5"/>
<text text-anchor="middle" x="753" y="-56.5" font-family="Helvetica,sans-Serif" font-size="10.00">K4U::endl</text>
</a>
</g>
</g>
<!-- Node11&#45;&gt;Node16 -->
<g id="edge15" class="edge"><title>Node11&#45;&gt;Node16</title>
<path fill="none" stroke="midnightblue" d="M631.412,-59C657.807,-59 688.913,-59 712.921,-59"/>
<polygon fill="midnightblue" stroke="midnightblue" points="713.075,-62.5001 723.075,-59 713.075,-55.5001 713.075,-62.5001"/>
</g>
<!-- Node18 -->
<g id="node18" class="node"><title>Node18</title>
<g id="a_node18"><a xlink:href="../../dc/d4d/classserver_1_1ui_client.html#ad3f8f8690155b186b54e40dcfee0df23" target="_top" xlink:title="Sends data to the socket.">
<polygon fill="white" stroke="black" points="699.5,-11.5 699.5,-30.5 806.5,-30.5 806.5,-11.5 699.5,-11.5"/>
<text text-anchor="middle" x="753" y="-18.5" font-family="Helvetica,sans-Serif" font-size="10.00">server::uiClient::send</text>
</a>
</g>
</g>
<!-- Node11&#45;&gt;Node18 -->
<g id="edge18" class="edge"><title>Node11&#45;&gt;Node18</title>
<path fill="none" stroke="midnightblue" d="M621.16,-49.411C644.565,-44.3287 673.505,-38.0446 698.212,-32.6797"/>
<polygon fill="midnightblue" stroke="midnightblue" points="699.128,-36.0624 708.158,-30.5201 697.643,-29.2218 699.128,-36.0624"/>
</g>
<!-- Node13 -->
<g id="node13" class="node"><title>Node13</title>
<g id="a_node13"><a xlink:href="../../d2/dc1/class_k4_u_1_1json_command.html#ac6bc0d606265f47db9bae5a6a40cb244" target="_top" xlink:title="getCommandString">
<polygon fill="white" stroke="black" points="858.5,-164 858.5,-194 1025.5,-194 1025.5,-164 858.5,-164"/>
<text text-anchor="start" x="866.5" y="-182" font-family="Helvetica,sans-Serif" font-size="10.00">K4U::jsonCommand::getCommand</text>
<text text-anchor="middle" x="942" y="-171" font-family="Helvetica,sans-Serif" font-size="10.00">String</text>
</a>
</g>
</g>
<!-- Node12&#45;&gt;Node13 -->
<g id="edge12" class="edge"><title>Node12&#45;&gt;Node13</title>
<path fill="none" stroke="midnightblue" d="M797.668,-134.043C816.225,-140.345 838.125,-147.664 858,-154 865.178,-156.288 872.723,-158.638 880.216,-160.937"/>
<polygon fill="midnightblue" stroke="midnightblue" points="879.417,-164.352 890.003,-163.921 881.458,-157.656 879.417,-164.352"/>
</g>
<!-- Node14 -->
<g id="node14" class="node"><title>Node14</title>
<g id="a_node14"><a xlink:href="../../d2/dc1/class_k4_u_1_1json_command.html#ab408a8b051e005a7156e19ea8a1f7f3a" target="_top" xlink:title="Gets all data items.">
<polygon fill="white" stroke="black" points="870.5,-125.5 870.5,-144.5 1013.5,-144.5 1013.5,-125.5 870.5,-125.5"/>
<text text-anchor="middle" x="942" y="-132.5" font-family="Helvetica,sans-Serif" font-size="10.00">K4U::jsonCommand::getData</text>
</a>
</g>
</g>
<!-- Node12&#45;&gt;Node14 -->
<g id="edge13" class="edge"><title>Node12&#45;&gt;Node14</title>
<path fill="none" stroke="midnightblue" d="M822.04,-124.822C834.483,-125.886 847.577,-127.007 860.345,-128.099"/>
<polygon fill="midnightblue" stroke="midnightblue" points="860.234,-131.602 870.496,-128.968 860.831,-124.628 860.234,-131.602"/>
</g>
<!-- Node15 -->
<g id="node15" class="node"><title>Node15</title>
<g id="a_node15"><a xlink:href="../../d2/d6d/namespace_qt_json.html#ace7d6102379674932334bea04fb15c12" target="_top" xlink:title="QtJson::serialize">
<polygon fill="white" stroke="black" points="897.5,-87.5 897.5,-106.5 986.5,-106.5 986.5,-87.5 897.5,-87.5"/>
<text text-anchor="middle" x="942" y="-94.5" font-family="Helvetica,sans-Serif" font-size="10.00">QtJson::serialize</text>
</a>
</g>
</g>
<!-- Node12&#45;&gt;Node15 -->
<g id="edge14" class="edge"><title>Node12&#45;&gt;Node15</title>
<path fill="none" stroke="midnightblue" d="M822.04,-110.995C843.57,-108.462 867.05,-105.7 887.418,-103.304"/>
<polygon fill="midnightblue" stroke="midnightblue" points="887.928,-106.768 897.451,-102.123 887.11,-99.8159 887.928,-106.768"/>
</g>
<!-- Node17 -->
<g id="node17" class="node"><title>Node17</title>
<g id="a_node17"><a xlink:href="../../da/d64/class_k4_u_1_1cls_log.html#a81f179b2ccb3e2abeb9b47f5b83de935" target="_top" xlink:title="K4U::clsLog::doEndl">
<polygon fill="white" stroke="black" points="889,-49.5 889,-68.5 995,-68.5 995,-49.5 889,-49.5"/>
<text text-anchor="middle" x="942" y="-56.5" font-family="Helvetica,sans-Serif" font-size="10.00">K4U::clsLog::doEndl</text>
</a>
</g>
</g>
<!-- Node16&#45;&gt;Node17 -->
<g id="edge16" class="edge"><title>Node16&#45;&gt;Node17</title>
<path fill="none" stroke="midnightblue" d="M782.809,-53.964C808.232,-52.3112 846.17,-51.8537 878.52,-52.5916"/>
<polygon fill="midnightblue" stroke="midnightblue" points="878.712,-56.0981 888.804,-52.8732 878.904,-49.1007 878.712,-56.0981"/>
</g>
<!-- Node17&#45;&gt;Node16 -->
<g id="edge17" class="edge"><title>Node17&#45;&gt;Node16</title>
<path fill="none" stroke="midnightblue" d="M888.804,-65.1268C858.411,-66.1062 820.73,-65.9312 792.94,-64.602"/>
<polygon fill="midnightblue" stroke="midnightblue" points="792.989,-61.0994 782.809,-64.036 792.598,-68.0885 792.989,-61.0994"/>
</g>
<!-- Node20 -->
<g id="node20" class="node"><title>Node20</title>
<g id="a_node20"><a xlink:href="../../df/dd2/classserver_1_1ui_server.html#a1097da2f20a545c302e9f4cab29a4a87" target="_top" xlink:title="Emitted when a client wants all the events.">
<polygon fill="white" stroke="black" points="512.5,-0 512.5,-30 639.5,-30 639.5,-0 512.5,-0"/>
<text text-anchor="start" x="520.5" y="-18" font-family="Helvetica,sans-Serif" font-size="10.00">server::uiServer::sgnSend</text>
<text text-anchor="middle" x="576" y="-7" font-family="Helvetica,sans-Serif" font-size="10.00">Events</text>
</a>
</g>
</g>
<!-- Node19&#45;&gt;Node20 -->
<g id="edge20" class="edge"><title>Node19&#45;&gt;Node20</title>
<path fill="none" stroke="midnightblue" d="M452.175,-35.1353C468.134,-32.5189 485.54,-29.6655 502.098,-26.9512"/>
<polygon fill="midnightblue" stroke="midnightblue" points="502.975,-30.3541 512.277,-25.2824 501.843,-23.4463 502.975,-30.3541"/>
</g>
</g>
</svg>
        <g id="navigator" transform="translate(0 0)" fill="#404254">
                <rect fill="#f2f5e9" fill-opacity="0.5" stroke="#606060" stroke-width=".5" x="0" y="0" width="60" height="60"/>
                <use id="zoomplus" xlink:href="#zoomPlus" x="17" y="9" onmousedown="handleZoom(evt,'in')"/>
                <use id="zoomminus" xlink:href="#zoomMin" x="42" y="9" onmousedown="handleZoom(evt,'out')"/>
                <use id="reset" xlink:href="#resetDef" x="30" y="36" onmousedown="handleReset()"/>
                <g id="arrowUp" xlink:href="#dirArrow" transform="translate(30 24)" onmousedown="handlePan(0,-1)">
                  <use xlink:href="#rim" fill="#404040">
                        <set attributeName="fill" to="#808080" begin="arrowUp.mouseover" end="arrowUp.mouseout"/>
                  </use>
                  <path fill="none" stroke="white" stroke-width="1.5" d="M0,-3.0v7 M-2.5,-0.5L0,-3.0L2.5,-0.5"/>
                </g>
                <g id="arrowRight" xlink:href="#dirArrow" transform="rotate(90) translate(36 -43)" onmousedown="handlePan(1,0)">
                  <use xlink:href="#rim" fill="#404040">
                        <set attributeName="fill" to="#808080" begin="arrowRight.mouseover" end="arrowRight.mouseout"/>
                  </use>
                  <path fill="none" stroke="white" stroke-width="1.5" d="M0,-3.0v7 M-2.5,-0.5L0,-3.0L2.5,-0.5"/>
                </g>
                <g id="arrowDown" xlink:href="#dirArrow" transform="rotate(180) translate(-30 -48)" onmousedown="handlePan(0,1)">
                  <use xlink:href="#rim" fill="#404040">
                        <set attributeName="fill" to="#808080" begin="arrowDown.mouseover" end="arrowDown.mouseout"/>
                  </use>
                  <path fill="none" stroke="white" stroke-width="1.5" d="M0,-3.0v7 M-2.5,-0.5L0,-3.0L2.5,-0.5"/>
                </g>
                <g id="arrowLeft" xlink:href="#dirArrow" transform="rotate(270) translate(-36 17)" onmousedown="handlePan(-1,0)">
                  <use xlink:href="#rim" fill="#404040">
                        <set attributeName="fill" to="#808080" begin="arrowLeft.mouseover" end="arrowLeft.mouseout"/>
                  </use>
                  <path fill="none" stroke="white" stroke-width="1.5" d="M0,-3.0v7 M-2.5,-0.5L0,-3.0L2.5,-0.5"/>
                </g>
        </g>
        <svg viewBox="0 0 15 15" width="100%" height="30px" preserveAspectRatio="xMaxYMin meet">
         <g id="arrow_out" transform="scale(0.3 0.3)">
          <a xlink:href="classserver_1_1ui_server_a55e34b95359692ea9002408075e18b1a_cgraph_org.svg" target="_base">
           <rect id="button" ry="5" rx="5" y="6" x="6" height="38" width="38"
                fill="#f2f5e9" fill-opacity="0.5" stroke="#606060" stroke-width="1.0"/>
           <path id="arrow"
             d="M 11.500037,31.436501 C 11.940474,20.09759 22.043105,11.32322 32.158766,21.979434 L 37.068811,17.246167 C 37.068811,17.246167 37.088388,32 37.088388,32 L 22.160133,31.978069 C 22.160133,31.978069 26.997745,27.140456 26.997745,27.140456 C 18.528582,18.264221 13.291696,25.230495 11.500037,31.436501 z"
             style="fill:#404040;"/>
          </a>
         </g>
        </svg>
</svg>
