<?xml version="1.0" encoding="UTF-8" standalone="no"?>
<!DOCTYPE svg PUBLIC "-//W3C//DTD SVG 1.1//EN"
 "http://www.w3.org/Graphics/SVG/1.1/DTD/svg11.dtd">
<!-- Generated by graphviz version 2.30.1 (20130303.0817)
 -->
<!-- Title: server::uiServer::sgnSendEvents Pages: 1 -->
<svg width="608pt" height="38pt"
 viewBox="0.00 0.00 608.00 38.00" xmlns="http://www.w3.org/2000/svg" xmlns:xlink="http://www.w3.org/1999/xlink">
<g id="graph0" class="graph" transform="scale(1 1) rotate(0) translate(4 34)">
<title>server::uiServer::sgnSendEvents</title>
<polygon fill="white" stroke="white" points="-4,5 -4,-34 605,-34 605,5 -4,5"/>
<!-- Node1 -->
<g id="node1" class="node"><title>Node1</title>
<polygon fill="#bfbfbf" stroke="black" points="0.5,-0 0.5,-30 127.5,-30 127.5,-0 0.5,-0"/>
<text text-anchor="start" x="8.5" y="-18" font-family="Helvetica,sans-Serif" font-size="10.00">server::uiServer::sgnSend</text>
<text text-anchor="middle" x="64" y="-7" font-family="Helvetica,sans-Serif" font-size="10.00">Events</text>
</g>
<!-- Node2 -->
<g id="node2" class="node"><title>Node2</title>
<g id="a_node2"><a xlink:href="../../df/dd2/classserver_1_1ui_server.html#acab729e9722d3a3c432c65248757c2f1" target="_top" xlink:title="Triggered when a client wants all the events.">
<polygon fill="white" stroke="black" points="164,-0 164,-30 286,-30 286,-0 164,-0"/>
<text text-anchor="start" x="172" y="-18" font-family="Helvetica,sans-Serif" font-size="10.00">server::uiServer::doSend</text>
<text text-anchor="middle" x="225" y="-7" font-family="Helvetica,sans-Serif" font-size="10.00">Events</text>
</a>
</g>
</g>
<!-- Node1&#45;&gt;Node2 -->
<g id="edge1" class="edge"><title>Node1&#45;&gt;Node2</title>
<path fill="none" stroke="midnightblue" d="M137.973,-15C146.667,-15 155.465,-15 163.949,-15"/>
<polygon fill="midnightblue" stroke="midnightblue" points="137.841,-11.5001 127.841,-15 137.841,-18.5001 137.841,-11.5001"/>
</g>
<!-- Node3 -->
<g id="node3" class="node"><title>Node3</title>
<g id="a_node3"><a xlink:href="../../df/dd2/classserver_1_1ui_server.html#af8300a694de27369a5f5d1a95ed1cc37" target="_top" xlink:title="Triggered when a client connects.">
<polygon fill="white" stroke="black" points="322,-0 322,-30 440,-30 440,-0 322,-0"/>
<text text-anchor="start" x="330" y="-18" font-family="Helvetica,sans-Serif" font-size="10.00">server::uiServer::accept</text>
<text text-anchor="middle" x="381" y="-7" font-family="Helvetica,sans-Serif" font-size="10.00">Connection</text>
</a>
</g>
</g>
<!-- Node2&#45;&gt;Node3 -->
<g id="edge2" class="edge"><title>Node2&#45;&gt;Node3</title>
<path fill="none" stroke="midnightblue" d="M296.613,-15C305.03,-15 313.551,-15 321.767,-15"/>
<polygon fill="midnightblue" stroke="midnightblue" points="296.423,-11.5001 286.423,-15 296.423,-18.5001 296.423,-11.5001"/>
</g>
<!-- Node4 -->
<g id="node4" class="node"><title>Node4</title>
<g id="a_node4"><a xlink:href="../../df/dd2/classserver_1_1ui_server.html#a55e34b95359692ea9002408075e18b1a" target="_top" xlink:title="uiServer constructor">
<polygon fill="white" stroke="black" points="476.5,-5.5 476.5,-24.5 599.5,-24.5 599.5,-5.5 476.5,-5.5"/>
<text text-anchor="middle" x="538" y="-12.5" font-family="Helvetica,sans-Serif" font-size="10.00">server::uiServer::uiServer</text>
</a>
</g>
</g>
<!-- Node3&#45;&gt;Node4 -->
<g id="edge3" class="edge"><title>Node3&#45;&gt;Node4</title>
<path fill="none" stroke="midnightblue" d="M450.286,-15C458.998,-15 467.868,-15 476.447,-15"/>
<polygon fill="midnightblue" stroke="midnightblue" points="450.157,-11.5001 440.157,-15 450.157,-18.5001 450.157,-11.5001"/>
</g>
</g>
</svg>
