<?xml version="1.0" encoding="UTF-8" standalone="no"?>
<!DOCTYPE svg PUBLIC "-//W3C//DTD SVG 1.1//EN"
 "http://www.w3.org/Graphics/SVG/1.1/DTD/svg11.dtd">
<!-- Generated by graphviz version 2.30.1 (20130303.0817)
 -->
<!-- Title: server::uiServer::send Pages: 1 -->
<!--zoomable 503 -->
<svg id="main" version="1.1" xmlns="http://www.w3.org/2000/svg" xmlns:xlink="http://www.w3.org/1999/xlink" xml:space="preserve" onload="init(evt)">
        <defs>
                <circle id="rim" cx="0" cy="0" r="7"/>
                <circle id="rim2" cx="0" cy="0" r="3.5"/>
                <g id="zoomPlus">
                        <use xlink:href="#rim" fill="#404040">
                                <set attributeName="fill" to="#808080" begin="zoomplus.mouseover" end="zoomplus.mouseout"/>
                        </use>
                        <path d="M-4,0h8M0,-4v8" fill="none" stroke="white" stroke-width="1.5" pointer-events="none"/>
                </g>
                <g id="zoomMin">
                        <use xlink:href="#rim" fill="#404040">
                                <set attributeName="fill" to="#808080" begin="zoomminus.mouseover" end="zoomminus.mouseout"/>
                        </use>
                        <path d="M-4,0h8" fill="none" stroke="white" stroke-width="1.5" pointer-events="none"/>
                </g>
                <g id="dirArrow">
                        <path fill="none" stroke="white" stroke-width="1.5" d="M0,-3.0v7 M-2.5,-0.5L0,-3.0L2.5,-0.5"/>
                </g>
               <g id="resetDef">
                       <use xlink:href="#rim2" fill="#404040">
                               <set attributeName="fill" to="#808080" begin="reset.mouseover" end="reset.mouseout"/>
                       </use>
               </g>
        </defs>

<script type="text/javascript">
var viewWidth = 924;
var viewHeight = 503;
var sectionId = 'dynsection-15';
</script>
<script xlink:href="../../svgpan.js"/>
<svg id="graph" class="graph">
<g id="viewport">
<title>server::uiServer::send</title>
<polygon fill="white" stroke="white" points="-4,5 -4,-498.572 921,-498.572 921,5 -4,5"/>
<!-- Node1 -->
<g id="node1" class="node"><title>Node1</title>
<polygon fill="#bfbfbf" stroke="black" points="0,-309.5 0,-328.5 110,-328.5 110,-309.5 0,-309.5"/>
<text text-anchor="middle" x="55" y="-316.5" font-family="Helvetica,sans-Serif" font-size="10.00">server::uiServer::send</text>
</g>
<!-- Node2 -->
<g id="node2" class="node"><title>Node2</title>
<g id="a_node2"><a xlink:href="../../d1/d48/classserver_1_1main_app.html#a0970ee01d48b04ebc1390ffb8edecfc0" target="_top" xlink:title="Triggered when a chat has been received.">
<polygon fill="white" stroke="black" points="345,-467.5 345,-486.5 495,-486.5 495,-467.5 345,-467.5"/>
<text text-anchor="middle" x="420" y="-474.5" font-family="Helvetica,sans-Serif" font-size="10.00">server::mainApp::chatReceived</text>
</a>
</g>
</g>
<!-- Node1&#45;&gt;Node2 -->
<g id="edge1" class="edge"><title>Node1&#45;&gt;Node2</title>
<path fill="none" stroke="midnightblue" d="M62.5958,-338.038C74.189,-368.29 101.32,-426.61 146,-453 208.371,-489.84 293.115,-491.349 351.559,-486.522"/>
<polygon fill="midnightblue" stroke="midnightblue" points="65.8668,-336.791 59.1399,-328.606 59.2941,-339.2 65.8668,-336.791"/>
</g>
<!-- Node5 -->
<g id="node5" class="node"><title>Node5</title>
<g id="a_node5"><a xlink:href="../../d1/d48/classserver_1_1main_app.html#a92448c1219ad89999c983b04adaa4236" target="_top" xlink:title="Triggered when a user joins trough a JOIN message.">
<polygon fill="white" stroke="black" points="548.5,-429.5 548.5,-448.5 687.5,-448.5 687.5,-429.5 548.5,-429.5"/>
<text text-anchor="middle" x="618" y="-436.5" font-family="Helvetica,sans-Serif" font-size="10.00">server::mainApp::userOnline</text>
</a>
</g>
</g>
<!-- Node1&#45;&gt;Node5 -->
<g id="edge4" class="edge"><title>Node1&#45;&gt;Node5</title>
<path fill="none" stroke="midnightblue" d="M68.6273,-336.655C84.234,-356.903 112.83,-389.205 146,-404 278.733,-463.205 453.456,-457.204 548.392,-447.909"/>
<polygon fill="midnightblue" stroke="midnightblue" points="71.3663,-334.473 62.5794,-328.553 65.7569,-338.66 71.3663,-334.473"/>
</g>
<!-- Node6 -->
<g id="node6" class="node"><title>Node6</title>
<g id="a_node6"><a xlink:href="../../d1/d48/classserver_1_1main_app.html#aae86b15c001a235de78a90334e697b5f" target="_top" xlink:title="Triggered when a user leaves trough a PART message.">
<polygon fill="white" stroke="black" points="351,-391.5 351,-410.5 489,-410.5 489,-391.5 351,-391.5"/>
<text text-anchor="middle" x="420" y="-398.5" font-family="Helvetica,sans-Serif" font-size="10.00">server::mainApp::userOffline</text>
</a>
</g>
</g>
<!-- Node1&#45;&gt;Node6 -->
<g id="edge6" class="edge"><title>Node1&#45;&gt;Node6</title>
<path fill="none" stroke="midnightblue" d="M75.1114,-335.289C92.4028,-349.006 119.195,-367.816 146,-377 213.065,-399.977 294.544,-404.338 350.939,-403.969"/>
<polygon fill="midnightblue" stroke="midnightblue" points="76.9461,-332.269 66.9854,-328.658 72.5204,-337.692 76.9461,-332.269"/>
</g>
<!-- Node7 -->
<g id="node7" class="node"><title>Node7</title>
<g id="a_node7"><a xlink:href="../../d1/d48/classserver_1_1main_app.html#ae15deb9260c486854af7fac7b063fdf5" target="_top" xlink:title="Triggered when a user changes his nickname (nick|Status)">
<polygon fill="white" stroke="black" points="536,-353.5 536,-372.5 700,-372.5 700,-353.5 536,-353.5"/>
<text text-anchor="middle" x="618" y="-360.5" font-family="Helvetica,sans-Serif" font-size="10.00">server::mainApp::userChangeNick</text>
</a>
</g>
</g>
<!-- Node1&#45;&gt;Node7 -->
<g id="edge8" class="edge"><title>Node1&#45;&gt;Node7</title>
<path fill="none" stroke="midnightblue" d="M95.1144,-331.421C110.775,-335.869 129.084,-340.417 146,-343 281.519,-363.692 441.336,-365.869 535.638,-364.901"/>
<polygon fill="midnightblue" stroke="midnightblue" points="95.8277,-327.983 85.2472,-328.535 93.8622,-334.702 95.8277,-327.983"/>
</g>
<!-- Node8 -->
<g id="node8" class="node"><title>Node8</title>
<g id="a_node8"><a xlink:href="../../d1/d48/classserver_1_1main_app.html#aaa3dd74b510e2d797f21293a622a4f7d" target="_top" xlink:title="Triggered when a user changes his status (nick|Status)">
<polygon fill="white" stroke="black" points="153,-304 153,-334 297,-334 297,-304 153,-304"/>
<text text-anchor="start" x="161" y="-322" font-family="Helvetica,sans-Serif" font-size="10.00">server::mainApp::userChange</text>
<text text-anchor="middle" x="225" y="-311" font-family="Helvetica,sans-Serif" font-size="10.00">Status</text>
</a>
</g>
</g>
<!-- Node1&#45;&gt;Node8 -->
<g id="edge10" class="edge"><title>Node1&#45;&gt;Node8</title>
<path fill="none" stroke="midnightblue" d="M120.165,-319C130.854,-319 141.998,-319 152.848,-319"/>
<polygon fill="midnightblue" stroke="midnightblue" points="120.081,-315.5 110.081,-319 120.081,-322.5 120.081,-315.5"/>
</g>
<!-- Node9 -->
<g id="node9" class="node"><title>Node9</title>
<g id="a_node9"><a xlink:href="../../d1/d48/classserver_1_1main_app.html#aea819e4b8f297de7f1e3fc2f8513b0a4" target="_top" xlink:title="Triggered when a UI client wants all the users.">
<polygon fill="white" stroke="black" points="150.5,-265.5 150.5,-284.5 299.5,-284.5 299.5,-265.5 150.5,-265.5"/>
<text text-anchor="middle" x="225" y="-272.5" font-family="Helvetica,sans-Serif" font-size="10.00">server::mainApp::doUserQuery</text>
</a>
</g>
</g>
<!-- Node1&#45;&gt;Node9 -->
<g id="edge12" class="edge"><title>Node1&#45;&gt;Node9</title>
<path fill="none" stroke="midnightblue" d="M101.514,-306.772C115.751,-302.971 131.522,-298.786 146,-295 159.119,-291.569 173.495,-287.867 186.291,-284.591"/>
<polygon fill="midnightblue" stroke="midnightblue" points="100.215,-303.496 91.4582,-309.46 102.023,-310.259 100.215,-303.496"/>
</g>
<!-- Node10 -->
<g id="node10" class="node"><title>Node10</title>
<g id="a_node10"><a xlink:href="../../d1/d48/classserver_1_1main_app.html#aba9c03c1c353a57f43404bb149bee50b" target="_top" xlink:title="Triggered when a UI client wants all the events known to the server.">
<polygon fill="white" stroke="black" points="147.5,-227.5 147.5,-246.5 302.5,-246.5 302.5,-227.5 147.5,-227.5"/>
<text text-anchor="middle" x="225" y="-234.5" font-family="Helvetica,sans-Serif" font-size="10.00">server::mainApp::doSendEvents</text>
</a>
</g>
</g>
<!-- Node1&#45;&gt;Node10 -->
<g id="edge14" class="edge"><title>Node1&#45;&gt;Node10</title>
<path fill="none" stroke="midnightblue" d="M74.5004,-302.922C91.8635,-288.627 119.119,-268.16 146,-256 154.381,-252.209 163.625,-249.109 172.73,-246.597"/>
<polygon fill="midnightblue" stroke="midnightblue" points="72.2196,-300.267 66.8163,-309.381 76.7235,-305.626 72.2196,-300.267"/>
</g>
<!-- Node11 -->
<g id="node11" class="node"><title>Node11</title>
<g id="a_node11"><a xlink:href="../../d1/d48/classserver_1_1main_app.html#a7263ca5b3630b0a2774f556b96c333c8" target="_top" xlink:title="For logging to the clients.">
<polygon fill="white" stroke="black" points="146,-144.5 146,-163.5 304,-163.5 304,-144.5 146,-144.5"/>
<text text-anchor="middle" x="225" y="-151.5" font-family="Helvetica,sans-Serif" font-size="10.00">server::mainApp::serverMessage</text>
</a>
</g>
</g>
<!-- Node1&#45;&gt;Node11 -->
<g id="edge16" class="edge"><title>Node1&#45;&gt;Node11</title>
<path fill="none" stroke="midnightblue" d="M70.2358,-301.412C87.3609,-280.648 117.389,-245.468 146,-218 167.607,-197.256 195.151,-175.669 211.059,-163.621"/>
<polygon fill="midnightblue" stroke="midnightblue" points="67.353,-299.408 63.7282,-309.364 72.7701,-303.842 67.353,-299.408"/>
</g>
<!-- Node16 -->
<g id="node16" class="node"><title>Node16</title>
<g id="a_node16"><a xlink:href="../../df/dd2/classserver_1_1ui_server.html#a1d221672f6efb29189e6ce398f7b07e3" target="_top" xlink:title="Triggered when a client wants to change something about our own user.">
<polygon fill="white" stroke="black" points="165,-38 165,-68 285,-68 285,-38 165,-38"/>
<text text-anchor="start" x="173" y="-56" font-family="Helvetica,sans-Serif" font-size="10.00">server::uiServer::change</text>
<text text-anchor="middle" x="225" y="-45" font-family="Helvetica,sans-Serif" font-size="10.00">OwnUser</text>
</a>
</g>
</g>
<!-- Node1&#45;&gt;Node16 -->
<g id="edge27" class="edge"><title>Node1&#45;&gt;Node16</title>
<path fill="none" stroke="midnightblue" d="M63.1036,-299.848C76.4315,-265.202 107.36,-190.562 146,-135 163.949,-109.191 189.93,-83.6119 206.892,-68.0571"/>
<polygon fill="midnightblue" stroke="midnightblue" points="59.8113,-298.659 59.5434,-309.251 66.3577,-301.138 59.8113,-298.659"/>
</g>
<!-- Node3 -->
<g id="node3" class="node"><title>Node3</title>
<g id="a_node3"><a xlink:href="../../d1/d48/classserver_1_1main_app.html#af331bc3bf60e745f3ddc95ab3abe5188" target="_top" xlink:title="server::mainApp::run">
<polygon fill="white" stroke="black" points="736,-277.5 736,-296.5 842,-296.5 842,-277.5 736,-277.5"/>
<text text-anchor="middle" x="789" y="-284.5" font-family="Helvetica,sans-Serif" font-size="10.00">server::mainApp::run</text>
</a>
</g>
</g>
<!-- Node2&#45;&gt;Node3 -->
<g id="edge2" class="edge"><title>Node2&#45;&gt;Node3</title>
<path fill="none" stroke="midnightblue" d="M475.858,-488.12C536.012,-497.162 632.896,-502.133 700,-458 759.418,-418.922 780.881,-326.493 786.415,-296.545"/>
<polygon fill="midnightblue" stroke="midnightblue" points="476.225,-484.635 465.799,-486.519 475.125,-491.548 476.225,-484.635"/>
</g>
<!-- Node4 -->
<g id="node4" class="node"><title>Node4</title>
<g id="a_node4"><a xlink:href="../../dc/d17/custom_irc_server_2main_8cpp.html#a0ddf1224851353fc92bfbff6f499fa97" target="_top" xlink:title="main">
<polygon fill="white" stroke="black" points="878,-277.5 878,-296.5 916,-296.5 916,-277.5 878,-277.5"/>
<text text-anchor="middle" x="897" y="-284.5" font-family="Helvetica,sans-Serif" font-size="10.00">main</text>
</a>
</g>
</g>
<!-- Node3&#45;&gt;Node4 -->
<g id="edge3" class="edge"><title>Node3&#45;&gt;Node4</title>
<path fill="none" stroke="midnightblue" d="M852.208,-287C861.464,-287 870.334,-287 877.64,-287"/>
<polygon fill="midnightblue" stroke="midnightblue" points="852.068,-283.5 842.068,-287 852.068,-290.5 852.068,-283.5"/>
</g>
<!-- Node5&#45;&gt;Node3 -->
<g id="edge5" class="edge"><title>Node5&#45;&gt;Node3</title>
<path fill="none" stroke="midnightblue" d="M680.334,-425.795C687.311,-422.879 694.045,-419.326 700,-415 744.508,-382.666 773.962,-320.583 784.092,-296.696"/>
<polygon fill="midnightblue" stroke="midnightblue" points="678.86,-422.609 670.718,-429.389 681.31,-429.166 678.86,-422.609"/>
</g>
<!-- Node6&#45;&gt;Node3 -->
<g id="edge7" class="edge"><title>Node6&#45;&gt;Node3</title>
<path fill="none" stroke="midnightblue" d="M499.288,-410.648C557.472,-414.362 637.292,-411.968 700,-382 739.96,-362.903 770.531,-316.94 782.5,-296.769"/>
<polygon fill="midnightblue" stroke="midnightblue" points="499.273,-407.139 489.049,-409.918 498.775,-414.121 499.273,-407.139"/>
</g>
<!-- Node7&#45;&gt;Node3 -->
<g id="edge9" class="edge"><title>Node7&#45;&gt;Node3</title>
<path fill="none" stroke="midnightblue" d="M668.08,-350.566C678.778,-347.276 689.911,-343.395 700,-339 727.657,-326.95 757.388,-307.973 774.243,-296.583"/>
<polygon fill="midnightblue" stroke="midnightblue" points="667.018,-347.23 658.419,-353.419 669.001,-353.943 667.018,-347.23"/>
</g>
<!-- Node8&#45;&gt;Node3 -->
<g id="edge11" class="edge"><title>Node8&#45;&gt;Node3</title>
<path fill="none" stroke="midnightblue" d="M307.245,-317.378C401.75,-315.033 562.4,-309.629 700,-298 711.66,-297.015 724.153,-295.645 735.956,-294.206"/>
<polygon fill="midnightblue" stroke="midnightblue" points="307.095,-313.88 297.183,-317.622 307.265,-320.878 307.095,-313.88"/>
</g>
<!-- Node9&#45;&gt;Node3 -->
<g id="edge13" class="edge"><title>Node9&#45;&gt;Node3</title>
<path fill="none" stroke="midnightblue" d="M309.812,-276.79C427.544,-279.303 638.387,-283.805 735.903,-285.888"/>
<polygon fill="midnightblue" stroke="midnightblue" points="309.833,-273.289 299.76,-276.575 309.683,-280.288 309.833,-273.289"/>
</g>
<!-- Node10&#45;&gt;Node3 -->
<g id="edge15" class="edge"><title>Node10&#45;&gt;Node3</title>
<path fill="none" stroke="midnightblue" d="M312.939,-244.11C408.032,-251.982 564.919,-265.251 700,-278 711.62,-279.097 724.097,-280.335 735.897,-281.535"/>
<polygon fill="midnightblue" stroke="midnightblue" points="313.049,-240.607 302.794,-243.271 312.472,-247.583 313.049,-240.607"/>
</g>
<!-- Node11&#45;&gt;Node3 -->
<g id="edge17" class="edge"><title>Node11&#45;&gt;Node3</title>
<path fill="none" stroke="midnightblue" d="M254.256,-139.887C332.208,-103.145 554.155,-13.5195 700,-105 763.627,-144.909 782.371,-245.275 786.809,-277.134"/>
<polygon fill="midnightblue" stroke="midnightblue" points="252.568,-136.815 245.062,-144.293 255.593,-143.128 252.568,-136.815"/>
</g>
<!-- Node12 -->
<g id="node12" class="node"><title>Node12</title>
<g id="a_node12"><a xlink:href="../../d1/d48/classserver_1_1main_app.html#a931aedd34bb38252acfc8880f9716fab" target="_top" xlink:title="Triggered when the IRC client cannot connect.">
<polygon fill="white" stroke="black" points="548.5,-114 548.5,-144 687.5,-144 687.5,-114 548.5,-114"/>
<text text-anchor="start" x="556.5" y="-132" font-family="Helvetica,sans-Serif" font-size="10.00">server::mainApp::ircConnect</text>
<text text-anchor="middle" x="618" y="-121" font-family="Helvetica,sans-Serif" font-size="10.00">TimeOut</text>
</a>
</g>
</g>
<!-- Node11&#45;&gt;Node12 -->
<g id="edge18" class="edge"><title>Node11&#45;&gt;Node12</title>
<path fill="none" stroke="midnightblue" d="M257.131,-140.593C279.668,-131.643 311.119,-120.687 340,-116 410.332,-104.587 491.924,-110.715 548.249,-117.917"/>
<polygon fill="midnightblue" stroke="midnightblue" points="255.694,-137.399 247.748,-144.408 258.33,-143.884 255.694,-137.399"/>
</g>
<!-- Node13 -->
<g id="node13" class="node"><title>Node13</title>
<g id="a_node13"><a xlink:href="../../d1/d48/classserver_1_1main_app.html#a6e6e952e3048cfeefcdfeea7bbb5b83e" target="_top" xlink:title="Triggered when the IRC client has connected.">
<polygon fill="white" stroke="black" points="345.5,-201.5 345.5,-220.5 494.5,-220.5 494.5,-201.5 345.5,-201.5"/>
<text text-anchor="middle" x="420" y="-208.5" font-family="Helvetica,sans-Serif" font-size="10.00">server::mainApp::ircConnected</text>
</a>
</g>
</g>
<!-- Node11&#45;&gt;Node13 -->
<g id="edge20" class="edge"><title>Node11&#45;&gt;Node13</title>
<path fill="none" stroke="midnightblue" d="M267.935,-166.385C303.568,-176.909 353.987,-191.799 386.591,-201.428"/>
<polygon fill="midnightblue" stroke="midnightblue" points="268.886,-163.016 258.304,-163.541 266.903,-169.73 268.886,-163.016"/>
</g>
<!-- Node14 -->
<g id="node14" class="node"><title>Node14</title>
<g id="a_node14"><a xlink:href="../../d1/d48/classserver_1_1main_app.html#af6e8c9d1f06514b33e5f88f9e66884be" target="_top" xlink:title="Triggered when the IRC client has disconnected.">
<polygon fill="white" stroke="black" points="537,-163.5 537,-182.5 699,-182.5 699,-163.5 537,-163.5"/>
<text text-anchor="middle" x="618" y="-170.5" font-family="Helvetica,sans-Serif" font-size="10.00">server::mainApp::ircDisconnected</text>
</a>
</g>
</g>
<!-- Node11&#45;&gt;Node14 -->
<g id="edge22" class="edge"><title>Node11&#45;&gt;Node14</title>
<path fill="none" stroke="midnightblue" d="M314.282,-158.29C381.13,-161.538 472.193,-165.963 536.937,-169.109"/>
<polygon fill="midnightblue" stroke="midnightblue" points="314.343,-154.789 304.185,-157.799 314.003,-161.781 314.343,-154.789"/>
</g>
<!-- Node15 -->
<g id="node15" class="node"><title>Node15</title>
<g id="a_node15"><a xlink:href="../../d1/d48/classserver_1_1main_app.html#aa9d4c2e1dc5216901c4f8743838d4561" target="_top" xlink:title="Emitted when the reconnect timer reaches 0.">
<polygon fill="white" stroke="black" points="340,-125.5 340,-144.5 500,-144.5 500,-125.5 340,-125.5"/>
<text text-anchor="middle" x="420" y="-132.5" font-family="Helvetica,sans-Serif" font-size="10.00">server::mainApp::doIrcReconnect</text>
</a>
</g>
</g>
<!-- Node11&#45;&gt;Node15 -->
<g id="edge24" class="edge"><title>Node11&#45;&gt;Node15</title>
<path fill="none" stroke="midnightblue" d="M314.447,-145.293C322.877,-144.463 331.39,-143.625 339.725,-142.804"/>
<polygon fill="midnightblue" stroke="midnightblue" points="313.831,-141.836 304.222,-146.299 314.517,-148.803 313.831,-141.836"/>
</g>
<!-- Node12&#45;&gt;Node3 -->
<g id="edge19" class="edge"><title>Node12&#45;&gt;Node3</title>
<path fill="none" stroke="midnightblue" d="M692.079,-148.768C694.836,-150.379 697.489,-152.12 700,-154 745.43,-188.024 774.531,-252.843 784.323,-277.319"/>
<polygon fill="midnightblue" stroke="midnightblue" points="693.469,-145.547 682.981,-144.052 690.248,-151.761 693.469,-145.547"/>
</g>
<!-- Node13&#45;&gt;Node3 -->
<g id="edge21" class="edge"><title>Node13&#45;&gt;Node3</title>
<path fill="none" stroke="midnightblue" d="M505.013,-208.579C561.409,-209.272 636.686,-214.736 700,-235 729.408,-244.412 759.493,-265.053 775.749,-277.309"/>
<polygon fill="midnightblue" stroke="midnightblue" points="504.735,-205.077 494.709,-208.503 504.683,-212.077 504.735,-205.077"/>
</g>
<!-- Node14&#45;&gt;Node3 -->
<g id="edge23" class="edge"><title>Node14&#45;&gt;Node3</title>
<path fill="none" stroke="midnightblue" d="M675.663,-185.74C684.128,-188.779 692.516,-192.49 700,-197 736.124,-218.769 767.797,-258.868 781.198,-277.286"/>
<polygon fill="midnightblue" stroke="midnightblue" points="676.709,-182.4 666.116,-182.587 674.514,-189.046 676.709,-182.4"/>
</g>
<!-- Node15&#45;&gt;Node12 -->
<g id="edge25" class="edge"><title>Node15&#45;&gt;Node12</title>
<path fill="none" stroke="midnightblue" d="M510.316,-132.266C523.059,-131.876 535.999,-131.48 548.266,-131.104"/>
<polygon fill="midnightblue" stroke="midnightblue" points="510.044,-128.772 500.156,-132.577 510.258,-135.769 510.044,-128.772"/>
</g>
<!-- Node15&#45;&gt;Node14 -->
<g id="edge26" class="edge"><title>Node15&#45;&gt;Node14</title>
<path fill="none" stroke="midnightblue" d="M480.261,-146.489C508.227,-151.911 541.209,-158.306 567.774,-163.456"/>
<polygon fill="midnightblue" stroke="midnightblue" points="480.689,-143.007 470.206,-144.54 479.357,-149.879 480.689,-143.007"/>
</g>
<!-- Node17 -->
<g id="node17" class="node"><title>Node17</title>
<g id="a_node17"><a xlink:href="../../df/dd2/classserver_1_1ui_server.html#af8300a694de27369a5f5d1a95ed1cc37" target="_top" xlink:title="Triggered when a client connects.">
<polygon fill="white" stroke="black" points="361,-0 361,-30 479,-30 479,-0 361,-0"/>
<text text-anchor="start" x="369" y="-18" font-family="Helvetica,sans-Serif" font-size="10.00">server::uiServer::accept</text>
<text text-anchor="middle" x="420" y="-7" font-family="Helvetica,sans-Serif" font-size="10.00">Connection</text>
</a>
</g>
</g>
<!-- Node16&#45;&gt;Node17 -->
<g id="edge28" class="edge"><title>Node16&#45;&gt;Node17</title>
<path fill="none" stroke="midnightblue" d="M295.266,-39.3621C316.765,-35.1291 340.229,-30.5092 360.889,-26.4416"/>
<polygon fill="midnightblue" stroke="midnightblue" points="294.353,-35.9745 285.218,-41.3405 295.706,-42.8427 294.353,-35.9745"/>
</g>
<!-- Node18 -->
<g id="node18" class="node"><title>Node18</title>
<g id="a_node18"><a xlink:href="../../df/dd2/classserver_1_1ui_server.html#a55e34b95359692ea9002408075e18b1a" target="_top" xlink:title="uiServer constructor">
<polygon fill="white" stroke="black" points="556.5,-5.5 556.5,-24.5 679.5,-24.5 679.5,-5.5 556.5,-5.5"/>
<text text-anchor="middle" x="618" y="-12.5" font-family="Helvetica,sans-Serif" font-size="10.00">server::uiServer::uiServer</text>
</a>
</g>
</g>
<!-- Node17&#45;&gt;Node18 -->
<g id="edge29" class="edge"><title>Node17&#45;&gt;Node18</title>
<path fill="none" stroke="midnightblue" d="M489.215,-15C511.081,-15 535.133,-15 556.414,-15"/>
<polygon fill="midnightblue" stroke="midnightblue" points="489.011,-11.5001 479.011,-15 489.011,-18.5001 489.011,-11.5001"/>
</g>
</g>
</svg>
        <g id="navigator" transform="translate(0 0)" fill="#404254">
                <rect fill="#f2f5e9" fill-opacity="0.5" stroke="#606060" stroke-width=".5" x="0" y="0" width="60" height="60"/>
                <use id="zoomplus" xlink:href="#zoomPlus" x="17" y="9" onmousedown="handleZoom(evt,'in')"/>
                <use id="zoomminus" xlink:href="#zoomMin" x="42" y="9" onmousedown="handleZoom(evt,'out')"/>
                <use id="reset" xlink:href="#resetDef" x="30" y="36" onmousedown="handleReset()"/>
                <g id="arrowUp" xlink:href="#dirArrow" transform="translate(30 24)" onmousedown="handlePan(0,-1)">
                  <use xlink:href="#rim" fill="#404040">
                        <set attributeName="fill" to="#808080" begin="arrowUp.mouseover" end="arrowUp.mouseout"/>
                  </use>
                  <path fill="none" stroke="white" stroke-width="1.5" d="M0,-3.0v7 M-2.5,-0.5L0,-3.0L2.5,-0.5"/>
                </g>
                <g id="arrowRight" xlink:href="#dirArrow" transform="rotate(90) translate(36 -43)" onmousedown="handlePan(1,0)">
                  <use xlink:href="#rim" fill="#404040">
                        <set attributeName="fill" to="#808080" begin="arrowRight.mouseover" end="arrowRight.mouseout"/>
                  </use>
                  <path fill="none" stroke="white" stroke-width="1.5" d="M0,-3.0v7 M-2.5,-0.5L0,-3.0L2.5,-0.5"/>
                </g>
                <g id="arrowDown" xlink:href="#dirArrow" transform="rotate(180) translate(-30 -48)" onmousedown="handlePan(0,1)">
                  <use xlink:href="#rim" fill="#404040">
                        <set attributeName="fill" to="#808080" begin="arrowDown.mouseover" end="arrowDown.mouseout"/>
                  </use>
                  <path fill="none" stroke="white" stroke-width="1.5" d="M0,-3.0v7 M-2.5,-0.5L0,-3.0L2.5,-0.5"/>
                </g>
                <g id="arrowLeft" xlink:href="#dirArrow" transform="rotate(270) translate(-36 17)" onmousedown="handlePan(-1,0)">
                  <use xlink:href="#rim" fill="#404040">
                        <set attributeName="fill" to="#808080" begin="arrowLeft.mouseover" end="arrowLeft.mouseout"/>
                  </use>
                  <path fill="none" stroke="white" stroke-width="1.5" d="M0,-3.0v7 M-2.5,-0.5L0,-3.0L2.5,-0.5"/>
                </g>
        </g>
        <svg viewBox="0 0 15 15" width="100%" height="30px" preserveAspectRatio="xMaxYMin meet">
         <g id="arrow_out" transform="scale(0.3 0.3)">
          <a xlink:href="classserver_1_1ui_server_ab9e9ed944311c42f019c645c3e0539cf_icgraph_org.svg" target="_base">
           <rect id="button" ry="5" rx="5" y="6" x="6" height="38" width="38"
                fill="#f2f5e9" fill-opacity="0.5" stroke="#606060" stroke-width="1.0"/>
           <path id="arrow"
             d="M 11.500037,31.436501 C 11.940474,20.09759 22.043105,11.32322 32.158766,21.979434 L 37.068811,17.246167 C 37.068811,17.246167 37.088388,32 37.088388,32 L 22.160133,31.978069 C 22.160133,31.978069 26.997745,27.140456 26.997745,27.140456 C 18.528582,18.264221 13.291696,25.230495 11.500037,31.436501 z"
             style="fill:#404040;"/>
          </a>
         </g>
        </svg>
</svg>
