<?xml version="1.0" encoding="UTF-8" standalone="no"?>
<!DOCTYPE svg PUBLIC "-//W3C//DTD SVG 1.1//EN"
 "http://www.w3.org/Graphics/SVG/1.1/DTD/svg11.dtd">
<!-- Generated by graphviz version 2.30.1 (20130303.0817)
 -->
<!-- Title: server::uiServer::sgnChangeOwnUserStatus Pages: 1 -->
<svg width="616pt" height="38pt"
 viewBox="0.00 0.00 616.00 38.00" xmlns="http://www.w3.org/2000/svg" xmlns:xlink="http://www.w3.org/1999/xlink">
<g id="graph0" class="graph" transform="scale(1 1) rotate(0) translate(4 34)">
<title>server::uiServer::sgnChangeOwnUserStatus</title>
<polygon fill="white" stroke="white" points="-4,5 -4,-34 613,-34 613,5 -4,5"/>
<!-- Node1 -->
<g id="node1" class="node"><title>Node1</title>
<polygon fill="#bfbfbf" stroke="black" points="0.5,-0 0.5,-30 137.5,-30 137.5,-0 0.5,-0"/>
<text text-anchor="start" x="8.5" y="-18" font-family="Helvetica,sans-Serif" font-size="10.00">server::uiServer::sgnChange</text>
<text text-anchor="middle" x="69" y="-7" font-family="Helvetica,sans-Serif" font-size="10.00">OwnUserStatus</text>
</g>
<!-- Node2 -->
<g id="node2" class="node"><title>Node2</title>
<g id="a_node2"><a xlink:href="../../df/dd2/classserver_1_1ui_server.html#a1d221672f6efb29189e6ce398f7b07e3" target="_top" xlink:title="Triggered when a client wants to change something about our own user.">
<polygon fill="white" stroke="black" points="174,-0 174,-30 294,-30 294,-0 174,-0"/>
<text text-anchor="start" x="182" y="-18" font-family="Helvetica,sans-Serif" font-size="10.00">server::uiServer::change</text>
<text text-anchor="middle" x="234" y="-7" font-family="Helvetica,sans-Serif" font-size="10.00">OwnUser</text>
</a>
</g>
</g>
<!-- Node1&#45;&gt;Node2 -->
<g id="edge1" class="edge"><title>Node1&#45;&gt;Node2</title>
<path fill="none" stroke="midnightblue" d="M147.895,-15C156.612,-15 165.384,-15 173.812,-15"/>
<polygon fill="midnightblue" stroke="midnightblue" points="147.711,-11.5001 137.711,-15 147.711,-18.5001 147.711,-11.5001"/>
</g>
<!-- Node3 -->
<g id="node3" class="node"><title>Node3</title>
<g id="a_node3"><a xlink:href="../../df/dd2/classserver_1_1ui_server.html#af8300a694de27369a5f5d1a95ed1cc37" target="_top" xlink:title="Triggered when a client connects.">
<polygon fill="white" stroke="black" points="330,-0 330,-30 448,-30 448,-0 330,-0"/>
<text text-anchor="start" x="338" y="-18" font-family="Helvetica,sans-Serif" font-size="10.00">server::uiServer::accept</text>
<text text-anchor="middle" x="389" y="-7" font-family="Helvetica,sans-Serif" font-size="10.00">Connection</text>
</a>
</g>
</g>
<!-- Node2&#45;&gt;Node3 -->
<g id="edge2" class="edge"><title>Node2&#45;&gt;Node3</title>
<path fill="none" stroke="midnightblue" d="M304.405,-15C312.879,-15 321.471,-15 329.759,-15"/>
<polygon fill="midnightblue" stroke="midnightblue" points="304.154,-11.5001 294.154,-15 304.154,-18.5001 304.154,-11.5001"/>
</g>
<!-- Node4 -->
<g id="node4" class="node"><title>Node4</title>
<g id="a_node4"><a xlink:href="../../df/dd2/classserver_1_1ui_server.html#a55e34b95359692ea9002408075e18b1a" target="_top" xlink:title="uiServer constructor">
<polygon fill="white" stroke="black" points="484.5,-5.5 484.5,-24.5 607.5,-24.5 607.5,-5.5 484.5,-5.5"/>
<text text-anchor="middle" x="546" y="-12.5" font-family="Helvetica,sans-Serif" font-size="10.00">server::uiServer::uiServer</text>
</a>
</g>
</g>
<!-- Node3&#45;&gt;Node4 -->
<g id="edge3" class="edge"><title>Node3&#45;&gt;Node4</title>
<path fill="none" stroke="midnightblue" d="M458.286,-15C466.998,-15 475.868,-15 484.447,-15"/>
<polygon fill="midnightblue" stroke="midnightblue" points="458.157,-11.5001 448.157,-15 458.157,-18.5001 458.157,-11.5001"/>
</g>
</g>
</svg>
