<?xml version="1.0" encoding="UTF-8" standalone="no"?>
<!DOCTYPE svg PUBLIC "-//W3C//DTD SVG 1.1//EN"
 "http://www.w3.org/Graphics/SVG/1.1/DTD/svg11.dtd">
<!-- Generated by graphviz version 2.30.1 (20130303.0817)
 -->
<!-- Title: server::uiServer::changeOwnUser Pages: 1 -->
<svg width="686pt" height="191pt"
 viewBox="0.00 0.00 686.00 191.00" xmlns="http://www.w3.org/2000/svg" xmlns:xlink="http://www.w3.org/1999/xlink">
<g id="graph0" class="graph" transform="scale(1 1) rotate(0) translate(4 187)">
<title>server::uiServer::changeOwnUser</title>
<polygon fill="white" stroke="white" points="-4,5 -4,-187 683,-187 683,5 -4,5"/>
<!-- Node1 -->
<g id="node1" class="node"><title>Node1</title>
<polygon fill="#bfbfbf" stroke="black" points="0,-77 0,-107 120,-107 120,-77 0,-77"/>
<text text-anchor="start" x="8" y="-95" font-family="Helvetica,sans-Serif" font-size="10.00">server::uiServer::change</text>
<text text-anchor="middle" x="60" y="-84" font-family="Helvetica,sans-Serif" font-size="10.00">OwnUser</text>
</g>
<!-- Node2 -->
<g id="node2" class="node"><title>Node2</title>
<g id="a_node2"><a xlink:href="../../d2/dc1/class_k4_u_1_1json_command.html#ae829f45e11a50fa00024a5d9951cd748" target="_top" xlink:title="Gets an item from the internal data map.">
<polygon fill="white" stroke="black" points="156.5,-126.5 156.5,-145.5 299.5,-145.5 299.5,-126.5 156.5,-126.5"/>
<text text-anchor="middle" x="228" y="-133.5" font-family="Helvetica,sans-Serif" font-size="10.00">K4U::jsonCommand::getData</text>
</a>
</g>
</g>
<!-- Node1&#45;&gt;Node2 -->
<g id="edge1" class="edge"><title>Node1&#45;&gt;Node2</title>
<path fill="none" stroke="midnightblue" d="M117.663,-107.019C138.299,-112.489 161.357,-118.601 180.959,-123.796"/>
<polygon fill="midnightblue" stroke="midnightblue" points="180.301,-127.243 190.864,-126.422 182.094,-120.476 180.301,-127.243"/>
</g>
<!-- Node3 -->
<g id="node3" class="node"><title>Node3</title>
<g id="a_node3"><a xlink:href="../../df/dd2/classserver_1_1ui_server.html#afcd9f0421bb52f2b83be4fa924958211" target="_top" xlink:title="Emitted when a client wants to change our own status.">
<polygon fill="white" stroke="black" points="159.5,-77 159.5,-107 296.5,-107 296.5,-77 159.5,-77"/>
<text text-anchor="start" x="167.5" y="-95" font-family="Helvetica,sans-Serif" font-size="10.00">server::uiServer::sgnChange</text>
<text text-anchor="middle" x="228" y="-84" font-family="Helvetica,sans-Serif" font-size="10.00">OwnUserStatus</text>
</a>
</g>
</g>
<!-- Node1&#45;&gt;Node3 -->
<g id="edge2" class="edge"><title>Node1&#45;&gt;Node3</title>
<path fill="none" stroke="midnightblue" d="M120.461,-92C129.851,-92 139.68,-92 149.409,-92"/>
<polygon fill="midnightblue" stroke="midnightblue" points="149.489,-95.5001 159.489,-92 149.489,-88.5001 149.489,-95.5001"/>
</g>
<!-- Node4 -->
<g id="node4" class="node"><title>Node4</title>
<g id="a_node4"><a xlink:href="../../df/dd2/classserver_1_1ui_server.html#ab9e9ed944311c42f019c645c3e0539cf" target="_top" xlink:title="Sends a jsonCommand to all the clients.">
<polygon fill="white" stroke="black" points="173,-38.5 173,-57.5 283,-57.5 283,-38.5 173,-38.5"/>
<text text-anchor="middle" x="228" y="-45.5" font-family="Helvetica,sans-Serif" font-size="10.00">server::uiServer::send</text>
</a>
</g>
</g>
<!-- Node1&#45;&gt;Node4 -->
<g id="edge3" class="edge"><title>Node1&#45;&gt;Node4</title>
<path fill="none" stroke="midnightblue" d="M117.663,-76.9808C138.299,-71.5112 161.357,-65.3993 180.959,-60.2036"/>
<polygon fill="midnightblue" stroke="midnightblue" points="182.094,-63.5237 190.864,-57.5783 180.301,-56.7573 182.094,-63.5237"/>
</g>
<!-- Node5 -->
<g id="node5" class="node"><title>Node5</title>
<g id="a_node5"><a xlink:href="../../d2/dc1/class_k4_u_1_1json_command.html#a0b681a1fedfb2e89397b1f71e29edf78" target="_top" xlink:title="Transforms this object to a nice JSON string.">
<polygon fill="white" stroke="black" points="336,-93 336,-123 474,-123 474,-93 336,-93"/>
<text text-anchor="start" x="344" y="-111" font-family="Helvetica,sans-Serif" font-size="10.00">K4U::jsonCommand::toJson</text>
<text text-anchor="middle" x="405" y="-100" font-family="Helvetica,sans-Serif" font-size="10.00">String</text>
</a>
</g>
</g>
<!-- Node4&#45;&gt;Node5 -->
<g id="edge4" class="edge"><title>Node4&#45;&gt;Node5</title>
<path fill="none" stroke="midnightblue" d="M265.317,-57.5325C276.506,-60.656 288.82,-64.2841 300,-68 319.052,-74.332 339.748,-82.104 357.625,-89.1076"/>
<polygon fill="midnightblue" stroke="midnightblue" points="356.652,-92.4863 367.238,-92.9055 359.224,-85.9759 356.652,-92.4863"/>
</g>
<!-- Node9 -->
<g id="node9" class="node"><title>Node9</title>
<g id="a_node9"><a xlink:href="../../d6/d75/namespace_k4_u.html#aaddaee50fab2801df390147891b0c09d" target="_top" xlink:title="K4U::endl">
<polygon fill="white" stroke="black" points="375.5,-38.5 375.5,-57.5 434.5,-57.5 434.5,-38.5 375.5,-38.5"/>
<text text-anchor="middle" x="405" y="-45.5" font-family="Helvetica,sans-Serif" font-size="10.00">K4U::endl</text>
</a>
</g>
</g>
<!-- Node4&#45;&gt;Node9 -->
<g id="edge8" class="edge"><title>Node4&#45;&gt;Node9</title>
<path fill="none" stroke="midnightblue" d="M283.412,-48C309.807,-48 340.913,-48 364.921,-48"/>
<polygon fill="midnightblue" stroke="midnightblue" points="365.075,-51.5001 375.075,-48 365.075,-44.5001 365.075,-51.5001"/>
</g>
<!-- Node11 -->
<g id="node11" class="node"><title>Node11</title>
<g id="a_node11"><a xlink:href="../../dc/d4d/classserver_1_1ui_client.html#ad3f8f8690155b186b54e40dcfee0df23" target="_top" xlink:title="Sends data to the socket.">
<polygon fill="white" stroke="black" points="351.5,-0.5 351.5,-19.5 458.5,-19.5 458.5,-0.5 351.5,-0.5"/>
<text text-anchor="middle" x="405" y="-7.5" font-family="Helvetica,sans-Serif" font-size="10.00">server::uiClient::send</text>
</a>
</g>
</g>
<!-- Node4&#45;&gt;Node11 -->
<g id="edge11" class="edge"><title>Node4&#45;&gt;Node11</title>
<path fill="none" stroke="midnightblue" d="M273.16,-38.411C296.565,-33.3287 325.505,-27.0446 350.212,-21.6797"/>
<polygon fill="midnightblue" stroke="midnightblue" points="351.128,-25.0624 360.158,-19.5201 349.643,-18.2218 351.128,-25.0624"/>
</g>
<!-- Node6 -->
<g id="node6" class="node"><title>Node6</title>
<g id="a_node6"><a xlink:href="../../d2/dc1/class_k4_u_1_1json_command.html#ac6bc0d606265f47db9bae5a6a40cb244" target="_top" xlink:title="getCommandString">
<polygon fill="white" stroke="black" points="510.5,-153 510.5,-183 677.5,-183 677.5,-153 510.5,-153"/>
<text text-anchor="start" x="518.5" y="-171" font-family="Helvetica,sans-Serif" font-size="10.00">K4U::jsonCommand::getCommand</text>
<text text-anchor="middle" x="594" y="-160" font-family="Helvetica,sans-Serif" font-size="10.00">String</text>
</a>
</g>
</g>
<!-- Node5&#45;&gt;Node6 -->
<g id="edge5" class="edge"><title>Node5&#45;&gt;Node6</title>
<path fill="none" stroke="midnightblue" d="M449.668,-123.043C468.225,-129.345 490.125,-136.664 510,-143 517.178,-145.288 524.723,-147.638 532.216,-149.937"/>
<polygon fill="midnightblue" stroke="midnightblue" points="531.417,-153.352 542.003,-152.921 533.458,-146.656 531.417,-153.352"/>
</g>
<!-- Node7 -->
<g id="node7" class="node"><title>Node7</title>
<g id="a_node7"><a xlink:href="../../d2/dc1/class_k4_u_1_1json_command.html#ab408a8b051e005a7156e19ea8a1f7f3a" target="_top" xlink:title="Gets all data items.">
<polygon fill="white" stroke="black" points="522.5,-114.5 522.5,-133.5 665.5,-133.5 665.5,-114.5 522.5,-114.5"/>
<text text-anchor="middle" x="594" y="-121.5" font-family="Helvetica,sans-Serif" font-size="10.00">K4U::jsonCommand::getData</text>
</a>
</g>
</g>
<!-- Node5&#45;&gt;Node7 -->
<g id="edge6" class="edge"><title>Node5&#45;&gt;Node7</title>
<path fill="none" stroke="midnightblue" d="M474.04,-113.822C486.483,-114.886 499.577,-116.007 512.345,-117.099"/>
<polygon fill="midnightblue" stroke="midnightblue" points="512.234,-120.602 522.496,-117.968 512.831,-113.628 512.234,-120.602"/>
</g>
<!-- Node8 -->
<g id="node8" class="node"><title>Node8</title>
<g id="a_node8"><a xlink:href="../../d2/d6d/namespace_qt_json.html#ace7d6102379674932334bea04fb15c12" target="_top" xlink:title="QtJson::serialize">
<polygon fill="white" stroke="black" points="549.5,-76.5 549.5,-95.5 638.5,-95.5 638.5,-76.5 549.5,-76.5"/>
<text text-anchor="middle" x="594" y="-83.5" font-family="Helvetica,sans-Serif" font-size="10.00">QtJson::serialize</text>
</a>
</g>
</g>
<!-- Node5&#45;&gt;Node8 -->
<g id="edge7" class="edge"><title>Node5&#45;&gt;Node8</title>
<path fill="none" stroke="midnightblue" d="M474.04,-99.9953C495.57,-97.4623 519.05,-94.7 539.418,-92.3038"/>
<polygon fill="midnightblue" stroke="midnightblue" points="539.928,-95.768 549.451,-91.1234 539.11,-88.8159 539.928,-95.768"/>
</g>
<!-- Node10 -->
<g id="node10" class="node"><title>Node10</title>
<g id="a_node10"><a xlink:href="../../da/d64/class_k4_u_1_1cls_log.html#a81f179b2ccb3e2abeb9b47f5b83de935" target="_top" xlink:title="K4U::clsLog::doEndl">
<polygon fill="white" stroke="black" points="541,-38.5 541,-57.5 647,-57.5 647,-38.5 541,-38.5"/>
<text text-anchor="middle" x="594" y="-45.5" font-family="Helvetica,sans-Serif" font-size="10.00">K4U::clsLog::doEndl</text>
</a>
</g>
</g>
<!-- Node9&#45;&gt;Node10 -->
<g id="edge9" class="edge"><title>Node9&#45;&gt;Node10</title>
<path fill="none" stroke="midnightblue" d="M434.809,-42.964C460.232,-41.3112 498.17,-40.8537 530.52,-41.5916"/>
<polygon fill="midnightblue" stroke="midnightblue" points="530.712,-45.0981 540.804,-41.8732 530.904,-38.1007 530.712,-45.0981"/>
</g>
<!-- Node10&#45;&gt;Node9 -->
<g id="edge10" class="edge"><title>Node10&#45;&gt;Node9</title>
<path fill="none" stroke="midnightblue" d="M540.804,-54.1268C510.411,-55.1062 472.73,-54.9312 444.94,-53.602"/>
<polygon fill="midnightblue" stroke="midnightblue" points="444.989,-50.0994 434.809,-53.036 444.598,-57.0885 444.989,-50.0994"/>
</g>
</g>
</svg>
