<?xml version="1.0" encoding="UTF-8" standalone="no"?>
<!DOCTYPE svg PUBLIC "-//W3C//DTD SVG 1.1//EN"
 "http://www.w3.org/Graphics/SVG/1.1/DTD/svg11.dtd">
<!-- Generated by graphviz version 2.30.1 (20130303.0817)
 -->
<!-- Title: server::uiServer::acceptConnection Pages: 1 -->
<!--zoomable 281 -->
<svg id="main" version="1.1" xmlns="http://www.w3.org/2000/svg" xmlns:xlink="http://www.w3.org/1999/xlink" xml:space="preserve" onload="init(evt)">
        <defs>
                <circle id="rim" cx="0" cy="0" r="7"/>
                <circle id="rim2" cx="0" cy="0" r="3.5"/>
                <g id="zoomPlus">
                        <use xlink:href="#rim" fill="#404040">
                                <set attributeName="fill" to="#808080" begin="zoomplus.mouseover" end="zoomplus.mouseout"/>
                        </use>
                        <path d="M-4,0h8M0,-4v8" fill="none" stroke="white" stroke-width="1.5" pointer-events="none"/>
                </g>
                <g id="zoomMin">
                        <use xlink:href="#rim" fill="#404040">
                                <set attributeName="fill" to="#808080" begin="zoomminus.mouseover" end="zoomminus.mouseout"/>
                        </use>
                        <path d="M-4,0h8" fill="none" stroke="white" stroke-width="1.5" pointer-events="none"/>
                </g>
                <g id="dirArrow">
                        <path fill="none" stroke="white" stroke-width="1.5" d="M0,-3.0v7 M-2.5,-0.5L0,-3.0L2.5,-0.5"/>
                </g>
               <g id="resetDef">
                       <use xlink:href="#rim2" fill="#404040">
                               <set attributeName="fill" to="#808080" begin="reset.mouseover" end="reset.mouseout"/>
                       </use>
               </g>
        </defs>

<script type="text/javascript">
var viewWidth = 874;
var viewHeight = 281;
var sectionId = 'dynsection-3';
</script>
<script xlink:href="../../svgpan.js"/>
<svg id="graph" class="graph">
<g id="viewport">
<title>server::uiServer::acceptConnection</title>
<polygon fill="white" stroke="white" points="-4,5 -4,-277 871,-277 871,5 -4,5"/>
<!-- Node1 -->
<g id="node1" class="node"><title>Node1</title>
<polygon fill="#bfbfbf" stroke="black" points="0,-166 0,-196 118,-196 118,-166 0,-166"/>
<text text-anchor="start" x="8" y="-184" font-family="Helvetica,sans-Serif" font-size="10.00">server::uiServer::accept</text>
<text text-anchor="middle" x="59" y="-173" font-family="Helvetica,sans-Serif" font-size="10.00">Connection</text>
</g>
<!-- Node2 -->
<g id="node2" class="node"><title>Node2</title>
<g id="a_node2"><a xlink:href="../../df/dd2/classserver_1_1ui_server.html#a7d6448c91d341e29919ebc10047ef4a4" target="_top" xlink:title="Triggered when a client disconnects.">
<polygon fill="white" stroke="black" points="154.5,-253.5 154.5,-272.5 307.5,-272.5 307.5,-253.5 154.5,-253.5"/>
<text text-anchor="middle" x="231" y="-260.5" font-family="Helvetica,sans-Serif" font-size="10.00">server::uiServer::lostConnection</text>
</a>
</g>
</g>
<!-- Node1&#45;&gt;Node2 -->
<g id="edge1" class="edge"><title>Node1&#45;&gt;Node2</title>
<path fill="none" stroke="midnightblue" d="M78.3061,-196.093C96.4717,-210.361 125.629,-231.408 154,-244 159.495,-246.439 165.358,-248.602 171.299,-250.512"/>
<polygon fill="midnightblue" stroke="midnightblue" points="170.735,-253.996 181.318,-253.491 172.73,-247.286 170.735,-253.996"/>
</g>
<!-- Node3 -->
<g id="node3" class="node"><title>Node3</title>
<g id="a_node3"><a xlink:href="../../df/dd2/classserver_1_1ui_server.html#ad6b939c26280e2c3c4a6306e0599a10a" target="_top" xlink:title="Triggered when a client sends a chatmessage.">
<polygon fill="white" stroke="black" points="158,-215.5 158,-234.5 304,-234.5 304,-215.5 158,-215.5"/>
<text text-anchor="middle" x="231" y="-222.5" font-family="Helvetica,sans-Serif" font-size="10.00">server::uiServer::chatReceived</text>
</a>
</g>
</g>
<!-- Node1&#45;&gt;Node3 -->
<g id="edge2" class="edge"><title>Node1&#45;&gt;Node3</title>
<path fill="none" stroke="midnightblue" d="M118.029,-196.019C139.341,-201.535 163.176,-207.704 183.36,-212.928"/>
<polygon fill="midnightblue" stroke="midnightblue" points="182.689,-216.37 193.247,-215.488 184.443,-209.593 182.689,-216.37"/>
</g>
<!-- Node5 -->
<g id="node5" class="node"><title>Node5</title>
<g id="a_node5"><a xlink:href="../../df/dd2/classserver_1_1ui_server.html#af5f79bcf932095d2b0976581409e0376" target="_top" xlink:title="Triggered when a client wants all the users.">
<polygon fill="white" stroke="black" points="171.5,-166 171.5,-196 290.5,-196 290.5,-166 171.5,-166"/>
<text text-anchor="start" x="179.5" y="-184" font-family="Helvetica,sans-Serif" font-size="10.00">server::uiServer::doUser</text>
<text text-anchor="middle" x="231" y="-173" font-family="Helvetica,sans-Serif" font-size="10.00">Query</text>
</a>
</g>
</g>
<!-- Node1&#45;&gt;Node5 -->
<g id="edge4" class="edge"><title>Node1&#45;&gt;Node5</title>
<path fill="none" stroke="midnightblue" d="M118.029,-181C131.884,-181 146.805,-181 161.096,-181"/>
<polygon fill="midnightblue" stroke="midnightblue" points="161.366,-184.5 171.366,-181 161.366,-177.5 161.366,-184.5"/>
</g>
<!-- Node7 -->
<g id="node7" class="node"><title>Node7</title>
<g id="a_node7"><a xlink:href="../../df/dd2/classserver_1_1ui_server.html#a1d221672f6efb29189e6ce398f7b07e3" target="_top" xlink:title="Triggered when a client wants to change something about our own user.">
<polygon fill="white" stroke="black" points="171,-98 171,-128 291,-128 291,-98 171,-98"/>
<text text-anchor="start" x="179" y="-116" font-family="Helvetica,sans-Serif" font-size="10.00">server::uiServer::change</text>
<text text-anchor="middle" x="231" y="-105" font-family="Helvetica,sans-Serif" font-size="10.00">OwnUser</text>
</a>
</g>
</g>
<!-- Node1&#45;&gt;Node7 -->
<g id="edge6" class="edge"><title>Node1&#45;&gt;Node7</title>
<path fill="none" stroke="midnightblue" d="M97.7285,-165.909C122.819,-155.872 155.967,-142.613 182.803,-131.879"/>
<polygon fill="midnightblue" stroke="midnightblue" points="184.392,-135.013 192.377,-128.049 181.792,-128.514 184.392,-135.013"/>
</g>
<!-- Node18 -->
<g id="node18" class="node"><title>Node18</title>
<g id="a_node18"><a xlink:href="../../df/dd2/classserver_1_1ui_server.html#acab729e9722d3a3c432c65248757c2f1" target="_top" xlink:title="Triggered when a client wants all the events.">
<polygon fill="white" stroke="black" points="170,-30 170,-60 292,-60 292,-30 170,-30"/>
<text text-anchor="start" x="178" y="-48" font-family="Helvetica,sans-Serif" font-size="10.00">server::uiServer::doSend</text>
<text text-anchor="middle" x="231" y="-37" font-family="Helvetica,sans-Serif" font-size="10.00">Events</text>
</a>
</g>
</g>
<!-- Node1&#45;&gt;Node18 -->
<g id="edge18" class="edge"><title>Node1&#45;&gt;Node18</title>
<path fill="none" stroke="midnightblue" d="M73.3163,-165.795C90.6751,-146.511 122.544,-112.899 154,-89 165.527,-80.2421 178.959,-71.9277 191.296,-64.9327"/>
<polygon fill="midnightblue" stroke="midnightblue" points="192.994,-67.9936 200.044,-60.0849 189.601,-61.871 192.994,-67.9936"/>
</g>
<!-- Node4 -->
<g id="node4" class="node"><title>Node4</title>
<g id="a_node4"><a xlink:href="../../df/dd2/classserver_1_1ui_server.html#af8accf173f4aa7dc5f59c56016645726" target="_top" xlink:title="Emitted when a chatmessage has been send from a client.">
<polygon fill="white" stroke="black" points="353.5,-225 353.5,-255 478.5,-255 478.5,-225 353.5,-225"/>
<text text-anchor="start" x="361.5" y="-243" font-family="Helvetica,sans-Serif" font-size="10.00">server::uiServer::sgnChat</text>
<text text-anchor="middle" x="416" y="-232" font-family="Helvetica,sans-Serif" font-size="10.00">Received</text>
</a>
</g>
</g>
<!-- Node3&#45;&gt;Node4 -->
<g id="edge3" class="edge"><title>Node3&#45;&gt;Node4</title>
<path fill="none" stroke="midnightblue" d="M304.064,-230.907C316.928,-231.961 330.33,-233.06 343.187,-234.114"/>
<polygon fill="midnightblue" stroke="midnightblue" points="343.108,-237.619 353.361,-234.948 343.68,-230.642 343.108,-237.619"/>
</g>
<!-- Node6 -->
<g id="node6" class="node"><title>Node6</title>
<g id="a_node6"><a xlink:href="../../df/dd2/classserver_1_1ui_server.html#a8ac8c9444c217209d1e30983d60cad97" target="_top" xlink:title="Emitted when a client wants all the users.">
<polygon fill="white" stroke="black" points="353.5,-176 353.5,-206 478.5,-206 478.5,-176 353.5,-176"/>
<text text-anchor="start" x="361.5" y="-194" font-family="Helvetica,sans-Serif" font-size="10.00">server::uiServer::sgnUser</text>
<text text-anchor="middle" x="416" y="-183" font-family="Helvetica,sans-Serif" font-size="10.00">Query</text>
</a>
</g>
</g>
<!-- Node5&#45;&gt;Node6 -->
<g id="edge5" class="edge"><title>Node5&#45;&gt;Node6</title>
<path fill="none" stroke="midnightblue" d="M290.657,-184.205C307.349,-185.117 325.723,-186.121 343.105,-187.071"/>
<polygon fill="midnightblue" stroke="midnightblue" points="343.029,-190.572 353.206,-187.623 343.411,-183.583 343.029,-190.572"/>
</g>
<!-- Node8 -->
<g id="node8" class="node"><title>Node8</title>
<g id="a_node8"><a xlink:href="../../d2/dc1/class_k4_u_1_1json_command.html#ae829f45e11a50fa00024a5d9951cd748" target="_top" xlink:title="Gets an item from the internal data map.">
<polygon fill="white" stroke="black" points="344.5,-137.5 344.5,-156.5 487.5,-156.5 487.5,-137.5 344.5,-137.5"/>
<text text-anchor="middle" x="416" y="-144.5" font-family="Helvetica,sans-Serif" font-size="10.00">K4U::jsonCommand::getData</text>
</a>
</g>
</g>
<!-- Node7&#45;&gt;Node8 -->
<g id="edge7" class="edge"><title>Node7&#45;&gt;Node8</title>
<path fill="none" stroke="midnightblue" d="M291.162,-123.992C311.173,-127.71 333.551,-131.867 353.723,-135.615"/>
<polygon fill="midnightblue" stroke="midnightblue" points="353.264,-139.09 363.735,-137.475 354.543,-132.208 353.264,-139.09"/>
</g>
<!-- Node9 -->
<g id="node9" class="node"><title>Node9</title>
<g id="a_node9"><a xlink:href="../../df/dd2/classserver_1_1ui_server.html#afcd9f0421bb52f2b83be4fa924958211" target="_top" xlink:title="Emitted when a client wants to change our own status.">
<polygon fill="white" stroke="black" points="347.5,-88 347.5,-118 484.5,-118 484.5,-88 347.5,-88"/>
<text text-anchor="start" x="355.5" y="-106" font-family="Helvetica,sans-Serif" font-size="10.00">server::uiServer::sgnChange</text>
<text text-anchor="middle" x="416" y="-95" font-family="Helvetica,sans-Serif" font-size="10.00">OwnUserStatus</text>
</a>
</g>
</g>
<!-- Node7&#45;&gt;Node9 -->
<g id="edge8" class="edge"><title>Node7&#45;&gt;Node9</title>
<path fill="none" stroke="midnightblue" d="M291.162,-109.767C305.896,-108.962 321.914,-108.087 337.389,-107.241"/>
<polygon fill="midnightblue" stroke="midnightblue" points="337.667,-110.731 347.461,-106.691 337.285,-103.742 337.667,-110.731"/>
</g>
<!-- Node10 -->
<g id="node10" class="node"><title>Node10</title>
<g id="a_node10"><a xlink:href="../../df/dd2/classserver_1_1ui_server.html#ab9e9ed944311c42f019c645c3e0539cf" target="_top" xlink:title="Sends a jsonCommand to all the clients.">
<polygon fill="white" stroke="black" points="361,-49.5 361,-68.5 471,-68.5 471,-49.5 361,-49.5"/>
<text text-anchor="middle" x="416" y="-56.5" font-family="Helvetica,sans-Serif" font-size="10.00">server::uiServer::send</text>
</a>
</g>
</g>
<!-- Node7&#45;&gt;Node10 -->
<g id="edge9" class="edge"><title>Node7&#45;&gt;Node10</title>
<path fill="none" stroke="midnightblue" d="M280.726,-97.975C300.357,-91.9826 323.229,-85.0775 344,-79 352.662,-76.4655 361.936,-73.8107 370.828,-71.2939"/>
<polygon fill="midnightblue" stroke="midnightblue" points="371.977,-74.6065 380.653,-68.5248 370.078,-67.869 371.977,-74.6065"/>
</g>
<!-- Node11 -->
<g id="node11" class="node"><title>Node11</title>
<g id="a_node11"><a xlink:href="../../d2/dc1/class_k4_u_1_1json_command.html#a0b681a1fedfb2e89397b1f71e29edf78" target="_top" xlink:title="Transforms this object to a nice JSON string.">
<polygon fill="white" stroke="black" points="524,-104 524,-134 662,-134 662,-104 524,-104"/>
<text text-anchor="start" x="532" y="-122" font-family="Helvetica,sans-Serif" font-size="10.00">K4U::jsonCommand::toJson</text>
<text text-anchor="middle" x="593" y="-111" font-family="Helvetica,sans-Serif" font-size="10.00">String</text>
</a>
</g>
</g>
<!-- Node10&#45;&gt;Node11 -->
<g id="edge10" class="edge"><title>Node10&#45;&gt;Node11</title>
<path fill="none" stroke="midnightblue" d="M453.317,-68.5325C464.506,-71.656 476.82,-75.2841 488,-79 507.052,-85.332 527.748,-93.104 545.625,-100.108"/>
<polygon fill="midnightblue" stroke="midnightblue" points="544.652,-103.486 555.238,-103.906 547.224,-96.9759 544.652,-103.486"/>
</g>
<!-- Node15 -->
<g id="node15" class="node"><title>Node15</title>
<g id="a_node15"><a xlink:href="../../d6/d75/namespace_k4_u.html#aaddaee50fab2801df390147891b0c09d" target="_top" xlink:title="K4U::endl">
<polygon fill="white" stroke="black" points="563.5,-49.5 563.5,-68.5 622.5,-68.5 622.5,-49.5 563.5,-49.5"/>
<text text-anchor="middle" x="593" y="-56.5" font-family="Helvetica,sans-Serif" font-size="10.00">K4U::endl</text>
</a>
</g>
</g>
<!-- Node10&#45;&gt;Node15 -->
<g id="edge14" class="edge"><title>Node10&#45;&gt;Node15</title>
<path fill="none" stroke="midnightblue" d="M471.412,-59C497.807,-59 528.913,-59 552.921,-59"/>
<polygon fill="midnightblue" stroke="midnightblue" points="553.075,-62.5001 563.075,-59 553.075,-55.5001 553.075,-62.5001"/>
</g>
<!-- Node17 -->
<g id="node17" class="node"><title>Node17</title>
<g id="a_node17"><a xlink:href="../../dc/d4d/classserver_1_1ui_client.html#ad3f8f8690155b186b54e40dcfee0df23" target="_top" xlink:title="Sends data to the socket.">
<polygon fill="white" stroke="black" points="539.5,-11.5 539.5,-30.5 646.5,-30.5 646.5,-11.5 539.5,-11.5"/>
<text text-anchor="middle" x="593" y="-18.5" font-family="Helvetica,sans-Serif" font-size="10.00">server::uiClient::send</text>
</a>
</g>
</g>
<!-- Node10&#45;&gt;Node17 -->
<g id="edge17" class="edge"><title>Node10&#45;&gt;Node17</title>
<path fill="none" stroke="midnightblue" d="M461.16,-49.411C484.565,-44.3287 513.505,-38.0446 538.212,-32.6797"/>
<polygon fill="midnightblue" stroke="midnightblue" points="539.128,-36.0624 548.158,-30.5201 537.643,-29.2218 539.128,-36.0624"/>
</g>
<!-- Node12 -->
<g id="node12" class="node"><title>Node12</title>
<g id="a_node12"><a xlink:href="../../d2/dc1/class_k4_u_1_1json_command.html#ac6bc0d606265f47db9bae5a6a40cb244" target="_top" xlink:title="getCommandString">
<polygon fill="white" stroke="black" points="698.5,-164 698.5,-194 865.5,-194 865.5,-164 698.5,-164"/>
<text text-anchor="start" x="706.5" y="-182" font-family="Helvetica,sans-Serif" font-size="10.00">K4U::jsonCommand::getCommand</text>
<text text-anchor="middle" x="782" y="-171" font-family="Helvetica,sans-Serif" font-size="10.00">String</text>
</a>
</g>
</g>
<!-- Node11&#45;&gt;Node12 -->
<g id="edge11" class="edge"><title>Node11&#45;&gt;Node12</title>
<path fill="none" stroke="midnightblue" d="M637.668,-134.043C656.225,-140.345 678.125,-147.664 698,-154 705.178,-156.288 712.723,-158.638 720.216,-160.937"/>
<polygon fill="midnightblue" stroke="midnightblue" points="719.417,-164.352 730.003,-163.921 721.458,-157.656 719.417,-164.352"/>
</g>
<!-- Node13 -->
<g id="node13" class="node"><title>Node13</title>
<g id="a_node13"><a xlink:href="../../d2/dc1/class_k4_u_1_1json_command.html#ab408a8b051e005a7156e19ea8a1f7f3a" target="_top" xlink:title="Gets all data items.">
<polygon fill="white" stroke="black" points="710.5,-125.5 710.5,-144.5 853.5,-144.5 853.5,-125.5 710.5,-125.5"/>
<text text-anchor="middle" x="782" y="-132.5" font-family="Helvetica,sans-Serif" font-size="10.00">K4U::jsonCommand::getData</text>
</a>
</g>
</g>
<!-- Node11&#45;&gt;Node13 -->
<g id="edge12" class="edge"><title>Node11&#45;&gt;Node13</title>
<path fill="none" stroke="midnightblue" d="M662.04,-124.822C674.483,-125.886 687.577,-127.007 700.345,-128.099"/>
<polygon fill="midnightblue" stroke="midnightblue" points="700.234,-131.602 710.496,-128.968 700.831,-124.628 700.234,-131.602"/>
</g>
<!-- Node14 -->
<g id="node14" class="node"><title>Node14</title>
<g id="a_node14"><a xlink:href="../../d2/d6d/namespace_qt_json.html#ace7d6102379674932334bea04fb15c12" target="_top" xlink:title="QtJson::serialize">
<polygon fill="white" stroke="black" points="737.5,-87.5 737.5,-106.5 826.5,-106.5 826.5,-87.5 737.5,-87.5"/>
<text text-anchor="middle" x="782" y="-94.5" font-family="Helvetica,sans-Serif" font-size="10.00">QtJson::serialize</text>
</a>
</g>
</g>
<!-- Node11&#45;&gt;Node14 -->
<g id="edge13" class="edge"><title>Node11&#45;&gt;Node14</title>
<path fill="none" stroke="midnightblue" d="M662.04,-110.995C683.57,-108.462 707.05,-105.7 727.418,-103.304"/>
<polygon fill="midnightblue" stroke="midnightblue" points="727.928,-106.768 737.451,-102.123 727.11,-99.8159 727.928,-106.768"/>
</g>
<!-- Node16 -->
<g id="node16" class="node"><title>Node16</title>
<g id="a_node16"><a xlink:href="../../da/d64/class_k4_u_1_1cls_log.html#a81f179b2ccb3e2abeb9b47f5b83de935" target="_top" xlink:title="K4U::clsLog::doEndl">
<polygon fill="white" stroke="black" points="729,-49.5 729,-68.5 835,-68.5 835,-49.5 729,-49.5"/>
<text text-anchor="middle" x="782" y="-56.5" font-family="Helvetica,sans-Serif" font-size="10.00">K4U::clsLog::doEndl</text>
</a>
</g>
</g>
<!-- Node15&#45;&gt;Node16 -->
<g id="edge15" class="edge"><title>Node15&#45;&gt;Node16</title>
<path fill="none" stroke="midnightblue" d="M622.809,-53.964C648.232,-52.3112 686.17,-51.8537 718.52,-52.5916"/>
<polygon fill="midnightblue" stroke="midnightblue" points="718.712,-56.0981 728.804,-52.8732 718.904,-49.1007 718.712,-56.0981"/>
</g>
<!-- Node16&#45;&gt;Node15 -->
<g id="edge16" class="edge"><title>Node16&#45;&gt;Node15</title>
<path fill="none" stroke="midnightblue" d="M728.804,-65.1268C698.411,-66.1062 660.73,-65.9312 632.94,-64.602"/>
<polygon fill="midnightblue" stroke="midnightblue" points="632.989,-61.0994 622.809,-64.036 632.598,-68.0885 632.989,-61.0994"/>
</g>
<!-- Node19 -->
<g id="node19" class="node"><title>Node19</title>
<g id="a_node19"><a xlink:href="../../df/dd2/classserver_1_1ui_server.html#a1097da2f20a545c302e9f4cab29a4a87" target="_top" xlink:title="Emitted when a client wants all the events.">
<polygon fill="white" stroke="black" points="352.5,-0 352.5,-30 479.5,-30 479.5,-0 352.5,-0"/>
<text text-anchor="start" x="360.5" y="-18" font-family="Helvetica,sans-Serif" font-size="10.00">server::uiServer::sgnSend</text>
<text text-anchor="middle" x="416" y="-7" font-family="Helvetica,sans-Serif" font-size="10.00">Events</text>
</a>
</g>
</g>
<!-- Node18&#45;&gt;Node19 -->
<g id="edge19" class="edge"><title>Node18&#45;&gt;Node19</title>
<path fill="none" stroke="midnightblue" d="M292.175,-35.1353C308.134,-32.5189 325.54,-29.6655 342.098,-26.9512"/>
<polygon fill="midnightblue" stroke="midnightblue" points="342.975,-30.3541 352.277,-25.2824 341.843,-23.4463 342.975,-30.3541"/>
</g>
</g>
</svg>
        <g id="navigator" transform="translate(0 0)" fill="#404254">
                <rect fill="#f2f5e9" fill-opacity="0.5" stroke="#606060" stroke-width=".5" x="0" y="0" width="60" height="60"/>
                <use id="zoomplus" xlink:href="#zoomPlus" x="17" y="9" onmousedown="handleZoom(evt,'in')"/>
                <use id="zoomminus" xlink:href="#zoomMin" x="42" y="9" onmousedown="handleZoom(evt,'out')"/>
                <use id="reset" xlink:href="#resetDef" x="30" y="36" onmousedown="handleReset()"/>
                <g id="arrowUp" xlink:href="#dirArrow" transform="translate(30 24)" onmousedown="handlePan(0,-1)">
                  <use xlink:href="#rim" fill="#404040">
                        <set attributeName="fill" to="#808080" begin="arrowUp.mouseover" end="arrowUp.mouseout"/>
                  </use>
                  <path fill="none" stroke="white" stroke-width="1.5" d="M0,-3.0v7 M-2.5,-0.5L0,-3.0L2.5,-0.5"/>
                </g>
                <g id="arrowRight" xlink:href="#dirArrow" transform="rotate(90) translate(36 -43)" onmousedown="handlePan(1,0)">
                  <use xlink:href="#rim" fill="#404040">
                        <set attributeName="fill" to="#808080" begin="arrowRight.mouseover" end="arrowRight.mouseout"/>
                  </use>
                  <path fill="none" stroke="white" stroke-width="1.5" d="M0,-3.0v7 M-2.5,-0.5L0,-3.0L2.5,-0.5"/>
                </g>
                <g id="arrowDown" xlink:href="#dirArrow" transform="rotate(180) translate(-30 -48)" onmousedown="handlePan(0,1)">
                  <use xlink:href="#rim" fill="#404040">
                        <set attributeName="fill" to="#808080" begin="arrowDown.mouseover" end="arrowDown.mouseout"/>
                  </use>
                  <path fill="none" stroke="white" stroke-width="1.5" d="M0,-3.0v7 M-2.5,-0.5L0,-3.0L2.5,-0.5"/>
                </g>
                <g id="arrowLeft" xlink:href="#dirArrow" transform="rotate(270) translate(-36 17)" onmousedown="handlePan(-1,0)">
                  <use xlink:href="#rim" fill="#404040">
                        <set attributeName="fill" to="#808080" begin="arrowLeft.mouseover" end="arrowLeft.mouseout"/>
                  </use>
                  <path fill="none" stroke="white" stroke-width="1.5" d="M0,-3.0v7 M-2.5,-0.5L0,-3.0L2.5,-0.5"/>
                </g>
        </g>
        <svg viewBox="0 0 15 15" width="100%" height="30px" preserveAspectRatio="xMaxYMin meet">
         <g id="arrow_out" transform="scale(0.3 0.3)">
          <a xlink:href="classserver_1_1ui_server_af8300a694de27369a5f5d1a95ed1cc37_cgraph_org.svg" target="_base">
           <rect id="button" ry="5" rx="5" y="6" x="6" height="38" width="38"
                fill="#f2f5e9" fill-opacity="0.5" stroke="#606060" stroke-width="1.0"/>
           <path id="arrow"
             d="M 11.500037,31.436501 C 11.940474,20.09759 22.043105,11.32322 32.158766,21.979434 L 37.068811,17.246167 C 37.068811,17.246167 37.088388,32 37.088388,32 L 22.160133,31.978069 C 22.160133,31.978069 26.997745,27.140456 26.997745,27.140456 C 18.528582,18.264221 13.291696,25.230495 11.500037,31.436501 z"
             style="fill:#404040;"/>
          </a>
         </g>
        </svg>
</svg>
