<?xml version="1.0" encoding="UTF-8" standalone="no"?>
<!DOCTYPE svg PUBLIC "-//W3C//DTD SVG 1.1//EN"
 "http://www.w3.org/Graphics/SVG/1.1/DTD/svg11.dtd">
<!-- Generated by graphviz version 2.30.1 (20130303.0817)
 -->
<!-- Title: C++/customIrcClient/android/main.cpp Pages: 1 -->
<svg width="177pt" height="152pt"
 viewBox="0.00 0.00 177.00 152.00" xmlns="http://www.w3.org/2000/svg" xmlns:xlink="http://www.w3.org/1999/xlink">
<g id="graph0" class="graph" transform="scale(1 1) rotate(0) translate(4 148)">
<title>C++/customIrcClient/android/main.cpp</title>
<polygon fill="white" stroke="white" points="-4,5 -4,-148 174,-148 174,5 -4,5"/>
<!-- Node1 -->
<g id="node1" class="node"><title>Node1</title>
<polygon fill="#bfbfbf" stroke="black" points="33,-113 33,-143 139,-143 139,-113 33,-113"/>
<text text-anchor="start" x="41" y="-131" font-family="Helvetica,sans-Serif" font-size="10.00">C++/customIrcClient</text>
<text text-anchor="middle" x="86" y="-120" font-family="Helvetica,sans-Serif" font-size="10.00">/android/main.cpp</text>
</g>
<!-- Node2 -->
<g id="node2" class="node"><title>Node2</title>
<g id="a_node2"><a xlink:href="../../db/d74/android_2mainwindow_8h.xhtml" target="_top" xlink:title="mainwindow.h">
<polygon fill="white" stroke="black" points="1.5,-56.5 1.5,-75.5 78.5,-75.5 78.5,-56.5 1.5,-56.5"/>
<text text-anchor="middle" x="40" y="-63.5" font-family="Helvetica,sans-Serif" font-size="10.00">mainwindow.h</text>
</a>
</g>
</g>
<!-- Node1&#45;&gt;Node2 -->
<g id="edge1" class="edge"><title>Node1&#45;&gt;Node2</title>
<path fill="none" stroke="midnightblue" d="M75.0986,-112.781C68.4143,-104.062 59.824,-92.8574 52.815,-83.7153"/>
<polygon fill="midnightblue" stroke="midnightblue" points="55.5554,-81.5371 46.6934,-75.7305 50.0001,-85.7961 55.5554,-81.5371"/>
</g>
<!-- Node4 -->
<g id="node4" class="node"><title>Node4</title>
<polygon fill="white" stroke="#bfbfbf" points="97,-56.5 97,-75.5 169,-75.5 169,-56.5 97,-56.5"/>
<text text-anchor="middle" x="133" y="-63.5" font-family="Helvetica,sans-Serif" font-size="10.00">QApplication</text>
</g>
<!-- Node1&#45;&gt;Node4 -->
<g id="edge3" class="edge"><title>Node1&#45;&gt;Node4</title>
<path fill="none" stroke="midnightblue" d="M97.1383,-112.781C103.968,-104.062 112.745,-92.8574 119.906,-83.7153"/>
<polygon fill="midnightblue" stroke="midnightblue" points="122.75,-85.7612 126.161,-75.7305 117.239,-81.4445 122.75,-85.7612"/>
</g>
<!-- Node3 -->
<g id="node3" class="node"><title>Node3</title>
<polygon fill="white" stroke="#bfbfbf" points="0,-0.5 0,-19.5 80,-19.5 80,-0.5 0,-0.5"/>
<text text-anchor="middle" x="40" y="-7.5" font-family="Helvetica,sans-Serif" font-size="10.00">QMainWindow</text>
</g>
<!-- Node2&#45;&gt;Node3 -->
<g id="edge2" class="edge"><title>Node2&#45;&gt;Node3</title>
<path fill="none" stroke="midnightblue" d="M40,-56.083C40,-49.0059 40,-38.8611 40,-29.9865"/>
<polygon fill="midnightblue" stroke="midnightblue" points="43.5001,-29.751 40,-19.7511 36.5001,-29.7511 43.5001,-29.751"/>
</g>
</g>
</svg>
