<?xml version="1.0" encoding="UTF-8" standalone="no"?>
<!DOCTYPE svg PUBLIC "-//W3C//DTD SVG 1.1//EN"
 "http://www.w3.org/Graphics/SVG/1.1/DTD/svg11.dtd">
<!-- Generated by graphviz version 2.30.1 (20130303.0817)
 -->
<!-- Title: C++/customIrcServer/uiclient.h Pages: 1 -->
<svg width="387pt" height="244pt"
 viewBox="0.00 0.00 387.00 244.00" xmlns="http://www.w3.org/2000/svg" xmlns:xlink="http://www.w3.org/1999/xlink">
<g id="graph0" class="graph" transform="scale(1 1) rotate(0) translate(4 240)">
<title>C++/customIrcServer/uiclient.h</title>
<polygon fill="white" stroke="white" points="-4,5 -4,-240 384,-240 384,5 -4,5"/>
<!-- Node1 -->
<g id="node1" class="node"><title>Node1</title>
<polygon fill="#bfbfbf" stroke="black" points="145,-205 145,-235 253,-235 253,-205 145,-205"/>
<text text-anchor="start" x="153" y="-223" font-family="Helvetica,sans-Serif" font-size="10.00">C++/customIrcServer</text>
<text text-anchor="middle" x="199" y="-212" font-family="Helvetica,sans-Serif" font-size="10.00">/uiclient.h</text>
</g>
<!-- Node2 -->
<g id="node2" class="node"><title>Node2</title>
<g id="a_node2"><a xlink:href="../../d7/d1c/uiserver_8h.html" target="_top" xlink:title="C++/customIrcServer\l/uiserver.h">
<polygon fill="white" stroke="black" points="145,-137 145,-167 253,-167 253,-137 145,-137"/>
<text text-anchor="start" x="153" y="-155" font-family="Helvetica,sans-Serif" font-size="10.00">C++/customIrcServer</text>
<text text-anchor="middle" x="199" y="-144" font-family="Helvetica,sans-Serif" font-size="10.00">/uiserver.h</text>
</a>
</g>
</g>
<!-- Node1&#45;&gt;Node2 -->
<g id="edge1" class="edge"><title>Node1&#45;&gt;Node2</title>
<path fill="none" stroke="midnightblue" d="M199,-194.532C199,-185.361 199,-175.245 199,-167.293"/>
<polygon fill="midnightblue" stroke="midnightblue" points="195.5,-194.679 199,-204.679 202.5,-194.679 195.5,-194.679"/>
</g>
<!-- Node3 -->
<g id="node3" class="node"><title>Node3</title>
<g id="a_node3"><a xlink:href="../../db/df6/mainapp_8h.html" target="_top" xlink:title="C++/customIrcServer\l/mainapp.h">
<polygon fill="white" stroke="black" points="63,-69 63,-99 171,-99 171,-69 63,-69"/>
<text text-anchor="start" x="71" y="-87" font-family="Helvetica,sans-Serif" font-size="10.00">C++/customIrcServer</text>
<text text-anchor="middle" x="117" y="-76" font-family="Helvetica,sans-Serif" font-size="10.00">/mainapp.h</text>
</a>
</g>
</g>
<!-- Node1&#45;&gt;Node3 -->
<g id="edge6" class="edge"><title>Node1&#45;&gt;Node3</title>
<path fill="none" stroke="midnightblue" d="M166.281,-199.059C155.14,-190.749 143.596,-180.179 136,-168 122.623,-146.552 118.639,-116.724 117.469,-99.2809"/>
<polygon fill="midnightblue" stroke="midnightblue" points="164.46,-202.058 174.649,-204.963 168.495,-196.338 164.46,-202.058"/>
</g>
<!-- Node7 -->
<g id="node7" class="node"><title>Node7</title>
<g id="a_node7"><a xlink:href="../../d2/d44/uiclient_8cpp.html" target="_top" xlink:title="C++/customIrcServer\l/uiclient.cpp">
<polygon fill="white" stroke="black" points="271,-137 271,-167 379,-167 379,-137 271,-137"/>
<text text-anchor="start" x="279" y="-155" font-family="Helvetica,sans-Serif" font-size="10.00">C++/customIrcServer</text>
<text text-anchor="middle" x="325" y="-144" font-family="Helvetica,sans-Serif" font-size="10.00">/uiclient.cpp</text>
</a>
</g>
</g>
<!-- Node1&#45;&gt;Node7 -->
<g id="edge7" class="edge"><title>Node1&#45;&gt;Node7</title>
<path fill="none" stroke="midnightblue" d="M234.897,-200.197C254.974,-189.68 279.589,-176.787 298.015,-167.135"/>
<polygon fill="midnightblue" stroke="midnightblue" points="233.264,-197.101 226.03,-204.841 236.513,-203.302 233.264,-197.101"/>
</g>
<!-- Node2&#45;&gt;Node3 -->
<g id="edge2" class="edge"><title>Node2&#45;&gt;Node3</title>
<path fill="none" stroke="midnightblue" d="M173.294,-130.309C160.662,-120.143 145.77,-108.156 134.476,-99.0663"/>
<polygon fill="midnightblue" stroke="midnightblue" points="171.223,-133.135 181.207,-136.679 175.612,-127.682 171.223,-133.135"/>
</g>
<!-- Node6 -->
<g id="node6" class="node"><title>Node6</title>
<g id="a_node6"><a xlink:href="../../df/db8/uiserver_8cpp.html" target="_top" xlink:title="C++/customIrcServer\l/uiserver.cpp">
<polygon fill="white" stroke="black" points="189,-69 189,-99 297,-99 297,-69 189,-69"/>
<text text-anchor="start" x="197" y="-87" font-family="Helvetica,sans-Serif" font-size="10.00">C++/customIrcServer</text>
<text text-anchor="middle" x="243" y="-76" font-family="Helvetica,sans-Serif" font-size="10.00">/uiserver.cpp</text>
</a>
</g>
</g>
<!-- Node2&#45;&gt;Node6 -->
<g id="edge5" class="edge"><title>Node2&#45;&gt;Node6</title>
<path fill="none" stroke="midnightblue" d="M214.124,-128.314C220.541,-118.689 227.824,-107.763 233.471,-99.2931"/>
<polygon fill="midnightblue" stroke="midnightblue" points="211.182,-126.417 208.547,-136.679 217.007,-130.3 211.182,-126.417"/>
</g>
<!-- Node4 -->
<g id="node4" class="node"><title>Node4</title>
<g id="a_node4"><a xlink:href="../../dc/d17/custom_irc_server_2main_8cpp.html" target="_top" xlink:title="C++/customIrcServer\l/main.cpp">
<polygon fill="white" stroke="black" points="0,-1 0,-31 108,-31 108,-1 0,-1"/>
<text text-anchor="start" x="8" y="-19" font-family="Helvetica,sans-Serif" font-size="10.00">C++/customIrcServer</text>
<text text-anchor="middle" x="54" y="-8" font-family="Helvetica,sans-Serif" font-size="10.00">/main.cpp</text>
</a>
</g>
</g>
<!-- Node3&#45;&gt;Node4 -->
<g id="edge3" class="edge"><title>Node3&#45;&gt;Node4</title>
<path fill="none" stroke="midnightblue" d="M96.185,-61.1939C86.7986,-51.3605 75.9763,-40.0228 67.6434,-31.2931"/>
<polygon fill="midnightblue" stroke="midnightblue" points="93.8934,-63.8621 103.33,-68.679 98.9569,-59.0287 93.8934,-63.8621"/>
</g>
<!-- Node5 -->
<g id="node5" class="node"><title>Node5</title>
<g id="a_node5"><a xlink:href="../../d8/d88/mainapp_8cpp.html" target="_top" xlink:title="C++/customIrcServer\l/mainapp.cpp">
<polygon fill="white" stroke="black" points="126,-1 126,-31 234,-31 234,-1 126,-1"/>
<text text-anchor="start" x="134" y="-19" font-family="Helvetica,sans-Serif" font-size="10.00">C++/customIrcServer</text>
<text text-anchor="middle" x="180" y="-8" font-family="Helvetica,sans-Serif" font-size="10.00">/mainapp.cpp</text>
</a>
</g>
</g>
<!-- Node3&#45;&gt;Node5 -->
<g id="edge4" class="edge"><title>Node3&#45;&gt;Node5</title>
<path fill="none" stroke="midnightblue" d="M137.815,-61.1939C147.201,-51.3605 158.024,-40.0228 166.357,-31.2931"/>
<polygon fill="midnightblue" stroke="midnightblue" points="135.043,-59.0287 130.67,-68.679 140.107,-63.8621 135.043,-59.0287"/>
</g>
</g>
</svg>
