<?xml version="1.0" encoding="UTF-8" standalone="no"?>
<!DOCTYPE svg PUBLIC "-//W3C//DTD SVG 1.1//EN"
 "http://www.w3.org/Graphics/SVG/1.1/DTD/svg11.dtd">
<!-- Generated by graphviz version 2.30.1 (20130303.0817)
 -->
<!-- Title: C++/customIrcClient/main.cpp Pages: 1 -->
<!--zoomable 444 -->
<svg id="main" version="1.1" xmlns="http://www.w3.org/2000/svg" xmlns:xlink="http://www.w3.org/1999/xlink" xml:space="preserve" onload="init(evt)">
        <defs>
                <circle id="rim" cx="0" cy="0" r="7"/>
                <circle id="rim2" cx="0" cy="0" r="3.5"/>
                <g id="zoomPlus">
                        <use xlink:href="#rim" fill="#404040">
                                <set attributeName="fill" to="#808080" begin="zoomplus.mouseover" end="zoomplus.mouseout"/>
                        </use>
                        <path d="M-4,0h8M0,-4v8" fill="none" stroke="white" stroke-width="1.5" pointer-events="none"/>
                </g>
                <g id="zoomMin">
                        <use xlink:href="#rim" fill="#404040">
                                <set attributeName="fill" to="#808080" begin="zoomminus.mouseover" end="zoomminus.mouseout"/>
                        </use>
                        <path d="M-4,0h8" fill="none" stroke="white" stroke-width="1.5" pointer-events="none"/>
                </g>
                <g id="dirArrow">
                        <path fill="none" stroke="white" stroke-width="1.5" d="M0,-3.0v7 M-2.5,-0.5L0,-3.0L2.5,-0.5"/>
                </g>
               <g id="resetDef">
                       <use xlink:href="#rim2" fill="#404040">
                               <set attributeName="fill" to="#808080" begin="reset.mouseover" end="reset.mouseout"/>
                       </use>
               </g>
        </defs>

<script type="text/javascript">
var viewWidth = 1901;
var viewHeight = 444;
var sectionId = 'dynsection-0';
</script>
<script xlink:href="../../svgpan.js"/>
<svg id="graph" class="graph">
<g id="viewport">
<title>C++/customIrcClient/main.cpp</title>
<polygon fill="white" stroke="white" points="-4,5 -4,-440 1898,-440 1898,5 -4,5"/>
<!-- Node1 -->
<g id="node1" class="node"><title>Node1</title>
<polygon fill="#bfbfbf" stroke="black" points="798,-405 798,-435 904,-435 904,-405 798,-405"/>
<text text-anchor="start" x="806" y="-423" font-family="Helvetica,sans-Serif" font-size="10.00">C++/customIrcClient</text>
<text text-anchor="middle" x="851" y="-412" font-family="Helvetica,sans-Serif" font-size="10.00">/main.cpp</text>
</g>
<!-- Node2 -->
<g id="node2" class="node"><title>Node2</title>
<g id="a_node2"><a xlink:href="../../d9/d53/mainwindow_8h.xhtml" target="_top" xlink:title="mainwindow.h">
<polygon fill="white" stroke="black" points="766.5,-348.5 766.5,-367.5 843.5,-367.5 843.5,-348.5 766.5,-348.5"/>
<text text-anchor="middle" x="805" y="-355.5" font-family="Helvetica,sans-Serif" font-size="10.00">mainwindow.h</text>
</a>
</g>
</g>
<!-- Node1&#45;&gt;Node2 -->
<g id="edge1" class="edge"><title>Node1&#45;&gt;Node2</title>
<path fill="none" stroke="midnightblue" d="M840.099,-404.781C833.414,-396.062 824.824,-384.857 817.815,-375.715"/>
<polygon fill="midnightblue" stroke="midnightblue" points="820.555,-373.537 811.693,-367.731 815,-377.796 820.555,-373.537"/>
</g>
<!-- Node47 -->
<g id="node47" class="node"><title>Node47</title>
<polygon fill="white" stroke="#bfbfbf" points="862,-348.5 862,-367.5 934,-367.5 934,-348.5 862,-348.5"/>
<text text-anchor="middle" x="898" y="-355.5" font-family="Helvetica,sans-Serif" font-size="10.00">QApplication</text>
</g>
<!-- Node1&#45;&gt;Node47 -->
<g id="edge76" class="edge"><title>Node1&#45;&gt;Node47</title>
<path fill="none" stroke="midnightblue" d="M862.138,-404.781C868.968,-396.062 877.745,-384.857 884.906,-375.715"/>
<polygon fill="midnightblue" stroke="midnightblue" points="887.75,-377.761 891.161,-367.731 882.239,-373.445 887.75,-377.761"/>
</g>
<!-- Node3 -->
<g id="node3" class="node"><title>Node3</title>
<polygon fill="white" stroke="#bfbfbf" points="442,-292.5 442,-311.5 522,-311.5 522,-292.5 442,-292.5"/>
<text text-anchor="middle" x="482" y="-299.5" font-family="Helvetica,sans-Serif" font-size="10.00">QMainWindow</text>
</g>
<!-- Node2&#45;&gt;Node3 -->
<g id="edge2" class="edge"><title>Node2&#45;&gt;Node3</title>
<path fill="none" stroke="midnightblue" d="M766.391,-350.895C715.227,-342.752 621.884,-327.717 532.172,-312.178"/>
<polygon fill="midnightblue" stroke="midnightblue" points="532.552,-308.692 522.1,-310.429 531.354,-315.589 532.552,-308.692"/>
</g>
<!-- Node4 -->
<g id="node4" class="node"><title>Node4</title>
<polygon fill="white" stroke="#bfbfbf" points="540,-292.5 540,-311.5 580,-311.5 580,-292.5 540,-292.5"/>
<text text-anchor="middle" x="560" y="-299.5" font-family="Helvetica,sans-Serif" font-size="10.00">QList</text>
</g>
<!-- Node2&#45;&gt;Node4 -->
<g id="edge3" class="edge"><title>Node2&#45;&gt;Node4</title>
<path fill="none" stroke="midnightblue" d="M766.371,-349.349C723.963,-340.813 653.929,-326.313 594,-312 592.731,-311.697 591.436,-311.381 590.129,-311.058"/>
<polygon fill="midnightblue" stroke="midnightblue" points="590.65,-307.579 580.095,-308.492 588.916,-314.361 590.65,-307.579"/>
</g>
<!-- Node5 -->
<g id="node5" class="node"><title>Node5</title>
<polygon fill="white" stroke="#bfbfbf" points="724,-56.5 724,-75.5 774,-75.5 774,-56.5 724,-56.5"/>
<text text-anchor="middle" x="749" y="-63.5" font-family="Helvetica,sans-Serif" font-size="10.00">QString</text>
</g>
<!-- Node2&#45;&gt;Node5 -->
<g id="edge4" class="edge"><title>Node2&#45;&gt;Node5</title>
<path fill="none" stroke="midnightblue" d="M803.324,-348.321C795.611,-308.38 763.447,-141.813 752.594,-85.6119"/>
<polygon fill="midnightblue" stroke="midnightblue" points="756.002,-84.8003 750.669,-75.6453 749.129,-86.1275 756.002,-84.8003"/>
</g>
<!-- Node6 -->
<g id="node6" class="node"><title>Node6</title>
<polygon fill="white" stroke="#bfbfbf" points="1741.5,-292.5 1741.5,-311.5 1810.5,-311.5 1810.5,-292.5 1741.5,-292.5"/>
<text text-anchor="middle" x="1776" y="-299.5" font-family="Helvetica,sans-Serif" font-size="10.00">QScrollArea</text>
</g>
<!-- Node2&#45;&gt;Node6 -->
<g id="edge5" class="edge"><title>Node2&#45;&gt;Node6</title>
<path fill="none" stroke="midnightblue" d="M843.7,-349.248C846.838,-348.771 849.967,-348.345 853,-348 1239.28,-304.063 1340.64,-355.223 1727,-312 1728.31,-311.854 1729.63,-311.694 1730.96,-311.521"/>
<polygon fill="midnightblue" stroke="midnightblue" points="1731.91,-314.919 1741.29,-309.998 1730.89,-307.994 1731.91,-314.919"/>
</g>
<!-- Node7 -->
<g id="node7" class="node"><title>Node7</title>
<polygon fill="white" stroke="#bfbfbf" points="1829,-292.5 1829,-311.5 1893,-311.5 1893,-292.5 1829,-292.5"/>
<text text-anchor="middle" x="1861" y="-299.5" font-family="Helvetica,sans-Serif" font-size="10.00">QScrollBar</text>
</g>
<!-- Node2&#45;&gt;Node7 -->
<g id="edge6" class="edge"><title>Node2&#45;&gt;Node7</title>
<path fill="none" stroke="midnightblue" d="M843.699,-349.235C846.837,-348.761 849.967,-348.339 853,-348 1279.97,-300.281 1392.68,-365.211 1819,-312 1819.1,-311.987 1819.2,-311.974 1819.31,-311.962"/>
<polygon fill="midnightblue" stroke="midnightblue" points="1819.65,-315.45 1828.99,-310.458 1818.58,-308.533 1819.65,-315.45"/>
</g>
<!-- Node8 -->
<g id="node8" class="node"><title>Node8</title>
<g id="a_node8"><a xlink:href="../../d7/d62/clslog_8h.xhtml" target="_top" xlink:title="../resources/clslog.h">
<polygon fill="white" stroke="black" points="1177.5,-56.5 1177.5,-75.5 1282.5,-75.5 1282.5,-56.5 1177.5,-56.5"/>
<text text-anchor="middle" x="1230" y="-63.5" font-family="Helvetica,sans-Serif" font-size="10.00">../resources/clslog.h</text>
</a>
</g>
</g>
<!-- Node2&#45;&gt;Node8 -->
<g id="edge7" class="edge"><title>Node2&#45;&gt;Node8</title>
<path fill="none" stroke="midnightblue" d="M843.706,-349.3C846.843,-348.811 849.97,-348.368 853,-348 1133.61,-313.882 1209.95,-362.927 1488,-312 1591.14,-293.108 1713,-345.861 1713,-241 1713,-241 1713,-241 1713,-177 1713,-91.801 1423.67,-72.5917 1292.88,-68.2607"/>
<polygon fill="midnightblue" stroke="midnightblue" points="1292.71,-64.754 1282.61,-67.9406 1292.49,-71.7506 1292.71,-64.754"/>
</g>
<!-- Node14 -->
<g id="node14" class="node"><title>Node14</title>
<g id="a_node14"><a xlink:href="../../db/d97/clsevent_8h.xhtml" target="_top" xlink:title="../resources/clsevent.h">
<polygon fill="white" stroke="black" points="1132.5,-112.5 1132.5,-131.5 1247.5,-131.5 1247.5,-112.5 1132.5,-112.5"/>
<text text-anchor="middle" x="1190" y="-119.5" font-family="Helvetica,sans-Serif" font-size="10.00">../resources/clsevent.h</text>
</a>
</g>
</g>
<!-- Node2&#45;&gt;Node14 -->
<g id="edge13" class="edge"><title>Node2&#45;&gt;Node14</title>
<path fill="none" stroke="midnightblue" d="M843.739,-349.533C846.868,-348.991 849.985,-348.473 853,-348 1013.66,-322.782 1458.13,-364.797 1579,-256 1608.55,-229.405 1621.51,-197.621 1595,-168 1572.97,-143.392 1367.61,-130.741 1258.08,-125.696"/>
<polygon fill="midnightblue" stroke="midnightblue" points="1257.94,-122.186 1247.79,-125.232 1257.62,-129.179 1257.94,-122.186"/>
</g>
<!-- Node17 -->
<g id="node17" class="node"><title>Node17</title>
<g id="a_node17"><a xlink:href="../../d3/d33/chatbox_8h.xhtml" target="_top" xlink:title="chatbox.h">
<polygon fill="white" stroke="black" points="223.5,-230.5 223.5,-249.5 282.5,-249.5 282.5,-230.5 223.5,-230.5"/>
<text text-anchor="middle" x="253" y="-237.5" font-family="Helvetica,sans-Serif" font-size="10.00">chatbox.h</text>
</a>
</g>
</g>
<!-- Node2&#45;&gt;Node17 -->
<g id="edge19" class="edge"><title>Node2&#45;&gt;Node17</title>
<path fill="none" stroke="midnightblue" d="M766.429,-349.432C730.51,-341.836 675.777,-328.854 630,-312 610.974,-304.995 608.427,-297.801 589,-292 467.51,-255.721 430.234,-281.335 306,-256 300.861,-254.952 295.492,-253.665 290.226,-252.289"/>
<polygon fill="midnightblue" stroke="midnightblue" points="290.886,-248.84 280.317,-249.572 289.036,-255.591 290.886,-248.84"/>
</g>
<!-- Node31 -->
<g id="node31" class="node"><title>Node31</title>
<g id="a_node31"><a xlink:href="../../d5/dbc/clsserverconn_8h.xhtml" target="_top" xlink:title="clsserverconn.h">
<polygon fill="white" stroke="black" points="885,-292.5 885,-311.5 969,-311.5 969,-292.5 885,-292.5"/>
<text text-anchor="middle" x="927" y="-299.5" font-family="Helvetica,sans-Serif" font-size="10.00">clsserverconn.h</text>
</a>
</g>
</g>
<!-- Node2&#45;&gt;Node31 -->
<g id="edge42" class="edge"><title>Node2&#45;&gt;Node31</title>
<path fill="none" stroke="midnightblue" d="M824.331,-348.444C844.32,-339.596 875.743,-325.687 898.564,-315.586"/>
<polygon fill="midnightblue" stroke="midnightblue" points="900.032,-318.764 907.759,-311.516 897.198,-312.363 900.032,-318.764"/>
</g>
<!-- Node44 -->
<g id="node44" class="node"><title>Node44</title>
<g id="a_node44"><a xlink:href="../../db/dd7/custom_irc_client_2clssettings_8h.xhtml" target="_top" xlink:title="clssettings.h">
<polygon fill="white" stroke="black" points="517,-230.5 517,-249.5 589,-249.5 589,-230.5 517,-230.5"/>
<text text-anchor="middle" x="553" y="-237.5" font-family="Helvetica,sans-Serif" font-size="10.00">clssettings.h</text>
</a>
</g>
</g>
<!-- Node2&#45;&gt;Node44 -->
<g id="edge70" class="edge"><title>Node2&#45;&gt;Node44</title>
<path fill="none" stroke="midnightblue" d="M772.859,-348.487C745.009,-340.598 703.965,-327.725 670,-312 634.563,-295.593 596.403,-270.988 573.623,-255.475"/>
<polygon fill="midnightblue" stroke="midnightblue" points="575.351,-252.415 565.13,-249.625 571.38,-258.18 575.351,-252.415"/>
</g>
<!-- Node9 -->
<g id="node9" class="node"><title>Node9</title>
<polygon fill="white" stroke="#bfbfbf" points="1300,-0.5 1300,-19.5 1352,-19.5 1352,-0.5 1300,-0.5"/>
<text text-anchor="middle" x="1326" y="-7.5" font-family="Helvetica,sans-Serif" font-size="10.00">QDebug</text>
</g>
<!-- Node8&#45;&gt;Node9 -->
<g id="edge8" class="edge"><title>Node8&#45;&gt;Node9</title>
<path fill="none" stroke="midnightblue" d="M1245.42,-56.324C1260.54,-47.8215 1283.82,-34.7288 1301.47,-24.7975"/>
<polygon fill="midnightblue" stroke="midnightblue" points="1303.61,-27.6077 1310.61,-19.6545 1300.18,-21.5066 1303.61,-27.6077"/>
</g>
<!-- Node10 -->
<g id="node10" class="node"><title>Node10</title>
<polygon fill="white" stroke="#bfbfbf" points="1060.5,-0.5 1060.5,-19.5 1125.5,-19.5 1125.5,-0.5 1060.5,-0.5"/>
<text text-anchor="middle" x="1093" y="-7.5" font-family="Helvetica,sans-Serif" font-size="10.00">QDateTime</text>
</g>
<!-- Node8&#45;&gt;Node10 -->
<g id="edge9" class="edge"><title>Node8&#45;&gt;Node10</title>
<path fill="none" stroke="midnightblue" d="M1208.29,-56.4435C1185.65,-47.5171 1149.93,-33.4387 1124.25,-23.3168"/>
<polygon fill="midnightblue" stroke="midnightblue" points="1125.19,-19.9273 1114.61,-19.5164 1122.63,-26.4397 1125.19,-19.9273"/>
</g>
<!-- Node11 -->
<g id="node11" class="node"><title>Node11</title>
<polygon fill="white" stroke="#bfbfbf" points="1370.5,-0.5 1370.5,-19.5 1411.5,-19.5 1411.5,-0.5 1370.5,-0.5"/>
<text text-anchor="middle" x="1391" y="-7.5" font-family="Helvetica,sans-Serif" font-size="10.00">string</text>
</g>
<!-- Node8&#45;&gt;Node11 -->
<g id="edge10" class="edge"><title>Node8&#45;&gt;Node11</title>
<path fill="none" stroke="midnightblue" d="M1255.51,-56.4435C1284.03,-46.8782 1330.19,-31.3969 1360.57,-21.2075"/>
<polygon fill="midnightblue" stroke="midnightblue" points="1361.85,-24.4693 1370.22,-17.971 1359.62,-17.8327 1361.85,-24.4693"/>
</g>
<!-- Node12 -->
<g id="node12" class="node"><title>Node12</title>
<polygon fill="white" stroke="#bfbfbf" points="1144,-0.5 1144,-19.5 1198,-19.5 1198,-0.5 1144,-0.5"/>
<text text-anchor="middle" x="1171" y="-7.5" font-family="Helvetica,sans-Serif" font-size="10.00">iostream</text>
</g>
<!-- Node8&#45;&gt;Node12 -->
<g id="edge11" class="edge"><title>Node8&#45;&gt;Node12</title>
<path fill="none" stroke="midnightblue" d="M1220.52,-56.324C1211.8,-48.3414 1198.66,-36.3128 1188.1,-26.6529"/>
<polygon fill="midnightblue" stroke="midnightblue" points="1190.39,-24.0036 1180.65,-19.8339 1185.67,-29.1674 1190.39,-24.0036"/>
</g>
<!-- Node13 -->
<g id="node13" class="node"><title>Node13</title>
<polygon fill="white" stroke="#bfbfbf" points="1216.5,-0.5 1216.5,-19.5 1281.5,-19.5 1281.5,-0.5 1216.5,-0.5"/>
<text text-anchor="middle" x="1249" y="-7.5" font-family="Helvetica,sans-Serif" font-size="10.00">QStringList</text>
</g>
<!-- Node8&#45;&gt;Node13 -->
<g id="edge12" class="edge"><title>Node8&#45;&gt;Node13</title>
<path fill="none" stroke="midnightblue" d="M1233.14,-56.083C1235.68,-48.8486 1239.36,-38.4087 1242.53,-29.3968"/>
<polygon fill="midnightblue" stroke="midnightblue" points="1245.9,-30.3459 1245.92,-19.7511 1239.3,-28.0225 1245.9,-30.3459"/>
</g>
<!-- Node15 -->
<g id="node15" class="node"><title>Node15</title>
<polygon fill="white" stroke="#bfbfbf" points="819.5,-56.5 819.5,-75.5 872.5,-75.5 872.5,-56.5 819.5,-56.5"/>
<text text-anchor="middle" x="846" y="-63.5" font-family="Helvetica,sans-Serif" font-size="10.00">QObject</text>
</g>
<!-- Node14&#45;&gt;Node15 -->
<g id="edge14" class="edge"><title>Node14&#45;&gt;Node15</title>
<path fill="none" stroke="midnightblue" d="M1135.49,-112.444C1064.75,-101.339 943.22,-82.2613 882.606,-72.7463"/>
<polygon fill="midnightblue" stroke="midnightblue" points="883.141,-69.2875 872.719,-71.1943 882.055,-76.2028 883.141,-69.2875"/>
</g>
<!-- Node14&#45;&gt;Node5 -->
<g id="edge15" class="edge"><title>Node14&#45;&gt;Node5</title>
<path fill="none" stroke="midnightblue" d="M1132.48,-114.641C1058.16,-106.317 924.811,-91.0144 811,-76 802.242,-74.8446 792.801,-73.5164 783.991,-72.2414"/>
<polygon fill="midnightblue" stroke="midnightblue" points="784.419,-68.7669 774.018,-70.7826 783.406,-75.6932 784.419,-68.7669"/>
</g>
<!-- Node16 -->
<g id="node16" class="node"><title>Node16</title>
<polygon fill="white" stroke="#bfbfbf" points="934.5,-56.5 934.5,-75.5 989.5,-75.5 989.5,-56.5 934.5,-56.5"/>
<text text-anchor="middle" x="962" y="-63.5" font-family="Helvetica,sans-Serif" font-size="10.00">QVariant</text>
</g>
<!-- Node14&#45;&gt;Node16 -->
<g id="edge16" class="edge"><title>Node14&#45;&gt;Node16</title>
<path fill="none" stroke="midnightblue" d="M1153.87,-112.444C1111.68,-102.449 1042.21,-85.9971 999.452,-75.8701"/>
<polygon fill="midnightblue" stroke="midnightblue" points="1000.25,-72.462 989.711,-73.5631 998.635,-79.2736 1000.25,-72.462"/>
</g>
<!-- Node14&#45;&gt;Node10 -->
<g id="edge17" class="edge"><title>Node14&#45;&gt;Node10</title>
<path fill="none" stroke="midnightblue" d="M1182.39,-112.368C1166.24,-94.0547 1128.32,-51.0489 1107.43,-27.3624"/>
<polygon fill="midnightblue" stroke="midnightblue" points="1109.82,-24.7769 1100.58,-19.5914 1104.56,-29.4067 1109.82,-24.7769"/>
</g>
<!-- Node14&#45;&gt;Node8 -->
<g id="edge18" class="edge"><title>Node14&#45;&gt;Node8</title>
<path fill="none" stroke="midnightblue" d="M1196.61,-112.083C1202.26,-104.455 1210.54,-93.2645 1217.45,-83.9408"/>
<polygon fill="midnightblue" stroke="midnightblue" points="1220.38,-85.87 1223.52,-75.7511 1214.75,-81.7034 1220.38,-85.87"/>
</g>
<!-- Node18 -->
<g id="node18" class="node"><title>Node18</title>
<polygon fill="white" stroke="#bfbfbf" points="-0.5,-112.5 -0.5,-131.5 54.5,-131.5 54.5,-112.5 -0.5,-112.5"/>
<text text-anchor="middle" x="27" y="-119.5" font-family="Helvetica,sans-Serif" font-size="10.00">QWidget</text>
</g>
<!-- Node17&#45;&gt;Node18 -->
<g id="edge20" class="edge"><title>Node17&#45;&gt;Node18</title>
<path fill="none" stroke="midnightblue" d="M223.265,-236.348C169.124,-230.867 57.7484,-216.359 33,-188 22.1814,-175.603 21.7042,-156.361 23.3182,-142.025"/>
<polygon fill="midnightblue" stroke="midnightblue" points="26.8293,-142.223 24.9032,-131.804 19.912,-141.15 26.8293,-142.223"/>
</g>
<!-- Node19 -->
<g id="node19" class="node"><title>Node19</title>
<polygon fill="white" stroke="#bfbfbf" points="348.5,-168.5 348.5,-187.5 401.5,-187.5 401.5,-168.5 348.5,-168.5"/>
<text text-anchor="middle" x="375" y="-175.5" font-family="Helvetica,sans-Serif" font-size="10.00">QVector</text>
</g>
<!-- Node17&#45;&gt;Node19 -->
<g id="edge21" class="edge"><title>Node17&#45;&gt;Node19</title>
<path fill="none" stroke="midnightblue" d="M270.48,-230.403C290.863,-220.379 324.775,-203.701 348.425,-192.07"/>
<polygon fill="midnightblue" stroke="midnightblue" points="350.124,-195.135 357.553,-187.581 347.035,-188.853 350.124,-195.135"/>
</g>
<!-- Node20 -->
<g id="node20" class="node"><title>Node20</title>
<polygon fill="white" stroke="#bfbfbf" points="221.5,-112.5 221.5,-131.5 266.5,-131.5 266.5,-112.5 221.5,-112.5"/>
<text text-anchor="middle" x="244" y="-119.5" font-family="Helvetica,sans-Serif" font-size="10.00">QTime</text>
</g>
<!-- Node17&#45;&gt;Node20 -->
<g id="edge22" class="edge"><title>Node17&#45;&gt;Node20</title>
<path fill="none" stroke="midnightblue" d="M252.324,-230.281C250.87,-211.547 247.421,-167.098 245.449,-141.682"/>
<polygon fill="midnightblue" stroke="midnightblue" points="248.923,-141.204 244.66,-131.505 241.944,-141.746 248.923,-141.204"/>
</g>
<!-- Node17&#45;&gt;Node14 -->
<g id="edge23" class="edge"><title>Node17&#45;&gt;Node14</title>
<path fill="none" stroke="midnightblue" d="M282.878,-237.234C414.936,-229.386 941.199,-197.628 975,-188 993.355,-182.772 995.184,-174.843 1013,-168 1052.47,-152.841 1098.84,-141.266 1134.22,-133.653"/>
<polygon fill="midnightblue" stroke="midnightblue" points="1135.29,-137.003 1144.35,-131.515 1133.85,-130.154 1135.29,-137.003"/>
</g>
<!-- Node21 -->
<g id="node21" class="node"><title>Node21</title>
<g id="a_node21"><a xlink:href="../../d5/d98/custom_irc_client_2ircuser_8h.xhtml" target="_top" xlink:title="ircuser.h">
<polygon fill="white" stroke="black" points="417,-112.5 417,-131.5 471,-131.5 471,-112.5 417,-112.5"/>
<text text-anchor="middle" x="444" y="-119.5" font-family="Helvetica,sans-Serif" font-size="10.00">ircuser.h</text>
</a>
</g>
</g>
<!-- Node17&#45;&gt;Node21 -->
<g id="edge24" class="edge"><title>Node17&#45;&gt;Node21</title>
<path fill="none" stroke="midnightblue" d="M262.008,-230.204C277.13,-215.785 309.018,-186.843 340,-168 362.056,-154.586 388.826,-143.1 409.682,-135.09"/>
<polygon fill="midnightblue" stroke="midnightblue" points="410.972,-138.344 419.103,-131.552 408.511,-131.791 410.972,-138.344"/>
</g>
<!-- Node27 -->
<g id="node27" class="node"><title>Node27</title>
<g id="a_node27"><a xlink:href="../../d4/d48/chatentry_8h.xhtml" target="_top" xlink:title="chatentry.h">
<polygon fill="white" stroke="black" points="150.5,-168.5 150.5,-187.5 215.5,-187.5 215.5,-168.5 150.5,-168.5"/>
<text text-anchor="middle" x="183" y="-175.5" font-family="Helvetica,sans-Serif" font-size="10.00">chatentry.h</text>
</a>
</g>
</g>
<!-- Node17&#45;&gt;Node27 -->
<g id="edge33" class="edge"><title>Node17&#45;&gt;Node27</title>
<path fill="none" stroke="midnightblue" d="M242.971,-230.403C231.951,-220.958 214.04,-205.606 200.657,-194.134"/>
<polygon fill="midnightblue" stroke="midnightblue" points="202.881,-191.431 193.011,-187.581 198.325,-196.746 202.881,-191.431"/>
</g>
<!-- Node30 -->
<g id="node30" class="node"><title>Node30</title>
<g id="a_node30"><a xlink:href="../../d1/d3d/chatnotification_8h.xhtml" target="_top" xlink:title="chatnotification.h">
<polygon fill="white" stroke="black" points="42,-168.5 42,-187.5 132,-187.5 132,-168.5 42,-168.5"/>
<text text-anchor="middle" x="87" y="-175.5" font-family="Helvetica,sans-Serif" font-size="10.00">chatnotification.h</text>
</a>
</g>
</g>
<!-- Node17&#45;&gt;Node30 -->
<g id="edge38" class="edge"><title>Node17&#45;&gt;Node30</title>
<path fill="none" stroke="midnightblue" d="M229.216,-230.403C200.618,-220.067 152.449,-202.656 120.198,-190.999"/>
<polygon fill="midnightblue" stroke="midnightblue" points="121.334,-187.688 110.74,-187.581 118.954,-194.271 121.334,-187.688"/>
</g>
<!-- Node21&#45;&gt;Node15 -->
<g id="edge25" class="edge"><title>Node21&#45;&gt;Node15</title>
<path fill="none" stroke="midnightblue" d="M471.256,-117.475C528.845,-110.007 667.135,-91.9658 783,-76 791.482,-74.8313 800.601,-73.5454 809.195,-72.3205"/>
<polygon fill="midnightblue" stroke="midnightblue" points="809.936,-75.7502 819.339,-70.8684 808.944,-68.8208 809.936,-75.7502"/>
</g>
<!-- Node21&#45;&gt;Node5 -->
<g id="edge26" class="edge"><title>Node21&#45;&gt;Node5</title>
<path fill="none" stroke="midnightblue" d="M471.084,-117.365C518.367,-110.835 619.202,-96.0909 713.796,-76.0928"/>
<polygon fill="midnightblue" stroke="midnightblue" points="714.766,-79.4645 723.813,-73.95 713.302,-72.6193 714.766,-79.4645"/>
</g>
<!-- Node22 -->
<g id="node22" class="node"><title>Node22</title>
<polygon fill="white" stroke="#bfbfbf" points="408.5,-56.5 408.5,-75.5 455.5,-75.5 455.5,-56.5 408.5,-56.5"/>
<text text-anchor="middle" x="432" y="-63.5" font-family="Helvetica,sans-Serif" font-size="10.00">QColor</text>
</g>
<!-- Node21&#45;&gt;Node22 -->
<g id="edge27" class="edge"><title>Node21&#45;&gt;Node22</title>
<path fill="none" stroke="midnightblue" d="M442.018,-112.083C440.428,-104.927 438.141,-94.6353 436.154,-85.6911"/>
<polygon fill="midnightblue" stroke="midnightblue" points="439.531,-84.7537 433.945,-75.7511 432.697,-86.2722 439.531,-84.7537"/>
</g>
<!-- Node23 -->
<g id="node23" class="node"><title>Node23</title>
<polygon fill="white" stroke="#bfbfbf" points="474,-56.5 474,-75.5 558,-75.5 558,-56.5 474,-56.5"/>
<text text-anchor="middle" x="516" y="-63.5" font-family="Helvetica,sans-Serif" font-size="10.00">QGraphicsView</text>
</g>
<!-- Node21&#45;&gt;Node23 -->
<g id="edge28" class="edge"><title>Node21&#45;&gt;Node23</title>
<path fill="none" stroke="midnightblue" d="M455.568,-112.324C466.42,-104.185 482.881,-91.8395 495.883,-82.0874"/>
<polygon fill="midnightblue" stroke="midnightblue" points="498.321,-84.6339 504.221,-75.8339 494.121,-79.0339 498.321,-84.6339"/>
</g>
<!-- Node24 -->
<g id="node24" class="node"><title>Node24</title>
<polygon fill="white" stroke="#bfbfbf" points="576,-56.5 576,-75.5 706,-75.5 706,-56.5 576,-56.5"/>
<text text-anchor="middle" x="641" y="-63.5" font-family="Helvetica,sans-Serif" font-size="10.00">QNetworkAccessManager</text>
</g>
<!-- Node21&#45;&gt;Node24 -->
<g id="edge29" class="edge"><title>Node21&#45;&gt;Node24</title>
<path fill="none" stroke="midnightblue" d="M471.392,-113.492C504.777,-104.34 561.499,-88.7922 600.071,-78.219"/>
<polygon fill="midnightblue" stroke="midnightblue" points="601.229,-81.5309 609.948,-75.5118 599.378,-74.78 601.229,-81.5309"/>
</g>
<!-- Node25 -->
<g id="node25" class="node"><title>Node25</title>
<polygon fill="white" stroke="#bfbfbf" points="192.5,-56.5 192.5,-75.5 287.5,-75.5 287.5,-56.5 192.5,-56.5"/>
<text text-anchor="middle" x="240" y="-63.5" font-family="Helvetica,sans-Serif" font-size="10.00">QNetworkRequest</text>
</g>
<!-- Node21&#45;&gt;Node25 -->
<g id="edge30" class="edge"><title>Node21&#45;&gt;Node25</title>
<path fill="none" stroke="midnightblue" d="M416.91,-113.829C382.44,-104.705 322.53,-88.8461 282.087,-78.1406"/>
<polygon fill="midnightblue" stroke="midnightblue" points="282.814,-74.7127 272.251,-75.5371 281.023,-81.4796 282.814,-74.7127"/>
</g>
<!-- Node26 -->
<g id="node26" class="node"><title>Node26</title>
<polygon fill="white" stroke="#bfbfbf" points="306,-56.5 306,-75.5 390,-75.5 390,-56.5 306,-56.5"/>
<text text-anchor="middle" x="348" y="-63.5" font-family="Helvetica,sans-Serif" font-size="10.00">QNetworkReply</text>
</g>
<!-- Node21&#45;&gt;Node26 -->
<g id="edge31" class="edge"><title>Node21&#45;&gt;Node26</title>
<path fill="none" stroke="midnightblue" d="M428.576,-112.324C413.46,-103.822 390.185,-90.7288 372.529,-80.7975"/>
<polygon fill="midnightblue" stroke="midnightblue" points="373.817,-77.5066 363.386,-75.6545 370.386,-83.6077 373.817,-77.5066"/>
</g>
<!-- Node21&#45;&gt;Node8 -->
<g id="edge32" class="edge"><title>Node21&#45;&gt;Node8</title>
<path fill="none" stroke="midnightblue" d="M471.056,-119.141C582.26,-111.501 1005.84,-82.4003 1167.13,-71.3193"/>
<polygon fill="midnightblue" stroke="midnightblue" points="1167.63,-74.7932 1177.37,-70.6159 1167.15,-67.8097 1167.63,-74.7932"/>
</g>
<!-- Node28 -->
<g id="node28" class="node"><title>Node28</title>
<polygon fill="white" stroke="#bfbfbf" points="151,-112.5 151,-131.5 203,-131.5 203,-112.5 151,-112.5"/>
<text text-anchor="middle" x="177" y="-119.5" font-family="Helvetica,sans-Serif" font-size="10.00">QFrame</text>
</g>
<!-- Node27&#45;&gt;Node28 -->
<g id="edge34" class="edge"><title>Node27&#45;&gt;Node28</title>
<path fill="none" stroke="midnightblue" d="M182.009,-168.083C181.214,-160.927 180.071,-150.635 179.077,-141.691"/>
<polygon fill="midnightblue" stroke="midnightblue" points="182.555,-141.303 177.972,-131.751 175.598,-142.076 182.555,-141.303"/>
</g>
<!-- Node29 -->
<g id="node29" class="node"><title>Node29</title>
<polygon fill="white" stroke="#bfbfbf" points="74.5,-112.5 74.5,-131.5 121.5,-131.5 121.5,-112.5 74.5,-112.5"/>
<text text-anchor="middle" x="98" y="-119.5" font-family="Helvetica,sans-Serif" font-size="10.00">QLabel</text>
</g>
<!-- Node27&#45;&gt;Node29 -->
<g id="edge35" class="edge"><title>Node27&#45;&gt;Node29</title>
<path fill="none" stroke="midnightblue" d="M169.343,-168.324C156.084,-159.9 135.732,-146.971 120.154,-137.074"/>
<polygon fill="midnightblue" stroke="midnightblue" points="121.94,-134.063 111.623,-131.655 118.187,-139.971 121.94,-134.063"/>
</g>
<!-- Node27&#45;&gt;Node20 -->
<g id="edge36" class="edge"><title>Node27&#45;&gt;Node20</title>
<path fill="none" stroke="midnightblue" d="M192.801,-168.324C201.818,-160.341 215.406,-148.313 226.318,-138.653"/>
<polygon fill="midnightblue" stroke="midnightblue" points="228.853,-141.083 234.021,-131.834 224.213,-135.842 228.853,-141.083"/>
</g>
<!-- Node27&#45;&gt;Node21 -->
<g id="edge37" class="edge"><title>Node27&#45;&gt;Node21</title>
<path fill="none" stroke="midnightblue" d="M215.528,-170.27C264.109,-160.219 355.377,-141.336 406.631,-130.732"/>
<polygon fill="midnightblue" stroke="midnightblue" points="407.544,-134.117 416.627,-128.663 406.125,-127.262 407.544,-134.117"/>
</g>
<!-- Node30&#45;&gt;Node18 -->
<g id="edge39" class="edge"><title>Node30&#45;&gt;Node18</title>
<path fill="none" stroke="midnightblue" d="M77.36,-168.324C68.4904,-160.341 55.1253,-148.313 44.3921,-138.653"/>
<polygon fill="midnightblue" stroke="midnightblue" points="46.5898,-135.922 36.8154,-131.834 41.907,-141.125 46.5898,-135.922"/>
</g>
<!-- Node30&#45;&gt;Node29 -->
<g id="edge40" class="edge"><title>Node30&#45;&gt;Node29</title>
<path fill="none" stroke="midnightblue" d="M88.8164,-168.083C90.2741,-160.927 92.3706,-150.635 94.1925,-141.691"/>
<polygon fill="midnightblue" stroke="midnightblue" points="97.6508,-142.248 96.2174,-131.751 90.7917,-140.851 97.6508,-142.248"/>
</g>
<!-- Node30&#45;&gt;Node20 -->
<g id="edge41" class="edge"><title>Node30&#45;&gt;Node20</title>
<path fill="none" stroke="midnightblue" d="M111.877,-168.444C138.911,-159.145 182.197,-144.257 211.805,-134.073"/>
<polygon fill="midnightblue" stroke="midnightblue" points="212.96,-137.377 221.278,-130.815 210.684,-130.758 212.96,-137.377"/>
</g>
<!-- Node31&#45;&gt;Node15 -->
<g id="edge43" class="edge"><title>Node31&#45;&gt;Node15</title>
<path fill="none" stroke="midnightblue" d="M898.051,-292.401C878.436,-285.324 853.076,-273.567 836,-256 793.723,-212.506 791.966,-191.253 779,-132 777.1,-123.317 774.819,-119.844 779,-112 786.55,-97.8339 800.761,-87.3348 814.158,-80.0576"/>
<polygon fill="midnightblue" stroke="midnightblue" points="815.834,-83.1329 823.212,-75.5289 812.702,-76.8724 815.834,-83.1329"/>
</g>
<!-- Node32 -->
<g id="node32" class="node"><title>Node32</title>
<polygon fill="white" stroke="#bfbfbf" points="924,-230.5 924,-249.5 994,-249.5 994,-230.5 924,-230.5"/>
<text text-anchor="middle" x="959" y="-237.5" font-family="Helvetica,sans-Serif" font-size="10.00">QTcpSocket</text>
</g>
<!-- Node31&#45;&gt;Node32 -->
<g id="edge44" class="edge"><title>Node31&#45;&gt;Node32</title>
<path fill="none" stroke="midnightblue" d="M931.585,-292.403C936.29,-283.582 943.743,-269.608 949.691,-258.455"/>
<polygon fill="midnightblue" stroke="midnightblue" points="952.806,-260.051 954.424,-249.581 946.63,-256.757 952.806,-260.051"/>
</g>
<!-- Node33 -->
<g id="node33" class="node"><title>Node33</title>
<polygon fill="white" stroke="#bfbfbf" points="1429,-230.5 1429,-249.5 1503,-249.5 1503,-230.5 1429,-230.5"/>
<text text-anchor="middle" x="1466" y="-237.5" font-family="Helvetica,sans-Serif" font-size="10.00">QTextStream</text>
</g>
<!-- Node31&#45;&gt;Node33 -->
<g id="edge45" class="edge"><title>Node31&#45;&gt;Node33</title>
<path fill="none" stroke="midnightblue" d="M969.162,-299.862C1054.2,-296.965 1252.05,-287.171 1415,-256 1420.14,-255.017 1425.5,-253.735 1430.73,-252.333"/>
<polygon fill="midnightblue" stroke="midnightblue" points="1431.89,-255.642 1440.55,-249.538 1429.98,-248.909 1431.89,-255.642"/>
</g>
<!-- Node31&#45;&gt;Node20 -->
<g id="edge46" class="edge"><title>Node31&#45;&gt;Node20</title>
<path fill="none" stroke="midnightblue" d="M884.997,-300.322C808.759,-298.251 643.006,-289.869 508,-256 429.87,-236.4 411.077,-225.902 340,-188 311.942,-173.038 281.955,-151.789 263.104,-137.71"/>
<polygon fill="midnightblue" stroke="midnightblue" points="265.126,-134.851 255.038,-131.614 260.906,-140.436 265.126,-134.851"/>
</g>
<!-- Node31&#45;&gt;Node8 -->
<g id="edge47" class="edge"><title>Node31&#45;&gt;Node8</title>
<path fill="none" stroke="midnightblue" d="M969.192,-300.942C1106.22,-300.366 1532.63,-295.397 1579,-256 1609.29,-230.26 1619.07,-199.636 1595,-168 1558.51,-120.039 1387.11,-88.975 1292.73,-75.2026"/>
<polygon fill="midnightblue" stroke="midnightblue" points="1293.13,-71.7237 1282.73,-73.766 1292.13,-78.6526 1293.13,-71.7237"/>
</g>
<!-- Node34 -->
<g id="node34" class="node"><title>Node34</title>
<polygon fill="white" stroke="#bfbfbf" points="1521.5,-230.5 1521.5,-249.5 1570.5,-249.5 1570.5,-230.5 1521.5,-230.5"/>
<text text-anchor="middle" x="1546" y="-237.5" font-family="Helvetica,sans-Serif" font-size="10.00">QBuffer</text>
</g>
<!-- Node31&#45;&gt;Node34 -->
<g id="edge48" class="edge"><title>Node31&#45;&gt;Node34</title>
<path fill="none" stroke="midnightblue" d="M969.309,-299.6C1085.73,-295.452 1409.01,-281.874 1512,-256 1514.67,-255.33 1517.38,-254.468 1520.07,-253.497"/>
<polygon fill="midnightblue" stroke="midnightblue" points="1521.53,-256.679 1529.45,-249.643 1518.87,-250.204 1521.53,-256.679"/>
</g>
<!-- Node31&#45;&gt;Node21 -->
<g id="edge49" class="edge"><title>Node31&#45;&gt;Node21</title>
<path fill="none" stroke="midnightblue" d="M884.812,-295.321C847.082,-289.14 790.965,-277.18 746,-256 686.492,-227.969 686.544,-195.954 627,-168 579.355,-145.632 519.324,-133.606 481.289,-127.757"/>
<polygon fill="midnightblue" stroke="midnightblue" points="481.576,-124.262 471.173,-126.268 480.557,-131.187 481.576,-124.262"/>
</g>
<!-- Node35 -->
<g id="node35" class="node"><title>Node35</title>
<g id="a_node35"><a xlink:href="../../dc/d96/jsoncommand_8h.xhtml" target="_top" xlink:title="../resources/jsoncommand.h">
<polygon fill="white" stroke="black" points="826,-168.5 826,-187.5 966,-187.5 966,-168.5 826,-168.5"/>
<text text-anchor="middle" x="896" y="-175.5" font-family="Helvetica,sans-Serif" font-size="10.00">../resources/jsoncommand.h</text>
</a>
</g>
</g>
<!-- Node31&#45;&gt;Node35 -->
<g id="edge50" class="edge"><title>Node31&#45;&gt;Node35</title>
<path fill="none" stroke="midnightblue" d="M924.652,-292.386C922.197,-283.338 918.257,-268.687 915,-256 909.876,-236.039 904.249,-213.098 900.459,-197.485"/>
<polygon fill="midnightblue" stroke="midnightblue" points="903.811,-196.455 898.057,-187.559 897.007,-198.102 903.811,-196.455"/>
</g>
<!-- Node37 -->
<g id="node37" class="node"><title>Node37</title>
<g id="a_node37"><a xlink:href="../../d4/d05/json_8h.xhtml" target="_top" xlink:title="json.h">
<polygon fill="white" stroke="black" points="788.5,-112.5 788.5,-131.5 831.5,-131.5 831.5,-112.5 788.5,-112.5"/>
<text text-anchor="middle" x="810" y="-119.5" font-family="Helvetica,sans-Serif" font-size="10.00">json.h</text>
</a>
</g>
</g>
<!-- Node31&#45;&gt;Node37 -->
<g id="edge57" class="edge"><title>Node31&#45;&gt;Node37</title>
<path fill="none" stroke="midnightblue" d="M914.007,-292.263C890.061,-275.347 839.372,-235.568 817,-188 810.207,-173.557 808.765,-155.368 808.845,-141.906"/>
<polygon fill="midnightblue" stroke="midnightblue" points="812.343,-142.01 809.186,-131.897 805.347,-141.772 812.343,-142.01"/>
</g>
<!-- Node31&#45;&gt;Node14 -->
<g id="edge58" class="edge"><title>Node31&#45;&gt;Node14</title>
<path fill="none" stroke="midnightblue" d="M969.025,-298.617C1040.65,-294.002 1190.7,-281.929 1315,-256 1362.76,-246.038 1372.84,-236.506 1420,-224 1490.03,-205.426 1533.78,-244.609 1579,-188 1620.1,-136.552 1379.85,-125.721 1257.82,-123.515"/>
<polygon fill="midnightblue" stroke="midnightblue" points="1257.88,-120.016 1247.82,-123.349 1257.76,-127.015 1257.88,-120.016"/>
</g>
<!-- Node38 -->
<g id="node38" class="node"><title>Node38</title>
<g id="a_node38"><a xlink:href="../../db/dd2/events_8h.xhtml" target="_top" xlink:title="../resources/events\l/events.h">
<polygon fill="white" stroke="black" points="1207.5,-225 1207.5,-255 1306.5,-255 1306.5,-225 1207.5,-225"/>
<text text-anchor="start" x="1215.5" y="-243" font-family="Helvetica,sans-Serif" font-size="10.00">../resources/events</text>
<text text-anchor="middle" x="1257" y="-232" font-family="Helvetica,sans-Serif" font-size="10.00">/events.h</text>
</a>
</g>
</g>
<!-- Node31&#45;&gt;Node38 -->
<g id="edge59" class="edge"><title>Node31&#45;&gt;Node38</title>
<path fill="none" stroke="midnightblue" d="M969.13,-293.34C1026.94,-282.829 1131.17,-263.878 1197.09,-251.894"/>
<polygon fill="midnightblue" stroke="midnightblue" points="1198.11,-255.265 1207.32,-250.032 1196.86,-248.378 1198.11,-255.265"/>
</g>
<!-- Node35&#45;&gt;Node15 -->
<g id="edge51" class="edge"><title>Node35&#45;&gt;Node15</title>
<path fill="none" stroke="midnightblue" d="M892.077,-168.368C883.935,-150.456 865.056,-108.923 854.158,-84.9482"/>
<polygon fill="midnightblue" stroke="midnightblue" points="857.23,-83.2468 849.905,-75.5914 850.857,-86.1434 857.23,-83.2468"/>
</g>
<!-- Node36 -->
<g id="node36" class="node"><title>Node36</title>
<polygon fill="white" stroke="#bfbfbf" points="888,-112.5 888,-131.5 962,-131.5 962,-112.5 888,-112.5"/>
<text text-anchor="middle" x="925" y="-119.5" font-family="Helvetica,sans-Serif" font-size="10.00">QVariantMap</text>
</g>
<!-- Node35&#45;&gt;Node36 -->
<g id="edge52" class="edge"><title>Node35&#45;&gt;Node36</title>
<path fill="none" stroke="midnightblue" d="M900.789,-168.083C904.758,-160.691 910.525,-149.953 915.435,-140.811"/>
<polygon fill="midnightblue" stroke="midnightblue" points="918.653,-142.217 920.3,-131.751 912.486,-138.905 918.653,-142.217"/>
</g>
<!-- Node35&#45;&gt;Node37 -->
<g id="edge53" class="edge"><title>Node35&#45;&gt;Node37</title>
<path fill="none" stroke="midnightblue" d="M882.183,-168.324C868.767,-159.9 848.176,-146.971 832.414,-137.074"/>
<polygon fill="midnightblue" stroke="midnightblue" points="834.113,-134.008 823.783,-131.655 830.391,-139.936 834.113,-134.008"/>
</g>
<!-- Node35&#45;&gt;Node8 -->
<g id="edge56" class="edge"><title>Node35&#45;&gt;Node8</title>
<path fill="none" stroke="midnightblue" d="M921.93,-168.46C981.12,-148.966 1126.28,-101.159 1194.05,-78.839"/>
<polygon fill="midnightblue" stroke="midnightblue" points="1195.45,-82.0629 1203.86,-75.6104 1193.26,-75.4142 1195.45,-82.0629"/>
</g>
<!-- Node37&#45;&gt;Node16 -->
<g id="edge54" class="edge"><title>Node37&#45;&gt;Node16</title>
<path fill="none" stroke="midnightblue" d="M831.778,-113.263C857.075,-104.276 899.095,-89.3479 928.543,-78.886"/>
<polygon fill="midnightblue" stroke="midnightblue" points="929.754,-82.1701 938.006,-75.5243 927.411,-75.574 929.754,-82.1701"/>
</g>
<!-- Node37&#45;&gt;Node5 -->
<g id="edge55" class="edge"><title>Node37&#45;&gt;Node5</title>
<path fill="none" stroke="midnightblue" d="M800.199,-112.324C791.182,-104.341 777.594,-92.3128 766.682,-82.6529"/>
<polygon fill="midnightblue" stroke="midnightblue" points="768.787,-79.8416 758.979,-75.8339 764.147,-85.083 768.787,-79.8416"/>
</g>
<!-- Node39 -->
<g id="node39" class="node"><title>Node39</title>
<g id="a_node39"><a xlink:href="../../db/d70/eventchat_8h.xhtml" target="_top" xlink:title="eventchat.h">
<polygon fill="white" stroke="black" points="1405,-168.5 1405,-187.5 1471,-187.5 1471,-168.5 1405,-168.5"/>
<text text-anchor="middle" x="1438" y="-175.5" font-family="Helvetica,sans-Serif" font-size="10.00">eventchat.h</text>
</a>
</g>
</g>
<!-- Node38&#45;&gt;Node39 -->
<g id="edge60" class="edge"><title>Node38&#45;&gt;Node39</title>
<path fill="none" stroke="midnightblue" d="M1299.44,-224.933C1330.89,-214.508 1373.24,-200.467 1402.82,-190.663"/>
<polygon fill="midnightblue" stroke="midnightblue" points="1403.93,-193.982 1412.32,-187.513 1401.73,-187.337 1403.93,-193.982"/>
</g>
<!-- Node40 -->
<g id="node40" class="node"><title>Node40</title>
<g id="a_node40"><a xlink:href="../../d5/d02/eventuserjoin_8h.xhtml" target="_top" xlink:title="eventuserjoin.h">
<polygon fill="white" stroke="black" points="1489.5,-168.5 1489.5,-187.5 1570.5,-187.5 1570.5,-168.5 1489.5,-168.5"/>
<text text-anchor="middle" x="1530" y="-175.5" font-family="Helvetica,sans-Serif" font-size="10.00">eventuserjoin.h</text>
</a>
</g>
</g>
<!-- Node38&#45;&gt;Node40 -->
<g id="edge62" class="edge"><title>Node38&#45;&gt;Node40</title>
<path fill="none" stroke="midnightblue" d="M1306.75,-228.065C1356.39,-217.155 1432.17,-200.502 1481.4,-189.682"/>
<polygon fill="midnightblue" stroke="midnightblue" points="1482.16,-193.098 1491.18,-187.533 1480.66,-186.261 1482.16,-193.098"/>
</g>
<!-- Node41 -->
<g id="node41" class="node"><title>Node41</title>
<g id="a_node41"><a xlink:href="../../d7/d56/eventuserleave_8h.xhtml" target="_top" xlink:title="eventuserleave.h">
<polygon fill="white" stroke="black" points="1022,-168.5 1022,-187.5 1110,-187.5 1110,-168.5 1022,-168.5"/>
<text text-anchor="middle" x="1066" y="-175.5" font-family="Helvetica,sans-Serif" font-size="10.00">eventuserleave.h</text>
</a>
</g>
</g>
<!-- Node38&#45;&gt;Node41 -->
<g id="edge64" class="edge"><title>Node38&#45;&gt;Node41</title>
<path fill="none" stroke="midnightblue" d="M1212.22,-224.933C1178.89,-214.462 1133.95,-200.345 1102.72,-190.536"/>
<polygon fill="midnightblue" stroke="midnightblue" points="1103.69,-187.171 1093.1,-187.513 1101.59,-193.849 1103.69,-187.171"/>
</g>
<!-- Node42 -->
<g id="node42" class="node"><title>Node42</title>
<g id="a_node42"><a xlink:href="../../db/db0/eventuserchangestatus_8h.xhtml" target="_top" xlink:title="eventuserchangestatus.h">
<polygon fill="white" stroke="black" points="1127.5,-168.5 1127.5,-187.5 1252.5,-187.5 1252.5,-168.5 1127.5,-168.5"/>
<text text-anchor="middle" x="1190" y="-175.5" font-family="Helvetica,sans-Serif" font-size="10.00">eventuserchangestatus.h</text>
</a>
</g>
</g>
<!-- Node38&#45;&gt;Node42 -->
<g id="edge66" class="edge"><title>Node38&#45;&gt;Node42</title>
<path fill="none" stroke="midnightblue" d="M1241.12,-224.781C1230.98,-215.703 1217.84,-203.929 1207.41,-194.595"/>
<polygon fill="midnightblue" stroke="midnightblue" points="1209.53,-191.794 1199.75,-187.731 1204.86,-197.009 1209.53,-191.794"/>
</g>
<!-- Node43 -->
<g id="node43" class="node"><title>Node43</title>
<g id="a_node43"><a xlink:href="../../d8/d44/eventuserchangenick_8h.xhtml" target="_top" xlink:title="eventuserchangenick.h">
<polygon fill="white" stroke="black" points="1271,-168.5 1271,-187.5 1387,-187.5 1387,-168.5 1271,-168.5"/>
<text text-anchor="middle" x="1329" y="-175.5" font-family="Helvetica,sans-Serif" font-size="10.00">eventuserchangenick.h</text>
</a>
</g>
</g>
<!-- Node38&#45;&gt;Node43 -->
<g id="edge68" class="edge"><title>Node38&#45;&gt;Node43</title>
<path fill="none" stroke="midnightblue" d="M1274.06,-224.781C1285.06,-215.613 1299.37,-203.696 1310.62,-194.319"/>
<polygon fill="midnightblue" stroke="midnightblue" points="1313.08,-196.821 1318.52,-187.731 1308.6,-191.444 1313.08,-196.821"/>
</g>
<!-- Node39&#45;&gt;Node14 -->
<g id="edge61" class="edge"><title>Node39&#45;&gt;Node14</title>
<path fill="none" stroke="midnightblue" d="M1404.81,-169.773C1362.3,-160.517 1288.26,-144.396 1239.19,-133.711"/>
<polygon fill="midnightblue" stroke="midnightblue" points="1239.63,-130.225 1229.12,-131.518 1238.14,-137.065 1239.63,-130.225"/>
</g>
<!-- Node40&#45;&gt;Node14 -->
<g id="edge63" class="edge"><title>Node40&#45;&gt;Node14</title>
<path fill="none" stroke="midnightblue" d="M1489.36,-169.599C1486.19,-169.049 1483.04,-168.51 1480,-168 1403.88,-155.245 1316.3,-141.828 1257.48,-132.999"/>
<polygon fill="midnightblue" stroke="midnightblue" points="1257.97,-129.534 1247.57,-131.514 1256.94,-136.457 1257.97,-129.534"/>
</g>
<!-- Node41&#45;&gt;Node14 -->
<g id="edge65" class="edge"><title>Node41&#45;&gt;Node14</title>
<path fill="none" stroke="midnightblue" d="M1085.65,-168.444C1105.96,-159.596 1137.9,-145.687 1161.1,-135.586"/>
<polygon fill="midnightblue" stroke="midnightblue" points="1162.67,-138.718 1170.44,-131.516 1159.88,-132.3 1162.67,-138.718"/>
</g>
<!-- Node42&#45;&gt;Node14 -->
<g id="edge67" class="edge"><title>Node42&#45;&gt;Node14</title>
<path fill="none" stroke="midnightblue" d="M1190,-168.083C1190,-161.006 1190,-150.861 1190,-141.986"/>
<polygon fill="midnightblue" stroke="midnightblue" points="1193.5,-141.751 1190,-131.751 1186.5,-141.751 1193.5,-141.751"/>
</g>
<!-- Node43&#45;&gt;Node14 -->
<g id="edge69" class="edge"><title>Node43&#45;&gt;Node14</title>
<path fill="none" stroke="midnightblue" d="M1306.98,-168.444C1283.9,-159.478 1247.44,-145.314 1221.36,-135.183"/>
<polygon fill="midnightblue" stroke="midnightblue" points="1222.51,-131.875 1211.92,-131.516 1219.98,-138.4 1222.51,-131.875"/>
</g>
<!-- Node44&#45;&gt;Node5 -->
<g id="edge71" class="edge"><title>Node44&#45;&gt;Node5</title>
<path fill="none" stroke="midnightblue" d="M566.892,-230.478C582.17,-220.87 607.183,-204.434 627,-188 668.492,-153.59 712.192,-107.473 734.312,-83.3181"/>
<polygon fill="midnightblue" stroke="midnightblue" points="737.059,-85.4991 741.197,-75.7455 731.88,-80.7901 737.059,-85.4991"/>
</g>
<!-- Node45 -->
<g id="node45" class="node"><title>Node45</title>
<polygon fill="white" stroke="#bfbfbf" points="578,-168.5 578,-187.5 618,-187.5 618,-168.5 578,-168.5"/>
<text text-anchor="middle" x="598" y="-175.5" font-family="Helvetica,sans-Serif" font-size="10.00">QFile</text>
</g>
<!-- Node44&#45;&gt;Node45 -->
<g id="edge72" class="edge"><title>Node44&#45;&gt;Node45</title>
<path fill="none" stroke="midnightblue" d="M559.447,-230.403C566.197,-221.403 576.969,-207.041 585.413,-195.782"/>
<polygon fill="midnightblue" stroke="midnightblue" points="588.365,-197.681 591.565,-187.581 582.765,-193.481 588.365,-197.681"/>
</g>
<!-- Node46 -->
<g id="node46" class="node"><title>Node46</title>
<polygon fill="white" stroke="#bfbfbf" points="458,-168.5 458,-187.5 560,-187.5 560,-168.5 458,-168.5"/>
<text text-anchor="middle" x="509" y="-175.5" font-family="Helvetica,sans-Serif" font-size="10.00">QXmlStreamReader</text>
</g>
<!-- Node44&#45;&gt;Node46 -->
<g id="edge73" class="edge"><title>Node44&#45;&gt;Node46</title>
<path fill="none" stroke="midnightblue" d="M546.696,-230.403C540.096,-221.403 529.563,-207.041 521.307,-195.782"/>
<polygon fill="midnightblue" stroke="midnightblue" points="524.029,-193.575 515.292,-187.581 518.384,-197.714 524.029,-193.575"/>
</g>
<!-- Node44&#45;&gt;Node19 -->
<g id="edge74" class="edge"><title>Node44&#45;&gt;Node19</title>
<path fill="none" stroke="midnightblue" d="M527.497,-230.403C496.699,-220.022 444.735,-202.506 410.152,-190.849"/>
<polygon fill="midnightblue" stroke="midnightblue" points="411.05,-187.458 400.456,-187.581 408.814,-194.092 411.05,-187.458"/>
</g>
<!-- Node44&#45;&gt;Node21 -->
<g id="edge75" class="edge"><title>Node44&#45;&gt;Node21</title>
<path fill="none" stroke="midnightblue" d="M516.753,-231.045C493.368,-223.9 464.517,-210.886 449,-188 439.879,-174.547 439.417,-155.733 440.771,-141.806"/>
<polygon fill="midnightblue" stroke="midnightblue" points="444.241,-142.259 442.114,-131.88 437.304,-141.32 444.241,-142.259"/>
</g>
</g>
</svg>
        <g id="navigator" transform="translate(0 0)" fill="#404254">
                <rect fill="#f2f5e9" fill-opacity="0.5" stroke="#606060" stroke-width=".5" x="0" y="0" width="60" height="60"/>
                <use id="zoomplus" xlink:href="#zoomPlus" x="17" y="9" onmousedown="handleZoom(evt,'in')"/>
                <use id="zoomminus" xlink:href="#zoomMin" x="42" y="9" onmousedown="handleZoom(evt,'out')"/>
                <use id="reset" xlink:href="#resetDef" x="30" y="36" onmousedown="handleReset()"/>
                <g id="arrowUp" xlink:href="#dirArrow" transform="translate(30 24)" onmousedown="handlePan(0,-1)">
                  <use xlink:href="#rim" fill="#404040">
                        <set attributeName="fill" to="#808080" begin="arrowUp.mouseover" end="arrowUp.mouseout"/>
                  </use>
                  <path fill="none" stroke="white" stroke-width="1.5" d="M0,-3.0v7 M-2.5,-0.5L0,-3.0L2.5,-0.5"/>
                </g>
                <g id="arrowRight" xlink:href="#dirArrow" transform="rotate(90) translate(36 -43)" onmousedown="handlePan(1,0)">
                  <use xlink:href="#rim" fill="#404040">
                        <set attributeName="fill" to="#808080" begin="arrowRight.mouseover" end="arrowRight.mouseout"/>
                  </use>
                  <path fill="none" stroke="white" stroke-width="1.5" d="M0,-3.0v7 M-2.5,-0.5L0,-3.0L2.5,-0.5"/>
                </g>
                <g id="arrowDown" xlink:href="#dirArrow" transform="rotate(180) translate(-30 -48)" onmousedown="handlePan(0,1)">
                  <use xlink:href="#rim" fill="#404040">
                        <set attributeName="fill" to="#808080" begin="arrowDown.mouseover" end="arrowDown.mouseout"/>
                  </use>
                  <path fill="none" stroke="white" stroke-width="1.5" d="M0,-3.0v7 M-2.5,-0.5L0,-3.0L2.5,-0.5"/>
                </g>
                <g id="arrowLeft" xlink:href="#dirArrow" transform="rotate(270) translate(-36 17)" onmousedown="handlePan(-1,0)">
                  <use xlink:href="#rim" fill="#404040">
                        <set attributeName="fill" to="#808080" begin="arrowLeft.mouseover" end="arrowLeft.mouseout"/>
                  </use>
                  <path fill="none" stroke="white" stroke-width="1.5" d="M0,-3.0v7 M-2.5,-0.5L0,-3.0L2.5,-0.5"/>
                </g>
        </g>
        <svg viewBox="0 0 15 15" width="100%" height="30px" preserveAspectRatio="xMaxYMin meet">
         <g id="arrow_out" transform="scale(0.3 0.3)">
          <a xlink:href="custom_irc_client_2main_8cpp__incl_org.svg" target="_base">
           <rect id="button" ry="5" rx="5" y="6" x="6" height="38" width="38"
                fill="#f2f5e9" fill-opacity="0.5" stroke="#606060" stroke-width="1.0"/>
           <path id="arrow"
             d="M 11.500037,31.436501 C 11.940474,20.09759 22.043105,11.32322 32.158766,21.979434 L 37.068811,17.246167 C 37.068811,17.246167 37.088388,32 37.088388,32 L 22.160133,31.978069 C 22.160133,31.978069 26.997745,27.140456 26.997745,27.140456 C 18.528582,18.264221 13.291696,25.230495 11.500037,31.436501 z"
             style="fill:#404040;"/>
          </a>
         </g>
        </svg>
</svg>
