<?xml version="1.0" encoding="UTF-8" standalone="no"?>
<!DOCTYPE svg PUBLIC "-//W3C//DTD SVG 1.1//EN"
 "http://www.w3.org/Graphics/SVG/1.1/DTD/svg11.dtd">
<!-- Generated by graphviz version 2.30.1 (20130303.0817)
 -->
<!-- Title: C++/customIrcClient/desktop/clsuserentry.h Pages: 1 -->
<svg width="269pt" height="176pt"
 viewBox="0.00 0.00 269.00 176.00" xmlns="http://www.w3.org/2000/svg" xmlns:xlink="http://www.w3.org/1999/xlink">
<g id="graph0" class="graph" transform="scale(1 1) rotate(0) translate(4 172)">
<title>C++/customIrcClient/desktop/clsuserentry.h</title>
<polygon fill="white" stroke="white" points="-4,5 -4,-172 266,-172 266,5 -4,5"/>
<!-- Node1 -->
<g id="node1" class="node"><title>Node1</title>
<polygon fill="#bfbfbf" stroke="black" points="73.5,-137 73.5,-167 192.5,-167 192.5,-137 73.5,-137"/>
<text text-anchor="start" x="81.5" y="-155" font-family="Helvetica,sans-Serif" font-size="10.00">C++/customIrcClient</text>
<text text-anchor="middle" x="133" y="-144" font-family="Helvetica,sans-Serif" font-size="10.00">/desktop/clsuserentry.h</text>
</g>
<!-- Node2 -->
<g id="node2" class="node"><title>Node2</title>
<g id="a_node2"><a xlink:href="../../dd/d08/clsuserentry_8cpp.xhtml" target="_top" xlink:title="C++/customIrcClient\l/desktop/clsuserentry.cpp">
<polygon fill="white" stroke="black" points="-0.5,-69 -0.5,-99 128.5,-99 128.5,-69 -0.5,-69"/>
<text text-anchor="start" x="7.5" y="-87" font-family="Helvetica,sans-Serif" font-size="10.00">C++/customIrcClient</text>
<text text-anchor="middle" x="64" y="-76" font-family="Helvetica,sans-Serif" font-size="10.00">/desktop/clsuserentry.cpp</text>
</a>
</g>
</g>
<!-- Node1&#45;&gt;Node2 -->
<g id="edge1" class="edge"><title>Node1&#45;&gt;Node2</title>
<path fill="none" stroke="midnightblue" d="M110.508,-129.485C100.157,-119.585 88.1596,-108.109 78.9428,-99.2931"/>
<polygon fill="midnightblue" stroke="midnightblue" points="108.382,-132.296 118.028,-136.679 113.221,-127.237 108.382,-132.296"/>
</g>
<!-- Node3 -->
<g id="node3" class="node"><title>Node3</title>
<g id="a_node3"><a xlink:href="../../da/d60/clsuserlist_8h.xhtml" target="_top" xlink:title="C++/customIrcClient\l/desktop/clsuserlist.h">
<polygon fill="white" stroke="black" points="147,-69 147,-99 257,-99 257,-69 147,-69"/>
<text text-anchor="start" x="155" y="-87" font-family="Helvetica,sans-Serif" font-size="10.00">C++/customIrcClient</text>
<text text-anchor="middle" x="202" y="-76" font-family="Helvetica,sans-Serif" font-size="10.00">/desktop/clsuserlist.h</text>
</a>
</g>
</g>
<!-- Node1&#45;&gt;Node3 -->
<g id="edge2" class="edge"><title>Node1&#45;&gt;Node3</title>
<path fill="none" stroke="midnightblue" d="M155.492,-129.485C165.843,-119.585 177.84,-108.109 187.057,-99.2931"/>
<polygon fill="midnightblue" stroke="midnightblue" points="152.779,-127.237 147.972,-136.679 157.618,-132.296 152.779,-127.237"/>
</g>
<!-- Node4 -->
<g id="node4" class="node"><title>Node4</title>
<g id="a_node4"><a xlink:href="../../d6/d86/clsuserlist_8cpp.xhtml" target="_top" xlink:title="C++/customIrcClient\l/desktop/clsuserlist.cpp">
<polygon fill="white" stroke="black" points="142,-1 142,-31 262,-31 262,-1 142,-1"/>
<text text-anchor="start" x="150" y="-19" font-family="Helvetica,sans-Serif" font-size="10.00">C++/customIrcClient</text>
<text text-anchor="middle" x="202" y="-8" font-family="Helvetica,sans-Serif" font-size="10.00">/desktop/clsuserlist.cpp</text>
</a>
</g>
</g>
<!-- Node3&#45;&gt;Node4 -->
<g id="edge3" class="edge"><title>Node3&#45;&gt;Node4</title>
<path fill="none" stroke="midnightblue" d="M202,-58.5322C202,-49.3606 202,-39.2449 202,-31.2931"/>
<polygon fill="midnightblue" stroke="midnightblue" points="198.5,-58.6789 202,-68.679 205.5,-58.679 198.5,-58.6789"/>
</g>
</g>
</svg>
