<?xml version="1.0" encoding="UTF-8" standalone="no"?>
<!DOCTYPE svg PUBLIC "-//W3C//DTD SVG 1.1//EN"
 "http://www.w3.org/Graphics/SVG/1.1/DTD/svg11.dtd">
<!-- Generated by graphviz version 2.30.1 (20130303.0817)
 -->
<!-- Title: C++/customIrcClient/clssettings.h Pages: 1 -->
<svg width="298pt" height="176pt"
 viewBox="0.00 0.00 298.00 176.00" xmlns="http://www.w3.org/2000/svg" xmlns:xlink="http://www.w3.org/1999/xlink">
<g id="graph0" class="graph" transform="scale(1 1) rotate(0) translate(4 172)">
<title>C++/customIrcClient/clssettings.h</title>
<polygon fill="white" stroke="white" points="-4,5 -4,-172 295,-172 295,5 -4,5"/>
<!-- Node1 -->
<g id="node1" class="node"><title>Node1</title>
<polygon fill="#bfbfbf" stroke="black" points="61,-137 61,-167 167,-167 167,-137 61,-137"/>
<text text-anchor="start" x="69" y="-155" font-family="Helvetica,sans-Serif" font-size="10.00">C++/customIrcClient</text>
<text text-anchor="middle" x="114" y="-144" font-family="Helvetica,sans-Serif" font-size="10.00">/clssettings.h</text>
</g>
<!-- Node2 -->
<g id="node2" class="node"><title>Node2</title>
<g id="a_node2"><a xlink:href="../../df/dc0/custom_irc_client_2clssettings_8cpp.html" target="_top" xlink:title="C++/customIrcClient\l/clssettings.cpp">
<polygon fill="white" stroke="black" points="-1,-69 -1,-99 105,-99 105,-69 -1,-69"/>
<text text-anchor="start" x="7" y="-87" font-family="Helvetica,sans-Serif" font-size="10.00">C++/customIrcClient</text>
<text text-anchor="middle" x="52" y="-76" font-family="Helvetica,sans-Serif" font-size="10.00">/clssettings.cpp</text>
</a>
</g>
</g>
<!-- Node1&#45;&gt;Node2 -->
<g id="edge1" class="edge"><title>Node1&#45;&gt;Node2</title>
<path fill="none" stroke="midnightblue" d="M93.5154,-129.194C84.278,-119.36 73.6274,-108.023 65.4268,-99.2931"/>
<polygon fill="midnightblue" stroke="midnightblue" points="91.1492,-131.787 100.547,-136.679 96.2511,-126.994 91.1492,-131.787"/>
</g>
<!-- Node3 -->
<g id="node3" class="node"><title>Node3</title>
<g id="a_node3"><a xlink:href="../../d9/d53/mainwindow_8h.html" target="_top" xlink:title="C++/customIrcClient\l/mainwindow.h">
<polygon fill="white" stroke="black" points="123,-69 123,-99 229,-99 229,-69 123,-69"/>
<text text-anchor="start" x="131" y="-87" font-family="Helvetica,sans-Serif" font-size="10.00">C++/customIrcClient</text>
<text text-anchor="middle" x="176" y="-76" font-family="Helvetica,sans-Serif" font-size="10.00">/mainwindow.h</text>
</a>
</g>
</g>
<!-- Node1&#45;&gt;Node3 -->
<g id="edge2" class="edge"><title>Node1&#45;&gt;Node3</title>
<path fill="none" stroke="midnightblue" d="M134.485,-129.194C143.722,-119.36 154.373,-108.023 162.573,-99.2931"/>
<polygon fill="midnightblue" stroke="midnightblue" points="131.749,-126.994 127.453,-136.679 136.851,-131.787 131.749,-126.994"/>
</g>
<!-- Node4 -->
<g id="node4" class="node"><title>Node4</title>
<g id="a_node4"><a xlink:href="../../df/d94/custom_irc_client_2main_8cpp.html" target="_top" xlink:title="C++/customIrcClient\l/main.cpp">
<polygon fill="white" stroke="black" points="61,-1 61,-31 167,-31 167,-1 61,-1"/>
<text text-anchor="start" x="69" y="-19" font-family="Helvetica,sans-Serif" font-size="10.00">C++/customIrcClient</text>
<text text-anchor="middle" x="114" y="-8" font-family="Helvetica,sans-Serif" font-size="10.00">/main.cpp</text>
</a>
</g>
</g>
<!-- Node3&#45;&gt;Node4 -->
<g id="edge3" class="edge"><title>Node3&#45;&gt;Node4</title>
<path fill="none" stroke="midnightblue" d="M155.515,-61.1939C146.278,-51.3605 135.627,-40.0228 127.427,-31.2931"/>
<polygon fill="midnightblue" stroke="midnightblue" points="153.149,-63.7869 162.547,-68.679 158.251,-58.9941 153.149,-63.7869"/>
</g>
<!-- Node5 -->
<g id="node5" class="node"><title>Node5</title>
<g id="a_node5"><a xlink:href="../../d8/dd9/mainwindow_8cpp.html" target="_top" xlink:title="C++/customIrcClient\l/mainwindow.cpp">
<polygon fill="white" stroke="black" points="185,-1 185,-31 291,-31 291,-1 185,-1"/>
<text text-anchor="start" x="193" y="-19" font-family="Helvetica,sans-Serif" font-size="10.00">C++/customIrcClient</text>
<text text-anchor="middle" x="238" y="-8" font-family="Helvetica,sans-Serif" font-size="10.00">/mainwindow.cpp</text>
</a>
</g>
</g>
<!-- Node3&#45;&gt;Node5 -->
<g id="edge4" class="edge"><title>Node3&#45;&gt;Node5</title>
<path fill="none" stroke="midnightblue" d="M196.485,-61.1939C205.722,-51.3605 216.373,-40.0228 224.573,-31.2931"/>
<polygon fill="midnightblue" stroke="midnightblue" points="193.749,-58.9941 189.453,-68.679 198.851,-63.7869 193.749,-58.9941"/>
</g>
</g>
</svg>
