<?xml version="1.0" encoding="UTF-8" standalone="no"?>
<!DOCTYPE svg PUBLIC "-//W3C//DTD SVG 1.1//EN"
 "http://www.w3.org/Graphics/SVG/1.1/DTD/svg11.dtd">
<!-- Generated by graphviz version 2.30.1 (20130303.0817)
 -->
<!-- Title: org.kde.necessitas.origo.QtActivity Pages: 1 -->
<!--zoomable 502 -->
<svg id="main" version="1.1" xmlns="http://www.w3.org/2000/svg" xmlns:xlink="http://www.w3.org/1999/xlink" xml:space="preserve" onload="init(evt)">
        <defs>
                <circle id="rim" cx="0" cy="0" r="7"/>
                <circle id="rim2" cx="0" cy="0" r="3.5"/>
                <g id="zoomPlus">
                        <use xlink:href="#rim" fill="#404040">
                                <set attributeName="fill" to="#808080" begin="zoomplus.mouseover" end="zoomplus.mouseout"/>
                        </use>
                        <path d="M-4,0h8M0,-4v8" fill="none" stroke="white" stroke-width="1.5" pointer-events="none"/>
                </g>
                <g id="zoomMin">
                        <use xlink:href="#rim" fill="#404040">
                                <set attributeName="fill" to="#808080" begin="zoomminus.mouseover" end="zoomminus.mouseout"/>
                        </use>
                        <path d="M-4,0h8" fill="none" stroke="white" stroke-width="1.5" pointer-events="none"/>
                </g>
                <g id="dirArrow">
                        <path fill="none" stroke="white" stroke-width="1.5" d="M0,-3.0v7 M-2.5,-0.5L0,-3.0L2.5,-0.5"/>
                </g>
               <g id="resetDef">
                       <use xlink:href="#rim2" fill="#404040">
                               <set attributeName="fill" to="#808080" begin="reset.mouseover" end="reset.mouseout"/>
                       </use>
               </g>
        </defs>

<script type="text/javascript">
var viewWidth = 386;
var viewHeight = 502;
var sectionId = 'dynsection-1';
</script>
<script xlink:href="../../svgpan.js"/>
<svg id="graph" class="graph">
<g id="viewport">
<title>org.kde.necessitas.origo.QtActivity</title>
<polygon fill="white" stroke="white" points="-4,5 -4,-498 383,-498 383,5 -4,5"/>
<!-- Node1 -->
<g id="node1" class="node"><title>Node1</title>
<polygon fill="#bfbfbf" stroke="black" points="79.5,-0.5 79.5,-387.5 276.5,-387.5 276.5,-0.5 79.5,-0.5"/>
<text text-anchor="start" x="87.5" y="-375.5" font-family="Helvetica,sans-Serif" font-size="10.00">org.kde.necessitas.origo.</text>
<text text-anchor="middle" x="178" y="-364.5" font-family="Helvetica,sans-Serif" font-size="10.00">QtActivity</text>
<polyline fill="none" stroke="black" points="79.5,-357.5 276.5,-357.5 "/>
<text text-anchor="start" x="87.5" y="-345.5" font-family="Helvetica,sans-Serif" font-size="10.00">&#45; m_qtLibs</text>
<text text-anchor="start" x="87.5" y="-334.5" font-family="Helvetica,sans-Serif" font-size="10.00">&#45; MINISTRO_INSTALL_REQUEST_CODE</text>
<text text-anchor="start" x="87.5" y="-323.5" font-family="Helvetica,sans-Serif" font-size="10.00">&#45; MINISTRO_API_LEVEL</text>
<text text-anchor="start" x="87.5" y="-312.5" font-family="Helvetica,sans-Serif" font-size="10.00">&#45; NECESSITAS_API_LEVEL</text>
<text text-anchor="start" x="87.5" y="-301.5" font-family="Helvetica,sans-Serif" font-size="10.00">&#45; QT_PROVIDER</text>
<text text-anchor="start" x="87.5" y="-290.5" font-family="Helvetica,sans-Serif" font-size="10.00">&#45; QT_VERSION</text>
<text text-anchor="start" x="87.5" y="-279.5" font-family="Helvetica,sans-Serif" font-size="10.00">&#45; ERROR_CODE_KEY</text>
<text text-anchor="start" x="87.5" y="-268.5" font-family="Helvetica,sans-Serif" font-size="10.00">&#45; ERROR_MESSAGE_KEY</text>
<text text-anchor="start" x="87.5" y="-257.5" font-family="Helvetica,sans-Serif" font-size="10.00">and 17 more...</text>
<polyline fill="none" stroke="black" points="79.5,-250.5 276.5,-250.5 "/>
<text text-anchor="start" x="87.5" y="-238.5" font-family="Helvetica,sans-Serif" font-size="10.00">+ dispatchKeyEvent()</text>
<text text-anchor="start" x="87.5" y="-227.5" font-family="Helvetica,sans-Serif" font-size="10.00">+ super_dispatchKeyEvent()</text>
<text text-anchor="start" x="87.5" y="-216.5" font-family="Helvetica,sans-Serif" font-size="10.00">+ dispatchPopulateAccessibility</text>
<text text-anchor="start" x="87.5" y="-205.5" font-family="Helvetica,sans-Serif" font-size="10.00">Event()</text>
<text text-anchor="start" x="87.5" y="-194.5" font-family="Helvetica,sans-Serif" font-size="10.00">+ super_dispatchPopulateAccessibility</text>
<text text-anchor="start" x="87.5" y="-183.5" font-family="Helvetica,sans-Serif" font-size="10.00">Event()</text>
<text text-anchor="start" x="87.5" y="-172.5" font-family="Helvetica,sans-Serif" font-size="10.00">+ dispatchTouchEvent()</text>
<text text-anchor="start" x="87.5" y="-161.5" font-family="Helvetica,sans-Serif" font-size="10.00">+ super_dispatchTouchEvent()</text>
<text text-anchor="start" x="87.5" y="-150.5" font-family="Helvetica,sans-Serif" font-size="10.00">+ dispatchTrackballEvent()</text>
<text text-anchor="start" x="87.5" y="-139.5" font-family="Helvetica,sans-Serif" font-size="10.00">and 79 more...</text>
<text text-anchor="start" x="87.5" y="-128.5" font-family="Helvetica,sans-Serif" font-size="10.00"># onActivityResult()</text>
<text text-anchor="start" x="87.5" y="-117.5" font-family="Helvetica,sans-Serif" font-size="10.00"># onApplyThemeResource()</text>
<text text-anchor="start" x="87.5" y="-106.5" font-family="Helvetica,sans-Serif" font-size="10.00"># onChildTitleChanged()</text>
<text text-anchor="start" x="87.5" y="-95.5" font-family="Helvetica,sans-Serif" font-size="10.00"># onCreateDialog()</text>
<text text-anchor="start" x="87.5" y="-84.5" font-family="Helvetica,sans-Serif" font-size="10.00"># onDestroy()</text>
<text text-anchor="start" x="87.5" y="-73.5" font-family="Helvetica,sans-Serif" font-size="10.00"># onNewIntent()</text>
<text text-anchor="start" x="87.5" y="-62.5" font-family="Helvetica,sans-Serif" font-size="10.00"># onPause()</text>
<text text-anchor="start" x="87.5" y="-51.5" font-family="Helvetica,sans-Serif" font-size="10.00">and 13 more...</text>
<text text-anchor="start" x="87.5" y="-40.5" font-family="Helvetica,sans-Serif" font-size="10.00">&#45; loadApplication()</text>
<text text-anchor="start" x="87.5" y="-29.5" font-family="Helvetica,sans-Serif" font-size="10.00">&#45; downloadUpgradeMinistro()</text>
<text text-anchor="start" x="87.5" y="-18.5" font-family="Helvetica,sans-Serif" font-size="10.00">&#45; ministroNotFound()</text>
<text text-anchor="start" x="87.5" y="-7.5" font-family="Helvetica,sans-Serif" font-size="10.00">&#45; startApp()</text>
</g>
<!-- Node2 -->
<g id="node2" class="node"><title>Node2</title>
<polygon fill="white" stroke="#bfbfbf" points="0,-436.5 0,-493.5 48,-493.5 48,-436.5 0,-436.5"/>
<text text-anchor="middle" x="24" y="-481.5" font-family="Helvetica,sans-Serif" font-size="10.00">Activity</text>
<polyline fill="none" stroke="#bfbfbf" points="0,-474.5 48,-474.5 "/>
<text text-anchor="middle" x="24" y="-462.5" font-family="Helvetica,sans-Serif" font-size="10.00"> </text>
<polyline fill="none" stroke="#bfbfbf" points="0,-455.5 48,-455.5 "/>
<text text-anchor="middle" x="24" y="-443.5" font-family="Helvetica,sans-Serif" font-size="10.00"> </text>
</g>
<!-- Node2&#45;&gt;Node1 -->
<g id="edge1" class="edge"><title>Node2&#45;&gt;Node1</title>
<path fill="none" stroke="midnightblue" d="M44.8008,-427.666C54.3693,-410.952 66.4804,-389.797 79.4813,-367.088"/>
<polygon fill="none" stroke="midnightblue" points="41.6879,-426.059 39.757,-436.476 47.7628,-429.537 41.6879,-426.059"/>
</g>
<!-- Node3 -->
<g id="node3" class="node"><title>Node3</title>
<polygon fill="white" stroke="#bfbfbf" points="66.5,-436.5 66.5,-493.5 163.5,-493.5 163.5,-436.5 66.5,-436.5"/>
<text text-anchor="middle" x="115" y="-481.5" font-family="Helvetica,sans-Serif" font-size="10.00">ServiceConnection</text>
<polyline fill="none" stroke="#bfbfbf" points="66.5,-474.5 163.5,-474.5 "/>
<text text-anchor="middle" x="115" y="-462.5" font-family="Helvetica,sans-Serif" font-size="10.00"> </text>
<polyline fill="none" stroke="#bfbfbf" points="66.5,-455.5 163.5,-455.5 "/>
<text text-anchor="middle" x="115" y="-443.5" font-family="Helvetica,sans-Serif" font-size="10.00"> </text>
</g>
<!-- Node3&#45;&gt;Node1 -->
<g id="edge2" class="edge"><title>Node3&#45;&gt;Node1</title>
<path fill="none" stroke="#404040" d="M113.969,-436.434C114.005,-426.763 114.495,-415.856 116,-406 116.317,-403.924 116.649,-401.84 116.995,-399.749"/>
<polygon fill="none" stroke="#404040" points="117.035,-399.524 114.143,-392.918 119.128,-387.707 122.02,-394.313 117.035,-399.524"/>
<text text-anchor="middle" x="167.5" y="-409.5" font-family="Helvetica,sans-Serif" font-size="10.00"> &#45;m_ministroConnection</text>
</g>
<!-- Node4 -->
<g id="node4" class="node"><title>Node4</title>
<polygon fill="white" stroke="#bfbfbf" points="209.5,-436.5 209.5,-493.5 272.5,-493.5 272.5,-436.5 209.5,-436.5"/>
<text text-anchor="middle" x="241" y="-481.5" font-family="Helvetica,sans-Serif" font-size="10.00">ActivityInfo</text>
<polyline fill="none" stroke="#bfbfbf" points="209.5,-474.5 272.5,-474.5 "/>
<text text-anchor="middle" x="241" y="-462.5" font-family="Helvetica,sans-Serif" font-size="10.00"> </text>
<polyline fill="none" stroke="#bfbfbf" points="209.5,-455.5 272.5,-455.5 "/>
<text text-anchor="middle" x="241" y="-443.5" font-family="Helvetica,sans-Serif" font-size="10.00"> </text>
</g>
<!-- Node4&#45;&gt;Node1 -->
<g id="edge3" class="edge"><title>Node4&#45;&gt;Node1</title>
<path fill="none" stroke="#404040" d="M234.554,-436.476C232.153,-426.224 229.205,-413.639 225.928,-399.647"/>
<polygon fill="none" stroke="#404040" points="225.84,-399.267 220.577,-394.337 223.103,-387.583 228.366,-392.513 225.84,-399.267"/>
<text text-anchor="middle" x="261.5" y="-409.5" font-family="Helvetica,sans-Serif" font-size="10.00"> &#45;m_activityInfo</text>
</g>
<!-- Node5 -->
<g id="node5" class="node"><title>Node5</title>
<polygon fill="white" stroke="#bfbfbf" points="291,-436.5 291,-493.5 379,-493.5 379,-436.5 291,-436.5"/>
<text text-anchor="middle" x="335" y="-481.5" font-family="Helvetica,sans-Serif" font-size="10.00">DexClassLoader</text>
<polyline fill="none" stroke="#bfbfbf" points="291,-474.5 379,-474.5 "/>
<text text-anchor="middle" x="335" y="-462.5" font-family="Helvetica,sans-Serif" font-size="10.00"> </text>
<polyline fill="none" stroke="#bfbfbf" points="291,-455.5 379,-455.5 "/>
<text text-anchor="middle" x="335" y="-443.5" font-family="Helvetica,sans-Serif" font-size="10.00"> </text>
</g>
<!-- Node5&#45;&gt;Node1 -->
<g id="edge4" class="edge"><title>Node5&#45;&gt;Node1</title>
<path fill="none" stroke="#404040" d="M318.936,-436.476C309.533,-420.366 296.767,-398.493 282.738,-374.456"/>
<polygon fill="none" stroke="#404040" points="282.703,-374.396 276.224,-371.23 276.654,-364.032 283.133,-367.198 282.703,-374.396"/>
<text text-anchor="middle" x="341.5" y="-409.5" font-family="Helvetica,sans-Serif" font-size="10.00"> &#45;m_classLoader</text>
</g>
</g>
</svg>
        <g id="navigator" transform="translate(0 0)" fill="#404254">
                <rect fill="#f2f5e9" fill-opacity="0.5" stroke="#606060" stroke-width=".5" x="0" y="0" width="60" height="60"/>
                <use id="zoomplus" xlink:href="#zoomPlus" x="17" y="9" onmousedown="handleZoom(evt,'in')"/>
                <use id="zoomminus" xlink:href="#zoomMin" x="42" y="9" onmousedown="handleZoom(evt,'out')"/>
                <use id="reset" xlink:href="#resetDef" x="30" y="36" onmousedown="handleReset()"/>
                <g id="arrowUp" xlink:href="#dirArrow" transform="translate(30 24)" onmousedown="handlePan(0,-1)">
                  <use xlink:href="#rim" fill="#404040">
                        <set attributeName="fill" to="#808080" begin="arrowUp.mouseover" end="arrowUp.mouseout"/>
                  </use>
                  <path fill="none" stroke="white" stroke-width="1.5" d="M0,-3.0v7 M-2.5,-0.5L0,-3.0L2.5,-0.5"/>
                </g>
                <g id="arrowRight" xlink:href="#dirArrow" transform="rotate(90) translate(36 -43)" onmousedown="handlePan(1,0)">
                  <use xlink:href="#rim" fill="#404040">
                        <set attributeName="fill" to="#808080" begin="arrowRight.mouseover" end="arrowRight.mouseout"/>
                  </use>
                  <path fill="none" stroke="white" stroke-width="1.5" d="M0,-3.0v7 M-2.5,-0.5L0,-3.0L2.5,-0.5"/>
                </g>
                <g id="arrowDown" xlink:href="#dirArrow" transform="rotate(180) translate(-30 -48)" onmousedown="handlePan(0,1)">
                  <use xlink:href="#rim" fill="#404040">
                        <set attributeName="fill" to="#808080" begin="arrowDown.mouseover" end="arrowDown.mouseout"/>
                  </use>
                  <path fill="none" stroke="white" stroke-width="1.5" d="M0,-3.0v7 M-2.5,-0.5L0,-3.0L2.5,-0.5"/>
                </g>
                <g id="arrowLeft" xlink:href="#dirArrow" transform="rotate(270) translate(-36 17)" onmousedown="handlePan(-1,0)">
                  <use xlink:href="#rim" fill="#404040">
                        <set attributeName="fill" to="#808080" begin="arrowLeft.mouseover" end="arrowLeft.mouseout"/>
                  </use>
                  <path fill="none" stroke="white" stroke-width="1.5" d="M0,-3.0v7 M-2.5,-0.5L0,-3.0L2.5,-0.5"/>
                </g>
        </g>
        <svg viewBox="0 0 15 15" width="100%" height="30px" preserveAspectRatio="xMaxYMin meet">
         <g id="arrow_out" transform="scale(0.3 0.3)">
          <a xlink:href="classorg_1_1kde_1_1necessitas_1_1origo_1_1_qt_activity__coll__graph_org.svg" target="_base">
           <rect id="button" ry="5" rx="5" y="6" x="6" height="38" width="38"
                fill="#f2f5e9" fill-opacity="0.5" stroke="#606060" stroke-width="1.0"/>
           <path id="arrow"
             d="M 11.500037,31.436501 C 11.940474,20.09759 22.043105,11.32322 32.158766,21.979434 L 37.068811,17.246167 C 37.068811,17.246167 37.088388,32 37.088388,32 L 22.160133,31.978069 C 22.160133,31.978069 26.997745,27.140456 26.997745,27.140456 C 18.528582,18.264221 13.291696,25.230495 11.500037,31.436501 z"
             style="fill:#404040;"/>
          </a>
         </g>
        </svg>
</svg>
