<?xml version="1.0" encoding="UTF-8" standalone="no"?>
<!DOCTYPE svg PUBLIC "-//W3C//DTD SVG 1.1//EN"
 "http://www.w3.org/Graphics/SVG/1.1/DTD/svg11.dtd">
<!-- Generated by graphviz version 2.30.1 (20130303.0817)
 -->
<!-- Title: client::ircUser::ircUser Pages: 1 -->
<svg width="450pt" height="38pt"
 viewBox="0.00 0.00 450.00 38.00" xmlns="http://www.w3.org/2000/svg" xmlns:xlink="http://www.w3.org/1999/xlink">
<g id="graph0" class="graph" transform="scale(1 1) rotate(0) translate(4 34)">
<title>client::ircUser::ircUser</title>
<polygon fill="white" stroke="white" points="-4,5 -4,-34 447,-34 447,5 -4,5"/>
<!-- Node1 -->
<g id="node1" class="node"><title>Node1</title>
<polygon fill="#bfbfbf" stroke="black" points="0.5,-5.5 0.5,-24.5 113.5,-24.5 113.5,-5.5 0.5,-5.5"/>
<text text-anchor="middle" x="57" y="-12.5" font-family="Helvetica,sans-Serif" font-size="10.00">client::ircUser::ircUser</text>
</g>
<!-- Node2 -->
<g id="node2" class="node"><title>Node2</title>
<g id="a_node2"><a xlink:href="../../d6/d69/classclient_1_1irc_user.html#a10dddba7236ce4577fd11eb906005d55" target="_top" xlink:title="client::ircUser::slot\l_netwManagerFinished">
<polygon fill="white" stroke="black" points="150,-0 150,-30 266,-30 266,-0 150,-0"/>
<text text-anchor="start" x="158" y="-18" font-family="Helvetica,sans-Serif" font-size="10.00">client::ircUser::slot</text>
<text text-anchor="middle" x="208" y="-7" font-family="Helvetica,sans-Serif" font-size="10.00">_netwManagerFinished</text>
</a>
</g>
</g>
<!-- Node1&#45;&gt;Node2 -->
<g id="edge1" class="edge"><title>Node1&#45;&gt;Node2</title>
<path fill="none" stroke="midnightblue" d="M113.906,-15C122.334,-15 131.101,-15 139.737,-15"/>
<polygon fill="midnightblue" stroke="midnightblue" points="139.787,-18.5001 149.787,-15 139.787,-11.5001 139.787,-18.5001"/>
</g>
<!-- Node3 -->
<g id="node3" class="node"><title>Node3</title>
<g id="a_node3"><a xlink:href="../../d6/d69/classclient_1_1irc_user.html#a80f421ad537905c9bb6b3ecca9356984" target="_top" xlink:title="client::ircUser::iconChanged">
<polygon fill="white" stroke="black" points="302.5,-5.5 302.5,-24.5 441.5,-24.5 441.5,-5.5 302.5,-5.5"/>
<text text-anchor="middle" x="372" y="-12.5" font-family="Helvetica,sans-Serif" font-size="10.00">client::ircUser::iconChanged</text>
</a>
</g>
</g>
<!-- Node2&#45;&gt;Node3 -->
<g id="edge2" class="edge"><title>Node2&#45;&gt;Node3</title>
<path fill="none" stroke="midnightblue" d="M266.115,-15C274.561,-15 283.388,-15 292.181,-15"/>
<polygon fill="midnightblue" stroke="midnightblue" points="292.462,-18.5001 302.462,-15 292.462,-11.5001 292.462,-18.5001"/>
</g>
</g>
</svg>
