<?xml version="1.0" encoding="UTF-8" standalone="no"?>
<!DOCTYPE svg PUBLIC "-//W3C//DTD SVG 1.1//EN"
 "http://www.w3.org/Graphics/SVG/1.1/DTD/svg11.dtd">
<!-- Generated by graphviz version 2.30.1 (20130303.0817)
 -->
<!-- Title: client::ircUser::getColor Pages: 1 -->
<svg width="402pt" height="131pt"
 viewBox="0.00 0.00 402.00 131.00" xmlns="http://www.w3.org/2000/svg" xmlns:xlink="http://www.w3.org/1999/xlink">
<g id="graph0" class="graph" transform="scale(1 1) rotate(0) translate(4 127)">
<title>client::ircUser::getColor</title>
<polygon fill="white" stroke="white" points="-4,5 -4,-127 399,-127 399,5 -4,5"/>
<!-- Node1 -->
<g id="node1" class="node"><title>Node1</title>
<polygon fill="#bfbfbf" stroke="black" points="0.5,-54.5 0.5,-73.5 119.5,-73.5 119.5,-54.5 0.5,-54.5"/>
<text text-anchor="middle" x="60" y="-61.5" font-family="Helvetica,sans-Serif" font-size="10.00">client::ircUser::getColor</text>
</g>
<!-- Node2 -->
<g id="node2" class="node"><title>Node2</title>
<g id="a_node2"><a xlink:href="../../d5/dfb/classclient_1_1chat_entry.html#a153e1d0693c3069839e04878844b431f" target="_top" xlink:title="client::chatEntry::init">
<polygon fill="white" stroke="black" points="156.5,-98.5 156.5,-117.5 263.5,-117.5 263.5,-98.5 156.5,-98.5"/>
<text text-anchor="middle" x="210" y="-105.5" font-family="Helvetica,sans-Serif" font-size="10.00">client::chatEntry::init</text>
</a>
</g>
</g>
<!-- Node1&#45;&gt;Node2 -->
<g id="edge1" class="edge"><title>Node1&#45;&gt;Node2</title>
<path fill="none" stroke="midnightblue" d="M102.826,-76.4347C126.342,-83.426 155.241,-92.0177 176.949,-98.4713"/>
<polygon fill="midnightblue" stroke="midnightblue" points="103.697,-73.0422 93.1138,-73.5473 101.702,-79.752 103.697,-73.0422"/>
</g>
<!-- Node4 -->
<g id="node4" class="node"><title>Node4</title>
<g id="a_node4"><a xlink:href="../../d0/ddb/classclient_1_1cls_user_entry.html#a906da840f42f13d4a0f398c8c5ad6da6" target="_top" xlink:title="client::clsUserEntry\l::clsUserEntry">
<polygon fill="white" stroke="black" points="159,-49 159,-79 261,-79 261,-49 159,-49"/>
<text text-anchor="start" x="167" y="-67" font-family="Helvetica,sans-Serif" font-size="10.00">client::clsUserEntry</text>
<text text-anchor="middle" x="210" y="-56" font-family="Helvetica,sans-Serif" font-size="10.00">::clsUserEntry</text>
</a>
</g>
</g>
<!-- Node1&#45;&gt;Node4 -->
<g id="edge3" class="edge"><title>Node1&#45;&gt;Node4</title>
<path fill="none" stroke="midnightblue" d="M129.993,-64C139.728,-64 149.579,-64 158.868,-64"/>
<polygon fill="midnightblue" stroke="midnightblue" points="129.919,-60.5001 119.919,-64 129.919,-67.5001 129.919,-60.5001"/>
</g>
<!-- Node5 -->
<g id="node5" class="node"><title>Node5</title>
<g id="a_node5"><a xlink:href="../../d0/ddb/classclient_1_1cls_user_entry.html#a878c280a93fabf2651880629103e1ef3" target="_top" xlink:title="client::clsUserEntry\l::refresh">
<polygon fill="white" stroke="black" points="159,-0 159,-30 261,-30 261,-0 159,-0"/>
<text text-anchor="start" x="167" y="-18" font-family="Helvetica,sans-Serif" font-size="10.00">client::clsUserEntry</text>
<text text-anchor="middle" x="210" y="-7" font-family="Helvetica,sans-Serif" font-size="10.00">::refresh</text>
</a>
</g>
</g>
<!-- Node1&#45;&gt;Node5 -->
<g id="edge4" class="edge"><title>Node1&#45;&gt;Node5</title>
<path fill="none" stroke="midnightblue" d="M99.4203,-51.2798C119.044,-44.7828 143.048,-36.8355 163.582,-30.037"/>
<polygon fill="midnightblue" stroke="midnightblue" points="98.2804,-47.9703 89.8872,-54.436 100.481,-54.6155 98.2804,-47.9703"/>
</g>
<!-- Node3 -->
<g id="node3" class="node"><title>Node3</title>
<g id="a_node3"><a xlink:href="../../d5/dfb/classclient_1_1chat_entry.html#a242327cb4a358fdbc182147d2fadf00c" target="_top" xlink:title="Constructor not taking a time.">
<polygon fill="white" stroke="black" points="300,-93 300,-123 394,-123 394,-93 300,-93"/>
<text text-anchor="start" x="308" y="-111" font-family="Helvetica,sans-Serif" font-size="10.00">client::chatEntry::</text>
<text text-anchor="middle" x="347" y="-100" font-family="Helvetica,sans-Serif" font-size="10.00">chatEntry</text>
</a>
</g>
</g>
<!-- Node2&#45;&gt;Node3 -->
<g id="edge2" class="edge"><title>Node2&#45;&gt;Node3</title>
<path fill="none" stroke="midnightblue" d="M273.822,-108C282.617,-108 291.52,-108 299.927,-108"/>
<polygon fill="midnightblue" stroke="midnightblue" points="273.581,-104.5 263.581,-108 273.581,-111.5 273.581,-104.5"/>
</g>
</g>
</svg>
