<?xml version="1.0" encoding="UTF-8" standalone="no"?>
<!DOCTYPE svg PUBLIC "-//W3C//DTD SVG 1.1//EN"
 "http://www.w3.org/Graphics/SVG/1.1/DTD/svg11.dtd">
<!-- Generated by graphviz version 2.30.1 (20130303.0817)
 -->
<!-- Title: client::ircUser::getIcon Pages: 1 -->
<svg width="398pt" height="101pt"
 viewBox="0.00 0.00 398.00 100.88" xmlns="http://www.w3.org/2000/svg" xmlns:xlink="http://www.w3.org/1999/xlink">
<g id="graph0" class="graph" transform="scale(1 1) rotate(0) translate(4 96.8765)">
<title>client::ircUser::getIcon</title>
<polygon fill="white" stroke="white" points="-4,5 -4,-96.8765 395,-96.8765 395,5 -4,5"/>
<!-- Node1 -->
<g id="node1" class="node"><title>Node1</title>
<polygon fill="#bfbfbf" stroke="black" points="0,-54.5 0,-73.5 114,-73.5 114,-54.5 0,-54.5"/>
<text text-anchor="middle" x="57" y="-61.5" font-family="Helvetica,sans-Serif" font-size="10.00">client::ircUser::getIcon</text>
</g>
<!-- Node2 -->
<g id="node2" class="node"><title>Node2</title>
<g id="a_node2"><a xlink:href="../../d0/ddb/classclient_1_1cls_user_entry.html#a906da840f42f13d4a0f398c8c5ad6da6" target="_top" xlink:title="client::clsUserEntry\l::clsUserEntry">
<polygon fill="white" stroke="black" points="288,-46 288,-76 390,-76 390,-46 288,-46"/>
<text text-anchor="start" x="296" y="-64" font-family="Helvetica,sans-Serif" font-size="10.00">client::clsUserEntry</text>
<text text-anchor="middle" x="339" y="-53" font-family="Helvetica,sans-Serif" font-size="10.00">::clsUserEntry</text>
</a>
</g>
</g>
<!-- Node1&#45;&gt;Node2 -->
<g id="edge1" class="edge"><title>Node1&#45;&gt;Node2</title>
<path fill="none" stroke="midnightblue" d="M96.7456,-76.4533C113.009,-81.0641 132.238,-85.7214 150,-88 194.965,-93.7685 207.19,-94.8688 252,-88 267.623,-85.6052 284.305,-80.8973 298.778,-76.0743"/>
<polygon fill="midnightblue" stroke="midnightblue" points="97.623,-73.0633 87.0422,-73.6102 95.6546,-79.7809 97.623,-73.0633"/>
</g>
<!-- Node3 -->
<g id="node3" class="node"><title>Node3</title>
<g id="a_node3"><a xlink:href="../../d0/ddb/classclient_1_1cls_user_entry.html#a878c280a93fabf2651880629103e1ef3" target="_top" xlink:title="client::clsUserEntry\l::refresh">
<polygon fill="white" stroke="black" points="150,-49 150,-79 252,-79 252,-49 150,-49"/>
<text text-anchor="start" x="158" y="-67" font-family="Helvetica,sans-Serif" font-size="10.00">client::clsUserEntry</text>
<text text-anchor="middle" x="201" y="-56" font-family="Helvetica,sans-Serif" font-size="10.00">::refresh</text>
</a>
</g>
</g>
<!-- Node1&#45;&gt;Node3 -->
<g id="edge2" class="edge"><title>Node1&#45;&gt;Node3</title>
<path fill="none" stroke="midnightblue" d="M124.17,-64C132.792,-64 141.51,-64 149.811,-64"/>
<polygon fill="midnightblue" stroke="midnightblue" points="124.122,-60.5001 114.122,-64 124.122,-67.5001 124.122,-60.5001"/>
</g>
<!-- Node4 -->
<g id="node4" class="node"><title>Node4</title>
<g id="a_node4"><a xlink:href="../../d0/ddb/classclient_1_1cls_user_entry.html#a3a0fe3fd86b54b785fac07a22a52f508" target="_top" xlink:title="client::clsUserEntry\l::iconChanged">
<polygon fill="white" stroke="black" points="150,-0 150,-30 252,-30 252,-0 150,-0"/>
<text text-anchor="start" x="158" y="-18" font-family="Helvetica,sans-Serif" font-size="10.00">client::clsUserEntry</text>
<text text-anchor="middle" x="201" y="-7" font-family="Helvetica,sans-Serif" font-size="10.00">::iconChanged</text>
</a>
</g>
</g>
<!-- Node1&#45;&gt;Node4 -->
<g id="edge3" class="edge"><title>Node1&#45;&gt;Node4</title>
<path fill="none" stroke="midnightblue" d="M95.3796,-51.1014C114.111,-44.6378 136.901,-36.7735 156.423,-30.037"/>
<polygon fill="midnightblue" stroke="midnightblue" points="94.0274,-47.8654 85.7161,-54.436 96.3109,-54.4825 94.0274,-47.8654"/>
</g>
<!-- Node4&#45;&gt;Node2 -->
<g id="edge4" class="edge"><title>Node4&#45;&gt;Node2</title>
<path fill="none" stroke="midnightblue" d="M256.242,-33.3465C268.559,-37.5125 281.504,-41.891 293.368,-45.904"/>
<polygon fill="midnightblue" stroke="midnightblue" points="257.126,-29.9507 246.531,-30.0621 254.883,-36.5817 257.126,-29.9507"/>
</g>
</g>
</svg>
