<?xml version="1.0" encoding="UTF-8" standalone="no"?>
<!DOCTYPE svg PUBLIC "-//W3C//DTD SVG 1.1//EN"
 "http://www.w3.org/Graphics/SVG/1.1/DTD/svg11.dtd">
<!-- Generated by graphviz version 2.30.1 (20130303.0817)
 -->
<!-- Title: client::ircUser::iconChanged Pages: 1 -->
<svg width="450pt" height="38pt"
 viewBox="0.00 0.00 450.00 38.00" xmlns="http://www.w3.org/2000/svg" xmlns:xlink="http://www.w3.org/1999/xlink">
<g id="graph0" class="graph" transform="scale(1 1) rotate(0) translate(4 34)">
<title>client::ircUser::iconChanged</title>
<polygon fill="white" stroke="white" points="-4,5 -4,-34 447,-34 447,5 -4,5"/>
<!-- Node1 -->
<g id="node1" class="node"><title>Node1</title>
<polygon fill="#bfbfbf" stroke="black" points="0.5,-5.5 0.5,-24.5 139.5,-24.5 139.5,-5.5 0.5,-5.5"/>
<text text-anchor="middle" x="70" y="-12.5" font-family="Helvetica,sans-Serif" font-size="10.00">client::ircUser::iconChanged</text>
</g>
<!-- Node2 -->
<g id="node2" class="node"><title>Node2</title>
<g id="a_node2"><a xlink:href="../../d6/d69/classclient_1_1irc_user.html#a10dddba7236ce4577fd11eb906005d55" target="_top" xlink:title="client::ircUser::slot\l_netwManagerFinished">
<polygon fill="white" stroke="black" points="176,-0 176,-30 292,-30 292,-0 176,-0"/>
<text text-anchor="start" x="184" y="-18" font-family="Helvetica,sans-Serif" font-size="10.00">client::ircUser::slot</text>
<text text-anchor="middle" x="234" y="-7" font-family="Helvetica,sans-Serif" font-size="10.00">_netwManagerFinished</text>
</a>
</g>
</g>
<!-- Node1&#45;&gt;Node2 -->
<g id="edge1" class="edge"><title>Node1&#45;&gt;Node2</title>
<path fill="none" stroke="midnightblue" d="M149.953,-15C158.719,-15 167.516,-15 175.935,-15"/>
<polygon fill="midnightblue" stroke="midnightblue" points="149.703,-11.5001 139.703,-15 149.703,-18.5001 149.703,-11.5001"/>
</g>
<!-- Node3 -->
<g id="node3" class="node"><title>Node3</title>
<g id="a_node3"><a xlink:href="../../d6/d69/classclient_1_1irc_user.html#a4756f42dc5c84f94e97ec5b5eda2b9e2" target="_top" xlink:title="ircUser constructor taking a QVariant for the jsonData">
<polygon fill="white" stroke="black" points="328.5,-5.5 328.5,-24.5 441.5,-24.5 441.5,-5.5 328.5,-5.5"/>
<text text-anchor="middle" x="385" y="-12.5" font-family="Helvetica,sans-Serif" font-size="10.00">client::ircUser::ircUser</text>
</a>
</g>
</g>
<!-- Node2&#45;&gt;Node3 -->
<g id="edge2" class="edge"><title>Node2&#45;&gt;Node3</title>
<path fill="none" stroke="midnightblue" d="M302.27,-15C310.94,-15 319.742,-15 328.2,-15"/>
<polygon fill="midnightblue" stroke="midnightblue" points="302.181,-11.5001 292.181,-15 302.181,-18.5001 302.181,-11.5001"/>
</g>
</g>
</svg>
