<?xml version="1.0" encoding="UTF-8" standalone="no"?>
<!DOCTYPE svg PUBLIC "-//W3C//DTD SVG 1.1//EN"
 "http://www.w3.org/Graphics/SVG/1.1/DTD/svg11.dtd">
<!-- Generated by graphviz version 2.30.1 (20130303.0817)
 -->
<!-- Title: client::ircUser::getId Pages: 1 -->
<svg width="400pt" height="87pt"
 viewBox="0.00 0.00 400.00 87.00" xmlns="http://www.w3.org/2000/svg" xmlns:xlink="http://www.w3.org/1999/xlink">
<g id="graph0" class="graph" transform="scale(1 1) rotate(0) translate(4 83)">
<title>client::ircUser::getId</title>
<polygon fill="white" stroke="white" points="-4,5 -4,-83 397,-83 397,5 -4,5"/>
<!-- Node1 -->
<g id="node1" class="node"><title>Node1</title>
<polygon fill="#bfbfbf" stroke="black" points="0,-29.5 0,-48.5 104,-48.5 104,-29.5 0,-29.5"/>
<text text-anchor="middle" x="52" y="-36.5" font-family="Helvetica,sans-Serif" font-size="10.00">client::ircUser::getId</text>
</g>
<!-- Node2 -->
<g id="node2" class="node"><title>Node2</title>
<g id="a_node2"><a xlink:href="../../d2/da4/classclient_1_1_main_window.html#a13044cd00c53dbbbc6b945c0dfd9b4b4" target="_top" xlink:title="Triggered when the user query came back.">
<polygon fill="white" stroke="black" points="140,-49 140,-79 254,-79 254,-49 140,-49"/>
<text text-anchor="start" x="148" y="-67" font-family="Helvetica,sans-Serif" font-size="10.00">client::MainWindow</text>
<text text-anchor="middle" x="197" y="-56" font-family="Helvetica,sans-Serif" font-size="10.00">::userQueryCompleted</text>
</a>
</g>
</g>
<!-- Node1&#45;&gt;Node2 -->
<g id="edge1" class="edge"><title>Node1&#45;&gt;Node2</title>
<path fill="none" stroke="midnightblue" d="M114.112,-49.6839C122.641,-51.175 131.371,-52.7012 139.803,-54.1754"/>
<polygon fill="midnightblue" stroke="midnightblue" points="114.676,-46.2295 104.222,-47.955 113.47,-53.1249 114.676,-46.2295"/>
</g>
<!-- Node4 -->
<g id="node4" class="node"><title>Node4</title>
<g id="a_node4"><a xlink:href="../../d2/da4/classclient_1_1_main_window.html#a62f7f15ddd56fd52acd7ba01fa6354b4" target="_top" xlink:title="Triggered when a user enters the room.">
<polygon fill="white" stroke="black" points="146.5,-0 146.5,-30 247.5,-30 247.5,-0 146.5,-0"/>
<text text-anchor="start" x="154.5" y="-18" font-family="Helvetica,sans-Serif" font-size="10.00">client::MainWindow</text>
<text text-anchor="middle" x="197" y="-7" font-family="Helvetica,sans-Serif" font-size="10.00">::userEnter</text>
</a>
</g>
</g>
<!-- Node1&#45;&gt;Node4 -->
<g id="edge3" class="edge"><title>Node1&#45;&gt;Node4</title>
<path fill="none" stroke="midnightblue" d="M114.278,-28.7156C124.897,-26.9333 135.823,-25.0996 146.094,-23.3759"/>
<polygon fill="midnightblue" stroke="midnightblue" points="113.505,-25.2963 104.222,-30.4032 114.664,-32.1997 113.505,-25.2963"/>
</g>
<!-- Node3 -->
<g id="node3" class="node"><title>Node3</title>
<g id="a_node3"><a xlink:href="../../d2/da4/classclient_1_1_main_window.html#ab4aedce719340218169c114b31b54f70" target="_top" xlink:title="client::MainWindow\l::MainWindow">
<polygon fill="white" stroke="black" points="290.5,-24 290.5,-54 391.5,-54 391.5,-24 290.5,-24"/>
<text text-anchor="start" x="298.5" y="-42" font-family="Helvetica,sans-Serif" font-size="10.00">client::MainWindow</text>
<text text-anchor="middle" x="341" y="-31" font-family="Helvetica,sans-Serif" font-size="10.00">::MainWindow</text>
</a>
</g>
</g>
<!-- Node2&#45;&gt;Node3 -->
<g id="edge2" class="edge"><title>Node2&#45;&gt;Node3</title>
<path fill="none" stroke="midnightblue" d="M264.018,-52.3771C272.848,-50.8226 281.78,-49.2499 290.267,-47.7559"/>
<polygon fill="midnightblue" stroke="midnightblue" points="263.364,-48.9384 254.122,-54.1193 264.578,-55.8323 263.364,-48.9384"/>
</g>
<!-- Node4&#45;&gt;Node3 -->
<g id="edge4" class="edge"><title>Node4&#45;&gt;Node3</title>
<path fill="none" stroke="midnightblue" d="M257.833,-25.1127C268.586,-26.9301 279.69,-28.8067 290.123,-30.5701"/>
<polygon fill="midnightblue" stroke="midnightblue" points="258.108,-21.6096 247.665,-23.394 256.942,-28.5117 258.108,-21.6096"/>
</g>
</g>
</svg>
