<?xml version="1.0" encoding="UTF-8" standalone="no"?>
<!DOCTYPE svg PUBLIC "-//W3C//DTD SVG 1.1//EN"
 "http://www.w3.org/Graphics/SVG/1.1/DTD/svg11.dtd">
<!-- Generated by graphviz version 2.30.1 (20130303.0817)
 -->
<!-- Title: client::ircUser::getNick Pages: 1 -->
<svg width="406pt" height="178pt"
 viewBox="0.00 0.00 406.00 178.00" xmlns="http://www.w3.org/2000/svg" xmlns:xlink="http://www.w3.org/1999/xlink">
<g id="graph0" class="graph" transform="scale(1 1) rotate(0) translate(4 174)">
<title>client::ircUser::getNick</title>
<polygon fill="white" stroke="white" points="-4,5 -4,-174 403,-174 403,5 -4,5"/>
<!-- Node1 -->
<g id="node1" class="node"><title>Node1</title>
<polygon fill="#bfbfbf" stroke="black" points="0,-76.5 0,-95.5 116,-95.5 116,-76.5 0,-76.5"/>
<text text-anchor="middle" x="58" y="-83.5" font-family="Helvetica,sans-Serif" font-size="10.00">client::ircUser::getNick</text>
</g>
<!-- Node2 -->
<g id="node2" class="node"><title>Node2</title>
<g id="a_node2"><a xlink:href="../../d2/da4/classclient_1_1_main_window.html#a62f7f15ddd56fd52acd7ba01fa6354b4" target="_top" xlink:title="Triggered when a user enters the room.">
<polygon fill="white" stroke="black" points="155.5,-138 155.5,-168 256.5,-168 256.5,-138 155.5,-138"/>
<text text-anchor="start" x="163.5" y="-156" font-family="Helvetica,sans-Serif" font-size="10.00">client::MainWindow</text>
<text text-anchor="middle" x="206" y="-145" font-family="Helvetica,sans-Serif" font-size="10.00">::userEnter</text>
</a>
</g>
</g>
<!-- Node1&#45;&gt;Node2 -->
<g id="edge1" class="edge"><title>Node1&#45;&gt;Node2</title>
<path fill="none" stroke="midnightblue" d="M89.0088,-99.7711C113.252,-110.896 147.323,-126.532 172.266,-137.978"/>
<polygon fill="midnightblue" stroke="midnightblue" points="90.4667,-96.5893 79.9182,-95.5995 87.5471,-102.951 90.4667,-96.5893"/>
</g>
<!-- Node4 -->
<g id="node4" class="node"><title>Node4</title>
<g id="a_node4"><a xlink:href="../../d5/dfb/classclient_1_1chat_entry.html#a153e1d0693c3069839e04878844b431f" target="_top" xlink:title="client::chatEntry::init">
<polygon fill="white" stroke="black" points="152.5,-98.5 152.5,-117.5 259.5,-117.5 259.5,-98.5 152.5,-98.5"/>
<text text-anchor="middle" x="206" y="-105.5" font-family="Helvetica,sans-Serif" font-size="10.00">client::chatEntry::init</text>
</a>
</g>
</g>
<!-- Node1&#45;&gt;Node4 -->
<g id="edge3" class="edge"><title>Node1&#45;&gt;Node4</title>
<path fill="none" stroke="midnightblue" d="M126.368,-96.1513C135.024,-97.4557 143.787,-98.7761 152.165,-100.039"/>
<polygon fill="midnightblue" stroke="midnightblue" points="126.694,-92.661 116.284,-94.6318 125.651,-99.5829 126.694,-92.661"/>
</g>
<!-- Node6 -->
<g id="node6" class="node"><title>Node6</title>
<g id="a_node6"><a xlink:href="../../d0/ddb/classclient_1_1cls_user_entry.html#a906da840f42f13d4a0f398c8c5ad6da6" target="_top" xlink:title="client::clsUserEntry\l::clsUserEntry">
<polygon fill="white" stroke="black" points="155,-49 155,-79 257,-79 257,-49 155,-49"/>
<text text-anchor="start" x="163" y="-67" font-family="Helvetica,sans-Serif" font-size="10.00">client::clsUserEntry</text>
<text text-anchor="middle" x="206" y="-56" font-family="Helvetica,sans-Serif" font-size="10.00">::clsUserEntry</text>
</a>
</g>
</g>
<!-- Node1&#45;&gt;Node6 -->
<g id="edge5" class="edge"><title>Node1&#45;&gt;Node6</title>
<path fill="none" stroke="midnightblue" d="M126.276,-75.8625C135.939,-74.4065 145.736,-72.9302 154.985,-71.5365"/>
<polygon fill="midnightblue" stroke="midnightblue" points="125.651,-72.4171 116.284,-77.3682 126.694,-79.339 125.651,-72.4171"/>
</g>
<!-- Node7 -->
<g id="node7" class="node"><title>Node7</title>
<g id="a_node7"><a xlink:href="../../d0/ddb/classclient_1_1cls_user_entry.html#a878c280a93fabf2651880629103e1ef3" target="_top" xlink:title="client::clsUserEntry\l::refresh">
<polygon fill="white" stroke="black" points="155,-0 155,-30 257,-30 257,-0 155,-0"/>
<text text-anchor="start" x="163" y="-18" font-family="Helvetica,sans-Serif" font-size="10.00">client::clsUserEntry</text>
<text text-anchor="middle" x="206" y="-7" font-family="Helvetica,sans-Serif" font-size="10.00">::refresh</text>
</a>
</g>
</g>
<!-- Node1&#45;&gt;Node7 -->
<g id="edge6" class="edge"><title>Node1&#45;&gt;Node7</title>
<path fill="none" stroke="midnightblue" d="M87.2,-71.8819C105.604,-62.71 130.177,-50.5427 152,-40 158.687,-36.7693 165.87,-33.3483 172.723,-30.1081"/>
<polygon fill="midnightblue" stroke="midnightblue" points="85.5701,-68.7837 78.1853,-76.3808 88.6959,-75.047 85.5701,-68.7837"/>
</g>
<!-- Node3 -->
<g id="node3" class="node"><title>Node3</title>
<g id="a_node3"><a xlink:href="../../d2/da4/classclient_1_1_main_window.html#ab4aedce719340218169c114b31b54f70" target="_top" xlink:title="client::MainWindow\l::MainWindow">
<polygon fill="white" stroke="black" points="296.5,-140 296.5,-170 397.5,-170 397.5,-140 296.5,-140"/>
<text text-anchor="start" x="304.5" y="-158" font-family="Helvetica,sans-Serif" font-size="10.00">client::MainWindow</text>
<text text-anchor="middle" x="347" y="-147" font-family="Helvetica,sans-Serif" font-size="10.00">::MainWindow</text>
</a>
</g>
</g>
<!-- Node2&#45;&gt;Node3 -->
<g id="edge2" class="edge"><title>Node2&#45;&gt;Node3</title>
<path fill="none" stroke="midnightblue" d="M266.831,-153.861C276.588,-154.001 286.605,-154.145 296.091,-154.282"/>
<polygon fill="midnightblue" stroke="midnightblue" points="266.839,-150.361 256.79,-153.716 266.738,-157.36 266.839,-150.361"/>
</g>
<!-- Node5 -->
<g id="node5" class="node"><title>Node5</title>
<g id="a_node5"><a xlink:href="../../d5/dfb/classclient_1_1chat_entry.html#a242327cb4a358fdbc182147d2fadf00c" target="_top" xlink:title="Constructor not taking a time.">
<polygon fill="white" stroke="black" points="300,-91 300,-121 394,-121 394,-91 300,-91"/>
<text text-anchor="start" x="308" y="-109" font-family="Helvetica,sans-Serif" font-size="10.00">client::chatEntry::</text>
<text text-anchor="middle" x="347" y="-98" font-family="Helvetica,sans-Serif" font-size="10.00">chatEntry</text>
</a>
</g>
</g>
<!-- Node4&#45;&gt;Node5 -->
<g id="edge4" class="edge"><title>Node4&#45;&gt;Node5</title>
<path fill="none" stroke="midnightblue" d="M269.598,-107.099C279.745,-106.953 290.091,-106.804 299.757,-106.665"/>
<polygon fill="midnightblue" stroke="midnightblue" points="269.499,-103.6 259.55,-107.244 269.599,-110.6 269.499,-103.6"/>
</g>
</g>
</svg>
